  0
SECTION
  2
HEADER
  9
$ACADVER
  1
AC1014
  9
$HANDSEED
  5
FFFF
  9
$MEASUREMENT
 70
     1
  0
ENDSEC
  0
SECTION
  2
TABLES
  0
TABLE
  2
VPORT
  5
8
330
0
100
AcDbSymbolTable
 70
     4
  0
VPORT
  5
2E
330
8
100
AcDbSymbolTableRecord
100
AcDbViewportTableRecord
  2
*ACTIVE
 70
     0
 10
0.0
 20
0.0
 11
1.0
 21
1.0
 12
210.0
 22
148.5
 13
0.0
 23
0.0
 14
10.0
 24
10.0
 15
10.0
 25
10.0
 16
0.0
 26
0.0
 36
1.0
 17
0.0
 27
0.0
 37
0.0
 40
341.0
 41
1.24
 42
50.0
 43
0.0
 44
0.0
 50
0.0
 51
0.0
 71
     0
 72
   100
 73
     1
 74
     3
 75
     0
 76
     0
 77
     0
 78
     0
  0
ENDTAB
  0
TABLE
  2
LTYPE
  5
5
330
0
100
AcDbSymbolTable
 70
     1
  0
LTYPE
  5
14
330
5
100
AcDbSymbolTableRecord
100
AcDbLinetypeTableRecord
  2
BYBLOCK
 70
     0
  3

 72
    65
 73
     0
 40
0.0
  0
LTYPE
  5
15
330
5
100
AcDbSymbolTableRecord
100
AcDbLinetypeTableRecord
  2
BYLAYER
 70
     0
  3

 72
    65
 73
     0
 40
0.0
  0
LTYPE
  5
16
330
5
100
AcDbSymbolTableRecord
100
AcDbLinetypeTableRecord
  2
CONTINUOUS
 70
     0
  3
Solid line
 72
    65
 73
     0
 40
0.0
  0
ENDTAB
  0
TABLE
  2
LAYER
  5
2
100
AcDbSymbolTable
 70
2
  0
LAYER
  5
50
100
AcDbSymbolTableRecord
100
AcDbLayerTableRecord
  2
0
 70
0
  6
CONTINUOUS
  0
LAYER
  5
51
100
AcDbSymbolTableRecord
100
AcDbLayerTableRecord
  2
newlayer
 70
0
  6
CONTINUOUS
  0
ENDTAB
  0
TABLE
  2
STYLE
  5
3
330
0
100
AcDbSymbolTable
 70
     1
  0
STYLE
  5
11
330
3
100
AcDbSymbolTableRecord
100
AcDbTextStyleTableRecord
  2
STANDARD
 70
     0
 40
0.0
 41
1.0
 50
0.0
 71
     0
 42
2.5
  3
txt
  4

  0
ENDTAB
  0
TABLE
  2
VIEW
  5
6
330
0
100
AcDbSymbolTable
 70
     0
  0
ENDTAB
  0
TABLE
  2
UCS
  5
7
330
0
100
AcDbSymbolTable
 70
     0
  0
ENDTAB
  0
TABLE
  2
APPID
  5
9
330
0
100
AcDbSymbolTable
 70
     2
  0
APPID
  5
12
330
9
100
AcDbSymbolTableRecord
100
AcDbRegAppTableRecord
  2
ACAD
 70
     0
  0
ENDTAB
  0
TABLE
  2
DIMSTYLE
  5
A
330
0
100
AcDbSymbolTable
 70
     1
  0
DIMSTYLE
105
27
330
A
100
AcDbSymbolTableRecord
100
AcDbDimStyleTableRecord
  2
ISO-25
 70
     0
  3

  4

  5

  6

  7

 40
1.0
 41
2.5
 42
0.625
 43
3.75
 44
1.25
 45
0.0
 46
0.0
 47
0.0
 48
0.0
140
2.5
141
2.5
142
0.0
143
0.03937007874016
144
1.0
145
0.0
146
1.0
147
0.625
 71
     0
 72
     0
 73
     0
 74
     0
 75
     0
 76
     0
 77
     1
 78
     8
170
     0
171
     3
172
     1
173
     0
174
     0
175
     0
176
     0
177
     0
178
     0
270
     2
271
     2
272
     2
273
     2
274
     3
340
11
275
     0
280
     0
281
     0
282
     0
283
     0
284
     8
285
     0
286
     0
287
     3
288
     0
  0
ENDTAB
  0
TABLE
  2
BLOCK_RECORD
  5
1
330
0
100
AcDbSymbolTable
 70
     1
  0
BLOCK_RECORD
  5
1F
330
1
100
AcDbSymbolTableRecord
100
AcDbBlockTableRecord
  2
*MODEL_SPACE
  0
BLOCK_RECORD
  5
1B
330
1
100
AcDbSymbolTableRecord
100
AcDbBlockTableRecord
  2
*PAPER_SPACE
  0
ENDTAB
  0
ENDSEC
  0
SECTION
  2
BLOCKS
  0
BLOCK
  5
20
330
1F
100
AcDbEntity
  8
0
100
AcDbBlockBegin
  2
*MODEL_SPACE
 70
     0
 10
0.0
 20
0.0
 30
0.0
  3
*MODEL_SPACE
  1

  0
ENDBLK
  5
21
330
1F
100
AcDbEntity
  8
0
100
AcDbBlockEnd
  0
BLOCK
  5
1C
330
1B
100
AcDbEntity
 67
     1
  8
0
100
AcDbBlockBegin
  2
*PAPER_SPACE
  1

  0
ENDBLK
  5
1D
330
1B
100
AcDbEntity
 67
     1
  8
0
100
AcDbBlockEnd
  0
ENDSEC
  0
SECTION
  2
ENTITIES
  0
LINE
  5
100
100
AcDbEntity
  8
newlayer
 62
1
100
AcDbLine
 10
200.862655
 20
163.499985
 30
0.0
 11
200.862655
 21
163.499985
 31
0.0
  0
LINE
  5
101
100
AcDbEntity
  8
newlayer
 62
7
100
AcDbLine
 10
4.000000
 20
206.000000
 30
0.0
 11
15.000000
 21
206.000000
 31
0.0
  0
LINE
  5
102
100
AcDbEntity
  8
newlayer
 62
7
100
AcDbLine
 10
15.000000
 20
206.000000
 30
0.0
 11
15.000000
 21
209.000000
 31
0.0
  0
LINE
  5
103
100
AcDbEntity
  8
newlayer
 62
7
100
AcDbLine
 10
15.000000
 20
209.000000
 30
0.0
 11
25.000000
 21
209.000000
 31
0.0
  0
LINE
  5
104
100
AcDbEntity
  8
newlayer
 62
7
100
AcDbLine
 10
25.000000
 20
209.000000
 30
0.0
 11
25.000000
 21
206.000000
 31
0.0
  0
LINE
  5
105
100
AcDbEntity
  8
newlayer
 62
7
100
AcDbLine
 10
25.000000
 20
206.000000
 30
0.0
 11
39.000000
 21
206.000000
 31
0.0
  0
LINE
  5
106
100
AcDbEntity
  8
newlayer
 62
7
100
AcDbLine
 10
39.000000
 20
206.000000
 30
0.0
 11
39.000000
 21
209.000000
 31
0.0
  0
LINE
  5
107
100
AcDbEntity
  8
newlayer
 62
7
100
AcDbLine
 10
39.000000
 20
209.000000
 30
0.0
 11
49.000000
 21
209.000000
 31
0.0
  0
LINE
  5
108
100
AcDbEntity
  8
newlayer
 62
7
100
AcDbLine
 10
49.000000
 20
209.000000
 30
0.0
 11
49.000000
 21
206.000000
 31
0.0
  0
LINE
  5
109
100
AcDbEntity
  8
newlayer
 62
7
100
AcDbLine
 10
49.000000
 20
206.000000
 30
0.0
 11
63.000000
 21
206.000000
 31
0.0
  0
LINE
  5
10a
100
AcDbEntity
  8
newlayer
 62
7
100
AcDbLine
 10
63.000000
 20
206.000000
 30
0.0
 11
63.000000
 21
209.000000
 31
0.0
  0
LINE
  5
10b
100
AcDbEntity
  8
newlayer
 62
7
100
AcDbLine
 10
63.000000
 20
209.000000
 30
0.0
 11
73.000000
 21
209.000000
 31
0.0
  0
LINE
  5
10c
100
AcDbEntity
  8
newlayer
 62
7
100
AcDbLine
 10
73.000000
 20
209.000000
 30
0.0
 11
73.000000
 21
206.000000
 31
0.0
  0
LINE
  5
10d
100
AcDbEntity
  8
newlayer
 62
7
100
AcDbLine
 10
73.000000
 20
206.000000
 30
0.0
 11
84.000000
 21
206.000000
 31
0.0
  0
LINE
  5
10e
100
AcDbEntity
  8
newlayer
 62
7
100
AcDbLine
 10
84.000000
 20
206.000000
 30
0.0
 11
84.000000
 21
198.800000
 31
0.0
  0
LINE
  5
10f
100
AcDbEntity
  8
newlayer
 62
7
100
AcDbLine
 10
84.000000
 20
198.800000
 30
0.0
 11
87.000000
 21
198.800000
 31
0.0
  0
LINE
  5
110
100
AcDbEntity
  8
newlayer
 62
7
100
AcDbLine
 10
87.000000
 20
198.800000
 30
0.0
 11
87.000000
 21
188.800000
 31
0.0
  0
LINE
  5
111
100
AcDbEntity
  8
newlayer
 62
7
100
AcDbLine
 10
87.000000
 20
188.800000
 30
0.0
 11
84.000000
 21
188.800000
 31
0.0
  0
LINE
  5
112
100
AcDbEntity
  8
newlayer
 62
7
100
AcDbLine
 10
84.000000
 20
188.800000
 30
0.0
 11
84.000000
 21
178.600000
 31
0.0
  0
LINE
  5
113
100
AcDbEntity
  8
newlayer
 62
7
100
AcDbLine
 10
84.000000
 20
178.600000
 30
0.0
 11
87.000000
 21
178.600000
 31
0.0
  0
LINE
  5
114
100
AcDbEntity
  8
newlayer
 62
7
100
AcDbLine
 10
87.000000
 20
178.600000
 30
0.0
 11
87.000000
 21
168.600000
 31
0.0
  0
LINE
  5
115
100
AcDbEntity
  8
newlayer
 62
7
100
AcDbLine
 10
87.000000
 20
168.600000
 30
0.0
 11
84.000000
 21
168.600000
 31
0.0
  0
LINE
  5
116
100
AcDbEntity
  8
newlayer
 62
7
100
AcDbLine
 10
84.000000
 20
168.600000
 30
0.0
 11
84.000000
 21
158.400000
 31
0.0
  0
LINE
  5
117
100
AcDbEntity
  8
newlayer
 62
7
100
AcDbLine
 10
84.000000
 20
158.400000
 30
0.0
 11
87.000000
 21
158.400000
 31
0.0
  0
LINE
  5
118
100
AcDbEntity
  8
newlayer
 62
7
100
AcDbLine
 10
87.000000
 20
158.400000
 30
0.0
 11
87.000000
 21
148.400000
 31
0.0
  0
LINE
  5
119
100
AcDbEntity
  8
newlayer
 62
7
100
AcDbLine
 10
87.000000
 20
148.400000
 30
0.0
 11
84.000000
 21
148.400000
 31
0.0
  0
LINE
  5
11a
100
AcDbEntity
  8
newlayer
 62
7
100
AcDbLine
 10
84.000000
 20
148.400000
 30
0.0
 11
84.000000
 21
138.200000
 31
0.0
  0
LINE
  5
11b
100
AcDbEntity
  8
newlayer
 62
7
100
AcDbLine
 10
84.000000
 20
138.200000
 30
0.0
 11
87.000000
 21
138.200000
 31
0.0
  0
LINE
  5
11c
100
AcDbEntity
  8
newlayer
 62
7
100
AcDbLine
 10
87.000000
 20
138.200000
 30
0.0
 11
87.000000
 21
128.200000
 31
0.0
  0
LINE
  5
11d
100
AcDbEntity
  8
newlayer
 62
7
100
AcDbLine
 10
87.000000
 20
128.200000
 30
0.0
 11
84.000000
 21
128.200000
 31
0.0
  0
LINE
  5
11e
100
AcDbEntity
  8
newlayer
 62
7
100
AcDbLine
 10
84.000000
 20
128.200000
 30
0.0
 11
84.000000
 21
121.000000
 31
0.0
  0
LINE
  5
11f
100
AcDbEntity
  8
newlayer
 62
7
100
AcDbLine
 10
84.000000
 20
121.000000
 30
0.0
 11
73.000000
 21
121.000000
 31
0.0
  0
LINE
  5
120
100
AcDbEntity
  8
newlayer
 62
7
100
AcDbLine
 10
73.000000
 20
121.000000
 30
0.0
 11
73.000000
 21
118.000000
 31
0.0
  0
LINE
  5
121
100
AcDbEntity
  8
newlayer
 62
7
100
AcDbLine
 10
73.000000
 20
118.000000
 30
0.0
 11
63.000000
 21
118.000000
 31
0.0
  0
LINE
  5
122
100
AcDbEntity
  8
newlayer
 62
7
100
AcDbLine
 10
63.000000
 20
118.000000
 30
0.0
 11
63.000000
 21
121.000000
 31
0.0
  0
LINE
  5
123
100
AcDbEntity
  8
newlayer
 62
7
100
AcDbLine
 10
63.000000
 20
121.000000
 30
0.0
 11
49.000000
 21
121.000000
 31
0.0
  0
LINE
  5
124
100
AcDbEntity
  8
newlayer
 62
7
100
AcDbLine
 10
49.000000
 20
121.000000
 30
0.0
 11
49.000000
 21
118.000000
 31
0.0
  0
LINE
  5
125
100
AcDbEntity
  8
newlayer
 62
7
100
AcDbLine
 10
49.000000
 20
118.000000
 30
0.0
 11
39.000000
 21
118.000000
 31
0.0
  0
LINE
  5
126
100
AcDbEntity
  8
newlayer
 62
7
100
AcDbLine
 10
39.000000
 20
118.000000
 30
0.0
 11
39.000000
 21
121.000000
 31
0.0
  0
LINE
  5
127
100
AcDbEntity
  8
newlayer
 62
7
100
AcDbLine
 10
39.000000
 20
121.000000
 30
0.0
 11
25.000000
 21
121.000000
 31
0.0
  0
LINE
  5
128
100
AcDbEntity
  8
newlayer
 62
7
100
AcDbLine
 10
25.000000
 20
121.000000
 30
0.0
 11
25.000000
 21
118.000000
 31
0.0
  0
LINE
  5
129
100
AcDbEntity
  8
newlayer
 62
7
100
AcDbLine
 10
25.000000
 20
118.000000
 30
0.0
 11
15.000000
 21
118.000000
 31
0.0
  0
LINE
  5
12a
100
AcDbEntity
  8
newlayer
 62
7
100
AcDbLine
 10
15.000000
 20
118.000000
 30
0.0
 11
15.000000
 21
121.000000
 31
0.0
  0
LINE
  5
12b
100
AcDbEntity
  8
newlayer
 62
7
100
AcDbLine
 10
15.000000
 20
121.000000
 30
0.0
 11
4.000000
 21
121.000000
 31
0.0
  0
LINE
  5
12c
100
AcDbEntity
  8
newlayer
 62
7
100
AcDbLine
 10
4.000000
 20
121.000000
 30
0.0
 11
4.000000
 21
128.200000
 31
0.0
  0
LINE
  5
12d
100
AcDbEntity
  8
newlayer
 62
7
100
AcDbLine
 10
4.000000
 20
128.200000
 30
0.0
 11
1.000000
 21
128.200000
 31
0.0
  0
LINE
  5
12e
100
AcDbEntity
  8
newlayer
 62
7
100
AcDbLine
 10
1.000000
 20
128.200000
 30
0.0
 11
1.000000
 21
138.200000
 31
0.0
  0
LINE
  5
12f
100
AcDbEntity
  8
newlayer
 62
7
100
AcDbLine
 10
1.000000
 20
138.200000
 30
0.0
 11
4.000000
 21
138.200000
 31
0.0
  0
LINE
  5
130
100
AcDbEntity
  8
newlayer
 62
7
100
AcDbLine
 10
4.000000
 20
138.200000
 30
0.0
 11
4.000000
 21
148.400000
 31
0.0
  0
LINE
  5
131
100
AcDbEntity
  8
newlayer
 62
7
100
AcDbLine
 10
4.000000
 20
148.400000
 30
0.0
 11
1.000000
 21
148.400000
 31
0.0
  0
LINE
  5
132
100
AcDbEntity
  8
newlayer
 62
7
100
AcDbLine
 10
1.000000
 20
148.400000
 30
0.0
 11
1.000000
 21
158.400000
 31
0.0
  0
LINE
  5
133
100
AcDbEntity
  8
newlayer
 62
7
100
AcDbLine
 10
1.000000
 20
158.400000
 30
0.0
 11
4.000000
 21
158.400000
 31
0.0
  0
LINE
  5
134
100
AcDbEntity
  8
newlayer
 62
7
100
AcDbLine
 10
4.000000
 20
158.400000
 30
0.0
 11
4.000000
 21
168.600000
 31
0.0
  0
LINE
  5
135
100
AcDbEntity
  8
newlayer
 62
7
100
AcDbLine
 10
4.000000
 20
168.600000
 30
0.0
 11
1.000000
 21
168.600000
 31
0.0
  0
LINE
  5
136
100
AcDbEntity
  8
newlayer
 62
7
100
AcDbLine
 10
1.000000
 20
168.600000
 30
0.0
 11
1.000000
 21
178.600000
 31
0.0
  0
LINE
  5
137
100
AcDbEntity
  8
newlayer
 62
7
100
AcDbLine
 10
1.000000
 20
178.600000
 30
0.0
 11
4.000000
 21
178.600000
 31
0.0
  0
LINE
  5
138
100
AcDbEntity
  8
newlayer
 62
7
100
AcDbLine
 10
4.000000
 20
178.600000
 30
0.0
 11
4.000000
 21
188.800000
 31
0.0
  0
LINE
  5
139
100
AcDbEntity
  8
newlayer
 62
7
100
AcDbLine
 10
4.000000
 20
188.800000
 30
0.0
 11
1.000000
 21
188.800000
 31
0.0
  0
LINE
  5
13a
100
AcDbEntity
  8
newlayer
 62
7
100
AcDbLine
 10
1.000000
 20
188.800000
 30
0.0
 11
1.000000
 21
198.800000
 31
0.0
  0
LINE
  5
13b
100
AcDbEntity
  8
newlayer
 62
7
100
AcDbLine
 10
1.000000
 20
198.800000
 30
0.0
 11
4.000000
 21
198.800000
 31
0.0
  0
LINE
  5
13c
100
AcDbEntity
  8
newlayer
 62
7
100
AcDbLine
 10
4.000000
 20
198.800000
 30
0.0
 11
4.000000
 21
206.000000
 31
0.0
  0
LINE
  5
13d
100
AcDbEntity
  8
newlayer
 62
7
100
AcDbLine
 10
88.000000
 20
209.000000
 30
0.0
 11
99.833333
 21
209.000000
 31
0.0
  0
LINE
  5
13e
100
AcDbEntity
  8
newlayer
 62
7
100
AcDbLine
 10
99.833333
 20
209.000000
 30
0.0
 11
99.833333
 21
206.000000
 31
0.0
  0
LINE
  5
13f
100
AcDbEntity
  8
newlayer
 62
7
100
AcDbLine
 10
99.833333
 20
206.000000
 30
0.0
 11
109.833333
 21
206.000000
 31
0.0
  0
LINE
  5
140
100
AcDbEntity
  8
newlayer
 62
7
100
AcDbLine
 10
109.833333
 20
206.000000
 30
0.0
 11
109.833333
 21
209.000000
 31
0.0
  0
LINE
  5
141
100
AcDbEntity
  8
newlayer
 62
7
100
AcDbLine
 10
109.833333
 20
209.000000
 30
0.0
 11
121.666667
 21
209.000000
 31
0.0
  0
LINE
  5
142
100
AcDbEntity
  8
newlayer
 62
7
100
AcDbLine
 10
121.666667
 20
209.000000
 30
0.0
 11
121.666667
 21
206.000000
 31
0.0
  0
LINE
  5
143
100
AcDbEntity
  8
newlayer
 62
7
100
AcDbLine
 10
121.666667
 20
206.000000
 30
0.0
 11
131.666667
 21
206.000000
 31
0.0
  0
LINE
  5
144
100
AcDbEntity
  8
newlayer
 62
7
100
AcDbLine
 10
131.666667
 20
206.000000
 30
0.0
 11
131.666667
 21
209.000000
 31
0.0
  0
LINE
  5
145
100
AcDbEntity
  8
newlayer
 62
7
100
AcDbLine
 10
131.666667
 20
209.000000
 30
0.0
 11
143.500000
 21
209.000000
 31
0.0
  0
LINE
  5
146
100
AcDbEntity
  8
newlayer
 62
7
100
AcDbLine
 10
143.500000
 20
209.000000
 30
0.0
 11
143.500000
 21
206.000000
 31
0.0
  0
LINE
  5
147
100
AcDbEntity
  8
newlayer
 62
7
100
AcDbLine
 10
143.500000
 20
206.000000
 30
0.0
 11
153.500000
 21
206.000000
 31
0.0
  0
LINE
  5
148
100
AcDbEntity
  8
newlayer
 62
7
100
AcDbLine
 10
153.500000
 20
206.000000
 30
0.0
 11
153.500000
 21
209.000000
 31
0.0
  0
LINE
  5
149
100
AcDbEntity
  8
newlayer
 62
7
100
AcDbLine
 10
153.500000
 20
209.000000
 30
0.0
 11
165.333333
 21
209.000000
 31
0.0
  0
LINE
  5
14a
100
AcDbEntity
  8
newlayer
 62
7
100
AcDbLine
 10
165.333333
 20
209.000000
 30
0.0
 11
165.333333
 21
206.000000
 31
0.0
  0
LINE
  5
14b
100
AcDbEntity
  8
newlayer
 62
7
100
AcDbLine
 10
165.333333
 20
206.000000
 30
0.0
 11
175.333333
 21
206.000000
 31
0.0
  0
LINE
  5
14c
100
AcDbEntity
  8
newlayer
 62
7
100
AcDbLine
 10
175.333333
 20
206.000000
 30
0.0
 11
175.333333
 21
209.000000
 31
0.0
  0
LINE
  5
14d
100
AcDbEntity
  8
newlayer
 62
7
100
AcDbLine
 10
175.333333
 20
209.000000
 30
0.0
 11
187.166667
 21
209.000000
 31
0.0
  0
LINE
  5
14e
100
AcDbEntity
  8
newlayer
 62
7
100
AcDbLine
 10
187.166667
 20
209.000000
 30
0.0
 11
187.166667
 21
206.000000
 31
0.0
  0
LINE
  5
14f
100
AcDbEntity
  8
newlayer
 62
7
100
AcDbLine
 10
187.166667
 20
206.000000
 30
0.0
 11
197.166667
 21
206.000000
 31
0.0
  0
LINE
  5
150
100
AcDbEntity
  8
newlayer
 62
7
100
AcDbLine
 10
197.166667
 20
206.000000
 30
0.0
 11
197.166667
 21
209.000000
 31
0.0
  0
LINE
  5
151
100
AcDbEntity
  8
newlayer
 62
7
100
AcDbLine
 10
197.166667
 20
209.000000
 30
0.0
 11
209.000000
 21
209.000000
 31
0.0
  0
LINE
  5
152
100
AcDbEntity
  8
newlayer
 62
7
100
AcDbLine
 10
209.000000
 20
209.000000
 30
0.0
 11
209.000000
 21
198.800000
 31
0.0
  0
LINE
  5
153
100
AcDbEntity
  8
newlayer
 62
7
100
AcDbLine
 10
209.000000
 20
198.800000
 30
0.0
 11
206.000000
 21
198.800000
 31
0.0
  0
LINE
  5
154
100
AcDbEntity
  8
newlayer
 62
7
100
AcDbLine
 10
206.000000
 20
198.800000
 30
0.0
 11
206.000000
 21
188.800000
 31
0.0
  0
LINE
  5
155
100
AcDbEntity
  8
newlayer
 62
7
100
AcDbLine
 10
206.000000
 20
188.800000
 30
0.0
 11
209.000000
 21
188.800000
 31
0.0
  0
LINE
  5
156
100
AcDbEntity
  8
newlayer
 62
7
100
AcDbLine
 10
209.000000
 20
188.800000
 30
0.0
 11
209.000000
 21
178.600000
 31
0.0
  0
LINE
  5
157
100
AcDbEntity
  8
newlayer
 62
7
100
AcDbLine
 10
209.000000
 20
178.600000
 30
0.0
 11
206.000000
 21
178.600000
 31
0.0
  0
LINE
  5
158
100
AcDbEntity
  8
newlayer
 62
7
100
AcDbLine
 10
206.000000
 20
178.600000
 30
0.0
 11
206.000000
 21
168.600000
 31
0.0
  0
LINE
  5
159
100
AcDbEntity
  8
newlayer
 62
7
100
AcDbLine
 10
206.000000
 20
168.600000
 30
0.0
 11
209.000000
 21
168.600000
 31
0.0
  0
LINE
  5
15a
100
AcDbEntity
  8
newlayer
 62
7
100
AcDbLine
 10
209.000000
 20
168.600000
 30
0.0
 11
209.000000
 21
158.400000
 31
0.0
  0
LINE
  5
15b
100
AcDbEntity
  8
newlayer
 62
7
100
AcDbLine
 10
209.000000
 20
158.400000
 30
0.0
 11
206.000000
 21
158.400000
 31
0.0
  0
LINE
  5
15c
100
AcDbEntity
  8
newlayer
 62
7
100
AcDbLine
 10
206.000000
 20
158.400000
 30
0.0
 11
206.000000
 21
148.400000
 31
0.0
  0
LINE
  5
15d
100
AcDbEntity
  8
newlayer
 62
7
100
AcDbLine
 10
206.000000
 20
148.400000
 30
0.0
 11
209.000000
 21
148.400000
 31
0.0
  0
LINE
  5
15e
100
AcDbEntity
  8
newlayer
 62
7
100
AcDbLine
 10
209.000000
 20
148.400000
 30
0.0
 11
209.000000
 21
138.200000
 31
0.0
  0
LINE
  5
15f
100
AcDbEntity
  8
newlayer
 62
7
100
AcDbLine
 10
209.000000
 20
138.200000
 30
0.0
 11
206.000000
 21
138.200000
 31
0.0
  0
LINE
  5
160
100
AcDbEntity
  8
newlayer
 62
7
100
AcDbLine
 10
206.000000
 20
138.200000
 30
0.0
 11
206.000000
 21
128.200000
 31
0.0
  0
LINE
  5
161
100
AcDbEntity
  8
newlayer
 62
7
100
AcDbLine
 10
206.000000
 20
128.200000
 30
0.0
 11
209.000000
 21
128.200000
 31
0.0
  0
LINE
  5
162
100
AcDbEntity
  8
newlayer
 62
7
100
AcDbLine
 10
209.000000
 20
128.200000
 30
0.0
 11
209.000000
 21
118.000000
 31
0.0
  0
LINE
  5
163
100
AcDbEntity
  8
newlayer
 62
7
100
AcDbLine
 10
209.000000
 20
118.000000
 30
0.0
 11
197.166667
 21
118.000000
 31
0.0
  0
LINE
  5
164
100
AcDbEntity
  8
newlayer
 62
7
100
AcDbLine
 10
197.166667
 20
118.000000
 30
0.0
 11
197.166667
 21
121.000000
 31
0.0
  0
LINE
  5
165
100
AcDbEntity
  8
newlayer
 62
7
100
AcDbLine
 10
197.166667
 20
121.000000
 30
0.0
 11
187.166667
 21
121.000000
 31
0.0
  0
LINE
  5
166
100
AcDbEntity
  8
newlayer
 62
7
100
AcDbLine
 10
187.166667
 20
121.000000
 30
0.0
 11
187.166667
 21
118.000000
 31
0.0
  0
LINE
  5
167
100
AcDbEntity
  8
newlayer
 62
7
100
AcDbLine
 10
187.166667
 20
118.000000
 30
0.0
 11
175.333333
 21
118.000000
 31
0.0
  0
LINE
  5
168
100
AcDbEntity
  8
newlayer
 62
7
100
AcDbLine
 10
175.333333
 20
118.000000
 30
0.0
 11
175.333333
 21
121.000000
 31
0.0
  0
LINE
  5
169
100
AcDbEntity
  8
newlayer
 62
7
100
AcDbLine
 10
175.333333
 20
121.000000
 30
0.0
 11
165.333333
 21
121.000000
 31
0.0
  0
LINE
  5
16a
100
AcDbEntity
  8
newlayer
 62
7
100
AcDbLine
 10
165.333333
 20
121.000000
 30
0.0
 11
165.333333
 21
118.000000
 31
0.0
  0
LINE
  5
16b
100
AcDbEntity
  8
newlayer
 62
7
100
AcDbLine
 10
165.333333
 20
118.000000
 30
0.0
 11
153.500000
 21
118.000000
 31
0.0
  0
LINE
  5
16c
100
AcDbEntity
  8
newlayer
 62
7
100
AcDbLine
 10
153.500000
 20
118.000000
 30
0.0
 11
153.500000
 21
121.000000
 31
0.0
  0
LINE
  5
16d
100
AcDbEntity
  8
newlayer
 62
7
100
AcDbLine
 10
153.500000
 20
121.000000
 30
0.0
 11
143.500000
 21
121.000000
 31
0.0
  0
LINE
  5
16e
100
AcDbEntity
  8
newlayer
 62
7
100
AcDbLine
 10
143.500000
 20
121.000000
 30
0.0
 11
143.500000
 21
118.000000
 31
0.0
  0
LINE
  5
16f
100
AcDbEntity
  8
newlayer
 62
7
100
AcDbLine
 10
143.500000
 20
118.000000
 30
0.0
 11
131.666667
 21
118.000000
 31
0.0
  0
LINE
  5
170
100
AcDbEntity
  8
newlayer
 62
7
100
AcDbLine
 10
131.666667
 20
118.000000
 30
0.0
 11
131.666667
 21
121.000000
 31
0.0
  0
LINE
  5
171
100
AcDbEntity
  8
newlayer
 62
7
100
AcDbLine
 10
131.666667
 20
121.000000
 30
0.0
 11
121.666667
 21
121.000000
 31
0.0
  0
LINE
  5
172
100
AcDbEntity
  8
newlayer
 62
7
100
AcDbLine
 10
121.666667
 20
121.000000
 30
0.0
 11
121.666667
 21
118.000000
 31
0.0
  0
LINE
  5
173
100
AcDbEntity
  8
newlayer
 62
7
100
AcDbLine
 10
121.666667
 20
118.000000
 30
0.0
 11
109.833333
 21
118.000000
 31
0.0
  0
LINE
  5
174
100
AcDbEntity
  8
newlayer
 62
7
100
AcDbLine
 10
109.833333
 20
118.000000
 30
0.0
 11
109.833333
 21
121.000000
 31
0.0
  0
LINE
  5
175
100
AcDbEntity
  8
newlayer
 62
7
100
AcDbLine
 10
109.833333
 20
121.000000
 30
0.0
 11
99.833333
 21
121.000000
 31
0.0
  0
LINE
  5
176
100
AcDbEntity
  8
newlayer
 62
7
100
AcDbLine
 10
99.833333
 20
121.000000
 30
0.0
 11
99.833333
 21
118.000000
 31
0.0
  0
LINE
  5
177
100
AcDbEntity
  8
newlayer
 62
7
100
AcDbLine
 10
99.833333
 20
118.000000
 30
0.0
 11
88.000000
 21
118.000000
 31
0.0
  0
LINE
  5
178
100
AcDbEntity
  8
newlayer
 62
7
100
AcDbLine
 10
88.000000
 20
118.000000
 30
0.0
 11
88.000000
 21
128.200000
 31
0.0
  0
LINE
  5
179
100
AcDbEntity
  8
newlayer
 62
7
100
AcDbLine
 10
88.000000
 20
128.200000
 30
0.0
 11
91.000000
 21
128.200000
 31
0.0
  0
LINE
  5
17a
100
AcDbEntity
  8
newlayer
 62
7
100
AcDbLine
 10
91.000000
 20
128.200000
 30
0.0
 11
91.000000
 21
138.200000
 31
0.0
  0
LINE
  5
17b
100
AcDbEntity
  8
newlayer
 62
7
100
AcDbLine
 10
91.000000
 20
138.200000
 30
0.0
 11
88.000000
 21
138.200000
 31
0.0
  0
LINE
  5
17c
100
AcDbEntity
  8
newlayer
 62
7
100
AcDbLine
 10
88.000000
 20
138.200000
 30
0.0
 11
88.000000
 21
148.400000
 31
0.0
  0
LINE
  5
17d
100
AcDbEntity
  8
newlayer
 62
7
100
AcDbLine
 10
88.000000
 20
148.400000
 30
0.0
 11
91.000000
 21
148.400000
 31
0.0
  0
LINE
  5
17e
100
AcDbEntity
  8
newlayer
 62
7
100
AcDbLine
 10
91.000000
 20
148.400000
 30
0.0
 11
91.000000
 21
158.400000
 31
0.0
  0
LINE
  5
17f
100
AcDbEntity
  8
newlayer
 62
7
100
AcDbLine
 10
91.000000
 20
158.400000
 30
0.0
 11
88.000000
 21
158.400000
 31
0.0
  0
LINE
  5
180
100
AcDbEntity
  8
newlayer
 62
7
100
AcDbLine
 10
88.000000
 20
158.400000
 30
0.0
 11
88.000000
 21
168.600000
 31
0.0
  0
LINE
  5
181
100
AcDbEntity
  8
newlayer
 62
7
100
AcDbLine
 10
88.000000
 20
168.600000
 30
0.0
 11
91.000000
 21
168.600000
 31
0.0
  0
LINE
  5
182
100
AcDbEntity
  8
newlayer
 62
7
100
AcDbLine
 10
91.000000
 20
168.600000
 30
0.0
 11
91.000000
 21
178.600000
 31
0.0
  0
LINE
  5
183
100
AcDbEntity
  8
newlayer
 62
7
100
AcDbLine
 10
91.000000
 20
178.600000
 30
0.0
 11
88.000000
 21
178.600000
 31
0.0
  0
LINE
  5
184
100
AcDbEntity
  8
newlayer
 62
7
100
AcDbLine
 10
88.000000
 20
178.600000
 30
0.0
 11
88.000000
 21
188.800000
 31
0.0
  0
LINE
  5
185
100
AcDbEntity
  8
newlayer
 62
7
100
AcDbLine
 10
88.000000
 20
188.800000
 30
0.0
 11
91.000000
 21
188.800000
 31
0.0
  0
LINE
  5
186
100
AcDbEntity
  8
newlayer
 62
7
100
AcDbLine
 10
91.000000
 20
188.800000
 30
0.0
 11
91.000000
 21
198.800000
 31
0.0
  0
LINE
  5
187
100
AcDbEntity
  8
newlayer
 62
7
100
AcDbLine
 10
91.000000
 20
198.800000
 30
0.0
 11
88.000000
 21
198.800000
 31
0.0
  0
LINE
  5
188
100
AcDbEntity
  8
newlayer
 62
7
100
AcDbLine
 10
88.000000
 20
198.800000
 30
0.0
 11
88.000000
 21
209.000000
 31
0.0
  0
LINE
  5
189
100
AcDbEntity
  8
newlayer
 62
7
100
AcDbLine
 10
3.745778
 20
113.346564
 30
0.0
 11
14.745779
 21
113.346564
 31
0.0
  0
LINE
  5
18a
100
AcDbEntity
  8
newlayer
 62
7
100
AcDbLine
 10
14.745779
 20
113.346564
 30
0.0
 11
14.745779
 21
116.346564
 31
0.0
  0
LINE
  5
18b
100
AcDbEntity
  8
newlayer
 62
7
100
AcDbLine
 10
14.745779
 20
116.346564
 30
0.0
 11
24.745778
 21
116.346564
 31
0.0
  0
LINE
  5
18c
100
AcDbEntity
  8
newlayer
 62
7
100
AcDbLine
 10
24.745778
 20
116.346564
 30
0.0
 11
24.745778
 21
113.346564
 31
0.0
  0
LINE
  5
18d
100
AcDbEntity
  8
newlayer
 62
7
100
AcDbLine
 10
24.745778
 20
113.346564
 30
0.0
 11
38.745778
 21
113.346564
 31
0.0
  0
LINE
  5
18e
100
AcDbEntity
  8
newlayer
 62
7
100
AcDbLine
 10
38.745778
 20
113.346564
 30
0.0
 11
38.745778
 21
116.346564
 31
0.0
  0
LINE
  5
18f
100
AcDbEntity
  8
newlayer
 62
7
100
AcDbLine
 10
38.745778
 20
116.346564
 30
0.0
 11
48.745778
 21
116.346564
 31
0.0
  0
LINE
  5
190
100
AcDbEntity
  8
newlayer
 62
7
100
AcDbLine
 10
48.745778
 20
116.346564
 30
0.0
 11
48.745778
 21
113.346564
 31
0.0
  0
LINE
  5
191
100
AcDbEntity
  8
newlayer
 62
7
100
AcDbLine
 10
48.745778
 20
113.346564
 30
0.0
 11
62.745778
 21
113.346564
 31
0.0
  0
LINE
  5
192
100
AcDbEntity
  8
newlayer
 62
7
100
AcDbLine
 10
62.745778
 20
113.346564
 30
0.0
 11
62.745778
 21
116.346564
 31
0.0
  0
LINE
  5
193
100
AcDbEntity
  8
newlayer
 62
7
100
AcDbLine
 10
62.745778
 20
116.346564
 30
0.0
 11
72.745786
 21
116.346564
 31
0.0
  0
LINE
  5
194
100
AcDbEntity
  8
newlayer
 62
7
100
AcDbLine
 10
72.745786
 20
116.346564
 30
0.0
 11
72.745786
 21
113.346564
 31
0.0
  0
LINE
  5
195
100
AcDbEntity
  8
newlayer
 62
7
100
AcDbLine
 10
72.745786
 20
113.346564
 30
0.0
 11
83.745764
 21
113.346564
 31
0.0
  0
LINE
  5
196
100
AcDbEntity
  8
newlayer
 62
7
100
AcDbLine
 10
83.745764
 20
113.346564
 30
0.0
 11
83.745764
 21
106.146562
 31
0.0
  0
LINE
  5
197
100
AcDbEntity
  8
newlayer
 62
7
100
AcDbLine
 10
83.745764
 20
106.146562
 30
0.0
 11
86.745786
 21
106.146562
 31
0.0
  0
LINE
  5
198
100
AcDbEntity
  8
newlayer
 62
7
100
AcDbLine
 10
86.745786
 20
106.146562
 30
0.0
 11
86.745786
 21
96.146562
 31
0.0
  0
LINE
  5
199
100
AcDbEntity
  8
newlayer
 62
7
100
AcDbLine
 10
86.745786
 20
96.146562
 30
0.0
 11
83.745764
 21
96.146562
 31
0.0
  0
LINE
  5
19a
100
AcDbEntity
  8
newlayer
 62
7
100
AcDbLine
 10
83.745764
 20
96.146562
 30
0.0
 11
83.745764
 21
85.946563
 31
0.0
  0
LINE
  5
19b
100
AcDbEntity
  8
newlayer
 62
7
100
AcDbLine
 10
83.745764
 20
85.946563
 30
0.0
 11
86.745786
 21
85.946563
 31
0.0
  0
LINE
  5
19c
100
AcDbEntity
  8
newlayer
 62
7
100
AcDbLine
 10
86.745786
 20
85.946563
 30
0.0
 11
86.745786
 21
75.946563
 31
0.0
  0
LINE
  5
19d
100
AcDbEntity
  8
newlayer
 62
7
100
AcDbLine
 10
86.745786
 20
75.946563
 30
0.0
 11
83.745764
 21
75.946563
 31
0.0
  0
LINE
  5
19e
100
AcDbEntity
  8
newlayer
 62
7
100
AcDbLine
 10
83.745764
 20
75.946563
 30
0.0
 11
83.745764
 21
65.746564
 31
0.0
  0
LINE
  5
19f
100
AcDbEntity
  8
newlayer
 62
7
100
AcDbLine
 10
83.745764
 20
65.746564
 30
0.0
 11
86.745786
 21
65.746564
 31
0.0
  0
LINE
  5
1a0
100
AcDbEntity
  8
newlayer
 62
7
100
AcDbLine
 10
86.745786
 20
65.746564
 30
0.0
 11
86.745786
 21
55.746564
 31
0.0
  0
LINE
  5
1a1
100
AcDbEntity
  8
newlayer
 62
7
100
AcDbLine
 10
86.745786
 20
55.746564
 30
0.0
 11
83.745764
 21
55.746564
 31
0.0
  0
LINE
  5
1a2
100
AcDbEntity
  8
newlayer
 62
7
100
AcDbLine
 10
83.745764
 20
55.746564
 30
0.0
 11
83.745764
 21
45.546556
 31
0.0
  0
LINE
  5
1a3
100
AcDbEntity
  8
newlayer
 62
7
100
AcDbLine
 10
83.745764
 20
45.546556
 30
0.0
 11
86.745786
 21
45.546556
 31
0.0
  0
LINE
  5
1a4
100
AcDbEntity
  8
newlayer
 62
7
100
AcDbLine
 10
86.745786
 20
45.546556
 30
0.0
 11
86.745786
 21
35.546576
 31
0.0
  0
LINE
  5
1a5
100
AcDbEntity
  8
newlayer
 62
7
100
AcDbLine
 10
86.745786
 20
35.546576
 30
0.0
 11
83.745764
 21
35.546576
 31
0.0
  0
LINE
  5
1a6
100
AcDbEntity
  8
newlayer
 62
7
100
AcDbLine
 10
83.745764
 20
35.546576
 30
0.0
 11
83.745764
 21
28.346551
 31
0.0
  0
LINE
  5
1a7
100
AcDbEntity
  8
newlayer
 62
7
100
AcDbLine
 10
83.745764
 20
28.346551
 30
0.0
 11
72.745786
 21
28.346551
 31
0.0
  0
LINE
  5
1a8
100
AcDbEntity
  8
newlayer
 62
7
100
AcDbLine
 10
72.745786
 20
28.346551
 30
0.0
 11
72.745786
 21
25.346557
 31
0.0
  0
LINE
  5
1a9
100
AcDbEntity
  8
newlayer
 62
7
100
AcDbLine
 10
72.745786
 20
25.346557
 30
0.0
 11
62.745778
 21
25.346557
 31
0.0
  0
LINE
  5
1aa
100
AcDbEntity
  8
newlayer
 62
7
100
AcDbLine
 10
62.745778
 20
25.346557
 30
0.0
 11
62.745778
 21
28.346551
 31
0.0
  0
LINE
  5
1ab
100
AcDbEntity
  8
newlayer
 62
7
100
AcDbLine
 10
62.745778
 20
28.346551
 30
0.0
 11
48.745778
 21
28.346551
 31
0.0
  0
LINE
  5
1ac
100
AcDbEntity
  8
newlayer
 62
7
100
AcDbLine
 10
48.745778
 20
28.346551
 30
0.0
 11
48.745778
 21
25.346557
 31
0.0
  0
LINE
  5
1ad
100
AcDbEntity
  8
newlayer
 62
7
100
AcDbLine
 10
48.745778
 20
25.346557
 30
0.0
 11
38.745778
 21
25.346557
 31
0.0
  0
LINE
  5
1ae
100
AcDbEntity
  8
newlayer
 62
7
100
AcDbLine
 10
38.745778
 20
25.346557
 30
0.0
 11
38.745778
 21
28.346551
 31
0.0
  0
LINE
  5
1af
100
AcDbEntity
  8
newlayer
 62
7
100
AcDbLine
 10
38.745778
 20
28.346551
 30
0.0
 11
24.745778
 21
28.346551
 31
0.0
  0
LINE
  5
1b0
100
AcDbEntity
  8
newlayer
 62
7
100
AcDbLine
 10
24.745778
 20
28.346551
 30
0.0
 11
24.745778
 21
25.346557
 31
0.0
  0
LINE
  5
1b1
100
AcDbEntity
  8
newlayer
 62
7
100
AcDbLine
 10
24.745778
 20
25.346557
 30
0.0
 11
14.745779
 21
25.346557
 31
0.0
  0
LINE
  5
1b2
100
AcDbEntity
  8
newlayer
 62
7
100
AcDbLine
 10
14.745779
 20
25.346557
 30
0.0
 11
14.745779
 21
28.346551
 31
0.0
  0
LINE
  5
1b3
100
AcDbEntity
  8
newlayer
 62
7
100
AcDbLine
 10
14.745779
 20
28.346551
 30
0.0
 11
3.745778
 21
28.346551
 31
0.0
  0
LINE
  5
1b4
100
AcDbEntity
  8
newlayer
 62
7
100
AcDbLine
 10
3.745778
 20
28.346551
 30
0.0
 11
3.745778
 21
35.546576
 31
0.0
  0
LINE
  5
1b5
100
AcDbEntity
  8
newlayer
 62
7
100
AcDbLine
 10
3.745778
 20
35.546576
 30
0.0
 11
0.745778
 21
35.546576
 31
0.0
  0
LINE
  5
1b6
100
AcDbEntity
  8
newlayer
 62
7
100
AcDbLine
 10
0.745778
 20
35.546576
 30
0.0
 11
0.745778
 21
45.546556
 31
0.0
  0
LINE
  5
1b7
100
AcDbEntity
  8
newlayer
 62
7
100
AcDbLine
 10
0.745778
 20
45.546556
 30
0.0
 11
3.745778
 21
45.546556
 31
0.0
  0
LINE
  5
1b8
100
AcDbEntity
  8
newlayer
 62
7
100
AcDbLine
 10
3.745778
 20
45.546556
 30
0.0
 11
3.745778
 21
55.746564
 31
0.0
  0
LINE
  5
1b9
100
AcDbEntity
  8
newlayer
 62
7
100
AcDbLine
 10
3.745778
 20
55.746564
 30
0.0
 11
0.745778
 21
55.746564
 31
0.0
  0
LINE
  5
1ba
100
AcDbEntity
  8
newlayer
 62
7
100
AcDbLine
 10
0.745778
 20
55.746564
 30
0.0
 11
0.745778
 21
65.746564
 31
0.0
  0
LINE
  5
1bb
100
AcDbEntity
  8
newlayer
 62
7
100
AcDbLine
 10
0.745778
 20
65.746564
 30
0.0
 11
3.745778
 21
65.746564
 31
0.0
  0
LINE
  5
1bc
100
AcDbEntity
  8
newlayer
 62
7
100
AcDbLine
 10
3.745778
 20
65.746564
 30
0.0
 11
3.745778
 21
75.946563
 31
0.0
  0
LINE
  5
1bd
100
AcDbEntity
  8
newlayer
 62
7
100
AcDbLine
 10
3.745778
 20
75.946563
 30
0.0
 11
0.745778
 21
75.946563
 31
0.0
  0
LINE
  5
1be
100
AcDbEntity
  8
newlayer
 62
7
100
AcDbLine
 10
0.745778
 20
75.946563
 30
0.0
 11
0.745778
 21
85.946563
 31
0.0
  0
LINE
  5
1bf
100
AcDbEntity
  8
newlayer
 62
7
100
AcDbLine
 10
0.745778
 20
85.946563
 30
0.0
 11
3.745778
 21
85.946563
 31
0.0
  0
LINE
  5
1c0
100
AcDbEntity
  8
newlayer
 62
7
100
AcDbLine
 10
3.745778
 20
85.946563
 30
0.0
 11
3.745778
 21
96.146562
 31
0.0
  0
LINE
  5
1c1
100
AcDbEntity
  8
newlayer
 62
7
100
AcDbLine
 10
3.745778
 20
96.146562
 30
0.0
 11
0.745778
 21
96.146562
 31
0.0
  0
LINE
  5
1c2
100
AcDbEntity
  8
newlayer
 62
7
100
AcDbLine
 10
0.745778
 20
96.146562
 30
0.0
 11
0.745778
 21
106.146562
 31
0.0
  0
LINE
  5
1c3
100
AcDbEntity
  8
newlayer
 62
7
100
AcDbLine
 10
0.745778
 20
106.146562
 30
0.0
 11
3.745778
 21
106.146562
 31
0.0
  0
LINE
  5
1c4
100
AcDbEntity
  8
newlayer
 62
7
100
AcDbLine
 10
3.745778
 20
106.146562
 30
0.0
 11
3.745778
 21
113.346564
 31
0.0
  0
SPLINE
  5
1c5
100
AcDbEntity
  8
newlayer
 62
1
100
AcDbSpline
 70
0
 71
3
 72
28
 73
24
 74
22
 40
0.000000
 40
0.000000
 40
0.000000
 40
0.000000
 40
4.242023
 40
8.448941
 40
12.690963
 40
16.932986
 40
21.139904
 40
25.381927
 40
33.854771
 40
42.076313
 40
50.549158
 40
54.791180
 40
58.998098
 40
63.240121
 40
67.482143
 40
71.689062
 40
75.931084
 40
80.173111
 40
84.380034
 40
88.622062
 40
92.864089
 40
97.071012
 40
101.313039
 40
101.313039
 40
101.313039
 40
101.313039
 10
200.862655
 20
163.499985
 30
0.0
 10
200.754626
 20
162.081928
 30
0.0
 10
200.539462
 20
159.257549
 30
0.0
 10
198.839207
 20
155.304922
 30
0.0
 10
196.252202
 20
151.909139
 30
0.0
 10
192.852382
 20
149.304906
 30
0.0
 10
188.898636
 20
147.669220
 30
0.0
 10
183.253255
 20
146.914774
 30
0.0
 10
176.165994
 20
148.817963
 30
0.0
 10
169.975759
 20
155.008136
 30
0.0
 10
168.072585
 20
162.095591
 30
0.0
 10
168.827029
 20
167.740575
 30
0.0
 10
170.462715
 20
171.695527
 30
0.0
 10
173.066950
 20
175.090791
 30
0.0
 10
176.462726
 20
177.694788
 30
0.0
 10
180.415377
 20
179.331966
 30
0.0
 10
184.657724
 20
179.892057
 30
0.0
 10
188.900499
 20
179.331981
 30
0.0
 10
192.851890
 20
177.694762
 30
0.0
 10
196.252347
 20
175.090936
 30
0.0
 10
198.839181
 20
171.695037
 30
0.0
 10
200.539478
 20
167.742432
 30
0.0
 10
200.754632
 20
164.918045
 30
0.0
 10
200.862655
 20
163.499985
 30
0.0
 11
200.862655
 21
163.499985
 31
0.0
 11
200.307467
 21
159.294450
 31
0.0
 11
198.697546
 21
155.407766
 31
0.0
 11
196.116358
 21
152.041429
 31
0.0
 11
192.750017
 21
149.460246
 31
0.0
 11
188.863330
 21
147.850333
 31
0.0
 11
184.657794
 21
147.295152
 31
0.0
 11
176.478906
 21
149.507588
 31
0.0
 11
170.665397
 21
155.321096
 31
0.0
 11
168.452961
 21
163.499985
 31
0.0
 11
169.008142
 21
167.705520
 31
0.0
 11
170.618056
 21
171.592208
 31
0.0
 11
173.199238
 21
174.958549
 31
0.0
 11
176.565575
 21
177.539737
 31
0.0
 11
180.452259
 21
179.149658
 31
0.0
 11
184.657794
 21
179.704846
 31
0.0
 11
188.863334
 21
179.149664
 31
0.0
 11
192.750025
 21
177.539747
 31
0.0
 11
196.116368
 21
174.958559
 31
0.0
 11
198.697556
 21
171.592216
 31
0.0
 11
200.307473
 21
167.705525
 31
0.0
 11
200.862655
 21
163.499985
 31
0.0
  0
LINE
  5
1c6
100
AcDbEntity
  8
newlayer
 62
7
100
AcDbLine
 10
137.710096
 20
224.443317
 30
0.0
 11
137.710096
 21
224.443317
 31
0.0
  0
SPLINE
  5
1c7
100
AcDbEntity
  8
newlayer
 62
7
100
AcDbSpline
 70
0
 71
3
 72
19
 73
15
 74
13
 40
0.000000
 40
0.000000
 40
0.000000
 40
0.000000
 40
1.882292
 40
3.708756
 40
5.591047
 40
7.473339
 40
9.299803
 40
11.182095
 40
13.064387
 40
14.890852
 40
16.773145
 40
18.655437
 40
20.481902
 40
22.364195
 40
22.364195
 40
22.364195
 40
22.364195
 10
137.710096
 20
224.443317
 30
0.0
 10
137.611151
 20
225.077937
 30
0.0
 10
137.416194
 20
226.328355
 30
0.0
 10
135.982975
 20
227.704962
 30
0.0
 10
134.113402
 20
228.215038
 30
0.0
 10
132.224200
 20
227.704962
 30
0.0
 10
130.848702
 20
226.328355
 30
0.0
 10
130.338250
 20
224.443316
 30
0.0
 10
130.848701
 20
222.558278
 30
0.0
 10
132.224199
 20
221.181669
 30
0.0
 10
134.113402
 20
220.671592
 30
0.0
 10
135.982976
 20
221.181669
 30
0.0
 10
137.416196
 20
222.558278
 30
0.0
 10
137.611151
 20
223.808696
 30
0.0
 10
137.710096
 20
224.443317
 30
0.0
 11
137.710096
 21
224.443317
 31
0.0
 11
137.218590
 21
226.260304
 31
0.0
 11
135.927086
 21
227.551809
 31
0.0
 11
134.110098
 21
228.043315
 31
0.0
 11
132.293110
 21
227.551809
 31
0.0
 11
131.001605
 21
226.260304
 31
0.0
 11
130.510099
 21
224.443317
 31
0.0
 11
131.001604
 21
222.626328
 31
0.0
 11
132.293109
 21
221.334822
 31
0.0
 11
134.110098
 21
220.843315
 31
0.0
 11
135.927086
 21
221.334822
 31
0.0
 11
137.218591
 21
222.626328
 31
0.0
 11
137.710096
 21
224.443317
 31
0.0
  0
LINE
  5
1c8
100
AcDbEntity
  8
newlayer
 62
7
100
AcDbLine
 10
147.540094
 20
224.443317
 30
0.0
 11
147.540094
 21
224.443317
 31
0.0
  0
LINE
  5
1c9
100
AcDbEntity
  8
newlayer
 62
7
100
AcDbLine
 10
164.290096
 20
221.958127
 30
0.0
 11
166.790105
 21
221.958127
 31
0.0
  0
LINE
  5
1ca
100
AcDbEntity
  8
newlayer
 62
7
100
AcDbLine
 10
166.790105
 20
221.958127
 30
0.0
 11
166.790105
 21
227.358128
 31
0.0
  0
LINE
  5
1cb
100
AcDbEntity
  8
newlayer
 62
7
100
AcDbLine
 10
166.790105
 20
227.358128
 30
0.0
 11
164.290096
 21
227.358128
 31
0.0
  0
LINE
  5
1cc
100
AcDbEntity
  8
newlayer
 62
7
100
AcDbLine
 10
164.290096
 20
227.358128
 30
0.0
 11
164.290096
 21
221.958127
 31
0.0
  0
SPLINE
  5
1cd
100
AcDbEntity
  8
newlayer
 62
7
100
AcDbSpline
 70
0
 71
3
 72
19
 73
15
 74
13
 40
0.000000
 40
0.000000
 40
0.000000
 40
0.000000
 40
1.045717
 40
2.060418
 40
3.106134
 40
4.151851
 40
5.166552
 40
6.212268
 40
7.257986
 40
8.272687
 40
9.318405
 40
10.364122
 40
11.378824
 40
12.424542
 40
12.424542
 40
12.424542
 40
12.424542
 10
147.540094
 20
224.443317
 30
0.0
 10
147.485124
 20
224.795883
 30
0.0
 10
147.376815
 20
225.490559
 30
0.0
 10
146.580584
 20
226.255340
 30
0.0
 10
145.541933
 20
226.538718
 30
0.0
 10
144.492378
 20
226.255340
 30
0.0
 10
143.728214
 20
225.490559
 30
0.0
 10
143.444630
 20
224.443316
 30
0.0
 10
143.728213
 20
223.396073
 30
0.0
 10
144.492378
 20
222.631291
 30
0.0
 10
145.541933
 20
222.347912
 30
0.0
 10
146.580585
 20
222.631291
 30
0.0
 10
147.376816
 20
223.396073
 30
0.0
 10
147.485125
 20
224.090750
 30
0.0
 10
147.540094
 20
224.443317
 30
0.0
 11
147.540094
 21
224.443317
 31
0.0
 11
147.267035
 21
225.452753
 31
0.0
 11
146.549534
 21
226.170256
 31
0.0
 11
145.540098
 21
226.443316
 31
0.0
 11
144.530662
 21
226.170256
 31
0.0
 11
143.813160
 21
225.452753
 31
0.0
 11
143.540102
 21
224.443317
 31
0.0
 11
143.813159
 21
223.433879
 31
0.0
 11
144.530661
 21
222.716375
 31
0.0
 11
145.540098
 21
222.443315
 31
0.0
 11
146.549535
 21
222.716375
 31
0.0
 11
147.267036
 21
223.433879
 31
0.0
 11
147.540094
 21
224.443317
 31
0.0
  0
LINE
  5
1ce
100
AcDbEntity
  8
newlayer
 62
7
100
AcDbLine
 10
155.803278
 20
233.153310
 30
0.0
 11
155.803278
 21
233.153310
 31
0.0
  0
LINE
  5
1cf
100
AcDbEntity
  8
newlayer
 62
7
100
AcDbLine
 10
119.981627
 20
236.367846
 30
0.0
 11
147.048516
 21
236.367846
 31
0.0
  0
LINE
  5
1d0
100
AcDbEntity
  8
newlayer
 62
7
100
AcDbLine
 10
147.048516
 20
236.367846
 30
0.0
 11
147.048516
 21
239.296593
 31
0.0
  0
LINE
  5
1d1
100
AcDbEntity
  8
newlayer
 62
7
100
AcDbLine
 10
147.048516
 20
239.296593
 30
0.0
 11
119.981627
 21
239.296593
 31
0.0
  0
LINE
  5
1d2
100
AcDbEntity
  8
newlayer
 62
7
100
AcDbLine
 10
119.981627
 20
239.296593
 30
0.0
 11
119.981627
 21
236.367846
 31
0.0
  0
LINE
  5
1d3
100
AcDbEntity
  8
newlayer
 62
7
100
AcDbLine
 10
87.999999
 20
293.000000
 30
0.0
 11
99.833334
 21
293.000000
 31
0.0
  0
LINE
  5
1d4
100
AcDbEntity
  8
newlayer
 62
7
100
AcDbLine
 10
99.833334
 20
293.000000
 30
0.0
 11
99.833334
 21
296.000000
 31
0.0
  0
LINE
  5
1d5
100
AcDbEntity
  8
newlayer
 62
7
100
AcDbLine
 10
99.833334
 20
296.000000
 30
0.0
 11
109.833334
 21
296.000000
 31
0.0
  0
LINE
  5
1d6
100
AcDbEntity
  8
newlayer
 62
7
100
AcDbLine
 10
109.833334
 20
296.000000
 30
0.0
 11
109.833334
 21
293.000000
 31
0.0
  0
LINE
  5
1d7
100
AcDbEntity
  8
newlayer
 62
7
100
AcDbLine
 10
109.833334
 20
293.000000
 30
0.0
 11
121.666666
 21
293.000000
 31
0.0
  0
LINE
  5
1d8
100
AcDbEntity
  8
newlayer
 62
7
100
AcDbLine
 10
121.666666
 20
293.000000
 30
0.0
 11
121.666666
 21
296.000000
 31
0.0
  0
LINE
  5
1d9
100
AcDbEntity
  8
newlayer
 62
7
100
AcDbLine
 10
121.666666
 20
296.000000
 30
0.0
 11
131.666666
 21
296.000000
 31
0.0
  0
LINE
  5
1da
100
AcDbEntity
  8
newlayer
 62
7
100
AcDbLine
 10
131.666666
 20
296.000000
 30
0.0
 11
131.666666
 21
293.000000
 31
0.0
  0
LINE
  5
1db
100
AcDbEntity
  8
newlayer
 62
7
100
AcDbLine
 10
131.666666
 20
293.000000
 30
0.0
 11
143.500001
 21
293.000000
 31
0.0
  0
LINE
  5
1dc
100
AcDbEntity
  8
newlayer
 62
7
100
AcDbLine
 10
143.500001
 20
293.000000
 30
0.0
 11
143.500001
 21
296.000000
 31
0.0
  0
LINE
  5
1dd
100
AcDbEntity
  8
newlayer
 62
7
100
AcDbLine
 10
143.500001
 20
296.000000
 30
0.0
 11
153.500001
 21
296.000000
 31
0.0
  0
LINE
  5
1de
100
AcDbEntity
  8
newlayer
 62
7
100
AcDbLine
 10
153.500001
 20
296.000000
 30
0.0
 11
153.500001
 21
293.000000
 31
0.0
  0
LINE
  5
1df
100
AcDbEntity
  8
newlayer
 62
7
100
AcDbLine
 10
153.500001
 20
293.000000
 30
0.0
 11
165.333333
 21
293.000000
 31
0.0
  0
LINE
  5
1e0
100
AcDbEntity
  8
newlayer
 62
7
100
AcDbLine
 10
165.333333
 20
293.000000
 30
0.0
 11
165.333333
 21
296.000000
 31
0.0
  0
LINE
  5
1e1
100
AcDbEntity
  8
newlayer
 62
7
100
AcDbLine
 10
165.333333
 20
296.000000
 30
0.0
 11
175.333333
 21
296.000000
 31
0.0
  0
LINE
  5
1e2
100
AcDbEntity
  8
newlayer
 62
7
100
AcDbLine
 10
175.333333
 20
296.000000
 30
0.0
 11
175.333333
 21
293.000000
 31
0.0
  0
LINE
  5
1e3
100
AcDbEntity
  8
newlayer
 62
7
100
AcDbLine
 10
175.333333
 20
293.000000
 30
0.0
 11
187.166668
 21
293.000000
 31
0.0
  0
LINE
  5
1e4
100
AcDbEntity
  8
newlayer
 62
7
100
AcDbLine
 10
187.166668
 20
293.000000
 30
0.0
 11
187.166668
 21
296.000000
 31
0.0
  0
LINE
  5
1e5
100
AcDbEntity
  8
newlayer
 62
7
100
AcDbLine
 10
187.166668
 20
296.000000
 30
0.0
 11
197.166667
 21
296.000000
 31
0.0
  0
LINE
  5
1e6
100
AcDbEntity
  8
newlayer
 62
7
100
AcDbLine
 10
197.166667
 20
296.000000
 30
0.0
 11
197.166667
 21
293.000000
 31
0.0
  0
LINE
  5
1e7
100
AcDbEntity
  8
newlayer
 62
7
100
AcDbLine
 10
197.166667
 20
293.000000
 30
0.0
 11
209.000000
 21
293.000000
 31
0.0
  0
LINE
  5
1e8
100
AcDbEntity
  8
newlayer
 62
7
100
AcDbLine
 10
209.000000
 20
293.000000
 30
0.0
 11
209.000000
 21
282.000000
 31
0.0
  0
LINE
  5
1e9
100
AcDbEntity
  8
newlayer
 62
7
100
AcDbLine
 10
209.000000
 20
282.000000
 30
0.0
 11
206.000000
 21
282.000000
 31
0.0
  0
LINE
  5
1ea
100
AcDbEntity
  8
newlayer
 62
7
100
AcDbLine
 10
206.000000
 20
282.000000
 30
0.0
 11
206.000000
 21
272.000000
 31
0.0
  0
LINE
  5
1eb
100
AcDbEntity
  8
newlayer
 62
7
100
AcDbLine
 10
206.000000
 20
272.000000
 30
0.0
 11
209.000000
 21
272.000000
 31
0.0
  0
LINE
  5
1ec
100
AcDbEntity
  8
newlayer
 62
7
100
AcDbLine
 10
209.000000
 20
272.000000
 30
0.0
 11
209.000000
 21
257.999999
 31
0.0
  0
LINE
  5
1ed
100
AcDbEntity
  8
newlayer
 62
7
100
AcDbLine
 10
209.000000
 20
257.999999
 30
0.0
 11
206.000000
 21
257.999999
 31
0.0
  0
LINE
  5
1ee
100
AcDbEntity
  8
newlayer
 62
7
100
AcDbLine
 10
206.000000
 20
257.999999
 30
0.0
 11
206.000000
 21
247.999999
 31
0.0
  0
LINE
  5
1ef
100
AcDbEntity
  8
newlayer
 62
7
100
AcDbLine
 10
206.000000
 20
247.999999
 30
0.0
 11
209.000000
 21
247.999999
 31
0.0
  0
LINE
  5
1f0
100
AcDbEntity
  8
newlayer
 62
7
100
AcDbLine
 10
209.000000
 20
247.999999
 30
0.0
 11
209.000000
 21
233.999999
 31
0.0
  0
LINE
  5
1f1
100
AcDbEntity
  8
newlayer
 62
7
100
AcDbLine
 10
209.000000
 20
233.999999
 30
0.0
 11
206.000000
 21
233.999999
 31
0.0
  0
LINE
  5
1f2
100
AcDbEntity
  8
newlayer
 62
7
100
AcDbLine
 10
206.000000
 20
233.999999
 30
0.0
 11
206.000000
 21
223.999999
 31
0.0
  0
LINE
  5
1f3
100
AcDbEntity
  8
newlayer
 62
7
100
AcDbLine
 10
206.000000
 20
223.999999
 30
0.0
 11
209.000000
 21
223.999999
 31
0.0
  0
LINE
  5
1f4
100
AcDbEntity
  8
newlayer
 62
7
100
AcDbLine
 10
209.000000
 20
223.999999
 30
0.0
 11
209.000000
 21
212.999999
 31
0.0
  0
LINE
  5
1f5
100
AcDbEntity
  8
newlayer
 62
7
100
AcDbLine
 10
209.000000
 20
212.999999
 30
0.0
 11
197.166667
 21
212.999999
 31
0.0
  0
LINE
  5
1f6
100
AcDbEntity
  8
newlayer
 62
7
100
AcDbLine
 10
197.166667
 20
212.999999
 30
0.0
 11
197.166667
 21
209.999999
 31
0.0
  0
LINE
  5
1f7
100
AcDbEntity
  8
newlayer
 62
7
100
AcDbLine
 10
197.166667
 20
209.999999
 30
0.0
 11
187.166668
 21
209.999999
 31
0.0
  0
LINE
  5
1f8
100
AcDbEntity
  8
newlayer
 62
7
100
AcDbLine
 10
187.166668
 20
209.999999
 30
0.0
 11
187.166668
 21
212.999999
 31
0.0
  0
LINE
  5
1f9
100
AcDbEntity
  8
newlayer
 62
7
100
AcDbLine
 10
187.166668
 20
212.999999
 30
0.0
 11
175.333333
 21
212.999999
 31
0.0
  0
LINE
  5
1fa
100
AcDbEntity
  8
newlayer
 62
7
100
AcDbLine
 10
175.333333
 20
212.999999
 30
0.0
 11
175.333333
 21
209.999999
 31
0.0
  0
LINE
  5
1fb
100
AcDbEntity
  8
newlayer
 62
7
100
AcDbLine
 10
175.333333
 20
209.999999
 30
0.0
 11
165.333333
 21
209.999999
 31
0.0
  0
LINE
  5
1fc
100
AcDbEntity
  8
newlayer
 62
7
100
AcDbLine
 10
165.333333
 20
209.999999
 30
0.0
 11
165.333333
 21
212.999999
 31
0.0
  0
LINE
  5
1fd
100
AcDbEntity
  8
newlayer
 62
7
100
AcDbLine
 10
165.333333
 20
212.999999
 30
0.0
 11
153.500001
 21
212.999999
 31
0.0
  0
LINE
  5
1fe
100
AcDbEntity
  8
newlayer
 62
7
100
AcDbLine
 10
153.500001
 20
212.999999
 30
0.0
 11
153.500001
 21
209.999999
 31
0.0
  0
LINE
  5
1ff
100
AcDbEntity
  8
newlayer
 62
7
100
AcDbLine
 10
153.500001
 20
209.999999
 30
0.0
 11
143.500001
 21
209.999999
 31
0.0
  0
LINE
  5
200
100
AcDbEntity
  8
newlayer
 62
7
100
AcDbLine
 10
143.500001
 20
209.999999
 30
0.0
 11
143.500001
 21
212.999999
 31
0.0
  0
LINE
  5
201
100
AcDbEntity
  8
newlayer
 62
7
100
AcDbLine
 10
143.500001
 20
212.999999
 30
0.0
 11
131.666666
 21
212.999999
 31
0.0
  0
LINE
  5
202
100
AcDbEntity
  8
newlayer
 62
7
100
AcDbLine
 10
131.666666
 20
212.999999
 30
0.0
 11
131.666666
 21
209.999999
 31
0.0
  0
LINE
  5
203
100
AcDbEntity
  8
newlayer
 62
7
100
AcDbLine
 10
131.666666
 20
209.999999
 30
0.0
 11
121.666666
 21
209.999999
 31
0.0
  0
LINE
  5
204
100
AcDbEntity
  8
newlayer
 62
7
100
AcDbLine
 10
121.666666
 20
209.999999
 30
0.0
 11
121.666666
 21
212.999999
 31
0.0
  0
LINE
  5
205
100
AcDbEntity
  8
newlayer
 62
7
100
AcDbLine
 10
121.666666
 20
212.999999
 30
0.0
 11
109.833334
 21
212.999999
 31
0.0
  0
LINE
  5
206
100
AcDbEntity
  8
newlayer
 62
7
100
AcDbLine
 10
109.833334
 20
212.999999
 30
0.0
 11
109.833334
 21
209.999999
 31
0.0
  0
LINE
  5
207
100
AcDbEntity
  8
newlayer
 62
7
100
AcDbLine
 10
109.833334
 20
209.999999
 30
0.0
 11
99.833334
 21
209.999999
 31
0.0
  0
LINE
  5
208
100
AcDbEntity
  8
newlayer
 62
7
100
AcDbLine
 10
99.833334
 20
209.999999
 30
0.0
 11
99.833334
 21
212.999999
 31
0.0
  0
LINE
  5
209
100
AcDbEntity
  8
newlayer
 62
7
100
AcDbLine
 10
99.833334
 20
212.999999
 30
0.0
 11
87.999999
 21
212.999999
 31
0.0
  0
LINE
  5
20a
100
AcDbEntity
  8
newlayer
 62
7
100
AcDbLine
 10
87.999999
 20
212.999999
 30
0.0
 11
87.999999
 21
223.999999
 31
0.0
  0
LINE
  5
20b
100
AcDbEntity
  8
newlayer
 62
7
100
AcDbLine
 10
87.999999
 20
223.999999
 30
0.0
 11
90.999999
 21
223.999999
 31
0.0
  0
LINE
  5
20c
100
AcDbEntity
  8
newlayer
 62
7
100
AcDbLine
 10
90.999999
 20
223.999999
 30
0.0
 11
90.999999
 21
233.999999
 31
0.0
  0
LINE
  5
20d
100
AcDbEntity
  8
newlayer
 62
7
100
AcDbLine
 10
90.999999
 20
233.999999
 30
0.0
 11
87.999999
 21
233.999999
 31
0.0
  0
LINE
  5
20e
100
AcDbEntity
  8
newlayer
 62
7
100
AcDbLine
 10
87.999999
 20
233.999999
 30
0.0
 11
87.999999
 21
247.999999
 31
0.0
  0
LINE
  5
20f
100
AcDbEntity
  8
newlayer
 62
7
100
AcDbLine
 10
87.999999
 20
247.999999
 30
0.0
 11
90.999999
 21
247.999999
 31
0.0
  0
LINE
  5
210
100
AcDbEntity
  8
newlayer
 62
7
100
AcDbLine
 10
90.999999
 20
247.999999
 30
0.0
 11
90.999999
 21
257.999999
 31
0.0
  0
LINE
  5
211
100
AcDbEntity
  8
newlayer
 62
7
100
AcDbLine
 10
90.999999
 20
257.999999
 30
0.0
 11
87.999999
 21
257.999999
 31
0.0
  0
LINE
  5
212
100
AcDbEntity
  8
newlayer
 62
7
100
AcDbLine
 10
87.999999
 20
257.999999
 30
0.0
 11
87.999999
 21
272.000000
 31
0.0
  0
LINE
  5
213
100
AcDbEntity
  8
newlayer
 62
7
100
AcDbLine
 10
87.999999
 20
272.000000
 30
0.0
 11
90.999999
 21
272.000000
 31
0.0
  0
LINE
  5
214
100
AcDbEntity
  8
newlayer
 62
7
100
AcDbLine
 10
90.999999
 20
272.000000
 30
0.0
 11
90.999999
 21
282.000000
 31
0.0
  0
LINE
  5
215
100
AcDbEntity
  8
newlayer
 62
7
100
AcDbLine
 10
90.999999
 20
282.000000
 30
0.0
 11
87.999999
 21
282.000000
 31
0.0
  0
LINE
  5
216
100
AcDbEntity
  8
newlayer
 62
7
100
AcDbLine
 10
87.999999
 20
282.000000
 30
0.0
 11
87.999999
 21
293.000000
 31
0.0
  0
LINE
  5
217
100
AcDbEntity
  8
newlayer
 62
5
100
AcDbLine
 10
4.191028
 20
206.000775
 30
0.0
 11
19.591195
 21
206.000775
 31
0.0
  0
LINE
  5
218
100
AcDbEntity
  8
newlayer
 62
5
100
AcDbLine
 10
19.591195
 20
206.000775
 30
0.0
 11
19.591195
 21
120.999226
 31
0.0
  0
LINE
  5
219
100
AcDbEntity
  8
newlayer
 62
5
100
AcDbLine
 10
19.591195
 20
120.999226
 30
0.0
 11
4.191028
 21
120.999226
 31
0.0
  0
LINE
  5
21a
100
AcDbEntity
  8
newlayer
 62
5
100
AcDbLine
 10
4.191028
 20
120.999226
 30
0.0
 11
4.191028
 21
206.000775
 31
0.0
  0
LINE
  5
21b
100
AcDbEntity
  8
newlayer
 62
7
100
AcDbLine
 10
17.692438
 20
203.695606
 30
0.0
 11
19.589784
 21
203.695606
 31
0.0
  0
LINE
  5
21c
100
AcDbEntity
  8
newlayer
 62
7
100
AcDbLine
 10
19.589784
 20
203.695606
 30
0.0
 11
19.589784
 21
193.498260
 31
0.0
  0
LINE
  5
21d
100
AcDbEntity
  8
newlayer
 62
7
100
AcDbLine
 10
19.589784
 20
193.498260
 30
0.0
 11
17.692438
 21
193.498260
 31
0.0
  0
LINE
  5
21e
100
AcDbEntity
  8
newlayer
 62
7
100
AcDbLine
 10
17.692438
 20
193.498260
 30
0.0
 11
17.692438
 21
203.695606
 31
0.0
  0
SPLINE
  5
21f
100
AcDbEntity
  8
newlayer
 62
7
100
AcDbSpline
 70
0
 71
3
 72
25
 73
21
 74
19
 40
0.000000
 40
0.000000
 40
0.000000
 40
0.000000
 40
0.754578
 40
1.486775
 40
2.241353
 40
2.619145
 40
2.993810
 40
3.371602
 40
3.749394
 40
4.124060
 40
4.501851
 40
4.879643
 40
5.254309
 40
5.632101
 40
6.009893
 40
6.384558
 40
6.762350
 40
7.516928
 40
8.249125
 40
9.003703
 40
9.003703
 40
9.003703
 40
9.003703
 10
155.803278
 20
233.153310
 30
0.0
 10
155.763568
 20
233.407701
 30
0.0
 10
155.685324
 20
233.908937
 30
0.0
 10
155.111439
 20
234.461049
 30
0.0
 10
154.485801
 20
234.630344
 30
0.0
 10
153.982326
 20
234.563186
 30
0.0
 10
153.630246
 20
234.417511
 30
0.0
 10
153.327825
 20
234.185583
 30
0.0
 10
153.095924
 20
233.883157
 30
0.0
 10
152.950115
 20
233.531139
 30
0.0
 10
152.900234
 20
233.153310
 30
0.0
 10
152.950115
 20
232.775481
 30
0.0
 10
153.095924
 20
232.423463
 30
0.0
 10
153.327825
 20
232.121037
 30
0.0
 10
153.630246
 20
231.889109
 30
0.0
 10
153.982326
 20
231.743433
 30
0.0
 10
154.485801
 20
231.676275
 30
0.0
 10
155.111439
 20
231.845571
 30
0.0
 10
155.685324
 20
232.397682
 30
0.0
 10
155.763568
 20
232.898919
 30
0.0
 10
155.803278
 20
233.153310
 30
0.0
 11
155.803278
 21
233.153310
 31
0.0
 11
155.606244
 21
233.881709
 31
0.0
 11
155.088504
 21
234.399452
 31
0.0
 11
154.360107
 21
234.596493
 31
0.0
 11
153.985564
 21
234.547052
 31
0.0
 11
153.639417
 21
234.403677
 31
0.0
 11
153.339611
 21
234.173800
 31
0.0
 11
153.109731
 21
233.873997
 31
0.0
 11
152.966352
 21
233.527852
 31
0.0
 11
152.916907
 21
233.153310
 31
0.0
 11
152.966352
 21
232.778767
 31
0.0
 11
153.109731
 21
232.432622
 31
0.0
 11
153.339611
 21
232.132819
 31
0.0
 11
153.639417
 21
231.902942
 31
0.0
 11
153.985564
 21
231.759567
 31
0.0
 11
154.360107
 21
231.710127
 31
0.0
 11
155.088504
 21
231.907167
 31
0.0
 11
155.606244
 21
232.424911
 31
0.0
 11
155.803278
 21
233.153310
 31
0.0
  0
LINE
  5
220
100
AcDbEntity
  8
newlayer
 62
7
100
AcDbLine
 10
10.001002
 20
198.596923
 30
0.0
 11
10.001002
 21
198.596923
 31
0.0
  0
LINE
  5
221
100
AcDbEntity
  8
newlayer
 62
7
100
AcDbLine
 10
17.692438
 20
133.501744
 30
0.0
 11
19.589784
 21
133.501744
 31
0.0
  0
LINE
  5
222
100
AcDbEntity
  8
newlayer
 62
7
100
AcDbLine
 10
19.589784
 20
133.501744
 30
0.0
 11
19.589784
 21
123.304397
 31
0.0
  0
LINE
  5
223
100
AcDbEntity
  8
newlayer
 62
7
100
AcDbLine
 10
19.589784
 20
123.304397
 30
0.0
 11
17.692438
 21
123.304397
 31
0.0
  0
LINE
  5
224
100
AcDbEntity
  8
newlayer
 62
7
100
AcDbLine
 10
17.692438
 20
123.304397
 30
0.0
 11
17.692438
 21
133.501744
 31
0.0
  0
SPLINE
  5
225
100
AcDbEntity
  8
newlayer
 62
7
100
AcDbSpline
 70
0
 71
3
 72
28
 73
24
 74
22
 40
0.000000
 40
0.000000
 40
0.000000
 40
0.000000
 40
0.378680
 40
0.754227
 40
1.132907
 40
1.511588
 40
1.887135
 40
2.265815
 40
2.644496
 40
3.020043
 40
3.398724
 40
3.777405
 40
4.152952
 40
4.531633
 40
4.910313
 40
5.285860
 40
5.664540
 40
6.043220
 40
6.418767
 40
6.797447
 40
7.553808
 40
8.287736
 40
9.044096
 40
9.044096
 40
9.044096
 40
9.044096
 10
10.001002
 20
198.596923
 30
0.0
 10
10.010645
 20
198.470335
 30
0.0
 10
10.029851
 20
198.218205
 30
0.0
 10
10.181634
 20
197.865361
 30
0.0
 10
10.412558
 20
197.562213
 30
0.0
 10
10.716112
 20
197.329773
 30
0.0
 10
11.068847
 20
197.183620
 30
0.0
 10
11.447594
 20
197.133622
 30
0.0
 10
11.826305
 20
197.183619
 30
0.0
 10
12.179151
 20
197.329772
 30
0.0
 10
12.482299
 20
197.562212
 30
0.0
 10
12.714739
 20
197.865360
 30
0.0
 10
12.860892
 20
198.218205
 30
0.0
 10
12.910889
 20
198.596923
 30
0.0
 10
12.860891
 20
198.975640
 30
0.0
 10
12.714739
 20
199.328487
 30
0.0
 10
12.482294
 20
199.631624
 30
0.0
 10
12.179163
 20
199.864100
 30
0.0
 10
11.826257
 20
200.010121
 30
0.0
 10
11.321596
 20
200.077443
 30
0.0
 10
10.694479
 20
199.907750
 30
0.0
 10
10.119236
 20
199.354336
 30
0.0
 10
10.040807
 20
198.851915
 30
0.0
 10
10.001002
 20
198.596923
 30
0.0
 11
10.001002
 21
198.596923
 31
0.0
 11
10.050562
 21
198.221500
 31
0.0
 11
10.194277
 21
197.874540
 31
0.0
 11
10.424696
 21
197.574030
 31
0.0
 11
10.725205
 21
197.343611
 31
0.0
 11
11.072165
 21
197.199895
 31
0.0
 11
11.447588
 21
197.150334
 31
0.0
 11
11.823012
 21
197.199894
 31
0.0
 11
12.169972
 21
197.343610
 31
0.0
 11
12.470482
 21
197.574029
 31
0.0
 11
12.700901
 21
197.874539
 31
0.0
 11
12.844617
 21
198.221499
 31
0.0
 11
12.894177
 21
198.596923
 31
0.0
 11
12.844616
 21
198.972346
 31
0.0
 11
12.700900
 21
199.319306
 31
0.0
 11
12.470481
 21
199.619815
 31
0.0
 11
12.169971
 21
199.850234
 31
0.0
 11
11.823011
 21
199.993949
 31
0.0
 11
11.447588
 21
200.043509
 31
0.0
 11
10.717468
 21
199.846008
 31
0.0
 11
10.198503
 21
199.327043
 31
0.0
 11
10.001002
 21
198.596923
 31
0.0
  0
LINE
  5
226
100
AcDbEntity
  8
newlayer
 62
7
100
AcDbLine
 10
10.001002
 20
128.403055
 30
0.0
 11
10.001002
 21
128.403055
 31
0.0
  0
LINE
  5
227
100
AcDbEntity
  8
newlayer
 62
5
100
AcDbLine
 10
83.554748
 20
113.347332
 30
0.0
 11
68.154581
 21
113.347332
 31
0.0
  0
LINE
  5
228
100
AcDbEntity
  8
newlayer
 62
5
100
AcDbLine
 10
68.154581
 20
113.347332
 30
0.0
 11
68.154581
 21
28.345783
 31
0.0
  0
LINE
  5
229
100
AcDbEntity
  8
newlayer
 62
5
100
AcDbLine
 10
68.154581
 20
28.345783
 30
0.0
 11
83.554748
 21
28.345783
 31
0.0
  0
LINE
  5
22a
100
AcDbEntity
  8
newlayer
 62
5
100
AcDbLine
 10
83.554748
 20
28.345783
 30
0.0
 11
83.554748
 21
113.347332
 31
0.0
  0
LINE
  5
22b
100
AcDbEntity
  8
newlayer
 62
7
100
AcDbLine
 10
70.053338
 20
111.042163
 30
0.0
 11
68.155992
 21
111.042163
 31
0.0
  0
LINE
  5
22c
100
AcDbEntity
  8
newlayer
 62
7
100
AcDbLine
 10
68.155992
 20
111.042163
 30
0.0
 11
68.155992
 21
100.844817
 31
0.0
  0
LINE
  5
22d
100
AcDbEntity
  8
newlayer
 62
7
100
AcDbLine
 10
68.155992
 20
100.844817
 30
0.0
 11
70.053338
 21
100.844817
 31
0.0
  0
LINE
  5
22e
100
AcDbEntity
  8
newlayer
 62
7
100
AcDbLine
 10
70.053338
 20
100.844817
 30
0.0
 11
70.053338
 21
111.042163
 31
0.0
  0
SPLINE
  5
22f
100
AcDbEntity
  8
newlayer
 62
7
100
AcDbSpline
 70
0
 71
3
 72
28
 73
24
 74
22
 40
0.000000
 40
0.000000
 40
0.000000
 40
0.000000
 40
0.756361
 40
1.490288
 40
2.246649
 40
2.625329
 40
3.000876
 40
3.379556
 40
3.758237
 40
4.133783
 40
4.512464
 40
4.891145
 40
5.266692
 40
5.645373
 40
6.024054
 40
6.399601
 40
6.778282
 40
7.156962
 40
7.532509
 40
7.911189
 40
8.289869
 40
8.665416
 40
9.044096
 40
9.044096
 40
9.044096
 40
9.044096
 10
10.001002
 20
128.403055
 30
0.0
 10
10.040807
 20
128.148063
 30
0.0
 10
10.119236
 20
127.645642
 30
0.0
 10
10.694479
 20
127.092228
 30
0.0
 10
11.321596
 20
126.922535
 30
0.0
 10
11.826257
 20
126.989857
 30
0.0
 10
12.179163
 20
127.135878
 30
0.0
 10
12.482294
 20
127.368354
 30
0.0
 10
12.714739
 20
127.671491
 30
0.0
 10
12.860891
 20
128.024338
 30
0.0
 10
12.910889
 20
128.403055
 30
0.0
 10
12.860892
 20
128.781773
 30
0.0
 10
12.714739
 20
129.134618
 30
0.0
 10
12.482299
 20
129.437766
 30
0.0
 10
12.179151
 20
129.670206
 30
0.0
 10
11.826305
 20
129.816359
 30
0.0
 10
11.447594
 20
129.866356
 30
0.0
 10
11.068847
 20
129.816358
 30
0.0
 10
10.716112
 20
129.670205
 30
0.0
 10
10.412558
 20
129.437765
 30
0.0
 10
10.181634
 20
129.134617
 30
0.0
 10
10.029851
 20
128.781773
 30
0.0
 10
10.010645
 20
128.529643
 30
0.0
 10
10.001002
 20
128.403055
 30
0.0
 11
10.001002
 21
128.403055
 31
0.0
 11
10.198503
 21
127.672935
 31
0.0
 11
10.717468
 21
127.153970
 31
0.0
 11
11.447588
 21
126.956469
 31
0.0
 11
11.823011
 21
127.006029
 31
0.0
 11
12.169971
 21
127.149744
 31
0.0
 11
12.470481
 21
127.380163
 31
0.0
 11
12.700900
 21
127.680672
 31
0.0
 11
12.844616
 21
128.027632
 31
0.0
 11
12.894177
 21
128.403055
 31
0.0
 11
12.844617
 21
128.778479
 31
0.0
 11
12.700901
 21
129.125439
 31
0.0
 11
12.470482
 21
129.425949
 31
0.0
 11
12.169972
 21
129.656368
 31
0.0
 11
11.823012
 21
129.800084
 31
0.0
 11
11.447588
 21
129.849644
 31
0.0
 11
11.072165
 21
129.800083
 31
0.0
 11
10.725205
 21
129.656367
 31
0.0
 11
10.424696
 21
129.425948
 31
0.0
 11
10.194277
 21
129.125438
 31
0.0
 11
10.050562
 21
128.778478
 31
0.0
 11
10.001002
 21
128.403055
 31
0.0
  0
LINE
  5
230
100
AcDbEntity
  8
newlayer
 62
7
100
AcDbLine
 10
77.744774
 20
105.943480
 30
0.0
 11
77.744774
 21
105.943480
 31
0.0
  0
LINE
  5
231
100
AcDbEntity
  8
newlayer
 62
7
100
AcDbLine
 10
70.053338
 20
40.848301
 30
0.0
 11
68.155992
 21
40.848301
 31
0.0
  0
LINE
  5
232
100
AcDbEntity
  8
newlayer
 62
7
100
AcDbLine
 10
68.155992
 20
40.848301
 30
0.0
 11
68.155992
 21
30.650955
 31
0.0
  0
LINE
  5
233
100
AcDbEntity
  8
newlayer
 62
7
100
AcDbLine
 10
68.155992
 20
30.650955
 30
0.0
 11
70.053338
 21
30.650955
 31
0.0
  0
LINE
  5
234
100
AcDbEntity
  8
newlayer
 62
7
100
AcDbLine
 10
70.053338
 20
30.650955
 30
0.0
 11
70.053338
 21
40.848301
 31
0.0
  0
SPLINE
  5
235
100
AcDbEntity
  8
newlayer
 62
7
100
AcDbSpline
 70
0
 71
3
 72
28
 73
24
 74
22
 40
0.000000
 40
0.000000
 40
0.000000
 40
0.000000
 40
0.378680
 40
0.754227
 40
1.132907
 40
1.511588
 40
1.887135
 40
2.265815
 40
2.644496
 40
3.020043
 40
3.398724
 40
3.777405
 40
4.152952
 40
4.531633
 40
4.910313
 40
5.285860
 40
5.664540
 40
6.043220
 40
6.418767
 40
6.797447
 40
7.553808
 40
8.287736
 40
9.044096
 40
9.044096
 40
9.044096
 40
9.044096
 10
77.744774
 20
105.943480
 30
0.0
 10
77.735131
 20
105.816892
 30
0.0
 10
77.715925
 20
105.564762
 30
0.0
 10
77.564142
 20
105.211918
 30
0.0
 10
77.333218
 20
104.908771
 30
0.0
 10
77.029664
 20
104.676330
 30
0.0
 10
76.676929
 20
104.530177
 30
0.0
 10
76.298182
 20
104.480179
 30
0.0
 10
75.919471
 20
104.530176
 30
0.0
 10
75.566625
 20
104.676329
 30
0.0
 10
75.263477
 20
104.908770
 30
0.0
 10
75.031037
 20
105.211918
 30
0.0
 10
74.884884
 20
105.564762
 30
0.0
 10
74.834887
 20
105.943480
 30
0.0
 10
74.884885
 20
106.322198
 30
0.0
 10
75.031037
 20
106.675044
 30
0.0
 10
75.263482
 20
106.978182
 30
0.0
 10
75.566613
 20
107.210657
 30
0.0
 10
75.919519
 20
107.356678
 30
0.0
 10
76.424180
 20
107.424000
 30
0.0
 10
77.051297
 20
107.254307
 30
0.0
 10
77.626540
 20
106.700893
 30
0.0
 10
77.704969
 20
106.198472
 30
0.0
 10
77.744774
 20
105.943480
 30
0.0
 11
77.744774
 21
105.943480
 31
0.0
 11
77.695214
 21
105.568057
 31
0.0
 11
77.551499
 21
105.221097
 31
0.0
 11
77.321080
 21
104.920588
 31
0.0
 11
77.020571
 21
104.690168
 31
0.0
 11
76.673611
 21
104.546452
 31
0.0
 11
76.298188
 21
104.496891
 31
0.0
 11
75.922764
 21
104.546452
 31
0.0
 11
75.575804
 21
104.690167
 31
0.0
 11
75.275294
 21
104.920587
 31
0.0
 11
75.044875
 21
105.221096
 31
0.0
 11
74.901159
 21
105.568057
 31
0.0
 11
74.851599
 21
105.943480
 31
0.0
 11
74.901160
 21
106.318903
 31
0.0
 11
75.044876
 21
106.665863
 31
0.0
 11
75.275295
 21
106.966372
 31
0.0
 11
75.575805
 21
107.196791
 31
0.0
 11
75.922765
 21
107.340506
 31
0.0
 11
76.298188
 21
107.390067
 31
0.0
 11
77.028308
 21
107.192565
 31
0.0
 11
77.547273
 21
106.673600
 31
0.0
 11
77.744774
 21
105.943480
 31
0.0
  0
LINE
  5
236
100
AcDbEntity
  8
newlayer
 62
7
100
AcDbLine
 10
77.744774
 20
35.749612
 30
0.0
 11
77.744774
 21
35.749612
 31
0.0
  0
LINE
  5
237
100
AcDbEntity
  8
newlayer
 62
7
100
AcDbLine
 10
86.552876
 20
330.622728
 30
0.0
 11
86.552876
 21
318.789395
 31
0.0
  0
LINE
  5
238
100
AcDbEntity
  8
newlayer
 62
7
100
AcDbLine
 10
86.552876
 20
318.789395
 30
0.0
 11
83.552877
 21
318.789395
 31
0.0
  0
LINE
  5
239
100
AcDbEntity
  8
newlayer
 62
7
100
AcDbLine
 10
83.552877
 20
318.789395
 30
0.0
 11
83.552877
 21
308.789394
 31
0.0
  0
LINE
  5
23a
100
AcDbEntity
  8
newlayer
 62
7
100
AcDbLine
 10
83.552877
 20
308.789394
 30
0.0
 11
86.552876
 21
308.789394
 31
0.0
  0
LINE
  5
23b
100
AcDbEntity
  8
newlayer
 62
7
100
AcDbLine
 10
86.552876
 20
308.789394
 30
0.0
 11
86.552876
 21
296.956061
 31
0.0
  0
LINE
  5
23c
100
AcDbEntity
  8
newlayer
 62
7
100
AcDbLine
 10
86.552876
 20
296.956061
 30
0.0
 11
83.552877
 21
296.956061
 31
0.0
  0
LINE
  5
23d
100
AcDbEntity
  8
newlayer
 62
7
100
AcDbLine
 10
83.552877
 20
296.956061
 30
0.0
 11
83.552877
 21
286.956061
 31
0.0
  0
LINE
  5
23e
100
AcDbEntity
  8
newlayer
 62
7
100
AcDbLine
 10
83.552877
 20
286.956061
 30
0.0
 11
86.552876
 21
286.956061
 31
0.0
  0
LINE
  5
23f
100
AcDbEntity
  8
newlayer
 62
7
100
AcDbLine
 10
86.552876
 20
286.956061
 30
0.0
 11
86.552876
 21
275.122729
 31
0.0
  0
LINE
  5
240
100
AcDbEntity
  8
newlayer
 62
7
100
AcDbLine
 10
86.552876
 20
275.122729
 30
0.0
 11
83.552877
 21
275.122729
 31
0.0
  0
LINE
  5
241
100
AcDbEntity
  8
newlayer
 62
7
100
AcDbLine
 10
83.552877
 20
275.122729
 30
0.0
 11
83.552877
 21
265.122729
 31
0.0
  0
LINE
  5
242
100
AcDbEntity
  8
newlayer
 62
7
100
AcDbLine
 10
83.552877
 20
265.122729
 30
0.0
 11
86.552876
 21
265.122729
 31
0.0
  0
LINE
  5
243
100
AcDbEntity
  8
newlayer
 62
7
100
AcDbLine
 10
86.552876
 20
265.122729
 30
0.0
 11
86.552876
 21
253.289394
 31
0.0
  0
LINE
  5
244
100
AcDbEntity
  8
newlayer
 62
7
100
AcDbLine
 10
86.552876
 20
253.289394
 30
0.0
 11
83.552877
 21
253.289394
 31
0.0
  0
LINE
  5
245
100
AcDbEntity
  8
newlayer
 62
7
100
AcDbLine
 10
83.552877
 20
253.289394
 30
0.0
 11
83.552877
 21
243.289394
 31
0.0
  0
LINE
  5
246
100
AcDbEntity
  8
newlayer
 62
7
100
AcDbLine
 10
83.552877
 20
243.289394
 30
0.0
 11
86.552876
 21
243.289394
 31
0.0
  0
LINE
  5
247
100
AcDbEntity
  8
newlayer
 62
7
100
AcDbLine
 10
86.552876
 20
243.289394
 30
0.0
 11
86.552876
 21
231.456062
 31
0.0
  0
LINE
  5
248
100
AcDbEntity
  8
newlayer
 62
7
100
AcDbLine
 10
86.552876
 20
231.456062
 30
0.0
 11
83.552877
 21
231.456062
 31
0.0
  0
LINE
  5
249
100
AcDbEntity
  8
newlayer
 62
7
100
AcDbLine
 10
83.552877
 20
231.456062
 30
0.0
 11
83.552877
 21
221.456062
 31
0.0
  0
LINE
  5
24a
100
AcDbEntity
  8
newlayer
 62
7
100
AcDbLine
 10
83.552877
 20
221.456062
 30
0.0
 11
86.552876
 21
221.456062
 31
0.0
  0
LINE
  5
24b
100
AcDbEntity
  8
newlayer
 62
7
100
AcDbLine
 10
86.552876
 20
221.456062
 30
0.0
 11
86.552876
 21
209.622727
 31
0.0
  0
LINE
  5
24c
100
AcDbEntity
  8
newlayer
 62
7
100
AcDbLine
 10
86.552876
 20
209.622727
 30
0.0
 11
76.352880
 21
209.622727
 31
0.0
  0
LINE
  5
24d
100
AcDbEntity
  8
newlayer
 62
7
100
AcDbLine
 10
76.352880
 20
209.622727
 30
0.0
 11
76.352880
 21
212.622727
 31
0.0
  0
LINE
  5
24e
100
AcDbEntity
  8
newlayer
 62
7
100
AcDbLine
 10
76.352880
 20
212.622727
 30
0.0
 11
66.352872
 21
212.622727
 31
0.0
  0
LINE
  5
24f
100
AcDbEntity
  8
newlayer
 62
7
100
AcDbLine
 10
66.352872
 20
212.622727
 30
0.0
 11
66.352872
 21
209.622727
 31
0.0
  0
LINE
  5
250
100
AcDbEntity
  8
newlayer
 62
7
100
AcDbLine
 10
66.352872
 20
209.622727
 30
0.0
 11
56.152881
 21
209.622727
 31
0.0
  0
LINE
  5
251
100
AcDbEntity
  8
newlayer
 62
7
100
AcDbLine
 10
56.152881
 20
209.622727
 30
0.0
 11
56.152881
 21
212.622727
 31
0.0
  0
LINE
  5
252
100
AcDbEntity
  8
newlayer
 62
7
100
AcDbLine
 10
56.152881
 20
212.622727
 30
0.0
 11
46.152872
 21
212.622727
 31
0.0
  0
LINE
  5
253
100
AcDbEntity
  8
newlayer
 62
7
100
AcDbLine
 10
46.152872
 20
212.622727
 30
0.0
 11
46.152872
 21
209.622727
 31
0.0
  0
LINE
  5
254
100
AcDbEntity
  8
newlayer
 62
7
100
AcDbLine
 10
46.152872
 20
209.622727
 30
0.0
 11
35.952882
 21
209.622727
 31
0.0
  0
LINE
  5
255
100
AcDbEntity
  8
newlayer
 62
7
100
AcDbLine
 10
35.952882
 20
209.622727
 30
0.0
 11
35.952882
 21
212.622727
 31
0.0
  0
LINE
  5
256
100
AcDbEntity
  8
newlayer
 62
7
100
AcDbLine
 10
35.952882
 20
212.622727
 30
0.0
 11
25.952873
 21
212.622727
 31
0.0
  0
LINE
  5
257
100
AcDbEntity
  8
newlayer
 62
7
100
AcDbLine
 10
25.952873
 20
212.622727
 30
0.0
 11
25.952873
 21
209.622727
 31
0.0
  0
LINE
  5
258
100
AcDbEntity
  8
newlayer
 62
7
100
AcDbLine
 10
25.952873
 20
209.622727
 30
0.0
 11
15.752882
 21
209.622727
 31
0.0
  0
LINE
  5
259
100
AcDbEntity
  8
newlayer
 62
7
100
AcDbLine
 10
15.752882
 20
209.622727
 30
0.0
 11
15.752882
 21
212.622727
 31
0.0
  0
LINE
  5
25a
100
AcDbEntity
  8
newlayer
 62
7
100
AcDbLine
 10
15.752882
 20
212.622727
 30
0.0
 11
5.752874
 21
212.622727
 31
0.0
  0
LINE
  5
25b
100
AcDbEntity
  8
newlayer
 62
7
100
AcDbLine
 10
5.752874
 20
212.622727
 30
0.0
 11
5.752874
 21
209.622727
 31
0.0
  0
LINE
  5
25c
100
AcDbEntity
  8
newlayer
 62
7
100
AcDbLine
 10
5.752874
 20
209.622727
 30
0.0
 11
-4.447117
 21
209.622727
 31
0.0
  0
LINE
  5
25d
100
AcDbEntity
  8
newlayer
 62
7
100
AcDbLine
 10
-4.447117
 20
209.622727
 30
0.0
 11
-4.447117
 21
221.456062
 31
0.0
  0
LINE
  5
25e
100
AcDbEntity
  8
newlayer
 62
7
100
AcDbLine
 10
-4.447117
 20
221.456062
 30
0.0
 11
-1.447123
 21
221.456062
 31
0.0
  0
LINE
  5
25f
100
AcDbEntity
  8
newlayer
 62
7
100
AcDbLine
 10
-1.447123
 20
221.456062
 30
0.0
 11
-1.447123
 21
231.456062
 31
0.0
  0
LINE
  5
260
100
AcDbEntity
  8
newlayer
 62
7
100
AcDbLine
 10
-1.447123
 20
231.456062
 30
0.0
 11
-4.447117
 21
231.456062
 31
0.0
  0
LINE
  5
261
100
AcDbEntity
  8
newlayer
 62
7
100
AcDbLine
 10
-4.447117
 20
231.456062
 30
0.0
 11
-4.447117
 21
243.289394
 31
0.0
  0
LINE
  5
262
100
AcDbEntity
  8
newlayer
 62
7
100
AcDbLine
 10
-4.447117
 20
243.289394
 30
0.0
 11
-1.447123
 21
243.289394
 31
0.0
  0
LINE
  5
263
100
AcDbEntity
  8
newlayer
 62
7
100
AcDbLine
 10
-1.447123
 20
243.289394
 30
0.0
 11
-1.447123
 21
253.289394
 31
0.0
  0
LINE
  5
264
100
AcDbEntity
  8
newlayer
 62
7
100
AcDbLine
 10
-1.447123
 20
253.289394
 30
0.0
 11
-4.447117
 21
253.289394
 31
0.0
  0
LINE
  5
265
100
AcDbEntity
  8
newlayer
 62
7
100
AcDbLine
 10
-4.447117
 20
253.289394
 30
0.0
 11
-4.447117
 21
265.122729
 31
0.0
  0
LINE
  5
266
100
AcDbEntity
  8
newlayer
 62
7
100
AcDbLine
 10
-4.447117
 20
265.122729
 30
0.0
 11
-1.447123
 21
265.122729
 31
0.0
  0
LINE
  5
267
100
AcDbEntity
  8
newlayer
 62
7
100
AcDbLine
 10
-1.447123
 20
265.122729
 30
0.0
 11
-1.447123
 21
275.122729
 31
0.0
  0
LINE
  5
268
100
AcDbEntity
  8
newlayer
 62
7
100
AcDbLine
 10
-1.447123
 20
275.122729
 30
0.0
 11
-4.447117
 21
275.122729
 31
0.0
  0
LINE
  5
269
100
AcDbEntity
  8
newlayer
 62
7
100
AcDbLine
 10
-4.447117
 20
275.122729
 30
0.0
 11
-4.447117
 21
286.956061
 31
0.0
  0
LINE
  5
26a
100
AcDbEntity
  8
newlayer
 62
7
100
AcDbLine
 10
-4.447117
 20
286.956061
 30
0.0
 11
-1.447123
 21
286.956061
 31
0.0
  0
LINE
  5
26b
100
AcDbEntity
  8
newlayer
 62
7
100
AcDbLine
 10
-1.447123
 20
286.956061
 30
0.0
 11
-1.447123
 21
296.956061
 31
0.0
  0
LINE
  5
26c
100
AcDbEntity
  8
newlayer
 62
7
100
AcDbLine
 10
-1.447123
 20
296.956061
 30
0.0
 11
-4.447117
 21
296.956061
 31
0.0
  0
LINE
  5
26d
100
AcDbEntity
  8
newlayer
 62
7
100
AcDbLine
 10
-4.447117
 20
296.956061
 30
0.0
 11
-4.447117
 21
308.789394
 31
0.0
  0
LINE
  5
26e
100
AcDbEntity
  8
newlayer
 62
7
100
AcDbLine
 10
-4.447117
 20
308.789394
 30
0.0
 11
-1.447123
 21
308.789394
 31
0.0
  0
LINE
  5
26f
100
AcDbEntity
  8
newlayer
 62
7
100
AcDbLine
 10
-1.447123
 20
308.789394
 30
0.0
 11
-1.447123
 21
318.789395
 31
0.0
  0
LINE
  5
270
100
AcDbEntity
  8
newlayer
 62
7
100
AcDbLine
 10
-1.447123
 20
318.789395
 30
0.0
 11
-4.447117
 21
318.789395
 31
0.0
  0
LINE
  5
271
100
AcDbEntity
  8
newlayer
 62
7
100
AcDbLine
 10
-4.447117
 20
318.789395
 30
0.0
 11
-4.447117
 21
330.622728
 31
0.0
  0
LINE
  5
272
100
AcDbEntity
  8
newlayer
 62
7
100
AcDbLine
 10
-4.447117
 20
330.622728
 30
0.0
 11
5.752874
 21
330.622728
 31
0.0
  0
LINE
  5
273
100
AcDbEntity
  8
newlayer
 62
7
100
AcDbLine
 10
5.752874
 20
330.622728
 30
0.0
 11
5.752874
 21
327.622728
 31
0.0
  0
LINE
  5
274
100
AcDbEntity
  8
newlayer
 62
7
100
AcDbLine
 10
5.752874
 20
327.622728
 30
0.0
 11
15.752882
 21
327.622728
 31
0.0
  0
LINE
  5
275
100
AcDbEntity
  8
newlayer
 62
7
100
AcDbLine
 10
15.752882
 20
327.622728
 30
0.0
 11
15.752882
 21
330.622728
 31
0.0
  0
LINE
  5
276
100
AcDbEntity
  8
newlayer
 62
7
100
AcDbLine
 10
15.752882
 20
330.622728
 30
0.0
 11
25.952873
 21
330.622728
 31
0.0
  0
LINE
  5
277
100
AcDbEntity
  8
newlayer
 62
7
100
AcDbLine
 10
25.952873
 20
330.622728
 30
0.0
 11
25.952873
 21
327.622728
 31
0.0
  0
LINE
  5
278
100
AcDbEntity
  8
newlayer
 62
7
100
AcDbLine
 10
25.952873
 20
327.622728
 30
0.0
 11
35.952882
 21
327.622728
 31
0.0
  0
LINE
  5
279
100
AcDbEntity
  8
newlayer
 62
7
100
AcDbLine
 10
35.952882
 20
327.622728
 30
0.0
 11
35.952882
 21
330.622728
 31
0.0
  0
LINE
  5
27a
100
AcDbEntity
  8
newlayer
 62
7
100
AcDbLine
 10
35.952882
 20
330.622728
 30
0.0
 11
46.152872
 21
330.622728
 31
0.0
  0
LINE
  5
27b
100
AcDbEntity
  8
newlayer
 62
7
100
AcDbLine
 10
46.152872
 20
330.622728
 30
0.0
 11
46.152872
 21
327.622728
 31
0.0
  0
LINE
  5
27c
100
AcDbEntity
  8
newlayer
 62
7
100
AcDbLine
 10
46.152872
 20
327.622728
 30
0.0
 11
56.152881
 21
327.622728
 31
0.0
  0
LINE
  5
27d
100
AcDbEntity
  8
newlayer
 62
7
100
AcDbLine
 10
56.152881
 20
327.622728
 30
0.0
 11
56.152881
 21
330.622728
 31
0.0
  0
LINE
  5
27e
100
AcDbEntity
  8
newlayer
 62
7
100
AcDbLine
 10
56.152881
 20
330.622728
 30
0.0
 11
66.352872
 21
330.622728
 31
0.0
  0
LINE
  5
27f
100
AcDbEntity
  8
newlayer
 62
7
100
AcDbLine
 10
66.352872
 20
330.622728
 30
0.0
 11
66.352872
 21
327.622728
 31
0.0
  0
LINE
  5
280
100
AcDbEntity
  8
newlayer
 62
7
100
AcDbLine
 10
66.352872
 20
327.622728
 30
0.0
 11
76.352880
 21
327.622728
 31
0.0
  0
LINE
  5
281
100
AcDbEntity
  8
newlayer
 62
7
100
AcDbLine
 10
76.352880
 20
327.622728
 30
0.0
 11
76.352880
 21
330.622728
 31
0.0
  0
LINE
  5
282
100
AcDbEntity
  8
newlayer
 62
7
100
AcDbLine
 10
76.352880
 20
330.622728
 30
0.0
 11
86.552876
 21
330.622728
 31
0.0
  0
LINE
  5
283
100
AcDbEntity
  8
newlayer
 62
1
100
AcDbLine
 10
35.412818
 20
252.621642
 30
0.0
 11
16.877197
 21
252.621642
 31
0.0
  0
LINE
  5
284
100
AcDbEntity
  8
newlayer
 62
1
100
AcDbLine
 10
16.877197
 20
252.621642
 30
0.0
 11
16.877197
 21
254.125887
 31
0.0
  0
SPLINE
  5
285
100
AcDbEntity
  8
newlayer
 62
7
100
AcDbSpline
 70
0
 71
3
 72
28
 73
24
 74
22
 40
0.000000
 40
0.000000
 40
0.000000
 40
0.000000
 40
0.756361
 40
1.490288
 40
2.246649
 40
2.625329
 40
3.000876
 40
3.379556
 40
3.758237
 40
4.133783
 40
4.512464
 40
4.891145
 40
5.266692
 40
5.645373
 40
6.024054
 40
6.399601
 40
6.778282
 40
7.156962
 40
7.532509
 40
7.911189
 40
8.289869
 40
8.665416
 40
9.044096
 40
9.044096
 40
9.044096
 40
9.044096
 10
77.744774
 20
35.749612
 30
0.0
 10
77.704969
 20
35.494620
 30
0.0
 10
77.626540
 20
34.992199
 30
0.0
 10
77.051297
 20
34.438786
 30
0.0
 10
76.424180
 20
34.269093
 30
0.0
 10
75.919519
 20
34.336414
 30
0.0
 10
75.566613
 20
34.482436
 30
0.0
 10
75.263482
 20
34.714911
 30
0.0
 10
75.031037
 20
35.018049
 30
0.0
 10
74.884885
 20
35.370895
 30
0.0
 10
74.834887
 20
35.749612
 30
0.0
 10
74.884884
 20
36.128331
 30
0.0
 10
75.031037
 20
36.481175
 30
0.0
 10
75.263477
 20
36.784323
 30
0.0
 10
75.566625
 20
37.016764
 30
0.0
 10
75.919471
 20
37.162916
 30
0.0
 10
76.298182
 20
37.212914
 30
0.0
 10
76.676929
 20
37.162916
 30
0.0
 10
77.029664
 20
37.016763
 30
0.0
 10
77.333218
 20
36.784322
 30
0.0
 10
77.564142
 20
36.481174
 30
0.0
 10
77.715925
 20
36.128330
 30
0.0
 10
77.735131
 20
35.876201
 30
0.0
 10
77.744774
 20
35.749612
 30
0.0
 11
77.744774
 21
35.749612
 31
0.0
 11
77.547273
 21
35.019493
 31
0.0
 11
77.028308
 21
34.500528
 31
0.0
 11
76.298188
 21
34.303026
 31
0.0
 11
75.922765
 21
34.352586
 31
0.0
 11
75.575805
 21
34.496301
 31
0.0
 11
75.275295
 21
34.726721
 31
0.0
 11
75.044876
 21
35.027229
 31
0.0
 11
74.901160
 21
35.374189
 31
0.0
 11
74.851599
 21
35.749612
 31
0.0
 11
74.901159
 21
36.125036
 31
0.0
 11
75.044875
 21
36.471996
 31
0.0
 11
75.275294
 21
36.772506
 31
0.0
 11
75.575804
 21
37.002926
 31
0.0
 11
75.922764
 21
37.146641
 31
0.0
 11
76.298188
 21
37.196202
 31
0.0
 11
76.673611
 21
37.146640
 31
0.0
 11
77.020571
 21
37.002925
 31
0.0
 11
77.321080
 21
36.772505
 31
0.0
 11
77.551499
 21
36.471996
 31
0.0
 11
77.695214
 21
36.125036
 31
0.0
 11
77.744774
 21
35.749612
 31
0.0
  0
LINE
  5
286
100
AcDbEntity
  8
newlayer
 62
1
100
AcDbLine
 10
14.721216
 20
256.582462
 30
0.0
 11
8.596740
 21
256.582462
 31
0.0
  0
LINE
  5
287
100
AcDbEntity
  8
newlayer
 62
1
100
AcDbLine
 10
8.596740
 20
256.582462
 30
0.0
 11
8.596740
 21
256.701447
 31
0.0
  0
LINE
  5
288
100
AcDbEntity
  8
newlayer
 62
1
100
AcDbLine
 10
8.596740
 20
256.701447
 30
0.0
 11
1.537375
 21
267.815471
 31
0.0
  0
LINE
  5
289
100
AcDbEntity
  8
newlayer
 62
1
100
AcDbLine
 10
1.537375
 20
267.815471
 30
0.0
 11
8.596740
 21
278.929353
 31
0.0
  0
LINE
  5
28a
100
AcDbEntity
  8
newlayer
 62
1
100
AcDbLine
 10
8.596740
 20
278.929353
 30
0.0
 11
8.596740
 21
279.091716
 31
0.0
  0
LINE
  5
28b
100
AcDbEntity
  8
newlayer
 62
1
100
AcDbLine
 10
8.596740
 20
279.091716
 30
0.0
 11
20.273346
 21
279.091716
 31
0.0
  0
SPLINE
  5
28c
100
AcDbEntity
  8
newlayer
 62
1
100
AcDbSpline
 70
0
 71
3
 72
10
 73
6
 74
4
 40
0.000000
 40
0.000000
 40
0.000000
 40
0.000000
 40
1.275163
 40
2.446124
 40
3.587933
 40
3.587933
 40
3.587933
 40
3.587933
 10
16.877197
 20
254.125887
 30
0.0
 10
16.821452
 20
254.551987
 30
0.0
 10
16.714517
 20
255.369368
 30
0.0
 10
15.880893
 20
256.367681
 30
0.0
 10
15.104513
 20
256.511472
 30
0.0
 10
14.721216
 20
256.582462
 30
0.0
 11
16.877197
 21
254.125887
 31
0.0
 11
16.584575
 21
255.367020
 31
0.0
 11
15.812847
 21
256.247694
 31
0.0
 11
14.721216
 21
256.582462
 31
0.0
  0
LINE
  5
28d
100
AcDbEntity
  8
newlayer
 62
1
100
AcDbLine
 10
35.412818
 20
261.917562
 30
0.0
 11
35.412818
 21
252.621642
 31
0.0
  0
LINE
  5
28e
100
AcDbEntity
  8
newlayer
 62
1
100
AcDbLine
 10
35.412818
 20
252.621642
 30
0.0
 11
35.412818
 21
252.621642
 31
0.0
  0
LINE
  5
28f
100
AcDbEntity
  8
newlayer
 62
1
100
AcDbLine
 10
46.692930
 20
252.540955
 30
0.0
 11
65.228524
 21
252.540955
 31
0.0
  0
LINE
  5
290
100
AcDbEntity
  8
newlayer
 62
1
100
AcDbLine
 10
65.228524
 20
252.540955
 30
0.0
 11
65.228524
 21
254.045171
 31
0.0
  0
SPLINE
  5
291
100
AcDbEntity
  8
newlayer
 62
1
100
AcDbSpline
 70
0
 71
3
 72
10
 73
6
 74
4
 40
0.000000
 40
0.000000
 40
0.000000
 40
0.000000
 40
8.002718
 40
16.206699
 40
25.130174
 40
25.130174
 40
25.130174
 40
25.130174
 10
20.273346
 20
279.091716
 30
0.0
 10
22.959214
 20
278.596197
 30
0.0
 10
28.398499
 20
277.592698
 30
0.0
 10
34.263884
 20
270.623888
 30
0.0
 10
35.019263
 20
264.899824
 30
0.0
 10
35.412818
 20
261.917562
 30
0.0
 11
20.273346
 21
279.091716
 31
0.0
 11
27.927014
 21
276.754012
 31
0.0
 11
33.352080
 21
270.599829
 31
0.0
 11
35.412818
 21
261.917562
 31
0.0
  0
LINE
  5
292
100
AcDbEntity
  8
newlayer
 62
1
100
AcDbLine
 10
67.384504
 20
256.501774
 30
0.0
 11
73.509008
 21
256.501774
 31
0.0
  0
LINE
  5
293
100
AcDbEntity
  8
newlayer
 62
1
100
AcDbLine
 10
73.509008
 20
256.501774
 30
0.0
 11
73.509008
 21
256.620731
 31
0.0
  0
LINE
  5
294
100
AcDbEntity
  8
newlayer
 62
1
100
AcDbLine
 10
73.509008
 20
256.620731
 30
0.0
 11
80.568385
 21
267.734755
 31
0.0
  0
LINE
  5
295
100
AcDbEntity
  8
newlayer
 62
1
100
AcDbLine
 10
80.568385
 20
267.734755
 30
0.0
 11
73.509008
 21
278.848694
 31
0.0
  0
LINE
  5
296
100
AcDbEntity
  8
newlayer
 62
1
100
AcDbLine
 10
73.509008
 20
278.848694
 30
0.0
 11
73.509008
 21
279.011057
 31
0.0
  0
LINE
  5
297
100
AcDbEntity
  8
newlayer
 62
1
100
AcDbLine
 10
73.509008
 20
279.011057
 30
0.0
 11
61.832403
 21
279.011057
 31
0.0
  0
SPLINE
  5
298
100
AcDbEntity
  8
newlayer
 62
1
100
AcDbSpline
 70
0
 71
3
 72
10
 73
6
 74
4
 40
0.000000
 40
0.000000
 40
0.000000
 40
0.000000
 40
1.275172
 40
2.446147
 40
3.587946
 40
3.587946
 40
3.587946
 40
3.587946
 10
65.228524
 20
254.045171
 30
0.0
 10
65.284271
 20
254.471273
 30
0.0
 10
65.391211
 20
255.288661
 30
0.0
 10
66.224832
 20
256.286981
 30
0.0
 10
67.001211
 20
256.430781
 30
0.0
 10
67.384504
 20
256.501774
 30
0.0
 11
65.228524
 21
254.045171
 31
0.0
 11
65.521151
 21
255.286312
 31
0.0
 11
66.292886
 21
256.166999
 31
0.0
 11
67.384504
 21
256.501774
 31
0.0
  0
LINE
  5
299
100
AcDbEntity
  8
newlayer
 62
1
100
AcDbLine
 10
46.692930
 20
261.836875
 30
0.0
 11
46.692930
 21
252.540955
 31
0.0
  0
LINE
  5
29a
100
AcDbEntity
  8
newlayer
 62
1
100
AcDbLine
 10
46.692930
 20
252.540955
 30
0.0
 11
46.692930
 21
252.540955
 31
0.0
  0
LINE
  5
29b
100
AcDbEntity
  8
newlayer
 62
1
100
AcDbLine
 10
56.147295
 20
281.988288
 30
0.0
 11
25.958465
 21
281.988288
 31
0.0
  0
LINE
  5
29c
100
AcDbEntity
  8
newlayer
 62
1
100
AcDbLine
 10
25.958465
 20
281.988288
 30
0.0
 11
25.958465
 21
300.255658
 31
0.0
  0
LINE
  5
29d
100
AcDbEntity
  8
newlayer
 62
1
100
AcDbLine
 10
25.958465
 20
300.255658
 30
0.0
 11
41.048068
 21
313.910472
 31
0.0
  0
LINE
  5
29e
100
AcDbEntity
  8
newlayer
 62
1
100
AcDbLine
 10
41.048068
 20
313.910472
 30
0.0
 11
56.147295
 21
300.255658
 31
0.0
  0
LINE
  5
29f
100
AcDbEntity
  8
newlayer
 62
1
100
AcDbLine
 10
56.147295
 20
300.255658
 30
0.0
 11
56.147295
 21
281.988288
 31
0.0
  0
LINE
  5
2a0
100
AcDbEntity
  8
newlayer
 62
1
100
AcDbLine
 10
56.147295
 20
281.988288
 30
0.0
 11
56.147295
 21
281.988288
 31
0.0
  0
LINE
  5
2a1
100
AcDbEntity
  8
newlayer
 62
5
100
AcDbLine
 10
83.553653
 20
314.432105
 30
0.0
 11
83.553653
 21
299.031938
 31
0.0
  0
LINE
  5
2a2
100
AcDbEntity
  8
newlayer
 62
5
100
AcDbLine
 10
83.553653
 20
299.031938
 30
0.0
 11
-1.447885
 21
299.031938
 31
0.0
  0
LINE
  5
2a3
100
AcDbEntity
  8
newlayer
 62
5
100
AcDbLine
 10
-1.447885
 20
299.031938
 30
0.0
 11
-1.447885
 21
314.432105
 31
0.0
  0
LINE
  5
2a4
100
AcDbEntity
  8
newlayer
 62
5
100
AcDbLine
 10
-1.447885
 20
314.432105
 30
0.0
 11
83.553653
 21
314.432105
 31
0.0
  0
SPLINE
  5
2a5
100
AcDbEntity
  8
newlayer
 62
1
100
AcDbSpline
 70
0
 71
3
 72
10
 73
6
 74
4
 40
0.000000
 40
0.000000
 40
0.000000
 40
0.000000
 40
8.002720
 40
16.206711
 40
25.130193
 40
25.130193
 40
25.130193
 40
25.130193
 10
61.832403
 20
279.011057
 30
0.0
 10
59.146534
 20
278.515536
 30
0.0
 10
53.707245
 20
277.512031
 30
0.0
 10
47.841866
 20
270.543208
 30
0.0
 10
47.086486
 20
264.819138
 30
0.0
 10
46.692930
 20
261.836875
 30
0.0
 11
61.832403
 21
279.011057
 31
0.0
 11
54.178734
 21
276.673345
 31
0.0
 11
48.753669
 21
270.519149
 31
0.0
 11
46.692930
 21
261.836875
 31
0.0
  0
LINE
  5
2a6
100
AcDbEntity
  8
newlayer
 62
7
100
AcDbLine
 10
76.149793
 20
321.621727
 30
0.0
 11
76.149793
 21
321.621727
 31
0.0
  0
SPLINE
  5
2a7
100
AcDbEntity
  8
newlayer
 62
7
100
AcDbSpline
 70
0
 71
3
 72
25
 73
21
 74
19
 40
0.000000
 40
0.000000
 40
0.000000
 40
0.000000
 40
0.756361
 40
1.490288
 40
2.246649
 40
2.625329
 40
3.000876
 40
3.379556
 40
3.758237
 40
4.133783
 40
4.512464
 40
4.891144
 40
5.266691
 40
5.645371
 40
6.024052
 40
6.399598
 40
6.778279
 40
7.534640
 40
8.268567
 40
9.024928
 40
9.024928
 40
9.024928
 40
9.024928
 10
76.149793
 20
321.621727
 30
0.0
 10
75.894801
 20
321.581922
 30
0.0
 10
75.392380
 20
321.503493
 30
0.0
 10
74.838966
 20
320.928250
 30
0.0
 10
74.669273
 20
320.301133
 30
0.0
 10
74.736595
 20
319.796472
 30
0.0
 10
74.882616
 20
319.443565
 30
0.0
 10
75.115091
 20
319.140434
 30
0.0
 10
75.418229
 20
318.907989
 30
0.0
 10
75.771075
 20
318.761838
 30
0.0
 10
76.149793
 20
318.711839
 30
0.0
 10
76.528510
 20
318.761838
 30
0.0
 10
76.881356
 20
318.907989
 30
0.0
 10
77.184494
 20
319.140434
 30
0.0
 10
77.416969
 20
319.443565
 30
0.0
 10
77.562991
 20
319.796472
 30
0.0
 10
77.630312
 20
320.301133
 30
0.0
 10
77.460619
 20
320.928250
 30
0.0
 10
76.907206
 20
321.503493
 30
0.0
 10
76.404785
 20
321.581922
 30
0.0
 10
76.149793
 20
321.621727
 30
0.0
 11
76.149793
 21
321.621727
 31
0.0
 11
75.419673
 21
321.424225
 31
0.0
 11
74.900708
 21
320.905260
 31
0.0
 11
74.703206
 21
320.175141
 31
0.0
 11
74.752767
 21
319.799717
 31
0.0
 11
74.896482
 21
319.452757
 31
0.0
 11
75.126901
 21
319.152248
 31
0.0
 11
75.427410
 21
318.921828
 31
0.0
 11
75.774370
 21
318.778113
 31
0.0
 11
76.149793
 21
318.728551
 31
0.0
 11
76.525216
 21
318.778113
 31
0.0
 11
76.872176
 21
318.921828
 31
0.0
 11
77.172684
 21
319.152248
 31
0.0
 11
77.403104
 21
319.452757
 31
0.0
 11
77.546819
 21
319.799717
 31
0.0
 11
77.596379
 21
320.175141
 31
0.0
 11
77.398877
 21
320.905260
 31
0.0
 11
76.879912
 21
321.424225
 31
0.0
 11
76.149793
 21
321.621727
 31
0.0
  0
LINE
  5
2a8
100
AcDbEntity
  8
newlayer
 62
7
100
AcDbLine
 10
5.955933
 20
321.621727
 30
0.0
 11
5.955933
 21
321.621727
 31
0.0
  0
LINE
  5
2a9
100
AcDbEntity
  8
newlayer
 62
5
100
AcDbLine
 10
83.553656
 20
212.813757
 30
0.0
 11
83.553656
 21
228.213924
 31
0.0
  0
LINE
  5
2aa
100
AcDbEntity
  8
newlayer
 62
5
100
AcDbLine
 10
83.553656
 20
228.213924
 30
0.0
 11
-1.447885
 21
228.213924
 31
0.0
  0
LINE
  5
2ab
100
AcDbEntity
  8
newlayer
 62
5
100
AcDbLine
 10
-1.447885
 20
228.213924
 30
0.0
 11
-1.447885
 21
212.813757
 31
0.0
  0
LINE
  5
2ac
100
AcDbEntity
  8
newlayer
 62
5
100
AcDbLine
 10
-1.447885
 20
212.813757
 30
0.0
 11
83.553656
 21
212.813757
 31
0.0
  0
SPLINE
  5
2ad
100
AcDbEntity
  8
newlayer
 62
7
100
AcDbSpline
 70
0
 71
3
 72
25
 73
21
 74
19
 40
0.000000
 40
0.000000
 40
0.000000
 40
0.000000
 40
0.756361
 40
1.490288
 40
2.246649
 40
2.625329
 40
3.000876
 40
3.379556
 40
3.758237
 40
4.133783
 40
4.512464
 40
4.891144
 40
5.266691
 40
5.645371
 40
6.024052
 40
6.399598
 40
6.778279
 40
7.534640
 40
8.268567
 40
9.024928
 40
9.024928
 40
9.024928
 40
9.024928
 10
5.955933
 20
321.621727
 30
0.0
 10
5.700941
 20
321.581922
 30
0.0
 10
5.198520
 20
321.503493
 30
0.0
 10
4.645106
 20
320.928250
 30
0.0
 10
4.475413
 20
320.301133
 30
0.0
 10
4.542735
 20
319.796472
 30
0.0
 10
4.688756
 20
319.443565
 30
0.0
 10
4.921232
 20
319.140434
 30
0.0
 10
5.224370
 20
318.907989
 30
0.0
 10
5.577216
 20
318.761838
 30
0.0
 10
5.955933
 20
318.711839
 30
0.0
 10
6.334650
 20
318.761838
 30
0.0
 10
6.687497
 20
318.907989
 30
0.0
 10
6.990635
 20
319.140434
 30
0.0
 10
7.223110
 20
319.443565
 30
0.0
 10
7.369131
 20
319.796472
 30
0.0
 10
7.436453
 20
320.301133
 30
0.0
 10
7.266760
 20
320.928250
 30
0.0
 10
6.713346
 20
321.503493
 30
0.0
 10
6.210925
 20
321.581922
 30
0.0
 10
5.955933
 20
321.621727
 30
0.0
 11
5.955933
 21
321.621727
 31
0.0
 11
5.225813
 21
321.424225
 31
0.0
 11
4.706848
 21
320.905260
 31
0.0
 11
4.509347
 21
320.175141
 31
0.0
 11
4.558907
 21
319.799717
 31
0.0
 11
4.702622
 21
319.452757
 31
0.0
 11
4.933041
 21
319.152248
 31
0.0
 11
5.233550
 21
318.921828
 31
0.0
 11
5.580510
 21
318.778113
 31
0.0
 11
5.955933
 21
318.728551
 31
0.0
 11
6.331356
 21
318.778113
 31
0.0
 11
6.678316
 21
318.921828
 31
0.0
 11
6.978825
 21
319.152248
 31
0.0
 11
7.209244
 21
319.452757
 31
0.0
 11
7.352959
 21
319.799717
 31
0.0
 11
7.402520
 21
320.175141
 31
0.0
 11
7.205018
 21
320.905260
 31
0.0
 11
6.686053
 21
321.424225
 31
0.0
 11
5.955933
 21
321.621727
 31
0.0
  0
LINE
  5
2ae
100
AcDbEntity
  8
newlayer
 62
7
100
AcDbLine
 10
76.149793
 20
218.623731
 30
0.0
 11
76.149793
 21
218.623731
 31
0.0
  0
SPLINE
  5
2af
100
AcDbEntity
  8
newlayer
 62
7
100
AcDbSpline
 70
0
 71
3
 72
25
 73
21
 74
19
 40
0.000000
 40
0.000000
 40
0.000000
 40
0.000000
 40
0.756361
 40
1.490288
 40
2.246649
 40
2.625329
 40
3.000876
 40
3.379556
 40
3.758237
 40
4.133783
 40
4.512464
 40
4.891144
 40
5.266691
 40
5.645371
 40
6.024052
 40
6.399598
 40
6.778279
 40
7.534640
 40
8.268567
 40
9.024928
 40
9.024928
 40
9.024928
 40
9.024928
 10
76.149793
 20
218.623731
 30
0.0
 10
75.894801
 20
218.663536
 30
0.0
 10
75.392380
 20
218.741965
 30
0.0
 10
74.838966
 20
219.317208
 30
0.0
 10
74.669273
 20
219.944325
 30
0.0
 10
74.736595
 20
220.448986
 30
0.0
 10
74.882616
 20
220.801892
 30
0.0
 10
75.115091
 20
221.105023
 30
0.0
 10
75.418229
 20
221.337469
 30
0.0
 10
75.771075
 20
221.483620
 30
0.0
 10
76.149793
 20
221.533619
 30
0.0
 10
76.528510
 20
221.483620
 30
0.0
 10
76.881356
 20
221.337469
 30
0.0
 10
77.184494
 20
221.105023
 30
0.0
 10
77.416969
 20
220.801892
 30
0.0
 10
77.562991
 20
220.448986
 30
0.0
 10
77.630312
 20
219.944325
 30
0.0
 10
77.460619
 20
219.317208
 30
0.0
 10
76.907206
 20
218.741965
 30
0.0
 10
76.404785
 20
218.663536
 30
0.0
 10
76.149793
 20
218.623731
 30
0.0
 11
76.149793
 21
218.623731
 31
0.0
 11
75.419673
 21
218.821233
 31
0.0
 11
74.900708
 21
219.340198
 31
0.0
 11
74.703206
 21
220.070317
 31
0.0
 11
74.752767
 21
220.445740
 31
0.0
 11
74.896482
 21
220.792701
 31
0.0
 11
75.126901
 21
221.093210
 31
0.0
 11
75.427410
 21
221.323630
 31
0.0
 11
75.774370
 21
221.467345
 31
0.0
 11
76.149793
 21
221.516907
 31
0.0
 11
76.525216
 21
221.467345
 31
0.0
 11
76.872176
 21
221.323630
 31
0.0
 11
77.172684
 21
221.093210
 31
0.0
 11
77.403104
 21
220.792701
 31
0.0
 11
77.546819
 21
220.445740
 31
0.0
 11
77.596379
 21
220.070317
 31
0.0
 11
77.398877
 21
219.340198
 31
0.0
 11
76.879912
 21
218.821233
 31
0.0
 11
76.149793
 21
218.623731
 31
0.0
  0
LINE
  5
2b0
100
AcDbEntity
  8
newlayer
 62
7
100
AcDbLine
 10
5.955933
 20
218.623731
 30
0.0
 11
5.955933
 21
218.623731
 31
0.0
  0
LINE
  5
2b1
100
AcDbEntity
  8
newlayer
 62
5
100
AcDbLine
 10
9.052882
 20
314.432021
 30
0.0
 11
73.052878
 21
314.432021
 31
0.0
  0
LINE
  5
2b2
100
AcDbEntity
  8
newlayer
 62
5
100
AcDbLine
 10
73.052878
 20
314.432021
 30
0.0
 11
73.052878
 21
244.432008
 31
0.0
  0
LINE
  5
2b3
100
AcDbEntity
  8
newlayer
 62
5
100
AcDbLine
 10
73.052878
 20
244.432008
 30
0.0
 11
9.052882
 21
244.432008
 31
0.0
  0
LINE
  5
2b4
100
AcDbEntity
  8
newlayer
 62
5
100
AcDbLine
 10
9.052882
 20
244.432008
 30
0.0
 11
9.052882
 21
314.432021
 31
0.0
  0
SPLINE
  5
2b5
100
AcDbEntity
  8
newlayer
 62
7
100
AcDbSpline
 70
0
 71
3
 72
25
 73
21
 74
19
 40
0.000000
 40
0.000000
 40
0.000000
 40
0.000000
 40
0.756361
 40
1.490288
 40
2.246649
 40
2.625329
 40
3.000876
 40
3.379556
 40
3.758237
 40
4.133783
 40
4.512464
 40
4.891144
 40
5.266691
 40
5.645371
 40
6.024052
 40
6.399598
 40
6.778279
 40
7.534640
 40
8.268567
 40
9.024928
 40
9.024928
 40
9.024928
 40
9.024928
 10
5.955933
 20
218.623731
 30
0.0
 10
5.700941
 20
218.663536
 30
0.0
 10
5.198520
 20
218.741965
 30
0.0
 10
4.645106
 20
219.317208
 30
0.0
 10
4.475413
 20
219.944325
 30
0.0
 10
4.542735
 20
220.448986
 30
0.0
 10
4.688756
 20
220.801892
 30
0.0
 10
4.921232
 20
221.105023
 30
0.0
 10
5.224370
 20
221.337469
 30
0.0
 10
5.577216
 20
221.483620
 30
0.0
 10
5.955933
 20
221.533619
 30
0.0
 10
6.334650
 20
221.483620
 30
0.0
 10
6.687497
 20
221.337469
 30
0.0
 10
6.990635
 20
221.105023
 30
0.0
 10
7.223110
 20
220.801892
 30
0.0
 10
7.369131
 20
220.448986
 30
0.0
 10
7.436453
 20
219.944325
 30
0.0
 10
7.266760
 20
219.317208
 30
0.0
 10
6.713346
 20
218.741965
 30
0.0
 10
6.210925
 20
218.663536
 30
0.0
 10
5.955933
 20
218.623731
 30
0.0
 11
5.955933
 21
218.623731
 31
0.0
 11
5.225813
 21
218.821233
 31
0.0
 11
4.706848
 21
219.340198
 31
0.0
 11
4.509347
 21
220.070317
 31
0.0
 11
4.558907
 21
220.445740
 31
0.0
 11
4.702622
 21
220.792701
 31
0.0
 11
4.933041
 21
221.093210
 31
0.0
 11
5.233550
 21
221.323630
 31
0.0
 11
5.580510
 21
221.467345
 31
0.0
 11
5.955933
 21
221.516907
 31
0.0
 11
6.331356
 21
221.467345
 31
0.0
 11
6.678316
 21
221.323630
 31
0.0
 11
6.978825
 21
221.093210
 31
0.0
 11
7.209244
 21
220.792701
 31
0.0
 11
7.352959
 21
220.445740
 31
0.0
 11
7.402520
 21
220.070317
 31
0.0
 11
7.205018
 21
219.340198
 31
0.0
 11
6.686053
 21
218.821233
 31
0.0
 11
5.955933
 21
218.623731
 31
0.0
  0
SPLINE
  5
2b6
100
AcDbEntity
  8
newlayer
 62
7
100
AcDbSpline
 70
0
 71
3
 72
10
 73
6
 74
4
 40
0.000000
 40
0.000000
 40
0.000000
 40
0.000000
 40
4.242506
 40
8.485015
 40
12.727525
 40
12.727525
 40
12.727525
 40
12.727525
 10
67.391678
 20
302.242787
 30
0.0
 10
65.977509
 20
302.242787
 30
0.0
 10
63.149171
 20
302.242787
 30
0.0
 10
58.906662
 20
302.242787
 30
0.0
 10
56.078323
 20
302.242787
 30
0.0
 10
54.664153
 20
302.242787
 30
0.0
 11
67.391678
 21
302.242787
 31
0.0
 11
63.149171
 21
302.242787
 31
0.0
 11
58.906663
 21
302.242787
 31
0.0
 11
54.664153
 21
302.242787
 31
0.0
  0
SPLINE
  5
2b7
100
AcDbEntity
  8
newlayer
 62
7
100
AcDbSpline
 70
0
 71
3
 72
10
 73
6
 74
4
 40
0.000000
 40
0.000000
 40
0.000000
 40
0.000000
 40
3.595942
 40
7.191890
 40
10.787832
 40
10.787832
 40
10.787832
 40
10.787832
 10
54.664153
 20
302.242787
 30
0.0
 10
54.664153
 20
303.441434
 30
0.0
 10
54.664153
 20
305.838731
 30
0.0
 10
54.664153
 20
309.434675
 30
0.0
 10
54.664153
 20
311.831971
 30
0.0
 10
54.664153
 20
313.030619
 30
0.0
 11
54.664153
 21
302.242787
 31
0.0
 11
54.664153
 21
305.838729
 31
0.0
 11
54.664153
 21
309.434677
 31
0.0
 11
54.664153
 21
313.030619
 31
0.0
  0
SPLINE
  5
2b8
100
AcDbEntity
  8
newlayer
 62
7
100
AcDbSpline
 70
0
 71
3
 72
10
 73
6
 74
4
 40
0.000000
 40
0.000000
 40
0.000000
 40
0.000000
 40
4.275743
 40
8.551485
 40
12.827226
 40
12.827226
 40
12.827226
 40
12.827226
 10
54.664153
 20
313.030619
 30
0.0
 10
56.089400
 20
313.030619
 30
0.0
 10
58.939895
 20
313.030619
 30
0.0
 10
63.215637
 20
313.030619
 30
0.0
 10
66.066132
 20
313.030619
 30
0.0
 10
67.491379
 20
313.030619
 30
0.0
 11
54.664153
 21
313.030619
 31
0.0
 11
58.939896
 21
313.030619
 31
0.0
 11
63.215638
 21
313.030619
 31
0.0
 11
67.491379
 21
313.030619
 31
0.0
  0
LINE
  5
2b9
100
AcDbEntity
  8
newlayer
 62
7
100
AcDbLine
 10
67.491379
 20
302.242787
 30
0.0
 11
67.391678
 21
302.242787
 31
0.0
  0
LINE
  5
2ba
100
AcDbEntity
  8
newlayer
 62
7
100
AcDbLine
 10
67.391678
 20
302.242787
 30
0.0
 11
67.391678
 21
302.242787
 31
0.0
  0
SPLINE
  5
2bb
100
AcDbEntity
  8
newlayer
 62
7
100
AcDbSpline
 70
0
 71
3
 72
10
 73
6
 74
4
 40
0.000000
 40
0.000000
 40
0.000000
 40
0.000000
 40
3.595942
 40
7.191890
 40
10.787832
 40
10.787832
 40
10.787832
 40
10.787832
 10
67.491379
 20
313.030619
 30
0.0
 10
67.491379
 20
311.831971
 30
0.0
 10
67.491379
 20
309.434675
 30
0.0
 10
67.491379
 20
305.838731
 30
0.0
 10
67.491379
 20
303.441434
 30
0.0
 10
67.491379
 20
302.242787
 30
0.0
 11
67.491379
 21
313.030619
 31
0.0
 11
67.491379
 21
309.434677
 31
0.0
 11
67.491379
 21
305.838729
 31
0.0
 11
67.491379
 21
302.242787
 31
0.0
  0
SPLINE
  5
2bc
100
AcDbEntity
  8
newlayer
 62
7
100
AcDbSpline
 70
0
 71
3
 72
61
 73
57
 74
55
 40
0.000000
 40
0.000000
 40
0.000000
 40
0.000000
 40
0.285569
 40
0.566605
 40
0.843214
 40
1.114107
 40
1.389632
 40
1.667099
 40
1.951534
 40
2.234057
 40
2.515089
 40
2.655615
 40
2.796072
 40
2.936533
 40
3.075831
 40
3.215136
 40
3.354445
 40
3.494904
 40
3.635375
 40
3.775849
 40
3.916326
 40
4.056802
 40
4.197278
 40
4.336573
 40
4.475878
 40
4.615179
 40
4.755645
 40
4.896121
 40
5.036596
 40
5.177070
 40
5.317546
 40
5.458013
 40
5.597326
 40
5.736633
 40
5.875940
 40
6.016399
 40
6.156869
 40
6.297343
 40
6.437820
 40
6.578296
 40
6.718765
 40
6.858068
 40
6.997373
 40
7.136667
 40
7.277118
 40
7.417580
 40
7.558107
 40
7.839121
 40
8.121673
 40
8.406146
 40
8.683626
 40
8.959156
 40
9.230050
 40
9.506648
 40
9.787690
 40
10.073265
 40
10.073265
 40
10.073265
 40
10.073265
 10
167.708106
 20
311.526385
 30
0.0
 10
167.802166
 20
311.511705
 30
0.0
 10
167.988792
 20
311.482577
 30
0.0
 10
168.263185
 20
311.419580
 30
0.0
 10
168.521720
 20
311.317223
 30
0.0
 10
168.749439
 20
311.160410
 30
0.0
 10
168.943050
 20
310.963664
 30
0.0
 10
169.102679
 20
310.733048
 30
0.0
 10
169.222081
 20
310.476618
 30
0.0
 10
169.296407
 20
310.202502
 30
0.0
 10
169.317958
 20
309.967463
 30
0.0
 10
169.309899
 20
309.780091
 30
0.0
 10
169.291493
 20
309.640627
 30
0.0
 10
169.260872
 20
309.503761
 30
0.0
 10
169.218715
 20
309.370406
 30
0.0
 10
169.165358
 20
309.241537
 30
0.0
 10
169.100869
 20
309.117425
 30
0.0
 10
169.025577
 20
308.999087
 30
0.0
 10
168.939995
 20
308.887475
 30
0.0
 10
168.844999
 20
308.783749
 30
0.0
 10
168.741261
 20
308.688761
 30
0.0
 10
168.629644
 20
308.603174
 30
0.0
 10
168.511316
 20
308.527862
 30
0.0
 10
168.387213
 20
308.463353
 30
0.0
 10
168.258354
 20
308.409982
 30
0.0
 10
168.124990
 20
308.367829
 30
0.0
 10
167.988065
 20
308.337421
 30
0.0
 10
167.848625
 20
308.319013
 30
0.0
 10
167.708106
 20
308.312830
 30
0.0
 10
167.567587
 20
308.319012
 30
0.0
 10
167.428146
 20
308.337415
 30
0.0
 10
167.291218
 20
308.367833
 30
0.0
 10
167.157847
 20
308.409978
 30
0.0
 10
167.028983
 20
308.463358
 30
0.0
 10
166.904873
 20
308.527852
 30
0.0
 10
166.786558
 20
308.603178
 30
0.0
 10
166.674949
 20
308.688762
 30
0.0
 10
166.571212
 20
308.783746
 30
0.0
 10
166.476215
 20
308.887476
 30
0.0
 10
166.390630
 20
308.999091
 30
0.0
 10
166.315309
 20
309.117415
 30
0.0
 10
166.250843
 20
309.241541
 30
0.0
 10
166.197482
 20
309.370404
 30
0.0
 10
166.155326
 20
309.503757
 30
0.0
 10
166.124787
 20
309.640636
 30
0.0
 10
166.106303
 20
309.780088
 30
0.0
 10
166.098251
 20
309.967453
 30
0.0
 10
166.119464
 20
310.202533
 30
0.0
 10
166.194041
 20
310.476620
 30
0.0
 10
166.313508
 20
310.733032
 30
0.0
 10
166.473152
 20
310.963662
 30
0.0
 10
166.666771
 20
311.160409
 30
0.0
 10
166.894488
 20
311.317220
 30
0.0
 10
167.153019
 20
311.419584
 30
0.0
 10
167.427414
 20
311.482576
 30
0.0
 10
167.614044
 20
311.511704
 30
0.0
 10
167.708106
 20
311.526385
 30
0.0
 11
167.708106
 21
311.526385
 31
0.0
 11
167.989715
 21
311.478990
 31
0.0
 11
168.262731
 21
311.412334
 31
0.0
 11
168.518563
 21
311.307155
 31
0.0
 11
168.742559
 21
311.154810
 31
0.0
 11
168.936501
 21
310.959106
 31
0.0
 11
169.094607
 21
310.731091
 31
0.0
 11
169.214681
 21
310.473243
 31
0.0
 11
169.288458
 21
310.200523
 31
0.0
 11
169.313837
 21
309.920639
 31
0.0
 11
169.307837
 21
309.780242
 31
0.0
 11
169.289443
 21
309.640994
 31
0.0
 11
169.258832
 21
309.503910
 31
0.0
 11
169.216830
 21
309.371095
 31
0.0
 11
169.163533
 21
309.242388
 31
0.0
 11
169.099292
 21
309.118775
 31
0.0
 11
169.023899
 21
309.000266
 31
0.0
 11
168.938428
 21
308.888791
 31
0.0
 11
168.843542
 21
308.785206
 31
0.0
 11
168.739948
 21
308.690328
 31
0.0
 11
168.628470
 21
308.604851
 31
0.0
 11
168.509956
 21
308.529433
 31
0.0
 11
168.386365
 21
308.465181
 31
0.0
 11
168.257664
 21
308.411871
 31
0.0
 11
168.124835
 21
308.369904
 31
0.0
 11
167.987713
 21
308.339436
 31
0.0
 11
167.848446
 21
308.321051
 31
0.0
 11
167.708106
 21
308.314891
 31
0.0
 11
167.567766
 21
308.321049
 31
0.0
 11
167.428499
 21
308.339432
 31
0.0
 11
167.291377
 21
308.369904
 31
0.0
 11
167.158535
 21
308.411871
 31
0.0
 11
167.029832
 21
308.465181
 31
0.0
 11
166.906228
 21
308.529433
 31
0.0
 11
166.787733
 21
308.604851
 31
0.0
 11
166.676263
 21
308.690327
 31
0.0
 11
166.572669
 21
308.785203
 31
0.0
 11
166.477783
 21
308.888790
 31
0.0
 11
166.392304
 21
309.000266
 31
0.0
 11
166.316891
 21
309.118775
 31
0.0
 11
166.252664
 21
309.242388
 31
0.0
 11
166.199368
 21
309.371095
 31
0.0
 11
166.157379
 21
309.503910
 31
0.0
 11
166.126812
 21
309.640994
 31
0.0
 11
166.108379
 21
309.780242
 31
0.0
 11
166.102346
 21
309.920639
 31
0.0
 11
166.127518
 21
310.200523
 31
0.0
 11
166.201408
 21
310.473243
 31
0.0
 11
166.321576
 21
310.731088
 31
0.0
 11
166.479702
 21
310.959105
 31
0.0
 11
166.673652
 21
311.154810
 31
0.0
 11
166.897648
 21
311.307155
 31
0.0
 11
167.153468
 21
311.412334
 31
0.0
 11
167.426491
 21
311.478990
 31
0.0
 11
167.708106
 21
311.526385
 31
0.0
  0
SPLINE
  5
2bd
100
AcDbEntity
  8
newlayer
 62
7
100
AcDbSpline
 70
0
 71
3
 72
61
 73
57
 74
55
 40
0.000000
 40
0.000000
 40
0.000000
 40
0.000000
 40
0.140814
 40
0.281073
 40
0.420793
 40
0.559682
 40
0.699166
 40
0.838922
 40
0.979595
 40
1.119995
 40
1.260281
 40
1.400681
 40
1.541184
 40
1.681715
 40
1.821065
 40
1.960376
 40
2.099623
 40
2.239967
 40
2.380384
 40
2.521060
 40
2.803017
 40
3.086112
 40
3.369220
 40
3.643537
 40
3.917753
 40
4.191904
 40
4.474543
 40
4.757380
 40
5.040129
 40
5.322859
 40
5.605688
 40
5.888326
 40
6.162477
 40
6.436693
 40
6.711010
 40
6.994071
 40
7.277136
 40
7.559113
 40
7.699790
 40
7.840212
 40
7.980542
 40
8.119789
 40
8.259100
 40
8.398450
 40
8.538981
 40
8.679479
 40
8.819865
 40
8.960166
 40
9.100572
 40
9.241246
 40
9.381001
 40
9.520478
 40
9.659349
 40
9.799088
 40
9.939346
 40
10.080141
 40
10.080141
 40
10.080141
 40
10.080141
 10
139.766469
 20
311.525490
 30
0.0
 10
139.813273
 20
311.521926
 30
0.0
 10
139.906696
 20
311.514812
 30
0.0
 10
140.046130
 20
311.499037
 30
0.0
 10
140.183541
 20
311.473057
 30
0.0
 10
140.317026
 20
311.432037
 30
0.0
 10
140.445721
 20
311.378010
 30
0.0
 10
140.569577
 20
311.312448
 30
0.0
 10
140.687904
 20
311.236814
 30
0.0
 10
140.799598
 20
311.151374
 30
0.0
 10
140.903404
 20
311.056628
 30
0.0
 10
140.998400
 20
310.952999
 30
0.0
 10
141.083972
 20
310.841366
 30
0.0
 10
141.159257
 20
310.722965
 30
0.0
 10
141.223726
 20
310.598798
 30
0.0
 10
141.277085
 20
310.469935
 30
0.0
 10
141.319281
 20
310.336647
 30
0.0
 10
141.349796
 20
310.199829
 30
0.0
 10
141.368284
 20
310.060378
 30
0.0
 10
141.376321
 20
309.872663
 30
0.0
 10
141.355116
 20
309.637043
 30
0.0
 10
141.280842
 20
309.362840
 30
0.0
 10
141.161653
 20
309.107644
 30
0.0
 10
141.000876
 20
308.880100
 30
0.0
 10
140.805981
 20
308.685332
 30
0.0
 10
140.578633
 20
308.524686
 30
0.0
 10
140.323867
 20
308.405288
 30
0.0
 10
140.049595
 20
308.331056
 30
0.0
 10
139.766476
 20
308.305467
 30
0.0
 10
139.483359
 20
308.331057
 30
0.0
 10
139.209096
 20
308.405289
 30
0.0
 10
138.954333
 20
308.524687
 30
0.0
 10
138.726984
 20
308.685331
 30
0.0
 10
138.532094
 20
308.880103
 30
0.0
 10
138.371305
 20
309.107619
 30
0.0
 10
138.252206
 20
309.362849
 30
0.0
 10
138.178198
 20
309.637074
 30
0.0
 10
138.156588
 20
309.872652
 30
0.0
 10
138.164716
 20
310.060382
 30
0.0
 10
138.183260
 20
310.199817
 30
0.0
 10
138.213663
 20
310.336656
 30
0.0
 10
138.255888
 20
310.469933
 30
0.0
 10
138.309239
 20
310.598799
 30
0.0
 10
138.373710
 20
310.722965
 30
0.0
 10
138.448992
 20
310.841365
 30
0.0
 10
138.534560
 20
310.952993
 30
0.0
 10
138.629534
 20
311.056641
 30
0.0
 10
138.733361
 20
311.151369
 30
0.0
 10
138.845059
 20
311.236813
 30
0.0
 10
138.963388
 20
311.312448
 30
0.0
 10
139.087243
 20
311.378009
 30
0.0
 10
139.215929
 20
311.432035
 30
0.0
 10
139.349408
 20
311.473061
 30
0.0
 10
139.486821
 20
311.499040
 30
0.0
 10
139.626255
 20
311.514808
 30
0.0
 10
139.719671
 20
311.521925
 30
0.0
 10
139.766469
 20
311.525490
 30
0.0
 11
139.766469
 21
311.525490
 31
0.0
 11
139.906809
 21
311.513939
 31
0.0
 11
140.046076
 21
311.497293
 31
0.0
 11
140.183198
 21
311.470477
 31
0.0
 11
140.316040
 21
311.429940
 31
0.0
 11
140.444743
 21
311.376169
 31
0.0
 11
140.568347
 21
311.310948
 31
0.0
 11
140.686848
 21
311.235142
 31
0.0
 11
140.798325
 21
311.149790
 31
0.0
 11
140.901905
 21
311.055178
 31
0.0
 11
140.996798
 21
310.951702
 31
0.0
 11
141.082283
 21
310.840196
 31
0.0
 11
141.157683
 21
310.721606
 31
0.0
 11
141.221912
 21
310.597940
 31
0.0
 11
141.275215
 21
310.469230
 31
0.0
 11
141.317224
 21
310.336471
 31
0.0
 11
141.347772
 21
310.199492
 31
0.0
 11
141.366197
 21
310.060289
 31
0.0
 11
141.372229
 21
309.919742
 31
0.0
 11
141.347057
 21
309.638911
 31
0.0
 11
141.273167
 21
309.365629
 31
0.0
 11
141.152999
 21
309.109290
 31
0.0
 11
140.994879
 21
308.885129
 31
0.0
 11
140.800936
 21
308.691272
 31
0.0
 11
140.576927
 21
308.533226
 31
0.0
 11
140.321113
 21
308.413042
 31
0.0
 11
140.048096
 21
308.339160
 31
0.0
 11
139.766469
 21
308.313996
 31
0.0
 11
139.484861
 21
308.339160
 31
0.0
 11
139.211852
 21
308.413042
 31
0.0
 11
138.956040
 21
308.533226
 31
0.0
 11
138.732030
 21
308.691272
 31
0.0
 11
138.538087
 21
308.885129
 31
0.0
 11
138.379968
 21
309.109290
 31
0.0
 11
138.259912
 21
309.365629
 31
0.0
 11
138.186135
 21
309.638911
 31
0.0
 11
138.160737
 21
309.919742
 31
0.0
 11
138.166801
 21
310.060289
 31
0.0
 11
138.185257
 21
310.199492
 31
0.0
 11
138.215743
 21
310.336471
 31
0.0
 11
138.257751
 21
310.469230
 31
0.0
 11
138.311054
 21
310.597940
 31
0.0
 11
138.375283
 21
310.721606
 31
0.0
 11
138.450682
 21
310.840196
 31
0.0
 11
138.536160
 21
310.951702
 31
0.0
 11
138.631033
 21
311.055178
 31
0.0
 11
138.734633
 21
311.149790
 31
0.0
 11
138.846117
 21
311.235142
 31
0.0
 11
138.964619
 21
311.310948
 31
0.0
 11
139.088222
 21
311.376169
 31
0.0
 11
139.216918
 21
311.429940
 31
0.0
 11
139.349740
 21
311.470477
 31
0.0
 11
139.486881
 21
311.497296
 31
0.0
 11
139.626148
 21
311.513938
 31
0.0
 11
139.766469
 21
311.525490
 31
0.0
  0
LINE
  5
2be
100
AcDbEntity
  8
newlayer
 62
7
100
AcDbLine
 10
138.025770
 20
102.679439
 30
0.0
 11
138.025770
 21
102.679439
 31
0.0
  0
SPLINE
  5
2bf
100
AcDbEntity
  8
newlayer
 62
7
100
AcDbSpline
 70
0
 71
3
 72
19
 73
15
 74
13
 40
0.000000
 40
0.000000
 40
0.000000
 40
0.000000
 40
1.882292
 40
3.708756
 40
5.591047
 40
7.473339
 40
9.299803
 40
11.182095
 40
13.064387
 40
14.890852
 40
16.773145
 40
18.655437
 40
20.481902
 40
22.364195
 40
22.364195
 40
22.364195
 40
22.364195
 10
138.025770
 20
102.679439
 30
0.0
 10
137.926825
 20
102.044819
 30
0.0
 10
137.731868
 20
100.794401
 30
0.0
 10
136.298649
 20
99.417794
 30
0.0
 10
134.429076
 20
98.907718
 30
0.0
 10
132.539874
 20
99.417794
 30
0.0
 10
131.164376
 20
100.794401
 30
0.0
 10
130.653924
 20
102.679439
 30
0.0
 10
131.164375
 20
104.564478
 30
0.0
 10
132.539873
 20
105.941087
 30
0.0
 10
134.429076
 20
106.451164
 30
0.0
 10
136.298650
 20
105.941087
 30
0.0
 10
137.731870
 20
104.564478
 30
0.0
 10
137.926825
 20
103.314060
 30
0.0
 10
138.025770
 20
102.679439
 30
0.0
 11
138.025770
 21
102.679439
 31
0.0
 11
137.534264
 21
100.862451
 31
0.0
 11
136.242760
 21
99.570947
 31
0.0
 11
134.425772
 21
99.079441
 31
0.0
 11
132.608784
 21
99.570947
 31
0.0
 11
131.317279
 21
100.862451
 31
0.0
 11
130.825773
 21
102.679439
 31
0.0
 11
131.317278
 21
104.496428
 31
0.0
 11
132.608783
 21
105.787934
 31
0.0
 11
134.425772
 21
106.279441
 31
0.0
 11
136.242760
 21
105.787934
 31
0.0
 11
137.534265
 21
104.496428
 31
0.0
 11
138.025770
 21
102.679439
 31
0.0
  0
LINE
  5
2c0
100
AcDbEntity
  8
newlayer
 62
7
100
AcDbLine
 10
147.855768
 20
102.679439
 30
0.0
 11
147.855768
 21
102.679439
 31
0.0
  0
LINE
  5
2c1
100
AcDbEntity
  8
newlayer
 62
7
100
AcDbLine
 10
164.605770
 20
105.164629
 30
0.0
 11
167.105779
 21
105.164629
 31
0.0
  0
LINE
  5
2c2
100
AcDbEntity
  8
newlayer
 62
7
100
AcDbLine
 10
167.105779
 20
105.164629
 30
0.0
 11
167.105779
 21
99.764628
 31
0.0
  0
LINE
  5
2c3
100
AcDbEntity
  8
newlayer
 62
7
100
AcDbLine
 10
167.105779
 20
99.764628
 30
0.0
 11
164.605770
 21
99.764628
 31
0.0
  0
LINE
  5
2c4
100
AcDbEntity
  8
newlayer
 62
7
100
AcDbLine
 10
164.605770
 20
99.764628
 30
0.0
 11
164.605770
 21
105.164629
 31
0.0
  0
SPLINE
  5
2c5
100
AcDbEntity
  8
newlayer
 62
7
100
AcDbSpline
 70
0
 71
3
 72
19
 73
15
 74
13
 40
0.000000
 40
0.000000
 40
0.000000
 40
0.000000
 40
1.045717
 40
2.060418
 40
3.106134
 40
4.151851
 40
5.166552
 40
6.212268
 40
7.257986
 40
8.272687
 40
9.318405
 40
10.364122
 40
11.378824
 40
12.424542
 40
12.424542
 40
12.424542
 40
12.424542
 10
147.855768
 20
102.679439
 30
0.0
 10
147.800798
 20
102.326873
 30
0.0
 10
147.692489
 20
101.632197
 30
0.0
 10
146.896258
 20
100.867416
 30
0.0
 10
145.857607
 20
100.584038
 30
0.0
 10
144.808052
 20
100.867416
 30
0.0
 10
144.043888
 20
101.632197
 30
0.0
 10
143.760304
 20
102.679439
 30
0.0
 10
144.043887
 20
103.726683
 30
0.0
 10
144.808052
 20
104.491465
 30
0.0
 10
145.857607
 20
104.774843
 30
0.0
 10
146.896259
 20
104.491465
 30
0.0
 10
147.692490
 20
103.726683
 30
0.0
 10
147.800799
 20
103.032006
 30
0.0
 10
147.855768
 20
102.679439
 30
0.0
 11
147.855768
 21
102.679439
 31
0.0
 11
147.582709
 21
101.670003
 31
0.0
 11
146.865208
 21
100.952500
 31
0.0
 11
145.855772
 21
100.679440
 31
0.0
 11
144.846336
 21
100.952500
 31
0.0
 11
144.128834
 21
101.670003
 31
0.0
 11
143.855776
 21
102.679439
 31
0.0
 11
144.128833
 21
103.688877
 31
0.0
 11
144.846335
 21
104.406381
 31
0.0
 11
145.855772
 21
104.679441
 31
0.0
 11
146.865209
 21
104.406381
 31
0.0
 11
147.582710
 21
103.688877
 31
0.0
 11
147.855768
 21
102.679439
 31
0.0
  0
LINE
  5
2c6
100
AcDbEntity
  8
newlayer
 62
7
100
AcDbLine
 10
156.118952
 20
93.969446
 30
0.0
 11
156.118952
 21
93.969446
 31
0.0
  0
LINE
  5
2c7
100
AcDbEntity
  8
newlayer
 62
7
100
AcDbLine
 10
120.297301
 20
90.754910
 30
0.0
 11
147.364190
 21
90.754910
 31
0.0
  0
LINE
  5
2c8
100
AcDbEntity
  8
newlayer
 62
7
100
AcDbLine
 10
147.364190
 20
90.754910
 30
0.0
 11
147.364190
 21
87.826163
 31
0.0
  0
LINE
  5
2c9
100
AcDbEntity
  8
newlayer
 62
7
100
AcDbLine
 10
147.364190
 20
87.826163
 30
0.0
 11
120.297301
 21
87.826163
 31
0.0
  0
LINE
  5
2ca
100
AcDbEntity
  8
newlayer
 62
7
100
AcDbLine
 10
120.297301
 20
87.826163
 30
0.0
 11
120.297301
 21
90.754910
 31
0.0
  0
LINE
  5
2cb
100
AcDbEntity
  8
newlayer
 62
7
100
AcDbLine
 10
88.315673
 20
34.122756
 30
0.0
 11
100.149008
 21
34.122756
 31
0.0
  0
LINE
  5
2cc
100
AcDbEntity
  8
newlayer
 62
7
100
AcDbLine
 10
100.149008
 20
34.122756
 30
0.0
 11
100.149008
 21
31.122757
 31
0.0
  0
LINE
  5
2cd
100
AcDbEntity
  8
newlayer
 62
7
100
AcDbLine
 10
100.149008
 20
31.122757
 30
0.0
 11
110.149008
 21
31.122757
 31
0.0
  0
LINE
  5
2ce
100
AcDbEntity
  8
newlayer
 62
7
100
AcDbLine
 10
110.149008
 20
31.122757
 30
0.0
 11
110.149008
 21
34.122756
 31
0.0
  0
LINE
  5
2cf
100
AcDbEntity
  8
newlayer
 62
7
100
AcDbLine
 10
110.149008
 20
34.122756
 30
0.0
 11
121.982340
 21
34.122756
 31
0.0
  0
LINE
  5
2d0
100
AcDbEntity
  8
newlayer
 62
7
100
AcDbLine
 10
121.982340
 20
34.122756
 30
0.0
 11
121.982340
 21
31.122757
 31
0.0
  0
LINE
  5
2d1
100
AcDbEntity
  8
newlayer
 62
7
100
AcDbLine
 10
121.982340
 20
31.122757
 30
0.0
 11
131.982340
 21
31.122757
 31
0.0
  0
LINE
  5
2d2
100
AcDbEntity
  8
newlayer
 62
7
100
AcDbLine
 10
131.982340
 20
31.122757
 30
0.0
 11
131.982340
 21
34.122756
 31
0.0
  0
LINE
  5
2d3
100
AcDbEntity
  8
newlayer
 62
7
100
AcDbLine
 10
131.982340
 20
34.122756
 30
0.0
 11
143.815675
 21
34.122756
 31
0.0
  0
LINE
  5
2d4
100
AcDbEntity
  8
newlayer
 62
7
100
AcDbLine
 10
143.815675
 20
34.122756
 30
0.0
 11
143.815675
 21
31.122757
 31
0.0
  0
LINE
  5
2d5
100
AcDbEntity
  8
newlayer
 62
7
100
AcDbLine
 10
143.815675
 20
31.122757
 30
0.0
 11
153.815675
 21
31.122757
 31
0.0
  0
LINE
  5
2d6
100
AcDbEntity
  8
newlayer
 62
7
100
AcDbLine
 10
153.815675
 20
31.122757
 30
0.0
 11
153.815675
 21
34.122756
 31
0.0
  0
LINE
  5
2d7
100
AcDbEntity
  8
newlayer
 62
7
100
AcDbLine
 10
153.815675
 20
34.122756
 30
0.0
 11
165.649007
 21
34.122756
 31
0.0
  0
LINE
  5
2d8
100
AcDbEntity
  8
newlayer
 62
7
100
AcDbLine
 10
165.649007
 20
34.122756
 30
0.0
 11
165.649007
 21
31.122757
 31
0.0
  0
LINE
  5
2d9
100
AcDbEntity
  8
newlayer
 62
7
100
AcDbLine
 10
165.649007
 20
31.122757
 30
0.0
 11
175.649007
 21
31.122757
 31
0.0
  0
LINE
  5
2da
100
AcDbEntity
  8
newlayer
 62
7
100
AcDbLine
 10
175.649007
 20
31.122757
 30
0.0
 11
175.649007
 21
34.122756
 31
0.0
  0
LINE
  5
2db
100
AcDbEntity
  8
newlayer
 62
7
100
AcDbLine
 10
175.649007
 20
34.122756
 30
0.0
 11
187.482342
 21
34.122756
 31
0.0
  0
LINE
  5
2dc
100
AcDbEntity
  8
newlayer
 62
7
100
AcDbLine
 10
187.482342
 20
34.122756
 30
0.0
 11
187.482342
 21
31.122757
 31
0.0
  0
LINE
  5
2dd
100
AcDbEntity
  8
newlayer
 62
7
100
AcDbLine
 10
187.482342
 20
31.122757
 30
0.0
 11
197.482341
 21
31.122757
 31
0.0
  0
LINE
  5
2de
100
AcDbEntity
  8
newlayer
 62
7
100
AcDbLine
 10
197.482341
 20
31.122757
 30
0.0
 11
197.482341
 21
34.122756
 31
0.0
  0
LINE
  5
2df
100
AcDbEntity
  8
newlayer
 62
7
100
AcDbLine
 10
197.482341
 20
34.122756
 30
0.0
 11
209.315674
 21
34.122756
 31
0.0
  0
LINE
  5
2e0
100
AcDbEntity
  8
newlayer
 62
7
100
AcDbLine
 10
209.315674
 20
34.122756
 30
0.0
 11
209.315674
 21
45.122757
 31
0.0
  0
LINE
  5
2e1
100
AcDbEntity
  8
newlayer
 62
7
100
AcDbLine
 10
209.315674
 20
45.122757
 30
0.0
 11
206.315674
 21
45.122757
 31
0.0
  0
LINE
  5
2e2
100
AcDbEntity
  8
newlayer
 62
7
100
AcDbLine
 10
206.315674
 20
45.122757
 30
0.0
 11
206.315674
 21
55.122757
 31
0.0
  0
LINE
  5
2e3
100
AcDbEntity
  8
newlayer
 62
7
100
AcDbLine
 10
206.315674
 20
55.122757
 30
0.0
 11
209.315674
 21
55.122757
 31
0.0
  0
LINE
  5
2e4
100
AcDbEntity
  8
newlayer
 62
7
100
AcDbLine
 10
209.315674
 20
55.122757
 30
0.0
 11
209.315674
 21
69.122757
 31
0.0
  0
LINE
  5
2e5
100
AcDbEntity
  8
newlayer
 62
7
100
AcDbLine
 10
209.315674
 20
69.122757
 30
0.0
 11
206.315674
 21
69.122757
 31
0.0
  0
LINE
  5
2e6
100
AcDbEntity
  8
newlayer
 62
7
100
AcDbLine
 10
206.315674
 20
69.122757
 30
0.0
 11
206.315674
 21
79.122757
 31
0.0
  0
LINE
  5
2e7
100
AcDbEntity
  8
newlayer
 62
7
100
AcDbLine
 10
206.315674
 20
79.122757
 30
0.0
 11
209.315674
 21
79.122757
 31
0.0
  0
LINE
  5
2e8
100
AcDbEntity
  8
newlayer
 62
7
100
AcDbLine
 10
209.315674
 20
79.122757
 30
0.0
 11
209.315674
 21
93.122757
 31
0.0
  0
LINE
  5
2e9
100
AcDbEntity
  8
newlayer
 62
7
100
AcDbLine
 10
209.315674
 20
93.122757
 30
0.0
 11
206.315674
 21
93.122757
 31
0.0
  0
LINE
  5
2ea
100
AcDbEntity
  8
newlayer
 62
7
100
AcDbLine
 10
206.315674
 20
93.122757
 30
0.0
 11
206.315674
 21
103.122757
 31
0.0
  0
LINE
  5
2eb
100
AcDbEntity
  8
newlayer
 62
7
100
AcDbLine
 10
206.315674
 20
103.122757
 30
0.0
 11
209.315674
 21
103.122757
 31
0.0
  0
LINE
  5
2ec
100
AcDbEntity
  8
newlayer
 62
7
100
AcDbLine
 10
209.315674
 20
103.122757
 30
0.0
 11
209.315674
 21
114.122757
 31
0.0
  0
LINE
  5
2ed
100
AcDbEntity
  8
newlayer
 62
7
100
AcDbLine
 10
209.315674
 20
114.122757
 30
0.0
 11
197.482341
 21
114.122757
 31
0.0
  0
LINE
  5
2ee
100
AcDbEntity
  8
newlayer
 62
7
100
AcDbLine
 10
197.482341
 20
114.122757
 30
0.0
 11
197.482341
 21
117.122757
 31
0.0
  0
LINE
  5
2ef
100
AcDbEntity
  8
newlayer
 62
7
100
AcDbLine
 10
197.482341
 20
117.122757
 30
0.0
 11
187.482342
 21
117.122757
 31
0.0
  0
LINE
  5
2f0
100
AcDbEntity
  8
newlayer
 62
7
100
AcDbLine
 10
187.482342
 20
117.122757
 30
0.0
 11
187.482342
 21
114.122757
 31
0.0
  0
LINE
  5
2f1
100
AcDbEntity
  8
newlayer
 62
7
100
AcDbLine
 10
187.482342
 20
114.122757
 30
0.0
 11
175.649007
 21
114.122757
 31
0.0
  0
LINE
  5
2f2
100
AcDbEntity
  8
newlayer
 62
7
100
AcDbLine
 10
175.649007
 20
114.122757
 30
0.0
 11
175.649007
 21
117.122757
 31
0.0
  0
LINE
  5
2f3
100
AcDbEntity
  8
newlayer
 62
7
100
AcDbLine
 10
175.649007
 20
117.122757
 30
0.0
 11
165.649007
 21
117.122757
 31
0.0
  0
LINE
  5
2f4
100
AcDbEntity
  8
newlayer
 62
7
100
AcDbLine
 10
165.649007
 20
117.122757
 30
0.0
 11
165.649007
 21
114.122757
 31
0.0
  0
LINE
  5
2f5
100
AcDbEntity
  8
newlayer
 62
7
100
AcDbLine
 10
165.649007
 20
114.122757
 30
0.0
 11
153.815675
 21
114.122757
 31
0.0
  0
LINE
  5
2f6
100
AcDbEntity
  8
newlayer
 62
7
100
AcDbLine
 10
153.815675
 20
114.122757
 30
0.0
 11
153.815675
 21
117.122757
 31
0.0
  0
LINE
  5
2f7
100
AcDbEntity
  8
newlayer
 62
7
100
AcDbLine
 10
153.815675
 20
117.122757
 30
0.0
 11
143.815675
 21
117.122757
 31
0.0
  0
LINE
  5
2f8
100
AcDbEntity
  8
newlayer
 62
7
100
AcDbLine
 10
143.815675
 20
117.122757
 30
0.0
 11
143.815675
 21
114.122757
 31
0.0
  0
LINE
  5
2f9
100
AcDbEntity
  8
newlayer
 62
7
100
AcDbLine
 10
143.815675
 20
114.122757
 30
0.0
 11
131.982340
 21
114.122757
 31
0.0
  0
LINE
  5
2fa
100
AcDbEntity
  8
newlayer
 62
7
100
AcDbLine
 10
131.982340
 20
114.122757
 30
0.0
 11
131.982340
 21
117.122757
 31
0.0
  0
LINE
  5
2fb
100
AcDbEntity
  8
newlayer
 62
7
100
AcDbLine
 10
131.982340
 20
117.122757
 30
0.0
 11
121.982340
 21
117.122757
 31
0.0
  0
LINE
  5
2fc
100
AcDbEntity
  8
newlayer
 62
7
100
AcDbLine
 10
121.982340
 20
117.122757
 30
0.0
 11
121.982340
 21
114.122757
 31
0.0
  0
LINE
  5
2fd
100
AcDbEntity
  8
newlayer
 62
7
100
AcDbLine
 10
121.982340
 20
114.122757
 30
0.0
 11
110.149008
 21
114.122757
 31
0.0
  0
LINE
  5
2fe
100
AcDbEntity
  8
newlayer
 62
7
100
AcDbLine
 10
110.149008
 20
114.122757
 30
0.0
 11
110.149008
 21
117.122757
 31
0.0
  0
LINE
  5
2ff
100
AcDbEntity
  8
newlayer
 62
7
100
AcDbLine
 10
110.149008
 20
117.122757
 30
0.0
 11
100.149008
 21
117.122757
 31
0.0
  0
LINE
  5
300
100
AcDbEntity
  8
newlayer
 62
7
100
AcDbLine
 10
100.149008
 20
117.122757
 30
0.0
 11
100.149008
 21
114.122757
 31
0.0
  0
LINE
  5
301
100
AcDbEntity
  8
newlayer
 62
7
100
AcDbLine
 10
100.149008
 20
114.122757
 30
0.0
 11
88.315673
 21
114.122757
 31
0.0
  0
LINE
  5
302
100
AcDbEntity
  8
newlayer
 62
7
100
AcDbLine
 10
88.315673
 20
114.122757
 30
0.0
 11
88.315673
 21
103.122757
 31
0.0
  0
LINE
  5
303
100
AcDbEntity
  8
newlayer
 62
7
100
AcDbLine
 10
88.315673
 20
103.122757
 30
0.0
 11
91.315673
 21
103.122757
 31
0.0
  0
LINE
  5
304
100
AcDbEntity
  8
newlayer
 62
7
100
AcDbLine
 10
91.315673
 20
103.122757
 30
0.0
 11
91.315673
 21
93.122757
 31
0.0
  0
LINE
  5
305
100
AcDbEntity
  8
newlayer
 62
7
100
AcDbLine
 10
91.315673
 20
93.122757
 30
0.0
 11
88.315673
 21
93.122757
 31
0.0
  0
LINE
  5
306
100
AcDbEntity
  8
newlayer
 62
7
100
AcDbLine
 10
88.315673
 20
93.122757
 30
0.0
 11
88.315673
 21
79.122757
 31
0.0
  0
LINE
  5
307
100
AcDbEntity
  8
newlayer
 62
7
100
AcDbLine
 10
88.315673
 20
79.122757
 30
0.0
 11
91.315673
 21
79.122757
 31
0.0
  0
LINE
  5
308
100
AcDbEntity
  8
newlayer
 62
7
100
AcDbLine
 10
91.315673
 20
79.122757
 30
0.0
 11
91.315673
 21
69.122757
 31
0.0
  0
LINE
  5
309
100
AcDbEntity
  8
newlayer
 62
7
100
AcDbLine
 10
91.315673
 20
69.122757
 30
0.0
 11
88.315673
 21
69.122757
 31
0.0
  0
LINE
  5
30a
100
AcDbEntity
  8
newlayer
 62
7
100
AcDbLine
 10
88.315673
 20
69.122757
 30
0.0
 11
88.315673
 21
55.122757
 31
0.0
  0
LINE
  5
30b
100
AcDbEntity
  8
newlayer
 62
7
100
AcDbLine
 10
88.315673
 20
55.122757
 30
0.0
 11
91.315673
 21
55.122757
 31
0.0
  0
LINE
  5
30c
100
AcDbEntity
  8
newlayer
 62
7
100
AcDbLine
 10
91.315673
 20
55.122757
 30
0.0
 11
91.315673
 21
45.122757
 31
0.0
  0
LINE
  5
30d
100
AcDbEntity
  8
newlayer
 62
7
100
AcDbLine
 10
91.315673
 20
45.122757
 30
0.0
 11
88.315673
 21
45.122757
 31
0.0
  0
LINE
  5
30e
100
AcDbEntity
  8
newlayer
 62
7
100
AcDbLine
 10
88.315673
 20
45.122757
 30
0.0
 11
88.315673
 21
34.122756
 31
0.0
  0
SPLINE
  5
30f
100
AcDbEntity
  8
newlayer
 62
7
100
AcDbSpline
 70
0
 71
3
 72
25
 73
21
 74
19
 40
0.000000
 40
0.000000
 40
0.000000
 40
0.000000
 40
0.754578
 40
1.486775
 40
2.241353
 40
2.619145
 40
2.993810
 40
3.371602
 40
3.749394
 40
4.124060
 40
4.501851
 40
4.879643
 40
5.254309
 40
5.632101
 40
6.009893
 40
6.384558
 40
6.762350
 40
7.516928
 40
8.249125
 40
9.003703
 40
9.003703
 40
9.003703
 40
9.003703
 10
156.118952
 20
93.969446
 30
0.0
 10
156.079242
 20
93.715055
 30
0.0
 10
156.000998
 20
93.213819
 30
0.0
 10
155.427113
 20
92.661707
 30
0.0
 10
154.801475
 20
92.492412
 30
0.0
 10
154.298000
 20
92.559569
 30
0.0
 10
153.945920
 20
92.705245
 30
0.0
 10
153.643499
 20
92.937173
 30
0.0
 10
153.411598
 20
93.239599
 30
0.0
 10
153.265789
 20
93.591617
 30
0.0
 10
153.215908
 20
93.969446
 30
0.0
 10
153.265789
 20
94.347275
 30
0.0
 10
153.411598
 20
94.699293
 30
0.0
 10
153.643499
 20
95.001719
 30
0.0
 10
153.945920
 20
95.233647
 30
0.0
 10
154.298000
 20
95.379323
 30
0.0
 10
154.801475
 20
95.446481
 30
0.0
 10
155.427113
 20
95.277185
 30
0.0
 10
156.000998
 20
94.725074
 30
0.0
 10
156.079242
 20
94.223837
 30
0.0
 10
156.118952
 20
93.969446
 30
0.0
 11
156.118952
 21
93.969446
 31
0.0
 11
155.921918
 21
93.241047
 31
0.0
 11
155.404178
 21
92.723304
 31
0.0
 11
154.675781
 21
92.526263
 31
0.0
 11
154.301238
 21
92.575704
 31
0.0
 11
153.955091
 21
92.719079
 31
0.0
 11
153.655285
 21
92.948956
 31
0.0
 11
153.425405
 21
93.248758
 31
0.0
 11
153.282026
 21
93.594904
 31
0.0
 11
153.232581
 21
93.969446
 31
0.0
 11
153.282026
 21
94.343989
 31
0.0
 11
153.425405
 21
94.690134
 31
0.0
 11
153.655285
 21
94.989937
 31
0.0
 11
153.955091
 21
95.219814
 31
0.0
 11
154.301238
 21
95.363189
 31
0.0
 11
154.675781
 21
95.412629
 31
0.0
 11
155.404178
 21
95.215589
 31
0.0
 11
155.921918
 21
94.697845
 31
0.0
 11
156.118952
 21
93.969446
 31
0.0
  0
LINE
  5
310
100
AcDbEntity
  8
newlayer
 62
1
100
AcDbLine
 10
34.914871
 20
158.092706
 30
0.0
 11
34.914871
 21
158.092706
 31
0.0
  0
SPLINE
  5
311
100
AcDbEntity
  8
newlayer
 62
1
100
AcDbSpline
 70
0
 71
3
 72
25
 73
21
 74
19
 40
0.000000
 40
0.000000
 40
0.000000
 40
0.000000
 40
3.496183
 40
6.456473
 40
8.984548
 40
10.215643
 40
11.521746
 40
12.975474
 40
14.573158
 40
16.271130
 40
18.046046
 40
19.820961
 40
21.518934
 40
23.116617
 40
24.570345
 40
25.876448
 40
27.107543
 40
29.635618
 40
32.595908
 40
36.092090
 40
36.092090
 40
36.092090
 40
36.092090
 10
34.914871
 20
158.092706
 30
0.0
 10
36.085714
 20
157.976497
 30
0.0
 10
38.247933
 20
157.761892
 30
0.0
 10
40.902451
 20
156.099891
 30
0.0
 10
41.903836
 20
153.871780
 30
0.0
 10
41.553949
 20
152.172284
 30
0.0
 10
40.836119
 20
151.025729
 30
0.0
 10
39.725082
 20
150.062822
 30
0.0
 10
38.304991
 20
149.335138
 30
0.0
 10
36.666611
 20
148.880080
 30
0.0
 10
34.914871
 20
148.724863
 30
0.0
 10
33.163131
 20
148.880080
 30
0.0
 10
31.524752
 20
149.335138
 30
0.0
 10
30.104661
 20
150.062822
 30
0.0
 10
28.993624
 20
151.025729
 30
0.0
 10
28.275794
 20
152.172284
 30
0.0
 10
27.925907
 20
153.871780
 30
0.0
 10
28.927291
 20
156.099891
 30
0.0
 10
31.581809
 20
157.761892
 30
0.0
 10
33.744028
 20
157.976497
 30
0.0
 10
34.914871
 20
158.092706
 30
0.0
 11
34.914871
 21
158.092706
 31
0.0
 11
38.352736
 21
157.456797
 31
0.0
 11
40.796351
 21
155.785850
 31
0.0
 11
41.726313
 21
153.435034
 31
0.0
 11
41.492950
 21
152.226260
 31
0.0
 11
40.816248
 21
151.109130
 31
0.0
 11
39.731289
 21
150.141561
 31
0.0
 11
38.316304
 21
149.399665
 31
0.0
 11
36.682599
 21
148.936935
 31
0.0
 11
34.914871
 21
148.777360
 31
0.0
 11
33.147143
 21
148.936935
 31
0.0
 11
31.513439
 21
149.399665
 31
0.0
 11
30.098454
 21
150.141562
 31
0.0
 11
29.013495
 21
151.109130
 31
0.0
 11
28.336793
 21
152.226260
 31
0.0
 11
28.103430
 21
153.435034
 31
0.0
 11
29.033392
 21
155.785850
 31
0.0
 11
31.477007
 21
157.456797
 31
0.0
 11
34.914871
 21
158.092706
 31
0.0
  0
LINE
  5
312
100
AcDbEntity
  8
newlayer
 62
1
100
AcDbLine
 10
34.629784
 20
178.222632
 30
0.0
 11
34.629784
 21
178.222632
 31
0.0
  0
SPLINE
  5
313
100
AcDbEntity
  8
newlayer
 62
1
100
AcDbSpline
 70
0
 71
3
 72
25
 73
21
 74
19
 40
0.000000
 40
0.000000
 40
0.000000
 40
0.000000
 40
1.774916
 40
3.472888
 40
5.070572
 40
6.524300
 40
7.830403
 40
9.061497
 40
11.589573
 40
14.549863
 40
18.046046
 40
21.542229
 40
24.502519
 40
27.030595
 40
28.261689
 40
29.567792
 40
31.021520
 40
32.619204
 40
34.317177
 40
36.092093
 40
36.092093
 40
36.092093
 40
36.092093
 10
34.629784
 20
178.222632
 30
0.0
 10
35.222259
 20
178.192429
 30
0.0
 10
36.381524
 20
178.133332
 30
0.0
 10
38.019904
 20
177.661552
 30
0.0
 10
39.439995
 20
176.937929
 30
0.0
 10
40.551032
 20
175.974152
 30
0.0
 10
41.268862
 20
174.827534
 30
0.0
 10
41.618749
 20
173.129279
 30
0.0
 10
40.617365
 20
170.890331
 30
0.0
 10
37.962846
 20
169.283844
 30
0.0
 10
34.629784
 20
168.703380
 30
0.0
 10
31.296722
 20
169.283843
 30
0.0
 10
28.642203
 20
170.890331
 30
0.0
 10
27.640819
 20
173.129279
 30
0.0
 10
27.990706
 20
174.827534
 30
0.0
 10
28.708536
 20
175.974152
 30
0.0
 10
29.819573
 20
176.937930
 30
0.0
 10
31.239664
 20
177.661552
 30
0.0
 10
32.878044
 20
178.133332
 30
0.0
 10
34.037310
 20
178.192429
 30
0.0
 10
34.629784
 20
178.222632
 30
0.0
 11
34.629784
 21
178.222632
 31
0.0
 11
36.397512
 21
178.063058
 31
0.0
 11
38.031217
 21
177.600327
 31
0.0
 11
39.446202
 21
176.858431
 31
0.0
 11
40.531161
 21
175.890862
 31
0.0
 11
41.207863
 21
174.773732
 31
0.0
 11
41.441226
 21
173.564958
 31
0.0
 11
40.511264
 21
171.214142
 31
0.0
 11
38.067649
 21
169.543195
 31
0.0
 11
34.629784
 21
168.907286
 31
0.0
 11
31.191919
 21
169.543195
 31
0.0
 11
28.748304
 21
171.214142
 31
0.0
 11
27.818342
 21
173.564958
 31
0.0
 11
28.051705
 21
174.773732
 31
0.0
 11
28.728407
 21
175.890862
 31
0.0
 11
29.813366
 21
176.858431
 31
0.0
 11
31.228352
 21
177.600327
 31
0.0
 11
32.862056
 21
178.063058
 31
0.0
 11
34.629784
 21
178.222632
 31
0.0
  0
SPLINE
  5
314
100
AcDbEntity
  8
newlayer
 62
1
100
AcDbSpline
 70
0
 71
3
 72
10
 73
6
 74
4
 40
0.000000
 40
0.000000
 40
0.000000
 40
0.000000
 40
12.100293
 40
23.827799
 40
35.866595
 40
35.866595
 40
35.866595
 40
35.866595
 10
46.603581
 20
139.880149
 30
0.0
 10
50.627573
 20
140.662251
 30
0.0
 10
58.551584
 20
142.202359
 30
0.0
 10
67.550736
 20
151.499903
 30
0.0
 10
68.785299
 20
159.460618
 30
0.0
 10
69.410665
 20
163.493110
 30
0.0
 11
46.603581
 21
139.880149
 31
0.0
 11
58.173851
 21
143.422176
 31
0.0
 11
66.321258
 21
151.857468
 31
0.0
 11
69.410665
 21
163.493110
 31
0.0
  0
LINE
  5
315
100
AcDbEntity
  8
newlayer
 62
1
100
AcDbLine
 10
46.603581
 20
187.119848
 30
0.0
 11
46.603581
 21
181.904241
 31
0.0
  0
SPLINE
  5
316
100
AcDbEntity
  8
newlayer
 62
1
100
AcDbSpline
 70
0
 71
3
 72
10
 73
6
 74
4
 40
0.000000
 40
0.000000
 40
0.000000
 40
0.000000
 40
12.043340
 40
23.775047
 40
35.879922
 40
35.879922
 40
35.879922
 40
35.879922
 10
69.410665
 20
163.493110
 30
0.0
 10
68.787184
 20
167.527514
 30
0.0
 10
67.556357
 20
175.491927
 30
0.0
 10
58.556066
 20
184.796062
 30
0.0
 10
50.629109
 20
186.337211
 30
0.0
 10
46.603581
 20
187.119848
 30
0.0
 11
69.410665
 21
163.493110
 31
0.0
 11
66.325746
 21
175.134644
 31
0.0
 11
58.177880
 21
183.575333
 31
0.0
 11
46.603581
 21
187.119848
 31
0.0
  0
SPLINE
  5
317
100
AcDbEntity
  8
newlayer
 62
1
100
AcDbSpline
 70
0
 71
3
 72
10
 73
6
 74
4
 40
0.000000
 40
0.000000
 40
0.000000
 40
0.000000
 40
9.314234
 40
18.368605
 40
27.682839
 40
27.682839
 40
27.682839
 40
27.682839
 10
46.603581
 20
181.904241
 30
0.0
 10
49.693260
 20
181.263892
 30
0.0
 10
55.786415
 20
180.001059
 30
0.0
 10
62.651135
 20
172.763650
 30
0.0
 10
63.590370
 20
166.612298
 30
0.0
 10
64.066632
 20
163.493110
 30
0.0
 11
46.603581
 21
181.904241
 31
0.0
 11
55.477120
 21
179.073115
 31
0.0
 11
61.708149
 21
172.503799
 31
0.0
 11
64.066632
 21
163.493110
 31
0.0
  0
LINE
  5
318
100
AcDbEntity
  8
newlayer
 62
1
100
AcDbLine
 10
46.603581
 20
145.067086
 30
0.0
 11
46.603581
 21
139.880149
 31
0.0
  0
LINE
  5
319
100
AcDbEntity
  8
newlayer
 62
1
100
AcDbLine
 10
46.603581
 20
139.880149
 30
0.0
 11
46.603581
 21
139.880149
 31
0.0
  0
LINE
  5
31a
100
AcDbEntity
  8
newlayer
 62
7
100
AcDbLine
 10
111.287924
 20
337.448255
 30
0.0
 11
111.287924
 21
330.999037
 31
0.0
  0
LINE
  5
31b
100
AcDbEntity
  8
newlayer
 62
7
100
AcDbLine
 10
111.287924
 20
330.999037
 30
0.0
 11
108.287659
 21
330.999037
 31
0.0
  0
LINE
  5
31c
100
AcDbEntity
  8
newlayer
 62
7
100
AcDbLine
 10
108.287659
 20
330.999037
 30
0.0
 11
108.287659
 21
303.999962
 31
0.0
  0
LINE
  5
31d
100
AcDbEntity
  8
newlayer
 62
7
100
AcDbLine
 10
108.287659
 20
303.999962
 30
0.0
 11
111.287924
 21
303.999962
 31
0.0
  0
LINE
  5
31e
100
AcDbEntity
  8
newlayer
 62
7
100
AcDbLine
 10
111.287924
 20
303.999962
 30
0.0
 11
111.287924
 21
297.550191
 31
0.0
  0
LINE
  5
31f
100
AcDbEntity
  8
newlayer
 62
7
100
AcDbLine
 10
111.287924
 20
297.550191
 30
0.0
 11
121.186095
 21
297.550191
 31
0.0
  0
LINE
  5
320
100
AcDbEntity
  8
newlayer
 62
7
100
AcDbLine
 10
121.186095
 20
297.550191
 30
0.0
 11
121.186095
 21
303.999962
 31
0.0
  0
LINE
  5
321
100
AcDbEntity
  8
newlayer
 62
7
100
AcDbLine
 10
121.186095
 20
303.999962
 30
0.0
 11
186.287929
 21
303.999962
 31
0.0
  0
LINE
  5
322
100
AcDbEntity
  8
newlayer
 62
7
100
AcDbLine
 10
186.287929
 20
303.999962
 30
0.0
 11
186.287929
 21
297.550191
 31
0.0
  0
LINE
  5
323
100
AcDbEntity
  8
newlayer
 62
7
100
AcDbLine
 10
186.287929
 20
297.550191
 30
0.0
 11
196.186100
 21
297.550191
 31
0.0
  0
LINE
  5
324
100
AcDbEntity
  8
newlayer
 62
7
100
AcDbLine
 10
196.186100
 20
297.550191
 30
0.0
 11
196.186100
 21
303.999962
 31
0.0
  0
LINE
  5
325
100
AcDbEntity
  8
newlayer
 62
7
100
AcDbLine
 10
196.186100
 20
303.999962
 30
0.0
 11
199.186916
 21
303.999962
 31
0.0
  0
LINE
  5
326
100
AcDbEntity
  8
newlayer
 62
7
100
AcDbLine
 10
199.186916
 20
303.999962
 30
0.0
 11
199.186916
 21
330.999037
 31
0.0
  0
LINE
  5
327
100
AcDbEntity
  8
newlayer
 62
7
100
AcDbLine
 10
199.186916
 20
330.999037
 30
0.0
 11
196.186100
 21
330.999037
 31
0.0
  0
LINE
  5
328
100
AcDbEntity
  8
newlayer
 62
7
100
AcDbLine
 10
196.186100
 20
330.999037
 30
0.0
 11
196.186100
 21
337.448255
 31
0.0
  0
LINE
  5
329
100
AcDbEntity
  8
newlayer
 62
7
100
AcDbLine
 10
196.186100
 20
337.448255
 30
0.0
 11
186.287929
 21
337.448255
 31
0.0
  0
LINE
  5
32a
100
AcDbEntity
  8
newlayer
 62
7
100
AcDbLine
 10
186.287929
 20
337.448255
 30
0.0
 11
186.287929
 21
330.999037
 31
0.0
  0
LINE
  5
32b
100
AcDbEntity
  8
newlayer
 62
7
100
AcDbLine
 10
186.287929
 20
330.999037
 30
0.0
 11
121.186095
 21
330.999037
 31
0.0
  0
LINE
  5
32c
100
AcDbEntity
  8
newlayer
 62
7
100
AcDbLine
 10
121.186095
 20
330.999037
 30
0.0
 11
121.186095
 21
337.448255
 31
0.0
  0
LINE
  5
32d
100
AcDbEntity
  8
newlayer
 62
7
100
AcDbLine
 10
121.186095
 20
337.448255
 30
0.0
 11
111.287924
 21
337.448255
 31
0.0
  0
LINE
  5
32e
100
AcDbEntity
  8
newlayer
 62
7
100
AcDbLine
 10
111.287924
 20
337.448255
 30
0.0
 11
111.287924
 21
337.448255
 31
0.0
  0
SPLINE
  5
32f
100
AcDbEntity
  8
newlayer
 62
1
100
AcDbSpline
 70
0
 71
3
 72
10
 73
6
 74
4
 40
0.000000
 40
0.000000
 40
0.000000
 40
0.000000
 40
9.319165
 40
18.378091
 40
27.697256
 40
27.697256
 40
27.697256
 40
27.697256
 10
64.066632
 20
163.493110
 30
0.0
 10
63.592380
 20
160.371863
 30
0.0
 10
62.657120
 20
154.216532
 30
0.0
 10
55.791226
 20
146.972029
 30
0.0
 10
49.694905
 20
145.708033
 30
0.0
 10
46.603581
 20
145.067086
 30
0.0
 11
64.066632
 21
163.493110
 31
0.0
 11
61.712936
 21
154.476073
 31
0.0
 11
55.481426
 21
147.900936
 31
0.0
 11
46.603581
 21
145.067086
 31
0.0
  0
ENDSEC
  0
SECTION
  2
OBJECTS
  0
DICTIONARY
  5
C
330
0
100
AcDbDictionary
  3
ACAD_GROUP
350
D
  3
ACAD_MLINESTYLE
350
17
  0
DICTIONARY
  5
D
330
C
100
AcDbDictionary
  0
DICTIONARY
  5
1A
330
C
100
AcDbDictionary
  0
DICTIONARY
  5
17
330
C
100
AcDbDictionary
  3
STANDARD
350
18
  0
DICTIONARY
  5
19
330
C
100
AcDbDictionary
  0
ENDSEC
  0
EOF
