  0
SECTION
  2
HEADER
  9
$ACADVER
  1
AC1014
  9
$HANDSEED
  5
FFFF
  9
$MEASUREMENT
 70
     1
  0
ENDSEC
  0
SECTION
  2
TABLES
  0
TABLE
  2
VPORT
  5
8
330
0
100
AcDbSymbolTable
 70
     4
  0
VPORT
  5
2E
330
8
100
AcDbSymbolTableRecord
100
AcDbViewportTableRecord
  2
*ACTIVE
 70
     0
 10
0.0
 20
0.0
 11
1.0
 21
1.0
 12
210.0
 22
148.5
 13
0.0
 23
0.0
 14
10.0
 24
10.0
 15
10.0
 25
10.0
 16
0.0
 26
0.0
 36
1.0
 17
0.0
 27
0.0
 37
0.0
 40
341.0
 41
1.24
 42
50.0
 43
0.0
 44
0.0
 50
0.0
 51
0.0
 71
     0
 72
   100
 73
     1
 74
     3
 75
     0
 76
     0
 77
     0
 78
     0
  0
ENDTAB
  0
TABLE
  2
LTYPE
  5
5
330
0
100
AcDbSymbolTable
 70
     1
  0
LTYPE
  5
14
330
5
100
AcDbSymbolTableRecord
100
AcDbLinetypeTableRecord
  2
BYBLOCK
 70
     0
  3

 72
    65
 73
     0
 40
0.0
  0
LTYPE
  5
15
330
5
100
AcDbSymbolTableRecord
100
AcDbLinetypeTableRecord
  2
BYLAYER
 70
     0
  3

 72
    65
 73
     0
 40
0.0
  0
LTYPE
  5
16
330
5
100
AcDbSymbolTableRecord
100
AcDbLinetypeTableRecord
  2
CONTINUOUS
 70
     0
  3
Solid line
 72
    65
 73
     0
 40
0.0
  0
ENDTAB
  0
TABLE
  2
LAYER
  5
2
100
AcDbSymbolTable
 70
2
  0
LAYER
  5
50
100
AcDbSymbolTableRecord
100
AcDbLayerTableRecord
  2
0
 70
0
  6
CONTINUOUS
  0
LAYER
  5
51
100
AcDbSymbolTableRecord
100
AcDbLayerTableRecord
  2
newlayer
 70
0
  6
CONTINUOUS
  0
ENDTAB
  0
TABLE
  2
STYLE
  5
3
330
0
100
AcDbSymbolTable
 70
     1
  0
STYLE
  5
11
330
3
100
AcDbSymbolTableRecord
100
AcDbTextStyleTableRecord
  2
STANDARD
 70
     0
 40
0.0
 41
1.0
 50
0.0
 71
     0
 42
2.5
  3
txt
  4

  0
ENDTAB
  0
TABLE
  2
VIEW
  5
6
330
0
100
AcDbSymbolTable
 70
     0
  0
ENDTAB
  0
TABLE
  2
UCS
  5
7
330
0
100
AcDbSymbolTable
 70
     0
  0
ENDTAB
  0
TABLE
  2
APPID
  5
9
330
0
100
AcDbSymbolTable
 70
     2
  0
APPID
  5
12
330
9
100
AcDbSymbolTableRecord
100
AcDbRegAppTableRecord
  2
ACAD
 70
     0
  0
ENDTAB
  0
TABLE
  2
DIMSTYLE
  5
A
330
0
100
AcDbSymbolTable
 70
     1
  0
DIMSTYLE
105
27
330
A
100
AcDbSymbolTableRecord
100
AcDbDimStyleTableRecord
  2
ISO-25
 70
     0
  3

  4

  5

  6

  7

 40
1.0
 41
2.5
 42
0.625
 43
3.75
 44
1.25
 45
0.0
 46
0.0
 47
0.0
 48
0.0
140
2.5
141
2.5
142
0.0
143
0.03937007874016
144
1.0
145
0.0
146
1.0
147
0.625
 71
     0
 72
     0
 73
     0
 74
     0
 75
     0
 76
     0
 77
     1
 78
     8
170
     0
171
     3
172
     1
173
     0
174
     0
175
     0
176
     0
177
     0
178
     0
270
     2
271
     2
272
     2
273
     2
274
     3
340
11
275
     0
280
     0
281
     0
282
     0
283
     0
284
     8
285
     0
286
     0
287
     3
288
     0
  0
ENDTAB
  0
TABLE
  2
BLOCK_RECORD
  5
1
330
0
100
AcDbSymbolTable
 70
     1
  0
BLOCK_RECORD
  5
1F
330
1
100
AcDbSymbolTableRecord
100
AcDbBlockTableRecord
  2
*MODEL_SPACE
  0
BLOCK_RECORD
  5
1B
330
1
100
AcDbSymbolTableRecord
100
AcDbBlockTableRecord
  2
*PAPER_SPACE
  0
ENDTAB
  0
ENDSEC
  0
SECTION
  2
BLOCKS
  0
BLOCK
  5
20
330
1F
100
AcDbEntity
  8
0
100
AcDbBlockBegin
  2
*MODEL_SPACE
 70
     0
 10
0.0
 20
0.0
 30
0.0
  3
*MODEL_SPACE
  1

  0
ENDBLK
  5
21
330
1F
100
AcDbEntity
  8
0
100
AcDbBlockEnd
  0
BLOCK
  5
1C
330
1B
100
AcDbEntity
 67
     1
  8
0
100
AcDbBlockBegin
  2
*PAPER_SPACE
  1

  0
ENDBLK
  5
1D
330
1B
100
AcDbEntity
 67
     1
  8
0
100
AcDbBlockEnd
  0
ENDSEC
  0
SECTION
  2
ENTITIES
  0
LINE
  5
100
100
AcDbEntity
  8
newlayer
 62
1
100
AcDbLine
 10
189.573766
 20
163.499985
 30
0.0
 11
189.573766
 21
163.499985
 31
0.0
  0
LINE
  5
101
100
AcDbEntity
  8
newlayer
 62
7
100
AcDbLine
 10
60.068358
 20
300.943832
 30
0.0
 11
60.068358
 21
297.966718
 31
0.0
  0
LINE
  5
102
100
AcDbEntity
  8
newlayer
 62
7
100
AcDbLine
 10
60.068358
 20
297.966718
 30
0.0
 11
29.922397
 21
297.966718
 31
0.0
  0
LINE
  5
103
100
AcDbEntity
  8
newlayer
 62
7
100
AcDbLine
 10
29.922397
 20
297.966718
 30
0.0
 11
29.922397
 21
300.941076
 31
0.0
  0
LINE
  5
104
100
AcDbEntity
  8
newlayer
 62
7
100
AcDbLine
 10
29.922397
 20
300.941076
 30
0.0
 11
5.071405
 21
300.941076
 31
0.0
  0
LINE
  5
105
100
AcDbEntity
  8
newlayer
 62
7
100
AcDbLine
 10
5.071405
 20
300.941076
 30
0.0
 11
5.071405
 21
297.966718
 31
0.0
  0
LINE
  5
106
100
AcDbEntity
  8
newlayer
 62
7
100
AcDbLine
 10
5.071405
 20
297.966718
 30
0.0
 11
5.045497
 21
297.966718
 31
0.0
  0
LINE
  5
107
100
AcDbEntity
  8
newlayer
 62
7
100
AcDbLine
 10
5.045497
 20
297.966718
 30
0.0
 11
5.045497
 21
212.963809
 31
0.0
  0
LINE
  5
108
100
AcDbEntity
  8
newlayer
 62
7
100
AcDbLine
 10
5.045497
 20
212.963809
 30
0.0
 11
5.075263
 21
212.963809
 31
0.0
  0
LINE
  5
109
100
AcDbEntity
  8
newlayer
 62
7
100
AcDbLine
 10
5.075263
 20
212.963809
 30
0.0
 11
5.075263
 21
209.993861
 31
0.0
  0
LINE
  5
10a
100
AcDbEntity
  8
newlayer
 62
7
100
AcDbLine
 10
5.075263
 20
209.993861
 30
0.0
 11
29.919089
 21
209.993861
 31
0.0
  0
LINE
  5
10b
100
AcDbEntity
  8
newlayer
 62
7
100
AcDbLine
 10
29.919089
 20
209.993861
 30
0.0
 11
29.919089
 21
212.963809
 31
0.0
  0
LINE
  5
10c
100
AcDbEntity
  8
newlayer
 62
7
100
AcDbLine
 10
29.919089
 20
212.963809
 30
0.0
 11
60.081589
 21
212.963809
 31
0.0
  0
LINE
  5
10d
100
AcDbEntity
  8
newlayer
 62
7
100
AcDbLine
 10
60.081589
 20
212.963809
 30
0.0
 11
60.081589
 21
209.999926
 31
0.0
  0
LINE
  5
10e
100
AcDbEntity
  8
newlayer
 62
7
100
AcDbLine
 10
60.081589
 20
209.999926
 30
0.0
 11
84.912733
 21
209.999926
 31
0.0
  0
LINE
  5
10f
100
AcDbEntity
  8
newlayer
 62
7
100
AcDbLine
 10
84.912733
 20
209.999926
 30
0.0
 11
84.912733
 21
212.963809
 31
0.0
  0
LINE
  5
110
100
AcDbEntity
  8
newlayer
 62
7
100
AcDbLine
 10
84.912733
 20
212.963809
 30
0.0
 11
84.948564
 21
212.963809
 31
0.0
  0
LINE
  5
111
100
AcDbEntity
  8
newlayer
 62
7
100
AcDbLine
 10
84.948564
 20
212.963809
 30
0.0
 11
84.948564
 21
297.966718
 31
0.0
  0
LINE
  5
112
100
AcDbEntity
  8
newlayer
 62
7
100
AcDbLine
 10
84.948564
 20
297.966718
 30
0.0
 11
84.925422
 21
297.966718
 31
0.0
  0
LINE
  5
113
100
AcDbEntity
  8
newlayer
 62
7
100
AcDbLine
 10
84.925422
 20
297.966718
 30
0.0
 11
84.925422
 21
300.943832
 31
0.0
  0
LINE
  5
114
100
AcDbEntity
  8
newlayer
 62
7
100
AcDbLine
 10
84.925422
 20
300.943832
 30
0.0
 11
60.068367
 21
300.943832
 31
0.0
  0
LINE
  5
115
100
AcDbEntity
  8
newlayer
 62
7
100
AcDbLine
 10
60.068367
 20
300.943832
 30
0.0
 11
60.068358
 21
300.943832
 31
0.0
  0
LINE
  5
116
100
AcDbEntity
  8
newlayer
 62
1
100
AcDbLine
 10
14.418941
 20
282.279946
 30
0.0
 11
14.418941
 21
274.002905
 31
0.0
  0
LINE
  5
117
100
AcDbEntity
  8
newlayer
 62
1
100
AcDbLine
 10
14.418941
 20
274.002905
 30
0.0
 11
6.267020
 21
274.002905
 31
0.0
  0
LINE
  5
118
100
AcDbEntity
  8
newlayer
 62
1
100
AcDbLine
 10
6.267020
 20
274.002905
 30
0.0
 11
6.267020
 21
261.024549
 31
0.0
  0
LINE
  5
119
100
AcDbEntity
  8
newlayer
 62
1
100
AcDbLine
 10
6.267020
 20
261.024549
 30
0.0
 11
14.418941
 21
261.024549
 31
0.0
  0
LINE
  5
11a
100
AcDbEntity
  8
newlayer
 62
1
100
AcDbLine
 10
14.418941
 20
261.024549
 30
0.0
 11
14.418941
 21
240.954796
 31
0.0
  0
LINE
  5
11b
100
AcDbEntity
  8
newlayer
 62
1
100
AcDbLine
 10
14.418941
 20
240.954796
 30
0.0
 11
8.472432
 21
240.954796
 31
0.0
  0
LINE
  5
11c
100
AcDbEntity
  8
newlayer
 62
1
100
AcDbLine
 10
8.472432
 20
240.954796
 30
0.0
 11
8.472432
 21
231.883468
 31
0.0
  0
LINE
  5
11d
100
AcDbEntity
  8
newlayer
 62
1
100
AcDbLine
 10
8.472432
 20
231.883468
 30
0.0
 11
14.418941
 21
231.883468
 31
0.0
  0
LINE
  5
11e
100
AcDbEntity
  8
newlayer
 62
1
100
AcDbLine
 10
14.418941
 20
231.883468
 30
0.0
 11
14.418941
 21
228.657752
 31
0.0
  0
LINE
  5
11f
100
AcDbEntity
  8
newlayer
 62
1
100
AcDbLine
 10
14.418941
 20
228.657752
 30
0.0
 11
83.463059
 21
228.657752
 31
0.0
  0
LINE
  5
120
100
AcDbEntity
  8
newlayer
 62
1
100
AcDbLine
 10
83.463059
 20
228.657752
 30
0.0
 11
83.463059
 21
282.279946
 31
0.0
  0
LINE
  5
121
100
AcDbEntity
  8
newlayer
 62
1
100
AcDbLine
 10
83.463059
 20
282.279946
 30
0.0
 11
14.418941
 21
282.279946
 31
0.0
  0
LINE
  5
122
100
AcDbEntity
  8
newlayer
 62
1
100
AcDbLine
 10
14.418941
 20
282.279946
 30
0.0
 11
14.418941
 21
282.279946
 31
0.0
  0
LINE
  5
123
100
AcDbEntity
  8
newlayer
 62
7
100
AcDbLine
 10
82.247884
 20
236.488657
 30
0.0
 11
82.247884
 21
236.488657
 31
0.0
  0
SPLINE
  5
124
100
AcDbEntity
  8
newlayer
 62
1
100
AcDbSpline
 70
0
 71
3
 72
28
 73
24
 74
22
 40
0.000000
 40
0.000000
 40
0.000000
 40
0.000000
 40
4.242023
 40
8.448941
 40
12.690963
 40
16.932986
 40
21.139904
 40
25.381927
 40
33.854771
 40
42.076313
 40
50.549158
 40
54.791180
 40
58.998098
 40
63.240121
 40
67.482143
 40
71.689062
 40
75.931084
 40
80.173111
 40
84.380034
 40
88.622062
 40
92.864089
 40
97.071012
 40
101.313039
 40
101.313039
 40
101.313039
 40
101.313039
 10
189.573766
 20
163.499985
 30
0.0
 10
189.465737
 20
162.081928
 30
0.0
 10
189.250573
 20
159.257549
 30
0.0
 10
187.550318
 20
155.304922
 30
0.0
 10
184.963313
 20
151.909139
 30
0.0
 10
181.563494
 20
149.304906
 30
0.0
 10
177.609747
 20
147.669220
 30
0.0
 10
171.964366
 20
146.914774
 30
0.0
 10
164.877105
 20
148.817963
 30
0.0
 10
158.686870
 20
155.008136
 30
0.0
 10
156.783696
 20
162.095591
 30
0.0
 10
157.538140
 20
167.740575
 30
0.0
 10
159.173826
 20
171.695527
 30
0.0
 10
161.778061
 20
175.090791
 30
0.0
 10
165.173837
 20
177.694788
 30
0.0
 10
169.126488
 20
179.331966
 30
0.0
 10
173.368836
 20
179.892057
 30
0.0
 10
177.611610
 20
179.331981
 30
0.0
 10
181.563001
 20
177.694762
 30
0.0
 10
184.963458
 20
175.090936
 30
0.0
 10
187.550292
 20
171.695037
 30
0.0
 10
189.250589
 20
167.742432
 30
0.0
 10
189.465743
 20
164.918045
 30
0.0
 10
189.573766
 20
163.499985
 30
0.0
 11
189.573766
 21
163.499985
 31
0.0
 11
189.018578
 21
159.294450
 31
0.0
 11
187.408658
 21
155.407766
 31
0.0
 11
184.827469
 21
152.041429
 31
0.0
 11
181.461128
 21
149.460246
 31
0.0
 11
177.574441
 21
147.850333
 31
0.0
 11
173.368905
 21
147.295152
 31
0.0
 11
165.190017
 21
149.507588
 31
0.0
 11
159.376508
 21
155.321096
 31
0.0
 11
157.164072
 21
163.499985
 31
0.0
 11
157.719253
 21
167.705520
 31
0.0
 11
159.329167
 21
171.592208
 31
0.0
 11
161.910349
 21
174.958549
 31
0.0
 11
165.276686
 21
177.539737
 31
0.0
 11
169.163371
 21
179.149658
 31
0.0
 11
173.368905
 21
179.704846
 31
0.0
 11
177.574445
 21
179.149664
 31
0.0
 11
181.461136
 21
177.539747
 31
0.0
 11
184.827479
 21
174.958559
 31
0.0
 11
187.408667
 21
171.592216
 31
0.0
 11
189.018584
 21
167.705525
 31
0.0
 11
189.573766
 21
163.499985
 31
0.0
  0
LINE
  5
125
100
AcDbEntity
  8
newlayer
 62
7
100
AcDbLine
 10
82.246989
 20
264.430294
 30
0.0
 11
82.246989
 21
264.430294
 31
0.0
  0
SPLINE
  5
126
100
AcDbEntity
  8
newlayer
 62
7
100
AcDbSpline
 70
0
 71
3
 72
61
 73
57
 74
55
 40
0.000000
 40
0.000000
 40
0.000000
 40
0.000000
 40
0.285569
 40
0.566605
 40
0.843214
 40
1.114107
 40
1.389632
 40
1.667099
 40
1.951534
 40
2.234057
 40
2.515089
 40
2.655615
 40
2.796072
 40
2.936533
 40
3.075831
 40
3.215136
 40
3.354445
 40
3.494904
 40
3.635375
 40
3.775849
 40
3.916326
 40
4.056802
 40
4.197278
 40
4.336573
 40
4.475878
 40
4.615179
 40
4.755645
 40
4.896121
 40
5.036596
 40
5.177070
 40
5.317546
 40
5.458013
 40
5.597326
 40
5.736633
 40
5.875940
 40
6.016399
 40
6.156869
 40
6.297343
 40
6.437820
 40
6.578296
 40
6.718765
 40
6.858068
 40
6.997373
 40
7.136667
 40
7.277118
 40
7.417580
 40
7.558107
 40
7.839121
 40
8.121673
 40
8.406146
 40
8.683626
 40
8.959156
 40
9.230050
 40
9.506648
 40
9.787690
 40
10.073265
 40
10.073265
 40
10.073265
 40
10.073265
 10
82.247884
 20
236.488657
 30
0.0
 10
82.233204
 20
236.394597
 30
0.0
 10
82.204076
 20
236.207971
 30
0.0
 10
82.141079
 20
235.933578
 30
0.0
 10
82.038722
 20
235.675043
 30
0.0
 10
81.881909
 20
235.447324
 30
0.0
 10
81.685163
 20
235.253713
 30
0.0
 10
81.454547
 20
235.094084
 30
0.0
 10
81.198117
 20
234.974682
 30
0.0
 10
80.924001
 20
234.900356
 30
0.0
 10
80.688962
 20
234.878805
 30
0.0
 10
80.501590
 20
234.886864
 30
0.0
 10
80.362126
 20
234.905270
 30
0.0
 10
80.225259
 20
234.935891
 30
0.0
 10
80.091905
 20
234.978048
 30
0.0
 10
79.963036
 20
235.031405
 30
0.0
 10
79.838924
 20
235.095894
 30
0.0
 10
79.720586
 20
235.171186
 30
0.0
 10
79.608974
 20
235.256768
 30
0.0
 10
79.505248
 20
235.351764
 30
0.0
 10
79.410260
 20
235.455502
 30
0.0
 10
79.324673
 20
235.567119
 30
0.0
 10
79.249361
 20
235.685447
 30
0.0
 10
79.184852
 20
235.809550
 30
0.0
 10
79.131481
 20
235.938409
 30
0.0
 10
79.089328
 20
236.071773
 30
0.0
 10
79.058920
 20
236.208698
 30
0.0
 10
79.040512
 20
236.348138
 30
0.0
 10
79.034329
 20
236.488657
 30
0.0
 10
79.040511
 20
236.629176
 30
0.0
 10
79.058914
 20
236.768617
 30
0.0
 10
79.089332
 20
236.905545
 30
0.0
 10
79.131477
 20
237.038916
 30
0.0
 10
79.184857
 20
237.167780
 30
0.0
 10
79.249351
 20
237.291890
 30
0.0
 10
79.324677
 20
237.410205
 30
0.0
 10
79.410261
 20
237.521814
 30
0.0
 10
79.505245
 20
237.625551
 30
0.0
 10
79.608974
 20
237.720548
 30
0.0
 10
79.720590
 20
237.806133
 30
0.0
 10
79.838914
 20
237.881454
 30
0.0
 10
79.963040
 20
237.945920
 30
0.0
 10
80.091903
 20
237.999281
 30
0.0
 10
80.225256
 20
238.041437
 30
0.0
 10
80.362135
 20
238.071976
 30
0.0
 10
80.501587
 20
238.090460
 30
0.0
 10
80.688952
 20
238.098512
 30
0.0
 10
80.924031
 20
238.077299
 30
0.0
 10
81.198119
 20
238.002722
 30
0.0
 10
81.454531
 20
237.883255
 30
0.0
 10
81.685161
 20
237.723611
 30
0.0
 10
81.881907
 20
237.529992
 30
0.0
 10
82.038718
 20
237.302275
 30
0.0
 10
82.141083
 20
237.043744
 30
0.0
 10
82.204075
 20
236.769349
 30
0.0
 10
82.233203
 20
236.582719
 30
0.0
 10
82.247884
 20
236.488657
 30
0.0
 11
82.247884
 21
236.488657
 31
0.0
 11
82.200489
 21
236.207048
 31
0.0
 11
82.133833
 21
235.934032
 31
0.0
 11
82.028654
 21
235.678200
 31
0.0
 11
81.876309
 21
235.454204
 31
0.0
 11
81.680605
 21
235.260262
 31
0.0
 11
81.452590
 21
235.102156
 31
0.0
 11
81.194742
 21
234.982082
 31
0.0
 11
80.922022
 21
234.908305
 31
0.0
 11
80.642138
 21
234.882926
 31
0.0
 11
80.501741
 21
234.888926
 31
0.0
 11
80.362493
 21
234.907320
 31
0.0
 11
80.225409
 21
234.937931
 31
0.0
 11
80.092594
 21
234.979933
 31
0.0
 11
79.963887
 21
235.033230
 31
0.0
 11
79.840274
 21
235.097471
 31
0.0
 11
79.721765
 21
235.172864
 31
0.0
 11
79.610290
 21
235.258335
 31
0.0
 11
79.506705
 21
235.353221
 31
0.0
 11
79.411827
 21
235.456815
 31
0.0
 11
79.326350
 21
235.568293
 31
0.0
 11
79.250932
 21
235.686807
 31
0.0
 11
79.186680
 21
235.810398
 31
0.0
 11
79.133370
 21
235.939099
 31
0.0
 11
79.091403
 21
236.071928
 31
0.0
 11
79.060935
 21
236.209050
 31
0.0
 11
79.042550
 21
236.348317
 31
0.0
 11
79.036390
 21
236.488657
 31
0.0
 11
79.042548
 21
236.628997
 31
0.0
 11
79.060931
 21
236.768264
 31
0.0
 11
79.091403
 21
236.905386
 31
0.0
 11
79.133370
 21
237.038228
 31
0.0
 11
79.186680
 21
237.166931
 31
0.0
 11
79.250932
 21
237.290535
 31
0.0
 11
79.326350
 21
237.409030
 31
0.0
 11
79.411826
 21
237.520500
 31
0.0
 11
79.506702
 21
237.624094
 31
0.0
 11
79.610289
 21
237.718980
 31
0.0
 11
79.721765
 21
237.804459
 31
0.0
 11
79.840274
 21
237.879872
 31
0.0
 11
79.963887
 21
237.944099
 31
0.0
 11
80.092594
 21
237.997395
 31
0.0
 11
80.225409
 21
238.039384
 31
0.0
 11
80.362493
 21
238.069951
 31
0.0
 11
80.501741
 21
238.088384
 31
0.0
 11
80.642138
 21
238.094417
 31
0.0
 11
80.922022
 21
238.069245
 31
0.0
 11
81.194742
 21
237.995355
 31
0.0
 11
81.452587
 21
237.875187
 31
0.0
 11
81.680604
 21
237.717061
 31
0.0
 11
81.876308
 21
237.523111
 31
0.0
 11
82.028654
 21
237.299115
 31
0.0
 11
82.133833
 21
237.043295
 31
0.0
 11
82.200489
 21
236.770272
 31
0.0
 11
82.247884
 21
236.488657
 31
0.0
  0
LINE
  5
127
100
AcDbEntity
  8
newlayer
 62
7
100
AcDbLine
 10
30.202784
 20
231.423643
 30
0.0
 11
30.202784
 21
231.423643
 31
0.0
  0
LINE
  5
128
100
AcDbEntity
  8
newlayer
 62
7
100
AcDbLine
 10
31.446411
 20
279.659541
 30
0.0
 11
31.446411
 21
279.659541
 31
0.0
  0
SPLINE
  5
129
100
AcDbEntity
  8
newlayer
 62
7
100
AcDbSpline
 70
0
 71
3
 72
61
 73
57
 74
55
 40
0.000000
 40
0.000000
 40
0.000000
 40
0.000000
 40
0.140814
 40
0.281073
 40
0.420793
 40
0.559682
 40
0.699166
 40
0.838922
 40
0.979595
 40
1.119995
 40
1.260281
 40
1.400681
 40
1.541184
 40
1.681715
 40
1.821065
 40
1.960376
 40
2.099623
 40
2.239967
 40
2.380384
 40
2.521060
 40
2.803017
 40
3.086112
 40
3.369220
 40
3.643537
 40
3.917753
 40
4.191904
 40
4.474543
 40
4.757380
 40
5.040129
 40
5.322859
 40
5.605688
 40
5.888326
 40
6.162477
 40
6.436693
 40
6.711010
 40
6.994071
 40
7.277136
 40
7.559113
 40
7.699790
 40
7.840212
 40
7.980542
 40
8.119789
 40
8.259100
 40
8.398450
 40
8.538981
 40
8.679479
 40
8.819865
 40
8.960166
 40
9.100572
 40
9.241246
 40
9.381001
 40
9.520478
 40
9.659349
 40
9.799088
 40
9.939346
 40
10.080141
 40
10.080141
 40
10.080141
 40
10.080141
 10
82.246989
 20
264.430294
 30
0.0
 10
82.243425
 20
264.383490
 30
0.0
 10
82.236311
 20
264.290067
 30
0.0
 10
82.220536
 20
264.150633
 30
0.0
 10
82.194556
 20
264.013222
 30
0.0
 10
82.153536
 20
263.879737
 30
0.0
 10
82.099509
 20
263.751042
 30
0.0
 10
82.033947
 20
263.627186
 30
0.0
 10
81.958313
 20
263.508859
 30
0.0
 10
81.872873
 20
263.397165
 30
0.0
 10
81.778127
 20
263.293359
 30
0.0
 10
81.674498
 20
263.198363
 30
0.0
 10
81.562865
 20
263.112791
 30
0.0
 10
81.444464
 20
263.037506
 30
0.0
 10
81.320297
 20
262.973037
 30
0.0
 10
81.191434
 20
262.919678
 30
0.0
 10
81.058145
 20
262.877481
 30
0.0
 10
80.921328
 20
262.846967
 30
0.0
 10
80.781877
 20
262.828479
 30
0.0
 10
80.594162
 20
262.820442
 30
0.0
 10
80.358542
 20
262.841647
 30
0.0
 10
80.084339
 20
262.915921
 30
0.0
 10
79.829143
 20
263.035110
 30
0.0
 10
79.601599
 20
263.195887
 30
0.0
 10
79.406831
 20
263.390782
 30
0.0
 10
79.246185
 20
263.618130
 30
0.0
 10
79.126787
 20
263.872896
 30
0.0
 10
79.052555
 20
264.147168
 30
0.0
 10
79.026966
 20
264.430287
 30
0.0
 10
79.052556
 20
264.713404
 30
0.0
 10
79.126788
 20
264.987667
 30
0.0
 10
79.246186
 20
265.242430
 30
0.0
 10
79.406830
 20
265.469779
 30
0.0
 10
79.601602
 20
265.664669
 30
0.0
 10
79.829118
 20
265.825458
 30
0.0
 10
80.084348
 20
265.944557
 30
0.0
 10
80.358573
 20
266.018565
 30
0.0
 10
80.594150
 20
266.040175
 30
0.0
 10
80.781881
 20
266.032047
 30
0.0
 10
80.921315
 20
266.013503
 30
0.0
 10
81.058155
 20
265.983100
 30
0.0
 10
81.191432
 20
265.940875
 30
0.0
 10
81.320298
 20
265.887524
 30
0.0
 10
81.444464
 20
265.823053
 30
0.0
 10
81.562864
 20
265.747771
 30
0.0
 10
81.674492
 20
265.662203
 30
0.0
 10
81.778140
 20
265.567229
 30
0.0
 10
81.872868
 20
265.463402
 30
0.0
 10
81.958312
 20
265.351704
 30
0.0
 10
82.033946
 20
265.233375
 30
0.0
 10
82.099508
 20
265.109520
 30
0.0
 10
82.153533
 20
264.980834
 30
0.0
 10
82.194560
 20
264.847355
 30
0.0
 10
82.220539
 20
264.709942
 30
0.0
 10
82.236307
 20
264.570508
 30
0.0
 10
82.243424
 20
264.477092
 30
0.0
 10
82.246989
 20
264.430294
 30
0.0
 11
82.246989
 21
264.430294
 31
0.0
 11
82.235438
 21
264.289954
 31
0.0
 11
82.218792
 21
264.150687
 31
0.0
 11
82.191976
 21
264.013565
 31
0.0
 11
82.151439
 21
263.880723
 31
0.0
 11
82.097668
 21
263.752020
 31
0.0
 11
82.032447
 21
263.628416
 31
0.0
 11
81.956641
 21
263.509915
 31
0.0
 11
81.871288
 21
263.398438
 31
0.0
 11
81.776677
 21
263.294858
 31
0.0
 11
81.673201
 21
263.199965
 31
0.0
 11
81.561695
 21
263.114480
 31
0.0
 11
81.443105
 21
263.039080
 31
0.0
 11
81.319439
 21
262.974851
 31
0.0
 11
81.190729
 21
262.921548
 31
0.0
 11
81.057970
 21
262.879539
 31
0.0
 11
80.920991
 21
262.848991
 31
0.0
 11
80.781787
 21
262.830566
 31
0.0
 11
80.641241
 21
262.824534
 31
0.0
 11
80.360410
 21
262.849706
 31
0.0
 11
80.087128
 21
262.923596
 31
0.0
 11
79.830789
 21
263.043764
 31
0.0
 11
79.606628
 21
263.201884
 31
0.0
 11
79.412771
 21
263.395827
 31
0.0
 11
79.254725
 21
263.619836
 31
0.0
 11
79.134541
 21
263.875650
 31
0.0
 11
79.060659
 21
264.148667
 31
0.0
 11
79.035495
 21
264.430294
 31
0.0
 11
79.060659
 21
264.711902
 31
0.0
 11
79.134541
 21
264.984911
 31
0.0
 11
79.254725
 21
265.240723
 31
0.0
 11
79.412771
 21
265.464733
 31
0.0
 11
79.606628
 21
265.658676
 31
0.0
 11
79.830789
 21
265.816795
 31
0.0
 11
80.087128
 21
265.936851
 31
0.0
 11
80.360410
 21
266.010628
 31
0.0
 11
80.641241
 21
266.036026
 31
0.0
 11
80.781787
 21
266.029962
 31
0.0
 11
80.920991
 21
266.011506
 31
0.0
 11
81.057970
 21
265.981020
 31
0.0
 11
81.190729
 21
265.939012
 31
0.0
 11
81.319439
 21
265.885709
 31
0.0
 11
81.443105
 21
265.821480
 31
0.0
 11
81.561695
 21
265.746081
 31
0.0
 11
81.673201
 21
265.660603
 31
0.0
 11
81.776677
 21
265.565730
 31
0.0
 11
81.871288
 21
265.462130
 31
0.0
 11
81.956641
 21
265.350646
 31
0.0
 11
82.032447
 21
265.232144
 31
0.0
 11
82.097668
 21
265.108541
 31
0.0
 11
82.151439
 21
264.979845
 31
0.0
 11
82.191976
 21
264.847023
 31
0.0
 11
82.218795
 21
264.709882
 31
0.0
 11
82.235436
 21
264.570615
 31
0.0
 11
82.246989
 21
264.430294
 31
0.0
  0
LINE
  5
12a
100
AcDbEntity
  8
newlayer
 62
7
100
AcDbLine
 10
113.709845
 20
224.443317
 30
0.0
 11
113.709845
 21
224.443317
 31
0.0
  0
SPLINE
  5
12b
100
AcDbEntity
  8
newlayer
 62
7
100
AcDbSpline
 70
0
 71
3
 72
19
 73
15
 74
13
 40
0.000000
 40
0.000000
 40
0.000000
 40
0.000000
 40
1.882292
 40
3.708756
 40
5.591047
 40
7.473339
 40
9.299803
 40
11.182095
 40
13.064387
 40
14.890852
 40
16.773145
 40
18.655437
 40
20.481902
 40
22.364195
 40
22.364195
 40
22.364195
 40
22.364195
 10
113.709845
 20
224.443317
 30
0.0
 10
113.610900
 20
225.077937
 30
0.0
 10
113.415943
 20
226.328355
 30
0.0
 10
111.982724
 20
227.704962
 30
0.0
 10
110.113151
 20
228.215038
 30
0.0
 10
108.223949
 20
227.704962
 30
0.0
 10
106.848451
 20
226.328355
 30
0.0
 10
106.337998
 20
224.443316
 30
0.0
 10
106.848450
 20
222.558278
 30
0.0
 10
108.223948
 20
221.181669
 30
0.0
 10
110.113151
 20
220.671592
 30
0.0
 10
111.982725
 20
221.181669
 30
0.0
 10
113.415944
 20
222.558278
 30
0.0
 10
113.610900
 20
223.808696
 30
0.0
 10
113.709845
 20
224.443317
 30
0.0
 11
113.709845
 21
224.443317
 31
0.0
 11
113.218339
 21
226.260304
 31
0.0
 11
111.926834
 21
227.551809
 31
0.0
 11
110.109847
 21
228.043315
 31
0.0
 11
108.292859
 21
227.551809
 31
0.0
 11
107.001354
 21
226.260304
 31
0.0
 11
106.509848
 21
224.443317
 31
0.0
 11
107.001353
 21
222.626328
 31
0.0
 11
108.292858
 21
221.334822
 31
0.0
 11
110.109847
 21
220.843315
 31
0.0
 11
111.926835
 21
221.334822
 31
0.0
 11
113.218340
 21
222.626328
 31
0.0
 11
113.709845
 21
224.443317
 31
0.0
  0
LINE
  5
12c
100
AcDbEntity
  8
newlayer
 62
7
100
AcDbLine
 10
123.539843
 20
224.443317
 30
0.0
 11
123.539843
 21
224.443317
 31
0.0
  0
LINE
  5
12d
100
AcDbEntity
  8
newlayer
 62
7
100
AcDbLine
 10
140.289844
 20
221.958127
 30
0.0
 11
142.789854
 21
221.958127
 31
0.0
  0
LINE
  5
12e
100
AcDbEntity
  8
newlayer
 62
7
100
AcDbLine
 10
142.789854
 20
221.958127
 30
0.0
 11
142.789854
 21
227.358128
 31
0.0
  0
LINE
  5
12f
100
AcDbEntity
  8
newlayer
 62
7
100
AcDbLine
 10
142.789854
 20
227.358128
 30
0.0
 11
140.289844
 21
227.358128
 31
0.0
  0
LINE
  5
130
100
AcDbEntity
  8
newlayer
 62
7
100
AcDbLine
 10
140.289844
 20
227.358128
 30
0.0
 11
140.289844
 21
221.958127
 31
0.0
  0
SPLINE
  5
131
100
AcDbEntity
  8
newlayer
 62
7
100
AcDbSpline
 70
0
 71
3
 72
19
 73
15
 74
13
 40
0.000000
 40
0.000000
 40
0.000000
 40
0.000000
 40
1.045717
 40
2.060418
 40
3.106134
 40
4.151851
 40
5.166552
 40
6.212268
 40
7.257986
 40
8.272687
 40
9.318405
 40
10.364122
 40
11.378824
 40
12.424542
 40
12.424542
 40
12.424542
 40
12.424542
 10
123.539843
 20
224.443317
 30
0.0
 10
123.484873
 20
224.795883
 30
0.0
 10
123.376564
 20
225.490559
 30
0.0
 10
122.580332
 20
226.255340
 30
0.0
 10
121.541682
 20
226.538718
 30
0.0
 10
120.492127
 20
226.255340
 30
0.0
 10
119.727963
 20
225.490559
 30
0.0
 10
119.444379
 20
224.443316
 30
0.0
 10
119.727962
 20
223.396073
 30
0.0
 10
120.492126
 20
222.631291
 30
0.0
 10
121.541682
 20
222.347912
 30
0.0
 10
122.580333
 20
222.631291
 30
0.0
 10
123.376565
 20
223.396073
 30
0.0
 10
123.484873
 20
224.090750
 30
0.0
 10
123.539843
 20
224.443317
 30
0.0
 11
123.539843
 21
224.443317
 31
0.0
 11
123.266784
 21
225.452753
 31
0.0
 11
122.549283
 21
226.170256
 31
0.0
 11
121.539847
 21
226.443316
 31
0.0
 11
120.530410
 21
226.170256
 31
0.0
 11
119.812909
 21
225.452753
 31
0.0
 11
119.539851
 21
224.443317
 31
0.0
 11
119.812908
 21
223.433879
 31
0.0
 11
120.530410
 21
222.716375
 31
0.0
 11
121.539847
 21
222.443315
 31
0.0
 11
122.549284
 21
222.716375
 31
0.0
 11
123.266785
 21
223.433879
 31
0.0
 11
123.539843
 21
224.443317
 31
0.0
  0
LINE
  5
132
100
AcDbEntity
  8
newlayer
 62
7
100
AcDbLine
 10
131.803027
 20
233.153310
 30
0.0
 11
131.803027
 21
233.153310
 31
0.0
  0
SPLINE
  5
133
100
AcDbEntity
  8
newlayer
 62
7
100
AcDbSpline
 70
0
 71
3
 72
25
 73
21
 74
19
 40
0.000000
 40
0.000000
 40
0.000000
 40
0.000000
 40
0.754578
 40
1.486775
 40
2.241353
 40
2.619145
 40
2.993810
 40
3.371602
 40
3.749394
 40
4.124060
 40
4.501851
 40
4.879643
 40
5.254309
 40
5.632101
 40
6.009893
 40
6.384558
 40
6.762350
 40
7.516928
 40
8.249125
 40
9.003703
 40
9.003703
 40
9.003703
 40
9.003703
 10
131.803027
 20
233.153310
 30
0.0
 10
131.763316
 20
233.407701
 30
0.0
 10
131.685073
 20
233.908937
 30
0.0
 10
131.111188
 20
234.461049
 30
0.0
 10
130.485550
 20
234.630344
 30
0.0
 10
129.982075
 20
234.563186
 30
0.0
 10
129.629995
 20
234.417511
 30
0.0
 10
129.327574
 20
234.185583
 30
0.0
 10
129.095673
 20
233.883157
 30
0.0
 10
128.949864
 20
233.531139
 30
0.0
 10
128.899983
 20
233.153310
 30
0.0
 10
128.949864
 20
232.775481
 30
0.0
 10
129.095673
 20
232.423463
 30
0.0
 10
129.327574
 20
232.121037
 30
0.0
 10
129.629995
 20
231.889109
 30
0.0
 10
129.982075
 20
231.743433
 30
0.0
 10
130.485550
 20
231.676275
 30
0.0
 10
131.111188
 20
231.845571
 30
0.0
 10
131.685073
 20
232.397682
 30
0.0
 10
131.763316
 20
232.898919
 30
0.0
 10
131.803027
 20
233.153310
 30
0.0
 11
131.803027
 21
233.153310
 31
0.0
 11
131.605993
 21
233.881709
 31
0.0
 11
131.088253
 21
234.399452
 31
0.0
 11
130.359856
 21
234.596493
 31
0.0
 11
129.985313
 21
234.547052
 31
0.0
 11
129.639166
 21
234.403677
 31
0.0
 11
129.339360
 21
234.173800
 31
0.0
 11
129.109480
 21
233.873997
 31
0.0
 11
128.966101
 21
233.527852
 31
0.0
 11
128.916656
 21
233.153310
 31
0.0
 11
128.966101
 21
232.778767
 31
0.0
 11
129.109480
 21
232.432622
 31
0.0
 11
129.339360
 21
232.132819
 31
0.0
 11
129.639166
 21
231.902942
 31
0.0
 11
129.985313
 21
231.759567
 31
0.0
 11
130.359856
 21
231.710127
 31
0.0
 11
131.088253
 21
231.907167
 31
0.0
 11
131.605993
 21
232.424911
 31
0.0
 11
131.803027
 21
233.153310
 31
0.0
  0
LINE
  5
134
100
AcDbEntity
  8
newlayer
 62
7
100
AcDbLine
 10
131.803027
 20
215.733321
 30
0.0
 11
131.803027
 21
215.733321
 31
0.0
  0
LINE
  5
135
100
AcDbEntity
  8
newlayer
 62
7
100
AcDbLine
 10
91.084231
 20
236.366430
 30
0.0
 11
116.015798
 21
236.366430
 31
0.0
  0
LINE
  5
136
100
AcDbEntity
  8
newlayer
 62
7
100
AcDbLine
 10
116.015798
 20
236.366430
 30
0.0
 11
116.015798
 21
239.298010
 31
0.0
  0
LINE
  5
137
100
AcDbEntity
  8
newlayer
 62
7
100
AcDbLine
 10
116.015798
 20
239.298010
 30
0.0
 11
91.084231
 21
239.298010
 31
0.0
  0
LINE
  5
138
100
AcDbEntity
  8
newlayer
 62
7
100
AcDbLine
 10
91.084231
 20
239.298010
 30
0.0
 11
91.084231
 21
236.366430
 31
0.0
  0
LINE
  5
139
100
AcDbEntity
  8
newlayer
 62
7
100
AcDbLine
 10
146.084205
 20
236.366430
 30
0.0
 11
171.015801
 21
236.366430
 31
0.0
  0
LINE
  5
13a
100
AcDbEntity
  8
newlayer
 62
7
100
AcDbLine
 10
171.015801
 20
236.366430
 30
0.0
 11
171.015801
 21
239.298010
 31
0.0
  0
LINE
  5
13b
100
AcDbEntity
  8
newlayer
 62
7
100
AcDbLine
 10
171.015801
 20
239.298010
 30
0.0
 11
146.084205
 21
239.298010
 31
0.0
  0
LINE
  5
13c
100
AcDbEntity
  8
newlayer
 62
7
100
AcDbLine
 10
146.084205
 20
239.298010
 30
0.0
 11
146.084205
 21
236.366430
 31
0.0
  0
LINE
  5
13d
100
AcDbEntity
  8
newlayer
 62
1
100
AcDbLine
 10
74.140811
 20
38.846572
 30
0.0
 11
74.140811
 21
102.846568
 31
0.0
  0
LINE
  5
13e
100
AcDbEntity
  8
newlayer
 62
1
100
AcDbLine
 10
74.140811
 20
102.846568
 30
0.0
 11
4.140796
 21
102.846568
 31
0.0
  0
LINE
  5
13f
100
AcDbEntity
  8
newlayer
 62
1
100
AcDbLine
 10
4.140796
 20
102.846568
 30
0.0
 11
4.140796
 21
38.846572
 31
0.0
  0
LINE
  5
140
100
AcDbEntity
  8
newlayer
 62
1
100
AcDbLine
 10
4.140796
 20
38.846572
 30
0.0
 11
74.140811
 21
38.846572
 31
0.0
  0
SPLINE
  5
141
100
AcDbEntity
  8
newlayer
 62
7
100
AcDbSpline
 70
0
 71
3
 72
25
 73
21
 74
19
 40
0.000000
 40
0.000000
 40
0.000000
 40
0.000000
 40
0.754578
 40
1.486775
 40
2.241353
 40
2.619145
 40
2.993810
 40
3.371602
 40
3.749394
 40
4.124060
 40
4.501851
 40
4.879643
 40
5.254308
 40
5.632099
 40
6.009891
 40
6.384556
 40
6.762347
 40
7.516924
 40
8.249121
 40
9.003697
 40
9.003697
 40
9.003697
 40
9.003697
 10
131.803027
 20
215.733321
 30
0.0
 10
131.763316
 20
215.987712
 30
0.0
 10
131.685073
 20
216.488948
 30
0.0
 10
131.111188
 20
217.041060
 30
0.0
 10
130.485550
 20
217.210355
 30
0.0
 10
129.982075
 20
217.143198
 30
0.0
 10
129.629995
 20
216.997522
 30
0.0
 10
129.327574
 20
216.765594
 30
0.0
 10
129.095673
 20
216.463168
 30
0.0
 10
128.949864
 20
216.111150
 30
0.0
 10
128.899983
 20
215.733321
 30
0.0
 10
128.949864
 20
215.355493
 30
0.0
 10
129.095674
 20
215.003475
 30
0.0
 10
129.327575
 20
214.701050
 30
0.0
 10
129.629996
 20
214.469122
 30
0.0
 10
129.982075
 20
214.323447
 30
0.0
 10
130.485549
 20
214.256289
 30
0.0
 10
131.111187
 20
214.425584
 30
0.0
 10
131.685072
 20
214.977695
 30
0.0
 10
131.763316
 20
215.478930
 30
0.0
 10
131.803027
 20
215.733321
 30
0.0
 11
131.803027
 21
215.733321
 31
0.0
 11
131.605993
 21
216.461720
 31
0.0
 11
131.088253
 21
216.979464
 31
0.0
 11
130.359856
 21
217.176504
 31
0.0
 11
129.985313
 21
217.127063
 31
0.0
 11
129.639166
 21
216.983688
 31
0.0
 11
129.339360
 21
216.753812
 31
0.0
 11
129.109480
 21
216.454009
 31
0.0
 11
128.966101
 21
216.107863
 31
0.0
 11
128.916656
 21
215.733321
 31
0.0
 11
128.966101
 21
215.358779
 31
0.0
 11
129.109481
 21
215.012634
 31
0.0
 11
129.339361
 21
214.712832
 31
0.0
 11
129.639166
 21
214.482956
 31
0.0
 11
129.985313
 21
214.339581
 31
0.0
 11
130.359856
 21
214.290141
 31
0.0
 11
131.088252
 21
214.487181
 31
0.0
 11
131.605992
 21
215.004923
 31
0.0
 11
131.803027
 21
215.733321
 31
0.0
  0
SPLINE
  5
142
100
AcDbEntity
  8
newlayer
 62
7
100
AcDbSpline
 70
0
 71
3
 72
10
 73
6
 74
4
 40
0.000000
 40
0.000000
 40
0.000000
 40
0.000000
 40
4.242506
 40
8.485015
 40
12.727525
 40
12.727525
 40
12.727525
 40
12.727525
 10
61.951576
 20
97.185368
 30
0.0
 10
61.951576
 20
95.771200
 30
0.0
 10
61.951576
 20
92.942861
 30
0.0
 10
61.951576
 20
88.700353
 30
0.0
 10
61.951576
 20
85.872013
 30
0.0
 10
61.951576
 20
84.457843
 30
0.0
 11
61.951576
 21
97.185368
 31
0.0
 11
61.951576
 21
92.942862
 31
0.0
 11
61.951576
 21
88.700354
 31
0.0
 11
61.951576
 21
84.457843
 31
0.0
  0
SPLINE
  5
143
100
AcDbEntity
  8
newlayer
 62
7
100
AcDbSpline
 70
0
 71
3
 72
10
 73
6
 74
4
 40
0.000000
 40
0.000000
 40
0.000000
 40
0.000000
 40
3.595942
 40
7.191890
 40
10.787832
 40
10.787832
 40
10.787832
 40
10.787832
 10
61.951576
 20
84.457843
 30
0.0
 10
63.150224
 20
84.457843
 30
0.0
 10
65.547520
 20
84.457843
 30
0.0
 10
69.143464
 20
84.457843
 30
0.0
 10
71.540761
 20
84.457843
 30
0.0
 10
72.739408
 20
84.457843
 30
0.0
 11
61.951576
 21
84.457843
 31
0.0
 11
65.547518
 21
84.457843
 31
0.0
 11
69.143466
 21
84.457843
 31
0.0
 11
72.739408
 21
84.457843
 31
0.0
  0
SPLINE
  5
144
100
AcDbEntity
  8
newlayer
 62
7
100
AcDbSpline
 70
0
 71
3
 72
10
 73
6
 74
4
 40
0.000000
 40
0.000000
 40
0.000000
 40
0.000000
 40
4.275743
 40
8.551485
 40
12.827226
 40
12.827226
 40
12.827226
 40
12.827226
 10
72.739408
 20
84.457843
 30
0.0
 10
72.739408
 20
85.883091
 30
0.0
 10
72.739408
 20
88.733586
 30
0.0
 10
72.739408
 20
93.009328
 30
0.0
 10
72.739408
 20
95.859822
 30
0.0
 10
72.739408
 20
97.285069
 30
0.0
 11
72.739408
 21
84.457843
 31
0.0
 11
72.739408
 21
88.733586
 31
0.0
 11
72.739408
 21
93.009328
 31
0.0
 11
72.739408
 21
97.285069
 31
0.0
  0
LINE
  5
145
100
AcDbEntity
  8
newlayer
 62
7
100
AcDbLine
 10
61.951576
 20
97.285069
 30
0.0
 11
61.951576
 21
97.185368
 31
0.0
  0
LINE
  5
146
100
AcDbEntity
  8
newlayer
 62
7
100
AcDbLine
 10
61.951576
 20
97.185368
 30
0.0
 11
61.951576
 21
97.185368
 31
0.0
  0
LINE
  5
147
100
AcDbEntity
  8
newlayer
 62
7
100
AcDbLine
 10
88.000000
 20
114.000000
 30
0.0
 11
99.833333
 21
114.000000
 31
0.0
  0
LINE
  5
148
100
AcDbEntity
  8
newlayer
 62
7
100
AcDbLine
 10
99.833333
 20
114.000000
 30
0.0
 11
99.833333
 21
117.000000
 31
0.0
  0
LINE
  5
149
100
AcDbEntity
  8
newlayer
 62
7
100
AcDbLine
 10
99.833333
 20
117.000000
 30
0.0
 11
109.833333
 21
117.000000
 31
0.0
  0
LINE
  5
14a
100
AcDbEntity
  8
newlayer
 62
7
100
AcDbLine
 10
109.833333
 20
117.000000
 30
0.0
 11
109.833333
 21
114.000000
 31
0.0
  0
LINE
  5
14b
100
AcDbEntity
  8
newlayer
 62
7
100
AcDbLine
 10
109.833333
 20
114.000000
 30
0.0
 11
121.666667
 21
114.000000
 31
0.0
  0
LINE
  5
14c
100
AcDbEntity
  8
newlayer
 62
7
100
AcDbLine
 10
121.666667
 20
114.000000
 30
0.0
 11
121.666667
 21
117.000000
 31
0.0
  0
LINE
  5
14d
100
AcDbEntity
  8
newlayer
 62
7
100
AcDbLine
 10
121.666667
 20
117.000000
 30
0.0
 11
131.666667
 21
117.000000
 31
0.0
  0
LINE
  5
14e
100
AcDbEntity
  8
newlayer
 62
7
100
AcDbLine
 10
131.666667
 20
117.000000
 30
0.0
 11
131.666667
 21
114.000000
 31
0.0
  0
LINE
  5
14f
100
AcDbEntity
  8
newlayer
 62
7
100
AcDbLine
 10
131.666667
 20
114.000000
 30
0.0
 11
143.500000
 21
114.000000
 31
0.0
  0
LINE
  5
150
100
AcDbEntity
  8
newlayer
 62
7
100
AcDbLine
 10
143.500000
 20
114.000000
 30
0.0
 11
143.500000
 21
117.000000
 31
0.0
  0
LINE
  5
151
100
AcDbEntity
  8
newlayer
 62
7
100
AcDbLine
 10
143.500000
 20
117.000000
 30
0.0
 11
153.500000
 21
117.000000
 31
0.0
  0
LINE
  5
152
100
AcDbEntity
  8
newlayer
 62
7
100
AcDbLine
 10
153.500000
 20
117.000000
 30
0.0
 11
153.500000
 21
114.000000
 31
0.0
  0
LINE
  5
153
100
AcDbEntity
  8
newlayer
 62
7
100
AcDbLine
 10
153.500000
 20
114.000000
 30
0.0
 11
165.333333
 21
114.000000
 31
0.0
  0
LINE
  5
154
100
AcDbEntity
  8
newlayer
 62
7
100
AcDbLine
 10
165.333333
 20
114.000000
 30
0.0
 11
165.333333
 21
117.000000
 31
0.0
  0
LINE
  5
155
100
AcDbEntity
  8
newlayer
 62
7
100
AcDbLine
 10
165.333333
 20
117.000000
 30
0.0
 11
175.333333
 21
117.000000
 31
0.0
  0
LINE
  5
156
100
AcDbEntity
  8
newlayer
 62
7
100
AcDbLine
 10
175.333333
 20
117.000000
 30
0.0
 11
175.333333
 21
114.000000
 31
0.0
  0
LINE
  5
157
100
AcDbEntity
  8
newlayer
 62
7
100
AcDbLine
 10
175.333333
 20
114.000000
 30
0.0
 11
187.166667
 21
114.000000
 31
0.0
  0
LINE
  5
158
100
AcDbEntity
  8
newlayer
 62
7
100
AcDbLine
 10
187.166667
 20
114.000000
 30
0.0
 11
187.166667
 21
117.000000
 31
0.0
  0
LINE
  5
159
100
AcDbEntity
  8
newlayer
 62
7
100
AcDbLine
 10
187.166667
 20
117.000000
 30
0.0
 11
197.166667
 21
117.000000
 31
0.0
  0
LINE
  5
15a
100
AcDbEntity
  8
newlayer
 62
7
100
AcDbLine
 10
197.166667
 20
117.000000
 30
0.0
 11
197.166667
 21
114.000000
 31
0.0
  0
LINE
  5
15b
100
AcDbEntity
  8
newlayer
 62
7
100
AcDbLine
 10
197.166667
 20
114.000000
 30
0.0
 11
209.000000
 21
114.000000
 31
0.0
  0
LINE
  5
15c
100
AcDbEntity
  8
newlayer
 62
7
100
AcDbLine
 10
209.000000
 20
114.000000
 30
0.0
 11
209.000000
 21
103.000000
 31
0.0
  0
LINE
  5
15d
100
AcDbEntity
  8
newlayer
 62
7
100
AcDbLine
 10
209.000000
 20
103.000000
 30
0.0
 11
206.000000
 21
103.000000
 31
0.0
  0
LINE
  5
15e
100
AcDbEntity
  8
newlayer
 62
7
100
AcDbLine
 10
206.000000
 20
103.000000
 30
0.0
 11
206.000000
 21
93.000000
 31
0.0
  0
LINE
  5
15f
100
AcDbEntity
  8
newlayer
 62
7
100
AcDbLine
 10
206.000000
 20
93.000000
 30
0.0
 11
209.000000
 21
93.000000
 31
0.0
  0
LINE
  5
160
100
AcDbEntity
  8
newlayer
 62
7
100
AcDbLine
 10
209.000000
 20
93.000000
 30
0.0
 11
209.000000
 21
79.000000
 31
0.0
  0
LINE
  5
161
100
AcDbEntity
  8
newlayer
 62
7
100
AcDbLine
 10
209.000000
 20
79.000000
 30
0.0
 11
206.000000
 21
79.000000
 31
0.0
  0
LINE
  5
162
100
AcDbEntity
  8
newlayer
 62
7
100
AcDbLine
 10
206.000000
 20
79.000000
 30
0.0
 11
206.000000
 21
69.000000
 31
0.0
  0
LINE
  5
163
100
AcDbEntity
  8
newlayer
 62
7
100
AcDbLine
 10
206.000000
 20
69.000000
 30
0.0
 11
209.000000
 21
69.000000
 31
0.0
  0
LINE
  5
164
100
AcDbEntity
  8
newlayer
 62
7
100
AcDbLine
 10
209.000000
 20
69.000000
 30
0.0
 11
209.000000
 21
55.000000
 31
0.0
  0
LINE
  5
165
100
AcDbEntity
  8
newlayer
 62
7
100
AcDbLine
 10
209.000000
 20
55.000000
 30
0.0
 11
206.000000
 21
55.000000
 31
0.0
  0
LINE
  5
166
100
AcDbEntity
  8
newlayer
 62
7
100
AcDbLine
 10
206.000000
 20
55.000000
 30
0.0
 11
206.000000
 21
45.000000
 31
0.0
  0
LINE
  5
167
100
AcDbEntity
  8
newlayer
 62
7
100
AcDbLine
 10
206.000000
 20
45.000000
 30
0.0
 11
209.000000
 21
45.000000
 31
0.0
  0
LINE
  5
168
100
AcDbEntity
  8
newlayer
 62
7
100
AcDbLine
 10
209.000000
 20
45.000000
 30
0.0
 11
209.000000
 21
34.000000
 31
0.0
  0
LINE
  5
169
100
AcDbEntity
  8
newlayer
 62
7
100
AcDbLine
 10
209.000000
 20
34.000000
 30
0.0
 11
197.166667
 21
34.000000
 31
0.0
  0
LINE
  5
16a
100
AcDbEntity
  8
newlayer
 62
7
100
AcDbLine
 10
197.166667
 20
34.000000
 30
0.0
 11
197.166667
 21
31.000000
 31
0.0
  0
LINE
  5
16b
100
AcDbEntity
  8
newlayer
 62
7
100
AcDbLine
 10
197.166667
 20
31.000000
 30
0.0
 11
187.166667
 21
31.000000
 31
0.0
  0
LINE
  5
16c
100
AcDbEntity
  8
newlayer
 62
7
100
AcDbLine
 10
187.166667
 20
31.000000
 30
0.0
 11
187.166667
 21
34.000000
 31
0.0
  0
LINE
  5
16d
100
AcDbEntity
  8
newlayer
 62
7
100
AcDbLine
 10
187.166667
 20
34.000000
 30
0.0
 11
175.333333
 21
34.000000
 31
0.0
  0
LINE
  5
16e
100
AcDbEntity
  8
newlayer
 62
7
100
AcDbLine
 10
175.333333
 20
34.000000
 30
0.0
 11
175.333333
 21
31.000000
 31
0.0
  0
LINE
  5
16f
100
AcDbEntity
  8
newlayer
 62
7
100
AcDbLine
 10
175.333333
 20
31.000000
 30
0.0
 11
165.333333
 21
31.000000
 31
0.0
  0
LINE
  5
170
100
AcDbEntity
  8
newlayer
 62
7
100
AcDbLine
 10
165.333333
 20
31.000000
 30
0.0
 11
165.333333
 21
34.000000
 31
0.0
  0
LINE
  5
171
100
AcDbEntity
  8
newlayer
 62
7
100
AcDbLine
 10
165.333333
 20
34.000000
 30
0.0
 11
153.500000
 21
34.000000
 31
0.0
  0
LINE
  5
172
100
AcDbEntity
  8
newlayer
 62
7
100
AcDbLine
 10
153.500000
 20
34.000000
 30
0.0
 11
153.500000
 21
31.000000
 31
0.0
  0
LINE
  5
173
100
AcDbEntity
  8
newlayer
 62
7
100
AcDbLine
 10
153.500000
 20
31.000000
 30
0.0
 11
143.500000
 21
31.000000
 31
0.0
  0
LINE
  5
174
100
AcDbEntity
  8
newlayer
 62
7
100
AcDbLine
 10
143.500000
 20
31.000000
 30
0.0
 11
143.500000
 21
34.000000
 31
0.0
  0
LINE
  5
175
100
AcDbEntity
  8
newlayer
 62
7
100
AcDbLine
 10
143.500000
 20
34.000000
 30
0.0
 11
131.666667
 21
34.000000
 31
0.0
  0
LINE
  5
176
100
AcDbEntity
  8
newlayer
 62
7
100
AcDbLine
 10
131.666667
 20
34.000000
 30
0.0
 11
131.666667
 21
31.000000
 31
0.0
  0
LINE
  5
177
100
AcDbEntity
  8
newlayer
 62
7
100
AcDbLine
 10
131.666667
 20
31.000000
 30
0.0
 11
121.666667
 21
31.000000
 31
0.0
  0
LINE
  5
178
100
AcDbEntity
  8
newlayer
 62
7
100
AcDbLine
 10
121.666667
 20
31.000000
 30
0.0
 11
121.666667
 21
34.000000
 31
0.0
  0
LINE
  5
179
100
AcDbEntity
  8
newlayer
 62
7
100
AcDbLine
 10
121.666667
 20
34.000000
 30
0.0
 11
109.833333
 21
34.000000
 31
0.0
  0
LINE
  5
17a
100
AcDbEntity
  8
newlayer
 62
7
100
AcDbLine
 10
109.833333
 20
34.000000
 30
0.0
 11
109.833333
 21
31.000000
 31
0.0
  0
LINE
  5
17b
100
AcDbEntity
  8
newlayer
 62
7
100
AcDbLine
 10
109.833333
 20
31.000000
 30
0.0
 11
99.833333
 21
31.000000
 31
0.0
  0
LINE
  5
17c
100
AcDbEntity
  8
newlayer
 62
7
100
AcDbLine
 10
99.833333
 20
31.000000
 30
0.0
 11
99.833333
 21
34.000000
 31
0.0
  0
LINE
  5
17d
100
AcDbEntity
  8
newlayer
 62
7
100
AcDbLine
 10
99.833333
 20
34.000000
 30
0.0
 11
88.000000
 21
34.000000
 31
0.0
  0
LINE
  5
17e
100
AcDbEntity
  8
newlayer
 62
7
100
AcDbLine
 10
88.000000
 20
34.000000
 30
0.0
 11
88.000000
 21
45.000000
 31
0.0
  0
LINE
  5
17f
100
AcDbEntity
  8
newlayer
 62
7
100
AcDbLine
 10
88.000000
 20
45.000000
 30
0.0
 11
91.000000
 21
45.000000
 31
0.0
  0
LINE
  5
180
100
AcDbEntity
  8
newlayer
 62
7
100
AcDbLine
 10
91.000000
 20
45.000000
 30
0.0
 11
91.000000
 21
55.000000
 31
0.0
  0
LINE
  5
181
100
AcDbEntity
  8
newlayer
 62
7
100
AcDbLine
 10
91.000000
 20
55.000000
 30
0.0
 11
88.000000
 21
55.000000
 31
0.0
  0
LINE
  5
182
100
AcDbEntity
  8
newlayer
 62
7
100
AcDbLine
 10
88.000000
 20
55.000000
 30
0.0
 11
88.000000
 21
69.000000
 31
0.0
  0
LINE
  5
183
100
AcDbEntity
  8
newlayer
 62
7
100
AcDbLine
 10
88.000000
 20
69.000000
 30
0.0
 11
91.000000
 21
69.000000
 31
0.0
  0
LINE
  5
184
100
AcDbEntity
  8
newlayer
 62
7
100
AcDbLine
 10
91.000000
 20
69.000000
 30
0.0
 11
91.000000
 21
79.000000
 31
0.0
  0
LINE
  5
185
100
AcDbEntity
  8
newlayer
 62
7
100
AcDbLine
 10
91.000000
 20
79.000000
 30
0.0
 11
88.000000
 21
79.000000
 31
0.0
  0
LINE
  5
186
100
AcDbEntity
  8
newlayer
 62
7
100
AcDbLine
 10
88.000000
 20
79.000000
 30
0.0
 11
88.000000
 21
93.000000
 31
0.0
  0
LINE
  5
187
100
AcDbEntity
  8
newlayer
 62
7
100
AcDbLine
 10
88.000000
 20
93.000000
 30
0.0
 11
91.000000
 21
93.000000
 31
0.0
  0
LINE
  5
188
100
AcDbEntity
  8
newlayer
 62
7
100
AcDbLine
 10
91.000000
 20
93.000000
 30
0.0
 11
91.000000
 21
103.000000
 31
0.0
  0
LINE
  5
189
100
AcDbEntity
  8
newlayer
 62
7
100
AcDbLine
 10
91.000000
 20
103.000000
 30
0.0
 11
88.000000
 21
103.000000
 31
0.0
  0
LINE
  5
18a
100
AcDbEntity
  8
newlayer
 62
7
100
AcDbLine
 10
88.000000
 20
103.000000
 30
0.0
 11
88.000000
 21
114.000000
 31
0.0
  0
LINE
  5
18b
100
AcDbEntity
  8
newlayer
 62
7
100
AcDbLine
 10
4.000000
 20
206.000000
 30
0.0
 11
15.000000
 21
206.000000
 31
0.0
  0
LINE
  5
18c
100
AcDbEntity
  8
newlayer
 62
7
100
AcDbLine
 10
15.000000
 20
206.000000
 30
0.0
 11
15.000000
 21
209.000000
 31
0.0
  0
LINE
  5
18d
100
AcDbEntity
  8
newlayer
 62
7
100
AcDbLine
 10
15.000000
 20
209.000000
 30
0.0
 11
25.000000
 21
209.000000
 31
0.0
  0
LINE
  5
18e
100
AcDbEntity
  8
newlayer
 62
7
100
AcDbLine
 10
25.000000
 20
209.000000
 30
0.0
 11
25.000000
 21
206.000000
 31
0.0
  0
LINE
  5
18f
100
AcDbEntity
  8
newlayer
 62
7
100
AcDbLine
 10
25.000000
 20
206.000000
 30
0.0
 11
39.000000
 21
206.000000
 31
0.0
  0
LINE
  5
190
100
AcDbEntity
  8
newlayer
 62
7
100
AcDbLine
 10
39.000000
 20
206.000000
 30
0.0
 11
39.000000
 21
209.000000
 31
0.0
  0
LINE
  5
191
100
AcDbEntity
  8
newlayer
 62
7
100
AcDbLine
 10
39.000000
 20
209.000000
 30
0.0
 11
49.000000
 21
209.000000
 31
0.0
  0
LINE
  5
192
100
AcDbEntity
  8
newlayer
 62
7
100
AcDbLine
 10
49.000000
 20
209.000000
 30
0.0
 11
49.000000
 21
206.000000
 31
0.0
  0
LINE
  5
193
100
AcDbEntity
  8
newlayer
 62
7
100
AcDbLine
 10
49.000000
 20
206.000000
 30
0.0
 11
63.000000
 21
206.000000
 31
0.0
  0
LINE
  5
194
100
AcDbEntity
  8
newlayer
 62
7
100
AcDbLine
 10
63.000000
 20
206.000000
 30
0.0
 11
63.000000
 21
209.000000
 31
0.0
  0
LINE
  5
195
100
AcDbEntity
  8
newlayer
 62
7
100
AcDbLine
 10
63.000000
 20
209.000000
 30
0.0
 11
73.000000
 21
209.000000
 31
0.0
  0
LINE
  5
196
100
AcDbEntity
  8
newlayer
 62
7
100
AcDbLine
 10
73.000000
 20
209.000000
 30
0.0
 11
73.000000
 21
206.000000
 31
0.0
  0
LINE
  5
197
100
AcDbEntity
  8
newlayer
 62
7
100
AcDbLine
 10
73.000000
 20
206.000000
 30
0.0
 11
84.000000
 21
206.000000
 31
0.0
  0
LINE
  5
198
100
AcDbEntity
  8
newlayer
 62
7
100
AcDbLine
 10
84.000000
 20
206.000000
 30
0.0
 11
84.000000
 21
198.800000
 31
0.0
  0
LINE
  5
199
100
AcDbEntity
  8
newlayer
 62
7
100
AcDbLine
 10
84.000000
 20
198.800000
 30
0.0
 11
87.000000
 21
198.800000
 31
0.0
  0
LINE
  5
19a
100
AcDbEntity
  8
newlayer
 62
7
100
AcDbLine
 10
87.000000
 20
198.800000
 30
0.0
 11
87.000000
 21
188.800000
 31
0.0
  0
LINE
  5
19b
100
AcDbEntity
  8
newlayer
 62
7
100
AcDbLine
 10
87.000000
 20
188.800000
 30
0.0
 11
84.000000
 21
188.800000
 31
0.0
  0
LINE
  5
19c
100
AcDbEntity
  8
newlayer
 62
7
100
AcDbLine
 10
84.000000
 20
188.800000
 30
0.0
 11
84.000000
 21
178.600000
 31
0.0
  0
LINE
  5
19d
100
AcDbEntity
  8
newlayer
 62
7
100
AcDbLine
 10
84.000000
 20
178.600000
 30
0.0
 11
87.000000
 21
178.600000
 31
0.0
  0
LINE
  5
19e
100
AcDbEntity
  8
newlayer
 62
7
100
AcDbLine
 10
87.000000
 20
178.600000
 30
0.0
 11
87.000000
 21
168.600000
 31
0.0
  0
LINE
  5
19f
100
AcDbEntity
  8
newlayer
 62
7
100
AcDbLine
 10
87.000000
 20
168.600000
 30
0.0
 11
84.000000
 21
168.600000
 31
0.0
  0
LINE
  5
1a0
100
AcDbEntity
  8
newlayer
 62
7
100
AcDbLine
 10
84.000000
 20
168.600000
 30
0.0
 11
84.000000
 21
158.400000
 31
0.0
  0
LINE
  5
1a1
100
AcDbEntity
  8
newlayer
 62
7
100
AcDbLine
 10
84.000000
 20
158.400000
 30
0.0
 11
87.000000
 21
158.400000
 31
0.0
  0
LINE
  5
1a2
100
AcDbEntity
  8
newlayer
 62
7
100
AcDbLine
 10
87.000000
 20
158.400000
 30
0.0
 11
87.000000
 21
148.400000
 31
0.0
  0
LINE
  5
1a3
100
AcDbEntity
  8
newlayer
 62
7
100
AcDbLine
 10
87.000000
 20
148.400000
 30
0.0
 11
84.000000
 21
148.400000
 31
0.0
  0
LINE
  5
1a4
100
AcDbEntity
  8
newlayer
 62
7
100
AcDbLine
 10
84.000000
 20
148.400000
 30
0.0
 11
84.000000
 21
138.200000
 31
0.0
  0
LINE
  5
1a5
100
AcDbEntity
  8
newlayer
 62
7
100
AcDbLine
 10
84.000000
 20
138.200000
 30
0.0
 11
87.000000
 21
138.200000
 31
0.0
  0
LINE
  5
1a6
100
AcDbEntity
  8
newlayer
 62
7
100
AcDbLine
 10
87.000000
 20
138.200000
 30
0.0
 11
87.000000
 21
128.200000
 31
0.0
  0
LINE
  5
1a7
100
AcDbEntity
  8
newlayer
 62
7
100
AcDbLine
 10
87.000000
 20
128.200000
 30
0.0
 11
84.000000
 21
128.200000
 31
0.0
  0
LINE
  5
1a8
100
AcDbEntity
  8
newlayer
 62
7
100
AcDbLine
 10
84.000000
 20
128.200000
 30
0.0
 11
84.000000
 21
121.000000
 31
0.0
  0
LINE
  5
1a9
100
AcDbEntity
  8
newlayer
 62
7
100
AcDbLine
 10
84.000000
 20
121.000000
 30
0.0
 11
73.000000
 21
121.000000
 31
0.0
  0
LINE
  5
1aa
100
AcDbEntity
  8
newlayer
 62
7
100
AcDbLine
 10
73.000000
 20
121.000000
 30
0.0
 11
73.000000
 21
118.000000
 31
0.0
  0
LINE
  5
1ab
100
AcDbEntity
  8
newlayer
 62
7
100
AcDbLine
 10
73.000000
 20
118.000000
 30
0.0
 11
63.000000
 21
118.000000
 31
0.0
  0
LINE
  5
1ac
100
AcDbEntity
  8
newlayer
 62
7
100
AcDbLine
 10
63.000000
 20
118.000000
 30
0.0
 11
63.000000
 21
121.000000
 31
0.0
  0
LINE
  5
1ad
100
AcDbEntity
  8
newlayer
 62
7
100
AcDbLine
 10
63.000000
 20
121.000000
 30
0.0
 11
49.000000
 21
121.000000
 31
0.0
  0
LINE
  5
1ae
100
AcDbEntity
  8
newlayer
 62
7
100
AcDbLine
 10
49.000000
 20
121.000000
 30
0.0
 11
49.000000
 21
118.000000
 31
0.0
  0
LINE
  5
1af
100
AcDbEntity
  8
newlayer
 62
7
100
AcDbLine
 10
49.000000
 20
118.000000
 30
0.0
 11
39.000000
 21
118.000000
 31
0.0
  0
LINE
  5
1b0
100
AcDbEntity
  8
newlayer
 62
7
100
AcDbLine
 10
39.000000
 20
118.000000
 30
0.0
 11
39.000000
 21
121.000000
 31
0.0
  0
LINE
  5
1b1
100
AcDbEntity
  8
newlayer
 62
7
100
AcDbLine
 10
39.000000
 20
121.000000
 30
0.0
 11
25.000000
 21
121.000000
 31
0.0
  0
LINE
  5
1b2
100
AcDbEntity
  8
newlayer
 62
7
100
AcDbLine
 10
25.000000
 20
121.000000
 30
0.0
 11
25.000000
 21
118.000000
 31
0.0
  0
LINE
  5
1b3
100
AcDbEntity
  8
newlayer
 62
7
100
AcDbLine
 10
25.000000
 20
118.000000
 30
0.0
 11
15.000000
 21
118.000000
 31
0.0
  0
LINE
  5
1b4
100
AcDbEntity
  8
newlayer
 62
7
100
AcDbLine
 10
15.000000
 20
118.000000
 30
0.0
 11
15.000000
 21
121.000000
 31
0.0
  0
LINE
  5
1b5
100
AcDbEntity
  8
newlayer
 62
7
100
AcDbLine
 10
15.000000
 20
121.000000
 30
0.0
 11
4.000000
 21
121.000000
 31
0.0
  0
LINE
  5
1b6
100
AcDbEntity
  8
newlayer
 62
7
100
AcDbLine
 10
4.000000
 20
121.000000
 30
0.0
 11
4.000000
 21
128.200000
 31
0.0
  0
LINE
  5
1b7
100
AcDbEntity
  8
newlayer
 62
7
100
AcDbLine
 10
4.000000
 20
128.200000
 30
0.0
 11
1.000000
 21
128.200000
 31
0.0
  0
LINE
  5
1b8
100
AcDbEntity
  8
newlayer
 62
7
100
AcDbLine
 10
1.000000
 20
128.200000
 30
0.0
 11
1.000000
 21
138.200000
 31
0.0
  0
LINE
  5
1b9
100
AcDbEntity
  8
newlayer
 62
7
100
AcDbLine
 10
1.000000
 20
138.200000
 30
0.0
 11
4.000000
 21
138.200000
 31
0.0
  0
LINE
  5
1ba
100
AcDbEntity
  8
newlayer
 62
7
100
AcDbLine
 10
4.000000
 20
138.200000
 30
0.0
 11
4.000000
 21
148.400000
 31
0.0
  0
LINE
  5
1bb
100
AcDbEntity
  8
newlayer
 62
7
100
AcDbLine
 10
4.000000
 20
148.400000
 30
0.0
 11
1.000000
 21
148.400000
 31
0.0
  0
LINE
  5
1bc
100
AcDbEntity
  8
newlayer
 62
7
100
AcDbLine
 10
1.000000
 20
148.400000
 30
0.0
 11
1.000000
 21
158.400000
 31
0.0
  0
LINE
  5
1bd
100
AcDbEntity
  8
newlayer
 62
7
100
AcDbLine
 10
1.000000
 20
158.400000
 30
0.0
 11
4.000000
 21
158.400000
 31
0.0
  0
LINE
  5
1be
100
AcDbEntity
  8
newlayer
 62
7
100
AcDbLine
 10
4.000000
 20
158.400000
 30
0.0
 11
4.000000
 21
168.600000
 31
0.0
  0
LINE
  5
1bf
100
AcDbEntity
  8
newlayer
 62
7
100
AcDbLine
 10
4.000000
 20
168.600000
 30
0.0
 11
1.000000
 21
168.600000
 31
0.0
  0
LINE
  5
1c0
100
AcDbEntity
  8
newlayer
 62
7
100
AcDbLine
 10
1.000000
 20
168.600000
 30
0.0
 11
1.000000
 21
178.600000
 31
0.0
  0
LINE
  5
1c1
100
AcDbEntity
  8
newlayer
 62
7
100
AcDbLine
 10
1.000000
 20
178.600000
 30
0.0
 11
4.000000
 21
178.600000
 31
0.0
  0
LINE
  5
1c2
100
AcDbEntity
  8
newlayer
 62
7
100
AcDbLine
 10
4.000000
 20
178.600000
 30
0.0
 11
4.000000
 21
188.800000
 31
0.0
  0
LINE
  5
1c3
100
AcDbEntity
  8
newlayer
 62
7
100
AcDbLine
 10
4.000000
 20
188.800000
 30
0.0
 11
1.000000
 21
188.800000
 31
0.0
  0
LINE
  5
1c4
100
AcDbEntity
  8
newlayer
 62
7
100
AcDbLine
 10
1.000000
 20
188.800000
 30
0.0
 11
1.000000
 21
198.800000
 31
0.0
  0
LINE
  5
1c5
100
AcDbEntity
  8
newlayer
 62
7
100
AcDbLine
 10
1.000000
 20
198.800000
 30
0.0
 11
4.000000
 21
198.800000
 31
0.0
  0
LINE
  5
1c6
100
AcDbEntity
  8
newlayer
 62
7
100
AcDbLine
 10
4.000000
 20
198.800000
 30
0.0
 11
4.000000
 21
206.000000
 31
0.0
  0
LINE
  5
1c7
100
AcDbEntity
  8
newlayer
 62
7
100
AcDbLine
 10
88.000000
 20
209.000000
 30
0.0
 11
99.833333
 21
209.000000
 31
0.0
  0
LINE
  5
1c8
100
AcDbEntity
  8
newlayer
 62
7
100
AcDbLine
 10
99.833333
 20
209.000000
 30
0.0
 11
99.833333
 21
206.000000
 31
0.0
  0
LINE
  5
1c9
100
AcDbEntity
  8
newlayer
 62
7
100
AcDbLine
 10
99.833333
 20
206.000000
 30
0.0
 11
109.833333
 21
206.000000
 31
0.0
  0
LINE
  5
1ca
100
AcDbEntity
  8
newlayer
 62
7
100
AcDbLine
 10
109.833333
 20
206.000000
 30
0.0
 11
109.833333
 21
209.000000
 31
0.0
  0
LINE
  5
1cb
100
AcDbEntity
  8
newlayer
 62
7
100
AcDbLine
 10
109.833333
 20
209.000000
 30
0.0
 11
121.666667
 21
209.000000
 31
0.0
  0
LINE
  5
1cc
100
AcDbEntity
  8
newlayer
 62
7
100
AcDbLine
 10
121.666667
 20
209.000000
 30
0.0
 11
121.666667
 21
206.000000
 31
0.0
  0
LINE
  5
1cd
100
AcDbEntity
  8
newlayer
 62
7
100
AcDbLine
 10
121.666667
 20
206.000000
 30
0.0
 11
131.666667
 21
206.000000
 31
0.0
  0
LINE
  5
1ce
100
AcDbEntity
  8
newlayer
 62
7
100
AcDbLine
 10
131.666667
 20
206.000000
 30
0.0
 11
131.666667
 21
209.000000
 31
0.0
  0
LINE
  5
1cf
100
AcDbEntity
  8
newlayer
 62
7
100
AcDbLine
 10
131.666667
 20
209.000000
 30
0.0
 11
143.500000
 21
209.000000
 31
0.0
  0
LINE
  5
1d0
100
AcDbEntity
  8
newlayer
 62
7
100
AcDbLine
 10
143.500000
 20
209.000000
 30
0.0
 11
143.500000
 21
206.000000
 31
0.0
  0
LINE
  5
1d1
100
AcDbEntity
  8
newlayer
 62
7
100
AcDbLine
 10
143.500000
 20
206.000000
 30
0.0
 11
153.500000
 21
206.000000
 31
0.0
  0
LINE
  5
1d2
100
AcDbEntity
  8
newlayer
 62
7
100
AcDbLine
 10
153.500000
 20
206.000000
 30
0.0
 11
153.500000
 21
209.000000
 31
0.0
  0
LINE
  5
1d3
100
AcDbEntity
  8
newlayer
 62
7
100
AcDbLine
 10
153.500000
 20
209.000000
 30
0.0
 11
165.333333
 21
209.000000
 31
0.0
  0
LINE
  5
1d4
100
AcDbEntity
  8
newlayer
 62
7
100
AcDbLine
 10
165.333333
 20
209.000000
 30
0.0
 11
165.333333
 21
206.000000
 31
0.0
  0
LINE
  5
1d5
100
AcDbEntity
  8
newlayer
 62
7
100
AcDbLine
 10
165.333333
 20
206.000000
 30
0.0
 11
175.333333
 21
206.000000
 31
0.0
  0
LINE
  5
1d6
100
AcDbEntity
  8
newlayer
 62
7
100
AcDbLine
 10
175.333333
 20
206.000000
 30
0.0
 11
175.333333
 21
209.000000
 31
0.0
  0
LINE
  5
1d7
100
AcDbEntity
  8
newlayer
 62
7
100
AcDbLine
 10
175.333333
 20
209.000000
 30
0.0
 11
187.166667
 21
209.000000
 31
0.0
  0
LINE
  5
1d8
100
AcDbEntity
  8
newlayer
 62
7
100
AcDbLine
 10
187.166667
 20
209.000000
 30
0.0
 11
187.166667
 21
206.000000
 31
0.0
  0
LINE
  5
1d9
100
AcDbEntity
  8
newlayer
 62
7
100
AcDbLine
 10
187.166667
 20
206.000000
 30
0.0
 11
197.166667
 21
206.000000
 31
0.0
  0
LINE
  5
1da
100
AcDbEntity
  8
newlayer
 62
7
100
AcDbLine
 10
197.166667
 20
206.000000
 30
0.0
 11
197.166667
 21
209.000000
 31
0.0
  0
LINE
  5
1db
100
AcDbEntity
  8
newlayer
 62
7
100
AcDbLine
 10
197.166667
 20
209.000000
 30
0.0
 11
209.000000
 21
209.000000
 31
0.0
  0
LINE
  5
1dc
100
AcDbEntity
  8
newlayer
 62
7
100
AcDbLine
 10
209.000000
 20
209.000000
 30
0.0
 11
209.000000
 21
198.800000
 31
0.0
  0
LINE
  5
1dd
100
AcDbEntity
  8
newlayer
 62
7
100
AcDbLine
 10
209.000000
 20
198.800000
 30
0.0
 11
206.000000
 21
198.800000
 31
0.0
  0
LINE
  5
1de
100
AcDbEntity
  8
newlayer
 62
7
100
AcDbLine
 10
206.000000
 20
198.800000
 30
0.0
 11
206.000000
 21
188.800000
 31
0.0
  0
LINE
  5
1df
100
AcDbEntity
  8
newlayer
 62
7
100
AcDbLine
 10
206.000000
 20
188.800000
 30
0.0
 11
209.000000
 21
188.800000
 31
0.0
  0
LINE
  5
1e0
100
AcDbEntity
  8
newlayer
 62
7
100
AcDbLine
 10
209.000000
 20
188.800000
 30
0.0
 11
209.000000
 21
178.600000
 31
0.0
  0
LINE
  5
1e1
100
AcDbEntity
  8
newlayer
 62
7
100
AcDbLine
 10
209.000000
 20
178.600000
 30
0.0
 11
206.000000
 21
178.600000
 31
0.0
  0
LINE
  5
1e2
100
AcDbEntity
  8
newlayer
 62
7
100
AcDbLine
 10
206.000000
 20
178.600000
 30
0.0
 11
206.000000
 21
168.600000
 31
0.0
  0
LINE
  5
1e3
100
AcDbEntity
  8
newlayer
 62
7
100
AcDbLine
 10
206.000000
 20
168.600000
 30
0.0
 11
209.000000
 21
168.600000
 31
0.0
  0
LINE
  5
1e4
100
AcDbEntity
  8
newlayer
 62
7
100
AcDbLine
 10
209.000000
 20
168.600000
 30
0.0
 11
209.000000
 21
158.400000
 31
0.0
  0
LINE
  5
1e5
100
AcDbEntity
  8
newlayer
 62
7
100
AcDbLine
 10
209.000000
 20
158.400000
 30
0.0
 11
206.000000
 21
158.400000
 31
0.0
  0
LINE
  5
1e6
100
AcDbEntity
  8
newlayer
 62
7
100
AcDbLine
 10
206.000000
 20
158.400000
 30
0.0
 11
206.000000
 21
148.400000
 31
0.0
  0
LINE
  5
1e7
100
AcDbEntity
  8
newlayer
 62
7
100
AcDbLine
 10
206.000000
 20
148.400000
 30
0.0
 11
209.000000
 21
148.400000
 31
0.0
  0
LINE
  5
1e8
100
AcDbEntity
  8
newlayer
 62
7
100
AcDbLine
 10
209.000000
 20
148.400000
 30
0.0
 11
209.000000
 21
138.200000
 31
0.0
  0
LINE
  5
1e9
100
AcDbEntity
  8
newlayer
 62
7
100
AcDbLine
 10
209.000000
 20
138.200000
 30
0.0
 11
206.000000
 21
138.200000
 31
0.0
  0
LINE
  5
1ea
100
AcDbEntity
  8
newlayer
 62
7
100
AcDbLine
 10
206.000000
 20
138.200000
 30
0.0
 11
206.000000
 21
128.200000
 31
0.0
  0
LINE
  5
1eb
100
AcDbEntity
  8
newlayer
 62
7
100
AcDbLine
 10
206.000000
 20
128.200000
 30
0.0
 11
209.000000
 21
128.200000
 31
0.0
  0
LINE
  5
1ec
100
AcDbEntity
  8
newlayer
 62
7
100
AcDbLine
 10
209.000000
 20
128.200000
 30
0.0
 11
209.000000
 21
118.000000
 31
0.0
  0
LINE
  5
1ed
100
AcDbEntity
  8
newlayer
 62
7
100
AcDbLine
 10
209.000000
 20
118.000000
 30
0.0
 11
197.166667
 21
118.000000
 31
0.0
  0
LINE
  5
1ee
100
AcDbEntity
  8
newlayer
 62
7
100
AcDbLine
 10
197.166667
 20
118.000000
 30
0.0
 11
197.166667
 21
121.000000
 31
0.0
  0
LINE
  5
1ef
100
AcDbEntity
  8
newlayer
 62
7
100
AcDbLine
 10
197.166667
 20
121.000000
 30
0.0
 11
187.166667
 21
121.000000
 31
0.0
  0
LINE
  5
1f0
100
AcDbEntity
  8
newlayer
 62
7
100
AcDbLine
 10
187.166667
 20
121.000000
 30
0.0
 11
187.166667
 21
118.000000
 31
0.0
  0
LINE
  5
1f1
100
AcDbEntity
  8
newlayer
 62
7
100
AcDbLine
 10
187.166667
 20
118.000000
 30
0.0
 11
175.333333
 21
118.000000
 31
0.0
  0
LINE
  5
1f2
100
AcDbEntity
  8
newlayer
 62
7
100
AcDbLine
 10
175.333333
 20
118.000000
 30
0.0
 11
175.333333
 21
121.000000
 31
0.0
  0
LINE
  5
1f3
100
AcDbEntity
  8
newlayer
 62
7
100
AcDbLine
 10
175.333333
 20
121.000000
 30
0.0
 11
165.333333
 21
121.000000
 31
0.0
  0
LINE
  5
1f4
100
AcDbEntity
  8
newlayer
 62
7
100
AcDbLine
 10
165.333333
 20
121.000000
 30
0.0
 11
165.333333
 21
118.000000
 31
0.0
  0
LINE
  5
1f5
100
AcDbEntity
  8
newlayer
 62
7
100
AcDbLine
 10
165.333333
 20
118.000000
 30
0.0
 11
153.500000
 21
118.000000
 31
0.0
  0
LINE
  5
1f6
100
AcDbEntity
  8
newlayer
 62
7
100
AcDbLine
 10
153.500000
 20
118.000000
 30
0.0
 11
153.500000
 21
121.000000
 31
0.0
  0
LINE
  5
1f7
100
AcDbEntity
  8
newlayer
 62
7
100
AcDbLine
 10
153.500000
 20
121.000000
 30
0.0
 11
143.500000
 21
121.000000
 31
0.0
  0
LINE
  5
1f8
100
AcDbEntity
  8
newlayer
 62
7
100
AcDbLine
 10
143.500000
 20
121.000000
 30
0.0
 11
143.500000
 21
118.000000
 31
0.0
  0
LINE
  5
1f9
100
AcDbEntity
  8
newlayer
 62
7
100
AcDbLine
 10
143.500000
 20
118.000000
 30
0.0
 11
131.666667
 21
118.000000
 31
0.0
  0
LINE
  5
1fa
100
AcDbEntity
  8
newlayer
 62
7
100
AcDbLine
 10
131.666667
 20
118.000000
 30
0.0
 11
131.666667
 21
121.000000
 31
0.0
  0
LINE
  5
1fb
100
AcDbEntity
  8
newlayer
 62
7
100
AcDbLine
 10
131.666667
 20
121.000000
 30
0.0
 11
121.666667
 21
121.000000
 31
0.0
  0
LINE
  5
1fc
100
AcDbEntity
  8
newlayer
 62
7
100
AcDbLine
 10
121.666667
 20
121.000000
 30
0.0
 11
121.666667
 21
118.000000
 31
0.0
  0
LINE
  5
1fd
100
AcDbEntity
  8
newlayer
 62
7
100
AcDbLine
 10
121.666667
 20
118.000000
 30
0.0
 11
109.833333
 21
118.000000
 31
0.0
  0
LINE
  5
1fe
100
AcDbEntity
  8
newlayer
 62
7
100
AcDbLine
 10
109.833333
 20
118.000000
 30
0.0
 11
109.833333
 21
121.000000
 31
0.0
  0
LINE
  5
1ff
100
AcDbEntity
  8
newlayer
 62
7
100
AcDbLine
 10
109.833333
 20
121.000000
 30
0.0
 11
99.833333
 21
121.000000
 31
0.0
  0
LINE
  5
200
100
AcDbEntity
  8
newlayer
 62
7
100
AcDbLine
 10
99.833333
 20
121.000000
 30
0.0
 11
99.833333
 21
118.000000
 31
0.0
  0
LINE
  5
201
100
AcDbEntity
  8
newlayer
 62
7
100
AcDbLine
 10
99.833333
 20
118.000000
 30
0.0
 11
88.000000
 21
118.000000
 31
0.0
  0
LINE
  5
202
100
AcDbEntity
  8
newlayer
 62
7
100
AcDbLine
 10
88.000000
 20
118.000000
 30
0.0
 11
88.000000
 21
128.200000
 31
0.0
  0
LINE
  5
203
100
AcDbEntity
  8
newlayer
 62
7
100
AcDbLine
 10
88.000000
 20
128.200000
 30
0.0
 11
91.000000
 21
128.200000
 31
0.0
  0
LINE
  5
204
100
AcDbEntity
  8
newlayer
 62
7
100
AcDbLine
 10
91.000000
 20
128.200000
 30
0.0
 11
91.000000
 21
138.200000
 31
0.0
  0
LINE
  5
205
100
AcDbEntity
  8
newlayer
 62
7
100
AcDbLine
 10
91.000000
 20
138.200000
 30
0.0
 11
88.000000
 21
138.200000
 31
0.0
  0
LINE
  5
206
100
AcDbEntity
  8
newlayer
 62
7
100
AcDbLine
 10
88.000000
 20
138.200000
 30
0.0
 11
88.000000
 21
148.400000
 31
0.0
  0
LINE
  5
207
100
AcDbEntity
  8
newlayer
 62
7
100
AcDbLine
 10
88.000000
 20
148.400000
 30
0.0
 11
91.000000
 21
148.400000
 31
0.0
  0
LINE
  5
208
100
AcDbEntity
  8
newlayer
 62
7
100
AcDbLine
 10
91.000000
 20
148.400000
 30
0.0
 11
91.000000
 21
158.400000
 31
0.0
  0
LINE
  5
209
100
AcDbEntity
  8
newlayer
 62
7
100
AcDbLine
 10
91.000000
 20
158.400000
 30
0.0
 11
88.000000
 21
158.400000
 31
0.0
  0
LINE
  5
20a
100
AcDbEntity
  8
newlayer
 62
7
100
AcDbLine
 10
88.000000
 20
158.400000
 30
0.0
 11
88.000000
 21
168.600000
 31
0.0
  0
LINE
  5
20b
100
AcDbEntity
  8
newlayer
 62
7
100
AcDbLine
 10
88.000000
 20
168.600000
 30
0.0
 11
91.000000
 21
168.600000
 31
0.0
  0
LINE
  5
20c
100
AcDbEntity
  8
newlayer
 62
7
100
AcDbLine
 10
91.000000
 20
168.600000
 30
0.0
 11
91.000000
 21
178.600000
 31
0.0
  0
LINE
  5
20d
100
AcDbEntity
  8
newlayer
 62
7
100
AcDbLine
 10
91.000000
 20
178.600000
 30
0.0
 11
88.000000
 21
178.600000
 31
0.0
  0
LINE
  5
20e
100
AcDbEntity
  8
newlayer
 62
7
100
AcDbLine
 10
88.000000
 20
178.600000
 30
0.0
 11
88.000000
 21
188.800000
 31
0.0
  0
LINE
  5
20f
100
AcDbEntity
  8
newlayer
 62
7
100
AcDbLine
 10
88.000000
 20
188.800000
 30
0.0
 11
91.000000
 21
188.800000
 31
0.0
  0
LINE
  5
210
100
AcDbEntity
  8
newlayer
 62
7
100
AcDbLine
 10
91.000000
 20
188.800000
 30
0.0
 11
91.000000
 21
198.800000
 31
0.0
  0
LINE
  5
211
100
AcDbEntity
  8
newlayer
 62
7
100
AcDbLine
 10
91.000000
 20
198.800000
 30
0.0
 11
88.000000
 21
198.800000
 31
0.0
  0
LINE
  5
212
100
AcDbEntity
  8
newlayer
 62
7
100
AcDbLine
 10
88.000000
 20
198.800000
 30
0.0
 11
88.000000
 21
209.000000
 31
0.0
  0
LINE
  5
213
100
AcDbEntity
  8
newlayer
 62
7
100
AcDbLine
 10
3.745778
 20
113.346564
 30
0.0
 11
14.745779
 21
113.346564
 31
0.0
  0
LINE
  5
214
100
AcDbEntity
  8
newlayer
 62
7
100
AcDbLine
 10
14.745779
 20
113.346564
 30
0.0
 11
14.745779
 21
116.346564
 31
0.0
  0
LINE
  5
215
100
AcDbEntity
  8
newlayer
 62
7
100
AcDbLine
 10
14.745779
 20
116.346564
 30
0.0
 11
24.745778
 21
116.346564
 31
0.0
  0
LINE
  5
216
100
AcDbEntity
  8
newlayer
 62
7
100
AcDbLine
 10
24.745778
 20
116.346564
 30
0.0
 11
24.745778
 21
113.346564
 31
0.0
  0
LINE
  5
217
100
AcDbEntity
  8
newlayer
 62
7
100
AcDbLine
 10
24.745778
 20
113.346564
 30
0.0
 11
38.745778
 21
113.346564
 31
0.0
  0
LINE
  5
218
100
AcDbEntity
  8
newlayer
 62
7
100
AcDbLine
 10
38.745778
 20
113.346564
 30
0.0
 11
38.745778
 21
116.346564
 31
0.0
  0
LINE
  5
219
100
AcDbEntity
  8
newlayer
 62
7
100
AcDbLine
 10
38.745778
 20
116.346564
 30
0.0
 11
48.745778
 21
116.346564
 31
0.0
  0
LINE
  5
21a
100
AcDbEntity
  8
newlayer
 62
7
100
AcDbLine
 10
48.745778
 20
116.346564
 30
0.0
 11
48.745778
 21
113.346564
 31
0.0
  0
LINE
  5
21b
100
AcDbEntity
  8
newlayer
 62
7
100
AcDbLine
 10
48.745778
 20
113.346564
 30
0.0
 11
62.745778
 21
113.346564
 31
0.0
  0
LINE
  5
21c
100
AcDbEntity
  8
newlayer
 62
7
100
AcDbLine
 10
62.745778
 20
113.346564
 30
0.0
 11
62.745778
 21
116.346564
 31
0.0
  0
LINE
  5
21d
100
AcDbEntity
  8
newlayer
 62
7
100
AcDbLine
 10
62.745778
 20
116.346564
 30
0.0
 11
72.745786
 21
116.346564
 31
0.0
  0
LINE
  5
21e
100
AcDbEntity
  8
newlayer
 62
7
100
AcDbLine
 10
72.745786
 20
116.346564
 30
0.0
 11
72.745786
 21
113.346564
 31
0.0
  0
LINE
  5
21f
100
AcDbEntity
  8
newlayer
 62
7
100
AcDbLine
 10
72.745786
 20
113.346564
 30
0.0
 11
83.745764
 21
113.346564
 31
0.0
  0
LINE
  5
220
100
AcDbEntity
  8
newlayer
 62
7
100
AcDbLine
 10
83.745764
 20
113.346564
 30
0.0
 11
83.745764
 21
106.146562
 31
0.0
  0
LINE
  5
221
100
AcDbEntity
  8
newlayer
 62
7
100
AcDbLine
 10
83.745764
 20
106.146562
 30
0.0
 11
86.745786
 21
106.146562
 31
0.0
  0
LINE
  5
222
100
AcDbEntity
  8
newlayer
 62
7
100
AcDbLine
 10
86.745786
 20
106.146562
 30
0.0
 11
86.745786
 21
96.146562
 31
0.0
  0
LINE
  5
223
100
AcDbEntity
  8
newlayer
 62
7
100
AcDbLine
 10
86.745786
 20
96.146562
 30
0.0
 11
83.745764
 21
96.146562
 31
0.0
  0
LINE
  5
224
100
AcDbEntity
  8
newlayer
 62
7
100
AcDbLine
 10
83.745764
 20
96.146562
 30
0.0
 11
83.745764
 21
85.946563
 31
0.0
  0
LINE
  5
225
100
AcDbEntity
  8
newlayer
 62
7
100
AcDbLine
 10
83.745764
 20
85.946563
 30
0.0
 11
86.745786
 21
85.946563
 31
0.0
  0
LINE
  5
226
100
AcDbEntity
  8
newlayer
 62
7
100
AcDbLine
 10
86.745786
 20
85.946563
 30
0.0
 11
86.745786
 21
75.946563
 31
0.0
  0
LINE
  5
227
100
AcDbEntity
  8
newlayer
 62
7
100
AcDbLine
 10
86.745786
 20
75.946563
 30
0.0
 11
83.745764
 21
75.946563
 31
0.0
  0
LINE
  5
228
100
AcDbEntity
  8
newlayer
 62
7
100
AcDbLine
 10
83.745764
 20
75.946563
 30
0.0
 11
83.745764
 21
65.746564
 31
0.0
  0
LINE
  5
229
100
AcDbEntity
  8
newlayer
 62
7
100
AcDbLine
 10
83.745764
 20
65.746564
 30
0.0
 11
86.745786
 21
65.746564
 31
0.0
  0
LINE
  5
22a
100
AcDbEntity
  8
newlayer
 62
7
100
AcDbLine
 10
86.745786
 20
65.746564
 30
0.0
 11
86.745786
 21
55.746564
 31
0.0
  0
LINE
  5
22b
100
AcDbEntity
  8
newlayer
 62
7
100
AcDbLine
 10
86.745786
 20
55.746564
 30
0.0
 11
83.745764
 21
55.746564
 31
0.0
  0
LINE
  5
22c
100
AcDbEntity
  8
newlayer
 62
7
100
AcDbLine
 10
83.745764
 20
55.746564
 30
0.0
 11
83.745764
 21
45.546556
 31
0.0
  0
LINE
  5
22d
100
AcDbEntity
  8
newlayer
 62
7
100
AcDbLine
 10
83.745764
 20
45.546556
 30
0.0
 11
86.745786
 21
45.546556
 31
0.0
  0
LINE
  5
22e
100
AcDbEntity
  8
newlayer
 62
7
100
AcDbLine
 10
86.745786
 20
45.546556
 30
0.0
 11
86.745786
 21
35.546576
 31
0.0
  0
LINE
  5
22f
100
AcDbEntity
  8
newlayer
 62
7
100
AcDbLine
 10
86.745786
 20
35.546576
 30
0.0
 11
83.745764
 21
35.546576
 31
0.0
  0
LINE
  5
230
100
AcDbEntity
  8
newlayer
 62
7
100
AcDbLine
 10
83.745764
 20
35.546576
 30
0.0
 11
83.745764
 21
28.346551
 31
0.0
  0
LINE
  5
231
100
AcDbEntity
  8
newlayer
 62
7
100
AcDbLine
 10
83.745764
 20
28.346551
 30
0.0
 11
72.745786
 21
28.346551
 31
0.0
  0
LINE
  5
232
100
AcDbEntity
  8
newlayer
 62
7
100
AcDbLine
 10
72.745786
 20
28.346551
 30
0.0
 11
72.745786
 21
25.346557
 31
0.0
  0
LINE
  5
233
100
AcDbEntity
  8
newlayer
 62
7
100
AcDbLine
 10
72.745786
 20
25.346557
 30
0.0
 11
62.745778
 21
25.346557
 31
0.0
  0
LINE
  5
234
100
AcDbEntity
  8
newlayer
 62
7
100
AcDbLine
 10
62.745778
 20
25.346557
 30
0.0
 11
62.745778
 21
28.346551
 31
0.0
  0
LINE
  5
235
100
AcDbEntity
  8
newlayer
 62
7
100
AcDbLine
 10
62.745778
 20
28.346551
 30
0.0
 11
48.745778
 21
28.346551
 31
0.0
  0
LINE
  5
236
100
AcDbEntity
  8
newlayer
 62
7
100
AcDbLine
 10
48.745778
 20
28.346551
 30
0.0
 11
48.745778
 21
25.346557
 31
0.0
  0
LINE
  5
237
100
AcDbEntity
  8
newlayer
 62
7
100
AcDbLine
 10
48.745778
 20
25.346557
 30
0.0
 11
38.745778
 21
25.346557
 31
0.0
  0
LINE
  5
238
100
AcDbEntity
  8
newlayer
 62
7
100
AcDbLine
 10
38.745778
 20
25.346557
 30
0.0
 11
38.745778
 21
28.346551
 31
0.0
  0
LINE
  5
239
100
AcDbEntity
  8
newlayer
 62
7
100
AcDbLine
 10
38.745778
 20
28.346551
 30
0.0
 11
24.745778
 21
28.346551
 31
0.0
  0
LINE
  5
23a
100
AcDbEntity
  8
newlayer
 62
7
100
AcDbLine
 10
24.745778
 20
28.346551
 30
0.0
 11
24.745778
 21
25.346557
 31
0.0
  0
LINE
  5
23b
100
AcDbEntity
  8
newlayer
 62
7
100
AcDbLine
 10
24.745778
 20
25.346557
 30
0.0
 11
14.745779
 21
25.346557
 31
0.0
  0
LINE
  5
23c
100
AcDbEntity
  8
newlayer
 62
7
100
AcDbLine
 10
14.745779
 20
25.346557
 30
0.0
 11
14.745779
 21
28.346551
 31
0.0
  0
LINE
  5
23d
100
AcDbEntity
  8
newlayer
 62
7
100
AcDbLine
 10
14.745779
 20
28.346551
 30
0.0
 11
3.745778
 21
28.346551
 31
0.0
  0
LINE
  5
23e
100
AcDbEntity
  8
newlayer
 62
7
100
AcDbLine
 10
3.745778
 20
28.346551
 30
0.0
 11
3.745778
 21
35.546576
 31
0.0
  0
LINE
  5
23f
100
AcDbEntity
  8
newlayer
 62
7
100
AcDbLine
 10
3.745778
 20
35.546576
 30
0.0
 11
0.745778
 21
35.546576
 31
0.0
  0
LINE
  5
240
100
AcDbEntity
  8
newlayer
 62
7
100
AcDbLine
 10
0.745778
 20
35.546576
 30
0.0
 11
0.745778
 21
45.546556
 31
0.0
  0
LINE
  5
241
100
AcDbEntity
  8
newlayer
 62
7
100
AcDbLine
 10
0.745778
 20
45.546556
 30
0.0
 11
3.745778
 21
45.546556
 31
0.0
  0
LINE
  5
242
100
AcDbEntity
  8
newlayer
 62
7
100
AcDbLine
 10
3.745778
 20
45.546556
 30
0.0
 11
3.745778
 21
55.746564
 31
0.0
  0
LINE
  5
243
100
AcDbEntity
  8
newlayer
 62
7
100
AcDbLine
 10
3.745778
 20
55.746564
 30
0.0
 11
0.745778
 21
55.746564
 31
0.0
  0
LINE
  5
244
100
AcDbEntity
  8
newlayer
 62
7
100
AcDbLine
 10
0.745778
 20
55.746564
 30
0.0
 11
0.745778
 21
65.746564
 31
0.0
  0
LINE
  5
245
100
AcDbEntity
  8
newlayer
 62
7
100
AcDbLine
 10
0.745778
 20
65.746564
 30
0.0
 11
3.745778
 21
65.746564
 31
0.0
  0
LINE
  5
246
100
AcDbEntity
  8
newlayer
 62
7
100
AcDbLine
 10
3.745778
 20
65.746564
 30
0.0
 11
3.745778
 21
75.946563
 31
0.0
  0
LINE
  5
247
100
AcDbEntity
  8
newlayer
 62
7
100
AcDbLine
 10
3.745778
 20
75.946563
 30
0.0
 11
0.745778
 21
75.946563
 31
0.0
  0
LINE
  5
248
100
AcDbEntity
  8
newlayer
 62
7
100
AcDbLine
 10
0.745778
 20
75.946563
 30
0.0
 11
0.745778
 21
85.946563
 31
0.0
  0
LINE
  5
249
100
AcDbEntity
  8
newlayer
 62
7
100
AcDbLine
 10
0.745778
 20
85.946563
 30
0.0
 11
3.745778
 21
85.946563
 31
0.0
  0
LINE
  5
24a
100
AcDbEntity
  8
newlayer
 62
7
100
AcDbLine
 10
3.745778
 20
85.946563
 30
0.0
 11
3.745778
 21
96.146562
 31
0.0
  0
LINE
  5
24b
100
AcDbEntity
  8
newlayer
 62
7
100
AcDbLine
 10
3.745778
 20
96.146562
 30
0.0
 11
0.745778
 21
96.146562
 31
0.0
  0
LINE
  5
24c
100
AcDbEntity
  8
newlayer
 62
7
100
AcDbLine
 10
0.745778
 20
96.146562
 30
0.0
 11
0.745778
 21
106.146562
 31
0.0
  0
LINE
  5
24d
100
AcDbEntity
  8
newlayer
 62
7
100
AcDbLine
 10
0.745778
 20
106.146562
 30
0.0
 11
3.745778
 21
106.146562
 31
0.0
  0
LINE
  5
24e
100
AcDbEntity
  8
newlayer
 62
7
100
AcDbLine
 10
3.745778
 20
106.146562
 30
0.0
 11
3.745778
 21
113.346564
 31
0.0
  0
LINE
  5
24f
100
AcDbEntity
  8
newlayer
 62
7
100
AcDbLine
 10
2.219528
 20
23.693127
 30
0.0
 11
14.052862
 21
23.693127
 31
0.0
  0
LINE
  5
250
100
AcDbEntity
  8
newlayer
 62
7
100
AcDbLine
 10
14.052862
 20
23.693127
 30
0.0
 11
14.052862
 21
20.693127
 31
0.0
  0
LINE
  5
251
100
AcDbEntity
  8
newlayer
 62
7
100
AcDbLine
 10
14.052862
 20
20.693127
 30
0.0
 11
24.052862
 21
20.693127
 31
0.0
  0
LINE
  5
252
100
AcDbEntity
  8
newlayer
 62
7
100
AcDbLine
 10
24.052862
 20
20.693127
 30
0.0
 11
24.052862
 21
23.693127
 31
0.0
  0
LINE
  5
253
100
AcDbEntity
  8
newlayer
 62
7
100
AcDbLine
 10
24.052862
 20
23.693127
 30
0.0
 11
35.886195
 21
23.693127
 31
0.0
  0
LINE
  5
254
100
AcDbEntity
  8
newlayer
 62
7
100
AcDbLine
 10
35.886195
 20
23.693127
 30
0.0
 11
35.886195
 21
20.693127
 31
0.0
  0
LINE
  5
255
100
AcDbEntity
  8
newlayer
 62
7
100
AcDbLine
 10
35.886195
 20
20.693127
 30
0.0
 11
45.886195
 21
20.693127
 31
0.0
  0
LINE
  5
256
100
AcDbEntity
  8
newlayer
 62
7
100
AcDbLine
 10
45.886195
 20
20.693127
 30
0.0
 11
45.886195
 21
23.693127
 31
0.0
  0
LINE
  5
257
100
AcDbEntity
  8
newlayer
 62
7
100
AcDbLine
 10
45.886195
 20
23.693127
 30
0.0
 11
57.719527
 21
23.693127
 31
0.0
  0
LINE
  5
258
100
AcDbEntity
  8
newlayer
 62
7
100
AcDbLine
 10
57.719527
 20
23.693127
 30
0.0
 11
57.719527
 21
20.693127
 31
0.0
  0
LINE
  5
259
100
AcDbEntity
  8
newlayer
 62
7
100
AcDbLine
 10
57.719527
 20
20.693127
 30
0.0
 11
67.719527
 21
20.693127
 31
0.0
  0
LINE
  5
25a
100
AcDbEntity
  8
newlayer
 62
7
100
AcDbLine
 10
67.719527
 20
20.693127
 30
0.0
 11
67.719527
 21
23.693127
 31
0.0
  0
LINE
  5
25b
100
AcDbEntity
  8
newlayer
 62
7
100
AcDbLine
 10
67.719527
 20
23.693127
 30
0.0
 11
79.552862
 21
23.693127
 31
0.0
  0
LINE
  5
25c
100
AcDbEntity
  8
newlayer
 62
7
100
AcDbLine
 10
79.552862
 20
23.693127
 30
0.0
 11
79.552862
 21
20.693127
 31
0.0
  0
LINE
  5
25d
100
AcDbEntity
  8
newlayer
 62
7
100
AcDbLine
 10
79.552862
 20
20.693127
 30
0.0
 11
89.552862
 21
20.693127
 31
0.0
  0
LINE
  5
25e
100
AcDbEntity
  8
newlayer
 62
7
100
AcDbLine
 10
89.552862
 20
20.693127
 30
0.0
 11
89.552862
 21
23.693127
 31
0.0
  0
LINE
  5
25f
100
AcDbEntity
  8
newlayer
 62
7
100
AcDbLine
 10
89.552862
 20
23.693127
 30
0.0
 11
101.386194
 21
23.693127
 31
0.0
  0
LINE
  5
260
100
AcDbEntity
  8
newlayer
 62
7
100
AcDbLine
 10
101.386194
 20
23.693127
 30
0.0
 11
101.386194
 21
20.693127
 31
0.0
  0
LINE
  5
261
100
AcDbEntity
  8
newlayer
 62
7
100
AcDbLine
 10
101.386194
 20
20.693127
 30
0.0
 11
111.386194
 21
20.693127
 31
0.0
  0
LINE
  5
262
100
AcDbEntity
  8
newlayer
 62
7
100
AcDbLine
 10
111.386194
 20
20.693127
 30
0.0
 11
111.386194
 21
23.693127
 31
0.0
  0
LINE
  5
263
100
AcDbEntity
  8
newlayer
 62
7
100
AcDbLine
 10
111.386194
 20
23.693127
 30
0.0
 11
123.219529
 21
23.693127
 31
0.0
  0
LINE
  5
264
100
AcDbEntity
  8
newlayer
 62
7
100
AcDbLine
 10
123.219529
 20
23.693127
 30
0.0
 11
123.219529
 21
13.493130
 31
0.0
  0
LINE
  5
265
100
AcDbEntity
  8
newlayer
 62
7
100
AcDbLine
 10
123.219529
 20
13.493130
 30
0.0
 11
120.219529
 21
13.493130
 31
0.0
  0
LINE
  5
266
100
AcDbEntity
  8
newlayer
 62
7
100
AcDbLine
 10
120.219529
 20
13.493130
 30
0.0
 11
120.219529
 21
3.493122
 31
0.0
  0
LINE
  5
267
100
AcDbEntity
  8
newlayer
 62
7
100
AcDbLine
 10
120.219529
 20
3.493122
 30
0.0
 11
123.219529
 21
3.493122
 31
0.0
  0
LINE
  5
268
100
AcDbEntity
  8
newlayer
 62
7
100
AcDbLine
 10
123.219529
 20
3.493122
 30
0.0
 11
123.219529
 21
-6.706869
 31
0.0
  0
LINE
  5
269
100
AcDbEntity
  8
newlayer
 62
7
100
AcDbLine
 10
123.219529
 20
-6.706869
 30
0.0
 11
120.219529
 21
-6.706869
 31
0.0
  0
LINE
  5
26a
100
AcDbEntity
  8
newlayer
 62
7
100
AcDbLine
 10
120.219529
 20
-6.706869
 30
0.0
 11
120.219529
 21
-16.706877
 31
0.0
  0
LINE
  5
26b
100
AcDbEntity
  8
newlayer
 62
7
100
AcDbLine
 10
120.219529
 20
-16.706877
 30
0.0
 11
123.219529
 21
-16.706877
 31
0.0
  0
LINE
  5
26c
100
AcDbEntity
  8
newlayer
 62
7
100
AcDbLine
 10
123.219529
 20
-16.706877
 30
0.0
 11
123.219529
 21
-26.906868
 31
0.0
  0
LINE
  5
26d
100
AcDbEntity
  8
newlayer
 62
7
100
AcDbLine
 10
123.219529
 20
-26.906868
 30
0.0
 11
120.219529
 21
-26.906868
 31
0.0
  0
LINE
  5
26e
100
AcDbEntity
  8
newlayer
 62
7
100
AcDbLine
 10
120.219529
 20
-26.906868
 30
0.0
 11
120.219529
 21
-36.906876
 31
0.0
  0
LINE
  5
26f
100
AcDbEntity
  8
newlayer
 62
7
100
AcDbLine
 10
120.219529
 20
-36.906876
 30
0.0
 11
123.219529
 21
-36.906876
 31
0.0
  0
LINE
  5
270
100
AcDbEntity
  8
newlayer
 62
7
100
AcDbLine
 10
123.219529
 20
-36.906876
 30
0.0
 11
123.219529
 21
-47.106867
 31
0.0
  0
LINE
  5
271
100
AcDbEntity
  8
newlayer
 62
7
100
AcDbLine
 10
123.219529
 20
-47.106867
 30
0.0
 11
120.219529
 21
-47.106867
 31
0.0
  0
LINE
  5
272
100
AcDbEntity
  8
newlayer
 62
7
100
AcDbLine
 10
120.219529
 20
-47.106867
 30
0.0
 11
120.219529
 21
-57.106875
 31
0.0
  0
LINE
  5
273
100
AcDbEntity
  8
newlayer
 62
7
100
AcDbLine
 10
120.219529
 20
-57.106875
 30
0.0
 11
123.219529
 21
-57.106875
 31
0.0
  0
LINE
  5
274
100
AcDbEntity
  8
newlayer
 62
7
100
AcDbLine
 10
123.219529
 20
-57.106875
 30
0.0
 11
123.219529
 21
-67.306866
 31
0.0
  0
LINE
  5
275
100
AcDbEntity
  8
newlayer
 62
7
100
AcDbLine
 10
123.219529
 20
-67.306866
 30
0.0
 11
111.386194
 21
-67.306866
 31
0.0
  0
LINE
  5
276
100
AcDbEntity
  8
newlayer
 62
7
100
AcDbLine
 10
111.386194
 20
-67.306866
 30
0.0
 11
111.386194
 21
-64.306872
 31
0.0
  0
LINE
  5
277
100
AcDbEntity
  8
newlayer
 62
7
100
AcDbLine
 10
111.386194
 20
-64.306872
 30
0.0
 11
101.386194
 21
-64.306872
 31
0.0
  0
LINE
  5
278
100
AcDbEntity
  8
newlayer
 62
7
100
AcDbLine
 10
101.386194
 20
-64.306872
 30
0.0
 11
101.386194
 21
-67.306866
 31
0.0
  0
LINE
  5
279
100
AcDbEntity
  8
newlayer
 62
7
100
AcDbLine
 10
101.386194
 20
-67.306866
 30
0.0
 11
89.552862
 21
-67.306866
 31
0.0
  0
LINE
  5
27a
100
AcDbEntity
  8
newlayer
 62
7
100
AcDbLine
 10
89.552862
 20
-67.306866
 30
0.0
 11
89.552862
 21
-64.306872
 31
0.0
  0
LINE
  5
27b
100
AcDbEntity
  8
newlayer
 62
7
100
AcDbLine
 10
89.552862
 20
-64.306872
 30
0.0
 11
79.552862
 21
-64.306872
 31
0.0
  0
LINE
  5
27c
100
AcDbEntity
  8
newlayer
 62
7
100
AcDbLine
 10
79.552862
 20
-64.306872
 30
0.0
 11
79.552862
 21
-67.306866
 31
0.0
  0
LINE
  5
27d
100
AcDbEntity
  8
newlayer
 62
7
100
AcDbLine
 10
79.552862
 20
-67.306866
 30
0.0
 11
67.719527
 21
-67.306866
 31
0.0
  0
LINE
  5
27e
100
AcDbEntity
  8
newlayer
 62
7
100
AcDbLine
 10
67.719527
 20
-67.306866
 30
0.0
 11
67.719527
 21
-64.306872
 31
0.0
  0
LINE
  5
27f
100
AcDbEntity
  8
newlayer
 62
7
100
AcDbLine
 10
67.719527
 20
-64.306872
 30
0.0
 11
57.719527
 21
-64.306872
 31
0.0
  0
LINE
  5
280
100
AcDbEntity
  8
newlayer
 62
7
100
AcDbLine
 10
57.719527
 20
-64.306872
 30
0.0
 11
57.719527
 21
-67.306866
 31
0.0
  0
LINE
  5
281
100
AcDbEntity
  8
newlayer
 62
7
100
AcDbLine
 10
57.719527
 20
-67.306866
 30
0.0
 11
45.886195
 21
-67.306866
 31
0.0
  0
LINE
  5
282
100
AcDbEntity
  8
newlayer
 62
7
100
AcDbLine
 10
45.886195
 20
-67.306866
 30
0.0
 11
45.886195
 21
-64.306872
 31
0.0
  0
LINE
  5
283
100
AcDbEntity
  8
newlayer
 62
7
100
AcDbLine
 10
45.886195
 20
-64.306872
 30
0.0
 11
35.886195
 21
-64.306872
 31
0.0
  0
LINE
  5
284
100
AcDbEntity
  8
newlayer
 62
7
100
AcDbLine
 10
35.886195
 20
-64.306872
 30
0.0
 11
35.886195
 21
-67.306866
 31
0.0
  0
LINE
  5
285
100
AcDbEntity
  8
newlayer
 62
7
100
AcDbLine
 10
35.886195
 20
-67.306866
 30
0.0
 11
24.052862
 21
-67.306866
 31
0.0
  0
LINE
  5
286
100
AcDbEntity
  8
newlayer
 62
7
100
AcDbLine
 10
24.052862
 20
-67.306866
 30
0.0
 11
24.052862
 21
-64.306872
 31
0.0
  0
LINE
  5
287
100
AcDbEntity
  8
newlayer
 62
7
100
AcDbLine
 10
24.052862
 20
-64.306872
 30
0.0
 11
14.052862
 21
-64.306872
 31
0.0
  0
LINE
  5
288
100
AcDbEntity
  8
newlayer
 62
7
100
AcDbLine
 10
14.052862
 20
-64.306872
 30
0.0
 11
14.052862
 21
-67.306866
 31
0.0
  0
LINE
  5
289
100
AcDbEntity
  8
newlayer
 62
7
100
AcDbLine
 10
14.052862
 20
-67.306866
 30
0.0
 11
2.219528
 21
-67.306866
 31
0.0
  0
LINE
  5
28a
100
AcDbEntity
  8
newlayer
 62
7
100
AcDbLine
 10
2.219528
 20
-67.306866
 30
0.0
 11
2.219528
 21
-57.106875
 31
0.0
  0
LINE
  5
28b
100
AcDbEntity
  8
newlayer
 62
7
100
AcDbLine
 10
2.219528
 20
-57.106875
 30
0.0
 11
5.219528
 21
-57.106875
 31
0.0
  0
LINE
  5
28c
100
AcDbEntity
  8
newlayer
 62
7
100
AcDbLine
 10
5.219528
 20
-57.106875
 30
0.0
 11
5.219528
 21
-47.106867
 31
0.0
  0
LINE
  5
28d
100
AcDbEntity
  8
newlayer
 62
7
100
AcDbLine
 10
5.219528
 20
-47.106867
 30
0.0
 11
2.219528
 21
-47.106867
 31
0.0
  0
LINE
  5
28e
100
AcDbEntity
  8
newlayer
 62
7
100
AcDbLine
 10
2.219528
 20
-47.106867
 30
0.0
 11
2.219528
 21
-36.906876
 31
0.0
  0
LINE
  5
28f
100
AcDbEntity
  8
newlayer
 62
7
100
AcDbLine
 10
2.219528
 20
-36.906876
 30
0.0
 11
5.219528
 21
-36.906876
 31
0.0
  0
LINE
  5
290
100
AcDbEntity
  8
newlayer
 62
7
100
AcDbLine
 10
5.219528
 20
-36.906876
 30
0.0
 11
5.219528
 21
-26.906868
 31
0.0
  0
LINE
  5
291
100
AcDbEntity
  8
newlayer
 62
7
100
AcDbLine
 10
5.219528
 20
-26.906868
 30
0.0
 11
2.219528
 21
-26.906868
 31
0.0
  0
LINE
  5
292
100
AcDbEntity
  8
newlayer
 62
7
100
AcDbLine
 10
2.219528
 20
-26.906868
 30
0.0
 11
2.219528
 21
-16.706877
 31
0.0
  0
LINE
  5
293
100
AcDbEntity
  8
newlayer
 62
7
100
AcDbLine
 10
2.219528
 20
-16.706877
 30
0.0
 11
5.219528
 21
-16.706877
 31
0.0
  0
LINE
  5
294
100
AcDbEntity
  8
newlayer
 62
7
100
AcDbLine
 10
5.219528
 20
-16.706877
 30
0.0
 11
5.219528
 21
-6.706869
 31
0.0
  0
LINE
  5
295
100
AcDbEntity
  8
newlayer
 62
7
100
AcDbLine
 10
5.219528
 20
-6.706869
 30
0.0
 11
2.219528
 21
-6.706869
 31
0.0
  0
LINE
  5
296
100
AcDbEntity
  8
newlayer
 62
7
100
AcDbLine
 10
2.219528
 20
-6.706869
 30
0.0
 11
2.219528
 21
3.493122
 31
0.0
  0
LINE
  5
297
100
AcDbEntity
  8
newlayer
 62
7
100
AcDbLine
 10
2.219528
 20
3.493122
 30
0.0
 11
5.219528
 21
3.493122
 31
0.0
  0
LINE
  5
298
100
AcDbEntity
  8
newlayer
 62
7
100
AcDbLine
 10
5.219528
 20
3.493122
 30
0.0
 11
5.219528
 21
13.493130
 31
0.0
  0
LINE
  5
299
100
AcDbEntity
  8
newlayer
 62
7
100
AcDbLine
 10
5.219528
 20
13.493130
 30
0.0
 11
2.219528
 21
13.493130
 31
0.0
  0
LINE
  5
29a
100
AcDbEntity
  8
newlayer
 62
7
100
AcDbLine
 10
2.219528
 20
13.493130
 30
0.0
 11
2.219528
 21
23.693127
 31
0.0
  0
LINE
  5
29b
100
AcDbEntity
  8
newlayer
 62
7
100
AcDbLine
 10
88.000000
 20
293.000000
 30
0.0
 11
99.833333
 21
293.000000
 31
0.0
  0
LINE
  5
29c
100
AcDbEntity
  8
newlayer
 62
7
100
AcDbLine
 10
99.833333
 20
293.000000
 30
0.0
 11
99.833333
 21
296.000000
 31
0.0
  0
LINE
  5
29d
100
AcDbEntity
  8
newlayer
 62
7
100
AcDbLine
 10
99.833333
 20
296.000000
 30
0.0
 11
109.833333
 21
296.000000
 31
0.0
  0
LINE
  5
29e
100
AcDbEntity
  8
newlayer
 62
7
100
AcDbLine
 10
109.833333
 20
296.000000
 30
0.0
 11
109.833333
 21
293.000000
 31
0.0
  0
LINE
  5
29f
100
AcDbEntity
  8
newlayer
 62
7
100
AcDbLine
 10
109.833333
 20
293.000000
 30
0.0
 11
121.666667
 21
293.000000
 31
0.0
  0
LINE
  5
2a0
100
AcDbEntity
  8
newlayer
 62
7
100
AcDbLine
 10
121.666667
 20
293.000000
 30
0.0
 11
121.666667
 21
296.000000
 31
0.0
  0
LINE
  5
2a1
100
AcDbEntity
  8
newlayer
 62
7
100
AcDbLine
 10
121.666667
 20
296.000000
 30
0.0
 11
131.666667
 21
296.000000
 31
0.0
  0
LINE
  5
2a2
100
AcDbEntity
  8
newlayer
 62
7
100
AcDbLine
 10
131.666667
 20
296.000000
 30
0.0
 11
131.666667
 21
293.000000
 31
0.0
  0
LINE
  5
2a3
100
AcDbEntity
  8
newlayer
 62
7
100
AcDbLine
 10
131.666667
 20
293.000000
 30
0.0
 11
143.500000
 21
293.000000
 31
0.0
  0
LINE
  5
2a4
100
AcDbEntity
  8
newlayer
 62
7
100
AcDbLine
 10
143.500000
 20
293.000000
 30
0.0
 11
143.500000
 21
296.000000
 31
0.0
  0
LINE
  5
2a5
100
AcDbEntity
  8
newlayer
 62
7
100
AcDbLine
 10
143.500000
 20
296.000000
 30
0.0
 11
153.500000
 21
296.000000
 31
0.0
  0
LINE
  5
2a6
100
AcDbEntity
  8
newlayer
 62
7
100
AcDbLine
 10
153.500000
 20
296.000000
 30
0.0
 11
153.500000
 21
293.000000
 31
0.0
  0
LINE
  5
2a7
100
AcDbEntity
  8
newlayer
 62
7
100
AcDbLine
 10
153.500000
 20
293.000000
 30
0.0
 11
165.333333
 21
293.000000
 31
0.0
  0
LINE
  5
2a8
100
AcDbEntity
  8
newlayer
 62
7
100
AcDbLine
 10
165.333333
 20
293.000000
 30
0.0
 11
165.333333
 21
296.000000
 31
0.0
  0
LINE
  5
2a9
100
AcDbEntity
  8
newlayer
 62
7
100
AcDbLine
 10
165.333333
 20
296.000000
 30
0.0
 11
175.333333
 21
296.000000
 31
0.0
  0
LINE
  5
2aa
100
AcDbEntity
  8
newlayer
 62
7
100
AcDbLine
 10
175.333333
 20
296.000000
 30
0.0
 11
175.333333
 21
293.000000
 31
0.0
  0
LINE
  5
2ab
100
AcDbEntity
  8
newlayer
 62
7
100
AcDbLine
 10
175.333333
 20
293.000000
 30
0.0
 11
187.166667
 21
293.000000
 31
0.0
  0
LINE
  5
2ac
100
AcDbEntity
  8
newlayer
 62
7
100
AcDbLine
 10
187.166667
 20
293.000000
 30
0.0
 11
187.166667
 21
296.000000
 31
0.0
  0
LINE
  5
2ad
100
AcDbEntity
  8
newlayer
 62
7
100
AcDbLine
 10
187.166667
 20
296.000000
 30
0.0
 11
197.166667
 21
296.000000
 31
0.0
  0
LINE
  5
2ae
100
AcDbEntity
  8
newlayer
 62
7
100
AcDbLine
 10
197.166667
 20
296.000000
 30
0.0
 11
197.166667
 21
293.000000
 31
0.0
  0
LINE
  5
2af
100
AcDbEntity
  8
newlayer
 62
7
100
AcDbLine
 10
197.166667
 20
293.000000
 30
0.0
 11
209.000000
 21
293.000000
 31
0.0
  0
LINE
  5
2b0
100
AcDbEntity
  8
newlayer
 62
7
100
AcDbLine
 10
209.000000
 20
293.000000
 30
0.0
 11
209.000000
 21
282.000000
 31
0.0
  0
LINE
  5
2b1
100
AcDbEntity
  8
newlayer
 62
7
100
AcDbLine
 10
209.000000
 20
282.000000
 30
0.0
 11
206.000000
 21
282.000000
 31
0.0
  0
LINE
  5
2b2
100
AcDbEntity
  8
newlayer
 62
7
100
AcDbLine
 10
206.000000
 20
282.000000
 30
0.0
 11
206.000000
 21
272.000000
 31
0.0
  0
LINE
  5
2b3
100
AcDbEntity
  8
newlayer
 62
7
100
AcDbLine
 10
206.000000
 20
272.000000
 30
0.0
 11
209.000000
 21
272.000000
 31
0.0
  0
LINE
  5
2b4
100
AcDbEntity
  8
newlayer
 62
7
100
AcDbLine
 10
209.000000
 20
272.000000
 30
0.0
 11
209.000000
 21
258.000000
 31
0.0
  0
LINE
  5
2b5
100
AcDbEntity
  8
newlayer
 62
7
100
AcDbLine
 10
209.000000
 20
258.000000
 30
0.0
 11
206.000000
 21
258.000000
 31
0.0
  0
LINE
  5
2b6
100
AcDbEntity
  8
newlayer
 62
7
100
AcDbLine
 10
206.000000
 20
258.000000
 30
0.0
 11
206.000000
 21
248.000000
 31
0.0
  0
LINE
  5
2b7
100
AcDbEntity
  8
newlayer
 62
7
100
AcDbLine
 10
206.000000
 20
248.000000
 30
0.0
 11
209.000000
 21
248.000000
 31
0.0
  0
LINE
  5
2b8
100
AcDbEntity
  8
newlayer
 62
7
100
AcDbLine
 10
209.000000
 20
248.000000
 30
0.0
 11
209.000000
 21
234.000000
 31
0.0
  0
LINE
  5
2b9
100
AcDbEntity
  8
newlayer
 62
7
100
AcDbLine
 10
209.000000
 20
234.000000
 30
0.0
 11
206.000000
 21
234.000000
 31
0.0
  0
LINE
  5
2ba
100
AcDbEntity
  8
newlayer
 62
7
100
AcDbLine
 10
206.000000
 20
234.000000
 30
0.0
 11
206.000000
 21
224.000000
 31
0.0
  0
LINE
  5
2bb
100
AcDbEntity
  8
newlayer
 62
7
100
AcDbLine
 10
206.000000
 20
224.000000
 30
0.0
 11
209.000000
 21
224.000000
 31
0.0
  0
LINE
  5
2bc
100
AcDbEntity
  8
newlayer
 62
7
100
AcDbLine
 10
209.000000
 20
224.000000
 30
0.0
 11
209.000000
 21
213.000000
 31
0.0
  0
LINE
  5
2bd
100
AcDbEntity
  8
newlayer
 62
7
100
AcDbLine
 10
209.000000
 20
213.000000
 30
0.0
 11
197.166667
 21
213.000000
 31
0.0
  0
LINE
  5
2be
100
AcDbEntity
  8
newlayer
 62
7
100
AcDbLine
 10
197.166667
 20
213.000000
 30
0.0
 11
197.166667
 21
210.000000
 31
0.0
  0
LINE
  5
2bf
100
AcDbEntity
  8
newlayer
 62
7
100
AcDbLine
 10
197.166667
 20
210.000000
 30
0.0
 11
187.166667
 21
210.000000
 31
0.0
  0
LINE
  5
2c0
100
AcDbEntity
  8
newlayer
 62
7
100
AcDbLine
 10
187.166667
 20
210.000000
 30
0.0
 11
187.166667
 21
213.000000
 31
0.0
  0
LINE
  5
2c1
100
AcDbEntity
  8
newlayer
 62
7
100
AcDbLine
 10
187.166667
 20
213.000000
 30
0.0
 11
175.333333
 21
213.000000
 31
0.0
  0
LINE
  5
2c2
100
AcDbEntity
  8
newlayer
 62
7
100
AcDbLine
 10
175.333333
 20
213.000000
 30
0.0
 11
175.333333
 21
210.000000
 31
0.0
  0
LINE
  5
2c3
100
AcDbEntity
  8
newlayer
 62
7
100
AcDbLine
 10
175.333333
 20
210.000000
 30
0.0
 11
165.333333
 21
210.000000
 31
0.0
  0
LINE
  5
2c4
100
AcDbEntity
  8
newlayer
 62
7
100
AcDbLine
 10
165.333333
 20
210.000000
 30
0.0
 11
165.333333
 21
213.000000
 31
0.0
  0
LINE
  5
2c5
100
AcDbEntity
  8
newlayer
 62
7
100
AcDbLine
 10
165.333333
 20
213.000000
 30
0.0
 11
153.500000
 21
213.000000
 31
0.0
  0
LINE
  5
2c6
100
AcDbEntity
  8
newlayer
 62
7
100
AcDbLine
 10
153.500000
 20
213.000000
 30
0.0
 11
153.500000
 21
210.000000
 31
0.0
  0
LINE
  5
2c7
100
AcDbEntity
  8
newlayer
 62
7
100
AcDbLine
 10
153.500000
 20
210.000000
 30
0.0
 11
143.500000
 21
210.000000
 31
0.0
  0
LINE
  5
2c8
100
AcDbEntity
  8
newlayer
 62
7
100
AcDbLine
 10
143.500000
 20
210.000000
 30
0.0
 11
143.500000
 21
213.000000
 31
0.0
  0
LINE
  5
2c9
100
AcDbEntity
  8
newlayer
 62
7
100
AcDbLine
 10
143.500000
 20
213.000000
 30
0.0
 11
131.666667
 21
213.000000
 31
0.0
  0
LINE
  5
2ca
100
AcDbEntity
  8
newlayer
 62
7
100
AcDbLine
 10
131.666667
 20
213.000000
 30
0.0
 11
131.666667
 21
210.000000
 31
0.0
  0
LINE
  5
2cb
100
AcDbEntity
  8
newlayer
 62
7
100
AcDbLine
 10
131.666667
 20
210.000000
 30
0.0
 11
121.666667
 21
210.000000
 31
0.0
  0
LINE
  5
2cc
100
AcDbEntity
  8
newlayer
 62
7
100
AcDbLine
 10
121.666667
 20
210.000000
 30
0.0
 11
121.666667
 21
213.000000
 31
0.0
  0
LINE
  5
2cd
100
AcDbEntity
  8
newlayer
 62
7
100
AcDbLine
 10
121.666667
 20
213.000000
 30
0.0
 11
109.833333
 21
213.000000
 31
0.0
  0
LINE
  5
2ce
100
AcDbEntity
  8
newlayer
 62
7
100
AcDbLine
 10
109.833333
 20
213.000000
 30
0.0
 11
109.833333
 21
210.000000
 31
0.0
  0
LINE
  5
2cf
100
AcDbEntity
  8
newlayer
 62
7
100
AcDbLine
 10
109.833333
 20
210.000000
 30
0.0
 11
99.833333
 21
210.000000
 31
0.0
  0
LINE
  5
2d0
100
AcDbEntity
  8
newlayer
 62
7
100
AcDbLine
 10
99.833333
 20
210.000000
 30
0.0
 11
99.833333
 21
213.000000
 31
0.0
  0
LINE
  5
2d1
100
AcDbEntity
  8
newlayer
 62
7
100
AcDbLine
 10
99.833333
 20
213.000000
 30
0.0
 11
88.000000
 21
213.000000
 31
0.0
  0
LINE
  5
2d2
100
AcDbEntity
  8
newlayer
 62
7
100
AcDbLine
 10
88.000000
 20
213.000000
 30
0.0
 11
88.000000
 21
224.000000
 31
0.0
  0
LINE
  5
2d3
100
AcDbEntity
  8
newlayer
 62
7
100
AcDbLine
 10
88.000000
 20
224.000000
 30
0.0
 11
91.000000
 21
224.000000
 31
0.0
  0
LINE
  5
2d4
100
AcDbEntity
  8
newlayer
 62
7
100
AcDbLine
 10
91.000000
 20
224.000000
 30
0.0
 11
91.000000
 21
234.000000
 31
0.0
  0
LINE
  5
2d5
100
AcDbEntity
  8
newlayer
 62
7
100
AcDbLine
 10
91.000000
 20
234.000000
 30
0.0
 11
88.000000
 21
234.000000
 31
0.0
  0
LINE
  5
2d6
100
AcDbEntity
  8
newlayer
 62
7
100
AcDbLine
 10
88.000000
 20
234.000000
 30
0.0
 11
88.000000
 21
248.000000
 31
0.0
  0
LINE
  5
2d7
100
AcDbEntity
  8
newlayer
 62
7
100
AcDbLine
 10
88.000000
 20
248.000000
 30
0.0
 11
91.000000
 21
248.000000
 31
0.0
  0
LINE
  5
2d8
100
AcDbEntity
  8
newlayer
 62
7
100
AcDbLine
 10
91.000000
 20
248.000000
 30
0.0
 11
91.000000
 21
258.000000
 31
0.0
  0
LINE
  5
2d9
100
AcDbEntity
  8
newlayer
 62
7
100
AcDbLine
 10
91.000000
 20
258.000000
 30
0.0
 11
88.000000
 21
258.000000
 31
0.0
  0
LINE
  5
2da
100
AcDbEntity
  8
newlayer
 62
7
100
AcDbLine
 10
88.000000
 20
258.000000
 30
0.0
 11
88.000000
 21
272.000000
 31
0.0
  0
LINE
  5
2db
100
AcDbEntity
  8
newlayer
 62
7
100
AcDbLine
 10
88.000000
 20
272.000000
 30
0.0
 11
91.000000
 21
272.000000
 31
0.0
  0
LINE
  5
2dc
100
AcDbEntity
  8
newlayer
 62
7
100
AcDbLine
 10
91.000000
 20
272.000000
 30
0.0
 11
91.000000
 21
282.000000
 31
0.0
  0
LINE
  5
2dd
100
AcDbEntity
  8
newlayer
 62
7
100
AcDbLine
 10
91.000000
 20
282.000000
 30
0.0
 11
88.000000
 21
282.000000
 31
0.0
  0
LINE
  5
2de
100
AcDbEntity
  8
newlayer
 62
7
100
AcDbLine
 10
88.000000
 20
282.000000
 30
0.0
 11
88.000000
 21
293.000000
 31
0.0
  0
SPLINE
  5
2df
100
AcDbEntity
  8
newlayer
 62
7
100
AcDbSpline
 70
0
 71
3
 72
10
 73
6
 74
4
 40
0.000000
 40
0.000000
 40
0.000000
 40
0.000000
 40
3.595942
 40
7.191890
 40
10.787832
 40
10.787832
 40
10.787832
 40
10.787832
 10
72.739408
 20
97.285069
 30
0.0
 10
71.540761
 20
97.285069
 30
0.0
 10
69.143464
 20
97.285069
 30
0.0
 10
65.547520
 20
97.285069
 30
0.0
 10
63.150224
 20
97.285069
 30
0.0
 10
61.951576
 20
97.285069
 30
0.0
 11
72.739408
 21
97.285069
 31
0.0
 11
69.143466
 21
97.285069
 31
0.0
 11
65.547518
 21
97.285069
 31
0.0
 11
61.951576
 21
97.285069
 31
0.0
  0
LINE
  5
2e0
100
AcDbEntity
  8
newlayer
 62
7
100
AcDbLine
 10
113.709845
 20
102.556684
 30
0.0
 11
113.709845
 21
102.556684
 31
0.0
  0
SPLINE
  5
2e1
100
AcDbEntity
  8
newlayer
 62
7
100
AcDbSpline
 70
0
 71
3
 72
19
 73
15
 74
13
 40
0.000000
 40
0.000000
 40
0.000000
 40
0.000000
 40
1.882292
 40
3.708756
 40
5.591047
 40
7.473339
 40
9.299803
 40
11.182095
 40
13.064387
 40
14.890852
 40
16.773145
 40
18.655437
 40
20.481902
 40
22.364195
 40
22.364195
 40
22.364195
 40
22.364195
 10
113.709845
 20
102.556684
 30
0.0
 10
113.610900
 20
101.922064
 30
0.0
 10
113.415943
 20
100.671646
 30
0.0
 10
111.982724
 20
99.295038
 30
0.0
 10
110.113151
 20
98.784962
 30
0.0
 10
108.223949
 20
99.295038
 30
0.0
 10
106.848451
 20
100.671646
 30
0.0
 10
106.337998
 20
102.556684
 30
0.0
 10
106.848450
 20
104.441723
 30
0.0
 10
108.223948
 20
105.818332
 30
0.0
 10
110.113151
 20
106.328408
 30
0.0
 10
111.982725
 20
105.818332
 30
0.0
 10
113.415944
 20
104.441723
 30
0.0
 10
113.610900
 20
103.191304
 30
0.0
 10
113.709845
 20
102.556684
 30
0.0
 11
113.709845
 21
102.556684
 31
0.0
 11
113.218339
 21
100.739696
 31
0.0
 11
111.926834
 21
99.448191
 31
0.0
 11
110.109847
 21
98.956685
 31
0.0
 11
108.292859
 21
99.448191
 31
0.0
 11
107.001354
 21
100.739696
 31
0.0
 11
106.509848
 21
102.556684
 31
0.0
 11
107.001353
 21
104.373673
 31
0.0
 11
108.292858
 21
105.665179
 31
0.0
 11
110.109847
 21
106.156685
 31
0.0
 11
111.926835
 21
105.665179
 31
0.0
 11
113.218340
 21
104.373673
 31
0.0
 11
113.709845
 21
102.556684
 31
0.0
  0
LINE
  5
2e2
100
AcDbEntity
  8
newlayer
 62
7
100
AcDbLine
 10
123.539843
 20
102.556684
 30
0.0
 11
123.539843
 21
102.556684
 31
0.0
  0
LINE
  5
2e3
100
AcDbEntity
  8
newlayer
 62
7
100
AcDbLine
 10
140.289844
 20
105.041873
 30
0.0
 11
142.789854
 21
105.041873
 31
0.0
  0
LINE
  5
2e4
100
AcDbEntity
  8
newlayer
 62
7
100
AcDbLine
 10
142.789854
 20
105.041873
 30
0.0
 11
142.789854
 21
99.641873
 31
0.0
  0
LINE
  5
2e5
100
AcDbEntity
  8
newlayer
 62
7
100
AcDbLine
 10
142.789854
 20
99.641873
 30
0.0
 11
140.289844
 21
99.641873
 31
0.0
  0
LINE
  5
2e6
100
AcDbEntity
  8
newlayer
 62
7
100
AcDbLine
 10
140.289844
 20
99.641873
 30
0.0
 11
140.289844
 21
105.041873
 31
0.0
  0
SPLINE
  5
2e7
100
AcDbEntity
  8
newlayer
 62
7
100
AcDbSpline
 70
0
 71
3
 72
19
 73
15
 74
13
 40
0.000000
 40
0.000000
 40
0.000000
 40
0.000000
 40
1.045717
 40
2.060418
 40
3.106134
 40
4.151851
 40
5.166552
 40
6.212268
 40
7.257986
 40
8.272687
 40
9.318405
 40
10.364122
 40
11.378824
 40
12.424542
 40
12.424542
 40
12.424542
 40
12.424542
 10
123.539843
 20
102.556684
 30
0.0
 10
123.484873
 20
102.204117
 30
0.0
 10
123.376564
 20
101.509442
 30
0.0
 10
122.580332
 20
100.744660
 30
0.0
 10
121.541682
 20
100.461283
 30
0.0
 10
120.492127
 20
100.744660
 30
0.0
 10
119.727963
 20
101.509442
 30
0.0
 10
119.444379
 20
102.556684
 30
0.0
 10
119.727962
 20
103.603927
 30
0.0
 10
120.492126
 20
104.368710
 30
0.0
 10
121.541682
 20
104.652088
 30
0.0
 10
122.580333
 20
104.368710
 30
0.0
 10
123.376565
 20
103.603927
 30
0.0
 10
123.484873
 20
102.909251
 30
0.0
 10
123.539843
 20
102.556684
 30
0.0
 11
123.539843
 21
102.556684
 31
0.0
 11
123.266784
 21
101.547247
 31
0.0
 11
122.549283
 21
100.829745
 31
0.0
 11
121.539847
 21
100.556685
 31
0.0
 11
120.530410
 21
100.829745
 31
0.0
 11
119.812909
 21
101.547247
 31
0.0
 11
119.539851
 21
102.556684
 31
0.0
 11
119.812908
 21
103.566122
 31
0.0
 11
120.530410
 21
104.283625
 31
0.0
 11
121.539847
 21
104.556686
 31
0.0
 11
122.549284
 21
104.283625
 31
0.0
 11
123.266785
 21
103.566122
 31
0.0
 11
123.539843
 21
102.556684
 31
0.0
  0
LINE
  5
2e8
100
AcDbEntity
  8
newlayer
 62
7
100
AcDbLine
 10
131.803027
 20
93.846691
 30
0.0
 11
131.803027
 21
93.846691
 31
0.0
  0
SPLINE
  5
2e9
100
AcDbEntity
  8
newlayer
 62
7
100
AcDbSpline
 70
0
 71
3
 72
25
 73
21
 74
19
 40
0.000000
 40
0.000000
 40
0.000000
 40
0.000000
 40
0.754578
 40
1.486775
 40
2.241353
 40
2.619145
 40
2.993810
 40
3.371602
 40
3.749394
 40
4.124060
 40
4.501851
 40
4.879643
 40
5.254309
 40
5.632101
 40
6.009893
 40
6.384558
 40
6.762350
 40
7.516928
 40
8.249125
 40
9.003703
 40
9.003703
 40
9.003703
 40
9.003703
 10
131.803027
 20
93.846691
 30
0.0
 10
131.763316
 20
93.592300
 30
0.0
 10
131.685073
 20
93.091063
 30
0.0
 10
131.111188
 20
92.538952
 30
0.0
 10
130.485550
 20
92.369656
 30
0.0
 10
129.982075
 20
92.436814
 30
0.0
 10
129.629995
 20
92.582490
 30
0.0
 10
129.327574
 20
92.814418
 30
0.0
 10
129.095673
 20
93.116844
 30
0.0
 10
128.949864
 20
93.468862
 30
0.0
 10
128.899983
 20
93.846691
 30
0.0
 10
128.949864
 20
94.224520
 30
0.0
 10
129.095673
 20
94.576538
 30
0.0
 10
129.327574
 20
94.878964
 30
0.0
 10
129.629995
 20
95.110892
 30
0.0
 10
129.982075
 20
95.256568
 30
0.0
 10
130.485550
 20
95.323725
 30
0.0
 10
131.111188
 20
95.154430
 30
0.0
 10
131.685073
 20
94.602318
 30
0.0
 10
131.763316
 20
94.101082
 30
0.0
 10
131.803027
 20
93.846691
 30
0.0
 11
131.803027
 21
93.846691
 31
0.0
 11
131.605993
 21
93.118292
 31
0.0
 11
131.088253
 21
92.600548
 31
0.0
 11
130.359856
 21
92.403508
 31
0.0
 11
129.985313
 21
92.452948
 31
0.0
 11
129.639166
 21
92.596323
 31
0.0
 11
129.339360
 21
92.826200
 31
0.0
 11
129.109480
 21
93.126003
 31
0.0
 11
128.966101
 21
93.472149
 31
0.0
 11
128.916656
 21
93.846691
 31
0.0
 11
128.966101
 21
94.221233
 31
0.0
 11
129.109480
 21
94.567379
 31
0.0
 11
129.339360
 21
94.867181
 31
0.0
 11
129.639166
 21
95.097058
 31
0.0
 11
129.985313
 21
95.240433
 31
0.0
 11
130.359856
 21
95.289874
 31
0.0
 11
131.088253
 21
95.092833
 31
0.0
 11
131.605993
 21
94.575090
 31
0.0
 11
131.803027
 21
93.846691
 31
0.0
  0
LINE
  5
2ea
100
AcDbEntity
  8
newlayer
 62
7
100
AcDbLine
 10
131.803027
 20
111.266680
 30
0.0
 11
131.803027
 21
111.266680
 31
0.0
  0
LINE
  5
2eb
100
AcDbEntity
  8
newlayer
 62
7
100
AcDbLine
 10
91.084231
 20
90.633571
 30
0.0
 11
116.015798
 21
90.633571
 31
0.0
  0
LINE
  5
2ec
100
AcDbEntity
  8
newlayer
 62
7
100
AcDbLine
 10
116.015798
 20
90.633571
 30
0.0
 11
116.015798
 21
87.701991
 31
0.0
  0
LINE
  5
2ed
100
AcDbEntity
  8
newlayer
 62
7
100
AcDbLine
 10
116.015798
 20
87.701991
 30
0.0
 11
91.084231
 21
87.701991
 31
0.0
  0
LINE
  5
2ee
100
AcDbEntity
  8
newlayer
 62
7
100
AcDbLine
 10
91.084231
 20
87.701991
 30
0.0
 11
91.084231
 21
90.633571
 31
0.0
  0
LINE
  5
2ef
100
AcDbEntity
  8
newlayer
 62
7
100
AcDbLine
 10
146.084205
 20
90.633571
 30
0.0
 11
171.015801
 21
90.633571
 31
0.0
  0
LINE
  5
2f0
100
AcDbEntity
  8
newlayer
 62
7
100
AcDbLine
 10
171.015801
 20
90.633571
 30
0.0
 11
171.015801
 21
87.701991
 31
0.0
  0
LINE
  5
2f1
100
AcDbEntity
  8
newlayer
 62
7
100
AcDbLine
 10
171.015801
 20
87.701991
 30
0.0
 11
146.084205
 21
87.701991
 31
0.0
  0
LINE
  5
2f2
100
AcDbEntity
  8
newlayer
 62
7
100
AcDbLine
 10
146.084205
 20
87.701991
 30
0.0
 11
146.084205
 21
90.633571
 31
0.0
  0
LINE
  5
2f3
100
AcDbEntity
  8
newlayer
 62
1
100
AcDbLine
 10
76.269503
 20
-26.854882
 30
0.0
 11
76.269503
 21
-45.390504
 31
0.0
  0
LINE
  5
2f4
100
AcDbEntity
  8
newlayer
 62
1
100
AcDbLine
 10
76.269503
 20
-45.390504
 30
0.0
 11
74.765258
 21
-45.390504
 31
0.0
  0
SPLINE
  5
2f5
100
AcDbEntity
  8
newlayer
 62
7
100
AcDbSpline
 70
0
 71
3
 72
25
 73
21
 74
19
 40
0.000000
 40
0.000000
 40
0.000000
 40
0.000000
 40
0.754578
 40
1.486775
 40
2.241353
 40
2.619145
 40
2.993810
 40
3.371602
 40
3.749394
 40
4.124060
 40
4.501851
 40
4.879643
 40
5.254308
 40
5.632099
 40
6.009891
 40
6.384556
 40
6.762347
 40
7.516924
 40
8.249121
 40
9.003697
 40
9.003697
 40
9.003697
 40
9.003697
 10
131.803027
 20
111.266680
 30
0.0
 10
131.763316
 20
111.012289
 30
0.0
 10
131.685073
 20
110.511052
 30
0.0
 10
131.111188
 20
109.958941
 30
0.0
 10
130.485550
 20
109.789645
 30
0.0
 10
129.982075
 20
109.856803
 30
0.0
 10
129.629995
 20
110.002479
 30
0.0
 10
129.327574
 20
110.234407
 30
0.0
 10
129.095673
 20
110.536833
 30
0.0
 10
128.949864
 20
110.888851
 30
0.0
 10
128.899983
 20
111.266680
 30
0.0
 10
128.949864
 20
111.644508
 30
0.0
 10
129.095674
 20
111.996525
 30
0.0
 10
129.327575
 20
112.298951
 30
0.0
 10
129.629996
 20
112.530878
 30
0.0
 10
129.982075
 20
112.676554
 30
0.0
 10
130.485549
 20
112.743711
 30
0.0
 10
131.111187
 20
112.574416
 30
0.0
 10
131.685072
 20
112.022306
 30
0.0
 10
131.763316
 20
111.521070
 30
0.0
 10
131.803027
 20
111.266680
 30
0.0
 11
131.803027
 21
111.266680
 31
0.0
 11
131.605993
 21
110.538281
 31
0.0
 11
131.088253
 21
110.020537
 31
0.0
 11
130.359856
 21
109.823497
 31
0.0
 11
129.985313
 21
109.872937
 31
0.0
 11
129.639166
 21
110.016312
 31
0.0
 11
129.339360
 21
110.246189
 31
0.0
 11
129.109480
 21
110.545992
 31
0.0
 11
128.966101
 21
110.892137
 31
0.0
 11
128.916656
 21
111.266680
 31
0.0
 11
128.966101
 21
111.641221
 31
0.0
 11
129.109481
 21
111.987366
 31
0.0
 11
129.339361
 21
112.287169
 31
0.0
 11
129.639166
 21
112.517045
 31
0.0
 11
129.985313
 21
112.660420
 31
0.0
 11
130.359856
 21
112.709860
 31
0.0
 11
131.088252
 21
112.512820
 31
0.0
 11
131.605992
 21
111.995077
 31
0.0
 11
131.803027
 21
111.266680
 31
0.0
  0
LINE
  5
2f6
100
AcDbEntity
  8
newlayer
 62
1
100
AcDbLine
 10
72.308683
 20
-47.546484
 30
0.0
 11
72.308683
 21
-53.670961
 31
0.0
  0
LINE
  5
2f7
100
AcDbEntity
  8
newlayer
 62
1
100
AcDbLine
 10
72.308683
 20
-53.670961
 30
0.0
 11
72.189698
 21
-53.670961
 31
0.0
  0
LINE
  5
2f8
100
AcDbEntity
  8
newlayer
 62
1
100
AcDbLine
 10
72.189698
 20
-53.670961
 30
0.0
 11
61.075674
 21
-60.730326
 31
0.0
  0
LINE
  5
2f9
100
AcDbEntity
  8
newlayer
 62
1
100
AcDbLine
 10
61.075674
 20
-60.730326
 30
0.0
 11
49.961792
 21
-53.670961
 31
0.0
  0
LINE
  5
2fa
100
AcDbEntity
  8
newlayer
 62
1
100
AcDbLine
 10
49.961792
 20
-53.670961
 30
0.0
 11
49.799429
 21
-53.670961
 31
0.0
  0
LINE
  5
2fb
100
AcDbEntity
  8
newlayer
 62
1
100
AcDbLine
 10
49.799429
 20
-53.670961
 30
0.0
 11
49.799429
 21
-41.994355
 31
0.0
  0
SPLINE
  5
2fc
100
AcDbEntity
  8
newlayer
 62
1
100
AcDbSpline
 70
0
 71
3
 72
10
 73
6
 74
4
 40
0.000000
 40
0.000000
 40
0.000000
 40
0.000000
 40
1.275163
 40
2.446124
 40
3.587933
 40
3.587933
 40
3.587933
 40
3.587933
 10
74.765258
 20
-45.390504
 30
0.0
 10
74.339158
 20
-45.446249
 30
0.0
 10
73.521777
 20
-45.553184
 30
0.0
 10
72.523464
 20
-46.386808
 30
0.0
 10
72.379673
 20
-47.163188
 30
0.0
 10
72.308683
 20
-47.546484
 30
0.0
 11
74.765258
 21
-45.390504
 31
0.0
 11
73.524125
 21
-45.683126
 31
0.0
 11
72.643451
 21
-46.454854
 31
0.0
 11
72.308683
 21
-47.546484
 31
0.0
  0
LINE
  5
2fd
100
AcDbEntity
  8
newlayer
 62
1
100
AcDbLine
 10
66.973583
 20
-26.854882
 30
0.0
 11
76.269503
 21
-26.854882
 31
0.0
  0
LINE
  5
2fe
100
AcDbEntity
  8
newlayer
 62
1
100
AcDbLine
 10
76.269503
 20
-26.854882
 30
0.0
 11
76.269503
 21
-26.854882
 31
0.0
  0
LINE
  5
2ff
100
AcDbEntity
  8
newlayer
 62
1
100
AcDbLine
 10
74.656857
 20
-15.574771
 30
0.0
 11
74.656857
 21
2.960823
 31
0.0
  0
LINE
  5
300
100
AcDbEntity
  8
newlayer
 62
1
100
AcDbLine
 10
74.656857
 20
2.960823
 30
0.0
 11
73.152641
 21
2.960823
 31
0.0
  0
SPLINE
  5
301
100
AcDbEntity
  8
newlayer
 62
1
100
AcDbSpline
 70
0
 71
3
 72
10
 73
6
 74
4
 40
0.000000
 40
0.000000
 40
0.000000
 40
0.000000
 40
8.002718
 40
16.206699
 40
25.130174
 40
25.130174
 40
25.130174
 40
25.130174
 10
49.799429
 20
-41.994355
 30
0.0
 10
50.294948
 20
-39.308486
 30
0.0
 10
51.298447
 20
-33.869202
 30
0.0
 10
58.267257
 20
-28.003817
 30
0.0
 10
63.991321
 20
-27.248438
 30
0.0
 10
66.973583
 20
-26.854882
 30
0.0
 11
49.799429
 21
-41.994355
 31
0.0
 11
52.137133
 21
-34.340687
 31
0.0
 11
58.291316
 21
-28.915621
 31
0.0
 11
66.973583
 21
-26.854882
 31
0.0
  0
LINE
  5
302
100
AcDbEntity
  8
newlayer
 62
1
100
AcDbLine
 10
70.696037
 20
5.116803
 30
0.0
 11
70.696037
 21
11.241308
 31
0.0
  0
LINE
  5
303
100
AcDbEntity
  8
newlayer
 62
1
100
AcDbLine
 10
70.696037
 20
11.241308
 30
0.0
 11
70.577081
 21
11.241308
 31
0.0
  0
LINE
  5
304
100
AcDbEntity
  8
newlayer
 62
1
100
AcDbLine
 10
70.577081
 20
11.241308
 30
0.0
 11
59.463057
 21
18.300684
 31
0.0
  0
LINE
  5
305
100
AcDbEntity
  8
newlayer
 62
1
100
AcDbLine
 10
59.463057
 20
18.300684
 30
0.0
 11
48.349117
 21
11.241308
 31
0.0
  0
LINE
  5
306
100
AcDbEntity
  8
newlayer
 62
1
100
AcDbLine
 10
48.349117
 20
11.241308
 30
0.0
 11
48.186755
 21
11.241308
 31
0.0
  0
LINE
  5
307
100
AcDbEntity
  8
newlayer
 62
1
100
AcDbLine
 10
48.186755
 20
11.241308
 30
0.0
 11
48.186755
 21
-0.435298
 31
0.0
  0
SPLINE
  5
308
100
AcDbEntity
  8
newlayer
 62
1
100
AcDbSpline
 70
0
 71
3
 72
10
 73
6
 74
4
 40
0.000000
 40
0.000000
 40
0.000000
 40
0.000000
 40
1.275172
 40
2.446147
 40
3.587946
 40
3.587946
 40
3.587946
 40
3.587946
 10
73.152641
 20
2.960823
 30
0.0
 10
72.726538
 20
3.016570
 30
0.0
 10
71.909151
 20
3.123510
 30
0.0
 10
70.910831
 20
3.957131
 30
0.0
 10
70.767030
 20
4.733511
 30
0.0
 10
70.696037
 20
5.116803
 30
0.0
 11
73.152641
 21
2.960823
 31
0.0
 11
71.911499
 21
3.253451
 31
0.0
 11
71.030812
 21
4.025185
 31
0.0
 11
70.696037
 21
5.116803
 31
0.0
  0
LINE
  5
309
100
AcDbEntity
  8
newlayer
 62
1
100
AcDbLine
 10
65.360937
 20
-15.574771
 30
0.0
 11
74.656857
 21
-15.574771
 31
0.0
  0
LINE
  5
30a
100
AcDbEntity
  8
newlayer
 62
1
100
AcDbLine
 10
74.656857
 20
-15.574771
 30
0.0
 11
74.656857
 21
-15.574771
 31
0.0
  0
LINE
  5
30b
100
AcDbEntity
  8
newlayer
 62
1
100
AcDbLine
 10
44.322540
 20
-5.717256
 30
0.0
 11
44.322540
 21
-35.906088
 31
0.0
  0
LINE
  5
30c
100
AcDbEntity
  8
newlayer
 62
1
100
AcDbLine
 10
44.322540
 20
-35.906088
 30
0.0
 11
26.055169
 21
-35.906088
 31
0.0
  0
LINE
  5
30d
100
AcDbEntity
  8
newlayer
 62
1
100
AcDbLine
 10
26.055169
 20
-35.906088
 30
0.0
 11
12.400355
 21
-20.816484
 31
0.0
  0
LINE
  5
30e
100
AcDbEntity
  8
newlayer
 62
1
100
AcDbLine
 10
12.400355
 20
-20.816484
 30
0.0
 11
26.055169
 21
-5.717256
 31
0.0
  0
LINE
  5
30f
100
AcDbEntity
  8
newlayer
 62
1
100
AcDbLine
 10
26.055169
 20
-5.717256
 30
0.0
 11
44.322540
 21
-5.717256
 31
0.0
  0
LINE
  5
310
100
AcDbEntity
  8
newlayer
 62
1
100
AcDbLine
 10
44.322540
 20
-5.717256
 30
0.0
 11
44.322540
 21
-5.717256
 31
0.0
  0
LINE
  5
311
100
AcDbEntity
  8
newlayer
 62
5
100
AcDbLine
 10
44.286864
 20
183.442439
 30
0.0
 11
52.603840
 21
183.442439
 31
0.0
  0
SPLINE
  5
312
100
AcDbEntity
  8
newlayer
 62
1
100
AcDbSpline
 70
0
 71
3
 72
10
 73
6
 74
4
 40
0.000000
 40
0.000000
 40
0.000000
 40
0.000000
 40
8.002720
 40
16.206711
 40
25.130193
 40
25.130193
 40
25.130193
 40
25.130193
 10
48.186755
 20
-0.435298
 30
0.0
 10
48.682276
 20
-3.121167
 30
0.0
 10
49.685780
 20
-8.560455
 30
0.0
 10
56.654604
 20
-14.425834
 30
0.0
 10
62.378674
 20
-15.181215
 30
0.0
 10
65.360937
 20
-15.574771
 30
0.0
 11
48.186755
 21
-0.435298
 31
0.0
 11
50.524466
 21
-8.088966
 31
0.0
 11
56.678663
 21
-13.514032
 31
0.0
 11
65.360937
 21
-15.574771
 31
0.0
  0
LINE
  5
313
100
AcDbEntity
  8
newlayer
 62
5
100
AcDbLine
 10
55.605372
 20
180.867890
 30
0.0
 11
55.605372
 21
170.966081
 31
0.0
  0
SPLINE
  5
314
100
AcDbEntity
  8
newlayer
 62
5
100
AcDbSpline
 70
0
 71
3
 72
10
 73
6
 74
4
 40
0.000000
 40
0.000000
 40
0.000000
 40
0.000000
 40
1.557187
 40
2.974334
 40
4.338376
 40
4.338376
 40
4.338376
 40
4.338376
 10
52.603840
 20
183.442439
 30
0.0
 10
53.123794
 20
183.376049
 30
0.0
 10
54.116942
 20
183.249239
 30
0.0
 10
55.338652
 20
182.258870
 30
0.0
 10
55.517605
 20
181.325609
 30
0.0
 10
55.605372
 20
180.867890
 30
0.0
 11
52.603840
 21
183.442439
 31
0.0
 11
54.121064
 21
183.091920
 31
0.0
 11
55.196722
 21
182.169279
 31
0.0
 11
55.605372
 21
180.867890
 31
0.0
  0
LINE
  5
315
100
AcDbEntity
  8
newlayer
 62
5
100
AcDbLine
 10
52.603840
 20
168.391534
 30
0.0
 11
44.286864
 21
168.391534
 31
0.0
  0
SPLINE
  5
316
100
AcDbEntity
  8
newlayer
 62
5
100
AcDbSpline
 70
0
 71
3
 72
10
 73
6
 74
4
 40
0.000000
 40
0.000000
 40
0.000000
 40
0.000000
 40
1.364041
 40
2.781188
 40
4.338374
 40
4.338374
 40
4.338374
 40
4.338374
 10
55.605372
 20
170.966081
 30
0.0
 10
55.517605
 20
170.508361
 30
0.0
 10
55.338652
 20
169.575101
 30
0.0
 10
54.116941
 20
168.584733
 30
0.0
 10
53.123794
 20
168.457924
 30
0.0
 10
52.603840
 20
168.391534
 30
0.0
 11
55.605372
 21
170.966081
 31
0.0
 11
55.196722
 21
169.664692
 31
0.0
 11
54.121064
 21
168.742052
 31
0.0
 11
52.603840
 21
168.391534
 31
0.0
  0
LINE
  5
317
100
AcDbEntity
  8
newlayer
 62
5
100
AcDbLine
 10
41.285332
 20
170.966081
 30
0.0
 11
41.285332
 21
180.867890
 31
0.0
  0
SPLINE
  5
318
100
AcDbEntity
  8
newlayer
 62
5
100
AcDbSpline
 70
0
 71
3
 72
10
 73
6
 74
4
 40
0.000000
 40
0.000000
 40
0.000000
 40
0.000000
 40
1.557174
 40
2.974326
 40
4.338369
 40
4.338369
 40
4.338369
 40
4.338369
 10
44.286864
 20
168.391534
 30
0.0
 10
43.766915
 20
168.457925
 30
0.0
 10
42.773771
 20
168.584737
 30
0.0
 10
41.552059
 20
169.575100
 30
0.0
 10
41.373102
 20
170.508361
 30
0.0
 10
41.285332
 20
170.966081
 30
0.0
 11
44.286864
 21
168.391534
 31
0.0
 11
42.769653
 21
168.742052
 31
0.0
 11
41.693989
 21
169.664692
 31
0.0
 11
41.285332
 21
170.966081
 31
0.0
  0
LINE
  5
319
100
AcDbEntity
  8
newlayer
 62
5
100
AcDbLine
 10
44.286864
 20
183.442439
 30
0.0
 11
44.286864
 21
183.442439
 31
0.0
  0
LINE
  5
31a
100
AcDbEntity
  8
newlayer
 62
7
100
AcDbLine
 10
21.946953
 20
277.416975
 30
0.0
 11
72.970398
 21
277.416975
 31
0.0
  0
LINE
  5
31b
100
AcDbEntity
  8
newlayer
 62
7
100
AcDbLine
 10
72.970398
 20
277.416975
 30
0.0
 11
72.970398
 21
233.520718
 31
0.0
  0
LINE
  5
31c
100
AcDbEntity
  8
newlayer
 62
7
100
AcDbLine
 10
72.970398
 20
233.520718
 30
0.0
 11
21.946953
 21
233.520718
 31
0.0
  0
LINE
  5
31d
100
AcDbEntity
  8
newlayer
 62
7
100
AcDbLine
 10
21.946953
 20
233.520718
 30
0.0
 11
21.946953
 21
277.416975
 31
0.0
  0
LINE
  5
31e
100
AcDbEntity
  8
newlayer
 62
5
100
AcDbLine
 10
4.191028
 20
206.000775
 30
0.0
 11
19.591195
 21
206.000775
 31
0.0
  0
LINE
  5
31f
100
AcDbEntity
  8
newlayer
 62
5
100
AcDbLine
 10
19.591195
 20
206.000775
 30
0.0
 11
19.591195
 21
120.999226
 31
0.0
  0
LINE
  5
320
100
AcDbEntity
  8
newlayer
 62
5
100
AcDbLine
 10
19.591195
 20
120.999226
 30
0.0
 11
4.191028
 21
120.999226
 31
0.0
  0
LINE
  5
321
100
AcDbEntity
  8
newlayer
 62
5
100
AcDbLine
 10
4.191028
 20
120.999226
 30
0.0
 11
4.191028
 21
206.000775
 31
0.0
  0
LINE
  5
322
100
AcDbEntity
  8
newlayer
 62
7
100
AcDbLine
 10
17.692438
 20
203.695606
 30
0.0
 11
19.589784
 21
203.695606
 31
0.0
  0
LINE
  5
323
100
AcDbEntity
  8
newlayer
 62
7
100
AcDbLine
 10
19.589784
 20
203.695606
 30
0.0
 11
19.589784
 21
193.498260
 31
0.0
  0
LINE
  5
324
100
AcDbEntity
  8
newlayer
 62
7
100
AcDbLine
 10
19.589784
 20
193.498260
 30
0.0
 11
17.692438
 21
193.498260
 31
0.0
  0
LINE
  5
325
100
AcDbEntity
  8
newlayer
 62
7
100
AcDbLine
 10
17.692438
 20
193.498260
 30
0.0
 11
17.692438
 21
203.695606
 31
0.0
  0
SPLINE
  5
326
100
AcDbEntity
  8
newlayer
 62
5
100
AcDbSpline
 70
0
 71
3
 72
10
 73
6
 74
4
 40
0.000000
 40
0.000000
 40
0.000000
 40
0.000000
 40
1.364044
 40
2.781196
 40
4.338370
 40
4.338370
 40
4.338370
 40
4.338370
 10
41.285332
 20
180.867890
 30
0.0
 10
41.373102
 20
181.325610
 30
0.0
 10
41.552059
 20
182.258871
 30
0.0
 10
42.773771
 20
183.249235
 30
0.0
 10
43.766915
 20
183.376048
 30
0.0
 10
44.286864
 20
183.442439
 30
0.0
 11
41.285332
 21
180.867890
 31
0.0
 11
41.693989
 21
182.169279
 31
0.0
 11
42.769653
 21
183.091920
 31
0.0
 11
44.286864
 21
183.442439
 31
0.0
  0
LINE
  5
327
100
AcDbEntity
  8
newlayer
 62
7
100
AcDbLine
 10
10.001002
 20
198.596923
 30
0.0
 11
10.001002
 21
198.596923
 31
0.0
  0
LINE
  5
328
100
AcDbEntity
  8
newlayer
 62
7
100
AcDbLine
 10
17.692438
 20
133.501744
 30
0.0
 11
19.589784
 21
133.501744
 31
0.0
  0
LINE
  5
329
100
AcDbEntity
  8
newlayer
 62
7
100
AcDbLine
 10
19.589784
 20
133.501744
 30
0.0
 11
19.589784
 21
123.304397
 31
0.0
  0
LINE
  5
32a
100
AcDbEntity
  8
newlayer
 62
7
100
AcDbLine
 10
19.589784
 20
123.304397
 30
0.0
 11
17.692438
 21
123.304397
 31
0.0
  0
LINE
  5
32b
100
AcDbEntity
  8
newlayer
 62
7
100
AcDbLine
 10
17.692438
 20
123.304397
 30
0.0
 11
17.692438
 21
133.501744
 31
0.0
  0
SPLINE
  5
32c
100
AcDbEntity
  8
newlayer
 62
7
100
AcDbSpline
 70
0
 71
3
 72
28
 73
24
 74
22
 40
0.000000
 40
0.000000
 40
0.000000
 40
0.000000
 40
0.378680
 40
0.754227
 40
1.132907
 40
1.511588
 40
1.887135
 40
2.265815
 40
2.644496
 40
3.020043
 40
3.398724
 40
3.777405
 40
4.152952
 40
4.531633
 40
4.910313
 40
5.285860
 40
5.664540
 40
6.043220
 40
6.418767
 40
6.797447
 40
7.553808
 40
8.287736
 40
9.044096
 40
9.044096
 40
9.044096
 40
9.044096
 10
10.001002
 20
198.596923
 30
0.0
 10
10.010645
 20
198.470335
 30
0.0
 10
10.029851
 20
198.218205
 30
0.0
 10
10.181634
 20
197.865361
 30
0.0
 10
10.412558
 20
197.562213
 30
0.0
 10
10.716112
 20
197.329773
 30
0.0
 10
11.068847
 20
197.183620
 30
0.0
 10
11.447594
 20
197.133622
 30
0.0
 10
11.826305
 20
197.183619
 30
0.0
 10
12.179151
 20
197.329772
 30
0.0
 10
12.482299
 20
197.562212
 30
0.0
 10
12.714739
 20
197.865360
 30
0.0
 10
12.860892
 20
198.218205
 30
0.0
 10
12.910889
 20
198.596923
 30
0.0
 10
12.860891
 20
198.975640
 30
0.0
 10
12.714739
 20
199.328487
 30
0.0
 10
12.482294
 20
199.631624
 30
0.0
 10
12.179163
 20
199.864100
 30
0.0
 10
11.826257
 20
200.010121
 30
0.0
 10
11.321596
 20
200.077443
 30
0.0
 10
10.694479
 20
199.907750
 30
0.0
 10
10.119236
 20
199.354336
 30
0.0
 10
10.040807
 20
198.851915
 30
0.0
 10
10.001002
 20
198.596923
 30
0.0
 11
10.001002
 21
198.596923
 31
0.0
 11
10.050562
 21
198.221500
 31
0.0
 11
10.194277
 21
197.874540
 31
0.0
 11
10.424696
 21
197.574030
 31
0.0
 11
10.725205
 21
197.343611
 31
0.0
 11
11.072165
 21
197.199895
 31
0.0
 11
11.447588
 21
197.150334
 31
0.0
 11
11.823012
 21
197.199894
 31
0.0
 11
12.169972
 21
197.343610
 31
0.0
 11
12.470482
 21
197.574029
 31
0.0
 11
12.700901
 21
197.874539
 31
0.0
 11
12.844617
 21
198.221499
 31
0.0
 11
12.894177
 21
198.596923
 31
0.0
 11
12.844616
 21
198.972346
 31
0.0
 11
12.700900
 21
199.319306
 31
0.0
 11
12.470481
 21
199.619815
 31
0.0
 11
12.169971
 21
199.850234
 31
0.0
 11
11.823011
 21
199.993949
 31
0.0
 11
11.447588
 21
200.043509
 31
0.0
 11
10.717468
 21
199.846008
 31
0.0
 11
10.198503
 21
199.327043
 31
0.0
 11
10.001002
 21
198.596923
 31
0.0
  0
LINE
  5
32d
100
AcDbEntity
  8
newlayer
 62
7
100
AcDbLine
 10
10.001002
 20
128.403055
 30
0.0
 11
10.001002
 21
128.403055
 31
0.0
  0
LINE
  5
32e
100
AcDbEntity
  8
newlayer
 62
5
100
AcDbLine
 10
5.410556
 20
20.693903
 30
0.0
 11
20.810722
 21
20.693903
 31
0.0
  0
LINE
  5
32f
100
AcDbEntity
  8
newlayer
 62
5
100
AcDbLine
 10
20.810722
 20
20.693903
 30
0.0
 11
20.810722
 21
-64.307634
 31
0.0
  0
LINE
  5
330
100
AcDbEntity
  8
newlayer
 62
5
100
AcDbLine
 10
20.810722
 20
-64.307634
 30
0.0
 11
5.410556
 21
-64.307634
 31
0.0
  0
LINE
  5
331
100
AcDbEntity
  8
newlayer
 62
5
100
AcDbLine
 10
5.410556
 20
-64.307634
 30
0.0
 11
5.410556
 21
20.693903
 31
0.0
  0
SPLINE
  5
332
100
AcDbEntity
  8
newlayer
 62
7
100
AcDbSpline
 70
0
 71
3
 72
28
 73
24
 74
22
 40
0.000000
 40
0.000000
 40
0.000000
 40
0.000000
 40
0.756361
 40
1.490288
 40
2.246649
 40
2.625329
 40
3.000876
 40
3.379556
 40
3.758237
 40
4.133783
 40
4.512464
 40
4.891145
 40
5.266692
 40
5.645373
 40
6.024054
 40
6.399601
 40
6.778282
 40
7.156962
 40
7.532509
 40
7.911189
 40
8.289869
 40
8.665416
 40
9.044096
 40
9.044096
 40
9.044096
 40
9.044096
 10
10.001002
 20
128.403055
 30
0.0
 10
10.040807
 20
128.148063
 30
0.0
 10
10.119236
 20
127.645642
 30
0.0
 10
10.694479
 20
127.092228
 30
0.0
 10
11.321596
 20
126.922535
 30
0.0
 10
11.826257
 20
126.989857
 30
0.0
 10
12.179163
 20
127.135878
 30
0.0
 10
12.482294
 20
127.368354
 30
0.0
 10
12.714739
 20
127.671491
 30
0.0
 10
12.860891
 20
128.024338
 30
0.0
 10
12.910889
 20
128.403055
 30
0.0
 10
12.860892
 20
128.781773
 30
0.0
 10
12.714739
 20
129.134618
 30
0.0
 10
12.482299
 20
129.437766
 30
0.0
 10
12.179151
 20
129.670206
 30
0.0
 10
11.826305
 20
129.816359
 30
0.0
 10
11.447594
 20
129.866356
 30
0.0
 10
11.068847
 20
129.816358
 30
0.0
 10
10.716112
 20
129.670205
 30
0.0
 10
10.412558
 20
129.437765
 30
0.0
 10
10.181634
 20
129.134617
 30
0.0
 10
10.029851
 20
128.781773
 30
0.0
 10
10.010645
 20
128.529643
 30
0.0
 10
10.001002
 20
128.403055
 30
0.0
 11
10.001002
 21
128.403055
 31
0.0
 11
10.198503
 21
127.672935
 31
0.0
 11
10.717468
 21
127.153970
 31
0.0
 11
11.447588
 21
126.956469
 31
0.0
 11
11.823011
 21
127.006029
 31
0.0
 11
12.169971
 21
127.149744
 31
0.0
 11
12.470481
 21
127.380163
 31
0.0
 11
12.700900
 21
127.680672
 31
0.0
 11
12.844616
 21
128.027632
 31
0.0
 11
12.894177
 21
128.403055
 31
0.0
 11
12.844617
 21
128.778479
 31
0.0
 11
12.700901
 21
129.125439
 31
0.0
 11
12.470482
 21
129.425949
 31
0.0
 11
12.169972
 21
129.656368
 31
0.0
 11
11.823012
 21
129.800084
 31
0.0
 11
11.447588
 21
129.849644
 31
0.0
 11
11.072165
 21
129.800083
 31
0.0
 11
10.725205
 21
129.656367
 31
0.0
 11
10.424696
 21
129.425948
 31
0.0
 11
10.194277
 21
129.125438
 31
0.0
 11
10.050562
 21
128.778478
 31
0.0
 11
10.001002
 21
128.403055
 31
0.0
  0
LINE
  5
333
100
AcDbEntity
  8
newlayer
 62
7
100
AcDbLine
 10
11.220529
 20
13.290043
 30
0.0
 11
11.220529
 21
13.290043
 31
0.0
  0
SPLINE
  5
334
100
AcDbEntity
  8
newlayer
 62
7
100
AcDbSpline
 70
0
 71
3
 72
25
 73
21
 74
19
 40
0.000000
 40
0.000000
 40
0.000000
 40
0.000000
 40
0.756361
 40
1.490288
 40
2.246649
 40
2.625329
 40
3.000876
 40
3.379556
 40
3.758237
 40
4.133783
 40
4.512464
 40
4.891144
 40
5.266691
 40
5.645371
 40
6.024052
 40
6.399598
 40
6.778279
 40
7.534640
 40
8.268567
 40
9.024928
 40
9.024928
 40
9.024928
 40
9.024928
 10
11.220529
 20
13.290043
 30
0.0
 10
11.260334
 20
13.035051
 30
0.0
 10
11.338764
 20
12.532630
 30
0.0
 10
11.914006
 20
11.979217
 30
0.0
 10
12.541123
 20
11.809524
 30
0.0
 10
13.045784
 20
11.876845
 30
0.0
 10
13.398691
 20
12.022867
 30
0.0
 10
13.701822
 20
12.255342
 30
0.0
 10
13.934267
 20
12.558480
 30
0.0
 10
14.080419
 20
12.911326
 30
0.0
 10
14.130417
 20
13.290043
 30
0.0
 10
14.080419
 20
13.668761
 30
0.0
 10
13.934267
 20
14.021607
 30
0.0
 10
13.701822
 20
14.324745
 30
0.0
 10
13.398691
 20
14.557220
 30
0.0
 10
13.045784
 20
14.703241
 30
0.0
 10
12.541123
 20
14.770563
 30
0.0
 10
11.914006
 20
14.600870
 30
0.0
 10
11.338764
 20
14.047456
 30
0.0
 10
11.260334
 20
13.545035
 30
0.0
 10
11.220529
 20
13.290043
 30
0.0
 11
11.220529
 21
13.290043
 31
0.0
 11
11.418031
 21
12.559924
 31
0.0
 11
11.936996
 21
12.040959
 31
0.0
 11
12.667115
 21
11.843457
 31
0.0
 11
13.042539
 21
11.893017
 31
0.0
 11
13.389499
 21
12.036732
 31
0.0
 11
13.690008
 21
12.267152
 31
0.0
 11
13.920428
 21
12.567660
 31
0.0
 11
14.064144
 21
12.914620
 31
0.0
 11
14.113705
 21
13.290043
 31
0.0
 11
14.064144
 21
13.665466
 31
0.0
 11
13.920428
 21
14.012426
 31
0.0
 11
13.690008
 21
14.312935
 31
0.0
 11
13.389499
 21
14.543354
 31
0.0
 11
13.042539
 21
14.687069
 31
0.0
 11
12.667115
 21
14.736630
 31
0.0
 11
11.936996
 21
14.539128
 31
0.0
 11
11.418031
 21
14.020163
 31
0.0
 11
11.220529
 21
13.290043
 31
0.0
  0
LINE
  5
335
100
AcDbEntity
  8
newlayer
 62
7
100
AcDbLine
 10
11.220529
 20
-56.903816
 30
0.0
 11
11.220529
 21
-56.903816
 31
0.0
  0
LINE
  5
336
100
AcDbEntity
  8
newlayer
 62
5
100
AcDbLine
 10
83.554748
 20
113.347332
 30
0.0
 11
68.154581
 21
113.347332
 31
0.0
  0
LINE
  5
337
100
AcDbEntity
  8
newlayer
 62
5
100
AcDbLine
 10
68.154581
 20
113.347332
 30
0.0
 11
68.154581
 21
28.345783
 31
0.0
  0
LINE
  5
338
100
AcDbEntity
  8
newlayer
 62
5
100
AcDbLine
 10
68.154581
 20
28.345783
 30
0.0
 11
83.554748
 21
28.345783
 31
0.0
  0
LINE
  5
339
100
AcDbEntity
  8
newlayer
 62
5
100
AcDbLine
 10
83.554748
 20
28.345783
 30
0.0
 11
83.554748
 21
113.347332
 31
0.0
  0
LINE
  5
33a
100
AcDbEntity
  8
newlayer
 62
7
100
AcDbLine
 10
70.053338
 20
111.042163
 30
0.0
 11
68.155992
 21
111.042163
 31
0.0
  0
LINE
  5
33b
100
AcDbEntity
  8
newlayer
 62
7
100
AcDbLine
 10
68.155992
 20
111.042163
 30
0.0
 11
68.155992
 21
100.844817
 31
0.0
  0
LINE
  5
33c
100
AcDbEntity
  8
newlayer
 62
7
100
AcDbLine
 10
68.155992
 20
100.844817
 30
0.0
 11
70.053338
 21
100.844817
 31
0.0
  0
LINE
  5
33d
100
AcDbEntity
  8
newlayer
 62
7
100
AcDbLine
 10
70.053338
 20
100.844817
 30
0.0
 11
70.053338
 21
111.042163
 31
0.0
  0
SPLINE
  5
33e
100
AcDbEntity
  8
newlayer
 62
7
100
AcDbSpline
 70
0
 71
3
 72
25
 73
21
 74
19
 40
0.000000
 40
0.000000
 40
0.000000
 40
0.000000
 40
0.756361
 40
1.490288
 40
2.246649
 40
2.625329
 40
3.000876
 40
3.379556
 40
3.758237
 40
4.133783
 40
4.512464
 40
4.891144
 40
5.266691
 40
5.645371
 40
6.024052
 40
6.399598
 40
6.778279
 40
7.534640
 40
8.268567
 40
9.024928
 40
9.024928
 40
9.024928
 40
9.024928
 10
11.220529
 20
-56.903816
 30
0.0
 10
11.260334
 20
-57.158808
 30
0.0
 10
11.338764
 20
-57.661229
 30
0.0
 10
11.914006
 20
-58.214643
 30
0.0
 10
12.541123
 20
-58.384336
 30
0.0
 10
13.045784
 20
-58.317014
 30
0.0
 10
13.398691
 20
-58.170993
 30
0.0
 10
13.701822
 20
-57.938518
 30
0.0
 10
13.934267
 20
-57.635380
 30
0.0
 10
14.080419
 20
-57.282534
 30
0.0
 10
14.130417
 20
-56.903816
 30
0.0
 10
14.080419
 20
-56.525099
 30
0.0
 10
13.934267
 20
-56.172253
 30
0.0
 10
13.701822
 20
-55.869115
 30
0.0
 10
13.398691
 20
-55.636639
 30
0.0
 10
13.045784
 20
-55.490618
 30
0.0
 10
12.541123
 20
-55.423297
 30
0.0
 10
11.914006
 20
-55.592990
 30
0.0
 10
11.338764
 20
-56.146403
 30
0.0
 10
11.260334
 20
-56.648824
 30
0.0
 10
11.220529
 20
-56.903816
 30
0.0
 11
11.220529
 21
-56.903816
 31
0.0
 11
11.418031
 21
-57.633936
 31
0.0
 11
11.936996
 21
-58.152901
 31
0.0
 11
12.667115
 21
-58.350403
 31
0.0
 11
13.042539
 21
-58.300842
 31
0.0
 11
13.389499
 21
-58.157127
 31
0.0
 11
13.690008
 21
-57.926708
 31
0.0
 11
13.920428
 21
-57.626199
 31
0.0
 11
14.064144
 21
-57.279239
 31
0.0
 11
14.113705
 21
-56.903816
 31
0.0
 11
14.064144
 21
-56.528393
 31
0.0
 11
13.920428
 21
-56.181433
 31
0.0
 11
13.690008
 21
-55.880924
 31
0.0
 11
13.389499
 21
-55.650505
 31
0.0
 11
13.042539
 21
-55.506790
 31
0.0
 11
12.667115
 21
-55.457230
 31
0.0
 11
11.936996
 21
-55.654732
 31
0.0
 11
11.418031
 21
-56.173697
 31
0.0
 11
11.220529
 21
-56.903816
 31
0.0
  0
LINE
  5
33f
100
AcDbEntity
  8
newlayer
 62
7
100
AcDbLine
 10
77.744774
 20
105.943480
 30
0.0
 11
77.744774
 21
105.943480
 31
0.0
  0
LINE
  5
340
100
AcDbEntity
  8
newlayer
 62
7
100
AcDbLine
 10
70.053338
 20
40.848301
 30
0.0
 11
68.155992
 21
40.848301
 31
0.0
  0
LINE
  5
341
100
AcDbEntity
  8
newlayer
 62
7
100
AcDbLine
 10
68.155992
 20
40.848301
 30
0.0
 11
68.155992
 21
30.650955
 31
0.0
  0
LINE
  5
342
100
AcDbEntity
  8
newlayer
 62
7
100
AcDbLine
 10
68.155992
 20
30.650955
 30
0.0
 11
70.053338
 21
30.650955
 31
0.0
  0
LINE
  5
343
100
AcDbEntity
  8
newlayer
 62
7
100
AcDbLine
 10
70.053338
 20
30.650955
 30
0.0
 11
70.053338
 21
40.848301
 31
0.0
  0
SPLINE
  5
344
100
AcDbEntity
  8
newlayer
 62
7
100
AcDbSpline
 70
0
 71
3
 72
28
 73
24
 74
22
 40
0.000000
 40
0.000000
 40
0.000000
 40
0.000000
 40
0.378680
 40
0.754227
 40
1.132907
 40
1.511588
 40
1.887135
 40
2.265815
 40
2.644496
 40
3.020043
 40
3.398724
 40
3.777405
 40
4.152952
 40
4.531633
 40
4.910313
 40
5.285860
 40
5.664540
 40
6.043220
 40
6.418767
 40
6.797447
 40
7.553808
 40
8.287736
 40
9.044096
 40
9.044096
 40
9.044096
 40
9.044096
 10
77.744774
 20
105.943480
 30
0.0
 10
77.735131
 20
105.816892
 30
0.0
 10
77.715925
 20
105.564762
 30
0.0
 10
77.564142
 20
105.211918
 30
0.0
 10
77.333218
 20
104.908771
 30
0.0
 10
77.029664
 20
104.676330
 30
0.0
 10
76.676929
 20
104.530177
 30
0.0
 10
76.298182
 20
104.480179
 30
0.0
 10
75.919471
 20
104.530176
 30
0.0
 10
75.566625
 20
104.676329
 30
0.0
 10
75.263477
 20
104.908770
 30
0.0
 10
75.031037
 20
105.211918
 30
0.0
 10
74.884884
 20
105.564762
 30
0.0
 10
74.834887
 20
105.943480
 30
0.0
 10
74.884885
 20
106.322198
 30
0.0
 10
75.031037
 20
106.675044
 30
0.0
 10
75.263482
 20
106.978182
 30
0.0
 10
75.566613
 20
107.210657
 30
0.0
 10
75.919519
 20
107.356678
 30
0.0
 10
76.424180
 20
107.424000
 30
0.0
 10
77.051297
 20
107.254307
 30
0.0
 10
77.626540
 20
106.700893
 30
0.0
 10
77.704969
 20
106.198472
 30
0.0
 10
77.744774
 20
105.943480
 30
0.0
 11
77.744774
 21
105.943480
 31
0.0
 11
77.695214
 21
105.568057
 31
0.0
 11
77.551499
 21
105.221097
 31
0.0
 11
77.321080
 21
104.920588
 31
0.0
 11
77.020571
 21
104.690168
 31
0.0
 11
76.673611
 21
104.546452
 31
0.0
 11
76.298188
 21
104.496891
 31
0.0
 11
75.922764
 21
104.546452
 31
0.0
 11
75.575804
 21
104.690167
 31
0.0
 11
75.275294
 21
104.920587
 31
0.0
 11
75.044875
 21
105.221096
 31
0.0
 11
74.901159
 21
105.568057
 31
0.0
 11
74.851599
 21
105.943480
 31
0.0
 11
74.901160
 21
106.318903
 31
0.0
 11
75.044876
 21
106.665863
 31
0.0
 11
75.275295
 21
106.966372
 31
0.0
 11
75.575805
 21
107.196791
 31
0.0
 11
75.922765
 21
107.340506
 31
0.0
 11
76.298188
 21
107.390067
 31
0.0
 11
77.028308
 21
107.192565
 31
0.0
 11
77.547273
 21
106.673600
 31
0.0
 11
77.744774
 21
105.943480
 31
0.0
  0
LINE
  5
345
100
AcDbEntity
  8
newlayer
 62
7
100
AcDbLine
 10
77.744774
 20
35.749612
 30
0.0
 11
77.744774
 21
35.749612
 31
0.0
  0
LINE
  5
346
100
AcDbEntity
  8
newlayer
 62
5
100
AcDbLine
 10
120.028499
 20
20.693906
 30
0.0
 11
104.628332
 21
20.693906
 31
0.0
  0
LINE
  5
347
100
AcDbEntity
  8
newlayer
 62
5
100
AcDbLine
 10
104.628332
 20
20.693906
 30
0.0
 11
104.628332
 21
-64.307634
 31
0.0
  0
LINE
  5
348
100
AcDbEntity
  8
newlayer
 62
5
100
AcDbLine
 10
104.628332
 20
-64.307634
 30
0.0
 11
120.028499
 21
-64.307634
 31
0.0
  0
LINE
  5
349
100
AcDbEntity
  8
newlayer
 62
5
100
AcDbLine
 10
120.028499
 20
-64.307634
 30
0.0
 11
120.028499
 21
20.693906
 31
0.0
  0
SPLINE
  5
34a
100
AcDbEntity
  8
newlayer
 62
7
100
AcDbSpline
 70
0
 71
3
 72
28
 73
24
 74
22
 40
0.000000
 40
0.000000
 40
0.000000
 40
0.000000
 40
0.756361
 40
1.490288
 40
2.246649
 40
2.625329
 40
3.000876
 40
3.379556
 40
3.758237
 40
4.133783
 40
4.512464
 40
4.891145
 40
5.266692
 40
5.645373
 40
6.024054
 40
6.399601
 40
6.778282
 40
7.156962
 40
7.532509
 40
7.911189
 40
8.289869
 40
8.665416
 40
9.044096
 40
9.044096
 40
9.044096
 40
9.044096
 10
77.744774
 20
35.749612
 30
0.0
 10
77.704969
 20
35.494620
 30
0.0
 10
77.626540
 20
34.992199
 30
0.0
 10
77.051297
 20
34.438786
 30
0.0
 10
76.424180
 20
34.269093
 30
0.0
 10
75.919519
 20
34.336414
 30
0.0
 10
75.566613
 20
34.482436
 30
0.0
 10
75.263482
 20
34.714911
 30
0.0
 10
75.031037
 20
35.018049
 30
0.0
 10
74.884885
 20
35.370895
 30
0.0
 10
74.834887
 20
35.749612
 30
0.0
 10
74.884884
 20
36.128331
 30
0.0
 10
75.031037
 20
36.481175
 30
0.0
 10
75.263477
 20
36.784323
 30
0.0
 10
75.566625
 20
37.016764
 30
0.0
 10
75.919471
 20
37.162916
 30
0.0
 10
76.298182
 20
37.212914
 30
0.0
 10
76.676929
 20
37.162916
 30
0.0
 10
77.029664
 20
37.016763
 30
0.0
 10
77.333218
 20
36.784322
 30
0.0
 10
77.564142
 20
36.481174
 30
0.0
 10
77.715925
 20
36.128330
 30
0.0
 10
77.735131
 20
35.876201
 30
0.0
 10
77.744774
 20
35.749612
 30
0.0
 11
77.744774
 21
35.749612
 31
0.0
 11
77.547273
 21
35.019493
 31
0.0
 11
77.028308
 21
34.500528
 31
0.0
 11
76.298188
 21
34.303026
 31
0.0
 11
75.922765
 21
34.352586
 31
0.0
 11
75.575805
 21
34.496301
 31
0.0
 11
75.275295
 21
34.726721
 31
0.0
 11
75.044876
 21
35.027229
 31
0.0
 11
74.901160
 21
35.374189
 31
0.0
 11
74.851599
 21
35.749612
 31
0.0
 11
74.901159
 21
36.125036
 31
0.0
 11
75.044875
 21
36.471996
 31
0.0
 11
75.275294
 21
36.772506
 31
0.0
 11
75.575804
 21
37.002926
 31
0.0
 11
75.922764
 21
37.146641
 31
0.0
 11
76.298188
 21
37.196202
 31
0.0
 11
76.673611
 21
37.146640
 31
0.0
 11
77.020571
 21
37.002925
 31
0.0
 11
77.321080
 21
36.772505
 31
0.0
 11
77.551499
 21
36.471996
 31
0.0
 11
77.695214
 21
36.125036
 31
0.0
 11
77.744774
 21
35.749612
 31
0.0
  0
LINE
  5
34b
100
AcDbEntity
  8
newlayer
 62
7
100
AcDbLine
 10
114.218525
 20
13.290043
 30
0.0
 11
114.218525
 21
13.290043
 31
0.0
  0
SPLINE
  5
34c
100
AcDbEntity
  8
newlayer
 62
7
100
AcDbSpline
 70
0
 71
3
 72
25
 73
21
 74
19
 40
0.000000
 40
0.000000
 40
0.000000
 40
0.000000
 40
0.756361
 40
1.490288
 40
2.246649
 40
2.625329
 40
3.000876
 40
3.379556
 40
3.758237
 40
4.133783
 40
4.512464
 40
4.891144
 40
5.266691
 40
5.645371
 40
6.024052
 40
6.399598
 40
6.778279
 40
7.534640
 40
8.268567
 40
9.024928
 40
9.024928
 40
9.024928
 40
9.024928
 10
114.218525
 20
13.290043
 30
0.0
 10
114.178720
 20
13.035051
 30
0.0
 10
114.100291
 20
12.532630
 30
0.0
 10
113.525048
 20
11.979217
 30
0.0
 10
112.897931
 20
11.809524
 30
0.0
 10
112.393270
 20
11.876845
 30
0.0
 10
112.040364
 20
12.022867
 30
0.0
 10
111.737233
 20
12.255342
 30
0.0
 10
111.504788
 20
12.558480
 30
0.0
 10
111.358636
 20
12.911326
 30
0.0
 10
111.308637
 20
13.290043
 30
0.0
 10
111.358636
 20
13.668761
 30
0.0
 10
111.504788
 20
14.021607
 30
0.0
 10
111.737233
 20
14.324745
 30
0.0
 10
112.040364
 20
14.557220
 30
0.0
 10
112.393270
 20
14.703241
 30
0.0
 10
112.897931
 20
14.770563
 30
0.0
 10
113.525048
 20
14.600870
 30
0.0
 10
114.100291
 20
14.047456
 30
0.0
 10
114.178720
 20
13.545035
 30
0.0
 10
114.218525
 20
13.290043
 30
0.0
 11
114.218525
 21
13.290043
 31
0.0
 11
114.021023
 21
12.559924
 31
0.0
 11
113.502058
 21
12.040959
 31
0.0
 11
112.771939
 21
11.843457
 31
0.0
 11
112.396516
 21
11.893017
 31
0.0
 11
112.049556
 21
12.036732
 31
0.0
 11
111.749046
 21
12.267152
 31
0.0
 11
111.518627
 21
12.567660
 31
0.0
 11
111.374911
 21
12.914620
 31
0.0
 11
111.325350
 21
13.290043
 31
0.0
 11
111.374911
 21
13.665466
 31
0.0
 11
111.518627
 21
14.012426
 31
0.0
 11
111.749046
 21
14.312935
 31
0.0
 11
112.049556
 21
14.543354
 31
0.0
 11
112.396516
 21
14.687069
 31
0.0
 11
112.771939
 21
14.736630
 31
0.0
 11
113.502058
 21
14.539128
 31
0.0
 11
114.021023
 21
14.020163
 31
0.0
 11
114.218525
 21
13.290043
 31
0.0
  0
LINE
  5
34d
100
AcDbEntity
  8
newlayer
 62
7
100
AcDbLine
 10
114.218525
 20
-56.903816
 30
0.0
 11
114.218525
 21
-56.903816
 31
0.0
  0
SPLINE
  5
34e
100
AcDbEntity
  8
newlayer
 62
7
100
AcDbSpline
 70
0
 71
3
 72
25
 73
21
 74
19
 40
0.000000
 40
0.000000
 40
0.000000
 40
0.000000
 40
0.756361
 40
1.490288
 40
2.246649
 40
2.625329
 40
3.000876
 40
3.379556
 40
3.758237
 40
4.133783
 40
4.512464
 40
4.891144
 40
5.266691
 40
5.645371
 40
6.024052
 40
6.399598
 40
6.778279
 40
7.534640
 40
8.268567
 40
9.024928
 40
9.024928
 40
9.024928
 40
9.024928
 10
114.218525
 20
-56.903816
 30
0.0
 10
114.178720
 20
-57.158808
 30
0.0
 10
114.100291
 20
-57.661229
 30
0.0
 10
113.525048
 20
-58.214643
 30
0.0
 10
112.897931
 20
-58.384336
 30
0.0
 10
112.393270
 20
-58.317014
 30
0.0
 10
112.040364
 20
-58.170993
 30
0.0
 10
111.737233
 20
-57.938518
 30
0.0
 10
111.504788
 20
-57.635380
 30
0.0
 10
111.358636
 20
-57.282534
 30
0.0
 10
111.308637
 20
-56.903816
 30
0.0
 10
111.358636
 20
-56.525099
 30
0.0
 10
111.504788
 20
-56.172253
 30
0.0
 10
111.737233
 20
-55.869115
 30
0.0
 10
112.040364
 20
-55.636639
 30
0.0
 10
112.393270
 20
-55.490618
 30
0.0
 10
112.897931
 20
-55.423297
 30
0.0
 10
113.525048
 20
-55.592990
 30
0.0
 10
114.100291
 20
-56.146403
 30
0.0
 10
114.178720
 20
-56.648824
 30
0.0
 10
114.218525
 20
-56.903816
 30
0.0
 11
114.218525
 21
-56.903816
 31
0.0
 11
114.021023
 21
-57.633936
 31
0.0
 11
113.502058
 21
-58.152901
 31
0.0
 11
112.771939
 21
-58.350403
 31
0.0
 11
112.396516
 21
-58.300842
 31
0.0
 11
112.049556
 21
-58.157127
 31
0.0
 11
111.749046
 21
-57.926708
 31
0.0
 11
111.518627
 21
-57.626199
 31
0.0
 11
111.374911
 21
-57.279239
 31
0.0
 11
111.325350
 21
-56.903816
 31
0.0
 11
111.374911
 21
-56.528393
 31
0.0
 11
111.518627
 21
-56.181433
 31
0.0
 11
111.749046
 21
-55.880924
 31
0.0
 11
112.049556
 21
-55.650505
 31
0.0
 11
112.396516
 21
-55.506790
 31
0.0
 11
112.771939
 21
-55.457230
 31
0.0
 11
113.502058
 21
-55.654732
 31
0.0
 11
114.021023
 21
-56.173697
 31
0.0
 11
114.218525
 21
-56.903816
 31
0.0
  0
ENDSEC
  0
SECTION
  2
OBJECTS
  0
DICTIONARY
  5
C
330
0
100
AcDbDictionary
  3
ACAD_GROUP
350
D
  3
ACAD_MLINESTYLE
350
17
  0
DICTIONARY
  5
D
330
C
100
AcDbDictionary
  0
DICTIONARY
  5
1A
330
C
100
AcDbDictionary
  0
DICTIONARY
  5
17
330
C
100
AcDbDictionary
  3
STANDARD
350
18
  0
DICTIONARY
  5
19
330
C
100
AcDbDictionary
  0
ENDSEC
  0
EOF
