<?xml version="1.0" encoding="UTF-8" standalone="no"?>
<!-- Created with Inkscape (http://www.inkscape.org/) -->

<svg
   xmlns:dc="http://purl.org/dc/elements/1.1/"
   xmlns:cc="http://creativecommons.org/ns#"
   xmlns:rdf="http://www.w3.org/1999/02/22-rdf-syntax-ns#"
   xmlns:svg="http://www.w3.org/2000/svg"
   xmlns="http://www.w3.org/2000/svg"
   xmlns:sodipodi="http://sodipodi.sourceforge.net/DTD/sodipodi-0.dtd"
   xmlns:inkscape="http://www.inkscape.org/namespaces/inkscape"
   width="744.09448819"
   height="1052.3622047"
   id="svg3199"
   version="1.1"
   inkscape:version="0.91 r13725"
   sodipodi:docname="robot.svg">
  <sodipodi:namedview
     inkscape:object-nodes="true"
     inkscape:snap-global="false"
     showborder="false"
     inkscape:window-maximized="1"
     inkscape:window-y="24"
     inkscape:window-x="65"
     inkscape:window-height="1056"
     inkscape:window-width="1855"
     showgrid="false"
     inkscape:current-layer="svg3199"
     inkscape:document-units="mm"
     inkscape:cy="967.74819"
     inkscape:cx="385.19239"
     inkscape:zoom="1.4"
     inkscape:pageshadow="2"
     inkscape:pageopacity="0.0"
     borderopacity="1.0"
     bordercolor="#666666"
     pagecolor="#ffffff"
     id="base"
     inkscape:snap-object-midpoints="true" />
  <defs
     id="defs3201">
    <clipPath
       id="clipPath5943"
       clipPathUnits="userSpaceOnUse">
      <path
         inkscape:connector-curvature="0"
         id="path5945"
         d="m 18,18 756,0 0,576 -756,0 0,-576 z" />
    </clipPath>
    <clipPath
       id="clipPath53275"
       clipPathUnits="userSpaceOnUse">
      <path
         inkscape:connector-curvature="0"
         id="path53277"
         d="m 36,36 500,0 0,540 -500,0 0,-540 z" />
    </clipPath>
    <clipPath
       id="clipPath53283"
       clipPathUnits="userSpaceOnUse">
      <path
         inkscape:connector-curvature="0"
         id="path53285"
         d="m 18,18 756,0 0,576 -756,0 0,-576 z" />
    </clipPath>
  </defs>
  <metadata
     id="metadata3204">
    <rdf:RDF>
      <cc:Work
         rdf:about="">
        <dc:format>image/svg+xml</dc:format>
        <dc:type
           rdf:resource="http://purl.org/dc/dcmitype/StillImage" />
        <dc:title></dc:title>
      </cc:Work>
    </rdf:RDF>
  </metadata>
  <g
     id="g3581"
     inkscape:groupmode="layer"
     inkscape:label="newlayer" />
  <g
     inkscape:label="newlayer"
     inkscape:groupmode="layer"
     id="g3943" />
  <g
     id="g5735"
     inkscape:groupmode="layer"
     inkscape:label="newlayer" />
  <path
     style="opacity:1;fill:none;fill-opacity:1;stroke:#ff0000;stroke-width:0.3200371;stroke-linecap:butt;stroke-miterlimit:4;stroke-dasharray:none;stroke-dashoffset:0;stroke-opacity:1"
     d="m 711.71807,473.03155 a 57.41872,57.41872 0 0 1 -57.4188,57.4187 57.41872,57.41872 0 0 1 -57.4187,-57.4187 57.41872,57.41872 0 0 1 57.4187,-57.4188 57.41872,57.41872 0 0 1 57.4188,57.4188 z"
     id="path122705"
     inkscape:connector-curvature="0" />
  <g
     inkscape:label="newlayer"
     inkscape:groupmode="layer"
     id="g4953" />
  <g
     id="g7945"
     inkscape:groupmode="layer"
     inkscape:label="newlayer" />
  <path
     id="path7955"
     inkscape:label="part"
     style="stroke:#000000;fill:none"
     d="M 14.1732283464,322.440944881 L 53.149606299,322.440944881 L 53.149606299,311.811023621 L 88.582677165,311.811023621 L 88.582677165,322.440944881 L 138.188976377,322.440944881 L 138.188976377,311.811023621 L 173.622047243,311.811023621 L 173.622047243,322.440944881 L 223.228346456,322.440944881 L 223.228346456,311.811023621 L 258.661417322,311.811023621 L 258.661417322,322.440944881 L 297.637795274,322.440944881 " />
  <path
     id="path7957"
     inkscape:label="part"
     style="stroke:#000000;fill:none"
     d="M 297.637795274,322.440944881 L 297.637795274,347.952755904 L 308.267716534,347.952755904 L 308.267716534,383.38582677 L 297.637795274,383.38582677 L 297.637795274,419.527559053 L 308.267716534,419.527559053 L 308.267716534,454.960629919 L 297.637795274,454.960629919 L 297.637795274,491.102362203 L 308.267716534,491.102362203 L 308.267716534,526.535433069 L 297.637795274,526.535433069 L 297.637795274,562.677165352 L 308.267716534,562.677165352 L 308.267716534,598.110236218 L 297.637795274,598.110236218 L 297.637795274,623.622047242 " />
  <path
     id="path7959"
     inkscape:label="part"
     style="stroke:#000000;fill:none"
     d="M 297.637795274,623.622047242 L 258.661417322,623.622047242 L 258.661417322,634.251968501 L 223.228346456,634.251968501 L 223.228346456,623.622047242 L 173.622047243,623.622047242 L 173.622047243,634.251968501 L 138.188976377,634.251968501 L 138.188976377,623.622047242 L 88.582677165,623.622047242 L 88.582677165,634.251968501 L 53.149606299,634.251968501 L 53.149606299,623.622047242 L 14.1732283464,623.622047242 " />
  <path
     id="path7961"
     inkscape:label="part"
     style="stroke:#000000;fill:none"
     d="M 14.1732283464,623.622047242 L 14.1732283464,598.110236218 L 3.5433070866,598.110236218 L 3.5433070866,562.677165352 L 14.1732283464,562.677165352 L 14.1732283464,526.535433069 L 3.5433070866,526.535433069 L 3.5433070866,491.102362203 L 14.1732283464,491.102362203 L 14.1732283464,454.960629919 L 3.5433070866,454.960629919 L 3.5433070866,419.527559053 L 14.1732283464,419.527559053 L 14.1732283464,383.38582677 L 3.5433070866,383.38582677 L 3.5433070866,347.952755904 L 14.1732283464,347.952755904 L 14.1732283464,322.440944881 " />
  <path
     id="path7963"
     inkscape:label="part"
     style="stroke:#000000;fill:none"
     d="M 311.811023621,311.811023621 L 353.740157479,311.811023621 L 353.740157479,322.440944881 L 389.173228345,322.440944881 L 389.173228345,311.811023621 L 431.102362203,311.811023621 L 431.102362203,322.440944881 L 466.535433069,322.440944881 L 466.535433069,311.811023621 L 508.464566927,311.811023621 L 508.464566927,322.440944881 L 543.897637793,322.440944881 L 543.897637793,311.811023621 L 585.826771651,311.811023621 L 585.826771651,322.440944881 L 621.259842517,322.440944881 L 621.259842517,311.811023621 L 663.188976375,311.811023621 L 663.188976375,322.440944881 L 698.622047241,322.440944881 L 698.622047241,311.811023621 L 740.551181099,311.811023621 " />
  <path
     id="path7965"
     inkscape:label="part"
     style="stroke:#000000;fill:none"
     d="M 740.551181099,311.811023621 L 740.551181099,347.952755904 L 729.92125984,347.952755904 L 729.92125984,383.38582677 L 740.551181099,383.38582677 L 740.551181099,419.527559053 L 729.92125984,419.527559053 L 729.92125984,454.960629919 L 740.551181099,454.960629919 L 740.551181099,491.102362203 L 729.92125984,491.102362203 L 729.92125984,526.535433069 L 740.551181099,526.535433069 L 740.551181099,562.677165352 L 729.92125984,562.677165352 L 729.92125984,598.110236218 L 740.551181099,598.110236218 L 740.551181099,634.251968501 " />
  <path
     id="path7967"
     inkscape:label="part"
     style="stroke:#000000;fill:none"
     d="M 740.551181099,634.251968501 L 698.622047241,634.251968501 L 698.622047241,623.622047242 L 663.188976375,623.622047242 L 663.188976375,634.251968501 L 621.259842517,634.251968501 L 621.259842517,623.622047242 L 585.826771651,623.622047242 L 585.826771651,634.251968501 L 543.897637793,634.251968501 L 543.897637793,623.622047242 L 508.464566927,623.622047242 L 508.464566927,634.251968501 L 466.535433069,634.251968501 L 466.535433069,623.622047242 L 431.102362203,623.622047242 L 431.102362203,634.251968501 L 389.173228345,634.251968501 L 389.173228345,623.622047242 L 353.740157479,623.622047242 L 353.740157479,634.251968501 L 311.811023621,634.251968501 " />
  <path
     id="path7969"
     inkscape:label="part"
     style="stroke:#000000;fill:none"
     d="M 311.811023621,634.251968501 L 311.811023621,598.110236218 L 322.440944881,598.110236218 L 322.440944881,562.677165352 L 311.811023621,562.677165352 L 311.811023621,526.535433069 L 322.440944881,526.535433069 L 322.440944881,491.102362203 L 311.811023621,491.102362203 L 311.811023621,454.960629919 L 322.440944881,454.960629919 L 322.440944881,419.527559053 L 311.811023621,419.527559053 L 311.811023621,383.38582677 L 322.440944881,383.38582677 L 322.440944881,347.952755904 L 311.811023621,347.952755904 L 311.811023621,311.811023621 " />
  <path
     id="path7971"
     inkscape:label="part"
     style="fill:none;stroke:#000000"
     d="m 13.272442,650.74052 38.97638,0 0,-10.62992 35.43307,0 0,10.62992 49.606298,0 0,-10.62992 35.43307,0 0,10.62992 49.6063,0 0,-10.62992 35.4331,0 0,10.62992 38.9763,0"
     inkscape:connector-curvature="0" />
  <path
     id="path7973"
     inkscape:label="part"
     style="fill:none;stroke:#000000"
     d="m 296.73696,650.74052 0,25.51182 10.63,0 0,35.43307 -10.63,0 0,36.14173 10.63,0 0,35.43307 -10.63,0 0,36.14173 10.63,0 0,35.43307 -10.63,0 0,36.14176 10.63,0 0,35.433 -10.63,0 0,25.5119"
     inkscape:connector-curvature="0" />
  <path
     id="path7975"
     inkscape:label="part"
     style="fill:none;stroke:#000000"
     d="m 296.73696,951.92167 -38.9763,0 0,10.6299 -35.4331,0 0,-10.6299 -49.6063,0 0,10.6299 -35.43307,0 0,-10.6299 -49.606298,0 0,10.6299 -35.43307,0 0,-10.6299 -38.97638,0"
     inkscape:connector-curvature="0" />
  <path
     id="path7977"
     inkscape:label="part"
     style="fill:none;stroke:#000000"
     d="m 13.272442,951.92167 0,-25.5119 -10.6299202,0 0,-35.433 10.6299202,0 0,-36.14176 -10.6299202,0 0,-35.43307 10.6299202,0 0,-36.14173 -10.6299202,0 0,-35.43307 10.6299202,0 0,-36.14173 -10.6299202,0 0,-35.43307 10.6299202,0 0,-25.51182"
     inkscape:connector-curvature="0" />
  <path
     style="fill:none;stroke:#000000;stroke-width:0.35433069;stroke-linecap:square;stroke-linejoin:round;stroke-miterlimit:4;stroke-dasharray:none;stroke-opacity:1"
     d="m 487.94916,257.09061 a 12.755906,12.755906 0 0 0 -12.7559,-12.7559 12.755906,12.755906 0 0 0 -12.7559,12.7559 12.755906,12.755906 0 0 0 12.7559,12.75591 12.755906,12.755906 0 0 0 12.7559,-12.75591 z"
     id="path3004-0-8-6-7-8"
     inkscape:connector-curvature="0" />
  <path
     style="fill:none;stroke:#000000;stroke-width:0.35433075;stroke-linecap:square;stroke-linejoin:round;stroke-miterlimit:4;stroke-dasharray:none;stroke-opacity:1"
     d="m 522.77986,257.09061 a 7.0866146,7.0866146 0 0 0 -7.0866,-7.08661 7.0866146,7.0866146 0 0 0 -7.0866,7.08661 7.0866146,7.0866146 0 0 0 7.0866,7.08662 7.0866146,7.0866146 0 0 0 7.0866,-7.08662 z"
     id="path3004-9-7-8-7-0-7"
     inkscape:connector-curvature="0" />
  <path
     style="fill:none;stroke:#000000;stroke-width:0.35433072;stroke-linecap:square;stroke-linejoin:round;stroke-miterlimit:4;stroke-dasharray:none;stroke-opacity:1"
     d="m 582.13026,265.8964 8.8583,0 0,-19.13386 -8.8583,0 z"
     id="rect3030-5-3-5-9-1"
     inkscape:connector-curvature="0" />
  <path
     style="fill:none;stroke:#000000;stroke-width:0.40264854;stroke-linecap:square;stroke-linejoin:round;stroke-miterlimit:4;stroke-dasharray:none;stroke-opacity:1"
     d="m 552.05886,226.22843 a 5.1136365,5.1136365 0 0 0 -5.1136,-5.11364 5.1136365,5.1136365 0 0 0 -5.1137,5.11364 5.1136365,5.1136365 0 0 0 5.1137,5.11364 5.1136365,5.1136365 0 0 0 5.1136,-5.11364 z"
     id="path3038-5-7-3-3-3-7"
     inkscape:connector-curvature="0" />
  <path
     style="opacity:1;fill:none;fill-opacity:1;stroke:#000000;stroke-width:0.25248;stroke-linecap:butt;stroke-miterlimit:4;stroke-dasharray:none;stroke-dashoffset:0;stroke-opacity:1"
     d="m 425.13175,214.83834 95.9063,0 0,-10.37745 -95.9063,0 z"
     id="rect120884-3-6-9-62-0-7"
     inkscape:connector-curvature="0" />
  <path
     inkscape:connector-curvature="0"
     id="path7987"
     inkscape:label="part"
     style="fill:none;stroke:#000000"
     d="m 311.81102,14.173228 41.92914,0 0,-10.6299209 35.43307,0 0,10.6299209 41.92913,0 0,-10.6299209 35.43307,0 0,10.6299209 41.92914,0 0,-10.6299209 35.43307,0 0,10.6299209 41.92913,0 0,-10.6299209 35.43307,0 0,10.6299209 41.92914,0 0,-10.6299209 35.43307,0 0,10.6299209 41.92913,0" />
  <path
     inkscape:connector-curvature="0"
     id="path7989"
     inkscape:label="part"
     style="fill:none;stroke:#000000"
     d="m 740.55118,14.173228 0,38.976378 -10.62992,0 0,35.433071 10.62992,0 0,49.606303 -10.62992,0 0,35.43307 10.62992,0 0,49.6063 -10.62992,0 0,35.43307 10.62992,0 0,38.97638" />
  <path
     inkscape:connector-curvature="0"
     id="path7991"
     inkscape:label="part"
     style="fill:none;stroke:#000000"
     d="m 740.55118,297.6378 -41.92913,0 0,10.62992 -35.43307,0 0,-10.62992 -41.92914,0 0,10.62992 -35.43307,0 0,-10.62992 -41.92913,0 0,10.62992 -35.43307,0 0,-10.62992 -41.92914,0 0,10.62992 -35.43307,0 0,-10.62992 -41.92913,0 0,10.62992 -35.43307,0 0,-10.62992 -41.92914,0" />
  <path
     inkscape:connector-curvature="0"
     id="path7993"
     inkscape:label="part"
     style="fill:none;stroke:#000000"
     d="m 311.81102,297.6378 0,-38.97638 10.62992,0 0,-35.43307 -10.62992,0 0,-49.6063 10.62992,0 0,-35.43307 -10.62992,0 0,-49.606303 10.62992,0 0,-35.433071 -10.62992,0 0,-38.976378" />
  <path
     style="opacity:1;fill:none;fill-opacity:1;stroke:#0000ff;stroke-width:0.35374042;stroke-linecap:butt;stroke-miterlimit:4;stroke-dasharray:none;stroke-dashoffset:0;stroke-opacity:1"
     d="m 14.8501,322.4382 54.56752,0 0,301.18659 -54.56752,0 z"
     id="rect10583-8-4"
     inkscape:connector-curvature="0" />
  <path
     style="opacity:1;fill:none;fill-opacity:1;stroke:#000000;stroke-width:0.36373988;stroke-linecap:butt;stroke-miterlimit:4;stroke-dasharray:none;stroke-dashoffset:0;stroke-opacity:1"
     d="m 62.68974,330.60612 6.72288,0 0,36.13233 -6.72288,0 z"
     id="rect122857-0-9-6-5-1-38-1-3-5-0"
     inkscape:connector-curvature="0" />
  <path
     style="opacity:1;fill:none;fill-opacity:1;stroke:#000000;stroke-width:0.37851381;stroke-linecap:butt;stroke-miterlimit:4;stroke-dasharray:none;stroke-dashoffset:0;stroke-opacity:1"
     d="m 35.43662,348.67232 a 5.1257038,5.1257038 0 0 0 5.1257,5.12571 5.1257038,5.1257038 0 0 0 5.12571,-5.12571 5.1257038,5.1257038 0 0 0 -5.12571,-5.1257 5.1257038,5.1257038 0 0 0 -5.1257,5.1257 z"
     id="path7387-9-5-5-0-88-0-6"
     inkscape:connector-curvature="0" />
  <path
     style="opacity:1;fill:none;fill-opacity:1;stroke:#000000;stroke-width:0.36373988;stroke-linecap:butt;stroke-miterlimit:4;stroke-dasharray:none;stroke-dashoffset:0;stroke-opacity:1"
     d="m 62.68974,579.32453 6.72288,0 0,36.13233 -6.72288,0 z"
     id="rect122857-0-9-6-5-7-7-1-0-1-6-2"
     inkscape:connector-curvature="0" />
  <path
     style="opacity:1;fill:none;fill-opacity:1;stroke:#000000;stroke-width:0.37851381;stroke-linecap:butt;stroke-miterlimit:4;stroke-dasharray:none;stroke-dashoffset:0;stroke-opacity:1"
     d="m 35.43662,597.39075 a 5.1257038,5.1257038 0 0 0 5.1257,5.1257 5.1257038,5.1257038 0 0 0 5.12571,-5.1257 5.1257038,5.1257038 0 0 0 -5.12571,-5.12571 5.1257038,5.1257038 0 0 0 -5.1257,5.12571 z"
     id="path7387-9-4-7-1-4-8-46-9"
     inkscape:connector-curvature="0" />
  <path
     style="opacity:1;fill:none;fill-opacity:1;stroke:#0000ff;stroke-width:0.35374042;stroke-linecap:butt;stroke-miterlimit:4;stroke-dasharray:none;stroke-dashoffset:0;stroke-opacity:1"
     d="m 296.06013,650.7378 -54.56752,0 0,301.18659 54.56752,0 z"
     id="rect10583-8-4-0-0"
     inkscape:connector-curvature="0" />
  <path
     style="opacity:1;fill:none;fill-opacity:1;stroke:#000000;stroke-width:0.36373988;stroke-linecap:butt;stroke-miterlimit:4;stroke-dasharray:none;stroke-dashoffset:0;stroke-opacity:1"
     d="m 248.22049,658.90572 -6.72288,0 0,36.13233 6.72288,0 z"
     id="rect122857-0-9-6-5-1-38-1-3-5-0-8-3"
     inkscape:connector-curvature="0" />
  <path
     style="opacity:1;fill:none;fill-opacity:1;stroke:#000000;stroke-width:0.37851381;stroke-linecap:butt;stroke-miterlimit:4;stroke-dasharray:none;stroke-dashoffset:0;stroke-opacity:1"
     d="m 275.47361,676.97192 a 5.1257038,5.1257038 0 0 1 -5.1257,5.12571 5.1257038,5.1257038 0 0 1 -5.12571,-5.12571 5.1257038,5.1257038 0 0 1 5.12571,-5.1257 5.1257038,5.1257038 0 0 1 5.1257,5.1257 z"
     id="path7387-9-5-5-0-88-0-6-1-4"
     inkscape:connector-curvature="0" />
  <path
     style="opacity:1;fill:none;fill-opacity:1;stroke:#000000;stroke-width:0.36373988;stroke-linecap:butt;stroke-miterlimit:4;stroke-dasharray:none;stroke-dashoffset:0;stroke-opacity:1"
     d="m 248.22049,907.62413 -6.72288,0 0,36.13233 6.72288,0 z"
     id="rect122857-0-9-6-5-7-7-1-0-1-6-2-3-0"
     inkscape:connector-curvature="0" />
  <path
     style="opacity:1;fill:none;fill-opacity:1;stroke:#000000;stroke-width:0.37851381;stroke-linecap:butt;stroke-miterlimit:4;stroke-dasharray:none;stroke-dashoffset:0;stroke-opacity:1"
     d="m 275.47361,925.69035 a 5.1257038,5.1257038 0 0 1 -5.1257,5.1257 5.1257038,5.1257038 0 0 1 -5.12571,-5.1257 5.1257038,5.1257038 0 0 1 5.12571,-5.12571 5.1257038,5.1257038 0 0 1 5.1257,5.12571 z"
     id="path7387-9-4-7-1-4-8-46-9-1-3"
     inkscape:connector-curvature="0" />
  <path
     id="path7979"
     inkscape:label="part"
     style="fill:none;stroke:#000000"
     d="m 306.68342,-119.13565 0,41.929134 -10.62992,0 0,35.433071 10.62992,0 0,41.929135 -10.62992,0 0,35.43307 10.62992,0 0,41.92913 -10.62992,0 0,35.43307 10.62992,0 0,41.92914 -10.62992,0 0,35.43307 10.62992,0 0,41.92913 -10.62992,0 0,35.43307 10.62992,0 0,41.92914"
     inkscape:connector-curvature="0" />
  <path
     id="path7981"
     inkscape:label="part"
     style="fill:none;stroke:#000000"
     d="m 306.68342,309.60451 -36.14172,0 0,-10.62992 -35.4331,0 0,10.62992 -36.1417,0 0,-10.62992 -35.4331,0 0,10.62992 -36.1417,0 0,-10.62992 -35.4331,0 0,10.62992 -36.1417,0 0,-10.62992 -35.4331,0 0,10.62992 -36.1417,0"
     inkscape:connector-curvature="0" />
  <path
     id="path7983"
     inkscape:label="part"
     style="fill:none;stroke:#000000"
     d="m -15.7575,309.60451 0,-41.92914 10.6299,0 0,-35.43307 -10.6299,0 0,-41.92913 10.6299,0 0,-35.43307 -10.6299,0 0,-41.92914 10.6299,0 0,-35.43307 -10.6299,0 0,-41.92913 10.6299,0 0,-35.43307 -10.6299,0 0,-41.929135 10.6299,0 0,-35.433071 -10.6299,0 0,-41.929134"
     inkscape:connector-curvature="0" />
  <path
     id="path7985"
     inkscape:label="part"
     style="fill:none;stroke:#000000"
     d="m -15.7575,-119.13565 36.1417,0 0,10.62992 35.4331,0 0,-10.62992 36.1417,0 0,10.62992 35.4331,0 0,-10.62992 36.1417,0 0,10.62992 35.4331,0 0,-10.62992 36.1417,0 0,10.62992 35.4331,0 0,-10.62992 36.14172,0"
     inkscape:connector-curvature="0" />
  <path
     inkscape:connector-curvature="0"
     id="path3022-7-7-96-3-6-9"
     d="m 125.47849,157.24615 -65.6774,0 0,-5.33 c 0,-4.8173 -3.3926,-8.7044 -7.6393,-8.7044 l -21.7009,0 0,-0.4216 -25.0135,-39.3804 25.0135,-39.3799 0,-0.5753 41.3738,0 c 29.7262,0 53.6438,27.1322 53.6438,60.8533 l 0,32.9383 z"
     style="fill:none;stroke:#ff0000;stroke-width:0.35433075;stroke-linecap:round;stroke-linejoin:round;stroke-miterlimit:4;stroke-dasharray:none;stroke-opacity:1" />
  <path
     inkscape:connector-curvature="0"
     id="path3022-7-8-7-3-88-1-1"
     d="m 165.44739,157.53205 65.6773,0 0,-5.3299 c 0,-4.8173 3.3927,-8.7045 7.6393,-8.7045 l 21.701,0 0,-0.4215 25.01354,-39.3804 -25.01354,-39.3801 0,-0.5753 -41.3738,0 c -29.7262,0 -53.6438,27.1323 -53.6438,60.8534 l 0,32.9383 z"
     style="fill:none;stroke:#ff0000;stroke-width:0.35433075;stroke-linecap:round;stroke-linejoin:round;stroke-miterlimit:4;stroke-dasharray:none;stroke-opacity:1" />
  <path
     inkscape:connector-curvature="0"
     id="rect3015-5-6-4-8-7"
     d="m 198.94711,53.191107 -106.968296,0 0,-64.726904 53.467096,-48.3832 53.5012,48.3832 0,64.726904 z"
     style="fill:none;stroke:#ff0000;stroke-width:0.99999994;stroke-linecap:round;stroke-linejoin:round;stroke-miterlimit:4;stroke-dasharray:none;stroke-opacity:1" />
  <path
     style="opacity:1;fill:none;fill-opacity:1;stroke:#0000ff;stroke-width:0.35374042;stroke-linecap:butt;stroke-miterlimit:4;stroke-dasharray:none;stroke-dashoffset:0;stroke-opacity:1"
     d="m 296.05625,-61.7673 0,54.5675198 -301.18655,0 0,-54.5675198 z"
     id="rect10583-8-4-0"
     inkscape:connector-curvature="0" />
  <path
     style="opacity:1;fill:none;fill-opacity:1;stroke:#000000;stroke-width:0.37851381;stroke-linecap:butt;stroke-miterlimit:4;stroke-dasharray:none;stroke-dashoffset:0;stroke-opacity:1"
     d="m 269.8221,-87.24234 a 5.1257038,5.1257038 0 0 0 -5.1257,5.1257 5.1257038,5.1257038 0 0 0 5.1257,5.12571 5.1257038,5.1257038 0 0 0 5.1257,-5.12571 5.1257038,5.1257038 0 0 0 -5.1257,-5.1257 z"
     id="path7387-9-5-5-0-88-0-6-1"
     inkscape:connector-curvature="0" />
  <path
     style="opacity:1;fill:none;fill-opacity:1;stroke:#000000;stroke-width:0.37851381;stroke-linecap:butt;stroke-miterlimit:4;stroke-dasharray:none;stroke-dashoffset:0;stroke-opacity:1"
     d="m 21.1037,-87.24234 a 5.1257038,5.1257038 0 0 0 -5.1257,5.1257 5.1257038,5.1257038 0 0 0 5.1257,5.12571 5.1257038,5.1257038 0 0 0 5.1257,-5.12571 5.1257038,5.1257038 0 0 0 -5.1257,-5.1257 z"
     id="path7387-9-4-7-1-4-8-46-9-1"
     inkscape:connector-curvature="0" />
  <path
     style="opacity:1;fill:none;fill-opacity:1;stroke:#0000ff;stroke-width:0.35374042;stroke-linecap:butt;stroke-miterlimit:4;stroke-dasharray:none;stroke-dashoffset:0;stroke-opacity:1"
     d="m 296.05626,298.29771 0,-54.56752 -301.18656,0 0,54.56752 z"
     id="rect10583-8-4-0-1"
     inkscape:connector-curvature="0" />
  <path
     style="opacity:1;fill:none;fill-opacity:1;stroke:#000000;stroke-width:0.37851381;stroke-linecap:butt;stroke-miterlimit:4;stroke-dasharray:none;stroke-dashoffset:0;stroke-opacity:1"
     d="m 269.8221,277.71119 a 5.1257038,5.1257038 0 0 1 -5.1257,-5.1257 5.1257038,5.1257038 0 0 1 5.1257,-5.12571 5.1257038,5.1257038 0 0 1 5.1257,5.12571 5.1257038,5.1257038 0 0 1 -5.1257,5.1257 z"
     id="path7387-9-5-5-0-88-0-6-1-6"
     inkscape:connector-curvature="0" />
  <path
     style="opacity:1;fill:none;fill-opacity:1;stroke:#000000;stroke-width:0.37851381;stroke-linecap:butt;stroke-miterlimit:4;stroke-dasharray:none;stroke-dashoffset:0;stroke-opacity:1"
     d="m 21.1037,277.71119 a 5.1257038,5.1257038 0 0 1 -5.1257,-5.1257 5.1257038,5.1257038 0 0 1 5.1257,-5.12571 5.1257038,5.1257038 0 0 1 5.1257,5.12571 5.1257038,5.1257038 0 0 1 -5.1257,5.1257 z"
     id="path7387-9-4-7-1-4-8-46-9-1-33"
     inkscape:connector-curvature="0" />
  <path
     style="opacity:1;fill:none;fill-opacity:1;stroke:#0000ff;stroke-width:0.35433072;stroke-linecap:butt;stroke-miterlimit:4;stroke-dasharray:none;stroke-dashoffset:0;stroke-opacity:1"
     d="m 32.07714,-61.767005 226.77164,0 0,248.031545 -226.77164,0 z"
     id="rect7685-6"
     inkscape:connector-curvature="0" />
  <path
     style="opacity:1;fill:none;fill-opacity:1;stroke:#000000;stroke-width:0.3859517;stroke-linecap:butt;stroke-miterlimit:4;stroke-dasharray:none;stroke-dashoffset:0;stroke-opacity:1"
     d="m 238.78941,-18.576805 c -15.0325,0 -30.06501,0 -45.09753,0 0,-12.7415 0,-25.4831 0,-38.2246 15.15027,0 30.30054,0 45.4508,0 0,12.7415 0,25.4831 0,38.2246 l -0.35327,0 z"
     id="rect7691-7"
     inkscape:connector-curvature="0" />
  <path
     id="path5622"
     style="fill:none;stroke:#000000"
     d="m 594.24132,-51.471443 c 1.0029,0.15656 2.0058,0.31312 2.8717,0.7768 0.8401,0.44994 1.5512,1.18905 2.0411,2.04117 0.505,0.87818 0.7751,1.87638 0.7768,2.87168 9e-4,0.49831 -0.065,0.9959 -0.1949,1.4766 -0.1284,0.47672 -0.3187,0.93684 -0.5653,1.36465 -0.2485,0.43137 -0.5541,0.82989 -0.9062,1.18194 -0.3521,0.35206 -0.7506,0.65765 -1.182,0.90628 -0.4277,0.24658 -0.8878,0.43713 -1.3646,0.56526 -0.4808,0.1292 -0.9787,0.19493 -1.4766,0.19493 -0.4979,0 -0.9958,-0.0657 -1.4766,-0.19493 -0.4769,-0.12813 -0.9369,-0.31868 -1.3647,-0.56526 -0.4313,-0.24863 -0.8298,-0.55422 -1.1819,-0.90627 -0.3521,-0.35206 -0.6577,-0.75058 -0.9063,-1.18195 -0.2465,-0.42781 -0.4369,-0.88793 -0.5652,-1.36465 -0.1295,-0.4807 -0.1959,-0.97829 -0.195,-1.4766 0,-0.9953 0.2719,-1.9935 0.7768,-2.87167 0.49,-0.85213 1.2011,-1.59124 2.0412,-2.04118 0.8658,-0.46368 1.8688,-0.62024 2.8717,-0.7768"
     inkscape:connector-curvature="0" />
  <path
     id="path5626"
     style="fill:none;stroke:#000000"
     d="m 495.23552,-51.468273 c 0.4979,0.0379 0.9958,0.0759 1.4766,0.19493 0.4769,0.11808 0.9369,0.31598 1.3647,0.56526 0.4313,0.25135 0.8299,0.55497 1.1819,0.90627 0.3521,0.35131 0.6578,0.75031 0.9063,1.18195 0.2465,0.42807 0.4369,0.88825 0.5653,1.36465 0.1294,0.48038 0.1958,0.97726 0.1949,1.4766 0,0.99735 -0.2719,2.0045 -0.7768,2.87168 -0.49,0.84145 -1.201,1.55112 -2.0412,2.04117 -0.8658,0.50503 -1.8687,0.7768 -2.8717,0.7768 -1.0029,0 -2.0058,-0.27177 -2.8716,-0.7768 -0.8402,-0.49005 -1.5512,-1.19972 -2.0412,-2.04117 -0.5049,-0.86718 -0.775,-1.87433 -0.7768,-2.87168 -9e-4,-0.49934 0.066,-0.99622 0.1949,-1.4766 0.1284,-0.4764 0.3188,-0.93658 0.5653,-1.36465 0.2485,-0.43164 0.5542,-0.83064 0.9062,-1.18195 0.3521,-0.3513 0.7507,-0.65492 1.182,-0.90627 0.4278,-0.24928 0.8878,-0.44718 1.3646,-0.56526 0.4809,-0.11907 0.9788,-0.157 1.4766,-0.19493"
     inkscape:connector-curvature="0" />
  <path
     style="fill:none;stroke:#000000;stroke-width:0.35433069;stroke-linecap:square;stroke-linejoin:round;stroke-miterlimit:4;stroke-dasharray:none;stroke-opacity:1"
     d="m 489.06769,688.53742 a 12.755906,12.755906 0 0 1 -12.7559,12.7559 12.755906,12.755906 0 0 1 -12.7559,-12.7559 12.755906,12.755906 0 0 1 12.7559,-12.75591 12.755906,12.755906 0 0 1 12.7559,12.75591 z"
     id="path3004-0-8-6-7-8-6"
     inkscape:connector-curvature="0" />
  <path
     style="fill:none;stroke:#000000;stroke-width:0.35433075;stroke-linecap:square;stroke-linejoin:round;stroke-miterlimit:4;stroke-dasharray:none;stroke-opacity:1"
     d="m 523.89839,688.53742 a 7.0866146,7.0866146 0 0 1 -7.0866,7.08661 7.0866146,7.0866146 0 0 1 -7.0866,-7.08661 7.0866146,7.0866146 0 0 1 7.0866,-7.08662 7.0866146,7.0866146 0 0 1 7.0866,7.08662 z"
     id="path3004-9-7-8-7-0-7-0"
     inkscape:connector-curvature="0" />
  <path
     style="fill:none;stroke:#000000;stroke-width:0.35433072;stroke-linecap:square;stroke-linejoin:round;stroke-miterlimit:4;stroke-dasharray:none;stroke-opacity:1"
     d="m 583.24879,679.73163 8.8583,0 0,19.13386 -8.8583,0 z"
     id="rect3030-5-3-5-9-1-6"
     inkscape:connector-curvature="0" />
  <path
     style="fill:none;stroke:#000000;stroke-width:0.40264854;stroke-linecap:square;stroke-linejoin:round;stroke-miterlimit:4;stroke-dasharray:none;stroke-opacity:1"
     d="m 553.17739,719.3996 a 5.1136365,5.1136365 0 0 1 -5.1136,5.11364 5.1136365,5.1136365 0 0 1 -5.1137,-5.11364 5.1136365,5.1136365 0 0 1 5.1137,-5.11364 5.1136365,5.1136365 0 0 1 5.1136,5.11364 z"
     id="path3038-5-7-3-3-3-7-2"
     inkscape:connector-curvature="0" />
  <path
     style="opacity:1;fill:none;fill-opacity:1;stroke:#000000;stroke-width:0.25248;stroke-linecap:butt;stroke-miterlimit:4;stroke-dasharray:none;stroke-dashoffset:0;stroke-opacity:1"
     d="m 426.25028,730.78969 95.9063,0 0,10.37745 -95.9063,0 z"
     id="rect120884-3-6-9-62-0-7-6"
     inkscape:connector-curvature="0" />
  <path
     id="path7987-1"
     inkscape:label="part"
     style="fill:none;stroke:#000000"
     d="m 312.92955,931.4548 41.92914,0 0,10.62992 35.43307,0 0,-10.62992 41.92913,0 0,10.62992 35.43307,0 0,-10.62992 41.92914,0 0,10.62992 35.43307,0 0,-10.62992 41.92913,0 0,10.62992 35.43307,0 0,-10.62992 41.92914,0 0,10.62992 35.43307,0 0,-10.62992 41.92913,0"
     inkscape:connector-curvature="0" />
  <path
     id="path7989-8"
     inkscape:label="part"
     style="fill:none;stroke:#000000"
     d="m 741.66971,931.4548 0,-38.97638 -10.62992,0 0,-35.43307 10.62992,0 0,-49.6063 -10.62992,0 0,-35.43307 10.62992,0 0,-49.6063 -10.62992,0 0,-35.43307 10.62992,0 0,-38.97638"
     inkscape:connector-curvature="0" />
  <path
     id="path7991-7"
     inkscape:label="part"
     style="fill:none;stroke:#000000"
     d="m 741.66971,647.99023 -41.92913,0 0,-10.62992 -35.43307,0 0,10.62992 -41.92914,0 0,-10.62992 -35.43307,0 0,10.62992 -41.92913,0 0,-10.62992 -35.43307,0 0,10.62992 -41.92914,0 0,-10.62992 -35.43307,0 0,10.62992 -41.92913,0 0,-10.62992 -35.43307,0 0,10.62992 -41.92914,0"
     inkscape:connector-curvature="0" />
  <path
     id="path7993-9"
     inkscape:label="part"
     style="fill:none;stroke:#000000"
     d="m 312.92955,647.99023 0,38.97638 10.62992,0 0,35.43307 -10.62992,0 0,49.6063 10.62992,0 0,35.43307 -10.62992,0 0,49.6063 10.62992,0 0,35.43307 -10.62992,0 0,38.97638"
     inkscape:connector-curvature="0" />
  <path
     transform="matrix(0,-1,1,0,0,0)"
     style="opacity:1;fill:none;fill-opacity:1;stroke:#ff0000;stroke-width:0.57159573;stroke-linecap:butt;stroke-miterlimit:4;stroke-dasharray:none;stroke-dashoffset:0;stroke-opacity:1"
     d="m -492.1912,123.71411 a 16.503563,24.135029 0 0 1 -16.50356,24.13503 16.503563,24.135029 0 0 1 -16.50357,-24.13503 16.503563,24.135029 0 0 1 16.50357,-24.135028 16.503563,24.135029 0 0 1 16.50356,24.135028 z"
     id="path5272" />
  <path
     transform="matrix(0,-1,1,0,0,0)"
     style="opacity:1;fill:none;fill-opacity:1;stroke:#ff0000;stroke-width:0.57159573;stroke-linecap:butt;stroke-miterlimit:4;stroke-dasharray:none;stroke-dashoffset:0;stroke-opacity:1"
     d="m -420.86469,122.70396 a 16.503563,24.135029 0 0 1 -16.50357,24.13503 16.503563,24.135029 0 0 1 -16.50356,-24.13503 16.503563,24.135029 0 0 1 16.50356,-24.135032 16.503563,24.135029 0 0 1 16.50357,24.135032 z"
     id="path5272-5" />
  <path
     inkscape:connector-curvature="0"
     style="opacity:1;fill:none;fill-opacity:1;stroke:#ff0000;stroke-width:0.35433072;stroke-linecap:butt;stroke-miterlimit:4;stroke-dasharray:none;stroke-dashoffset:0;stroke-opacity:1"
     d="m 165.1308,556.72388 a 84.34774,83.842659 0 0 0 80.8125,-83.66797 84.34774,83.842659 0 0 0 -80.8125,-83.71679 l 0,18.4805 a 65.413376,65.413376 0 0 1 61.87695,65.23629 65.413376,65.413376 0 0 1 -61.87695,65.28906 l 0,18.37891 z"
     id="path5289" />
  <path
     style="opacity:1;fill:none;fill-opacity:1;stroke:#000000;stroke-width:0.35659376;stroke-linecap:butt;stroke-miterlimit:4;stroke-dasharray:none;stroke-dashoffset:0;stroke-opacity:1"
     d="m 394.32729,-143.32059 0,22.85156 -10.63086,0 0,95.666014 10.63086,0 0,22.8535197 35.07226,0 0,-22.8535197 230.67579,0 0,22.8535197 35.07226,0 0,-22.8535197 10.63281,0 0,-95.666014 -10.63281,0 0,-22.85156 -35.07226,0 0,22.85156 -230.67579,0 0,-22.85156 -35.07226,0 z"
     id="rect120884-3-6-9-62-0-7-2"
     inkscape:connector-curvature="0" />
</svg>
