M48
;DRILL file {kicad 0.201501251816+5388~20~ubuntu14.04.1-product} date Sat 14 Feb 2015 16:27:45 AEDT
;FORMAT={-:-/ absolute / metric / decimal}
FMAT,2
METRIC,TZ
T1C0.635
T2C0.762
T3C0.813
T4C1.001
T5C1.016
%
G90
G05
M71
T1
X105.994Y-109.753
X110.414Y-74.93
X110.465Y43.053
X110.541Y48.362
X110.617Y-18.415
X111.912Y-109.042
X116.815Y-109.474
X131.801Y55.651
X136.576Y5.258
X137.566Y0.889
X137.795Y10.897
X137.846Y25.603
X137.973Y21.793
X138.252Y-4.191
X138.379Y7.493
X138.659Y18.136
X138.836Y14.478
X139.319Y3.353
X140.03Y-1.626
X148.742Y8.28
X149.25Y16.002
X149.555Y-10.998
X150.241Y-6.579
X150.546Y3.302
X150.927Y18.517
X151.232Y13.411
X152.248Y-8.941
X152.73Y9.474
X157.353Y27.559
X158.369Y-111.481
X159.893Y-18.72
X162.509Y-72.746
X162.662Y-112.497
X163.17Y-78.74
X165.811Y27.026
X167.107Y-22.301
X168.199Y-112.497
X169.367Y24.536
X190.906Y63.652
X209.626Y3.937
X209.931Y-111.15
X210.439Y-34.087
X214.02Y52.629
X214.63Y-77.775
X215.087Y-69.621
X216.129Y-111.404
X216.383Y2.337
X216.764Y-32.461
X220.472Y-111.227
X220.497Y-34.138
X222.072Y3.658
X230.556Y-87.935
X231.978Y60.02
X235.255Y-24.79
X235.864Y26.645
X268.275Y-110.998
X270.789Y-18.593
X271.018Y50.8
X271.196Y41.097
X271.602Y-78.054
X272.72Y-110.465
X278.003Y-110.871
X279.832Y33.452
X283.286Y48.717
X283.947Y59.233
X291.236Y-22.225
X291.49Y-80.01
T2
X108.595Y-101.138
X108.722Y76.611
X108.748Y19.284
X108.941Y-40.284
X110.327Y-101.138
X110.454Y76.611
X110.48Y19.284
X111.481Y-40.284
X112.032Y-101.138
X112.159Y76.611
X112.184Y19.284
X113.82Y-101.166
X113.947Y76.584
X113.972Y19.256
X114.021Y-40.284
X116.561Y-40.284
X160.767Y70.693
X160.843Y-50.287
X161.046Y11.054
X161.402Y-108.682
X162.499Y70.693
X162.575Y-50.287
X162.778Y11.054
X163.134Y-108.682
X164.203Y70.693
X164.28Y-50.287
X164.483Y11.054
X164.838Y-108.682
X165.992Y70.665
X166.068Y-50.315
X166.271Y11.026
X166.627Y-108.709
X184.15Y-24.867
X186.69Y-24.892
X189.484Y-24.892
X196.799Y-24.79
X199.339Y-24.816
X202.133Y-24.816
X209.601Y-24.841
X212.141Y-24.867
X212.151Y75.951
X212.71Y16.007
X212.811Y-100.274
X213.294Y-41.753
X213.883Y75.951
X214.442Y16.007
X214.544Y-100.274
X214.935Y-24.867
X215.026Y-41.753
X215.588Y75.951
X216.146Y16.007
X216.248Y-100.274
X216.731Y-41.753
X217.376Y75.923
X217.935Y15.979
X218.036Y-100.302
X218.519Y-41.78
X268.844Y-43.073
X269.225Y76.408
X269.276Y-101.595
X269.479Y17.734
X270.576Y-43.073
X270.957Y76.408
X271.008Y-101.595
X271.211Y17.734
X272.28Y-43.073
X272.661Y76.408
X272.712Y-101.595
X272.915Y17.734
X274.069Y-43.101
X274.45Y76.38
X274.5Y-101.623
X274.704Y17.706
T3
X131.572Y16.281
X131.674Y-102.159
X131.724Y-42.977
X131.775Y75.311
X134.112Y16.281
X134.214Y-102.159
X134.264Y-42.977
X134.315Y75.311
X173.482Y10.922
X173.482Y8.382
X173.482Y5.842
X176.022Y10.922
X176.022Y8.382
X176.022Y5.842
X183.413Y13.386
X183.464Y-45.872
X183.591Y72.669
X183.642Y-105.181
X185.953Y13.386
X186.004Y-45.872
X186.131Y72.669
X186.182Y-105.181
X235.28Y14.199
X235.382Y-44.856
X235.382Y-104.191
X235.61Y73.279
X237.82Y14.199
X237.922Y-44.856
X237.922Y-104.191
X238.15Y73.279
X291.16Y15.418
X291.16Y-43.917
X291.236Y74.828
X291.567Y-103.251
X293.7Y15.418
X293.7Y-43.917
X293.776Y74.828
X294.107Y-103.251
T4
X103.93Y-105.613
X104.184Y12.903
X104.438Y70.663
X104.438Y-45.669
X110.363Y-81.153
X110.363Y-91.313
X110.414Y38.456
X110.414Y28.296
X110.465Y62.84
X110.465Y52.68
X110.515Y-21.692
X110.515Y-31.852
X118.93Y-105.613
X119.184Y12.903
X119.438Y70.663
X119.438Y-45.669
X131.496Y10.922
X131.496Y0.762
X131.699Y-85.725
X131.699Y-95.885
X131.724Y-48.946
X131.775Y69.977
X131.775Y59.817
X141.402Y48.844
X141.402Y38.684
X141.884Y-48.946
X144.551Y48.819
X144.551Y38.659
X147.65Y48.819
X147.65Y38.659
X150.774Y48.768
X150.774Y38.608
X152.781Y24.079
X153.924Y48.768
X153.924Y38.608
X155.746Y-44.145
X155.746Y-102.565
X156.254Y15.799
X156.762Y76.251
X157.048Y48.768
X157.048Y38.608
X160.223Y48.768
X160.223Y38.608
X162.56Y-58.166
X162.56Y-68.326
X162.941Y81.839
X162.941Y24.079
X163.144Y-83.642
X163.144Y-93.802
X163.424Y48.768
X163.424Y38.608
X170.155Y49.073
X170.155Y38.913
X170.746Y-44.145
X170.746Y-102.565
X171.254Y15.799
X171.762Y76.251
X173.101Y81.839
X173.457Y49.022
X173.457Y38.862
X176.759Y48.946
X176.759Y38.786
X178.511Y-35.738
X178.511Y-45.898
X179.451Y13.538
X179.451Y3.378
X180.035Y48.971
X180.035Y38.811
X181.94Y-88.595
X181.94Y-98.755
X183.413Y49.073
X183.413Y38.913
X186.69Y49.073
X186.69Y38.913
X189.992Y49.073
X189.992Y38.913
X192.989Y76.53
X192.989Y66.37
X193.167Y48.971
X193.167Y38.811
X204.292Y25.121
X207.994Y68.936
X208.527Y9.931
X208.578Y-48.006
X208.629Y-107.696
X213.893Y65.532
X213.893Y55.372
X214.452Y25.121
X214.63Y-82.829
X214.63Y-92.989
X215.062Y-55.651
X215.062Y-65.811
X222.994Y68.936
X223.527Y9.931
X223.578Y-48.006
X223.629Y-107.696
X230.556Y-93.828
X230.556Y-103.988
X231.851Y73.279
X231.851Y63.119
X235.433Y-28.804
X235.433Y-38.964
X235.712Y7.264
X235.712Y-2.896
X264.001Y-48.768
X265.017Y70.612
X265.017Y11.684
X265.017Y-107.696
X270.586Y-22.047
X270.586Y-32.207
X270.967Y-82.042
X270.967Y-92.202
X271.018Y64.008
X271.018Y53.848
X271.272Y37.338
X271.272Y27.178
X279.001Y-48.768
X280.017Y70.612
X280.017Y11.684
X280.017Y-107.696
X282.448Y43.612
X282.448Y33.452
X287.071Y74.828
X287.071Y64.668
X288.569Y46.286
X288.569Y31.286
X291.211Y8.915
X291.211Y-1.245
X291.414Y-27.254
X291.414Y-37.414
X291.617Y-85.776
X291.617Y-95.936
T5
X143.002Y28.702
X143.002Y26.162
X143.002Y23.622
X143.002Y21.082
X143.002Y18.542
X143.002Y16.002
X143.002Y13.462
X143.002Y10.922
X143.002Y8.382
X143.002Y5.842
X143.002Y3.302
X143.002Y0.762
X143.002Y-1.778
X143.002Y-4.318
X143.002Y-6.858
X143.002Y-9.398
X143.002Y-11.938
X143.002Y-14.478
X145.542Y28.702
X145.542Y26.162
X145.542Y23.622
X145.542Y21.082
X145.542Y18.542
X145.542Y16.002
X145.542Y13.462
X145.542Y10.922
X145.542Y8.382
X145.542Y5.842
X145.542Y3.302
X145.542Y0.762
X145.542Y-1.778
X145.542Y-4.318
X145.542Y-6.858
X145.542Y-9.398
X145.542Y-11.938
X145.542Y-14.478
X148.082Y33.782
X150.622Y33.782
X153.162Y33.782
X153.162Y-14.478
X155.702Y33.782
X155.702Y-14.478
X158.242Y33.782
X158.242Y-14.478
X160.782Y33.782
X160.782Y-14.478
X163.322Y33.782
X163.322Y-14.478
X165.862Y33.782
X165.862Y-14.478
X168.402Y-14.478
X170.942Y33.782
X170.942Y-14.478
X173.482Y33.782
X176.022Y33.782
X176.022Y-14.478
X178.562Y33.782
X178.562Y-14.478
X181.102Y33.782
X181.102Y-14.478
X183.642Y33.782
X183.642Y-14.478
X186.182Y33.782
X186.182Y-14.478
X188.722Y33.782
X188.722Y-14.478
X191.262Y-14.478
X193.802Y33.782
X193.802Y-14.478
X196.342Y33.782
X197.866Y-14.478
X198.882Y33.782
X200.406Y-14.478
X201.422Y33.782
X202.946Y-14.478
X203.962Y33.782
X205.486Y-14.478
X206.502Y33.782
X208.026Y-14.478
X209.042Y33.782
X210.566Y-14.478
X211.582Y33.782
X213.106Y-14.478
X215.646Y-14.478
X218.186Y-14.478
X220.726Y-14.478
X283.845Y54.864
X290.347Y54.864
X293.116Y57.404
X293.116Y54.864
X293.116Y51.308
X293.116Y48.768
X293.116Y46.228
X293.116Y43.688
X293.116Y41.148
X293.116Y38.608
X293.116Y36.068
X293.141Y33.299
T0
M30
