G04 #@! TF.FileFunction,Legend,Top*
%FSLAX46Y46*%
G04 Gerber Fmt 4.6, Leading zero omitted, Abs format (unit mm)*
G04 Created by KiCad (PCBNEW 0.201501251816+5388~20~ubuntu14.04.1-product) date Sat 14 Feb 2015 18:26:02 AEDT*
%MOMM*%
G01*
G04 APERTURE LIST*
%ADD10C,0.100000*%
%ADD11C,0.150000*%
%ADD12C,0.203200*%
%ADD13C,0.203000*%
%ADD14C,0.304800*%
G04 APERTURE END LIST*
D10*
D11*
X112877600Y-39141400D02*
G75*
G03X110591600Y-39141400I-1143000J-1143000D01*
G01*
X110591600Y-41300400D02*
G75*
G03X112750600Y-41427400I1143000J1016000D01*
G01*
X110718600Y-42189400D02*
G75*
G03X113639600Y-41300400I1016000J1905000D01*
G01*
X109702600Y-41046400D02*
G75*
G03X112496600Y-42316400I2032000J762000D01*
G01*
X112496600Y-38252400D02*
G75*
G03X109702600Y-39522400I-762000J-2032000D01*
G01*
X113639600Y-39268400D02*
G75*
G03X110718600Y-38379400I-1905000J-1016000D01*
G01*
X110210600Y-41808400D02*
G75*
G03X113258600Y-41808400I1524000J1524000D01*
G01*
X113258600Y-38760400D02*
G75*
G03X110210600Y-38760400I-1524000J-1524000D01*
G01*
X114274600Y-42189400D02*
X113766600Y-42697400D01*
X113766600Y-42697400D02*
X113004600Y-43205400D01*
X113004600Y-43205400D02*
X112115600Y-43459400D01*
X112115600Y-43459400D02*
X111226600Y-43459400D01*
X111226600Y-43459400D02*
X110464600Y-43205400D01*
X110464600Y-43205400D02*
X109829600Y-42824400D01*
X109829600Y-42824400D02*
X109194600Y-42189400D01*
X109194600Y-42189400D02*
X108813600Y-41554400D01*
X108813600Y-41554400D02*
X108686600Y-41300400D01*
X114274600Y-38379400D02*
X113639600Y-37744400D01*
X113639600Y-37744400D02*
X112623600Y-37236400D01*
X112623600Y-37236400D02*
X111861600Y-37109400D01*
X111861600Y-37109400D02*
X110845600Y-37236400D01*
X110845600Y-37236400D02*
X109956600Y-37617400D01*
X109956600Y-37617400D02*
X109194600Y-38379400D01*
X109194600Y-38379400D02*
X108686600Y-39268400D01*
X114274600Y-41173400D02*
X114274600Y-42189400D01*
X114274600Y-38379400D02*
X114274600Y-39268400D01*
D12*
X291846000Y54229000D02*
X291846000Y55499000D01*
X291846000Y55499000D02*
X292481000Y56134000D01*
X293751000Y56134000D02*
X294386000Y55499000D01*
X292481000Y56134000D02*
X291846000Y56769000D01*
X291846000Y56769000D02*
X291846000Y58039000D01*
X291846000Y58039000D02*
X292481000Y58674000D01*
X293751000Y58674000D02*
X294386000Y58039000D01*
X294386000Y58039000D02*
X294386000Y56769000D01*
X294386000Y56769000D02*
X293751000Y56134000D01*
X292481000Y53594000D02*
X293751000Y53594000D01*
X291846000Y54229000D02*
X292481000Y53594000D01*
X293751000Y53594000D02*
X294386000Y54229000D01*
X294386000Y55499000D02*
X294386000Y54229000D01*
X292481000Y58674000D02*
X293751000Y58674000D01*
X294411400Y33934400D02*
X293776400Y34569400D01*
X293776400Y34569400D02*
X292506400Y34569400D01*
X292506400Y34569400D02*
X291871400Y33934400D01*
X291871400Y33934400D02*
X291871400Y32664400D01*
X291871400Y32664400D02*
X292506400Y32029400D01*
X292506400Y32029400D02*
X293776400Y32029400D01*
X293776400Y32029400D02*
X294411400Y32664400D01*
X294411400Y32664400D02*
X294411400Y33934400D01*
D13*
X292481000Y52578000D02*
X293751000Y52578000D01*
D12*
X291846000Y50673000D02*
X291846000Y51943000D01*
X291846000Y51943000D02*
X292481000Y52578000D01*
X293751000Y52578000D02*
X294386000Y51943000D01*
X292481000Y47498000D02*
X291846000Y48133000D01*
X291846000Y48133000D02*
X291846000Y49403000D01*
X291846000Y49403000D02*
X292481000Y50038000D01*
X293751000Y50038000D02*
X294386000Y49403000D01*
X294386000Y49403000D02*
X294386000Y48133000D01*
X294386000Y48133000D02*
X293751000Y47498000D01*
X291846000Y50673000D02*
X292481000Y50038000D01*
X293751000Y50038000D02*
X294386000Y50673000D01*
X294386000Y51943000D02*
X294386000Y50673000D01*
X291846000Y43053000D02*
X291846000Y44323000D01*
X291846000Y44323000D02*
X292481000Y44958000D01*
X293751000Y44958000D02*
X294386000Y44323000D01*
X292481000Y44958000D02*
X291846000Y45593000D01*
X291846000Y45593000D02*
X291846000Y46863000D01*
X291846000Y46863000D02*
X292481000Y47498000D01*
X293751000Y47498000D02*
X294386000Y46863000D01*
X294386000Y46863000D02*
X294386000Y45593000D01*
X294386000Y45593000D02*
X293751000Y44958000D01*
X292481000Y39878000D02*
X291846000Y40513000D01*
X291846000Y40513000D02*
X291846000Y41783000D01*
X291846000Y41783000D02*
X292481000Y42418000D01*
X293751000Y42418000D02*
X294386000Y41783000D01*
X294386000Y41783000D02*
X294386000Y40513000D01*
X294386000Y40513000D02*
X293751000Y39878000D01*
X291846000Y43053000D02*
X292481000Y42418000D01*
X293751000Y42418000D02*
X294386000Y43053000D01*
X294386000Y44323000D02*
X294386000Y43053000D01*
X291846000Y35433000D02*
X291846000Y36703000D01*
X291846000Y36703000D02*
X292481000Y37338000D01*
X293751000Y37338000D02*
X294386000Y36703000D01*
X292481000Y37338000D02*
X291846000Y37973000D01*
X291846000Y37973000D02*
X291846000Y39243000D01*
X291846000Y39243000D02*
X292481000Y39878000D01*
X293751000Y39878000D02*
X294386000Y39243000D01*
X294386000Y39243000D02*
X294386000Y37973000D01*
X294386000Y37973000D02*
X293751000Y37338000D01*
X292481000Y34798000D02*
X293751000Y34798000D01*
X291846000Y35433000D02*
X292481000Y34798000D01*
X293751000Y34798000D02*
X294386000Y35433000D01*
X294386000Y36703000D02*
X294386000Y35433000D01*
D11*
X289839400Y43865800D02*
X287299400Y43865800D01*
X287299400Y43865800D02*
X287299400Y33705800D01*
X287299400Y33705800D02*
X289839400Y33705800D01*
X289839400Y33705800D02*
X289839400Y43865800D01*
X288569400Y32435800D02*
X288569400Y33705800D01*
X288569400Y45135800D02*
X288569400Y43865800D01*
X210997800Y-46736000D02*
X210997800Y-49276000D01*
X210997800Y-49276000D02*
X221157800Y-49276000D01*
X221157800Y-49276000D02*
X221157800Y-46736000D01*
X221157800Y-46736000D02*
X210997800Y-46736000D01*
X222427800Y-48006000D02*
X221157800Y-48006000D01*
X209727800Y-48006000D02*
X210997800Y-48006000D01*
X277596600Y-108966000D02*
X277596600Y-106426000D01*
X277596600Y-106426000D02*
X267436600Y-106426000D01*
X267436600Y-106426000D02*
X267436600Y-108966000D01*
X267436600Y-108966000D02*
X277596600Y-108966000D01*
X266166600Y-107696000D02*
X267436600Y-107696000D01*
X278866600Y-107696000D02*
X277596600Y-107696000D01*
X277596600Y10414000D02*
X277596600Y12954000D01*
X277596600Y12954000D02*
X267436600Y12954000D01*
X267436600Y12954000D02*
X267436600Y10414000D01*
X267436600Y10414000D02*
X277596600Y10414000D01*
X266166600Y11684000D02*
X267436600Y11684000D01*
X278866600Y11684000D02*
X277596600Y11684000D01*
X220573600Y67665600D02*
X220573600Y70205600D01*
X220573600Y70205600D02*
X210413600Y70205600D01*
X210413600Y70205600D02*
X210413600Y67665600D01*
X210413600Y67665600D02*
X220573600Y67665600D01*
X209143600Y68935600D02*
X210413600Y68935600D01*
X221843600Y68935600D02*
X220573600Y68935600D01*
X159181800Y77520800D02*
X159181800Y74980800D01*
X159181800Y74980800D02*
X169341800Y74980800D01*
X169341800Y74980800D02*
X169341800Y77520800D01*
X169341800Y77520800D02*
X159181800Y77520800D01*
X170611800Y76250800D02*
X169341800Y76250800D01*
X157911800Y76250800D02*
X159181800Y76250800D01*
X106603800Y14173200D02*
X106603800Y11633200D01*
X106603800Y11633200D02*
X116763800Y11633200D01*
X116763800Y11633200D02*
X116763800Y14173200D01*
X116763800Y14173200D02*
X106603800Y14173200D01*
X118033800Y12903200D02*
X116763800Y12903200D01*
X105333800Y12903200D02*
X106603800Y12903200D01*
X106349800Y-104343200D02*
X106349800Y-106883200D01*
X106349800Y-106883200D02*
X116509800Y-106883200D01*
X116509800Y-106883200D02*
X116509800Y-104343200D01*
X116509800Y-104343200D02*
X106349800Y-104343200D01*
X117779800Y-105613200D02*
X116509800Y-105613200D01*
X105079800Y-105613200D02*
X106349800Y-105613200D01*
X168325800Y-45415200D02*
X168325800Y-42875200D01*
X168325800Y-42875200D02*
X158165800Y-42875200D01*
X158165800Y-42875200D02*
X158165800Y-45415200D01*
X158165800Y-45415200D02*
X168325800Y-45415200D01*
X156895800Y-44145200D02*
X158165800Y-44145200D01*
X169595800Y-44145200D02*
X168325800Y-44145200D01*
X211048600Y-106426000D02*
X211048600Y-108966000D01*
X211048600Y-108966000D02*
X221208600Y-108966000D01*
X221208600Y-108966000D02*
X221208600Y-106426000D01*
X221208600Y-106426000D02*
X211048600Y-106426000D01*
X222478600Y-107696000D02*
X221208600Y-107696000D01*
X209778600Y-107696000D02*
X211048600Y-107696000D01*
X221107000Y8661400D02*
X221107000Y11201400D01*
X221107000Y11201400D02*
X210947000Y11201400D01*
X210947000Y11201400D02*
X210947000Y8661400D01*
X210947000Y8661400D02*
X221107000Y8661400D01*
X209677000Y9931400D02*
X210947000Y9931400D01*
X222377000Y9931400D02*
X221107000Y9931400D01*
X276580600Y-50038000D02*
X276580600Y-47498000D01*
X276580600Y-47498000D02*
X266420600Y-47498000D01*
X266420600Y-47498000D02*
X266420600Y-50038000D01*
X266420600Y-50038000D02*
X276580600Y-50038000D01*
X265150600Y-48768000D02*
X266420600Y-48768000D01*
X277850600Y-48768000D02*
X276580600Y-48768000D01*
X277596600Y69342000D02*
X277596600Y71882000D01*
X277596600Y71882000D02*
X267436600Y71882000D01*
X267436600Y71882000D02*
X267436600Y69342000D01*
X267436600Y69342000D02*
X277596600Y69342000D01*
X266166600Y70612000D02*
X267436600Y70612000D01*
X278866600Y70612000D02*
X277596600Y70612000D01*
X158673800Y17068800D02*
X158673800Y14528800D01*
X158673800Y14528800D02*
X168833800Y14528800D01*
X168833800Y14528800D02*
X168833800Y17068800D01*
X168833800Y17068800D02*
X158673800Y17068800D01*
X170103800Y15798800D02*
X168833800Y15798800D01*
X157403800Y15798800D02*
X158673800Y15798800D01*
X106857800Y71932800D02*
X106857800Y69392800D01*
X106857800Y69392800D02*
X117017800Y69392800D01*
X117017800Y69392800D02*
X117017800Y71932800D01*
X117017800Y71932800D02*
X106857800Y71932800D01*
X118287800Y70662800D02*
X117017800Y70662800D01*
X105587800Y70662800D02*
X106857800Y70662800D01*
X106857800Y-44399200D02*
X106857800Y-46939200D01*
X106857800Y-46939200D02*
X117017800Y-46939200D01*
X117017800Y-46939200D02*
X117017800Y-44399200D01*
X117017800Y-44399200D02*
X106857800Y-44399200D01*
X118287800Y-45669200D02*
X117017800Y-45669200D01*
X105587800Y-45669200D02*
X106857800Y-45669200D01*
X168325800Y-103835200D02*
X168325800Y-101295200D01*
X168325800Y-101295200D02*
X158165800Y-101295200D01*
X158165800Y-101295200D02*
X158165800Y-103835200D01*
X158165800Y-103835200D02*
X168325800Y-103835200D01*
X156895800Y-102565200D02*
X158165800Y-102565200D01*
X169595800Y-102565200D02*
X168325800Y-102565200D01*
D12*
X284048200Y56388000D02*
X284302200Y56642000D01*
X284302200Y56642000D02*
X289890200Y56642000D01*
X289890200Y56642000D02*
X290144200Y56388000D01*
X290144200Y53340000D02*
X289890200Y53086000D01*
X289890200Y53086000D02*
X284302200Y53086000D01*
X284302200Y53086000D02*
X284048200Y53340000D01*
D11*
X164846000Y71831200D02*
G75*
G03X162560000Y71831200I-1143000J-1143000D01*
G01*
X162560000Y69672200D02*
G75*
G03X164719000Y69545200I1143000J1016000D01*
G01*
X162687000Y68783200D02*
G75*
G03X165608000Y69672200I1016000J1905000D01*
G01*
X161671000Y69926200D02*
G75*
G03X164465000Y68656200I2032000J762000D01*
G01*
X164465000Y72720200D02*
G75*
G03X161671000Y71450200I-762000J-2032000D01*
G01*
X165608000Y71704200D02*
G75*
G03X162687000Y72593200I-1905000J-1016000D01*
G01*
X162179000Y69164200D02*
G75*
G03X165227000Y69164200I1524000J1524000D01*
G01*
X165227000Y72212200D02*
G75*
G03X162179000Y72212200I-1524000J-1524000D01*
G01*
X166243000Y68783200D02*
X165735000Y68275200D01*
X165735000Y68275200D02*
X164973000Y67767200D01*
X164973000Y67767200D02*
X164084000Y67513200D01*
X164084000Y67513200D02*
X163195000Y67513200D01*
X163195000Y67513200D02*
X162433000Y67767200D01*
X162433000Y67767200D02*
X161798000Y68148200D01*
X161798000Y68148200D02*
X161163000Y68783200D01*
X161163000Y68783200D02*
X160782000Y69418200D01*
X160782000Y69418200D02*
X160655000Y69672200D01*
X166243000Y72593200D02*
X165608000Y73228200D01*
X165608000Y73228200D02*
X164592000Y73736200D01*
X164592000Y73736200D02*
X163830000Y73863200D01*
X163830000Y73863200D02*
X162814000Y73736200D01*
X162814000Y73736200D02*
X161925000Y73355200D01*
X161925000Y73355200D02*
X161163000Y72593200D01*
X161163000Y72593200D02*
X160655000Y71704200D01*
X166243000Y69799200D02*
X166243000Y68783200D01*
X166243000Y72593200D02*
X166243000Y71704200D01*
X165125400Y12192000D02*
G75*
G03X162839400Y12192000I-1143000J-1143000D01*
G01*
X162839400Y10033000D02*
G75*
G03X164998400Y9906000I1143000J1016000D01*
G01*
X162966400Y9144000D02*
G75*
G03X165887400Y10033000I1016000J1905000D01*
G01*
X161950400Y10287000D02*
G75*
G03X164744400Y9017000I2032000J762000D01*
G01*
X164744400Y13081000D02*
G75*
G03X161950400Y11811000I-762000J-2032000D01*
G01*
X165887400Y12065000D02*
G75*
G03X162966400Y12954000I-1905000J-1016000D01*
G01*
X162458400Y9525000D02*
G75*
G03X165506400Y9525000I1524000J1524000D01*
G01*
X165506400Y12573000D02*
G75*
G03X162458400Y12573000I-1524000J-1524000D01*
G01*
X166522400Y9144000D02*
X166014400Y8636000D01*
X166014400Y8636000D02*
X165252400Y8128000D01*
X165252400Y8128000D02*
X164363400Y7874000D01*
X164363400Y7874000D02*
X163474400Y7874000D01*
X163474400Y7874000D02*
X162712400Y8128000D01*
X162712400Y8128000D02*
X162077400Y8509000D01*
X162077400Y8509000D02*
X161442400Y9144000D01*
X161442400Y9144000D02*
X161061400Y9779000D01*
X161061400Y9779000D02*
X160934400Y10033000D01*
X166522400Y12954000D02*
X165887400Y13589000D01*
X165887400Y13589000D02*
X164871400Y14097000D01*
X164871400Y14097000D02*
X164109400Y14224000D01*
X164109400Y14224000D02*
X163093400Y14097000D01*
X163093400Y14097000D02*
X162204400Y13716000D01*
X162204400Y13716000D02*
X161442400Y12954000D01*
X161442400Y12954000D02*
X160934400Y12065000D01*
X166522400Y10160000D02*
X166522400Y9144000D01*
X166522400Y12954000D02*
X166522400Y12065000D01*
X112801400Y77749400D02*
G75*
G03X110515400Y77749400I-1143000J-1143000D01*
G01*
X110515400Y75590400D02*
G75*
G03X112674400Y75463400I1143000J1016000D01*
G01*
X110642400Y74701400D02*
G75*
G03X113563400Y75590400I1016000J1905000D01*
G01*
X109626400Y75844400D02*
G75*
G03X112420400Y74574400I2032000J762000D01*
G01*
X112420400Y78638400D02*
G75*
G03X109626400Y77368400I-762000J-2032000D01*
G01*
X113563400Y77622400D02*
G75*
G03X110642400Y78511400I-1905000J-1016000D01*
G01*
X110134400Y75082400D02*
G75*
G03X113182400Y75082400I1524000J1524000D01*
G01*
X113182400Y78130400D02*
G75*
G03X110134400Y78130400I-1524000J-1524000D01*
G01*
X114198400Y74701400D02*
X113690400Y74193400D01*
X113690400Y74193400D02*
X112928400Y73685400D01*
X112928400Y73685400D02*
X112039400Y73431400D01*
X112039400Y73431400D02*
X111150400Y73431400D01*
X111150400Y73431400D02*
X110388400Y73685400D01*
X110388400Y73685400D02*
X109753400Y74066400D01*
X109753400Y74066400D02*
X109118400Y74701400D01*
X109118400Y74701400D02*
X108737400Y75336400D01*
X108737400Y75336400D02*
X108610400Y75590400D01*
X114198400Y78511400D02*
X113563400Y79146400D01*
X113563400Y79146400D02*
X112547400Y79654400D01*
X112547400Y79654400D02*
X111785400Y79781400D01*
X111785400Y79781400D02*
X110769400Y79654400D01*
X110769400Y79654400D02*
X109880400Y79273400D01*
X109880400Y79273400D02*
X109118400Y78511400D01*
X109118400Y78511400D02*
X108610400Y77622400D01*
X114198400Y75717400D02*
X114198400Y74701400D01*
X114198400Y78511400D02*
X114198400Y77622400D01*
X273558000Y18872200D02*
G75*
G03X271272000Y18872200I-1143000J-1143000D01*
G01*
X271272000Y16713200D02*
G75*
G03X273431000Y16586200I1143000J1016000D01*
G01*
X271399000Y15824200D02*
G75*
G03X274320000Y16713200I1016000J1905000D01*
G01*
X270383000Y16967200D02*
G75*
G03X273177000Y15697200I2032000J762000D01*
G01*
X273177000Y19761200D02*
G75*
G03X270383000Y18491200I-762000J-2032000D01*
G01*
X274320000Y18745200D02*
G75*
G03X271399000Y19634200I-1905000J-1016000D01*
G01*
X270891000Y16205200D02*
G75*
G03X273939000Y16205200I1524000J1524000D01*
G01*
X273939000Y19253200D02*
G75*
G03X270891000Y19253200I-1524000J-1524000D01*
G01*
X274955000Y15824200D02*
X274447000Y15316200D01*
X274447000Y15316200D02*
X273685000Y14808200D01*
X273685000Y14808200D02*
X272796000Y14554200D01*
X272796000Y14554200D02*
X271907000Y14554200D01*
X271907000Y14554200D02*
X271145000Y14808200D01*
X271145000Y14808200D02*
X270510000Y15189200D01*
X270510000Y15189200D02*
X269875000Y15824200D01*
X269875000Y15824200D02*
X269494000Y16459200D01*
X269494000Y16459200D02*
X269367000Y16713200D01*
X274955000Y19634200D02*
X274320000Y20269200D01*
X274320000Y20269200D02*
X273304000Y20777200D01*
X273304000Y20777200D02*
X272542000Y20904200D01*
X272542000Y20904200D02*
X271526000Y20777200D01*
X271526000Y20777200D02*
X270637000Y20396200D01*
X270637000Y20396200D02*
X269875000Y19634200D01*
X269875000Y19634200D02*
X269367000Y18745200D01*
X274955000Y16840200D02*
X274955000Y15824200D01*
X274955000Y19634200D02*
X274955000Y18745200D01*
X216230200Y77089000D02*
G75*
G03X213944200Y77089000I-1143000J-1143000D01*
G01*
X213944200Y74930000D02*
G75*
G03X216103200Y74803000I1143000J1016000D01*
G01*
X214071200Y74041000D02*
G75*
G03X216992200Y74930000I1016000J1905000D01*
G01*
X213055200Y75184000D02*
G75*
G03X215849200Y73914000I2032000J762000D01*
G01*
X215849200Y77978000D02*
G75*
G03X213055200Y76708000I-762000J-2032000D01*
G01*
X216992200Y76962000D02*
G75*
G03X214071200Y77851000I-1905000J-1016000D01*
G01*
X213563200Y74422000D02*
G75*
G03X216611200Y74422000I1524000J1524000D01*
G01*
X216611200Y77470000D02*
G75*
G03X213563200Y77470000I-1524000J-1524000D01*
G01*
X217627200Y74041000D02*
X217119200Y73533000D01*
X217119200Y73533000D02*
X216357200Y73025000D01*
X216357200Y73025000D02*
X215468200Y72771000D01*
X215468200Y72771000D02*
X214579200Y72771000D01*
X214579200Y72771000D02*
X213817200Y73025000D01*
X213817200Y73025000D02*
X213182200Y73406000D01*
X213182200Y73406000D02*
X212547200Y74041000D01*
X212547200Y74041000D02*
X212166200Y74676000D01*
X212166200Y74676000D02*
X212039200Y74930000D01*
X217627200Y77851000D02*
X216992200Y78486000D01*
X216992200Y78486000D02*
X215976200Y78994000D01*
X215976200Y78994000D02*
X215214200Y79121000D01*
X215214200Y79121000D02*
X214198200Y78994000D01*
X214198200Y78994000D02*
X213309200Y78613000D01*
X213309200Y78613000D02*
X212547200Y77851000D01*
X212547200Y77851000D02*
X212039200Y76962000D01*
X217627200Y75057000D02*
X217627200Y74041000D01*
X217627200Y77851000D02*
X217627200Y76962000D01*
X273304000Y77546200D02*
G75*
G03X271018000Y77546200I-1143000J-1143000D01*
G01*
X271018000Y75387200D02*
G75*
G03X273177000Y75260200I1143000J1016000D01*
G01*
X271145000Y74498200D02*
G75*
G03X274066000Y75387200I1016000J1905000D01*
G01*
X270129000Y75641200D02*
G75*
G03X272923000Y74371200I2032000J762000D01*
G01*
X272923000Y78435200D02*
G75*
G03X270129000Y77165200I-762000J-2032000D01*
G01*
X274066000Y77419200D02*
G75*
G03X271145000Y78308200I-1905000J-1016000D01*
G01*
X270637000Y74879200D02*
G75*
G03X273685000Y74879200I1524000J1524000D01*
G01*
X273685000Y77927200D02*
G75*
G03X270637000Y77927200I-1524000J-1524000D01*
G01*
X274701000Y74498200D02*
X274193000Y73990200D01*
X274193000Y73990200D02*
X273431000Y73482200D01*
X273431000Y73482200D02*
X272542000Y73228200D01*
X272542000Y73228200D02*
X271653000Y73228200D01*
X271653000Y73228200D02*
X270891000Y73482200D01*
X270891000Y73482200D02*
X270256000Y73863200D01*
X270256000Y73863200D02*
X269621000Y74498200D01*
X269621000Y74498200D02*
X269240000Y75133200D01*
X269240000Y75133200D02*
X269113000Y75387200D01*
X274701000Y78308200D02*
X274066000Y78943200D01*
X274066000Y78943200D02*
X273050000Y79451200D01*
X273050000Y79451200D02*
X272288000Y79578200D01*
X272288000Y79578200D02*
X271272000Y79451200D01*
X271272000Y79451200D02*
X270383000Y79070200D01*
X270383000Y79070200D02*
X269621000Y78308200D01*
X269621000Y78308200D02*
X269113000Y77419200D01*
X274701000Y75514200D02*
X274701000Y74498200D01*
X274701000Y78308200D02*
X274701000Y77419200D01*
X112826800Y20421600D02*
G75*
G03X110540800Y20421600I-1143000J-1143000D01*
G01*
X110540800Y18262600D02*
G75*
G03X112699800Y18135600I1143000J1016000D01*
G01*
X110667800Y17373600D02*
G75*
G03X113588800Y18262600I1016000J1905000D01*
G01*
X109651800Y18516600D02*
G75*
G03X112445800Y17246600I2032000J762000D01*
G01*
X112445800Y21310600D02*
G75*
G03X109651800Y20040600I-762000J-2032000D01*
G01*
X113588800Y20294600D02*
G75*
G03X110667800Y21183600I-1905000J-1016000D01*
G01*
X110159800Y17754600D02*
G75*
G03X113207800Y17754600I1524000J1524000D01*
G01*
X113207800Y20802600D02*
G75*
G03X110159800Y20802600I-1524000J-1524000D01*
G01*
X114223800Y17373600D02*
X113715800Y16865600D01*
X113715800Y16865600D02*
X112953800Y16357600D01*
X112953800Y16357600D02*
X112064800Y16103600D01*
X112064800Y16103600D02*
X111175800Y16103600D01*
X111175800Y16103600D02*
X110413800Y16357600D01*
X110413800Y16357600D02*
X109778800Y16738600D01*
X109778800Y16738600D02*
X109143800Y17373600D01*
X109143800Y17373600D02*
X108762800Y18008600D01*
X108762800Y18008600D02*
X108635800Y18262600D01*
X114223800Y21183600D02*
X113588800Y21818600D01*
X113588800Y21818600D02*
X112572800Y22326600D01*
X112572800Y22326600D02*
X111810800Y22453600D01*
X111810800Y22453600D02*
X110794800Y22326600D01*
X110794800Y22326600D02*
X109905800Y21945600D01*
X109905800Y21945600D02*
X109143800Y21183600D01*
X109143800Y21183600D02*
X108635800Y20294600D01*
X114223800Y18389600D02*
X114223800Y17373600D01*
X114223800Y21183600D02*
X114223800Y20294600D01*
X272923000Y-41935400D02*
G75*
G03X270637000Y-41935400I-1143000J-1143000D01*
G01*
X270637000Y-44094400D02*
G75*
G03X272796000Y-44221400I1143000J1016000D01*
G01*
X270764000Y-44983400D02*
G75*
G03X273685000Y-44094400I1016000J1905000D01*
G01*
X269748000Y-43840400D02*
G75*
G03X272542000Y-45110400I2032000J762000D01*
G01*
X272542000Y-41046400D02*
G75*
G03X269748000Y-42316400I-762000J-2032000D01*
G01*
X273685000Y-42062400D02*
G75*
G03X270764000Y-41173400I-1905000J-1016000D01*
G01*
X270256000Y-44602400D02*
G75*
G03X273304000Y-44602400I1524000J1524000D01*
G01*
X273304000Y-41554400D02*
G75*
G03X270256000Y-41554400I-1524000J-1524000D01*
G01*
X274320000Y-44983400D02*
X273812000Y-45491400D01*
X273812000Y-45491400D02*
X273050000Y-45999400D01*
X273050000Y-45999400D02*
X272161000Y-46253400D01*
X272161000Y-46253400D02*
X271272000Y-46253400D01*
X271272000Y-46253400D02*
X270510000Y-45999400D01*
X270510000Y-45999400D02*
X269875000Y-45618400D01*
X269875000Y-45618400D02*
X269240000Y-44983400D01*
X269240000Y-44983400D02*
X268859000Y-44348400D01*
X268859000Y-44348400D02*
X268732000Y-44094400D01*
X274320000Y-41173400D02*
X273685000Y-40538400D01*
X273685000Y-40538400D02*
X272669000Y-40030400D01*
X272669000Y-40030400D02*
X271907000Y-39903400D01*
X271907000Y-39903400D02*
X270891000Y-40030400D01*
X270891000Y-40030400D02*
X270002000Y-40411400D01*
X270002000Y-40411400D02*
X269240000Y-41173400D01*
X269240000Y-41173400D02*
X268732000Y-42062400D01*
X274320000Y-43967400D02*
X274320000Y-44983400D01*
X274320000Y-41173400D02*
X274320000Y-42062400D01*
X273354800Y-100457000D02*
G75*
G03X271068800Y-100457000I-1143000J-1143000D01*
G01*
X271068800Y-102616000D02*
G75*
G03X273227800Y-102743000I1143000J1016000D01*
G01*
X271195800Y-103505000D02*
G75*
G03X274116800Y-102616000I1016000J1905000D01*
G01*
X270179800Y-102362000D02*
G75*
G03X272973800Y-103632000I2032000J762000D01*
G01*
X272973800Y-99568000D02*
G75*
G03X270179800Y-100838000I-762000J-2032000D01*
G01*
X274116800Y-100584000D02*
G75*
G03X271195800Y-99695000I-1905000J-1016000D01*
G01*
X270687800Y-103124000D02*
G75*
G03X273735800Y-103124000I1524000J1524000D01*
G01*
X273735800Y-100076000D02*
G75*
G03X270687800Y-100076000I-1524000J-1524000D01*
G01*
X274751800Y-103505000D02*
X274243800Y-104013000D01*
X274243800Y-104013000D02*
X273481800Y-104521000D01*
X273481800Y-104521000D02*
X272592800Y-104775000D01*
X272592800Y-104775000D02*
X271703800Y-104775000D01*
X271703800Y-104775000D02*
X270941800Y-104521000D01*
X270941800Y-104521000D02*
X270306800Y-104140000D01*
X270306800Y-104140000D02*
X269671800Y-103505000D01*
X269671800Y-103505000D02*
X269290800Y-102870000D01*
X269290800Y-102870000D02*
X269163800Y-102616000D01*
X274751800Y-99695000D02*
X274116800Y-99060000D01*
X274116800Y-99060000D02*
X273100800Y-98552000D01*
X273100800Y-98552000D02*
X272338800Y-98425000D01*
X272338800Y-98425000D02*
X271322800Y-98552000D01*
X271322800Y-98552000D02*
X270433800Y-98933000D01*
X270433800Y-98933000D02*
X269671800Y-99695000D01*
X269671800Y-99695000D02*
X269163800Y-100584000D01*
X274751800Y-102489000D02*
X274751800Y-103505000D01*
X274751800Y-99695000D02*
X274751800Y-100584000D01*
X112674400Y-99999800D02*
G75*
G03X110388400Y-99999800I-1143000J-1143000D01*
G01*
X110388400Y-102158800D02*
G75*
G03X112547400Y-102285800I1143000J1016000D01*
G01*
X110515400Y-103047800D02*
G75*
G03X113436400Y-102158800I1016000J1905000D01*
G01*
X109499400Y-101904800D02*
G75*
G03X112293400Y-103174800I2032000J762000D01*
G01*
X112293400Y-99110800D02*
G75*
G03X109499400Y-100380800I-762000J-2032000D01*
G01*
X113436400Y-100126800D02*
G75*
G03X110515400Y-99237800I-1905000J-1016000D01*
G01*
X110007400Y-102666800D02*
G75*
G03X113055400Y-102666800I1524000J1524000D01*
G01*
X113055400Y-99618800D02*
G75*
G03X110007400Y-99618800I-1524000J-1524000D01*
G01*
X114071400Y-103047800D02*
X113563400Y-103555800D01*
X113563400Y-103555800D02*
X112801400Y-104063800D01*
X112801400Y-104063800D02*
X111912400Y-104317800D01*
X111912400Y-104317800D02*
X111023400Y-104317800D01*
X111023400Y-104317800D02*
X110261400Y-104063800D01*
X110261400Y-104063800D02*
X109626400Y-103682800D01*
X109626400Y-103682800D02*
X108991400Y-103047800D01*
X108991400Y-103047800D02*
X108610400Y-102412800D01*
X108610400Y-102412800D02*
X108483400Y-102158800D01*
X114071400Y-99237800D02*
X113436400Y-98602800D01*
X113436400Y-98602800D02*
X112420400Y-98094800D01*
X112420400Y-98094800D02*
X111658400Y-97967800D01*
X111658400Y-97967800D02*
X110642400Y-98094800D01*
X110642400Y-98094800D02*
X109753400Y-98475800D01*
X109753400Y-98475800D02*
X108991400Y-99237800D01*
X108991400Y-99237800D02*
X108483400Y-100126800D01*
X114071400Y-102031800D02*
X114071400Y-103047800D01*
X114071400Y-99237800D02*
X114071400Y-100126800D01*
X216890600Y-99136200D02*
G75*
G03X214604600Y-99136200I-1143000J-1143000D01*
G01*
X214604600Y-101295200D02*
G75*
G03X216763600Y-101422200I1143000J1016000D01*
G01*
X214731600Y-102184200D02*
G75*
G03X217652600Y-101295200I1016000J1905000D01*
G01*
X213715600Y-101041200D02*
G75*
G03X216509600Y-102311200I2032000J762000D01*
G01*
X216509600Y-98247200D02*
G75*
G03X213715600Y-99517200I-762000J-2032000D01*
G01*
X217652600Y-99263200D02*
G75*
G03X214731600Y-98374200I-1905000J-1016000D01*
G01*
X214223600Y-101803200D02*
G75*
G03X217271600Y-101803200I1524000J1524000D01*
G01*
X217271600Y-98755200D02*
G75*
G03X214223600Y-98755200I-1524000J-1524000D01*
G01*
X218287600Y-102184200D02*
X217779600Y-102692200D01*
X217779600Y-102692200D02*
X217017600Y-103200200D01*
X217017600Y-103200200D02*
X216128600Y-103454200D01*
X216128600Y-103454200D02*
X215239600Y-103454200D01*
X215239600Y-103454200D02*
X214477600Y-103200200D01*
X214477600Y-103200200D02*
X213842600Y-102819200D01*
X213842600Y-102819200D02*
X213207600Y-102184200D01*
X213207600Y-102184200D02*
X212826600Y-101549200D01*
X212826600Y-101549200D02*
X212699600Y-101295200D01*
X218287600Y-98374200D02*
X217652600Y-97739200D01*
X217652600Y-97739200D02*
X216636600Y-97231200D01*
X216636600Y-97231200D02*
X215874600Y-97104200D01*
X215874600Y-97104200D02*
X214858600Y-97231200D01*
X214858600Y-97231200D02*
X213969600Y-97612200D01*
X213969600Y-97612200D02*
X213207600Y-98374200D01*
X213207600Y-98374200D02*
X212699600Y-99263200D01*
X218287600Y-101168200D02*
X218287600Y-102184200D01*
X218287600Y-98374200D02*
X218287600Y-99263200D01*
X165481000Y-107543600D02*
G75*
G03X163195000Y-107543600I-1143000J-1143000D01*
G01*
X163195000Y-109702600D02*
G75*
G03X165354000Y-109829600I1143000J1016000D01*
G01*
X163322000Y-110591600D02*
G75*
G03X166243000Y-109702600I1016000J1905000D01*
G01*
X162306000Y-109448600D02*
G75*
G03X165100000Y-110718600I2032000J762000D01*
G01*
X165100000Y-106654600D02*
G75*
G03X162306000Y-107924600I-762000J-2032000D01*
G01*
X166243000Y-107670600D02*
G75*
G03X163322000Y-106781600I-1905000J-1016000D01*
G01*
X162814000Y-110210600D02*
G75*
G03X165862000Y-110210600I1524000J1524000D01*
G01*
X165862000Y-107162600D02*
G75*
G03X162814000Y-107162600I-1524000J-1524000D01*
G01*
X166878000Y-110591600D02*
X166370000Y-111099600D01*
X166370000Y-111099600D02*
X165608000Y-111607600D01*
X165608000Y-111607600D02*
X164719000Y-111861600D01*
X164719000Y-111861600D02*
X163830000Y-111861600D01*
X163830000Y-111861600D02*
X163068000Y-111607600D01*
X163068000Y-111607600D02*
X162433000Y-111226600D01*
X162433000Y-111226600D02*
X161798000Y-110591600D01*
X161798000Y-110591600D02*
X161417000Y-109956600D01*
X161417000Y-109956600D02*
X161290000Y-109702600D01*
X166878000Y-106781600D02*
X166243000Y-106146600D01*
X166243000Y-106146600D02*
X165227000Y-105638600D01*
X165227000Y-105638600D02*
X164465000Y-105511600D01*
X164465000Y-105511600D02*
X163449000Y-105638600D01*
X163449000Y-105638600D02*
X162560000Y-106019600D01*
X162560000Y-106019600D02*
X161798000Y-106781600D01*
X161798000Y-106781600D02*
X161290000Y-107670600D01*
X166878000Y-109575600D02*
X166878000Y-110591600D01*
X166878000Y-106781600D02*
X166878000Y-107670600D01*
X216789000Y17145000D02*
G75*
G03X214503000Y17145000I-1143000J-1143000D01*
G01*
X214503000Y14986000D02*
G75*
G03X216662000Y14859000I1143000J1016000D01*
G01*
X214630000Y14097000D02*
G75*
G03X217551000Y14986000I1016000J1905000D01*
G01*
X213614000Y15240000D02*
G75*
G03X216408000Y13970000I2032000J762000D01*
G01*
X216408000Y18034000D02*
G75*
G03X213614000Y16764000I-762000J-2032000D01*
G01*
X217551000Y17018000D02*
G75*
G03X214630000Y17907000I-1905000J-1016000D01*
G01*
X214122000Y14478000D02*
G75*
G03X217170000Y14478000I1524000J1524000D01*
G01*
X217170000Y17526000D02*
G75*
G03X214122000Y17526000I-1524000J-1524000D01*
G01*
X218186000Y14097000D02*
X217678000Y13589000D01*
X217678000Y13589000D02*
X216916000Y13081000D01*
X216916000Y13081000D02*
X216027000Y12827000D01*
X216027000Y12827000D02*
X215138000Y12827000D01*
X215138000Y12827000D02*
X214376000Y13081000D01*
X214376000Y13081000D02*
X213741000Y13462000D01*
X213741000Y13462000D02*
X213106000Y14097000D01*
X213106000Y14097000D02*
X212725000Y14732000D01*
X212725000Y14732000D02*
X212598000Y14986000D01*
X218186000Y17907000D02*
X217551000Y18542000D01*
X217551000Y18542000D02*
X216535000Y19050000D01*
X216535000Y19050000D02*
X215773000Y19177000D01*
X215773000Y19177000D02*
X214757000Y19050000D01*
X214757000Y19050000D02*
X213868000Y18669000D01*
X213868000Y18669000D02*
X213106000Y17907000D01*
X213106000Y17907000D02*
X212598000Y17018000D01*
X218186000Y15113000D02*
X218186000Y14097000D01*
X218186000Y17907000D02*
X218186000Y17018000D01*
X164922200Y-49149000D02*
G75*
G03X162636200Y-49149000I-1143000J-1143000D01*
G01*
X162636200Y-51308000D02*
G75*
G03X164795200Y-51435000I1143000J1016000D01*
G01*
X162763200Y-52197000D02*
G75*
G03X165684200Y-51308000I1016000J1905000D01*
G01*
X161747200Y-51054000D02*
G75*
G03X164541200Y-52324000I2032000J762000D01*
G01*
X164541200Y-48260000D02*
G75*
G03X161747200Y-49530000I-762000J-2032000D01*
G01*
X165684200Y-49276000D02*
G75*
G03X162763200Y-48387000I-1905000J-1016000D01*
G01*
X162255200Y-51816000D02*
G75*
G03X165303200Y-51816000I1524000J1524000D01*
G01*
X165303200Y-48768000D02*
G75*
G03X162255200Y-48768000I-1524000J-1524000D01*
G01*
X166319200Y-52197000D02*
X165811200Y-52705000D01*
X165811200Y-52705000D02*
X165049200Y-53213000D01*
X165049200Y-53213000D02*
X164160200Y-53467000D01*
X164160200Y-53467000D02*
X163271200Y-53467000D01*
X163271200Y-53467000D02*
X162509200Y-53213000D01*
X162509200Y-53213000D02*
X161874200Y-52832000D01*
X161874200Y-52832000D02*
X161239200Y-52197000D01*
X161239200Y-52197000D02*
X160858200Y-51562000D01*
X160858200Y-51562000D02*
X160731200Y-51308000D01*
X166319200Y-48387000D02*
X165684200Y-47752000D01*
X165684200Y-47752000D02*
X164668200Y-47244000D01*
X164668200Y-47244000D02*
X163906200Y-47117000D01*
X163906200Y-47117000D02*
X162890200Y-47244000D01*
X162890200Y-47244000D02*
X162001200Y-47625000D01*
X162001200Y-47625000D02*
X161239200Y-48387000D01*
X161239200Y-48387000D02*
X160731200Y-49276000D01*
X166319200Y-51181000D02*
X166319200Y-52197000D01*
X166319200Y-48387000D02*
X166319200Y-49276000D01*
X217373200Y-40614600D02*
G75*
G03X215087200Y-40614600I-1143000J-1143000D01*
G01*
X215087200Y-42773600D02*
G75*
G03X217246200Y-42900600I1143000J1016000D01*
G01*
X215214200Y-43662600D02*
G75*
G03X218135200Y-42773600I1016000J1905000D01*
G01*
X214198200Y-42519600D02*
G75*
G03X216992200Y-43789600I2032000J762000D01*
G01*
X216992200Y-39725600D02*
G75*
G03X214198200Y-40995600I-762000J-2032000D01*
G01*
X218135200Y-40741600D02*
G75*
G03X215214200Y-39852600I-1905000J-1016000D01*
G01*
X214706200Y-43281600D02*
G75*
G03X217754200Y-43281600I1524000J1524000D01*
G01*
X217754200Y-40233600D02*
G75*
G03X214706200Y-40233600I-1524000J-1524000D01*
G01*
X218770200Y-43662600D02*
X218262200Y-44170600D01*
X218262200Y-44170600D02*
X217500200Y-44678600D01*
X217500200Y-44678600D02*
X216611200Y-44932600D01*
X216611200Y-44932600D02*
X215722200Y-44932600D01*
X215722200Y-44932600D02*
X214960200Y-44678600D01*
X214960200Y-44678600D02*
X214325200Y-44297600D01*
X214325200Y-44297600D02*
X213690200Y-43662600D01*
X213690200Y-43662600D02*
X213309200Y-43027600D01*
X213309200Y-43027600D02*
X213182200Y-42773600D01*
X218770200Y-39852600D02*
X218135200Y-39217600D01*
X218135200Y-39217600D02*
X217119200Y-38709600D01*
X217119200Y-38709600D02*
X216357200Y-38582600D01*
X216357200Y-38582600D02*
X215341200Y-38709600D01*
X215341200Y-38709600D02*
X214452200Y-39090600D01*
X214452200Y-39090600D02*
X213690200Y-39852600D01*
X213690200Y-39852600D02*
X213182200Y-40741600D01*
X218770200Y-42646600D02*
X218770200Y-43662600D01*
X218770200Y-39852600D02*
X218770200Y-40741600D01*
X170561000Y80568800D02*
X165481000Y80568800D01*
X165481000Y80568800D02*
X165481000Y83108800D01*
X165481000Y83108800D02*
X170561000Y83108800D01*
X170561000Y83108800D02*
X170561000Y80568800D01*
X170561000Y81838800D02*
X171831000Y81838800D01*
X165481000Y81838800D02*
X164211000Y81838800D01*
X155321000Y25349200D02*
X160401000Y25349200D01*
X160401000Y25349200D02*
X160401000Y22809200D01*
X160401000Y22809200D02*
X155321000Y22809200D01*
X155321000Y22809200D02*
X155321000Y25349200D01*
X155321000Y24079200D02*
X154051000Y24079200D01*
X160401000Y24079200D02*
X161671000Y24079200D01*
X109194600Y55219600D02*
X109194600Y60299600D01*
X109194600Y60299600D02*
X111734600Y60299600D01*
X111734600Y60299600D02*
X111734600Y55219600D01*
X111734600Y55219600D02*
X109194600Y55219600D01*
X110464600Y55219600D02*
X110464600Y53949600D01*
X110464600Y60299600D02*
X110464600Y61569600D01*
X272542000Y34798000D02*
X272542000Y29718000D01*
X272542000Y29718000D02*
X270002000Y29718000D01*
X270002000Y29718000D02*
X270002000Y34798000D01*
X270002000Y34798000D02*
X272542000Y34798000D01*
X271272000Y34798000D02*
X271272000Y36068000D01*
X271272000Y29718000D02*
X271272000Y28448000D01*
X212623400Y57912000D02*
X212623400Y62992000D01*
X212623400Y62992000D02*
X215163400Y62992000D01*
X215163400Y62992000D02*
X215163400Y57912000D01*
X215163400Y57912000D02*
X212623400Y57912000D01*
X213893400Y57912000D02*
X213893400Y56642000D01*
X213893400Y62992000D02*
X213893400Y64262000D01*
X269748000Y56388000D02*
X269748000Y61468000D01*
X269748000Y61468000D02*
X272288000Y61468000D01*
X272288000Y61468000D02*
X272288000Y56388000D01*
X272288000Y56388000D02*
X269748000Y56388000D01*
X271018000Y56388000D02*
X271018000Y55118000D01*
X271018000Y61468000D02*
X271018000Y62738000D01*
X111683800Y35915600D02*
X111683800Y30835600D01*
X111683800Y30835600D02*
X109143800Y30835600D01*
X109143800Y30835600D02*
X109143800Y35915600D01*
X109143800Y35915600D02*
X111683800Y35915600D01*
X110413800Y35915600D02*
X110413800Y37185600D01*
X110413800Y30835600D02*
X110413800Y29565600D01*
X271856200Y-24587200D02*
X271856200Y-29667200D01*
X271856200Y-29667200D02*
X269316200Y-29667200D01*
X269316200Y-29667200D02*
X269316200Y-24587200D01*
X269316200Y-24587200D02*
X271856200Y-24587200D01*
X270586200Y-24587200D02*
X270586200Y-23317200D01*
X270586200Y-29667200D02*
X270586200Y-30937200D01*
X111785400Y-24231600D02*
X111785400Y-29311600D01*
X111785400Y-29311600D02*
X109245400Y-29311600D01*
X109245400Y-29311600D02*
X109245400Y-24231600D01*
X109245400Y-24231600D02*
X111785400Y-24231600D01*
X110515400Y-24231600D02*
X110515400Y-22961600D01*
X110515400Y-29311600D02*
X110515400Y-30581600D01*
X272237200Y-84582000D02*
X272237200Y-89662000D01*
X272237200Y-89662000D02*
X269697200Y-89662000D01*
X269697200Y-89662000D02*
X269697200Y-84582000D01*
X269697200Y-84582000D02*
X272237200Y-84582000D01*
X270967200Y-84582000D02*
X270967200Y-83312000D01*
X270967200Y-89662000D02*
X270967200Y-90932000D01*
X111633000Y-83693000D02*
X111633000Y-88773000D01*
X111633000Y-88773000D02*
X109093000Y-88773000D01*
X109093000Y-88773000D02*
X109093000Y-83693000D01*
X109093000Y-83693000D02*
X111633000Y-83693000D01*
X110363000Y-83693000D02*
X110363000Y-82423000D01*
X110363000Y-88773000D02*
X110363000Y-90043000D01*
X215900000Y-85369400D02*
X215900000Y-90449400D01*
X215900000Y-90449400D02*
X213360000Y-90449400D01*
X213360000Y-90449400D02*
X213360000Y-85369400D01*
X213360000Y-85369400D02*
X215900000Y-85369400D01*
X214630000Y-85369400D02*
X214630000Y-84099400D01*
X214630000Y-90449400D02*
X214630000Y-91719400D01*
X164414200Y-86182200D02*
X164414200Y-91262200D01*
X164414200Y-91262200D02*
X161874200Y-91262200D01*
X161874200Y-91262200D02*
X161874200Y-86182200D01*
X161874200Y-86182200D02*
X164414200Y-86182200D01*
X163144200Y-86182200D02*
X163144200Y-84912200D01*
X163144200Y-91262200D02*
X163144200Y-92532200D01*
X206832200Y26390600D02*
X211912200Y26390600D01*
X211912200Y26390600D02*
X211912200Y23850600D01*
X211912200Y23850600D02*
X206832200Y23850600D01*
X206832200Y23850600D02*
X206832200Y26390600D01*
X206832200Y25120600D02*
X205562200Y25120600D01*
X211912200Y25120600D02*
X213182200Y25120600D01*
X161290000Y-65786000D02*
X161290000Y-60706000D01*
X161290000Y-60706000D02*
X163830000Y-60706000D01*
X163830000Y-60706000D02*
X163830000Y-65786000D01*
X163830000Y-65786000D02*
X161290000Y-65786000D01*
X162560000Y-65786000D02*
X162560000Y-67056000D01*
X162560000Y-60706000D02*
X162560000Y-59436000D01*
X213791800Y-63271400D02*
X213791800Y-58191400D01*
X213791800Y-58191400D02*
X216331800Y-58191400D01*
X216331800Y-58191400D02*
X216331800Y-63271400D01*
X216331800Y-63271400D02*
X213791800Y-63271400D01*
X215061800Y-63271400D02*
X215061800Y-64541400D01*
X215061800Y-58191400D02*
X215061800Y-56921400D01*
X191262000Y46532800D02*
X191262000Y41452800D01*
X191262000Y41452800D02*
X188722000Y41452800D01*
X188722000Y41452800D02*
X188722000Y46532800D01*
X188722000Y46532800D02*
X191262000Y46532800D01*
X189992000Y46532800D02*
X189992000Y47802800D01*
X189992000Y41452800D02*
X189992000Y40182800D01*
X184683400Y46532800D02*
X184683400Y41452800D01*
X184683400Y41452800D02*
X182143400Y41452800D01*
X182143400Y41452800D02*
X182143400Y46532800D01*
X182143400Y46532800D02*
X184683400Y46532800D01*
X183413400Y46532800D02*
X183413400Y47802800D01*
X183413400Y41452800D02*
X183413400Y40182800D01*
X178028600Y46405800D02*
X178028600Y41325800D01*
X178028600Y41325800D02*
X175488600Y41325800D01*
X175488600Y41325800D02*
X175488600Y46405800D01*
X175488600Y46405800D02*
X178028600Y46405800D01*
X176758600Y46405800D02*
X176758600Y47675800D01*
X176758600Y41325800D02*
X176758600Y40055800D01*
X171424600Y46532800D02*
X171424600Y41452800D01*
X171424600Y41452800D02*
X168884600Y41452800D01*
X168884600Y41452800D02*
X168884600Y46532800D01*
X168884600Y46532800D02*
X171424600Y46532800D01*
X170154600Y46532800D02*
X170154600Y47802800D01*
X170154600Y41452800D02*
X170154600Y40182800D01*
X161493200Y46228000D02*
X161493200Y41148000D01*
X161493200Y41148000D02*
X158953200Y41148000D01*
X158953200Y41148000D02*
X158953200Y46228000D01*
X158953200Y46228000D02*
X161493200Y46228000D01*
X160223200Y46228000D02*
X160223200Y47498000D01*
X160223200Y41148000D02*
X160223200Y39878000D01*
X155194000Y46228000D02*
X155194000Y41148000D01*
X155194000Y41148000D02*
X152654000Y41148000D01*
X152654000Y41148000D02*
X152654000Y46228000D01*
X152654000Y46228000D02*
X155194000Y46228000D01*
X153924000Y46228000D02*
X153924000Y47498000D01*
X153924000Y41148000D02*
X153924000Y39878000D01*
X148920200Y46278800D02*
X148920200Y41198800D01*
X148920200Y41198800D02*
X146380200Y41198800D01*
X146380200Y41198800D02*
X146380200Y46278800D01*
X146380200Y46278800D02*
X148920200Y46278800D01*
X147650200Y46278800D02*
X147650200Y47548800D01*
X147650200Y41198800D02*
X147650200Y39928800D01*
X142671800Y46304200D02*
X142671800Y41224200D01*
X142671800Y41224200D02*
X140131800Y41224200D01*
X140131800Y41224200D02*
X140131800Y46304200D01*
X140131800Y46304200D02*
X142671800Y46304200D01*
X141401800Y46304200D02*
X141401800Y47574200D01*
X141401800Y41224200D02*
X141401800Y39954200D01*
X187960000Y46532800D02*
X187960000Y41452800D01*
X187960000Y41452800D02*
X185420000Y41452800D01*
X185420000Y41452800D02*
X185420000Y46532800D01*
X185420000Y46532800D02*
X187960000Y46532800D01*
X186690000Y46532800D02*
X186690000Y47802800D01*
X186690000Y41452800D02*
X186690000Y40182800D01*
X194437000Y46431200D02*
X194437000Y41351200D01*
X194437000Y41351200D02*
X191897000Y41351200D01*
X191897000Y41351200D02*
X191897000Y46431200D01*
X191897000Y46431200D02*
X194437000Y46431200D01*
X193167000Y46431200D02*
X193167000Y47701200D01*
X193167000Y41351200D02*
X193167000Y40081200D01*
X181305200Y46431200D02*
X181305200Y41351200D01*
X181305200Y41351200D02*
X178765200Y41351200D01*
X178765200Y41351200D02*
X178765200Y46431200D01*
X178765200Y46431200D02*
X181305200Y46431200D01*
X180035200Y46431200D02*
X180035200Y47701200D01*
X180035200Y41351200D02*
X180035200Y40081200D01*
X174726600Y46482000D02*
X174726600Y41402000D01*
X174726600Y41402000D02*
X172186600Y41402000D01*
X172186600Y41402000D02*
X172186600Y46482000D01*
X172186600Y46482000D02*
X174726600Y46482000D01*
X173456600Y46482000D02*
X173456600Y47752000D01*
X173456600Y41402000D02*
X173456600Y40132000D01*
X164693600Y46228000D02*
X164693600Y41148000D01*
X164693600Y41148000D02*
X162153600Y41148000D01*
X162153600Y41148000D02*
X162153600Y46228000D01*
X162153600Y46228000D02*
X164693600Y46228000D01*
X163423600Y46228000D02*
X163423600Y47498000D01*
X163423600Y41148000D02*
X163423600Y39878000D01*
X158318200Y46228000D02*
X158318200Y41148000D01*
X158318200Y41148000D02*
X155778200Y41148000D01*
X155778200Y41148000D02*
X155778200Y46228000D01*
X155778200Y46228000D02*
X158318200Y46228000D01*
X157048200Y46228000D02*
X157048200Y47498000D01*
X157048200Y41148000D02*
X157048200Y39878000D01*
X152044400Y46228000D02*
X152044400Y41148000D01*
X152044400Y41148000D02*
X149504400Y41148000D01*
X149504400Y41148000D02*
X149504400Y46228000D01*
X149504400Y46228000D02*
X152044400Y46228000D01*
X150774400Y46228000D02*
X150774400Y47498000D01*
X150774400Y41148000D02*
X150774400Y39878000D01*
X145821400Y46278800D02*
X145821400Y41198800D01*
X145821400Y41198800D02*
X143281400Y41198800D01*
X143281400Y41198800D02*
X143281400Y46278800D01*
X143281400Y46278800D02*
X145821400Y46278800D01*
X144551400Y46278800D02*
X144551400Y47548800D01*
X144551400Y41198800D02*
X144551400Y39928800D01*
X283718000Y41071800D02*
X283718000Y35991800D01*
X283718000Y35991800D02*
X281178000Y35991800D01*
X281178000Y35991800D02*
X281178000Y41071800D01*
X281178000Y41071800D02*
X283718000Y41071800D01*
X282448000Y41071800D02*
X282448000Y42341800D01*
X282448000Y35991800D02*
X282448000Y34721800D01*
X181940200Y-23164800D02*
X191287400Y-23164800D01*
X191287400Y-23164800D02*
X191211200Y-22809200D01*
X191360748Y-24165560D02*
G75*
G03X191360748Y-24165560I-4757108J0D01*
G01*
X194589400Y-23088600D02*
X203936600Y-23088600D01*
X203936600Y-23088600D02*
X203860400Y-22733000D01*
X204009948Y-24089360D02*
G75*
G03X204009948Y-24089360I-4757108J0D01*
G01*
X207391000Y-23139400D02*
X216738200Y-23139400D01*
X216738200Y-23139400D02*
X216662000Y-22783800D01*
X216811548Y-24140160D02*
G75*
G03X216811548Y-24140160I-4757108J0D01*
G01*
X239496600Y-46761400D02*
X239496600Y-42951400D01*
X238701851Y-44856400D02*
G75*
G03X238701851Y-44856400I-1796051J0D01*
G01*
X239443797Y-42948732D02*
G75*
G03X239445800Y-46761400I-2537997J-1907668D01*
G01*
X236905800Y-43713400D02*
G75*
G03X235762800Y-44856400I0J-1143000D01*
G01*
X236905800Y-45999400D02*
G75*
G03X238048800Y-44856400I0J1143000D01*
G01*
X236905800Y-43205400D02*
G75*
G03X235254800Y-44856400I0J-1651000D01*
G01*
X236905800Y-46507400D02*
G75*
G03X238556800Y-44856400I0J1651000D01*
G01*
X236905800Y-42697400D02*
G75*
G03X234746800Y-44856400I0J-2159000D01*
G01*
X236905800Y-47015400D02*
G75*
G03X239064800Y-44856400I0J2159000D01*
G01*
X239496600Y-106095800D02*
X239496600Y-102285800D01*
X238701851Y-104190800D02*
G75*
G03X238701851Y-104190800I-1796051J0D01*
G01*
X239443797Y-102283132D02*
G75*
G03X239445800Y-106095800I-2537997J-1907668D01*
G01*
X236905800Y-103047800D02*
G75*
G03X235762800Y-104190800I0J-1143000D01*
G01*
X236905800Y-105333800D02*
G75*
G03X238048800Y-104190800I0J1143000D01*
G01*
X236905800Y-102539800D02*
G75*
G03X235254800Y-104190800I0J-1651000D01*
G01*
X236905800Y-105841800D02*
G75*
G03X238556800Y-104190800I0J1651000D01*
G01*
X236905800Y-102031800D02*
G75*
G03X234746800Y-104190800I0J-2159000D01*
G01*
X236905800Y-106349800D02*
G75*
G03X239064800Y-104190800I0J2159000D01*
G01*
X187579000Y-47777400D02*
X187579000Y-43967400D01*
X186784251Y-45872400D02*
G75*
G03X186784251Y-45872400I-1796051J0D01*
G01*
X187526197Y-43964732D02*
G75*
G03X187528200Y-47777400I-2537997J-1907668D01*
G01*
X184988200Y-44729400D02*
G75*
G03X183845200Y-45872400I0J-1143000D01*
G01*
X184988200Y-47015400D02*
G75*
G03X186131200Y-45872400I0J1143000D01*
G01*
X184988200Y-44221400D02*
G75*
G03X183337200Y-45872400I0J-1651000D01*
G01*
X184988200Y-47523400D02*
G75*
G03X186639200Y-45872400I0J1651000D01*
G01*
X184988200Y-43713400D02*
G75*
G03X182829200Y-45872400I0J-2159000D01*
G01*
X184988200Y-48031400D02*
G75*
G03X187147200Y-45872400I0J2159000D01*
G01*
X187756800Y-107086400D02*
X187756800Y-103276400D01*
X186962051Y-105181400D02*
G75*
G03X186962051Y-105181400I-1796051J0D01*
G01*
X187703997Y-103273732D02*
G75*
G03X187706000Y-107086400I-2537997J-1907668D01*
G01*
X185166000Y-104038400D02*
G75*
G03X184023000Y-105181400I0J-1143000D01*
G01*
X185166000Y-106324400D02*
G75*
G03X186309000Y-105181400I0J1143000D01*
G01*
X185166000Y-103530400D02*
G75*
G03X183515000Y-105181400I0J-1651000D01*
G01*
X185166000Y-106832400D02*
G75*
G03X186817000Y-105181400I0J1651000D01*
G01*
X185166000Y-103022400D02*
G75*
G03X183007000Y-105181400I0J-2159000D01*
G01*
X185166000Y-107340400D02*
G75*
G03X187325000Y-105181400I0J2159000D01*
G01*
X295681400Y-105156000D02*
X295681400Y-101346000D01*
X294886651Y-103251000D02*
G75*
G03X294886651Y-103251000I-1796051J0D01*
G01*
X295628597Y-101343332D02*
G75*
G03X295630600Y-105156000I-2537997J-1907668D01*
G01*
X293090600Y-102108000D02*
G75*
G03X291947600Y-103251000I0J-1143000D01*
G01*
X293090600Y-104394000D02*
G75*
G03X294233600Y-103251000I0J1143000D01*
G01*
X293090600Y-101600000D02*
G75*
G03X291439600Y-103251000I0J-1651000D01*
G01*
X293090600Y-104902000D02*
G75*
G03X294741600Y-103251000I0J1651000D01*
G01*
X293090600Y-101092000D02*
G75*
G03X290931600Y-103251000I0J-2159000D01*
G01*
X293090600Y-105410000D02*
G75*
G03X295249600Y-103251000I0J2159000D01*
G01*
X135788400Y-104063800D02*
X135788400Y-100253800D01*
X134993651Y-102158800D02*
G75*
G03X134993651Y-102158800I-1796051J0D01*
G01*
X135735597Y-100251132D02*
G75*
G03X135737600Y-104063800I-2537997J-1907668D01*
G01*
X133197600Y-101015800D02*
G75*
G03X132054600Y-102158800I0J-1143000D01*
G01*
X133197600Y-103301800D02*
G75*
G03X134340600Y-102158800I0J1143000D01*
G01*
X133197600Y-100507800D02*
G75*
G03X131546600Y-102158800I0J-1651000D01*
G01*
X133197600Y-103809800D02*
G75*
G03X134848600Y-102158800I0J1651000D01*
G01*
X133197600Y-99999800D02*
G75*
G03X131038600Y-102158800I0J-2159000D01*
G01*
X133197600Y-104317800D02*
G75*
G03X135356600Y-102158800I0J2159000D01*
G01*
X295275000Y-45821600D02*
X295275000Y-42011600D01*
X294480251Y-43916600D02*
G75*
G03X294480251Y-43916600I-1796051J0D01*
G01*
X295222197Y-42008932D02*
G75*
G03X295224200Y-45821600I-2537997J-1907668D01*
G01*
X292684200Y-42773600D02*
G75*
G03X291541200Y-43916600I0J-1143000D01*
G01*
X292684200Y-45059600D02*
G75*
G03X293827200Y-43916600I0J1143000D01*
G01*
X292684200Y-42265600D02*
G75*
G03X291033200Y-43916600I0J-1651000D01*
G01*
X292684200Y-45567600D02*
G75*
G03X294335200Y-43916600I0J1651000D01*
G01*
X292684200Y-41757600D02*
G75*
G03X290525200Y-43916600I0J-2159000D01*
G01*
X292684200Y-46075600D02*
G75*
G03X294843200Y-43916600I0J2159000D01*
G01*
X135839200Y-44881800D02*
X135839200Y-41071800D01*
X135044451Y-42976800D02*
G75*
G03X135044451Y-42976800I-1796051J0D01*
G01*
X135786397Y-41069132D02*
G75*
G03X135788400Y-44881800I-2537997J-1907668D01*
G01*
X133248400Y-41833800D02*
G75*
G03X132105400Y-42976800I0J-1143000D01*
G01*
X133248400Y-44119800D02*
G75*
G03X134391400Y-42976800I0J1143000D01*
G01*
X133248400Y-41325800D02*
G75*
G03X131597400Y-42976800I0J-1651000D01*
G01*
X133248400Y-44627800D02*
G75*
G03X134899400Y-42976800I0J1651000D01*
G01*
X133248400Y-40817800D02*
G75*
G03X131089400Y-42976800I0J-2159000D01*
G01*
X133248400Y-45135800D02*
G75*
G03X135407400Y-42976800I0J2159000D01*
G01*
X295275000Y13512800D02*
X295275000Y17322800D01*
X294480251Y15417800D02*
G75*
G03X294480251Y15417800I-1796051J0D01*
G01*
X295222197Y17325468D02*
G75*
G03X295224200Y13512800I-2537997J-1907668D01*
G01*
X292684200Y16560800D02*
G75*
G03X291541200Y15417800I0J-1143000D01*
G01*
X292684200Y14274800D02*
G75*
G03X293827200Y15417800I0J1143000D01*
G01*
X292684200Y17068800D02*
G75*
G03X291033200Y15417800I0J-1651000D01*
G01*
X292684200Y13766800D02*
G75*
G03X294335200Y15417800I0J1651000D01*
G01*
X292684200Y17576800D02*
G75*
G03X290525200Y15417800I0J-2159000D01*
G01*
X292684200Y13258800D02*
G75*
G03X294843200Y15417800I0J2159000D01*
G01*
X135686800Y14376400D02*
X135686800Y18186400D01*
X134892051Y16281400D02*
G75*
G03X134892051Y16281400I-1796051J0D01*
G01*
X135633997Y18189068D02*
G75*
G03X135636000Y14376400I-2537997J-1907668D01*
G01*
X133096000Y17424400D02*
G75*
G03X131953000Y16281400I0J-1143000D01*
G01*
X133096000Y15138400D02*
G75*
G03X134239000Y16281400I0J1143000D01*
G01*
X133096000Y17932400D02*
G75*
G03X131445000Y16281400I0J-1651000D01*
G01*
X133096000Y14630400D02*
G75*
G03X134747000Y16281400I0J1651000D01*
G01*
X133096000Y18440400D02*
G75*
G03X130937000Y16281400I0J-2159000D01*
G01*
X133096000Y14122400D02*
G75*
G03X135255000Y16281400I0J2159000D01*
G01*
X239395000Y12293600D02*
X239395000Y16103600D01*
X238600251Y14198600D02*
G75*
G03X238600251Y14198600I-1796051J0D01*
G01*
X239342197Y16106268D02*
G75*
G03X239344200Y12293600I-2537997J-1907668D01*
G01*
X236804200Y15341600D02*
G75*
G03X235661200Y14198600I0J-1143000D01*
G01*
X236804200Y13055600D02*
G75*
G03X237947200Y14198600I0J1143000D01*
G01*
X236804200Y15849600D02*
G75*
G03X235153200Y14198600I0J-1651000D01*
G01*
X236804200Y12547600D02*
G75*
G03X238455200Y14198600I0J1651000D01*
G01*
X236804200Y16357600D02*
G75*
G03X234645200Y14198600I0J-2159000D01*
G01*
X236804200Y12039600D02*
G75*
G03X238963200Y14198600I0J2159000D01*
G01*
X135890000Y73406000D02*
X135890000Y77216000D01*
X135095251Y75311000D02*
G75*
G03X135095251Y75311000I-1796051J0D01*
G01*
X135837197Y77218668D02*
G75*
G03X135839200Y73406000I-2537997J-1907668D01*
G01*
X133299200Y76454000D02*
G75*
G03X132156200Y75311000I0J-1143000D01*
G01*
X133299200Y74168000D02*
G75*
G03X134442200Y75311000I0J1143000D01*
G01*
X133299200Y76962000D02*
G75*
G03X131648200Y75311000I0J-1651000D01*
G01*
X133299200Y73660000D02*
G75*
G03X134950200Y75311000I0J1651000D01*
G01*
X133299200Y77470000D02*
G75*
G03X131140200Y75311000I0J-2159000D01*
G01*
X133299200Y73152000D02*
G75*
G03X135458200Y75311000I0J2159000D01*
G01*
X295351200Y72923400D02*
X295351200Y76733400D01*
X294556451Y74828400D02*
G75*
G03X294556451Y74828400I-1796051J0D01*
G01*
X295298397Y76736068D02*
G75*
G03X295300400Y72923400I-2537997J-1907668D01*
G01*
X292760400Y75971400D02*
G75*
G03X291617400Y74828400I0J-1143000D01*
G01*
X292760400Y73685400D02*
G75*
G03X293903400Y74828400I0J1143000D01*
G01*
X292760400Y76479400D02*
G75*
G03X291109400Y74828400I0J-1651000D01*
G01*
X292760400Y73177400D02*
G75*
G03X294411400Y74828400I0J1651000D01*
G01*
X292760400Y76987400D02*
G75*
G03X290601400Y74828400I0J-2159000D01*
G01*
X292760400Y72669400D02*
G75*
G03X294919400Y74828400I0J2159000D01*
G01*
X187706000Y70764400D02*
X187706000Y74574400D01*
X186911251Y72669400D02*
G75*
G03X186911251Y72669400I-1796051J0D01*
G01*
X187653197Y74577068D02*
G75*
G03X187655200Y70764400I-2537997J-1907668D01*
G01*
X185115200Y73812400D02*
G75*
G03X183972200Y72669400I0J-1143000D01*
G01*
X185115200Y71526400D02*
G75*
G03X186258200Y72669400I0J1143000D01*
G01*
X185115200Y74320400D02*
G75*
G03X183464200Y72669400I0J-1651000D01*
G01*
X185115200Y71018400D02*
G75*
G03X186766200Y72669400I0J1651000D01*
G01*
X185115200Y74828400D02*
G75*
G03X182956200Y72669400I0J-2159000D01*
G01*
X185115200Y70510400D02*
G75*
G03X187274200Y72669400I0J2159000D01*
G01*
X187528200Y11480800D02*
X187528200Y15290800D01*
X186733451Y13385800D02*
G75*
G03X186733451Y13385800I-1796051J0D01*
G01*
X187475397Y15293468D02*
G75*
G03X187477400Y11480800I-2537997J-1907668D01*
G01*
X184937400Y14528800D02*
G75*
G03X183794400Y13385800I0J-1143000D01*
G01*
X184937400Y12242800D02*
G75*
G03X186080400Y13385800I0J1143000D01*
G01*
X184937400Y15036800D02*
G75*
G03X183286400Y13385800I0J-1651000D01*
G01*
X184937400Y11734800D02*
G75*
G03X186588400Y13385800I0J1651000D01*
G01*
X184937400Y15544800D02*
G75*
G03X182778400Y13385800I0J-2159000D01*
G01*
X184937400Y11226800D02*
G75*
G03X187096400Y13385800I0J2159000D01*
G01*
X239725200Y71374000D02*
X239725200Y75184000D01*
X238930451Y73279000D02*
G75*
G03X238930451Y73279000I-1796051J0D01*
G01*
X239672397Y75186668D02*
G75*
G03X239674400Y71374000I-2537997J-1907668D01*
G01*
X237134400Y74422000D02*
G75*
G03X235991400Y73279000I0J-1143000D01*
G01*
X237134400Y72136000D02*
G75*
G03X238277400Y73279000I0J1143000D01*
G01*
X237134400Y74930000D02*
G75*
G03X235483400Y73279000I0J-1651000D01*
G01*
X237134400Y71628000D02*
G75*
G03X238785400Y73279000I0J1651000D01*
G01*
X237134400Y75438000D02*
G75*
G03X234975400Y73279000I0J-2159000D01*
G01*
X237134400Y71120000D02*
G75*
G03X239293400Y73279000I0J2159000D01*
G01*
X236702600Y-31343600D02*
X236702600Y-36423600D01*
X236702600Y-36423600D02*
X234162600Y-36423600D01*
X234162600Y-36423600D02*
X234162600Y-31343600D01*
X234162600Y-31343600D02*
X236702600Y-31343600D01*
X235432600Y-31343600D02*
X235432600Y-30073600D01*
X235432600Y-36423600D02*
X235432600Y-37693600D01*
X231825800Y-96367600D02*
X231825800Y-101447600D01*
X231825800Y-101447600D02*
X229285800Y-101447600D01*
X229285800Y-101447600D02*
X229285800Y-96367600D01*
X229285800Y-96367600D02*
X231825800Y-96367600D01*
X230555800Y-96367600D02*
X230555800Y-95097600D01*
X230555800Y-101447600D02*
X230555800Y-102717600D01*
X179781200Y-38277800D02*
X179781200Y-43357800D01*
X179781200Y-43357800D02*
X177241200Y-43357800D01*
X177241200Y-43357800D02*
X177241200Y-38277800D01*
X177241200Y-38277800D02*
X179781200Y-38277800D01*
X178511200Y-38277800D02*
X178511200Y-37007800D01*
X178511200Y-43357800D02*
X178511200Y-44627800D01*
X183210200Y-91135200D02*
X183210200Y-96215200D01*
X183210200Y-96215200D02*
X180670200Y-96215200D01*
X180670200Y-96215200D02*
X180670200Y-91135200D01*
X180670200Y-91135200D02*
X183210200Y-91135200D01*
X181940200Y-91135200D02*
X181940200Y-89865200D01*
X181940200Y-96215200D02*
X181940200Y-97485200D01*
X292887400Y-88315800D02*
X292887400Y-93395800D01*
X292887400Y-93395800D02*
X290347400Y-93395800D01*
X290347400Y-93395800D02*
X290347400Y-88315800D01*
X290347400Y-88315800D02*
X292887400Y-88315800D01*
X291617400Y-88315800D02*
X291617400Y-87045800D01*
X291617400Y-93395800D02*
X291617400Y-94665800D01*
X132969000Y-88265000D02*
X132969000Y-93345000D01*
X132969000Y-93345000D02*
X130429000Y-93345000D01*
X130429000Y-93345000D02*
X130429000Y-88265000D01*
X130429000Y-88265000D02*
X132969000Y-88265000D01*
X131699000Y-88265000D02*
X131699000Y-86995000D01*
X131699000Y-93345000D02*
X131699000Y-94615000D01*
X292684200Y-29794200D02*
X292684200Y-34874200D01*
X292684200Y-34874200D02*
X290144200Y-34874200D01*
X290144200Y-34874200D02*
X290144200Y-29794200D01*
X290144200Y-29794200D02*
X292684200Y-29794200D01*
X291414200Y-29794200D02*
X291414200Y-28524200D01*
X291414200Y-34874200D02*
X291414200Y-36144200D01*
X139344400Y-50215800D02*
X134264400Y-50215800D01*
X134264400Y-50215800D02*
X134264400Y-47675800D01*
X134264400Y-47675800D02*
X139344400Y-47675800D01*
X139344400Y-47675800D02*
X139344400Y-50215800D01*
X139344400Y-48945800D02*
X140614400Y-48945800D01*
X134264400Y-48945800D02*
X132994400Y-48945800D01*
X289941000Y1295400D02*
X289941000Y6375400D01*
X289941000Y6375400D02*
X292481000Y6375400D01*
X292481000Y6375400D02*
X292481000Y1295400D01*
X292481000Y1295400D02*
X289941000Y1295400D01*
X291211000Y1295400D02*
X291211000Y25400D01*
X291211000Y6375400D02*
X291211000Y7645400D01*
X130225800Y3302000D02*
X130225800Y8382000D01*
X130225800Y8382000D02*
X132765800Y8382000D01*
X132765800Y8382000D02*
X132765800Y3302000D01*
X132765800Y3302000D02*
X130225800Y3302000D01*
X131495800Y3302000D02*
X131495800Y2032000D01*
X131495800Y8382000D02*
X131495800Y9652000D01*
X234442000Y-355600D02*
X234442000Y4724400D01*
X234442000Y4724400D02*
X236982000Y4724400D01*
X236982000Y4724400D02*
X236982000Y-355600D01*
X236982000Y-355600D02*
X234442000Y-355600D01*
X235712000Y-355600D02*
X235712000Y-1625600D01*
X235712000Y4724400D02*
X235712000Y5994400D01*
X130505200Y62357000D02*
X130505200Y67437000D01*
X130505200Y67437000D02*
X133045200Y67437000D01*
X133045200Y67437000D02*
X133045200Y62357000D01*
X133045200Y62357000D02*
X130505200Y62357000D01*
X131775200Y62357000D02*
X131775200Y61087000D01*
X131775200Y67437000D02*
X131775200Y68707000D01*
X285800800Y67208400D02*
X285800800Y72288400D01*
X285800800Y72288400D02*
X288340800Y72288400D01*
X288340800Y72288400D02*
X288340800Y67208400D01*
X288340800Y67208400D02*
X285800800Y67208400D01*
X287070800Y67208400D02*
X287070800Y65938400D01*
X287070800Y72288400D02*
X287070800Y73558400D01*
X191719200Y68910200D02*
X191719200Y73990200D01*
X191719200Y73990200D02*
X194259200Y73990200D01*
X194259200Y73990200D02*
X194259200Y68910200D01*
X194259200Y68910200D02*
X191719200Y68910200D01*
X192989200Y68910200D02*
X192989200Y67640200D01*
X192989200Y73990200D02*
X192989200Y75260200D01*
X178181000Y5918200D02*
X178181000Y10998200D01*
X178181000Y10998200D02*
X180721000Y10998200D01*
X180721000Y10998200D02*
X180721000Y5918200D01*
X180721000Y5918200D02*
X178181000Y5918200D01*
X179451000Y5918200D02*
X179451000Y4648200D01*
X179451000Y10998200D02*
X179451000Y12268200D01*
X230581200Y65659000D02*
X230581200Y70739000D01*
X230581200Y70739000D02*
X233121200Y70739000D01*
X233121200Y70739000D02*
X233121200Y65659000D01*
X233121200Y65659000D02*
X230581200Y65659000D01*
X231851200Y65659000D02*
X231851200Y64389000D01*
X231851200Y70739000D02*
X231851200Y72009000D01*
X110361553Y-36926781D02*
X109885362Y-36926781D01*
X109885362Y-35926781D01*
X110694886Y-36402971D02*
X111028220Y-36402971D01*
X111171077Y-36926781D02*
X110694886Y-36926781D01*
X110694886Y-35926781D01*
X111171077Y-35926781D01*
X111599648Y-36926781D02*
X111599648Y-35926781D01*
X111837743Y-35926781D01*
X111980601Y-35974400D01*
X112075839Y-36069638D01*
X112123458Y-36164876D01*
X112171077Y-36355352D01*
X112171077Y-36498210D01*
X112123458Y-36688686D01*
X112075839Y-36783924D01*
X111980601Y-36879162D01*
X111837743Y-36926781D01*
X111599648Y-36926781D01*
X112647267Y-36926781D02*
X112837743Y-36926781D01*
X112932982Y-36879162D01*
X112980601Y-36831543D01*
X113075839Y-36688686D01*
X113123458Y-36498210D01*
X113123458Y-36117257D01*
X113075839Y-36022019D01*
X113028220Y-35974400D01*
X112932982Y-35926781D01*
X112742505Y-35926781D01*
X112647267Y-35974400D01*
X112599648Y-36022019D01*
X112552029Y-36117257D01*
X112552029Y-36355352D01*
X112599648Y-36450590D01*
X112647267Y-36498210D01*
X112742505Y-36545829D01*
X112932982Y-36545829D01*
X113028220Y-36498210D01*
X113075839Y-36450590D01*
X113123458Y-36355352D01*
X292770821Y38142943D02*
X292294630Y37809609D01*
X292770821Y37571514D02*
X291770821Y37571514D01*
X291770821Y37952467D01*
X291818440Y38047705D01*
X291866059Y38095324D01*
X291961297Y38142943D01*
X292104154Y38142943D01*
X292199392Y38095324D01*
X292247011Y38047705D01*
X292294630Y37952467D01*
X292294630Y37571514D01*
X292770821Y38619133D02*
X292770821Y38809609D01*
X292723202Y38904848D01*
X292675583Y38952467D01*
X292532726Y39047705D01*
X292342250Y39095324D01*
X291961297Y39095324D01*
X291866059Y39047705D01*
X291818440Y39000086D01*
X291770821Y38904848D01*
X291770821Y38714371D01*
X291818440Y38619133D01*
X291866059Y38571514D01*
X291961297Y38523895D01*
X292199392Y38523895D01*
X292294630Y38571514D01*
X292342250Y38619133D01*
X292389869Y38714371D01*
X292389869Y38904848D01*
X292342250Y39000086D01*
X292294630Y39047705D01*
X292199392Y39095324D01*
X292199392Y39666752D02*
X292151773Y39571514D01*
X292104154Y39523895D01*
X292008916Y39476276D01*
X291961297Y39476276D01*
X291866059Y39523895D01*
X291818440Y39571514D01*
X291770821Y39666752D01*
X291770821Y39857229D01*
X291818440Y39952467D01*
X291866059Y40000086D01*
X291961297Y40047705D01*
X292008916Y40047705D01*
X292104154Y40000086D01*
X292151773Y39952467D01*
X292199392Y39857229D01*
X292199392Y39666752D01*
X292247011Y39571514D01*
X292294630Y39523895D01*
X292389869Y39476276D01*
X292580345Y39476276D01*
X292675583Y39523895D01*
X292723202Y39571514D01*
X292770821Y39666752D01*
X292770821Y39857229D01*
X292723202Y39952467D01*
X292675583Y40000086D01*
X292580345Y40047705D01*
X292389869Y40047705D01*
X292294630Y40000086D01*
X292247011Y39952467D01*
X292199392Y39857229D01*
D14*
X228781429Y-21444857D02*
X228999143Y-21517429D01*
X229362000Y-21517429D01*
X229507143Y-21444857D01*
X229579714Y-21372286D01*
X229652286Y-21227143D01*
X229652286Y-21082000D01*
X229579714Y-20936857D01*
X229507143Y-20864286D01*
X229362000Y-20791714D01*
X229071714Y-20719143D01*
X228926572Y-20646571D01*
X228854000Y-20574000D01*
X228781429Y-20428857D01*
X228781429Y-20283714D01*
X228854000Y-20138571D01*
X228926572Y-20066000D01*
X229071714Y-19993429D01*
X229434572Y-19993429D01*
X229652286Y-20066000D01*
X230305429Y-21517429D02*
X230305429Y-19993429D01*
X230305429Y-20719143D02*
X231176286Y-20719143D01*
X231176286Y-21517429D02*
X231176286Y-19993429D01*
X231902000Y-21517429D02*
X231902000Y-19993429D01*
X232627714Y-20719143D02*
X233135714Y-20719143D01*
X233353428Y-21517429D02*
X232627714Y-21517429D01*
X232627714Y-19993429D01*
X233353428Y-19993429D01*
X234732285Y-21517429D02*
X234006571Y-21517429D01*
X234006571Y-19993429D01*
X235240285Y-21517429D02*
X235240285Y-19993429D01*
X235603142Y-19993429D01*
X235820857Y-20066000D01*
X235965999Y-20211143D01*
X236038571Y-20356286D01*
X236111142Y-20646571D01*
X236111142Y-20864286D01*
X236038571Y-21154571D01*
X235965999Y-21299714D01*
X235820857Y-21444857D01*
X235603142Y-21517429D01*
X235240285Y-21517429D01*
X237562571Y-21517429D02*
X236691714Y-21517429D01*
X237127142Y-21517429D02*
X237127142Y-19993429D01*
X236981999Y-20211143D01*
X236836857Y-20356286D01*
X236691714Y-20428857D01*
D11*
X215434943Y-44709341D02*
X215101609Y-44233150D01*
X214863514Y-44709341D02*
X214863514Y-43709341D01*
X215244467Y-43709341D01*
X215339705Y-43756960D01*
X215387324Y-43804579D01*
X215434943Y-43899817D01*
X215434943Y-44042674D01*
X215387324Y-44137912D01*
X215339705Y-44185531D01*
X215244467Y-44233150D01*
X214863514Y-44233150D01*
X216292086Y-43709341D02*
X216101609Y-43709341D01*
X216006371Y-43756960D01*
X215958752Y-43804579D01*
X215863514Y-43947436D01*
X215815895Y-44137912D01*
X215815895Y-44518865D01*
X215863514Y-44614103D01*
X215911133Y-44661722D01*
X216006371Y-44709341D01*
X216196848Y-44709341D01*
X216292086Y-44661722D01*
X216339705Y-44614103D01*
X216387324Y-44518865D01*
X216387324Y-44280770D01*
X216339705Y-44185531D01*
X216292086Y-44137912D01*
X216196848Y-44090293D01*
X216006371Y-44090293D01*
X215911133Y-44137912D01*
X215863514Y-44185531D01*
X215815895Y-44280770D01*
X217244467Y-43709341D02*
X217053990Y-43709341D01*
X216958752Y-43756960D01*
X216911133Y-43804579D01*
X216815895Y-43947436D01*
X216768276Y-44137912D01*
X216768276Y-44518865D01*
X216815895Y-44614103D01*
X216863514Y-44661722D01*
X216958752Y-44709341D01*
X217149229Y-44709341D01*
X217244467Y-44661722D01*
X217292086Y-44614103D01*
X217339705Y-44518865D01*
X217339705Y-44280770D01*
X217292086Y-44185531D01*
X217244467Y-44137912D01*
X217149229Y-44090293D01*
X216958752Y-44090293D01*
X216863514Y-44137912D01*
X216815895Y-44185531D01*
X216768276Y-44280770D01*
X271873743Y-111897421D02*
X271540409Y-111421230D01*
X271302314Y-111897421D02*
X271302314Y-110897421D01*
X271683267Y-110897421D01*
X271778505Y-110945040D01*
X271826124Y-110992659D01*
X271873743Y-111087897D01*
X271873743Y-111230754D01*
X271826124Y-111325992D01*
X271778505Y-111373611D01*
X271683267Y-111421230D01*
X271302314Y-111421230D01*
X272730886Y-110897421D02*
X272540409Y-110897421D01*
X272445171Y-110945040D01*
X272397552Y-110992659D01*
X272302314Y-111135516D01*
X272254695Y-111325992D01*
X272254695Y-111706945D01*
X272302314Y-111802183D01*
X272349933Y-111849802D01*
X272445171Y-111897421D01*
X272635648Y-111897421D01*
X272730886Y-111849802D01*
X272778505Y-111802183D01*
X272826124Y-111706945D01*
X272826124Y-111468850D01*
X272778505Y-111373611D01*
X272730886Y-111325992D01*
X272635648Y-111278373D01*
X272445171Y-111278373D01*
X272349933Y-111325992D01*
X272302314Y-111373611D01*
X272254695Y-111468850D01*
X273397552Y-111325992D02*
X273302314Y-111278373D01*
X273254695Y-111230754D01*
X273207076Y-111135516D01*
X273207076Y-111087897D01*
X273254695Y-110992659D01*
X273302314Y-110945040D01*
X273397552Y-110897421D01*
X273588029Y-110897421D01*
X273683267Y-110945040D01*
X273730886Y-110992659D01*
X273778505Y-111087897D01*
X273778505Y-111135516D01*
X273730886Y-111230754D01*
X273683267Y-111278373D01*
X273588029Y-111325992D01*
X273397552Y-111325992D01*
X273302314Y-111373611D01*
X273254695Y-111421230D01*
X273207076Y-111516469D01*
X273207076Y-111706945D01*
X273254695Y-111802183D01*
X273302314Y-111849802D01*
X273397552Y-111897421D01*
X273588029Y-111897421D01*
X273683267Y-111849802D01*
X273730886Y-111802183D01*
X273778505Y-111706945D01*
X273778505Y-111516469D01*
X273730886Y-111421230D01*
X273683267Y-111373611D01*
X273588029Y-111325992D01*
X271873743Y7482579D02*
X271540409Y7958770D01*
X271302314Y7482579D02*
X271302314Y8482579D01*
X271683267Y8482579D01*
X271778505Y8434960D01*
X271826124Y8387341D01*
X271873743Y8292103D01*
X271873743Y8149246D01*
X271826124Y8054008D01*
X271778505Y8006389D01*
X271683267Y7958770D01*
X271302314Y7958770D01*
X272207076Y8482579D02*
X272873743Y8482579D01*
X272445171Y7482579D01*
X273445171Y8482579D02*
X273540410Y8482579D01*
X273635648Y8434960D01*
X273683267Y8387341D01*
X273730886Y8292103D01*
X273778505Y8101627D01*
X273778505Y7863531D01*
X273730886Y7673055D01*
X273683267Y7577817D01*
X273635648Y7530198D01*
X273540410Y7482579D01*
X273445171Y7482579D01*
X273349933Y7530198D01*
X273302314Y7577817D01*
X273254695Y7673055D01*
X273207076Y7863531D01*
X273207076Y8101627D01*
X273254695Y8292103D01*
X273302314Y8387341D01*
X273349933Y8434960D01*
X273445171Y8482579D01*
X214850743Y64734179D02*
X214517409Y65210370D01*
X214279314Y64734179D02*
X214279314Y65734179D01*
X214660267Y65734179D01*
X214755505Y65686560D01*
X214803124Y65638941D01*
X214850743Y65543703D01*
X214850743Y65400846D01*
X214803124Y65305608D01*
X214755505Y65257989D01*
X214660267Y65210370D01*
X214279314Y65210370D01*
X215184076Y65734179D02*
X215850743Y65734179D01*
X215422171Y64734179D01*
X216184076Y65638941D02*
X216231695Y65686560D01*
X216326933Y65734179D01*
X216565029Y65734179D01*
X216660267Y65686560D01*
X216707886Y65638941D01*
X216755505Y65543703D01*
X216755505Y65448465D01*
X216707886Y65305608D01*
X216136457Y64734179D01*
X216755505Y64734179D01*
X163618943Y79547459D02*
X163285609Y80023650D01*
X163047514Y79547459D02*
X163047514Y80547459D01*
X163428467Y80547459D01*
X163523705Y80499840D01*
X163571324Y80452221D01*
X163618943Y80356983D01*
X163618943Y80214126D01*
X163571324Y80118888D01*
X163523705Y80071269D01*
X163428467Y80023650D01*
X163047514Y80023650D01*
X163952276Y80547459D02*
X164618943Y80547459D01*
X164190371Y79547459D01*
X165428467Y80214126D02*
X165428467Y79547459D01*
X165190371Y80595078D02*
X164952276Y79880792D01*
X165571324Y79880792D01*
X111040943Y16199859D02*
X110707609Y16676050D01*
X110469514Y16199859D02*
X110469514Y17199859D01*
X110850467Y17199859D01*
X110945705Y17152240D01*
X110993324Y17104621D01*
X111040943Y17009383D01*
X111040943Y16866526D01*
X110993324Y16771288D01*
X110945705Y16723669D01*
X110850467Y16676050D01*
X110469514Y16676050D01*
X111374276Y17199859D02*
X112040943Y17199859D01*
X111612371Y16199859D01*
X112850467Y17199859D02*
X112659990Y17199859D01*
X112564752Y17152240D01*
X112517133Y17104621D01*
X112421895Y16961764D01*
X112374276Y16771288D01*
X112374276Y16390335D01*
X112421895Y16295097D01*
X112469514Y16247478D01*
X112564752Y16199859D01*
X112755229Y16199859D01*
X112850467Y16247478D01*
X112898086Y16295097D01*
X112945705Y16390335D01*
X112945705Y16628430D01*
X112898086Y16723669D01*
X112850467Y16771288D01*
X112755229Y16818907D01*
X112564752Y16818907D01*
X112469514Y16771288D01*
X112421895Y16723669D01*
X112374276Y16628430D01*
X110786943Y-102316541D02*
X110453609Y-101840350D01*
X110215514Y-102316541D02*
X110215514Y-101316541D01*
X110596467Y-101316541D01*
X110691705Y-101364160D01*
X110739324Y-101411779D01*
X110786943Y-101507017D01*
X110786943Y-101649874D01*
X110739324Y-101745112D01*
X110691705Y-101792731D01*
X110596467Y-101840350D01*
X110215514Y-101840350D01*
X111120276Y-101316541D02*
X111786943Y-101316541D01*
X111358371Y-102316541D01*
X112310752Y-101745112D02*
X112215514Y-101697493D01*
X112167895Y-101649874D01*
X112120276Y-101554636D01*
X112120276Y-101507017D01*
X112167895Y-101411779D01*
X112215514Y-101364160D01*
X112310752Y-101316541D01*
X112501229Y-101316541D01*
X112596467Y-101364160D01*
X112644086Y-101411779D01*
X112691705Y-101507017D01*
X112691705Y-101554636D01*
X112644086Y-101649874D01*
X112596467Y-101697493D01*
X112501229Y-101745112D01*
X112310752Y-101745112D01*
X112215514Y-101792731D01*
X112167895Y-101840350D01*
X112120276Y-101935589D01*
X112120276Y-102126065D01*
X112167895Y-102221303D01*
X112215514Y-102268922D01*
X112310752Y-102316541D01*
X112501229Y-102316541D01*
X112596467Y-102268922D01*
X112644086Y-102221303D01*
X112691705Y-102126065D01*
X112691705Y-101935589D01*
X112644086Y-101840350D01*
X112596467Y-101792731D01*
X112501229Y-101745112D01*
X162602943Y-48346621D02*
X162269609Y-47870430D01*
X162031514Y-48346621D02*
X162031514Y-47346621D01*
X162412467Y-47346621D01*
X162507705Y-47394240D01*
X162555324Y-47441859D01*
X162602943Y-47537097D01*
X162602943Y-47679954D01*
X162555324Y-47775192D01*
X162507705Y-47822811D01*
X162412467Y-47870430D01*
X162031514Y-47870430D01*
X163174371Y-47775192D02*
X163079133Y-47727573D01*
X163031514Y-47679954D01*
X162983895Y-47584716D01*
X162983895Y-47537097D01*
X163031514Y-47441859D01*
X163079133Y-47394240D01*
X163174371Y-47346621D01*
X163364848Y-47346621D01*
X163460086Y-47394240D01*
X163507705Y-47441859D01*
X163555324Y-47537097D01*
X163555324Y-47584716D01*
X163507705Y-47679954D01*
X163460086Y-47727573D01*
X163364848Y-47775192D01*
X163174371Y-47775192D01*
X163079133Y-47822811D01*
X163031514Y-47870430D01*
X162983895Y-47965669D01*
X162983895Y-48156145D01*
X163031514Y-48251383D01*
X163079133Y-48299002D01*
X163174371Y-48346621D01*
X163364848Y-48346621D01*
X163460086Y-48299002D01*
X163507705Y-48251383D01*
X163555324Y-48156145D01*
X163555324Y-47965669D01*
X163507705Y-47870430D01*
X163460086Y-47822811D01*
X163364848Y-47775192D01*
X164174371Y-47346621D02*
X164269610Y-47346621D01*
X164364848Y-47394240D01*
X164412467Y-47441859D01*
X164460086Y-47537097D01*
X164507705Y-47727573D01*
X164507705Y-47965669D01*
X164460086Y-48156145D01*
X164412467Y-48251383D01*
X164364848Y-48299002D01*
X164269610Y-48346621D01*
X164174371Y-48346621D01*
X164079133Y-48299002D01*
X164031514Y-48251383D01*
X163983895Y-48156145D01*
X163936276Y-47965669D01*
X163936276Y-47727573D01*
X163983895Y-47537097D01*
X164031514Y-47441859D01*
X164079133Y-47394240D01*
X164174371Y-47346621D01*
X215485743Y-104399341D02*
X215152409Y-103923150D01*
X214914314Y-104399341D02*
X214914314Y-103399341D01*
X215295267Y-103399341D01*
X215390505Y-103446960D01*
X215438124Y-103494579D01*
X215485743Y-103589817D01*
X215485743Y-103732674D01*
X215438124Y-103827912D01*
X215390505Y-103875531D01*
X215295267Y-103923150D01*
X214914314Y-103923150D01*
X216057171Y-103827912D02*
X215961933Y-103780293D01*
X215914314Y-103732674D01*
X215866695Y-103637436D01*
X215866695Y-103589817D01*
X215914314Y-103494579D01*
X215961933Y-103446960D01*
X216057171Y-103399341D01*
X216247648Y-103399341D01*
X216342886Y-103446960D01*
X216390505Y-103494579D01*
X216438124Y-103589817D01*
X216438124Y-103637436D01*
X216390505Y-103732674D01*
X216342886Y-103780293D01*
X216247648Y-103827912D01*
X216057171Y-103827912D01*
X215961933Y-103875531D01*
X215914314Y-103923150D01*
X215866695Y-104018389D01*
X215866695Y-104208865D01*
X215914314Y-104304103D01*
X215961933Y-104351722D01*
X216057171Y-104399341D01*
X216247648Y-104399341D01*
X216342886Y-104351722D01*
X216390505Y-104304103D01*
X216438124Y-104208865D01*
X216438124Y-104018389D01*
X216390505Y-103923150D01*
X216342886Y-103875531D01*
X216247648Y-103827912D01*
X216819076Y-103494579D02*
X216866695Y-103446960D01*
X216961933Y-103399341D01*
X217200029Y-103399341D01*
X217295267Y-103446960D01*
X217342886Y-103494579D01*
X217390505Y-103589817D01*
X217390505Y-103685055D01*
X217342886Y-103827912D01*
X216771457Y-104399341D01*
X217390505Y-104399341D01*
X215384143Y5729979D02*
X215050809Y6206170D01*
X214812714Y5729979D02*
X214812714Y6729979D01*
X215193667Y6729979D01*
X215288905Y6682360D01*
X215336524Y6634741D01*
X215384143Y6539503D01*
X215384143Y6396646D01*
X215336524Y6301408D01*
X215288905Y6253789D01*
X215193667Y6206170D01*
X214812714Y6206170D01*
X215955571Y6301408D02*
X215860333Y6349027D01*
X215812714Y6396646D01*
X215765095Y6491884D01*
X215765095Y6539503D01*
X215812714Y6634741D01*
X215860333Y6682360D01*
X215955571Y6729979D01*
X216146048Y6729979D01*
X216241286Y6682360D01*
X216288905Y6634741D01*
X216336524Y6539503D01*
X216336524Y6491884D01*
X216288905Y6396646D01*
X216241286Y6349027D01*
X216146048Y6301408D01*
X215955571Y6301408D01*
X215860333Y6253789D01*
X215812714Y6206170D01*
X215765095Y6110931D01*
X215765095Y5920455D01*
X215812714Y5825217D01*
X215860333Y5777598D01*
X215955571Y5729979D01*
X216146048Y5729979D01*
X216241286Y5777598D01*
X216288905Y5825217D01*
X216336524Y5920455D01*
X216336524Y6110931D01*
X216288905Y6206170D01*
X216241286Y6253789D01*
X216146048Y6301408D01*
X217193667Y6396646D02*
X217193667Y5729979D01*
X216955571Y6777598D02*
X216717476Y6063312D01*
X217336524Y6063312D01*
X270857743Y-52969421D02*
X270524409Y-52493230D01*
X270286314Y-52969421D02*
X270286314Y-51969421D01*
X270667267Y-51969421D01*
X270762505Y-52017040D01*
X270810124Y-52064659D01*
X270857743Y-52159897D01*
X270857743Y-52302754D01*
X270810124Y-52397992D01*
X270762505Y-52445611D01*
X270667267Y-52493230D01*
X270286314Y-52493230D01*
X271429171Y-52397992D02*
X271333933Y-52350373D01*
X271286314Y-52302754D01*
X271238695Y-52207516D01*
X271238695Y-52159897D01*
X271286314Y-52064659D01*
X271333933Y-52017040D01*
X271429171Y-51969421D01*
X271619648Y-51969421D01*
X271714886Y-52017040D01*
X271762505Y-52064659D01*
X271810124Y-52159897D01*
X271810124Y-52207516D01*
X271762505Y-52302754D01*
X271714886Y-52350373D01*
X271619648Y-52397992D01*
X271429171Y-52397992D01*
X271333933Y-52445611D01*
X271286314Y-52493230D01*
X271238695Y-52588469D01*
X271238695Y-52778945D01*
X271286314Y-52874183D01*
X271333933Y-52921802D01*
X271429171Y-52969421D01*
X271619648Y-52969421D01*
X271714886Y-52921802D01*
X271762505Y-52874183D01*
X271810124Y-52778945D01*
X271810124Y-52588469D01*
X271762505Y-52493230D01*
X271714886Y-52445611D01*
X271619648Y-52397992D01*
X272667267Y-51969421D02*
X272476790Y-51969421D01*
X272381552Y-52017040D01*
X272333933Y-52064659D01*
X272238695Y-52207516D01*
X272191076Y-52397992D01*
X272191076Y-52778945D01*
X272238695Y-52874183D01*
X272286314Y-52921802D01*
X272381552Y-52969421D01*
X272572029Y-52969421D01*
X272667267Y-52921802D01*
X272714886Y-52874183D01*
X272762505Y-52778945D01*
X272762505Y-52540850D01*
X272714886Y-52445611D01*
X272667267Y-52397992D01*
X272572029Y-52350373D01*
X272381552Y-52350373D01*
X272286314Y-52397992D01*
X272238695Y-52445611D01*
X272191076Y-52540850D01*
X271873743Y66410579D02*
X271540409Y66886770D01*
X271302314Y66410579D02*
X271302314Y67410579D01*
X271683267Y67410579D01*
X271778505Y67362960D01*
X271826124Y67315341D01*
X271873743Y67220103D01*
X271873743Y67077246D01*
X271826124Y66982008D01*
X271778505Y66934389D01*
X271683267Y66886770D01*
X271302314Y66886770D01*
X272445171Y66982008D02*
X272349933Y67029627D01*
X272302314Y67077246D01*
X272254695Y67172484D01*
X272254695Y67220103D01*
X272302314Y67315341D01*
X272349933Y67362960D01*
X272445171Y67410579D01*
X272635648Y67410579D01*
X272730886Y67362960D01*
X272778505Y67315341D01*
X272826124Y67220103D01*
X272826124Y67172484D01*
X272778505Y67077246D01*
X272730886Y67029627D01*
X272635648Y66982008D01*
X272445171Y66982008D01*
X272349933Y66934389D01*
X272302314Y66886770D01*
X272254695Y66791531D01*
X272254695Y66601055D01*
X272302314Y66505817D01*
X272349933Y66458198D01*
X272445171Y66410579D01*
X272635648Y66410579D01*
X272730886Y66458198D01*
X272778505Y66505817D01*
X272826124Y66601055D01*
X272826124Y66791531D01*
X272778505Y66886770D01*
X272730886Y66934389D01*
X272635648Y66982008D01*
X273397552Y66982008D02*
X273302314Y67029627D01*
X273254695Y67077246D01*
X273207076Y67172484D01*
X273207076Y67220103D01*
X273254695Y67315341D01*
X273302314Y67362960D01*
X273397552Y67410579D01*
X273588029Y67410579D01*
X273683267Y67362960D01*
X273730886Y67315341D01*
X273778505Y67220103D01*
X273778505Y67172484D01*
X273730886Y67077246D01*
X273683267Y67029627D01*
X273588029Y66982008D01*
X273397552Y66982008D01*
X273302314Y66934389D01*
X273254695Y66886770D01*
X273207076Y66791531D01*
X273207076Y66601055D01*
X273254695Y66505817D01*
X273302314Y66458198D01*
X273397552Y66410579D01*
X273588029Y66410579D01*
X273683267Y66458198D01*
X273730886Y66505817D01*
X273778505Y66601055D01*
X273778505Y66791531D01*
X273730886Y66886770D01*
X273683267Y66934389D01*
X273588029Y66982008D01*
X163110943Y19095459D02*
X162777609Y19571650D01*
X162539514Y19095459D02*
X162539514Y20095459D01*
X162920467Y20095459D01*
X163015705Y20047840D01*
X163063324Y20000221D01*
X163110943Y19904983D01*
X163110943Y19762126D01*
X163063324Y19666888D01*
X163015705Y19619269D01*
X162920467Y19571650D01*
X162539514Y19571650D01*
X163587133Y19095459D02*
X163777609Y19095459D01*
X163872848Y19143078D01*
X163920467Y19190697D01*
X164015705Y19333554D01*
X164063324Y19524030D01*
X164063324Y19904983D01*
X164015705Y20000221D01*
X163968086Y20047840D01*
X163872848Y20095459D01*
X163682371Y20095459D01*
X163587133Y20047840D01*
X163539514Y20000221D01*
X163491895Y19904983D01*
X163491895Y19666888D01*
X163539514Y19571650D01*
X163587133Y19524030D01*
X163682371Y19476411D01*
X163872848Y19476411D01*
X163968086Y19524030D01*
X164015705Y19571650D01*
X164063324Y19666888D01*
X164682371Y20095459D02*
X164777610Y20095459D01*
X164872848Y20047840D01*
X164920467Y20000221D01*
X164968086Y19904983D01*
X165015705Y19714507D01*
X165015705Y19476411D01*
X164968086Y19285935D01*
X164920467Y19190697D01*
X164872848Y19143078D01*
X164777610Y19095459D01*
X164682371Y19095459D01*
X164587133Y19143078D01*
X164539514Y19190697D01*
X164491895Y19285935D01*
X164444276Y19476411D01*
X164444276Y19714507D01*
X164491895Y19904983D01*
X164539514Y20000221D01*
X164587133Y20047840D01*
X164682371Y20095459D01*
X111294943Y73959459D02*
X110961609Y74435650D01*
X110723514Y73959459D02*
X110723514Y74959459D01*
X111104467Y74959459D01*
X111199705Y74911840D01*
X111247324Y74864221D01*
X111294943Y74768983D01*
X111294943Y74626126D01*
X111247324Y74530888D01*
X111199705Y74483269D01*
X111104467Y74435650D01*
X110723514Y74435650D01*
X111771133Y73959459D02*
X111961609Y73959459D01*
X112056848Y74007078D01*
X112104467Y74054697D01*
X112199705Y74197554D01*
X112247324Y74388030D01*
X112247324Y74768983D01*
X112199705Y74864221D01*
X112152086Y74911840D01*
X112056848Y74959459D01*
X111866371Y74959459D01*
X111771133Y74911840D01*
X111723514Y74864221D01*
X111675895Y74768983D01*
X111675895Y74530888D01*
X111723514Y74435650D01*
X111771133Y74388030D01*
X111866371Y74340411D01*
X112056848Y74340411D01*
X112152086Y74388030D01*
X112199705Y74435650D01*
X112247324Y74530888D01*
X112628276Y74864221D02*
X112675895Y74911840D01*
X112771133Y74959459D01*
X113009229Y74959459D01*
X113104467Y74911840D01*
X113152086Y74864221D01*
X113199705Y74768983D01*
X113199705Y74673745D01*
X113152086Y74530888D01*
X112580657Y73959459D01*
X113199705Y73959459D01*
X111294943Y-42372541D02*
X110961609Y-41896350D01*
X110723514Y-42372541D02*
X110723514Y-41372541D01*
X111104467Y-41372541D01*
X111199705Y-41420160D01*
X111247324Y-41467779D01*
X111294943Y-41563017D01*
X111294943Y-41705874D01*
X111247324Y-41801112D01*
X111199705Y-41848731D01*
X111104467Y-41896350D01*
X110723514Y-41896350D01*
X111771133Y-42372541D02*
X111961609Y-42372541D01*
X112056848Y-42324922D01*
X112104467Y-42277303D01*
X112199705Y-42134446D01*
X112247324Y-41943970D01*
X112247324Y-41563017D01*
X112199705Y-41467779D01*
X112152086Y-41420160D01*
X112056848Y-41372541D01*
X111866371Y-41372541D01*
X111771133Y-41420160D01*
X111723514Y-41467779D01*
X111675895Y-41563017D01*
X111675895Y-41801112D01*
X111723514Y-41896350D01*
X111771133Y-41943970D01*
X111866371Y-41991589D01*
X112056848Y-41991589D01*
X112152086Y-41943970D01*
X112199705Y-41896350D01*
X112247324Y-41801112D01*
X113104467Y-41705874D02*
X113104467Y-42372541D01*
X112866371Y-41324922D02*
X112628276Y-42039208D01*
X113247324Y-42039208D01*
X162602943Y-106766621D02*
X162269609Y-106290430D01*
X162031514Y-106766621D02*
X162031514Y-105766621D01*
X162412467Y-105766621D01*
X162507705Y-105814240D01*
X162555324Y-105861859D01*
X162602943Y-105957097D01*
X162602943Y-106099954D01*
X162555324Y-106195192D01*
X162507705Y-106242811D01*
X162412467Y-106290430D01*
X162031514Y-106290430D01*
X163079133Y-106766621D02*
X163269609Y-106766621D01*
X163364848Y-106719002D01*
X163412467Y-106671383D01*
X163507705Y-106528526D01*
X163555324Y-106338050D01*
X163555324Y-105957097D01*
X163507705Y-105861859D01*
X163460086Y-105814240D01*
X163364848Y-105766621D01*
X163174371Y-105766621D01*
X163079133Y-105814240D01*
X163031514Y-105861859D01*
X162983895Y-105957097D01*
X162983895Y-106195192D01*
X163031514Y-106290430D01*
X163079133Y-106338050D01*
X163174371Y-106385669D01*
X163364848Y-106385669D01*
X163460086Y-106338050D01*
X163507705Y-106290430D01*
X163555324Y-106195192D01*
X164412467Y-105766621D02*
X164221990Y-105766621D01*
X164126752Y-105814240D01*
X164079133Y-105861859D01*
X163983895Y-106004716D01*
X163936276Y-106195192D01*
X163936276Y-106576145D01*
X163983895Y-106671383D01*
X164031514Y-106719002D01*
X164126752Y-106766621D01*
X164317229Y-106766621D01*
X164412467Y-106719002D01*
X164460086Y-106671383D01*
X164507705Y-106576145D01*
X164507705Y-106338050D01*
X164460086Y-106242811D01*
X164412467Y-106195192D01*
X164317229Y-106147573D01*
X164126752Y-106147573D01*
X164031514Y-106195192D01*
X163983895Y-106242811D01*
X163936276Y-106338050D01*
X162329953Y74045819D02*
X161853762Y74045819D01*
X161853762Y75045819D01*
X162663286Y74569629D02*
X162996620Y74569629D01*
X163139477Y74045819D02*
X162663286Y74045819D01*
X162663286Y75045819D01*
X163139477Y75045819D01*
X163568048Y74045819D02*
X163568048Y75045819D01*
X163806143Y75045819D01*
X163949001Y74998200D01*
X164044239Y74902962D01*
X164091858Y74807724D01*
X164139477Y74617248D01*
X164139477Y74474390D01*
X164091858Y74283914D01*
X164044239Y74188676D01*
X163949001Y74093438D01*
X163806143Y74045819D01*
X163568048Y74045819D01*
X165091858Y74045819D02*
X164520429Y74045819D01*
X164806143Y74045819D02*
X164806143Y75045819D01*
X164710905Y74902962D01*
X164615667Y74807724D01*
X164520429Y74760105D01*
X162609353Y14406619D02*
X162133162Y14406619D01*
X162133162Y15406619D01*
X162942686Y14930429D02*
X163276020Y14930429D01*
X163418877Y14406619D02*
X162942686Y14406619D01*
X162942686Y15406619D01*
X163418877Y15406619D01*
X163847448Y14406619D02*
X163847448Y15406619D01*
X164085543Y15406619D01*
X164228401Y15359000D01*
X164323639Y15263762D01*
X164371258Y15168524D01*
X164418877Y14978048D01*
X164418877Y14835190D01*
X164371258Y14644714D01*
X164323639Y14549476D01*
X164228401Y14454238D01*
X164085543Y14406619D01*
X163847448Y14406619D01*
X164799829Y15311381D02*
X164847448Y15359000D01*
X164942686Y15406619D01*
X165180782Y15406619D01*
X165276020Y15359000D01*
X165323639Y15311381D01*
X165371258Y15216143D01*
X165371258Y15120905D01*
X165323639Y14978048D01*
X164752210Y14406619D01*
X165371258Y14406619D01*
X110285353Y79964019D02*
X109809162Y79964019D01*
X109809162Y80964019D01*
X110618686Y80487829D02*
X110952020Y80487829D01*
X111094877Y79964019D02*
X110618686Y79964019D01*
X110618686Y80964019D01*
X111094877Y80964019D01*
X111523448Y79964019D02*
X111523448Y80964019D01*
X111761543Y80964019D01*
X111904401Y80916400D01*
X111999639Y80821162D01*
X112047258Y80725924D01*
X112094877Y80535448D01*
X112094877Y80392590D01*
X112047258Y80202114D01*
X111999639Y80106876D01*
X111904401Y80011638D01*
X111761543Y79964019D01*
X111523448Y79964019D01*
X112428210Y80964019D02*
X113047258Y80964019D01*
X112713924Y80583067D01*
X112856782Y80583067D01*
X112952020Y80535448D01*
X112999639Y80487829D01*
X113047258Y80392590D01*
X113047258Y80154495D01*
X112999639Y80059257D01*
X112952020Y80011638D01*
X112856782Y79964019D01*
X112571067Y79964019D01*
X112475829Y80011638D01*
X112428210Y80059257D01*
X271041953Y21086819D02*
X270565762Y21086819D01*
X270565762Y22086819D01*
X271375286Y21610629D02*
X271708620Y21610629D01*
X271851477Y21086819D02*
X271375286Y21086819D01*
X271375286Y22086819D01*
X271851477Y22086819D01*
X272280048Y21086819D02*
X272280048Y22086819D01*
X272518143Y22086819D01*
X272661001Y22039200D01*
X272756239Y21943962D01*
X272803858Y21848724D01*
X272851477Y21658248D01*
X272851477Y21515390D01*
X272803858Y21324914D01*
X272756239Y21229676D01*
X272661001Y21134438D01*
X272518143Y21086819D01*
X272280048Y21086819D01*
X273708620Y21753486D02*
X273708620Y21086819D01*
X273470524Y22134438D02*
X273232429Y21420152D01*
X273851477Y21420152D01*
X213714153Y79303619D02*
X213237962Y79303619D01*
X213237962Y80303619D01*
X214047486Y79827429D02*
X214380820Y79827429D01*
X214523677Y79303619D02*
X214047486Y79303619D01*
X214047486Y80303619D01*
X214523677Y80303619D01*
X214952248Y79303619D02*
X214952248Y80303619D01*
X215190343Y80303619D01*
X215333201Y80256000D01*
X215428439Y80160762D01*
X215476058Y80065524D01*
X215523677Y79875048D01*
X215523677Y79732190D01*
X215476058Y79541714D01*
X215428439Y79446476D01*
X215333201Y79351238D01*
X215190343Y79303619D01*
X214952248Y79303619D01*
X216428439Y80303619D02*
X215952248Y80303619D01*
X215904629Y79827429D01*
X215952248Y79875048D01*
X216047486Y79922667D01*
X216285582Y79922667D01*
X216380820Y79875048D01*
X216428439Y79827429D01*
X216476058Y79732190D01*
X216476058Y79494095D01*
X216428439Y79398857D01*
X216380820Y79351238D01*
X216285582Y79303619D01*
X216047486Y79303619D01*
X215952248Y79351238D01*
X215904629Y79398857D01*
X270787953Y79760819D02*
X270311762Y79760819D01*
X270311762Y80760819D01*
X271121286Y80284629D02*
X271454620Y80284629D01*
X271597477Y79760819D02*
X271121286Y79760819D01*
X271121286Y80760819D01*
X271597477Y80760819D01*
X272026048Y79760819D02*
X272026048Y80760819D01*
X272264143Y80760819D01*
X272407001Y80713200D01*
X272502239Y80617962D01*
X272549858Y80522724D01*
X272597477Y80332248D01*
X272597477Y80189390D01*
X272549858Y79998914D01*
X272502239Y79903676D01*
X272407001Y79808438D01*
X272264143Y79760819D01*
X272026048Y79760819D01*
X273454620Y80760819D02*
X273264143Y80760819D01*
X273168905Y80713200D01*
X273121286Y80665581D01*
X273026048Y80522724D01*
X272978429Y80332248D01*
X272978429Y79951295D01*
X273026048Y79856057D01*
X273073667Y79808438D01*
X273168905Y79760819D01*
X273359382Y79760819D01*
X273454620Y79808438D01*
X273502239Y79856057D01*
X273549858Y79951295D01*
X273549858Y80189390D01*
X273502239Y80284629D01*
X273454620Y80332248D01*
X273359382Y80379867D01*
X273168905Y80379867D01*
X273073667Y80332248D01*
X273026048Y80284629D01*
X272978429Y80189390D01*
X110310753Y22636219D02*
X109834562Y22636219D01*
X109834562Y23636219D01*
X110644086Y23160029D02*
X110977420Y23160029D01*
X111120277Y22636219D02*
X110644086Y22636219D01*
X110644086Y23636219D01*
X111120277Y23636219D01*
X111548848Y22636219D02*
X111548848Y23636219D01*
X111786943Y23636219D01*
X111929801Y23588600D01*
X112025039Y23493362D01*
X112072658Y23398124D01*
X112120277Y23207648D01*
X112120277Y23064790D01*
X112072658Y22874314D01*
X112025039Y22779076D01*
X111929801Y22683838D01*
X111786943Y22636219D01*
X111548848Y22636219D01*
X112453610Y23636219D02*
X113120277Y23636219D01*
X112691705Y22636219D01*
X270406953Y-39720781D02*
X269930762Y-39720781D01*
X269930762Y-38720781D01*
X270740286Y-39196971D02*
X271073620Y-39196971D01*
X271216477Y-39720781D02*
X270740286Y-39720781D01*
X270740286Y-38720781D01*
X271216477Y-38720781D01*
X271645048Y-39720781D02*
X271645048Y-38720781D01*
X271883143Y-38720781D01*
X272026001Y-38768400D01*
X272121239Y-38863638D01*
X272168858Y-38958876D01*
X272216477Y-39149352D01*
X272216477Y-39292210D01*
X272168858Y-39482686D01*
X272121239Y-39577924D01*
X272026001Y-39673162D01*
X271883143Y-39720781D01*
X271645048Y-39720781D01*
X272787905Y-39149352D02*
X272692667Y-39101733D01*
X272645048Y-39054114D01*
X272597429Y-38958876D01*
X272597429Y-38911257D01*
X272645048Y-38816019D01*
X272692667Y-38768400D01*
X272787905Y-38720781D01*
X272978382Y-38720781D01*
X273073620Y-38768400D01*
X273121239Y-38816019D01*
X273168858Y-38911257D01*
X273168858Y-38958876D01*
X273121239Y-39054114D01*
X273073620Y-39101733D01*
X272978382Y-39149352D01*
X272787905Y-39149352D01*
X272692667Y-39196971D01*
X272645048Y-39244590D01*
X272597429Y-39339829D01*
X272597429Y-39530305D01*
X272645048Y-39625543D01*
X272692667Y-39673162D01*
X272787905Y-39720781D01*
X272978382Y-39720781D01*
X273073620Y-39673162D01*
X273121239Y-39625543D01*
X273168858Y-39530305D01*
X273168858Y-39339829D01*
X273121239Y-39244590D01*
X273073620Y-39196971D01*
X272978382Y-39149352D01*
X270362562Y-98242381D02*
X269886371Y-98242381D01*
X269886371Y-97242381D01*
X270695895Y-97718571D02*
X271029229Y-97718571D01*
X271172086Y-98242381D02*
X270695895Y-98242381D01*
X270695895Y-97242381D01*
X271172086Y-97242381D01*
X271600657Y-98242381D02*
X271600657Y-97242381D01*
X271838752Y-97242381D01*
X271981610Y-97290000D01*
X272076848Y-97385238D01*
X272124467Y-97480476D01*
X272172086Y-97670952D01*
X272172086Y-97813810D01*
X272124467Y-98004286D01*
X272076848Y-98099524D01*
X271981610Y-98194762D01*
X271838752Y-98242381D01*
X271600657Y-98242381D01*
X273124467Y-98242381D02*
X272553038Y-98242381D01*
X272838752Y-98242381D02*
X272838752Y-97242381D01*
X272743514Y-97385238D01*
X272648276Y-97480476D01*
X272553038Y-97528095D01*
X273743514Y-97242381D02*
X273838753Y-97242381D01*
X273933991Y-97290000D01*
X273981610Y-97337619D01*
X274029229Y-97432857D01*
X274076848Y-97623333D01*
X274076848Y-97861429D01*
X274029229Y-98051905D01*
X273981610Y-98147143D01*
X273933991Y-98194762D01*
X273838753Y-98242381D01*
X273743514Y-98242381D01*
X273648276Y-98194762D01*
X273600657Y-98147143D01*
X273553038Y-98051905D01*
X273505419Y-97861429D01*
X273505419Y-97623333D01*
X273553038Y-97432857D01*
X273600657Y-97337619D01*
X273648276Y-97290000D01*
X273743514Y-97242381D01*
X109682162Y-97785181D02*
X109205971Y-97785181D01*
X109205971Y-96785181D01*
X110015495Y-97261371D02*
X110348829Y-97261371D01*
X110491686Y-97785181D02*
X110015495Y-97785181D01*
X110015495Y-96785181D01*
X110491686Y-96785181D01*
X110920257Y-97785181D02*
X110920257Y-96785181D01*
X111158352Y-96785181D01*
X111301210Y-96832800D01*
X111396448Y-96928038D01*
X111444067Y-97023276D01*
X111491686Y-97213752D01*
X111491686Y-97356610D01*
X111444067Y-97547086D01*
X111396448Y-97642324D01*
X111301210Y-97737562D01*
X111158352Y-97785181D01*
X110920257Y-97785181D01*
X112444067Y-97785181D02*
X111872638Y-97785181D01*
X112158352Y-97785181D02*
X112158352Y-96785181D01*
X112063114Y-96928038D01*
X111967876Y-97023276D01*
X111872638Y-97070895D01*
X113396448Y-97785181D02*
X112825019Y-97785181D01*
X113110733Y-97785181D02*
X113110733Y-96785181D01*
X113015495Y-96928038D01*
X112920257Y-97023276D01*
X112825019Y-97070895D01*
X213898362Y-96921581D02*
X213422171Y-96921581D01*
X213422171Y-95921581D01*
X214231695Y-96397771D02*
X214565029Y-96397771D01*
X214707886Y-96921581D02*
X214231695Y-96921581D01*
X214231695Y-95921581D01*
X214707886Y-95921581D01*
X215136457Y-96921581D02*
X215136457Y-95921581D01*
X215374552Y-95921581D01*
X215517410Y-95969200D01*
X215612648Y-96064438D01*
X215660267Y-96159676D01*
X215707886Y-96350152D01*
X215707886Y-96493010D01*
X215660267Y-96683486D01*
X215612648Y-96778724D01*
X215517410Y-96873962D01*
X215374552Y-96921581D01*
X215136457Y-96921581D01*
X216660267Y-96921581D02*
X216088838Y-96921581D01*
X216374552Y-96921581D02*
X216374552Y-95921581D01*
X216279314Y-96064438D01*
X216184076Y-96159676D01*
X216088838Y-96207295D01*
X217041219Y-96016819D02*
X217088838Y-95969200D01*
X217184076Y-95921581D01*
X217422172Y-95921581D01*
X217517410Y-95969200D01*
X217565029Y-96016819D01*
X217612648Y-96112057D01*
X217612648Y-96207295D01*
X217565029Y-96350152D01*
X216993600Y-96921581D01*
X217612648Y-96921581D01*
X162488762Y-105328981D02*
X162012571Y-105328981D01*
X162012571Y-104328981D01*
X162822095Y-104805171D02*
X163155429Y-104805171D01*
X163298286Y-105328981D02*
X162822095Y-105328981D01*
X162822095Y-104328981D01*
X163298286Y-104328981D01*
X163726857Y-105328981D02*
X163726857Y-104328981D01*
X163964952Y-104328981D01*
X164107810Y-104376600D01*
X164203048Y-104471838D01*
X164250667Y-104567076D01*
X164298286Y-104757552D01*
X164298286Y-104900410D01*
X164250667Y-105090886D01*
X164203048Y-105186124D01*
X164107810Y-105281362D01*
X163964952Y-105328981D01*
X163726857Y-105328981D01*
X165250667Y-105328981D02*
X164679238Y-105328981D01*
X164964952Y-105328981D02*
X164964952Y-104328981D01*
X164869714Y-104471838D01*
X164774476Y-104567076D01*
X164679238Y-104614695D01*
X165584000Y-104328981D02*
X166203048Y-104328981D01*
X165869714Y-104709933D01*
X166012572Y-104709933D01*
X166107810Y-104757552D01*
X166155429Y-104805171D01*
X166203048Y-104900410D01*
X166203048Y-105138505D01*
X166155429Y-105233743D01*
X166107810Y-105281362D01*
X166012572Y-105328981D01*
X165726857Y-105328981D01*
X165631619Y-105281362D01*
X165584000Y-105233743D01*
X213796762Y19359619D02*
X213320571Y19359619D01*
X213320571Y20359619D01*
X214130095Y19883429D02*
X214463429Y19883429D01*
X214606286Y19359619D02*
X214130095Y19359619D01*
X214130095Y20359619D01*
X214606286Y20359619D01*
X215034857Y19359619D02*
X215034857Y20359619D01*
X215272952Y20359619D01*
X215415810Y20312000D01*
X215511048Y20216762D01*
X215558667Y20121524D01*
X215606286Y19931048D01*
X215606286Y19788190D01*
X215558667Y19597714D01*
X215511048Y19502476D01*
X215415810Y19407238D01*
X215272952Y19359619D01*
X215034857Y19359619D01*
X216558667Y19359619D02*
X215987238Y19359619D01*
X216272952Y19359619D02*
X216272952Y20359619D01*
X216177714Y20216762D01*
X216082476Y20121524D01*
X215987238Y20073905D01*
X217415810Y20026286D02*
X217415810Y19359619D01*
X217177714Y20407238D02*
X216939619Y19692952D01*
X217558667Y19692952D01*
X161929962Y-46934381D02*
X161453771Y-46934381D01*
X161453771Y-45934381D01*
X162263295Y-46410571D02*
X162596629Y-46410571D01*
X162739486Y-46934381D02*
X162263295Y-46934381D01*
X162263295Y-45934381D01*
X162739486Y-45934381D01*
X163168057Y-46934381D02*
X163168057Y-45934381D01*
X163406152Y-45934381D01*
X163549010Y-45982000D01*
X163644248Y-46077238D01*
X163691867Y-46172476D01*
X163739486Y-46362952D01*
X163739486Y-46505810D01*
X163691867Y-46696286D01*
X163644248Y-46791524D01*
X163549010Y-46886762D01*
X163406152Y-46934381D01*
X163168057Y-46934381D01*
X164691867Y-46934381D02*
X164120438Y-46934381D01*
X164406152Y-46934381D02*
X164406152Y-45934381D01*
X164310914Y-46077238D01*
X164215676Y-46172476D01*
X164120438Y-46220095D01*
X165596629Y-45934381D02*
X165120438Y-45934381D01*
X165072819Y-46410571D01*
X165120438Y-46362952D01*
X165215676Y-46315333D01*
X165453772Y-46315333D01*
X165549010Y-46362952D01*
X165596629Y-46410571D01*
X165644248Y-46505810D01*
X165644248Y-46743905D01*
X165596629Y-46839143D01*
X165549010Y-46886762D01*
X165453772Y-46934381D01*
X165215676Y-46934381D01*
X165120438Y-46886762D01*
X165072819Y-46839143D01*
X214380962Y-38399981D02*
X213904771Y-38399981D01*
X213904771Y-37399981D01*
X214714295Y-37876171D02*
X215047629Y-37876171D01*
X215190486Y-38399981D02*
X214714295Y-38399981D01*
X214714295Y-37399981D01*
X215190486Y-37399981D01*
X215619057Y-38399981D02*
X215619057Y-37399981D01*
X215857152Y-37399981D01*
X216000010Y-37447600D01*
X216095248Y-37542838D01*
X216142867Y-37638076D01*
X216190486Y-37828552D01*
X216190486Y-37971410D01*
X216142867Y-38161886D01*
X216095248Y-38257124D01*
X216000010Y-38352362D01*
X215857152Y-38399981D01*
X215619057Y-38399981D01*
X217142867Y-38399981D02*
X216571438Y-38399981D01*
X216857152Y-38399981D02*
X216857152Y-37399981D01*
X216761914Y-37542838D01*
X216666676Y-37638076D01*
X216571438Y-37685695D01*
X218000010Y-37399981D02*
X217809533Y-37399981D01*
X217714295Y-37447600D01*
X217666676Y-37495219D01*
X217571438Y-37638076D01*
X217523819Y-37828552D01*
X217523819Y-38209505D01*
X217571438Y-38304743D01*
X217619057Y-38352362D01*
X217714295Y-38399981D01*
X217904772Y-38399981D01*
X218000010Y-38352362D01*
X218047629Y-38304743D01*
X218095248Y-38209505D01*
X218095248Y-37971410D01*
X218047629Y-37876171D01*
X218000010Y-37828552D01*
X217904772Y-37780933D01*
X217714295Y-37780933D01*
X217619057Y-37828552D01*
X217571438Y-37876171D01*
X217523819Y-37971410D01*
X167605414Y77886299D02*
X167272080Y78362490D01*
X167033985Y77886299D02*
X167033985Y78886299D01*
X167414938Y78886299D01*
X167510176Y78838680D01*
X167557795Y78791061D01*
X167605414Y78695823D01*
X167605414Y78552966D01*
X167557795Y78457728D01*
X167510176Y78410109D01*
X167414938Y78362490D01*
X167033985Y78362490D01*
X168557795Y77886299D02*
X167986366Y77886299D01*
X168272080Y77886299D02*
X168272080Y78886299D01*
X168176842Y78743442D01*
X168081604Y78648204D01*
X167986366Y78600585D01*
X157943254Y27126939D02*
X157609920Y27603130D01*
X157371825Y27126939D02*
X157371825Y28126939D01*
X157752778Y28126939D01*
X157848016Y28079320D01*
X157895635Y28031701D01*
X157943254Y27936463D01*
X157943254Y27793606D01*
X157895635Y27698368D01*
X157848016Y27650749D01*
X157752778Y27603130D01*
X157371825Y27603130D01*
X158324206Y28031701D02*
X158371825Y28079320D01*
X158467063Y28126939D01*
X158705159Y28126939D01*
X158800397Y28079320D01*
X158848016Y28031701D01*
X158895635Y27936463D01*
X158895635Y27841225D01*
X158848016Y27698368D01*
X158276587Y27126939D01*
X158895635Y27126939D01*
X107416861Y57841854D02*
X106940670Y57508520D01*
X107416861Y57270425D02*
X106416861Y57270425D01*
X106416861Y57651378D01*
X106464480Y57746616D01*
X106512099Y57794235D01*
X106607337Y57841854D01*
X106750194Y57841854D01*
X106845432Y57794235D01*
X106893051Y57746616D01*
X106940670Y57651378D01*
X106940670Y57270425D01*
X106416861Y58175187D02*
X106416861Y58794235D01*
X106797813Y58460901D01*
X106797813Y58603759D01*
X106845432Y58698997D01*
X106893051Y58746616D01*
X106988290Y58794235D01*
X107226385Y58794235D01*
X107321623Y58746616D01*
X107369242Y58698997D01*
X107416861Y58603759D01*
X107416861Y58318044D01*
X107369242Y58222806D01*
X107321623Y58175187D01*
X275224501Y31842414D02*
X274748310Y31509080D01*
X275224501Y31270985D02*
X274224501Y31270985D01*
X274224501Y31651938D01*
X274272120Y31747176D01*
X274319739Y31794795D01*
X274414977Y31842414D01*
X274557834Y31842414D01*
X274653072Y31794795D01*
X274700691Y31747176D01*
X274748310Y31651938D01*
X274748310Y31270985D01*
X274557834Y32699557D02*
X275224501Y32699557D01*
X274176882Y32461461D02*
X274891168Y32223366D01*
X274891168Y32842414D01*
X210845661Y60534254D02*
X210369470Y60200920D01*
X210845661Y59962825D02*
X209845661Y59962825D01*
X209845661Y60343778D01*
X209893280Y60439016D01*
X209940899Y60486635D01*
X210036137Y60534254D01*
X210178994Y60534254D01*
X210274232Y60486635D01*
X210321851Y60439016D01*
X210369470Y60343778D01*
X210369470Y59962825D01*
X209845661Y61439016D02*
X209845661Y60962825D01*
X210321851Y60915206D01*
X210274232Y60962825D01*
X210226613Y61058063D01*
X210226613Y61296159D01*
X210274232Y61391397D01*
X210321851Y61439016D01*
X210417090Y61486635D01*
X210655185Y61486635D01*
X210750423Y61439016D01*
X210798042Y61391397D01*
X210845661Y61296159D01*
X210845661Y61058063D01*
X210798042Y60962825D01*
X210750423Y60915206D01*
X267970261Y59010254D02*
X267494070Y58676920D01*
X267970261Y58438825D02*
X266970261Y58438825D01*
X266970261Y58819778D01*
X267017880Y58915016D01*
X267065499Y58962635D01*
X267160737Y59010254D01*
X267303594Y59010254D01*
X267398832Y58962635D01*
X267446451Y58915016D01*
X267494070Y58819778D01*
X267494070Y58438825D01*
X266970261Y59867397D02*
X266970261Y59676920D01*
X267017880Y59581682D01*
X267065499Y59534063D01*
X267208356Y59438825D01*
X267398832Y59391206D01*
X267779785Y59391206D01*
X267875023Y59438825D01*
X267922642Y59486444D01*
X267970261Y59581682D01*
X267970261Y59772159D01*
X267922642Y59867397D01*
X267875023Y59915016D01*
X267779785Y59962635D01*
X267541690Y59962635D01*
X267446451Y59915016D01*
X267398832Y59867397D01*
X267351213Y59772159D01*
X267351213Y59581682D01*
X267398832Y59486444D01*
X267446451Y59438825D01*
X267541690Y59391206D01*
X114366301Y32960014D02*
X113890110Y32626680D01*
X114366301Y32388585D02*
X113366301Y32388585D01*
X113366301Y32769538D01*
X113413920Y32864776D01*
X113461539Y32912395D01*
X113556777Y32960014D01*
X113699634Y32960014D01*
X113794872Y32912395D01*
X113842491Y32864776D01*
X113890110Y32769538D01*
X113890110Y32388585D01*
X113366301Y33293347D02*
X113366301Y33960014D01*
X114366301Y33531442D01*
X274538701Y-27542786D02*
X274062510Y-27876120D01*
X274538701Y-28114215D02*
X273538701Y-28114215D01*
X273538701Y-27733262D01*
X273586320Y-27638024D01*
X273633939Y-27590405D01*
X273729177Y-27542786D01*
X273872034Y-27542786D01*
X273967272Y-27590405D01*
X274014891Y-27638024D01*
X274062510Y-27733262D01*
X274062510Y-28114215D01*
X273967272Y-26971358D02*
X273919653Y-27066596D01*
X273872034Y-27114215D01*
X273776796Y-27161834D01*
X273729177Y-27161834D01*
X273633939Y-27114215D01*
X273586320Y-27066596D01*
X273538701Y-26971358D01*
X273538701Y-26780881D01*
X273586320Y-26685643D01*
X273633939Y-26638024D01*
X273729177Y-26590405D01*
X273776796Y-26590405D01*
X273872034Y-26638024D01*
X273919653Y-26685643D01*
X273967272Y-26780881D01*
X273967272Y-26971358D01*
X274014891Y-27066596D01*
X274062510Y-27114215D01*
X274157749Y-27161834D01*
X274348225Y-27161834D01*
X274443463Y-27114215D01*
X274491082Y-27066596D01*
X274538701Y-26971358D01*
X274538701Y-26780881D01*
X274491082Y-26685643D01*
X274443463Y-26638024D01*
X274348225Y-26590405D01*
X274157749Y-26590405D01*
X274062510Y-26638024D01*
X274014891Y-26685643D01*
X273967272Y-26780881D01*
X114467901Y-27187186D02*
X113991710Y-27520520D01*
X114467901Y-27758615D02*
X113467901Y-27758615D01*
X113467901Y-27377662D01*
X113515520Y-27282424D01*
X113563139Y-27234805D01*
X113658377Y-27187186D01*
X113801234Y-27187186D01*
X113896472Y-27234805D01*
X113944091Y-27282424D01*
X113991710Y-27377662D01*
X113991710Y-27758615D01*
X114467901Y-26710996D02*
X114467901Y-26520520D01*
X114420282Y-26425281D01*
X114372663Y-26377662D01*
X114229806Y-26282424D01*
X114039330Y-26234805D01*
X113658377Y-26234805D01*
X113563139Y-26282424D01*
X113515520Y-26330043D01*
X113467901Y-26425281D01*
X113467901Y-26615758D01*
X113515520Y-26710996D01*
X113563139Y-26758615D01*
X113658377Y-26806234D01*
X113896472Y-26806234D01*
X113991710Y-26758615D01*
X114039330Y-26710996D01*
X114086949Y-26615758D01*
X114086949Y-26425281D01*
X114039330Y-26330043D01*
X113991710Y-26282424D01*
X113896472Y-26234805D01*
X274919701Y-88013777D02*
X274443510Y-88347111D01*
X274919701Y-88585206D02*
X273919701Y-88585206D01*
X273919701Y-88204253D01*
X273967320Y-88109015D01*
X274014939Y-88061396D01*
X274110177Y-88013777D01*
X274253034Y-88013777D01*
X274348272Y-88061396D01*
X274395891Y-88109015D01*
X274443510Y-88204253D01*
X274443510Y-88585206D01*
X274919701Y-87061396D02*
X274919701Y-87632825D01*
X274919701Y-87347111D02*
X273919701Y-87347111D01*
X274062558Y-87442349D01*
X274157796Y-87537587D01*
X274205415Y-87632825D01*
X273919701Y-86442349D02*
X273919701Y-86347110D01*
X273967320Y-86251872D01*
X274014939Y-86204253D01*
X274110177Y-86156634D01*
X274300653Y-86109015D01*
X274538749Y-86109015D01*
X274729225Y-86156634D01*
X274824463Y-86204253D01*
X274872082Y-86251872D01*
X274919701Y-86347110D01*
X274919701Y-86442349D01*
X274872082Y-86537587D01*
X274824463Y-86585206D01*
X274729225Y-86632825D01*
X274538749Y-86680444D01*
X274300653Y-86680444D01*
X274110177Y-86632825D01*
X274014939Y-86585206D01*
X273967320Y-86537587D01*
X273919701Y-86442349D01*
X114315501Y-87124777D02*
X113839310Y-87458111D01*
X114315501Y-87696206D02*
X113315501Y-87696206D01*
X113315501Y-87315253D01*
X113363120Y-87220015D01*
X113410739Y-87172396D01*
X113505977Y-87124777D01*
X113648834Y-87124777D01*
X113744072Y-87172396D01*
X113791691Y-87220015D01*
X113839310Y-87315253D01*
X113839310Y-87696206D01*
X114315501Y-86172396D02*
X114315501Y-86743825D01*
X114315501Y-86458111D02*
X113315501Y-86458111D01*
X113458358Y-86553349D01*
X113553596Y-86648587D01*
X113601215Y-86743825D01*
X114315501Y-85220015D02*
X114315501Y-85791444D01*
X114315501Y-85505730D02*
X113315501Y-85505730D01*
X113458358Y-85600968D01*
X113553596Y-85696206D01*
X113601215Y-85791444D01*
X218582501Y-88801177D02*
X218106310Y-89134511D01*
X218582501Y-89372606D02*
X217582501Y-89372606D01*
X217582501Y-88991653D01*
X217630120Y-88896415D01*
X217677739Y-88848796D01*
X217772977Y-88801177D01*
X217915834Y-88801177D01*
X218011072Y-88848796D01*
X218058691Y-88896415D01*
X218106310Y-88991653D01*
X218106310Y-89372606D01*
X218582501Y-87848796D02*
X218582501Y-88420225D01*
X218582501Y-88134511D02*
X217582501Y-88134511D01*
X217725358Y-88229749D01*
X217820596Y-88324987D01*
X217868215Y-88420225D01*
X217677739Y-87467844D02*
X217630120Y-87420225D01*
X217582501Y-87324987D01*
X217582501Y-87086891D01*
X217630120Y-86991653D01*
X217677739Y-86944034D01*
X217772977Y-86896415D01*
X217868215Y-86896415D01*
X218011072Y-86944034D01*
X218582501Y-87515463D01*
X218582501Y-86896415D01*
X167096701Y-89613977D02*
X166620510Y-89947311D01*
X167096701Y-90185406D02*
X166096701Y-90185406D01*
X166096701Y-89804453D01*
X166144320Y-89709215D01*
X166191939Y-89661596D01*
X166287177Y-89613977D01*
X166430034Y-89613977D01*
X166525272Y-89661596D01*
X166572891Y-89709215D01*
X166620510Y-89804453D01*
X166620510Y-90185406D01*
X167096701Y-88661596D02*
X167096701Y-89233025D01*
X167096701Y-88947311D02*
X166096701Y-88947311D01*
X166239558Y-89042549D01*
X166334796Y-89137787D01*
X166382415Y-89233025D01*
X166096701Y-88328263D02*
X166096701Y-87709215D01*
X166477653Y-88042549D01*
X166477653Y-87899691D01*
X166525272Y-87804453D01*
X166572891Y-87756834D01*
X166668130Y-87709215D01*
X166906225Y-87709215D01*
X167001463Y-87756834D01*
X167049082Y-87804453D01*
X167096701Y-87899691D01*
X167096701Y-88185406D01*
X167049082Y-88280644D01*
X167001463Y-88328263D01*
X208978263Y28168339D02*
X208644929Y28644530D01*
X208406834Y28168339D02*
X208406834Y29168339D01*
X208787787Y29168339D01*
X208883025Y29120720D01*
X208930644Y29073101D01*
X208978263Y28977863D01*
X208978263Y28835006D01*
X208930644Y28739768D01*
X208883025Y28692149D01*
X208787787Y28644530D01*
X208406834Y28644530D01*
X209930644Y28168339D02*
X209359215Y28168339D01*
X209644929Y28168339D02*
X209644929Y29168339D01*
X209549691Y29025482D01*
X209454453Y28930244D01*
X209359215Y28882625D01*
X210787787Y28835006D02*
X210787787Y28168339D01*
X210549691Y29215958D02*
X210311596Y28501672D01*
X210930644Y28501672D01*
X159512261Y-63639937D02*
X159036070Y-63973271D01*
X159512261Y-64211366D02*
X158512261Y-64211366D01*
X158512261Y-63830413D01*
X158559880Y-63735175D01*
X158607499Y-63687556D01*
X158702737Y-63639937D01*
X158845594Y-63639937D01*
X158940832Y-63687556D01*
X158988451Y-63735175D01*
X159036070Y-63830413D01*
X159036070Y-64211366D01*
X159512261Y-62687556D02*
X159512261Y-63258985D01*
X159512261Y-62973271D02*
X158512261Y-62973271D01*
X158655118Y-63068509D01*
X158750356Y-63163747D01*
X158797975Y-63258985D01*
X158512261Y-61782794D02*
X158512261Y-62258985D01*
X158988451Y-62306604D01*
X158940832Y-62258985D01*
X158893213Y-62163747D01*
X158893213Y-61925651D01*
X158940832Y-61830413D01*
X158988451Y-61782794D01*
X159083690Y-61735175D01*
X159321785Y-61735175D01*
X159417023Y-61782794D01*
X159464642Y-61830413D01*
X159512261Y-61925651D01*
X159512261Y-62163747D01*
X159464642Y-62258985D01*
X159417023Y-62306604D01*
X212014061Y-61125337D02*
X211537870Y-61458671D01*
X212014061Y-61696766D02*
X211014061Y-61696766D01*
X211014061Y-61315813D01*
X211061680Y-61220575D01*
X211109299Y-61172956D01*
X211204537Y-61125337D01*
X211347394Y-61125337D01*
X211442632Y-61172956D01*
X211490251Y-61220575D01*
X211537870Y-61315813D01*
X211537870Y-61696766D01*
X212014061Y-60172956D02*
X212014061Y-60744385D01*
X212014061Y-60458671D02*
X211014061Y-60458671D01*
X211156918Y-60553909D01*
X211252156Y-60649147D01*
X211299775Y-60744385D01*
X211014061Y-59315813D02*
X211014061Y-59506290D01*
X211061680Y-59601528D01*
X211109299Y-59649147D01*
X211252156Y-59744385D01*
X211442632Y-59792004D01*
X211823585Y-59792004D01*
X211918823Y-59744385D01*
X211966442Y-59696766D01*
X212014061Y-59601528D01*
X212014061Y-59411051D01*
X211966442Y-59315813D01*
X211918823Y-59268194D01*
X211823585Y-59220575D01*
X211585490Y-59220575D01*
X211490251Y-59268194D01*
X211442632Y-59315813D01*
X211395013Y-59411051D01*
X211395013Y-59601528D01*
X211442632Y-59696766D01*
X211490251Y-59744385D01*
X211585490Y-59792004D01*
X193944501Y43101023D02*
X193468310Y42767689D01*
X193944501Y42529594D02*
X192944501Y42529594D01*
X192944501Y42910547D01*
X192992120Y43005785D01*
X193039739Y43053404D01*
X193134977Y43101023D01*
X193277834Y43101023D01*
X193373072Y43053404D01*
X193420691Y43005785D01*
X193468310Y42910547D01*
X193468310Y42529594D01*
X192944501Y43958166D02*
X192944501Y43767689D01*
X192992120Y43672451D01*
X193039739Y43624832D01*
X193182596Y43529594D01*
X193373072Y43481975D01*
X193754025Y43481975D01*
X193849263Y43529594D01*
X193896882Y43577213D01*
X193944501Y43672451D01*
X193944501Y43862928D01*
X193896882Y43958166D01*
X193849263Y44005785D01*
X193754025Y44053404D01*
X193515930Y44053404D01*
X193420691Y44005785D01*
X193373072Y43958166D01*
X193325453Y43862928D01*
X193325453Y43672451D01*
X193373072Y43577213D01*
X193420691Y43529594D01*
X193515930Y43481975D01*
X192944501Y44958166D02*
X192944501Y44481975D01*
X193420691Y44434356D01*
X193373072Y44481975D01*
X193325453Y44577213D01*
X193325453Y44815309D01*
X193373072Y44910547D01*
X193420691Y44958166D01*
X193515930Y45005785D01*
X193754025Y45005785D01*
X193849263Y44958166D01*
X193896882Y44910547D01*
X193944501Y44815309D01*
X193944501Y44577213D01*
X193896882Y44481975D01*
X193849263Y44434356D01*
X187365901Y43101023D02*
X186889710Y42767689D01*
X187365901Y42529594D02*
X186365901Y42529594D01*
X186365901Y42910547D01*
X186413520Y43005785D01*
X186461139Y43053404D01*
X186556377Y43101023D01*
X186699234Y43101023D01*
X186794472Y43053404D01*
X186842091Y43005785D01*
X186889710Y42910547D01*
X186889710Y42529594D01*
X186365901Y43958166D02*
X186365901Y43767689D01*
X186413520Y43672451D01*
X186461139Y43624832D01*
X186603996Y43529594D01*
X186794472Y43481975D01*
X187175425Y43481975D01*
X187270663Y43529594D01*
X187318282Y43577213D01*
X187365901Y43672451D01*
X187365901Y43862928D01*
X187318282Y43958166D01*
X187270663Y44005785D01*
X187175425Y44053404D01*
X186937330Y44053404D01*
X186842091Y44005785D01*
X186794472Y43958166D01*
X186746853Y43862928D01*
X186746853Y43672451D01*
X186794472Y43577213D01*
X186842091Y43529594D01*
X186937330Y43481975D01*
X186365901Y44386737D02*
X186365901Y45053404D01*
X187365901Y44624832D01*
X180711101Y42974023D02*
X180234910Y42640689D01*
X180711101Y42402594D02*
X179711101Y42402594D01*
X179711101Y42783547D01*
X179758720Y42878785D01*
X179806339Y42926404D01*
X179901577Y42974023D01*
X180044434Y42974023D01*
X180139672Y42926404D01*
X180187291Y42878785D01*
X180234910Y42783547D01*
X180234910Y42402594D01*
X179711101Y43831166D02*
X179711101Y43640689D01*
X179758720Y43545451D01*
X179806339Y43497832D01*
X179949196Y43402594D01*
X180139672Y43354975D01*
X180520625Y43354975D01*
X180615863Y43402594D01*
X180663482Y43450213D01*
X180711101Y43545451D01*
X180711101Y43735928D01*
X180663482Y43831166D01*
X180615863Y43878785D01*
X180520625Y43926404D01*
X180282530Y43926404D01*
X180187291Y43878785D01*
X180139672Y43831166D01*
X180092053Y43735928D01*
X180092053Y43545451D01*
X180139672Y43450213D01*
X180187291Y43402594D01*
X180282530Y43354975D01*
X180711101Y44402594D02*
X180711101Y44593070D01*
X180663482Y44688309D01*
X180615863Y44735928D01*
X180473006Y44831166D01*
X180282530Y44878785D01*
X179901577Y44878785D01*
X179806339Y44831166D01*
X179758720Y44783547D01*
X179711101Y44688309D01*
X179711101Y44497832D01*
X179758720Y44402594D01*
X179806339Y44354975D01*
X179901577Y44307356D01*
X180139672Y44307356D01*
X180234910Y44354975D01*
X180282530Y44402594D01*
X180330149Y44497832D01*
X180330149Y44688309D01*
X180282530Y44783547D01*
X180234910Y44831166D01*
X180139672Y44878785D01*
X174107101Y43101023D02*
X173630910Y42767689D01*
X174107101Y42529594D02*
X173107101Y42529594D01*
X173107101Y42910547D01*
X173154720Y43005785D01*
X173202339Y43053404D01*
X173297577Y43101023D01*
X173440434Y43101023D01*
X173535672Y43053404D01*
X173583291Y43005785D01*
X173630910Y42910547D01*
X173630910Y42529594D01*
X173107101Y43434356D02*
X173107101Y44101023D01*
X174107101Y43672451D01*
X174107101Y45005785D02*
X174107101Y44434356D01*
X174107101Y44720070D02*
X173107101Y44720070D01*
X173249958Y44624832D01*
X173345196Y44529594D01*
X173392815Y44434356D01*
X164175701Y42796223D02*
X163699510Y42462889D01*
X164175701Y42224794D02*
X163175701Y42224794D01*
X163175701Y42605747D01*
X163223320Y42700985D01*
X163270939Y42748604D01*
X163366177Y42796223D01*
X163509034Y42796223D01*
X163604272Y42748604D01*
X163651891Y42700985D01*
X163699510Y42605747D01*
X163699510Y42224794D01*
X163175701Y43129556D02*
X163175701Y43796223D01*
X164175701Y43367651D01*
X163175701Y44081937D02*
X163175701Y44700985D01*
X163556653Y44367651D01*
X163556653Y44510509D01*
X163604272Y44605747D01*
X163651891Y44653366D01*
X163747130Y44700985D01*
X163985225Y44700985D01*
X164080463Y44653366D01*
X164128082Y44605747D01*
X164175701Y44510509D01*
X164175701Y44224794D01*
X164128082Y44129556D01*
X164080463Y44081937D01*
X157876501Y42796223D02*
X157400310Y42462889D01*
X157876501Y42224794D02*
X156876501Y42224794D01*
X156876501Y42605747D01*
X156924120Y42700985D01*
X156971739Y42748604D01*
X157066977Y42796223D01*
X157209834Y42796223D01*
X157305072Y42748604D01*
X157352691Y42700985D01*
X157400310Y42605747D01*
X157400310Y42224794D01*
X156876501Y43129556D02*
X156876501Y43796223D01*
X157876501Y43367651D01*
X156876501Y44653366D02*
X156876501Y44177175D01*
X157352691Y44129556D01*
X157305072Y44177175D01*
X157257453Y44272413D01*
X157257453Y44510509D01*
X157305072Y44605747D01*
X157352691Y44653366D01*
X157447930Y44700985D01*
X157686025Y44700985D01*
X157781263Y44653366D01*
X157828882Y44605747D01*
X157876501Y44510509D01*
X157876501Y44272413D01*
X157828882Y44177175D01*
X157781263Y44129556D01*
X151602701Y42847023D02*
X151126510Y42513689D01*
X151602701Y42275594D02*
X150602701Y42275594D01*
X150602701Y42656547D01*
X150650320Y42751785D01*
X150697939Y42799404D01*
X150793177Y42847023D01*
X150936034Y42847023D01*
X151031272Y42799404D01*
X151078891Y42751785D01*
X151126510Y42656547D01*
X151126510Y42275594D01*
X150602701Y43180356D02*
X150602701Y43847023D01*
X151602701Y43418451D01*
X150602701Y44132737D02*
X150602701Y44799404D01*
X151602701Y44370832D01*
X145354301Y42872423D02*
X144878110Y42539089D01*
X145354301Y42300994D02*
X144354301Y42300994D01*
X144354301Y42681947D01*
X144401920Y42777185D01*
X144449539Y42824804D01*
X144544777Y42872423D01*
X144687634Y42872423D01*
X144782872Y42824804D01*
X144830491Y42777185D01*
X144878110Y42681947D01*
X144878110Y42300994D01*
X144354301Y43205756D02*
X144354301Y43872423D01*
X145354301Y43443851D01*
X145354301Y44300994D02*
X145354301Y44491470D01*
X145306682Y44586709D01*
X145259063Y44634328D01*
X145116206Y44729566D01*
X144925730Y44777185D01*
X144544777Y44777185D01*
X144449539Y44729566D01*
X144401920Y44681947D01*
X144354301Y44586709D01*
X144354301Y44396232D01*
X144401920Y44300994D01*
X144449539Y44253375D01*
X144544777Y44205756D01*
X144782872Y44205756D01*
X144878110Y44253375D01*
X144925730Y44300994D01*
X144973349Y44396232D01*
X144973349Y44586709D01*
X144925730Y44681947D01*
X144878110Y44729566D01*
X144782872Y44777185D01*
X190642501Y43101023D02*
X190166310Y42767689D01*
X190642501Y42529594D02*
X189642501Y42529594D01*
X189642501Y42910547D01*
X189690120Y43005785D01*
X189737739Y43053404D01*
X189832977Y43101023D01*
X189975834Y43101023D01*
X190071072Y43053404D01*
X190118691Y43005785D01*
X190166310Y42910547D01*
X190166310Y42529594D01*
X190071072Y43672451D02*
X190023453Y43577213D01*
X189975834Y43529594D01*
X189880596Y43481975D01*
X189832977Y43481975D01*
X189737739Y43529594D01*
X189690120Y43577213D01*
X189642501Y43672451D01*
X189642501Y43862928D01*
X189690120Y43958166D01*
X189737739Y44005785D01*
X189832977Y44053404D01*
X189880596Y44053404D01*
X189975834Y44005785D01*
X190023453Y43958166D01*
X190071072Y43862928D01*
X190071072Y43672451D01*
X190118691Y43577213D01*
X190166310Y43529594D01*
X190261549Y43481975D01*
X190452025Y43481975D01*
X190547263Y43529594D01*
X190594882Y43577213D01*
X190642501Y43672451D01*
X190642501Y43862928D01*
X190594882Y43958166D01*
X190547263Y44005785D01*
X190452025Y44053404D01*
X190261549Y44053404D01*
X190166310Y44005785D01*
X190118691Y43958166D01*
X190071072Y43862928D01*
X190642501Y45005785D02*
X190642501Y44434356D01*
X190642501Y44720070D02*
X189642501Y44720070D01*
X189785358Y44624832D01*
X189880596Y44529594D01*
X189928215Y44434356D01*
X197119501Y42999423D02*
X196643310Y42666089D01*
X197119501Y42427994D02*
X196119501Y42427994D01*
X196119501Y42808947D01*
X196167120Y42904185D01*
X196214739Y42951804D01*
X196309977Y42999423D01*
X196452834Y42999423D01*
X196548072Y42951804D01*
X196595691Y42904185D01*
X196643310Y42808947D01*
X196643310Y42427994D01*
X196548072Y43570851D02*
X196500453Y43475613D01*
X196452834Y43427994D01*
X196357596Y43380375D01*
X196309977Y43380375D01*
X196214739Y43427994D01*
X196167120Y43475613D01*
X196119501Y43570851D01*
X196119501Y43761328D01*
X196167120Y43856566D01*
X196214739Y43904185D01*
X196309977Y43951804D01*
X196357596Y43951804D01*
X196452834Y43904185D01*
X196500453Y43856566D01*
X196548072Y43761328D01*
X196548072Y43570851D01*
X196595691Y43475613D01*
X196643310Y43427994D01*
X196738549Y43380375D01*
X196929025Y43380375D01*
X197024263Y43427994D01*
X197071882Y43475613D01*
X197119501Y43570851D01*
X197119501Y43761328D01*
X197071882Y43856566D01*
X197024263Y43904185D01*
X196929025Y43951804D01*
X196738549Y43951804D01*
X196643310Y43904185D01*
X196595691Y43856566D01*
X196548072Y43761328D01*
X196119501Y44285137D02*
X196119501Y44904185D01*
X196500453Y44570851D01*
X196500453Y44713709D01*
X196548072Y44808947D01*
X196595691Y44856566D01*
X196690930Y44904185D01*
X196929025Y44904185D01*
X197024263Y44856566D01*
X197071882Y44808947D01*
X197119501Y44713709D01*
X197119501Y44427994D01*
X197071882Y44332756D01*
X197024263Y44285137D01*
X183987701Y42999423D02*
X183511510Y42666089D01*
X183987701Y42427994D02*
X182987701Y42427994D01*
X182987701Y42808947D01*
X183035320Y42904185D01*
X183082939Y42951804D01*
X183178177Y42999423D01*
X183321034Y42999423D01*
X183416272Y42951804D01*
X183463891Y42904185D01*
X183511510Y42808947D01*
X183511510Y42427994D01*
X183416272Y43570851D02*
X183368653Y43475613D01*
X183321034Y43427994D01*
X183225796Y43380375D01*
X183178177Y43380375D01*
X183082939Y43427994D01*
X183035320Y43475613D01*
X182987701Y43570851D01*
X182987701Y43761328D01*
X183035320Y43856566D01*
X183082939Y43904185D01*
X183178177Y43951804D01*
X183225796Y43951804D01*
X183321034Y43904185D01*
X183368653Y43856566D01*
X183416272Y43761328D01*
X183416272Y43570851D01*
X183463891Y43475613D01*
X183511510Y43427994D01*
X183606749Y43380375D01*
X183797225Y43380375D01*
X183892463Y43427994D01*
X183940082Y43475613D01*
X183987701Y43570851D01*
X183987701Y43761328D01*
X183940082Y43856566D01*
X183892463Y43904185D01*
X183797225Y43951804D01*
X183606749Y43951804D01*
X183511510Y43904185D01*
X183463891Y43856566D01*
X183416272Y43761328D01*
X182987701Y44856566D02*
X182987701Y44380375D01*
X183463891Y44332756D01*
X183416272Y44380375D01*
X183368653Y44475613D01*
X183368653Y44713709D01*
X183416272Y44808947D01*
X183463891Y44856566D01*
X183559130Y44904185D01*
X183797225Y44904185D01*
X183892463Y44856566D01*
X183940082Y44808947D01*
X183987701Y44713709D01*
X183987701Y44475613D01*
X183940082Y44380375D01*
X183892463Y44332756D01*
X177409101Y43050223D02*
X176932910Y42716889D01*
X177409101Y42478794D02*
X176409101Y42478794D01*
X176409101Y42859747D01*
X176456720Y42954985D01*
X176504339Y43002604D01*
X176599577Y43050223D01*
X176742434Y43050223D01*
X176837672Y43002604D01*
X176885291Y42954985D01*
X176932910Y42859747D01*
X176932910Y42478794D01*
X176837672Y43621651D02*
X176790053Y43526413D01*
X176742434Y43478794D01*
X176647196Y43431175D01*
X176599577Y43431175D01*
X176504339Y43478794D01*
X176456720Y43526413D01*
X176409101Y43621651D01*
X176409101Y43812128D01*
X176456720Y43907366D01*
X176504339Y43954985D01*
X176599577Y44002604D01*
X176647196Y44002604D01*
X176742434Y43954985D01*
X176790053Y43907366D01*
X176837672Y43812128D01*
X176837672Y43621651D01*
X176885291Y43526413D01*
X176932910Y43478794D01*
X177028149Y43431175D01*
X177218625Y43431175D01*
X177313863Y43478794D01*
X177361482Y43526413D01*
X177409101Y43621651D01*
X177409101Y43812128D01*
X177361482Y43907366D01*
X177313863Y43954985D01*
X177218625Y44002604D01*
X177028149Y44002604D01*
X176932910Y43954985D01*
X176885291Y43907366D01*
X176837672Y43812128D01*
X176409101Y44335937D02*
X176409101Y45002604D01*
X177409101Y44574032D01*
X167376101Y42796223D02*
X166899910Y42462889D01*
X167376101Y42224794D02*
X166376101Y42224794D01*
X166376101Y42605747D01*
X166423720Y42700985D01*
X166471339Y42748604D01*
X166566577Y42796223D01*
X166709434Y42796223D01*
X166804672Y42748604D01*
X166852291Y42700985D01*
X166899910Y42605747D01*
X166899910Y42224794D01*
X166804672Y43367651D02*
X166757053Y43272413D01*
X166709434Y43224794D01*
X166614196Y43177175D01*
X166566577Y43177175D01*
X166471339Y43224794D01*
X166423720Y43272413D01*
X166376101Y43367651D01*
X166376101Y43558128D01*
X166423720Y43653366D01*
X166471339Y43700985D01*
X166566577Y43748604D01*
X166614196Y43748604D01*
X166709434Y43700985D01*
X166757053Y43653366D01*
X166804672Y43558128D01*
X166804672Y43367651D01*
X166852291Y43272413D01*
X166899910Y43224794D01*
X166995149Y43177175D01*
X167185625Y43177175D01*
X167280863Y43224794D01*
X167328482Y43272413D01*
X167376101Y43367651D01*
X167376101Y43558128D01*
X167328482Y43653366D01*
X167280863Y43700985D01*
X167185625Y43748604D01*
X166995149Y43748604D01*
X166899910Y43700985D01*
X166852291Y43653366D01*
X166804672Y43558128D01*
X167376101Y44224794D02*
X167376101Y44415270D01*
X167328482Y44510509D01*
X167280863Y44558128D01*
X167138006Y44653366D01*
X166947530Y44700985D01*
X166566577Y44700985D01*
X166471339Y44653366D01*
X166423720Y44605747D01*
X166376101Y44510509D01*
X166376101Y44320032D01*
X166423720Y44224794D01*
X166471339Y44177175D01*
X166566577Y44129556D01*
X166804672Y44129556D01*
X166899910Y44177175D01*
X166947530Y44224794D01*
X166995149Y44320032D01*
X166995149Y44510509D01*
X166947530Y44605747D01*
X166899910Y44653366D01*
X166804672Y44700985D01*
X161000701Y42796223D02*
X160524510Y42462889D01*
X161000701Y42224794D02*
X160000701Y42224794D01*
X160000701Y42605747D01*
X160048320Y42700985D01*
X160095939Y42748604D01*
X160191177Y42796223D01*
X160334034Y42796223D01*
X160429272Y42748604D01*
X160476891Y42700985D01*
X160524510Y42605747D01*
X160524510Y42224794D01*
X161000701Y43272413D02*
X161000701Y43462889D01*
X160953082Y43558128D01*
X160905463Y43605747D01*
X160762606Y43700985D01*
X160572130Y43748604D01*
X160191177Y43748604D01*
X160095939Y43700985D01*
X160048320Y43653366D01*
X160000701Y43558128D01*
X160000701Y43367651D01*
X160048320Y43272413D01*
X160095939Y43224794D01*
X160191177Y43177175D01*
X160429272Y43177175D01*
X160524510Y43224794D01*
X160572130Y43272413D01*
X160619749Y43367651D01*
X160619749Y43558128D01*
X160572130Y43653366D01*
X160524510Y43700985D01*
X160429272Y43748604D01*
X161000701Y44700985D02*
X161000701Y44129556D01*
X161000701Y44415270D02*
X160000701Y44415270D01*
X160143558Y44320032D01*
X160238796Y44224794D01*
X160286415Y44129556D01*
X154726901Y42796223D02*
X154250710Y42462889D01*
X154726901Y42224794D02*
X153726901Y42224794D01*
X153726901Y42605747D01*
X153774520Y42700985D01*
X153822139Y42748604D01*
X153917377Y42796223D01*
X154060234Y42796223D01*
X154155472Y42748604D01*
X154203091Y42700985D01*
X154250710Y42605747D01*
X154250710Y42224794D01*
X154726901Y43272413D02*
X154726901Y43462889D01*
X154679282Y43558128D01*
X154631663Y43605747D01*
X154488806Y43700985D01*
X154298330Y43748604D01*
X153917377Y43748604D01*
X153822139Y43700985D01*
X153774520Y43653366D01*
X153726901Y43558128D01*
X153726901Y43367651D01*
X153774520Y43272413D01*
X153822139Y43224794D01*
X153917377Y43177175D01*
X154155472Y43177175D01*
X154250710Y43224794D01*
X154298330Y43272413D01*
X154345949Y43367651D01*
X154345949Y43558128D01*
X154298330Y43653366D01*
X154250710Y43700985D01*
X154155472Y43748604D01*
X153726901Y44081937D02*
X153726901Y44700985D01*
X154107853Y44367651D01*
X154107853Y44510509D01*
X154155472Y44605747D01*
X154203091Y44653366D01*
X154298330Y44700985D01*
X154536425Y44700985D01*
X154631663Y44653366D01*
X154679282Y44605747D01*
X154726901Y44510509D01*
X154726901Y44224794D01*
X154679282Y44129556D01*
X154631663Y44081937D01*
X148503901Y42847023D02*
X148027710Y42513689D01*
X148503901Y42275594D02*
X147503901Y42275594D01*
X147503901Y42656547D01*
X147551520Y42751785D01*
X147599139Y42799404D01*
X147694377Y42847023D01*
X147837234Y42847023D01*
X147932472Y42799404D01*
X147980091Y42751785D01*
X148027710Y42656547D01*
X148027710Y42275594D01*
X148503901Y43323213D02*
X148503901Y43513689D01*
X148456282Y43608928D01*
X148408663Y43656547D01*
X148265806Y43751785D01*
X148075330Y43799404D01*
X147694377Y43799404D01*
X147599139Y43751785D01*
X147551520Y43704166D01*
X147503901Y43608928D01*
X147503901Y43418451D01*
X147551520Y43323213D01*
X147599139Y43275594D01*
X147694377Y43227975D01*
X147932472Y43227975D01*
X148027710Y43275594D01*
X148075330Y43323213D01*
X148122949Y43418451D01*
X148122949Y43608928D01*
X148075330Y43704166D01*
X148027710Y43751785D01*
X147932472Y43799404D01*
X147503901Y44704166D02*
X147503901Y44227975D01*
X147980091Y44180356D01*
X147932472Y44227975D01*
X147884853Y44323213D01*
X147884853Y44561309D01*
X147932472Y44656547D01*
X147980091Y44704166D01*
X148075330Y44751785D01*
X148313425Y44751785D01*
X148408663Y44704166D01*
X148456282Y44656547D01*
X148503901Y44561309D01*
X148503901Y44323213D01*
X148456282Y44227975D01*
X148408663Y44180356D01*
X286400501Y37640023D02*
X285924310Y37306689D01*
X286400501Y37068594D02*
X285400501Y37068594D01*
X285400501Y37449547D01*
X285448120Y37544785D01*
X285495739Y37592404D01*
X285590977Y37640023D01*
X285733834Y37640023D01*
X285829072Y37592404D01*
X285876691Y37544785D01*
X285924310Y37449547D01*
X285924310Y37068594D01*
X286400501Y38116213D02*
X286400501Y38306689D01*
X286352882Y38401928D01*
X286305263Y38449547D01*
X286162406Y38544785D01*
X285971930Y38592404D01*
X285590977Y38592404D01*
X285495739Y38544785D01*
X285448120Y38497166D01*
X285400501Y38401928D01*
X285400501Y38211451D01*
X285448120Y38116213D01*
X285495739Y38068594D01*
X285590977Y38020975D01*
X285829072Y38020975D01*
X285924310Y38068594D01*
X285971930Y38116213D01*
X286019549Y38211451D01*
X286019549Y38401928D01*
X285971930Y38497166D01*
X285924310Y38544785D01*
X285829072Y38592404D01*
X285400501Y38925737D02*
X285400501Y39592404D01*
X286400501Y39163832D01*
X186569362Y-22645619D02*
X186474124Y-22598000D01*
X186378886Y-22502762D01*
X186236029Y-22359905D01*
X186140790Y-22312286D01*
X186045552Y-22312286D01*
X186093171Y-22550381D02*
X185997933Y-22502762D01*
X185902695Y-22407524D01*
X185855076Y-22217048D01*
X185855076Y-21883714D01*
X185902695Y-21693238D01*
X185997933Y-21598000D01*
X186093171Y-21550381D01*
X186283648Y-21550381D01*
X186378886Y-21598000D01*
X186474124Y-21693238D01*
X186521743Y-21883714D01*
X186521743Y-22217048D01*
X186474124Y-22407524D01*
X186378886Y-22502762D01*
X186283648Y-22550381D01*
X186093171Y-22550381D01*
X187474124Y-22550381D02*
X186902695Y-22550381D01*
X187188409Y-22550381D02*
X187188409Y-21550381D01*
X187093171Y-21693238D01*
X186997933Y-21788476D01*
X186902695Y-21836095D01*
X180402695Y-21550381D02*
X180974124Y-21550381D01*
X180688409Y-22550381D02*
X180688409Y-21550381D01*
X181878886Y-22550381D02*
X181545552Y-22074190D01*
X181307457Y-22550381D02*
X181307457Y-21550381D01*
X181688410Y-21550381D01*
X181783648Y-21598000D01*
X181831267Y-21645619D01*
X181878886Y-21740857D01*
X181878886Y-21883714D01*
X181831267Y-21978952D01*
X181783648Y-22026571D01*
X181688410Y-22074190D01*
X181307457Y-22074190D01*
X182259838Y-22264667D02*
X182736029Y-22264667D01*
X182164600Y-22550381D02*
X182497933Y-21550381D01*
X182831267Y-22550381D01*
X183164600Y-22550381D02*
X183164600Y-21550381D01*
X183736029Y-22550381D01*
X183736029Y-21550381D01*
X184164600Y-22502762D02*
X184307457Y-22550381D01*
X184545553Y-22550381D01*
X184640791Y-22502762D01*
X184688410Y-22455143D01*
X184736029Y-22359905D01*
X184736029Y-22264667D01*
X184688410Y-22169429D01*
X184640791Y-22121810D01*
X184545553Y-22074190D01*
X184355076Y-22026571D01*
X184259838Y-21978952D01*
X184212219Y-21931333D01*
X184164600Y-21836095D01*
X184164600Y-21740857D01*
X184212219Y-21645619D01*
X184259838Y-21598000D01*
X184355076Y-21550381D01*
X184593172Y-21550381D01*
X184736029Y-21598000D01*
X185164600Y-22550381D02*
X185164600Y-21550381D01*
X185593171Y-22502762D02*
X185736028Y-22550381D01*
X185974124Y-22550381D01*
X186069362Y-22502762D01*
X186116981Y-22455143D01*
X186164600Y-22359905D01*
X186164600Y-22264667D01*
X186116981Y-22169429D01*
X186069362Y-22121810D01*
X185974124Y-22074190D01*
X185783647Y-22026571D01*
X185688409Y-21978952D01*
X185640790Y-21931333D01*
X185593171Y-21836095D01*
X185593171Y-21740857D01*
X185640790Y-21645619D01*
X185688409Y-21598000D01*
X185783647Y-21550381D01*
X186021743Y-21550381D01*
X186164600Y-21598000D01*
X186450314Y-21550381D02*
X187021743Y-21550381D01*
X186736028Y-22550381D02*
X186736028Y-21550381D01*
X187545552Y-21550381D02*
X187736029Y-21550381D01*
X187831267Y-21598000D01*
X187926505Y-21693238D01*
X187974124Y-21883714D01*
X187974124Y-22217048D01*
X187926505Y-22407524D01*
X187831267Y-22502762D01*
X187736029Y-22550381D01*
X187545552Y-22550381D01*
X187450314Y-22502762D01*
X187355076Y-22407524D01*
X187307457Y-22217048D01*
X187307457Y-21883714D01*
X187355076Y-21693238D01*
X187450314Y-21598000D01*
X187545552Y-21550381D01*
X188974124Y-22550381D02*
X188640790Y-22074190D01*
X188402695Y-22550381D02*
X188402695Y-21550381D01*
X188783648Y-21550381D01*
X188878886Y-21598000D01*
X188926505Y-21645619D01*
X188974124Y-21740857D01*
X188974124Y-21883714D01*
X188926505Y-21978952D01*
X188878886Y-22026571D01*
X188783648Y-22074190D01*
X188402695Y-22074190D01*
X189164600Y-22645619D02*
X189926505Y-22645619D01*
X190164600Y-22550381D02*
X190164600Y-21550381D01*
X190736029Y-22550381D01*
X190736029Y-21550381D01*
X191212219Y-22550381D02*
X191212219Y-21550381D01*
X191593172Y-21550381D01*
X191688410Y-21598000D01*
X191736029Y-21645619D01*
X191783648Y-21740857D01*
X191783648Y-21883714D01*
X191736029Y-21978952D01*
X191688410Y-22026571D01*
X191593172Y-22074190D01*
X191212219Y-22074190D01*
X192212219Y-22550381D02*
X192212219Y-21550381D01*
X192783648Y-22550381D01*
X192783648Y-21550381D01*
X199218562Y-22569419D02*
X199123324Y-22521800D01*
X199028086Y-22426562D01*
X198885229Y-22283705D01*
X198789990Y-22236086D01*
X198694752Y-22236086D01*
X198742371Y-22474181D02*
X198647133Y-22426562D01*
X198551895Y-22331324D01*
X198504276Y-22140848D01*
X198504276Y-21807514D01*
X198551895Y-21617038D01*
X198647133Y-21521800D01*
X198742371Y-21474181D01*
X198932848Y-21474181D01*
X199028086Y-21521800D01*
X199123324Y-21617038D01*
X199170943Y-21807514D01*
X199170943Y-22140848D01*
X199123324Y-22331324D01*
X199028086Y-22426562D01*
X198932848Y-22474181D01*
X198742371Y-22474181D01*
X199551895Y-21569419D02*
X199599514Y-21521800D01*
X199694752Y-21474181D01*
X199932848Y-21474181D01*
X200028086Y-21521800D01*
X200075705Y-21569419D01*
X200123324Y-21664657D01*
X200123324Y-21759895D01*
X200075705Y-21902752D01*
X199504276Y-22474181D01*
X200123324Y-22474181D01*
X193051895Y-21474181D02*
X193623324Y-21474181D01*
X193337609Y-22474181D02*
X193337609Y-21474181D01*
X194528086Y-22474181D02*
X194194752Y-21997990D01*
X193956657Y-22474181D02*
X193956657Y-21474181D01*
X194337610Y-21474181D01*
X194432848Y-21521800D01*
X194480467Y-21569419D01*
X194528086Y-21664657D01*
X194528086Y-21807514D01*
X194480467Y-21902752D01*
X194432848Y-21950371D01*
X194337610Y-21997990D01*
X193956657Y-21997990D01*
X194909038Y-22188467D02*
X195385229Y-22188467D01*
X194813800Y-22474181D02*
X195147133Y-21474181D01*
X195480467Y-22474181D01*
X195813800Y-22474181D02*
X195813800Y-21474181D01*
X196385229Y-22474181D01*
X196385229Y-21474181D01*
X196813800Y-22426562D02*
X196956657Y-22474181D01*
X197194753Y-22474181D01*
X197289991Y-22426562D01*
X197337610Y-22378943D01*
X197385229Y-22283705D01*
X197385229Y-22188467D01*
X197337610Y-22093229D01*
X197289991Y-22045610D01*
X197194753Y-21997990D01*
X197004276Y-21950371D01*
X196909038Y-21902752D01*
X196861419Y-21855133D01*
X196813800Y-21759895D01*
X196813800Y-21664657D01*
X196861419Y-21569419D01*
X196909038Y-21521800D01*
X197004276Y-21474181D01*
X197242372Y-21474181D01*
X197385229Y-21521800D01*
X197813800Y-22474181D02*
X197813800Y-21474181D01*
X198242371Y-22426562D02*
X198385228Y-22474181D01*
X198623324Y-22474181D01*
X198718562Y-22426562D01*
X198766181Y-22378943D01*
X198813800Y-22283705D01*
X198813800Y-22188467D01*
X198766181Y-22093229D01*
X198718562Y-22045610D01*
X198623324Y-21997990D01*
X198432847Y-21950371D01*
X198337609Y-21902752D01*
X198289990Y-21855133D01*
X198242371Y-21759895D01*
X198242371Y-21664657D01*
X198289990Y-21569419D01*
X198337609Y-21521800D01*
X198432847Y-21474181D01*
X198670943Y-21474181D01*
X198813800Y-21521800D01*
X199099514Y-21474181D02*
X199670943Y-21474181D01*
X199385228Y-22474181D02*
X199385228Y-21474181D01*
X200194752Y-21474181D02*
X200385229Y-21474181D01*
X200480467Y-21521800D01*
X200575705Y-21617038D01*
X200623324Y-21807514D01*
X200623324Y-22140848D01*
X200575705Y-22331324D01*
X200480467Y-22426562D01*
X200385229Y-22474181D01*
X200194752Y-22474181D01*
X200099514Y-22426562D01*
X200004276Y-22331324D01*
X199956657Y-22140848D01*
X199956657Y-21807514D01*
X200004276Y-21617038D01*
X200099514Y-21521800D01*
X200194752Y-21474181D01*
X201623324Y-22474181D02*
X201289990Y-21997990D01*
X201051895Y-22474181D02*
X201051895Y-21474181D01*
X201432848Y-21474181D01*
X201528086Y-21521800D01*
X201575705Y-21569419D01*
X201623324Y-21664657D01*
X201623324Y-21807514D01*
X201575705Y-21902752D01*
X201528086Y-21950371D01*
X201432848Y-21997990D01*
X201051895Y-21997990D01*
X201813800Y-22569419D02*
X202575705Y-22569419D01*
X202813800Y-22474181D02*
X202813800Y-21474181D01*
X203385229Y-22474181D01*
X203385229Y-21474181D01*
X203861419Y-22474181D02*
X203861419Y-21474181D01*
X204242372Y-21474181D01*
X204337610Y-21521800D01*
X204385229Y-21569419D01*
X204432848Y-21664657D01*
X204432848Y-21807514D01*
X204385229Y-21902752D01*
X204337610Y-21950371D01*
X204242372Y-21997990D01*
X203861419Y-21997990D01*
X204861419Y-22474181D02*
X204861419Y-21474181D01*
X205432848Y-22474181D01*
X205432848Y-21474181D01*
X212020162Y-22620219D02*
X211924924Y-22572600D01*
X211829686Y-22477362D01*
X211686829Y-22334505D01*
X211591590Y-22286886D01*
X211496352Y-22286886D01*
X211543971Y-22524981D02*
X211448733Y-22477362D01*
X211353495Y-22382124D01*
X211305876Y-22191648D01*
X211305876Y-21858314D01*
X211353495Y-21667838D01*
X211448733Y-21572600D01*
X211543971Y-21524981D01*
X211734448Y-21524981D01*
X211829686Y-21572600D01*
X211924924Y-21667838D01*
X211972543Y-21858314D01*
X211972543Y-22191648D01*
X211924924Y-22382124D01*
X211829686Y-22477362D01*
X211734448Y-22524981D01*
X211543971Y-22524981D01*
X212305876Y-21524981D02*
X212924924Y-21524981D01*
X212591590Y-21905933D01*
X212734448Y-21905933D01*
X212829686Y-21953552D01*
X212877305Y-22001171D01*
X212924924Y-22096410D01*
X212924924Y-22334505D01*
X212877305Y-22429743D01*
X212829686Y-22477362D01*
X212734448Y-22524981D01*
X212448733Y-22524981D01*
X212353495Y-22477362D01*
X212305876Y-22429743D01*
X205853495Y-21524981D02*
X206424924Y-21524981D01*
X206139209Y-22524981D02*
X206139209Y-21524981D01*
X207329686Y-22524981D02*
X206996352Y-22048790D01*
X206758257Y-22524981D02*
X206758257Y-21524981D01*
X207139210Y-21524981D01*
X207234448Y-21572600D01*
X207282067Y-21620219D01*
X207329686Y-21715457D01*
X207329686Y-21858314D01*
X207282067Y-21953552D01*
X207234448Y-22001171D01*
X207139210Y-22048790D01*
X206758257Y-22048790D01*
X207710638Y-22239267D02*
X208186829Y-22239267D01*
X207615400Y-22524981D02*
X207948733Y-21524981D01*
X208282067Y-22524981D01*
X208615400Y-22524981D02*
X208615400Y-21524981D01*
X209186829Y-22524981D01*
X209186829Y-21524981D01*
X209615400Y-22477362D02*
X209758257Y-22524981D01*
X209996353Y-22524981D01*
X210091591Y-22477362D01*
X210139210Y-22429743D01*
X210186829Y-22334505D01*
X210186829Y-22239267D01*
X210139210Y-22144029D01*
X210091591Y-22096410D01*
X209996353Y-22048790D01*
X209805876Y-22001171D01*
X209710638Y-21953552D01*
X209663019Y-21905933D01*
X209615400Y-21810695D01*
X209615400Y-21715457D01*
X209663019Y-21620219D01*
X209710638Y-21572600D01*
X209805876Y-21524981D01*
X210043972Y-21524981D01*
X210186829Y-21572600D01*
X210615400Y-22524981D02*
X210615400Y-21524981D01*
X211043971Y-22477362D02*
X211186828Y-22524981D01*
X211424924Y-22524981D01*
X211520162Y-22477362D01*
X211567781Y-22429743D01*
X211615400Y-22334505D01*
X211615400Y-22239267D01*
X211567781Y-22144029D01*
X211520162Y-22096410D01*
X211424924Y-22048790D01*
X211234447Y-22001171D01*
X211139209Y-21953552D01*
X211091590Y-21905933D01*
X211043971Y-21810695D01*
X211043971Y-21715457D01*
X211091590Y-21620219D01*
X211139209Y-21572600D01*
X211234447Y-21524981D01*
X211472543Y-21524981D01*
X211615400Y-21572600D01*
X211901114Y-21524981D02*
X212472543Y-21524981D01*
X212186828Y-22524981D02*
X212186828Y-21524981D01*
X212996352Y-21524981D02*
X213186829Y-21524981D01*
X213282067Y-21572600D01*
X213377305Y-21667838D01*
X213424924Y-21858314D01*
X213424924Y-22191648D01*
X213377305Y-22382124D01*
X213282067Y-22477362D01*
X213186829Y-22524981D01*
X212996352Y-22524981D01*
X212901114Y-22477362D01*
X212805876Y-22382124D01*
X212758257Y-22191648D01*
X212758257Y-21858314D01*
X212805876Y-21667838D01*
X212901114Y-21572600D01*
X212996352Y-21524981D01*
X214424924Y-22524981D02*
X214091590Y-22048790D01*
X213853495Y-22524981D02*
X213853495Y-21524981D01*
X214234448Y-21524981D01*
X214329686Y-21572600D01*
X214377305Y-21620219D01*
X214424924Y-21715457D01*
X214424924Y-21858314D01*
X214377305Y-21953552D01*
X214329686Y-22001171D01*
X214234448Y-22048790D01*
X213853495Y-22048790D01*
X214615400Y-22620219D02*
X215377305Y-22620219D01*
X215615400Y-22524981D02*
X215615400Y-21524981D01*
X216186829Y-22524981D01*
X216186829Y-21524981D01*
X216663019Y-22524981D02*
X216663019Y-21524981D01*
X217043972Y-21524981D01*
X217139210Y-21572600D01*
X217186829Y-21620219D01*
X217234448Y-21715457D01*
X217234448Y-21858314D01*
X217186829Y-21953552D01*
X217139210Y-22001171D01*
X217043972Y-22048790D01*
X216663019Y-22048790D01*
X217663019Y-22524981D02*
X217663019Y-21524981D01*
X218234448Y-22524981D01*
X218234448Y-21524981D01*
X235913705Y-41498781D02*
X235913705Y-40498781D01*
X236151800Y-40498781D01*
X236294658Y-40546400D01*
X236389896Y-40641638D01*
X236437515Y-40736876D01*
X236485134Y-40927352D01*
X236485134Y-41070210D01*
X236437515Y-41260686D01*
X236389896Y-41355924D01*
X236294658Y-41451162D01*
X236151800Y-41498781D01*
X235913705Y-41498781D01*
X237437515Y-41498781D02*
X236866086Y-41498781D01*
X237151800Y-41498781D02*
X237151800Y-40498781D01*
X237056562Y-40641638D01*
X236961324Y-40736876D01*
X236866086Y-40784495D01*
X236008943Y-49118781D02*
X235532752Y-49118781D01*
X235532752Y-48118781D01*
X236342276Y-48594971D02*
X236675610Y-48594971D01*
X236818467Y-49118781D02*
X236342276Y-49118781D01*
X236342276Y-48118781D01*
X236818467Y-48118781D01*
X237247038Y-49118781D02*
X237247038Y-48118781D01*
X237485133Y-48118781D01*
X237627991Y-48166400D01*
X237723229Y-48261638D01*
X237770848Y-48356876D01*
X237818467Y-48547352D01*
X237818467Y-48690210D01*
X237770848Y-48880686D01*
X237723229Y-48975924D01*
X237627991Y-49071162D01*
X237485133Y-49118781D01*
X237247038Y-49118781D01*
X235913705Y-100833181D02*
X235913705Y-99833181D01*
X236151800Y-99833181D01*
X236294658Y-99880800D01*
X236389896Y-99976038D01*
X236437515Y-100071276D01*
X236485134Y-100261752D01*
X236485134Y-100404610D01*
X236437515Y-100595086D01*
X236389896Y-100690324D01*
X236294658Y-100785562D01*
X236151800Y-100833181D01*
X235913705Y-100833181D01*
X236866086Y-99928419D02*
X236913705Y-99880800D01*
X237008943Y-99833181D01*
X237247039Y-99833181D01*
X237342277Y-99880800D01*
X237389896Y-99928419D01*
X237437515Y-100023657D01*
X237437515Y-100118895D01*
X237389896Y-100261752D01*
X236818467Y-100833181D01*
X237437515Y-100833181D01*
X236008943Y-108453181D02*
X235532752Y-108453181D01*
X235532752Y-107453181D01*
X236342276Y-107929371D02*
X236675610Y-107929371D01*
X236818467Y-108453181D02*
X236342276Y-108453181D01*
X236342276Y-107453181D01*
X236818467Y-107453181D01*
X237247038Y-108453181D02*
X237247038Y-107453181D01*
X237485133Y-107453181D01*
X237627991Y-107500800D01*
X237723229Y-107596038D01*
X237770848Y-107691276D01*
X237818467Y-107881752D01*
X237818467Y-108024610D01*
X237770848Y-108215086D01*
X237723229Y-108310324D01*
X237627991Y-108405562D01*
X237485133Y-108453181D01*
X237247038Y-108453181D01*
X183996105Y-42514781D02*
X183996105Y-41514781D01*
X184234200Y-41514781D01*
X184377058Y-41562400D01*
X184472296Y-41657638D01*
X184519915Y-41752876D01*
X184567534Y-41943352D01*
X184567534Y-42086210D01*
X184519915Y-42276686D01*
X184472296Y-42371924D01*
X184377058Y-42467162D01*
X184234200Y-42514781D01*
X183996105Y-42514781D01*
X184900867Y-41514781D02*
X185519915Y-41514781D01*
X185186581Y-41895733D01*
X185329439Y-41895733D01*
X185424677Y-41943352D01*
X185472296Y-41990971D01*
X185519915Y-42086210D01*
X185519915Y-42324305D01*
X185472296Y-42419543D01*
X185424677Y-42467162D01*
X185329439Y-42514781D01*
X185043724Y-42514781D01*
X184948486Y-42467162D01*
X184900867Y-42419543D01*
X184091343Y-50134781D02*
X183615152Y-50134781D01*
X183615152Y-49134781D01*
X184424676Y-49610971D02*
X184758010Y-49610971D01*
X184900867Y-50134781D02*
X184424676Y-50134781D01*
X184424676Y-49134781D01*
X184900867Y-49134781D01*
X185329438Y-50134781D02*
X185329438Y-49134781D01*
X185567533Y-49134781D01*
X185710391Y-49182400D01*
X185805629Y-49277638D01*
X185853248Y-49372876D01*
X185900867Y-49563352D01*
X185900867Y-49706210D01*
X185853248Y-49896686D01*
X185805629Y-49991924D01*
X185710391Y-50087162D01*
X185567533Y-50134781D01*
X185329438Y-50134781D01*
X184173905Y-101823781D02*
X184173905Y-100823781D01*
X184412000Y-100823781D01*
X184554858Y-100871400D01*
X184650096Y-100966638D01*
X184697715Y-101061876D01*
X184745334Y-101252352D01*
X184745334Y-101395210D01*
X184697715Y-101585686D01*
X184650096Y-101680924D01*
X184554858Y-101776162D01*
X184412000Y-101823781D01*
X184173905Y-101823781D01*
X185602477Y-101157114D02*
X185602477Y-101823781D01*
X185364381Y-100776162D02*
X185126286Y-101490448D01*
X185745334Y-101490448D01*
X184269143Y-109443781D02*
X183792952Y-109443781D01*
X183792952Y-108443781D01*
X184602476Y-108919971D02*
X184935810Y-108919971D01*
X185078667Y-109443781D02*
X184602476Y-109443781D01*
X184602476Y-108443781D01*
X185078667Y-108443781D01*
X185507238Y-109443781D02*
X185507238Y-108443781D01*
X185745333Y-108443781D01*
X185888191Y-108491400D01*
X185983429Y-108586638D01*
X186031048Y-108681876D01*
X186078667Y-108872352D01*
X186078667Y-109015210D01*
X186031048Y-109205686D01*
X185983429Y-109300924D01*
X185888191Y-109396162D01*
X185745333Y-109443781D01*
X185507238Y-109443781D01*
X292098505Y-99893381D02*
X292098505Y-98893381D01*
X292336600Y-98893381D01*
X292479458Y-98941000D01*
X292574696Y-99036238D01*
X292622315Y-99131476D01*
X292669934Y-99321952D01*
X292669934Y-99464810D01*
X292622315Y-99655286D01*
X292574696Y-99750524D01*
X292479458Y-99845762D01*
X292336600Y-99893381D01*
X292098505Y-99893381D01*
X293574696Y-98893381D02*
X293098505Y-98893381D01*
X293050886Y-99369571D01*
X293098505Y-99321952D01*
X293193743Y-99274333D01*
X293431839Y-99274333D01*
X293527077Y-99321952D01*
X293574696Y-99369571D01*
X293622315Y-99464810D01*
X293622315Y-99702905D01*
X293574696Y-99798143D01*
X293527077Y-99845762D01*
X293431839Y-99893381D01*
X293193743Y-99893381D01*
X293098505Y-99845762D01*
X293050886Y-99798143D01*
X292193743Y-107513381D02*
X291717552Y-107513381D01*
X291717552Y-106513381D01*
X292527076Y-106989571D02*
X292860410Y-106989571D01*
X293003267Y-107513381D02*
X292527076Y-107513381D01*
X292527076Y-106513381D01*
X293003267Y-106513381D01*
X293431838Y-107513381D02*
X293431838Y-106513381D01*
X293669933Y-106513381D01*
X293812791Y-106561000D01*
X293908029Y-106656238D01*
X293955648Y-106751476D01*
X294003267Y-106941952D01*
X294003267Y-107084810D01*
X293955648Y-107275286D01*
X293908029Y-107370524D01*
X293812791Y-107465762D01*
X293669933Y-107513381D01*
X293431838Y-107513381D01*
X132205505Y-98801181D02*
X132205505Y-97801181D01*
X132443600Y-97801181D01*
X132586458Y-97848800D01*
X132681696Y-97944038D01*
X132729315Y-98039276D01*
X132776934Y-98229752D01*
X132776934Y-98372610D01*
X132729315Y-98563086D01*
X132681696Y-98658324D01*
X132586458Y-98753562D01*
X132443600Y-98801181D01*
X132205505Y-98801181D01*
X133634077Y-97801181D02*
X133443600Y-97801181D01*
X133348362Y-97848800D01*
X133300743Y-97896419D01*
X133205505Y-98039276D01*
X133157886Y-98229752D01*
X133157886Y-98610705D01*
X133205505Y-98705943D01*
X133253124Y-98753562D01*
X133348362Y-98801181D01*
X133538839Y-98801181D01*
X133634077Y-98753562D01*
X133681696Y-98705943D01*
X133729315Y-98610705D01*
X133729315Y-98372610D01*
X133681696Y-98277371D01*
X133634077Y-98229752D01*
X133538839Y-98182133D01*
X133348362Y-98182133D01*
X133253124Y-98229752D01*
X133205505Y-98277371D01*
X133157886Y-98372610D01*
X132300743Y-106421181D02*
X131824552Y-106421181D01*
X131824552Y-105421181D01*
X132634076Y-105897371D02*
X132967410Y-105897371D01*
X133110267Y-106421181D02*
X132634076Y-106421181D01*
X132634076Y-105421181D01*
X133110267Y-105421181D01*
X133538838Y-106421181D02*
X133538838Y-105421181D01*
X133776933Y-105421181D01*
X133919791Y-105468800D01*
X134015029Y-105564038D01*
X134062648Y-105659276D01*
X134110267Y-105849752D01*
X134110267Y-105992610D01*
X134062648Y-106183086D01*
X134015029Y-106278324D01*
X133919791Y-106373562D01*
X133776933Y-106421181D01*
X133538838Y-106421181D01*
X291692105Y-40558981D02*
X291692105Y-39558981D01*
X291930200Y-39558981D01*
X292073058Y-39606600D01*
X292168296Y-39701838D01*
X292215915Y-39797076D01*
X292263534Y-39987552D01*
X292263534Y-40130410D01*
X292215915Y-40320886D01*
X292168296Y-40416124D01*
X292073058Y-40511362D01*
X291930200Y-40558981D01*
X291692105Y-40558981D01*
X292596867Y-39558981D02*
X293263534Y-39558981D01*
X292834962Y-40558981D01*
X291787343Y-48178981D02*
X291311152Y-48178981D01*
X291311152Y-47178981D01*
X292120676Y-47655171D02*
X292454010Y-47655171D01*
X292596867Y-48178981D02*
X292120676Y-48178981D01*
X292120676Y-47178981D01*
X292596867Y-47178981D01*
X293025438Y-48178981D02*
X293025438Y-47178981D01*
X293263533Y-47178981D01*
X293406391Y-47226600D01*
X293501629Y-47321838D01*
X293549248Y-47417076D01*
X293596867Y-47607552D01*
X293596867Y-47750410D01*
X293549248Y-47940886D01*
X293501629Y-48036124D01*
X293406391Y-48131362D01*
X293263533Y-48178981D01*
X293025438Y-48178981D01*
X132256305Y-39619181D02*
X132256305Y-38619181D01*
X132494400Y-38619181D01*
X132637258Y-38666800D01*
X132732496Y-38762038D01*
X132780115Y-38857276D01*
X132827734Y-39047752D01*
X132827734Y-39190610D01*
X132780115Y-39381086D01*
X132732496Y-39476324D01*
X132637258Y-39571562D01*
X132494400Y-39619181D01*
X132256305Y-39619181D01*
X133399162Y-39047752D02*
X133303924Y-39000133D01*
X133256305Y-38952514D01*
X133208686Y-38857276D01*
X133208686Y-38809657D01*
X133256305Y-38714419D01*
X133303924Y-38666800D01*
X133399162Y-38619181D01*
X133589639Y-38619181D01*
X133684877Y-38666800D01*
X133732496Y-38714419D01*
X133780115Y-38809657D01*
X133780115Y-38857276D01*
X133732496Y-38952514D01*
X133684877Y-39000133D01*
X133589639Y-39047752D01*
X133399162Y-39047752D01*
X133303924Y-39095371D01*
X133256305Y-39142990D01*
X133208686Y-39238229D01*
X133208686Y-39428705D01*
X133256305Y-39523943D01*
X133303924Y-39571562D01*
X133399162Y-39619181D01*
X133589639Y-39619181D01*
X133684877Y-39571562D01*
X133732496Y-39523943D01*
X133780115Y-39428705D01*
X133780115Y-39238229D01*
X133732496Y-39142990D01*
X133684877Y-39095371D01*
X133589639Y-39047752D01*
X132351543Y-47239181D02*
X131875352Y-47239181D01*
X131875352Y-46239181D01*
X132684876Y-46715371D02*
X133018210Y-46715371D01*
X133161067Y-47239181D02*
X132684876Y-47239181D01*
X132684876Y-46239181D01*
X133161067Y-46239181D01*
X133589638Y-47239181D02*
X133589638Y-46239181D01*
X133827733Y-46239181D01*
X133970591Y-46286800D01*
X134065829Y-46382038D01*
X134113448Y-46477276D01*
X134161067Y-46667752D01*
X134161067Y-46810610D01*
X134113448Y-47001086D01*
X134065829Y-47096324D01*
X133970591Y-47191562D01*
X133827733Y-47239181D01*
X133589638Y-47239181D01*
X291692105Y18775419D02*
X291692105Y19775419D01*
X291930200Y19775419D01*
X292073058Y19727800D01*
X292168296Y19632562D01*
X292215915Y19537324D01*
X292263534Y19346848D01*
X292263534Y19203990D01*
X292215915Y19013514D01*
X292168296Y18918276D01*
X292073058Y18823038D01*
X291930200Y18775419D01*
X291692105Y18775419D01*
X292739724Y18775419D02*
X292930200Y18775419D01*
X293025439Y18823038D01*
X293073058Y18870657D01*
X293168296Y19013514D01*
X293215915Y19203990D01*
X293215915Y19584943D01*
X293168296Y19680181D01*
X293120677Y19727800D01*
X293025439Y19775419D01*
X292834962Y19775419D01*
X292739724Y19727800D01*
X292692105Y19680181D01*
X292644486Y19584943D01*
X292644486Y19346848D01*
X292692105Y19251610D01*
X292739724Y19203990D01*
X292834962Y19156371D01*
X293025439Y19156371D01*
X293120677Y19203990D01*
X293168296Y19251610D01*
X293215915Y19346848D01*
X291787343Y11155419D02*
X291311152Y11155419D01*
X291311152Y12155419D01*
X292120676Y11679229D02*
X292454010Y11679229D01*
X292596867Y11155419D02*
X292120676Y11155419D01*
X292120676Y12155419D01*
X292596867Y12155419D01*
X293025438Y11155419D02*
X293025438Y12155419D01*
X293263533Y12155419D01*
X293406391Y12107800D01*
X293501629Y12012562D01*
X293549248Y11917324D01*
X293596867Y11726848D01*
X293596867Y11583990D01*
X293549248Y11393514D01*
X293501629Y11298276D01*
X293406391Y11203038D01*
X293263533Y11155419D01*
X293025438Y11155419D01*
X131627714Y19639019D02*
X131627714Y20639019D01*
X131865809Y20639019D01*
X132008667Y20591400D01*
X132103905Y20496162D01*
X132151524Y20400924D01*
X132199143Y20210448D01*
X132199143Y20067590D01*
X132151524Y19877114D01*
X132103905Y19781876D01*
X132008667Y19686638D01*
X131865809Y19639019D01*
X131627714Y19639019D01*
X133151524Y19639019D02*
X132580095Y19639019D01*
X132865809Y19639019D02*
X132865809Y20639019D01*
X132770571Y20496162D01*
X132675333Y20400924D01*
X132580095Y20353305D01*
X133770571Y20639019D02*
X133865810Y20639019D01*
X133961048Y20591400D01*
X134008667Y20543781D01*
X134056286Y20448543D01*
X134103905Y20258067D01*
X134103905Y20019971D01*
X134056286Y19829495D01*
X134008667Y19734257D01*
X133961048Y19686638D01*
X133865810Y19639019D01*
X133770571Y19639019D01*
X133675333Y19686638D01*
X133627714Y19734257D01*
X133580095Y19829495D01*
X133532476Y20019971D01*
X133532476Y20258067D01*
X133580095Y20448543D01*
X133627714Y20543781D01*
X133675333Y20591400D01*
X133770571Y20639019D01*
X132199143Y12019019D02*
X131722952Y12019019D01*
X131722952Y13019019D01*
X132532476Y12542829D02*
X132865810Y12542829D01*
X133008667Y12019019D02*
X132532476Y12019019D01*
X132532476Y13019019D01*
X133008667Y13019019D01*
X133437238Y12019019D02*
X133437238Y13019019D01*
X133675333Y13019019D01*
X133818191Y12971400D01*
X133913429Y12876162D01*
X133961048Y12780924D01*
X134008667Y12590448D01*
X134008667Y12447590D01*
X133961048Y12257114D01*
X133913429Y12161876D01*
X133818191Y12066638D01*
X133675333Y12019019D01*
X133437238Y12019019D01*
X235335914Y17556219D02*
X235335914Y18556219D01*
X235574009Y18556219D01*
X235716867Y18508600D01*
X235812105Y18413362D01*
X235859724Y18318124D01*
X235907343Y18127648D01*
X235907343Y17984790D01*
X235859724Y17794314D01*
X235812105Y17699076D01*
X235716867Y17603838D01*
X235574009Y17556219D01*
X235335914Y17556219D01*
X236859724Y17556219D02*
X236288295Y17556219D01*
X236574009Y17556219D02*
X236574009Y18556219D01*
X236478771Y18413362D01*
X236383533Y18318124D01*
X236288295Y18270505D01*
X237812105Y17556219D02*
X237240676Y17556219D01*
X237526390Y17556219D02*
X237526390Y18556219D01*
X237431152Y18413362D01*
X237335914Y18318124D01*
X237240676Y18270505D01*
X235907343Y9936219D02*
X235431152Y9936219D01*
X235431152Y10936219D01*
X236240676Y10460029D02*
X236574010Y10460029D01*
X236716867Y9936219D02*
X236240676Y9936219D01*
X236240676Y10936219D01*
X236716867Y10936219D01*
X237145438Y9936219D02*
X237145438Y10936219D01*
X237383533Y10936219D01*
X237526391Y10888600D01*
X237621629Y10793362D01*
X237669248Y10698124D01*
X237716867Y10507648D01*
X237716867Y10364790D01*
X237669248Y10174314D01*
X237621629Y10079076D01*
X237526391Y9983838D01*
X237383533Y9936219D01*
X237145438Y9936219D01*
X131830914Y78668619D02*
X131830914Y79668619D01*
X132069009Y79668619D01*
X132211867Y79621000D01*
X132307105Y79525762D01*
X132354724Y79430524D01*
X132402343Y79240048D01*
X132402343Y79097190D01*
X132354724Y78906714D01*
X132307105Y78811476D01*
X132211867Y78716238D01*
X132069009Y78668619D01*
X131830914Y78668619D01*
X133354724Y78668619D02*
X132783295Y78668619D01*
X133069009Y78668619D02*
X133069009Y79668619D01*
X132973771Y79525762D01*
X132878533Y79430524D01*
X132783295Y79382905D01*
X133735676Y79573381D02*
X133783295Y79621000D01*
X133878533Y79668619D01*
X134116629Y79668619D01*
X134211867Y79621000D01*
X134259486Y79573381D01*
X134307105Y79478143D01*
X134307105Y79382905D01*
X134259486Y79240048D01*
X133688057Y78668619D01*
X134307105Y78668619D01*
X132402343Y71048619D02*
X131926152Y71048619D01*
X131926152Y72048619D01*
X132735676Y71572429D02*
X133069010Y71572429D01*
X133211867Y71048619D02*
X132735676Y71048619D01*
X132735676Y72048619D01*
X133211867Y72048619D01*
X133640438Y71048619D02*
X133640438Y72048619D01*
X133878533Y72048619D01*
X134021391Y72001000D01*
X134116629Y71905762D01*
X134164248Y71810524D01*
X134211867Y71620048D01*
X134211867Y71477190D01*
X134164248Y71286714D01*
X134116629Y71191476D01*
X134021391Y71096238D01*
X133878533Y71048619D01*
X133640438Y71048619D01*
X291292114Y78186019D02*
X291292114Y79186019D01*
X291530209Y79186019D01*
X291673067Y79138400D01*
X291768305Y79043162D01*
X291815924Y78947924D01*
X291863543Y78757448D01*
X291863543Y78614590D01*
X291815924Y78424114D01*
X291768305Y78328876D01*
X291673067Y78233638D01*
X291530209Y78186019D01*
X291292114Y78186019D01*
X292815924Y78186019D02*
X292244495Y78186019D01*
X292530209Y78186019D02*
X292530209Y79186019D01*
X292434971Y79043162D01*
X292339733Y78947924D01*
X292244495Y78900305D01*
X293149257Y79186019D02*
X293768305Y79186019D01*
X293434971Y78805067D01*
X293577829Y78805067D01*
X293673067Y78757448D01*
X293720686Y78709829D01*
X293768305Y78614590D01*
X293768305Y78376495D01*
X293720686Y78281257D01*
X293673067Y78233638D01*
X293577829Y78186019D01*
X293292114Y78186019D01*
X293196876Y78233638D01*
X293149257Y78281257D01*
X291863543Y70566019D02*
X291387352Y70566019D01*
X291387352Y71566019D01*
X292196876Y71089829D02*
X292530210Y71089829D01*
X292673067Y70566019D02*
X292196876Y70566019D01*
X292196876Y71566019D01*
X292673067Y71566019D01*
X293101638Y70566019D02*
X293101638Y71566019D01*
X293339733Y71566019D01*
X293482591Y71518400D01*
X293577829Y71423162D01*
X293625448Y71327924D01*
X293673067Y71137448D01*
X293673067Y70994590D01*
X293625448Y70804114D01*
X293577829Y70708876D01*
X293482591Y70613638D01*
X293339733Y70566019D01*
X293101638Y70566019D01*
X183646914Y76027019D02*
X183646914Y77027019D01*
X183885009Y77027019D01*
X184027867Y76979400D01*
X184123105Y76884162D01*
X184170724Y76788924D01*
X184218343Y76598448D01*
X184218343Y76455590D01*
X184170724Y76265114D01*
X184123105Y76169876D01*
X184027867Y76074638D01*
X183885009Y76027019D01*
X183646914Y76027019D01*
X185170724Y76027019D02*
X184599295Y76027019D01*
X184885009Y76027019D02*
X184885009Y77027019D01*
X184789771Y76884162D01*
X184694533Y76788924D01*
X184599295Y76741305D01*
X186027867Y76693686D02*
X186027867Y76027019D01*
X185789771Y77074638D02*
X185551676Y76360352D01*
X186170724Y76360352D01*
X184218343Y68407019D02*
X183742152Y68407019D01*
X183742152Y69407019D01*
X184551676Y68930829D02*
X184885010Y68930829D01*
X185027867Y68407019D02*
X184551676Y68407019D01*
X184551676Y69407019D01*
X185027867Y69407019D01*
X185456438Y68407019D02*
X185456438Y69407019D01*
X185694533Y69407019D01*
X185837391Y69359400D01*
X185932629Y69264162D01*
X185980248Y69168924D01*
X186027867Y68978448D01*
X186027867Y68835590D01*
X185980248Y68645114D01*
X185932629Y68549876D01*
X185837391Y68454638D01*
X185694533Y68407019D01*
X185456438Y68407019D01*
X183469114Y16743419D02*
X183469114Y17743419D01*
X183707209Y17743419D01*
X183850067Y17695800D01*
X183945305Y17600562D01*
X183992924Y17505324D01*
X184040543Y17314848D01*
X184040543Y17171990D01*
X183992924Y16981514D01*
X183945305Y16886276D01*
X183850067Y16791038D01*
X183707209Y16743419D01*
X183469114Y16743419D01*
X184992924Y16743419D02*
X184421495Y16743419D01*
X184707209Y16743419D02*
X184707209Y17743419D01*
X184611971Y17600562D01*
X184516733Y17505324D01*
X184421495Y17457705D01*
X185897686Y17743419D02*
X185421495Y17743419D01*
X185373876Y17267229D01*
X185421495Y17314848D01*
X185516733Y17362467D01*
X185754829Y17362467D01*
X185850067Y17314848D01*
X185897686Y17267229D01*
X185945305Y17171990D01*
X185945305Y16933895D01*
X185897686Y16838657D01*
X185850067Y16791038D01*
X185754829Y16743419D01*
X185516733Y16743419D01*
X185421495Y16791038D01*
X185373876Y16838657D01*
X184040543Y9123419D02*
X183564352Y9123419D01*
X183564352Y10123419D01*
X184373876Y9647229D02*
X184707210Y9647229D01*
X184850067Y9123419D02*
X184373876Y9123419D01*
X184373876Y10123419D01*
X184850067Y10123419D01*
X185278638Y9123419D02*
X185278638Y10123419D01*
X185516733Y10123419D01*
X185659591Y10075800D01*
X185754829Y9980562D01*
X185802448Y9885324D01*
X185850067Y9694848D01*
X185850067Y9551990D01*
X185802448Y9361514D01*
X185754829Y9266276D01*
X185659591Y9171038D01*
X185516733Y9123419D01*
X185278638Y9123419D01*
X235666114Y76636619D02*
X235666114Y77636619D01*
X235904209Y77636619D01*
X236047067Y77589000D01*
X236142305Y77493762D01*
X236189924Y77398524D01*
X236237543Y77208048D01*
X236237543Y77065190D01*
X236189924Y76874714D01*
X236142305Y76779476D01*
X236047067Y76684238D01*
X235904209Y76636619D01*
X235666114Y76636619D01*
X237189924Y76636619D02*
X236618495Y76636619D01*
X236904209Y76636619D02*
X236904209Y77636619D01*
X236808971Y77493762D01*
X236713733Y77398524D01*
X236618495Y77350905D01*
X238047067Y77636619D02*
X237856590Y77636619D01*
X237761352Y77589000D01*
X237713733Y77541381D01*
X237618495Y77398524D01*
X237570876Y77208048D01*
X237570876Y76827095D01*
X237618495Y76731857D01*
X237666114Y76684238D01*
X237761352Y76636619D01*
X237951829Y76636619D01*
X238047067Y76684238D01*
X238094686Y76731857D01*
X238142305Y76827095D01*
X238142305Y77065190D01*
X238094686Y77160429D01*
X238047067Y77208048D01*
X237951829Y77255667D01*
X237761352Y77255667D01*
X237666114Y77208048D01*
X237618495Y77160429D01*
X237570876Y77065190D01*
X236237543Y69016619D02*
X235761352Y69016619D01*
X235761352Y70016619D01*
X236570876Y69540429D02*
X236904210Y69540429D01*
X237047067Y69016619D02*
X236570876Y69016619D01*
X236570876Y70016619D01*
X237047067Y70016619D01*
X237475638Y69016619D02*
X237475638Y70016619D01*
X237713733Y70016619D01*
X237856591Y69969000D01*
X237951829Y69873762D01*
X237999448Y69778524D01*
X238047067Y69588048D01*
X238047067Y69445190D01*
X237999448Y69254714D01*
X237951829Y69159476D01*
X237856591Y69064238D01*
X237713733Y69016619D01*
X237475638Y69016619D01*
X239385101Y-34775377D02*
X238908910Y-35108711D01*
X239385101Y-35346806D02*
X238385101Y-35346806D01*
X238385101Y-34965853D01*
X238432720Y-34870615D01*
X238480339Y-34822996D01*
X238575577Y-34775377D01*
X238718434Y-34775377D01*
X238813672Y-34822996D01*
X238861291Y-34870615D01*
X238908910Y-34965853D01*
X238908910Y-35346806D01*
X238718434Y-33918234D02*
X239385101Y-33918234D01*
X238337482Y-34156330D02*
X239051768Y-34394425D01*
X239051768Y-33775377D01*
X239385101Y-33346806D02*
X239385101Y-33156330D01*
X239337482Y-33061091D01*
X239289863Y-33013472D01*
X239147006Y-32918234D01*
X238956530Y-32870615D01*
X238575577Y-32870615D01*
X238480339Y-32918234D01*
X238432720Y-32965853D01*
X238385101Y-33061091D01*
X238385101Y-33251568D01*
X238432720Y-33346806D01*
X238480339Y-33394425D01*
X238575577Y-33442044D01*
X238813672Y-33442044D01*
X238908910Y-33394425D01*
X238956530Y-33346806D01*
X239004149Y-33251568D01*
X239004149Y-33061091D01*
X238956530Y-32965853D01*
X238908910Y-32918234D01*
X238813672Y-32870615D01*
X234508301Y-99799377D02*
X234032110Y-100132711D01*
X234508301Y-100370806D02*
X233508301Y-100370806D01*
X233508301Y-99989853D01*
X233555920Y-99894615D01*
X233603539Y-99846996D01*
X233698777Y-99799377D01*
X233841634Y-99799377D01*
X233936872Y-99846996D01*
X233984491Y-99894615D01*
X234032110Y-99989853D01*
X234032110Y-100370806D01*
X233508301Y-98894615D02*
X233508301Y-99370806D01*
X233984491Y-99418425D01*
X233936872Y-99370806D01*
X233889253Y-99275568D01*
X233889253Y-99037472D01*
X233936872Y-98942234D01*
X233984491Y-98894615D01*
X234079730Y-98846996D01*
X234317825Y-98846996D01*
X234413063Y-98894615D01*
X234460682Y-98942234D01*
X234508301Y-99037472D01*
X234508301Y-99275568D01*
X234460682Y-99370806D01*
X234413063Y-99418425D01*
X233508301Y-98227949D02*
X233508301Y-98132710D01*
X233555920Y-98037472D01*
X233603539Y-97989853D01*
X233698777Y-97942234D01*
X233889253Y-97894615D01*
X234127349Y-97894615D01*
X234317825Y-97942234D01*
X234413063Y-97989853D01*
X234460682Y-98037472D01*
X234508301Y-98132710D01*
X234508301Y-98227949D01*
X234460682Y-98323187D01*
X234413063Y-98370806D01*
X234317825Y-98418425D01*
X234127349Y-98466044D01*
X233889253Y-98466044D01*
X233698777Y-98418425D01*
X233603539Y-98370806D01*
X233555920Y-98323187D01*
X233508301Y-98227949D01*
X182463701Y-41709577D02*
X181987510Y-42042911D01*
X182463701Y-42281006D02*
X181463701Y-42281006D01*
X181463701Y-41900053D01*
X181511320Y-41804815D01*
X181558939Y-41757196D01*
X181654177Y-41709577D01*
X181797034Y-41709577D01*
X181892272Y-41757196D01*
X181939891Y-41804815D01*
X181987510Y-41900053D01*
X181987510Y-42281006D01*
X181463701Y-40804815D02*
X181463701Y-41281006D01*
X181939891Y-41328625D01*
X181892272Y-41281006D01*
X181844653Y-41185768D01*
X181844653Y-40947672D01*
X181892272Y-40852434D01*
X181939891Y-40804815D01*
X182035130Y-40757196D01*
X182273225Y-40757196D01*
X182368463Y-40804815D01*
X182416082Y-40852434D01*
X182463701Y-40947672D01*
X182463701Y-41185768D01*
X182416082Y-41281006D01*
X182368463Y-41328625D01*
X182463701Y-39804815D02*
X182463701Y-40376244D01*
X182463701Y-40090530D02*
X181463701Y-40090530D01*
X181606558Y-40185768D01*
X181701796Y-40281006D01*
X181749415Y-40376244D01*
X185892701Y-94566977D02*
X185416510Y-94900311D01*
X185892701Y-95138406D02*
X184892701Y-95138406D01*
X184892701Y-94757453D01*
X184940320Y-94662215D01*
X184987939Y-94614596D01*
X185083177Y-94566977D01*
X185226034Y-94566977D01*
X185321272Y-94614596D01*
X185368891Y-94662215D01*
X185416510Y-94757453D01*
X185416510Y-95138406D01*
X184892701Y-93662215D02*
X184892701Y-94138406D01*
X185368891Y-94186025D01*
X185321272Y-94138406D01*
X185273653Y-94043168D01*
X185273653Y-93805072D01*
X185321272Y-93709834D01*
X185368891Y-93662215D01*
X185464130Y-93614596D01*
X185702225Y-93614596D01*
X185797463Y-93662215D01*
X185845082Y-93709834D01*
X185892701Y-93805072D01*
X185892701Y-94043168D01*
X185845082Y-94138406D01*
X185797463Y-94186025D01*
X184987939Y-93233644D02*
X184940320Y-93186025D01*
X184892701Y-93090787D01*
X184892701Y-92852691D01*
X184940320Y-92757453D01*
X184987939Y-92709834D01*
X185083177Y-92662215D01*
X185178415Y-92662215D01*
X185321272Y-92709834D01*
X185892701Y-93281263D01*
X185892701Y-92662215D01*
X295569901Y-91747577D02*
X295093710Y-92080911D01*
X295569901Y-92319006D02*
X294569901Y-92319006D01*
X294569901Y-91938053D01*
X294617520Y-91842815D01*
X294665139Y-91795196D01*
X294760377Y-91747577D01*
X294903234Y-91747577D01*
X294998472Y-91795196D01*
X295046091Y-91842815D01*
X295093710Y-91938053D01*
X295093710Y-92319006D01*
X294569901Y-90842815D02*
X294569901Y-91319006D01*
X295046091Y-91366625D01*
X294998472Y-91319006D01*
X294950853Y-91223768D01*
X294950853Y-90985672D01*
X294998472Y-90890434D01*
X295046091Y-90842815D01*
X295141330Y-90795196D01*
X295379425Y-90795196D01*
X295474663Y-90842815D01*
X295522282Y-90890434D01*
X295569901Y-90985672D01*
X295569901Y-91223768D01*
X295522282Y-91319006D01*
X295474663Y-91366625D01*
X294569901Y-90461863D02*
X294569901Y-89842815D01*
X294950853Y-90176149D01*
X294950853Y-90033291D01*
X294998472Y-89938053D01*
X295046091Y-89890434D01*
X295141330Y-89842815D01*
X295379425Y-89842815D01*
X295474663Y-89890434D01*
X295522282Y-89938053D01*
X295569901Y-90033291D01*
X295569901Y-90319006D01*
X295522282Y-90414244D01*
X295474663Y-90461863D01*
X135651501Y-91696777D02*
X135175310Y-92030111D01*
X135651501Y-92268206D02*
X134651501Y-92268206D01*
X134651501Y-91887253D01*
X134699120Y-91792015D01*
X134746739Y-91744396D01*
X134841977Y-91696777D01*
X134984834Y-91696777D01*
X135080072Y-91744396D01*
X135127691Y-91792015D01*
X135175310Y-91887253D01*
X135175310Y-92268206D01*
X134651501Y-90792015D02*
X134651501Y-91268206D01*
X135127691Y-91315825D01*
X135080072Y-91268206D01*
X135032453Y-91172968D01*
X135032453Y-90934872D01*
X135080072Y-90839634D01*
X135127691Y-90792015D01*
X135222930Y-90744396D01*
X135461025Y-90744396D01*
X135556263Y-90792015D01*
X135603882Y-90839634D01*
X135651501Y-90934872D01*
X135651501Y-91172968D01*
X135603882Y-91268206D01*
X135556263Y-91315825D01*
X134984834Y-89887253D02*
X135651501Y-89887253D01*
X134603882Y-90125349D02*
X135318168Y-90363444D01*
X135318168Y-89744396D01*
X295366701Y-33225977D02*
X294890510Y-33559311D01*
X295366701Y-33797406D02*
X294366701Y-33797406D01*
X294366701Y-33416453D01*
X294414320Y-33321215D01*
X294461939Y-33273596D01*
X294557177Y-33225977D01*
X294700034Y-33225977D01*
X294795272Y-33273596D01*
X294842891Y-33321215D01*
X294890510Y-33416453D01*
X294890510Y-33797406D01*
X294366701Y-32321215D02*
X294366701Y-32797406D01*
X294842891Y-32845025D01*
X294795272Y-32797406D01*
X294747653Y-32702168D01*
X294747653Y-32464072D01*
X294795272Y-32368834D01*
X294842891Y-32321215D01*
X294938130Y-32273596D01*
X295176225Y-32273596D01*
X295271463Y-32321215D01*
X295319082Y-32368834D01*
X295366701Y-32464072D01*
X295366701Y-32702168D01*
X295319082Y-32797406D01*
X295271463Y-32845025D01*
X294366701Y-31368834D02*
X294366701Y-31845025D01*
X294842891Y-31892644D01*
X294795272Y-31845025D01*
X294747653Y-31749787D01*
X294747653Y-31511691D01*
X294795272Y-31416453D01*
X294842891Y-31368834D01*
X294938130Y-31321215D01*
X295176225Y-31321215D01*
X295271463Y-31368834D01*
X295319082Y-31416453D01*
X295366701Y-31511691D01*
X295366701Y-31749787D01*
X295319082Y-31845025D01*
X295271463Y-31892644D01*
X135912623Y-52898301D02*
X135579289Y-52422110D01*
X135341194Y-52898301D02*
X135341194Y-51898301D01*
X135722147Y-51898301D01*
X135817385Y-51945920D01*
X135865004Y-51993539D01*
X135912623Y-52088777D01*
X135912623Y-52231634D01*
X135865004Y-52326872D01*
X135817385Y-52374491D01*
X135722147Y-52422110D01*
X135341194Y-52422110D01*
X136817385Y-51898301D02*
X136341194Y-51898301D01*
X136293575Y-52374491D01*
X136341194Y-52326872D01*
X136436432Y-52279253D01*
X136674528Y-52279253D01*
X136769766Y-52326872D01*
X136817385Y-52374491D01*
X136865004Y-52469730D01*
X136865004Y-52707825D01*
X136817385Y-52803063D01*
X136769766Y-52850682D01*
X136674528Y-52898301D01*
X136436432Y-52898301D01*
X136341194Y-52850682D01*
X136293575Y-52803063D01*
X137722147Y-51898301D02*
X137531670Y-51898301D01*
X137436432Y-51945920D01*
X137388813Y-51993539D01*
X137293575Y-52136396D01*
X137245956Y-52326872D01*
X137245956Y-52707825D01*
X137293575Y-52803063D01*
X137341194Y-52850682D01*
X137436432Y-52898301D01*
X137626909Y-52898301D01*
X137722147Y-52850682D01*
X137769766Y-52803063D01*
X137817385Y-52707825D01*
X137817385Y-52469730D01*
X137769766Y-52374491D01*
X137722147Y-52326872D01*
X137626909Y-52279253D01*
X137436432Y-52279253D01*
X137341194Y-52326872D01*
X137293575Y-52374491D01*
X137245956Y-52469730D01*
X288163261Y3441463D02*
X287687070Y3108129D01*
X288163261Y2870034D02*
X287163261Y2870034D01*
X287163261Y3250987D01*
X287210880Y3346225D01*
X287258499Y3393844D01*
X287353737Y3441463D01*
X287496594Y3441463D01*
X287591832Y3393844D01*
X287639451Y3346225D01*
X287687070Y3250987D01*
X287687070Y2870034D01*
X287163261Y4346225D02*
X287163261Y3870034D01*
X287639451Y3822415D01*
X287591832Y3870034D01*
X287544213Y3965272D01*
X287544213Y4203368D01*
X287591832Y4298606D01*
X287639451Y4346225D01*
X287734690Y4393844D01*
X287972785Y4393844D01*
X288068023Y4346225D01*
X288115642Y4298606D01*
X288163261Y4203368D01*
X288163261Y3965272D01*
X288115642Y3870034D01*
X288068023Y3822415D01*
X287163261Y4727177D02*
X287163261Y5393844D01*
X288163261Y4965272D01*
X128448061Y5448063D02*
X127971870Y5114729D01*
X128448061Y4876634D02*
X127448061Y4876634D01*
X127448061Y5257587D01*
X127495680Y5352825D01*
X127543299Y5400444D01*
X127638537Y5448063D01*
X127781394Y5448063D01*
X127876632Y5400444D01*
X127924251Y5352825D01*
X127971870Y5257587D01*
X127971870Y4876634D01*
X127448061Y6352825D02*
X127448061Y5876634D01*
X127924251Y5829015D01*
X127876632Y5876634D01*
X127829013Y5971872D01*
X127829013Y6209968D01*
X127876632Y6305206D01*
X127924251Y6352825D01*
X128019490Y6400444D01*
X128257585Y6400444D01*
X128352823Y6352825D01*
X128400442Y6305206D01*
X128448061Y6209968D01*
X128448061Y5971872D01*
X128400442Y5876634D01*
X128352823Y5829015D01*
X127876632Y6971872D02*
X127829013Y6876634D01*
X127781394Y6829015D01*
X127686156Y6781396D01*
X127638537Y6781396D01*
X127543299Y6829015D01*
X127495680Y6876634D01*
X127448061Y6971872D01*
X127448061Y7162349D01*
X127495680Y7257587D01*
X127543299Y7305206D01*
X127638537Y7352825D01*
X127686156Y7352825D01*
X127781394Y7305206D01*
X127829013Y7257587D01*
X127876632Y7162349D01*
X127876632Y6971872D01*
X127924251Y6876634D01*
X127971870Y6829015D01*
X128067109Y6781396D01*
X128257585Y6781396D01*
X128352823Y6829015D01*
X128400442Y6876634D01*
X128448061Y6971872D01*
X128448061Y7162349D01*
X128400442Y7257587D01*
X128352823Y7305206D01*
X128257585Y7352825D01*
X128067109Y7352825D01*
X127971870Y7305206D01*
X127924251Y7257587D01*
X127876632Y7162349D01*
X232664261Y1790463D02*
X232188070Y1457129D01*
X232664261Y1219034D02*
X231664261Y1219034D01*
X231664261Y1599987D01*
X231711880Y1695225D01*
X231759499Y1742844D01*
X231854737Y1790463D01*
X231997594Y1790463D01*
X232092832Y1742844D01*
X232140451Y1695225D01*
X232188070Y1599987D01*
X232188070Y1219034D01*
X231664261Y2695225D02*
X231664261Y2219034D01*
X232140451Y2171415D01*
X232092832Y2219034D01*
X232045213Y2314272D01*
X232045213Y2552368D01*
X232092832Y2647606D01*
X232140451Y2695225D01*
X232235690Y2742844D01*
X232473785Y2742844D01*
X232569023Y2695225D01*
X232616642Y2647606D01*
X232664261Y2552368D01*
X232664261Y2314272D01*
X232616642Y2219034D01*
X232569023Y2171415D01*
X232664261Y3219034D02*
X232664261Y3409510D01*
X232616642Y3504749D01*
X232569023Y3552368D01*
X232426166Y3647606D01*
X232235690Y3695225D01*
X231854737Y3695225D01*
X231759499Y3647606D01*
X231711880Y3599987D01*
X231664261Y3504749D01*
X231664261Y3314272D01*
X231711880Y3219034D01*
X231759499Y3171415D01*
X231854737Y3123796D01*
X232092832Y3123796D01*
X232188070Y3171415D01*
X232235690Y3219034D01*
X232283309Y3314272D01*
X232283309Y3504749D01*
X232235690Y3599987D01*
X232188070Y3647606D01*
X232092832Y3695225D01*
X128727461Y64503063D02*
X128251270Y64169729D01*
X128727461Y63931634D02*
X127727461Y63931634D01*
X127727461Y64312587D01*
X127775080Y64407825D01*
X127822699Y64455444D01*
X127917937Y64503063D01*
X128060794Y64503063D01*
X128156032Y64455444D01*
X128203651Y64407825D01*
X128251270Y64312587D01*
X128251270Y63931634D01*
X127727461Y65360206D02*
X127727461Y65169729D01*
X127775080Y65074491D01*
X127822699Y65026872D01*
X127965556Y64931634D01*
X128156032Y64884015D01*
X128536985Y64884015D01*
X128632223Y64931634D01*
X128679842Y64979253D01*
X128727461Y65074491D01*
X128727461Y65264968D01*
X128679842Y65360206D01*
X128632223Y65407825D01*
X128536985Y65455444D01*
X128298890Y65455444D01*
X128203651Y65407825D01*
X128156032Y65360206D01*
X128108413Y65264968D01*
X128108413Y65074491D01*
X128156032Y64979253D01*
X128203651Y64931634D01*
X128298890Y64884015D01*
X127727461Y66074491D02*
X127727461Y66169730D01*
X127775080Y66264968D01*
X127822699Y66312587D01*
X127917937Y66360206D01*
X128108413Y66407825D01*
X128346509Y66407825D01*
X128536985Y66360206D01*
X128632223Y66312587D01*
X128679842Y66264968D01*
X128727461Y66169730D01*
X128727461Y66074491D01*
X128679842Y65979253D01*
X128632223Y65931634D01*
X128536985Y65884015D01*
X128346509Y65836396D01*
X128108413Y65836396D01*
X127917937Y65884015D01*
X127822699Y65931634D01*
X127775080Y65979253D01*
X127727461Y66074491D01*
X284023061Y69354463D02*
X283546870Y69021129D01*
X284023061Y68783034D02*
X283023061Y68783034D01*
X283023061Y69163987D01*
X283070680Y69259225D01*
X283118299Y69306844D01*
X283213537Y69354463D01*
X283356394Y69354463D01*
X283451632Y69306844D01*
X283499251Y69259225D01*
X283546870Y69163987D01*
X283546870Y68783034D01*
X283023061Y70211606D02*
X283023061Y70021129D01*
X283070680Y69925891D01*
X283118299Y69878272D01*
X283261156Y69783034D01*
X283451632Y69735415D01*
X283832585Y69735415D01*
X283927823Y69783034D01*
X283975442Y69830653D01*
X284023061Y69925891D01*
X284023061Y70116368D01*
X283975442Y70211606D01*
X283927823Y70259225D01*
X283832585Y70306844D01*
X283594490Y70306844D01*
X283499251Y70259225D01*
X283451632Y70211606D01*
X283404013Y70116368D01*
X283404013Y69925891D01*
X283451632Y69830653D01*
X283499251Y69783034D01*
X283594490Y69735415D01*
X284023061Y71259225D02*
X284023061Y70687796D01*
X284023061Y70973510D02*
X283023061Y70973510D01*
X283165918Y70878272D01*
X283261156Y70783034D01*
X283308775Y70687796D01*
X189941461Y71056263D02*
X189465270Y70722929D01*
X189941461Y70484834D02*
X188941461Y70484834D01*
X188941461Y70865787D01*
X188989080Y70961025D01*
X189036699Y71008644D01*
X189131937Y71056263D01*
X189274794Y71056263D01*
X189370032Y71008644D01*
X189417651Y70961025D01*
X189465270Y70865787D01*
X189465270Y70484834D01*
X188941461Y71913406D02*
X188941461Y71722929D01*
X188989080Y71627691D01*
X189036699Y71580072D01*
X189179556Y71484834D01*
X189370032Y71437215D01*
X189750985Y71437215D01*
X189846223Y71484834D01*
X189893842Y71532453D01*
X189941461Y71627691D01*
X189941461Y71818168D01*
X189893842Y71913406D01*
X189846223Y71961025D01*
X189750985Y72008644D01*
X189512890Y72008644D01*
X189417651Y71961025D01*
X189370032Y71913406D01*
X189322413Y71818168D01*
X189322413Y71627691D01*
X189370032Y71532453D01*
X189417651Y71484834D01*
X189512890Y71437215D01*
X189036699Y72389596D02*
X188989080Y72437215D01*
X188941461Y72532453D01*
X188941461Y72770549D01*
X188989080Y72865787D01*
X189036699Y72913406D01*
X189131937Y72961025D01*
X189227175Y72961025D01*
X189370032Y72913406D01*
X189941461Y72341977D01*
X189941461Y72961025D01*
X176403261Y8064263D02*
X175927070Y7730929D01*
X176403261Y7492834D02*
X175403261Y7492834D01*
X175403261Y7873787D01*
X175450880Y7969025D01*
X175498499Y8016644D01*
X175593737Y8064263D01*
X175736594Y8064263D01*
X175831832Y8016644D01*
X175879451Y7969025D01*
X175927070Y7873787D01*
X175927070Y7492834D01*
X175403261Y8921406D02*
X175403261Y8730929D01*
X175450880Y8635691D01*
X175498499Y8588072D01*
X175641356Y8492834D01*
X175831832Y8445215D01*
X176212785Y8445215D01*
X176308023Y8492834D01*
X176355642Y8540453D01*
X176403261Y8635691D01*
X176403261Y8826168D01*
X176355642Y8921406D01*
X176308023Y8969025D01*
X176212785Y9016644D01*
X175974690Y9016644D01*
X175879451Y8969025D01*
X175831832Y8921406D01*
X175784213Y8826168D01*
X175784213Y8635691D01*
X175831832Y8540453D01*
X175879451Y8492834D01*
X175974690Y8445215D01*
X175403261Y9349977D02*
X175403261Y9969025D01*
X175784213Y9635691D01*
X175784213Y9778549D01*
X175831832Y9873787D01*
X175879451Y9921406D01*
X175974690Y9969025D01*
X176212785Y9969025D01*
X176308023Y9921406D01*
X176355642Y9873787D01*
X176403261Y9778549D01*
X176403261Y9492834D01*
X176355642Y9397596D01*
X176308023Y9349977D01*
X228803461Y67805063D02*
X228327270Y67471729D01*
X228803461Y67233634D02*
X227803461Y67233634D01*
X227803461Y67614587D01*
X227851080Y67709825D01*
X227898699Y67757444D01*
X227993937Y67805063D01*
X228136794Y67805063D01*
X228232032Y67757444D01*
X228279651Y67709825D01*
X228327270Y67614587D01*
X228327270Y67233634D01*
X227803461Y68662206D02*
X227803461Y68471729D01*
X227851080Y68376491D01*
X227898699Y68328872D01*
X228041556Y68233634D01*
X228232032Y68186015D01*
X228612985Y68186015D01*
X228708223Y68233634D01*
X228755842Y68281253D01*
X228803461Y68376491D01*
X228803461Y68566968D01*
X228755842Y68662206D01*
X228708223Y68709825D01*
X228612985Y68757444D01*
X228374890Y68757444D01*
X228279651Y68709825D01*
X228232032Y68662206D01*
X228184413Y68566968D01*
X228184413Y68376491D01*
X228232032Y68281253D01*
X228279651Y68233634D01*
X228374890Y68186015D01*
X228136794Y69614587D02*
X228803461Y69614587D01*
X227755842Y69376491D02*
X228470128Y69138396D01*
X228470128Y69757444D01*
M02*
