  0
SECTION
  2
HEADER
  9
$ACADVER
  1
AC1014
  9
$HANDSEED
  5
FFFF
  9
$MEASUREMENT
 70
     1
  0
ENDSEC
  0
SECTION
  2
TABLES
  0
TABLE
  2
VPORT
  5
8
330
0
100
AcDbSymbolTable
 70
     4
  0
VPORT
  5
2E
330
8
100
AcDbSymbolTableRecord
100
AcDbViewportTableRecord
  2
*ACTIVE
 70
     0
 10
0.0
 20
0.0
 11
1.0
 21
1.0
 12
210.0
 22
148.5
 13
0.0
 23
0.0
 14
10.0
 24
10.0
 15
10.0
 25
10.0
 16
0.0
 26
0.0
 36
1.0
 17
0.0
 27
0.0
 37
0.0
 40
341.0
 41
1.24
 42
50.0
 43
0.0
 44
0.0
 50
0.0
 51
0.0
 71
     0
 72
   100
 73
     1
 74
     3
 75
     0
 76
     0
 77
     0
 78
     0
  0
ENDTAB
  0
TABLE
  2
LTYPE
  5
5
330
0
100
AcDbSymbolTable
 70
     1
  0
LTYPE
  5
14
330
5
100
AcDbSymbolTableRecord
100
AcDbLinetypeTableRecord
  2
BYBLOCK
 70
     0
  3

 72
    65
 73
     0
 40
0.0
  0
LTYPE
  5
15
330
5
100
AcDbSymbolTableRecord
100
AcDbLinetypeTableRecord
  2
BYLAYER
 70
     0
  3

 72
    65
 73
     0
 40
0.0
  0
LTYPE
  5
16
330
5
100
AcDbSymbolTableRecord
100
AcDbLinetypeTableRecord
  2
CONTINUOUS
 70
     0
  3
Solid line
 72
    65
 73
     0
 40
0.0
  0
ENDTAB
  0
TABLE
  2
LAYER
  5
2
100
AcDbSymbolTable
 70
1
  0
LAYER
  5
50
100
AcDbSymbolTableRecord
100
AcDbLayerTableRecord
  2
0
 70
0
  6
CONTINUOUS
  0
ENDTAB
  0
TABLE
  2
STYLE
  5
3
330
0
100
AcDbSymbolTable
 70
     1
  0
STYLE
  5
11
330
3
100
AcDbSymbolTableRecord
100
AcDbTextStyleTableRecord
  2
STANDARD
 70
     0
 40
0.0
 41
1.0
 50
0.0
 71
     0
 42
2.5
  3
txt
  4

  0
ENDTAB
  0
TABLE
  2
VIEW
  5
6
330
0
100
AcDbSymbolTable
 70
     0
  0
ENDTAB
  0
TABLE
  2
UCS
  5
7
330
0
100
AcDbSymbolTable
 70
     0
  0
ENDTAB
  0
TABLE
  2
APPID
  5
9
330
0
100
AcDbSymbolTable
 70
     2
  0
APPID
  5
12
330
9
100
AcDbSymbolTableRecord
100
AcDbRegAppTableRecord
  2
ACAD
 70
     0
  0
ENDTAB
  0
TABLE
  2
DIMSTYLE
  5
A
330
0
100
AcDbSymbolTable
 70
     1
  0
DIMSTYLE
105
27
330
A
100
AcDbSymbolTableRecord
100
AcDbDimStyleTableRecord
  2
ISO-25
 70
     0
  3

  4

  5

  6

  7

 40
1.0
 41
2.5
 42
0.625
 43
3.75
 44
1.25
 45
0.0
 46
0.0
 47
0.0
 48
0.0
140
2.5
141
2.5
142
0.0
143
0.03937007874016
144
1.0
145
0.0
146
1.0
147
0.625
 71
     0
 72
     0
 73
     0
 74
     0
 75
     0
 76
     0
 77
     1
 78
     8
170
     0
171
     3
172
     1
173
     0
174
     0
175
     0
176
     0
177
     0
178
     0
270
     2
271
     2
272
     2
273
     2
274
     3
340
11
275
     0
280
     0
281
     0
282
     0
283
     0
284
     8
285
     0
286
     0
287
     3
288
     0
  0
ENDTAB
  0
TABLE
  2
BLOCK_RECORD
  5
1
330
0
100
AcDbSymbolTable
 70
     1
  0
BLOCK_RECORD
  5
1F
330
1
100
AcDbSymbolTableRecord
100
AcDbBlockTableRecord
  2
*MODEL_SPACE
  0
BLOCK_RECORD
  5
1B
330
1
100
AcDbSymbolTableRecord
100
AcDbBlockTableRecord
  2
*PAPER_SPACE
  0
ENDTAB
  0
ENDSEC
  0
SECTION
  2
BLOCKS
  0
BLOCK
  5
20
330
1F
100
AcDbEntity
  8
0
100
AcDbBlockBegin
  2
*MODEL_SPACE
 70
     0
 10
0.0
 20
0.0
 30
0.0
  3
*MODEL_SPACE
  1

  0
ENDBLK
  5
21
330
1F
100
AcDbEntity
  8
0
100
AcDbBlockEnd
  0
BLOCK
  5
1C
330
1B
100
AcDbEntity
 67
     1
  8
0
100
AcDbBlockBegin
  2
*PAPER_SPACE
  1

  0
ENDBLK
  5
1D
330
1B
100
AcDbEntity
 67
     1
  8
0
100
AcDbBlockEnd
  0
ENDSEC
  0
SECTION
  2
ENTITIES
  0
LWPOLYLINE
  5
100
100
AcDbEntity
  8
0
 62
7
100
AcDbPolyline
 90
33
 70
0
 10
97.605559
 20
295.086511
 30
0.0
 10
122.593058
 20
295.086511
 30
0.0
 10
147.580556
 20
295.086511
 30
0.0
 10
172.568054
 20
295.086511
 30
0.0
 10
197.555553
 20
295.086511
 30
0.0
 10
222.543048
 20
295.086511
 30
0.0
 10
247.530547
 20
295.086511
 30
0.0
 10
272.518045
 20
295.086511
 30
0.0
 10
297.505543
 20
295.086511
 30
0.0
 10
297.505543
 20
270.099012
 30
0.0
 10
297.505543
 20
245.111511
 30
0.0
 10
297.505543
 20
220.124013
 30
0.0
 10
297.505543
 20
195.136515
 30
0.0
 10
297.505543
 20
170.149013
 30
0.0
 10
297.505543
 20
145.161515
 30
0.0
 10
297.505543
 20
120.174014
 30
0.0
 10
297.505543
 20
95.186515
 30
0.0
 10
272.518045
 20
95.186515
 30
0.0
 10
247.530547
 20
95.186515
 30
0.0
 10
222.543048
 20
95.186515
 30
0.0
 10
197.555553
 20
95.186515
 30
0.0
 10
172.568054
 20
95.186515
 30
0.0
 10
147.580556
 20
95.186515
 30
0.0
 10
122.593058
 20
95.186515
 30
0.0
 10
97.605559
 20
95.186515
 30
0.0
 10
97.605559
 20
120.174014
 30
0.0
 10
97.605559
 20
145.161515
 30
0.0
 10
97.605559
 20
170.149013
 30
0.0
 10
97.605559
 20
195.136515
 30
0.0
 10
97.605559
 20
220.124013
 30
0.0
 10
97.605559
 20
245.111511
 30
0.0
 10
97.605559
 20
270.099012
 30
0.0
 10
97.605559
 20
295.086511
 30
0.0
  0
LWPOLYLINE
  5
101
100
AcDbEntity
  8
0
 62
7
100
AcDbPolyline
 90
65
 70
0
 10
99.561371
 20
282.057279
 30
0.0
 10
99.812385
 20
284.549376
 30
0.0
 10
100.532288
 20
286.870638
 30
0.0
 10
101.671374
 20
288.971306
 30
0.0
 10
103.179939
 20
290.801617
 30
0.0
 10
105.008274
 20
292.311814
 30
0.0
 10
107.106672
 20
293.452133
 30
0.0
 10
109.425424
 20
294.172816
 30
0.0
 10
111.914830
 20
294.424101
 30
0.0
 10
114.404236
 20
294.172816
 30
0.0
 10
116.722988
 20
293.452133
 30
0.0
 10
118.821386
 20
292.311814
 30
0.0
 10
120.649721
 20
290.801617
 30
0.0
 10
122.158286
 20
288.971306
 30
0.0
 10
123.297371
 20
286.870638
 30
0.0
 10
124.017275
 20
284.549376
 30
0.0
 10
124.268289
 20
282.057279
 30
0.0
 10
124.246304
 20
281.313345
 30
0.0
 10
124.181139
 20
280.581372
 30
0.0
 10
124.074055
 20
279.862498
 30
0.0
 10
123.926295
 20
279.157857
 30
0.0
 10
123.739106
 20
278.468589
 30
0.0
 10
123.513729
 20
277.795828
 30
0.0
 10
123.251412
 20
277.140711
 30
0.0
 10
122.953399
 20
276.504376
 30
0.0
 10
122.263834
 20
276.504376
 30
0.0
 10
121.574272
 20
276.504376
 30
0.0
 10
120.884707
 20
276.504376
 30
0.0
 10
120.195142
 20
276.504376
 30
0.0
 10
119.505578
 20
276.504376
 30
0.0
 10
118.816013
 20
276.504376
 30
0.0
 10
118.126451
 20
276.504376
 30
0.0
 10
117.436886
 20
276.504376
 30
0.0
 10
116.747321
 20
276.504376
 30
0.0
 10
116.057759
 20
276.504376
 30
0.0
 10
115.368194
 20
276.504376
 30
0.0
 10
114.678629
 20
276.504376
 30
0.0
 10
113.989064
 20
276.504376
 30
0.0
 10
113.299500
 20
276.504376
 30
0.0
 10
112.609938
 20
276.504376
 30
0.0
 10
111.920373
 20
276.504376
 30
0.0
 10
111.230808
 20
276.504376
 30
0.0
 10
110.541246
 20
276.504376
 30
0.0
 10
109.851681
 20
276.504376
 30
0.0
 10
109.162116
 20
276.504376
 30
0.0
 10
108.472551
 20
276.504376
 30
0.0
 10
107.782987
 20
276.504376
 30
0.0
 10
107.093425
 20
276.504376
 30
0.0
 10
106.403860
 20
276.504376
 30
0.0
 10
105.714295
 20
276.504376
 30
0.0
 10
105.024733
 20
276.504376
 30
0.0
 10
104.335168
 20
276.504376
 30
0.0
 10
103.645603
 20
276.504376
 30
0.0
 10
102.956038
 20
276.504376
 30
0.0
 10
102.266476
 20
276.504376
 30
0.0
 10
101.576911
 20
276.504376
 30
0.0
 10
100.887347
 20
276.504376
 30
0.0
 10
100.588719
 20
277.140807
 30
0.0
 10
100.325084
 20
277.795917
 30
0.0
 10
100.097929
 20
278.468606
 30
0.0
 10
99.908738
 20
279.157776
 30
0.0
 10
99.759000
 20
279.862328
 30
0.0
 10
99.650203
 20
280.581161
 30
0.0
 10
99.583835
 20
281.313178
 30
0.0
 10
99.561371
 20
282.057279
 30
0.0
  0
LWPOLYLINE
  5
102
100
AcDbEntity
  8
0
 62
7
100
AcDbPolyline
 90
33
 70
0
 10
132.876539
 20
288.380482
 30
0.0
 10
133.471070
 20
288.320548
 30
0.0
 10
134.024818
 20
288.148656
 30
0.0
 10
134.525920
 20
287.876667
 30
0.0
 10
134.962512
 20
287.516448
 30
0.0
 10
135.322731
 20
287.079855
 30
0.0
 10
135.594711
 20
286.578755
 30
0.0
 10
135.766606
 20
286.025010
 30
0.0
 10
135.826535
 20
285.430483
 30
0.0
 10
135.766606
 20
284.835955
 30
0.0
 10
135.594711
 20
284.282209
 30
0.0
 10
135.322731
 20
283.781110
 30
0.0
 10
134.962512
 20
283.344518
 30
0.0
 10
134.525920
 20
282.984296
 30
0.0
 10
134.024818
 20
282.712308
 30
0.0
 10
133.471070
 20
282.540416
 30
0.0
 10
132.876539
 20
282.480482
 30
0.0
 10
132.282009
 20
282.540416
 30
0.0
 10
131.728260
 20
282.712308
 30
0.0
 10
131.227158
 20
282.984296
 30
0.0
 10
130.790566
 20
283.344518
 30
0.0
 10
130.430348
 20
283.781110
 30
0.0
 10
130.158367
 20
284.282209
 30
0.0
 10
129.986473
 20
284.835955
 30
0.0
 10
129.926543
 20
285.430483
 30
0.0
 10
129.986473
 20
286.025010
 30
0.0
 10
130.158367
 20
286.578755
 30
0.0
 10
130.430348
 20
287.079855
 30
0.0
 10
130.790566
 20
287.516448
 30
0.0
 10
131.227158
 20
287.876667
 30
0.0
 10
131.728260
 20
288.148656
 30
0.0
 10
132.282009
 20
288.320548
 30
0.0
 10
132.876539
 20
288.380482
 30
0.0
  0
LWPOLYLINE
  5
103
100
AcDbEntity
  8
0
 62
7
100
AcDbPolyline
 90
41
 70
0
 10
99.561371
 20
222.830490
 30
0.0
 10
99.812385
 20
225.322586
 30
0.0
 10
100.532288
 20
227.643849
 30
0.0
 10
101.671374
 20
229.744517
 30
0.0
 10
103.179939
 20
231.574830
 30
0.0
 10
105.008274
 20
233.085026
 30
0.0
 10
107.106672
 20
234.225345
 30
0.0
 10
109.425424
 20
234.946028
 30
0.0
 10
111.914830
 20
235.197313
 30
0.0
 10
114.404236
 20
234.946028
 30
0.0
 10
116.722988
 20
234.225345
 30
0.0
 10
118.821386
 20
233.085026
 30
0.0
 10
120.649721
 20
231.574830
 30
0.0
 10
122.158286
 20
229.744517
 30
0.0
 10
123.297371
 20
227.643849
 30
0.0
 10
124.017275
 20
225.322586
 30
0.0
 10
124.268289
 20
222.830490
 30
0.0
 10
124.246304
 20
222.086555
 30
0.0
 10
124.181139
 20
221.354584
 30
0.0
 10
124.074055
 20
220.635710
 30
0.0
 10
123.926295
 20
219.931069
 30
0.0
 10
123.739106
 20
219.241800
 30
0.0
 10
123.513729
 20
218.569039
 30
0.0
 10
123.251412
 20
217.913922
 30
0.0
 10
122.953399
 20
217.277587
 30
0.0
 10
120.195142
 20
217.277587
 30
0.0
 10
117.436886
 20
217.277587
 30
0.0
 10
114.678629
 20
217.277587
 30
0.0
 10
111.920373
 20
217.277587
 30
0.0
 10
109.162116
 20
217.277587
 30
0.0
 10
106.403860
 20
217.277587
 30
0.0
 10
103.645603
 20
217.277587
 30
0.0
 10
100.887347
 20
217.277587
 30
0.0
 10
100.588719
 20
217.914018
 30
0.0
 10
100.325084
 20
218.569126
 30
0.0
 10
100.097929
 20
219.241817
 30
0.0
 10
99.908738
 20
219.930987
 30
0.0
 10
99.759000
 20
220.635538
 30
0.0
 10
99.650203
 20
221.354372
 30
0.0
 10
99.583835
 20
222.086389
 30
0.0
 10
99.561371
 20
222.830490
 30
0.0
  0
LWPOLYLINE
  5
104
100
AcDbEntity
  8
0
 62
7
100
AcDbPolyline
 90
33
 70
0
 10
132.876539
 20
229.153693
 30
0.0
 10
133.471070
 20
229.093759
 30
0.0
 10
134.024818
 20
228.921867
 30
0.0
 10
134.525920
 20
228.649879
 30
0.0
 10
134.962512
 20
228.289657
 30
0.0
 10
135.322731
 20
227.853067
 30
0.0
 10
135.594711
 20
227.351966
 30
0.0
 10
135.766606
 20
226.798221
 30
0.0
 10
135.826535
 20
226.203694
 30
0.0
 10
135.766606
 20
225.609167
 30
0.0
 10
135.594711
 20
225.055420
 30
0.0
 10
135.322731
 20
224.554321
 30
0.0
 10
134.962512
 20
224.117729
 30
0.0
 10
134.525920
 20
223.757507
 30
0.0
 10
134.024818
 20
223.485519
 30
0.0
 10
133.471070
 20
223.313627
 30
0.0
 10
132.876539
 20
223.253693
 30
0.0
 10
132.282009
 20
223.313627
 30
0.0
 10
131.728260
 20
223.485519
 30
0.0
 10
131.227158
 20
223.757507
 30
0.0
 10
130.790566
 20
224.117729
 30
0.0
 10
130.430348
 20
224.554321
 30
0.0
 10
130.158367
 20
225.055420
 30
0.0
 10
129.986473
 20
225.609167
 30
0.0
 10
129.926543
 20
226.203694
 30
0.0
 10
129.986473
 20
226.798221
 30
0.0
 10
130.158367
 20
227.351966
 30
0.0
 10
130.430348
 20
227.853067
 30
0.0
 10
130.790566
 20
228.289657
 30
0.0
 10
131.227158
 20
228.649879
 30
0.0
 10
131.728260
 20
228.921867
 30
0.0
 10
132.282009
 20
229.093759
 30
0.0
 10
132.876539
 20
229.153693
 30
0.0
  0
LWPOLYLINE
  5
105
100
AcDbEntity
  8
0
 62
7
100
AcDbPolyline
 90
41
 70
0
 10
99.561371
 20
163.603701
 30
0.0
 10
99.812385
 20
166.095797
 30
0.0
 10
100.532288
 20
168.417061
 30
0.0
 10
101.671374
 20
170.517728
 30
0.0
 10
103.179939
 20
172.348041
 30
0.0
 10
105.008274
 20
173.858237
 30
0.0
 10
107.106672
 20
174.998556
 30
0.0
 10
109.425424
 20
175.719239
 30
0.0
 10
111.914830
 20
175.970524
 30
0.0
 10
114.404236
 20
175.719239
 30
0.0
 10
116.722988
 20
174.998556
 30
0.0
 10
118.821386
 20
173.858237
 30
0.0
 10
120.649721
 20
172.348041
 30
0.0
 10
122.158286
 20
170.517728
 30
0.0
 10
123.297371
 20
168.417061
 30
0.0
 10
124.017275
 20
166.095797
 30
0.0
 10
124.268289
 20
163.603701
 30
0.0
 10
124.246304
 20
162.859766
 30
0.0
 10
124.181139
 20
162.127795
 30
0.0
 10
124.074055
 20
161.408921
 30
0.0
 10
123.926295
 20
160.704280
 30
0.0
 10
123.739106
 20
160.015012
 30
0.0
 10
123.513729
 20
159.342250
 30
0.0
 10
123.251412
 20
158.687134
 30
0.0
 10
122.953399
 20
158.050799
 30
0.0
 10
120.195142
 20
158.050799
 30
0.0
 10
117.436886
 20
158.050799
 30
0.0
 10
114.678629
 20
158.050799
 30
0.0
 10
111.920373
 20
158.050799
 30
0.0
 10
109.162116
 20
158.050799
 30
0.0
 10
106.403860
 20
158.050799
 30
0.0
 10
103.645603
 20
158.050799
 30
0.0
 10
100.887347
 20
158.050799
 30
0.0
 10
100.588719
 20
158.687229
 30
0.0
 10
100.325084
 20
159.342338
 30
0.0
 10
100.097929
 20
160.015029
 30
0.0
 10
99.908738
 20
160.704198
 30
0.0
 10
99.759000
 20
161.408749
 30
0.0
 10
99.650203
 20
162.127583
 30
0.0
 10
99.583835
 20
162.859600
 30
0.0
 10
99.561371
 20
163.603701
 30
0.0
  0
LWPOLYLINE
  5
106
100
AcDbEntity
  8
0
 62
7
100
AcDbPolyline
 90
33
 70
0
 10
132.876539
 20
169.926933
 30
0.0
 10
133.471070
 20
169.866999
 30
0.0
 10
134.024818
 20
169.695107
 30
0.0
 10
134.525920
 20
169.423118
 30
0.0
 10
134.962512
 20
169.062897
 30
0.0
 10
135.322731
 20
168.626306
 30
0.0
 10
135.594711
 20
168.125206
 30
0.0
 10
135.766606
 20
167.571461
 30
0.0
 10
135.826535
 20
166.976933
 30
0.0
 10
135.766606
 20
166.382406
 30
0.0
 10
135.594711
 20
165.828660
 30
0.0
 10
135.322731
 20
165.327561
 30
0.0
 10
134.962512
 20
164.890968
 30
0.0
 10
134.525920
 20
164.530747
 30
0.0
 10
134.024818
 20
164.258758
 30
0.0
 10
133.471070
 20
164.086867
 30
0.0
 10
132.876539
 20
164.026933
 30
0.0
 10
132.282009
 20
164.086867
 30
0.0
 10
131.728260
 20
164.258758
 30
0.0
 10
131.227158
 20
164.530747
 30
0.0
 10
130.790566
 20
164.890968
 30
0.0
 10
130.430348
 20
165.327561
 30
0.0
 10
130.158367
 20
165.828660
 30
0.0
 10
129.986473
 20
166.382406
 30
0.0
 10
129.926543
 20
166.976933
 30
0.0
 10
129.986473
 20
167.571461
 30
0.0
 10
130.158367
 20
168.125206
 30
0.0
 10
130.430348
 20
168.626306
 30
0.0
 10
130.790566
 20
169.062897
 30
0.0
 10
131.227158
 20
169.423118
 30
0.0
 10
131.728260
 20
169.695107
 30
0.0
 10
132.282009
 20
169.866999
 30
0.0
 10
132.876539
 20
169.926933
 30
0.0
  0
LWPOLYLINE
  5
107
100
AcDbEntity
  8
0
 62
7
100
AcDbPolyline
 90
41
 70
0
 10
99.561356
 20
104.376904
 30
0.0
 10
99.812371
 20
106.869003
 30
0.0
 10
100.532274
 20
109.190264
 30
0.0
 10
101.671360
 20
111.290931
 30
0.0
 10
103.179925
 20
113.121244
 30
0.0
 10
105.008259
 20
114.631440
 30
0.0
 10
107.106658
 20
115.771759
 30
0.0
 10
109.425410
 20
116.492442
 30
0.0
 10
111.914816
 20
116.743727
 30
0.0
 10
114.404222
 20
116.492442
 30
0.0
 10
116.722974
 20
115.771759
 30
0.0
 10
118.821372
 20
114.631440
 30
0.0
 10
120.649706
 20
113.121244
 30
0.0
 10
122.158272
 20
111.290931
 30
0.0
 10
123.297357
 20
109.190264
 30
0.0
 10
124.017261
 20
106.869000
 30
0.0
 10
124.268275
 20
104.376904
 30
0.0
 10
124.246290
 20
103.632969
 30
0.0
 10
124.181125
 20
102.900998
 30
0.0
 10
124.074041
 20
102.182124
 30
0.0
 10
123.926281
 20
101.477483
 30
0.0
 10
123.739092
 20
100.788215
 30
0.0
 10
123.513715
 20
100.115453
 30
0.0
 10
123.251397
 20
99.460336
 30
0.0
 10
122.953385
 20
98.824001
 30
0.0
 10
120.195128
 20
98.824001
 30
0.0
 10
117.436872
 20
98.824001
 30
0.0
 10
114.678615
 20
98.824001
 30
0.0
 10
111.920359
 20
98.824001
 30
0.0
 10
109.162102
 20
98.824001
 30
0.0
 10
106.403846
 20
98.824001
 30
0.0
 10
103.645589
 20
98.824001
 30
0.0
 10
100.887332
 20
98.824001
 30
0.0
 10
100.588705
 20
99.460432
 30
0.0
 10
100.325070
 20
100.115541
 30
0.0
 10
100.097915
 20
100.788231
 30
0.0
 10
99.908724
 20
101.477401
 30
0.0
 10
99.758985
 20
102.181952
 30
0.0
 10
99.650189
 20
102.900786
 30
0.0
 10
99.583821
 20
103.632803
 30
0.0
 10
99.561356
 20
104.376904
 30
0.0
  0
LWPOLYLINE
  5
108
100
AcDbEntity
  8
0
 62
7
100
AcDbPolyline
 90
33
 70
0
 10
132.876539
 20
110.700119
 30
0.0
 10
133.471070
 20
110.640184
 30
0.0
 10
134.024818
 20
110.468293
 30
0.0
 10
134.525920
 20
110.196304
 30
0.0
 10
134.962512
 20
109.836084
 30
0.0
 10
135.322731
 20
109.399492
 30
0.0
 10
135.594711
 20
108.898392
 30
0.0
 10
135.766606
 20
108.344647
 30
0.0
 10
135.826535
 20
107.750119
 30
0.0
 10
135.766606
 20
107.155592
 30
0.0
 10
135.594711
 20
106.601845
 30
0.0
 10
135.322731
 20
106.100747
 30
0.0
 10
134.962512
 20
105.664154
 30
0.0
 10
134.525920
 20
105.303933
 30
0.0
 10
134.024818
 20
105.031944
 30
0.0
 10
133.471070
 20
104.860053
 30
0.0
 10
132.876539
 20
104.800119
 30
0.0
 10
132.282009
 20
104.860053
 30
0.0
 10
131.728260
 20
105.031944
 30
0.0
 10
131.227158
 20
105.303933
 30
0.0
 10
130.790566
 20
105.664154
 30
0.0
 10
130.430348
 20
106.100747
 30
0.0
 10
130.158367
 20
106.601845
 30
0.0
 10
129.986473
 20
107.155592
 30
0.0
 10
129.926543
 20
107.750119
 30
0.0
 10
129.986473
 20
108.344647
 30
0.0
 10
130.158367
 20
108.898392
 30
0.0
 10
130.430348
 20
109.399492
 30
0.0
 10
130.790566
 20
109.836084
 30
0.0
 10
131.227158
 20
110.196304
 30
0.0
 10
131.728260
 20
110.468293
 30
0.0
 10
132.282009
 20
110.640184
 30
0.0
 10
132.876539
 20
110.700119
 30
0.0
  0
LWPOLYLINE
  5
109
100
AcDbEntity
  8
0
 62
7
100
AcDbPolyline
 90
41
 70
0
 10
151.407399
 20
108.215750
 30
0.0
 10
151.658413
 20
105.723652
 30
0.0
 10
152.378317
 20
103.402391
 30
0.0
 10
153.517402
 20
101.301723
 30
0.0
 10
155.025968
 20
99.471411
 30
0.0
 10
156.854302
 20
97.961214
 30
0.0
 10
158.952700
 20
96.820895
 30
0.0
 10
161.271452
 20
96.100213
 30
0.0
 10
163.760858
 20
95.848928
 30
0.0
 10
166.250264
 20
96.100213
 30
0.0
 10
168.569016
 20
96.820895
 30
0.0
 10
170.667415
 20
97.961214
 30
0.0
 10
172.495749
 20
99.471411
 30
0.0
 10
174.004314
 20
101.301723
 30
0.0
 10
175.143400
 20
103.402391
 30
0.0
 10
175.863304
 20
105.723652
 30
0.0
 10
176.114318
 20
108.215750
 30
0.0
 10
176.092333
 20
108.959685
 30
0.0
 10
176.027167
 20
109.691657
 30
0.0
 10
175.920084
 20
110.410530
 30
0.0
 10
175.772326
 20
111.115172
 30
0.0
 10
175.585134
 20
111.804440
 30
0.0
 10
175.359757
 20
112.477201
 30
0.0
 10
175.097440
 20
113.132318
 30
0.0
 10
174.799427
 20
113.768653
 30
0.0
 10
172.041171
 20
113.768653
 30
0.0
 10
169.282914
 20
113.768653
 30
0.0
 10
166.524658
 20
113.768653
 30
0.0
 10
163.766401
 20
113.768653
 30
0.0
 10
161.008145
 20
113.768653
 30
0.0
 10
158.249888
 20
113.768653
 30
0.0
 10
155.491632
 20
113.768653
 30
0.0
 10
152.733375
 20
113.768653
 30
0.0
 10
152.434747
 20
113.132222
 30
0.0
 10
152.171112
 20
112.477114
 30
0.0
 10
151.943957
 20
111.804423
 30
0.0
 10
151.754767
 20
111.115253
 30
0.0
 10
151.605028
 20
110.410703
 30
0.0
 10
151.496231
 20
109.691868
 30
0.0
 10
151.429864
 20
108.959852
 30
0.0
 10
151.407399
 20
108.215750
 30
0.0
  0
LWPOLYLINE
  5
10a
100
AcDbEntity
  8
0
 62
7
100
AcDbPolyline
 90
33
 70
0
 10
184.722568
 20
101.892547
 30
0.0
 10
185.317098
 20
101.952481
 30
0.0
 10
185.870847
 20
102.124373
 30
0.0
 10
186.371949
 20
102.396362
 30
0.0
 10
186.808541
 20
102.756583
 30
0.0
 10
187.168759
 20
103.193174
 30
0.0
 10
187.440739
 20
103.694274
 30
0.0
 10
187.612634
 20
104.248019
 30
0.0
 10
187.672564
 20
104.842546
 30
0.0
 10
187.612634
 20
105.437074
 30
0.0
 10
187.440739
 20
105.990820
 30
0.0
 10
187.168759
 20
106.491919
 30
0.0
 10
186.808541
 20
106.928511
 30
0.0
 10
186.371949
 20
107.288733
 30
0.0
 10
185.870847
 20
107.560721
 30
0.0
 10
185.317098
 20
107.732613
 30
0.0
 10
184.722568
 20
107.792547
 30
0.0
 10
184.128037
 20
107.732613
 30
0.0
 10
183.574289
 20
107.560721
 30
0.0
 10
183.073187
 20
107.288733
 30
0.0
 10
182.636594
 20
106.928511
 30
0.0
 10
182.276376
 20
106.491919
 30
0.0
 10
182.004396
 20
105.990820
 30
0.0
 10
181.832501
 20
105.437074
 30
0.0
 10
181.772572
 20
104.842546
 30
0.0
 10
181.832501
 20
104.248019
 30
0.0
 10
182.004396
 20
103.694274
 30
0.0
 10
182.276376
 20
103.193174
 30
0.0
 10
182.636594
 20
102.756583
 30
0.0
 10
183.073187
 20
102.396362
 30
0.0
 10
183.574289
 20
102.124373
 30
0.0
 10
184.128037
 20
101.952481
 30
0.0
 10
184.722568
 20
101.892547
 30
0.0
  0
LWPOLYLINE
  5
10b
100
AcDbEntity
  8
0
 62
7
100
AcDbPolyline
 90
41
 70
0
 10
151.407399
 20
167.442539
 30
0.0
 10
151.658413
 20
164.950443
 30
0.0
 10
152.378317
 20
162.629180
 30
0.0
 10
153.517402
 20
160.528512
 30
0.0
 10
155.025968
 20
158.698199
 30
0.0
 10
156.854302
 20
157.188003
 30
0.0
 10
158.952700
 20
156.047684
 30
0.0
 10
161.271452
 20
155.327001
 30
0.0
 10
163.760858
 20
155.075716
 30
0.0
 10
166.250264
 20
155.327001
 30
0.0
 10
168.569016
 20
156.047684
 30
0.0
 10
170.667415
 20
157.188003
 30
0.0
 10
172.495749
 20
158.698199
 30
0.0
 10
174.004314
 20
160.528512
 30
0.0
 10
175.143400
 20
162.629180
 30
0.0
 10
175.863304
 20
164.950440
 30
0.0
 10
176.114318
 20
167.442539
 30
0.0
 10
176.092333
 20
168.186474
 30
0.0
 10
176.027167
 20
168.918445
 30
0.0
 10
175.920084
 20
169.637319
 30
0.0
 10
175.772326
 20
170.341960
 30
0.0
 10
175.585134
 20
171.031229
 30
0.0
 10
175.359757
 20
171.703990
 30
0.0
 10
175.097440
 20
172.359107
 30
0.0
 10
174.799427
 20
172.995442
 30
0.0
 10
172.041171
 20
172.995442
 30
0.0
 10
169.282914
 20
172.995442
 30
0.0
 10
166.524658
 20
172.995442
 30
0.0
 10
163.766401
 20
172.995442
 30
0.0
 10
161.008145
 20
172.995442
 30
0.0
 10
158.249888
 20
172.995442
 30
0.0
 10
155.491632
 20
172.995442
 30
0.0
 10
152.733375
 20
172.995442
 30
0.0
 10
152.434747
 20
172.359011
 30
0.0
 10
152.171112
 20
171.703903
 30
0.0
 10
151.943957
 20
171.031212
 30
0.0
 10
151.754767
 20
170.342042
 30
0.0
 10
151.605028
 20
169.637491
 30
0.0
 10
151.496231
 20
168.918657
 30
0.0
 10
151.429864
 20
168.186640
 30
0.0
 10
151.407399
 20
167.442539
 30
0.0
  0
LWPOLYLINE
  5
10c
100
AcDbEntity
  8
0
 62
7
100
AcDbPolyline
 90
33
 70
0
 10
184.722568
 20
161.119336
 30
0.0
 10
185.317098
 20
161.179270
 30
0.0
 10
185.870847
 20
161.351162
 30
0.0
 10
186.371949
 20
161.623150
 30
0.0
 10
186.808541
 20
161.983370
 30
0.0
 10
187.168759
 20
162.419962
 30
0.0
 10
187.440739
 20
162.921063
 30
0.0
 10
187.612634
 20
163.474808
 30
0.0
 10
187.672564
 20
164.069335
 30
0.0
 10
187.612634
 20
164.663862
 30
0.0
 10
187.440739
 20
165.217609
 30
0.0
 10
187.168759
 20
165.718708
 30
0.0
 10
186.808541
 20
166.155300
 30
0.0
 10
186.371949
 20
166.515522
 30
0.0
 10
185.870847
 20
166.787510
 30
0.0
 10
185.317098
 20
166.959402
 30
0.0
 10
184.722568
 20
167.019336
 30
0.0
 10
184.128037
 20
166.959402
 30
0.0
 10
183.574289
 20
166.787510
 30
0.0
 10
183.073187
 20
166.515522
 30
0.0
 10
182.636594
 20
166.155300
 30
0.0
 10
182.276376
 20
165.718708
 30
0.0
 10
182.004396
 20
165.217609
 30
0.0
 10
181.832501
 20
164.663862
 30
0.0
 10
181.772572
 20
164.069335
 30
0.0
 10
181.832501
 20
163.474808
 30
0.0
 10
182.004396
 20
162.921063
 30
0.0
 10
182.276376
 20
162.419962
 30
0.0
 10
182.636594
 20
161.983370
 30
0.0
 10
183.073187
 20
161.623150
 30
0.0
 10
183.574289
 20
161.351162
 30
0.0
 10
184.128037
 20
161.179270
 30
0.0
 10
184.722568
 20
161.119336
 30
0.0
  0
LWPOLYLINE
  5
10d
100
AcDbEntity
  8
0
 62
7
100
AcDbPolyline
 90
41
 70
0
 10
151.407399
 20
226.669356
 30
0.0
 10
151.658413
 20
224.177260
 30
0.0
 10
152.378317
 20
221.855997
 30
0.0
 10
153.517402
 20
219.755329
 30
0.0
 10
155.025968
 20
217.925016
 30
0.0
 10
156.854302
 20
216.414820
 30
0.0
 10
158.952700
 20
215.274501
 30
0.0
 10
161.271452
 20
214.553818
 30
0.0
 10
163.760858
 20
214.302533
 30
0.0
 10
166.250264
 20
214.553818
 30
0.0
 10
168.569016
 20
215.274501
 30
0.0
 10
170.667415
 20
216.414820
 30
0.0
 10
172.495749
 20
217.925016
 30
0.0
 10
174.004314
 20
219.755329
 30
0.0
 10
175.143400
 20
221.855997
 30
0.0
 10
175.863304
 20
224.177257
 30
0.0
 10
176.114318
 20
226.669356
 30
0.0
 10
176.092333
 20
227.413291
 30
0.0
 10
176.027167
 20
228.145262
 30
0.0
 10
175.920084
 20
228.864136
 30
0.0
 10
175.772326
 20
229.568777
 30
0.0
 10
175.585134
 20
230.258046
 30
0.0
 10
175.359757
 20
230.930807
 30
0.0
 10
175.097440
 20
231.585924
 30
0.0
 10
174.799427
 20
232.222259
 30
0.0
 10
172.041171
 20
232.222259
 30
0.0
 10
169.282914
 20
232.222259
 30
0.0
 10
166.524658
 20
232.222259
 30
0.0
 10
163.766401
 20
232.222259
 30
0.0
 10
161.008145
 20
232.222259
 30
0.0
 10
158.249888
 20
232.222259
 30
0.0
 10
155.491632
 20
232.222259
 30
0.0
 10
152.733375
 20
232.222259
 30
0.0
 10
152.434747
 20
231.585828
 30
0.0
 10
152.171112
 20
230.930719
 30
0.0
 10
151.943957
 20
230.258029
 30
0.0
 10
151.754767
 20
229.568859
 30
0.0
 10
151.605028
 20
228.864308
 30
0.0
 10
151.496231
 20
228.145474
 30
0.0
 10
151.429864
 20
227.413457
 30
0.0
 10
151.407399
 20
226.669356
 30
0.0
  0
LWPOLYLINE
  5
10e
100
AcDbEntity
  8
0
 62
7
100
AcDbPolyline
 90
33
 70
0
 10
184.722568
 20
220.346125
 30
0.0
 10
185.317098
 20
220.406059
 30
0.0
 10
185.870847
 20
220.577950
 30
0.0
 10
186.371949
 20
220.849939
 30
0.0
 10
186.808541
 20
221.210160
 30
0.0
 10
187.168759
 20
221.646751
 30
0.0
 10
187.440739
 20
222.147851
 30
0.0
 10
187.612634
 20
222.701597
 30
0.0
 10
187.672564
 20
223.296124
 30
0.0
 10
187.612634
 20
223.890651
 30
0.0
 10
187.440739
 20
224.444398
 30
0.0
 10
187.168759
 20
224.945497
 30
0.0
 10
186.808541
 20
225.382089
 30
0.0
 10
186.371949
 20
225.742310
 30
0.0
 10
185.870847
 20
226.014299
 30
0.0
 10
185.317098
 20
226.186190
 30
0.0
 10
184.722568
 20
226.246125
 30
0.0
 10
184.128037
 20
226.186190
 30
0.0
 10
183.574289
 20
226.014299
 30
0.0
 10
183.073187
 20
225.742310
 30
0.0
 10
182.636594
 20
225.382089
 30
0.0
 10
182.276376
 20
224.945497
 30
0.0
 10
182.004396
 20
224.444398
 30
0.0
 10
181.832501
 20
223.890651
 30
0.0
 10
181.772572
 20
223.296124
 30
0.0
 10
181.832501
 20
222.701597
 30
0.0
 10
182.004396
 20
222.147851
 30
0.0
 10
182.276376
 20
221.646751
 30
0.0
 10
182.636594
 20
221.210160
 30
0.0
 10
183.073187
 20
220.849939
 30
0.0
 10
183.574289
 20
220.577950
 30
0.0
 10
184.128037
 20
220.406059
 30
0.0
 10
184.722568
 20
220.346125
 30
0.0
  0
LWPOLYLINE
  5
10f
100
AcDbEntity
  8
0
 62
7
100
AcDbPolyline
 90
41
 70
0
 10
151.407385
 20
285.896128
 30
0.0
 10
151.658399
 20
283.404031
 30
0.0
 10
152.378303
 20
281.082768
 30
0.0
 10
153.517388
 20
278.982101
 30
0.0
 10
155.025954
 20
277.151789
 30
0.0
 10
156.854288
 20
275.641593
 30
0.0
 10
158.952686
 20
274.501273
 30
0.0
 10
161.271438
 20
273.780591
 30
0.0
 10
163.760844
 20
273.529305
 30
0.0
 10
166.250250
 20
273.780591
 30
0.0
 10
168.569002
 20
274.501273
 30
0.0
 10
170.667401
 20
275.641593
 30
0.0
 10
172.495735
 20
277.151789
 30
0.0
 10
174.004300
 20
278.982101
 30
0.0
 10
175.143386
 20
281.082768
 30
0.0
 10
175.863290
 20
283.404031
 30
0.0
 10
176.114304
 20
285.896128
 30
0.0
 10
176.092318
 20
286.640065
 30
0.0
 10
176.027153
 20
287.372039
 30
0.0
 10
175.920070
 20
288.090912
 30
0.0
 10
175.772312
 20
288.795550
 30
0.0
 10
175.585120
 20
289.484818
 30
0.0
 10
175.359746
 20
290.157579
 30
0.0
 10
175.097426
 20
290.812699
 30
0.0
 10
174.799413
 20
291.449042
 30
0.0
 10
172.041157
 20
291.449042
 30
0.0
 10
169.282900
 20
291.449042
 30
0.0
 10
166.524644
 20
291.449042
 30
0.0
 10
163.766387
 20
291.449042
 30
0.0
 10
161.008131
 20
291.449042
 30
0.0
 10
158.249874
 20
291.449042
 30
0.0
 10
155.491617
 20
291.449042
 30
0.0
 10
152.733361
 20
291.449042
 30
0.0
 10
152.434733
 20
290.812603
 30
0.0
 10
152.171098
 20
290.157488
 30
0.0
 10
151.943943
 20
289.484796
 30
0.0
 10
151.754753
 20
288.795624
 30
0.0
 10
151.605014
 20
288.091073
 30
0.0
 10
151.496217
 20
287.372241
 30
0.0
 10
151.429850
 20
286.640226
 30
0.0
 10
151.407385
 20
285.896128
 30
0.0
  0
LWPOLYLINE
  5
110
100
AcDbEntity
  8
0
 62
7
100
AcDbPolyline
 90
33
 70
0
 10
184.722568
 20
279.572916
 30
0.0
 10
185.317098
 20
279.632850
 30
0.0
 10
185.870847
 20
279.804742
 30
0.0
 10
186.371949
 20
280.076730
 30
0.0
 10
186.808541
 20
280.436950
 30
0.0
 10
187.168759
 20
280.873542
 30
0.0
 10
187.440739
 20
281.374643
 30
0.0
 10
187.612634
 20
281.928388
 30
0.0
 10
187.672564
 20
282.522915
 30
0.0
 10
187.612634
 20
283.117442
 30
0.0
 10
187.440739
 20
283.671189
 30
0.0
 10
187.168759
 20
284.172288
 30
0.0
 10
186.808541
 20
284.608880
 30
0.0
 10
186.371949
 20
284.969102
 30
0.0
 10
185.870847
 20
285.241090
 30
0.0
 10
185.317098
 20
285.412982
 30
0.0
 10
184.722568
 20
285.472916
 30
0.0
 10
184.128037
 20
285.412982
 30
0.0
 10
183.574289
 20
285.241090
 30
0.0
 10
183.073187
 20
284.969102
 30
0.0
 10
182.636594
 20
284.608880
 30
0.0
 10
182.276376
 20
284.172288
 30
0.0
 10
182.004396
 20
283.671189
 30
0.0
 10
181.832501
 20
283.117442
 30
0.0
 10
181.772572
 20
282.522915
 30
0.0
 10
181.832501
 20
281.928388
 30
0.0
 10
182.004396
 20
281.374643
 30
0.0
 10
182.276376
 20
280.873542
 30
0.0
 10
182.636594
 20
280.436950
 30
0.0
 10
183.073187
 20
280.076730
 30
0.0
 10
183.574289
 20
279.804742
 30
0.0
 10
184.128037
 20
279.632850
 30
0.0
 10
184.722568
 20
279.572916
 30
0.0
  0
LWPOLYLINE
  5
111
100
AcDbEntity
  8
0
 62
7
100
AcDbPolyline
 90
41
 70
0
 10
203.253371
 20
280.073906
 30
0.0
 10
203.504385
 20
282.566003
 30
0.0
 10
204.224289
 20
284.887265
 30
0.0
 10
205.363374
 20
286.987932
 30
0.0
 10
206.871940
 20
288.818245
 30
0.0
 10
208.700274
 20
290.328441
 30
0.0
 10
210.798672
 20
291.468760
 30
0.0
 10
213.117424
 20
292.189443
 30
0.0
 10
215.606830
 20
292.440728
 30
0.0
 10
218.096236
 20
292.189443
 30
0.0
 10
220.414988
 20
291.468760
 30
0.0
 10
222.513387
 20
290.328441
 30
0.0
 10
224.341721
 20
288.818245
 30
0.0
 10
225.850286
 20
286.987932
 30
0.0
 10
226.989372
 20
284.887265
 30
0.0
 10
227.709276
 20
282.566003
 30
0.0
 10
227.960290
 20
280.073906
 30
0.0
 10
227.938305
 20
279.329972
 30
0.0
 10
227.873139
 20
278.597999
 30
0.0
 10
227.766056
 20
277.879124
 30
0.0
 10
227.618298
 20
277.174484
 30
0.0
 10
227.431106
 20
276.485216
 30
0.0
 10
227.205732
 20
275.812455
 30
0.0
 10
226.943412
 20
275.157338
 30
0.0
 10
226.645399
 20
274.521003
 30
0.0
 10
223.887143
 20
274.521003
 30
0.0
 10
221.128886
 20
274.521003
 30
0.0
 10
218.370630
 20
274.521003
 30
0.0
 10
215.612373
 20
274.521003
 30
0.0
 10
212.854117
 20
274.521003
 30
0.0
 10
210.095860
 20
274.521003
 30
0.0
 10
207.337604
 20
274.521003
 30
0.0
 10
204.579347
 20
274.521003
 30
0.0
 10
204.280719
 20
275.157434
 30
0.0
 10
204.017084
 20
275.812543
 30
0.0
 10
203.789929
 20
276.485233
 30
0.0
 10
203.600739
 20
277.174403
 30
0.0
 10
203.451000
 20
277.878954
 30
0.0
 10
203.342203
 20
278.597788
 30
0.0
 10
203.275836
 20
279.329805
 30
0.0
 10
203.253371
 20
280.073906
 30
0.0
  0
LWPOLYLINE
  5
112
100
AcDbEntity
  8
0
 62
7
100
AcDbPolyline
 90
33
 70
0
 10
236.568540
 20
286.397109
 30
0.0
 10
237.163070
 20
286.337175
 30
0.0
 10
237.716819
 20
286.165283
 30
0.0
 10
238.217921
 20
285.893294
 30
0.0
 10
238.654513
 20
285.533074
 30
0.0
 10
239.014731
 20
285.096482
 30
0.0
 10
239.286711
 20
284.595382
 30
0.0
 10
239.458606
 20
284.041637
 30
0.0
 10
239.518536
 20
283.447109
 30
0.0
 10
239.458606
 20
282.852582
 30
0.0
 10
239.286711
 20
282.298836
 30
0.0
 10
239.014731
 20
281.797737
 30
0.0
 10
238.654513
 20
281.361144
 30
0.0
 10
238.217921
 20
281.000923
 30
0.0
 10
237.716819
 20
280.728934
 30
0.0
 10
237.163070
 20
280.557043
 30
0.0
 10
236.568540
 20
280.497109
 30
0.0
 10
235.974009
 20
280.557043
 30
0.0
 10
235.420261
 20
280.728934
 30
0.0
 10
234.919159
 20
281.000923
 30
0.0
 10
234.482566
 20
281.361144
 30
0.0
 10
234.122348
 20
281.797737
 30
0.0
 10
233.850368
 20
282.298836
 30
0.0
 10
233.678473
 20
282.852582
 30
0.0
 10
233.618544
 20
283.447109
 30
0.0
 10
233.678473
 20
284.041637
 30
0.0
 10
233.850368
 20
284.595382
 30
0.0
 10
234.122348
 20
285.096482
 30
0.0
 10
234.482566
 20
285.533074
 30
0.0
 10
234.919159
 20
285.893294
 30
0.0
 10
235.420261
 20
286.165283
 30
0.0
 10
235.974009
 20
286.337175
 30
0.0
 10
236.568540
 20
286.397109
 30
0.0
  0
LWPOLYLINE
  5
113
100
AcDbEntity
  8
0
 62
7
100
AcDbPolyline
 90
41
 70
0
 10
203.253371
 20
220.847117
 30
0.0
 10
203.504385
 20
223.339213
 30
0.0
 10
204.224289
 20
225.660476
 30
0.0
 10
205.363374
 20
227.761144
 30
0.0
 10
206.871940
 20
229.591456
 30
0.0
 10
208.700274
 20
231.101653
 30
0.0
 10
210.798672
 20
232.241972
 30
0.0
 10
213.117424
 20
232.962655
 30
0.0
 10
215.606830
 20
233.213940
 30
0.0
 10
218.096236
 20
232.962655
 30
0.0
 10
220.414988
 20
232.241972
 30
0.0
 10
222.513387
 20
231.101653
 30
0.0
 10
224.341721
 20
229.591456
 30
0.0
 10
225.850286
 20
227.761144
 30
0.0
 10
226.989372
 20
225.660476
 30
0.0
 10
227.709276
 20
223.339215
 30
0.0
 10
227.960290
 20
220.847117
 30
0.0
 10
227.938305
 20
220.103182
 30
0.0
 10
227.873139
 20
219.371210
 30
0.0
 10
227.766056
 20
218.652337
 30
0.0
 10
227.618298
 20
217.947696
 30
0.0
 10
227.431106
 20
217.258427
 30
0.0
 10
227.205732
 20
216.585666
 30
0.0
 10
226.943412
 20
215.930549
 30
0.0
 10
226.645399
 20
215.294214
 30
0.0
 10
223.887143
 20
215.294214
 30
0.0
 10
221.128886
 20
215.294214
 30
0.0
 10
218.370630
 20
215.294214
 30
0.0
 10
215.612373
 20
215.294214
 30
0.0
 10
212.854117
 20
215.294214
 30
0.0
 10
210.095860
 20
215.294214
 30
0.0
 10
207.337604
 20
215.294214
 30
0.0
 10
204.579347
 20
215.294214
 30
0.0
 10
204.280719
 20
215.930645
 30
0.0
 10
204.017084
 20
216.585753
 30
0.0
 10
203.789929
 20
217.258444
 30
0.0
 10
203.600739
 20
217.947614
 30
0.0
 10
203.451000
 20
218.652165
 30
0.0
 10
203.342203
 20
219.370999
 30
0.0
 10
203.275836
 20
220.103016
 30
0.0
 10
203.253371
 20
220.847117
 30
0.0
  0
LWPOLYLINE
  5
114
100
AcDbEntity
  8
0
 62
7
100
AcDbPolyline
 90
33
 70
0
 10
236.568540
 20
227.170320
 30
0.0
 10
237.163070
 20
227.110386
 30
0.0
 10
237.716819
 20
226.938494
 30
0.0
 10
238.217921
 20
226.666506
 30
0.0
 10
238.654513
 20
226.306284
 30
0.0
 10
239.014731
 20
225.869694
 30
0.0
 10
239.286711
 20
225.368593
 30
0.0
 10
239.458606
 20
224.814848
 30
0.0
 10
239.518536
 20
224.220321
 30
0.0
 10
239.458606
 20
223.625794
 30
0.0
 10
239.286711
 20
223.072047
 30
0.0
 10
239.014731
 20
222.570948
 30
0.0
 10
238.654513
 20
222.134356
 30
0.0
 10
238.217921
 20
221.774134
 30
0.0
 10
237.716819
 20
221.502146
 30
0.0
 10
237.163070
 20
221.330254
 30
0.0
 10
236.568540
 20
221.270320
 30
0.0
 10
235.974009
 20
221.330254
 30
0.0
 10
235.420261
 20
221.502146
 30
0.0
 10
234.919159
 20
221.774134
 30
0.0
 10
234.482566
 20
222.134356
 30
0.0
 10
234.122348
 20
222.570948
 30
0.0
 10
233.850368
 20
223.072047
 30
0.0
 10
233.678473
 20
223.625794
 30
0.0
 10
233.618544
 20
224.220321
 30
0.0
 10
233.678473
 20
224.814848
 30
0.0
 10
233.850368
 20
225.368593
 30
0.0
 10
234.122348
 20
225.869694
 30
0.0
 10
234.482566
 20
226.306284
 30
0.0
 10
234.919159
 20
226.666506
 30
0.0
 10
235.420261
 20
226.938494
 30
0.0
 10
235.974009
 20
227.110386
 30
0.0
 10
236.568540
 20
227.170320
 30
0.0
  0
LWPOLYLINE
  5
115
100
AcDbEntity
  8
0
 62
7
100
AcDbPolyline
 90
41
 70
0
 10
203.253371
 20
161.620328
 30
0.0
 10
203.504385
 20
164.112424
 30
0.0
 10
204.224289
 20
166.433688
 30
0.0
 10
205.363374
 20
168.534355
 30
0.0
 10
206.871940
 20
170.364668
 30
0.0
 10
208.700274
 20
171.874864
 30
0.0
 10
210.798672
 20
173.015183
 30
0.0
 10
213.117424
 20
173.735866
 30
0.0
 10
215.606830
 20
173.987151
 30
0.0
 10
218.096236
 20
173.735866
 30
0.0
 10
220.414988
 20
173.015183
 30
0.0
 10
222.513387
 20
171.874864
 30
0.0
 10
224.341721
 20
170.364668
 30
0.0
 10
225.850286
 20
168.534355
 30
0.0
 10
226.989372
 20
166.433688
 30
0.0
 10
227.709276
 20
164.112427
 30
0.0
 10
227.960290
 20
161.620328
 30
0.0
 10
227.938305
 20
160.876393
 30
0.0
 10
227.873139
 20
160.144422
 30
0.0
 10
227.766056
 20
159.425548
 30
0.0
 10
227.618298
 20
158.720907
 30
0.0
 10
227.431106
 20
158.031639
 30
0.0
 10
227.205732
 20
157.358877
 30
0.0
 10
226.943412
 20
156.703760
 30
0.0
 10
226.645399
 20
156.067425
 30
0.0
 10
223.887143
 20
156.067425
 30
0.0
 10
221.128886
 20
156.067425
 30
0.0
 10
218.370630
 20
156.067425
 30
0.0
 10
215.612373
 20
156.067425
 30
0.0
 10
212.854117
 20
156.067425
 30
0.0
 10
210.095860
 20
156.067425
 30
0.0
 10
207.337604
 20
156.067425
 30
0.0
 10
204.579347
 20
156.067425
 30
0.0
 10
204.280719
 20
156.703856
 30
0.0
 10
204.017084
 20
157.358965
 30
0.0
 10
203.789929
 20
158.031655
 30
0.0
 10
203.600739
 20
158.720825
 30
0.0
 10
203.451000
 20
159.425376
 30
0.0
 10
203.342203
 20
160.144210
 30
0.0
 10
203.275836
 20
160.876227
 30
0.0
 10
203.253371
 20
161.620328
 30
0.0
  0
LWPOLYLINE
  5
116
100
AcDbEntity
  8
0
 62
7
100
AcDbPolyline
 90
33
 70
0
 10
236.568540
 20
167.943560
 30
0.0
 10
237.163070
 20
167.883625
 30
0.0
 10
237.716819
 20
167.711734
 30
0.0
 10
238.217921
 20
167.439745
 30
0.0
 10
238.654513
 20
167.079525
 30
0.0
 10
239.014731
 20
166.642933
 30
0.0
 10
239.286711
 20
166.141833
 30
0.0
 10
239.458606
 20
165.588088
 30
0.0
 10
239.518536
 20
164.993560
 30
0.0
 10
239.458606
 20
164.399033
 30
0.0
 10
239.286711
 20
163.845286
 30
0.0
 10
239.014731
 20
163.344188
 30
0.0
 10
238.654513
 20
162.907595
 30
0.0
 10
238.217921
 20
162.547374
 30
0.0
 10
237.716819
 20
162.275385
 30
0.0
 10
237.163070
 20
162.103494
 30
0.0
 10
236.568540
 20
162.043559
 30
0.0
 10
235.974009
 20
162.103494
 30
0.0
 10
235.420261
 20
162.275385
 30
0.0
 10
234.919159
 20
162.547374
 30
0.0
 10
234.482566
 20
162.907595
 30
0.0
 10
234.122348
 20
163.344188
 30
0.0
 10
233.850368
 20
163.845286
 30
0.0
 10
233.678473
 20
164.399033
 30
0.0
 10
233.618544
 20
164.993560
 30
0.0
 10
233.678473
 20
165.588088
 30
0.0
 10
233.850368
 20
166.141833
 30
0.0
 10
234.122348
 20
166.642933
 30
0.0
 10
234.482566
 20
167.079525
 30
0.0
 10
234.919159
 20
167.439745
 30
0.0
 10
235.420261
 20
167.711734
 30
0.0
 10
235.974009
 20
167.883625
 30
0.0
 10
236.568540
 20
167.943560
 30
0.0
  0
LWPOLYLINE
  5
117
100
AcDbEntity
  8
0
 62
7
100
AcDbPolyline
 90
41
 70
0
 10
203.253357
 20
102.393531
 30
0.0
 10
203.504371
 20
104.885630
 30
0.0
 10
204.224275
 20
107.206890
 30
0.0
 10
205.363360
 20
109.307558
 30
0.0
 10
206.871926
 20
111.137871
 30
0.0
 10
208.700260
 20
112.648067
 30
0.0
 10
210.798658
 20
113.788386
 30
0.0
 10
213.117410
 20
114.509069
 30
0.0
 10
215.606816
 20
114.760354
 30
0.0
 10
218.096222
 20
114.509069
 30
0.0
 10
220.414974
 20
113.788386
 30
0.0
 10
222.513373
 20
112.648067
 30
0.0
 10
224.341707
 20
111.137871
 30
0.0
 10
225.850272
 20
109.307558
 30
0.0
 10
226.989358
 20
107.206890
 30
0.0
 10
227.709262
 20
104.885630
 30
0.0
 10
227.960276
 20
102.393531
 30
0.0
 10
227.938290
 20
101.649596
 30
0.0
 10
227.873125
 20
100.917625
 30
0.0
 10
227.766042
 20
100.198751
 30
0.0
 10
227.618284
 20
99.494110
 30
0.0
 10
227.431092
 20
98.804841
 30
0.0
 10
227.205718
 20
98.132080
 30
0.0
 10
226.943398
 20
97.476963
 30
0.0
 10
226.645385
 20
96.840628
 30
0.0
 10
223.887129
 20
96.840628
 30
0.0
 10
221.128872
 20
96.840628
 30
0.0
 10
218.370616
 20
96.840628
 30
0.0
 10
215.612359
 20
96.840628
 30
0.0
 10
212.854103
 20
96.840628
 30
0.0
 10
210.095846
 20
96.840628
 30
0.0
 10
207.337589
 20
96.840628
 30
0.0
 10
204.579333
 20
96.840628
 30
0.0
 10
204.280705
 20
97.477059
 30
0.0
 10
204.017070
 20
98.132168
 30
0.0
 10
203.789915
 20
98.804858
 30
0.0
 10
203.600725
 20
99.494028
 30
0.0
 10
203.450986
 20
100.198579
 30
0.0
 10
203.342189
 20
100.917413
 30
0.0
 10
203.275822
 20
101.649430
 30
0.0
 10
203.253357
 20
102.393531
 30
0.0
  0
LWPOLYLINE
  5
118
100
AcDbEntity
  8
0
 62
7
100
AcDbPolyline
 90
33
 70
0
 10
236.568540
 20
108.716746
 30
0.0
 10
237.163070
 20
108.656811
 30
0.0
 10
237.716819
 20
108.484920
 30
0.0
 10
238.217921
 20
108.212931
 30
0.0
 10
238.654513
 20
107.852711
 30
0.0
 10
239.014731
 20
107.416119
 30
0.0
 10
239.286711
 20
106.915019
 30
0.0
 10
239.458606
 20
106.361274
 30
0.0
 10
239.518536
 20
105.766746
 30
0.0
 10
239.458606
 20
105.172219
 30
0.0
 10
239.286711
 20
104.618472
 30
0.0
 10
239.014731
 20
104.117373
 30
0.0
 10
238.654513
 20
103.680781
 30
0.0
 10
238.217921
 20
103.320560
 30
0.0
 10
237.716819
 20
103.048571
 30
0.0
 10
237.163070
 20
102.876680
 30
0.0
 10
236.568540
 20
102.816745
 30
0.0
 10
235.974009
 20
102.876680
 30
0.0
 10
235.420261
 20
103.048571
 30
0.0
 10
234.919159
 20
103.320560
 30
0.0
 10
234.482566
 20
103.680781
 30
0.0
 10
234.122348
 20
104.117373
 30
0.0
 10
233.850368
 20
104.618472
 30
0.0
 10
233.678473
 20
105.172219
 30
0.0
 10
233.618544
 20
105.766746
 30
0.0
 10
233.678473
 20
106.361274
 30
0.0
 10
233.850368
 20
106.915019
 30
0.0
 10
234.122348
 20
107.416119
 30
0.0
 10
234.482566
 20
107.852711
 30
0.0
 10
234.919159
 20
108.212931
 30
0.0
 10
235.420261
 20
108.484920
 30
0.0
 10
235.974009
 20
108.656811
 30
0.0
 10
236.568540
 20
108.716746
 30
0.0
  0
LWPOLYLINE
  5
119
100
AcDbEntity
  8
0
 62
7
100
AcDbPolyline
 90
42
 70
0
 10
259.375673
 20
281.065606
 30
0.0
 10
259.626687
 20
283.557699
 30
0.0
 10
260.346591
 20
285.878959
 30
0.0
 10
261.485676
 20
287.979624
 30
0.0
 10
262.994242
 20
289.809934
 30
0.0
 10
264.822576
 20
291.320128
 30
0.0
 10
266.920974
 20
292.460447
 30
0.0
 10
269.239726
 20
293.181129
 30
0.0
 10
271.729132
 20
293.432415
 30
0.0
 10
274.218538
 20
293.181129
 30
0.0
 10
276.537293
 20
292.460447
 30
0.0
 10
278.635691
 20
291.320128
 30
0.0
 10
280.464029
 20
289.809934
 30
0.0
 10
281.972594
 20
287.979624
 30
0.0
 10
283.111674
 20
285.878959
 30
0.0
 10
283.831594
 20
283.557699
 30
0.0
 10
284.082603
 20
281.065606
 30
0.0
 10
284.060590
 20
280.321672
 30
0.0
 10
283.995424
 20
279.589700
 30
0.0
 10
283.888321
 20
278.870825
 30
0.0
 10
283.740578
 20
278.166185
 30
0.0
 10
283.553380
 20
277.476916
 30
0.0
 10
283.327997
 20
276.804155
 30
0.0
 10
283.065700
 20
276.149039
 30
0.0
 10
282.767673
 20
275.512703
 30
0.0
 10
280.009414
 20
275.512703
 30
0.0
 10
277.251157
 20
275.512703
 30
0.0
 10
274.492901
 20
275.512703
 30
0.0
 10
271.734641
 20
275.512703
 30
0.0
 10
268.976385
 20
275.512703
 30
0.0
 10
266.218125
 20
275.512703
 30
0.0
 10
263.459866
 20
275.512703
 30
0.0
 10
260.701609
 20
275.512703
 30
0.0
 10
260.402982
 20
276.149134
 30
0.0
 10
260.139347
 20
276.804244
 30
0.0
 10
259.912191
 20
277.476933
 30
0.0
 10
259.723001
 20
278.166103
 30
0.0
 10
259.573262
 20
278.870655
 30
0.0
 10
259.464466
 20
279.589489
 30
0.0
 10
259.398098
 20
280.321506
 30
0.0
 10
259.375633
 20
281.065606
 30
0.0
 10
259.375673
 20
281.065606
 30
0.0
  0
LWPOLYLINE
  5
11a
100
AcDbEntity
  8
0
 62
7
100
AcDbPolyline
 90
33
 70
0
 10
292.690844
 20
287.388809
 30
0.0
 10
293.285375
 20
287.328875
 30
0.0
 10
293.839123
 20
287.156984
 30
0.0
 10
294.340225
 20
286.884995
 30
0.0
 10
294.776818
 20
286.524773
 30
0.0
 10
295.137036
 20
286.088183
 30
0.0
 10
295.409016
 20
285.587082
 30
0.0
 10
295.580911
 20
285.033337
 30
0.0
 10
295.640840
 20
284.438810
 30
0.0
 10
295.580911
 20
283.844283
 30
0.0
 10
295.409016
 20
283.290536
 30
0.0
 10
295.137036
 20
282.789437
 30
0.0
 10
294.776818
 20
282.352845
 30
0.0
 10
294.340225
 20
281.992624
 30
0.0
 10
293.839123
 20
281.720635
 30
0.0
 10
293.285375
 20
281.548743
 30
0.0
 10
292.690844
 20
281.488809
 30
0.0
 10
292.096314
 20
281.548743
 30
0.0
 10
291.542565
 20
281.720635
 30
0.0
 10
291.041463
 20
281.992624
 30
0.0
 10
290.604888
 20
282.352845
 30
0.0
 10
290.244653
 20
282.789437
 30
0.0
 10
289.972673
 20
283.290536
 30
0.0
 10
289.800778
 20
283.844283
 30
0.0
 10
289.740848
 20
284.438810
 30
0.0
 10
289.800778
 20
285.033337
 30
0.0
 10
289.972673
 20
285.587082
 30
0.0
 10
290.244653
 20
286.088183
 30
0.0
 10
290.604888
 20
286.524773
 30
0.0
 10
291.041463
 20
286.884995
 30
0.0
 10
291.542565
 20
287.156984
 30
0.0
 10
292.096314
 20
287.328875
 30
0.0
 10
292.690844
 20
287.388809
 30
0.0
  0
LWPOLYLINE
  5
11b
100
AcDbEntity
  8
0
 62
7
100
AcDbPolyline
 90
42
 70
0
 10
259.375687
 20
221.838818
 30
0.0
 10
259.626701
 20
224.330913
 30
0.0
 10
260.346605
 20
226.652177
 30
0.0
 10
261.485690
 20
228.752844
 30
0.0
 10
262.994256
 20
230.583157
 30
0.0
 10
264.822590
 20
232.093354
 30
0.0
 10
266.920988
 20
233.233673
 30
0.0
 10
269.239740
 20
233.954355
 30
0.0
 10
271.729146
 20
234.205640
 30
0.0
 10
274.218550
 20
233.954355
 30
0.0
 10
276.537304
 20
233.233673
 30
0.0
 10
278.635703
 20
232.093354
 30
0.0
 10
280.464037
 20
230.583157
 30
0.0
 10
281.972599
 20
228.752844
 30
0.0
 10
283.111674
 20
226.652177
 30
0.0
 10
283.831594
 20
224.330913
 30
0.0
 10
284.082603
 20
221.838818
 30
0.0
 10
284.060590
 20
221.094883
 30
0.0
 10
283.995424
 20
220.362911
 30
0.0
 10
283.888321
 20
219.644038
 30
0.0
 10
283.740578
 20
218.939396
 30
0.0
 10
283.553380
 20
218.250128
 30
0.0
 10
283.327997
 20
217.577367
 30
0.0
 10
283.065700
 20
216.922250
 30
0.0
 10
282.767673
 20
216.285915
 30
0.0
 10
280.009417
 20
216.285915
 30
0.0
 10
277.251160
 20
216.285915
 30
0.0
 10
274.492903
 20
216.285915
 30
0.0
 10
271.734650
 20
216.285915
 30
0.0
 10
268.976393
 20
216.285915
 30
0.0
 10
266.218137
 20
216.285915
 30
0.0
 10
263.459880
 20
216.285915
 30
0.0
 10
260.701623
 20
216.285915
 30
0.0
 10
260.402996
 20
216.922346
 30
0.0
 10
260.139361
 20
217.577454
 30
0.0
 10
259.912206
 20
218.250145
 30
0.0
 10
259.723015
 20
218.939315
 30
0.0
 10
259.573276
 20
219.643865
 30
0.0
 10
259.464480
 20
220.362699
 30
0.0
 10
259.398112
 20
221.094716
 30
0.0
 10
259.375648
 20
221.838818
 30
0.0
 10
259.375687
 20
221.838818
 30
0.0
  0
LWPOLYLINE
  5
11c
100
AcDbEntity
  8
0
 62
7
100
AcDbPolyline
 90
33
 70
0
 10
292.690856
 20
228.162021
 30
0.0
 10
293.285386
 20
228.102087
 30
0.0
 10
293.839135
 20
227.930195
 30
0.0
 10
294.340237
 20
227.658206
 30
0.0
 10
294.776829
 20
227.297985
 30
0.0
 10
295.137047
 20
226.861394
 30
0.0
 10
295.409027
 20
226.360294
 30
0.0
 10
295.580922
 20
225.806549
 30
0.0
 10
295.640852
 20
225.212021
 30
0.0
 10
295.580922
 20
224.617494
 30
0.0
 10
295.409027
 20
224.063748
 30
0.0
 10
295.137047
 20
223.562649
 30
0.0
 10
294.776829
 20
223.126056
 30
0.0
 10
294.340237
 20
222.765835
 30
0.0
 10
293.839135
 20
222.493846
 30
0.0
 10
293.285386
 20
222.321955
 30
0.0
 10
292.690856
 20
222.262021
 30
0.0
 10
292.096325
 20
222.321955
 30
0.0
 10
291.542577
 20
222.493846
 30
0.0
 10
291.041475
 20
222.765835
 30
0.0
 10
290.604899
 20
223.126056
 30
0.0
 10
290.244664
 20
223.562649
 30
0.0
 10
289.972684
 20
224.063748
 30
0.0
 10
289.800789
 20
224.617494
 30
0.0
 10
289.740860
 20
225.212021
 30
0.0
 10
289.800789
 20
225.806549
 30
0.0
 10
289.972684
 20
226.360294
 30
0.0
 10
290.244664
 20
226.861394
 30
0.0
 10
290.604899
 20
227.297985
 30
0.0
 10
291.041475
 20
227.658206
 30
0.0
 10
291.542577
 20
227.930195
 30
0.0
 10
292.096325
 20
228.102087
 30
0.0
 10
292.690856
 20
228.162021
 30
0.0
  0
LWPOLYLINE
  5
11d
100
AcDbEntity
  8
0
 62
7
100
AcDbPolyline
 90
42
 70
0
 10
259.375687
 20
162.612001
 30
0.0
 10
259.626701
 20
165.104096
 30
0.0
 10
260.346605
 20
167.425360
 30
0.0
 10
261.485690
 20
169.526028
 30
0.0
 10
262.994256
 20
171.356340
 30
0.0
 10
264.822590
 20
172.866537
 30
0.0
 10
266.920988
 20
174.006856
 30
0.0
 10
269.239740
 20
174.727538
 30
0.0
 10
271.729146
 20
174.978823
 30
0.0
 10
274.218550
 20
174.727538
 30
0.0
 10
276.537304
 20
174.006856
 30
0.0
 10
278.635703
 20
172.866537
 30
0.0
 10
280.464037
 20
171.356340
 30
0.0
 10
281.972599
 20
169.526028
 30
0.0
 10
283.111674
 20
167.425360
 30
0.0
 10
283.831594
 20
165.104099
 30
0.0
 10
284.082603
 20
162.612001
 30
0.0
 10
284.060590
 20
161.868066
 30
0.0
 10
283.995424
 20
161.136094
 30
0.0
 10
283.888321
 20
160.417221
 30
0.0
 10
283.740578
 20
159.712579
 30
0.0
 10
283.553380
 20
159.023311
 30
0.0
 10
283.327997
 20
158.350550
 30
0.0
 10
283.065700
 20
157.695433
 30
0.0
 10
282.767673
 20
157.059098
 30
0.0
 10
280.009417
 20
157.059098
 30
0.0
 10
277.251160
 20
157.059098
 30
0.0
 10
274.492903
 20
157.059098
 30
0.0
 10
271.734650
 20
157.059098
 30
0.0
 10
268.976393
 20
157.059098
 30
0.0
 10
266.218137
 20
157.059098
 30
0.0
 10
263.459880
 20
157.059098
 30
0.0
 10
260.701623
 20
157.059098
 30
0.0
 10
260.402996
 20
157.695529
 30
0.0
 10
260.139361
 20
158.350637
 30
0.0
 10
259.912206
 20
159.023328
 30
0.0
 10
259.723015
 20
159.712498
 30
0.0
 10
259.573276
 20
160.417048
 30
0.0
 10
259.464480
 20
161.135883
 30
0.0
 10
259.398112
 20
161.867899
 30
0.0
 10
259.375648
 20
162.612001
 30
0.0
 10
259.375687
 20
162.612001
 30
0.0
  0
LWPOLYLINE
  5
11e
100
AcDbEntity
  8
0
 62
7
100
AcDbPolyline
 90
33
 70
0
 10
292.690856
 20
168.935232
 30
0.0
 10
293.285386
 20
168.875298
 30
0.0
 10
293.839135
 20
168.703406
 30
0.0
 10
294.340237
 20
168.431418
 30
0.0
 10
294.776829
 20
168.071196
 30
0.0
 10
295.137047
 20
167.634606
 30
0.0
 10
295.409027
 20
167.133505
 30
0.0
 10
295.580922
 20
166.579760
 30
0.0
 10
295.640852
 20
165.985233
 30
0.0
 10
295.580922
 20
165.390706
 30
0.0
 10
295.409027
 20
164.836959
 30
0.0
 10
295.137047
 20
164.335860
 30
0.0
 10
294.776829
 20
163.899268
 30
0.0
 10
294.340237
 20
163.539046
 30
0.0
 10
293.839135
 20
163.267058
 30
0.0
 10
293.285386
 20
163.095166
 30
0.0
 10
292.690856
 20
163.035232
 30
0.0
 10
292.096325
 20
163.095166
 30
0.0
 10
291.542577
 20
163.267058
 30
0.0
 10
291.041475
 20
163.539046
 30
0.0
 10
290.604899
 20
163.899268
 30
0.0
 10
290.244664
 20
164.335860
 30
0.0
 10
289.972684
 20
164.836959
 30
0.0
 10
289.800789
 20
165.390706
 30
0.0
 10
289.740860
 20
165.985233
 30
0.0
 10
289.800789
 20
166.579760
 30
0.0
 10
289.972684
 20
167.133505
 30
0.0
 10
290.244664
 20
167.634606
 30
0.0
 10
290.604899
 20
168.071196
 30
0.0
 10
291.041475
 20
168.431418
 30
0.0
 10
291.542577
 20
168.703406
 30
0.0
 10
292.096325
 20
168.875298
 30
0.0
 10
292.690856
 20
168.935232
 30
0.0
  0
LWPOLYLINE
  5
11f
100
AcDbEntity
  8
0
 62
7
100
AcDbPolyline
 90
42
 70
0
 10
259.375673
 20
103.385215
 30
0.0
 10
259.626687
 20
105.877313
 30
0.0
 10
260.346591
 20
108.198574
 30
0.0
 10
261.485676
 20
110.299242
 30
0.0
 10
262.994242
 20
112.129554
 30
0.0
 10
264.822576
 20
113.639751
 30
0.0
 10
266.920974
 20
114.780070
 30
0.0
 10
269.239726
 20
115.500752
 30
0.0
 10
271.729132
 20
115.752037
 30
0.0
 10
274.218538
 20
115.500752
 30
0.0
 10
276.537293
 20
114.780070
 30
0.0
 10
278.635691
 20
113.639751
 30
0.0
 10
280.464029
 20
112.129554
 30
0.0
 10
281.972594
 20
110.299242
 30
0.0
 10
283.111674
 20
108.198574
 30
0.0
 10
283.831594
 20
105.877311
 30
0.0
 10
284.082603
 20
103.385215
 30
0.0
 10
284.060590
 20
102.641280
 30
0.0
 10
283.995424
 20
101.909308
 30
0.0
 10
283.888321
 20
101.190435
 30
0.0
 10
283.740578
 20
100.485794
 30
0.0
 10
283.553380
 20
99.796525
 30
0.0
 10
283.327997
 20
99.123764
 30
0.0
 10
283.065700
 20
98.468647
 30
0.0
 10
282.767673
 20
97.832312
 30
0.0
 10
280.009414
 20
97.832312
 30
0.0
 10
277.251157
 20
97.832312
 30
0.0
 10
274.492901
 20
97.832312
 30
0.0
 10
271.734641
 20
97.832312
 30
0.0
 10
268.976385
 20
97.832312
 30
0.0
 10
266.218125
 20
97.832312
 30
0.0
 10
263.459866
 20
97.832312
 30
0.0
 10
260.701609
 20
97.832312
 30
0.0
 10
260.402982
 20
98.468743
 30
0.0
 10
260.139347
 20
99.123851
 30
0.0
 10
259.912191
 20
99.796542
 30
0.0
 10
259.723001
 20
100.485712
 30
0.0
 10
259.573262
 20
101.190263
 30
0.0
 10
259.464466
 20
101.909097
 30
0.0
 10
259.398098
 20
102.641113
 30
0.0
 10
259.375633
 20
103.385215
 30
0.0
 10
259.375673
 20
103.385215
 30
0.0
  0
LWPOLYLINE
  5
120
100
AcDbEntity
  8
0
 62
7
100
AcDbPolyline
 90
33
 70
0
 10
292.690844
 20
109.708429
 30
0.0
 10
293.285375
 20
109.648495
 30
0.0
 10
293.839123
 20
109.476603
 30
0.0
 10
294.340225
 20
109.204615
 30
0.0
 10
294.776818
 20
108.844395
 30
0.0
 10
295.137036
 20
108.407803
 30
0.0
 10
295.409016
 20
107.906702
 30
0.0
 10
295.580911
 20
107.352957
 30
0.0
 10
295.640840
 20
106.758430
 30
0.0
 10
295.580911
 20
106.163903
 30
0.0
 10
295.409016
 20
105.610156
 30
0.0
 10
295.137036
 20
105.109057
 30
0.0
 10
294.776818
 20
104.672465
 30
0.0
 10
294.340225
 20
104.312244
 30
0.0
 10
293.839123
 20
104.040255
 30
0.0
 10
293.285375
 20
103.868363
 30
0.0
 10
292.690844
 20
103.808429
 30
0.0
 10
292.096314
 20
103.868363
 30
0.0
 10
291.542565
 20
104.040255
 30
0.0
 10
291.041463
 20
104.312244
 30
0.0
 10
290.604888
 20
104.672465
 30
0.0
 10
290.244653
 20
105.109057
 30
0.0
 10
289.972673
 20
105.610156
 30
0.0
 10
289.800778
 20
106.163903
 30
0.0
 10
289.740848
 20
106.758430
 30
0.0
 10
289.800778
 20
107.352957
 30
0.0
 10
289.972673
 20
107.906702
 30
0.0
 10
290.244653
 20
108.407803
 30
0.0
 10
290.604888
 20
108.844395
 30
0.0
 10
291.041463
 20
109.204615
 30
0.0
 10
291.542565
 20
109.476603
 30
0.0
 10
292.096314
 20
109.648495
 30
0.0
 10
292.690844
 20
109.708429
 30
0.0
  0
ENDSEC
  0
SECTION
  2
OBJECTS
  0
DICTIONARY
  5
C
330
0
100
AcDbDictionary
  3
ACAD_GROUP
350
D
  3
ACAD_MLINESTYLE
350
17
  0
DICTIONARY
  5
D
330
C
100
AcDbDictionary
  0
DICTIONARY
  5
1A
330
C
100
AcDbDictionary
  0
DICTIONARY
  5
17
330
C
100
AcDbDictionary
  3
STANDARD
350
18
  0
DICTIONARY
  5
19
330
C
100
AcDbDictionary
  0
ENDSEC
  0
EOF
