  0
SECTION
  2
HEADER
  9
$ACADVER
  1
AC1014
  9
$HANDSEED
  5
FFFF
  9
$MEASUREMENT
 70
     1
  0
ENDSEC
  0
SECTION
  2
TABLES
  0
TABLE
  2
VPORT
  5
8
330
0
100
AcDbSymbolTable
 70
     4
  0
VPORT
  5
2E
330
8
100
AcDbSymbolTableRecord
100
AcDbViewportTableRecord
  2
*ACTIVE
 70
     0
 10
0.0
 20
0.0
 11
1.0
 21
1.0
 12
210.0
 22
148.5
 13
0.0
 23
0.0
 14
10.0
 24
10.0
 15
10.0
 25
10.0
 16
0.0
 26
0.0
 36
1.0
 17
0.0
 27
0.0
 37
0.0
 40
341.0
 41
1.24
 42
50.0
 43
0.0
 44
0.0
 50
0.0
 51
0.0
 71
     0
 72
   100
 73
     1
 74
     3
 75
     0
 76
     0
 77
     0
 78
     0
  0
ENDTAB
  0
TABLE
  2
LTYPE
  5
5
330
0
100
AcDbSymbolTable
 70
     1
  0
LTYPE
  5
14
330
5
100
AcDbSymbolTableRecord
100
AcDbLinetypeTableRecord
  2
BYBLOCK
 70
     0
  3

 72
    65
 73
     0
 40
0.0
  0
LTYPE
  5
15
330
5
100
AcDbSymbolTableRecord
100
AcDbLinetypeTableRecord
  2
BYLAYER
 70
     0
  3

 72
    65
 73
     0
 40
0.0
  0
LTYPE
  5
16
330
5
100
AcDbSymbolTableRecord
100
AcDbLinetypeTableRecord
  2
CONTINUOUS
 70
     0
  3
Solid line
 72
    65
 73
     0
 40
0.0
  0
ENDTAB
  0
TABLE
  2
LAYER
  5
2
100
AcDbSymbolTable
 70
1
  0
LAYER
  5
50
100
AcDbSymbolTableRecord
100
AcDbLayerTableRecord
  2
0
 70
0
  6
CONTINUOUS
  0
ENDTAB
  0
TABLE
  2
STYLE
  5
3
330
0
100
AcDbSymbolTable
 70
     1
  0
STYLE
  5
11
330
3
100
AcDbSymbolTableRecord
100
AcDbTextStyleTableRecord
  2
STANDARD
 70
     0
 40
0.0
 41
1.0
 50
0.0
 71
     0
 42
2.5
  3
txt
  4

  0
ENDTAB
  0
TABLE
  2
VIEW
  5
6
330
0
100
AcDbSymbolTable
 70
     0
  0
ENDTAB
  0
TABLE
  2
UCS
  5
7
330
0
100
AcDbSymbolTable
 70
     0
  0
ENDTAB
  0
TABLE
  2
APPID
  5
9
330
0
100
AcDbSymbolTable
 70
     2
  0
APPID
  5
12
330
9
100
AcDbSymbolTableRecord
100
AcDbRegAppTableRecord
  2
ACAD
 70
     0
  0
ENDTAB
  0
TABLE
  2
DIMSTYLE
  5
A
330
0
100
AcDbSymbolTable
 70
     1
  0
DIMSTYLE
105
27
330
A
100
AcDbSymbolTableRecord
100
AcDbDimStyleTableRecord
  2
ISO-25
 70
     0
  3

  4

  5

  6

  7

 40
1.0
 41
2.5
 42
0.625
 43
3.75
 44
1.25
 45
0.0
 46
0.0
 47
0.0
 48
0.0
140
2.5
141
2.5
142
0.0
143
0.03937007874016
144
1.0
145
0.0
146
1.0
147
0.625
 71
     0
 72
     0
 73
     0
 74
     0
 75
     0
 76
     0
 77
     1
 78
     8
170
     0
171
     3
172
     1
173
     0
174
     0
175
     0
176
     0
177
     0
178
     0
270
     2
271
     2
272
     2
273
     2
274
     3
340
11
275
     0
280
     0
281
     0
282
     0
283
     0
284
     8
285
     0
286
     0
287
     3
288
     0
  0
ENDTAB
  0
TABLE
  2
BLOCK_RECORD
  5
1
330
0
100
AcDbSymbolTable
 70
     1
  0
BLOCK_RECORD
  5
1F
330
1
100
AcDbSymbolTableRecord
100
AcDbBlockTableRecord
  2
*MODEL_SPACE
  0
BLOCK_RECORD
  5
1B
330
1
100
AcDbSymbolTableRecord
100
AcDbBlockTableRecord
  2
*PAPER_SPACE
  0
ENDTAB
  0
ENDSEC
  0
SECTION
  2
BLOCKS
  0
BLOCK
  5
20
330
1F
100
AcDbEntity
  8
0
100
AcDbBlockBegin
  2
*MODEL_SPACE
 70
     0
 10
0.0
 20
0.0
 30
0.0
  3
*MODEL_SPACE
  1

  0
ENDBLK
  5
21
330
1F
100
AcDbEntity
  8
0
100
AcDbBlockEnd
  0
BLOCK
  5
1C
330
1B
100
AcDbEntity
 67
     1
  8
0
100
AcDbBlockBegin
  2
*PAPER_SPACE
  1

  0
ENDBLK
  5
1D
330
1B
100
AcDbEntity
 67
     1
  8
0
100
AcDbBlockEnd
  0
ENDSEC
  0
SECTION
  2
ENTITIES
  0
SPLINE
  5
100
100
AcDbEntity
  8
0
 62
7
100
AcDbSpline
 70
8
 71
3
 72
8
 73
4
 74
0
 40
0
 40
0
 40
0
 40
0
 40
1
 40
1
 40
1
 40
1
 10
214.183339
 20
255.582179
 30
0.0
 10
215.237273
 20
255.582179
 30
0.0
 10
216.211147
 20
255.019912
 30
0.0
 10
216.738114
 20
254.107179
 30
0.0
  0
SPLINE
  5
101
100
AcDbEntity
  8
0
 62
7
100
AcDbSpline
 70
8
 71
3
 72
8
 73
4
 74
0
 40
0
 40
0
 40
0
 40
0
 40
1
 40
1
 40
1
 40
1
 10
216.738114
 20
254.107179
 30
0.0
 10
217.265081
 20
253.194445
 30
0.0
 10
217.265081
 20
252.069912
 30
0.0
 10
216.738114
 20
251.157179
 30
0.0
  0
SPLINE
  5
102
100
AcDbEntity
  8
0
 62
7
100
AcDbSpline
 70
8
 71
3
 72
8
 73
4
 74
0
 40
0
 40
0
 40
0
 40
0
 40
1
 40
1
 40
1
 40
1
 10
216.738114
 20
251.157179
 30
0.0
 10
216.211147
 20
250.244445
 30
0.0
 10
215.237273
 20
249.682179
 30
0.0
 10
214.183339
 20
249.682179
 30
0.0
  0
SPLINE
  5
103
100
AcDbEntity
  8
0
 62
7
100
AcDbSpline
 70
8
 71
3
 72
8
 73
4
 74
0
 40
0
 40
0
 40
0
 40
0
 40
1
 40
1
 40
1
 40
1
 10
214.183339
 20
249.682179
 30
0.0
 10
213.129406
 20
249.682179
 30
0.0
 10
212.155531
 20
250.244445
 30
0.0
 10
211.628564
 20
251.157179
 30
0.0
  0
SPLINE
  5
104
100
AcDbEntity
  8
0
 62
7
100
AcDbSpline
 70
8
 71
3
 72
8
 73
4
 74
0
 40
0
 40
0
 40
0
 40
0
 40
1
 40
1
 40
1
 40
1
 10
211.628564
 20
251.157179
 30
0.0
 10
211.101597
 20
252.069912
 30
0.0
 10
211.101597
 20
253.194445
 30
0.0
 10
211.628564
 20
254.107179
 30
0.0
  0
SPLINE
  5
105
100
AcDbEntity
  8
0
 62
7
100
AcDbSpline
 70
8
 71
3
 72
8
 73
4
 74
0
 40
0
 40
0
 40
0
 40
0
 40
1
 40
1
 40
1
 40
1
 10
211.628564
 20
254.107179
 30
0.0
 10
212.155531
 20
255.019912
 30
0.0
 10
213.129406
 20
255.582179
 30
0.0
 10
214.183339
 20
255.582179
 30
0.0
  0
SPLINE
  5
106
100
AcDbEntity
  8
0
 62
7
100
AcDbSpline
 70
8
 71
3
 72
8
 73
4
 74
0
 40
0
 40
0
 40
0
 40
0
 40
1
 40
1
 40
1
 40
1
 10
214.183339
 20
194.454793
 30
0.0
 10
215.237273
 20
194.454793
 30
0.0
 10
216.211147
 20
193.892526
 30
0.0
 10
216.738114
 20
192.979793
 30
0.0
  0
SPLINE
  5
107
100
AcDbEntity
  8
0
 62
7
100
AcDbSpline
 70
8
 71
3
 72
8
 73
4
 74
0
 40
0
 40
0
 40
0
 40
0
 40
1
 40
1
 40
1
 40
1
 10
216.738114
 20
192.979793
 30
0.0
 10
217.265081
 20
192.067059
 30
0.0
 10
217.265081
 20
190.942526
 30
0.0
 10
216.738114
 20
190.029793
 30
0.0
  0
SPLINE
  5
108
100
AcDbEntity
  8
0
 62
7
100
AcDbSpline
 70
8
 71
3
 72
8
 73
4
 74
0
 40
0
 40
0
 40
0
 40
0
 40
1
 40
1
 40
1
 40
1
 10
216.738114
 20
190.029793
 30
0.0
 10
216.211147
 20
189.117059
 30
0.0
 10
215.237273
 20
188.554793
 30
0.0
 10
214.183339
 20
188.554793
 30
0.0
  0
SPLINE
  5
109
100
AcDbEntity
  8
0
 62
7
100
AcDbSpline
 70
8
 71
3
 72
8
 73
4
 74
0
 40
0
 40
0
 40
0
 40
0
 40
1
 40
1
 40
1
 40
1
 10
214.183339
 20
188.554793
 30
0.0
 10
213.129406
 20
188.554793
 30
0.0
 10
212.155531
 20
189.117059
 30
0.0
 10
211.628564
 20
190.029793
 30
0.0
  0
SPLINE
  5
10a
100
AcDbEntity
  8
0
 62
7
100
AcDbSpline
 70
8
 71
3
 72
8
 73
4
 74
0
 40
0
 40
0
 40
0
 40
0
 40
1
 40
1
 40
1
 40
1
 10
211.628564
 20
190.029793
 30
0.0
 10
211.101597
 20
190.942526
 30
0.0
 10
211.101597
 20
192.067059
 30
0.0
 10
211.628564
 20
192.979793
 30
0.0
  0
SPLINE
  5
10b
100
AcDbEntity
  8
0
 62
7
100
AcDbSpline
 70
8
 71
3
 72
8
 73
4
 74
0
 40
0
 40
0
 40
0
 40
0
 40
1
 40
1
 40
1
 40
1
 10
211.628564
 20
192.979793
 30
0.0
 10
212.155531
 20
193.892526
 30
0.0
 10
213.129406
 20
194.454793
 30
0.0
 10
214.183339
 20
194.454793
 30
0.0
  0
LWPOLYLINE
  5
10c
100
AcDbEntity
  8
0
 62
7
100
AcDbPolyline
 90
2
 70
0
 10
214.183339
 20
255.582179
 30
0.0
 10
214.183339
 20
255.582179
 30
0.0
  0
SPLINE
  5
10d
100
AcDbEntity
  8
0
 62
7
100
AcDbSpline
 70
8
 71
3
 72
8
 73
4
 74
0
 40
0
 40
0
 40
0
 40
0
 40
1
 40
1
 40
1
 40
1
 10
214.183339
 20
133.327435
 30
0.0
 10
215.237273
 20
133.327435
 30
0.0
 10
216.211147
 20
132.765168
 30
0.0
 10
216.738114
 20
131.852435
 30
0.0
  0
SPLINE
  5
10e
100
AcDbEntity
  8
0
 62
7
100
AcDbSpline
 70
8
 71
3
 72
8
 73
4
 74
0
 40
0
 40
0
 40
0
 40
0
 40
1
 40
1
 40
1
 40
1
 10
216.738114
 20
131.852435
 30
0.0
 10
217.265081
 20
130.939702
 30
0.0
 10
217.265081
 20
129.815168
 30
0.0
 10
216.738114
 20
128.902435
 30
0.0
  0
SPLINE
  5
10f
100
AcDbEntity
  8
0
 62
7
100
AcDbSpline
 70
8
 71
3
 72
8
 73
4
 74
0
 40
0
 40
0
 40
0
 40
0
 40
1
 40
1
 40
1
 40
1
 10
216.738114
 20
128.902435
 30
0.0
 10
216.211147
 20
127.989702
 30
0.0
 10
215.237273
 20
127.427435
 30
0.0
 10
214.183339
 20
127.427435
 30
0.0
  0
SPLINE
  5
110
100
AcDbEntity
  8
0
 62
7
100
AcDbSpline
 70
8
 71
3
 72
8
 73
4
 74
0
 40
0
 40
0
 40
0
 40
0
 40
1
 40
1
 40
1
 40
1
 10
214.183339
 20
127.427435
 30
0.0
 10
213.129406
 20
127.427435
 30
0.0
 10
212.155531
 20
127.989702
 30
0.0
 10
211.628564
 20
128.902435
 30
0.0
  0
SPLINE
  5
111
100
AcDbEntity
  8
0
 62
7
100
AcDbSpline
 70
8
 71
3
 72
8
 73
4
 74
0
 40
0
 40
0
 40
0
 40
0
 40
1
 40
1
 40
1
 40
1
 10
211.628564
 20
128.902435
 30
0.0
 10
211.101597
 20
129.815168
 30
0.0
 10
211.101597
 20
130.939702
 30
0.0
 10
211.628564
 20
131.852435
 30
0.0
  0
SPLINE
  5
112
100
AcDbEntity
  8
0
 62
7
100
AcDbSpline
 70
8
 71
3
 72
8
 73
4
 74
0
 40
0
 40
0
 40
0
 40
0
 40
1
 40
1
 40
1
 40
1
 10
211.628564
 20
131.852435
 30
0.0
 10
212.155531
 20
132.765168
 30
0.0
 10
213.129406
 20
133.327435
 30
0.0
 10
214.183339
 20
133.327435
 30
0.0
  0
LWPOLYLINE
  5
113
100
AcDbEntity
  8
0
 62
7
100
AcDbPolyline
 90
2
 70
0
 10
214.183339
 20
194.454793
 30
0.0
 10
214.183339
 20
194.454793
 30
0.0
  0
SPLINE
  5
114
100
AcDbEntity
  8
0
 62
7
100
AcDbSpline
 70
8
 71
3
 72
8
 73
4
 74
0
 40
0
 40
0
 40
0
 40
0
 40
1
 40
1
 40
1
 40
1
 10
214.183339
 20
72.200035
 30
0.0
 10
215.237273
 20
72.200035
 30
0.0
 10
216.211147
 20
71.637768
 30
0.0
 10
216.738114
 20
70.725035
 30
0.0
  0
SPLINE
  5
115
100
AcDbEntity
  8
0
 62
7
100
AcDbSpline
 70
8
 71
3
 72
8
 73
4
 74
0
 40
0
 40
0
 40
0
 40
0
 40
1
 40
1
 40
1
 40
1
 10
216.738114
 20
70.725035
 30
0.0
 10
217.265081
 20
69.812302
 30
0.0
 10
217.265081
 20
68.687768
 30
0.0
 10
216.738114
 20
67.775035
 30
0.0
  0
SPLINE
  5
116
100
AcDbEntity
  8
0
 62
7
100
AcDbSpline
 70
8
 71
3
 72
8
 73
4
 74
0
 40
0
 40
0
 40
0
 40
0
 40
1
 40
1
 40
1
 40
1
 10
216.738114
 20
67.775035
 30
0.0
 10
216.211147
 20
66.862301
 30
0.0
 10
215.237273
 20
66.300035
 30
0.0
 10
214.183339
 20
66.300035
 30
0.0
  0
SPLINE
  5
117
100
AcDbEntity
  8
0
 62
7
100
AcDbSpline
 70
8
 71
3
 72
8
 73
4
 74
0
 40
0
 40
0
 40
0
 40
0
 40
1
 40
1
 40
1
 40
1
 10
214.183339
 20
66.300035
 30
0.0
 10
213.129406
 20
66.300035
 30
0.0
 10
212.155531
 20
66.862301
 30
0.0
 10
211.628564
 20
67.775035
 30
0.0
  0
SPLINE
  5
118
100
AcDbEntity
  8
0
 62
7
100
AcDbSpline
 70
8
 71
3
 72
8
 73
4
 74
0
 40
0
 40
0
 40
0
 40
0
 40
1
 40
1
 40
1
 40
1
 10
211.628564
 20
67.775035
 30
0.0
 10
211.101597
 20
68.687768
 30
0.0
 10
211.101597
 20
69.812302
 30
0.0
 10
211.628564
 20
70.725035
 30
0.0
  0
SPLINE
  5
119
100
AcDbEntity
  8
0
 62
7
100
AcDbSpline
 70
8
 71
3
 72
8
 73
4
 74
0
 40
0
 40
0
 40
0
 40
0
 40
1
 40
1
 40
1
 40
1
 10
211.628564
 20
70.725035
 30
0.0
 10
212.155531
 20
71.637768
 30
0.0
 10
213.129406
 20
72.200035
 30
0.0
 10
214.183339
 20
72.200035
 30
0.0
  0
LWPOLYLINE
  5
11a
100
AcDbEntity
  8
0
 62
7
100
AcDbPolyline
 90
2
 70
0
 10
214.183339
 20
133.327435
 30
0.0
 10
214.183339
 20
133.327435
 30
0.0
  0
SPLINE
  5
11b
100
AcDbEntity
  8
0
 62
7
100
AcDbSpline
 70
8
 71
3
 72
8
 73
4
 74
0
 40
0
 40
0
 40
0
 40
0
 40
1
 40
1
 40
1
 40
1
 10
7.122856
 20
249.936309
 30
0.0
 10
7.122856
 20
256.765449
 30
0.0
 10
12.654552
 20
262.303132
 30
0.0
 10
19.476315
 20
262.303132
 30
0.0
  0
SPLINE
  5
11c
100
AcDbEntity
  8
0
 62
7
100
AcDbSpline
 70
8
 71
3
 72
8
 73
4
 74
0
 40
0
 40
0
 40
0
 40
0
 40
1
 40
1
 40
1
 40
1
 10
19.476315
 20
262.303132
 30
0.0
 10
26.298077
 20
262.303132
 30
0.0
 10
31.829773
 20
256.765449
 30
0.0
 10
31.829773
 20
249.936309
 30
0.0
  0
SPLINE
  5
11d
100
AcDbEntity
  8
0
 62
7
100
AcDbSpline
 70
8
 71
3
 72
8
 73
4
 74
0
 40
0
 40
0
 40
0
 40
0
 40
1
 40
1
 40
1
 40
1
 10
31.829773
 20
249.936309
 30
0.0
 10
31.829773
 20
247.937546
 30
0.0
 10
31.356063
 20
246.054249
 30
0.0
 10
30.514871
 20
244.383406
 30
0.0
  0
LWPOLYLINE
  5
11e
100
AcDbEntity
  8
0
 62
7
100
AcDbPolyline
 90
2
 70
0
 10
214.183339
 20
72.200035
 30
0.0
 10
214.183339
 20
72.200035
 30
0.0
  0
SPLINE
  5
11f
100
AcDbEntity
  8
0
 62
7
100
AcDbSpline
 70
8
 71
3
 72
8
 73
4
 74
0
 40
0
 40
0
 40
0
 40
0
 40
1
 40
1
 40
1
 40
1
 10
8.448820
 20
244.383406
 30
0.0
 10
7.607149
 20
246.054672
 30
0.0
 10
7.122856
 20
247.936906
 30
0.0
 10
7.122856
 20
249.936309
 30
0.0
  0
LWPOLYLINE
  5
120
100
AcDbEntity
  8
0
 62
7
100
AcDbPolyline
 90
2
 70
0
 10
30.514871
 20
244.383406
 30
0.0
 10
8.448820
 20
244.383406
 30
0.0
  0
SPLINE
  5
121
100
AcDbEntity
  8
0
 62
7
100
AcDbSpline
 70
8
 71
3
 72
8
 73
4
 74
0
 40
0
 40
0
 40
0
 40
0
 40
1
 40
1
 40
1
 40
1
 10
180.868168
 20
249.258947
 30
0.0
 10
180.868168
 20
256.088087
 30
0.0
 10
186.399864
 20
261.625770
 30
0.0
 10
193.221627
 20
261.625770
 30
0.0
  0
SPLINE
  5
122
100
AcDbEntity
  8
0
 62
7
100
AcDbSpline
 70
8
 71
3
 72
8
 73
4
 74
0
 40
0
 40
0
 40
0
 40
0
 40
1
 40
1
 40
1
 40
1
 10
193.221627
 20
261.625770
 30
0.0
 10
200.043390
 20
261.625770
 30
0.0
 10
205.575086
 20
256.088087
 30
0.0
 10
205.575086
 20
249.258947
 30
0.0
  0
SPLINE
  5
123
100
AcDbEntity
  8
0
 62
7
100
AcDbSpline
 70
8
 71
3
 72
8
 73
4
 74
0
 40
0
 40
0
 40
0
 40
0
 40
1
 40
1
 40
1
 40
1
 10
205.575086
 20
249.258947
 30
0.0
 10
205.575086
 20
247.260185
 30
0.0
 10
205.101376
 20
245.376888
 30
0.0
 10
204.260185
 20
243.706045
 30
0.0
  0
LWPOLYLINE
  5
124
100
AcDbEntity
  8
0
 62
7
100
AcDbPolyline
 90
2
 70
0
 10
7.122856
 20
249.936309
 30
0.0
 10
7.122856
 20
249.936309
 30
0.0
  0
SPLINE
  5
125
100
AcDbEntity
  8
0
 62
7
100
AcDbSpline
 70
8
 71
3
 72
8
 73
4
 74
0
 40
0
 40
0
 40
0
 40
0
 40
1
 40
1
 40
1
 40
1
 10
182.194132
 20
243.706045
 30
0.0
 10
181.352461
 20
245.377311
 30
0.0
 10
180.868168
 20
247.259544
 30
0.0
 10
180.868168
 20
249.258947
 30
0.0
  0
LWPOLYLINE
  5
126
100
AcDbEntity
  8
0
 62
7
100
AcDbPolyline
 90
2
 70
0
 10
204.260185
 20
243.706045
 30
0.0
 10
182.194132
 20
243.706045
 30
0.0
  0
SPLINE
  5
127
100
AcDbEntity
  8
0
 62
7
100
AcDbSpline
 70
8
 71
3
 72
8
 73
4
 74
0
 40
0
 40
0
 40
0
 40
0
 40
1
 40
1
 40
1
 40
1
 10
180.868168
 20
188.131561
 30
0.0
 10
180.868168
 20
194.960701
 30
0.0
 10
186.399864
 20
200.498384
 30
0.0
 10
193.221627
 20
200.498384
 30
0.0
  0
SPLINE
  5
128
100
AcDbEntity
  8
0
 62
7
100
AcDbSpline
 70
8
 71
3
 72
8
 73
4
 74
0
 40
0
 40
0
 40
0
 40
0
 40
1
 40
1
 40
1
 40
1
 10
193.221627
 20
200.498384
 30
0.0
 10
200.043390
 20
200.498384
 30
0.0
 10
205.575086
 20
194.960701
 30
0.0
 10
205.575086
 20
188.131561
 30
0.0
  0
SPLINE
  5
129
100
AcDbEntity
  8
0
 62
7
100
AcDbSpline
 70
8
 71
3
 72
8
 73
4
 74
0
 40
0
 40
0
 40
0
 40
0
 40
1
 40
1
 40
1
 40
1
 10
205.575086
 20
188.131561
 30
0.0
 10
205.575086
 20
186.132799
 30
0.0
 10
205.101376
 20
184.249502
 30
0.0
 10
204.260185
 20
182.578659
 30
0.0
  0
LWPOLYLINE
  5
12a
100
AcDbEntity
  8
0
 62
7
100
AcDbPolyline
 90
2
 70
0
 10
180.868168
 20
249.258947
 30
0.0
 10
180.868168
 20
249.258947
 30
0.0
  0
SPLINE
  5
12b
100
AcDbEntity
  8
0
 62
7
100
AcDbSpline
 70
8
 71
3
 72
8
 73
4
 74
0
 40
0
 40
0
 40
0
 40
0
 40
1
 40
1
 40
1
 40
1
 10
182.194132
 20
182.578659
 30
0.0
 10
181.352461
 20
184.249925
 30
0.0
 10
180.868168
 20
186.132158
 30
0.0
 10
180.868168
 20
188.131561
 30
0.0
  0
LWPOLYLINE
  5
12c
100
AcDbEntity
  8
0
 62
7
100
AcDbPolyline
 90
2
 70
0
 10
204.260185
 20
182.578659
 30
0.0
 10
182.194132
 20
182.578659
 30
0.0
  0
SPLINE
  5
12d
100
AcDbEntity
  8
0
 62
7
100
AcDbSpline
 70
8
 71
3
 72
8
 73
4
 74
0
 40
0
 40
0
 40
0
 40
0
 40
1
 40
1
 40
1
 40
1
 10
180.868168
 20
127.004175
 30
0.0
 10
180.868168
 20
133.833315
 30
0.0
 10
186.399864
 20
139.370998
 30
0.0
 10
193.221627
 20
139.370998
 30
0.0
  0
SPLINE
  5
12e
100
AcDbEntity
  8
0
 62
7
100
AcDbSpline
 70
8
 71
3
 72
8
 73
4
 74
0
 40
0
 40
0
 40
0
 40
0
 40
1
 40
1
 40
1
 40
1
 10
193.221627
 20
139.370998
 30
0.0
 10
200.043390
 20
139.370998
 30
0.0
 10
205.575086
 20
133.833315
 30
0.0
 10
205.575086
 20
127.004175
 30
0.0
  0
SPLINE
  5
12f
100
AcDbEntity
  8
0
 62
7
100
AcDbSpline
 70
8
 71
3
 72
8
 73
4
 74
0
 40
0
 40
0
 40
0
 40
0
 40
1
 40
1
 40
1
 40
1
 10
205.575086
 20
127.004175
 30
0.0
 10
205.575086
 20
125.005413
 30
0.0
 10
205.101376
 20
123.122116
 30
0.0
 10
204.260185
 20
121.451273
 30
0.0
  0
LWPOLYLINE
  5
130
100
AcDbEntity
  8
0
 62
7
100
AcDbPolyline
 90
2
 70
0
 10
180.868168
 20
188.131561
 30
0.0
 10
180.868168
 20
188.131561
 30
0.0
  0
SPLINE
  5
131
100
AcDbEntity
  8
0
 62
7
100
AcDbSpline
 70
8
 71
3
 72
8
 73
4
 74
0
 40
0
 40
0
 40
0
 40
0
 40
1
 40
1
 40
1
 40
1
 10
182.194132
 20
121.451273
 30
0.0
 10
181.352461
 20
123.122539
 30
0.0
 10
180.868168
 20
125.004772
 30
0.0
 10
180.868168
 20
127.004175
 30
0.0
  0
LWPOLYLINE
  5
132
100
AcDbEntity
  8
0
 62
7
100
AcDbPolyline
 90
2
 70
0
 10
204.260185
 20
121.451273
 30
0.0
 10
182.194132
 20
121.451273
 30
0.0
  0
SPLINE
  5
133
100
AcDbEntity
  8
0
 62
7
100
AcDbSpline
 70
8
 71
3
 72
8
 73
4
 74
0
 40
0
 40
0
 40
0
 40
0
 40
1
 40
1
 40
1
 40
1
 10
180.868168
 20
65.876801
 30
0.0
 10
180.868168
 20
72.705958
 30
0.0
 10
186.399864
 20
78.243637
 30
0.0
 10
193.221627
 20
78.243637
 30
0.0
  0
SPLINE
  5
134
100
AcDbEntity
  8
0
 62
7
100
AcDbSpline
 70
8
 71
3
 72
8
 73
4
 74
0
 40
0
 40
0
 40
0
 40
0
 40
1
 40
1
 40
1
 40
1
 10
193.221627
 20
78.243637
 30
0.0
 10
200.043390
 20
78.243637
 30
0.0
 10
205.575086
 20
72.705958
 30
0.0
 10
205.575086
 20
65.876801
 30
0.0
  0
SPLINE
  5
135
100
AcDbEntity
  8
0
 62
7
100
AcDbSpline
 70
8
 71
3
 72
8
 73
4
 74
0
 40
0
 40
0
 40
0
 40
0
 40
1
 40
1
 40
1
 40
1
 10
205.575086
 20
65.876801
 30
0.0
 10
205.575086
 20
63.878046
 30
0.0
 10
205.101376
 20
61.994749
 30
0.0
 10
204.260185
 20
60.323909
 30
0.0
  0
LWPOLYLINE
  5
136
100
AcDbEntity
  8
0
 62
7
100
AcDbPolyline
 90
2
 70
0
 10
180.868168
 20
127.004175
 30
0.0
 10
180.868168
 20
127.004175
 30
0.0
  0
SPLINE
  5
137
100
AcDbEntity
  8
0
 62
7
100
AcDbSpline
 70
8
 71
3
 72
8
 73
4
 74
0
 40
0
 40
0
 40
0
 40
0
 40
1
 40
1
 40
1
 40
1
 10
182.194132
 20
60.323909
 30
0.0
 10
181.352461
 20
61.995173
 30
0.0
 10
180.868168
 20
63.877397
 30
0.0
 10
180.868168
 20
65.876801
 30
0.0
  0
LWPOLYLINE
  5
138
100
AcDbEntity
  8
0
 62
7
100
AcDbPolyline
 90
2
 70
0
 10
204.260185
 20
60.323909
 30
0.0
 10
182.194132
 20
60.323909
 30
0.0
  0
SPLINE
  5
139
100
AcDbEntity
  8
0
 62
7
100
AcDbSpline
 70
8
 71
3
 72
8
 73
4
 74
0
 40
0
 40
0
 40
0
 40
0
 40
1
 40
1
 40
1
 40
1
 10
113.777313
 20
249.729694
 30
0.0
 10
113.777313
 20
256.558834
 30
0.0
 10
119.309010
 20
262.096517
 30
0.0
 10
126.130772
 20
262.096517
 30
0.0
  0
SPLINE
  5
13a
100
AcDbEntity
  8
0
 62
7
100
AcDbSpline
 70
8
 71
3
 72
8
 73
4
 74
0
 40
0
 40
0
 40
0
 40
0
 40
1
 40
1
 40
1
 40
1
 10
126.130772
 20
262.096517
 30
0.0
 10
132.952535
 20
262.096517
 30
0.0
 10
138.484232
 20
256.558834
 30
0.0
 10
138.484232
 20
249.729694
 30
0.0
  0
SPLINE
  5
13b
100
AcDbEntity
  8
0
 62
7
100
AcDbSpline
 70
8
 71
3
 72
8
 73
4
 74
0
 40
0
 40
0
 40
0
 40
0
 40
1
 40
1
 40
1
 40
1
 10
138.484232
 20
249.729694
 30
0.0
 10
138.484232
 20
247.730931
 30
0.0
 10
138.010522
 20
245.847634
 30
0.0
 10
137.169330
 20
244.176791
 30
0.0
  0
LWPOLYLINE
  5
13c
100
AcDbEntity
  8
0
 62
7
100
AcDbPolyline
 90
2
 70
0
 10
180.868168
 20
65.876801
 30
0.0
 10
180.868168
 20
65.876801
 30
0.0
  0
SPLINE
  5
13d
100
AcDbEntity
  8
0
 62
7
100
AcDbSpline
 70
8
 71
3
 72
8
 73
4
 74
0
 40
0
 40
0
 40
0
 40
0
 40
1
 40
1
 40
1
 40
1
 10
115.103278
 20
244.176791
 30
0.0
 10
114.261606
 20
245.848058
 30
0.0
 10
113.777313
 20
247.730291
 30
0.0
 10
113.777313
 20
249.729694
 30
0.0
  0
LWPOLYLINE
  5
13e
100
AcDbEntity
  8
0
 62
7
100
AcDbPolyline
 90
2
 70
0
 10
137.169330
 20
244.176791
 30
0.0
 10
115.103278
 20
244.176791
 30
0.0
  0
SPLINE
  5
13f
100
AcDbEntity
  8
0
 62
7
100
AcDbSpline
 70
8
 71
3
 72
8
 73
4
 74
0
 40
0
 40
0
 40
0
 40
0
 40
1
 40
1
 40
1
 40
1
 10
113.777313
 20
188.602308
 30
0.0
 10
113.777313
 20
195.431448
 30
0.0
 10
119.309010
 20
200.969131
 30
0.0
 10
126.130772
 20
200.969131
 30
0.0
  0
SPLINE
  5
140
100
AcDbEntity
  8
0
 62
7
100
AcDbSpline
 70
8
 71
3
 72
8
 73
4
 74
0
 40
0
 40
0
 40
0
 40
0
 40
1
 40
1
 40
1
 40
1
 10
126.130772
 20
200.969131
 30
0.0
 10
132.952535
 20
200.969131
 30
0.0
 10
138.484232
 20
195.431448
 30
0.0
 10
138.484232
 20
188.602308
 30
0.0
  0
SPLINE
  5
141
100
AcDbEntity
  8
0
 62
7
100
AcDbSpline
 70
8
 71
3
 72
8
 73
4
 74
0
 40
0
 40
0
 40
0
 40
0
 40
1
 40
1
 40
1
 40
1
 10
138.484232
 20
188.602308
 30
0.0
 10
138.484232
 20
186.603545
 30
0.0
 10
138.010522
 20
184.720248
 30
0.0
 10
137.169330
 20
183.049405
 30
0.0
  0
LWPOLYLINE
  5
142
100
AcDbEntity
  8
0
 62
7
100
AcDbPolyline
 90
2
 70
0
 10
113.777313
 20
249.729694
 30
0.0
 10
113.777313
 20
249.729694
 30
0.0
  0
SPLINE
  5
143
100
AcDbEntity
  8
0
 62
7
100
AcDbSpline
 70
8
 71
3
 72
8
 73
4
 74
0
 40
0
 40
0
 40
0
 40
0
 40
1
 40
1
 40
1
 40
1
 10
115.103278
 20
183.049405
 30
0.0
 10
114.261606
 20
184.720672
 30
0.0
 10
113.777313
 20
186.602905
 30
0.0
 10
113.777313
 20
188.602308
 30
0.0
  0
LWPOLYLINE
  5
144
100
AcDbEntity
  8
0
 62
7
100
AcDbPolyline
 90
2
 70
0
 10
137.169330
 20
183.049405
 30
0.0
 10
115.103278
 20
183.049405
 30
0.0
  0
SPLINE
  5
145
100
AcDbEntity
  8
0
 62
7
100
AcDbSpline
 70
8
 71
3
 72
8
 73
4
 74
0
 40
0
 40
0
 40
0
 40
0
 40
1
 40
1
 40
1
 40
1
 10
113.777313
 20
127.474922
 30
0.0
 10
113.777313
 20
134.304062
 30
0.0
 10
119.309010
 20
139.841745
 30
0.0
 10
126.130772
 20
139.841745
 30
0.0
  0
SPLINE
  5
146
100
AcDbEntity
  8
0
 62
7
100
AcDbSpline
 70
8
 71
3
 72
8
 73
4
 74
0
 40
0
 40
0
 40
0
 40
0
 40
1
 40
1
 40
1
 40
1
 10
126.130772
 20
139.841745
 30
0.0
 10
132.952535
 20
139.841745
 30
0.0
 10
138.484232
 20
134.304062
 30
0.0
 10
138.484232
 20
127.474922
 30
0.0
  0
SPLINE
  5
147
100
AcDbEntity
  8
0
 62
7
100
AcDbSpline
 70
8
 71
3
 72
8
 73
4
 74
0
 40
0
 40
0
 40
0
 40
0
 40
1
 40
1
 40
1
 40
1
 10
138.484232
 20
127.474922
 30
0.0
 10
138.484232
 20
125.476159
 30
0.0
 10
138.010522
 20
123.592862
 30
0.0
 10
137.169330
 20
121.922019
 30
0.0
  0
LWPOLYLINE
  5
148
100
AcDbEntity
  8
0
 62
7
100
AcDbPolyline
 90
2
 70
0
 10
113.777313
 20
188.602308
 30
0.0
 10
113.777313
 20
188.602308
 30
0.0
  0
SPLINE
  5
149
100
AcDbEntity
  8
0
 62
7
100
AcDbSpline
 70
8
 71
3
 72
8
 73
4
 74
0
 40
0
 40
0
 40
0
 40
0
 40
1
 40
1
 40
1
 40
1
 10
115.103278
 20
121.922019
 30
0.0
 10
114.261606
 20
123.593286
 30
0.0
 10
113.777313
 20
125.475519
 30
0.0
 10
113.777313
 20
127.474922
 30
0.0
  0
LWPOLYLINE
  5
14a
100
AcDbEntity
  8
0
 62
7
100
AcDbPolyline
 90
2
 70
0
 10
137.169330
 20
121.922019
 30
0.0
 10
115.103278
 20
121.922019
 30
0.0
  0
SPLINE
  5
14b
100
AcDbEntity
  8
0
 62
7
100
AcDbSpline
 70
8
 71
3
 72
8
 73
4
 74
0
 40
0
 40
0
 40
0
 40
0
 40
1
 40
1
 40
1
 40
1
 10
113.777313
 20
66.347547
 30
0.0
 10
113.777313
 20
73.176704
 30
0.0
 10
119.309010
 20
78.714384
 30
0.0
 10
126.130772
 20
78.714384
 30
0.0
  0
SPLINE
  5
14c
100
AcDbEntity
  8
0
 62
7
100
AcDbSpline
 70
8
 71
3
 72
8
 73
4
 74
0
 40
0
 40
0
 40
0
 40
0
 40
1
 40
1
 40
1
 40
1
 10
126.130772
 20
78.714384
 30
0.0
 10
132.952535
 20
78.714384
 30
0.0
 10
138.484232
 20
73.176704
 30
0.0
 10
138.484232
 20
66.347547
 30
0.0
  0
SPLINE
  5
14d
100
AcDbEntity
  8
0
 62
7
100
AcDbSpline
 70
8
 71
3
 72
8
 73
4
 74
0
 40
0
 40
0
 40
0
 40
0
 40
1
 40
1
 40
1
 40
1
 10
138.484232
 20
66.347547
 30
0.0
 10
138.484232
 20
64.348793
 30
0.0
 10
138.010522
 20
62.465496
 30
0.0
 10
137.169330
 20
60.794656
 30
0.0
  0
LWPOLYLINE
  5
14e
100
AcDbEntity
  8
0
 62
7
100
AcDbPolyline
 90
2
 70
0
 10
113.777313
 20
127.474922
 30
0.0
 10
113.777313
 20
127.474922
 30
0.0
  0
SPLINE
  5
14f
100
AcDbEntity
  8
0
 62
7
100
AcDbSpline
 70
8
 71
3
 72
8
 73
4
 74
0
 40
0
 40
0
 40
0
 40
0
 40
1
 40
1
 40
1
 40
1
 10
115.103278
 20
60.794656
 30
0.0
 10
114.261606
 20
62.465919
 30
0.0
 10
113.777313
 20
64.348144
 30
0.0
 10
113.777313
 20
66.347547
 30
0.0
  0
LWPOLYLINE
  5
150
100
AcDbEntity
  8
0
 62
7
100
AcDbPolyline
 90
2
 70
0
 10
137.169330
 20
60.794656
 30
0.0
 10
115.103278
 20
60.794656
 30
0.0
  0
SPLINE
  5
151
100
AcDbEntity
  8
0
 62
7
100
AcDbSpline
 70
8
 71
3
 72
8
 73
4
 74
0
 40
0
 40
0
 40
0
 40
0
 40
1
 40
1
 40
1
 40
1
 10
60.696845
 20
254.659783
 30
0.0
 10
60.696845
 20
247.830643
 30
0.0
 10
66.228541
 20
242.292961
 30
0.0
 10
73.050304
 20
242.292961
 30
0.0
  0
SPLINE
  5
152
100
AcDbEntity
  8
0
 62
7
100
AcDbSpline
 70
8
 71
3
 72
8
 73
4
 74
0
 40
0
 40
0
 40
0
 40
0
 40
1
 40
1
 40
1
 40
1
 10
73.050304
 20
242.292961
 30
0.0
 10
79.872067
 20
242.292961
 30
0.0
 10
85.403763
 20
247.830643
 30
0.0
 10
85.403763
 20
254.659783
 30
0.0
  0
SPLINE
  5
153
100
AcDbEntity
  8
0
 62
7
100
AcDbSpline
 70
8
 71
3
 72
8
 73
4
 74
0
 40
0
 40
0
 40
0
 40
0
 40
1
 40
1
 40
1
 40
1
 10
85.403763
 20
254.659783
 30
0.0
 10
85.403763
 20
256.658546
 30
0.0
 10
84.930053
 20
258.541843
 30
0.0
 10
84.088862
 20
260.212686
 30
0.0
  0
LWPOLYLINE
  5
154
100
AcDbEntity
  8
0
 62
7
100
AcDbPolyline
 90
2
 70
0
 10
113.777313
 20
66.347547
 30
0.0
 10
113.777313
 20
66.347547
 30
0.0
  0
SPLINE
  5
155
100
AcDbEntity
  8
0
 62
7
100
AcDbSpline
 70
8
 71
3
 72
8
 73
4
 74
0
 40
0
 40
0
 40
0
 40
0
 40
1
 40
1
 40
1
 40
1
 10
62.022809
 20
260.212686
 30
0.0
 10
61.181138
 20
258.541420
 30
0.0
 10
60.696845
 20
256.659187
 30
0.0
 10
60.696845
 20
254.659783
 30
0.0
  0
LWPOLYLINE
  5
156
100
AcDbEntity
  8
0
 62
7
100
AcDbPolyline
 90
2
 70
0
 10
84.088862
 20
260.212686
 30
0.0
 10
62.022809
 20
260.212686
 30
0.0
  0
SPLINE
  5
157
100
AcDbEntity
  8
0
 62
7
100
AcDbSpline
 70
8
 71
3
 72
8
 73
4
 74
0
 40
0
 40
0
 40
0
 40
0
 40
1
 40
1
 40
1
 40
1
 10
60.445639
 20
193.615963
 30
0.0
 10
60.445639
 20
186.786823
 30
0.0
 10
65.977335
 20
181.249141
 30
0.0
 10
72.799098
 20
181.249141
 30
0.0
  0
SPLINE
  5
158
100
AcDbEntity
  8
0
 62
7
100
AcDbSpline
 70
8
 71
3
 72
8
 73
4
 74
0
 40
0
 40
0
 40
0
 40
0
 40
1
 40
1
 40
1
 40
1
 10
72.799098
 20
181.249141
 30
0.0
 10
79.620861
 20
181.249141
 30
0.0
 10
85.152557
 20
186.786823
 30
0.0
 10
85.152557
 20
193.615963
 30
0.0
  0
SPLINE
  5
159
100
AcDbEntity
  8
0
 62
7
100
AcDbSpline
 70
8
 71
3
 72
8
 73
4
 74
0
 40
0
 40
0
 40
0
 40
0
 40
1
 40
1
 40
1
 40
1
 10
85.152557
 20
193.615963
 30
0.0
 10
85.152557
 20
195.614726
 30
0.0
 10
84.678847
 20
197.498023
 30
0.0
 10
83.837656
 20
199.168866
 30
0.0
  0
LWPOLYLINE
  5
15a
100
AcDbEntity
  8
0
 62
7
100
AcDbPolyline
 90
2
 70
0
 10
60.696845
 20
254.659783
 30
0.0
 10
60.696845
 20
254.659783
 30
0.0
  0
SPLINE
  5
15b
100
AcDbEntity
  8
0
 62
7
100
AcDbSpline
 70
8
 71
3
 72
8
 73
4
 74
0
 40
0
 40
0
 40
0
 40
0
 40
1
 40
1
 40
1
 40
1
 10
61.771603
 20
199.168866
 30
0.0
 10
60.929932
 20
197.497600
 30
0.0
 10
60.445639
 20
195.615367
 30
0.0
 10
60.445639
 20
193.615963
 30
0.0
  0
LWPOLYLINE
  5
15c
100
AcDbEntity
  8
0
 62
7
100
AcDbPolyline
 90
2
 70
0
 10
83.837656
 20
199.168866
 30
0.0
 10
61.771603
 20
199.168866
 30
0.0
  0
SPLINE
  5
15d
100
AcDbEntity
  8
0
 62
7
100
AcDbSpline
 70
8
 71
3
 72
8
 73
4
 74
0
 40
0
 40
0
 40
0
 40
0
 40
1
 40
1
 40
1
 40
1
 10
60.571256
 20
132.320965
 30
0.0
 10
60.571256
 20
125.491826
 30
0.0
 10
66.102952
 20
119.954143
 30
0.0
 10
72.924715
 20
119.954143
 30
0.0
  0
SPLINE
  5
15e
100
AcDbEntity
  8
0
 62
7
100
AcDbSpline
 70
8
 71
3
 72
8
 73
4
 74
0
 40
0
 40
0
 40
0
 40
0
 40
1
 40
1
 40
1
 40
1
 10
72.924715
 20
119.954143
 30
0.0
 10
79.746478
 20
119.954143
 30
0.0
 10
85.278174
 20
125.491826
 30
0.0
 10
85.278174
 20
132.320965
 30
0.0
  0
SPLINE
  5
15f
100
AcDbEntity
  8
0
 62
7
100
AcDbSpline
 70
8
 71
3
 72
8
 73
4
 74
0
 40
0
 40
0
 40
0
 40
0
 40
1
 40
1
 40
1
 40
1
 10
85.278174
 20
132.320965
 30
0.0
 10
85.278174
 20
134.319728
 30
0.0
 10
84.804464
 20
136.203025
 30
0.0
 10
83.963273
 20
137.873868
 30
0.0
  0
LWPOLYLINE
  5
160
100
AcDbEntity
  8
0
 62
7
100
AcDbPolyline
 90
2
 70
0
 10
60.445639
 20
193.615963
 30
0.0
 10
60.445639
 20
193.615963
 30
0.0
  0
SPLINE
  5
161
100
AcDbEntity
  8
0
 62
7
100
AcDbSpline
 70
8
 71
3
 72
8
 73
4
 74
0
 40
0
 40
0
 40
0
 40
0
 40
1
 40
1
 40
1
 40
1
 10
61.897220
 20
137.873868
 30
0.0
 10
61.055549
 20
136.202602
 30
0.0
 10
60.571256
 20
134.320369
 30
0.0
 10
60.571256
 20
132.320965
 30
0.0
  0
LWPOLYLINE
  5
162
100
AcDbEntity
  8
0
 62
7
100
AcDbPolyline
 90
2
 70
0
 10
83.963273
 20
137.873868
 30
0.0
 10
61.897220
 20
137.873868
 30
0.0
  0
SPLINE
  5
163
100
AcDbEntity
  8
0
 62
7
100
AcDbSpline
 70
8
 71
3
 72
8
 73
4
 74
0
 40
0
 40
0
 40
0
 40
0
 40
1
 40
1
 40
1
 40
1
 10
60.360577
 20
70.990696
 30
0.0
 10
60.360577
 20
64.161539
 30
0.0
 10
65.892274
 20
58.623859
 30
0.0
 10
72.714036
 20
58.623859
 30
0.0
  0
SPLINE
  5
164
100
AcDbEntity
  8
0
 62
7
100
AcDbSpline
 70
8
 71
3
 72
8
 73
4
 74
0
 40
0
 40
0
 40
0
 40
0
 40
1
 40
1
 40
1
 40
1
 10
72.714036
 20
58.623859
 30
0.0
 10
79.535799
 20
58.623859
 30
0.0
 10
85.067496
 20
64.161539
 30
0.0
 10
85.067496
 20
70.990696
 30
0.0
  0
SPLINE
  5
165
100
AcDbEntity
  8
0
 62
7
100
AcDbSpline
 70
8
 71
3
 72
8
 73
4
 74
0
 40
0
 40
0
 40
0
 40
0
 40
1
 40
1
 40
1
 40
1
 10
85.067496
 20
70.990696
 30
0.0
 10
85.067496
 20
72.989450
 30
0.0
 10
84.593786
 20
74.872747
 30
0.0
 10
83.752594
 20
76.543587
 30
0.0
  0
LWPOLYLINE
  5
166
100
AcDbEntity
  8
0
 62
7
100
AcDbPolyline
 90
2
 70
0
 10
60.571256
 20
132.320965
 30
0.0
 10
60.571256
 20
132.320965
 30
0.0
  0
SPLINE
  5
167
100
AcDbEntity
  8
0
 62
7
100
AcDbSpline
 70
8
 71
3
 72
8
 73
4
 74
0
 40
0
 40
0
 40
0
 40
0
 40
1
 40
1
 40
1
 40
1
 10
61.686542
 20
76.543587
 30
0.0
 10
60.844870
 20
74.872324
 30
0.0
 10
60.360577
 20
72.990099
 30
0.0
 10
60.360577
 20
70.990696
 30
0.0
  0
LWPOLYLINE
  5
168
100
AcDbEntity
  8
0
 62
7
100
AcDbPolyline
 90
2
 70
0
 10
83.752594
 20
76.543587
 30
0.0
 10
61.686542
 20
76.543587
 30
0.0
  0
SPLINE
  5
169
100
AcDbEntity
  8
0
 62
7
100
AcDbSpline
 70
8
 71
3
 72
8
 73
4
 74
0
 40
0
 40
0
 40
0
 40
0
 40
1
 40
1
 40
1
 40
1
 10
7.122856
 20
66.554162
 30
0.0
 10
7.122856
 20
73.383319
 30
0.0
 10
12.654552
 20
78.920999
 30
0.0
 10
19.476315
 20
78.920999
 30
0.0
  0
SPLINE
  5
16a
100
AcDbEntity
  8
0
 62
7
100
AcDbSpline
 70
8
 71
3
 72
8
 73
4
 74
0
 40
0
 40
0
 40
0
 40
0
 40
1
 40
1
 40
1
 40
1
 10
19.476315
 20
78.920999
 30
0.0
 10
26.298077
 20
78.920999
 30
0.0
 10
31.829773
 20
73.383319
 30
0.0
 10
31.829773
 20
66.554162
 30
0.0
  0
SPLINE
  5
16b
100
AcDbEntity
  8
0
 62
7
100
AcDbSpline
 70
8
 71
3
 72
8
 73
4
 74
0
 40
0
 40
0
 40
0
 40
0
 40
1
 40
1
 40
1
 40
1
 10
31.829773
 20
66.554162
 30
0.0
 10
31.829773
 20
64.555408
 30
0.0
 10
31.356063
 20
62.672111
 30
0.0
 10
30.514871
 20
61.001271
 30
0.0
  0
LWPOLYLINE
  5
16c
100
AcDbEntity
  8
0
 62
7
100
AcDbPolyline
 90
2
 70
0
 10
60.360577
 20
70.990696
 30
0.0
 10
60.360577
 20
70.990696
 30
0.0
  0
SPLINE
  5
16d
100
AcDbEntity
  8
0
 62
7
100
AcDbSpline
 70
8
 71
3
 72
8
 73
4
 74
0
 40
0
 40
0
 40
0
 40
0
 40
1
 40
1
 40
1
 40
1
 10
8.448820
 20
61.001271
 30
0.0
 10
7.607149
 20
62.672534
 30
0.0
 10
7.122856
 20
64.554759
 30
0.0
 10
7.122856
 20
66.554162
 30
0.0
  0
LWPOLYLINE
  5
16e
100
AcDbEntity
  8
0
 62
7
100
AcDbPolyline
 90
2
 70
0
 10
30.514871
 20
61.001271
 30
0.0
 10
8.448820
 20
61.001271
 30
0.0
  0
SPLINE
  5
16f
100
AcDbEntity
  8
0
 62
7
100
AcDbSpline
 70
8
 71
3
 72
8
 73
4
 74
0
 40
0
 40
0
 40
0
 40
0
 40
1
 40
1
 40
1
 40
1
 10
7.122856
 20
127.681509
 30
0.0
 10
7.122856
 20
134.510649
 30
0.0
 10
12.654552
 20
140.048331
 30
0.0
 10
19.476315
 20
140.048331
 30
0.0
  0
SPLINE
  5
170
100
AcDbEntity
  8
0
 62
7
100
AcDbSpline
 70
8
 71
3
 72
8
 73
4
 74
0
 40
0
 40
0
 40
0
 40
0
 40
1
 40
1
 40
1
 40
1
 10
19.476315
 20
140.048331
 30
0.0
 10
26.298077
 20
140.048331
 30
0.0
 10
31.829773
 20
134.510649
 30
0.0
 10
31.829773
 20
127.681509
 30
0.0
  0
SPLINE
  5
171
100
AcDbEntity
  8
0
 62
7
100
AcDbSpline
 70
8
 71
3
 72
8
 73
4
 74
0
 40
0
 40
0
 40
0
 40
0
 40
1
 40
1
 40
1
 40
1
 10
31.829773
 20
127.681509
 30
0.0
 10
31.829773
 20
125.682746
 30
0.0
 10
31.356063
 20
123.799449
 30
0.0
 10
30.514871
 20
122.128606
 30
0.0
  0
LWPOLYLINE
  5
172
100
AcDbEntity
  8
0
 62
7
100
AcDbPolyline
 90
2
 70
0
 10
7.122856
 20
66.554162
 30
0.0
 10
7.122856
 20
66.554162
 30
0.0
  0
SPLINE
  5
173
100
AcDbEntity
  8
0
 62
7
100
AcDbSpline
 70
8
 71
3
 72
8
 73
4
 74
0
 40
0
 40
0
 40
0
 40
0
 40
1
 40
1
 40
1
 40
1
 10
8.448820
 20
122.128606
 30
0.0
 10
7.607149
 20
123.799872
 30
0.0
 10
7.122856
 20
125.682105
 30
0.0
 10
7.122856
 20
127.681509
 30
0.0
  0
LWPOLYLINE
  5
174
100
AcDbEntity
  8
0
 62
7
100
AcDbPolyline
 90
2
 70
0
 10
30.514871
 20
122.128606
 30
0.0
 10
8.448820
 20
122.128606
 30
0.0
  0
SPLINE
  5
175
100
AcDbEntity
  8
0
 62
7
100
AcDbSpline
 70
8
 71
3
 72
8
 73
4
 74
0
 40
0
 40
0
 40
0
 40
0
 40
1
 40
1
 40
1
 40
1
 10
7.122856
 20
188.808923
 30
0.0
 10
7.122856
 20
195.638063
 30
0.0
 10
12.654552
 20
201.175746
 30
0.0
 10
19.476315
 20
201.175746
 30
0.0
  0
SPLINE
  5
176
100
AcDbEntity
  8
0
 62
7
100
AcDbSpline
 70
8
 71
3
 72
8
 73
4
 74
0
 40
0
 40
0
 40
0
 40
0
 40
1
 40
1
 40
1
 40
1
 10
19.476315
 20
201.175746
 30
0.0
 10
26.298077
 20
201.175746
 30
0.0
 10
31.829773
 20
195.638063
 30
0.0
 10
31.829773
 20
188.808923
 30
0.0
  0
SPLINE
  5
177
100
AcDbEntity
  8
0
 62
7
100
AcDbSpline
 70
8
 71
3
 72
8
 73
4
 74
0
 40
0
 40
0
 40
0
 40
0
 40
1
 40
1
 40
1
 40
1
 10
31.829773
 20
188.808923
 30
0.0
 10
31.829773
 20
186.810160
 30
0.0
 10
31.356063
 20
184.926863
 30
0.0
 10
30.514871
 20
183.256020
 30
0.0
  0
LWPOLYLINE
  5
178
100
AcDbEntity
  8
0
 62
7
100
AcDbPolyline
 90
2
 70
0
 10
7.122856
 20
127.681509
 30
0.0
 10
7.122856
 20
127.681509
 30
0.0
  0
SPLINE
  5
179
100
AcDbEntity
  8
0
 62
7
100
AcDbSpline
 70
8
 71
3
 72
8
 73
4
 74
0
 40
0
 40
0
 40
0
 40
0
 40
1
 40
1
 40
1
 40
1
 10
8.448820
 20
183.256020
 30
0.0
 10
7.607149
 20
184.927286
 30
0.0
 10
7.122856
 20
186.809520
 30
0.0
 10
7.122856
 20
188.808923
 30
0.0
  0
LWPOLYLINE
  5
17a
100
AcDbEntity
  8
0
 62
7
100
AcDbPolyline
 90
2
 70
0
 10
30.514871
 20
183.256020
 30
0.0
 10
8.448820
 20
183.256020
 30
0.0
  0
SPLINE
  5
17b
100
AcDbEntity
  8
0
 62
7
100
AcDbSpline
 70
8
 71
3
 72
8
 73
4
 74
0
 40
0
 40
0
 40
0
 40
0
 40
1
 40
1
 40
1
 40
1
 10
147.092454
 20
72.670725
 30
0.0
 10
148.146387
 20
72.670725
 30
0.0
 10
149.120262
 20
72.108458
 30
0.0
 10
149.647229
 20
71.195725
 30
0.0
  0
SPLINE
  5
17c
100
AcDbEntity
  8
0
 62
7
100
AcDbSpline
 70
8
 71
3
 72
8
 73
4
 74
0
 40
0
 40
0
 40
0
 40
0
 40
1
 40
1
 40
1
 40
1
 10
149.647229
 20
71.195725
 30
0.0
 10
150.174195
 20
70.282992
 30
0.0
 10
150.174195
 20
69.158458
 30
0.0
 10
149.647229
 20
68.245725
 30
0.0
  0
SPLINE
  5
17d
100
AcDbEntity
  8
0
 62
7
100
AcDbSpline
 70
8
 71
3
 72
8
 73
4
 74
0
 40
0
 40
0
 40
0
 40
0
 40
1
 40
1
 40
1
 40
1
 10
149.647229
 20
68.245725
 30
0.0
 10
149.120262
 20
67.332992
 30
0.0
 10
148.146387
 20
66.770725
 30
0.0
 10
147.092454
 20
66.770725
 30
0.0
  0
SPLINE
  5
17e
100
AcDbEntity
  8
0
 62
7
100
AcDbSpline
 70
8
 71
3
 72
8
 73
4
 74
0
 40
0
 40
0
 40
0
 40
0
 40
1
 40
1
 40
1
 40
1
 10
147.092454
 20
66.770725
 30
0.0
 10
146.038520
 20
66.770725
 30
0.0
 10
145.064645
 20
67.332992
 30
0.0
 10
144.537679
 20
68.245725
 30
0.0
  0
SPLINE
  5
17f
100
AcDbEntity
  8
0
 62
7
100
AcDbSpline
 70
8
 71
3
 72
8
 73
4
 74
0
 40
0
 40
0
 40
0
 40
0
 40
1
 40
1
 40
1
 40
1
 10
144.537679
 20
68.245725
 30
0.0
 10
144.010712
 20
69.158458
 30
0.0
 10
144.010712
 20
70.282992
 30
0.0
 10
144.537679
 20
71.195725
 30
0.0
  0
SPLINE
  5
180
100
AcDbEntity
  8
0
 62
7
100
AcDbSpline
 70
8
 71
3
 72
8
 73
4
 74
0
 40
0
 40
0
 40
0
 40
0
 40
1
 40
1
 40
1
 40
1
 10
144.537679
 20
71.195725
 30
0.0
 10
145.064645
 20
72.108458
 30
0.0
 10
146.038520
 20
72.670725
 30
0.0
 10
147.092454
 20
72.670725
 30
0.0
  0
LWPOLYLINE
  5
181
100
AcDbEntity
  8
0
 62
7
100
AcDbPolyline
 90
2
 70
0
 10
7.122856
 20
188.808923
 30
0.0
 10
7.122856
 20
188.808923
 30
0.0
  0
SPLINE
  5
182
100
AcDbEntity
  8
0
 62
7
100
AcDbSpline
 70
8
 71
3
 72
8
 73
4
 74
0
 40
0
 40
0
 40
0
 40
0
 40
1
 40
1
 40
1
 40
1
 10
147.092454
 20
133.798125
 30
0.0
 10
148.146387
 20
133.798125
 30
0.0
 10
149.120262
 20
133.235858
 30
0.0
 10
149.647229
 20
132.323125
 30
0.0
  0
SPLINE
  5
183
100
AcDbEntity
  8
0
 62
7
100
AcDbSpline
 70
8
 71
3
 72
8
 73
4
 74
0
 40
0
 40
0
 40
0
 40
0
 40
1
 40
1
 40
1
 40
1
 10
149.647229
 20
132.323125
 30
0.0
 10
150.174195
 20
131.410392
 30
0.0
 10
150.174195
 20
130.285858
 30
0.0
 10
149.647229
 20
129.373125
 30
0.0
  0
SPLINE
  5
184
100
AcDbEntity
  8
0
 62
7
100
AcDbSpline
 70
8
 71
3
 72
8
 73
4
 74
0
 40
0
 40
0
 40
0
 40
0
 40
1
 40
1
 40
1
 40
1
 10
149.647229
 20
129.373125
 30
0.0
 10
149.120262
 20
128.460392
 30
0.0
 10
148.146387
 20
127.898125
 30
0.0
 10
147.092454
 20
127.898125
 30
0.0
  0
SPLINE
  5
185
100
AcDbEntity
  8
0
 62
7
100
AcDbSpline
 70
8
 71
3
 72
8
 73
4
 74
0
 40
0
 40
0
 40
0
 40
0
 40
1
 40
1
 40
1
 40
1
 10
147.092454
 20
127.898125
 30
0.0
 10
146.038520
 20
127.898125
 30
0.0
 10
145.064645
 20
128.460392
 30
0.0
 10
144.537679
 20
129.373125
 30
0.0
  0
SPLINE
  5
186
100
AcDbEntity
  8
0
 62
7
100
AcDbSpline
 70
8
 71
3
 72
8
 73
4
 74
0
 40
0
 40
0
 40
0
 40
0
 40
1
 40
1
 40
1
 40
1
 10
144.537679
 20
129.373125
 30
0.0
 10
144.010712
 20
130.285858
 30
0.0
 10
144.010712
 20
131.410392
 30
0.0
 10
144.537679
 20
132.323125
 30
0.0
  0
SPLINE
  5
187
100
AcDbEntity
  8
0
 62
7
100
AcDbSpline
 70
8
 71
3
 72
8
 73
4
 74
0
 40
0
 40
0
 40
0
 40
0
 40
1
 40
1
 40
1
 40
1
 10
144.537679
 20
132.323125
 30
0.0
 10
145.064645
 20
133.235858
 30
0.0
 10
146.038520
 20
133.798125
 30
0.0
 10
147.092454
 20
133.798125
 30
0.0
  0
LWPOLYLINE
  5
188
100
AcDbEntity
  8
0
 62
7
100
AcDbPolyline
 90
2
 70
0
 10
147.092454
 20
72.670725
 30
0.0
 10
147.092454
 20
72.670725
 30
0.0
  0
SPLINE
  5
189
100
AcDbEntity
  8
0
 62
7
100
AcDbSpline
 70
8
 71
3
 72
8
 73
4
 74
0
 40
0
 40
0
 40
0
 40
0
 40
1
 40
1
 40
1
 40
1
 10
147.092454
 20
194.925483
 30
0.0
 10
148.146387
 20
194.925483
 30
0.0
 10
149.120262
 20
194.363216
 30
0.0
 10
149.647229
 20
193.450483
 30
0.0
  0
SPLINE
  5
18a
100
AcDbEntity
  8
0
 62
7
100
AcDbSpline
 70
8
 71
3
 72
8
 73
4
 74
0
 40
0
 40
0
 40
0
 40
0
 40
1
 40
1
 40
1
 40
1
 10
149.647229
 20
193.450483
 30
0.0
 10
150.174195
 20
192.537750
 30
0.0
 10
150.174195
 20
191.413216
 30
0.0
 10
149.647229
 20
190.500483
 30
0.0
  0
SPLINE
  5
18b
100
AcDbEntity
  8
0
 62
7
100
AcDbSpline
 70
8
 71
3
 72
8
 73
4
 74
0
 40
0
 40
0
 40
0
 40
0
 40
1
 40
1
 40
1
 40
1
 10
149.647229
 20
190.500483
 30
0.0
 10
149.120262
 20
189.587750
 30
0.0
 10
148.146387
 20
189.025483
 30
0.0
 10
147.092454
 20
189.025483
 30
0.0
  0
SPLINE
  5
18c
100
AcDbEntity
  8
0
 62
7
100
AcDbSpline
 70
8
 71
3
 72
8
 73
4
 74
0
 40
0
 40
0
 40
0
 40
0
 40
1
 40
1
 40
1
 40
1
 10
147.092454
 20
189.025483
 30
0.0
 10
146.038520
 20
189.025483
 30
0.0
 10
145.064645
 20
189.587750
 30
0.0
 10
144.537679
 20
190.500483
 30
0.0
  0
SPLINE
  5
18d
100
AcDbEntity
  8
0
 62
7
100
AcDbSpline
 70
8
 71
3
 72
8
 73
4
 74
0
 40
0
 40
0
 40
0
 40
0
 40
1
 40
1
 40
1
 40
1
 10
144.537679
 20
190.500483
 30
0.0
 10
144.010712
 20
191.413216
 30
0.0
 10
144.010712
 20
192.537750
 30
0.0
 10
144.537679
 20
193.450483
 30
0.0
  0
SPLINE
  5
18e
100
AcDbEntity
  8
0
 62
7
100
AcDbSpline
 70
8
 71
3
 72
8
 73
4
 74
0
 40
0
 40
0
 40
0
 40
0
 40
1
 40
1
 40
1
 40
1
 10
144.537679
 20
193.450483
 30
0.0
 10
145.064645
 20
194.363216
 30
0.0
 10
146.038520
 20
194.925483
 30
0.0
 10
147.092454
 20
194.925483
 30
0.0
  0
LWPOLYLINE
  5
18f
100
AcDbEntity
  8
0
 62
7
100
AcDbPolyline
 90
2
 70
0
 10
147.092454
 20
133.798125
 30
0.0
 10
147.092454
 20
133.798125
 30
0.0
  0
SPLINE
  5
190
100
AcDbEntity
  8
0
 62
7
100
AcDbSpline
 70
8
 71
3
 72
8
 73
4
 74
0
 40
0
 40
0
 40
0
 40
0
 40
1
 40
1
 40
1
 40
1
 10
147.092454
 20
256.052869
 30
0.0
 10
148.146387
 20
256.052869
 30
0.0
 10
149.120262
 20
255.490602
 30
0.0
 10
149.647229
 20
254.577869
 30
0.0
  0
SPLINE
  5
191
100
AcDbEntity
  8
0
 62
7
100
AcDbSpline
 70
8
 71
3
 72
8
 73
4
 74
0
 40
0
 40
0
 40
0
 40
0
 40
1
 40
1
 40
1
 40
1
 10
149.647229
 20
254.577869
 30
0.0
 10
150.174195
 20
253.665136
 30
0.0
 10
150.174195
 20
252.540602
 30
0.0
 10
149.647229
 20
251.627869
 30
0.0
  0
SPLINE
  5
192
100
AcDbEntity
  8
0
 62
7
100
AcDbSpline
 70
8
 71
3
 72
8
 73
4
 74
0
 40
0
 40
0
 40
0
 40
0
 40
1
 40
1
 40
1
 40
1
 10
149.647229
 20
251.627869
 30
0.0
 10
149.120262
 20
250.715136
 30
0.0
 10
148.146387
 20
250.152869
 30
0.0
 10
147.092454
 20
250.152869
 30
0.0
  0
SPLINE
  5
193
100
AcDbEntity
  8
0
 62
7
100
AcDbSpline
 70
8
 71
3
 72
8
 73
4
 74
0
 40
0
 40
0
 40
0
 40
0
 40
1
 40
1
 40
1
 40
1
 10
147.092454
 20
250.152869
 30
0.0
 10
146.038520
 20
250.152869
 30
0.0
 10
145.064645
 20
250.715136
 30
0.0
 10
144.537679
 20
251.627869
 30
0.0
  0
SPLINE
  5
194
100
AcDbEntity
  8
0
 62
7
100
AcDbSpline
 70
8
 71
3
 72
8
 73
4
 74
0
 40
0
 40
0
 40
0
 40
0
 40
1
 40
1
 40
1
 40
1
 10
144.537679
 20
251.627869
 30
0.0
 10
144.010712
 20
252.540602
 30
0.0
 10
144.010712
 20
253.665136
 30
0.0
 10
144.537679
 20
254.577869
 30
0.0
  0
SPLINE
  5
195
100
AcDbEntity
  8
0
 62
7
100
AcDbSpline
 70
8
 71
3
 72
8
 73
4
 74
0
 40
0
 40
0
 40
0
 40
0
 40
1
 40
1
 40
1
 40
1
 10
144.537679
 20
254.577869
 30
0.0
 10
145.064645
 20
255.490602
 30
0.0
 10
146.038520
 20
256.052869
 30
0.0
 10
147.092454
 20
256.052869
 30
0.0
  0
LWPOLYLINE
  5
196
100
AcDbEntity
  8
0
 62
7
100
AcDbPolyline
 90
2
 70
0
 10
147.092454
 20
194.925483
 30
0.0
 10
147.092454
 20
194.925483
 30
0.0
  0
SPLINE
  5
197
100
AcDbEntity
  8
0
 62
7
100
AcDbSpline
 70
8
 71
3
 72
8
 73
4
 74
0
 40
0
 40
0
 40
0
 40
0
 40
1
 40
1
 40
1
 40
1
 10
93.854731
 20
255.226889
 30
0.0
 10
94.908664
 20
255.226889
 30
0.0
 10
95.882539
 20
254.664622
 30
0.0
 10
96.409506
 20
253.751889
 30
0.0
  0
SPLINE
  5
198
100
AcDbEntity
  8
0
 62
7
100
AcDbSpline
 70
8
 71
3
 72
8
 73
4
 74
0
 40
0
 40
0
 40
0
 40
0
 40
1
 40
1
 40
1
 40
1
 10
96.409506
 20
253.751889
 30
0.0
 10
96.936473
 20
252.839156
 30
0.0
 10
96.936473
 20
251.714622
 30
0.0
 10
96.409506
 20
250.801889
 30
0.0
  0
SPLINE
  5
199
100
AcDbEntity
  8
0
 62
7
100
AcDbSpline
 70
8
 71
3
 72
8
 73
4
 74
0
 40
0
 40
0
 40
0
 40
0
 40
1
 40
1
 40
1
 40
1
 10
96.409506
 20
250.801889
 30
0.0
 10
95.882539
 20
249.889156
 30
0.0
 10
94.908664
 20
249.326889
 30
0.0
 10
93.854731
 20
249.326889
 30
0.0
  0
SPLINE
  5
19a
100
AcDbEntity
  8
0
 62
7
100
AcDbSpline
 70
8
 71
3
 72
8
 73
4
 74
0
 40
0
 40
0
 40
0
 40
0
 40
1
 40
1
 40
1
 40
1
 10
93.854731
 20
249.326889
 30
0.0
 10
92.800797
 20
249.326889
 30
0.0
 10
91.826923
 20
249.889156
 30
0.0
 10
91.299956
 20
250.801889
 30
0.0
  0
SPLINE
  5
19b
100
AcDbEntity
  8
0
 62
7
100
AcDbSpline
 70
8
 71
3
 72
8
 73
4
 74
0
 40
0
 40
0
 40
0
 40
0
 40
1
 40
1
 40
1
 40
1
 10
91.299956
 20
250.801889
 30
0.0
 10
90.772989
 20
251.714622
 30
0.0
 10
90.772989
 20
252.839156
 30
0.0
 10
91.299956
 20
253.751889
 30
0.0
  0
SPLINE
  5
19c
100
AcDbEntity
  8
0
 62
7
100
AcDbSpline
 70
8
 71
3
 72
8
 73
4
 74
0
 40
0
 40
0
 40
0
 40
0
 40
1
 40
1
 40
1
 40
1
 10
91.299956
 20
253.751889
 30
0.0
 10
91.826923
 20
254.664622
 30
0.0
 10
92.800797
 20
255.226889
 30
0.0
 10
93.854731
 20
255.226889
 30
0.0
  0
LWPOLYLINE
  5
19d
100
AcDbEntity
  8
0
 62
7
100
AcDbPolyline
 90
2
 70
0
 10
147.092454
 20
256.052869
 30
0.0
 10
147.092454
 20
256.052869
 30
0.0
  0
SPLINE
  5
19e
100
AcDbEntity
  8
0
 62
7
100
AcDbSpline
 70
8
 71
3
 72
8
 73
4
 74
0
 40
0
 40
0
 40
0
 40
0
 40
1
 40
1
 40
1
 40
1
 10
93.854731
 20
194.099503
 30
0.0
 10
94.908664
 20
194.099503
 30
0.0
 10
95.882539
 20
193.537236
 30
0.0
 10
96.409506
 20
192.624503
 30
0.0
  0
SPLINE
  5
19f
100
AcDbEntity
  8
0
 62
7
100
AcDbSpline
 70
8
 71
3
 72
8
 73
4
 74
0
 40
0
 40
0
 40
0
 40
0
 40
1
 40
1
 40
1
 40
1
 10
96.409506
 20
192.624503
 30
0.0
 10
96.936473
 20
191.711770
 30
0.0
 10
96.936473
 20
190.587236
 30
0.0
 10
96.409506
 20
189.674503
 30
0.0
  0
SPLINE
  5
1a0
100
AcDbEntity
  8
0
 62
7
100
AcDbSpline
 70
8
 71
3
 72
8
 73
4
 74
0
 40
0
 40
0
 40
0
 40
0
 40
1
 40
1
 40
1
 40
1
 10
96.409506
 20
189.674503
 30
0.0
 10
95.882539
 20
188.761770
 30
0.0
 10
94.908664
 20
188.199503
 30
0.0
 10
93.854731
 20
188.199503
 30
0.0
  0
SPLINE
  5
1a1
100
AcDbEntity
  8
0
 62
7
100
AcDbSpline
 70
8
 71
3
 72
8
 73
4
 74
0
 40
0
 40
0
 40
0
 40
0
 40
1
 40
1
 40
1
 40
1
 10
93.854731
 20
188.199503
 30
0.0
 10
92.800797
 20
188.199503
 30
0.0
 10
91.826923
 20
188.761770
 30
0.0
 10
91.299956
 20
189.674503
 30
0.0
  0
SPLINE
  5
1a2
100
AcDbEntity
  8
0
 62
7
100
AcDbSpline
 70
8
 71
3
 72
8
 73
4
 74
0
 40
0
 40
0
 40
0
 40
0
 40
1
 40
1
 40
1
 40
1
 10
91.299956
 20
189.674503
 30
0.0
 10
90.772989
 20
190.587236
 30
0.0
 10
90.772989
 20
191.711770
 30
0.0
 10
91.299956
 20
192.624503
 30
0.0
  0
SPLINE
  5
1a3
100
AcDbEntity
  8
0
 62
7
100
AcDbSpline
 70
8
 71
3
 72
8
 73
4
 74
0
 40
0
 40
0
 40
0
 40
0
 40
1
 40
1
 40
1
 40
1
 10
91.299956
 20
192.624503
 30
0.0
 10
91.826923
 20
193.537236
 30
0.0
 10
92.800797
 20
194.099503
 30
0.0
 10
93.854731
 20
194.099503
 30
0.0
  0
LWPOLYLINE
  5
1a4
100
AcDbEntity
  8
0
 62
7
100
AcDbPolyline
 90
2
 70
0
 10
93.854731
 20
255.226889
 30
0.0
 10
93.854731
 20
255.226889
 30
0.0
  0
SPLINE
  5
1a5
100
AcDbEntity
  8
0
 62
7
100
AcDbSpline
 70
8
 71
3
 72
8
 73
4
 74
0
 40
0
 40
0
 40
0
 40
0
 40
1
 40
1
 40
1
 40
1
 10
93.854731
 20
132.972117
 30
0.0
 10
94.908664
 20
132.972117
 30
0.0
 10
95.882539
 20
132.409850
 30
0.0
 10
96.409506
 20
131.497117
 30
0.0
  0
SPLINE
  5
1a6
100
AcDbEntity
  8
0
 62
7
100
AcDbSpline
 70
8
 71
3
 72
8
 73
4
 74
0
 40
0
 40
0
 40
0
 40
0
 40
1
 40
1
 40
1
 40
1
 10
96.409506
 20
131.497117
 30
0.0
 10
96.936473
 20
130.584384
 30
0.0
 10
96.936473
 20
129.459850
 30
0.0
 10
96.409506
 20
128.547117
 30
0.0
  0
SPLINE
  5
1a7
100
AcDbEntity
  8
0
 62
7
100
AcDbSpline
 70
8
 71
3
 72
8
 73
4
 74
0
 40
0
 40
0
 40
0
 40
0
 40
1
 40
1
 40
1
 40
1
 10
96.409506
 20
128.547117
 30
0.0
 10
95.882539
 20
127.634384
 30
0.0
 10
94.908664
 20
127.072117
 30
0.0
 10
93.854731
 20
127.072117
 30
0.0
  0
SPLINE
  5
1a8
100
AcDbEntity
  8
0
 62
7
100
AcDbSpline
 70
8
 71
3
 72
8
 73
4
 74
0
 40
0
 40
0
 40
0
 40
0
 40
1
 40
1
 40
1
 40
1
 10
93.854731
 20
127.072117
 30
0.0
 10
92.800797
 20
127.072117
 30
0.0
 10
91.826923
 20
127.634384
 30
0.0
 10
91.299956
 20
128.547117
 30
0.0
  0
SPLINE
  5
1a9
100
AcDbEntity
  8
0
 62
7
100
AcDbSpline
 70
8
 71
3
 72
8
 73
4
 74
0
 40
0
 40
0
 40
0
 40
0
 40
1
 40
1
 40
1
 40
1
 10
91.299956
 20
128.547117
 30
0.0
 10
90.772989
 20
129.459850
 30
0.0
 10
90.772989
 20
130.584384
 30
0.0
 10
91.299956
 20
131.497117
 30
0.0
  0
SPLINE
  5
1aa
100
AcDbEntity
  8
0
 62
7
100
AcDbSpline
 70
8
 71
3
 72
8
 73
4
 74
0
 40
0
 40
0
 40
0
 40
0
 40
1
 40
1
 40
1
 40
1
 10
91.299956
 20
131.497117
 30
0.0
 10
91.826923
 20
132.409850
 30
0.0
 10
92.800797
 20
132.972117
 30
0.0
 10
93.854731
 20
132.972117
 30
0.0
  0
LWPOLYLINE
  5
1ab
100
AcDbEntity
  8
0
 62
7
100
AcDbPolyline
 90
2
 70
0
 10
93.854731
 20
194.099503
 30
0.0
 10
93.854731
 20
194.099503
 30
0.0
  0
SPLINE
  5
1ac
100
AcDbEntity
  8
0
 62
7
100
AcDbSpline
 70
8
 71
3
 72
8
 73
4
 74
0
 40
0
 40
0
 40
0
 40
0
 40
1
 40
1
 40
1
 40
1
 10
93.854731
 20
71.844745
 30
0.0
 10
94.908664
 20
71.844745
 30
0.0
 10
95.882539
 20
71.282478
 30
0.0
 10
96.409506
 20
70.369745
 30
0.0
  0
SPLINE
  5
1ad
100
AcDbEntity
  8
0
 62
7
100
AcDbSpline
 70
8
 71
3
 72
8
 73
4
 74
0
 40
0
 40
0
 40
0
 40
0
 40
1
 40
1
 40
1
 40
1
 10
96.409506
 20
70.369745
 30
0.0
 10
96.936473
 20
69.457012
 30
0.0
 10
96.936473
 20
68.332478
 30
0.0
 10
96.409506
 20
67.419745
 30
0.0
  0
SPLINE
  5
1ae
100
AcDbEntity
  8
0
 62
7
100
AcDbSpline
 70
8
 71
3
 72
8
 73
4
 74
0
 40
0
 40
0
 40
0
 40
0
 40
1
 40
1
 40
1
 40
1
 10
96.409506
 20
67.419745
 30
0.0
 10
95.882539
 20
66.507012
 30
0.0
 10
94.908664
 20
65.944745
 30
0.0
 10
93.854731
 20
65.944745
 30
0.0
  0
SPLINE
  5
1af
100
AcDbEntity
  8
0
 62
7
100
AcDbSpline
 70
8
 71
3
 72
8
 73
4
 74
0
 40
0
 40
0
 40
0
 40
0
 40
1
 40
1
 40
1
 40
1
 10
93.854731
 20
65.944745
 30
0.0
 10
92.800797
 20
65.944745
 30
0.0
 10
91.826923
 20
66.507012
 30
0.0
 10
91.299956
 20
67.419745
 30
0.0
  0
SPLINE
  5
1b0
100
AcDbEntity
  8
0
 62
7
100
AcDbSpline
 70
8
 71
3
 72
8
 73
4
 74
0
 40
0
 40
0
 40
0
 40
0
 40
1
 40
1
 40
1
 40
1
 10
91.299956
 20
67.419745
 30
0.0
 10
90.772989
 20
68.332478
 30
0.0
 10
90.772989
 20
69.457012
 30
0.0
 10
91.299956
 20
70.369745
 30
0.0
  0
SPLINE
  5
1b1
100
AcDbEntity
  8
0
 62
7
100
AcDbSpline
 70
8
 71
3
 72
8
 73
4
 74
0
 40
0
 40
0
 40
0
 40
0
 40
1
 40
1
 40
1
 40
1
 10
91.299956
 20
70.369745
 30
0.0
 10
91.826923
 20
71.282478
 30
0.0
 10
92.800797
 20
71.844745
 30
0.0
 10
93.854731
 20
71.844745
 30
0.0
  0
LWPOLYLINE
  5
1b2
100
AcDbEntity
  8
0
 62
7
100
AcDbPolyline
 90
2
 70
0
 10
93.854731
 20
132.972117
 30
0.0
 10
93.854731
 20
132.972117
 30
0.0
  0
SPLINE
  5
1b3
100
AcDbEntity
  8
0
 62
7
100
AcDbSpline
 70
8
 71
3
 72
8
 73
4
 74
0
 40
0
 40
0
 40
0
 40
0
 40
1
 40
1
 40
1
 40
1
 10
40.438023
 20
72.877368
 30
0.0
 10
41.491956
 20
72.877368
 30
0.0
 10
42.465831
 20
72.315101
 30
0.0
 10
42.992798
 20
71.402368
 30
0.0
  0
SPLINE
  5
1b4
100
AcDbEntity
  8
0
 62
7
100
AcDbSpline
 70
8
 71
3
 72
8
 73
4
 74
0
 40
0
 40
0
 40
0
 40
0
 40
1
 40
1
 40
1
 40
1
 10
42.992798
 20
71.402368
 30
0.0
 10
43.519765
 20
70.489635
 30
0.0
 10
43.519765
 20
69.365101
 30
0.0
 10
42.992798
 20
68.452368
 30
0.0
  0
SPLINE
  5
1b5
100
AcDbEntity
  8
0
 62
7
100
AcDbSpline
 70
8
 71
3
 72
8
 73
4
 74
0
 40
0
 40
0
 40
0
 40
0
 40
1
 40
1
 40
1
 40
1
 10
42.992798
 20
68.452368
 30
0.0
 10
42.465831
 20
67.539635
 30
0.0
 10
41.491956
 20
66.977368
 30
0.0
 10
40.438023
 20
66.977368
 30
0.0
  0
SPLINE
  5
1b6
100
AcDbEntity
  8
0
 62
7
100
AcDbSpline
 70
8
 71
3
 72
8
 73
4
 74
0
 40
0
 40
0
 40
0
 40
0
 40
1
 40
1
 40
1
 40
1
 10
40.438023
 20
66.977368
 30
0.0
 10
39.384089
 20
66.977368
 30
0.0
 10
38.410215
 20
67.539635
 30
0.0
 10
37.883248
 20
68.452368
 30
0.0
  0
SPLINE
  5
1b7
100
AcDbEntity
  8
0
 62
7
100
AcDbSpline
 70
8
 71
3
 72
8
 73
4
 74
0
 40
0
 40
0
 40
0
 40
0
 40
1
 40
1
 40
1
 40
1
 10
37.883248
 20
68.452368
 30
0.0
 10
37.356281
 20
69.365101
 30
0.0
 10
37.356281
 20
70.489635
 30
0.0
 10
37.883248
 20
71.402368
 30
0.0
  0
SPLINE
  5
1b8
100
AcDbEntity
  8
0
 62
7
100
AcDbSpline
 70
8
 71
3
 72
8
 73
4
 74
0
 40
0
 40
0
 40
0
 40
0
 40
1
 40
1
 40
1
 40
1
 10
37.883248
 20
71.402368
 30
0.0
 10
38.410215
 20
72.315101
 30
0.0
 10
39.384089
 20
72.877368
 30
0.0
 10
40.438023
 20
72.877368
 30
0.0
  0
LWPOLYLINE
  5
1b9
100
AcDbEntity
  8
0
 62
7
100
AcDbPolyline
 90
2
 70
0
 10
93.854731
 20
71.844745
 30
0.0
 10
93.854731
 20
71.844745
 30
0.0
  0
SPLINE
  5
1ba
100
AcDbEntity
  8
0
 62
7
100
AcDbSpline
 70
8
 71
3
 72
8
 73
4
 74
0
 40
0
 40
0
 40
0
 40
0
 40
1
 40
1
 40
1
 40
1
 10
40.438023
 20
134.004740
 30
0.0
 10
41.491956
 20
134.004740
 30
0.0
 10
42.465831
 20
133.442473
 30
0.0
 10
42.992798
 20
132.529740
 30
0.0
  0
SPLINE
  5
1bb
100
AcDbEntity
  8
0
 62
7
100
AcDbSpline
 70
8
 71
3
 72
8
 73
4
 74
0
 40
0
 40
0
 40
0
 40
0
 40
1
 40
1
 40
1
 40
1
 10
42.992798
 20
132.529740
 30
0.0
 10
43.519765
 20
131.617007
 30
0.0
 10
43.519765
 20
130.492473
 30
0.0
 10
42.992798
 20
129.579740
 30
0.0
  0
SPLINE
  5
1bc
100
AcDbEntity
  8
0
 62
7
100
AcDbSpline
 70
8
 71
3
 72
8
 73
4
 74
0
 40
0
 40
0
 40
0
 40
0
 40
1
 40
1
 40
1
 40
1
 10
42.992798
 20
129.579740
 30
0.0
 10
42.465831
 20
128.667007
 30
0.0
 10
41.491956
 20
128.104740
 30
0.0
 10
40.438023
 20
128.104740
 30
0.0
  0
SPLINE
  5
1bd
100
AcDbEntity
  8
0
 62
7
100
AcDbSpline
 70
8
 71
3
 72
8
 73
4
 74
0
 40
0
 40
0
 40
0
 40
0
 40
1
 40
1
 40
1
 40
1
 10
40.438023
 20
128.104740
 30
0.0
 10
39.384089
 20
128.104740
 30
0.0
 10
38.410215
 20
128.667007
 30
0.0
 10
37.883248
 20
129.579740
 30
0.0
  0
SPLINE
  5
1be
100
AcDbEntity
  8
0
 62
7
100
AcDbSpline
 70
8
 71
3
 72
8
 73
4
 74
0
 40
0
 40
0
 40
0
 40
0
 40
1
 40
1
 40
1
 40
1
 10
37.883248
 20
129.579740
 30
0.0
 10
37.356281
 20
130.492473
 30
0.0
 10
37.356281
 20
131.617007
 30
0.0
 10
37.883248
 20
132.529740
 30
0.0
  0
SPLINE
  5
1bf
100
AcDbEntity
  8
0
 62
7
100
AcDbSpline
 70
8
 71
3
 72
8
 73
4
 74
0
 40
0
 40
0
 40
0
 40
0
 40
1
 40
1
 40
1
 40
1
 10
37.883248
 20
132.529740
 30
0.0
 10
38.410215
 20
133.442473
 30
0.0
 10
39.384089
 20
134.004740
 30
0.0
 10
40.438023
 20
134.004740
 30
0.0
  0
LWPOLYLINE
  5
1c0
100
AcDbEntity
  8
0
 62
7
100
AcDbPolyline
 90
2
 70
0
 10
40.438023
 20
72.877368
 30
0.0
 10
40.438023
 20
72.877368
 30
0.0
  0
SPLINE
  5
1c1
100
AcDbEntity
  8
0
 62
7
100
AcDbSpline
 70
8
 71
3
 72
8
 73
4
 74
0
 40
0
 40
0
 40
0
 40
0
 40
1
 40
1
 40
1
 40
1
 10
40.438023
 20
195.132126
 30
0.0
 10
41.491956
 20
195.132126
 30
0.0
 10
42.465831
 20
194.569859
 30
0.0
 10
42.992798
 20
193.657126
 30
0.0
  0
SPLINE
  5
1c2
100
AcDbEntity
  8
0
 62
7
100
AcDbSpline
 70
8
 71
3
 72
8
 73
4
 74
0
 40
0
 40
0
 40
0
 40
0
 40
1
 40
1
 40
1
 40
1
 10
42.992798
 20
193.657126
 30
0.0
 10
43.519765
 20
192.744393
 30
0.0
 10
43.519765
 20
191.619859
 30
0.0
 10
42.992798
 20
190.707126
 30
0.0
  0
SPLINE
  5
1c3
100
AcDbEntity
  8
0
 62
7
100
AcDbSpline
 70
8
 71
3
 72
8
 73
4
 74
0
 40
0
 40
0
 40
0
 40
0
 40
1
 40
1
 40
1
 40
1
 10
42.992798
 20
190.707126
 30
0.0
 10
42.465831
 20
189.794393
 30
0.0
 10
41.491956
 20
189.232126
 30
0.0
 10
40.438023
 20
189.232126
 30
0.0
  0
SPLINE
  5
1c4
100
AcDbEntity
  8
0
 62
7
100
AcDbSpline
 70
8
 71
3
 72
8
 73
4
 74
0
 40
0
 40
0
 40
0
 40
0
 40
1
 40
1
 40
1
 40
1
 10
40.438023
 20
189.232126
 30
0.0
 10
39.384089
 20
189.232126
 30
0.0
 10
38.410215
 20
189.794393
 30
0.0
 10
37.883248
 20
190.707126
 30
0.0
  0
SPLINE
  5
1c5
100
AcDbEntity
  8
0
 62
7
100
AcDbSpline
 70
8
 71
3
 72
8
 73
4
 74
0
 40
0
 40
0
 40
0
 40
0
 40
1
 40
1
 40
1
 40
1
 10
37.883248
 20
190.707126
 30
0.0
 10
37.356281
 20
191.619859
 30
0.0
 10
37.356281
 20
192.744393
 30
0.0
 10
37.883248
 20
193.657126
 30
0.0
  0
SPLINE
  5
1c6
100
AcDbEntity
  8
0
 62
7
100
AcDbSpline
 70
8
 71
3
 72
8
 73
4
 74
0
 40
0
 40
0
 40
0
 40
0
 40
1
 40
1
 40
1
 40
1
 10
37.883248
 20
193.657126
 30
0.0
 10
38.410215
 20
194.569859
 30
0.0
 10
39.384089
 20
195.132126
 30
0.0
 10
40.438023
 20
195.132126
 30
0.0
  0
LWPOLYLINE
  5
1c7
100
AcDbEntity
  8
0
 62
7
100
AcDbPolyline
 90
2
 70
0
 10
40.438023
 20
134.004740
 30
0.0
 10
40.438023
 20
134.004740
 30
0.0
  0
SPLINE
  5
1c8
100
AcDbEntity
  8
0
 62
7
100
AcDbSpline
 70
8
 71
3
 72
8
 73
4
 74
0
 40
0
 40
0
 40
0
 40
0
 40
1
 40
1
 40
1
 40
1
 10
40.438023
 20
256.259512
 30
0.0
 10
41.491956
 20
256.259512
 30
0.0
 10
42.465831
 20
255.697245
 30
0.0
 10
42.992798
 20
254.784512
 30
0.0
  0
SPLINE
  5
1c9
100
AcDbEntity
  8
0
 62
7
100
AcDbSpline
 70
8
 71
3
 72
8
 73
4
 74
0
 40
0
 40
0
 40
0
 40
0
 40
1
 40
1
 40
1
 40
1
 10
42.992798
 20
254.784512
 30
0.0
 10
43.519765
 20
253.871779
 30
0.0
 10
43.519765
 20
252.747245
 30
0.0
 10
42.992798
 20
251.834512
 30
0.0
  0
SPLINE
  5
1ca
100
AcDbEntity
  8
0
 62
7
100
AcDbSpline
 70
8
 71
3
 72
8
 73
4
 74
0
 40
0
 40
0
 40
0
 40
0
 40
1
 40
1
 40
1
 40
1
 10
42.992798
 20
251.834512
 30
0.0
 10
42.465831
 20
250.921779
 30
0.0
 10
41.491956
 20
250.359512
 30
0.0
 10
40.438023
 20
250.359512
 30
0.0
  0
SPLINE
  5
1cb
100
AcDbEntity
  8
0
 62
7
100
AcDbSpline
 70
8
 71
3
 72
8
 73
4
 74
0
 40
0
 40
0
 40
0
 40
0
 40
1
 40
1
 40
1
 40
1
 10
40.438023
 20
250.359512
 30
0.0
 10
39.384089
 20
250.359512
 30
0.0
 10
38.410215
 20
250.921779
 30
0.0
 10
37.883248
 20
251.834512
 30
0.0
  0
SPLINE
  5
1cc
100
AcDbEntity
  8
0
 62
7
100
AcDbSpline
 70
8
 71
3
 72
8
 73
4
 74
0
 40
0
 40
0
 40
0
 40
0
 40
1
 40
1
 40
1
 40
1
 10
37.883248
 20
251.834512
 30
0.0
 10
37.356281
 20
252.747245
 30
0.0
 10
37.356281
 20
253.871779
 30
0.0
 10
37.883248
 20
254.784512
 30
0.0
  0
SPLINE
  5
1cd
100
AcDbEntity
  8
0
 62
7
100
AcDbSpline
 70
8
 71
3
 72
8
 73
4
 74
0
 40
0
 40
0
 40
0
 40
0
 40
1
 40
1
 40
1
 40
1
 10
37.883248
 20
254.784512
 30
0.0
 10
38.410215
 20
255.697245
 30
0.0
 10
39.384089
 20
256.259512
 30
0.0
 10
40.438023
 20
256.259512
 30
0.0
  0
LWPOLYLINE
  5
1ce
100
AcDbEntity
  8
0
 62
7
100
AcDbPolyline
 90
2
 70
0
 10
40.438023
 20
195.132126
 30
0.0
 10
40.438023
 20
195.132126
 30
0.0
  0
LWPOLYLINE
  5
1cf
100
AcDbEntity
  8
0
 62
7
100
AcDbPolyline
 90
2
 70
0
 10
40.438023
 20
256.259512
 30
0.0
 10
40.438023
 20
256.259512
 30
0.0
  0
LWPOLYLINE
  5
1d0
100
AcDbEntity
  8
0
 62
7
100
AcDbPolyline
 90
5
 70
0
 10
4.918730
 20
268.359062
 30
0.0
 10
220.058726
 20
268.359062
 30
0.0
 10
220.058726
 20
53.219066
 30
0.0
 10
4.918730
 20
53.219066
 30
0.0
 10
4.918730
 20
268.359062
 30
0.0
  0
ENDSEC
  0
SECTION
  2
OBJECTS
  0
DICTIONARY
  5
C
330
0
100
AcDbDictionary
  3
ACAD_GROUP
350
D
  3
ACAD_MLINESTYLE
350
17
  0
DICTIONARY
  5
D
330
C
100
AcDbDictionary
  0
DICTIONARY
  5
1A
330
C
100
AcDbDictionary
  0
DICTIONARY
  5
17
330
C
100
AcDbDictionary
  3
STANDARD
350
18
  0
DICTIONARY
  5
19
330
C
100
AcDbDictionary
  0
ENDSEC
  0
EOF
