<?xml version="1.0" encoding="UTF-8" standalone="no"?>
<!-- Created with Inkscape (http://www.inkscape.org/) -->

<svg
   xmlns:dc="http://purl.org/dc/elements/1.1/"
   xmlns:cc="http://creativecommons.org/ns#"
   xmlns:rdf="http://www.w3.org/1999/02/22-rdf-syntax-ns#"
   xmlns:svg="http://www.w3.org/2000/svg"
   xmlns="http://www.w3.org/2000/svg"
   xmlns:sodipodi="http://sodipodi.sourceforge.net/DTD/sodipodi-0.dtd"
   xmlns:inkscape="http://www.inkscape.org/namespaces/inkscape"
   width="744.09448819"
   height="1052.3622047"
   id="svg4146"
   version="1.1"
   inkscape:version="0.48.4 r9939"
   sodipodi:docname="New document 4">
  <defs
     id="defs4148" />
  <sodipodi:namedview
     id="base"
     pagecolor="#ffffff"
     bordercolor="#666666"
     borderopacity="1.0"
     inkscape:pageopacity="0.0"
     inkscape:pageshadow="2"
     inkscape:zoom="0.5"
     inkscape:cx="375"
     inkscape:cy="607.14286"
     inkscape:document-units="px"
     inkscape:current-layer="svg4146"
     showgrid="false"
     showborder="false"
     inkscape:window-width="1498"
     inkscape:window-height="836"
     inkscape:window-x="1"
     inkscape:window-y="52"
     inkscape:window-maximized="0" />
  <metadata
     id="metadata4151">
    <rdf:RDF>
      <cc:Work
         rdf:about="">
        <dc:format>image/svg+xml</dc:format>
        <dc:type
           rdf:resource="http://purl.org/dc/dcmitype/StillImage" />
        <dc:title></dc:title>
      </cc:Work>
    </rdf:RDF>
  </metadata>
  <path
     transform="matrix(0,-0.58385419,0.58385419,0,-104.15764,252.55062)"
     d="m 181.20031,1478.2372 a 17.903025,17.903025 0 1 1 -35.80605,0 17.903025,17.903025 0 1 1 35.80605,0 z"
     sodipodi:ry="17.903025"
     sodipodi:rx="17.903025"
     sodipodi:cy="1478.2372"
     sodipodi:cx="163.29729"
     id="path5151-0-1-7-6-2-6-6-1-6"
     style="fill:none;stroke:#000000;stroke-width:0.60688221;stroke-linecap:square;stroke-linejoin:round;stroke-miterlimit:4;stroke-opacity:1;stroke-dasharray:none"
     sodipodi:type="arc" />
  <path
     transform="matrix(0,-0.58385419,0.58385419,0,-104.15764,469.14372)"
     d="m 181.20031,1478.2372 a 17.903025,17.903025 0 1 1 -35.80605,0 17.903025,17.903025 0 1 1 35.80605,0 z"
     sodipodi:ry="17.903025"
     sodipodi:rx="17.903025"
     sodipodi:cy="1478.2372"
     sodipodi:cx="163.29729"
     id="path5151-0-1-0-8-4-1-5-4-1"
     style="fill:none;stroke:#000000;stroke-width:0.60688221;stroke-linecap:square;stroke-linejoin:round;stroke-miterlimit:4;stroke-opacity:1;stroke-dasharray:none"
     sodipodi:type="arc" />
  <path
     transform="matrix(0,-0.58385419,0.58385419,0,-104.15764,685.73672)"
     d="m 181.20031,1478.2372 a 17.903025,17.903025 0 1 1 -35.80605,0 17.903025,17.903025 0 1 1 35.80605,0 z"
     sodipodi:ry="17.903025"
     sodipodi:rx="17.903025"
     sodipodi:cy="1478.2372"
     sodipodi:cx="163.29729"
     id="path5151-0-1-34-8-8-0-0-6-1"
     style="fill:none;stroke:#000000;stroke-width:0.60688221;stroke-linecap:square;stroke-linejoin:round;stroke-miterlimit:4;stroke-opacity:1;stroke-dasharray:none"
     sodipodi:type="arc" />
  <path
     transform="matrix(0,-0.58385419,0.58385419,0,-104.15764,902.32987)"
     d="m 181.20031,1478.2372 a 17.903025,17.903025 0 1 1 -35.80605,0 17.903025,17.903025 0 1 1 35.80605,0 z"
     sodipodi:ry="17.903025"
     sodipodi:rx="17.903025"
     sodipodi:cy="1478.2372"
     sodipodi:cx="163.29729"
     id="path5151-0-1-6-9-9-5-4-8-9"
     style="fill:none;stroke:#000000;stroke-width:0.60688221;stroke-linecap:square;stroke-linejoin:round;stroke-miterlimit:4;stroke-opacity:1;stroke-dasharray:none"
     sodipodi:type="arc" />
  <path
     inkscape:connector-curvature="0"
     id="path2985-9-6-7-8-2-6-5-2-5-0-98-8"
     d="m 25.238465,166.76111 c 0,-24.19774 19.600499,-43.81945 43.772099,-43.81945 24.1716,0 43.772096,19.62171 43.772096,43.81945 0,7.08223 -1.6785,13.75533 -4.6591,19.67564 l -78.186795,0 c -2.9823,-5.92181 -4.6983,-12.59114 -4.6983,-19.67564 z"
     style="fill:none;stroke:#000000;stroke-width:0.99999994;stroke-linecap:round;stroke-linejoin:round;stroke-miterlimit:4;stroke-opacity:1;stroke-dasharray:none" />
  <path
     inkscape:connector-curvature="0"
     id="path2985-9-6-7-8-2-6-5-2-5-0-98-80-2-4"
     d="m 640.87146,169.16121 c 0,-24.19774 19.6005,-43.81945 43.7721,-43.81945 24.1716,0 43.7721,19.62171 43.7721,43.81945 0,7.08223 -1.6785,13.75533 -4.6591,19.67564 l -78.1868,0 c -2.9823,-5.92181 -4.6983,-12.59114 -4.6983,-19.67564 z"
     style="fill:none;stroke:#000000;stroke-width:0.99999994;stroke-linecap:round;stroke-linejoin:round;stroke-miterlimit:4;stroke-opacity:1;stroke-dasharray:none" />
  <path
     inkscape:connector-curvature="0"
     id="path2985-9-6-7-8-2-6-5-2-5-0-98-80-2-79"
     d="m 640.87146,385.75431 c 0,-24.19774 19.6005,-43.81945 43.7721,-43.81945 24.1716,0 43.7721,19.62171 43.7721,43.81945 0,7.08223 -1.6785,13.75533 -4.6591,19.67564 l -78.1868,0 c -2.9823,-5.92181 -4.6983,-12.59114 -4.6983,-19.67564 z"
     style="fill:none;stroke:#000000;stroke-width:0.99999994;stroke-linecap:round;stroke-linejoin:round;stroke-miterlimit:4;stroke-opacity:1;stroke-dasharray:none" />
  <path
     inkscape:connector-curvature="0"
     id="path2985-9-6-7-8-2-6-5-2-5-0-98-80-2-0"
     d="m 640.87146,602.34741 c 0,-24.19774 19.6005,-43.81945 43.7721,-43.81945 24.1716,0 43.7721,19.62171 43.7721,43.81945 0,7.08223 -1.6785,13.75533 -4.6591,19.67564 l -78.1868,0 c -2.9823,-5.92181 -4.6983,-12.59114 -4.6983,-19.67564 z"
     style="fill:none;stroke:#000000;stroke-width:0.99999994;stroke-linecap:round;stroke-linejoin:round;stroke-miterlimit:4;stroke-opacity:1;stroke-dasharray:none" />
  <path
     inkscape:connector-curvature="0"
     id="path2985-9-6-7-8-2-6-5-2-5-0-98-80-2-31"
     d="m 640.87146,818.94047 c 0,-24.1978 19.6005,-43.8195 43.7721,-43.8195 24.1716,0 43.7721,19.6217 43.7721,43.8195 0,7.0822 -1.6785,13.7553 -4.6591,19.6756 l -78.1868,0 c -2.9823,-5.9218 -4.6983,-12.5911 -4.6983,-19.6756 z"
     style="fill:none;stroke:#000000;stroke-width:0.99999994;stroke-linecap:round;stroke-linejoin:round;stroke-miterlimit:4;stroke-opacity:1;stroke-dasharray:none" />
  <path
     inkscape:connector-curvature="0"
     id="path2985-9-6-7-8-2-6-5-2-5-0-98-80-2-71"
     d="m 403.14796,167.49321 c 0,-24.19774 19.6005,-43.81945 43.7721,-43.81945 24.1716,0 43.7721,19.62171 43.7721,43.81945 0,7.08223 -1.6785,13.75533 -4.6591,19.67564 l -78.1868,0 c -2.9823,-5.92181 -4.6983,-12.59114 -4.6983,-19.67564 z"
     style="fill:none;stroke:#000000;stroke-width:0.99999994;stroke-linecap:round;stroke-linejoin:round;stroke-miterlimit:4;stroke-opacity:1;stroke-dasharray:none" />
  <path
     inkscape:connector-curvature="0"
     id="path2985-9-6-7-8-2-6-5-2-5-0-98-80-2-7"
     d="m 403.14796,384.08631 c 0,-24.19774 19.6005,-43.81945 43.7721,-43.81945 24.1716,0 43.7721,19.62171 43.7721,43.81945 0,7.08223 -1.6785,13.75533 -4.6591,19.67564 l -78.1868,0 c -2.9823,-5.92181 -4.6983,-12.59114 -4.6983,-19.67564 z"
     style="fill:none;stroke:#000000;stroke-width:0.99999994;stroke-linecap:round;stroke-linejoin:round;stroke-miterlimit:4;stroke-opacity:1;stroke-dasharray:none" />
  <path
     inkscape:connector-curvature="0"
     id="path2985-9-6-7-8-2-6-5-2-5-0-98-80-2-3"
     d="m 403.14796,600.67941 c 0,-24.19774 19.6005,-43.81945 43.7721,-43.81945 24.1716,0 43.7721,19.62171 43.7721,43.81945 0,7.08223 -1.6785,13.75533 -4.6591,19.67564 l -78.1868,0 c -2.9823,-5.92181 -4.6983,-12.59114 -4.6983,-19.67564 z"
     style="fill:none;stroke:#000000;stroke-width:0.99999994;stroke-linecap:round;stroke-linejoin:round;stroke-miterlimit:4;stroke-opacity:1;stroke-dasharray:none" />
  <path
     inkscape:connector-curvature="0"
     id="path2985-9-6-7-8-2-6-5-2-5-0-98-80-2-6"
     d="m 403.14796,817.27247 c 0,-24.1978 19.6005,-43.8195 43.7721,-43.8195 24.1716,0 43.7721,19.6217 43.7721,43.8195 0,7.0822 -1.6785,13.7553 -4.6591,19.6756 l -78.1868,0 c -2.9823,-5.9218 -4.6983,-12.5911 -4.6983,-19.6756 z"
     style="fill:none;stroke:#000000;stroke-width:0.99999994;stroke-linecap:round;stroke-linejoin:round;stroke-miterlimit:4;stroke-opacity:1;stroke-dasharray:none" />
  <path
     inkscape:connector-curvature="0"
     id="path2985-9-6-7-8-2-6-5-2-5-0-98-80-3"
     d="m 215.06756,150.02439 c 0,24.19774 19.6005,43.81945 43.7721,43.81945 24.1716,0 43.7721,-19.62171 43.7721,-43.81945 0,-7.08223 -1.6785,-13.75533 -4.6591,-19.67564 l -78.1868,0 c -2.9823,5.92181 -4.6983,12.59114 -4.6983,19.67564 z"
     style="fill:none;stroke:#000000;stroke-width:0.99999994;stroke-linecap:round;stroke-linejoin:round;stroke-miterlimit:4;stroke-opacity:1;stroke-dasharray:none" />
  <path
     inkscape:connector-curvature="0"
     id="path2985-9-6-7-8-2-6-5-2-5-0-98-80-04"
     d="m 214.17746,366.32139 c 0,24.19774 19.6005,43.81945 43.7721,43.81945 24.1716,0 43.7721,-19.62171 43.7721,-43.81945 0,-7.08223 -1.6785,-13.75533 -4.6591,-19.67564 l -78.1868,0 c -2.9823,5.92181 -4.6983,12.59114 -4.6983,19.67564 z"
     style="fill:none;stroke:#000000;stroke-width:0.99999994;stroke-linecap:round;stroke-linejoin:round;stroke-miterlimit:4;stroke-opacity:1;stroke-dasharray:none" />
  <path
     inkscape:connector-curvature="0"
     id="path2985-9-6-7-8-2-6-5-2-5-0-98-80"
     d="m 214.62256,583.50839 c 0,24.19774 19.6005,43.81945 43.7721,43.81945 24.1716,0 43.7721,-19.62171 43.7721,-43.81945 0,-7.08223 -1.6785,-13.75533 -4.6591,-19.67564 l -78.1868,0 c -2.9823,5.92181 -4.6983,12.59114 -4.6983,19.67564 z"
     style="fill:none;stroke:#000000;stroke-width:0.99999994;stroke-linecap:round;stroke-linejoin:round;stroke-miterlimit:4;stroke-opacity:1;stroke-dasharray:none" />
  <path
     inkscape:connector-curvature="0"
     id="path2985-9-6-7-8-2-6-5-2-5-0-98-80-0"
     d="m 213.87606,800.82037 c 0,24.1978 19.6005,43.8195 43.7721,43.8195 24.1716,0 43.7721,-19.6217 43.7721,-43.8195 0,-7.0822 -1.6785,-13.7553 -4.6591,-19.6756 l -78.1868,0 c -2.9823,5.9218 -4.6983,12.5911 -4.6983,19.6756 z"
     style="fill:none;stroke:#000000;stroke-width:0.99999994;stroke-linecap:round;stroke-linejoin:round;stroke-miterlimit:4;stroke-opacity:1;stroke-dasharray:none" />
  <path
     inkscape:connector-curvature="0"
     id="path2985-9-6-7-8-2-6-5-2-5-0-98-4"
     d="m 25.238465,816.54037 c 0,-24.1978 19.600499,-43.8195 43.772099,-43.8195 24.1716,0 43.772096,19.6217 43.772096,43.8195 0,7.0822 -1.6785,13.7553 -4.6591,19.6756 l -78.186795,0 c -2.9823,-5.9218 -4.6983,-12.5911 -4.6983,-19.6756 z"
     style="fill:none;stroke:#000000;stroke-width:0.99999994;stroke-linecap:round;stroke-linejoin:round;stroke-miterlimit:4;stroke-opacity:1;stroke-dasharray:none" />
  <path
     inkscape:connector-curvature="0"
     id="path2985-9-6-7-8-2-6-5-2-5-0-98-9"
     d="m 25.238465,599.94741 c 0,-24.19774 19.600499,-43.81945 43.772099,-43.81945 24.1716,0 43.772096,19.62171 43.772096,43.81945 0,7.08223 -1.6785,13.75533 -4.6591,19.67564 l -78.186795,0 c -2.9823,-5.92181 -4.6983,-12.59114 -4.6983,-19.67564 z"
     style="fill:none;stroke:#000000;stroke-width:0.99999994;stroke-linecap:round;stroke-linejoin:round;stroke-miterlimit:4;stroke-opacity:1;stroke-dasharray:none" />
  <path
     inkscape:connector-curvature="0"
     id="path2985-9-6-7-8-2-6-5-2-5-0-98-6"
     d="m 25.238465,383.35421 c 0,-24.19774 19.600499,-43.81945 43.772099,-43.81945 24.1716,0 43.772096,19.62171 43.772096,43.81945 0,7.08223 -1.6785,13.75533 -4.6591,19.67564 l -78.186795,0 c -2.9823,-5.92181 -4.6983,-12.59114 -4.6983,-19.67564 z"
     style="fill:none;stroke:#000000;stroke-width:0.99999994;stroke-linecap:round;stroke-linejoin:round;stroke-miterlimit:4;stroke-opacity:1;stroke-dasharray:none" />
  <path
     transform="matrix(0,-0.58385419,0.58385419,0,-341.88125,900.66207)"
     d="m 181.20031,1478.2372 a 17.903025,17.903025 0 1 1 -35.80605,0 17.903025,17.903025 0 1 1 35.80605,0 z"
     sodipodi:ry="17.903025"
     sodipodi:rx="17.903025"
     sodipodi:cy="1478.2372"
     sodipodi:cx="163.29729"
     id="path5151-0-1-6-9-0-3-2-6"
     style="fill:none;stroke:#000000;stroke-width:0.60688221;stroke-linecap:square;stroke-linejoin:round;stroke-miterlimit:4;stroke-opacity:1;stroke-dasharray:none"
     sodipodi:type="arc" />
  <path
     transform="matrix(0,-0.58385419,0.58385419,0,-341.88125,684.06892)"
     d="m 181.20031,1478.2372 a 17.903025,17.903025 0 1 1 -35.80605,0 17.903025,17.903025 0 1 1 35.80605,0 z"
     sodipodi:ry="17.903025"
     sodipodi:rx="17.903025"
     sodipodi:cy="1478.2372"
     sodipodi:cx="163.29729"
     id="path5151-0-1-34-8-4-3-6-0"
     style="fill:none;stroke:#000000;stroke-width:0.60688221;stroke-linecap:square;stroke-linejoin:round;stroke-miterlimit:4;stroke-opacity:1;stroke-dasharray:none"
     sodipodi:type="arc" />
  <path
     transform="matrix(0,-0.58385419,0.58385419,0,-341.88125,467.47592)"
     d="m 181.20031,1478.2372 a 17.903025,17.903025 0 1 1 -35.80605,0 17.903025,17.903025 0 1 1 35.80605,0 z"
     sodipodi:ry="17.903025"
     sodipodi:rx="17.903025"
     sodipodi:cy="1478.2372"
     sodipodi:cx="163.29729"
     id="path5151-0-1-0-8-7-7-7-0"
     style="fill:none;stroke:#000000;stroke-width:0.60688221;stroke-linecap:square;stroke-linejoin:round;stroke-miterlimit:4;stroke-opacity:1;stroke-dasharray:none"
     sodipodi:type="arc" />
  <path
     transform="matrix(0,-0.58385419,0.58385419,0,-341.88125,250.88282)"
     d="m 181.20031,1478.2372 a 17.903025,17.903025 0 1 1 -35.80605,0 17.903025,17.903025 0 1 1 35.80605,0 z"
     sodipodi:ry="17.903025"
     sodipodi:rx="17.903025"
     sodipodi:cy="1478.2372"
     sodipodi:cx="163.29729"
     id="path5151-0-1-7-6-7-3-4-1"
     style="fill:none;stroke:#000000;stroke-width:0.60688221;stroke-linecap:square;stroke-linejoin:round;stroke-miterlimit:4;stroke-opacity:1;stroke-dasharray:none"
     sodipodi:type="arc" />
  <path
     transform="matrix(0,-0.58385419,0.58385419,0,-530.51885,253.80952)"
     d="m 181.20031,1478.2372 a 17.903025,17.903025 0 1 1 -35.80605,0 17.903025,17.903025 0 1 1 35.80605,0 z"
     sodipodi:ry="17.903025"
     sodipodi:rx="17.903025"
     sodipodi:cy="1478.2372"
     sodipodi:cx="163.29729"
     id="path5151-0-1-9-0-6-4-0-2"
     style="fill:none;stroke:#000000;stroke-width:0.60688221;stroke-linecap:square;stroke-linejoin:round;stroke-miterlimit:4;stroke-opacity:1;stroke-dasharray:none"
     sodipodi:type="arc" />
  <path
     transform="matrix(0,-0.58385419,0.58385419,0,-530.51885,470.40262)"
     d="m 181.20031,1478.2372 a 17.903025,17.903025 0 1 1 -35.80605,0 17.903025,17.903025 0 1 1 35.80605,0 z"
     sodipodi:ry="17.903025"
     sodipodi:rx="17.903025"
     sodipodi:cy="1478.2372"
     sodipodi:cx="163.29729"
     id="path5151-0-1-3-3-3-9-0-6"
     style="fill:none;stroke:#000000;stroke-width:0.60688221;stroke-linecap:square;stroke-linejoin:round;stroke-miterlimit:4;stroke-opacity:1;stroke-dasharray:none"
     sodipodi:type="arc" />
  <path
     transform="matrix(0,-0.58385419,0.58385419,0,-530.51885,686.99572)"
     d="m 181.20031,1478.2372 a 17.903025,17.903025 0 1 1 -35.80605,0 17.903025,17.903025 0 1 1 35.80605,0 z"
     sodipodi:ry="17.903025"
     sodipodi:rx="17.903025"
     sodipodi:cy="1478.2372"
     sodipodi:cx="163.29729"
     id="path5151-0-1-17-6-6-3-2-8"
     style="fill:none;stroke:#000000;stroke-width:0.60688221;stroke-linecap:square;stroke-linejoin:round;stroke-miterlimit:4;stroke-opacity:1;stroke-dasharray:none"
     sodipodi:type="arc" />
  <path
     transform="matrix(0,-0.58385419,0.58385419,0,-530.51885,903.58877)"
     d="m 181.20031,1478.2372 a 17.903025,17.903025 0 1 1 -35.80605,0 17.903025,17.903025 0 1 1 35.80605,0 z"
     sodipodi:ry="17.903025"
     sodipodi:rx="17.903025"
     sodipodi:cy="1478.2372"
     sodipodi:cx="163.29729"
     id="path5151-0-1-4-7-0-0-7-3"
     style="fill:none;stroke:#000000;stroke-width:0.60688221;stroke-linecap:square;stroke-linejoin:round;stroke-miterlimit:4;stroke-opacity:1;stroke-dasharray:none"
     sodipodi:type="arc" />
  <path
     transform="matrix(0,-0.58385419,0.58385419,0,-719.79065,899.92987)"
     d="m 181.20031,1478.2372 a 17.903025,17.903025 0 1 1 -35.80605,0 17.903025,17.903025 0 1 1 35.80605,0 z"
     sodipodi:ry="17.903025"
     sodipodi:rx="17.903025"
     sodipodi:cy="1478.2372"
     sodipodi:cx="163.29729"
     id="path5151-6-7-5-5-4"
     style="fill:none;stroke:#000000;stroke-width:0.60688221;stroke-linecap:square;stroke-linejoin:round;stroke-miterlimit:4;stroke-opacity:1;stroke-dasharray:none"
     sodipodi:type="arc" />
  <path
     transform="matrix(0,-0.58385419,0.58385419,0,-719.79065,683.33682)"
     d="m 181.20031,1478.2372 a 17.903025,17.903025 0 1 1 -35.80605,0 17.903025,17.903025 0 1 1 35.80605,0 z"
     sodipodi:ry="17.903025"
     sodipodi:rx="17.903025"
     sodipodi:cy="1478.2372"
     sodipodi:cx="163.29729"
     id="path5151-0-0-8-7-8-0"
     style="fill:none;stroke:#000000;stroke-width:0.60688221;stroke-linecap:square;stroke-linejoin:round;stroke-miterlimit:4;stroke-opacity:1;stroke-dasharray:none"
     sodipodi:type="arc" />
  <path
     transform="matrix(0,-0.58385419,0.58385419,0,-719.79065,466.74372)"
     d="m 181.20031,1478.2372 a 17.903025,17.903025 0 1 1 -35.80605,0 17.903025,17.903025 0 1 1 35.80605,0 z"
     sodipodi:ry="17.903025"
     sodipodi:rx="17.903025"
     sodipodi:cy="1478.2372"
     sodipodi:cx="163.29729"
     id="path5151-0-1-44-1-8-4-3"
     style="fill:none;stroke:#000000;stroke-width:0.60688221;stroke-linecap:square;stroke-linejoin:round;stroke-miterlimit:4;stroke-opacity:1;stroke-dasharray:none"
     sodipodi:type="arc" />
  <path
     transform="matrix(0,-0.58385419,0.58385419,0,-719.79065,250.15062)"
     d="m 181.20031,1478.2372 a 17.903025,17.903025 0 1 1 -35.80605,0 17.903025,17.903025 0 1 1 35.80605,0 z"
     sodipodi:ry="17.903025"
     sodipodi:rx="17.903025"
     sodipodi:cy="1478.2372"
     sodipodi:cx="163.29729"
     id="path5151-0-1-1-3-8-3-6-8"
     style="fill:none;stroke:#000000;stroke-width:0.60688221;stroke-linecap:square;stroke-linejoin:round;stroke-miterlimit:4;stroke-opacity:1;stroke-dasharray:none"
     sodipodi:type="arc" />
  <rect
     style="fill:none;stroke:#000000;stroke-width:0.35433075;stroke-linecap:square;stroke-linejoin:round;stroke-miterlimit:4;stroke-opacity:1;stroke-dasharray:none"
     id="rect4287"
     width="762.30707"
     height="762.30707"
     x="17.428572"
     y="101.48364" />
</svg>
