  0
SECTION
  2
HEADER
  9
$ACADVER
  1
AC1014
  9
$HANDSEED
  5
FFFF
  9
$MEASUREMENT
 70
     1
  0
ENDSEC
  0
SECTION
  2
TABLES
  0
TABLE
  2
VPORT
  5
8
330
0
100
AcDbSymbolTable
 70
     4
  0
VPORT
  5
2E
330
8
100
AcDbSymbolTableRecord
100
AcDbViewportTableRecord
  2
*ACTIVE
 70
     0
 10
0.0
 20
0.0
 11
1.0
 21
1.0
 12
210.0
 22
148.5
 13
0.0
 23
0.0
 14
10.0
 24
10.0
 15
10.0
 25
10.0
 16
0.0
 26
0.0
 36
1.0
 17
0.0
 27
0.0
 37
0.0
 40
341.0
 41
1.24
 42
50.0
 43
0.0
 44
0.0
 50
0.0
 51
0.0
 71
     0
 72
   100
 73
     1
 74
     3
 75
     0
 76
     0
 77
     0
 78
     0
  0
ENDTAB
  0
TABLE
  2
LTYPE
  5
5
330
0
100
AcDbSymbolTable
 70
     1
  0
LTYPE
  5
14
330
5
100
AcDbSymbolTableRecord
100
AcDbLinetypeTableRecord
  2
BYBLOCK
 70
     0
  3

 72
    65
 73
     0
 40
0.0
  0
LTYPE
  5
15
330
5
100
AcDbSymbolTableRecord
100
AcDbLinetypeTableRecord
  2
BYLAYER
 70
     0
  3

 72
    65
 73
     0
 40
0.0
  0
LTYPE
  5
16
330
5
100
AcDbSymbolTableRecord
100
AcDbLinetypeTableRecord
  2
CONTINUOUS
 70
     0
  3
Solid line
 72
    65
 73
     0
 40
0.0
  0
ENDTAB
  0
TABLE
  2
LAYER
  5
2
100
AcDbSymbolTable
 70
1
  0
LAYER
  5
50
100
AcDbSymbolTableRecord
100
AcDbLayerTableRecord
  2
0
 70
0
  6
CONTINUOUS
  0
ENDTAB
  0
TABLE
  2
STYLE
  5
3
330
0
100
AcDbSymbolTable
 70
     1
  0
STYLE
  5
11
330
3
100
AcDbSymbolTableRecord
100
AcDbTextStyleTableRecord
  2
STANDARD
 70
     0
 40
0.0
 41
1.0
 50
0.0
 71
     0
 42
2.5
  3
txt
  4

  0
ENDTAB
  0
TABLE
  2
VIEW
  5
6
330
0
100
AcDbSymbolTable
 70
     0
  0
ENDTAB
  0
TABLE
  2
UCS
  5
7
330
0
100
AcDbSymbolTable
 70
     0
  0
ENDTAB
  0
TABLE
  2
APPID
  5
9
330
0
100
AcDbSymbolTable
 70
     2
  0
APPID
  5
12
330
9
100
AcDbSymbolTableRecord
100
AcDbRegAppTableRecord
  2
ACAD
 70
     0
  0
ENDTAB
  0
TABLE
  2
DIMSTYLE
  5
A
330
0
100
AcDbSymbolTable
 70
     1
  0
DIMSTYLE
105
27
330
A
100
AcDbSymbolTableRecord
100
AcDbDimStyleTableRecord
  2
ISO-25
 70
     0
  3

  4

  5

  6

  7

 40
1.0
 41
2.5
 42
0.625
 43
3.75
 44
1.25
 45
0.0
 46
0.0
 47
0.0
 48
0.0
140
2.5
141
2.5
142
0.0
143
0.03937007874016
144
1.0
145
0.0
146
1.0
147
0.625
 71
     0
 72
     0
 73
     0
 74
     0
 75
     0
 76
     0
 77
     1
 78
     8
170
     0
171
     3
172
     1
173
     0
174
     0
175
     0
176
     0
177
     0
178
     0
270
     2
271
     2
272
     2
273
     2
274
     3
340
11
275
     0
280
     0
281
     0
282
     0
283
     0
284
     8
285
     0
286
     0
287
     3
288
     0
  0
ENDTAB
  0
TABLE
  2
BLOCK_RECORD
  5
1
330
0
100
AcDbSymbolTable
 70
     1
  0
BLOCK_RECORD
  5
1F
330
1
100
AcDbSymbolTableRecord
100
AcDbBlockTableRecord
  2
*MODEL_SPACE
  0
BLOCK_RECORD
  5
1B
330
1
100
AcDbSymbolTableRecord
100
AcDbBlockTableRecord
  2
*PAPER_SPACE
  0
ENDTAB
  0
ENDSEC
  0
SECTION
  2
BLOCKS
  0
BLOCK
  5
20
330
1F
100
AcDbEntity
  8
0
100
AcDbBlockBegin
  2
*MODEL_SPACE
 70
     0
 10
0.0
 20
0.0
 30
0.0
  3
*MODEL_SPACE
  1

  0
ENDBLK
  5
21
330
1F
100
AcDbEntity
  8
0
100
AcDbBlockEnd
  0
BLOCK
  5
1C
330
1B
100
AcDbEntity
 67
     1
  8
0
100
AcDbBlockBegin
  2
*PAPER_SPACE
  1

  0
ENDBLK
  5
1D
330
1B
100
AcDbEntity
 67
     1
  8
0
100
AcDbBlockEnd
  0
ENDSEC
  0
SECTION
  2
ENTITIES
  0
LWPOLYLINE
  5
100
100
AcDbEntity
  8
0
 62
7
100
AcDbPolyline
 90
65
 70
0
 10
214.183339
 20
255.582179
 30
0.0
 10
214.484963
 20
255.566953
 30
0.0
 10
214.777870
 20
255.522249
 30
0.0
 10
215.060577
 20
255.449558
 30
0.0
 10
215.331618
 20
255.350358
 30
0.0
 10
215.589493
 20
255.226134
 30
0.0
 10
215.832720
 20
255.078369
 30
0.0
 10
216.059815
 20
254.908547
 30
0.0
 10
216.269312
 20
254.718148
 30
0.0
 10
216.459695
 20
254.508657
 30
0.0
 10
216.629530
 20
254.281557
 30
0.0
 10
216.777286
 20
254.038329
 30
0.0
 10
216.901511
 20
253.780457
 30
0.0
 10
217.000706
 20
253.509424
 30
0.0
 10
217.073406
 20
253.226712
 30
0.0
 10
217.118110
 20
252.933805
 30
0.0
 10
217.133269
 20
252.632184
 30
0.0
 10
217.118110
 20
252.330564
 30
0.0
 10
217.073406
 20
252.037657
 30
0.0
 10
217.000706
 20
251.754945
 30
0.0
 10
216.901511
 20
251.483910
 30
0.0
 10
216.777286
 20
251.226038
 30
0.0
 10
216.629530
 20
250.982812
 30
0.0
 10
216.459695
 20
250.755710
 30
0.0
 10
216.269312
 20
250.546219
 30
0.0
 10
216.059815
 20
250.355820
 30
0.0
 10
215.832720
 20
250.185998
 30
0.0
 10
215.589493
 20
250.038233
 30
0.0
 10
215.331618
 20
249.914009
 30
0.0
 10
215.060577
 20
249.814809
 30
0.0
 10
214.777870
 20
249.742118
 30
0.0
 10
214.484963
 20
249.697414
 30
0.0
 10
214.183339
 20
249.682188
 30
0.0
 10
213.881715
 20
249.697414
 30
0.0
 10
213.588808
 20
249.742118
 30
0.0
 10
213.306101
 20
249.814809
 30
0.0
 10
213.035060
 20
249.914009
 30
0.0
 10
212.777185
 20
250.038233
 30
0.0
 10
212.533958
 20
250.185998
 30
0.0
 10
212.306863
 20
250.355820
 30
0.0
 10
212.097382
 20
250.546219
 30
0.0
 10
211.906983
 20
250.755710
 30
0.0
 10
211.737148
 20
250.982812
 30
0.0
 10
211.589392
 20
251.226038
 30
0.0
 10
211.465167
 20
251.483910
 30
0.0
 10
211.365972
 20
251.754945
 30
0.0
 10
211.293272
 20
252.037657
 30
0.0
 10
211.248568
 20
252.330564
 30
0.0
 10
211.233409
 20
252.632184
 30
0.0
 10
211.248568
 20
252.933805
 30
0.0
 10
211.293272
 20
253.226712
 30
0.0
 10
211.365972
 20
253.509424
 30
0.0
 10
211.465167
 20
253.780457
 30
0.0
 10
211.589392
 20
254.038329
 30
0.0
 10
211.737148
 20
254.281557
 30
0.0
 10
211.906983
 20
254.508657
 30
0.0
 10
212.097382
 20
254.718148
 30
0.0
 10
212.306863
 20
254.908547
 30
0.0
 10
212.533958
 20
255.078369
 30
0.0
 10
212.777185
 20
255.226134
 30
0.0
 10
213.035060
 20
255.350358
 30
0.0
 10
213.306101
 20
255.449558
 30
0.0
 10
213.588808
 20
255.522249
 30
0.0
 10
213.881715
 20
255.566953
 30
0.0
 10
214.183339
 20
255.582179
 30
0.0
  0
LWPOLYLINE
  5
101
100
AcDbEntity
  8
0
 62
7
100
AcDbPolyline
 90
65
 70
0
 10
214.183339
 20
194.454793
 30
0.0
 10
214.484963
 20
194.439567
 30
0.0
 10
214.777870
 20
194.394863
 30
0.0
 10
215.060577
 20
194.322172
 30
0.0
 10
215.331618
 20
194.222972
 30
0.0
 10
215.589493
 20
194.098748
 30
0.0
 10
215.832720
 20
193.950983
 30
0.0
 10
216.059815
 20
193.781161
 30
0.0
 10
216.269312
 20
193.590762
 30
0.0
 10
216.459695
 20
193.381271
 30
0.0
 10
216.629530
 20
193.154171
 30
0.0
 10
216.777286
 20
192.910943
 30
0.0
 10
216.901511
 20
192.653071
 30
0.0
 10
217.000706
 20
192.382038
 30
0.0
 10
217.073406
 20
192.099326
 30
0.0
 10
217.118110
 20
191.806419
 30
0.0
 10
217.133269
 20
191.504798
 30
0.0
 10
217.118110
 20
191.203178
 30
0.0
 10
217.073406
 20
190.910271
 30
0.0
 10
217.000706
 20
190.627559
 30
0.0
 10
216.901511
 20
190.356524
 30
0.0
 10
216.777286
 20
190.098652
 30
0.0
 10
216.629530
 20
189.855426
 30
0.0
 10
216.459695
 20
189.628324
 30
0.0
 10
216.269312
 20
189.418833
 30
0.0
 10
216.059815
 20
189.228434
 30
0.0
 10
215.832720
 20
189.058612
 30
0.0
 10
215.589493
 20
188.910847
 30
0.0
 10
215.331618
 20
188.786623
 30
0.0
 10
215.060577
 20
188.687423
 30
0.0
 10
214.777870
 20
188.614732
 30
0.0
 10
214.484963
 20
188.570028
 30
0.0
 10
214.183339
 20
188.554802
 30
0.0
 10
213.881715
 20
188.570028
 30
0.0
 10
213.588808
 20
188.614732
 30
0.0
 10
213.306101
 20
188.687423
 30
0.0
 10
213.035060
 20
188.786623
 30
0.0
 10
212.777185
 20
188.910847
 30
0.0
 10
212.533958
 20
189.058612
 30
0.0
 10
212.306863
 20
189.228434
 30
0.0
 10
212.097382
 20
189.418833
 30
0.0
 10
211.906983
 20
189.628324
 30
0.0
 10
211.737148
 20
189.855426
 30
0.0
 10
211.589392
 20
190.098652
 30
0.0
 10
211.465167
 20
190.356524
 30
0.0
 10
211.365972
 20
190.627559
 30
0.0
 10
211.293272
 20
190.910271
 30
0.0
 10
211.248568
 20
191.203178
 30
0.0
 10
211.233409
 20
191.504798
 30
0.0
 10
211.248568
 20
191.806419
 30
0.0
 10
211.293272
 20
192.099326
 30
0.0
 10
211.365972
 20
192.382038
 30
0.0
 10
211.465167
 20
192.653071
 30
0.0
 10
211.589392
 20
192.910943
 30
0.0
 10
211.737148
 20
193.154171
 30
0.0
 10
211.906983
 20
193.381271
 30
0.0
 10
212.097382
 20
193.590762
 30
0.0
 10
212.306863
 20
193.781161
 30
0.0
 10
212.533958
 20
193.950983
 30
0.0
 10
212.777185
 20
194.098748
 30
0.0
 10
213.035060
 20
194.222972
 30
0.0
 10
213.306101
 20
194.322172
 30
0.0
 10
213.588808
 20
194.394863
 30
0.0
 10
213.881715
 20
194.439567
 30
0.0
 10
214.183339
 20
194.454793
 30
0.0
  0
LWPOLYLINE
  5
102
100
AcDbEntity
  8
0
 62
7
100
AcDbPolyline
 90
65
 70
0
 10
214.183339
 20
133.327435
 30
0.0
 10
214.484963
 20
133.312210
 30
0.0
 10
214.777870
 20
133.267506
 30
0.0
 10
215.060577
 20
133.194814
 30
0.0
 10
215.331618
 20
133.095614
 30
0.0
 10
215.589493
 20
132.971391
 30
0.0
 10
215.832720
 20
132.823625
 30
0.0
 10
216.059815
 20
132.653803
 30
0.0
 10
216.269312
 20
132.463404
 30
0.0
 10
216.459695
 20
132.253914
 30
0.0
 10
216.629530
 20
132.026813
 30
0.0
 10
216.777286
 20
131.783585
 30
0.0
 10
216.901511
 20
131.525713
 30
0.0
 10
217.000706
 20
131.254680
 30
0.0
 10
217.073406
 20
130.971968
 30
0.0
 10
217.118110
 20
130.679061
 30
0.0
 10
217.133269
 20
130.377441
 30
0.0
 10
217.118110
 20
130.075820
 30
0.0
 10
217.073406
 20
129.782913
 30
0.0
 10
217.000706
 20
129.500201
 30
0.0
 10
216.901511
 20
129.229167
 30
0.0
 10
216.777286
 20
128.971295
 30
0.0
 10
216.629530
 20
128.728068
 30
0.0
 10
216.459695
 20
128.500966
 30
0.0
 10
216.269312
 20
128.291476
 30
0.0
 10
216.059815
 20
128.101076
 30
0.0
 10
215.832720
 20
127.931254
 30
0.0
 10
215.589493
 20
127.783489
 30
0.0
 10
215.331618
 20
127.659266
 30
0.0
 10
215.060577
 20
127.560065
 30
0.0
 10
214.777870
 20
127.487374
 30
0.0
 10
214.484963
 20
127.442670
 30
0.0
 10
214.183339
 20
127.427445
 30
0.0
 10
213.881715
 20
127.442670
 30
0.0
 10
213.588808
 20
127.487374
 30
0.0
 10
213.306101
 20
127.560065
 30
0.0
 10
213.035060
 20
127.659266
 30
0.0
 10
212.777185
 20
127.783489
 30
0.0
 10
212.533958
 20
127.931254
 30
0.0
 10
212.306863
 20
128.101076
 30
0.0
 10
212.097382
 20
128.291476
 30
0.0
 10
211.906983
 20
128.500966
 30
0.0
 10
211.737148
 20
128.728068
 30
0.0
 10
211.589392
 20
128.971295
 30
0.0
 10
211.465167
 20
129.229167
 30
0.0
 10
211.365972
 20
129.500201
 30
0.0
 10
211.293272
 20
129.782913
 30
0.0
 10
211.248568
 20
130.075820
 30
0.0
 10
211.233409
 20
130.377441
 30
0.0
 10
211.248568
 20
130.679061
 30
0.0
 10
211.293272
 20
130.971968
 30
0.0
 10
211.365972
 20
131.254680
 30
0.0
 10
211.465167
 20
131.525713
 30
0.0
 10
211.589392
 20
131.783585
 30
0.0
 10
211.737148
 20
132.026813
 30
0.0
 10
211.906983
 20
132.253914
 30
0.0
 10
212.097382
 20
132.463404
 30
0.0
 10
212.306863
 20
132.653803
 30
0.0
 10
212.533958
 20
132.823625
 30
0.0
 10
212.777185
 20
132.971391
 30
0.0
 10
213.035060
 20
133.095614
 30
0.0
 10
213.306101
 20
133.194814
 30
0.0
 10
213.588808
 20
133.267506
 30
0.0
 10
213.881715
 20
133.312210
 30
0.0
 10
214.183339
 20
133.327435
 30
0.0
  0
LWPOLYLINE
  5
103
100
AcDbEntity
  8
0
 62
7
100
AcDbPolyline
 90
65
 70
0
 10
214.183339
 20
72.200035
 30
0.0
 10
214.484963
 20
72.184809
 30
0.0
 10
214.777870
 20
72.140106
 30
0.0
 10
215.060577
 20
72.067414
 30
0.0
 10
215.331618
 20
71.968214
 30
0.0
 10
215.589493
 20
71.843990
 30
0.0
 10
215.832720
 20
71.696225
 30
0.0
 10
216.059815
 20
71.526403
 30
0.0
 10
216.269312
 20
71.336004
 30
0.0
 10
216.459695
 20
71.126513
 30
0.0
 10
216.629530
 20
70.899413
 30
0.0
 10
216.777286
 20
70.656185
 30
0.0
 10
216.901511
 20
70.398313
 30
0.0
 10
217.000706
 20
70.127280
 30
0.0
 10
217.073406
 20
69.844568
 30
0.0
 10
217.118110
 20
69.551661
 30
0.0
 10
217.133269
 20
69.250040
 30
0.0
 10
217.118110
 20
68.948420
 30
0.0
 10
217.073406
 20
68.655513
 30
0.0
 10
217.000706
 20
68.372801
 30
0.0
 10
216.901511
 20
68.101767
 30
0.0
 10
216.777286
 20
67.843894
 30
0.0
 10
216.629530
 20
67.600668
 30
0.0
 10
216.459695
 20
67.373566
 30
0.0
 10
216.269312
 20
67.164075
 30
0.0
 10
216.059815
 20
66.973676
 30
0.0
 10
215.832720
 20
66.803854
 30
0.0
 10
215.589493
 20
66.656089
 30
0.0
 10
215.331618
 20
66.531865
 30
0.0
 10
215.060577
 20
66.432665
 30
0.0
 10
214.777870
 20
66.359974
 30
0.0
 10
214.484963
 20
66.315270
 30
0.0
 10
214.183339
 20
66.300045
 30
0.0
 10
213.881715
 20
66.315270
 30
0.0
 10
213.588808
 20
66.359974
 30
0.0
 10
213.306101
 20
66.432665
 30
0.0
 10
213.035060
 20
66.531865
 30
0.0
 10
212.777185
 20
66.656089
 30
0.0
 10
212.533958
 20
66.803854
 30
0.0
 10
212.306863
 20
66.973676
 30
0.0
 10
212.097382
 20
67.164075
 30
0.0
 10
211.906983
 20
67.373566
 30
0.0
 10
211.737148
 20
67.600668
 30
0.0
 10
211.589392
 20
67.843894
 30
0.0
 10
211.465167
 20
68.101767
 30
0.0
 10
211.365972
 20
68.372801
 30
0.0
 10
211.293272
 20
68.655513
 30
0.0
 10
211.248568
 20
68.948420
 30
0.0
 10
211.233409
 20
69.250040
 30
0.0
 10
211.248568
 20
69.551661
 30
0.0
 10
211.293272
 20
69.844568
 30
0.0
 10
211.365972
 20
70.127280
 30
0.0
 10
211.465167
 20
70.398313
 30
0.0
 10
211.589392
 20
70.656185
 30
0.0
 10
211.737148
 20
70.899413
 30
0.0
 10
211.906983
 20
71.126513
 30
0.0
 10
212.097382
 20
71.336004
 30
0.0
 10
212.306863
 20
71.526403
 30
0.0
 10
212.533958
 20
71.696225
 30
0.0
 10
212.777185
 20
71.843990
 30
0.0
 10
213.035060
 20
71.968214
 30
0.0
 10
213.306101
 20
72.067414
 30
0.0
 10
213.588808
 20
72.140106
 30
0.0
 10
213.881715
 20
72.184809
 30
0.0
 10
214.183339
 20
72.200035
 30
0.0
  0
LWPOLYLINE
  5
104
100
AcDbEntity
  8
0
 62
7
100
AcDbPolyline
 90
82
 70
0
 10
7.122856
 20
249.936309
 30
0.0
 10
7.186645
 20
251.200602
 30
0.0
 10
7.373869
 20
252.428407
 30
0.0
 10
7.678317
 20
253.613501
 30
0.0
 10
8.093773
 20
254.749668
 30
0.0
 10
8.614026
 20
255.830687
 30
0.0
 10
9.232860
 20
256.850336
 30
0.0
 10
9.944064
 20
257.802395
 30
0.0
 10
10.741424
 20
258.680648
 30
0.0
 10
11.618727
 20
259.478869
 30
0.0
 10
12.569758
 20
260.190845
 30
0.0
 10
13.588306
 20
260.810348
 30
0.0
 10
14.668156
 20
261.331164
 30
0.0
 10
15.803095
 20
261.747069
 30
0.0
 10
16.986910
 20
262.051846
 30
0.0
 10
18.213388
 20
262.239273
 30
0.0
 10
19.476315
 20
262.303132
 30
0.0
 10
20.739242
 20
262.239273
 30
0.0
 10
21.965719
 20
262.051846
 30
0.0
 10
23.149535
 20
261.747069
 30
0.0
 10
24.284474
 20
261.331164
 30
0.0
 10
25.364324
 20
260.810348
 30
0.0
 10
26.382871
 20
260.190845
 30
0.0
 10
27.333903
 20
259.478869
 30
0.0
 10
28.211205
 20
258.680648
 30
0.0
 10
29.008564
 20
257.802395
 30
0.0
 10
29.719770
 20
256.850336
 30
0.0
 10
30.338604
 20
255.830687
 30
0.0
 10
30.858855
 20
254.749668
 30
0.0
 10
31.274312
 20
253.613501
 30
0.0
 10
31.578759
 20
252.428407
 30
0.0
 10
31.765985
 20
251.200602
 30
0.0
 10
31.829773
 20
249.936309
 30
0.0
 10
31.824241
 20
249.562918
 30
0.0
 10
31.807760
 20
249.192374
 30
0.0
 10
31.780497
 20
248.824822
 30
0.0
 10
31.742597
 20
248.460402
 30
0.0
 10
31.694219
 20
248.099257
 30
0.0
 10
31.635514
 20
247.741529
 30
0.0
 10
31.566640
 20
247.387357
 30
0.0
 10
31.487753
 20
247.036888
 30
0.0
 10
31.399012
 20
246.690260
 30
0.0
 10
31.300564
 20
246.347619
 30
0.0
 10
31.192572
 20
246.009105
 30
0.0
 10
31.075190
 20
245.674858
 30
0.0
 10
30.948571
 20
245.345022
 30
0.0
 10
30.812870
 20
245.019741
 30
0.0
 10
30.668248
 20
244.699156
 30
0.0
 10
30.514857
 20
244.383406
 30
0.0
 10
29.135730
 20
244.383406
 30
0.0
 10
27.756601
 20
244.383406
 30
0.0
 10
26.377473
 20
244.383406
 30
0.0
 10
24.998344
 20
244.383406
 30
0.0
 10
23.619216
 20
244.383406
 30
0.0
 10
22.240088
 20
244.383406
 30
0.0
 10
20.860960
 20
244.383406
 30
0.0
 10
19.481832
 20
244.383406
 30
0.0
 10
18.102704
 20
244.383406
 30
0.0
 10
16.723575
 20
244.383406
 30
0.0
 10
15.344447
 20
244.383406
 30
0.0
 10
13.965319
 20
244.383406
 30
0.0
 10
12.586191
 20
244.383406
 30
0.0
 10
11.207063
 20
244.383406
 30
0.0
 10
9.827935
 20
244.383406
 30
0.0
 10
8.448806
 20
244.383406
 30
0.0
 10
8.295212
 20
244.699218
 30
0.0
 10
8.150180
 20
245.019837
 30
0.0
 10
8.013895
 20
245.345126
 30
0.0
 10
7.886544
 20
245.674945
 30
0.0
 10
7.768313
 20
246.009161
 30
0.0
 10
7.659387
 20
246.347636
 30
0.0
 10
7.559954
 20
246.690228
 30
0.0
 10
7.470197
 20
247.036806
 30
0.0
 10
7.390304
 20
247.387227
 30
0.0
 10
7.320460
 20
247.741357
 30
0.0
 10
7.260851
 20
248.099059
 30
0.0
 10
7.211663
 20
248.460191
 30
0.0
 10
7.173083
 20
248.824622
 30
0.0
 10
7.145295
 20
249.192207
 30
0.0
 10
7.128486
 20
249.562816
 30
0.0
 10
7.122842
 20
249.936309
 30
0.0
 10
7.122856
 20
249.936309
 30
0.0
  0
LWPOLYLINE
  5
105
100
AcDbEntity
  8
0
 62
7
100
AcDbPolyline
 90
82
 70
0
 10
180.868168
 20
249.258947
 30
0.0
 10
180.931955
 20
250.523241
 30
0.0
 10
181.119182
 20
251.751043
 30
0.0
 10
181.423629
 20
252.936139
 30
0.0
 10
181.839085
 20
254.072307
 30
0.0
 10
182.359337
 20
255.153325
 30
0.0
 10
182.978171
 20
256.172974
 30
0.0
 10
183.689377
 20
257.125034
 30
0.0
 10
184.486736
 20
258.003287
 30
0.0
 10
185.364038
 20
258.801507
 30
0.0
 10
186.315071
 20
259.513483
 30
0.0
 10
187.333619
 20
260.132987
 30
0.0
 10
188.413469
 20
260.653802
 30
0.0
 10
189.548406
 20
261.069708
 30
0.0
 10
190.732221
 20
261.374485
 30
0.0
 10
191.958699
 20
261.561912
 30
0.0
 10
193.221627
 20
261.625770
 30
0.0
 10
194.484554
 20
261.561912
 30
0.0
 10
195.711033
 20
261.374485
 30
0.0
 10
196.894848
 20
261.069708
 30
0.0
 10
198.029785
 20
260.653802
 30
0.0
 10
199.109635
 20
260.132987
 30
0.0
 10
200.128183
 20
259.513483
 30
0.0
 10
201.079216
 20
258.801507
 30
0.0
 10
201.956518
 20
258.003287
 30
0.0
 10
202.753877
 20
257.125034
 30
0.0
 10
203.465083
 20
256.172974
 30
0.0
 10
204.083917
 20
255.153325
 30
0.0
 10
204.604168
 20
254.072307
 30
0.0
 10
205.019625
 20
252.936139
 30
0.0
 10
205.324072
 20
251.751046
 30
0.0
 10
205.511298
 20
250.523241
 30
0.0
 10
205.575086
 20
249.258947
 30
0.0
 10
205.569555
 20
248.885556
 30
0.0
 10
205.553073
 20
248.515012
 30
0.0
 10
205.525810
 20
248.147460
 30
0.0
 10
205.487911
 20
247.783041
 30
0.0
 10
205.439532
 20
247.421895
 30
0.0
 10
205.380827
 20
247.064167
 30
0.0
 10
205.311954
 20
246.709995
 30
0.0
 10
205.233070
 20
246.359526
 30
0.0
 10
205.144325
 20
246.012898
 30
0.0
 10
205.045877
 20
245.670258
 30
0.0
 10
204.937885
 20
245.331743
 30
0.0
 10
204.820503
 20
244.997496
 30
0.0
 10
204.693884
 20
244.667660
 30
0.0
 10
204.558183
 20
244.342379
 30
0.0
 10
204.413561
 20
244.021795
 30
0.0
 10
204.260171
 20
243.706045
 30
0.0
 10
202.881044
 20
243.706045
 30
0.0
 10
201.501914
 20
243.706045
 30
0.0
 10
200.122787
 20
243.706045
 30
0.0
 10
198.743657
 20
243.706045
 30
0.0
 10
197.364528
 20
243.706045
 30
0.0
 10
195.985401
 20
243.706045
 30
0.0
 10
194.606274
 20
243.706045
 30
0.0
 10
193.227144
 20
243.706045
 30
0.0
 10
191.848018
 20
243.706045
 30
0.0
 10
190.468888
 20
243.706045
 30
0.0
 10
189.089761
 20
243.706045
 30
0.0
 10
187.710631
 20
243.706045
 30
0.0
 10
186.331502
 20
243.706045
 30
0.0
 10
184.952375
 20
243.706045
 30
0.0
 10
183.573248
 20
243.706045
 30
0.0
 10
182.194118
 20
243.706045
 30
0.0
 10
182.040524
 20
244.021857
 30
0.0
 10
181.895490
 20
244.342475
 30
0.0
 10
181.759208
 20
244.667765
 30
0.0
 10
181.631855
 20
244.997584
 30
0.0
 10
181.513624
 20
245.331800
 30
0.0
 10
181.404700
 20
245.670275
 30
0.0
 10
181.305265
 20
246.012867
 30
0.0
 10
181.215510
 20
246.359444
 30
0.0
 10
181.135615
 20
246.709865
 30
0.0
 10
181.065771
 20
247.063995
 30
0.0
 10
181.006163
 20
247.421698
 30
0.0
 10
180.956974
 20
247.782829
 30
0.0
 10
180.918395
 20
248.147260
 30
0.0
 10
180.890596
 20
248.514846
 30
0.0
 10
180.873775
 20
248.885455
 30
0.0
 10
180.868131
 20
249.258947
 30
0.0
 10
180.868168
 20
249.258947
 30
0.0
  0
LWPOLYLINE
  5
106
100
AcDbEntity
  8
0
 62
7
100
AcDbPolyline
 90
82
 70
0
 10
180.868168
 20
188.131561
 30
0.0
 10
180.931955
 20
189.395855
 30
0.0
 10
181.119182
 20
190.623657
 30
0.0
 10
181.423629
 20
191.808753
 30
0.0
 10
181.839085
 20
192.944921
 30
0.0
 10
182.359337
 20
194.025939
 30
0.0
 10
182.978171
 20
195.045588
 30
0.0
 10
183.689377
 20
195.997648
 30
0.0
 10
184.486736
 20
196.875901
 30
0.0
 10
185.364038
 20
197.674121
 30
0.0
 10
186.315071
 20
198.386097
 30
0.0
 10
187.333619
 20
199.005601
 30
0.0
 10
188.413469
 20
199.526416
 30
0.0
 10
189.548406
 20
199.942322
 30
0.0
 10
190.732221
 20
200.247099
 30
0.0
 10
191.958699
 20
200.434526
 30
0.0
 10
193.221627
 20
200.498384
 30
0.0
 10
194.484554
 20
200.434526
 30
0.0
 10
195.711033
 20
200.247099
 30
0.0
 10
196.894848
 20
199.942322
 30
0.0
 10
198.029785
 20
199.526416
 30
0.0
 10
199.109635
 20
199.005601
 30
0.0
 10
200.128183
 20
198.386097
 30
0.0
 10
201.079216
 20
197.674121
 30
0.0
 10
201.956518
 20
196.875901
 30
0.0
 10
202.753877
 20
195.997648
 30
0.0
 10
203.465083
 20
195.045588
 30
0.0
 10
204.083917
 20
194.025939
 30
0.0
 10
204.604168
 20
192.944921
 30
0.0
 10
205.019625
 20
191.808753
 30
0.0
 10
205.324072
 20
190.623657
 30
0.0
 10
205.511298
 20
189.395855
 30
0.0
 10
205.575086
 20
188.131561
 30
0.0
 10
205.569555
 20
187.758170
 30
0.0
 10
205.553073
 20
187.387626
 30
0.0
 10
205.525810
 20
187.020074
 30
0.0
 10
205.487911
 20
186.655655
 30
0.0
 10
205.439532
 20
186.294509
 30
0.0
 10
205.380827
 20
185.936781
 30
0.0
 10
205.311954
 20
185.582609
 30
0.0
 10
205.233070
 20
185.232140
 30
0.0
 10
205.144325
 20
184.885512
 30
0.0
 10
205.045877
 20
184.542872
 30
0.0
 10
204.937885
 20
184.204357
 30
0.0
 10
204.820503
 20
183.870110
 30
0.0
 10
204.693884
 20
183.540274
 30
0.0
 10
204.558183
 20
183.214993
 30
0.0
 10
204.413561
 20
182.894409
 30
0.0
 10
204.260171
 20
182.578659
 30
0.0
 10
202.881044
 20
182.578659
 30
0.0
 10
201.501914
 20
182.578659
 30
0.0
 10
200.122787
 20
182.578659
 30
0.0
 10
198.743657
 20
182.578659
 30
0.0
 10
197.364528
 20
182.578659
 30
0.0
 10
195.985401
 20
182.578659
 30
0.0
 10
194.606274
 20
182.578659
 30
0.0
 10
193.227144
 20
182.578659
 30
0.0
 10
191.848018
 20
182.578659
 30
0.0
 10
190.468888
 20
182.578659
 30
0.0
 10
189.089761
 20
182.578659
 30
0.0
 10
187.710631
 20
182.578659
 30
0.0
 10
186.331502
 20
182.578659
 30
0.0
 10
184.952375
 20
182.578659
 30
0.0
 10
183.573248
 20
182.578659
 30
0.0
 10
182.194118
 20
182.578659
 30
0.0
 10
182.040524
 20
182.894471
 30
0.0
 10
181.895490
 20
183.215089
 30
0.0
 10
181.759208
 20
183.540379
 30
0.0
 10
181.631855
 20
183.870198
 30
0.0
 10
181.513624
 20
184.204414
 30
0.0
 10
181.404700
 20
184.542889
 30
0.0
 10
181.305265
 20
184.885481
 30
0.0
 10
181.215510
 20
185.232058
 30
0.0
 10
181.135615
 20
185.582479
 30
0.0
 10
181.065771
 20
185.936609
 30
0.0
 10
181.006163
 20
186.294312
 30
0.0
 10
180.956974
 20
186.655443
 30
0.0
 10
180.918395
 20
187.019874
 30
0.0
 10
180.890596
 20
187.387460
 30
0.0
 10
180.873775
 20
187.758069
 30
0.0
 10
180.868131
 20
188.131561
 30
0.0
 10
180.868168
 20
188.131561
 30
0.0
  0
LWPOLYLINE
  5
107
100
AcDbEntity
  8
0
 62
7
100
AcDbPolyline
 90
82
 70
0
 10
180.868168
 20
127.004175
 30
0.0
 10
180.931955
 20
128.268469
 30
0.0
 10
181.119182
 20
129.496274
 30
0.0
 10
181.423629
 20
130.681367
 30
0.0
 10
181.839085
 20
131.817535
 30
0.0
 10
182.359337
 20
132.898553
 30
0.0
 10
182.978171
 20
133.918202
 30
0.0
 10
183.689377
 20
134.870262
 30
0.0
 10
184.486736
 20
135.748515
 30
0.0
 10
185.364038
 20
136.546735
 30
0.0
 10
186.315071
 20
137.258711
 30
0.0
 10
187.333619
 20
137.878215
 30
0.0
 10
188.413469
 20
138.399030
 30
0.0
 10
189.548406
 20
138.814936
 30
0.0
 10
190.732221
 20
139.119713
 30
0.0
 10
191.958699
 20
139.307140
 30
0.0
 10
193.221627
 20
139.370998
 30
0.0
 10
194.484554
 20
139.307140
 30
0.0
 10
195.711033
 20
139.119713
 30
0.0
 10
196.894848
 20
138.814936
 30
0.0
 10
198.029785
 20
138.399030
 30
0.0
 10
199.109635
 20
137.878215
 30
0.0
 10
200.128183
 20
137.258711
 30
0.0
 10
201.079216
 20
136.546735
 30
0.0
 10
201.956518
 20
135.748515
 30
0.0
 10
202.753877
 20
134.870262
 30
0.0
 10
203.465083
 20
133.918202
 30
0.0
 10
204.083917
 20
132.898553
 30
0.0
 10
204.604168
 20
131.817535
 30
0.0
 10
205.019625
 20
130.681367
 30
0.0
 10
205.324072
 20
129.496274
 30
0.0
 10
205.511298
 20
128.268469
 30
0.0
 10
205.575086
 20
127.004175
 30
0.0
 10
205.569555
 20
126.630784
 30
0.0
 10
205.553073
 20
126.260240
 30
0.0
 10
205.525810
 20
125.892688
 30
0.0
 10
205.487911
 20
125.528269
 30
0.0
 10
205.439532
 20
125.167123
 30
0.0
 10
205.380827
 20
124.809395
 30
0.0
 10
205.311954
 20
124.455223
 30
0.0
 10
205.233070
 20
124.104754
 30
0.0
 10
205.144325
 20
123.758126
 30
0.0
 10
205.045877
 20
123.415486
 30
0.0
 10
204.937885
 20
123.076971
 30
0.0
 10
204.820503
 20
122.742724
 30
0.0
 10
204.693884
 20
122.412888
 30
0.0
 10
204.558183
 20
122.087607
 30
0.0
 10
204.413561
 20
121.767023
 30
0.0
 10
204.260171
 20
121.451273
 30
0.0
 10
202.881044
 20
121.451273
 30
0.0
 10
201.501914
 20
121.451273
 30
0.0
 10
200.122787
 20
121.451273
 30
0.0
 10
198.743657
 20
121.451273
 30
0.0
 10
197.364528
 20
121.451273
 30
0.0
 10
195.985401
 20
121.451273
 30
0.0
 10
194.606274
 20
121.451273
 30
0.0
 10
193.227144
 20
121.451273
 30
0.0
 10
191.848018
 20
121.451273
 30
0.0
 10
190.468888
 20
121.451273
 30
0.0
 10
189.089761
 20
121.451273
 30
0.0
 10
187.710631
 20
121.451273
 30
0.0
 10
186.331502
 20
121.451273
 30
0.0
 10
184.952375
 20
121.451273
 30
0.0
 10
183.573248
 20
121.451273
 30
0.0
 10
182.194118
 20
121.451273
 30
0.0
 10
182.040524
 20
121.767085
 30
0.0
 10
181.895490
 20
122.087703
 30
0.0
 10
181.759208
 20
122.412993
 30
0.0
 10
181.631855
 20
122.742812
 30
0.0
 10
181.513624
 20
123.077028
 30
0.0
 10
181.404700
 20
123.415503
 30
0.0
 10
181.305265
 20
123.758095
 30
0.0
 10
181.215510
 20
124.104672
 30
0.0
 10
181.135615
 20
124.455093
 30
0.0
 10
181.065771
 20
124.809223
 30
0.0
 10
181.006163
 20
125.166926
 30
0.0
 10
180.956974
 20
125.528057
 30
0.0
 10
180.918395
 20
125.892488
 30
0.0
 10
180.890596
 20
126.260074
 30
0.0
 10
180.873775
 20
126.630683
 30
0.0
 10
180.868131
 20
127.004175
 30
0.0
 10
180.868168
 20
127.004175
 30
0.0
  0
LWPOLYLINE
  5
108
100
AcDbEntity
  8
0
 62
7
100
AcDbPolyline
 90
82
 70
0
 10
180.868168
 20
65.876801
 30
0.0
 10
180.931955
 20
67.141097
 30
0.0
 10
181.119182
 20
68.368902
 30
0.0
 10
181.423629
 20
69.554001
 30
0.0
 10
181.839085
 20
70.690168
 30
0.0
 10
182.359337
 20
71.771190
 30
0.0
 10
182.978171
 20
72.790839
 30
0.0
 10
183.689377
 20
73.742901
 30
0.0
 10
184.486736
 20
74.621154
 30
0.0
 10
185.364038
 20
75.419375
 30
0.0
 10
186.315071
 20
76.131351
 30
0.0
 10
187.333619
 20
76.750854
 30
0.0
 10
188.413469
 20
77.271670
 30
0.0
 10
189.548406
 20
77.687575
 30
0.0
 10
190.732221
 20
77.992352
 30
0.0
 10
191.958699
 20
78.179779
 30
0.0
 10
193.221627
 20
78.243637
 30
0.0
 10
194.484554
 20
78.179779
 30
0.0
 10
195.711033
 20
77.992352
 30
0.0
 10
196.894848
 20
77.687575
 30
0.0
 10
198.029785
 20
77.271670
 30
0.0
 10
199.109635
 20
76.750854
 30
0.0
 10
200.128183
 20
76.131351
 30
0.0
 10
201.079216
 20
75.419375
 30
0.0
 10
201.956518
 20
74.621154
 30
0.0
 10
202.753877
 20
73.742901
 30
0.0
 10
203.465083
 20
72.790839
 30
0.0
 10
204.083917
 20
71.771190
 30
0.0
 10
204.604168
 20
70.690168
 30
0.0
 10
205.019625
 20
69.554001
 30
0.0
 10
205.324072
 20
68.368902
 30
0.0
 10
205.511298
 20
67.141097
 30
0.0
 10
205.575086
 20
65.876801
 30
0.0
 10
205.569555
 20
65.503412
 30
0.0
 10
205.553073
 20
65.132869
 30
0.0
 10
205.525810
 20
64.765319
 30
0.0
 10
205.487911
 20
64.400900
 30
0.0
 10
205.439532
 20
64.039754
 30
0.0
 10
205.380827
 20
63.682026
 30
0.0
 10
205.311954
 20
63.327857
 30
0.0
 10
205.233070
 20
62.977388
 30
0.0
 10
205.144325
 20
62.630760
 30
0.0
 10
205.045877
 20
62.288119
 30
0.0
 10
204.937885
 20
61.949605
 30
0.0
 10
204.820503
 20
61.615358
 30
0.0
 10
204.693884
 20
61.285525
 30
0.0
 10
204.558183
 20
60.960244
 30
0.0
 10
204.413561
 20
60.639657
 30
0.0
 10
204.260171
 20
60.323909
 30
0.0
 10
202.881044
 20
60.323909
 30
0.0
 10
201.501914
 20
60.323909
 30
0.0
 10
200.122787
 20
60.323909
 30
0.0
 10
198.743657
 20
60.323909
 30
0.0
 10
197.364528
 20
60.323909
 30
0.0
 10
195.985401
 20
60.323909
 30
0.0
 10
194.606274
 20
60.323909
 30
0.0
 10
193.227144
 20
60.323909
 30
0.0
 10
191.848018
 20
60.323909
 30
0.0
 10
190.468888
 20
60.323909
 30
0.0
 10
189.089761
 20
60.323909
 30
0.0
 10
187.710631
 20
60.323909
 30
0.0
 10
186.331502
 20
60.323909
 30
0.0
 10
184.952375
 20
60.323909
 30
0.0
 10
183.573248
 20
60.323909
 30
0.0
 10
182.194118
 20
60.323909
 30
0.0
 10
182.040524
 20
60.639721
 30
0.0
 10
181.895490
 20
60.960340
 30
0.0
 10
181.759208
 20
61.285627
 30
0.0
 10
181.631855
 20
61.615446
 30
0.0
 10
181.513624
 20
61.949662
 30
0.0
 10
181.404700
 20
62.288133
 30
0.0
 10
181.305265
 20
62.630726
 30
0.0
 10
181.215510
 20
62.977303
 30
0.0
 10
181.135615
 20
63.327724
 30
0.0
 10
181.065771
 20
63.681851
 30
0.0
 10
181.006163
 20
64.039551
 30
0.0
 10
180.956974
 20
64.400685
 30
0.0
 10
180.918395
 20
64.765113
 30
0.0
 10
180.890596
 20
65.132699
 30
0.0
 10
180.873775
 20
65.503308
 30
0.0
 10
180.868131
 20
65.876801
 30
0.0
 10
180.868168
 20
65.876801
 30
0.0
  0
LWPOLYLINE
  5
109
100
AcDbEntity
  8
0
 62
7
100
AcDbPolyline
 90
82
 70
0
 10
113.777313
 20
249.729694
 30
0.0
 10
113.841101
 20
250.993988
 30
0.0
 10
114.028327
 20
252.221790
 30
0.0
 10
114.332774
 20
253.406886
 30
0.0
 10
114.748231
 20
254.543053
 30
0.0
 10
115.268482
 20
255.624072
 30
0.0
 10
115.887317
 20
256.643721
 30
0.0
 10
116.598522
 20
257.595781
 30
0.0
 10
117.395882
 20
258.474034
 30
0.0
 10
118.273184
 20
259.272254
 30
0.0
 10
119.224216
 20
259.984230
 30
0.0
 10
120.242765
 20
260.603733
 30
0.0
 10
121.322615
 20
261.124549
 30
0.0
 10
122.457551
 20
261.540454
 30
0.0
 10
123.641366
 20
261.845232
 30
0.0
 10
124.867845
 20
262.032658
 30
0.0
 10
126.130772
 20
262.096517
 30
0.0
 10
127.393700
 20
262.032658
 30
0.0
 10
128.620179
 20
261.845232
 30
0.0
 10
129.803993
 20
261.540454
 30
0.0
 10
130.938930
 20
261.124549
 30
0.0
 10
132.018780
 20
260.603733
 30
0.0
 10
133.037329
 20
259.984230
 30
0.0
 10
133.988361
 20
259.272254
 30
0.0
 10
134.865663
 20
258.474034
 30
0.0
 10
135.663023
 20
257.595781
 30
0.0
 10
136.374228
 20
256.643721
 30
0.0
 10
136.993063
 20
255.624072
 30
0.0
 10
137.513314
 20
254.543053
 30
0.0
 10
137.928771
 20
253.406886
 30
0.0
 10
138.233218
 20
252.221790
 30
0.0
 10
138.420444
 20
250.993988
 30
0.0
 10
138.484232
 20
249.729694
 30
0.0
 10
138.478700
 20
249.356303
 30
0.0
 10
138.462218
 20
248.985759
 30
0.0
 10
138.434956
 20
248.618207
 30
0.0
 10
138.397056
 20
248.253788
 30
0.0
 10
138.348678
 20
247.892642
 30
0.0
 10
138.289973
 20
247.534914
 30
0.0
 10
138.221099
 20
247.180742
 30
0.0
 10
138.142215
 20
246.830273
 30
0.0
 10
138.053470
 20
246.483645
 30
0.0
 10
137.955023
 20
246.141004
 30
0.0
 10
137.847030
 20
245.802490
 30
0.0
 10
137.729649
 20
245.468243
 30
0.0
 10
137.603030
 20
245.138407
 30
0.0
 10
137.467329
 20
244.813126
 30
0.0
 10
137.322707
 20
244.492541
 30
0.0
 10
137.169316
 20
244.176791
 30
0.0
 10
135.790186
 20
244.176791
 30
0.0
 10
134.411060
 20
244.176791
 30
0.0
 10
133.031933
 20
244.176791
 30
0.0
 10
131.652803
 20
244.176791
 30
0.0
 10
130.273676
 20
244.176791
 30
0.0
 10
128.894546
 20
244.176791
 30
0.0
 10
127.515417
 20
244.176791
 30
0.0
 10
126.136290
 20
244.176791
 30
0.0
 10
124.757163
 20
244.176791
 30
0.0
 10
123.378033
 20
244.176791
 30
0.0
 10
121.998904
 20
244.176791
 30
0.0
 10
120.619777
 20
244.176791
 30
0.0
 10
119.240650
 20
244.176791
 30
0.0
 10
117.861520
 20
244.176791
 30
0.0
 10
116.482391
 20
244.176791
 30
0.0
 10
115.103264
 20
244.176791
 30
0.0
 10
114.949670
 20
244.492604
 30
0.0
 10
114.804636
 20
244.813222
 30
0.0
 10
114.668354
 20
245.138511
 30
0.0
 10
114.541001
 20
245.468330
 30
0.0
 10
114.422769
 20
245.802546
 30
0.0
 10
114.313846
 20
246.141021
 30
0.0
 10
114.214410
 20
246.483614
 30
0.0
 10
114.124655
 20
246.830191
 30
0.0
 10
114.044761
 20
247.180612
 30
0.0
 10
113.974917
 20
247.534742
 30
0.0
 10
113.915309
 20
247.892444
 30
0.0
 10
113.866120
 20
248.253576
 30
0.0
 10
113.827540
 20
248.618007
 30
0.0
 10
113.799741
 20
248.985593
 30
0.0
 10
113.782921
 20
249.356201
 30
0.0
 10
113.777276
 20
249.729694
 30
0.0
 10
113.777313
 20
249.729694
 30
0.0
  0
LWPOLYLINE
  5
10a
100
AcDbEntity
  8
0
 62
7
100
AcDbPolyline
 90
82
 70
0
 10
113.777313
 20
188.602308
 30
0.0
 10
113.841101
 20
189.866602
 30
0.0
 10
114.028327
 20
191.094404
 30
0.0
 10
114.332774
 20
192.279500
 30
0.0
 10
114.748231
 20
193.415667
 30
0.0
 10
115.268482
 20
194.496686
 30
0.0
 10
115.887317
 20
195.516335
 30
0.0
 10
116.598522
 20
196.468395
 30
0.0
 10
117.395882
 20
197.346648
 30
0.0
 10
118.273184
 20
198.144868
 30
0.0
 10
119.224216
 20
198.856844
 30
0.0
 10
120.242765
 20
199.476347
 30
0.0
 10
121.322615
 20
199.997163
 30
0.0
 10
122.457551
 20
200.413068
 30
0.0
 10
123.641366
 20
200.717846
 30
0.0
 10
124.867845
 20
200.905272
 30
0.0
 10
126.130772
 20
200.969131
 30
0.0
 10
127.393700
 20
200.905272
 30
0.0
 10
128.620179
 20
200.717846
 30
0.0
 10
129.803993
 20
200.413068
 30
0.0
 10
130.938930
 20
199.997163
 30
0.0
 10
132.018780
 20
199.476347
 30
0.0
 10
133.037329
 20
198.856844
 30
0.0
 10
133.988361
 20
198.144868
 30
0.0
 10
134.865663
 20
197.346648
 30
0.0
 10
135.663023
 20
196.468395
 30
0.0
 10
136.374228
 20
195.516335
 30
0.0
 10
136.993063
 20
194.496686
 30
0.0
 10
137.513314
 20
193.415667
 30
0.0
 10
137.928771
 20
192.279500
 30
0.0
 10
138.233218
 20
191.094404
 30
0.0
 10
138.420444
 20
189.866602
 30
0.0
 10
138.484232
 20
188.602308
 30
0.0
 10
138.478700
 20
188.228917
 30
0.0
 10
138.462218
 20
187.858373
 30
0.0
 10
138.434956
 20
187.490821
 30
0.0
 10
138.397056
 20
187.126402
 30
0.0
 10
138.348678
 20
186.765256
 30
0.0
 10
138.289973
 20
186.407528
 30
0.0
 10
138.221099
 20
186.053356
 30
0.0
 10
138.142215
 20
185.702887
 30
0.0
 10
138.053470
 20
185.356259
 30
0.0
 10
137.955023
 20
185.013618
 30
0.0
 10
137.847030
 20
184.675104
 30
0.0
 10
137.729649
 20
184.340857
 30
0.0
 10
137.603030
 20
184.011021
 30
0.0
 10
137.467329
 20
183.685740
 30
0.0
 10
137.322707
 20
183.365155
 30
0.0
 10
137.169316
 20
183.049405
 30
0.0
 10
135.790186
 20
183.049405
 30
0.0
 10
134.411060
 20
183.049405
 30
0.0
 10
133.031933
 20
183.049405
 30
0.0
 10
131.652803
 20
183.049405
 30
0.0
 10
130.273676
 20
183.049405
 30
0.0
 10
128.894546
 20
183.049405
 30
0.0
 10
127.515417
 20
183.049405
 30
0.0
 10
126.136290
 20
183.049405
 30
0.0
 10
124.757163
 20
183.049405
 30
0.0
 10
123.378033
 20
183.049405
 30
0.0
 10
121.998904
 20
183.049405
 30
0.0
 10
120.619777
 20
183.049405
 30
0.0
 10
119.240650
 20
183.049405
 30
0.0
 10
117.861520
 20
183.049405
 30
0.0
 10
116.482391
 20
183.049405
 30
0.0
 10
115.103264
 20
183.049405
 30
0.0
 10
114.949670
 20
183.365218
 30
0.0
 10
114.804636
 20
183.685836
 30
0.0
 10
114.668354
 20
184.011125
 30
0.0
 10
114.541001
 20
184.340944
 30
0.0
 10
114.422769
 20
184.675160
 30
0.0
 10
114.313846
 20
185.013635
 30
0.0
 10
114.214410
 20
185.356228
 30
0.0
 10
114.124655
 20
185.702805
 30
0.0
 10
114.044761
 20
186.053226
 30
0.0
 10
113.974917
 20
186.407356
 30
0.0
 10
113.915309
 20
186.765058
 30
0.0
 10
113.866120
 20
187.126190
 30
0.0
 10
113.827540
 20
187.490621
 30
0.0
 10
113.799741
 20
187.858207
 30
0.0
 10
113.782921
 20
188.228815
 30
0.0
 10
113.777276
 20
188.602308
 30
0.0
 10
113.777313
 20
188.602308
 30
0.0
  0
LWPOLYLINE
  5
10b
100
AcDbEntity
  8
0
 62
7
100
AcDbPolyline
 90
82
 70
0
 10
113.777313
 20
127.474922
 30
0.0
 10
113.841101
 20
128.739216
 30
0.0
 10
114.028327
 20
129.967020
 30
0.0
 10
114.332774
 20
131.152114
 30
0.0
 10
114.748231
 20
132.288281
 30
0.0
 10
115.268482
 20
133.369300
 30
0.0
 10
115.887317
 20
134.388949
 30
0.0
 10
116.598522
 20
135.341009
 30
0.0
 10
117.395882
 20
136.219262
 30
0.0
 10
118.273184
 20
137.017482
 30
0.0
 10
119.224216
 20
137.729458
 30
0.0
 10
120.242765
 20
138.348961
 30
0.0
 10
121.322615
 20
138.869777
 30
0.0
 10
122.457551
 20
139.285682
 30
0.0
 10
123.641366
 20
139.590460
 30
0.0
 10
124.867845
 20
139.777886
 30
0.0
 10
126.130772
 20
139.841745
 30
0.0
 10
127.393700
 20
139.777886
 30
0.0
 10
128.620179
 20
139.590460
 30
0.0
 10
129.803993
 20
139.285682
 30
0.0
 10
130.938930
 20
138.869777
 30
0.0
 10
132.018780
 20
138.348961
 30
0.0
 10
133.037329
 20
137.729458
 30
0.0
 10
133.988361
 20
137.017482
 30
0.0
 10
134.865663
 20
136.219262
 30
0.0
 10
135.663023
 20
135.341009
 30
0.0
 10
136.374228
 20
134.388949
 30
0.0
 10
136.993063
 20
133.369300
 30
0.0
 10
137.513314
 20
132.288281
 30
0.0
 10
137.928771
 20
131.152114
 30
0.0
 10
138.233218
 20
129.967018
 30
0.0
 10
138.420444
 20
128.739216
 30
0.0
 10
138.484232
 20
127.474922
 30
0.0
 10
138.478700
 20
127.101531
 30
0.0
 10
138.462218
 20
126.730987
 30
0.0
 10
138.434956
 20
126.363435
 30
0.0
 10
138.397056
 20
125.999016
 30
0.0
 10
138.348678
 20
125.637870
 30
0.0
 10
138.289973
 20
125.280142
 30
0.0
 10
138.221099
 20
124.925970
 30
0.0
 10
138.142215
 20
124.575501
 30
0.0
 10
138.053470
 20
124.228873
 30
0.0
 10
137.955023
 20
123.886232
 30
0.0
 10
137.847030
 20
123.547718
 30
0.0
 10
137.729649
 20
123.213471
 30
0.0
 10
137.603030
 20
122.883635
 30
0.0
 10
137.467329
 20
122.558354
 30
0.0
 10
137.322707
 20
122.237769
 30
0.0
 10
137.169316
 20
121.922019
 30
0.0
 10
135.790186
 20
121.922019
 30
0.0
 10
134.411060
 20
121.922019
 30
0.0
 10
133.031933
 20
121.922019
 30
0.0
 10
131.652803
 20
121.922019
 30
0.0
 10
130.273676
 20
121.922019
 30
0.0
 10
128.894546
 20
121.922019
 30
0.0
 10
127.515417
 20
121.922019
 30
0.0
 10
126.136290
 20
121.922019
 30
0.0
 10
124.757163
 20
121.922019
 30
0.0
 10
123.378033
 20
121.922019
 30
0.0
 10
121.998904
 20
121.922019
 30
0.0
 10
120.619777
 20
121.922019
 30
0.0
 10
119.240650
 20
121.922019
 30
0.0
 10
117.861520
 20
121.922019
 30
0.0
 10
116.482391
 20
121.922019
 30
0.0
 10
115.103264
 20
121.922019
 30
0.0
 10
114.949670
 20
122.237832
 30
0.0
 10
114.804636
 20
122.558450
 30
0.0
 10
114.668354
 20
122.883739
 30
0.0
 10
114.541001
 20
123.213558
 30
0.0
 10
114.422769
 20
123.547774
 30
0.0
 10
114.313846
 20
123.886249
 30
0.0
 10
114.214410
 20
124.228842
 30
0.0
 10
114.124655
 20
124.575419
 30
0.0
 10
114.044761
 20
124.925840
 30
0.0
 10
113.974917
 20
125.279970
 30
0.0
 10
113.915309
 20
125.637672
 30
0.0
 10
113.866120
 20
125.998804
 30
0.0
 10
113.827540
 20
126.363235
 30
0.0
 10
113.799741
 20
126.730821
 30
0.0
 10
113.782921
 20
127.101429
 30
0.0
 10
113.777276
 20
127.474922
 30
0.0
 10
113.777313
 20
127.474922
 30
0.0
  0
LWPOLYLINE
  5
10c
100
AcDbEntity
  8
0
 62
7
100
AcDbPolyline
 90
82
 70
0
 10
113.777313
 20
66.347547
 30
0.0
 10
113.841101
 20
67.611844
 30
0.0
 10
114.028327
 20
68.839649
 30
0.0
 10
114.332774
 20
70.024748
 30
0.0
 10
114.748231
 20
71.160915
 30
0.0
 10
115.268482
 20
72.241936
 30
0.0
 10
115.887317
 20
73.261585
 30
0.0
 10
116.598522
 20
74.213648
 30
0.0
 10
117.395882
 20
75.091901
 30
0.0
 10
118.273184
 20
75.890121
 30
0.0
 10
119.224216
 20
76.602097
 30
0.0
 10
120.242765
 20
77.221601
 30
0.0
 10
121.322615
 20
77.742416
 30
0.0
 10
122.457551
 20
78.158322
 30
0.0
 10
123.641366
 20
78.463099
 30
0.0
 10
124.867845
 20
78.650526
 30
0.0
 10
126.130772
 20
78.714384
 30
0.0
 10
127.393700
 20
78.650526
 30
0.0
 10
128.620179
 20
78.463099
 30
0.0
 10
129.803993
 20
78.158322
 30
0.0
 10
130.938930
 20
77.742416
 30
0.0
 10
132.018780
 20
77.221601
 30
0.0
 10
133.037329
 20
76.602097
 30
0.0
 10
133.988361
 20
75.890121
 30
0.0
 10
134.865663
 20
75.091898
 30
0.0
 10
135.663023
 20
74.213648
 30
0.0
 10
136.374228
 20
73.261585
 30
0.0
 10
136.993063
 20
72.241936
 30
0.0
 10
137.513314
 20
71.160915
 30
0.0
 10
137.928771
 20
70.024748
 30
0.0
 10
138.233218
 20
68.839649
 30
0.0
 10
138.420444
 20
67.611844
 30
0.0
 10
138.484232
 20
66.347547
 30
0.0
 10
138.478700
 20
65.974159
 30
0.0
 10
138.462218
 20
65.603615
 30
0.0
 10
138.434956
 20
65.236066
 30
0.0
 10
138.397056
 20
64.871646
 30
0.0
 10
138.348678
 20
64.510501
 30
0.0
 10
138.289973
 20
64.152773
 30
0.0
 10
138.221099
 20
63.798604
 30
0.0
 10
138.142215
 20
63.448135
 30
0.0
 10
138.053470
 20
63.101506
 30
0.0
 10
137.955023
 20
62.758866
 30
0.0
 10
137.847030
 20
62.420352
 30
0.0
 10
137.729649
 20
62.086105
 30
0.0
 10
137.603030
 20
61.756272
 30
0.0
 10
137.467329
 20
61.430991
 30
0.0
 10
137.322707
 20
61.110403
 30
0.0
 10
137.169316
 20
60.794656
 30
0.0
 10
135.790186
 20
60.794656
 30
0.0
 10
134.411060
 20
60.794656
 30
0.0
 10
133.031933
 20
60.794656
 30
0.0
 10
131.652803
 20
60.794656
 30
0.0
 10
130.273676
 20
60.794656
 30
0.0
 10
128.894546
 20
60.794656
 30
0.0
 10
127.515417
 20
60.794656
 30
0.0
 10
126.136290
 20
60.794656
 30
0.0
 10
124.757163
 20
60.794656
 30
0.0
 10
123.378033
 20
60.794656
 30
0.0
 10
121.998904
 20
60.794656
 30
0.0
 10
120.619777
 20
60.794656
 30
0.0
 10
119.240650
 20
60.794656
 30
0.0
 10
117.861520
 20
60.794656
 30
0.0
 10
116.482391
 20
60.794656
 30
0.0
 10
115.103264
 20
60.794656
 30
0.0
 10
114.949670
 20
61.110468
 30
0.0
 10
114.804636
 20
61.431087
 30
0.0
 10
114.668354
 20
61.756373
 30
0.0
 10
114.541001
 20
62.086192
 30
0.0
 10
114.422769
 20
62.420408
 30
0.0
 10
114.313846
 20
62.758880
 30
0.0
 10
114.214410
 20
63.101473
 30
0.0
 10
114.124655
 20
63.448050
 30
0.0
 10
114.044761
 20
63.798471
 30
0.0
 10
113.974917
 20
64.152598
 30
0.0
 10
113.915309
 20
64.510298
 30
0.0
 10
113.866120
 20
64.871432
 30
0.0
 10
113.827540
 20
65.235860
 30
0.0
 10
113.799741
 20
65.603446
 30
0.0
 10
113.782921
 20
65.974054
 30
0.0
 10
113.777276
 20
66.347547
 30
0.0
 10
113.777313
 20
66.347547
 30
0.0
  0
LWPOLYLINE
  5
10d
100
AcDbEntity
  8
0
 62
7
100
AcDbPolyline
 90
82
 70
0
 10
60.696845
 20
254.659783
 30
0.0
 10
60.760633
 20
253.395490
 30
0.0
 10
60.947859
 20
252.167688
 30
0.0
 10
61.252306
 20
250.982591
 30
0.0
 10
61.667763
 20
249.846424
 30
0.0
 10
62.188014
 20
248.765406
 30
0.0
 10
62.806848
 20
247.745757
 30
0.0
 10
63.518054
 20
246.793697
 30
0.0
 10
64.315413
 20
245.915444
 30
0.0
 10
65.192715
 20
245.117223
 30
0.0
 10
66.143748
 20
244.405247
 30
0.0
 10
67.162296
 20
243.785744
 30
0.0
 10
68.242146
 20
243.264928
 30
0.0
 10
69.377083
 20
242.849023
 30
0.0
 10
70.560898
 20
242.544246
 30
0.0
 10
71.787377
 20
242.356819
 30
0.0
 10
73.050304
 20
242.292961
 30
0.0
 10
74.313232
 20
242.356819
 30
0.0
 10
75.539710
 20
242.544246
 30
0.0
 10
76.723525
 20
242.849023
 30
0.0
 10
77.858462
 20
243.264928
 30
0.0
 10
78.938312
 20
243.785744
 30
0.0
 10
79.956860
 20
244.405247
 30
0.0
 10
80.907893
 20
245.117223
 30
0.0
 10
81.785195
 20
245.915444
 30
0.0
 10
82.582554
 20
246.793697
 30
0.0
 10
83.293760
 20
247.745757
 30
0.0
 10
83.912594
 20
248.765406
 30
0.0
 10
84.432846
 20
249.846424
 30
0.0
 10
84.848302
 20
250.982591
 30
0.0
 10
85.152749
 20
252.167685
 30
0.0
 10
85.339976
 20
253.395490
 30
0.0
 10
85.403763
 20
254.659783
 30
0.0
 10
85.398232
 20
255.033175
 30
0.0
 10
85.381750
 20
255.403718
 30
0.0
 10
85.354487
 20
255.771270
 30
0.0
 10
85.316588
 20
256.135690
 30
0.0
 10
85.268209
 20
256.496835
 30
0.0
 10
85.209504
 20
256.854563
 30
0.0
 10
85.140631
 20
257.208735
 30
0.0
 10
85.061747
 20
257.559205
 30
0.0
 10
84.973002
 20
257.905833
 30
0.0
 10
84.874554
 20
258.248473
 30
0.0
 10
84.766562
 20
258.586987
 30
0.0
 10
84.649177
 20
258.921234
 30
0.0
 10
84.522561
 20
259.251070
 30
0.0
 10
84.386860
 20
259.576351
 30
0.0
 10
84.242238
 20
259.896936
 30
0.0
 10
84.088848
 20
260.212686
 30
0.0
 10
82.709718
 20
260.212686
 30
0.0
 10
81.330591
 20
260.212686
 30
0.0
 10
79.951461
 20
260.212686
 30
0.0
 10
78.572335
 20
260.212686
 30
0.0
 10
77.193205
 20
260.212686
 30
0.0
 10
75.814078
 20
260.212686
 30
0.0
 10
74.434948
 20
260.212686
 30
0.0
 10
73.055821
 20
260.212686
 30
0.0
 10
71.676692
 20
260.212686
 30
0.0
 10
70.297565
 20
260.212686
 30
0.0
 10
68.918435
 20
260.212686
 30
0.0
 10
67.539308
 20
260.212686
 30
0.0
 10
66.160179
 20
260.212686
 30
0.0
 10
64.781052
 20
260.212686
 30
0.0
 10
63.401922
 20
260.212686
 30
0.0
 10
62.022795
 20
260.212686
 30
0.0
 10
61.869201
 20
259.896874
 30
0.0
 10
61.724167
 20
259.576255
 30
0.0
 10
61.587885
 20
259.250966
 30
0.0
 10
61.460532
 20
258.921147
 30
0.0
 10
61.342301
 20
258.586931
 30
0.0
 10
61.233377
 20
258.248456
 30
0.0
 10
61.133942
 20
257.905864
 30
0.0
 10
61.044187
 20
257.559286
 30
0.0
 10
60.964293
 20
257.208865
 30
0.0
 10
60.894448
 20
256.854736
 30
0.0
 10
60.834840
 20
256.497033
 30
0.0
 10
60.785652
 20
256.135901
 30
0.0
 10
60.747072
 20
255.771471
 30
0.0
 10
60.719273
 20
255.403885
 30
0.0
 10
60.702452
 20
255.033276
 30
0.0
 10
60.696808
 20
254.659783
 30
0.0
 10
60.696845
 20
254.659783
 30
0.0
  0
LWPOLYLINE
  5
10e
100
AcDbEntity
  8
0
 62
7
100
AcDbPolyline
 90
82
 70
0
 10
60.445639
 20
193.615963
 30
0.0
 10
60.509427
 20
192.351670
 30
0.0
 10
60.696653
 20
191.123868
 30
0.0
 10
61.001100
 20
189.938771
 30
0.0
 10
61.416557
 20
188.802604
 30
0.0
 10
61.936808
 20
187.721586
 30
0.0
 10
62.555642
 20
186.701937
 30
0.0
 10
63.266848
 20
185.749877
 30
0.0
 10
64.064207
 20
184.871624
 30
0.0
 10
64.941509
 20
184.073403
 30
0.0
 10
65.892542
 20
183.361427
 30
0.0
 10
66.911090
 20
182.741924
 30
0.0
 10
67.990940
 20
182.221108
 30
0.0
 10
69.125877
 20
181.805203
 30
0.0
 10
70.309692
 20
181.500426
 30
0.0
 10
71.536171
 20
181.312999
 30
0.0
 10
72.799098
 20
181.249141
 30
0.0
 10
74.062026
 20
181.312999
 30
0.0
 10
75.288504
 20
181.500426
 30
0.0
 10
76.472319
 20
181.805203
 30
0.0
 10
77.607256
 20
182.221108
 30
0.0
 10
78.687106
 20
182.741924
 30
0.0
 10
79.705654
 20
183.361427
 30
0.0
 10
80.656687
 20
184.073403
 30
0.0
 10
81.533989
 20
184.871624
 30
0.0
 10
82.331348
 20
185.749877
 30
0.0
 10
83.042554
 20
186.701937
 30
0.0
 10
83.661388
 20
187.721586
 30
0.0
 10
84.181640
 20
188.802604
 30
0.0
 10
84.597096
 20
189.938771
 30
0.0
 10
84.901543
 20
191.123865
 30
0.0
 10
85.088770
 20
192.351670
 30
0.0
 10
85.152557
 20
193.615963
 30
0.0
 10
85.147026
 20
193.989355
 30
0.0
 10
85.130544
 20
194.359898
 30
0.0
 10
85.103281
 20
194.727450
 30
0.0
 10
85.065382
 20
195.091870
 30
0.0
 10
85.017003
 20
195.453015
 30
0.0
 10
84.958298
 20
195.810743
 30
0.0
 10
84.889425
 20
196.164915
 30
0.0
 10
84.810541
 20
196.515385
 30
0.0
 10
84.721796
 20
196.862013
 30
0.0
 10
84.623348
 20
197.204653
 30
0.0
 10
84.515356
 20
197.543167
 30
0.0
 10
84.397974
 20
197.877414
 30
0.0
 10
84.271355
 20
198.207250
 30
0.0
 10
84.135654
 20
198.532531
 30
0.0
 10
83.991032
 20
198.853116
 30
0.0
 10
83.837642
 20
199.168866
 30
0.0
 10
82.458512
 20
199.168866
 30
0.0
 10
81.079385
 20
199.168866
 30
0.0
 10
79.700255
 20
199.168866
 30
0.0
 10
78.321129
 20
199.168866
 30
0.0
 10
76.941999
 20
199.168866
 30
0.0
 10
75.562872
 20
199.168866
 30
0.0
 10
74.183742
 20
199.168866
 30
0.0
 10
72.804615
 20
199.168866
 30
0.0
 10
71.425486
 20
199.168866
 30
0.0
 10
70.046359
 20
199.168866
 30
0.0
 10
68.667229
 20
199.168866
 30
0.0
 10
67.288102
 20
199.168866
 30
0.0
 10
65.908973
 20
199.168866
 30
0.0
 10
64.529846
 20
199.168866
 30
0.0
 10
63.150716
 20
199.168866
 30
0.0
 10
61.771589
 20
199.168866
 30
0.0
 10
61.617995
 20
198.853054
 30
0.0
 10
61.472961
 20
198.532435
 30
0.0
 10
61.336679
 20
198.207146
 30
0.0
 10
61.209326
 20
197.877327
 30
0.0
 10
61.091095
 20
197.543111
 30
0.0
 10
60.982171
 20
197.204636
 30
0.0
 10
60.882736
 20
196.862044
 30
0.0
 10
60.792981
 20
196.515466
 30
0.0
 10
60.713087
 20
196.165045
 30
0.0
 10
60.643242
 20
195.810916
 30
0.0
 10
60.583634
 20
195.453213
 30
0.0
 10
60.534446
 20
195.092081
 30
0.0
 10
60.495866
 20
194.727651
 30
0.0
 10
60.468067
 20
194.360065
 30
0.0
 10
60.451246
 20
193.989456
 30
0.0
 10
60.445602
 20
193.615963
 30
0.0
 10
60.445639
 20
193.615963
 30
0.0
  0
LWPOLYLINE
  5
10f
100
AcDbEntity
  8
0
 62
7
100
AcDbPolyline
 90
82
 70
0
 10
60.571256
 20
132.320965
 30
0.0
 10
60.635044
 20
131.056672
 30
0.0
 10
60.822270
 20
129.828867
 30
0.0
 10
61.126717
 20
128.643774
 30
0.0
 10
61.542174
 20
127.507606
 30
0.0
 10
62.062425
 20
126.426588
 30
0.0
 10
62.681259
 20
125.406939
 30
0.0
 10
63.392465
 20
124.454879
 30
0.0
 10
64.189824
 20
123.576626
 30
0.0
 10
65.067126
 20
122.778406
 30
0.0
 10
66.018159
 20
122.066430
 30
0.0
 10
67.036707
 20
121.446926
 30
0.0
 10
68.116557
 20
120.926111
 30
0.0
 10
69.251494
 20
120.510205
 30
0.0
 10
70.435309
 20
120.205428
 30
0.0
 10
71.661788
 20
120.018001
 30
0.0
 10
72.924715
 20
119.954143
 30
0.0
 10
74.187643
 20
120.018001
 30
0.0
 10
75.414121
 20
120.205428
 30
0.0
 10
76.597936
 20
120.510205
 30
0.0
 10
77.732873
 20
120.926111
 30
0.0
 10
78.812723
 20
121.446926
 30
0.0
 10
79.831271
 20
122.066430
 30
0.0
 10
80.782304
 20
122.778406
 30
0.0
 10
81.659606
 20
123.576626
 30
0.0
 10
82.456965
 20
124.454879
 30
0.0
 10
83.168171
 20
125.406939
 30
0.0
 10
83.787005
 20
126.426588
 30
0.0
 10
84.307257
 20
127.507606
 30
0.0
 10
84.722713
 20
128.643774
 30
0.0
 10
85.027160
 20
129.828870
 30
0.0
 10
85.214387
 20
131.056672
 30
0.0
 10
85.278174
 20
132.320965
 30
0.0
 10
85.272643
 20
132.694357
 30
0.0
 10
85.256161
 20
133.064900
 30
0.0
 10
85.228898
 20
133.432453
 30
0.0
 10
85.190999
 20
133.796872
 30
0.0
 10
85.142620
 20
134.158018
 30
0.0
 10
85.083915
 20
134.515746
 30
0.0
 10
85.015042
 20
134.869918
 30
0.0
 10
84.936155
 20
135.220387
 30
0.0
 10
84.847413
 20
135.567015
 30
0.0
 10
84.748965
 20
135.909655
 30
0.0
 10
84.640973
 20
136.248170
 30
0.0
 10
84.523588
 20
136.582417
 30
0.0
 10
84.396972
 20
136.912253
 30
0.0
 10
84.261271
 20
137.237533
 30
0.0
 10
84.116649
 20
137.558118
 30
0.0
 10
83.963259
 20
137.873868
 30
0.0
 10
82.584132
 20
137.873868
 30
0.0
 10
81.205002
 20
137.873868
 30
0.0
 10
79.825873
 20
137.873868
 30
0.0
 10
78.446746
 20
137.873868
 30
0.0
 10
77.067619
 20
137.873868
 30
0.0
 10
75.688489
 20
137.873868
 30
0.0
 10
74.309359
 20
137.873868
 30
0.0
 10
72.930233
 20
137.873868
 30
0.0
 10
71.551106
 20
137.873868
 30
0.0
 10
70.171976
 20
137.873868
 30
0.0
 10
68.792846
 20
137.873868
 30
0.0
 10
67.413719
 20
137.873868
 30
0.0
 10
66.034590
 20
137.873868
 30
0.0
 10
64.655463
 20
137.873868
 30
0.0
 10
63.276333
 20
137.873868
 30
0.0
 10
61.897206
 20
137.873868
 30
0.0
 10
61.743613
 20
137.558056
 30
0.0
 10
61.598579
 20
137.237437
 30
0.0
 10
61.462296
 20
136.912148
 30
0.0
 10
61.334944
 20
136.582329
 30
0.0
 10
61.216712
 20
136.248113
 30
0.0
 10
61.107788
 20
135.909638
 30
0.0
 10
61.008353
 20
135.567046
 30
0.0
 10
60.918598
 20
135.220469
 30
0.0
 10
60.838704
 20
134.870047
 30
0.0
 10
60.768859
 20
134.515918
 30
0.0
 10
60.709251
 20
134.158215
 30
0.0
 10
60.660063
 20
133.797084
 30
0.0
 10
60.621483
 20
133.432653
 30
0.0
 10
60.593684
 20
133.065067
 30
0.0
 10
60.576864
 20
132.694458
 30
0.0
 10
60.571219
 20
132.320965
 30
0.0
 10
60.571256
 20
132.320965
 30
0.0
  0
LWPOLYLINE
  5
110
100
AcDbEntity
  8
0
 62
7
100
AcDbPolyline
 90
82
 70
0
 10
60.360577
 20
70.990696
 30
0.0
 10
60.424365
 20
69.726399
 30
0.0
 10
60.611591
 20
68.498594
 30
0.0
 10
60.916038
 20
67.313495
 30
0.0
 10
61.331495
 20
66.177328
 30
0.0
 10
61.851746
 20
65.096307
 30
0.0
 10
62.470580
 20
64.076658
 30
0.0
 10
63.181786
 20
63.124595
 30
0.0
 10
63.979146
 20
62.246342
 30
0.0
 10
64.856447
 20
61.448122
 30
0.0
 10
65.807480
 20
60.736145
 30
0.0
 10
66.826028
 20
60.116642
 30
0.0
 10
67.905878
 20
59.595827
 30
0.0
 10
69.040815
 20
59.179921
 30
0.0
 10
70.224630
 20
58.875144
 30
0.0
 10
71.451109
 20
58.687717
 30
0.0
 10
72.714036
 20
58.623859
 30
0.0
 10
73.976964
 20
58.687717
 30
0.0
 10
75.203442
 20
58.875144
 30
0.0
 10
76.387257
 20
59.179921
 30
0.0
 10
77.522194
 20
59.595827
 30
0.0
 10
78.602044
 20
60.116642
 30
0.0
 10
79.620593
 20
60.736145
 30
0.0
 10
80.571625
 20
61.448122
 30
0.0
 10
81.448927
 20
62.246345
 30
0.0
 10
82.246287
 20
63.124595
 30
0.0
 10
82.957492
 20
64.076658
 30
0.0
 10
83.576327
 20
65.096307
 30
0.0
 10
84.096578
 20
66.177328
 30
0.0
 10
84.512034
 20
67.313495
 30
0.0
 10
84.816482
 20
68.498594
 30
0.0
 10
85.003708
 20
69.726399
 30
0.0
 10
85.067496
 20
70.990696
 30
0.0
 10
85.061964
 20
71.364084
 30
0.0
 10
85.045482
 20
71.734628
 30
0.0
 10
85.018220
 20
72.102177
 30
0.0
 10
84.980320
 20
72.466596
 30
0.0
 10
84.931941
 20
72.827742
 30
0.0
 10
84.873236
 20
73.185470
 30
0.0
 10
84.804363
 20
73.539639
 30
0.0
 10
84.725476
 20
73.890108
 30
0.0
 10
84.636734
 20
74.236737
 30
0.0
 10
84.538287
 20
74.579377
 30
0.0
 10
84.430294
 20
74.917891
 30
0.0
 10
84.312910
 20
75.252138
 30
0.0
 10
84.186293
 20
75.581971
 30
0.0
 10
84.050592
 20
75.907252
 30
0.0
 10
83.905971
 20
76.227840
 30
0.0
 10
83.752580
 20
76.543587
 30
0.0
 10
82.373453
 20
76.543587
 30
0.0
 10
80.994323
 20
76.543587
 30
0.0
 10
79.615194
 20
76.543587
 30
0.0
 10
78.236067
 20
76.543587
 30
0.0
 10
76.856940
 20
76.543587
 30
0.0
 10
75.477810
 20
76.543587
 30
0.0
 10
74.098681
 20
76.543587
 30
0.0
 10
72.719554
 20
76.543587
 30
0.0
 10
71.340427
 20
76.543587
 30
0.0
 10
69.961297
 20
76.543587
 30
0.0
 10
68.582170
 20
76.543587
 30
0.0
 10
67.203041
 20
76.543587
 30
0.0
 10
65.823914
 20
76.543587
 30
0.0
 10
64.444784
 20
76.543587
 30
0.0
 10
63.065654
 20
76.543587
 30
0.0
 10
61.686527
 20
76.543587
 30
0.0
 10
61.532934
 20
76.227775
 30
0.0
 10
61.387900
 20
75.907156
 30
0.0
 10
61.251617
 20
75.581870
 30
0.0
 10
61.124265
 20
75.252051
 30
0.0
 10
61.006033
 20
74.917835
 30
0.0
 10
60.897110
 20
74.579363
 30
0.0
 10
60.797674
 20
74.236770
 30
0.0
 10
60.707919
 20
73.890193
 30
0.0
 10
60.628025
 20
73.539772
 30
0.0
 10
60.558180
 20
73.185645
 30
0.0
 10
60.498572
 20
72.827945
 30
0.0
 10
60.449384
 20
72.466811
 30
0.0
 10
60.410804
 20
72.102383
 30
0.0
 10
60.383005
 20
71.734797
 30
0.0
 10
60.366185
 20
71.364188
 30
0.0
 10
60.360540
 20
70.990696
 30
0.0
 10
60.360577
 20
70.990696
 30
0.0
  0
LWPOLYLINE
  5
111
100
AcDbEntity
  8
0
 62
7
100
AcDbPolyline
 90
82
 70
0
 10
7.122856
 20
66.554162
 30
0.0
 10
7.186645
 20
67.818459
 30
0.0
 10
7.373869
 20
69.046263
 30
0.0
 10
7.678317
 20
70.231363
 30
0.0
 10
8.093773
 20
71.367530
 30
0.0
 10
8.614026
 20
72.448551
 30
0.0
 10
9.232860
 20
73.468200
 30
0.0
 10
9.944064
 20
74.420263
 30
0.0
 10
10.741424
 20
75.298513
 30
0.0
 10
11.618727
 20
76.096736
 30
0.0
 10
12.569758
 20
76.808712
 30
0.0
 10
13.588306
 20
77.428216
 30
0.0
 10
14.668156
 20
77.949031
 30
0.0
 10
15.803095
 20
78.364936
 30
0.0
 10
16.986910
 20
78.669714
 30
0.0
 10
18.213388
 20
78.857140
 30
0.0
 10
19.476315
 20
78.920999
 30
0.0
 10
20.739242
 20
78.857140
 30
0.0
 10
21.965719
 20
78.669714
 30
0.0
 10
23.149535
 20
78.364936
 30
0.0
 10
24.284474
 20
77.949031
 30
0.0
 10
25.364324
 20
77.428216
 30
0.0
 10
26.382871
 20
76.808712
 30
0.0
 10
27.333903
 20
76.096736
 30
0.0
 10
28.211205
 20
75.298513
 30
0.0
 10
29.008564
 20
74.420263
 30
0.0
 10
29.719770
 20
73.468200
 30
0.0
 10
30.338604
 20
72.448551
 30
0.0
 10
30.858855
 20
71.367530
 30
0.0
 10
31.274312
 20
70.231363
 30
0.0
 10
31.578759
 20
69.046263
 30
0.0
 10
31.765985
 20
67.818459
 30
0.0
 10
31.829773
 20
66.554162
 30
0.0
 10
31.824241
 20
66.180774
 30
0.0
 10
31.807760
 20
65.810230
 30
0.0
 10
31.780497
 20
65.442681
 30
0.0
 10
31.742597
 20
65.078261
 30
0.0
 10
31.694219
 20
64.717116
 30
0.0
 10
31.635514
 20
64.359388
 30
0.0
 10
31.566640
 20
64.005219
 30
0.0
 10
31.487753
 20
63.654749
 30
0.0
 10
31.399012
 20
63.308121
 30
0.0
 10
31.300564
 20
62.965481
 30
0.0
 10
31.192572
 20
62.626967
 30
0.0
 10
31.075187
 20
62.292720
 30
0.0
 10
30.948571
 20
61.962886
 30
0.0
 10
30.812870
 20
61.637606
 30
0.0
 10
30.668248
 20
61.317018
 30
0.0
 10
30.514857
 20
61.001271
 30
0.0
 10
29.135730
 20
61.001271
 30
0.0
 10
27.756601
 20
61.001271
 30
0.0
 10
26.377473
 20
61.001271
 30
0.0
 10
24.998344
 20
61.001271
 30
0.0
 10
23.619216
 20
61.001271
 30
0.0
 10
22.240088
 20
61.001271
 30
0.0
 10
20.860960
 20
61.001271
 30
0.0
 10
19.481832
 20
61.001271
 30
0.0
 10
18.102704
 20
61.001271
 30
0.0
 10
16.723575
 20
61.001271
 30
0.0
 10
15.344447
 20
61.001271
 30
0.0
 10
13.965319
 20
61.001271
 30
0.0
 10
12.586191
 20
61.001271
 30
0.0
 10
11.207063
 20
61.001271
 30
0.0
 10
9.827935
 20
61.001271
 30
0.0
 10
8.448806
 20
61.001271
 30
0.0
 10
8.295212
 20
61.317083
 30
0.0
 10
8.150180
 20
61.637702
 30
0.0
 10
8.013895
 20
61.962988
 30
0.0
 10
7.886544
 20
62.292807
 30
0.0
 10
7.768313
 20
62.627023
 30
0.0
 10
7.659387
 20
62.965495
 30
0.0
 10
7.559954
 20
63.308087
 30
0.0
 10
7.470197
 20
63.654665
 30
0.0
 10
7.390304
 20
64.005086
 30
0.0
 10
7.320460
 20
64.359213
 30
0.0
 10
7.260851
 20
64.716913
 30
0.0
 10
7.211663
 20
65.078047
 30
0.0
 10
7.173083
 20
65.442475
 30
0.0
 10
7.145295
 20
65.810061
 30
0.0
 10
7.128486
 20
66.180669
 30
0.0
 10
7.122842
 20
66.554162
 30
0.0
 10
7.122856
 20
66.554162
 30
0.0
  0
LWPOLYLINE
  5
112
100
AcDbEntity
  8
0
 62
7
100
AcDbPolyline
 90
82
 70
0
 10
7.122856
 20
127.681509
 30
0.0
 10
7.186645
 20
128.945802
 30
0.0
 10
7.373869
 20
130.173607
 30
0.0
 10
7.678317
 20
131.358701
 30
0.0
 10
8.093773
 20
132.494868
 30
0.0
 10
8.614026
 20
133.575886
 30
0.0
 10
9.232860
 20
134.595535
 30
0.0
 10
9.944064
 20
135.547595
 30
0.0
 10
10.741424
 20
136.425848
 30
0.0
 10
11.618727
 20
137.224069
 30
0.0
 10
12.569758
 20
137.936045
 30
0.0
 10
13.588306
 20
138.555548
 30
0.0
 10
14.668156
 20
139.076364
 30
0.0
 10
15.803095
 20
139.492269
 30
0.0
 10
16.986910
 20
139.797046
 30
0.0
 10
18.213388
 20
139.984473
 30
0.0
 10
19.476315
 20
140.048331
 30
0.0
 10
20.739242
 20
139.984473
 30
0.0
 10
21.965719
 20
139.797046
 30
0.0
 10
23.149535
 20
139.492269
 30
0.0
 10
24.284474
 20
139.076364
 30
0.0
 10
25.364324
 20
138.555548
 30
0.0
 10
26.382871
 20
137.936045
 30
0.0
 10
27.333903
 20
137.224069
 30
0.0
 10
28.211205
 20
136.425848
 30
0.0
 10
29.008564
 20
135.547595
 30
0.0
 10
29.719770
 20
134.595535
 30
0.0
 10
30.338604
 20
133.575886
 30
0.0
 10
30.858855
 20
132.494868
 30
0.0
 10
31.274312
 20
131.358701
 30
0.0
 10
31.578759
 20
130.173604
 30
0.0
 10
31.765985
 20
128.945802
 30
0.0
 10
31.829773
 20
127.681509
 30
0.0
 10
31.824241
 20
127.308117
 30
0.0
 10
31.807760
 20
126.937574
 30
0.0
 10
31.780497
 20
126.570022
 30
0.0
 10
31.742597
 20
126.205602
 30
0.0
 10
31.694219
 20
125.844457
 30
0.0
 10
31.635514
 20
125.486729
 30
0.0
 10
31.566640
 20
125.132557
 30
0.0
 10
31.487753
 20
124.782087
 30
0.0
 10
31.399012
 20
124.435459
 30
0.0
 10
31.300564
 20
124.092819
 30
0.0
 10
31.192572
 20
123.754305
 30
0.0
 10
31.075187
 20
123.420058
 30
0.0
 10
30.948571
 20
123.090222
 30
0.0
 10
30.812870
 20
122.764941
 30
0.0
 10
30.668248
 20
122.444356
 30
0.0
 10
30.514857
 20
122.128606
 30
0.0
 10
29.135730
 20
122.128606
 30
0.0
 10
27.756601
 20
122.128606
 30
0.0
 10
26.377473
 20
122.128606
 30
0.0
 10
24.998344
 20
122.128606
 30
0.0
 10
23.619216
 20
122.128606
 30
0.0
 10
22.240088
 20
122.128606
 30
0.0
 10
20.860960
 20
122.128606
 30
0.0
 10
19.481832
 20
122.128606
 30
0.0
 10
18.102704
 20
122.128606
 30
0.0
 10
16.723575
 20
122.128606
 30
0.0
 10
15.344447
 20
122.128606
 30
0.0
 10
13.965319
 20
122.128606
 30
0.0
 10
12.586191
 20
122.128606
 30
0.0
 10
11.207063
 20
122.128606
 30
0.0
 10
9.827935
 20
122.128606
 30
0.0
 10
8.448806
 20
122.128606
 30
0.0
 10
8.295212
 20
122.444418
 30
0.0
 10
8.150180
 20
122.765037
 30
0.0
 10
8.013895
 20
123.090326
 30
0.0
 10
7.886544
 20
123.420145
 30
0.0
 10
7.768313
 20
123.754361
 30
0.0
 10
7.659387
 20
124.092836
 30
0.0
 10
7.559954
 20
124.435428
 30
0.0
 10
7.470197
 20
124.782006
 30
0.0
 10
7.390304
 20
125.132427
 30
0.0
 10
7.320460
 20
125.486556
 30
0.0
 10
7.260851
 20
125.844259
 30
0.0
 10
7.211663
 20
126.205391
 30
0.0
 10
7.173083
 20
126.569821
 30
0.0
 10
7.145295
 20
126.937407
 30
0.0
 10
7.128486
 20
127.308016
 30
0.0
 10
7.122842
 20
127.681509
 30
0.0
 10
7.122856
 20
127.681509
 30
0.0
  0
LWPOLYLINE
  5
113
100
AcDbEntity
  8
0
 62
7
100
AcDbPolyline
 90
82
 70
0
 10
7.122856
 20
188.808923
 30
0.0
 10
7.186645
 20
190.073216
 30
0.0
 10
7.373869
 20
191.301019
 30
0.0
 10
7.678317
 20
192.486115
 30
0.0
 10
8.093773
 20
193.622282
 30
0.0
 10
8.614026
 20
194.703301
 30
0.0
 10
9.232860
 20
195.722950
 30
0.0
 10
9.944064
 20
196.675009
 30
0.0
 10
10.741424
 20
197.553262
 30
0.0
 10
11.618727
 20
198.351483
 30
0.0
 10
12.569758
 20
199.063459
 30
0.0
 10
13.588306
 20
199.682962
 30
0.0
 10
14.668156
 20
200.203778
 30
0.0
 10
15.803095
 20
200.619683
 30
0.0
 10
16.986910
 20
200.924460
 30
0.0
 10
18.213388
 20
201.111887
 30
0.0
 10
19.476315
 20
201.175746
 30
0.0
 10
20.739242
 20
201.111887
 30
0.0
 10
21.965719
 20
200.924460
 30
0.0
 10
23.149535
 20
200.619683
 30
0.0
 10
24.284474
 20
200.203778
 30
0.0
 10
25.364324
 20
199.682962
 30
0.0
 10
26.382871
 20
199.063459
 30
0.0
 10
27.333903
 20
198.351483
 30
0.0
 10
28.211205
 20
197.553262
 30
0.0
 10
29.008564
 20
196.675009
 30
0.0
 10
29.719770
 20
195.722950
 30
0.0
 10
30.338604
 20
194.703301
 30
0.0
 10
30.858855
 20
193.622282
 30
0.0
 10
31.274312
 20
192.486115
 30
0.0
 10
31.578759
 20
191.301021
 30
0.0
 10
31.765985
 20
190.073216
 30
0.0
 10
31.829773
 20
188.808923
 30
0.0
 10
31.824241
 20
188.435532
 30
0.0
 10
31.807760
 20
188.064988
 30
0.0
 10
31.780497
 20
187.697436
 30
0.0
 10
31.742597
 20
187.333016
 30
0.0
 10
31.694219
 20
186.971871
 30
0.0
 10
31.635514
 20
186.614143
 30
0.0
 10
31.566640
 20
186.259971
 30
0.0
 10
31.487753
 20
185.909502
 30
0.0
 10
31.399012
 20
185.562874
 30
0.0
 10
31.300564
 20
185.220233
 30
0.0
 10
31.192572
 20
184.881719
 30
0.0
 10
31.075187
 20
184.547472
 30
0.0
 10
30.948571
 20
184.217636
 30
0.0
 10
30.812870
 20
183.892355
 30
0.0
 10
30.668248
 20
183.571770
 30
0.0
 10
30.514857
 20
183.256020
 30
0.0
 10
29.135730
 20
183.256020
 30
0.0
 10
27.756601
 20
183.256020
 30
0.0
 10
26.377473
 20
183.256020
 30
0.0
 10
24.998344
 20
183.256020
 30
0.0
 10
23.619216
 20
183.256020
 30
0.0
 10
22.240088
 20
183.256020
 30
0.0
 10
20.860960
 20
183.256020
 30
0.0
 10
19.481832
 20
183.256020
 30
0.0
 10
18.102704
 20
183.256020
 30
0.0
 10
16.723575
 20
183.256020
 30
0.0
 10
15.344447
 20
183.256020
 30
0.0
 10
13.965319
 20
183.256020
 30
0.0
 10
12.586191
 20
183.256020
 30
0.0
 10
11.207063
 20
183.256020
 30
0.0
 10
9.827935
 20
183.256020
 30
0.0
 10
8.448806
 20
183.256020
 30
0.0
 10
8.295212
 20
183.571832
 30
0.0
 10
8.150180
 20
183.892451
 30
0.0
 10
8.013895
 20
184.217740
 30
0.0
 10
7.886544
 20
184.547559
 30
0.0
 10
7.768313
 20
184.881775
 30
0.0
 10
7.659387
 20
185.220250
 30
0.0
 10
7.559954
 20
185.562842
 30
0.0
 10
7.470197
 20
185.909420
 30
0.0
 10
7.390304
 20
186.259841
 30
0.0
 10
7.320460
 20
186.613971
 30
0.0
 10
7.260851
 20
186.971673
 30
0.0
 10
7.211663
 20
187.332805
 30
0.0
 10
7.173083
 20
187.697236
 30
0.0
 10
7.145295
 20
188.064821
 30
0.0
 10
7.128486
 20
188.435430
 30
0.0
 10
7.122842
 20
188.808923
 30
0.0
 10
7.122856
 20
188.808923
 30
0.0
  0
LWPOLYLINE
  5
114
100
AcDbEntity
  8
0
 62
7
100
AcDbPolyline
 90
65
 70
0
 10
147.092454
 20
72.670725
 30
0.0
 10
147.394077
 20
72.655500
 30
0.0
 10
147.686984
 20
72.610796
 30
0.0
 10
147.969691
 20
72.538105
 30
0.0
 10
148.240732
 20
72.438904
 30
0.0
 10
148.498608
 20
72.314681
 30
0.0
 10
148.741835
 20
72.166916
 30
0.0
 10
148.968930
 20
71.997093
 30
0.0
 10
149.178427
 20
71.806694
 30
0.0
 10
149.368810
 20
71.597204
 30
0.0
 10
149.538645
 20
71.370104
 30
0.0
 10
149.686400
 20
71.126875
 30
0.0
 10
149.810625
 20
70.869003
 30
0.0
 10
149.909821
 20
70.597970
 30
0.0
 10
149.982520
 20
70.315258
 30
0.0
 10
150.027224
 20
70.022351
 30
0.0
 10
150.042384
 20
69.720731
 30
0.0
 10
150.027224
 20
69.419110
 30
0.0
 10
149.982520
 20
69.126203
 30
0.0
 10
149.909821
 20
68.843491
 30
0.0
 10
149.810625
 20
68.572457
 30
0.0
 10
149.686400
 20
68.314585
 30
0.0
 10
149.538645
 20
68.071358
 30
0.0
 10
149.368810
 20
67.844256
 30
0.0
 10
149.178427
 20
67.634766
 30
0.0
 10
148.968930
 20
67.444366
 30
0.0
 10
148.741835
 20
67.274544
 30
0.0
 10
148.498608
 20
67.126779
 30
0.0
 10
148.240732
 20
67.002556
 30
0.0
 10
147.969691
 20
66.903355
 30
0.0
 10
147.686984
 20
66.830664
 30
0.0
 10
147.394077
 20
66.785960
 30
0.0
 10
147.092454
 20
66.770735
 30
0.0
 10
146.790830
 20
66.785960
 30
0.0
 10
146.497923
 20
66.830664
 30
0.0
 10
146.215216
 20
66.903355
 30
0.0
 10
145.944175
 20
67.002556
 30
0.0
 10
145.686299
 20
67.126779
 30
0.0
 10
145.443072
 20
67.274544
 30
0.0
 10
145.215977
 20
67.444366
 30
0.0
 10
145.006497
 20
67.634766
 30
0.0
 10
144.816097
 20
67.844256
 30
0.0
 10
144.646262
 20
68.071358
 30
0.0
 10
144.498507
 20
68.314585
 30
0.0
 10
144.374282
 20
68.572457
 30
0.0
 10
144.275086
 20
68.843491
 30
0.0
 10
144.202387
 20
69.126203
 30
0.0
 10
144.157683
 20
69.419110
 30
0.0
 10
144.142524
 20
69.720731
 30
0.0
 10
144.157683
 20
70.022351
 30
0.0
 10
144.202387
 20
70.315258
 30
0.0
 10
144.275086
 20
70.597970
 30
0.0
 10
144.374282
 20
70.869003
 30
0.0
 10
144.498507
 20
71.126875
 30
0.0
 10
144.646262
 20
71.370104
 30
0.0
 10
144.816097
 20
71.597204
 30
0.0
 10
145.006497
 20
71.806694
 30
0.0
 10
145.215977
 20
71.997093
 30
0.0
 10
145.443072
 20
72.166916
 30
0.0
 10
145.686299
 20
72.314681
 30
0.0
 10
145.944175
 20
72.438904
 30
0.0
 10
146.215216
 20
72.538105
 30
0.0
 10
146.497923
 20
72.610796
 30
0.0
 10
146.790830
 20
72.655500
 30
0.0
 10
147.092454
 20
72.670725
 30
0.0
  0
LWPOLYLINE
  5
115
100
AcDbEntity
  8
0
 62
7
100
AcDbPolyline
 90
65
 70
0
 10
147.092454
 20
133.798125
 30
0.0
 10
147.394077
 20
133.782900
 30
0.0
 10
147.686984
 20
133.738196
 30
0.0
 10
147.969691
 20
133.665505
 30
0.0
 10
148.240732
 20
133.566304
 30
0.0
 10
148.498608
 20
133.442081
 30
0.0
 10
148.741835
 20
133.294316
 30
0.0
 10
148.968930
 20
133.124494
 30
0.0
 10
149.178427
 20
132.934096
 30
0.0
 10
149.368810
 20
132.724604
 30
0.0
 10
149.538645
 20
132.497504
 30
0.0
 10
149.686400
 20
132.254275
 30
0.0
 10
149.810625
 20
131.996403
 30
0.0
 10
149.909821
 20
131.725370
 30
0.0
 10
149.982520
 20
131.442658
 30
0.0
 10
150.027224
 20
131.149751
 30
0.0
 10
150.042384
 20
130.848131
 30
0.0
 10
150.027224
 20
130.546510
 30
0.0
 10
149.982520
 20
130.253604
 30
0.0
 10
149.909821
 20
129.970891
 30
0.0
 10
149.810625
 20
129.699857
 30
0.0
 10
149.686400
 20
129.441985
 30
0.0
 10
149.538645
 20
129.198758
 30
0.0
 10
149.368810
 20
128.971656
 30
0.0
 10
149.178427
 20
128.762166
 30
0.0
 10
148.968930
 20
128.571766
 30
0.0
 10
148.741835
 20
128.401944
 30
0.0
 10
148.498608
 20
128.254179
 30
0.0
 10
148.240732
 20
128.129956
 30
0.0
 10
147.969691
 20
128.030755
 30
0.0
 10
147.686984
 20
127.958064
 30
0.0
 10
147.394077
 20
127.913360
 30
0.0
 10
147.092454
 20
127.898135
 30
0.0
 10
146.790830
 20
127.913360
 30
0.0
 10
146.497923
 20
127.958064
 30
0.0
 10
146.215216
 20
128.030755
 30
0.0
 10
145.944175
 20
128.129956
 30
0.0
 10
145.686299
 20
128.254179
 30
0.0
 10
145.443072
 20
128.401944
 30
0.0
 10
145.215977
 20
128.571766
 30
0.0
 10
145.006497
 20
128.762166
 30
0.0
 10
144.816097
 20
128.971656
 30
0.0
 10
144.646262
 20
129.198758
 30
0.0
 10
144.498507
 20
129.441985
 30
0.0
 10
144.374282
 20
129.699857
 30
0.0
 10
144.275086
 20
129.970891
 30
0.0
 10
144.202387
 20
130.253604
 30
0.0
 10
144.157683
 20
130.546510
 30
0.0
 10
144.142524
 20
130.848131
 30
0.0
 10
144.157683
 20
131.149751
 30
0.0
 10
144.202387
 20
131.442658
 30
0.0
 10
144.275086
 20
131.725370
 30
0.0
 10
144.374282
 20
131.996403
 30
0.0
 10
144.498507
 20
132.254275
 30
0.0
 10
144.646262
 20
132.497504
 30
0.0
 10
144.816097
 20
132.724604
 30
0.0
 10
145.006497
 20
132.934096
 30
0.0
 10
145.215977
 20
133.124494
 30
0.0
 10
145.443072
 20
133.294316
 30
0.0
 10
145.686299
 20
133.442081
 30
0.0
 10
145.944175
 20
133.566304
 30
0.0
 10
146.215216
 20
133.665505
 30
0.0
 10
146.497923
 20
133.738196
 30
0.0
 10
146.790830
 20
133.782900
 30
0.0
 10
147.092454
 20
133.798125
 30
0.0
  0
LWPOLYLINE
  5
116
100
AcDbEntity
  8
0
 62
7
100
AcDbPolyline
 90
65
 70
0
 10
147.092454
 20
194.925483
 30
0.0
 10
147.394077
 20
194.910258
 30
0.0
 10
147.686984
 20
194.865554
 30
0.0
 10
147.969691
 20
194.792862
 30
0.0
 10
148.240732
 20
194.693662
 30
0.0
 10
148.498608
 20
194.569439
 30
0.0
 10
148.741835
 20
194.421673
 30
0.0
 10
148.968930
 20
194.251851
 30
0.0
 10
149.178427
 20
194.061452
 30
0.0
 10
149.368810
 20
193.851962
 30
0.0
 10
149.538645
 20
193.624861
 30
0.0
 10
149.686400
 20
193.381633
 30
0.0
 10
149.810625
 20
193.123761
 30
0.0
 10
149.909821
 20
192.852728
 30
0.0
 10
149.982520
 20
192.570016
 30
0.0
 10
150.027224
 20
192.277109
 30
0.0
 10
150.042384
 20
191.975489
 30
0.0
 10
150.027224
 20
191.673868
 30
0.0
 10
149.982520
 20
191.380961
 30
0.0
 10
149.909821
 20
191.098249
 30
0.0
 10
149.810625
 20
190.827215
 30
0.0
 10
149.686400
 20
190.569343
 30
0.0
 10
149.538645
 20
190.326116
 30
0.0
 10
149.368810
 20
190.099014
 30
0.0
 10
149.178427
 20
189.889524
 30
0.0
 10
148.968930
 20
189.699124
 30
0.0
 10
148.741835
 20
189.529302
 30
0.0
 10
148.498608
 20
189.381537
 30
0.0
 10
148.240732
 20
189.257314
 30
0.0
 10
147.969691
 20
189.158113
 30
0.0
 10
147.686984
 20
189.085422
 30
0.0
 10
147.394077
 20
189.040718
 30
0.0
 10
147.092454
 20
189.025493
 30
0.0
 10
146.790830
 20
189.040718
 30
0.0
 10
146.497923
 20
189.085422
 30
0.0
 10
146.215216
 20
189.158113
 30
0.0
 10
145.944175
 20
189.257314
 30
0.0
 10
145.686299
 20
189.381537
 30
0.0
 10
145.443072
 20
189.529302
 30
0.0
 10
145.215977
 20
189.699124
 30
0.0
 10
145.006497
 20
189.889524
 30
0.0
 10
144.816097
 20
190.099014
 30
0.0
 10
144.646262
 20
190.326116
 30
0.0
 10
144.498507
 20
190.569343
 30
0.0
 10
144.374282
 20
190.827215
 30
0.0
 10
144.275086
 20
191.098249
 30
0.0
 10
144.202387
 20
191.380961
 30
0.0
 10
144.157683
 20
191.673868
 30
0.0
 10
144.142524
 20
191.975489
 30
0.0
 10
144.157683
 20
192.277109
 30
0.0
 10
144.202387
 20
192.570016
 30
0.0
 10
144.275086
 20
192.852728
 30
0.0
 10
144.374282
 20
193.123761
 30
0.0
 10
144.498507
 20
193.381633
 30
0.0
 10
144.646262
 20
193.624861
 30
0.0
 10
144.816097
 20
193.851962
 30
0.0
 10
145.006497
 20
194.061452
 30
0.0
 10
145.215977
 20
194.251851
 30
0.0
 10
145.443072
 20
194.421673
 30
0.0
 10
145.686299
 20
194.569439
 30
0.0
 10
145.944175
 20
194.693662
 30
0.0
 10
146.215216
 20
194.792862
 30
0.0
 10
146.497923
 20
194.865554
 30
0.0
 10
146.790830
 20
194.910258
 30
0.0
 10
147.092454
 20
194.925483
 30
0.0
  0
LWPOLYLINE
  5
117
100
AcDbEntity
  8
0
 62
7
100
AcDbPolyline
 90
65
 70
0
 10
147.092454
 20
256.052869
 30
0.0
 10
147.394077
 20
256.037644
 30
0.0
 10
147.686984
 20
255.992940
 30
0.0
 10
147.969691
 20
255.920248
 30
0.0
 10
148.240732
 20
255.821048
 30
0.0
 10
148.498608
 20
255.696825
 30
0.0
 10
148.741835
 20
255.549059
 30
0.0
 10
148.968930
 20
255.379237
 30
0.0
 10
149.178427
 20
255.188838
 30
0.0
 10
149.368810
 20
254.979348
 30
0.0
 10
149.538645
 20
254.752247
 30
0.0
 10
149.686400
 20
254.509019
 30
0.0
 10
149.810625
 20
254.251147
 30
0.0
 10
149.909821
 20
253.980114
 30
0.0
 10
149.982520
 20
253.697402
 30
0.0
 10
150.027224
 20
253.404495
 30
0.0
 10
150.042384
 20
253.102875
 30
0.0
 10
150.027224
 20
252.801254
 30
0.0
 10
149.982520
 20
252.508347
 30
0.0
 10
149.909821
 20
252.225635
 30
0.0
 10
149.810625
 20
251.954601
 30
0.0
 10
149.686400
 20
251.696729
 30
0.0
 10
149.538645
 20
251.453502
 30
0.0
 10
149.368810
 20
251.226400
 30
0.0
 10
149.178427
 20
251.016910
 30
0.0
 10
148.968930
 20
250.826510
 30
0.0
 10
148.741835
 20
250.656688
 30
0.0
 10
148.498608
 20
250.508923
 30
0.0
 10
148.240732
 20
250.384700
 30
0.0
 10
147.969691
 20
250.285499
 30
0.0
 10
147.686984
 20
250.212808
 30
0.0
 10
147.394077
 20
250.168104
 30
0.0
 10
147.092454
 20
250.152879
 30
0.0
 10
146.790830
 20
250.168104
 30
0.0
 10
146.497923
 20
250.212808
 30
0.0
 10
146.215216
 20
250.285499
 30
0.0
 10
145.944175
 20
250.384700
 30
0.0
 10
145.686299
 20
250.508923
 30
0.0
 10
145.443072
 20
250.656688
 30
0.0
 10
145.215977
 20
250.826510
 30
0.0
 10
145.006497
 20
251.016910
 30
0.0
 10
144.816097
 20
251.226400
 30
0.0
 10
144.646262
 20
251.453502
 30
0.0
 10
144.498507
 20
251.696729
 30
0.0
 10
144.374282
 20
251.954601
 30
0.0
 10
144.275086
 20
252.225635
 30
0.0
 10
144.202387
 20
252.508347
 30
0.0
 10
144.157683
 20
252.801254
 30
0.0
 10
144.142524
 20
253.102875
 30
0.0
 10
144.157683
 20
253.404495
 30
0.0
 10
144.202387
 20
253.697402
 30
0.0
 10
144.275086
 20
253.980114
 30
0.0
 10
144.374282
 20
254.251147
 30
0.0
 10
144.498507
 20
254.509019
 30
0.0
 10
144.646262
 20
254.752247
 30
0.0
 10
144.816097
 20
254.979348
 30
0.0
 10
145.006497
 20
255.188838
 30
0.0
 10
145.215977
 20
255.379237
 30
0.0
 10
145.443072
 20
255.549059
 30
0.0
 10
145.686299
 20
255.696825
 30
0.0
 10
145.944175
 20
255.821048
 30
0.0
 10
146.215216
 20
255.920248
 30
0.0
 10
146.497923
 20
255.992940
 30
0.0
 10
146.790830
 20
256.037644
 30
0.0
 10
147.092454
 20
256.052869
 30
0.0
  0
LWPOLYLINE
  5
118
100
AcDbEntity
  8
0
 62
7
100
AcDbPolyline
 90
65
 70
0
 10
93.854731
 20
255.226889
 30
0.0
 10
94.156354
 20
255.211664
 30
0.0
 10
94.449261
 20
255.166960
 30
0.0
 10
94.731969
 20
255.094269
 30
0.0
 10
95.003010
 20
254.995068
 30
0.0
 10
95.260885
 20
254.870845
 30
0.0
 10
95.504112
 20
254.723080
 30
0.0
 10
95.731207
 20
254.553258
 30
0.0
 10
95.940704
 20
254.362860
 30
0.0
 10
96.131087
 20
254.153368
 30
0.0
 10
96.300922
 20
253.926268
 30
0.0
 10
96.448677
 20
253.683039
 30
0.0
 10
96.572903
 20
253.425167
 30
0.0
 10
96.672098
 20
253.154134
 30
0.0
 10
96.744798
 20
252.871422
 30
0.0
 10
96.789501
 20
252.578515
 30
0.0
 10
96.804661
 20
252.276895
 30
0.0
 10
96.789501
 20
251.975274
 30
0.0
 10
96.744798
 20
251.682368
 30
0.0
 10
96.672098
 20
251.399655
 30
0.0
 10
96.572903
 20
251.128621
 30
0.0
 10
96.448677
 20
250.870749
 30
0.0
 10
96.300922
 20
250.627522
 30
0.0
 10
96.131087
 20
250.400420
 30
0.0
 10
95.940704
 20
250.190930
 30
0.0
 10
95.731207
 20
250.000530
 30
0.0
 10
95.504112
 20
249.830708
 30
0.0
 10
95.260885
 20
249.682943
 30
0.0
 10
95.003010
 20
249.558720
 30
0.0
 10
94.731969
 20
249.459519
 30
0.0
 10
94.449261
 20
249.386828
 30
0.0
 10
94.156354
 20
249.342124
 30
0.0
 10
93.854731
 20
249.326899
 30
0.0
 10
93.553107
 20
249.342124
 30
0.0
 10
93.260200
 20
249.386828
 30
0.0
 10
92.977493
 20
249.459519
 30
0.0
 10
92.706452
 20
249.558720
 30
0.0
 10
92.448577
 20
249.682943
 30
0.0
 10
92.205350
 20
249.830708
 30
0.0
 10
91.978255
 20
250.000530
 30
0.0
 10
91.768774
 20
250.190930
 30
0.0
 10
91.578375
 20
250.400420
 30
0.0
 10
91.408539
 20
250.627522
 30
0.0
 10
91.260784
 20
250.870749
 30
0.0
 10
91.136559
 20
251.128621
 30
0.0
 10
91.037364
 20
251.399655
 30
0.0
 10
90.964664
 20
251.682368
 30
0.0
 10
90.919960
 20
251.975274
 30
0.0
 10
90.904801
 20
252.276895
 30
0.0
 10
90.919960
 20
252.578515
 30
0.0
 10
90.964664
 20
252.871422
 30
0.0
 10
91.037364
 20
253.154134
 30
0.0
 10
91.136559
 20
253.425167
 30
0.0
 10
91.260784
 20
253.683039
 30
0.0
 10
91.408539
 20
253.926268
 30
0.0
 10
91.578375
 20
254.153368
 30
0.0
 10
91.768774
 20
254.362860
 30
0.0
 10
91.978255
 20
254.553258
 30
0.0
 10
92.205350
 20
254.723080
 30
0.0
 10
92.448577
 20
254.870845
 30
0.0
 10
92.706452
 20
254.995068
 30
0.0
 10
92.977493
 20
255.094269
 30
0.0
 10
93.260200
 20
255.166960
 30
0.0
 10
93.553107
 20
255.211664
 30
0.0
 10
93.854731
 20
255.226889
 30
0.0
  0
LWPOLYLINE
  5
119
100
AcDbEntity
  8
0
 62
7
100
AcDbPolyline
 90
65
 70
0
 10
93.854731
 20
194.099503
 30
0.0
 10
94.156354
 20
194.084278
 30
0.0
 10
94.449261
 20
194.039574
 30
0.0
 10
94.731969
 20
193.966883
 30
0.0
 10
95.003010
 20
193.867682
 30
0.0
 10
95.260885
 20
193.743459
 30
0.0
 10
95.504112
 20
193.595694
 30
0.0
 10
95.731207
 20
193.425872
 30
0.0
 10
95.940704
 20
193.235472
 30
0.0
 10
96.131087
 20
193.025982
 30
0.0
 10
96.300922
 20
192.798882
 30
0.0
 10
96.448677
 20
192.555653
 30
0.0
 10
96.572903
 20
192.297781
 30
0.0
 10
96.672098
 20
192.026748
 30
0.0
 10
96.744798
 20
191.744036
 30
0.0
 10
96.789501
 20
191.451129
 30
0.0
 10
96.804661
 20
191.149509
 30
0.0
 10
96.789501
 20
190.847888
 30
0.0
 10
96.744798
 20
190.554982
 30
0.0
 10
96.672098
 20
190.272269
 30
0.0
 10
96.572903
 20
190.001235
 30
0.0
 10
96.448677
 20
189.743363
 30
0.0
 10
96.300922
 20
189.500136
 30
0.0
 10
96.131087
 20
189.273034
 30
0.0
 10
95.940704
 20
189.063544
 30
0.0
 10
95.731207
 20
188.873144
 30
0.0
 10
95.504112
 20
188.703322
 30
0.0
 10
95.260885
 20
188.555557
 30
0.0
 10
95.003010
 20
188.431334
 30
0.0
 10
94.731969
 20
188.332133
 30
0.0
 10
94.449261
 20
188.259442
 30
0.0
 10
94.156354
 20
188.214738
 30
0.0
 10
93.854731
 20
188.199513
 30
0.0
 10
93.553107
 20
188.214738
 30
0.0
 10
93.260200
 20
188.259442
 30
0.0
 10
92.977493
 20
188.332133
 30
0.0
 10
92.706452
 20
188.431334
 30
0.0
 10
92.448577
 20
188.555557
 30
0.0
 10
92.205350
 20
188.703322
 30
0.0
 10
91.978255
 20
188.873144
 30
0.0
 10
91.768774
 20
189.063544
 30
0.0
 10
91.578375
 20
189.273034
 30
0.0
 10
91.408539
 20
189.500136
 30
0.0
 10
91.260784
 20
189.743363
 30
0.0
 10
91.136559
 20
190.001235
 30
0.0
 10
91.037364
 20
190.272269
 30
0.0
 10
90.964664
 20
190.554982
 30
0.0
 10
90.919960
 20
190.847888
 30
0.0
 10
90.904801
 20
191.149509
 30
0.0
 10
90.919960
 20
191.451129
 30
0.0
 10
90.964664
 20
191.744036
 30
0.0
 10
91.037364
 20
192.026748
 30
0.0
 10
91.136559
 20
192.297781
 30
0.0
 10
91.260784
 20
192.555653
 30
0.0
 10
91.408539
 20
192.798882
 30
0.0
 10
91.578375
 20
193.025982
 30
0.0
 10
91.768774
 20
193.235472
 30
0.0
 10
91.978255
 20
193.425872
 30
0.0
 10
92.205350
 20
193.595694
 30
0.0
 10
92.448577
 20
193.743459
 30
0.0
 10
92.706452
 20
193.867682
 30
0.0
 10
92.977493
 20
193.966883
 30
0.0
 10
93.260200
 20
194.039574
 30
0.0
 10
93.553107
 20
194.084278
 30
0.0
 10
93.854731
 20
194.099503
 30
0.0
  0
LWPOLYLINE
  5
11a
100
AcDbEntity
  8
0
 62
7
100
AcDbPolyline
 90
65
 70
0
 10
93.854731
 20
132.972117
 30
0.0
 10
94.156354
 20
132.956892
 30
0.0
 10
94.449261
 20
132.912188
 30
0.0
 10
94.731969
 20
132.839497
 30
0.0
 10
95.003010
 20
132.740296
 30
0.0
 10
95.260885
 20
132.616073
 30
0.0
 10
95.504112
 20
132.468308
 30
0.0
 10
95.731207
 20
132.298486
 30
0.0
 10
95.940704
 20
132.108086
 30
0.0
 10
96.131087
 20
131.898596
 30
0.0
 10
96.300922
 20
131.671496
 30
0.0
 10
96.448677
 20
131.428267
 30
0.0
 10
96.572903
 20
131.170395
 30
0.0
 10
96.672098
 20
130.899362
 30
0.0
 10
96.744798
 20
130.616650
 30
0.0
 10
96.789501
 20
130.323743
 30
0.0
 10
96.804661
 20
130.022123
 30
0.0
 10
96.789501
 20
129.720502
 30
0.0
 10
96.744798
 20
129.427596
 30
0.0
 10
96.672098
 20
129.144883
 30
0.0
 10
96.572903
 20
128.873849
 30
0.0
 10
96.448677
 20
128.615977
 30
0.0
 10
96.300922
 20
128.372750
 30
0.0
 10
96.131087
 20
128.145648
 30
0.0
 10
95.940704
 20
127.936158
 30
0.0
 10
95.731207
 20
127.745758
 30
0.0
 10
95.504112
 20
127.575936
 30
0.0
 10
95.260885
 20
127.428171
 30
0.0
 10
95.003010
 20
127.303948
 30
0.0
 10
94.731969
 20
127.204747
 30
0.0
 10
94.449261
 20
127.132056
 30
0.0
 10
94.156354
 20
127.087352
 30
0.0
 10
93.854731
 20
127.072127
 30
0.0
 10
93.553107
 20
127.087352
 30
0.0
 10
93.260200
 20
127.132056
 30
0.0
 10
92.977493
 20
127.204747
 30
0.0
 10
92.706452
 20
127.303948
 30
0.0
 10
92.448577
 20
127.428171
 30
0.0
 10
92.205350
 20
127.575936
 30
0.0
 10
91.978255
 20
127.745758
 30
0.0
 10
91.768774
 20
127.936158
 30
0.0
 10
91.578375
 20
128.145648
 30
0.0
 10
91.408539
 20
128.372750
 30
0.0
 10
91.260784
 20
128.615977
 30
0.0
 10
91.136559
 20
128.873849
 30
0.0
 10
91.037364
 20
129.144883
 30
0.0
 10
90.964664
 20
129.427596
 30
0.0
 10
90.919960
 20
129.720502
 30
0.0
 10
90.904801
 20
130.022123
 30
0.0
 10
90.919960
 20
130.323743
 30
0.0
 10
90.964664
 20
130.616650
 30
0.0
 10
91.037364
 20
130.899362
 30
0.0
 10
91.136559
 20
131.170395
 30
0.0
 10
91.260784
 20
131.428267
 30
0.0
 10
91.408539
 20
131.671496
 30
0.0
 10
91.578375
 20
131.898596
 30
0.0
 10
91.768774
 20
132.108086
 30
0.0
 10
91.978255
 20
132.298486
 30
0.0
 10
92.205350
 20
132.468308
 30
0.0
 10
92.448577
 20
132.616073
 30
0.0
 10
92.706452
 20
132.740296
 30
0.0
 10
92.977493
 20
132.839497
 30
0.0
 10
93.260200
 20
132.912188
 30
0.0
 10
93.553107
 20
132.956892
 30
0.0
 10
93.854731
 20
132.972117
 30
0.0
  0
LWPOLYLINE
  5
11b
100
AcDbEntity
  8
0
 62
7
100
AcDbPolyline
 90
65
 70
0
 10
93.854731
 20
71.844745
 30
0.0
 10
94.156354
 20
71.829520
 30
0.0
 10
94.449261
 20
71.784816
 30
0.0
 10
94.731969
 20
71.712125
 30
0.0
 10
95.003010
 20
71.612924
 30
0.0
 10
95.260885
 20
71.488701
 30
0.0
 10
95.504112
 20
71.340936
 30
0.0
 10
95.731207
 20
71.171114
 30
0.0
 10
95.940704
 20
70.980714
 30
0.0
 10
96.131087
 20
70.771224
 30
0.0
 10
96.300922
 20
70.544124
 30
0.0
 10
96.448677
 20
70.300895
 30
0.0
 10
96.572903
 20
70.043023
 30
0.0
 10
96.672098
 20
69.771990
 30
0.0
 10
96.744798
 20
69.489278
 30
0.0
 10
96.789501
 20
69.196371
 30
0.0
 10
96.804661
 20
68.894751
 30
0.0
 10
96.789501
 20
68.593131
 30
0.0
 10
96.744798
 20
68.300224
 30
0.0
 10
96.672098
 20
68.017511
 30
0.0
 10
96.572903
 20
67.746477
 30
0.0
 10
96.448677
 20
67.488605
 30
0.0
 10
96.300922
 20
67.245378
 30
0.0
 10
96.131087
 20
67.018276
 30
0.0
 10
95.940704
 20
66.808786
 30
0.0
 10
95.731207
 20
66.618387
 30
0.0
 10
95.504112
 20
66.448564
 30
0.0
 10
95.260885
 20
66.300799
 30
0.0
 10
95.003010
 20
66.176576
 30
0.0
 10
94.731969
 20
66.077375
 30
0.0
 10
94.449261
 20
66.004684
 30
0.0
 10
94.156354
 20
65.959980
 30
0.0
 10
93.854731
 20
65.944755
 30
0.0
 10
93.553107
 20
65.959980
 30
0.0
 10
93.260200
 20
66.004684
 30
0.0
 10
92.977493
 20
66.077375
 30
0.0
 10
92.706452
 20
66.176576
 30
0.0
 10
92.448577
 20
66.300799
 30
0.0
 10
92.205350
 20
66.448564
 30
0.0
 10
91.978255
 20
66.618387
 30
0.0
 10
91.768774
 20
66.808786
 30
0.0
 10
91.578375
 20
67.018276
 30
0.0
 10
91.408539
 20
67.245378
 30
0.0
 10
91.260784
 20
67.488605
 30
0.0
 10
91.136559
 20
67.746477
 30
0.0
 10
91.037364
 20
68.017511
 30
0.0
 10
90.964664
 20
68.300224
 30
0.0
 10
90.919960
 20
68.593131
 30
0.0
 10
90.904801
 20
68.894751
 30
0.0
 10
90.919960
 20
69.196371
 30
0.0
 10
90.964664
 20
69.489278
 30
0.0
 10
91.037364
 20
69.771990
 30
0.0
 10
91.136559
 20
70.043023
 30
0.0
 10
91.260784
 20
70.300895
 30
0.0
 10
91.408539
 20
70.544124
 30
0.0
 10
91.578375
 20
70.771224
 30
0.0
 10
91.768774
 20
70.980714
 30
0.0
 10
91.978255
 20
71.171114
 30
0.0
 10
92.205350
 20
71.340936
 30
0.0
 10
92.448577
 20
71.488701
 30
0.0
 10
92.706452
 20
71.612924
 30
0.0
 10
92.977493
 20
71.712125
 30
0.0
 10
93.260200
 20
71.784816
 30
0.0
 10
93.553107
 20
71.829520
 30
0.0
 10
93.854731
 20
71.844745
 30
0.0
  0
LWPOLYLINE
  5
11c
100
AcDbEntity
  8
0
 62
7
100
AcDbPolyline
 90
65
 70
0
 10
40.438023
 20
72.877368
 30
0.0
 10
40.739646
 20
72.862143
 30
0.0
 10
41.032553
 20
72.817439
 30
0.0
 10
41.315261
 20
72.744748
 30
0.0
 10
41.586302
 20
72.645547
 30
0.0
 10
41.844177
 20
72.521324
 30
0.0
 10
42.087404
 20
72.373559
 30
0.0
 10
42.314499
 20
72.203737
 30
0.0
 10
42.523996
 20
72.013337
 30
0.0
 10
42.714379
 20
71.803847
 30
0.0
 10
42.884214
 20
71.576747
 30
0.0
 10
43.031969
 20
71.333518
 30
0.0
 10
43.156195
 20
71.075646
 30
0.0
 10
43.255390
 20
70.804613
 30
0.0
 10
43.328090
 20
70.521901
 30
0.0
 10
43.372793
 20
70.228994
 30
0.0
 10
43.387953
 20
69.927374
 30
0.0
 10
43.372793
 20
69.625753
 30
0.0
 10
43.328090
 20
69.332847
 30
0.0
 10
43.255390
 20
69.050134
 30
0.0
 10
43.156195
 20
68.779100
 30
0.0
 10
43.031969
 20
68.521228
 30
0.0
 10
42.884214
 20
68.278001
 30
0.0
 10
42.714379
 20
68.050899
 30
0.0
 10
42.523996
 20
67.841409
 30
0.0
 10
42.314499
 20
67.651009
 30
0.0
 10
42.087404
 20
67.481187
 30
0.0
 10
41.844177
 20
67.333422
 30
0.0
 10
41.586302
 20
67.209199
 30
0.0
 10
41.315261
 20
67.109998
 30
0.0
 10
41.032553
 20
67.037307
 30
0.0
 10
40.739646
 20
66.992603
 30
0.0
 10
40.438023
 20
66.977378
 30
0.0
 10
40.136399
 20
66.992603
 30
0.0
 10
39.843492
 20
67.037307
 30
0.0
 10
39.560785
 20
67.109998
 30
0.0
 10
39.289744
 20
67.209199
 30
0.0
 10
39.031869
 20
67.333422
 30
0.0
 10
38.788642
 20
67.481187
 30
0.0
 10
38.561547
 20
67.651009
 30
0.0
 10
38.352066
 20
67.841409
 30
0.0
 10
38.161667
 20
68.050899
 30
0.0
 10
37.991831
 20
68.278001
 30
0.0
 10
37.844076
 20
68.521228
 30
0.0
 10
37.719851
 20
68.779100
 30
0.0
 10
37.620656
 20
69.050134
 30
0.0
 10
37.547956
 20
69.332847
 30
0.0
 10
37.503252
 20
69.625753
 30
0.0
 10
37.488093
 20
69.927374
 30
0.0
 10
37.503252
 20
70.228994
 30
0.0
 10
37.547956
 20
70.521901
 30
0.0
 10
37.620656
 20
70.804613
 30
0.0
 10
37.719851
 20
71.075646
 30
0.0
 10
37.844076
 20
71.333518
 30
0.0
 10
37.991831
 20
71.576747
 30
0.0
 10
38.161667
 20
71.803847
 30
0.0
 10
38.352066
 20
72.013337
 30
0.0
 10
38.561547
 20
72.203737
 30
0.0
 10
38.788642
 20
72.373559
 30
0.0
 10
39.031869
 20
72.521324
 30
0.0
 10
39.289744
 20
72.645547
 30
0.0
 10
39.560785
 20
72.744748
 30
0.0
 10
39.843492
 20
72.817439
 30
0.0
 10
40.136399
 20
72.862143
 30
0.0
 10
40.438023
 20
72.877368
 30
0.0
  0
LWPOLYLINE
  5
11d
100
AcDbEntity
  8
0
 62
7
100
AcDbPolyline
 90
65
 70
0
 10
40.438023
 20
134.004740
 30
0.0
 10
40.739646
 20
133.989515
 30
0.0
 10
41.032553
 20
133.944811
 30
0.0
 10
41.315261
 20
133.872120
 30
0.0
 10
41.586302
 20
133.772919
 30
0.0
 10
41.844177
 20
133.648696
 30
0.0
 10
42.087404
 20
133.500931
 30
0.0
 10
42.314499
 20
133.331108
 30
0.0
 10
42.523996
 20
133.140711
 30
0.0
 10
42.714379
 20
132.931219
 30
0.0
 10
42.884214
 20
132.704119
 30
0.0
 10
43.031969
 20
132.460890
 30
0.0
 10
43.156195
 20
132.203018
 30
0.0
 10
43.255390
 20
131.931985
 30
0.0
 10
43.328090
 20
131.649273
 30
0.0
 10
43.372793
 20
131.356366
 30
0.0
 10
43.387953
 20
131.054746
 30
0.0
 10
43.372793
 20
130.753125
 30
0.0
 10
43.328090
 20
130.460218
 30
0.0
 10
43.255390
 20
130.177506
 30
0.0
 10
43.156195
 20
129.906472
 30
0.0
 10
43.031969
 20
129.648600
 30
0.0
 10
42.884214
 20
129.405373
 30
0.0
 10
42.714379
 20
129.178271
 30
0.0
 10
42.523996
 20
128.968781
 30
0.0
 10
42.314499
 20
128.778381
 30
0.0
 10
42.087404
 20
128.608559
 30
0.0
 10
41.844177
 20
128.460794
 30
0.0
 10
41.586302
 20
128.336571
 30
0.0
 10
41.315261
 20
128.237370
 30
0.0
 10
41.032553
 20
128.164679
 30
0.0
 10
40.739646
 20
128.119975
 30
0.0
 10
40.438023
 20
128.104750
 30
0.0
 10
40.136399
 20
128.119975
 30
0.0
 10
39.843492
 20
128.164679
 30
0.0
 10
39.560785
 20
128.237370
 30
0.0
 10
39.289744
 20
128.336571
 30
0.0
 10
39.031869
 20
128.460794
 30
0.0
 10
38.788642
 20
128.608559
 30
0.0
 10
38.561547
 20
128.778381
 30
0.0
 10
38.352066
 20
128.968781
 30
0.0
 10
38.161667
 20
129.178271
 30
0.0
 10
37.991831
 20
129.405373
 30
0.0
 10
37.844076
 20
129.648600
 30
0.0
 10
37.719851
 20
129.906472
 30
0.0
 10
37.620656
 20
130.177506
 30
0.0
 10
37.547956
 20
130.460218
 30
0.0
 10
37.503252
 20
130.753125
 30
0.0
 10
37.488093
 20
131.054746
 30
0.0
 10
37.503252
 20
131.356366
 30
0.0
 10
37.547956
 20
131.649273
 30
0.0
 10
37.620656
 20
131.931985
 30
0.0
 10
37.719851
 20
132.203018
 30
0.0
 10
37.844076
 20
132.460890
 30
0.0
 10
37.991831
 20
132.704119
 30
0.0
 10
38.161667
 20
132.931219
 30
0.0
 10
38.352066
 20
133.140711
 30
0.0
 10
38.561547
 20
133.331108
 30
0.0
 10
38.788642
 20
133.500931
 30
0.0
 10
39.031869
 20
133.648696
 30
0.0
 10
39.289744
 20
133.772919
 30
0.0
 10
39.560785
 20
133.872120
 30
0.0
 10
39.843492
 20
133.944811
 30
0.0
 10
40.136399
 20
133.989515
 30
0.0
 10
40.438023
 20
134.004740
 30
0.0
  0
LWPOLYLINE
  5
11e
100
AcDbEntity
  8
0
 62
7
100
AcDbPolyline
 90
65
 70
0
 10
40.438023
 20
195.132126
 30
0.0
 10
40.739646
 20
195.116901
 30
0.0
 10
41.032553
 20
195.072197
 30
0.0
 10
41.315261
 20
194.999506
 30
0.0
 10
41.586302
 20
194.900305
 30
0.0
 10
41.844177
 20
194.776082
 30
0.0
 10
42.087404
 20
194.628317
 30
0.0
 10
42.314499
 20
194.458494
 30
0.0
 10
42.523996
 20
194.268097
 30
0.0
 10
42.714379
 20
194.058605
 30
0.0
 10
42.884214
 20
193.831505
 30
0.0
 10
43.031969
 20
193.588276
 30
0.0
 10
43.156195
 20
193.330404
 30
0.0
 10
43.255390
 20
193.059371
 30
0.0
 10
43.328090
 20
192.776659
 30
0.0
 10
43.372793
 20
192.483752
 30
0.0
 10
43.387953
 20
192.182132
 30
0.0
 10
43.372793
 20
191.880511
 30
0.0
 10
43.328090
 20
191.587604
 30
0.0
 10
43.255390
 20
191.304892
 30
0.0
 10
43.156195
 20
191.033858
 30
0.0
 10
43.031969
 20
190.775986
 30
0.0
 10
42.884214
 20
190.532759
 30
0.0
 10
42.714379
 20
190.305657
 30
0.0
 10
42.523996
 20
190.096167
 30
0.0
 10
42.314499
 20
189.905767
 30
0.0
 10
42.087404
 20
189.735945
 30
0.0
 10
41.844177
 20
189.588180
 30
0.0
 10
41.586302
 20
189.463957
 30
0.0
 10
41.315261
 20
189.364756
 30
0.0
 10
41.032553
 20
189.292065
 30
0.0
 10
40.739646
 20
189.247361
 30
0.0
 10
40.438023
 20
189.232136
 30
0.0
 10
40.136399
 20
189.247361
 30
0.0
 10
39.843492
 20
189.292065
 30
0.0
 10
39.560785
 20
189.364756
 30
0.0
 10
39.289744
 20
189.463957
 30
0.0
 10
39.031869
 20
189.588180
 30
0.0
 10
38.788642
 20
189.735945
 30
0.0
 10
38.561547
 20
189.905767
 30
0.0
 10
38.352066
 20
190.096167
 30
0.0
 10
38.161667
 20
190.305657
 30
0.0
 10
37.991831
 20
190.532759
 30
0.0
 10
37.844076
 20
190.775986
 30
0.0
 10
37.719851
 20
191.033858
 30
0.0
 10
37.620656
 20
191.304892
 30
0.0
 10
37.547956
 20
191.587604
 30
0.0
 10
37.503252
 20
191.880511
 30
0.0
 10
37.488093
 20
192.182132
 30
0.0
 10
37.503252
 20
192.483752
 30
0.0
 10
37.547956
 20
192.776659
 30
0.0
 10
37.620656
 20
193.059371
 30
0.0
 10
37.719851
 20
193.330404
 30
0.0
 10
37.844076
 20
193.588276
 30
0.0
 10
37.991831
 20
193.831505
 30
0.0
 10
38.161667
 20
194.058605
 30
0.0
 10
38.352066
 20
194.268097
 30
0.0
 10
38.561547
 20
194.458494
 30
0.0
 10
38.788642
 20
194.628317
 30
0.0
 10
39.031869
 20
194.776082
 30
0.0
 10
39.289744
 20
194.900305
 30
0.0
 10
39.560785
 20
194.999506
 30
0.0
 10
39.843492
 20
195.072197
 30
0.0
 10
40.136399
 20
195.116901
 30
0.0
 10
40.438023
 20
195.132126
 30
0.0
  0
LWPOLYLINE
  5
11f
100
AcDbEntity
  8
0
 62
7
100
AcDbPolyline
 90
65
 70
0
 10
40.438023
 20
256.259512
 30
0.0
 10
40.739646
 20
256.244287
 30
0.0
 10
41.032553
 20
256.199583
 30
0.0
 10
41.315261
 20
256.126892
 30
0.0
 10
41.586302
 20
256.027691
 30
0.0
 10
41.844177
 20
255.903468
 30
0.0
 10
42.087404
 20
255.755703
 30
0.0
 10
42.314499
 20
255.585880
 30
0.0
 10
42.523996
 20
255.395481
 30
0.0
 10
42.714379
 20
255.185991
 30
0.0
 10
42.884214
 20
254.958891
 30
0.0
 10
43.031969
 20
254.715662
 30
0.0
 10
43.156195
 20
254.457790
 30
0.0
 10
43.255390
 20
254.186757
 30
0.0
 10
43.328090
 20
253.904045
 30
0.0
 10
43.372793
 20
253.611138
 30
0.0
 10
43.387953
 20
253.309518
 30
0.0
 10
43.372793
 20
253.007897
 30
0.0
 10
43.328090
 20
252.714990
 30
0.0
 10
43.255390
 20
252.432278
 30
0.0
 10
43.156195
 20
252.161244
 30
0.0
 10
43.031969
 20
251.903372
 30
0.0
 10
42.884214
 20
251.660145
 30
0.0
 10
42.714379
 20
251.433043
 30
0.0
 10
42.523996
 20
251.223553
 30
0.0
 10
42.314499
 20
251.033153
 30
0.0
 10
42.087404
 20
250.863331
 30
0.0
 10
41.844177
 20
250.715566
 30
0.0
 10
41.586302
 20
250.591343
 30
0.0
 10
41.315261
 20
250.492142
 30
0.0
 10
41.032553
 20
250.419451
 30
0.0
 10
40.739646
 20
250.374747
 30
0.0
 10
40.438023
 20
250.359522
 30
0.0
 10
40.136399
 20
250.374747
 30
0.0
 10
39.843492
 20
250.419451
 30
0.0
 10
39.560785
 20
250.492142
 30
0.0
 10
39.289744
 20
250.591343
 30
0.0
 10
39.031869
 20
250.715566
 30
0.0
 10
38.788642
 20
250.863331
 30
0.0
 10
38.561547
 20
251.033153
 30
0.0
 10
38.352066
 20
251.223553
 30
0.0
 10
38.161667
 20
251.433043
 30
0.0
 10
37.991831
 20
251.660145
 30
0.0
 10
37.844076
 20
251.903372
 30
0.0
 10
37.719851
 20
252.161244
 30
0.0
 10
37.620656
 20
252.432278
 30
0.0
 10
37.547956
 20
252.714990
 30
0.0
 10
37.503252
 20
253.007897
 30
0.0
 10
37.488093
 20
253.309518
 30
0.0
 10
37.503252
 20
253.611138
 30
0.0
 10
37.547956
 20
253.904045
 30
0.0
 10
37.620656
 20
254.186757
 30
0.0
 10
37.719851
 20
254.457790
 30
0.0
 10
37.844076
 20
254.715662
 30
0.0
 10
37.991831
 20
254.958891
 30
0.0
 10
38.161667
 20
255.185991
 30
0.0
 10
38.352066
 20
255.395481
 30
0.0
 10
38.561547
 20
255.585880
 30
0.0
 10
38.788642
 20
255.755703
 30
0.0
 10
39.031869
 20
255.903468
 30
0.0
 10
39.289744
 20
256.027691
 30
0.0
 10
39.560785
 20
256.126892
 30
0.0
 10
39.843492
 20
256.199583
 30
0.0
 10
40.136399
 20
256.244287
 30
0.0
 10
40.438023
 20
256.259512
 30
0.0
  0
LWPOLYLINE
  5
120
100
AcDbEntity
  8
0
 62
7
100
AcDbPolyline
 90
65
 70
0
 10
4.918730
 20
268.359062
 30
0.0
 10
18.364980
 20
268.359062
 30
0.0
 10
31.811231
 20
268.359062
 30
0.0
 10
45.257480
 20
268.359062
 30
0.0
 10
58.703729
 20
268.359062
 30
0.0
 10
72.149978
 20
268.359062
 30
0.0
 10
85.596228
 20
268.359062
 30
0.0
 10
99.042477
 20
268.359062
 30
0.0
 10
112.488729
 20
268.359062
 30
0.0
 10
125.934978
 20
268.359062
 30
0.0
 10
139.381227
 20
268.359062
 30
0.0
 10
152.827476
 20
268.359062
 30
0.0
 10
166.273726
 20
268.359062
 30
0.0
 10
179.719975
 20
268.359062
 30
0.0
 10
193.166227
 20
268.359062
 30
0.0
 10
206.612476
 20
268.359062
 30
0.0
 10
220.058725
 20
268.359062
 30
0.0
 10
220.058725
 20
254.912812
 30
0.0
 10
220.058725
 20
241.466563
 30
0.0
 10
220.058725
 20
228.020311
 30
0.0
 10
220.058725
 20
214.574062
 30
0.0
 10
220.058725
 20
201.127813
 30
0.0
 10
220.058725
 20
187.681564
 30
0.0
 10
220.058725
 20
174.235315
 30
0.0
 10
220.058725
 20
160.789063
 30
0.0
 10
220.058725
 20
147.342813
 30
0.0
 10
220.058725
 20
133.896564
 30
0.0
 10
220.058725
 20
120.450315
 30
0.0
 10
220.058725
 20
107.004066
 30
0.0
 10
220.058725
 20
93.557817
 30
0.0
 10
220.058725
 20
80.111565
 30
0.0
 10
220.058725
 20
66.665315
 30
0.0
 10
220.058725
 20
53.219066
 30
0.0
 10
206.612476
 20
53.219066
 30
0.0
 10
193.166227
 20
53.219066
 30
0.0
 10
179.719975
 20
53.219066
 30
0.0
 10
166.273726
 20
53.219066
 30
0.0
 10
152.827476
 20
53.219066
 30
0.0
 10
139.381227
 20
53.219066
 30
0.0
 10
125.934978
 20
53.219066
 30
0.0
 10
112.488729
 20
53.219066
 30
0.0
 10
99.042477
 20
53.219066
 30
0.0
 10
85.596228
 20
53.219066
 30
0.0
 10
72.149978
 20
53.219066
 30
0.0
 10
58.703729
 20
53.219066
 30
0.0
 10
45.257480
 20
53.219066
 30
0.0
 10
31.811231
 20
53.219066
 30
0.0
 10
18.364980
 20
53.219066
 30
0.0
 10
4.918730
 20
53.219066
 30
0.0
 10
4.918730
 20
66.665315
 30
0.0
 10
4.918730
 20
80.111565
 30
0.0
 10
4.918730
 20
93.557817
 30
0.0
 10
4.918730
 20
107.004066
 30
0.0
 10
4.918730
 20
120.450315
 30
0.0
 10
4.918730
 20
133.896564
 30
0.0
 10
4.918730
 20
147.342813
 30
0.0
 10
4.918730
 20
160.789063
 30
0.0
 10
4.918730
 20
174.235315
 30
0.0
 10
4.918730
 20
187.681564
 30
0.0
 10
4.918730
 20
201.127813
 30
0.0
 10
4.918730
 20
214.574062
 30
0.0
 10
4.918730
 20
228.020311
 30
0.0
 10
4.918730
 20
241.466563
 30
0.0
 10
4.918730
 20
254.912812
 30
0.0
 10
4.918730
 20
268.359062
 30
0.0
  0
LWPOLYLINE
  5
121
100
AcDbEntity
  8
0
 62
7
100
AcDbPolyline
 90
17
 70
0
 10
42.438714
 20
88.289058
 30
0.0
 10
42.246181
 20
87.335408
 30
0.0
 10
41.721126
 20
86.556645
 30
0.0
 10
40.942364
 20
86.031591
 30
0.0
 10
39.988714
 20
85.839058
 30
0.0
 10
39.035064
 20
86.031591
 30
0.0
 10
38.256301
 20
86.556645
 30
0.0
 10
37.731247
 20
87.335408
 30
0.0
 10
37.538714
 20
88.289058
 30
0.0
 10
37.731247
 20
89.242708
 30
0.0
 10
38.256301
 20
90.021469
 30
0.0
 10
39.035064
 20
90.546525
 30
0.0
 10
39.988714
 20
90.739058
 30
0.0
 10
40.942364
 20
90.546525
 30
0.0
 10
41.721126
 20
90.021469
 30
0.0
 10
42.246181
 20
89.242708
 30
0.0
 10
42.438714
 20
88.289058
 30
0.0
  0
LWPOLYLINE
  5
122
100
AcDbEntity
  8
0
 62
7
100
AcDbPolyline
 90
33
 70
0
 10
187.438748
 20
233.289073
 30
0.0
 10
187.388973
 20
232.795312
 30
0.0
 10
187.246215
 20
232.335422
 30
0.0
 10
187.020327
 20
231.919255
 30
0.0
 10
186.721161
 20
231.556660
 30
0.0
 10
186.358566
 20
231.257494
 30
0.0
 10
185.942399
 20
231.031606
 30
0.0
 10
185.482509
 20
230.888848
 30
0.0
 10
184.988748
 20
230.839073
 30
0.0
 10
184.494988
 20
230.888848
 30
0.0
 10
184.035098
 20
231.031606
 30
0.0
 10
183.618931
 20
231.257494
 30
0.0
 10
183.256336
 20
231.556660
 30
0.0
 10
182.957170
 20
231.919255
 30
0.0
 10
182.731282
 20
232.335422
 30
0.0
 10
182.588524
 20
232.795312
 30
0.0
 10
182.538748
 20
233.289073
 30
0.0
 10
182.588524
 20
233.782833
 30
0.0
 10
182.731282
 20
234.242723
 30
0.0
 10
182.957170
 20
234.658890
 30
0.0
 10
183.256336
 20
235.021483
 30
0.0
 10
183.618931
 20
235.320651
 30
0.0
 10
184.035098
 20
235.546539
 30
0.0
 10
184.494988
 20
235.689297
 30
0.0
 10
184.988748
 20
235.739073
 30
0.0
 10
185.482509
 20
235.689297
 30
0.0
 10
185.942399
 20
235.546539
 30
0.0
 10
186.358566
 20
235.320651
 30
0.0
 10
186.721161
 20
235.021483
 30
0.0
 10
187.020327
 20
234.658890
 30
0.0
 10
187.246215
 20
234.242723
 30
0.0
 10
187.388973
 20
233.782833
 30
0.0
 10
187.438748
 20
233.289073
 30
0.0
  0
LWPOLYLINE
  5
123
100
AcDbEntity
  8
0
 62
7
100
AcDbPolyline
 90
17
 70
0
 10
42.438714
 20
233.289073
 30
0.0
 10
42.246181
 20
232.335422
 30
0.0
 10
41.721126
 20
231.556660
 30
0.0
 10
40.942364
 20
231.031606
 30
0.0
 10
39.988714
 20
230.839073
 30
0.0
 10
39.035064
 20
231.031606
 30
0.0
 10
38.256301
 20
231.556660
 30
0.0
 10
37.731247
 20
232.335422
 30
0.0
 10
37.538714
 20
233.289073
 30
0.0
 10
37.731247
 20
234.242723
 30
0.0
 10
38.256301
 20
235.021483
 30
0.0
 10
39.035064
 20
235.546539
 30
0.0
 10
39.988714
 20
235.739073
 30
0.0
 10
40.942364
 20
235.546539
 30
0.0
 10
41.721126
 20
235.021483
 30
0.0
 10
42.246181
 20
234.242723
 30
0.0
 10
42.438714
 20
233.289073
 30
0.0
  0
LWPOLYLINE
  5
124
100
AcDbEntity
  8
0
 62
7
100
AcDbPolyline
 90
17
 70
0
 10
187.438748
 20
88.289058
 30
0.0
 10
187.246215
 20
87.335408
 30
0.0
 10
186.721161
 20
86.556645
 30
0.0
 10
185.942399
 20
86.031591
 30
0.0
 10
184.988748
 20
85.839058
 30
0.0
 10
184.035098
 20
86.031591
 30
0.0
 10
183.256336
 20
86.556645
 30
0.0
 10
182.731282
 20
87.335408
 30
0.0
 10
182.538748
 20
88.289058
 30
0.0
 10
182.731282
 20
89.242708
 30
0.0
 10
183.256336
 20
90.021469
 30
0.0
 10
184.035098
 20
90.546525
 30
0.0
 10
184.988748
 20
90.739058
 30
0.0
 10
185.942399
 20
90.546525
 30
0.0
 10
186.721161
 20
90.021469
 30
0.0
 10
187.246215
 20
89.242708
 30
0.0
 10
187.438748
 20
88.289058
 30
0.0
  0
LWPOLYLINE
  5
125
100
AcDbEntity
  8
0
 62
7
100
AcDbPolyline
 90
17
 70
0
 10
114.938721
 20
160.789065
 30
0.0
 10
114.746188
 20
159.835415
 30
0.0
 10
114.221134
 20
159.056653
 30
0.0
 10
113.442372
 20
158.531598
 30
0.0
 10
112.488721
 20
158.339065
 30
0.0
 10
111.535071
 20
158.531598
 30
0.0
 10
110.756309
 20
159.056653
 30
0.0
 10
110.231255
 20
159.835415
 30
0.0
 10
110.038721
 20
160.789065
 30
0.0
 10
110.231255
 20
161.742715
 30
0.0
 10
110.756309
 20
162.521476
 30
0.0
 10
111.535071
 20
163.046532
 30
0.0
 10
112.488721
 20
163.239065
 30
0.0
 10
113.442372
 20
163.046532
 30
0.0
 10
114.221134
 20
162.521476
 30
0.0
 10
114.746188
 20
161.742715
 30
0.0
 10
114.938721
 20
160.789065
 30
0.0
  0
ENDSEC
  0
SECTION
  2
OBJECTS
  0
DICTIONARY
  5
C
330
0
100
AcDbDictionary
  3
ACAD_GROUP
350
D
  3
ACAD_MLINESTYLE
350
17
  0
DICTIONARY
  5
D
330
C
100
AcDbDictionary
  0
DICTIONARY
  5
1A
330
C
100
AcDbDictionary
  0
DICTIONARY
  5
17
330
C
100
AcDbDictionary
  3
STANDARD
350
18
  0
DICTIONARY
  5
19
330
C
100
AcDbDictionary
  0
ENDSEC
  0
EOF
