  0
SECTION
  2
HEADER
  9
$ACADVER
  1
AC1014
  9
$HANDSEED
  5
FFFF
  9
$MEASUREMENT
 70
     1
  0
ENDSEC
  0
SECTION
  2
TABLES
  0
TABLE
  2
VPORT
  5
8
330
0
100
AcDbSymbolTable
 70
     4
  0
VPORT
  5
2E
330
8
100
AcDbSymbolTableRecord
100
AcDbViewportTableRecord
  2
*ACTIVE
 70
     0
 10
0.0
 20
0.0
 11
1.0
 21
1.0
 12
210.0
 22
148.5
 13
0.0
 23
0.0
 14
10.0
 24
10.0
 15
10.0
 25
10.0
 16
0.0
 26
0.0
 36
1.0
 17
0.0
 27
0.0
 37
0.0
 40
341.0
 41
1.24
 42
50.0
 43
0.0
 44
0.0
 50
0.0
 51
0.0
 71
     0
 72
   100
 73
     1
 74
     3
 75
     0
 76
     0
 77
     0
 78
     0
  0
ENDTAB
  0
TABLE
  2
LTYPE
  5
5
330
0
100
AcDbSymbolTable
 70
     1
  0
LTYPE
  5
14
330
5
100
AcDbSymbolTableRecord
100
AcDbLinetypeTableRecord
  2
BYBLOCK
 70
     0
  3

 72
    65
 73
     0
 40
0.0
  0
LTYPE
  5
15
330
5
100
AcDbSymbolTableRecord
100
AcDbLinetypeTableRecord
  2
BYLAYER
 70
     0
  3

 72
    65
 73
     0
 40
0.0
  0
LTYPE
  5
16
330
5
100
AcDbSymbolTableRecord
100
AcDbLinetypeTableRecord
  2
CONTINUOUS
 70
     0
  3
Solid line
 72
    65
 73
     0
 40
0.0
  0
ENDTAB
  0
TABLE
  2
LAYER
  5
2
100
AcDbSymbolTable
 70
1
  0
LAYER
  5
50
100
AcDbSymbolTableRecord
100
AcDbLayerTableRecord
  2
0
 70
0
  6
CONTINUOUS
  0
ENDTAB
  0
TABLE
  2
STYLE
  5
3
330
0
100
AcDbSymbolTable
 70
     1
  0
STYLE
  5
11
330
3
100
AcDbSymbolTableRecord
100
AcDbTextStyleTableRecord
  2
STANDARD
 70
     0
 40
0.0
 41
1.0
 50
0.0
 71
     0
 42
2.5
  3
txt
  4

  0
ENDTAB
  0
TABLE
  2
VIEW
  5
6
330
0
100
AcDbSymbolTable
 70
     0
  0
ENDTAB
  0
TABLE
  2
UCS
  5
7
330
0
100
AcDbSymbolTable
 70
     0
  0
ENDTAB
  0
TABLE
  2
APPID
  5
9
330
0
100
AcDbSymbolTable
 70
     2
  0
APPID
  5
12
330
9
100
AcDbSymbolTableRecord
100
AcDbRegAppTableRecord
  2
ACAD
 70
     0
  0
ENDTAB
  0
TABLE
  2
DIMSTYLE
  5
A
330
0
100
AcDbSymbolTable
 70
     1
  0
DIMSTYLE
105
27
330
A
100
AcDbSymbolTableRecord
100
AcDbDimStyleTableRecord
  2
ISO-25
 70
     0
  3

  4

  5

  6

  7

 40
1.0
 41
2.5
 42
0.625
 43
3.75
 44
1.25
 45
0.0
 46
0.0
 47
0.0
 48
0.0
140
2.5
141
2.5
142
0.0
143
0.03937007874016
144
1.0
145
0.0
146
1.0
147
0.625
 71
     0
 72
     0
 73
     0
 74
     0
 75
     0
 76
     0
 77
     1
 78
     8
170
     0
171
     3
172
     1
173
     0
174
     0
175
     0
176
     0
177
     0
178
     0
270
     2
271
     2
272
     2
273
     2
274
     3
340
11
275
     0
280
     0
281
     0
282
     0
283
     0
284
     8
285
     0
286
     0
287
     3
288
     0
  0
ENDTAB
  0
TABLE
  2
BLOCK_RECORD
  5
1
330
0
100
AcDbSymbolTable
 70
     1
  0
BLOCK_RECORD
  5
1F
330
1
100
AcDbSymbolTableRecord
100
AcDbBlockTableRecord
  2
*MODEL_SPACE
  0
BLOCK_RECORD
  5
1B
330
1
100
AcDbSymbolTableRecord
100
AcDbBlockTableRecord
  2
*PAPER_SPACE
  0
ENDTAB
  0
ENDSEC
  0
SECTION
  2
BLOCKS
  0
BLOCK
  5
20
330
1F
100
AcDbEntity
  8
0
100
AcDbBlockBegin
  2
*MODEL_SPACE
 70
     0
 10
0.0
 20
0.0
 30
0.0
  3
*MODEL_SPACE
  1

  0
ENDBLK
  5
21
330
1F
100
AcDbEntity
  8
0
100
AcDbBlockEnd
  0
BLOCK
  5
1C
330
1B
100
AcDbEntity
 67
     1
  8
0
100
AcDbBlockBegin
  2
*PAPER_SPACE
  1

  0
ENDBLK
  5
1D
330
1B
100
AcDbEntity
 67
     1
  8
0
100
AcDbBlockEnd
  0
ENDSEC
  0
SECTION
  2
ENTITIES
  0
LWPOLYLINE
  5
100
100
AcDbEntity
  8
0
 62
7
100
AcDbPolyline
 90
65
 70
0
 10
196.010485
 20
72.670781
 30
0.0
 10
196.312107
 20
72.655570
 30
0.0
 10
196.605014
 20
72.610866
 30
0.0
 10
196.887722
 20
72.538176
 30
0.0
 10
197.158762
 20
72.438975
 30
0.0
 10
197.416640
 20
72.314752
 30
0.0
 10
197.659865
 20
72.166987
 30
0.0
 10
197.886961
 20
71.997165
 30
0.0
 10
198.096457
 20
71.806764
 30
0.0
 10
198.286841
 20
71.597273
 30
0.0
 10
198.456677
 20
71.370174
 30
0.0
 10
198.604432
 20
71.126947
 30
0.0
 10
198.728657
 20
70.869075
 30
0.0
 10
198.827853
 20
70.598040
 30
0.0
 10
198.900550
 20
70.315329
 30
0.0
 10
198.945254
 20
70.022422
 30
0.0
 10
198.960410
 20
69.720800
 30
0.0
 10
198.945254
 20
69.419181
 30
0.0
 10
198.900550
 20
69.126273
 30
0.0
 10
198.827853
 20
68.843563
 30
0.0
 10
198.728657
 20
68.572528
 30
0.0
 10
198.604432
 20
68.314656
 30
0.0
 10
198.456677
 20
68.071428
 30
0.0
 10
198.286841
 20
67.844327
 30
0.0
 10
198.096457
 20
67.634836
 30
0.0
 10
197.886961
 20
67.444438
 30
0.0
 10
197.659865
 20
67.274613
 30
0.0
 10
197.416640
 20
67.126850
 30
0.0
 10
197.158762
 20
67.002627
 30
0.0
 10
196.887722
 20
66.903426
 30
0.0
 10
196.605014
 20
66.830734
 30
0.0
 10
196.312107
 20
66.786030
 30
0.0
 10
196.010485
 20
66.770819
 30
0.0
 10
195.708860
 20
66.786030
 30
0.0
 10
195.415953
 20
66.830734
 30
0.0
 10
195.133248
 20
66.903426
 30
0.0
 10
194.862204
 20
67.002627
 30
0.0
 10
194.604330
 20
67.126850
 30
0.0
 10
194.361105
 20
67.274613
 30
0.0
 10
194.134009
 20
67.444438
 30
0.0
 10
193.924527
 20
67.634836
 30
0.0
 10
193.734128
 20
67.844327
 30
0.0
 10
193.564293
 20
68.071428
 30
0.0
 10
193.416538
 20
68.314656
 30
0.0
 10
193.292312
 20
68.572528
 30
0.0
 10
193.193117
 20
68.843563
 30
0.0
 10
193.120416
 20
69.126273
 30
0.0
 10
193.075715
 20
69.419181
 30
0.0
 10
193.060560
 20
69.720800
 30
0.0
 10
193.075715
 20
70.022422
 30
0.0
 10
193.120416
 20
70.315329
 30
0.0
 10
193.193117
 20
70.598040
 30
0.0
 10
193.292312
 20
70.869075
 30
0.0
 10
193.416538
 20
71.126947
 30
0.0
 10
193.564293
 20
71.370174
 30
0.0
 10
193.734128
 20
71.597273
 30
0.0
 10
193.924527
 20
71.806764
 30
0.0
 10
194.134009
 20
71.997165
 30
0.0
 10
194.361105
 20
72.166987
 30
0.0
 10
194.604330
 20
72.314752
 30
0.0
 10
194.862204
 20
72.438975
 30
0.0
 10
195.133248
 20
72.538176
 30
0.0
 10
195.415953
 20
72.610866
 30
0.0
 10
195.708860
 20
72.655570
 30
0.0
 10
196.010485
 20
72.670781
 30
0.0
  0
LWPOLYLINE
  5
101
100
AcDbEntity
  8
0
 62
7
100
AcDbPolyline
 90
82
 70
0
 10
162.695314
 20
66.347547
 30
0.0
 10
162.759102
 20
67.611844
 30
0.0
 10
162.946328
 20
68.839649
 30
0.0
 10
163.250776
 20
70.024748
 30
0.0
 10
163.666232
 20
71.160915
 30
0.0
 10
164.186483
 20
72.241936
 30
0.0
 10
164.805318
 20
73.261585
 30
0.0
 10
165.516523
 20
74.213648
 30
0.0
 10
166.313883
 20
75.091901
 30
0.0
 10
167.191185
 20
75.890121
 30
0.0
 10
168.142217
 20
76.602097
 30
0.0
 10
169.160766
 20
77.221601
 30
0.0
 10
170.240616
 20
77.742416
 30
0.0
 10
171.375553
 20
78.158322
 30
0.0
 10
172.559368
 20
78.463099
 30
0.0
 10
173.785846
 20
78.650526
 30
0.0
 10
175.048774
 20
78.714384
 30
0.0
 10
176.311701
 20
78.650526
 30
0.0
 10
177.538180
 20
78.463099
 30
0.0
 10
178.721995
 20
78.158322
 30
0.0
 10
179.856932
 20
77.742416
 30
0.0
 10
180.936781
 20
77.221601
 30
0.0
 10
181.955330
 20
76.602097
 30
0.0
 10
182.906362
 20
75.890121
 30
0.0
 10
183.783664
 20
75.091901
 30
0.0
 10
184.581024
 20
74.213648
 30
0.0
 10
185.292230
 20
73.261585
 30
0.0
 10
185.911064
 20
72.241936
 30
0.0
 10
186.431315
 20
71.160915
 30
0.0
 10
186.846772
 20
70.024748
 30
0.0
 10
187.151219
 20
68.839649
 30
0.0
 10
187.338445
 20
67.611844
 30
0.0
 10
187.402233
 20
66.347547
 30
0.0
 10
187.396701
 20
65.974159
 30
0.0
 10
187.380220
 20
65.603615
 30
0.0
 10
187.352957
 20
65.236066
 30
0.0
 10
187.315057
 20
64.871646
 30
0.0
 10
187.266679
 20
64.510501
 30
0.0
 10
187.207974
 20
64.152773
 30
0.0
 10
187.139100
 20
63.798604
 30
0.0
 10
187.060216
 20
63.448135
 30
0.0
 10
186.971472
 20
63.101506
 30
0.0
 10
186.873024
 20
62.758866
 30
0.0
 10
186.765032
 20
62.420352
 30
0.0
 10
186.647650
 20
62.086105
 30
0.0
 10
186.521031
 20
61.756272
 30
0.0
 10
186.385330
 20
61.430991
 30
0.0
 10
186.240708
 20
61.110403
 30
0.0
 10
186.087317
 20
60.794656
 30
0.0
 10
184.708190
 20
60.794656
 30
0.0
 10
183.329061
 20
60.794656
 30
0.0
 10
181.949934
 20
60.794656
 30
0.0
 10
180.570804
 20
60.794656
 30
0.0
 10
179.191674
 20
60.794656
 30
0.0
 10
177.812548
 20
60.794656
 30
0.0
 10
176.433421
 20
60.794656
 30
0.0
 10
175.054291
 20
60.794656
 30
0.0
 10
173.675164
 20
60.794656
 30
0.0
 10
172.296034
 20
60.794656
 30
0.0
 10
170.916908
 20
60.794656
 30
0.0
 10
169.537778
 20
60.794656
 30
0.0
 10
168.158648
 20
60.794656
 30
0.0
 10
166.779521
 20
60.794656
 30
0.0
 10
165.400395
 20
60.794656
 30
0.0
 10
164.021265
 20
60.794656
 30
0.0
 10
163.867671
 20
61.110468
 30
0.0
 10
163.722637
 20
61.431087
 30
0.0
 10
163.586355
 20
61.756373
 30
0.0
 10
163.459002
 20
62.086192
 30
0.0
 10
163.340771
 20
62.420408
 30
0.0
 10
163.231847
 20
62.758880
 30
0.0
 10
163.132412
 20
63.101473
 30
0.0
 10
163.042656
 20
63.448050
 30
0.0
 10
162.962762
 20
63.798471
 30
0.0
 10
162.892918
 20
64.152598
 30
0.0
 10
162.833310
 20
64.510298
 30
0.0
 10
162.784121
 20
64.871432
 30
0.0
 10
162.745541
 20
65.235860
 30
0.0
 10
162.717742
 20
65.603446
 30
0.0
 10
162.700922
 20
65.974054
 30
0.0
 10
162.695278
 20
66.347547
 30
0.0
 10
162.695314
 20
66.347547
 30
0.0
  0
LWPOLYLINE
  5
102
100
AcDbEntity
  8
0
 62
7
100
AcDbPolyline
 90
82
 70
0
 10
104.690886
 20
66.347547
 30
0.0
 10
104.754674
 20
67.611844
 30
0.0
 10
104.941901
 20
68.839649
 30
0.0
 10
105.246348
 20
70.024748
 30
0.0
 10
105.661804
 20
71.160915
 30
0.0
 10
106.182056
 20
72.241936
 30
0.0
 10
106.800890
 20
73.261585
 30
0.0
 10
107.512096
 20
74.213648
 30
0.0
 10
108.309455
 20
75.091901
 30
0.0
 10
109.186757
 20
75.890121
 30
0.0
 10
110.137789
 20
76.602097
 30
0.0
 10
111.156338
 20
77.221601
 30
0.0
 10
112.236188
 20
77.742416
 30
0.0
 10
113.371125
 20
78.158322
 30
0.0
 10
114.554940
 20
78.463099
 30
0.0
 10
115.781418
 20
78.650526
 30
0.0
 10
117.044346
 20
78.714384
 30
0.0
 10
118.307273
 20
78.650526
 30
0.0
 10
119.533752
 20
78.463099
 30
0.0
 10
120.717567
 20
78.158322
 30
0.0
 10
121.852504
 20
77.742416
 30
0.0
 10
122.932354
 20
77.221601
 30
0.0
 10
123.950902
 20
76.602097
 30
0.0
 10
124.901935
 20
75.890121
 30
0.0
 10
125.779236
 20
75.091898
 30
0.0
 10
126.576596
 20
74.213648
 30
0.0
 10
127.287802
 20
73.261585
 30
0.0
 10
127.906636
 20
72.241936
 30
0.0
 10
128.426887
 20
71.160915
 30
0.0
 10
128.842344
 20
70.024748
 30
0.0
 10
129.146791
 20
68.839649
 30
0.0
 10
129.334017
 20
67.611844
 30
0.0
 10
129.397805
 20
66.347547
 30
0.0
 10
129.392274
 20
65.974159
 30
0.0
 10
129.375792
 20
65.603615
 30
0.0
 10
129.348529
 20
65.236066
 30
0.0
 10
129.310630
 20
64.871646
 30
0.0
 10
129.262251
 20
64.510501
 30
0.0
 10
129.203546
 20
64.152773
 30
0.0
 10
129.134672
 20
63.798604
 30
0.0
 10
129.055789
 20
63.448135
 30
0.0
 10
128.967044
 20
63.101506
 30
0.0
 10
128.868596
 20
62.758866
 30
0.0
 10
128.760604
 20
62.420352
 30
0.0
 10
128.643222
 20
62.086105
 30
0.0
 10
128.516603
 20
61.756272
 30
0.0
 10
128.380902
 20
61.430991
 30
0.0
 10
128.236280
 20
61.110403
 30
0.0
 10
128.082889
 20
60.794656
 30
0.0
 10
126.703760
 20
60.794656
 30
0.0
 10
125.324633
 20
60.794656
 30
0.0
 10
123.945506
 20
60.794656
 30
0.0
 10
122.566376
 20
60.794656
 30
0.0
 10
121.187250
 20
60.794656
 30
0.0
 10
119.808120
 20
60.794656
 30
0.0
 10
118.428990
 20
60.794656
 30
0.0
 10
117.049863
 20
60.794656
 30
0.0
 10
115.670736
 20
60.794656
 30
0.0
 10
114.291607
 20
60.794656
 30
0.0
 10
112.912477
 20
60.794656
 30
0.0
 10
111.533350
 20
60.794656
 30
0.0
 10
110.154223
 20
60.794656
 30
0.0
 10
108.775094
 20
60.794656
 30
0.0
 10
107.395964
 20
60.794656
 30
0.0
 10
106.016837
 20
60.794656
 30
0.0
 10
105.863243
 20
61.110468
 30
0.0
 10
105.718209
 20
61.431087
 30
0.0
 10
105.581927
 20
61.756373
 30
0.0
 10
105.454574
 20
62.086192
 30
0.0
 10
105.336343
 20
62.420408
 30
0.0
 10
105.227419
 20
62.758880
 30
0.0
 10
105.127984
 20
63.101473
 30
0.0
 10
105.038229
 20
63.448050
 30
0.0
 10
104.958334
 20
63.798471
 30
0.0
 10
104.888490
 20
64.152598
 30
0.0
 10
104.828882
 20
64.510298
 30
0.0
 10
104.779693
 20
64.871432
 30
0.0
 10
104.741114
 20
65.235860
 30
0.0
 10
104.713315
 20
65.603446
 30
0.0
 10
104.696494
 20
65.974054
 30
0.0
 10
104.690850
 20
66.347547
 30
0.0
 10
104.690886
 20
66.347547
 30
0.0
  0
LWPOLYLINE
  5
103
100
AcDbEntity
  8
0
 62
7
100
AcDbPolyline
 90
65
 70
0
 10
138.006026
 20
72.670725
 30
0.0
 10
138.307651
 20
72.655513
 30
0.0
 10
138.600558
 20
72.610809
 30
0.0
 10
138.883263
 20
72.538120
 30
0.0
 10
139.154306
 20
72.438919
 30
0.0
 10
139.412181
 20
72.314696
 30
0.0
 10
139.655409
 20
72.166930
 30
0.0
 10
139.882502
 20
71.997108
 30
0.0
 10
140.092001
 20
71.806707
 30
0.0
 10
140.282382
 20
71.597217
 30
0.0
 10
140.452218
 20
71.370118
 30
0.0
 10
140.599973
 20
71.126890
 30
0.0
 10
140.724199
 20
70.869018
 30
0.0
 10
140.823394
 20
70.597983
 30
0.0
 10
140.896094
 20
70.315273
 30
0.0
 10
140.940798
 20
70.022366
 30
0.0
 10
140.955954
 20
69.720744
 30
0.0
 10
140.940798
 20
69.419124
 30
0.0
 10
140.896094
 20
69.126217
 30
0.0
 10
140.823394
 20
68.843507
 30
0.0
 10
140.724199
 20
68.572472
 30
0.0
 10
140.599973
 20
68.314600
 30
0.0
 10
140.452218
 20
68.071372
 30
0.0
 10
140.282382
 20
67.844271
 30
0.0
 10
140.092001
 20
67.634780
 30
0.0
 10
139.882502
 20
67.444381
 30
0.0
 10
139.655409
 20
67.274557
 30
0.0
 10
139.412181
 20
67.126794
 30
0.0
 10
139.154306
 20
67.002571
 30
0.0
 10
138.883263
 20
66.903370
 30
0.0
 10
138.600558
 20
66.830678
 30
0.0
 10
138.307651
 20
66.785974
 30
0.0
 10
138.006026
 20
66.770734
 30
0.0
 10
137.704404
 20
66.785974
 30
0.0
 10
137.411497
 20
66.830678
 30
0.0
 10
137.128789
 20
66.903370
 30
0.0
 10
136.857748
 20
67.002571
 30
0.0
 10
136.599874
 20
67.126794
 30
0.0
 10
136.356646
 20
67.274557
 30
0.0
 10
136.129550
 20
67.444381
 30
0.0
 10
135.920071
 20
67.634780
 30
0.0
 10
135.729670
 20
67.844271
 30
0.0
 10
135.559834
 20
68.071372
 30
0.0
 10
135.412079
 20
68.314600
 30
0.0
 10
135.287853
 20
68.572472
 30
0.0
 10
135.188658
 20
68.843507
 30
0.0
 10
135.115960
 20
69.126217
 30
0.0
 10
135.071256
 20
69.419124
 30
0.0
 10
135.056101
 20
69.720744
 30
0.0
 10
135.071256
 20
70.022366
 30
0.0
 10
135.115960
 20
70.315273
 30
0.0
 10
135.188658
 20
70.597983
 30
0.0
 10
135.287853
 20
70.869018
 30
0.0
 10
135.412079
 20
71.126890
 30
0.0
 10
135.559834
 20
71.370118
 30
0.0
 10
135.729670
 20
71.597217
 30
0.0
 10
135.920071
 20
71.806707
 30
0.0
 10
136.129550
 20
71.997108
 30
0.0
 10
136.356646
 20
72.166930
 30
0.0
 10
136.599874
 20
72.314696
 30
0.0
 10
136.857748
 20
72.438919
 30
0.0
 10
137.128789
 20
72.538120
 30
0.0
 10
137.411497
 20
72.610809
 30
0.0
 10
137.704404
 20
72.655513
 30
0.0
 10
138.006026
 20
72.670725
 30
0.0
  0
LWPOLYLINE
  5
104
100
AcDbEntity
  8
0
 62
7
100
AcDbPolyline
 90
82
 70
0
 10
55.817378
 20
70.990696
 30
0.0
 10
55.881166
 20
69.726399
 30
0.0
 10
56.068392
 20
68.498594
 30
0.0
 10
56.372839
 20
67.313495
 30
0.0
 10
56.788296
 20
66.177328
 30
0.0
 10
57.308547
 20
65.096307
 30
0.0
 10
57.927381
 20
64.076658
 30
0.0
 10
58.638587
 20
63.124595
 30
0.0
 10
59.435946
 20
62.246342
 30
0.0
 10
60.313248
 20
61.448122
 30
0.0
 10
61.264281
 20
60.736145
 30
0.0
 10
62.282829
 20
60.116642
 30
0.0
 10
63.362679
 20
59.595827
 30
0.0
 10
64.497616
 20
59.179921
 30
0.0
 10
65.681431
 20
58.875144
 30
0.0
 10
66.907910
 20
58.687717
 30
0.0
 10
68.170837
 20
58.623859
 30
0.0
 10
69.433765
 20
58.687717
 30
0.0
 10
70.660243
 20
58.875144
 30
0.0
 10
71.844058
 20
59.179921
 30
0.0
 10
72.978995
 20
59.595827
 30
0.0
 10
74.058845
 20
60.116642
 30
0.0
 10
75.077393
 20
60.736145
 30
0.0
 10
76.028426
 20
61.448122
 30
0.0
 10
76.905728
 20
62.246345
 30
0.0
 10
77.703087
 20
63.124595
 30
0.0
 10
78.414293
 20
64.076658
 30
0.0
 10
79.033127
 20
65.096307
 30
0.0
 10
79.553379
 20
66.177328
 30
0.0
 10
79.968835
 20
67.313495
 30
0.0
 10
80.273282
 20
68.498594
 30
0.0
 10
80.460509
 20
69.726399
 30
0.0
 10
80.524296
 20
70.990696
 30
0.0
 10
80.518765
 20
71.364084
 30
0.0
 10
80.502283
 20
71.734628
 30
0.0
 10
80.475020
 20
72.102177
 30
0.0
 10
80.437121
 20
72.466596
 30
0.0
 10
80.388742
 20
72.827742
 30
0.0
 10
80.330037
 20
73.185470
 30
0.0
 10
80.261164
 20
73.539639
 30
0.0
 10
80.182277
 20
73.890108
 30
0.0
 10
80.093535
 20
74.236737
 30
0.0
 10
79.995087
 20
74.579377
 30
0.0
 10
79.887095
 20
74.917891
 30
0.0
 10
79.769710
 20
75.252138
 30
0.0
 10
79.643094
 20
75.581971
 30
0.0
 10
79.507393
 20
75.907252
 30
0.0
 10
79.362771
 20
76.227840
 30
0.0
 10
79.209381
 20
76.543587
 30
0.0
 10
77.830254
 20
76.543587
 30
0.0
 10
76.451124
 20
76.543587
 30
0.0
 10
75.071994
 20
76.543587
 30
0.0
 10
73.692868
 20
76.543587
 30
0.0
 10
72.313741
 20
76.543587
 30
0.0
 10
70.934611
 20
76.543587
 30
0.0
 10
69.555481
 20
76.543587
 30
0.0
 10
68.176354
 20
76.543587
 30
0.0
 10
66.797228
 20
76.543587
 30
0.0
 10
65.418098
 20
76.543587
 30
0.0
 10
64.038971
 20
76.543587
 30
0.0
 10
62.659841
 20
76.543587
 30
0.0
 10
61.280715
 20
76.543587
 30
0.0
 10
59.901585
 20
76.543587
 30
0.0
 10
58.522455
 20
76.543587
 30
0.0
 10
57.143328
 20
76.543587
 30
0.0
 10
56.989734
 20
76.227775
 30
0.0
 10
56.844700
 20
75.907156
 30
0.0
 10
56.708418
 20
75.581870
 30
0.0
 10
56.581065
 20
75.252051
 30
0.0
 10
56.462834
 20
74.917835
 30
0.0
 10
56.353910
 20
74.579363
 30
0.0
 10
56.254475
 20
74.236770
 30
0.0
 10
56.164720
 20
73.890193
 30
0.0
 10
56.084826
 20
73.539772
 30
0.0
 10
56.014981
 20
73.185645
 30
0.0
 10
55.955373
 20
72.827945
 30
0.0
 10
55.906185
 20
72.466811
 30
0.0
 10
55.867605
 20
72.102383
 30
0.0
 10
55.839806
 20
71.734797
 30
0.0
 10
55.822985
 20
71.364188
 30
0.0
 10
55.817341
 20
70.990696
 30
0.0
 10
55.817378
 20
70.990696
 30
0.0
  0
LWPOLYLINE
  5
105
100
AcDbEntity
  8
0
 62
7
100
AcDbPolyline
 90
65
 70
0
 10
89.311531
 20
71.844745
 30
0.0
 10
89.613156
 20
71.829533
 30
0.0
 10
89.906063
 20
71.784829
 30
0.0
 10
90.188771
 20
71.712140
 30
0.0
 10
90.459811
 20
71.612939
 30
0.0
 10
90.717686
 20
71.488716
 30
0.0
 10
90.960914
 20
71.340950
 30
0.0
 10
91.188007
 20
71.171129
 30
0.0
 10
91.397506
 20
70.980727
 30
0.0
 10
91.587887
 20
70.771237
 30
0.0
 10
91.757723
 20
70.544138
 30
0.0
 10
91.905478
 20
70.300911
 30
0.0
 10
92.029703
 20
70.043039
 30
0.0
 10
92.128899
 20
69.772004
 30
0.0
 10
92.201599
 20
69.489293
 30
0.0
 10
92.246303
 20
69.196386
 30
0.0
 10
92.261459
 20
68.894764
 30
0.0
 10
92.246303
 20
68.593144
 30
0.0
 10
92.201599
 20
68.300237
 30
0.0
 10
92.128899
 20
68.017527
 30
0.0
 10
92.029703
 20
67.746492
 30
0.0
 10
91.905478
 20
67.488620
 30
0.0
 10
91.757723
 20
67.245392
 30
0.0
 10
91.587887
 20
67.018291
 30
0.0
 10
91.397506
 20
66.808800
 30
0.0
 10
91.188007
 20
66.618402
 30
0.0
 10
90.960914
 20
66.448577
 30
0.0
 10
90.717686
 20
66.300814
 30
0.0
 10
90.459811
 20
66.176591
 30
0.0
 10
90.188771
 20
66.077390
 30
0.0
 10
89.906063
 20
66.004698
 30
0.0
 10
89.613156
 20
65.959994
 30
0.0
 10
89.311531
 20
65.944782
 30
0.0
 10
89.009909
 20
65.959994
 30
0.0
 10
88.717001
 20
66.004698
 30
0.0
 10
88.434294
 20
66.077390
 30
0.0
 10
88.163253
 20
66.176591
 30
0.0
 10
87.905378
 20
66.300814
 30
0.0
 10
87.662151
 20
66.448577
 30
0.0
 10
87.435055
 20
66.618402
 30
0.0
 10
87.225576
 20
66.808800
 30
0.0
 10
87.035174
 20
67.018291
 30
0.0
 10
86.865339
 20
67.245392
 30
0.0
 10
86.717584
 20
67.488620
 30
0.0
 10
86.593361
 20
67.746492
 30
0.0
 10
86.494163
 20
68.017527
 30
0.0
 10
86.421465
 20
68.300237
 30
0.0
 10
86.376761
 20
68.593144
 30
0.0
 10
86.361606
 20
68.894764
 30
0.0
 10
86.376761
 20
69.196386
 30
0.0
 10
86.421465
 20
69.489293
 30
0.0
 10
86.494163
 20
69.772004
 30
0.0
 10
86.593361
 20
70.043039
 30
0.0
 10
86.717584
 20
70.300911
 30
0.0
 10
86.865339
 20
70.544138
 30
0.0
 10
87.035174
 20
70.771237
 30
0.0
 10
87.225576
 20
70.980727
 30
0.0
 10
87.435055
 20
71.171129
 30
0.0
 10
87.662151
 20
71.340950
 30
0.0
 10
87.905378
 20
71.488716
 30
0.0
 10
88.163253
 20
71.612939
 30
0.0
 10
88.434294
 20
71.712140
 30
0.0
 10
88.717001
 20
71.784829
 30
0.0
 10
89.009909
 20
71.829533
 30
0.0
 10
89.311531
 20
71.844745
 30
0.0
  0
LWPOLYLINE
  5
106
100
AcDbEntity
  8
0
 62
7
100
AcDbPolyline
 90
82
 70
0
 10
7.122856
 20
66.554162
 30
0.0
 10
7.186645
 20
67.818459
 30
0.0
 10
7.373869
 20
69.046263
 30
0.0
 10
7.678317
 20
70.231363
 30
0.0
 10
8.093773
 20
71.367530
 30
0.0
 10
8.614026
 20
72.448551
 30
0.0
 10
9.232860
 20
73.468200
 30
0.0
 10
9.944064
 20
74.420263
 30
0.0
 10
10.741424
 20
75.298513
 30
0.0
 10
11.618727
 20
76.096736
 30
0.0
 10
12.569758
 20
76.808712
 30
0.0
 10
13.588306
 20
77.428216
 30
0.0
 10
14.668156
 20
77.949031
 30
0.0
 10
15.803095
 20
78.364936
 30
0.0
 10
16.986910
 20
78.669714
 30
0.0
 10
18.213388
 20
78.857140
 30
0.0
 10
19.476315
 20
78.920999
 30
0.0
 10
20.739242
 20
78.857140
 30
0.0
 10
21.965719
 20
78.669714
 30
0.0
 10
23.149535
 20
78.364936
 30
0.0
 10
24.284474
 20
77.949031
 30
0.0
 10
25.364324
 20
77.428216
 30
0.0
 10
26.382871
 20
76.808712
 30
0.0
 10
27.333903
 20
76.096736
 30
0.0
 10
28.211205
 20
75.298513
 30
0.0
 10
29.008564
 20
74.420263
 30
0.0
 10
29.719770
 20
73.468200
 30
0.0
 10
30.338604
 20
72.448551
 30
0.0
 10
30.858855
 20
71.367530
 30
0.0
 10
31.274312
 20
70.231363
 30
0.0
 10
31.578759
 20
69.046263
 30
0.0
 10
31.765985
 20
67.818459
 30
0.0
 10
31.829773
 20
66.554162
 30
0.0
 10
31.824241
 20
66.180774
 30
0.0
 10
31.807760
 20
65.810230
 30
0.0
 10
31.780497
 20
65.442681
 30
0.0
 10
31.742597
 20
65.078261
 30
0.0
 10
31.694219
 20
64.717116
 30
0.0
 10
31.635514
 20
64.359388
 30
0.0
 10
31.566640
 20
64.005219
 30
0.0
 10
31.487753
 20
63.654749
 30
0.0
 10
31.399012
 20
63.308121
 30
0.0
 10
31.300564
 20
62.965481
 30
0.0
 10
31.192572
 20
62.626967
 30
0.0
 10
31.075187
 20
62.292720
 30
0.0
 10
30.948571
 20
61.962886
 30
0.0
 10
30.812870
 20
61.637606
 30
0.0
 10
30.668248
 20
61.317018
 30
0.0
 10
30.514857
 20
61.001271
 30
0.0
 10
29.135730
 20
61.001271
 30
0.0
 10
27.756601
 20
61.001271
 30
0.0
 10
26.377473
 20
61.001271
 30
0.0
 10
24.998344
 20
61.001271
 30
0.0
 10
23.619216
 20
61.001271
 30
0.0
 10
22.240088
 20
61.001271
 30
0.0
 10
20.860960
 20
61.001271
 30
0.0
 10
19.481832
 20
61.001271
 30
0.0
 10
18.102704
 20
61.001271
 30
0.0
 10
16.723575
 20
61.001271
 30
0.0
 10
15.344447
 20
61.001271
 30
0.0
 10
13.965319
 20
61.001271
 30
0.0
 10
12.586191
 20
61.001271
 30
0.0
 10
11.207063
 20
61.001271
 30
0.0
 10
9.827935
 20
61.001271
 30
0.0
 10
8.448806
 20
61.001271
 30
0.0
 10
8.295212
 20
61.317083
 30
0.0
 10
8.150180
 20
61.637702
 30
0.0
 10
8.013895
 20
61.962988
 30
0.0
 10
7.886544
 20
62.292807
 30
0.0
 10
7.768313
 20
62.627023
 30
0.0
 10
7.659387
 20
62.965495
 30
0.0
 10
7.559954
 20
63.308087
 30
0.0
 10
7.470197
 20
63.654665
 30
0.0
 10
7.390304
 20
64.005086
 30
0.0
 10
7.320460
 20
64.359213
 30
0.0
 10
7.260851
 20
64.716913
 30
0.0
 10
7.211663
 20
65.078047
 30
0.0
 10
7.173083
 20
65.442475
 30
0.0
 10
7.145295
 20
65.810061
 30
0.0
 10
7.128486
 20
66.180669
 30
0.0
 10
7.122842
 20
66.554162
 30
0.0
 10
7.122856
 20
66.554162
 30
0.0
  0
LWPOLYLINE
  5
107
100
AcDbEntity
  8
0
 62
7
100
AcDbPolyline
 90
65
 70
0
 10
40.438022
 20
72.877368
 30
0.0
 10
40.739647
 20
72.862156
 30
0.0
 10
41.032554
 20
72.817452
 30
0.0
 10
41.315262
 20
72.744763
 30
0.0
 10
41.586302
 20
72.645562
 30
0.0
 10
41.844177
 20
72.521339
 30
0.0
 10
42.087405
 20
72.373573
 30
0.0
 10
42.314498
 20
72.203752
 30
0.0
 10
42.523997
 20
72.013350
 30
0.0
 10
42.714378
 20
71.803860
 30
0.0
 10
42.884214
 20
71.576761
 30
0.0
 10
43.031969
 20
71.333533
 30
0.0
 10
43.156195
 20
71.075661
 30
0.0
 10
43.255390
 20
70.804626
 30
0.0
 10
43.328090
 20
70.521916
 30
0.0
 10
43.372794
 20
70.229009
 30
0.0
 10
43.387950
 20
69.927387
 30
0.0
 10
43.372794
 20
69.625767
 30
0.0
 10
43.328090
 20
69.332860
 30
0.0
 10
43.255390
 20
69.050150
 30
0.0
 10
43.156195
 20
68.779115
 30
0.0
 10
43.031969
 20
68.521243
 30
0.0
 10
42.884214
 20
68.278015
 30
0.0
 10
42.714378
 20
68.050914
 30
0.0
 10
42.523997
 20
67.841423
 30
0.0
 10
42.314498
 20
67.651025
 30
0.0
 10
42.087405
 20
67.481200
 30
0.0
 10
41.844177
 20
67.333437
 30
0.0
 10
41.586302
 20
67.209214
 30
0.0
 10
41.315262
 20
67.110013
 30
0.0
 10
41.032554
 20
67.037321
 30
0.0
 10
40.739647
 20
66.992617
 30
0.0
 10
40.438022
 20
66.977405
 30
0.0
 10
40.136400
 20
66.992617
 30
0.0
 10
39.843493
 20
67.037321
 30
0.0
 10
39.560785
 20
67.110013
 30
0.0
 10
39.289744
 20
67.209214
 30
0.0
 10
39.031870
 20
67.333437
 30
0.0
 10
38.788642
 20
67.481200
 30
0.0
 10
38.561546
 20
67.651025
 30
0.0
 10
38.352067
 20
67.841423
 30
0.0
 10
38.161666
 20
68.050914
 30
0.0
 10
37.991833
 20
68.278015
 30
0.0
 10
37.844075
 20
68.521243
 30
0.0
 10
37.719852
 20
68.779115
 30
0.0
 10
37.620657
 20
69.050150
 30
0.0
 10
37.547956
 20
69.332860
 30
0.0
 10
37.503252
 20
69.625767
 30
0.0
 10
37.488097
 20
69.927387
 30
0.0
 10
37.503252
 20
70.229009
 30
0.0
 10
37.547956
 20
70.521916
 30
0.0
 10
37.620657
 20
70.804626
 30
0.0
 10
37.719852
 20
71.075661
 30
0.0
 10
37.844075
 20
71.333533
 30
0.0
 10
37.991833
 20
71.576761
 30
0.0
 10
38.161666
 20
71.803860
 30
0.0
 10
38.352067
 20
72.013350
 30
0.0
 10
38.561546
 20
72.203752
 30
0.0
 10
38.788642
 20
72.373573
 30
0.0
 10
39.031870
 20
72.521339
 30
0.0
 10
39.289744
 20
72.645562
 30
0.0
 10
39.560785
 20
72.744763
 30
0.0
 10
39.843493
 20
72.817452
 30
0.0
 10
40.136400
 20
72.862156
 30
0.0
 10
40.438022
 20
72.877368
 30
0.0
  0
LWPOLYLINE
  5
108
100
AcDbEntity
  8
0
 62
7
100
AcDbPolyline
 90
65
 70
0
 10
196.010485
 20
128.898481
 30
0.0
 10
196.312107
 20
128.883241
 30
0.0
 10
196.605014
 20
128.838537
 30
0.0
 10
196.887722
 20
128.765847
 30
0.0
 10
197.158762
 20
128.666646
 30
0.0
 10
197.416640
 20
128.542423
 30
0.0
 10
197.659865
 20
128.394657
 30
0.0
 10
197.886961
 20
128.224836
 30
0.0
 10
198.096457
 20
128.034435
 30
0.0
 10
198.286841
 20
127.824944
 30
0.0
 10
198.456677
 20
127.597845
 30
0.0
 10
198.604432
 20
127.354618
 30
0.0
 10
198.728657
 20
127.096746
 30
0.0
 10
198.827853
 20
126.825711
 30
0.0
 10
198.900550
 20
126.543000
 30
0.0
 10
198.945254
 20
126.250093
 30
0.0
 10
198.960410
 20
125.948471
 30
0.0
 10
198.945254
 20
125.646852
 30
0.0
 10
198.900550
 20
125.353944
 30
0.0
 10
198.827853
 20
125.071234
 30
0.0
 10
198.728657
 20
124.800199
 30
0.0
 10
198.604432
 20
124.542327
 30
0.0
 10
198.456677
 20
124.299099
 30
0.0
 10
198.286841
 20
124.071998
 30
0.0
 10
198.096457
 20
123.862507
 30
0.0
 10
197.886961
 20
123.672109
 30
0.0
 10
197.659865
 20
123.502284
 30
0.0
 10
197.416640
 20
123.354521
 30
0.0
 10
197.158762
 20
123.230298
 30
0.0
 10
196.887722
 20
123.131097
 30
0.0
 10
196.605014
 20
123.058405
 30
0.0
 10
196.312107
 20
123.013701
 30
0.0
 10
196.010485
 20
122.998490
 30
0.0
 10
195.708860
 20
123.013701
 30
0.0
 10
195.415953
 20
123.058405
 30
0.0
 10
195.133248
 20
123.131097
 30
0.0
 10
194.862204
 20
123.230298
 30
0.0
 10
194.604330
 20
123.354521
 30
0.0
 10
194.361105
 20
123.502284
 30
0.0
 10
194.134009
 20
123.672109
 30
0.0
 10
193.924527
 20
123.862507
 30
0.0
 10
193.734128
 20
124.071998
 30
0.0
 10
193.564293
 20
124.299099
 30
0.0
 10
193.416538
 20
124.542327
 30
0.0
 10
193.292312
 20
124.800199
 30
0.0
 10
193.193117
 20
125.071234
 30
0.0
 10
193.120416
 20
125.353944
 30
0.0
 10
193.075715
 20
125.646852
 30
0.0
 10
193.060560
 20
125.948471
 30
0.0
 10
193.075715
 20
126.250093
 30
0.0
 10
193.120416
 20
126.543000
 30
0.0
 10
193.193117
 20
126.825711
 30
0.0
 10
193.292312
 20
127.096746
 30
0.0
 10
193.416538
 20
127.354618
 30
0.0
 10
193.564293
 20
127.597845
 30
0.0
 10
193.734128
 20
127.824944
 30
0.0
 10
193.924527
 20
128.034435
 30
0.0
 10
194.134009
 20
128.224836
 30
0.0
 10
194.361105
 20
128.394657
 30
0.0
 10
194.604330
 20
128.542423
 30
0.0
 10
194.862204
 20
128.666646
 30
0.0
 10
195.133248
 20
128.765847
 30
0.0
 10
195.415953
 20
128.838537
 30
0.0
 10
195.708860
 20
128.883241
 30
0.0
 10
196.010485
 20
128.898481
 30
0.0
  0
LWPOLYLINE
  5
109
100
AcDbEntity
  8
0
 62
7
100
AcDbPolyline
 90
82
 70
0
 10
162.695314
 20
122.575221
 30
0.0
 10
162.759102
 20
123.839515
 30
0.0
 10
162.946328
 20
125.067320
 30
0.0
 10
163.250776
 20
126.252413
 30
0.0
 10
163.666232
 20
127.388580
 30
0.0
 10
164.186483
 20
128.469599
 30
0.0
 10
164.805318
 20
129.489248
 30
0.0
 10
165.516523
 20
130.441308
 30
0.0
 10
166.313883
 20
131.319561
 30
0.0
 10
167.191185
 20
132.117781
 30
0.0
 10
168.142217
 20
132.829757
 30
0.0
 10
169.160766
 20
133.449260
 30
0.0
 10
170.240616
 20
133.970076
 30
0.0
 10
171.375553
 20
134.385981
 30
0.0
 10
172.559368
 20
134.690759
 30
0.0
 10
173.785846
 20
134.878185
 30
0.0
 10
175.048774
 20
134.942044
 30
0.0
 10
176.311701
 20
134.878185
 30
0.0
 10
177.538180
 20
134.690759
 30
0.0
 10
178.721995
 20
134.385981
 30
0.0
 10
179.856932
 20
133.970076
 30
0.0
 10
180.936781
 20
133.449260
 30
0.0
 10
181.955330
 20
132.829757
 30
0.0
 10
182.906362
 20
132.117781
 30
0.0
 10
183.783664
 20
131.319561
 30
0.0
 10
184.581024
 20
130.441308
 30
0.0
 10
185.292230
 20
129.489248
 30
0.0
 10
185.911064
 20
128.469599
 30
0.0
 10
186.431315
 20
127.388580
 30
0.0
 10
186.846772
 20
126.252413
 30
0.0
 10
187.151219
 20
125.067320
 30
0.0
 10
187.338445
 20
123.839515
 30
0.0
 10
187.402233
 20
122.575221
 30
0.0
 10
187.396701
 20
122.201830
 30
0.0
 10
187.380220
 20
121.831286
 30
0.0
 10
187.352957
 20
121.463734
 30
0.0
 10
187.315057
 20
121.099315
 30
0.0
 10
187.266679
 20
120.738169
 30
0.0
 10
187.207974
 20
120.380441
 30
0.0
 10
187.139100
 20
120.026269
 30
0.0
 10
187.060216
 20
119.675800
 30
0.0
 10
186.971472
 20
119.329172
 30
0.0
 10
186.873024
 20
118.986531
 30
0.0
 10
186.765032
 20
118.648017
 30
0.0
 10
186.647650
 20
118.313770
 30
0.0
 10
186.521031
 20
117.983934
 30
0.0
 10
186.385330
 20
117.658653
 30
0.0
 10
186.240708
 20
117.338069
 30
0.0
 10
186.087317
 20
117.022318
 30
0.0
 10
184.708190
 20
117.022318
 30
0.0
 10
183.329061
 20
117.022318
 30
0.0
 10
181.949934
 20
117.022318
 30
0.0
 10
180.570804
 20
117.022318
 30
0.0
 10
179.191674
 20
117.022318
 30
0.0
 10
177.812548
 20
117.022318
 30
0.0
 10
176.433421
 20
117.022318
 30
0.0
 10
175.054291
 20
117.022318
 30
0.0
 10
173.675164
 20
117.022318
 30
0.0
 10
172.296034
 20
117.022318
 30
0.0
 10
170.916908
 20
117.022318
 30
0.0
 10
169.537778
 20
117.022318
 30
0.0
 10
168.158648
 20
117.022318
 30
0.0
 10
166.779521
 20
117.022318
 30
0.0
 10
165.400395
 20
117.022318
 30
0.0
 10
164.021265
 20
117.022318
 30
0.0
 10
163.867671
 20
117.338131
 30
0.0
 10
163.722637
 20
117.658749
 30
0.0
 10
163.586355
 20
117.984038
 30
0.0
 10
163.459002
 20
118.313857
 30
0.0
 10
163.340771
 20
118.648074
 30
0.0
 10
163.231847
 20
118.986548
 30
0.0
 10
163.132412
 20
119.329141
 30
0.0
 10
163.042656
 20
119.675718
 30
0.0
 10
162.962762
 20
120.026139
 30
0.0
 10
162.892918
 20
120.380269
 30
0.0
 10
162.833310
 20
120.737971
 30
0.0
 10
162.784121
 20
121.099103
 30
0.0
 10
162.745541
 20
121.463534
 30
0.0
 10
162.717742
 20
121.831120
 30
0.0
 10
162.700922
 20
122.201728
 30
0.0
 10
162.695278
 20
122.575221
 30
0.0
 10
162.695314
 20
122.575221
 30
0.0
  0
LWPOLYLINE
  5
10a
100
AcDbEntity
  8
0
 62
7
100
AcDbPolyline
 90
82
 70
0
 10
104.690886
 20
122.575221
 30
0.0
 10
104.754674
 20
123.839515
 30
0.0
 10
104.941901
 20
125.067320
 30
0.0
 10
105.246348
 20
126.252413
 30
0.0
 10
105.661804
 20
127.388580
 30
0.0
 10
106.182056
 20
128.469599
 30
0.0
 10
106.800890
 20
129.489248
 30
0.0
 10
107.512096
 20
130.441308
 30
0.0
 10
108.309455
 20
131.319561
 30
0.0
 10
109.186757
 20
132.117781
 30
0.0
 10
110.137789
 20
132.829757
 30
0.0
 10
111.156338
 20
133.449260
 30
0.0
 10
112.236188
 20
133.970076
 30
0.0
 10
113.371125
 20
134.385981
 30
0.0
 10
114.554940
 20
134.690759
 30
0.0
 10
115.781418
 20
134.878185
 30
0.0
 10
117.044346
 20
134.942044
 30
0.0
 10
118.307273
 20
134.878185
 30
0.0
 10
119.533752
 20
134.690759
 30
0.0
 10
120.717567
 20
134.385981
 30
0.0
 10
121.852504
 20
133.970076
 30
0.0
 10
122.932354
 20
133.449260
 30
0.0
 10
123.950902
 20
132.829757
 30
0.0
 10
124.901935
 20
132.117781
 30
0.0
 10
125.779236
 20
131.319561
 30
0.0
 10
126.576596
 20
130.441308
 30
0.0
 10
127.287802
 20
129.489248
 30
0.0
 10
127.906636
 20
128.469599
 30
0.0
 10
128.426887
 20
127.388580
 30
0.0
 10
128.842344
 20
126.252413
 30
0.0
 10
129.146791
 20
125.067317
 30
0.0
 10
129.334017
 20
123.839515
 30
0.0
 10
129.397805
 20
122.575221
 30
0.0
 10
129.392274
 20
122.201830
 30
0.0
 10
129.375792
 20
121.831286
 30
0.0
 10
129.348529
 20
121.463734
 30
0.0
 10
129.310630
 20
121.099315
 30
0.0
 10
129.262251
 20
120.738169
 30
0.0
 10
129.203546
 20
120.380441
 30
0.0
 10
129.134672
 20
120.026269
 30
0.0
 10
129.055789
 20
119.675800
 30
0.0
 10
128.967044
 20
119.329172
 30
0.0
 10
128.868596
 20
118.986531
 30
0.0
 10
128.760604
 20
118.648017
 30
0.0
 10
128.643222
 20
118.313770
 30
0.0
 10
128.516603
 20
117.983934
 30
0.0
 10
128.380902
 20
117.658653
 30
0.0
 10
128.236280
 20
117.338069
 30
0.0
 10
128.082889
 20
117.022318
 30
0.0
 10
126.703760
 20
117.022318
 30
0.0
 10
125.324633
 20
117.022318
 30
0.0
 10
123.945506
 20
117.022318
 30
0.0
 10
122.566376
 20
117.022318
 30
0.0
 10
121.187250
 20
117.022318
 30
0.0
 10
119.808120
 20
117.022318
 30
0.0
 10
118.428990
 20
117.022318
 30
0.0
 10
117.049863
 20
117.022318
 30
0.0
 10
115.670736
 20
117.022318
 30
0.0
 10
114.291607
 20
117.022318
 30
0.0
 10
112.912477
 20
117.022318
 30
0.0
 10
111.533350
 20
117.022318
 30
0.0
 10
110.154223
 20
117.022318
 30
0.0
 10
108.775094
 20
117.022318
 30
0.0
 10
107.395964
 20
117.022318
 30
0.0
 10
106.016837
 20
117.022318
 30
0.0
 10
105.863243
 20
117.338131
 30
0.0
 10
105.718209
 20
117.658749
 30
0.0
 10
105.581927
 20
117.984038
 30
0.0
 10
105.454574
 20
118.313857
 30
0.0
 10
105.336343
 20
118.648074
 30
0.0
 10
105.227419
 20
118.986548
 30
0.0
 10
105.127984
 20
119.329141
 30
0.0
 10
105.038229
 20
119.675718
 30
0.0
 10
104.958334
 20
120.026139
 30
0.0
 10
104.888490
 20
120.380269
 30
0.0
 10
104.828882
 20
120.737971
 30
0.0
 10
104.779693
 20
121.099103
 30
0.0
 10
104.741114
 20
121.463534
 30
0.0
 10
104.713315
 20
121.831120
 30
0.0
 10
104.696494
 20
122.201728
 30
0.0
 10
104.690850
 20
122.575221
 30
0.0
 10
104.690886
 20
122.575221
 30
0.0
  0
LWPOLYLINE
  5
10b
100
AcDbEntity
  8
0
 62
7
100
AcDbPolyline
 90
65
 70
0
 10
138.006026
 20
128.898424
 30
0.0
 10
138.307651
 20
128.883212
 30
0.0
 10
138.600558
 20
128.838508
 30
0.0
 10
138.883263
 20
128.765819
 30
0.0
 10
139.154306
 20
128.666618
 30
0.0
 10
139.412181
 20
128.542395
 30
0.0
 10
139.655409
 20
128.394629
 30
0.0
 10
139.882502
 20
128.224808
 30
0.0
 10
140.092001
 20
128.034409
 30
0.0
 10
140.282382
 20
127.824916
 30
0.0
 10
140.452218
 20
127.597817
 30
0.0
 10
140.599973
 20
127.354590
 30
0.0
 10
140.724199
 20
127.096717
 30
0.0
 10
140.823394
 20
126.825683
 30
0.0
 10
140.896094
 20
126.542972
 30
0.0
 10
140.940798
 20
126.250065
 30
0.0
 10
140.955954
 20
125.948443
 30
0.0
 10
140.940798
 20
125.646823
 30
0.0
 10
140.896094
 20
125.353916
 30
0.0
 10
140.823394
 20
125.071206
 30
0.0
 10
140.724199
 20
124.800171
 30
0.0
 10
140.599973
 20
124.542299
 30
0.0
 10
140.452218
 20
124.299071
 30
0.0
 10
140.282382
 20
124.071970
 30
0.0
 10
140.092001
 20
123.862479
 30
0.0
 10
139.882502
 20
123.672081
 30
0.0
 10
139.655409
 20
123.502256
 30
0.0
 10
139.412181
 20
123.354493
 30
0.0
 10
139.154306
 20
123.230270
 30
0.0
 10
138.883263
 20
123.131069
 30
0.0
 10
138.600558
 20
123.058377
 30
0.0
 10
138.307651
 20
123.013673
 30
0.0
 10
138.006026
 20
122.998461
 30
0.0
 10
137.704404
 20
123.013673
 30
0.0
 10
137.411497
 20
123.058377
 30
0.0
 10
137.128789
 20
123.131069
 30
0.0
 10
136.857748
 20
123.230270
 30
0.0
 10
136.599874
 20
123.354493
 30
0.0
 10
136.356646
 20
123.502256
 30
0.0
 10
136.129550
 20
123.672081
 30
0.0
 10
135.920071
 20
123.862479
 30
0.0
 10
135.729670
 20
124.071970
 30
0.0
 10
135.559834
 20
124.299071
 30
0.0
 10
135.412079
 20
124.542299
 30
0.0
 10
135.287853
 20
124.800171
 30
0.0
 10
135.188658
 20
125.071206
 30
0.0
 10
135.115960
 20
125.353916
 30
0.0
 10
135.071256
 20
125.646823
 30
0.0
 10
135.056101
 20
125.948443
 30
0.0
 10
135.071256
 20
126.250065
 30
0.0
 10
135.115960
 20
126.542972
 30
0.0
 10
135.188658
 20
126.825683
 30
0.0
 10
135.287853
 20
127.096717
 30
0.0
 10
135.412079
 20
127.354590
 30
0.0
 10
135.559834
 20
127.597817
 30
0.0
 10
135.729670
 20
127.824916
 30
0.0
 10
135.920071
 20
128.034409
 30
0.0
 10
136.129550
 20
128.224808
 30
0.0
 10
136.356646
 20
128.394629
 30
0.0
 10
136.599874
 20
128.542395
 30
0.0
 10
136.857748
 20
128.666618
 30
0.0
 10
137.128789
 20
128.765819
 30
0.0
 10
137.411497
 20
128.838508
 30
0.0
 10
137.704404
 20
128.883212
 30
0.0
 10
138.006026
 20
128.898424
 30
0.0
  0
LWPOLYLINE
  5
10c
100
AcDbEntity
  8
0
 62
7
100
AcDbPolyline
 90
82
 70
0
 10
56.028057
 20
127.421265
 30
0.0
 10
56.091844
 20
126.156971
 30
0.0
 10
56.279071
 20
124.929166
 30
0.0
 10
56.583518
 20
123.744073
 30
0.0
 10
56.998974
 20
122.607905
 30
0.0
 10
57.519226
 20
121.526887
 30
0.0
 10
58.138060
 20
120.507238
 30
0.0
 10
58.849266
 20
119.555178
 30
0.0
 10
59.646625
 20
118.676925
 30
0.0
 10
60.523927
 20
117.878705
 30
0.0
 10
61.474960
 20
117.166729
 30
0.0
 10
62.493508
 20
116.547225
 30
0.0
 10
63.573358
 20
116.026410
 30
0.0
 10
64.708295
 20
115.610504
 30
0.0
 10
65.892110
 20
115.305727
 30
0.0
 10
67.118588
 20
115.118300
 30
0.0
 10
68.381516
 20
115.054442
 30
0.0
 10
69.644443
 20
115.118300
 30
0.0
 10
70.870922
 20
115.305727
 30
0.0
 10
72.054737
 20
115.610504
 30
0.0
 10
73.189674
 20
116.026410
 30
0.0
 10
74.269524
 20
116.547225
 30
0.0
 10
75.288072
 20
117.166729
 30
0.0
 10
76.239105
 20
117.878705
 30
0.0
 10
77.116407
 20
118.676925
 30
0.0
 10
77.913766
 20
119.555178
 30
0.0
 10
78.624972
 20
120.507238
 30
0.0
 10
79.243806
 20
121.526887
 30
0.0
 10
79.764057
 20
122.607905
 30
0.0
 10
80.179514
 20
123.744073
 30
0.0
 10
80.483961
 20
124.929169
 30
0.0
 10
80.671187
 20
126.156971
 30
0.0
 10
80.734975
 20
127.421265
 30
0.0
 10
80.729444
 20
127.794656
 30
0.0
 10
80.712962
 20
128.165200
 30
0.0
 10
80.685699
 20
128.532752
 30
0.0
 10
80.647800
 20
128.897171
 30
0.0
 10
80.599421
 20
129.258317
 30
0.0
 10
80.540716
 20
129.616045
 30
0.0
 10
80.471843
 20
129.970217
 30
0.0
 10
80.392956
 20
130.320686
 30
0.0
 10
80.304214
 20
130.667314
 30
0.0
 10
80.205766
 20
131.009954
 30
0.0
 10
80.097774
 20
131.348469
 30
0.0
 10
79.980389
 20
131.682716
 30
0.0
 10
79.853773
 20
132.012552
 30
0.0
 10
79.718072
 20
132.337832
 30
0.0
 10
79.573450
 20
132.658417
 30
0.0
 10
79.420060
 20
132.974167
 30
0.0
 10
78.040933
 20
132.974167
 30
0.0
 10
76.661803
 20
132.974167
 30
0.0
 10
75.282673
 20
132.974167
 30
0.0
 10
73.903546
 20
132.974167
 30
0.0
 10
72.524420
 20
132.974167
 30
0.0
 10
71.145290
 20
132.974167
 30
0.0
 10
69.766160
 20
132.974167
 30
0.0
 10
68.387033
 20
132.974167
 30
0.0
 10
67.007907
 20
132.974167
 30
0.0
 10
65.628777
 20
132.974167
 30
0.0
 10
64.249647
 20
132.974167
 30
0.0
 10
62.870520
 20
132.974167
 30
0.0
 10
61.491391
 20
132.974167
 30
0.0
 10
60.112264
 20
132.974167
 30
0.0
 10
58.733134
 20
132.974167
 30
0.0
 10
57.354007
 20
132.974167
 30
0.0
 10
57.200413
 20
132.658355
 30
0.0
 10
57.055379
 20
132.337737
 30
0.0
 10
56.919097
 20
132.012447
 30
0.0
 10
56.791744
 20
131.682628
 30
0.0
 10
56.673513
 20
131.348412
 30
0.0
 10
56.564589
 20
131.009937
 30
0.0
 10
56.465154
 20
130.667345
 30
0.0
 10
56.375399
 20
130.320768
 30
0.0
 10
56.295504
 20
129.970346
 30
0.0
 10
56.225660
 20
129.616217
 30
0.0
 10
56.166052
 20
129.258514
 30
0.0
 10
56.116863
 20
128.897383
 30
0.0
 10
56.078284
 20
128.532952
 30
0.0
 10
56.050485
 20
128.165366
 30
0.0
 10
56.033664
 20
127.794757
 30
0.0
 10
56.028020
 20
127.421265
 30
0.0
 10
56.028057
 20
127.421265
 30
0.0
  0
LWPOLYLINE
  5
10d
100
AcDbEntity
  8
0
 62
7
100
AcDbPolyline
 90
65
 70
0
 10
89.311531
 20
128.072416
 30
0.0
 10
89.613156
 20
128.057204
 30
0.0
 10
89.906063
 20
128.012500
 30
0.0
 10
90.188771
 20
127.939811
 30
0.0
 10
90.459811
 20
127.840610
 30
0.0
 10
90.717686
 20
127.716387
 30
0.0
 10
90.960914
 20
127.568621
 30
0.0
 10
91.188007
 20
127.398800
 30
0.0
 10
91.397506
 20
127.208398
 30
0.0
 10
91.587887
 20
126.998908
 30
0.0
 10
91.757723
 20
126.771809
 30
0.0
 10
91.905478
 20
126.528582
 30
0.0
 10
92.029703
 20
126.270709
 30
0.0
 10
92.128899
 20
125.999675
 30
0.0
 10
92.201599
 20
125.716964
 30
0.0
 10
92.246303
 20
125.424057
 30
0.0
 10
92.261459
 20
125.122435
 30
0.0
 10
92.246303
 20
124.820815
 30
0.0
 10
92.201599
 20
124.527908
 30
0.0
 10
92.128899
 20
124.245198
 30
0.0
 10
92.029703
 20
123.974163
 30
0.0
 10
91.905478
 20
123.716291
 30
0.0
 10
91.757723
 20
123.473063
 30
0.0
 10
91.587887
 20
123.245962
 30
0.0
 10
91.397506
 20
123.036471
 30
0.0
 10
91.188007
 20
122.846073
 30
0.0
 10
90.960914
 20
122.676248
 30
0.0
 10
90.717686
 20
122.528485
 30
0.0
 10
90.459811
 20
122.404262
 30
0.0
 10
90.188771
 20
122.305061
 30
0.0
 10
89.906063
 20
122.232369
 30
0.0
 10
89.613156
 20
122.187665
 30
0.0
 10
89.311531
 20
122.172453
 30
0.0
 10
89.009909
 20
122.187665
 30
0.0
 10
88.717001
 20
122.232369
 30
0.0
 10
88.434294
 20
122.305061
 30
0.0
 10
88.163253
 20
122.404262
 30
0.0
 10
87.905378
 20
122.528485
 30
0.0
 10
87.662151
 20
122.676248
 30
0.0
 10
87.435055
 20
122.846073
 30
0.0
 10
87.225576
 20
123.036471
 30
0.0
 10
87.035174
 20
123.245962
 30
0.0
 10
86.865339
 20
123.473063
 30
0.0
 10
86.717584
 20
123.716291
 30
0.0
 10
86.593361
 20
123.974163
 30
0.0
 10
86.494163
 20
124.245198
 30
0.0
 10
86.421465
 20
124.527908
 30
0.0
 10
86.376761
 20
124.820815
 30
0.0
 10
86.361606
 20
125.122435
 30
0.0
 10
86.376761
 20
125.424057
 30
0.0
 10
86.421465
 20
125.716964
 30
0.0
 10
86.494163
 20
125.999675
 30
0.0
 10
86.593361
 20
126.270709
 30
0.0
 10
86.717584
 20
126.528582
 30
0.0
 10
86.865339
 20
126.771809
 30
0.0
 10
87.035174
 20
126.998908
 30
0.0
 10
87.225576
 20
127.208398
 30
0.0
 10
87.435055
 20
127.398800
 30
0.0
 10
87.662151
 20
127.568621
 30
0.0
 10
87.905378
 20
127.716387
 30
0.0
 10
88.163253
 20
127.840610
 30
0.0
 10
88.434294
 20
127.939811
 30
0.0
 10
88.717001
 20
128.012500
 30
0.0
 10
89.009909
 20
128.057204
 30
0.0
 10
89.311531
 20
128.072416
 30
0.0
  0
LWPOLYLINE
  5
10e
100
AcDbEntity
  8
0
 62
7
100
AcDbPolyline
 90
82
 70
0
 10
7.122856
 20
122.781808
 30
0.0
 10
7.186645
 20
124.046101
 30
0.0
 10
7.373869
 20
125.273906
 30
0.0
 10
7.678317
 20
126.459000
 30
0.0
 10
8.093773
 20
127.595167
 30
0.0
 10
8.614026
 20
128.676185
 30
0.0
 10
9.232860
 20
129.695835
 30
0.0
 10
9.944064
 20
130.647894
 30
0.0
 10
10.741424
 20
131.526147
 30
0.0
 10
11.618727
 20
132.324368
 30
0.0
 10
12.569758
 20
133.036344
 30
0.0
 10
13.588306
 20
133.655847
 30
0.0
 10
14.668156
 20
134.176663
 30
0.0
 10
15.803095
 20
134.592568
 30
0.0
 10
16.986910
 20
134.897345
 30
0.0
 10
18.213388
 20
135.084772
 30
0.0
 10
19.476315
 20
135.148630
 30
0.0
 10
20.739242
 20
135.084772
 30
0.0
 10
21.965719
 20
134.897345
 30
0.0
 10
23.149535
 20
134.592568
 30
0.0
 10
24.284474
 20
134.176663
 30
0.0
 10
25.364324
 20
133.655847
 30
0.0
 10
26.382871
 20
133.036344
 30
0.0
 10
27.333903
 20
132.324368
 30
0.0
 10
28.211205
 20
131.526147
 30
0.0
 10
29.008564
 20
130.647894
 30
0.0
 10
29.719770
 20
129.695835
 30
0.0
 10
30.338604
 20
128.676185
 30
0.0
 10
30.858855
 20
127.595167
 30
0.0
 10
31.274312
 20
126.459000
 30
0.0
 10
31.578759
 20
125.273903
 30
0.0
 10
31.765985
 20
124.046101
 30
0.0
 10
31.829773
 20
122.781808
 30
0.0
 10
31.824241
 20
122.408417
 30
0.0
 10
31.807760
 20
122.037873
 30
0.0
 10
31.780497
 20
121.670321
 30
0.0
 10
31.742597
 20
121.305901
 30
0.0
 10
31.694219
 20
120.944756
 30
0.0
 10
31.635514
 20
120.587028
 30
0.0
 10
31.566640
 20
120.232856
 30
0.0
 10
31.487753
 20
119.882387
 30
0.0
 10
31.399012
 20
119.535758
 30
0.0
 10
31.300564
 20
119.193118
 30
0.0
 10
31.192572
 20
118.854604
 30
0.0
 10
31.075187
 20
118.520357
 30
0.0
 10
30.948571
 20
118.190521
 30
0.0
 10
30.812870
 20
117.865240
 30
0.0
 10
30.668248
 20
117.544655
 30
0.0
 10
30.514857
 20
117.228905
 30
0.0
 10
29.135730
 20
117.228905
 30
0.0
 10
27.756601
 20
117.228905
 30
0.0
 10
26.377473
 20
117.228905
 30
0.0
 10
24.998344
 20
117.228905
 30
0.0
 10
23.619216
 20
117.228905
 30
0.0
 10
22.240088
 20
117.228905
 30
0.0
 10
20.860960
 20
117.228905
 30
0.0
 10
19.481832
 20
117.228905
 30
0.0
 10
18.102704
 20
117.228905
 30
0.0
 10
16.723575
 20
117.228905
 30
0.0
 10
15.344447
 20
117.228905
 30
0.0
 10
13.965319
 20
117.228905
 30
0.0
 10
12.586191
 20
117.228905
 30
0.0
 10
11.207063
 20
117.228905
 30
0.0
 10
9.827935
 20
117.228905
 30
0.0
 10
8.448806
 20
117.228905
 30
0.0
 10
8.295212
 20
117.544717
 30
0.0
 10
8.150180
 20
117.865336
 30
0.0
 10
8.013895
 20
118.190625
 30
0.0
 10
7.886544
 20
118.520444
 30
0.0
 10
7.768313
 20
118.854660
 30
0.0
 10
7.659387
 20
119.193135
 30
0.0
 10
7.559954
 20
119.535727
 30
0.0
 10
7.470197
 20
119.882305
 30
0.0
 10
7.390304
 20
120.232726
 30
0.0
 10
7.320460
 20
120.586856
 30
0.0
 10
7.260851
 20
120.944558
 30
0.0
 10
7.211663
 20
121.305690
 30
0.0
 10
7.173083
 20
121.670120
 30
0.0
 10
7.145295
 20
122.037706
 30
0.0
 10
7.128486
 20
122.408315
 30
0.0
 10
7.122842
 20
122.781808
 30
0.0
 10
7.122856
 20
122.781808
 30
0.0
  0
LWPOLYLINE
  5
10f
100
AcDbEntity
  8
0
 62
7
100
AcDbPolyline
 90
65
 70
0
 10
40.438022
 20
129.105039
 30
0.0
 10
40.739647
 20
129.089827
 30
0.0
 10
41.032554
 20
129.045123
 30
0.0
 10
41.315262
 20
128.972434
 30
0.0
 10
41.586302
 20
128.873233
 30
0.0
 10
41.844177
 20
128.749010
 30
0.0
 10
42.087405
 20
128.601244
 30
0.0
 10
42.314498
 20
128.431423
 30
0.0
 10
42.523997
 20
128.241024
 30
0.0
 10
42.714378
 20
128.031531
 30
0.0
 10
42.884214
 20
127.804432
 30
0.0
 10
43.031969
 20
127.561204
 30
0.0
 10
43.156195
 20
127.303332
 30
0.0
 10
43.255390
 20
127.032297
 30
0.0
 10
43.328090
 20
126.749587
 30
0.0
 10
43.372794
 20
126.456680
 30
0.0
 10
43.387950
 20
126.155058
 30
0.0
 10
43.372794
 20
125.853438
 30
0.0
 10
43.328090
 20
125.560531
 30
0.0
 10
43.255390
 20
125.277821
 30
0.0
 10
43.156195
 20
125.006786
 30
0.0
 10
43.031969
 20
124.748914
 30
0.0
 10
42.884214
 20
124.505686
 30
0.0
 10
42.714378
 20
124.278585
 30
0.0
 10
42.523997
 20
124.069094
 30
0.0
 10
42.314498
 20
123.878696
 30
0.0
 10
42.087405
 20
123.708871
 30
0.0
 10
41.844177
 20
123.561108
 30
0.0
 10
41.586302
 20
123.436885
 30
0.0
 10
41.315262
 20
123.337684
 30
0.0
 10
41.032554
 20
123.264992
 30
0.0
 10
40.739647
 20
123.220288
 30
0.0
 10
40.438022
 20
123.205076
 30
0.0
 10
40.136400
 20
123.220288
 30
0.0
 10
39.843493
 20
123.264992
 30
0.0
 10
39.560785
 20
123.337684
 30
0.0
 10
39.289744
 20
123.436885
 30
0.0
 10
39.031870
 20
123.561108
 30
0.0
 10
38.788642
 20
123.708871
 30
0.0
 10
38.561546
 20
123.878696
 30
0.0
 10
38.352067
 20
124.069094
 30
0.0
 10
38.161666
 20
124.278585
 30
0.0
 10
37.991833
 20
124.505686
 30
0.0
 10
37.844075
 20
124.748914
 30
0.0
 10
37.719852
 20
125.006786
 30
0.0
 10
37.620657
 20
125.277821
 30
0.0
 10
37.547956
 20
125.560531
 30
0.0
 10
37.503252
 20
125.853438
 30
0.0
 10
37.488097
 20
126.155058
 30
0.0
 10
37.503252
 20
126.456680
 30
0.0
 10
37.547956
 20
126.749587
 30
0.0
 10
37.620657
 20
127.032297
 30
0.0
 10
37.719852
 20
127.303332
 30
0.0
 10
37.844075
 20
127.561204
 30
0.0
 10
37.991833
 20
127.804432
 30
0.0
 10
38.161666
 20
128.031531
 30
0.0
 10
38.352067
 20
128.241024
 30
0.0
 10
38.561546
 20
128.431423
 30
0.0
 10
38.788642
 20
128.601244
 30
0.0
 10
39.031870
 20
128.749010
 30
0.0
 10
39.289744
 20
128.873233
 30
0.0
 10
39.560785
 20
128.972434
 30
0.0
 10
39.843493
 20
129.045123
 30
0.0
 10
40.136400
 20
129.089827
 30
0.0
 10
40.438022
 20
129.105039
 30
0.0
  0
LWPOLYLINE
  5
110
100
AcDbEntity
  8
0
 62
7
100
AcDbPolyline
 90
65
 70
0
 10
196.010485
 20
185.143742
 30
0.0
 10
196.312107
 20
185.128502
 30
0.0
 10
196.605014
 20
185.083798
 30
0.0
 10
196.887722
 20
185.011109
 30
0.0
 10
197.158762
 20
184.911908
 30
0.0
 10
197.416640
 20
184.787685
 30
0.0
 10
197.659865
 20
184.639919
 30
0.0
 10
197.886961
 20
184.470097
 30
0.0
 10
198.096457
 20
184.279696
 30
0.0
 10
198.286841
 20
184.070205
 30
0.0
 10
198.456677
 20
183.843107
 30
0.0
 10
198.604432
 20
183.599879
 30
0.0
 10
198.728657
 20
183.342007
 30
0.0
 10
198.827853
 20
183.070972
 30
0.0
 10
198.900550
 20
182.788262
 30
0.0
 10
198.945254
 20
182.495354
 30
0.0
 10
198.960410
 20
182.193732
 30
0.0
 10
198.945254
 20
181.892113
 30
0.0
 10
198.900550
 20
181.599206
 30
0.0
 10
198.827853
 20
181.316495
 30
0.0
 10
198.728657
 20
181.045460
 30
0.0
 10
198.604432
 20
180.787588
 30
0.0
 10
198.456677
 20
180.544361
 30
0.0
 10
198.286841
 20
180.317259
 30
0.0
 10
198.096457
 20
180.107769
 30
0.0
 10
197.886961
 20
179.917370
 30
0.0
 10
197.659865
 20
179.747546
 30
0.0
 10
197.416640
 20
179.599783
 30
0.0
 10
197.158762
 20
179.475560
 30
0.0
 10
196.887722
 20
179.376359
 30
0.0
 10
196.605014
 20
179.303667
 30
0.0
 10
196.312107
 20
179.258963
 30
0.0
 10
196.010485
 20
179.243751
 30
0.0
 10
195.708860
 20
179.258963
 30
0.0
 10
195.415953
 20
179.303667
 30
0.0
 10
195.133248
 20
179.376359
 30
0.0
 10
194.862204
 20
179.475560
 30
0.0
 10
194.604330
 20
179.599783
 30
0.0
 10
194.361105
 20
179.747546
 30
0.0
 10
194.134009
 20
179.917370
 30
0.0
 10
193.924527
 20
180.107769
 30
0.0
 10
193.734128
 20
180.317259
 30
0.0
 10
193.564293
 20
180.544361
 30
0.0
 10
193.416538
 20
180.787588
 30
0.0
 10
193.292312
 20
181.045460
 30
0.0
 10
193.193117
 20
181.316495
 30
0.0
 10
193.120416
 20
181.599206
 30
0.0
 10
193.075715
 20
181.892113
 30
0.0
 10
193.060560
 20
182.193732
 30
0.0
 10
193.075715
 20
182.495354
 30
0.0
 10
193.120416
 20
182.788262
 30
0.0
 10
193.193117
 20
183.070972
 30
0.0
 10
193.292312
 20
183.342007
 30
0.0
 10
193.416538
 20
183.599879
 30
0.0
 10
193.564293
 20
183.843107
 30
0.0
 10
193.734128
 20
184.070205
 30
0.0
 10
193.924527
 20
184.279696
 30
0.0
 10
194.134009
 20
184.470097
 30
0.0
 10
194.361105
 20
184.639919
 30
0.0
 10
194.604330
 20
184.787685
 30
0.0
 10
194.862204
 20
184.911908
 30
0.0
 10
195.133248
 20
185.011109
 30
0.0
 10
195.415953
 20
185.083798
 30
0.0
 10
195.708860
 20
185.128502
 30
0.0
 10
196.010485
 20
185.143742
 30
0.0
  0
LWPOLYLINE
  5
111
100
AcDbEntity
  8
0
 62
7
100
AcDbPolyline
 90
82
 70
0
 10
162.695314
 20
178.820511
 30
0.0
 10
162.759102
 20
180.084804
 30
0.0
 10
162.946328
 20
181.312606
 30
0.0
 10
163.250776
 20
182.497703
 30
0.0
 10
163.666232
 20
183.633870
 30
0.0
 10
164.186483
 20
184.714888
 30
0.0
 10
164.805318
 20
185.734537
 30
0.0
 10
165.516523
 20
186.686597
 30
0.0
 10
166.313883
 20
187.564850
 30
0.0
 10
167.191185
 20
188.363071
 30
0.0
 10
168.142217
 20
189.075047
 30
0.0
 10
169.160766
 20
189.694550
 30
0.0
 10
170.240616
 20
190.215366
 30
0.0
 10
171.375553
 20
190.631271
 30
0.0
 10
172.559368
 20
190.936048
 30
0.0
 10
173.785846
 20
191.123475
 30
0.0
 10
175.048774
 20
191.187333
 30
0.0
 10
176.311701
 20
191.123475
 30
0.0
 10
177.538180
 20
190.936048
 30
0.0
 10
178.721995
 20
190.631271
 30
0.0
 10
179.856932
 20
190.215366
 30
0.0
 10
180.936781
 20
189.694550
 30
0.0
 10
181.955330
 20
189.075047
 30
0.0
 10
182.906362
 20
188.363071
 30
0.0
 10
183.783664
 20
187.564850
 30
0.0
 10
184.581024
 20
186.686597
 30
0.0
 10
185.292230
 20
185.734537
 30
0.0
 10
185.911064
 20
184.714888
 30
0.0
 10
186.431315
 20
183.633870
 30
0.0
 10
186.846772
 20
182.497703
 30
0.0
 10
187.151219
 20
181.312606
 30
0.0
 10
187.338445
 20
180.084804
 30
0.0
 10
187.402233
 20
178.820511
 30
0.0
 10
187.396701
 20
178.447119
 30
0.0
 10
187.380220
 20
178.076576
 30
0.0
 10
187.352957
 20
177.709024
 30
0.0
 10
187.315057
 20
177.344604
 30
0.0
 10
187.266679
 20
176.983458
 30
0.0
 10
187.207974
 20
176.625731
 30
0.0
 10
187.139100
 20
176.271559
 30
0.0
 10
187.060216
 20
175.921089
 30
0.0
 10
186.971472
 20
175.574461
 30
0.0
 10
186.873024
 20
175.231821
 30
0.0
 10
186.765032
 20
174.893307
 30
0.0
 10
186.647650
 20
174.559060
 30
0.0
 10
186.521031
 20
174.229224
 30
0.0
 10
186.385330
 20
173.903943
 30
0.0
 10
186.240708
 20
173.583358
 30
0.0
 10
186.087317
 20
173.267608
 30
0.0
 10
184.708190
 20
173.267608
 30
0.0
 10
183.329061
 20
173.267608
 30
0.0
 10
181.949934
 20
173.267608
 30
0.0
 10
180.570804
 20
173.267608
 30
0.0
 10
179.191674
 20
173.267608
 30
0.0
 10
177.812548
 20
173.267608
 30
0.0
 10
176.433421
 20
173.267608
 30
0.0
 10
175.054291
 20
173.267608
 30
0.0
 10
173.675164
 20
173.267608
 30
0.0
 10
172.296034
 20
173.267608
 30
0.0
 10
170.916908
 20
173.267608
 30
0.0
 10
169.537778
 20
173.267608
 30
0.0
 10
168.158648
 20
173.267608
 30
0.0
 10
166.779521
 20
173.267608
 30
0.0
 10
165.400395
 20
173.267608
 30
0.0
 10
164.021265
 20
173.267608
 30
0.0
 10
163.867671
 20
173.583420
 30
0.0
 10
163.722637
 20
173.904039
 30
0.0
 10
163.586355
 20
174.229328
 30
0.0
 10
163.459002
 20
174.559147
 30
0.0
 10
163.340771
 20
174.893363
 30
0.0
 10
163.231847
 20
175.231838
 30
0.0
 10
163.132412
 20
175.574430
 30
0.0
 10
163.042656
 20
175.921008
 30
0.0
 10
162.962762
 20
176.271429
 30
0.0
 10
162.892918
 20
176.625558
 30
0.0
 10
162.833310
 20
176.983261
 30
0.0
 10
162.784121
 20
177.344392
 30
0.0
 10
162.745541
 20
177.708823
 30
0.0
 10
162.717742
 20
178.076409
 30
0.0
 10
162.700922
 20
178.447018
 30
0.0
 10
162.695278
 20
178.820511
 30
0.0
 10
162.695314
 20
178.820511
 30
0.0
  0
LWPOLYLINE
  5
112
100
AcDbEntity
  8
0
 62
7
100
AcDbPolyline
 90
82
 70
0
 10
104.690886
 20
178.820511
 30
0.0
 10
104.754674
 20
180.084804
 30
0.0
 10
104.941901
 20
181.312606
 30
0.0
 10
105.246348
 20
182.497703
 30
0.0
 10
105.661804
 20
183.633870
 30
0.0
 10
106.182056
 20
184.714888
 30
0.0
 10
106.800890
 20
185.734537
 30
0.0
 10
107.512096
 20
186.686597
 30
0.0
 10
108.309455
 20
187.564850
 30
0.0
 10
109.186757
 20
188.363071
 30
0.0
 10
110.137789
 20
189.075047
 30
0.0
 10
111.156338
 20
189.694550
 30
0.0
 10
112.236188
 20
190.215366
 30
0.0
 10
113.371125
 20
190.631271
 30
0.0
 10
114.554940
 20
190.936048
 30
0.0
 10
115.781418
 20
191.123475
 30
0.0
 10
117.044346
 20
191.187333
 30
0.0
 10
118.307273
 20
191.123475
 30
0.0
 10
119.533752
 20
190.936048
 30
0.0
 10
120.717567
 20
190.631271
 30
0.0
 10
121.852504
 20
190.215366
 30
0.0
 10
122.932354
 20
189.694550
 30
0.0
 10
123.950902
 20
189.075047
 30
0.0
 10
124.901935
 20
188.363071
 30
0.0
 10
125.779236
 20
187.564850
 30
0.0
 10
126.576596
 20
186.686597
 30
0.0
 10
127.287802
 20
185.734537
 30
0.0
 10
127.906636
 20
184.714888
 30
0.0
 10
128.426887
 20
183.633870
 30
0.0
 10
128.842344
 20
182.497703
 30
0.0
 10
129.146791
 20
181.312606
 30
0.0
 10
129.334017
 20
180.084804
 30
0.0
 10
129.397805
 20
178.820511
 30
0.0
 10
129.392274
 20
178.447119
 30
0.0
 10
129.375792
 20
178.076576
 30
0.0
 10
129.348529
 20
177.709024
 30
0.0
 10
129.310630
 20
177.344604
 30
0.0
 10
129.262251
 20
176.983458
 30
0.0
 10
129.203546
 20
176.625731
 30
0.0
 10
129.134672
 20
176.271559
 30
0.0
 10
129.055789
 20
175.921089
 30
0.0
 10
128.967044
 20
175.574461
 30
0.0
 10
128.868596
 20
175.231821
 30
0.0
 10
128.760604
 20
174.893307
 30
0.0
 10
128.643222
 20
174.559060
 30
0.0
 10
128.516603
 20
174.229224
 30
0.0
 10
128.380902
 20
173.903943
 30
0.0
 10
128.236280
 20
173.583358
 30
0.0
 10
128.082889
 20
173.267608
 30
0.0
 10
126.703760
 20
173.267608
 30
0.0
 10
125.324633
 20
173.267608
 30
0.0
 10
123.945506
 20
173.267608
 30
0.0
 10
122.566376
 20
173.267608
 30
0.0
 10
121.187250
 20
173.267608
 30
0.0
 10
119.808120
 20
173.267608
 30
0.0
 10
118.428990
 20
173.267608
 30
0.0
 10
117.049863
 20
173.267608
 30
0.0
 10
115.670736
 20
173.267608
 30
0.0
 10
114.291607
 20
173.267608
 30
0.0
 10
112.912477
 20
173.267608
 30
0.0
 10
111.533350
 20
173.267608
 30
0.0
 10
110.154223
 20
173.267608
 30
0.0
 10
108.775094
 20
173.267608
 30
0.0
 10
107.395964
 20
173.267608
 30
0.0
 10
106.016837
 20
173.267608
 30
0.0
 10
105.863243
 20
173.583420
 30
0.0
 10
105.718209
 20
173.904039
 30
0.0
 10
105.581927
 20
174.229328
 30
0.0
 10
105.454574
 20
174.559147
 30
0.0
 10
105.336343
 20
174.893363
 30
0.0
 10
105.227419
 20
175.231838
 30
0.0
 10
105.127984
 20
175.574430
 30
0.0
 10
105.038229
 20
175.921008
 30
0.0
 10
104.958334
 20
176.271429
 30
0.0
 10
104.888490
 20
176.625558
 30
0.0
 10
104.828882
 20
176.983261
 30
0.0
 10
104.779693
 20
177.344392
 30
0.0
 10
104.741114
 20
177.708823
 30
0.0
 10
104.713315
 20
178.076409
 30
0.0
 10
104.696494
 20
178.447018
 30
0.0
 10
104.690850
 20
178.820511
 30
0.0
 10
104.690886
 20
178.820511
 30
0.0
  0
LWPOLYLINE
  5
113
100
AcDbEntity
  8
0
 62
7
100
AcDbPolyline
 90
65
 70
0
 10
138.006026
 20
185.143685
 30
0.0
 10
138.307651
 20
185.128445
 30
0.0
 10
138.600558
 20
185.083741
 30
0.0
 10
138.883263
 20
185.011052
 30
0.0
 10
139.154306
 20
184.911851
 30
0.0
 10
139.412181
 20
184.787628
 30
0.0
 10
139.655409
 20
184.639862
 30
0.0
 10
139.882502
 20
184.470041
 30
0.0
 10
140.092001
 20
184.279640
 30
0.0
 10
140.282382
 20
184.070149
 30
0.0
 10
140.452218
 20
183.843050
 30
0.0
 10
140.599973
 20
183.599823
 30
0.0
 10
140.724199
 20
183.341951
 30
0.0
 10
140.823394
 20
183.070916
 30
0.0
 10
140.896094
 20
182.788205
 30
0.0
 10
140.940798
 20
182.495298
 30
0.0
 10
140.955954
 20
182.193676
 30
0.0
 10
140.940798
 20
181.892056
 30
0.0
 10
140.896094
 20
181.599149
 30
0.0
 10
140.823394
 20
181.316439
 30
0.0
 10
140.724199
 20
181.045404
 30
0.0
 10
140.599973
 20
180.787532
 30
0.0
 10
140.452218
 20
180.544304
 30
0.0
 10
140.282382
 20
180.317203
 30
0.0
 10
140.092001
 20
180.107712
 30
0.0
 10
139.882502
 20
179.917314
 30
0.0
 10
139.655409
 20
179.747489
 30
0.0
 10
139.412181
 20
179.599726
 30
0.0
 10
139.154306
 20
179.475503
 30
0.0
 10
138.883263
 20
179.376302
 30
0.0
 10
138.600558
 20
179.303610
 30
0.0
 10
138.307651
 20
179.258906
 30
0.0
 10
138.006026
 20
179.243694
 30
0.0
 10
137.704404
 20
179.258906
 30
0.0
 10
137.411497
 20
179.303610
 30
0.0
 10
137.128789
 20
179.376302
 30
0.0
 10
136.857748
 20
179.475503
 30
0.0
 10
136.599874
 20
179.599726
 30
0.0
 10
136.356646
 20
179.747489
 30
0.0
 10
136.129550
 20
179.917314
 30
0.0
 10
135.920071
 20
180.107712
 30
0.0
 10
135.729670
 20
180.317203
 30
0.0
 10
135.559834
 20
180.544304
 30
0.0
 10
135.412079
 20
180.787532
 30
0.0
 10
135.287853
 20
181.045404
 30
0.0
 10
135.188658
 20
181.316439
 30
0.0
 10
135.115960
 20
181.599149
 30
0.0
 10
135.071256
 20
181.892056
 30
0.0
 10
135.056101
 20
182.193676
 30
0.0
 10
135.071256
 20
182.495298
 30
0.0
 10
135.115960
 20
182.788205
 30
0.0
 10
135.188658
 20
183.070916
 30
0.0
 10
135.287853
 20
183.341951
 30
0.0
 10
135.412079
 20
183.599823
 30
0.0
 10
135.559834
 20
183.843050
 30
0.0
 10
135.729670
 20
184.070149
 30
0.0
 10
135.920071
 20
184.279640
 30
0.0
 10
136.129550
 20
184.470041
 30
0.0
 10
136.356646
 20
184.639862
 30
0.0
 10
136.599874
 20
184.787628
 30
0.0
 10
136.857748
 20
184.911851
 30
0.0
 10
137.128789
 20
185.011052
 30
0.0
 10
137.411497
 20
185.083741
 30
0.0
 10
137.704404
 20
185.128445
 30
0.0
 10
138.006026
 20
185.143685
 30
0.0
  0
LWPOLYLINE
  5
114
100
AcDbEntity
  8
0
 62
7
100
AcDbPolyline
 90
82
 70
0
 10
55.902439
 20
183.834166
 30
0.0
 10
55.966227
 20
182.569872
 30
0.0
 10
56.153454
 20
181.342070
 30
0.0
 10
56.457901
 20
180.156974
 30
0.0
 10
56.873357
 20
179.020807
 30
0.0
 10
57.393609
 20
177.939788
 30
0.0
 10
58.012443
 20
176.920139
 30
0.0
 10
58.723649
 20
175.968079
 30
0.0
 10
59.521008
 20
175.089826
 30
0.0
 10
60.398310
 20
174.291606
 30
0.0
 10
61.349342
 20
173.579630
 30
0.0
 10
62.367891
 20
172.960127
 30
0.0
 10
63.447741
 20
172.439311
 30
0.0
 10
64.582678
 20
172.023406
 30
0.0
 10
65.766493
 20
171.718628
 30
0.0
 10
66.992971
 20
171.531202
 30
0.0
 10
68.255899
 20
171.467343
 30
0.0
 10
69.518826
 20
171.531202
 30
0.0
 10
70.745305
 20
171.718628
 30
0.0
 10
71.929120
 20
172.023406
 30
0.0
 10
73.064057
 20
172.439311
 30
0.0
 10
74.143907
 20
172.960127
 30
0.0
 10
75.162455
 20
173.579630
 30
0.0
 10
76.113488
 20
174.291606
 30
0.0
 10
76.990789
 20
175.089826
 30
0.0
 10
77.788149
 20
175.968079
 30
0.0
 10
78.499355
 20
176.920139
 30
0.0
 10
79.118189
 20
177.939788
 30
0.0
 10
79.638440
 20
179.020807
 30
0.0
 10
80.053897
 20
180.156974
 30
0.0
 10
80.358344
 20
181.342067
 30
0.0
 10
80.545570
 20
182.569872
 30
0.0
 10
80.609358
 20
183.834166
 30
0.0
 10
80.603827
 20
184.207557
 30
0.0
 10
80.587345
 20
184.578101
 30
0.0
 10
80.560082
 20
184.945653
 30
0.0
 10
80.522183
 20
185.310072
 30
0.0
 10
80.473804
 20
185.671218
 30
0.0
 10
80.415099
 20
186.028946
 30
0.0
 10
80.346225
 20
186.383118
 30
0.0
 10
80.267342
 20
186.733587
 30
0.0
 10
80.178597
 20
187.080215
 30
0.0
 10
80.080149
 20
187.422856
 30
0.0
 10
79.972157
 20
187.761370
 30
0.0
 10
79.854775
 20
188.095617
 30
0.0
 10
79.728156
 20
188.425453
 30
0.0
 10
79.592455
 20
188.750734
 30
0.0
 10
79.447833
 20
189.071318
 30
0.0
 10
79.294442
 20
189.387069
 30
0.0
 10
77.915313
 20
189.387069
 30
0.0
 10
76.536186
 20
189.387069
 30
0.0
 10
75.157056
 20
189.387069
 30
0.0
 10
73.777929
 20
189.387069
 30
0.0
 10
72.398800
 20
189.387069
 30
0.0
 10
71.019673
 20
189.387069
 30
0.0
 10
69.640543
 20
189.387069
 30
0.0
 10
68.261416
 20
189.387069
 30
0.0
 10
66.882287
 20
189.387069
 30
0.0
 10
65.503160
 20
189.387069
 30
0.0
 10
64.124030
 20
189.387069
 30
0.0
 10
62.744903
 20
189.387069
 30
0.0
 10
61.365773
 20
189.387069
 30
0.0
 10
59.986647
 20
189.387069
 30
0.0
 10
58.607517
 20
189.387069
 30
0.0
 10
57.228390
 20
189.387069
 30
0.0
 10
57.074796
 20
189.071256
 30
0.0
 10
56.929762
 20
188.750638
 30
0.0
 10
56.793480
 20
188.425349
 30
0.0
 10
56.666127
 20
188.095530
 30
0.0
 10
56.547896
 20
187.761313
 30
0.0
 10
56.438972
 20
187.422839
 30
0.0
 10
56.339537
 20
187.080246
 30
0.0
 10
56.249782
 20
186.733669
 30
0.0
 10
56.169887
 20
186.383248
 30
0.0
 10
56.100043
 20
186.029118
 30
0.0
 10
56.040435
 20
185.671416
 30
0.0
 10
55.991246
 20
185.310284
 30
0.0
 10
55.952667
 20
184.945853
 30
0.0
 10
55.924868
 20
184.578267
 30
0.0
 10
55.908047
 20
184.207659
 30
0.0
 10
55.902403
 20
183.834166
 30
0.0
 10
55.902439
 20
183.834166
 30
0.0
  0
LWPOLYLINE
  5
115
100
AcDbEntity
  8
0
 62
7
100
AcDbPolyline
 90
65
 70
0
 10
89.311531
 20
184.317706
 30
0.0
 10
89.613156
 20
184.302494
 30
0.0
 10
89.906063
 20
184.257790
 30
0.0
 10
90.188771
 20
184.185101
 30
0.0
 10
90.459811
 20
184.085900
 30
0.0
 10
90.717686
 20
183.961677
 30
0.0
 10
90.960914
 20
183.813911
 30
0.0
 10
91.188007
 20
183.644089
 30
0.0
 10
91.397506
 20
183.453688
 30
0.0
 10
91.587887
 20
183.244197
 30
0.0
 10
91.757723
 20
183.017099
 30
0.0
 10
91.905478
 20
182.773871
 30
0.0
 10
92.029703
 20
182.515999
 30
0.0
 10
92.128899
 20
182.244964
 30
0.0
 10
92.201599
 20
181.962254
 30
0.0
 10
92.246303
 20
181.669346
 30
0.0
 10
92.261459
 20
181.367724
 30
0.0
 10
92.246303
 20
181.066105
 30
0.0
 10
92.201599
 20
180.773198
 30
0.0
 10
92.128899
 20
180.490487
 30
0.0
 10
92.029703
 20
180.219452
 30
0.0
 10
91.905478
 20
179.961580
 30
0.0
 10
91.757723
 20
179.718353
 30
0.0
 10
91.587887
 20
179.491251
 30
0.0
 10
91.397506
 20
179.281761
 30
0.0
 10
91.188007
 20
179.091362
 30
0.0
 10
90.960914
 20
178.921538
 30
0.0
 10
90.717686
 20
178.773775
 30
0.0
 10
90.459811
 20
178.649552
 30
0.0
 10
90.188771
 20
178.550351
 30
0.0
 10
89.906063
 20
178.477659
 30
0.0
 10
89.613156
 20
178.432955
 30
0.0
 10
89.311531
 20
178.417743
 30
0.0
 10
89.009909
 20
178.432955
 30
0.0
 10
88.717001
 20
178.477659
 30
0.0
 10
88.434294
 20
178.550351
 30
0.0
 10
88.163253
 20
178.649552
 30
0.0
 10
87.905378
 20
178.773775
 30
0.0
 10
87.662151
 20
178.921538
 30
0.0
 10
87.435055
 20
179.091362
 30
0.0
 10
87.225576
 20
179.281761
 30
0.0
 10
87.035174
 20
179.491251
 30
0.0
 10
86.865339
 20
179.718353
 30
0.0
 10
86.717584
 20
179.961580
 30
0.0
 10
86.593361
 20
180.219452
 30
0.0
 10
86.494163
 20
180.490487
 30
0.0
 10
86.421465
 20
180.773198
 30
0.0
 10
86.376761
 20
181.066105
 30
0.0
 10
86.361606
 20
181.367724
 30
0.0
 10
86.376761
 20
181.669346
 30
0.0
 10
86.421465
 20
181.962254
 30
0.0
 10
86.494163
 20
182.244964
 30
0.0
 10
86.593361
 20
182.515999
 30
0.0
 10
86.717584
 20
182.773871
 30
0.0
 10
86.865339
 20
183.017099
 30
0.0
 10
87.035174
 20
183.244197
 30
0.0
 10
87.225576
 20
183.453688
 30
0.0
 10
87.435055
 20
183.644089
 30
0.0
 10
87.662151
 20
183.813911
 30
0.0
 10
87.905378
 20
183.961677
 30
0.0
 10
88.163253
 20
184.085900
 30
0.0
 10
88.434294
 20
184.185101
 30
0.0
 10
88.717001
 20
184.257790
 30
0.0
 10
89.009909
 20
184.302494
 30
0.0
 10
89.311531
 20
184.317706
 30
0.0
  0
LWPOLYLINE
  5
116
100
AcDbEntity
  8
0
 62
7
100
AcDbPolyline
 90
82
 70
0
 10
7.122856
 20
179.027126
 30
0.0
 10
7.186645
 20
180.291419
 30
0.0
 10
7.373869
 20
181.519221
 30
0.0
 10
7.678317
 20
182.704317
 30
0.0
 10
8.093773
 20
183.840485
 30
0.0
 10
8.614026
 20
184.921503
 30
0.0
 10
9.232860
 20
185.941152
 30
0.0
 10
9.944064
 20
186.893212
 30
0.0
 10
10.741424
 20
187.771465
 30
0.0
 10
11.618727
 20
188.569685
 30
0.0
 10
12.569758
 20
189.281662
 30
0.0
 10
13.588306
 20
189.901165
 30
0.0
 10
14.668156
 20
190.421980
 30
0.0
 10
15.803095
 20
190.837886
 30
0.0
 10
16.986910
 20
191.142663
 30
0.0
 10
18.213388
 20
191.330090
 30
0.0
 10
19.476315
 20
191.393948
 30
0.0
 10
20.739242
 20
191.330090
 30
0.0
 10
21.965719
 20
191.142663
 30
0.0
 10
23.149535
 20
190.837886
 30
0.0
 10
24.284474
 20
190.421980
 30
0.0
 10
25.364324
 20
189.901165
 30
0.0
 10
26.382871
 20
189.281662
 30
0.0
 10
27.333903
 20
188.569685
 30
0.0
 10
28.211205
 20
187.771465
 30
0.0
 10
29.008564
 20
186.893212
 30
0.0
 10
29.719770
 20
185.941152
 30
0.0
 10
30.338604
 20
184.921503
 30
0.0
 10
30.858855
 20
183.840485
 30
0.0
 10
31.274312
 20
182.704317
 30
0.0
 10
31.578759
 20
181.519224
 30
0.0
 10
31.765985
 20
180.291419
 30
0.0
 10
31.829773
 20
179.027126
 30
0.0
 10
31.824241
 20
178.653734
 30
0.0
 10
31.807760
 20
178.283191
 30
0.0
 10
31.780497
 20
177.915638
 30
0.0
 10
31.742597
 20
177.551219
 30
0.0
 10
31.694219
 20
177.190073
 30
0.0
 10
31.635514
 20
176.832345
 30
0.0
 10
31.566640
 20
176.478173
 30
0.0
 10
31.487753
 20
176.127704
 30
0.0
 10
31.399012
 20
175.781076
 30
0.0
 10
31.300564
 20
175.438436
 30
0.0
 10
31.192572
 20
175.099921
 30
0.0
 10
31.075187
 20
174.765674
 30
0.0
 10
30.948571
 20
174.435838
 30
0.0
 10
30.812870
 20
174.110558
 30
0.0
 10
30.668248
 20
173.789973
 30
0.0
 10
30.514857
 20
173.474223
 30
0.0
 10
29.135730
 20
173.474223
 30
0.0
 10
27.756601
 20
173.474223
 30
0.0
 10
26.377473
 20
173.474223
 30
0.0
 10
24.998344
 20
173.474223
 30
0.0
 10
23.619216
 20
173.474223
 30
0.0
 10
22.240088
 20
173.474223
 30
0.0
 10
20.860960
 20
173.474223
 30
0.0
 10
19.481832
 20
173.474223
 30
0.0
 10
18.102704
 20
173.474223
 30
0.0
 10
16.723575
 20
173.474223
 30
0.0
 10
15.344447
 20
173.474223
 30
0.0
 10
13.965319
 20
173.474223
 30
0.0
 10
12.586191
 20
173.474223
 30
0.0
 10
11.207063
 20
173.474223
 30
0.0
 10
9.827935
 20
173.474223
 30
0.0
 10
8.448806
 20
173.474223
 30
0.0
 10
8.295212
 20
173.790035
 30
0.0
 10
8.150180
 20
174.110654
 30
0.0
 10
8.013895
 20
174.435943
 30
0.0
 10
7.886544
 20
174.765762
 30
0.0
 10
7.768313
 20
175.099978
 30
0.0
 10
7.659387
 20
175.438453
 30
0.0
 10
7.559954
 20
175.781045
 30
0.0
 10
7.470197
 20
176.127622
 30
0.0
 10
7.390304
 20
176.478044
 30
0.0
 10
7.320460
 20
176.832173
 30
0.0
 10
7.260851
 20
177.189876
 30
0.0
 10
7.211663
 20
177.551007
 30
0.0
 10
7.173083
 20
177.915438
 30
0.0
 10
7.145295
 20
178.283024
 30
0.0
 10
7.128486
 20
178.653633
 30
0.0
 10
7.122842
 20
179.027126
 30
0.0
 10
7.122856
 20
179.027126
 30
0.0
  0
LWPOLYLINE
  5
117
100
AcDbEntity
  8
0
 62
7
100
AcDbPolyline
 90
65
 70
0
 10
40.438022
 20
185.350329
 30
0.0
 10
40.739647
 20
185.335117
 30
0.0
 10
41.032554
 20
185.290413
 30
0.0
 10
41.315262
 20
185.217724
 30
0.0
 10
41.586302
 20
185.118523
 30
0.0
 10
41.844177
 20
184.994300
 30
0.0
 10
42.087405
 20
184.846534
 30
0.0
 10
42.314498
 20
184.676712
 30
0.0
 10
42.523997
 20
184.486314
 30
0.0
 10
42.714378
 20
184.276820
 30
0.0
 10
42.884214
 20
184.049722
 30
0.0
 10
43.031969
 20
183.806494
 30
0.0
 10
43.156195
 20
183.548622
 30
0.0
 10
43.255390
 20
183.277587
 30
0.0
 10
43.328090
 20
182.994876
 30
0.0
 10
43.372794
 20
182.701969
 30
0.0
 10
43.387950
 20
182.400347
 30
0.0
 10
43.372794
 20
182.098728
 30
0.0
 10
43.328090
 20
181.805821
 30
0.0
 10
43.255390
 20
181.523110
 30
0.0
 10
43.156195
 20
181.252075
 30
0.0
 10
43.031969
 20
180.994203
 30
0.0
 10
42.884214
 20
180.750976
 30
0.0
 10
42.714378
 20
180.523874
 30
0.0
 10
42.523997
 20
180.314383
 30
0.0
 10
42.314498
 20
180.123985
 30
0.0
 10
42.087405
 20
179.954161
 30
0.0
 10
41.844177
 20
179.806398
 30
0.0
 10
41.586302
 20
179.682175
 30
0.0
 10
41.315262
 20
179.582974
 30
0.0
 10
41.032554
 20
179.510282
 30
0.0
 10
40.739647
 20
179.465578
 30
0.0
 10
40.438022
 20
179.450338
 30
0.0
 10
40.136400
 20
179.465578
 30
0.0
 10
39.843493
 20
179.510282
 30
0.0
 10
39.560785
 20
179.582974
 30
0.0
 10
39.289744
 20
179.682175
 30
0.0
 10
39.031870
 20
179.806398
 30
0.0
 10
38.788642
 20
179.954161
 30
0.0
 10
38.561546
 20
180.123985
 30
0.0
 10
38.352067
 20
180.314383
 30
0.0
 10
38.161666
 20
180.523874
 30
0.0
 10
37.991833
 20
180.750976
 30
0.0
 10
37.844075
 20
180.994203
 30
0.0
 10
37.719852
 20
181.252075
 30
0.0
 10
37.620657
 20
181.523110
 30
0.0
 10
37.547956
 20
181.805821
 30
0.0
 10
37.503252
 20
182.098728
 30
0.0
 10
37.488097
 20
182.400347
 30
0.0
 10
37.503252
 20
182.701969
 30
0.0
 10
37.547956
 20
182.994876
 30
0.0
 10
37.620657
 20
183.277587
 30
0.0
 10
37.719852
 20
183.548622
 30
0.0
 10
37.844075
 20
183.806494
 30
0.0
 10
37.991833
 20
184.049722
 30
0.0
 10
38.161666
 20
184.276820
 30
0.0
 10
38.352067
 20
184.486314
 30
0.0
 10
38.561546
 20
184.676712
 30
0.0
 10
38.788642
 20
184.846534
 30
0.0
 10
39.031870
 20
184.994300
 30
0.0
 10
39.289744
 20
185.118523
 30
0.0
 10
39.560785
 20
185.217724
 30
0.0
 10
39.843493
 20
185.290413
 30
0.0
 10
40.136400
 20
185.335117
 30
0.0
 10
40.438022
 20
185.350329
 30
0.0
  0
LWPOLYLINE
  5
118
100
AcDbEntity
  8
0
 62
7
100
AcDbPolyline
 90
65
 70
0
 10
196.010485
 20
241.514641
 30
0.0
 10
196.312107
 20
241.499401
 30
0.0
 10
196.605014
 20
241.454697
 30
0.0
 10
196.887722
 20
241.382008
 30
0.0
 10
197.158762
 20
241.282807
 30
0.0
 10
197.416640
 20
241.158584
 30
0.0
 10
197.659865
 20
241.010818
 30
0.0
 10
197.886961
 20
240.840996
 30
0.0
 10
198.096457
 20
240.650595
 30
0.0
 10
198.286841
 20
240.441104
 30
0.0
 10
198.456677
 20
240.214006
 30
0.0
 10
198.604432
 20
239.970778
 30
0.0
 10
198.728657
 20
239.712906
 30
0.0
 10
198.827853
 20
239.441871
 30
0.0
 10
198.900550
 20
239.159161
 30
0.0
 10
198.945254
 20
238.866253
 30
0.0
 10
198.960410
 20
238.564631
 30
0.0
 10
198.945254
 20
238.263012
 30
0.0
 10
198.900550
 20
237.970105
 30
0.0
 10
198.827853
 20
237.687394
 30
0.0
 10
198.728657
 20
237.416359
 30
0.0
 10
198.604432
 20
237.158487
 30
0.0
 10
198.456677
 20
236.915260
 30
0.0
 10
198.286841
 20
236.688158
 30
0.0
 10
198.096457
 20
236.478668
 30
0.0
 10
197.886961
 20
236.288269
 30
0.0
 10
197.659865
 20
236.118445
 30
0.0
 10
197.416640
 20
235.970682
 30
0.0
 10
197.158762
 20
235.846459
 30
0.0
 10
196.887722
 20
235.747258
 30
0.0
 10
196.605014
 20
235.674566
 30
0.0
 10
196.312107
 20
235.629862
 30
0.0
 10
196.010485
 20
235.614622
 30
0.0
 10
195.708860
 20
235.629862
 30
0.0
 10
195.415953
 20
235.674566
 30
0.0
 10
195.133248
 20
235.747258
 30
0.0
 10
194.862204
 20
235.846459
 30
0.0
 10
194.604330
 20
235.970682
 30
0.0
 10
194.361105
 20
236.118445
 30
0.0
 10
194.134009
 20
236.288269
 30
0.0
 10
193.924527
 20
236.478668
 30
0.0
 10
193.734128
 20
236.688158
 30
0.0
 10
193.564293
 20
236.915260
 30
0.0
 10
193.416538
 20
237.158487
 30
0.0
 10
193.292312
 20
237.416359
 30
0.0
 10
193.193117
 20
237.687394
 30
0.0
 10
193.120416
 20
237.970105
 30
0.0
 10
193.075715
 20
238.263012
 30
0.0
 10
193.060560
 20
238.564631
 30
0.0
 10
193.075715
 20
238.866253
 30
0.0
 10
193.120416
 20
239.159161
 30
0.0
 10
193.193117
 20
239.441871
 30
0.0
 10
193.292312
 20
239.712906
 30
0.0
 10
193.416538
 20
239.970778
 30
0.0
 10
193.564293
 20
240.214006
 30
0.0
 10
193.734128
 20
240.441104
 30
0.0
 10
193.924527
 20
240.650595
 30
0.0
 10
194.134009
 20
240.840996
 30
0.0
 10
194.361105
 20
241.010818
 30
0.0
 10
194.604330
 20
241.158584
 30
0.0
 10
194.862204
 20
241.282807
 30
0.0
 10
195.133248
 20
241.382008
 30
0.0
 10
195.415953
 20
241.454697
 30
0.0
 10
195.708860
 20
241.499401
 30
0.0
 10
196.010485
 20
241.514641
 30
0.0
  0
LWPOLYLINE
  5
119
100
AcDbEntity
  8
0
 62
7
100
AcDbPolyline
 90
82
 70
0
 10
162.695314
 20
235.191410
 30
0.0
 10
162.759102
 20
236.455703
 30
0.0
 10
162.946328
 20
237.683505
 30
0.0
 10
163.250776
 20
238.868602
 30
0.0
 10
163.666232
 20
240.004769
 30
0.0
 10
164.186483
 20
241.085787
 30
0.0
 10
164.805318
 20
242.105436
 30
0.0
 10
165.516523
 20
243.057496
 30
0.0
 10
166.313883
 20
243.935749
 30
0.0
 10
167.191185
 20
244.733970
 30
0.0
 10
168.142217
 20
245.445946
 30
0.0
 10
169.160766
 20
246.065449
 30
0.0
 10
170.240616
 20
246.586265
 30
0.0
 10
171.375553
 20
247.002170
 30
0.0
 10
172.559368
 20
247.306947
 30
0.0
 10
173.785846
 20
247.494374
 30
0.0
 10
175.048774
 20
247.558232
 30
0.0
 10
176.311701
 20
247.494374
 30
0.0
 10
177.538180
 20
247.306947
 30
0.0
 10
178.721995
 20
247.002170
 30
0.0
 10
179.856932
 20
246.586265
 30
0.0
 10
180.936781
 20
246.065449
 30
0.0
 10
181.955330
 20
245.445946
 30
0.0
 10
182.906362
 20
244.733970
 30
0.0
 10
183.783664
 20
243.935749
 30
0.0
 10
184.581024
 20
243.057496
 30
0.0
 10
185.292230
 20
242.105436
 30
0.0
 10
185.911064
 20
241.085787
 30
0.0
 10
186.431315
 20
240.004769
 30
0.0
 10
186.846772
 20
238.868602
 30
0.0
 10
187.151219
 20
237.683508
 30
0.0
 10
187.338445
 20
236.455703
 30
0.0
 10
187.402233
 20
235.191410
 30
0.0
 10
187.396701
 20
234.818018
 30
0.0
 10
187.380220
 20
234.447475
 30
0.0
 10
187.352957
 20
234.079923
 30
0.0
 10
187.315057
 20
233.715503
 30
0.0
 10
187.266679
 20
233.354358
 30
0.0
 10
187.207974
 20
232.996630
 30
0.0
 10
187.139100
 20
232.642458
 30
0.0
 10
187.060216
 20
232.291988
 30
0.0
 10
186.971472
 20
231.945360
 30
0.0
 10
186.873024
 20
231.602720
 30
0.0
 10
186.765032
 20
231.264206
 30
0.0
 10
186.647650
 20
230.929959
 30
0.0
 10
186.521031
 20
230.600123
 30
0.0
 10
186.385330
 20
230.274842
 30
0.0
 10
186.240708
 20
229.954257
 30
0.0
 10
186.087317
 20
229.638507
 30
0.0
 10
184.708190
 20
229.638507
 30
0.0
 10
183.329061
 20
229.638507
 30
0.0
 10
181.949934
 20
229.638507
 30
0.0
 10
180.570804
 20
229.638507
 30
0.0
 10
179.191674
 20
229.638507
 30
0.0
 10
177.812548
 20
229.638507
 30
0.0
 10
176.433421
 20
229.638507
 30
0.0
 10
175.054291
 20
229.638507
 30
0.0
 10
173.675164
 20
229.638507
 30
0.0
 10
172.296034
 20
229.638507
 30
0.0
 10
170.916908
 20
229.638507
 30
0.0
 10
169.537778
 20
229.638507
 30
0.0
 10
168.158648
 20
229.638507
 30
0.0
 10
166.779521
 20
229.638507
 30
0.0
 10
165.400395
 20
229.638507
 30
0.0
 10
164.021265
 20
229.638507
 30
0.0
 10
163.867671
 20
229.954319
 30
0.0
 10
163.722637
 20
230.274938
 30
0.0
 10
163.586355
 20
230.600227
 30
0.0
 10
163.459002
 20
230.930046
 30
0.0
 10
163.340771
 20
231.264262
 30
0.0
 10
163.231847
 20
231.602737
 30
0.0
 10
163.132412
 20
231.945329
 30
0.0
 10
163.042656
 20
232.291907
 30
0.0
 10
162.962762
 20
232.642328
 30
0.0
 10
162.892918
 20
232.996457
 30
0.0
 10
162.833310
 20
233.354160
 30
0.0
 10
162.784121
 20
233.715292
 30
0.0
 10
162.745541
 20
234.079722
 30
0.0
 10
162.717742
 20
234.447308
 30
0.0
 10
162.700922
 20
234.817917
 30
0.0
 10
162.695278
 20
235.191410
 30
0.0
 10
162.695314
 20
235.191410
 30
0.0
  0
LWPOLYLINE
  5
11a
100
AcDbEntity
  8
0
 62
7
100
AcDbPolyline
 90
82
 70
0
 10
104.690886
 20
235.191410
 30
0.0
 10
104.754674
 20
236.455703
 30
0.0
 10
104.941901
 20
237.683505
 30
0.0
 10
105.246348
 20
238.868602
 30
0.0
 10
105.661804
 20
240.004769
 30
0.0
 10
106.182056
 20
241.085787
 30
0.0
 10
106.800890
 20
242.105436
 30
0.0
 10
107.512096
 20
243.057496
 30
0.0
 10
108.309455
 20
243.935749
 30
0.0
 10
109.186757
 20
244.733970
 30
0.0
 10
110.137789
 20
245.445946
 30
0.0
 10
111.156338
 20
246.065449
 30
0.0
 10
112.236188
 20
246.586265
 30
0.0
 10
113.371125
 20
247.002170
 30
0.0
 10
114.554940
 20
247.306947
 30
0.0
 10
115.781418
 20
247.494374
 30
0.0
 10
117.044346
 20
247.558232
 30
0.0
 10
118.307273
 20
247.494374
 30
0.0
 10
119.533752
 20
247.306947
 30
0.0
 10
120.717567
 20
247.002170
 30
0.0
 10
121.852504
 20
246.586265
 30
0.0
 10
122.932354
 20
246.065449
 30
0.0
 10
123.950902
 20
245.445946
 30
0.0
 10
124.901935
 20
244.733970
 30
0.0
 10
125.779236
 20
243.935749
 30
0.0
 10
126.576596
 20
243.057496
 30
0.0
 10
127.287802
 20
242.105436
 30
0.0
 10
127.906636
 20
241.085787
 30
0.0
 10
128.426887
 20
240.004769
 30
0.0
 10
128.842344
 20
238.868602
 30
0.0
 10
129.146791
 20
237.683505
 30
0.0
 10
129.334017
 20
236.455703
 30
0.0
 10
129.397805
 20
235.191410
 30
0.0
 10
129.392274
 20
234.818018
 30
0.0
 10
129.375792
 20
234.447475
 30
0.0
 10
129.348529
 20
234.079923
 30
0.0
 10
129.310630
 20
233.715503
 30
0.0
 10
129.262251
 20
233.354358
 30
0.0
 10
129.203546
 20
232.996630
 30
0.0
 10
129.134672
 20
232.642458
 30
0.0
 10
129.055789
 20
232.291988
 30
0.0
 10
128.967044
 20
231.945360
 30
0.0
 10
128.868596
 20
231.602720
 30
0.0
 10
128.760604
 20
231.264206
 30
0.0
 10
128.643222
 20
230.929959
 30
0.0
 10
128.516603
 20
230.600123
 30
0.0
 10
128.380902
 20
230.274842
 30
0.0
 10
128.236280
 20
229.954257
 30
0.0
 10
128.082889
 20
229.638507
 30
0.0
 10
126.703760
 20
229.638507
 30
0.0
 10
125.324633
 20
229.638507
 30
0.0
 10
123.945506
 20
229.638507
 30
0.0
 10
122.566376
 20
229.638507
 30
0.0
 10
121.187250
 20
229.638507
 30
0.0
 10
119.808120
 20
229.638507
 30
0.0
 10
118.428990
 20
229.638507
 30
0.0
 10
117.049863
 20
229.638507
 30
0.0
 10
115.670736
 20
229.638507
 30
0.0
 10
114.291607
 20
229.638507
 30
0.0
 10
112.912477
 20
229.638507
 30
0.0
 10
111.533350
 20
229.638507
 30
0.0
 10
110.154223
 20
229.638507
 30
0.0
 10
108.775094
 20
229.638507
 30
0.0
 10
107.395964
 20
229.638507
 30
0.0
 10
106.016837
 20
229.638507
 30
0.0
 10
105.863243
 20
229.954319
 30
0.0
 10
105.718209
 20
230.274938
 30
0.0
 10
105.581927
 20
230.600227
 30
0.0
 10
105.454574
 20
230.930046
 30
0.0
 10
105.336343
 20
231.264262
 30
0.0
 10
105.227419
 20
231.602737
 30
0.0
 10
105.127984
 20
231.945329
 30
0.0
 10
105.038229
 20
232.291907
 30
0.0
 10
104.958334
 20
232.642328
 30
0.0
 10
104.888490
 20
232.996457
 30
0.0
 10
104.828882
 20
233.354160
 30
0.0
 10
104.779693
 20
233.715292
 30
0.0
 10
104.741114
 20
234.079722
 30
0.0
 10
104.713315
 20
234.447308
 30
0.0
 10
104.696494
 20
234.817917
 30
0.0
 10
104.690850
 20
235.191410
 30
0.0
 10
104.690886
 20
235.191410
 30
0.0
  0
LWPOLYLINE
  5
11b
100
AcDbEntity
  8
0
 62
7
100
AcDbPolyline
 90
65
 70
0
 10
138.006026
 20
241.514584
 30
0.0
 10
138.307651
 20
241.499344
 30
0.0
 10
138.600558
 20
241.454640
 30
0.0
 10
138.883263
 20
241.381951
 30
0.0
 10
139.154306
 20
241.282750
 30
0.0
 10
139.412181
 20
241.158527
 30
0.0
 10
139.655409
 20
241.010761
 30
0.0
 10
139.882502
 20
240.840940
 30
0.0
 10
140.092001
 20
240.650539
 30
0.0
 10
140.282382
 20
240.441048
 30
0.0
 10
140.452218
 20
240.213949
 30
0.0
 10
140.599973
 20
239.970722
 30
0.0
 10
140.724199
 20
239.712850
 30
0.0
 10
140.823394
 20
239.441815
 30
0.0
 10
140.896094
 20
239.159104
 30
0.0
 10
140.940798
 20
238.866197
 30
0.0
 10
140.955954
 20
238.564575
 30
0.0
 10
140.940798
 20
238.262955
 30
0.0
 10
140.896094
 20
237.970048
 30
0.0
 10
140.823394
 20
237.687338
 30
0.0
 10
140.724199
 20
237.416303
 30
0.0
 10
140.599973
 20
237.158431
 30
0.0
 10
140.452218
 20
236.915203
 30
0.0
 10
140.282382
 20
236.688102
 30
0.0
 10
140.092001
 20
236.478611
 30
0.0
 10
139.882502
 20
236.288213
 30
0.0
 10
139.655409
 20
236.118388
 30
0.0
 10
139.412181
 20
235.970625
 30
0.0
 10
139.154306
 20
235.846402
 30
0.0
 10
138.883263
 20
235.747201
 30
0.0
 10
138.600558
 20
235.674509
 30
0.0
 10
138.307651
 20
235.629805
 30
0.0
 10
138.006026
 20
235.614565
 30
0.0
 10
137.704404
 20
235.629805
 30
0.0
 10
137.411497
 20
235.674509
 30
0.0
 10
137.128789
 20
235.747201
 30
0.0
 10
136.857748
 20
235.846402
 30
0.0
 10
136.599874
 20
235.970625
 30
0.0
 10
136.356646
 20
236.118388
 30
0.0
 10
136.129550
 20
236.288213
 30
0.0
 10
135.920071
 20
236.478611
 30
0.0
 10
135.729670
 20
236.688102
 30
0.0
 10
135.559834
 20
236.915203
 30
0.0
 10
135.412079
 20
237.158431
 30
0.0
 10
135.287853
 20
237.416303
 30
0.0
 10
135.188658
 20
237.687338
 30
0.0
 10
135.115960
 20
237.970048
 30
0.0
 10
135.071256
 20
238.262955
 30
0.0
 10
135.056101
 20
238.564575
 30
0.0
 10
135.071256
 20
238.866197
 30
0.0
 10
135.115960
 20
239.159104
 30
0.0
 10
135.188658
 20
239.441815
 30
0.0
 10
135.287853
 20
239.712850
 30
0.0
 10
135.412079
 20
239.970722
 30
0.0
 10
135.559834
 20
240.213949
 30
0.0
 10
135.729670
 20
240.441048
 30
0.0
 10
135.920071
 20
240.650539
 30
0.0
 10
136.129550
 20
240.840940
 30
0.0
 10
136.356646
 20
241.010761
 30
0.0
 10
136.599874
 20
241.158527
 30
0.0
 10
136.857748
 20
241.282750
 30
0.0
 10
137.128789
 20
241.381951
 30
0.0
 10
137.411497
 20
241.454640
 30
0.0
 10
137.704404
 20
241.499344
 30
0.0
 10
138.006026
 20
241.514584
 30
0.0
  0
LWPOLYLINE
  5
11c
100
AcDbEntity
  8
0
 62
7
100
AcDbPolyline
 90
82
 70
0
 10
56.153645
 20
240.121499
 30
0.0
 10
56.217433
 20
238.857205
 30
0.0
 10
56.404660
 20
237.629403
 30
0.0
 10
56.709107
 20
236.444307
 30
0.0
 10
57.124563
 20
235.308140
 30
0.0
 10
57.644815
 20
234.227121
 30
0.0
 10
58.263649
 20
233.207472
 30
0.0
 10
58.974855
 20
232.255412
 30
0.0
 10
59.772214
 20
231.377159
 30
0.0
 10
60.649516
 20
230.578939
 30
0.0
 10
61.600548
 20
229.866963
 30
0.0
 10
62.619097
 20
229.247460
 30
0.0
 10
63.698947
 20
228.726644
 30
0.0
 10
64.833884
 20
228.310739
 30
0.0
 10
66.017699
 20
228.005961
 30
0.0
 10
67.244177
 20
227.818535
 30
0.0
 10
68.507105
 20
227.754676
 30
0.0
 10
69.770032
 20
227.818535
 30
0.0
 10
70.996511
 20
228.005961
 30
0.0
 10
72.180326
 20
228.310739
 30
0.0
 10
73.315263
 20
228.726644
 30
0.0
 10
74.395113
 20
229.247460
 30
0.0
 10
75.413661
 20
229.866963
 30
0.0
 10
76.364694
 20
230.578939
 30
0.0
 10
77.241995
 20
231.377159
 30
0.0
 10
78.039355
 20
232.255412
 30
0.0
 10
78.750561
 20
233.207472
 30
0.0
 10
79.369395
 20
234.227121
 30
0.0
 10
79.889646
 20
235.308140
 30
0.0
 10
80.305103
 20
236.444307
 30
0.0
 10
80.609550
 20
237.629400
 30
0.0
 10
80.796776
 20
238.857205
 30
0.0
 10
80.860564
 20
240.121499
 30
0.0
 10
80.855033
 20
240.494890
 30
0.0
 10
80.838551
 20
240.865434
 30
0.0
 10
80.811288
 20
241.232986
 30
0.0
 10
80.773389
 20
241.597405
 30
0.0
 10
80.725010
 20
241.958551
 30
0.0
 10
80.666305
 20
242.316279
 30
0.0
 10
80.597431
 20
242.670451
 30
0.0
 10
80.518548
 20
243.020920
 30
0.0
 10
80.429803
 20
243.367548
 30
0.0
 10
80.331355
 20
243.710189
 30
0.0
 10
80.223363
 20
244.048703
 30
0.0
 10
80.105978
 20
244.382950
 30
0.0
 10
79.979362
 20
244.712786
 30
0.0
 10
79.843661
 20
245.038067
 30
0.0
 10
79.699039
 20
245.358652
 30
0.0
 10
79.545648
 20
245.674402
 30
0.0
 10
78.166519
 20
245.674402
 30
0.0
 10
76.787392
 20
245.674402
 30
0.0
 10
75.408262
 20
245.674402
 30
0.0
 10
74.029135
 20
245.674402
 30
0.0
 10
72.650006
 20
245.674402
 30
0.0
 10
71.270879
 20
245.674402
 30
0.0
 10
69.891749
 20
245.674402
 30
0.0
 10
68.512622
 20
245.674402
 30
0.0
 10
67.133493
 20
245.674402
 30
0.0
 10
65.754366
 20
245.674402
 30
0.0
 10
64.375236
 20
245.674402
 30
0.0
 10
62.996109
 20
245.674402
 30
0.0
 10
61.616979
 20
245.674402
 30
0.0
 10
60.237853
 20
245.674402
 30
0.0
 10
58.858723
 20
245.674402
 30
0.0
 10
57.479596
 20
245.674402
 30
0.0
 10
57.326002
 20
245.358589
 30
0.0
 10
57.180968
 20
245.037971
 30
0.0
 10
57.044686
 20
244.712682
 30
0.0
 10
56.917333
 20
244.382863
 30
0.0
 10
56.799102
 20
244.048647
 30
0.0
 10
56.690178
 20
243.710172
 30
0.0
 10
56.590743
 20
243.367579
 30
0.0
 10
56.500988
 20
243.021002
 30
0.0
 10
56.421093
 20
242.670581
 30
0.0
 10
56.351249
 20
242.316451
 30
0.0
 10
56.291641
 20
241.958749
 30
0.0
 10
56.242452
 20
241.597617
 30
0.0
 10
56.203873
 20
241.233186
 30
0.0
 10
56.176074
 20
240.865600
 30
0.0
 10
56.159253
 20
240.494992
 30
0.0
 10
56.153609
 20
240.121499
 30
0.0
 10
56.153645
 20
240.121499
 30
0.0
  0
LWPOLYLINE
  5
11d
100
AcDbEntity
  8
0
 62
7
100
AcDbPolyline
 90
65
 70
0
 10
89.311531
 20
240.688605
 30
0.0
 10
89.613156
 20
240.673393
 30
0.0
 10
89.906063
 20
240.628689
 30
0.0
 10
90.188771
 20
240.556000
 30
0.0
 10
90.459811
 20
240.456799
 30
0.0
 10
90.717686
 20
240.332576
 30
0.0
 10
90.960914
 20
240.184810
 30
0.0
 10
91.188007
 20
240.014988
 30
0.0
 10
91.397506
 20
239.824590
 30
0.0
 10
91.587887
 20
239.615096
 30
0.0
 10
91.757723
 20
239.387998
 30
0.0
 10
91.905478
 20
239.144770
 30
0.0
 10
92.029703
 20
238.886898
 30
0.0
 10
92.128899
 20
238.615863
 30
0.0
 10
92.201599
 20
238.333153
 30
0.0
 10
92.246303
 20
238.040245
 30
0.0
 10
92.261459
 20
237.738623
 30
0.0
 10
92.246303
 20
237.437004
 30
0.0
 10
92.201599
 20
237.144097
 30
0.0
 10
92.128899
 20
236.861386
 30
0.0
 10
92.029703
 20
236.590351
 30
0.0
 10
91.905478
 20
236.332479
 30
0.0
 10
91.757723
 20
236.089252
 30
0.0
 10
91.587887
 20
235.862150
 30
0.0
 10
91.397506
 20
235.652660
 30
0.0
 10
91.188007
 20
235.462261
 30
0.0
 10
90.960914
 20
235.292437
 30
0.0
 10
90.717686
 20
235.144674
 30
0.0
 10
90.459811
 20
235.020451
 30
0.0
 10
90.188771
 20
234.921250
 30
0.0
 10
89.906063
 20
234.848558
 30
0.0
 10
89.613156
 20
234.803854
 30
0.0
 10
89.311531
 20
234.788614
 30
0.0
 10
89.009909
 20
234.803854
 30
0.0
 10
88.717001
 20
234.848558
 30
0.0
 10
88.434294
 20
234.921250
 30
0.0
 10
88.163253
 20
235.020451
 30
0.0
 10
87.905378
 20
235.144674
 30
0.0
 10
87.662151
 20
235.292437
 30
0.0
 10
87.435055
 20
235.462261
 30
0.0
 10
87.225576
 20
235.652660
 30
0.0
 10
87.035174
 20
235.862150
 30
0.0
 10
86.865339
 20
236.089252
 30
0.0
 10
86.717584
 20
236.332479
 30
0.0
 10
86.593361
 20
236.590351
 30
0.0
 10
86.494163
 20
236.861386
 30
0.0
 10
86.421465
 20
237.144097
 30
0.0
 10
86.376761
 20
237.437004
 30
0.0
 10
86.361606
 20
237.738623
 30
0.0
 10
86.376761
 20
238.040245
 30
0.0
 10
86.421465
 20
238.333153
 30
0.0
 10
86.494163
 20
238.615863
 30
0.0
 10
86.593361
 20
238.886898
 30
0.0
 10
86.717584
 20
239.144770
 30
0.0
 10
86.865339
 20
239.387998
 30
0.0
 10
87.035174
 20
239.615096
 30
0.0
 10
87.225576
 20
239.824590
 30
0.0
 10
87.435055
 20
240.014988
 30
0.0
 10
87.662151
 20
240.184810
 30
0.0
 10
87.905378
 20
240.332576
 30
0.0
 10
88.163253
 20
240.456799
 30
0.0
 10
88.434294
 20
240.556000
 30
0.0
 10
88.717001
 20
240.628689
 30
0.0
 10
89.009909
 20
240.673393
 30
0.0
 10
89.311531
 20
240.688605
 30
0.0
  0
LWPOLYLINE
  5
11e
100
AcDbEntity
  8
0
 62
7
100
AcDbPolyline
 90
82
 70
0
 10
7.122856
 20
235.398025
 30
0.0
 10
7.186645
 20
236.662318
 30
0.0
 10
7.373869
 20
237.890123
 30
0.0
 10
7.678317
 20
239.075216
 30
0.0
 10
8.093773
 20
240.211384
 30
0.0
 10
8.614026
 20
241.292402
 30
0.0
 10
9.232860
 20
242.312051
 30
0.0
 10
9.944064
 20
243.264111
 30
0.0
 10
10.741424
 20
244.142364
 30
0.0
 10
11.618727
 20
244.940584
 30
0.0
 10
12.569758
 20
245.652561
 30
0.0
 10
13.588306
 20
246.272064
 30
0.0
 10
14.668156
 20
246.792879
 30
0.0
 10
15.803095
 20
247.208785
 30
0.0
 10
16.986910
 20
247.513562
 30
0.0
 10
18.213388
 20
247.700989
 30
0.0
 10
19.476315
 20
247.764847
 30
0.0
 10
20.739242
 20
247.700989
 30
0.0
 10
21.965719
 20
247.513562
 30
0.0
 10
23.149535
 20
247.208785
 30
0.0
 10
24.284474
 20
246.792879
 30
0.0
 10
25.364324
 20
246.272064
 30
0.0
 10
26.382871
 20
245.652561
 30
0.0
 10
27.333903
 20
244.940584
 30
0.0
 10
28.211205
 20
244.142364
 30
0.0
 10
29.008564
 20
243.264111
 30
0.0
 10
29.719770
 20
242.312051
 30
0.0
 10
30.338604
 20
241.292402
 30
0.0
 10
30.858855
 20
240.211384
 30
0.0
 10
31.274312
 20
239.075216
 30
0.0
 10
31.578759
 20
237.890123
 30
0.0
 10
31.765985
 20
236.662318
 30
0.0
 10
31.829773
 20
235.398025
 30
0.0
 10
31.824241
 20
235.024633
 30
0.0
 10
31.807760
 20
234.654090
 30
0.0
 10
31.780497
 20
234.286538
 30
0.0
 10
31.742597
 20
233.922118
 30
0.0
 10
31.694219
 20
233.560972
 30
0.0
 10
31.635514
 20
233.203244
 30
0.0
 10
31.566640
 20
232.849072
 30
0.0
 10
31.487753
 20
232.498603
 30
0.0
 10
31.399012
 20
232.151975
 30
0.0
 10
31.300564
 20
231.809335
 30
0.0
 10
31.192572
 20
231.470821
 30
0.0
 10
31.075190
 20
231.136573
 30
0.0
 10
30.948571
 20
230.806738
 30
0.0
 10
30.812870
 20
230.481457
 30
0.0
 10
30.668248
 20
230.160872
 30
0.0
 10
30.514857
 20
229.845122
 30
0.0
 10
29.135730
 20
229.845122
 30
0.0
 10
27.756601
 20
229.845122
 30
0.0
 10
26.377473
 20
229.845122
 30
0.0
 10
24.998344
 20
229.845122
 30
0.0
 10
23.619216
 20
229.845122
 30
0.0
 10
22.240088
 20
229.845122
 30
0.0
 10
20.860960
 20
229.845122
 30
0.0
 10
19.481832
 20
229.845122
 30
0.0
 10
18.102704
 20
229.845122
 30
0.0
 10
16.723575
 20
229.845122
 30
0.0
 10
15.344447
 20
229.845122
 30
0.0
 10
13.965319
 20
229.845122
 30
0.0
 10
12.586191
 20
229.845122
 30
0.0
 10
11.207063
 20
229.845122
 30
0.0
 10
9.827935
 20
229.845122
 30
0.0
 10
8.448806
 20
229.845122
 30
0.0
 10
8.295212
 20
230.160934
 30
0.0
 10
8.150180
 20
230.481553
 30
0.0
 10
8.013895
 20
230.806842
 30
0.0
 10
7.886544
 20
231.136661
 30
0.0
 10
7.768313
 20
231.470877
 30
0.0
 10
7.659387
 20
231.809352
 30
0.0
 10
7.559954
 20
232.151944
 30
0.0
 10
7.470197
 20
232.498521
 30
0.0
 10
7.390304
 20
232.848943
 30
0.0
 10
7.320460
 20
233.203072
 30
0.0
 10
7.260851
 20
233.560775
 30
0.0
 10
7.211663
 20
233.921906
 30
0.0
 10
7.173083
 20
234.286337
 30
0.0
 10
7.145295
 20
234.653923
 30
0.0
 10
7.128486
 20
235.024532
 30
0.0
 10
7.122842
 20
235.398025
 30
0.0
 10
7.122856
 20
235.398025
 30
0.0
  0
LWPOLYLINE
  5
11f
100
AcDbEntity
  8
0
 62
7
100
AcDbPolyline
 90
65
 70
0
 10
40.438022
 20
241.721228
 30
0.0
 10
40.739647
 20
241.706016
 30
0.0
 10
41.032554
 20
241.661312
 30
0.0
 10
41.315262
 20
241.588623
 30
0.0
 10
41.586302
 20
241.489422
 30
0.0
 10
41.844177
 20
241.365199
 30
0.0
 10
42.087405
 20
241.217433
 30
0.0
 10
42.314498
 20
241.047611
 30
0.0
 10
42.523997
 20
240.857210
 30
0.0
 10
42.714378
 20
240.647719
 30
0.0
 10
42.884214
 20
240.420621
 30
0.0
 10
43.031969
 20
240.177393
 30
0.0
 10
43.156195
 20
239.919521
 30
0.0
 10
43.255390
 20
239.648486
 30
0.0
 10
43.328090
 20
239.365776
 30
0.0
 10
43.372794
 20
239.072868
 30
0.0
 10
43.387950
 20
238.771246
 30
0.0
 10
43.372794
 20
238.469627
 30
0.0
 10
43.328090
 20
238.176720
 30
0.0
 10
43.255390
 20
237.894009
 30
0.0
 10
43.156195
 20
237.622974
 30
0.0
 10
43.031969
 20
237.365102
 30
0.0
 10
42.884214
 20
237.121875
 30
0.0
 10
42.714378
 20
236.894773
 30
0.0
 10
42.523997
 20
236.685282
 30
0.0
 10
42.314498
 20
236.494884
 30
0.0
 10
42.087405
 20
236.325060
 30
0.0
 10
41.844177
 20
236.177297
 30
0.0
 10
41.586302
 20
236.053074
 30
0.0
 10
41.315262
 20
235.953873
 30
0.0
 10
41.032554
 20
235.881181
 30
0.0
 10
40.739647
 20
235.836477
 30
0.0
 10
40.438022
 20
235.821265
 30
0.0
 10
40.136400
 20
235.836477
 30
0.0
 10
39.843493
 20
235.881181
 30
0.0
 10
39.560785
 20
235.953873
 30
0.0
 10
39.289744
 20
236.053074
 30
0.0
 10
39.031870
 20
236.177297
 30
0.0
 10
38.788642
 20
236.325060
 30
0.0
 10
38.561546
 20
236.494884
 30
0.0
 10
38.352067
 20
236.685282
 30
0.0
 10
38.161666
 20
236.894773
 30
0.0
 10
37.991833
 20
237.121875
 30
0.0
 10
37.844075
 20
237.365102
 30
0.0
 10
37.719852
 20
237.622974
 30
0.0
 10
37.620657
 20
237.894009
 30
0.0
 10
37.547956
 20
238.176720
 30
0.0
 10
37.503252
 20
238.469627
 30
0.0
 10
37.488097
 20
238.771246
 30
0.0
 10
37.503252
 20
239.072868
 30
0.0
 10
37.547956
 20
239.365776
 30
0.0
 10
37.620657
 20
239.648486
 30
0.0
 10
37.719852
 20
239.919521
 30
0.0
 10
37.844075
 20
240.177393
 30
0.0
 10
37.991833
 20
240.420621
 30
0.0
 10
38.161666
 20
240.647719
 30
0.0
 10
38.352067
 20
240.857210
 30
0.0
 10
38.561546
 20
241.047611
 30
0.0
 10
38.788642
 20
241.217433
 30
0.0
 10
39.031870
 20
241.365199
 30
0.0
 10
39.289744
 20
241.489422
 30
0.0
 10
39.560785
 20
241.588623
 30
0.0
 10
39.843493
 20
241.661312
 30
0.0
 10
40.136400
 20
241.706016
 30
0.0
 10
40.438022
 20
241.721228
 30
0.0
  0
LWPOLYLINE
  5
120
100
AcDbEntity
  8
0
 62
7
100
AcDbPolyline
 90
65
 70
0
 10
4.046068
 20
252.144348
 30
0.0
 10
16.414815
 20
252.144348
 30
0.0
 10
28.783565
 20
252.144348
 30
0.0
 10
41.152304
 20
252.144348
 30
0.0
 10
53.521060
 20
252.144348
 30
0.0
 10
65.889815
 20
252.144348
 30
0.0
 10
78.258571
 20
252.144348
 30
0.0
 10
90.627299
 20
252.144348
 30
0.0
 10
102.996055
 20
252.144348
 30
0.0
 10
115.364810
 20
252.144348
 30
0.0
 10
127.733566
 20
252.144348
 30
0.0
 10
140.102322
 20
252.144348
 30
0.0
 10
152.471078
 20
252.144348
 30
0.0
 10
164.839805
 20
252.144348
 30
0.0
 10
177.208561
 20
252.144348
 30
0.0
 10
189.577317
 20
252.144348
 30
0.0
 10
201.946073
 20
252.144348
 30
0.0
 10
201.946073
 20
239.775601
 30
0.0
 10
201.946073
 20
227.406850
 30
0.0
 10
201.946073
 20
215.038097
 30
0.0
 10
201.946073
 20
202.669347
 30
0.0
 10
201.946073
 20
190.300597
 30
0.0
 10
201.946073
 20
177.931850
 30
0.0
 10
201.946073
 20
165.563100
 30
0.0
 10
201.946073
 20
153.194347
 30
0.0
 10
201.946073
 20
140.825600
 30
0.0
 10
201.946073
 20
128.456849
 30
0.0
 10
201.946073
 20
116.088096
 30
0.0
 10
201.946073
 20
103.719349
 30
0.0
 10
201.946073
 20
91.350599
 30
0.0
 10
201.946073
 20
78.981843
 30
0.0
 10
201.946073
 20
66.613087
 30
0.0
 10
201.946073
 20
54.244360
 30
0.0
 10
189.577317
 20
54.244360
 30
0.0
 10
177.208561
 20
54.244360
 30
0.0
 10
164.839805
 20
54.244360
 30
0.0
 10
152.471078
 20
54.244360
 30
0.0
 10
140.102322
 20
54.244360
 30
0.0
 10
127.733566
 20
54.244360
 30
0.0
 10
115.364810
 20
54.244360
 30
0.0
 10
102.996055
 20
54.244360
 30
0.0
 10
90.627299
 20
54.244360
 30
0.0
 10
78.258571
 20
54.244360
 30
0.0
 10
65.889815
 20
54.244360
 30
0.0
 10
53.521060
 20
54.244360
 30
0.0
 10
41.152304
 20
54.244360
 30
0.0
 10
28.783565
 20
54.244360
 30
0.0
 10
16.414815
 20
54.244360
 30
0.0
 10
4.046068
 20
54.244360
 30
0.0
 10
4.046068
 20
66.613087
 30
0.0
 10
4.046068
 20
78.981843
 30
0.0
 10
4.046068
 20
91.350599
 30
0.0
 10
4.046068
 20
103.719349
 30
0.0
 10
4.046068
 20
116.088096
 30
0.0
 10
4.046068
 20
128.456849
 30
0.0
 10
4.046068
 20
140.825600
 30
0.0
 10
4.046068
 20
153.194347
 30
0.0
 10
4.046068
 20
165.563100
 30
0.0
 10
4.046068
 20
177.931850
 30
0.0
 10
4.046068
 20
190.300597
 30
0.0
 10
4.046068
 20
202.669347
 30
0.0
 10
4.046068
 20
215.038097
 30
0.0
 10
4.046068
 20
227.406850
 30
0.0
 10
4.046068
 20
239.775601
 30
0.0
 10
4.046068
 20
252.144348
 30
0.0
  0
LWPOLYLINE
  5
121
100
AcDbEntity
  8
0
 62
7
100
AcDbPolyline
 90
33
 70
0
 10
161.240879
 20
210.384116
 30
0.0
 10
161.191123
 20
209.890354
 30
0.0
 10
161.048347
 20
209.430465
 30
0.0
 10
160.822457
 20
209.014297
 30
0.0
 10
160.523301
 20
208.651704
 30
0.0
 10
160.160702
 20
208.352537
 30
0.0
 10
159.744537
 20
208.126649
 30
0.0
 10
159.284656
 20
207.983892
 30
0.0
 10
158.790880
 20
207.934117
 30
0.0
 10
158.297132
 20
207.983892
 30
0.0
 10
157.837251
 20
208.126649
 30
0.0
 10
157.421086
 20
208.352537
 30
0.0
 10
157.058487
 20
208.651704
 30
0.0
 10
156.759303
 20
209.014297
 30
0.0
 10
156.533413
 20
209.430465
 30
0.0
 10
156.390665
 20
209.890354
 30
0.0
 10
156.340881
 20
210.384116
 30
0.0
 10
156.390665
 20
210.877878
 30
0.0
 10
156.533413
 20
211.337768
 30
0.0
 10
156.759303
 20
211.753933
 30
0.0
 10
157.058487
 20
212.116526
 30
0.0
 10
157.421086
 20
212.415696
 30
0.0
 10
157.837251
 20
212.641583
 30
0.0
 10
158.297132
 20
212.784340
 30
0.0
 10
158.790880
 20
212.834115
 30
0.0
 10
159.284656
 20
212.784340
 30
0.0
 10
159.744537
 20
212.641583
 30
0.0
 10
160.160702
 20
212.415696
 30
0.0
 10
160.523301
 20
212.116526
 30
0.0
 10
160.822457
 20
211.753933
 30
0.0
 10
161.048347
 20
211.337768
 30
0.0
 10
161.191123
 20
210.877878
 30
0.0
 10
161.240879
 20
210.384116
 30
0.0
  0
LWPOLYLINE
  5
122
100
AcDbEntity
  8
0
 62
7
100
AcDbPolyline
 90
17
 70
0
 10
49.651262
 20
210.384116
 30
0.0
 10
49.458728
 20
209.430465
 30
0.0
 10
48.933673
 20
208.651704
 30
0.0
 10
48.154912
 20
208.126649
 30
0.0
 10
47.201260
 20
207.934117
 30
0.0
 10
46.247612
 20
208.126649
 30
0.0
 10
45.468848
 20
208.651704
 30
0.0
 10
44.943796
 20
209.430465
 30
0.0
 10
44.751261
 20
210.384116
 30
0.0
 10
44.943796
 20
211.337768
 30
0.0
 10
45.468848
 20
212.116526
 30
0.0
 10
46.247612
 20
212.641583
 30
0.0
 10
47.201260
 20
212.834115
 30
0.0
 10
48.154912
 20
212.641583
 30
0.0
 10
48.933673
 20
212.116526
 30
0.0
 10
49.458728
 20
211.337768
 30
0.0
 10
49.651262
 20
210.384116
 30
0.0
  0
LWPOLYLINE
  5
123
100
AcDbEntity
  8
0
 62
7
100
AcDbPolyline
 90
17
 70
0
 10
105.446071
 20
153.194357
 30
0.0
 10
105.253536
 20
152.240705
 30
0.0
 10
104.728490
 20
151.461944
 30
0.0
 10
103.949726
 20
150.936889
 30
0.0
 10
102.996069
 20
150.744357
 30
0.0
 10
102.042440
 20
150.936889
 30
0.0
 10
101.263676
 20
151.461944
 30
0.0
 10
100.738601
 20
152.240705
 30
0.0
 10
100.546069
 20
153.194357
 30
0.0
 10
100.738601
 20
154.148008
 30
0.0
 10
101.263676
 20
154.926767
 30
0.0
 10
102.042440
 20
155.451824
 30
0.0
 10
102.996069
 20
155.644356
 30
0.0
 10
103.949726
 20
155.451824
 30
0.0
 10
104.728490
 20
154.926767
 30
0.0
 10
105.253536
 20
154.148008
 30
0.0
 10
105.446071
 20
153.194357
 30
0.0
  0
LWPOLYLINE
  5
124
100
AcDbEntity
  8
0
 62
7
100
AcDbPolyline
 90
33
 70
0
 10
161.240879
 20
96.004592
 30
0.0
 10
161.191123
 20
95.510830
 30
0.0
 10
161.048347
 20
95.050940
 30
0.0
 10
160.822457
 20
94.634772
 30
0.0
 10
160.523301
 20
94.272179
 30
0.0
 10
160.160702
 20
93.973012
 30
0.0
 10
159.744537
 20
93.747124
 30
0.0
 10
159.284656
 20
93.604368
 30
0.0
 10
158.790880
 20
93.554592
 30
0.0
 10
158.297132
 20
93.604368
 30
0.0
 10
157.837251
 20
93.747124
 30
0.0
 10
157.421086
 20
93.973012
 30
0.0
 10
157.058487
 20
94.272179
 30
0.0
 10
156.759303
 20
94.634772
 30
0.0
 10
156.533413
 20
95.050940
 30
0.0
 10
156.390665
 20
95.510830
 30
0.0
 10
156.340881
 20
96.004592
 30
0.0
 10
156.390665
 20
96.498353
 30
0.0
 10
156.533413
 20
96.958243
 30
0.0
 10
156.759303
 20
97.374408
 30
0.0
 10
157.058487
 20
97.737001
 30
0.0
 10
157.421086
 20
98.036171
 30
0.0
 10
157.837251
 20
98.262059
 30
0.0
 10
158.297132
 20
98.404815
 30
0.0
 10
158.790880
 20
98.454591
 30
0.0
 10
159.284656
 20
98.404815
 30
0.0
 10
159.744537
 20
98.262059
 30
0.0
 10
160.160702
 20
98.036171
 30
0.0
 10
160.523301
 20
97.737001
 30
0.0
 10
160.822457
 20
97.374408
 30
0.0
 10
161.048347
 20
96.958243
 30
0.0
 10
161.191123
 20
96.498353
 30
0.0
 10
161.240879
 20
96.004592
 30
0.0
  0
LWPOLYLINE
  5
125
100
AcDbEntity
  8
0
 62
7
100
AcDbPolyline
 90
17
 70
0
 10
49.651262
 20
96.004592
 30
0.0
 10
49.458728
 20
95.050940
 30
0.0
 10
48.933673
 20
94.272179
 30
0.0
 10
48.154912
 20
93.747124
 30
0.0
 10
47.201260
 20
93.554592
 30
0.0
 10
46.247612
 20
93.747124
 30
0.0
 10
45.468848
 20
94.272179
 30
0.0
 10
44.943796
 20
95.050940
 30
0.0
 10
44.751261
 20
96.004592
 30
0.0
 10
44.943796
 20
96.958243
 30
0.0
 10
45.468848
 20
97.737001
 30
0.0
 10
46.247612
 20
98.262059
 30
0.0
 10
47.201260
 20
98.454591
 30
0.0
 10
48.154912
 20
98.262059
 30
0.0
 10
48.933673
 20
97.737001
 30
0.0
 10
49.458728
 20
96.958243
 30
0.0
 10
49.651262
 20
96.004592
 30
0.0
  0
ENDSEC
  0
SECTION
  2
OBJECTS
  0
DICTIONARY
  5
C
330
0
100
AcDbDictionary
  3
ACAD_GROUP
350
D
  3
ACAD_MLINESTYLE
350
17
  0
DICTIONARY
  5
D
330
C
100
AcDbDictionary
  0
DICTIONARY
  5
1A
330
C
100
AcDbDictionary
  0
DICTIONARY
  5
17
330
C
100
AcDbDictionary
  3
STANDARD
350
18
  0
DICTIONARY
  5
19
330
C
100
AcDbDictionary
  0
ENDSEC
  0
EOF
