999
dxfrw 0.5.10
0
SECTION
2
HEADER
9
$ACADVER
1
AC1021
9
$HANDSEED
5
20000
9
$DWGCODEPAGE
3
ANSI_1252
9
$INSBASE
10
0
20
0
30
0
9
$EXTMIN
10
4.91873
20
53.219066
30
0
9
$EXTMAX
10
220.058726
20
268.359062
30
0
9
$LIMMIN
10
0
20
0
9
$LIMMAX
10
420
20
297
9
$ORTHOMODE
70
0
9
$LTSCALE
40
1
9
$TEXTSTYLE
7
STANDARD
9
$CLAYER
8
0
9
$DIMASZ
40
2.5
9
$DIMLFAC
40
1
9
$DIMSCALE
40
1
9
$DIMEXO
40
0.625
9
$DIMEXE
40
1.25
9
$DIMTXT
40
2.5
9
$DIMTSZ
40
0
9
$DIMAUNIT
70
0
9
$DIMADEC
70
0
9
$DIMLUNIT
70
2
9
$DIMSTYLE
2
Standard
9
$DIMGAP
40
0.625
9
$DIMTIH
70
0
9
$LUNITS
70
2
9
$LUPREC
70
4
9
$AUNITS
70
0
9
$AUPREC
70
2
9
$SPLINESEGS
70
8
9
$GRIDMODE
70
0
9
$SNAPSTYLE
70
0
9
$PINSBASE
10
0
20
0
30
0
9
$PLIMMIN
10
0
20
0
9
$PLIMMAX
10
210
20
297
9
$INSUNITS
70
4
9
$PSVPSCALE
40
1
0
ENDSEC
0
SECTION
2
CLASSES
0
ENDSEC
0
SECTION
2
TABLES
0
TABLE
2
VPORT
5
8
330
0
100
AcDbSymbolTable
70
1
0
VPORT
5
31
330
2
100
AcDbSymbolTableRecord
100
AcDbViewportTableRecord
2
*ACTIVE
70
0
10
0
20
0
11
1
21
1
12
201.699036918
22
151.342696629
13
0
23
0
14
10
24
10
15
10
25
10
16
0
26
0
36
1
17
0
27
0
37
0
40
341
41
2.43980738363
42
50
43
0
44
0
50
0
51
0
71
0
72
100
73
1
74
3
75
0
76
0
77
0
78
0
281
0
65
1
110
0
120
0
130
0
111
1
121
0
131
0
112
0
122
1
132
0
79
0
146
0
348
10020
60
7
61
5
292
1
282
1
141
0
142
0
63
250
421
3358443
0
ENDTAB
0
TABLE
2
LTYPE
5
5
330
0
100
AcDbSymbolTable
70
4
0
LTYPE
5
14
330
5
100
AcDbSymbolTableRecord
100
AcDbLinetypeTableRecord
2
ByBlock
70
0
3

72
65
73
0
40
0
0
LTYPE
5
15
330
5
100
AcDbSymbolTableRecord
100
AcDbLinetypeTableRecord
2
ByLayer
70
0
3

72
65
73
0
40
0
0
LTYPE
5
16
330
5
100
AcDbSymbolTableRecord
100
AcDbLinetypeTableRecord
2
Continuous
70
0
3
Solid line
72
65
73
0
40
0
0
LTYPE
5
32
330
5
100
AcDbSymbolTableRecord
100
AcDbLinetypeTableRecord
2
DOT
70
0
3
Dot . . . . . . . . . . . . . . . . . . . . . .
72
65
73
2
40
6.35
49
0
74
0
49
-6.35
74
0
0
LTYPE
5
33
330
5
100
AcDbSymbolTableRecord
100
AcDbLinetypeTableRecord
2
DOT2
70
0
3
Dot (.5x) .....................................
72
65
73
2
40
3.175
49
0
74
0
49
-3.175
74
0
0
LTYPE
5
34
330
5
100
AcDbSymbolTableRecord
100
AcDbLinetypeTableRecord
2
DOTX2
70
0
3
Dot (2x) .  .  .  .  .  .  .  .  .  .  .  .  .
72
65
73
2
40
12.7
49
0
74
0
49
-12.7
74
0
0
LTYPE
5
35
330
5
100
AcDbSymbolTableRecord
100
AcDbLinetypeTableRecord
2
DASHED
70
0
3
Dot . . . . . . . . . . . . . . . . . . . . . .
72
65
73
2
40
19.05
49
12.7
74
0
49
-6.35
74
0
0
LTYPE
5
36
330
5
100
AcDbSymbolTableRecord
100
AcDbLinetypeTableRecord
2
DASHED2
70
0
3
Dashed (.5x) _ _ _ _ _ _ _ _ _ _ _ _ _ _ _ _ _
72
65
73
2
40
9.525
49
6.35
74
0
49
-3.175
74
0
0
LTYPE
5
37
330
5
100
AcDbSymbolTableRecord
100
AcDbLinetypeTableRecord
2
DASHEDX2
70
0
3
Dashed (2x) ____  ____  ____  ____  ____  ___
72
65
73
2
40
38.1
49
25.4
74
0
49
-12.7
74
0
0
LTYPE
5
38
330
5
100
AcDbSymbolTableRecord
100
AcDbLinetypeTableRecord
2
DASHDOT
70
0
3
Dash dot __ . __ . __ . __ . __ . __ . __ . __
72
65
73
4
40
25.4
49
12.7
74
0
49
-6.35
74
0
49
0
74
0
49
-6.35
74
0
0
LTYPE
5
39
330
5
100
AcDbSymbolTableRecord
100
AcDbLinetypeTableRecord
2
DASHDOT2
70
0
3
Dash dot (.5x) _._._._._._._._._._._._._._._.
72
65
73
4
40
12.7
49
6.35
74
0
49
-3.175
74
0
49
0
74
0
49
-3.175
74
0
0
LTYPE
5
3A
330
5
100
AcDbSymbolTableRecord
100
AcDbLinetypeTableRecord
2
DASHDOTX2
70
0
3
Dash dot (2x) ____  .  ____  .  ____  .  ___
72
65
73
4
40
50.8
49
25.4
74
0
49
-12.7
74
0
49
0
74
0
49
-12.7
74
0
0
LTYPE
5
3B
330
5
100
AcDbSymbolTableRecord
100
AcDbLinetypeTableRecord
2
DIVIDE
70
0
3
Divide ____ . . ____ . . ____ . . ____ . . ____
72
65
73
6
40
31.75
49
12.7
74
0
49
-6.35
74
0
49
0
74
0
49
-6.35
74
0
49
0
74
0
49
-6.35
74
0
0
LTYPE
5
3C
330
5
100
AcDbSymbolTableRecord
100
AcDbLinetypeTableRecord
2
DIVIDE2
70
0
3
Divide (.5x) __..__..__..__..__..__..__..__.._
72
65
73
6
40
15.875
49
6.35
74
0
49
-3.175
74
0
49
0
74
0
49
-3.175
74
0
49
0
74
0
49
-3.175
74
0
0
LTYPE
5
3D
330
5
100
AcDbSymbolTableRecord
100
AcDbLinetypeTableRecord
2
DIVIDEX2
70
0
3
Divide (2x) ________  .  .  ________  .  .  _
72
65
73
6
40
63.5
49
25.4
74
0
49
-12.7
74
0
49
0
74
0
49
-12.7
74
0
49
0
74
0
49
-12.7
74
0
0
LTYPE
5
3E
330
5
100
AcDbSymbolTableRecord
100
AcDbLinetypeTableRecord
2
BORDER
70
0
3
Border __ __ . __ __ . __ __ . __ __ . __ __ .
72
65
73
6
40
44.45
49
12.7
74
0
49
-6.35
74
0
49
12.7
74
0
49
-6.35
74
0
49
0
74
0
49
-6.35
74
0
0
LTYPE
5
3F
330
5
100
AcDbSymbolTableRecord
100
AcDbLinetypeTableRecord
2
BORDER2
70
0
3
Border (.5x) __.__.__.__.__.__.__.__.__.__.__.
72
65
73
6
40
22.225
49
6.35
74
0
49
-3.175
74
0
49
6.35
74
0
49
-3.175
74
0
49
0
74
0
49
-3.175
74
0
0
LTYPE
5
40
330
5
100
AcDbSymbolTableRecord
100
AcDbLinetypeTableRecord
2
BORDERX2
70
0
3
Border (2x) ____  ____  .  ____  ____  .  ___
72
65
73
6
40
88.9
49
25.4
74
0
49
-12.7
74
0
49
25.4
74
0
49
-12.7
74
0
49
0
74
0
49
-12.7
74
0
0
LTYPE
5
41
330
5
100
AcDbSymbolTableRecord
100
AcDbLinetypeTableRecord
2
CENTER
70
0
3
Center ____ _ ____ _ ____ _ ____ _ ____ _ ____
72
65
73
4
40
50.8
49
31.75
74
0
49
-6.35
74
0
49
6.35
74
0
49
-6.35
74
0
0
LTYPE
5
42
330
5
100
AcDbSymbolTableRecord
100
AcDbLinetypeTableRecord
2
CENTER2
70
0
3
Center (.5x) ___ _ ___ _ ___ _ ___ _ ___ _ ___
72
65
73
4
40
28.575
49
19.05
74
0
49
-3.175
74
0
49
3.175
74
0
49
-3.175
74
0
0
LTYPE
5
43
330
5
100
AcDbSymbolTableRecord
100
AcDbLinetypeTableRecord
2
CENTERX2
70
0
3
Center (2x) ________  __  ________  __  _____
72
65
73
4
40
101.6
49
63.5
74
0
49
-12.7
74
0
49
12.7
74
0
49
-12.7
74
0
0
ENDTAB
0
TABLE
2
LAYER
5
2
330
0
100
AcDbSymbolTable
70
1
0
LAYER
5
10
330
2
100
AcDbSymbolTableRecord
100
AcDbLayerTableRecord
2
0
70
0
62
7
6
CONTINUOUS
370
-3
390
F
0
ENDTAB
0
TABLE
2
STYLE
5
3
330
0
100
AcDbSymbolTable
70
3
0
STYLE
5
44
330
2
100
AcDbSymbolTableRecord
100
AcDbTextStyleTableRecord
2
Standard
70
0
40
0
41
1
50
0
71
0
42
1
3
txt
4

0
ENDTAB
0
TABLE
2
VIEW
5
6
330
0
100
AcDbSymbolTable
70
0
0
ENDTAB
0
TABLE
2
UCS
5
7
330
0
100
AcDbSymbolTable
70
0
0
ENDTAB
0
TABLE
2
APPID
5
9
330
0
100
AcDbSymbolTable
70
1
0
APPID
5
12
330
9
100
AcDbSymbolTableRecord
100
AcDbRegAppTableRecord
2
ACAD
70
0
0
ENDTAB
0
TABLE
2
DIMSTYLE
5
A
330
0
100
AcDbSymbolTable
70
1
100
AcDbDimStyleTable
71
1
0
DIMSTYLE
105
45
330
A
100
AcDbSymbolTableRecord
100
AcDbDimStyleTableRecord
2
Standard
70
0
40
1
41
2.5
42
0.625
43
0.38
44
1.25
45
0
46
0
47
0
48
0
140
2.5
141
0.09
142
0
143
25.4
144
1
145
0
146
1
147
0.625
148
0
71
0
72
0
73
0
74
1
75
0
76
0
77
0
78
0
79
0
170
0
171
2
172
0
173
0
174
0
175
0
176
0
177
0
178
0
179
0
271
4
272
4
273
2
274
2
275
0
276
0
277
2
278
46
279
0
280
0
281
0
282
0
283
1
284
0
285
0
286
0
288
0
289
3
340
Standard
341

371
-2
372
-2
0
ENDTAB
0
TABLE
2
BLOCK_RECORD
5
1
330
0
100
AcDbSymbolTable
70
2
0
BLOCK_RECORD
5
1F
330
1
100
AcDbSymbolTableRecord
100
AcDbBlockTableRecord
2
*Model_Space
70
0
280
1
281
0
0
BLOCK_RECORD
5
1E
330
1
100
AcDbSymbolTableRecord
100
AcDbBlockTableRecord
2
*Paper_Space
70
0
280
1
281
0
0
ENDTAB
0
ENDSEC
0
SECTION
2
BLOCKS
0
BLOCK
5
20
330
1F
100
AcDbEntity
8
0
100
AcDbBlockBegin
2
*Model_Space
70
0
10
0
20
0
30
0
3
*Model_Space
1

0
ENDBLK
5
21
330
1F
100
AcDbEntity
8
0
100
AcDbBlockEnd
0
BLOCK
5
1C
330
1B
100
AcDbEntity
8
0
100
AcDbBlockBegin
2
*Paper_Space
70
0
10
0
20
0
30
0
3
*Paper_Space
1

0
ENDBLK
5
1D
330
1F
100
AcDbEntity
8
0
100
AcDbBlockEnd
0
ENDSEC
0
SECTION
2
ENTITIES
0
SPLINE
5
46
100
AcDbEntity
8
0
6
ByLayer
62
7
370
-1
100
AcDbSpline
210
0
220
0
230
1
70
8
71
3
72
8
73
4
74
0
42
1e-07
43
1e-07
40
0
40
0
40
0
40
0
40
1
40
1
40
1
40
1
10
214.183339
20
255.582179
30
0
10
215.237273
20
255.582179
30
0
10
216.211147
20
255.019912
30
0
10
216.738114
20
254.107179
30
0
0
SPLINE
5
47
100
AcDbEntity
8
0
6
ByLayer
62
7
370
-1
100
AcDbSpline
210
0
220
0
230
1
70
8
71
3
72
8
73
4
74
0
42
1e-07
43
1e-07
40
0
40
0
40
0
40
0
40
1
40
1
40
1
40
1
10
216.738114
20
254.107179
30
0
10
217.265081
20
253.194445
30
0
10
217.265081
20
252.069912
30
0
10
216.738114
20
251.157179
30
0
0
SPLINE
5
48
100
AcDbEntity
8
0
6
ByLayer
62
7
370
-1
100
AcDbSpline
210
0
220
0
230
1
70
8
71
3
72
8
73
4
74
0
42
1e-07
43
1e-07
40
0
40
0
40
0
40
0
40
1
40
1
40
1
40
1
10
216.738114
20
251.157179
30
0
10
216.211147
20
250.244445
30
0
10
215.237273
20
249.682179
30
0
10
214.183339
20
249.682179
30
0
0
SPLINE
5
49
100
AcDbEntity
8
0
6
ByLayer
62
7
370
-1
100
AcDbSpline
210
0
220
0
230
1
70
8
71
3
72
8
73
4
74
0
42
1e-07
43
1e-07
40
0
40
0
40
0
40
0
40
1
40
1
40
1
40
1
10
214.183339
20
249.682179
30
0
10
213.129406
20
249.682179
30
0
10
212.155531
20
250.244445
30
0
10
211.628564
20
251.157179
30
0
0
SPLINE
5
4A
100
AcDbEntity
8
0
6
ByLayer
62
7
370
-1
100
AcDbSpline
210
0
220
0
230
1
70
8
71
3
72
8
73
4
74
0
42
1e-07
43
1e-07
40
0
40
0
40
0
40
0
40
1
40
1
40
1
40
1
10
211.628564
20
251.157179
30
0
10
211.101597
20
252.069912
30
0
10
211.101597
20
253.194445
30
0
10
211.628564
20
254.107179
30
0
0
SPLINE
5
4B
100
AcDbEntity
8
0
6
ByLayer
62
7
370
-1
100
AcDbSpline
210
0
220
0
230
1
70
8
71
3
72
8
73
4
74
0
42
1e-07
43
1e-07
40
0
40
0
40
0
40
0
40
1
40
1
40
1
40
1
10
211.628564
20
254.107179
30
0
10
212.155531
20
255.019912
30
0
10
213.129406
20
255.582179
30
0
10
214.183339
20
255.582179
30
0
0
SPLINE
5
4C
100
AcDbEntity
8
0
6
ByLayer
62
7
370
-1
100
AcDbSpline
210
0
220
0
230
1
70
8
71
3
72
8
73
4
74
0
42
1e-07
43
1e-07
40
0
40
0
40
0
40
0
40
1
40
1
40
1
40
1
10
214.183339
20
194.454793
30
0
10
215.237273
20
194.454793
30
0
10
216.211147
20
193.892526
30
0
10
216.738114
20
192.979793
30
0
0
SPLINE
5
4D
100
AcDbEntity
8
0
6
ByLayer
62
7
370
-1
100
AcDbSpline
210
0
220
0
230
1
70
8
71
3
72
8
73
4
74
0
42
1e-07
43
1e-07
40
0
40
0
40
0
40
0
40
1
40
1
40
1
40
1
10
216.738114
20
192.979793
30
0
10
217.265081
20
192.067059
30
0
10
217.265081
20
190.942526
30
0
10
216.738114
20
190.029793
30
0
0
SPLINE
5
4E
100
AcDbEntity
8
0
6
ByLayer
62
7
370
-1
100
AcDbSpline
210
0
220
0
230
1
70
8
71
3
72
8
73
4
74
0
42
1e-07
43
1e-07
40
0
40
0
40
0
40
0
40
1
40
1
40
1
40
1
10
216.738114
20
190.029793
30
0
10
216.211147
20
189.117059
30
0
10
215.237273
20
188.554793
30
0
10
214.183339
20
188.554793
30
0
0
SPLINE
5
4F
100
AcDbEntity
8
0
6
ByLayer
62
7
370
-1
100
AcDbSpline
210
0
220
0
230
1
70
8
71
3
72
8
73
4
74
0
42
1e-07
43
1e-07
40
0
40
0
40
0
40
0
40
1
40
1
40
1
40
1
10
214.183339
20
188.554793
30
0
10
213.129406
20
188.554793
30
0
10
212.155531
20
189.117059
30
0
10
211.628564
20
190.029793
30
0
0
SPLINE
5
50
100
AcDbEntity
8
0
6
ByLayer
62
7
370
-1
100
AcDbSpline
210
0
220
0
230
1
70
8
71
3
72
8
73
4
74
0
42
1e-07
43
1e-07
40
0
40
0
40
0
40
0
40
1
40
1
40
1
40
1
10
211.628564
20
190.029793
30
0
10
211.101597
20
190.942526
30
0
10
211.101597
20
192.067059
30
0
10
211.628564
20
192.979793
30
0
0
SPLINE
5
51
100
AcDbEntity
8
0
6
ByLayer
62
7
370
-1
100
AcDbSpline
210
0
220
0
230
1
70
8
71
3
72
8
73
4
74
0
42
1e-07
43
1e-07
40
0
40
0
40
0
40
0
40
1
40
1
40
1
40
1
10
211.628564
20
192.979793
30
0
10
212.155531
20
193.892526
30
0
10
213.129406
20
194.454793
30
0
10
214.183339
20
194.454793
30
0
0
LWPOLYLINE
5
52
100
AcDbEntity
8
0
6
ByLayer
62
7
370
-1
100
AcDbPolyline
90
2
70
0
43
0
10
214.183339
20
255.582179
10
214.183339
20
255.582179
0
SPLINE
5
53
100
AcDbEntity
8
0
6
ByLayer
62
7
370
-1
100
AcDbSpline
210
0
220
0
230
1
70
8
71
3
72
8
73
4
74
0
42
1e-07
43
1e-07
40
0
40
0
40
0
40
0
40
1
40
1
40
1
40
1
10
214.183339
20
133.327435
30
0
10
215.237273
20
133.327435
30
0
10
216.211147
20
132.765168
30
0
10
216.738114
20
131.852435
30
0
0
SPLINE
5
54
100
AcDbEntity
8
0
6
ByLayer
62
7
370
-1
100
AcDbSpline
210
0
220
0
230
1
70
8
71
3
72
8
73
4
74
0
42
1e-07
43
1e-07
40
0
40
0
40
0
40
0
40
1
40
1
40
1
40
1
10
216.738114
20
131.852435
30
0
10
217.265081
20
130.939702
30
0
10
217.265081
20
129.815168
30
0
10
216.738114
20
128.902435
30
0
0
SPLINE
5
55
100
AcDbEntity
8
0
6
ByLayer
62
7
370
-1
100
AcDbSpline
210
0
220
0
230
1
70
8
71
3
72
8
73
4
74
0
42
1e-07
43
1e-07
40
0
40
0
40
0
40
0
40
1
40
1
40
1
40
1
10
216.738114
20
128.902435
30
0
10
216.211147
20
127.989702
30
0
10
215.237273
20
127.427435
30
0
10
214.183339
20
127.427435
30
0
0
SPLINE
5
56
100
AcDbEntity
8
0
6
ByLayer
62
7
370
-1
100
AcDbSpline
210
0
220
0
230
1
70
8
71
3
72
8
73
4
74
0
42
1e-07
43
1e-07
40
0
40
0
40
0
40
0
40
1
40
1
40
1
40
1
10
214.183339
20
127.427435
30
0
10
213.129406
20
127.427435
30
0
10
212.155531
20
127.989702
30
0
10
211.628564
20
128.902435
30
0
0
SPLINE
5
57
100
AcDbEntity
8
0
6
ByLayer
62
7
370
-1
100
AcDbSpline
210
0
220
0
230
1
70
8
71
3
72
8
73
4
74
0
42
1e-07
43
1e-07
40
0
40
0
40
0
40
0
40
1
40
1
40
1
40
1
10
211.628564
20
128.902435
30
0
10
211.101597
20
129.815168
30
0
10
211.101597
20
130.939702
30
0
10
211.628564
20
131.852435
30
0
0
SPLINE
5
58
100
AcDbEntity
8
0
6
ByLayer
62
7
370
-1
100
AcDbSpline
210
0
220
0
230
1
70
8
71
3
72
8
73
4
74
0
42
1e-07
43
1e-07
40
0
40
0
40
0
40
0
40
1
40
1
40
1
40
1
10
211.628564
20
131.852435
30
0
10
212.155531
20
132.765168
30
0
10
213.129406
20
133.327435
30
0
10
214.183339
20
133.327435
30
0
0
LWPOLYLINE
5
59
100
AcDbEntity
8
0
6
ByLayer
62
7
370
-1
100
AcDbPolyline
90
2
70
0
43
0
10
214.183339
20
194.454793
10
214.183339
20
194.454793
0
SPLINE
5
5A
100
AcDbEntity
8
0
6
ByLayer
62
7
370
-1
100
AcDbSpline
210
0
220
0
230
1
70
8
71
3
72
8
73
4
74
0
42
1e-07
43
1e-07
40
0
40
0
40
0
40
0
40
1
40
1
40
1
40
1
10
214.183339
20
72.200035
30
0
10
215.237273
20
72.200035
30
0
10
216.211147
20
71.637768
30
0
10
216.738114
20
70.725035
30
0
0
SPLINE
5
5B
100
AcDbEntity
8
0
6
ByLayer
62
7
370
-1
100
AcDbSpline
210
0
220
0
230
1
70
8
71
3
72
8
73
4
74
0
42
1e-07
43
1e-07
40
0
40
0
40
0
40
0
40
1
40
1
40
1
40
1
10
216.738114
20
70.725035
30
0
10
217.265081
20
69.812302
30
0
10
217.265081
20
68.687768
30
0
10
216.738114
20
67.775035
30
0
0
SPLINE
5
5C
100
AcDbEntity
8
0
6
ByLayer
62
7
370
-1
100
AcDbSpline
210
0
220
0
230
1
70
8
71
3
72
8
73
4
74
0
42
1e-07
43
1e-07
40
0
40
0
40
0
40
0
40
1
40
1
40
1
40
1
10
216.738114
20
67.775035
30
0
10
216.211147
20
66.862301
30
0
10
215.237273
20
66.300035
30
0
10
214.183339
20
66.300035
30
0
0
SPLINE
5
5D
100
AcDbEntity
8
0
6
ByLayer
62
7
370
-1
100
AcDbSpline
210
0
220
0
230
1
70
8
71
3
72
8
73
4
74
0
42
1e-07
43
1e-07
40
0
40
0
40
0
40
0
40
1
40
1
40
1
40
1
10
214.183339
20
66.300035
30
0
10
213.129406
20
66.300035
30
0
10
212.155531
20
66.862301
30
0
10
211.628564
20
67.775035
30
0
0
SPLINE
5
5E
100
AcDbEntity
8
0
6
ByLayer
62
7
370
-1
100
AcDbSpline
210
0
220
0
230
1
70
8
71
3
72
8
73
4
74
0
42
1e-07
43
1e-07
40
0
40
0
40
0
40
0
40
1
40
1
40
1
40
1
10
211.628564
20
67.775035
30
0
10
211.101597
20
68.687768
30
0
10
211.101597
20
69.812302
30
0
10
211.628564
20
70.725035
30
0
0
SPLINE
5
5F
100
AcDbEntity
8
0
6
ByLayer
62
7
370
-1
100
AcDbSpline
210
0
220
0
230
1
70
8
71
3
72
8
73
4
74
0
42
1e-07
43
1e-07
40
0
40
0
40
0
40
0
40
1
40
1
40
1
40
1
10
211.628564
20
70.725035
30
0
10
212.155531
20
71.637768
30
0
10
213.129406
20
72.200035
30
0
10
214.183339
20
72.200035
30
0
0
LWPOLYLINE
5
60
100
AcDbEntity
8
0
6
ByLayer
62
7
370
-1
100
AcDbPolyline
90
2
70
0
43
0
10
214.183339
20
133.327435
10
214.183339
20
133.327435
0
SPLINE
5
61
100
AcDbEntity
8
0
6
ByLayer
62
7
370
-1
100
AcDbSpline
210
0
220
0
230
1
70
8
71
3
72
8
73
4
74
0
42
1e-07
43
1e-07
40
0
40
0
40
0
40
0
40
1
40
1
40
1
40
1
10
7.122856
20
249.936309
30
0
10
7.122856
20
256.765449
30
0
10
12.654552
20
262.303132
30
0
10
19.476315
20
262.303132
30
0
0
SPLINE
5
62
100
AcDbEntity
8
0
6
ByLayer
62
7
370
-1
100
AcDbSpline
210
0
220
0
230
1
70
8
71
3
72
8
73
4
74
0
42
1e-07
43
1e-07
40
0
40
0
40
0
40
0
40
1
40
1
40
1
40
1
10
19.476315
20
262.303132
30
0
10
26.298077
20
262.303132
30
0
10
31.829773
20
256.765449
30
0
10
31.829773
20
249.936309
30
0
0
SPLINE
5
63
100
AcDbEntity
8
0
6
ByLayer
62
7
370
-1
100
AcDbSpline
210
0
220
0
230
1
70
8
71
3
72
8
73
4
74
0
42
1e-07
43
1e-07
40
0
40
0
40
0
40
0
40
1
40
1
40
1
40
1
10
31.829773
20
249.936309
30
0
10
31.829773
20
247.937546
30
0
10
31.356063
20
246.054249
30
0
10
30.514871
20
244.383406
30
0
0
LWPOLYLINE
5
64
100
AcDbEntity
8
0
6
ByLayer
62
7
370
-1
100
AcDbPolyline
90
2
70
0
43
0
10
214.183339
20
72.200035
10
214.183339
20
72.200035
0
SPLINE
5
65
100
AcDbEntity
8
0
6
ByLayer
62
7
370
-1
100
AcDbSpline
210
0
220
0
230
1
70
8
71
3
72
8
73
4
74
0
42
1e-07
43
1e-07
40
0
40
0
40
0
40
0
40
1
40
1
40
1
40
1
10
8.44882
20
244.383406
30
0
10
7.607149
20
246.054672
30
0
10
7.122856
20
247.936906
30
0
10
7.122856
20
249.936309
30
0
0
LWPOLYLINE
5
66
100
AcDbEntity
8
0
6
ByLayer
62
7
370
-1
100
AcDbPolyline
90
2
70
0
43
0
10
30.514871
20
244.383406
10
8.44882
20
244.383406
0
SPLINE
5
67
100
AcDbEntity
8
0
6
ByLayer
62
7
370
-1
100
AcDbSpline
210
0
220
0
230
1
70
8
71
3
72
8
73
4
74
0
42
1e-07
43
1e-07
40
0
40
0
40
0
40
0
40
1
40
1
40
1
40
1
10
180.868168
20
249.258947
30
0
10
180.868168
20
256.088087
30
0
10
186.399864
20
261.62577
30
0
10
193.221627
20
261.62577
30
0
0
SPLINE
5
68
100
AcDbEntity
8
0
6
ByLayer
62
7
370
-1
100
AcDbSpline
210
0
220
0
230
1
70
8
71
3
72
8
73
4
74
0
42
1e-07
43
1e-07
40
0
40
0
40
0
40
0
40
1
40
1
40
1
40
1
10
193.221627
20
261.62577
30
0
10
200.04339
20
261.62577
30
0
10
205.575086
20
256.088087
30
0
10
205.575086
20
249.258947
30
0
0
SPLINE
5
69
100
AcDbEntity
8
0
6
ByLayer
62
7
370
-1
100
AcDbSpline
210
0
220
0
230
1
70
8
71
3
72
8
73
4
74
0
42
1e-07
43
1e-07
40
0
40
0
40
0
40
0
40
1
40
1
40
1
40
1
10
205.575086
20
249.258947
30
0
10
205.575086
20
247.260185
30
0
10
205.101376
20
245.376888
30
0
10
204.260185
20
243.706045
30
0
0
LWPOLYLINE
5
6A
100
AcDbEntity
8
0
6
ByLayer
62
7
370
-1
100
AcDbPolyline
90
2
70
0
43
0
10
7.122856
20
249.936309
10
7.122856
20
249.936309
0
SPLINE
5
6B
100
AcDbEntity
8
0
6
ByLayer
62
7
370
-1
100
AcDbSpline
210
0
220
0
230
1
70
8
71
3
72
8
73
4
74
0
42
1e-07
43
1e-07
40
0
40
0
40
0
40
0
40
1
40
1
40
1
40
1
10
182.194132
20
243.706045
30
0
10
181.352461
20
245.377311
30
0
10
180.868168
20
247.259544
30
0
10
180.868168
20
249.258947
30
0
0
LWPOLYLINE
5
6C
100
AcDbEntity
8
0
6
ByLayer
62
7
370
-1
100
AcDbPolyline
90
2
70
0
43
0
10
204.260185
20
243.706045
10
182.194132
20
243.706045
0
SPLINE
5
6D
100
AcDbEntity
8
0
6
ByLayer
62
7
370
-1
100
AcDbSpline
210
0
220
0
230
1
70
8
71
3
72
8
73
4
74
0
42
1e-07
43
1e-07
40
0
40
0
40
0
40
0
40
1
40
1
40
1
40
1
10
180.868168
20
188.131561
30
0
10
180.868168
20
194.960701
30
0
10
186.399864
20
200.498384
30
0
10
193.221627
20
200.498384
30
0
0
SPLINE
5
6E
100
AcDbEntity
8
0
6
ByLayer
62
7
370
-1
100
AcDbSpline
210
0
220
0
230
1
70
8
71
3
72
8
73
4
74
0
42
1e-07
43
1e-07
40
0
40
0
40
0
40
0
40
1
40
1
40
1
40
1
10
193.221627
20
200.498384
30
0
10
200.04339
20
200.498384
30
0
10
205.575086
20
194.960701
30
0
10
205.575086
20
188.131561
30
0
0
SPLINE
5
6F
100
AcDbEntity
8
0
6
ByLayer
62
7
370
-1
100
AcDbSpline
210
0
220
0
230
1
70
8
71
3
72
8
73
4
74
0
42
1e-07
43
1e-07
40
0
40
0
40
0
40
0
40
1
40
1
40
1
40
1
10
205.575086
20
188.131561
30
0
10
205.575086
20
186.132799
30
0
10
205.101376
20
184.249502
30
0
10
204.260185
20
182.578659
30
0
0
LWPOLYLINE
5
70
100
AcDbEntity
8
0
6
ByLayer
62
7
370
-1
100
AcDbPolyline
90
2
70
0
43
0
10
180.868168
20
249.258947
10
180.868168
20
249.258947
0
SPLINE
5
71
100
AcDbEntity
8
0
6
ByLayer
62
7
370
-1
100
AcDbSpline
210
0
220
0
230
1
70
8
71
3
72
8
73
4
74
0
42
1e-07
43
1e-07
40
0
40
0
40
0
40
0
40
1
40
1
40
1
40
1
10
182.194132
20
182.578659
30
0
10
181.352461
20
184.249925
30
0
10
180.868168
20
186.132158
30
0
10
180.868168
20
188.131561
30
0
0
LWPOLYLINE
5
72
100
AcDbEntity
8
0
6
ByLayer
62
7
370
-1
100
AcDbPolyline
90
2
70
0
43
0
10
204.260185
20
182.578659
10
182.194132
20
182.578659
0
SPLINE
5
73
100
AcDbEntity
8
0
6
ByLayer
62
7
370
-1
100
AcDbSpline
210
0
220
0
230
1
70
8
71
3
72
8
73
4
74
0
42
1e-07
43
1e-07
40
0
40
0
40
0
40
0
40
1
40
1
40
1
40
1
10
180.868168
20
127.004175
30
0
10
180.868168
20
133.833315
30
0
10
186.399864
20
139.370998
30
0
10
193.221627
20
139.370998
30
0
0
SPLINE
5
74
100
AcDbEntity
8
0
6
ByLayer
62
7
370
-1
100
AcDbSpline
210
0
220
0
230
1
70
8
71
3
72
8
73
4
74
0
42
1e-07
43
1e-07
40
0
40
0
40
0
40
0
40
1
40
1
40
1
40
1
10
193.221627
20
139.370998
30
0
10
200.04339
20
139.370998
30
0
10
205.575086
20
133.833315
30
0
10
205.575086
20
127.004175
30
0
0
SPLINE
5
75
100
AcDbEntity
8
0
6
ByLayer
62
7
370
-1
100
AcDbSpline
210
0
220
0
230
1
70
8
71
3
72
8
73
4
74
0
42
1e-07
43
1e-07
40
0
40
0
40
0
40
0
40
1
40
1
40
1
40
1
10
205.575086
20
127.004175
30
0
10
205.575086
20
125.005413
30
0
10
205.101376
20
123.122116
30
0
10
204.260185
20
121.451273
30
0
0
LWPOLYLINE
5
76
100
AcDbEntity
8
0
6
ByLayer
62
7
370
-1
100
AcDbPolyline
90
2
70
0
43
0
10
180.868168
20
188.131561
10
180.868168
20
188.131561
0
SPLINE
5
77
100
AcDbEntity
8
0
6
ByLayer
62
7
370
-1
100
AcDbSpline
210
0
220
0
230
1
70
8
71
3
72
8
73
4
74
0
42
1e-07
43
1e-07
40
0
40
0
40
0
40
0
40
1
40
1
40
1
40
1
10
182.194132
20
121.451273
30
0
10
181.352461
20
123.122539
30
0
10
180.868168
20
125.004772
30
0
10
180.868168
20
127.004175
30
0
0
LWPOLYLINE
5
78
100
AcDbEntity
8
0
6
ByLayer
62
7
370
-1
100
AcDbPolyline
90
2
70
0
43
0
10
204.260185
20
121.451273
10
182.194132
20
121.451273
0
SPLINE
5
79
100
AcDbEntity
8
0
6
ByLayer
62
7
370
-1
100
AcDbSpline
210
0
220
0
230
1
70
8
71
3
72
8
73
4
74
0
42
1e-07
43
1e-07
40
0
40
0
40
0
40
0
40
1
40
1
40
1
40
1
10
180.868168
20
65.876801
30
0
10
180.868168
20
72.705958
30
0
10
186.399864
20
78.243637
30
0
10
193.221627
20
78.243637
30
0
0
SPLINE
5
7A
100
AcDbEntity
8
0
6
ByLayer
62
7
370
-1
100
AcDbSpline
210
0
220
0
230
1
70
8
71
3
72
8
73
4
74
0
42
1e-07
43
1e-07
40
0
40
0
40
0
40
0
40
1
40
1
40
1
40
1
10
193.221627
20
78.243637
30
0
10
200.04339
20
78.243637
30
0
10
205.575086
20
72.705958
30
0
10
205.575086
20
65.876801
30
0
0
SPLINE
5
7B
100
AcDbEntity
8
0
6
ByLayer
62
7
370
-1
100
AcDbSpline
210
0
220
0
230
1
70
8
71
3
72
8
73
4
74
0
42
1e-07
43
1e-07
40
0
40
0
40
0
40
0
40
1
40
1
40
1
40
1
10
205.575086
20
65.876801
30
0
10
205.575086
20
63.878046
30
0
10
205.101376
20
61.994749
30
0
10
204.260185
20
60.323909
30
0
0
LWPOLYLINE
5
7C
100
AcDbEntity
8
0
6
ByLayer
62
7
370
-1
100
AcDbPolyline
90
2
70
0
43
0
10
180.868168
20
127.004175
10
180.868168
20
127.004175
0
SPLINE
5
7D
100
AcDbEntity
8
0
6
ByLayer
62
7
370
-1
100
AcDbSpline
210
0
220
0
230
1
70
8
71
3
72
8
73
4
74
0
42
1e-07
43
1e-07
40
0
40
0
40
0
40
0
40
1
40
1
40
1
40
1
10
182.194132
20
60.323909
30
0
10
181.352461
20
61.995173
30
0
10
180.868168
20
63.877397
30
0
10
180.868168
20
65.876801
30
0
0
LWPOLYLINE
5
7E
100
AcDbEntity
8
0
6
ByLayer
62
7
370
-1
100
AcDbPolyline
90
2
70
0
43
0
10
204.260185
20
60.323909
10
182.194132
20
60.323909
0
SPLINE
5
7F
100
AcDbEntity
8
0
6
ByLayer
62
7
370
-1
100
AcDbSpline
210
0
220
0
230
1
70
8
71
3
72
8
73
4
74
0
42
1e-07
43
1e-07
40
0
40
0
40
0
40
0
40
1
40
1
40
1
40
1
10
113.777313
20
249.729694
30
0
10
113.777313
20
256.558834
30
0
10
119.30901
20
262.096517
30
0
10
126.130772
20
262.096517
30
0
0
SPLINE
5
80
100
AcDbEntity
8
0
6
ByLayer
62
7
370
-1
100
AcDbSpline
210
0
220
0
230
1
70
8
71
3
72
8
73
4
74
0
42
1e-07
43
1e-07
40
0
40
0
40
0
40
0
40
1
40
1
40
1
40
1
10
126.130772
20
262.096517
30
0
10
132.952535
20
262.096517
30
0
10
138.484232
20
256.558834
30
0
10
138.484232
20
249.729694
30
0
0
SPLINE
5
81
100
AcDbEntity
8
0
6
ByLayer
62
7
370
-1
100
AcDbSpline
210
0
220
0
230
1
70
8
71
3
72
8
73
4
74
0
42
1e-07
43
1e-07
40
0
40
0
40
0
40
0
40
1
40
1
40
1
40
1
10
138.484232
20
249.729694
30
0
10
138.484232
20
247.730931
30
0
10
138.010522
20
245.847634
30
0
10
137.16933
20
244.176791
30
0
0
LWPOLYLINE
5
82
100
AcDbEntity
8
0
6
ByLayer
62
7
370
-1
100
AcDbPolyline
90
2
70
0
43
0
10
180.868168
20
65.876801
10
180.868168
20
65.876801
0
SPLINE
5
83
100
AcDbEntity
8
0
6
ByLayer
62
7
370
-1
100
AcDbSpline
210
0
220
0
230
1
70
8
71
3
72
8
73
4
74
0
42
1e-07
43
1e-07
40
0
40
0
40
0
40
0
40
1
40
1
40
1
40
1
10
115.103278
20
244.176791
30
0
10
114.261606
20
245.848058
30
0
10
113.777313
20
247.730291
30
0
10
113.777313
20
249.729694
30
0
0
LWPOLYLINE
5
84
100
AcDbEntity
8
0
6
ByLayer
62
7
370
-1
100
AcDbPolyline
90
2
70
0
43
0
10
137.16933
20
244.176791
10
115.103278
20
244.176791
0
SPLINE
5
85
100
AcDbEntity
8
0
6
ByLayer
62
7
370
-1
100
AcDbSpline
210
0
220
0
230
1
70
8
71
3
72
8
73
4
74
0
42
1e-07
43
1e-07
40
0
40
0
40
0
40
0
40
1
40
1
40
1
40
1
10
113.777313
20
188.602308
30
0
10
113.777313
20
195.431448
30
0
10
119.30901
20
200.969131
30
0
10
126.130772
20
200.969131
30
0
0
SPLINE
5
86
100
AcDbEntity
8
0
6
ByLayer
62
7
370
-1
100
AcDbSpline
210
0
220
0
230
1
70
8
71
3
72
8
73
4
74
0
42
1e-07
43
1e-07
40
0
40
0
40
0
40
0
40
1
40
1
40
1
40
1
10
126.130772
20
200.969131
30
0
10
132.952535
20
200.969131
30
0
10
138.484232
20
195.431448
30
0
10
138.484232
20
188.602308
30
0
0
SPLINE
5
87
100
AcDbEntity
8
0
6
ByLayer
62
7
370
-1
100
AcDbSpline
210
0
220
0
230
1
70
8
71
3
72
8
73
4
74
0
42
1e-07
43
1e-07
40
0
40
0
40
0
40
0
40
1
40
1
40
1
40
1
10
138.484232
20
188.602308
30
0
10
138.484232
20
186.603545
30
0
10
138.010522
20
184.720248
30
0
10
137.16933
20
183.049405
30
0
0
LWPOLYLINE
5
88
100
AcDbEntity
8
0
6
ByLayer
62
7
370
-1
100
AcDbPolyline
90
2
70
0
43
0
10
113.777313
20
249.729694
10
113.777313
20
249.729694
0
SPLINE
5
89
100
AcDbEntity
8
0
6
ByLayer
62
7
370
-1
100
AcDbSpline
210
0
220
0
230
1
70
8
71
3
72
8
73
4
74
0
42
1e-07
43
1e-07
40
0
40
0
40
0
40
0
40
1
40
1
40
1
40
1
10
115.103278
20
183.049405
30
0
10
114.261606
20
184.720672
30
0
10
113.777313
20
186.602905
30
0
10
113.777313
20
188.602308
30
0
0
LWPOLYLINE
5
8A
100
AcDbEntity
8
0
6
ByLayer
62
7
370
-1
100
AcDbPolyline
90
2
70
0
43
0
10
137.16933
20
183.049405
10
115.103278
20
183.049405
0
SPLINE
5
8B
100
AcDbEntity
8
0
6
ByLayer
62
7
370
-1
100
AcDbSpline
210
0
220
0
230
1
70
8
71
3
72
8
73
4
74
0
42
1e-07
43
1e-07
40
0
40
0
40
0
40
0
40
1
40
1
40
1
40
1
10
113.777313
20
127.474922
30
0
10
113.777313
20
134.304062
30
0
10
119.30901
20
139.841745
30
0
10
126.130772
20
139.841745
30
0
0
SPLINE
5
8C
100
AcDbEntity
8
0
6
ByLayer
62
7
370
-1
100
AcDbSpline
210
0
220
0
230
1
70
8
71
3
72
8
73
4
74
0
42
1e-07
43
1e-07
40
0
40
0
40
0
40
0
40
1
40
1
40
1
40
1
10
126.130772
20
139.841745
30
0
10
132.952535
20
139.841745
30
0
10
138.484232
20
134.304062
30
0
10
138.484232
20
127.474922
30
0
0
SPLINE
5
8D
100
AcDbEntity
8
0
6
ByLayer
62
7
370
-1
100
AcDbSpline
210
0
220
0
230
1
70
8
71
3
72
8
73
4
74
0
42
1e-07
43
1e-07
40
0
40
0
40
0
40
0
40
1
40
1
40
1
40
1
10
138.484232
20
127.474922
30
0
10
138.484232
20
125.476159
30
0
10
138.010522
20
123.592862
30
0
10
137.16933
20
121.922019
30
0
0
LWPOLYLINE
5
8E
100
AcDbEntity
8
0
6
ByLayer
62
7
370
-1
100
AcDbPolyline
90
2
70
0
43
0
10
113.777313
20
188.602308
10
113.777313
20
188.602308
0
SPLINE
5
8F
100
AcDbEntity
8
0
6
ByLayer
62
7
370
-1
100
AcDbSpline
210
0
220
0
230
1
70
8
71
3
72
8
73
4
74
0
42
1e-07
43
1e-07
40
0
40
0
40
0
40
0
40
1
40
1
40
1
40
1
10
115.103278
20
121.922019
30
0
10
114.261606
20
123.593286
30
0
10
113.777313
20
125.475519
30
0
10
113.777313
20
127.474922
30
0
0
LWPOLYLINE
5
90
100
AcDbEntity
8
0
6
ByLayer
62
7
370
-1
100
AcDbPolyline
90
2
70
0
43
0
10
137.16933
20
121.922019
10
115.103278
20
121.922019
0
SPLINE
5
91
100
AcDbEntity
8
0
6
ByLayer
62
7
370
-1
100
AcDbSpline
210
0
220
0
230
1
70
8
71
3
72
8
73
4
74
0
42
1e-07
43
1e-07
40
0
40
0
40
0
40
0
40
1
40
1
40
1
40
1
10
113.777313
20
66.347547
30
0
10
113.777313
20
73.176704
30
0
10
119.30901
20
78.714384
30
0
10
126.130772
20
78.714384
30
0
0
SPLINE
5
92
100
AcDbEntity
8
0
6
ByLayer
62
7
370
-1
100
AcDbSpline
210
0
220
0
230
1
70
8
71
3
72
8
73
4
74
0
42
1e-07
43
1e-07
40
0
40
0
40
0
40
0
40
1
40
1
40
1
40
1
10
126.130772
20
78.714384
30
0
10
132.952535
20
78.714384
30
0
10
138.484232
20
73.176704
30
0
10
138.484232
20
66.347547
30
0
0
SPLINE
5
93
100
AcDbEntity
8
0
6
ByLayer
62
7
370
-1
100
AcDbSpline
210
0
220
0
230
1
70
8
71
3
72
8
73
4
74
0
42
1e-07
43
1e-07
40
0
40
0
40
0
40
0
40
1
40
1
40
1
40
1
10
138.484232
20
66.347547
30
0
10
138.484232
20
64.348793
30
0
10
138.010522
20
62.465496
30
0
10
137.16933
20
60.794656
30
0
0
LWPOLYLINE
5
94
100
AcDbEntity
8
0
6
ByLayer
62
7
370
-1
100
AcDbPolyline
90
2
70
0
43
0
10
113.777313
20
127.474922
10
113.777313
20
127.474922
0
SPLINE
5
95
100
AcDbEntity
8
0
6
ByLayer
62
7
370
-1
100
AcDbSpline
210
0
220
0
230
1
70
8
71
3
72
8
73
4
74
0
42
1e-07
43
1e-07
40
0
40
0
40
0
40
0
40
1
40
1
40
1
40
1
10
115.103278
20
60.794656
30
0
10
114.261606
20
62.465919
30
0
10
113.777313
20
64.348144
30
0
10
113.777313
20
66.347547
30
0
0
LWPOLYLINE
5
96
100
AcDbEntity
8
0
6
ByLayer
62
7
370
-1
100
AcDbPolyline
90
2
70
0
43
0
10
137.16933
20
60.794656
10
115.103278
20
60.794656
0
SPLINE
5
97
100
AcDbEntity
8
0
6
ByLayer
62
7
370
-1
100
AcDbSpline
210
0
220
0
230
1
70
8
71
3
72
8
73
4
74
0
42
1e-07
43
1e-07
40
0
40
0
40
0
40
0
40
1
40
1
40
1
40
1
10
60.696845
20
254.659783
30
0
10
60.696845
20
247.830643
30
0
10
66.228541
20
242.292961
30
0
10
73.050304
20
242.292961
30
0
0
SPLINE
5
98
100
AcDbEntity
8
0
6
ByLayer
62
7
370
-1
100
AcDbSpline
210
0
220
0
230
1
70
8
71
3
72
8
73
4
74
0
42
1e-07
43
1e-07
40
0
40
0
40
0
40
0
40
1
40
1
40
1
40
1
10
73.050304
20
242.292961
30
0
10
79.872067
20
242.292961
30
0
10
85.403763
20
247.830643
30
0
10
85.403763
20
254.659783
30
0
0
SPLINE
5
99
100
AcDbEntity
8
0
6
ByLayer
62
7
370
-1
100
AcDbSpline
210
0
220
0
230
1
70
8
71
3
72
8
73
4
74
0
42
1e-07
43
1e-07
40
0
40
0
40
0
40
0
40
1
40
1
40
1
40
1
10
85.403763
20
254.659783
30
0
10
85.403763
20
256.658546
30
0
10
84.930053
20
258.541843
30
0
10
84.088862
20
260.212686
30
0
0
LWPOLYLINE
5
9A
100
AcDbEntity
8
0
6
ByLayer
62
7
370
-1
100
AcDbPolyline
90
2
70
0
43
0
10
113.777313
20
66.347547
10
113.777313
20
66.347547
0
SPLINE
5
9B
100
AcDbEntity
8
0
6
ByLayer
62
7
370
-1
100
AcDbSpline
210
0
220
0
230
1
70
8
71
3
72
8
73
4
74
0
42
1e-07
43
1e-07
40
0
40
0
40
0
40
0
40
1
40
1
40
1
40
1
10
62.022809
20
260.212686
30
0
10
61.181138
20
258.54142
30
0
10
60.696845
20
256.659187
30
0
10
60.696845
20
254.659783
30
0
0
LWPOLYLINE
5
9C
100
AcDbEntity
8
0
6
ByLayer
62
7
370
-1
100
AcDbPolyline
90
2
70
0
43
0
10
84.088862
20
260.212686
10
62.022809
20
260.212686
0
SPLINE
5
9D
100
AcDbEntity
8
0
6
ByLayer
62
7
370
-1
100
AcDbSpline
210
0
220
0
230
1
70
8
71
3
72
8
73
4
74
0
42
1e-07
43
1e-07
40
0
40
0
40
0
40
0
40
1
40
1
40
1
40
1
10
60.445639
20
193.615963
30
0
10
60.445639
20
186.786823
30
0
10
65.977335
20
181.249141
30
0
10
72.799098
20
181.249141
30
0
0
SPLINE
5
9E
100
AcDbEntity
8
0
6
ByLayer
62
7
370
-1
100
AcDbSpline
210
0
220
0
230
1
70
8
71
3
72
8
73
4
74
0
42
1e-07
43
1e-07
40
0
40
0
40
0
40
0
40
1
40
1
40
1
40
1
10
72.799098
20
181.249141
30
0
10
79.620861
20
181.249141
30
0
10
85.152557
20
186.786823
30
0
10
85.152557
20
193.615963
30
0
0
SPLINE
5
9F
100
AcDbEntity
8
0
6
ByLayer
62
7
370
-1
100
AcDbSpline
210
0
220
0
230
1
70
8
71
3
72
8
73
4
74
0
42
1e-07
43
1e-07
40
0
40
0
40
0
40
0
40
1
40
1
40
1
40
1
10
85.152557
20
193.615963
30
0
10
85.152557
20
195.614726
30
0
10
84.678847
20
197.498023
30
0
10
83.837656
20
199.168866
30
0
0
LWPOLYLINE
5
A0
100
AcDbEntity
8
0
6
ByLayer
62
7
370
-1
100
AcDbPolyline
90
2
70
0
43
0
10
60.696845
20
254.659783
10
60.696845
20
254.659783
0
SPLINE
5
A1
100
AcDbEntity
8
0
6
ByLayer
62
7
370
-1
100
AcDbSpline
210
0
220
0
230
1
70
8
71
3
72
8
73
4
74
0
42
1e-07
43
1e-07
40
0
40
0
40
0
40
0
40
1
40
1
40
1
40
1
10
61.771603
20
199.168866
30
0
10
60.929932
20
197.4976
30
0
10
60.445639
20
195.615367
30
0
10
60.445639
20
193.615963
30
0
0
LWPOLYLINE
5
A2
100
AcDbEntity
8
0
6
ByLayer
62
7
370
-1
100
AcDbPolyline
90
2
70
0
43
0
10
83.837656
20
199.168866
10
61.771603
20
199.168866
0
SPLINE
5
A3
100
AcDbEntity
8
0
6
ByLayer
62
7
370
-1
100
AcDbSpline
210
0
220
0
230
1
70
8
71
3
72
8
73
4
74
0
42
1e-07
43
1e-07
40
0
40
0
40
0
40
0
40
1
40
1
40
1
40
1
10
60.571256
20
132.320965
30
0
10
60.571256
20
125.491826
30
0
10
66.102952
20
119.954143
30
0
10
72.924715
20
119.954143
30
0
0
SPLINE
5
A4
100
AcDbEntity
8
0
6
ByLayer
62
7
370
-1
100
AcDbSpline
210
0
220
0
230
1
70
8
71
3
72
8
73
4
74
0
42
1e-07
43
1e-07
40
0
40
0
40
0
40
0
40
1
40
1
40
1
40
1
10
72.924715
20
119.954143
30
0
10
79.746478
20
119.954143
30
0
10
85.278174
20
125.491826
30
0
10
85.278174
20
132.320965
30
0
0
SPLINE
5
A5
100
AcDbEntity
8
0
6
ByLayer
62
7
370
-1
100
AcDbSpline
210
0
220
0
230
1
70
8
71
3
72
8
73
4
74
0
42
1e-07
43
1e-07
40
0
40
0
40
0
40
0
40
1
40
1
40
1
40
1
10
85.278174
20
132.320965
30
0
10
85.278174
20
134.319728
30
0
10
84.804464
20
136.203025
30
0
10
83.963273
20
137.873868
30
0
0
LWPOLYLINE
5
A6
100
AcDbEntity
8
0
6
ByLayer
62
7
370
-1
100
AcDbPolyline
90
2
70
0
43
0
10
60.445639
20
193.615963
10
60.445639
20
193.615963
0
SPLINE
5
A7
100
AcDbEntity
8
0
6
ByLayer
62
7
370
-1
100
AcDbSpline
210
0
220
0
230
1
70
8
71
3
72
8
73
4
74
0
42
1e-07
43
1e-07
40
0
40
0
40
0
40
0
40
1
40
1
40
1
40
1
10
61.89722
20
137.873868
30
0
10
61.055549
20
136.202602
30
0
10
60.571256
20
134.320369
30
0
10
60.571256
20
132.320965
30
0
0
LWPOLYLINE
5
A8
100
AcDbEntity
8
0
6
ByLayer
62
7
370
-1
100
AcDbPolyline
90
2
70
0
43
0
10
83.963273
20
137.873868
10
61.89722
20
137.873868
0
SPLINE
5
A9
100
AcDbEntity
8
0
6
ByLayer
62
7
370
-1
100
AcDbSpline
210
0
220
0
230
1
70
8
71
3
72
8
73
4
74
0
42
1e-07
43
1e-07
40
0
40
0
40
0
40
0
40
1
40
1
40
1
40
1
10
60.360577
20
70.990696
30
0
10
60.360577
20
64.161539
30
0
10
65.892274
20
58.623859
30
0
10
72.714036
20
58.623859
30
0
0
SPLINE
5
AA
100
AcDbEntity
8
0
6
ByLayer
62
7
370
-1
100
AcDbSpline
210
0
220
0
230
1
70
8
71
3
72
8
73
4
74
0
42
1e-07
43
1e-07
40
0
40
0
40
0
40
0
40
1
40
1
40
1
40
1
10
72.714036
20
58.623859
30
0
10
79.535799
20
58.623859
30
0
10
85.067496
20
64.161539
30
0
10
85.067496
20
70.990696
30
0
0
SPLINE
5
AB
100
AcDbEntity
8
0
6
ByLayer
62
7
370
-1
100
AcDbSpline
210
0
220
0
230
1
70
8
71
3
72
8
73
4
74
0
42
1e-07
43
1e-07
40
0
40
0
40
0
40
0
40
1
40
1
40
1
40
1
10
85.067496
20
70.990696
30
0
10
85.067496
20
72.98945
30
0
10
84.593786
20
74.872747
30
0
10
83.752594
20
76.543587
30
0
0
LWPOLYLINE
5
AC
100
AcDbEntity
8
0
6
ByLayer
62
7
370
-1
100
AcDbPolyline
90
2
70
0
43
0
10
60.571256
20
132.320965
10
60.571256
20
132.320965
0
SPLINE
5
AD
100
AcDbEntity
8
0
6
ByLayer
62
7
370
-1
100
AcDbSpline
210
0
220
0
230
1
70
8
71
3
72
8
73
4
74
0
42
1e-07
43
1e-07
40
0
40
0
40
0
40
0
40
1
40
1
40
1
40
1
10
61.686542
20
76.543587
30
0
10
60.84487
20
74.872324
30
0
10
60.360577
20
72.990099
30
0
10
60.360577
20
70.990696
30
0
0
LWPOLYLINE
5
AE
100
AcDbEntity
8
0
6
ByLayer
62
7
370
-1
100
AcDbPolyline
90
2
70
0
43
0
10
83.752594
20
76.543587
10
61.686542
20
76.543587
0
SPLINE
5
AF
100
AcDbEntity
8
0
6
ByLayer
62
7
370
-1
100
AcDbSpline
210
0
220
0
230
1
70
8
71
3
72
8
73
4
74
0
42
1e-07
43
1e-07
40
0
40
0
40
0
40
0
40
1
40
1
40
1
40
1
10
7.122856
20
66.554162
30
0
10
7.122856
20
73.383319
30
0
10
12.654552
20
78.920999
30
0
10
19.476315
20
78.920999
30
0
0
SPLINE
5
B0
100
AcDbEntity
8
0
6
ByLayer
62
7
370
-1
100
AcDbSpline
210
0
220
0
230
1
70
8
71
3
72
8
73
4
74
0
42
1e-07
43
1e-07
40
0
40
0
40
0
40
0
40
1
40
1
40
1
40
1
10
19.476315
20
78.920999
30
0
10
26.298077
20
78.920999
30
0
10
31.829773
20
73.383319
30
0
10
31.829773
20
66.554162
30
0
0
SPLINE
5
B1
100
AcDbEntity
8
0
6
ByLayer
62
7
370
-1
100
AcDbSpline
210
0
220
0
230
1
70
8
71
3
72
8
73
4
74
0
42
1e-07
43
1e-07
40
0
40
0
40
0
40
0
40
1
40
1
40
1
40
1
10
31.829773
20
66.554162
30
0
10
31.829773
20
64.555408
30
0
10
31.356063
20
62.672111
30
0
10
30.514871
20
61.001271
30
0
0
LWPOLYLINE
5
B2
100
AcDbEntity
8
0
6
ByLayer
62
7
370
-1
100
AcDbPolyline
90
2
70
0
43
0
10
60.360577
20
70.990696
10
60.360577
20
70.990696
0
SPLINE
5
B3
100
AcDbEntity
8
0
6
ByLayer
62
7
370
-1
100
AcDbSpline
210
0
220
0
230
1
70
8
71
3
72
8
73
4
74
0
42
1e-07
43
1e-07
40
0
40
0
40
0
40
0
40
1
40
1
40
1
40
1
10
8.44882
20
61.001271
30
0
10
7.607149
20
62.672534
30
0
10
7.122856
20
64.554759
30
0
10
7.122856
20
66.554162
30
0
0
LWPOLYLINE
5
B4
100
AcDbEntity
8
0
6
ByLayer
62
7
370
-1
100
AcDbPolyline
90
2
70
0
43
0
10
30.514871
20
61.001271
10
8.44882
20
61.001271
0
SPLINE
5
B5
100
AcDbEntity
8
0
6
ByLayer
62
7
370
-1
100
AcDbSpline
210
0
220
0
230
1
70
8
71
3
72
8
73
4
74
0
42
1e-07
43
1e-07
40
0
40
0
40
0
40
0
40
1
40
1
40
1
40
1
10
7.122856
20
127.681509
30
0
10
7.122856
20
134.510649
30
0
10
12.654552
20
140.048331
30
0
10
19.476315
20
140.048331
30
0
0
SPLINE
5
B6
100
AcDbEntity
8
0
6
ByLayer
62
7
370
-1
100
AcDbSpline
210
0
220
0
230
1
70
8
71
3
72
8
73
4
74
0
42
1e-07
43
1e-07
40
0
40
0
40
0
40
0
40
1
40
1
40
1
40
1
10
19.476315
20
140.048331
30
0
10
26.298077
20
140.048331
30
0
10
31.829773
20
134.510649
30
0
10
31.829773
20
127.681509
30
0
0
SPLINE
5
B7
100
AcDbEntity
8
0
6
ByLayer
62
7
370
-1
100
AcDbSpline
210
0
220
0
230
1
70
8
71
3
72
8
73
4
74
0
42
1e-07
43
1e-07
40
0
40
0
40
0
40
0
40
1
40
1
40
1
40
1
10
31.829773
20
127.681509
30
0
10
31.829773
20
125.682746
30
0
10
31.356063
20
123.799449
30
0
10
30.514871
20
122.128606
30
0
0
LWPOLYLINE
5
B8
100
AcDbEntity
8
0
6
ByLayer
62
7
370
-1
100
AcDbPolyline
90
2
70
0
43
0
10
7.122856
20
66.554162
10
7.122856
20
66.554162
0
SPLINE
5
B9
100
AcDbEntity
8
0
6
ByLayer
62
7
370
-1
100
AcDbSpline
210
0
220
0
230
1
70
8
71
3
72
8
73
4
74
0
42
1e-07
43
1e-07
40
0
40
0
40
0
40
0
40
1
40
1
40
1
40
1
10
8.44882
20
122.128606
30
0
10
7.607149
20
123.799872
30
0
10
7.122856
20
125.682105
30
0
10
7.122856
20
127.681509
30
0
0
LWPOLYLINE
5
BA
100
AcDbEntity
8
0
6
ByLayer
62
7
370
-1
100
AcDbPolyline
90
2
70
0
43
0
10
30.514871
20
122.128606
10
8.44882
20
122.128606
0
SPLINE
5
BB
100
AcDbEntity
8
0
6
ByLayer
62
7
370
-1
100
AcDbSpline
210
0
220
0
230
1
70
8
71
3
72
8
73
4
74
0
42
1e-07
43
1e-07
40
0
40
0
40
0
40
0
40
1
40
1
40
1
40
1
10
7.122856
20
188.808923
30
0
10
7.122856
20
195.638063
30
0
10
12.654552
20
201.175746
30
0
10
19.476315
20
201.175746
30
0
0
SPLINE
5
BC
100
AcDbEntity
8
0
6
ByLayer
62
7
370
-1
100
AcDbSpline
210
0
220
0
230
1
70
8
71
3
72
8
73
4
74
0
42
1e-07
43
1e-07
40
0
40
0
40
0
40
0
40
1
40
1
40
1
40
1
10
19.476315
20
201.175746
30
0
10
26.298077
20
201.175746
30
0
10
31.829773
20
195.638063
30
0
10
31.829773
20
188.808923
30
0
0
SPLINE
5
BD
100
AcDbEntity
8
0
6
ByLayer
62
7
370
-1
100
AcDbSpline
210
0
220
0
230
1
70
8
71
3
72
8
73
4
74
0
42
1e-07
43
1e-07
40
0
40
0
40
0
40
0
40
1
40
1
40
1
40
1
10
31.829773
20
188.808923
30
0
10
31.829773
20
186.81016
30
0
10
31.356063
20
184.926863
30
0
10
30.514871
20
183.25602
30
0
0
LWPOLYLINE
5
BE
100
AcDbEntity
8
0
6
ByLayer
62
7
370
-1
100
AcDbPolyline
90
2
70
0
43
0
10
7.122856
20
127.681509
10
7.122856
20
127.681509
0
SPLINE
5
BF
100
AcDbEntity
8
0
6
ByLayer
62
7
370
-1
100
AcDbSpline
210
0
220
0
230
1
70
8
71
3
72
8
73
4
74
0
42
1e-07
43
1e-07
40
0
40
0
40
0
40
0
40
1
40
1
40
1
40
1
10
8.44882
20
183.25602
30
0
10
7.607149
20
184.927286
30
0
10
7.122856
20
186.80952
30
0
10
7.122856
20
188.808923
30
0
0
LWPOLYLINE
5
C0
100
AcDbEntity
8
0
6
ByLayer
62
7
370
-1
100
AcDbPolyline
90
2
70
0
43
0
10
30.514871
20
183.25602
10
8.44882
20
183.25602
0
SPLINE
5
C1
100
AcDbEntity
8
0
6
ByLayer
62
7
370
-1
100
AcDbSpline
210
0
220
0
230
1
70
8
71
3
72
8
73
4
74
0
42
1e-07
43
1e-07
40
0
40
0
40
0
40
0
40
1
40
1
40
1
40
1
10
147.092454
20
72.670725
30
0
10
148.146387
20
72.670725
30
0
10
149.120262
20
72.108458
30
0
10
149.647229
20
71.195725
30
0
0
SPLINE
5
C2
100
AcDbEntity
8
0
6
ByLayer
62
7
370
-1
100
AcDbSpline
210
0
220
0
230
1
70
8
71
3
72
8
73
4
74
0
42
1e-07
43
1e-07
40
0
40
0
40
0
40
0
40
1
40
1
40
1
40
1
10
149.647229
20
71.195725
30
0
10
150.174195
20
70.282992
30
0
10
150.174195
20
69.158458
30
0
10
149.647229
20
68.245725
30
0
0
SPLINE
5
C3
100
AcDbEntity
8
0
6
ByLayer
62
7
370
-1
100
AcDbSpline
210
0
220
0
230
1
70
8
71
3
72
8
73
4
74
0
42
1e-07
43
1e-07
40
0
40
0
40
0
40
0
40
1
40
1
40
1
40
1
10
149.647229
20
68.245725
30
0
10
149.120262
20
67.332992
30
0
10
148.146387
20
66.770725
30
0
10
147.092454
20
66.770725
30
0
0
SPLINE
5
C4
100
AcDbEntity
8
0
6
ByLayer
62
7
370
-1
100
AcDbSpline
210
0
220
0
230
1
70
8
71
3
72
8
73
4
74
0
42
1e-07
43
1e-07
40
0
40
0
40
0
40
0
40
1
40
1
40
1
40
1
10
147.092454
20
66.770725
30
0
10
146.03852
20
66.770725
30
0
10
145.064645
20
67.332992
30
0
10
144.537679
20
68.245725
30
0
0
SPLINE
5
C5
100
AcDbEntity
8
0
6
ByLayer
62
7
370
-1
100
AcDbSpline
210
0
220
0
230
1
70
8
71
3
72
8
73
4
74
0
42
1e-07
43
1e-07
40
0
40
0
40
0
40
0
40
1
40
1
40
1
40
1
10
144.537679
20
68.245725
30
0
10
144.010712
20
69.158458
30
0
10
144.010712
20
70.282992
30
0
10
144.537679
20
71.195725
30
0
0
SPLINE
5
C6
100
AcDbEntity
8
0
6
ByLayer
62
7
370
-1
100
AcDbSpline
210
0
220
0
230
1
70
8
71
3
72
8
73
4
74
0
42
1e-07
43
1e-07
40
0
40
0
40
0
40
0
40
1
40
1
40
1
40
1
10
144.537679
20
71.195725
30
0
10
145.064645
20
72.108458
30
0
10
146.03852
20
72.670725
30
0
10
147.092454
20
72.670725
30
0
0
LWPOLYLINE
5
C7
100
AcDbEntity
8
0
6
ByLayer
62
7
370
-1
100
AcDbPolyline
90
2
70
0
43
0
10
7.122856
20
188.808923
10
7.122856
20
188.808923
0
SPLINE
5
C8
100
AcDbEntity
8
0
6
ByLayer
62
7
370
-1
100
AcDbSpline
210
0
220
0
230
1
70
8
71
3
72
8
73
4
74
0
42
1e-07
43
1e-07
40
0
40
0
40
0
40
0
40
1
40
1
40
1
40
1
10
147.092454
20
133.798125
30
0
10
148.146387
20
133.798125
30
0
10
149.120262
20
133.235858
30
0
10
149.647229
20
132.323125
30
0
0
SPLINE
5
C9
100
AcDbEntity
8
0
6
ByLayer
62
7
370
-1
100
AcDbSpline
210
0
220
0
230
1
70
8
71
3
72
8
73
4
74
0
42
1e-07
43
1e-07
40
0
40
0
40
0
40
0
40
1
40
1
40
1
40
1
10
149.647229
20
132.323125
30
0
10
150.174195
20
131.410392
30
0
10
150.174195
20
130.285858
30
0
10
149.647229
20
129.373125
30
0
0
SPLINE
5
CA
100
AcDbEntity
8
0
6
ByLayer
62
7
370
-1
100
AcDbSpline
210
0
220
0
230
1
70
8
71
3
72
8
73
4
74
0
42
1e-07
43
1e-07
40
0
40
0
40
0
40
0
40
1
40
1
40
1
40
1
10
149.647229
20
129.373125
30
0
10
149.120262
20
128.460392
30
0
10
148.146387
20
127.898125
30
0
10
147.092454
20
127.898125
30
0
0
SPLINE
5
CB
100
AcDbEntity
8
0
6
ByLayer
62
7
370
-1
100
AcDbSpline
210
0
220
0
230
1
70
8
71
3
72
8
73
4
74
0
42
1e-07
43
1e-07
40
0
40
0
40
0
40
0
40
1
40
1
40
1
40
1
10
147.092454
20
127.898125
30
0
10
146.03852
20
127.898125
30
0
10
145.064645
20
128.460392
30
0
10
144.537679
20
129.373125
30
0
0
SPLINE
5
CC
100
AcDbEntity
8
0
6
ByLayer
62
7
370
-1
100
AcDbSpline
210
0
220
0
230
1
70
8
71
3
72
8
73
4
74
0
42
1e-07
43
1e-07
40
0
40
0
40
0
40
0
40
1
40
1
40
1
40
1
10
144.537679
20
129.373125
30
0
10
144.010712
20
130.285858
30
0
10
144.010712
20
131.410392
30
0
10
144.537679
20
132.323125
30
0
0
SPLINE
5
CD
100
AcDbEntity
8
0
6
ByLayer
62
7
370
-1
100
AcDbSpline
210
0
220
0
230
1
70
8
71
3
72
8
73
4
74
0
42
1e-07
43
1e-07
40
0
40
0
40
0
40
0
40
1
40
1
40
1
40
1
10
144.537679
20
132.323125
30
0
10
145.064645
20
133.235858
30
0
10
146.03852
20
133.798125
30
0
10
147.092454
20
133.798125
30
0
0
LWPOLYLINE
5
CE
100
AcDbEntity
8
0
6
ByLayer
62
7
370
-1
100
AcDbPolyline
90
2
70
0
43
0
10
147.092454
20
72.670725
10
147.092454
20
72.670725
0
SPLINE
5
CF
100
AcDbEntity
8
0
6
ByLayer
62
7
370
-1
100
AcDbSpline
210
0
220
0
230
1
70
8
71
3
72
8
73
4
74
0
42
1e-07
43
1e-07
40
0
40
0
40
0
40
0
40
1
40
1
40
1
40
1
10
147.092454
20
194.925483
30
0
10
148.146387
20
194.925483
30
0
10
149.120262
20
194.363216
30
0
10
149.647229
20
193.450483
30
0
0
SPLINE
5
D0
100
AcDbEntity
8
0
6
ByLayer
62
7
370
-1
100
AcDbSpline
210
0
220
0
230
1
70
8
71
3
72
8
73
4
74
0
42
1e-07
43
1e-07
40
0
40
0
40
0
40
0
40
1
40
1
40
1
40
1
10
149.647229
20
193.450483
30
0
10
150.174195
20
192.53775
30
0
10
150.174195
20
191.413216
30
0
10
149.647229
20
190.500483
30
0
0
SPLINE
5
D1
100
AcDbEntity
8
0
6
ByLayer
62
7
370
-1
100
AcDbSpline
210
0
220
0
230
1
70
8
71
3
72
8
73
4
74
0
42
1e-07
43
1e-07
40
0
40
0
40
0
40
0
40
1
40
1
40
1
40
1
10
149.647229
20
190.500483
30
0
10
149.120262
20
189.58775
30
0
10
148.146387
20
189.025483
30
0
10
147.092454
20
189.025483
30
0
0
SPLINE
5
D2
100
AcDbEntity
8
0
6
ByLayer
62
7
370
-1
100
AcDbSpline
210
0
220
0
230
1
70
8
71
3
72
8
73
4
74
0
42
1e-07
43
1e-07
40
0
40
0
40
0
40
0
40
1
40
1
40
1
40
1
10
147.092454
20
189.025483
30
0
10
146.03852
20
189.025483
30
0
10
145.064645
20
189.58775
30
0
10
144.537679
20
190.500483
30
0
0
SPLINE
5
D3
100
AcDbEntity
8
0
6
ByLayer
62
7
370
-1
100
AcDbSpline
210
0
220
0
230
1
70
8
71
3
72
8
73
4
74
0
42
1e-07
43
1e-07
40
0
40
0
40
0
40
0
40
1
40
1
40
1
40
1
10
144.537679
20
190.500483
30
0
10
144.010712
20
191.413216
30
0
10
144.010712
20
192.53775
30
0
10
144.537679
20
193.450483
30
0
0
SPLINE
5
D4
100
AcDbEntity
8
0
6
ByLayer
62
7
370
-1
100
AcDbSpline
210
0
220
0
230
1
70
8
71
3
72
8
73
4
74
0
42
1e-07
43
1e-07
40
0
40
0
40
0
40
0
40
1
40
1
40
1
40
1
10
144.537679
20
193.450483
30
0
10
145.064645
20
194.363216
30
0
10
146.03852
20
194.925483
30
0
10
147.092454
20
194.925483
30
0
0
LWPOLYLINE
5
D5
100
AcDbEntity
8
0
6
ByLayer
62
7
370
-1
100
AcDbPolyline
90
2
70
0
43
0
10
147.092454
20
133.798125
10
147.092454
20
133.798125
0
SPLINE
5
D6
100
AcDbEntity
8
0
6
ByLayer
62
7
370
-1
100
AcDbSpline
210
0
220
0
230
1
70
8
71
3
72
8
73
4
74
0
42
1e-07
43
1e-07
40
0
40
0
40
0
40
0
40
1
40
1
40
1
40
1
10
147.092454
20
256.052869
30
0
10
148.146387
20
256.052869
30
0
10
149.120262
20
255.490602
30
0
10
149.647229
20
254.577869
30
0
0
SPLINE
5
D7
100
AcDbEntity
8
0
6
ByLayer
62
7
370
-1
100
AcDbSpline
210
0
220
0
230
1
70
8
71
3
72
8
73
4
74
0
42
1e-07
43
1e-07
40
0
40
0
40
0
40
0
40
1
40
1
40
1
40
1
10
149.647229
20
254.577869
30
0
10
150.174195
20
253.665136
30
0
10
150.174195
20
252.540602
30
0
10
149.647229
20
251.627869
30
0
0
SPLINE
5
D8
100
AcDbEntity
8
0
6
ByLayer
62
7
370
-1
100
AcDbSpline
210
0
220
0
230
1
70
8
71
3
72
8
73
4
74
0
42
1e-07
43
1e-07
40
0
40
0
40
0
40
0
40
1
40
1
40
1
40
1
10
149.647229
20
251.627869
30
0
10
149.120262
20
250.715136
30
0
10
148.146387
20
250.152869
30
0
10
147.092454
20
250.152869
30
0
0
SPLINE
5
D9
100
AcDbEntity
8
0
6
ByLayer
62
7
370
-1
100
AcDbSpline
210
0
220
0
230
1
70
8
71
3
72
8
73
4
74
0
42
1e-07
43
1e-07
40
0
40
0
40
0
40
0
40
1
40
1
40
1
40
1
10
147.092454
20
250.152869
30
0
10
146.03852
20
250.152869
30
0
10
145.064645
20
250.715136
30
0
10
144.537679
20
251.627869
30
0
0
SPLINE
5
DA
100
AcDbEntity
8
0
6
ByLayer
62
7
370
-1
100
AcDbSpline
210
0
220
0
230
1
70
8
71
3
72
8
73
4
74
0
42
1e-07
43
1e-07
40
0
40
0
40
0
40
0
40
1
40
1
40
1
40
1
10
144.537679
20
251.627869
30
0
10
144.010712
20
252.540602
30
0
10
144.010712
20
253.665136
30
0
10
144.537679
20
254.577869
30
0
0
SPLINE
5
DB
100
AcDbEntity
8
0
6
ByLayer
62
7
370
-1
100
AcDbSpline
210
0
220
0
230
1
70
8
71
3
72
8
73
4
74
0
42
1e-07
43
1e-07
40
0
40
0
40
0
40
0
40
1
40
1
40
1
40
1
10
144.537679
20
254.577869
30
0
10
145.064645
20
255.490602
30
0
10
146.03852
20
256.052869
30
0
10
147.092454
20
256.052869
30
0
0
LWPOLYLINE
5
DC
100
AcDbEntity
8
0
6
ByLayer
62
7
370
-1
100
AcDbPolyline
90
2
70
0
43
0
10
147.092454
20
194.925483
10
147.092454
20
194.925483
0
SPLINE
5
DD
100
AcDbEntity
8
0
6
ByLayer
62
7
370
-1
100
AcDbSpline
210
0
220
0
230
1
70
8
71
3
72
8
73
4
74
0
42
1e-07
43
1e-07
40
0
40
0
40
0
40
0
40
1
40
1
40
1
40
1
10
93.854731
20
255.226889
30
0
10
94.908664
20
255.226889
30
0
10
95.882539
20
254.664622
30
0
10
96.409506
20
253.751889
30
0
0
SPLINE
5
DE
100
AcDbEntity
8
0
6
ByLayer
62
7
370
-1
100
AcDbSpline
210
0
220
0
230
1
70
8
71
3
72
8
73
4
74
0
42
1e-07
43
1e-07
40
0
40
0
40
0
40
0
40
1
40
1
40
1
40
1
10
96.409506
20
253.751889
30
0
10
96.936473
20
252.839156
30
0
10
96.936473
20
251.714622
30
0
10
96.409506
20
250.801889
30
0
0
SPLINE
5
DF
100
AcDbEntity
8
0
6
ByLayer
62
7
370
-1
100
AcDbSpline
210
0
220
0
230
1
70
8
71
3
72
8
73
4
74
0
42
1e-07
43
1e-07
40
0
40
0
40
0
40
0
40
1
40
1
40
1
40
1
10
96.409506
20
250.801889
30
0
10
95.882539
20
249.889156
30
0
10
94.908664
20
249.326889
30
0
10
93.854731
20
249.326889
30
0
0
SPLINE
5
E0
100
AcDbEntity
8
0
6
ByLayer
62
7
370
-1
100
AcDbSpline
210
0
220
0
230
1
70
8
71
3
72
8
73
4
74
0
42
1e-07
43
1e-07
40
0
40
0
40
0
40
0
40
1
40
1
40
1
40
1
10
93.854731
20
249.326889
30
0
10
92.800797
20
249.326889
30
0
10
91.826923
20
249.889156
30
0
10
91.299956
20
250.801889
30
0
0
SPLINE
5
E1
100
AcDbEntity
8
0
6
ByLayer
62
7
370
-1
100
AcDbSpline
210
0
220
0
230
1
70
8
71
3
72
8
73
4
74
0
42
1e-07
43
1e-07
40
0
40
0
40
0
40
0
40
1
40
1
40
1
40
1
10
91.299956
20
250.801889
30
0
10
90.772989
20
251.714622
30
0
10
90.772989
20
252.839156
30
0
10
91.299956
20
253.751889
30
0
0
SPLINE
5
E2
100
AcDbEntity
8
0
6
ByLayer
62
7
370
-1
100
AcDbSpline
210
0
220
0
230
1
70
8
71
3
72
8
73
4
74
0
42
1e-07
43
1e-07
40
0
40
0
40
0
40
0
40
1
40
1
40
1
40
1
10
91.299956
20
253.751889
30
0
10
91.826923
20
254.664622
30
0
10
92.800797
20
255.226889
30
0
10
93.854731
20
255.226889
30
0
0
LWPOLYLINE
5
E3
100
AcDbEntity
8
0
6
ByLayer
62
7
370
-1
100
AcDbPolyline
90
2
70
0
43
0
10
147.092454
20
256.052869
10
147.092454
20
256.052869
0
SPLINE
5
E4
100
AcDbEntity
8
0
6
ByLayer
62
7
370
-1
100
AcDbSpline
210
0
220
0
230
1
70
8
71
3
72
8
73
4
74
0
42
1e-07
43
1e-07
40
0
40
0
40
0
40
0
40
1
40
1
40
1
40
1
10
93.854731
20
194.099503
30
0
10
94.908664
20
194.099503
30
0
10
95.882539
20
193.537236
30
0
10
96.409506
20
192.624503
30
0
0
SPLINE
5
E5
100
AcDbEntity
8
0
6
ByLayer
62
7
370
-1
100
AcDbSpline
210
0
220
0
230
1
70
8
71
3
72
8
73
4
74
0
42
1e-07
43
1e-07
40
0
40
0
40
0
40
0
40
1
40
1
40
1
40
1
10
96.409506
20
192.624503
30
0
10
96.936473
20
191.71177
30
0
10
96.936473
20
190.587236
30
0
10
96.409506
20
189.674503
30
0
0
SPLINE
5
E6
100
AcDbEntity
8
0
6
ByLayer
62
7
370
-1
100
AcDbSpline
210
0
220
0
230
1
70
8
71
3
72
8
73
4
74
0
42
1e-07
43
1e-07
40
0
40
0
40
0
40
0
40
1
40
1
40
1
40
1
10
96.409506
20
189.674503
30
0
10
95.882539
20
188.76177
30
0
10
94.908664
20
188.199503
30
0
10
93.854731
20
188.199503
30
0
0
SPLINE
5
E7
100
AcDbEntity
8
0
6
ByLayer
62
7
370
-1
100
AcDbSpline
210
0
220
0
230
1
70
8
71
3
72
8
73
4
74
0
42
1e-07
43
1e-07
40
0
40
0
40
0
40
0
40
1
40
1
40
1
40
1
10
93.854731
20
188.199503
30
0
10
92.800797
20
188.199503
30
0
10
91.826923
20
188.76177
30
0
10
91.299956
20
189.674503
30
0
0
SPLINE
5
E8
100
AcDbEntity
8
0
6
ByLayer
62
7
370
-1
100
AcDbSpline
210
0
220
0
230
1
70
8
71
3
72
8
73
4
74
0
42
1e-07
43
1e-07
40
0
40
0
40
0
40
0
40
1
40
1
40
1
40
1
10
91.299956
20
189.674503
30
0
10
90.772989
20
190.587236
30
0
10
90.772989
20
191.71177
30
0
10
91.299956
20
192.624503
30
0
0
SPLINE
5
E9
100
AcDbEntity
8
0
6
ByLayer
62
7
370
-1
100
AcDbSpline
210
0
220
0
230
1
70
8
71
3
72
8
73
4
74
0
42
1e-07
43
1e-07
40
0
40
0
40
0
40
0
40
1
40
1
40
1
40
1
10
91.299956
20
192.624503
30
0
10
91.826923
20
193.537236
30
0
10
92.800797
20
194.099503
30
0
10
93.854731
20
194.099503
30
0
0
LWPOLYLINE
5
EA
100
AcDbEntity
8
0
6
ByLayer
62
7
370
-1
100
AcDbPolyline
90
2
70
0
43
0
10
93.854731
20
255.226889
10
93.854731
20
255.226889
0
SPLINE
5
EB
100
AcDbEntity
8
0
6
ByLayer
62
7
370
-1
100
AcDbSpline
210
0
220
0
230
1
70
8
71
3
72
8
73
4
74
0
42
1e-07
43
1e-07
40
0
40
0
40
0
40
0
40
1
40
1
40
1
40
1
10
93.854731
20
132.972117
30
0
10
94.908664
20
132.972117
30
0
10
95.882539
20
132.40985
30
0
10
96.409506
20
131.497117
30
0
0
SPLINE
5
EC
100
AcDbEntity
8
0
6
ByLayer
62
7
370
-1
100
AcDbSpline
210
0
220
0
230
1
70
8
71
3
72
8
73
4
74
0
42
1e-07
43
1e-07
40
0
40
0
40
0
40
0
40
1
40
1
40
1
40
1
10
96.409506
20
131.497117
30
0
10
96.936473
20
130.584384
30
0
10
96.936473
20
129.45985
30
0
10
96.409506
20
128.547117
30
0
0
SPLINE
5
ED
100
AcDbEntity
8
0
6
ByLayer
62
7
370
-1
100
AcDbSpline
210
0
220
0
230
1
70
8
71
3
72
8
73
4
74
0
42
1e-07
43
1e-07
40
0
40
0
40
0
40
0
40
1
40
1
40
1
40
1
10
96.409506
20
128.547117
30
0
10
95.882539
20
127.634384
30
0
10
94.908664
20
127.072117
30
0
10
93.854731
20
127.072117
30
0
0
SPLINE
5
EE
100
AcDbEntity
8
0
6
ByLayer
62
7
370
-1
100
AcDbSpline
210
0
220
0
230
1
70
8
71
3
72
8
73
4
74
0
42
1e-07
43
1e-07
40
0
40
0
40
0
40
0
40
1
40
1
40
1
40
1
10
93.854731
20
127.072117
30
0
10
92.800797
20
127.072117
30
0
10
91.826923
20
127.634384
30
0
10
91.299956
20
128.547117
30
0
0
SPLINE
5
EF
100
AcDbEntity
8
0
6
ByLayer
62
7
370
-1
100
AcDbSpline
210
0
220
0
230
1
70
8
71
3
72
8
73
4
74
0
42
1e-07
43
1e-07
40
0
40
0
40
0
40
0
40
1
40
1
40
1
40
1
10
91.299956
20
128.547117
30
0
10
90.772989
20
129.45985
30
0
10
90.772989
20
130.584384
30
0
10
91.299956
20
131.497117
30
0
0
SPLINE
5
F0
100
AcDbEntity
8
0
6
ByLayer
62
7
370
-1
100
AcDbSpline
210
0
220
0
230
1
70
8
71
3
72
8
73
4
74
0
42
1e-07
43
1e-07
40
0
40
0
40
0
40
0
40
1
40
1
40
1
40
1
10
91.299956
20
131.497117
30
0
10
91.826923
20
132.40985
30
0
10
92.800797
20
132.972117
30
0
10
93.854731
20
132.972117
30
0
0
LWPOLYLINE
5
F1
100
AcDbEntity
8
0
6
ByLayer
62
7
370
-1
100
AcDbPolyline
90
2
70
0
43
0
10
93.854731
20
194.099503
10
93.854731
20
194.099503
0
SPLINE
5
F2
100
AcDbEntity
8
0
6
ByLayer
62
7
370
-1
100
AcDbSpline
210
0
220
0
230
1
70
8
71
3
72
8
73
4
74
0
42
1e-07
43
1e-07
40
0
40
0
40
0
40
0
40
1
40
1
40
1
40
1
10
93.854731
20
71.844745
30
0
10
94.908664
20
71.844745
30
0
10
95.882539
20
71.282478
30
0
10
96.409506
20
70.369745
30
0
0
SPLINE
5
F3
100
AcDbEntity
8
0
6
ByLayer
62
7
370
-1
100
AcDbSpline
210
0
220
0
230
1
70
8
71
3
72
8
73
4
74
0
42
1e-07
43
1e-07
40
0
40
0
40
0
40
0
40
1
40
1
40
1
40
1
10
96.409506
20
70.369745
30
0
10
96.936473
20
69.457012
30
0
10
96.936473
20
68.332478
30
0
10
96.409506
20
67.419745
30
0
0
SPLINE
5
F4
100
AcDbEntity
8
0
6
ByLayer
62
7
370
-1
100
AcDbSpline
210
0
220
0
230
1
70
8
71
3
72
8
73
4
74
0
42
1e-07
43
1e-07
40
0
40
0
40
0
40
0
40
1
40
1
40
1
40
1
10
96.409506
20
67.419745
30
0
10
95.882539
20
66.507012
30
0
10
94.908664
20
65.944745
30
0
10
93.854731
20
65.944745
30
0
0
SPLINE
5
F5
100
AcDbEntity
8
0
6
ByLayer
62
7
370
-1
100
AcDbSpline
210
0
220
0
230
1
70
8
71
3
72
8
73
4
74
0
42
1e-07
43
1e-07
40
0
40
0
40
0
40
0
40
1
40
1
40
1
40
1
10
93.854731
20
65.944745
30
0
10
92.800797
20
65.944745
30
0
10
91.826923
20
66.507012
30
0
10
91.299956
20
67.419745
30
0
0
SPLINE
5
F6
100
AcDbEntity
8
0
6
ByLayer
62
7
370
-1
100
AcDbSpline
210
0
220
0
230
1
70
8
71
3
72
8
73
4
74
0
42
1e-07
43
1e-07
40
0
40
0
40
0
40
0
40
1
40
1
40
1
40
1
10
91.299956
20
67.419745
30
0
10
90.772989
20
68.332478
30
0
10
90.772989
20
69.457012
30
0
10
91.299956
20
70.369745
30
0
0
SPLINE
5
F7
100
AcDbEntity
8
0
6
ByLayer
62
7
370
-1
100
AcDbSpline
210
0
220
0
230
1
70
8
71
3
72
8
73
4
74
0
42
1e-07
43
1e-07
40
0
40
0
40
0
40
0
40
1
40
1
40
1
40
1
10
91.299956
20
70.369745
30
0
10
91.826923
20
71.282478
30
0
10
92.800797
20
71.844745
30
0
10
93.854731
20
71.844745
30
0
0
LWPOLYLINE
5
F8
100
AcDbEntity
8
0
6
ByLayer
62
7
370
-1
100
AcDbPolyline
90
2
70
0
43
0
10
93.854731
20
132.972117
10
93.854731
20
132.972117
0
SPLINE
5
F9
100
AcDbEntity
8
0
6
ByLayer
62
7
370
-1
100
AcDbSpline
210
0
220
0
230
1
70
8
71
3
72
8
73
4
74
0
42
1e-07
43
1e-07
40
0
40
0
40
0
40
0
40
1
40
1
40
1
40
1
10
40.438023
20
72.877368
30
0
10
41.491956
20
72.877368
30
0
10
42.465831
20
72.315101
30
0
10
42.992798
20
71.402368
30
0
0
SPLINE
5
FA
100
AcDbEntity
8
0
6
ByLayer
62
7
370
-1
100
AcDbSpline
210
0
220
0
230
1
70
8
71
3
72
8
73
4
74
0
42
1e-07
43
1e-07
40
0
40
0
40
0
40
0
40
1
40
1
40
1
40
1
10
42.992798
20
71.402368
30
0
10
43.519765
20
70.489635
30
0
10
43.519765
20
69.365101
30
0
10
42.992798
20
68.452368
30
0
0
SPLINE
5
FB
100
AcDbEntity
8
0
6
ByLayer
62
7
370
-1
100
AcDbSpline
210
0
220
0
230
1
70
8
71
3
72
8
73
4
74
0
42
1e-07
43
1e-07
40
0
40
0
40
0
40
0
40
1
40
1
40
1
40
1
10
42.992798
20
68.452368
30
0
10
42.465831
20
67.539635
30
0
10
41.491956
20
66.977368
30
0
10
40.438023
20
66.977368
30
0
0
SPLINE
5
FC
100
AcDbEntity
8
0
6
ByLayer
62
7
370
-1
100
AcDbSpline
210
0
220
0
230
1
70
8
71
3
72
8
73
4
74
0
42
1e-07
43
1e-07
40
0
40
0
40
0
40
0
40
1
40
1
40
1
40
1
10
40.438023
20
66.977368
30
0
10
39.384089
20
66.977368
30
0
10
38.410215
20
67.539635
30
0
10
37.883248
20
68.452368
30
0
0
SPLINE
5
FD
100
AcDbEntity
8
0
6
ByLayer
62
7
370
-1
100
AcDbSpline
210
0
220
0
230
1
70
8
71
3
72
8
73
4
74
0
42
1e-07
43
1e-07
40
0
40
0
40
0
40
0
40
1
40
1
40
1
40
1
10
37.883248
20
68.452368
30
0
10
37.356281
20
69.365101
30
0
10
37.356281
20
70.489635
30
0
10
37.883248
20
71.402368
30
0
0
SPLINE
5
FE
100
AcDbEntity
8
0
6
ByLayer
62
7
370
-1
100
AcDbSpline
210
0
220
0
230
1
70
8
71
3
72
8
73
4
74
0
42
1e-07
43
1e-07
40
0
40
0
40
0
40
0
40
1
40
1
40
1
40
1
10
37.883248
20
71.402368
30
0
10
38.410215
20
72.315101
30
0
10
39.384089
20
72.877368
30
0
10
40.438023
20
72.877368
30
0
0
LWPOLYLINE
5
FF
100
AcDbEntity
8
0
6
ByLayer
62
7
370
-1
100
AcDbPolyline
90
2
70
0
43
0
10
93.854731
20
71.844745
10
93.854731
20
71.844745
0
SPLINE
5
100
100
AcDbEntity
8
0
6
ByLayer
62
7
370
-1
100
AcDbSpline
210
0
220
0
230
1
70
8
71
3
72
8
73
4
74
0
42
1e-07
43
1e-07
40
0
40
0
40
0
40
0
40
1
40
1
40
1
40
1
10
40.438023
20
134.00474
30
0
10
41.491956
20
134.00474
30
0
10
42.465831
20
133.442473
30
0
10
42.992798
20
132.52974
30
0
0
SPLINE
5
101
100
AcDbEntity
8
0
6
ByLayer
62
7
370
-1
100
AcDbSpline
210
0
220
0
230
1
70
8
71
3
72
8
73
4
74
0
42
1e-07
43
1e-07
40
0
40
0
40
0
40
0
40
1
40
1
40
1
40
1
10
42.992798
20
132.52974
30
0
10
43.519765
20
131.617007
30
0
10
43.519765
20
130.492473
30
0
10
42.992798
20
129.57974
30
0
0
SPLINE
5
102
100
AcDbEntity
8
0
6
ByLayer
62
7
370
-1
100
AcDbSpline
210
0
220
0
230
1
70
8
71
3
72
8
73
4
74
0
42
1e-07
43
1e-07
40
0
40
0
40
0
40
0
40
1
40
1
40
1
40
1
10
42.992798
20
129.57974
30
0
10
42.465831
20
128.667007
30
0
10
41.491956
20
128.10474
30
0
10
40.438023
20
128.10474
30
0
0
SPLINE
5
103
100
AcDbEntity
8
0
6
ByLayer
62
7
370
-1
100
AcDbSpline
210
0
220
0
230
1
70
8
71
3
72
8
73
4
74
0
42
1e-07
43
1e-07
40
0
40
0
40
0
40
0
40
1
40
1
40
1
40
1
10
40.438023
20
128.10474
30
0
10
39.384089
20
128.10474
30
0
10
38.410215
20
128.667007
30
0
10
37.883248
20
129.57974
30
0
0
SPLINE
5
104
100
AcDbEntity
8
0
6
ByLayer
62
7
370
-1
100
AcDbSpline
210
0
220
0
230
1
70
8
71
3
72
8
73
4
74
0
42
1e-07
43
1e-07
40
0
40
0
40
0
40
0
40
1
40
1
40
1
40
1
10
37.883248
20
129.57974
30
0
10
37.356281
20
130.492473
30
0
10
37.356281
20
131.617007
30
0
10
37.883248
20
132.52974
30
0
0
SPLINE
5
105
100
AcDbEntity
8
0
6
ByLayer
62
7
370
-1
100
AcDbSpline
210
0
220
0
230
1
70
8
71
3
72
8
73
4
74
0
42
1e-07
43
1e-07
40
0
40
0
40
0
40
0
40
1
40
1
40
1
40
1
10
37.883248
20
132.52974
30
0
10
38.410215
20
133.442473
30
0
10
39.384089
20
134.00474
30
0
10
40.438023
20
134.00474
30
0
0
LWPOLYLINE
5
106
100
AcDbEntity
8
0
6
ByLayer
62
7
370
-1
100
AcDbPolyline
90
2
70
0
43
0
10
40.438023
20
72.877368
10
40.438023
20
72.877368
0
SPLINE
5
107
100
AcDbEntity
8
0
6
ByLayer
62
7
370
-1
100
AcDbSpline
210
0
220
0
230
1
70
8
71
3
72
8
73
4
74
0
42
1e-07
43
1e-07
40
0
40
0
40
0
40
0
40
1
40
1
40
1
40
1
10
40.438023
20
195.132126
30
0
10
41.491956
20
195.132126
30
0
10
42.465831
20
194.569859
30
0
10
42.992798
20
193.657126
30
0
0
SPLINE
5
108
100
AcDbEntity
8
0
6
ByLayer
62
7
370
-1
100
AcDbSpline
210
0
220
0
230
1
70
8
71
3
72
8
73
4
74
0
42
1e-07
43
1e-07
40
0
40
0
40
0
40
0
40
1
40
1
40
1
40
1
10
42.992798
20
193.657126
30
0
10
43.519765
20
192.744393
30
0
10
43.519765
20
191.619859
30
0
10
42.992798
20
190.707126
30
0
0
SPLINE
5
109
100
AcDbEntity
8
0
6
ByLayer
62
7
370
-1
100
AcDbSpline
210
0
220
0
230
1
70
8
71
3
72
8
73
4
74
0
42
1e-07
43
1e-07
40
0
40
0
40
0
40
0
40
1
40
1
40
1
40
1
10
42.992798
20
190.707126
30
0
10
42.465831
20
189.794393
30
0
10
41.491956
20
189.232126
30
0
10
40.438023
20
189.232126
30
0
0
SPLINE
5
10A
100
AcDbEntity
8
0
6
ByLayer
62
7
370
-1
100
AcDbSpline
210
0
220
0
230
1
70
8
71
3
72
8
73
4
74
0
42
1e-07
43
1e-07
40
0
40
0
40
0
40
0
40
1
40
1
40
1
40
1
10
40.438023
20
189.232126
30
0
10
39.384089
20
189.232126
30
0
10
38.410215
20
189.794393
30
0
10
37.883248
20
190.707126
30
0
0
SPLINE
5
10B
100
AcDbEntity
8
0
6
ByLayer
62
7
370
-1
100
AcDbSpline
210
0
220
0
230
1
70
8
71
3
72
8
73
4
74
0
42
1e-07
43
1e-07
40
0
40
0
40
0
40
0
40
1
40
1
40
1
40
1
10
37.883248
20
190.707126
30
0
10
37.356281
20
191.619859
30
0
10
37.356281
20
192.744393
30
0
10
37.883248
20
193.657126
30
0
0
SPLINE
5
10C
100
AcDbEntity
8
0
6
ByLayer
62
7
370
-1
100
AcDbSpline
210
0
220
0
230
1
70
8
71
3
72
8
73
4
74
0
42
1e-07
43
1e-07
40
0
40
0
40
0
40
0
40
1
40
1
40
1
40
1
10
37.883248
20
193.657126
30
0
10
38.410215
20
194.569859
30
0
10
39.384089
20
195.132126
30
0
10
40.438023
20
195.132126
30
0
0
LWPOLYLINE
5
10D
100
AcDbEntity
8
0
6
ByLayer
62
7
370
-1
100
AcDbPolyline
90
2
70
0
43
0
10
40.438023
20
134.00474
10
40.438023
20
134.00474
0
SPLINE
5
10E
100
AcDbEntity
8
0
6
ByLayer
62
7
370
-1
100
AcDbSpline
210
0
220
0
230
1
70
8
71
3
72
8
73
4
74
0
42
1e-07
43
1e-07
40
0
40
0
40
0
40
0
40
1
40
1
40
1
40
1
10
40.438023
20
256.259512
30
0
10
41.491956
20
256.259512
30
0
10
42.465831
20
255.697245
30
0
10
42.992798
20
254.784512
30
0
0
SPLINE
5
10F
100
AcDbEntity
8
0
6
ByLayer
62
7
370
-1
100
AcDbSpline
210
0
220
0
230
1
70
8
71
3
72
8
73
4
74
0
42
1e-07
43
1e-07
40
0
40
0
40
0
40
0
40
1
40
1
40
1
40
1
10
42.992798
20
254.784512
30
0
10
43.519765
20
253.871779
30
0
10
43.519765
20
252.747245
30
0
10
42.992798
20
251.834512
30
0
0
SPLINE
5
110
100
AcDbEntity
8
0
6
ByLayer
62
7
370
-1
100
AcDbSpline
210
0
220
0
230
1
70
8
71
3
72
8
73
4
74
0
42
1e-07
43
1e-07
40
0
40
0
40
0
40
0
40
1
40
1
40
1
40
1
10
42.992798
20
251.834512
30
0
10
42.465831
20
250.921779
30
0
10
41.491956
20
250.359512
30
0
10
40.438023
20
250.359512
30
0
0
SPLINE
5
111
100
AcDbEntity
8
0
6
ByLayer
62
7
370
-1
100
AcDbSpline
210
0
220
0
230
1
70
8
71
3
72
8
73
4
74
0
42
1e-07
43
1e-07
40
0
40
0
40
0
40
0
40
1
40
1
40
1
40
1
10
40.438023
20
250.359512
30
0
10
39.384089
20
250.359512
30
0
10
38.410215
20
250.921779
30
0
10
37.883248
20
251.834512
30
0
0
SPLINE
5
112
100
AcDbEntity
8
0
6
ByLayer
62
7
370
-1
100
AcDbSpline
210
0
220
0
230
1
70
8
71
3
72
8
73
4
74
0
42
1e-07
43
1e-07
40
0
40
0
40
0
40
0
40
1
40
1
40
1
40
1
10
37.883248
20
251.834512
30
0
10
37.356281
20
252.747245
30
0
10
37.356281
20
253.871779
30
0
10
37.883248
20
254.784512
30
0
0
SPLINE
5
113
100
AcDbEntity
8
0
6
ByLayer
62
7
370
-1
100
AcDbSpline
210
0
220
0
230
1
70
8
71
3
72
8
73
4
74
0
42
1e-07
43
1e-07
40
0
40
0
40
0
40
0
40
1
40
1
40
1
40
1
10
37.883248
20
254.784512
30
0
10
38.410215
20
255.697245
30
0
10
39.384089
20
256.259512
30
0
10
40.438023
20
256.259512
30
0
0
LWPOLYLINE
5
114
100
AcDbEntity
8
0
6
ByLayer
62
7
370
-1
100
AcDbPolyline
90
2
70
0
43
0
10
40.438023
20
195.132126
10
40.438023
20
195.132126
0
LWPOLYLINE
5
115
100
AcDbEntity
8
0
6
ByLayer
62
7
370
-1
100
AcDbPolyline
90
2
70
0
43
0
10
40.438023
20
256.259512
10
40.438023
20
256.259512
0
LWPOLYLINE
5
116
100
AcDbEntity
8
0
6
ByLayer
62
7
370
-1
100
AcDbPolyline
90
5
70
0
43
0
10
4.91873
20
268.359062
10
220.058726
20
268.359062
10
220.058726
20
53.219066
10
4.91873
20
53.219066
10
4.91873
20
268.359062
0
ENDSEC
0
SECTION
2
OBJECTS
0
DICTIONARY
5
C
330
0
100
AcDbDictionary
281
1
3
ACAD_GROUP
350
D
0
DICTIONARY
5
D
330
C
100
AcDbDictionary
281
1
0
ENDSEC
0
EOF
