  0
SECTION
  2
HEADER
  9
$ACADVER
  1
AC1014
  9
$HANDSEED
  5
FFFF
  9
$MEASUREMENT
 70
     1
  0
ENDSEC
  0
SECTION
  2
TABLES
  0
TABLE
  2
VPORT
  5
8
330
0
100
AcDbSymbolTable
 70
     4
  0
VPORT
  5
2E
330
8
100
AcDbSymbolTableRecord
100
AcDbViewportTableRecord
  2
*ACTIVE
 70
     0
 10
0.0
 20
0.0
 11
1.0
 21
1.0
 12
210.0
 22
148.5
 13
0.0
 23
0.0
 14
10.0
 24
10.0
 15
10.0
 25
10.0
 16
0.0
 26
0.0
 36
1.0
 17
0.0
 27
0.0
 37
0.0
 40
341.0
 41
1.24
 42
50.0
 43
0.0
 44
0.0
 50
0.0
 51
0.0
 71
     0
 72
   100
 73
     1
 74
     3
 75
     0
 76
     0
 77
     0
 78
     0
  0
ENDTAB
  0
TABLE
  2
LTYPE
  5
5
330
0
100
AcDbSymbolTable
 70
     1
  0
LTYPE
  5
14
330
5
100
AcDbSymbolTableRecord
100
AcDbLinetypeTableRecord
  2
BYBLOCK
 70
     0
  3

 72
    65
 73
     0
 40
0.0
  0
LTYPE
  5
15
330
5
100
AcDbSymbolTableRecord
100
AcDbLinetypeTableRecord
  2
BYLAYER
 70
     0
  3

 72
    65
 73
     0
 40
0.0
  0
LTYPE
  5
16
330
5
100
AcDbSymbolTableRecord
100
AcDbLinetypeTableRecord
  2
CONTINUOUS
 70
     0
  3
Solid line
 72
    65
 73
     0
 40
0.0
  0
ENDTAB
  0
TABLE
  2
LAYER
  5
2
100
AcDbSymbolTable
 70
2
  0
LAYER
  5
50
100
AcDbSymbolTableRecord
100
AcDbLayerTableRecord
  2
0
 70
0
  6
CONTINUOUS
  0
LAYER
  5
51
100
AcDbSymbolTableRecord
100
AcDbLayerTableRecord
  2
newlayer
 70
0
  6
CONTINUOUS
  0
ENDTAB
  0
TABLE
  2
STYLE
  5
3
330
0
100
AcDbSymbolTable
 70
     1
  0
STYLE
  5
11
330
3
100
AcDbSymbolTableRecord
100
AcDbTextStyleTableRecord
  2
STANDARD
 70
     0
 40
0.0
 41
1.0
 50
0.0
 71
     0
 42
2.5
  3
txt
  4

  0
ENDTAB
  0
TABLE
  2
VIEW
  5
6
330
0
100
AcDbSymbolTable
 70
     0
  0
ENDTAB
  0
TABLE
  2
UCS
  5
7
330
0
100
AcDbSymbolTable
 70
     0
  0
ENDTAB
  0
TABLE
  2
APPID
  5
9
330
0
100
AcDbSymbolTable
 70
     2
  0
APPID
  5
12
330
9
100
AcDbSymbolTableRecord
100
AcDbRegAppTableRecord
  2
ACAD
 70
     0
  0
ENDTAB
  0
TABLE
  2
DIMSTYLE
  5
A
330
0
100
AcDbSymbolTable
 70
     1
  0
DIMSTYLE
105
27
330
A
100
AcDbSymbolTableRecord
100
AcDbDimStyleTableRecord
  2
ISO-25
 70
     0
  3

  4

  5

  6

  7

 40
1.0
 41
2.5
 42
0.625
 43
3.75
 44
1.25
 45
0.0
 46
0.0
 47
0.0
 48
0.0
140
2.5
141
2.5
142
0.0
143
0.03937007874016
144
1.0
145
0.0
146
1.0
147
0.625
 71
     0
 72
     0
 73
     0
 74
     0
 75
     0
 76
     0
 77
     1
 78
     8
170
     0
171
     3
172
     1
173
     0
174
     0
175
     0
176
     0
177
     0
178
     0
270
     2
271
     2
272
     2
273
     2
274
     3
340
11
275
     0
280
     0
281
     0
282
     0
283
     0
284
     8
285
     0
286
     0
287
     3
288
     0
  0
ENDTAB
  0
TABLE
  2
BLOCK_RECORD
  5
1
330
0
100
AcDbSymbolTable
 70
     1
  0
BLOCK_RECORD
  5
1F
330
1
100
AcDbSymbolTableRecord
100
AcDbBlockTableRecord
  2
*MODEL_SPACE
  0
BLOCK_RECORD
  5
1B
330
1
100
AcDbSymbolTableRecord
100
AcDbBlockTableRecord
  2
*PAPER_SPACE
  0
ENDTAB
  0
ENDSEC
  0
SECTION
  2
BLOCKS
  0
BLOCK
  5
20
330
1F
100
AcDbEntity
  8
0
100
AcDbBlockBegin
  2
*MODEL_SPACE
 70
     0
 10
0.0
 20
0.0
 30
0.0
  3
*MODEL_SPACE
  1

  0
ENDBLK
  5
21
330
1F
100
AcDbEntity
  8
0
100
AcDbBlockEnd
  0
BLOCK
  5
1C
330
1B
100
AcDbEntity
 67
     1
  8
0
100
AcDbBlockBegin
  2
*PAPER_SPACE
  1

  0
ENDBLK
  5
1D
330
1B
100
AcDbEntity
 67
     1
  8
0
100
AcDbBlockEnd
  0
ENDSEC
  0
SECTION
  2
ENTITIES
  0
SPLINE
  5
100
100
AcDbEntity
  8
0
 62
7
100
AcDbSpline
 70
8
 71
3
 72
8
 73
4
 74
0
 40
0
 40
0
 40
0
 40
0
 40
1
 40
1
 40
1
 40
1
 10
85.842543
 20
263.051410
 30
0.0
 10
85.842543
 20
256.222270
 30
0.0
 10
91.374239
 20
250.684587
 30
0.0
 10
98.196002
 20
250.684587
 30
0.0
  0
SPLINE
  5
101
100
AcDbEntity
  8
0
 62
7
100
AcDbSpline
 70
8
 71
3
 72
8
 73
4
 74
0
 40
0
 40
0
 40
0
 40
0
 40
1
 40
1
 40
1
 40
1
 10
98.196002
 20
250.684587
 30
0.0
 10
105.017765
 20
250.684587
 30
0.0
 10
110.549461
 20
256.222270
 30
0.0
 10
110.549461
 20
263.051410
 30
0.0
  0
SPLINE
  5
102
100
AcDbEntity
  8
0
 62
7
100
AcDbSpline
 70
8
 71
3
 72
8
 73
4
 74
0
 40
0
 40
0
 40
0
 40
0
 40
1
 40
1
 40
1
 40
1
 10
110.549461
 20
263.051410
 30
0.0
 10
110.549461
 20
265.050173
 30
0.0
 10
110.075751
 20
266.933470
 30
0.0
 10
109.234560
 20
268.604313
 30
0.0
  0
SPLINE
  5
103
100
AcDbEntity
  8
0
 62
7
100
AcDbSpline
 70
8
 71
3
 72
8
 73
4
 74
0
 40
0
 40
0
 40
0
 40
0
 40
1
 40
1
 40
1
 40
1
 10
87.168507
 20
268.604313
 30
0.0
 10
86.326836
 20
266.933046
 30
0.0
 10
85.842543
 20
265.050813
 30
0.0
 10
85.842543
 20
263.051410
 30
0.0
  0
LWPOLYLINE
  5
104
100
AcDbEntity
  8
0
 62
7
100
AcDbPolyline
 90
2
 70
0
 10
109.234560
 20
268.604313
 30
0.0
 10
87.168507
 20
268.604313
 30
0.0
  0
SPLINE
  5
105
100
AcDbEntity
  8
0
 62
7
100
AcDbSpline
 70
8
 71
3
 72
8
 73
4
 74
0
 40
0
 40
0
 40
0
 40
0
 40
1
 40
1
 40
1
 40
1
 10
119.336683
 20
263.905479
 30
0.0
 10
120.390616
 20
263.905479
 30
0.0
 10
121.364491
 20
263.343212
 30
0.0
 10
121.891458
 20
262.430479
 30
0.0
  0
SPLINE
  5
106
100
AcDbEntity
  8
0
 62
7
100
AcDbSpline
 70
8
 71
3
 72
8
 73
4
 74
0
 40
0
 40
0
 40
0
 40
0
 40
1
 40
1
 40
1
 40
1
 10
121.891458
 20
262.430479
 30
0.0
 10
122.418424
 20
261.517746
 30
0.0
 10
122.418424
 20
260.393212
 30
0.0
 10
121.891458
 20
259.480479
 30
0.0
  0
SPLINE
  5
107
100
AcDbEntity
  8
0
 62
7
100
AcDbSpline
 70
8
 71
3
 72
8
 73
4
 74
0
 40
0
 40
0
 40
0
 40
0
 40
1
 40
1
 40
1
 40
1
 10
121.891458
 20
259.480479
 30
0.0
 10
121.364491
 20
258.567746
 30
0.0
 10
120.390616
 20
258.005479
 30
0.0
 10
119.336683
 20
258.005479
 30
0.0
  0
SPLINE
  5
108
100
AcDbEntity
  8
0
 62
7
100
AcDbSpline
 70
8
 71
3
 72
8
 73
4
 74
0
 40
0
 40
0
 40
0
 40
0
 40
1
 40
1
 40
1
 40
1
 10
119.336683
 20
258.005479
 30
0.0
 10
118.282749
 20
258.005479
 30
0.0
 10
117.308874
 20
258.567746
 30
0.0
 10
116.781908
 20
259.480479
 30
0.0
  0
SPLINE
  5
109
100
AcDbEntity
  8
0
 62
7
100
AcDbSpline
 70
8
 71
3
 72
8
 73
4
 74
0
 40
0
 40
0
 40
0
 40
0
 40
1
 40
1
 40
1
 40
1
 10
116.781908
 20
259.480479
 30
0.0
 10
116.254941
 20
260.393212
 30
0.0
 10
116.254941
 20
261.517746
 30
0.0
 10
116.781908
 20
262.430479
 30
0.0
  0
SPLINE
  5
10a
100
AcDbEntity
  8
0
 62
7
100
AcDbSpline
 70
8
 71
3
 72
8
 73
4
 74
0
 40
0
 40
0
 40
0
 40
0
 40
1
 40
1
 40
1
 40
1
 10
116.781908
 20
262.430479
 30
0.0
 10
117.308874
 20
263.343212
 30
0.0
 10
118.282749
 20
263.905479
 30
0.0
 10
119.336683
 20
263.905479
 30
0.0
  0
LWPOLYLINE
  5
10b
100
AcDbEntity
  8
0
 62
7
100
AcDbPolyline
 90
2
 70
0
 10
85.842543
 20
263.051410
 30
0.0
 10
85.842543
 20
263.051410
 30
0.0
  0
SPLINE
  5
10c
100
AcDbEntity
  8
0
 62
3
100
AcDbSpline
 70
8
 71
3
 72
8
 73
4
 74
0
 40
0
 40
0
 40
0
 40
0
 40
1
 40
1
 40
1
 40
1
 10
98.075832
 20
250.983207
 30
0.0
 10
90.288502
 20
250.704190
 30
0.0
 10
84.052831
 20
259.527820
 30
0.0
 10
86.663471
 20
266.778832
 30
0.0
  0
SPLINE
  5
10d
100
AcDbEntity
  8
0
 62
3
100
AcDbSpline
 70
8
 71
3
 72
8
 73
4
 74
0
 40
0
 40
0
 40
0
 40
0
 40
1
 40
1
 40
1
 40
1
 10
86.663471
 20
266.778832
 30
0.0
 10
87.022740
 20
269.063575
 30
0.0
 10
89.634311
 20
268.069981
 30
0.0
 10
91.205471
 20
268.269318
 30
0.0
  0
SPLINE
  5
10e
100
AcDbEntity
  8
0
 62
3
100
AcDbSpline
 70
8
 71
3
 72
8
 73
4
 74
0
 40
0
 40
0
 40
0
 40
0
 40
1
 40
1
 40
1
 40
1
 10
91.205471
 20
268.269318
 30
0.0
 10
97.058647
 20
268.269318
 30
0.0
 10
102.911823
 20
268.269318
 30
0.0
 10
108.764999
 20
268.269318
 30
0.0
  0
SPLINE
  5
10f
100
AcDbEntity
  8
0
 62
3
100
AcDbSpline
 70
8
 71
3
 72
8
 73
4
 74
0
 40
0
 40
0
 40
0
 40
0
 40
1
 40
1
 40
1
 40
1
 10
108.764999
 20
268.269318
 30
0.0
 10
110.856604
 20
265.842314
 30
0.0
 10
110.546216
 20
262.096553
 30
0.0
 10
109.611665
 20
259.194109
 30
0.0
  0
SPLINE
  5
110
100
AcDbEntity
  8
0
 62
3
100
AcDbSpline
 70
8
 71
3
 72
8
 73
4
 74
0
 40
0
 40
0
 40
0
 40
0
 40
1
 40
1
 40
1
 40
1
 10
109.611665
 20
259.194109
 30
0.0
 10
108.040421
 20
254.341767
 30
0.0
 10
103.242474
 20
250.728230
 30
0.0
 10
98.075832
 20
250.983207
 30
0.0
  0
LWPOLYLINE
  5
111
100
AcDbEntity
  8
0
 62
7
100
AcDbPolyline
 90
2
 70
0
 10
119.336683
 20
263.905479
 30
0.0
 10
119.336683
 20
263.905479
 30
0.0
  0
SPLINE
  5
112
100
AcDbEntity
  8
0
 62
1
100
AcDbSpline
 70
8
 71
3
 72
8
 73
4
 74
0
 40
0
 40
0
 40
0
 40
0
 40
1
 40
1
 40
1
 40
1
 10
70.996796
 20
154.257588
 30
0.0
 10
70.996796
 20
161.086717
 30
0.0
 10
76.528493
 20
166.624396
 30
0.0
 10
83.350255
 20
166.624396
 30
0.0
  0
SPLINE
  5
113
100
AcDbEntity
  8
0
 62
1
100
AcDbSpline
 70
8
 71
3
 72
8
 73
4
 74
0
 40
0
 40
0
 40
0
 40
0
 40
1
 40
1
 40
1
 40
1
 10
83.350255
 20
166.624396
 30
0.0
 10
90.172026
 20
166.624396
 30
0.0
 10
95.703698
 20
161.086745
 30
0.0
 10
95.703698
 20
154.257588
 30
0.0
  0
SPLINE
  5
114
100
AcDbEntity
  8
0
 62
1
100
AcDbSpline
 70
8
 71
3
 72
8
 73
4
 74
0
 40
0
 40
0
 40
0
 40
0
 40
1
 40
1
 40
1
 40
1
 10
95.703698
 20
154.257588
 30
0.0
 10
95.703698
 20
152.258806
 30
0.0
 10
95.229988
 20
150.375508
 30
0.0
 10
94.388793
 20
148.704668
 30
0.0
  0
LWPOLYLINE
  5
115
100
AcDbEntity
  8
0
 62
3
100
AcDbPolyline
 90
2
 70
0
 10
98.075832
 20
250.983207
 30
0.0
 10
98.075832
 20
250.983207
 30
0.0
  0
SPLINE
  5
116
100
AcDbEntity
  8
0
 62
1
100
AcDbSpline
 70
8
 71
3
 72
8
 73
4
 74
0
 40
0
 40
0
 40
0
 40
0
 40
1
 40
1
 40
1
 40
1
 10
72.322761
 20
148.704668
 30
0.0
 10
71.481089
 20
150.375932
 30
0.0
 10
70.996796
 20
152.258185
 30
0.0
 10
70.996796
 20
154.257588
 30
0.0
  0
LWPOLYLINE
  5
117
100
AcDbEntity
  8
0
 62
1
100
AcDbPolyline
 90
2
 70
0
 10
94.388793
 20
148.704668
 30
0.0
 10
72.322761
 20
148.704668
 30
0.0
  0
LWPOLYLINE
  5
118
100
AcDbEntity
  8
0
 62
1
100
AcDbPolyline
 90
2
 70
0
 10
70.996796
 20
154.257588
 30
0.0
 10
70.996796
 20
154.257588
 30
0.0
  0
SPLINE
  5
119
100
AcDbEntity
  8
0
 62
7
100
AcDbSpline
 70
8
 71
3
 72
8
 73
4
 74
0
 40
0
 40
0
 40
0
 40
0
 40
1
 40
1
 40
1
 40
1
 10
79.562362
 20
144.179235
 30
0.0
 10
79.562362
 20
145.538784
 30
0.0
 10
78.604880
 20
146.635810
 30
0.0
 10
77.406390
 20
146.635810
 30
0.0
  0
LWPOLYLINE
  5
11a
100
AcDbEntity
  8
0
 62
7
100
AcDbPolyline
 90
3
 70
0
 10
98.097981
 20
142.674990
 30
0.0
 10
79.562362
 20
142.674990
 30
0.0
 10
79.562362
 20
144.179235
 30
0.0
  0
SPLINE
  5
11b
100
AcDbEntity
  8
0
 62
7
100
AcDbSpline
 70
8
 71
3
 72
8
 73
4
 74
0
 40
0
 40
0
 40
0
 40
0
 40
1
 40
1
 40
1
 40
1
 10
82.958494
 20
169.145092
 30
0.0
 10
91.347902
 20
169.145092
 30
0.0
 10
98.097981
 20
161.487783
 30
0.0
 10
98.097981
 20
151.970911
 30
0.0
  0
LWPOLYLINE
  5
11c
100
AcDbEntity
  8
0
 62
7
100
AcDbPolyline
 90
7
 70
0
 10
77.406390
 20
146.635810
 30
0.0
 10
71.281902
 20
146.635810
 30
0.0
 10
71.281902
 20
146.754795
 30
0.0
 10
64.222523
 20
157.868819
 30
0.0
 10
71.281902
 20
168.982730
 30
0.0
 10
71.281902
 20
169.145092
 30
0.0
 10
82.958494
 20
169.145092
 30
0.0
  0
LWPOLYLINE
  5
11d
100
AcDbEntity
  8
0
 62
7
100
AcDbPolyline
 90
3
 70
0
 10
98.097981
 20
151.970911
 30
0.0
 10
98.097981
 20
142.674990
 30
0.0
 10
98.097981
 20
142.674990
 30
0.0
  0
LWPOLYLINE
  5
11e
100
AcDbEntity
  8
newlayer
 62
7
100
AcDbPolyline
 90
85
 70
0
 10
57.000000
 20
218.000000
 30
0.0
 10
63.080000
 20
218.000000
 30
0.0
 10
63.080000
 20
221.000000
 30
0.0
 10
69.170000
 20
221.000000
 30
0.0
 10
69.170000
 20
218.000000
 30
0.0
 10
75.205000
 20
218.000000
 30
0.0
 10
75.205000
 20
221.000000
 30
0.0
 10
81.295000
 20
221.000000
 30
0.0
 10
81.295000
 20
218.000000
 30
0.0
 10
87.330000
 20
218.000000
 30
0.0
 10
87.330000
 20
221.000000
 30
0.0
 10
93.420000
 20
221.000000
 30
0.0
 10
93.420000
 20
218.000000
 30
0.0
 10
99.455000
 20
218.000000
 30
0.0
 10
99.455000
 20
221.000000
 30
0.0
 10
105.545000
 20
221.000000
 30
0.0
 10
105.545000
 20
218.000000
 30
0.0
 10
111.580000
 20
218.000000
 30
0.0
 10
111.580000
 20
221.000000
 30
0.0
 10
117.670000
 20
221.000000
 30
0.0
 10
117.670000
 20
218.000000
 30
0.0
 10
123.705000
 20
218.000000
 30
0.0
 10
123.705000
 20
221.000000
 30
0.0
 10
129.795000
 20
221.000000
 30
0.0
 10
129.795000
 20
218.000000
 30
0.0
 10
135.830000
 20
218.000000
 30
0.0
 10
135.830000
 20
221.000000
 30
0.0
 10
141.920000
 20
221.000000
 30
0.0
 10
141.920000
 20
218.000000
 30
0.0
 10
148.000000
 20
218.000000
 30
0.0
 10
148.000000
 20
213.705000
 30
0.0
 10
145.000000
 20
213.705000
 30
0.0
 10
145.000000
 20
207.795000
 30
0.0
 10
148.000000
 20
207.795000
 30
0.0
 10
148.000000
 20
200.455000
 30
0.0
 10
145.000000
 20
200.455000
 30
0.0
 10
145.000000
 20
194.545000
 30
0.0
 10
148.000000
 20
194.545000
 30
0.0
 10
148.000000
 20
187.205000
 30
0.0
 10
145.000000
 20
187.205000
 30
0.0
 10
145.000000
 20
181.295000
 30
0.0
 10
148.000000
 20
181.295000
 30
0.0
 10
148.000000
 20
177.000000
 30
0.0
 10
141.920000
 20
177.000000
 30
0.0
 10
141.920000
 20
174.000000
 30
0.0
 10
135.830000
 20
174.000000
 30
0.0
 10
135.830000
 20
177.000000
 30
0.0
 10
129.795000
 20
177.000000
 30
0.0
 10
129.795000
 20
174.000000
 30
0.0
 10
123.705000
 20
174.000000
 30
0.0
 10
123.705000
 20
177.000000
 30
0.0
 10
117.670000
 20
177.000000
 30
0.0
 10
117.670000
 20
174.000000
 30
0.0
 10
111.580000
 20
174.000000
 30
0.0
 10
111.580000
 20
177.000000
 30
0.0
 10
105.545000
 20
177.000000
 30
0.0
 10
105.545000
 20
174.000000
 30
0.0
 10
99.455000
 20
174.000000
 30
0.0
 10
99.455000
 20
177.000000
 30
0.0
 10
93.420000
 20
177.000000
 30
0.0
 10
93.420000
 20
174.000000
 30
0.0
 10
87.330000
 20
174.000000
 30
0.0
 10
87.330000
 20
177.000000
 30
0.0
 10
81.295000
 20
177.000000
 30
0.0
 10
81.295000
 20
174.000000
 30
0.0
 10
75.205000
 20
174.000000
 30
0.0
 10
75.205000
 20
177.000000
 30
0.0
 10
69.170000
 20
177.000000
 30
0.0
 10
69.170000
 20
174.000000
 30
0.0
 10
63.080000
 20
174.000000
 30
0.0
 10
63.080000
 20
177.000000
 30
0.0
 10
57.000000
 20
177.000000
 30
0.0
 10
57.000000
 20
181.295000
 30
0.0
 10
60.000000
 20
181.295000
 30
0.0
 10
60.000000
 20
187.205000
 30
0.0
 10
57.000000
 20
187.205000
 30
0.0
 10
57.000000
 20
194.545000
 30
0.0
 10
60.000000
 20
194.545000
 30
0.0
 10
60.000000
 20
200.455000
 30
0.0
 10
57.000000
 20
200.455000
 30
0.0
 10
57.000000
 20
207.795000
 30
0.0
 10
60.000000
 20
207.795000
 30
0.0
 10
60.000000
 20
213.705000
 30
0.0
 10
57.000000
 20
213.705000
 30
0.0
 10
57.000000
 20
218.000000
 30
0.0
  0
LWPOLYLINE
  5
11f
100
AcDbEntity
  8
newlayer
 62
7
100
AcDbPolyline
 90
69
 70
0
 10
8.000000
 20
289.000000
 30
0.0
 10
12.205000
 20
289.000000
 30
0.0
 10
12.205000
 20
292.000000
 30
0.0
 10
18.295000
 20
292.000000
 30
0.0
 10
18.295000
 20
289.000000
 30
0.0
 10
25.455000
 20
289.000000
 30
0.0
 10
25.455000
 20
292.000000
 30
0.0
 10
31.545000
 20
292.000000
 30
0.0
 10
31.545000
 20
289.000000
 30
0.0
 10
38.705000
 20
289.000000
 30
0.0
 10
38.705000
 20
292.000000
 30
0.0
 10
44.795000
 20
292.000000
 30
0.0
 10
44.795000
 20
289.000000
 30
0.0
 10
49.000000
 20
289.000000
 30
0.0
 10
49.000000
 20
286.045000
 30
0.0
 10
52.000000
 20
286.045000
 30
0.0
 10
52.000000
 20
279.955000
 30
0.0
 10
49.000000
 20
279.955000
 30
0.0
 10
49.000000
 20
274.045000
 30
0.0
 10
52.000000
 20
274.045000
 30
0.0
 10
52.000000
 20
267.955000
 30
0.0
 10
49.000000
 20
267.955000
 30
0.0
 10
49.000000
 20
262.045000
 30
0.0
 10
52.000000
 20
262.045000
 30
0.0
 10
52.000000
 20
255.955000
 30
0.0
 10
49.000000
 20
255.955000
 30
0.0
 10
49.000000
 20
250.045000
 30
0.0
 10
52.000000
 20
250.045000
 30
0.0
 10
52.000000
 20
243.955000
 30
0.0
 10
49.000000
 20
243.955000
 30
0.0
 10
49.000000
 20
238.045000
 30
0.0
 10
52.000000
 20
238.045000
 30
0.0
 10
52.000000
 20
231.955000
 30
0.0
 10
49.000000
 20
231.955000
 30
0.0
 10
49.000000
 20
229.000000
 30
0.0
 10
44.795000
 20
229.000000
 30
0.0
 10
44.795000
 20
226.000000
 30
0.0
 10
38.705000
 20
226.000000
 30
0.0
 10
38.705000
 20
229.000000
 30
0.0
 10
31.545000
 20
229.000000
 30
0.0
 10
31.545000
 20
226.000000
 30
0.0
 10
25.455000
 20
226.000000
 30
0.0
 10
25.455000
 20
229.000000
 30
0.0
 10
18.295000
 20
229.000000
 30
0.0
 10
18.295000
 20
226.000000
 30
0.0
 10
12.205000
 20
226.000000
 30
0.0
 10
12.205000
 20
229.000000
 30
0.0
 10
8.000000
 20
229.000000
 30
0.0
 10
8.000000
 20
231.955000
 30
0.0
 10
5.000000
 20
231.955000
 30
0.0
 10
5.000000
 20
238.045000
 30
0.0
 10
8.000000
 20
238.045000
 30
0.0
 10
8.000000
 20
243.955000
 30
0.0
 10
5.000000
 20
243.955000
 30
0.0
 10
5.000000
 20
250.045000
 30
0.0
 10
8.000000
 20
250.045000
 30
0.0
 10
8.000000
 20
255.955000
 30
0.0
 10
5.000000
 20
255.955000
 30
0.0
 10
5.000000
 20
262.045000
 30
0.0
 10
8.000000
 20
262.045000
 30
0.0
 10
8.000000
 20
267.955000
 30
0.0
 10
5.000000
 20
267.955000
 30
0.0
 10
5.000000
 20
274.045000
 30
0.0
 10
8.000000
 20
274.045000
 30
0.0
 10
8.000000
 20
279.955000
 30
0.0
 10
5.000000
 20
279.955000
 30
0.0
 10
5.000000
 20
286.045000
 30
0.0
 10
8.000000
 20
286.045000
 30
0.0
 10
8.000000
 20
289.000000
 30
0.0
  0
LWPOLYLINE
  5
120
100
AcDbEntity
  8
newlayer
 62
7
100
AcDbPolyline
 90
101
 70
0
 10
57.000000
 20
292.000000
 30
0.0
 10
63.170000
 20
292.000000
 30
0.0
 10
63.170000
 20
289.000000
 30
0.0
 10
69.080000
 20
289.000000
 30
0.0
 10
69.080000
 20
292.000000
 30
0.0
 10
75.295000
 20
292.000000
 30
0.0
 10
75.295000
 20
289.000000
 30
0.0
 10
81.205000
 20
289.000000
 30
0.0
 10
81.205000
 20
292.000000
 30
0.0
 10
87.420000
 20
292.000000
 30
0.0
 10
87.420000
 20
289.000000
 30
0.0
 10
93.330000
 20
289.000000
 30
0.0
 10
93.330000
 20
292.000000
 30
0.0
 10
99.545000
 20
292.000000
 30
0.0
 10
99.545000
 20
289.000000
 30
0.0
 10
105.455000
 20
289.000000
 30
0.0
 10
105.455000
 20
292.000000
 30
0.0
 10
111.670000
 20
292.000000
 30
0.0
 10
111.670000
 20
289.000000
 30
0.0
 10
117.580000
 20
289.000000
 30
0.0
 10
117.580000
 20
292.000000
 30
0.0
 10
123.795000
 20
292.000000
 30
0.0
 10
123.795000
 20
289.000000
 30
0.0
 10
129.705000
 20
289.000000
 30
0.0
 10
129.705000
 20
292.000000
 30
0.0
 10
135.920000
 20
292.000000
 30
0.0
 10
135.920000
 20
289.000000
 30
0.0
 10
141.830000
 20
289.000000
 30
0.0
 10
141.830000
 20
292.000000
 30
0.0
 10
148.000000
 20
292.000000
 30
0.0
 10
148.000000
 20
285.955000
 30
0.0
 10
145.000000
 20
285.955000
 30
0.0
 10
145.000000
 20
280.045000
 30
0.0
 10
148.000000
 20
280.045000
 30
0.0
 10
148.000000
 20
273.955000
 30
0.0
 10
145.000000
 20
273.955000
 30
0.0
 10
145.000000
 20
268.045000
 30
0.0
 10
148.000000
 20
268.045000
 30
0.0
 10
148.000000
 20
261.955000
 30
0.0
 10
145.000000
 20
261.955000
 30
0.0
 10
145.000000
 20
256.045000
 30
0.0
 10
148.000000
 20
256.045000
 30
0.0
 10
148.000000
 20
249.955000
 30
0.0
 10
145.000000
 20
249.955000
 30
0.0
 10
145.000000
 20
244.045000
 30
0.0
 10
148.000000
 20
244.045000
 30
0.0
 10
148.000000
 20
237.955000
 30
0.0
 10
145.000000
 20
237.955000
 30
0.0
 10
145.000000
 20
232.045000
 30
0.0
 10
148.000000
 20
232.045000
 30
0.0
 10
148.000000
 20
226.000000
 30
0.0
 10
141.830000
 20
226.000000
 30
0.0
 10
141.830000
 20
229.000000
 30
0.0
 10
135.920000
 20
229.000000
 30
0.0
 10
135.920000
 20
226.000000
 30
0.0
 10
129.705000
 20
226.000000
 30
0.0
 10
129.705000
 20
229.000000
 30
0.0
 10
123.795000
 20
229.000000
 30
0.0
 10
123.795000
 20
226.000000
 30
0.0
 10
117.580000
 20
226.000000
 30
0.0
 10
117.580000
 20
229.000000
 30
0.0
 10
111.670000
 20
229.000000
 30
0.0
 10
111.670000
 20
226.000000
 30
0.0
 10
105.455000
 20
226.000000
 30
0.0
 10
105.455000
 20
229.000000
 30
0.0
 10
99.545000
 20
229.000000
 30
0.0
 10
99.545000
 20
226.000000
 30
0.0
 10
93.330000
 20
226.000000
 30
0.0
 10
93.330000
 20
229.000000
 30
0.0
 10
87.420000
 20
229.000000
 30
0.0
 10
87.420000
 20
226.000000
 30
0.0
 10
81.205000
 20
226.000000
 30
0.0
 10
81.205000
 20
229.000000
 30
0.0
 10
75.295000
 20
229.000000
 30
0.0
 10
75.295000
 20
226.000000
 30
0.0
 10
69.080000
 20
226.000000
 30
0.0
 10
69.080000
 20
229.000000
 30
0.0
 10
63.170000
 20
229.000000
 30
0.0
 10
63.170000
 20
226.000000
 30
0.0
 10
57.000000
 20
226.000000
 30
0.0
 10
57.000000
 20
232.045000
 30
0.0
 10
60.000000
 20
232.045000
 30
0.0
 10
60.000000
 20
237.955000
 30
0.0
 10
57.000000
 20
237.955000
 30
0.0
 10
57.000000
 20
244.045000
 30
0.0
 10
60.000000
 20
244.045000
 30
0.0
 10
60.000000
 20
249.955000
 30
0.0
 10
57.000000
 20
249.955000
 30
0.0
 10
57.000000
 20
256.045000
 30
0.0
 10
60.000000
 20
256.045000
 30
0.0
 10
60.000000
 20
261.955000
 30
0.0
 10
57.000000
 20
261.955000
 30
0.0
 10
57.000000
 20
268.045000
 30
0.0
 10
60.000000
 20
268.045000
 30
0.0
 10
60.000000
 20
273.955000
 30
0.0
 10
57.000000
 20
273.955000
 30
0.0
 10
57.000000
 20
280.045000
 30
0.0
 10
60.000000
 20
280.045000
 30
0.0
 10
60.000000
 20
285.955000
 30
0.0
 10
57.000000
 20
285.955000
 30
0.0
 10
57.000000
 20
292.000000
 30
0.0
  0
SPLINE
  5
121
100
AcDbEntity
  8
newlayer
 62
7
100
AcDbSpline
 70
8
 71
3
 72
8
 73
4
 74
0
 40
0
 40
0
 40
0
 40
0
 40
1
 40
1
 40
1
 40
1
 10
11.719793
 20
209.312415
 30
0.0
 10
11.719793
 20
202.483275
 30
0.0
 10
17.251490
 20
196.945593
 30
0.0
 10
24.073252
 20
196.945593
 30
0.0
  0
SPLINE
  5
122
100
AcDbEntity
  8
newlayer
 62
7
100
AcDbSpline
 70
8
 71
3
 72
8
 73
4
 74
0
 40
0
 40
0
 40
0
 40
0
 40
1
 40
1
 40
1
 40
1
 10
24.073252
 20
196.945593
 30
0.0
 10
30.895016
 20
196.945593
 30
0.0
 10
36.426713
 20
202.483275
 30
0.0
 10
36.426713
 20
209.312415
 30
0.0
  0
SPLINE
  5
123
100
AcDbEntity
  8
newlayer
 62
7
100
AcDbSpline
 70
8
 71
3
 72
8
 73
4
 74
0
 40
0
 40
0
 40
0
 40
0
 40
1
 40
1
 40
1
 40
1
 10
36.426713
 20
209.312415
 30
0.0
 10
36.426713
 20
211.311178
 30
0.0
 10
35.953003
 20
213.194475
 30
0.0
 10
35.111811
 20
214.865318
 30
0.0
  0
LWPOLYLINE
  5
124
100
AcDbEntity
  8
newlayer
 62
7
100
AcDbPolyline
 90
5
 70
0
 10
80.679761
 20
274.539265
 30
0.0
 10
127.434111
 20
274.539265
 30
0.0
 10
127.434111
 20
246.315604
 30
0.0
 10
80.679761
 20
246.315604
 30
0.0
 10
80.679761
 20
274.539265
 30
0.0
  0
SPLINE
  5
125
100
AcDbEntity
  8
newlayer
 62
7
100
AcDbSpline
 70
8
 71
3
 72
8
 73
4
 74
0
 40
0
 40
0
 40
0
 40
0
 40
1
 40
1
 40
1
 40
1
 10
13.045758
 20
214.865318
 30
0.0
 10
12.204086
 20
213.194052
 30
0.0
 10
11.719793
 20
211.311819
 30
0.0
 10
11.719793
 20
209.312415
 30
0.0
  0
LWPOLYLINE
  5
126
100
AcDbEntity
  8
newlayer
 62
7
100
AcDbPolyline
 90
2
 70
0
 10
35.111811
 20
214.865318
 30
0.0
 10
13.045758
 20
214.865318
 30
0.0
  0
SPLINE
  5
127
100
AcDbEntity
  8
newlayer
 62
7
100
AcDbSpline
 70
8
 71
3
 72
8
 73
4
 74
0
 40
0
 40
0
 40
0
 40
0
 40
1
 40
1
 40
1
 40
1
 10
45.213934
 20
210.166488
 30
0.0
 10
46.267868
 20
210.166488
 30
0.0
 10
47.241742
 20
209.604221
 30
0.0
 10
47.768709
 20
208.691488
 30
0.0
  0
SPLINE
  5
128
100
AcDbEntity
  8
newlayer
 62
7
100
AcDbSpline
 70
8
 71
3
 72
8
 73
4
 74
0
 40
0
 40
0
 40
0
 40
0
 40
1
 40
1
 40
1
 40
1
 10
47.768709
 20
208.691488
 30
0.0
 10
48.295676
 20
207.778754
 30
0.0
 10
48.295676
 20
206.654221
 30
0.0
 10
47.768709
 20
205.741488
 30
0.0
  0
SPLINE
  5
129
100
AcDbEntity
  8
newlayer
 62
7
100
AcDbSpline
 70
8
 71
3
 72
8
 73
4
 74
0
 40
0
 40
0
 40
0
 40
0
 40
1
 40
1
 40
1
 40
1
 10
47.768709
 20
205.741488
 30
0.0
 10
47.241742
 20
204.828754
 30
0.0
 10
46.267868
 20
204.266487
 30
0.0
 10
45.213934
 20
204.266487
 30
0.0
  0
SPLINE
  5
12a
100
AcDbEntity
  8
newlayer
 62
7
100
AcDbSpline
 70
8
 71
3
 72
8
 73
4
 74
0
 40
0
 40
0
 40
0
 40
0
 40
1
 40
1
 40
1
 40
1
 10
45.213934
 20
204.266487
 30
0.0
 10
44.160001
 20
204.266487
 30
0.0
 10
43.186126
 20
204.828754
 30
0.0
 10
42.659159
 20
205.741488
 30
0.0
  0
SPLINE
  5
12b
100
AcDbEntity
  8
newlayer
 62
7
100
AcDbSpline
 70
8
 71
3
 72
8
 73
4
 74
0
 40
0
 40
0
 40
0
 40
0
 40
1
 40
1
 40
1
 40
1
 10
42.659159
 20
205.741488
 30
0.0
 10
42.132192
 20
206.654221
 30
0.0
 10
42.132192
 20
207.778754
 30
0.0
 10
42.659159
 20
208.691488
 30
0.0
  0
SPLINE
  5
12c
100
AcDbEntity
  8
newlayer
 62
7
100
AcDbSpline
 70
8
 71
3
 72
8
 73
4
 74
0
 40
0
 40
0
 40
0
 40
0
 40
1
 40
1
 40
1
 40
1
 10
42.659159
 20
208.691488
 30
0.0
 10
43.186126
 20
209.604221
 30
0.0
 10
44.160001
 20
210.166488
 30
0.0
 10
45.213934
 20
210.166488
 30
0.0
  0
LWPOLYLINE
  5
12d
100
AcDbEntity
  8
newlayer
 62
7
100
AcDbPolyline
 90
2
 70
0
 10
11.719793
 20
209.312415
 30
0.0
 10
11.719793
 20
209.312415
 30
0.0
  0
SPLINE
  5
12e
100
AcDbEntity
  8
newlayer
 62
3
100
AcDbSpline
 70
8
 71
3
 72
8
 73
4
 74
0
 40
0
 40
0
 40
0
 40
0
 40
1
 40
1
 40
1
 40
1
 10
23.953082
 20
197.244212
 30
0.0
 10
16.165753
 20
196.965196
 30
0.0
 10
9.930081
 20
205.788826
 30
0.0
 10
12.540721
 20
213.039837
 30
0.0
  0
SPLINE
  5
12f
100
AcDbEntity
  8
newlayer
 62
3
100
AcDbSpline
 70
8
 71
3
 72
8
 73
4
 74
0
 40
0
 40
0
 40
0
 40
0
 40
1
 40
1
 40
1
 40
1
 10
12.540721
 20
213.039837
 30
0.0
 10
12.899990
 20
215.324581
 30
0.0
 10
15.511562
 20
214.330987
 30
0.0
 10
17.082721
 20
214.530323
 30
0.0
  0
SPLINE
  5
130
100
AcDbEntity
  8
newlayer
 62
3
100
AcDbSpline
 70
8
 71
3
 72
8
 73
4
 74
0
 40
0
 40
0
 40
0
 40
0
 40
1
 40
1
 40
1
 40
1
 10
17.082721
 20
214.530323
 30
0.0
 10
22.935897
 20
214.530323
 30
0.0
 10
28.789074
 20
214.530323
 30
0.0
 10
34.642250
 20
214.530323
 30
0.0
  0
SPLINE
  5
131
100
AcDbEntity
  8
newlayer
 62
3
100
AcDbSpline
 70
8
 71
3
 72
8
 73
4
 74
0
 40
0
 40
0
 40
0
 40
0
 40
1
 40
1
 40
1
 40
1
 10
34.642250
 20
214.530323
 30
0.0
 10
36.733855
 20
212.103319
 30
0.0
 10
36.423467
 20
208.357559
 30
0.0
 10
35.488917
 20
205.455115
 30
0.0
  0
SPLINE
  5
132
100
AcDbEntity
  8
newlayer
 62
3
100
AcDbSpline
 70
8
 71
3
 72
8
 73
4
 74
0
 40
0
 40
0
 40
0
 40
0
 40
1
 40
1
 40
1
 40
1
 10
35.488917
 20
205.455115
 30
0.0
 10
33.917673
 20
200.602772
 30
0.0
 10
29.119726
 20
196.989236
 30
0.0
 10
23.953082
 20
197.244212
 30
0.0
  0
LWPOLYLINE
  5
133
100
AcDbEntity
  8
newlayer
 62
7
100
AcDbPolyline
 90
2
 70
0
 10
45.213934
 20
210.166488
 30
0.0
 10
45.213934
 20
210.166488
 30
0.0
  0
LWPOLYLINE
  5
134
100
AcDbEntity
  8
newlayer
 62
3
100
AcDbPolyline
 90
2
 70
0
 10
23.953082
 20
197.244212
 30
0.0
 10
23.953082
 20
197.244212
 30
0.0
  0
SPLINE
  5
135
100
AcDbEntity
  8
newlayer
 62
7
100
AcDbSpline
 70
8
 71
3
 72
8
 73
4
 74
0
 40
0
 40
0
 40
0
 40
0
 40
1
 40
1
 40
1
 40
1
 10
12.289968
 20
175.101917
 30
0.0
 10
12.289968
 20
168.272777
 30
0.0
 10
17.821665
 20
162.735095
 30
0.0
 10
24.643427
 20
162.735095
 30
0.0
  0
SPLINE
  5
136
100
AcDbEntity
  8
newlayer
 62
7
100
AcDbSpline
 70
8
 71
3
 72
8
 73
4
 74
0
 40
0
 40
0
 40
0
 40
0
 40
1
 40
1
 40
1
 40
1
 10
24.643427
 20
162.735095
 30
0.0
 10
31.465190
 20
162.735095
 30
0.0
 10
36.996889
 20
168.272777
 30
0.0
 10
36.996889
 20
175.101917
 30
0.0
  0
SPLINE
  5
137
100
AcDbEntity
  8
newlayer
 62
7
100
AcDbSpline
 70
8
 71
3
 72
8
 73
4
 74
0
 40
0
 40
0
 40
0
 40
0
 40
1
 40
1
 40
1
 40
1
 10
36.996889
 20
175.101917
 30
0.0
 10
36.996889
 20
177.100680
 30
0.0
 10
36.523179
 20
178.983977
 30
0.0
 10
35.681988
 20
180.654820
 30
0.0
  0
LWPOLYLINE
  5
138
100
AcDbEntity
  8
newlayer
 62
7
100
AcDbPolyline
 90
5
 70
0
 10
6.557012
 20
220.800268
 30
0.0
 10
53.311362
 20
220.800268
 30
0.0
 10
53.311362
 20
192.576607
 30
0.0
 10
6.557012
 20
192.576607
 30
0.0
 10
6.557012
 20
220.800268
 30
0.0
  0
SPLINE
  5
139
100
AcDbEntity
  8
newlayer
 62
7
100
AcDbSpline
 70
8
 71
3
 72
8
 73
4
 74
0
 40
0
 40
0
 40
0
 40
0
 40
1
 40
1
 40
1
 40
1
 10
13.615933
 20
180.654820
 30
0.0
 10
12.774261
 20
178.983554
 30
0.0
 10
12.289968
 20
177.101321
 30
0.0
 10
12.289968
 20
175.101917
 30
0.0
  0
LWPOLYLINE
  5
13a
100
AcDbEntity
  8
newlayer
 62
7
100
AcDbPolyline
 90
2
 70
0
 10
35.681988
 20
180.654820
 30
0.0
 10
13.615933
 20
180.654820
 30
0.0
  0
SPLINE
  5
13b
100
AcDbEntity
  8
newlayer
 62
7
100
AcDbSpline
 70
8
 71
3
 72
8
 73
4
 74
0
 40
0
 40
0
 40
0
 40
0
 40
1
 40
1
 40
1
 40
1
 10
45.784110
 20
175.955987
 30
0.0
 10
46.838044
 20
175.955987
 30
0.0
 10
47.811919
 20
175.393720
 30
0.0
 10
48.338885
 20
174.480987
 30
0.0
  0
SPLINE
  5
13c
100
AcDbEntity
  8
newlayer
 62
7
100
AcDbSpline
 70
8
 71
3
 72
8
 73
4
 74
0
 40
0
 40
0
 40
0
 40
0
 40
1
 40
1
 40
1
 40
1
 10
48.338885
 20
174.480987
 30
0.0
 10
48.865852
 20
173.568254
 30
0.0
 10
48.865852
 20
172.443720
 30
0.0
 10
48.338885
 20
171.530987
 30
0.0
  0
SPLINE
  5
13d
100
AcDbEntity
  8
newlayer
 62
7
100
AcDbSpline
 70
8
 71
3
 72
8
 73
4
 74
0
 40
0
 40
0
 40
0
 40
0
 40
1
 40
1
 40
1
 40
1
 10
48.338885
 20
171.530987
 30
0.0
 10
47.811919
 20
170.618253
 30
0.0
 10
46.838044
 20
170.055987
 30
0.0
 10
45.784110
 20
170.055987
 30
0.0
  0
SPLINE
  5
13e
100
AcDbEntity
  8
newlayer
 62
7
100
AcDbSpline
 70
8
 71
3
 72
8
 73
4
 74
0
 40
0
 40
0
 40
0
 40
0
 40
1
 40
1
 40
1
 40
1
 10
45.784110
 20
170.055987
 30
0.0
 10
44.730177
 20
170.055987
 30
0.0
 10
43.756302
 20
170.618253
 30
0.0
 10
43.229335
 20
171.530987
 30
0.0
  0
SPLINE
  5
13f
100
AcDbEntity
  8
newlayer
 62
7
100
AcDbSpline
 70
8
 71
3
 72
8
 73
4
 74
0
 40
0
 40
0
 40
0
 40
0
 40
1
 40
1
 40
1
 40
1
 10
43.229335
 20
171.530987
 30
0.0
 10
42.702369
 20
172.443720
 30
0.0
 10
42.702369
 20
173.568254
 30
0.0
 10
43.229335
 20
174.480987
 30
0.0
  0
SPLINE
  5
140
100
AcDbEntity
  8
newlayer
 62
7
100
AcDbSpline
 70
8
 71
3
 72
8
 73
4
 74
0
 40
0
 40
0
 40
0
 40
0
 40
1
 40
1
 40
1
 40
1
 10
43.229335
 20
174.480987
 30
0.0
 10
43.756302
 20
175.393720
 30
0.0
 10
44.730177
 20
175.955987
 30
0.0
 10
45.784110
 20
175.955987
 30
0.0
  0
LWPOLYLINE
  5
141
100
AcDbEntity
  8
newlayer
 62
7
100
AcDbPolyline
 90
2
 70
0
 10
12.289968
 20
175.101917
 30
0.0
 10
12.289968
 20
175.101917
 30
0.0
  0
LWPOLYLINE
  5
142
100
AcDbEntity
  8
newlayer
 62
7
100
AcDbPolyline
 90
2
 70
0
 10
45.784110
 20
175.955987
 30
0.0
 10
45.784110
 20
175.955987
 30
0.0
  0
LWPOLYLINE
  5
143
100
AcDbEntity
  8
newlayer
 62
7
100
AcDbPolyline
 90
5
 70
0
 10
7.127187
 20
186.589770
 30
0.0
 10
53.881537
 20
186.589770
 30
0.0
 10
53.881537
 20
158.366109
 30
0.0
 10
7.127187
 20
158.366109
 30
0.0
 10
7.127187
 20
186.589770
 30
0.0
  0
LWPOLYLINE
  5
144
100
AcDbEntity
  8
newlayer
 62
7
100
AcDbPolyline
 90
85
 70
0
 10
8.666624
 20
135.105178
 30
0.0
 10
14.746625
 20
135.105178
 30
0.0
 10
14.746625
 20
138.105178
 30
0.0
 10
20.836625
 20
138.105178
 30
0.0
 10
20.836625
 20
135.105178
 30
0.0
 10
26.871625
 20
135.105178
 30
0.0
 10
26.871625
 20
138.105178
 30
0.0
 10
32.961625
 20
138.105178
 30
0.0
 10
32.961625
 20
135.105178
 30
0.0
 10
38.996626
 20
135.105178
 30
0.0
 10
38.996626
 20
138.105178
 30
0.0
 10
45.086626
 20
138.105178
 30
0.0
 10
45.086626
 20
135.105178
 30
0.0
 10
51.121626
 20
135.105178
 30
0.0
 10
51.121626
 20
138.105178
 30
0.0
 10
57.211626
 20
138.105178
 30
0.0
 10
57.211626
 20
135.105178
 30
0.0
 10
63.246624
 20
135.105178
 30
0.0
 10
63.246624
 20
138.105178
 30
0.0
 10
69.336624
 20
138.105178
 30
0.0
 10
69.336624
 20
135.105178
 30
0.0
 10
75.371624
 20
135.105178
 30
0.0
 10
75.371624
 20
138.105178
 30
0.0
 10
81.461624
 20
138.105178
 30
0.0
 10
81.461624
 20
135.105178
 30
0.0
 10
87.496625
 20
135.105178
 30
0.0
 10
87.496625
 20
138.105178
 30
0.0
 10
93.586625
 20
138.105178
 30
0.0
 10
93.586625
 20
135.105178
 30
0.0
 10
99.666625
 20
135.105178
 30
0.0
 10
99.666625
 20
130.810179
 30
0.0
 10
96.666626
 20
130.810179
 30
0.0
 10
96.666626
 20
124.900178
 30
0.0
 10
99.666625
 20
124.900178
 30
0.0
 10
99.666625
 20
117.560179
 30
0.0
 10
96.666626
 20
117.560179
 30
0.0
 10
96.666626
 20
111.650177
 30
0.0
 10
99.666625
 20
111.650177
 30
0.0
 10
99.666625
 20
104.310181
 30
0.0
 10
96.666626
 20
104.310181
 30
0.0
 10
96.666626
 20
98.400180
 30
0.0
 10
99.666625
 20
98.400180
 30
0.0
 10
99.666625
 20
94.105181
 30
0.0
 10
93.586625
 20
94.105181
 30
0.0
 10
93.586625
 20
91.105181
 30
0.0
 10
87.496625
 20
91.105181
 30
0.0
 10
87.496625
 20
94.105181
 30
0.0
 10
81.461624
 20
94.105181
 30
0.0
 10
81.461624
 20
91.105181
 30
0.0
 10
75.371624
 20
91.105181
 30
0.0
 10
75.371624
 20
94.105181
 30
0.0
 10
69.336624
 20
94.105181
 30
0.0
 10
69.336624
 20
91.105181
 30
0.0
 10
63.246624
 20
91.105181
 30
0.0
 10
63.246624
 20
94.105181
 30
0.0
 10
57.211626
 20
94.105181
 30
0.0
 10
57.211626
 20
91.105181
 30
0.0
 10
51.121626
 20
91.105181
 30
0.0
 10
51.121626
 20
94.105181
 30
0.0
 10
45.086626
 20
94.105181
 30
0.0
 10
45.086626
 20
91.105181
 30
0.0
 10
38.996626
 20
91.105181
 30
0.0
 10
38.996626
 20
94.105181
 30
0.0
 10
32.961625
 20
94.105181
 30
0.0
 10
32.961625
 20
91.105181
 30
0.0
 10
26.871625
 20
91.105181
 30
0.0
 10
26.871625
 20
94.105181
 30
0.0
 10
20.836625
 20
94.105181
 30
0.0
 10
20.836625
 20
91.105181
 30
0.0
 10
14.746625
 20
91.105181
 30
0.0
 10
14.746625
 20
94.105181
 30
0.0
 10
8.666624
 20
94.105181
 30
0.0
 10
8.666624
 20
98.400180
 30
0.0
 10
11.666627
 20
98.400180
 30
0.0
 10
11.666627
 20
104.310181
 30
0.0
 10
8.666624
 20
104.310181
 30
0.0
 10
8.666624
 20
111.650177
 30
0.0
 10
11.666627
 20
111.650177
 30
0.0
 10
11.666627
 20
117.560179
 30
0.0
 10
8.666624
 20
117.560179
 30
0.0
 10
8.666624
 20
124.900178
 30
0.0
 10
11.666627
 20
124.900178
 30
0.0
 10
11.666627
 20
130.810179
 30
0.0
 10
8.666624
 20
130.810179
 30
0.0
 10
8.666624
 20
135.105178
 30
0.0
  0
LWPOLYLINE
  5
145
100
AcDbEntity
  8
newlayer
 62
7
100
AcDbPolyline
 90
69
 70
0
 10
105.508673
 20
164.561304
 30
0.0
 10
109.713672
 20
164.561304
 30
0.0
 10
109.713672
 20
167.561304
 30
0.0
 10
115.803672
 20
167.561304
 30
0.0
 10
115.803672
 20
164.561304
 30
0.0
 10
122.963672
 20
164.561304
 30
0.0
 10
122.963672
 20
167.561304
 30
0.0
 10
129.053672
 20
167.561304
 30
0.0
 10
129.053672
 20
164.561304
 30
0.0
 10
136.213672
 20
164.561304
 30
0.0
 10
136.213672
 20
167.561304
 30
0.0
 10
142.303672
 20
167.561304
 30
0.0
 10
142.303672
 20
164.561304
 30
0.0
 10
146.508673
 20
164.561304
 30
0.0
 10
146.508673
 20
161.606305
 30
0.0
 10
149.508673
 20
161.606305
 30
0.0
 10
149.508673
 20
155.516305
 30
0.0
 10
146.508673
 20
155.516305
 30
0.0
 10
146.508673
 20
149.606303
 30
0.0
 10
149.508673
 20
149.606303
 30
0.0
 10
149.508673
 20
143.516306
 30
0.0
 10
146.508673
 20
143.516306
 30
0.0
 10
146.508673
 20
137.606305
 30
0.0
 10
149.508673
 20
137.606305
 30
0.0
 10
149.508673
 20
131.516305
 30
0.0
 10
146.508673
 20
131.516305
 30
0.0
 10
146.508673
 20
125.606306
 30
0.0
 10
149.508673
 20
125.606306
 30
0.0
 10
149.508673
 20
119.516306
 30
0.0
 10
146.508673
 20
119.516306
 30
0.0
 10
146.508673
 20
113.606305
 30
0.0
 10
149.508673
 20
113.606305
 30
0.0
 10
149.508673
 20
107.516305
 30
0.0
 10
146.508673
 20
107.516305
 30
0.0
 10
146.508673
 20
104.561305
 30
0.0
 10
142.303672
 20
104.561305
 30
0.0
 10
142.303672
 20
101.561306
 30
0.0
 10
136.213672
 20
101.561306
 30
0.0
 10
136.213672
 20
104.561305
 30
0.0
 10
129.053672
 20
104.561305
 30
0.0
 10
129.053672
 20
101.561306
 30
0.0
 10
122.963672
 20
101.561306
 30
0.0
 10
122.963672
 20
104.561305
 30
0.0
 10
115.803672
 20
104.561305
 30
0.0
 10
115.803672
 20
101.561306
 30
0.0
 10
109.713672
 20
101.561306
 30
0.0
 10
109.713672
 20
104.561305
 30
0.0
 10
105.508673
 20
104.561305
 30
0.0
 10
105.508673
 20
107.516305
 30
0.0
 10
102.508674
 20
107.516305
 30
0.0
 10
102.508674
 20
113.606305
 30
0.0
 10
105.508673
 20
113.606305
 30
0.0
 10
105.508673
 20
119.516306
 30
0.0
 10
102.508674
 20
119.516306
 30
0.0
 10
102.508674
 20
125.606306
 30
0.0
 10
105.508673
 20
125.606306
 30
0.0
 10
105.508673
 20
131.516305
 30
0.0
 10
102.508674
 20
131.516305
 30
0.0
 10
102.508674
 20
137.606305
 30
0.0
 10
105.508673
 20
137.606305
 30
0.0
 10
105.508673
 20
143.516306
 30
0.0
 10
102.508674
 20
143.516306
 30
0.0
 10
102.508674
 20
149.606303
 30
0.0
 10
105.508673
 20
149.606303
 30
0.0
 10
105.508673
 20
155.516305
 30
0.0
 10
102.508674
 20
155.516305
 30
0.0
 10
102.508674
 20
161.606305
 30
0.0
 10
105.508673
 20
161.606305
 30
0.0
 10
105.508673
 20
164.561304
 30
0.0
  0
ENDSEC
  0
SECTION
  2
OBJECTS
  0
DICTIONARY
  5
C
330
0
100
AcDbDictionary
  3
ACAD_GROUP
350
D
  3
ACAD_MLINESTYLE
350
17
  0
DICTIONARY
  5
D
330
C
100
AcDbDictionary
  0
DICTIONARY
  5
1A
330
C
100
AcDbDictionary
  0
DICTIONARY
  5
17
330
C
100
AcDbDictionary
  3
STANDARD
350
18
  0
DICTIONARY
  5
19
330
C
100
AcDbDictionary
  0
ENDSEC
  0
EOF
