  0
SECTION
  2
HEADER
  9
$ACADVER
  1
AC1014
  9
$HANDSEED
  5
FFFF
  9
$MEASUREMENT
 70
     1
  0
ENDSEC
  0
SECTION
  2
TABLES
  0
TABLE
  2
VPORT
  5
8
330
0
100
AcDbSymbolTable
 70
     4
  0
VPORT
  5
2E
330
8
100
AcDbSymbolTableRecord
100
AcDbViewportTableRecord
  2
*ACTIVE
 70
     0
 10
0.0
 20
0.0
 11
1.0
 21
1.0
 12
210.0
 22
148.5
 13
0.0
 23
0.0
 14
10.0
 24
10.0
 15
10.0
 25
10.0
 16
0.0
 26
0.0
 36
1.0
 17
0.0
 27
0.0
 37
0.0
 40
341.0
 41
1.24
 42
50.0
 43
0.0
 44
0.0
 50
0.0
 51
0.0
 71
     0
 72
   100
 73
     1
 74
     3
 75
     0
 76
     0
 77
     0
 78
     0
  0
ENDTAB
  0
TABLE
  2
LTYPE
  5
5
330
0
100
AcDbSymbolTable
 70
     1
  0
LTYPE
  5
14
330
5
100
AcDbSymbolTableRecord
100
AcDbLinetypeTableRecord
  2
BYBLOCK
 70
     0
  3

 72
    65
 73
     0
 40
0.0
  0
LTYPE
  5
15
330
5
100
AcDbSymbolTableRecord
100
AcDbLinetypeTableRecord
  2
BYLAYER
 70
     0
  3

 72
    65
 73
     0
 40
0.0
  0
LTYPE
  5
16
330
5
100
AcDbSymbolTableRecord
100
AcDbLinetypeTableRecord
  2
CONTINUOUS
 70
     0
  3
Solid line
 72
    65
 73
     0
 40
0.0
  0
ENDTAB
  0
TABLE
  2
LAYER
  5
2
100
AcDbSymbolTable
 70
1
  0
LAYER
  5
50
100
AcDbSymbolTableRecord
100
AcDbLayerTableRecord
  2
0
 70
0
  6
CONTINUOUS
  0
ENDTAB
  0
TABLE
  2
STYLE
  5
3
330
0
100
AcDbSymbolTable
 70
     1
  0
STYLE
  5
11
330
3
100
AcDbSymbolTableRecord
100
AcDbTextStyleTableRecord
  2
STANDARD
 70
     0
 40
0.0
 41
1.0
 50
0.0
 71
     0
 42
2.5
  3
txt
  4

  0
ENDTAB
  0
TABLE
  2
VIEW
  5
6
330
0
100
AcDbSymbolTable
 70
     0
  0
ENDTAB
  0
TABLE
  2
UCS
  5
7
330
0
100
AcDbSymbolTable
 70
     0
  0
ENDTAB
  0
TABLE
  2
APPID
  5
9
330
0
100
AcDbSymbolTable
 70
     2
  0
APPID
  5
12
330
9
100
AcDbSymbolTableRecord
100
AcDbRegAppTableRecord
  2
ACAD
 70
     0
  0
ENDTAB
  0
TABLE
  2
DIMSTYLE
  5
A
330
0
100
AcDbSymbolTable
 70
     1
  0
DIMSTYLE
105
27
330
A
100
AcDbSymbolTableRecord
100
AcDbDimStyleTableRecord
  2
ISO-25
 70
     0
  3

  4

  5

  6

  7

 40
1.0
 41
2.5
 42
0.625
 43
3.75
 44
1.25
 45
0.0
 46
0.0
 47
0.0
 48
0.0
140
2.5
141
2.5
142
0.0
143
0.03937007874016
144
1.0
145
0.0
146
1.0
147
0.625
 71
     0
 72
     0
 73
     0
 74
     0
 75
     0
 76
     0
 77
     1
 78
     8
170
     0
171
     3
172
     1
173
     0
174
     0
175
     0
176
     0
177
     0
178
     0
270
     2
271
     2
272
     2
273
     2
274
     3
340
11
275
     0
280
     0
281
     0
282
     0
283
     0
284
     8
285
     0
286
     0
287
     3
288
     0
  0
ENDTAB
  0
TABLE
  2
BLOCK_RECORD
  5
1
330
0
100
AcDbSymbolTable
 70
     1
  0
BLOCK_RECORD
  5
1F
330
1
100
AcDbSymbolTableRecord
100
AcDbBlockTableRecord
  2
*MODEL_SPACE
  0
BLOCK_RECORD
  5
1B
330
1
100
AcDbSymbolTableRecord
100
AcDbBlockTableRecord
  2
*PAPER_SPACE
  0
ENDTAB
  0
ENDSEC
  0
SECTION
  2
BLOCKS
  0
BLOCK
  5
20
330
1F
100
AcDbEntity
  8
0
100
AcDbBlockBegin
  2
*MODEL_SPACE
 70
     0
 10
0.0
 20
0.0
 30
0.0
  3
*MODEL_SPACE
  1

  0
ENDBLK
  5
21
330
1F
100
AcDbEntity
  8
0
100
AcDbBlockEnd
  0
BLOCK
  5
1C
330
1B
100
AcDbEntity
 67
     1
  8
0
100
AcDbBlockBegin
  2
*PAPER_SPACE
  1

  0
ENDBLK
  5
1D
330
1B
100
AcDbEntity
 67
     1
  8
0
100
AcDbBlockEnd
  0
ENDSEC
  0
SECTION
  2
ENTITIES
  0
SPLINE
  5
100
100
AcDbEntity
  8
0
 62
7
100
AcDbSpline
 70
8
 71
3
 72
8
 73
4
 74
0
 40
0
 40
0
 40
0
 40
0
 40
1
 40
1
 40
1
 40
1
 10
179.534239
 20
132.781366
 30
0.0
 10
179.534239
 20
125.952226
 30
0.0
 10
185.065935
 20
120.414543
 30
0.0
 10
191.887698
 20
120.414543
 30
0.0
  0
SPLINE
  5
101
100
AcDbEntity
  8
0
 62
7
100
AcDbSpline
 70
8
 71
3
 72
8
 73
4
 74
0
 40
0
 40
0
 40
0
 40
0
 40
1
 40
1
 40
1
 40
1
 10
191.887698
 20
120.414543
 30
0.0
 10
198.709461
 20
120.414543
 30
0.0
 10
204.241157
 20
125.952226
 30
0.0
 10
204.241157
 20
132.781366
 30
0.0
  0
SPLINE
  5
102
100
AcDbEntity
  8
0
 62
7
100
AcDbSpline
 70
8
 71
3
 72
8
 73
4
 74
0
 40
0
 40
0
 40
0
 40
0
 40
1
 40
1
 40
1
 40
1
 10
204.241157
 20
132.781366
 30
0.0
 10
204.241157
 20
134.780126
 30
0.0
 10
203.767447
 20
136.663423
 30
0.0
 10
202.926256
 20
138.334266
 30
0.0
  0
SPLINE
  5
103
100
AcDbEntity
  8
0
 62
7
100
AcDbSpline
 70
8
 71
3
 72
8
 73
4
 74
0
 40
0
 40
0
 40
0
 40
0
 40
1
 40
1
 40
1
 40
1
 10
180.860203
 20
138.334266
 30
0.0
 10
180.018532
 20
136.663000
 30
0.0
 10
179.534239
 20
134.780766
 30
0.0
 10
179.534239
 20
132.781366
 30
0.0
  0
LWPOLYLINE
  5
104
100
AcDbEntity
  8
0
 62
7
100
AcDbPolyline
 90
2
 70
0
 10
202.926256
 20
138.334266
 30
0.0
 10
180.860203
 20
138.334266
 30
0.0
  0
SPLINE
  5
105
100
AcDbEntity
  8
0
 62
7
100
AcDbSpline
 70
8
 71
3
 72
8
 73
4
 74
0
 40
0
 40
0
 40
0
 40
0
 40
1
 40
1
 40
1
 40
1
 10
213.028378
 20
133.635435
 30
0.0
 10
214.082312
 20
133.635435
 30
0.0
 10
215.056187
 20
133.073168
 30
0.0
 10
215.583153
 20
132.160435
 30
0.0
  0
SPLINE
  5
106
100
AcDbEntity
  8
0
 62
7
100
AcDbSpline
 70
8
 71
3
 72
8
 73
4
 74
0
 40
0
 40
0
 40
0
 40
0
 40
1
 40
1
 40
1
 40
1
 10
215.583153
 20
132.160435
 30
0.0
 10
216.110120
 20
131.247702
 30
0.0
 10
216.110120
 20
130.123168
 30
0.0
 10
215.583153
 20
129.210435
 30
0.0
  0
SPLINE
  5
107
100
AcDbEntity
  8
0
 62
7
100
AcDbSpline
 70
8
 71
3
 72
8
 73
4
 74
0
 40
0
 40
0
 40
0
 40
0
 40
1
 40
1
 40
1
 40
1
 10
215.583153
 20
129.210435
 30
0.0
 10
215.056187
 20
128.297702
 30
0.0
 10
214.082312
 20
127.735435
 30
0.0
 10
213.028378
 20
127.735435
 30
0.0
  0
SPLINE
  5
108
100
AcDbEntity
  8
0
 62
7
100
AcDbSpline
 70
8
 71
3
 72
8
 73
4
 74
0
 40
0
 40
0
 40
0
 40
0
 40
1
 40
1
 40
1
 40
1
 10
213.028378
 20
127.735435
 30
0.0
 10
211.974445
 20
127.735435
 30
0.0
 10
211.000570
 20
128.297702
 30
0.0
 10
210.473603
 20
129.210435
 30
0.0
  0
SPLINE
  5
109
100
AcDbEntity
  8
0
 62
7
100
AcDbSpline
 70
8
 71
3
 72
8
 73
4
 74
0
 40
0
 40
0
 40
0
 40
0
 40
1
 40
1
 40
1
 40
1
 10
210.473603
 20
129.210435
 30
0.0
 10
209.946637
 20
130.123168
 30
0.0
 10
209.946637
 20
131.247702
 30
0.0
 10
210.473603
 20
132.160435
 30
0.0
  0
SPLINE
  5
10a
100
AcDbEntity
  8
0
 62
7
100
AcDbSpline
 70
8
 71
3
 72
8
 73
4
 74
0
 40
0
 40
0
 40
0
 40
0
 40
1
 40
1
 40
1
 40
1
 10
210.473603
 20
132.160435
 30
0.0
 10
211.000570
 20
133.073168
 30
0.0
 10
211.974445
 20
133.635435
 30
0.0
 10
213.028378
 20
133.635435
 30
0.0
  0
LWPOLYLINE
  5
10b
100
AcDbEntity
  8
0
 62
7
100
AcDbPolyline
 90
2
 70
0
 10
179.534239
 20
132.781366
 30
0.0
 10
179.534239
 20
132.781366
 30
0.0
  0
SPLINE
  5
10c
100
AcDbEntity
  8
0
 62
3
100
AcDbSpline
 70
8
 71
3
 72
8
 73
4
 74
0
 40
0
 40
0
 40
0
 40
0
 40
1
 40
1
 40
1
 40
1
 10
191.767528
 20
120.713163
 30
0.0
 10
183.980198
 20
120.434146
 30
0.0
 10
177.744526
 20
129.257776
 30
0.0
 10
180.355167
 20
136.508785
 30
0.0
  0
SPLINE
  5
10d
100
AcDbEntity
  8
0
 62
3
100
AcDbSpline
 70
8
 71
3
 72
8
 73
4
 74
0
 40
0
 40
0
 40
0
 40
0
 40
1
 40
1
 40
1
 40
1
 10
180.355167
 20
136.508785
 30
0.0
 10
180.714436
 20
138.793529
 30
0.0
 10
183.326007
 20
137.799935
 30
0.0
 10
184.897166
 20
137.999271
 30
0.0
  0
SPLINE
  5
10e
100
AcDbEntity
  8
0
 62
3
100
AcDbSpline
 70
8
 71
3
 72
8
 73
4
 74
0
 40
0
 40
0
 40
0
 40
0
 40
1
 40
1
 40
1
 40
1
 10
184.897166
 20
137.999271
 30
0.0
 10
190.750342
 20
137.999271
 30
0.0
 10
196.603518
 20
137.999271
 30
0.0
 10
202.456694
 20
137.999271
 30
0.0
  0
SPLINE
  5
10f
100
AcDbEntity
  8
0
 62
3
100
AcDbSpline
 70
8
 71
3
 72
8
 73
4
 74
0
 40
0
 40
0
 40
0
 40
0
 40
1
 40
1
 40
1
 40
1
 10
202.456694
 20
137.999271
 30
0.0
 10
204.548300
 20
135.572267
 30
0.0
 10
204.237912
 20
131.826509
 30
0.0
 10
203.303361
 20
128.924065
 30
0.0
  0
SPLINE
  5
110
100
AcDbEntity
  8
0
 62
3
100
AcDbSpline
 70
8
 71
3
 72
8
 73
4
 74
0
 40
0
 40
0
 40
0
 40
0
 40
1
 40
1
 40
1
 40
1
 10
203.303361
 20
128.924065
 30
0.0
 10
201.732117
 20
124.071723
 30
0.0
 10
196.934170
 20
120.458186
 30
0.0
 10
191.767528
 20
120.713163
 30
0.0
  0
LWPOLYLINE
  5
111
100
AcDbEntity
  8
0
 62
7
100
AcDbPolyline
 90
2
 70
0
 10
213.028378
 20
133.635435
 30
0.0
 10
213.028378
 20
133.635435
 30
0.0
  0
SPLINE
  5
112
100
AcDbEntity
  8
0
 62
1
100
AcDbSpline
 70
8
 71
3
 72
8
 73
4
 74
0
 40
0
 40
0
 40
0
 40
0
 40
1
 40
1
 40
1
 40
1
 10
164.688492
 20
23.987533
 30
0.0
 10
164.688492
 20
30.816661
 30
0.0
 10
170.220188
 20
36.354341
 30
0.0
 10
177.041951
 20
36.354341
 30
0.0
  0
SPLINE
  5
113
100
AcDbEntity
  8
0
 62
1
100
AcDbSpline
 70
8
 71
3
 72
8
 73
4
 74
0
 40
0
 40
0
 40
0
 40
0
 40
1
 40
1
 40
1
 40
1
 10
177.041951
 20
36.354341
 30
0.0
 10
183.863722
 20
36.354341
 30
0.0
 10
189.395394
 20
30.816690
 30
0.0
 10
189.395394
 20
23.987533
 30
0.0
  0
SPLINE
  5
114
100
AcDbEntity
  8
0
 62
1
100
AcDbSpline
 70
8
 71
3
 72
8
 73
4
 74
0
 40
0
 40
0
 40
0
 40
0
 40
1
 40
1
 40
1
 40
1
 10
189.395394
 20
23.987533
 30
0.0
 10
189.395394
 20
21.988750
 30
0.0
 10
188.921684
 20
20.105453
 30
0.0
 10
188.080489
 20
18.434613
 30
0.0
  0
LWPOLYLINE
  5
115
100
AcDbEntity
  8
0
 62
3
100
AcDbPolyline
 90
2
 70
0
 10
191.767528
 20
120.713163
 30
0.0
 10
191.767528
 20
120.713163
 30
0.0
  0
SPLINE
  5
116
100
AcDbEntity
  8
0
 62
1
100
AcDbSpline
 70
8
 71
3
 72
8
 73
4
 74
0
 40
0
 40
0
 40
0
 40
0
 40
1
 40
1
 40
1
 40
1
 10
166.014456
 20
18.434613
 30
0.0
 10
165.172785
 20
20.105877
 30
0.0
 10
164.688492
 20
21.988129
 30
0.0
 10
164.688492
 20
23.987533
 30
0.0
  0
LWPOLYLINE
  5
117
100
AcDbEntity
  8
0
 62
1
100
AcDbPolyline
 90
2
 70
0
 10
188.080489
 20
18.434613
 30
0.0
 10
166.014456
 20
18.434613
 30
0.0
  0
LWPOLYLINE
  5
118
100
AcDbEntity
  8
0
 62
1
100
AcDbPolyline
 90
2
 70
0
 10
164.688492
 20
23.987533
 30
0.0
 10
164.688492
 20
23.987533
 30
0.0
  0
SPLINE
  5
119
100
AcDbEntity
  8
0
 62
7
100
AcDbSpline
 70
8
 71
3
 72
8
 73
4
 74
0
 40
0
 40
0
 40
0
 40
0
 40
1
 40
1
 40
1
 40
1
 10
173.254058
 20
13.909180
 30
0.0
 10
173.254058
 20
15.268729
 30
0.0
 10
172.296576
 20
16.365755
 30
0.0
 10
171.098086
 20
16.365755
 30
0.0
  0
LWPOLYLINE
  5
11a
100
AcDbEntity
  8
0
 62
7
100
AcDbPolyline
 90
3
 70
0
 10
191.789677
 20
12.404935
 30
0.0
 10
173.254058
 20
12.404935
 30
0.0
 10
173.254058
 20
13.909180
 30
0.0
  0
SPLINE
  5
11b
100
AcDbEntity
  8
0
 62
7
100
AcDbSpline
 70
8
 71
3
 72
8
 73
4
 74
0
 40
0
 40
0
 40
0
 40
0
 40
1
 40
1
 40
1
 40
1
 10
176.650190
 20
38.875037
 30
0.0
 10
185.039598
 20
38.875037
 30
0.0
 10
191.789677
 20
31.217727
 30
0.0
 10
191.789677
 20
21.700855
 30
0.0
  0
LWPOLYLINE
  5
11c
100
AcDbEntity
  8
0
 62
7
100
AcDbPolyline
 90
7
 70
0
 10
171.098086
 20
16.365755
 30
0.0
 10
164.973598
 20
16.365755
 30
0.0
 10
164.973598
 20
16.484740
 30
0.0
 10
157.914219
 20
27.598764
 30
0.0
 10
164.973598
 20
38.712675
 30
0.0
 10
164.973598
 20
38.875037
 30
0.0
 10
176.650190
 20
38.875037
 30
0.0
  0
LWPOLYLINE
  5
11d
100
AcDbEntity
  8
0
 62
7
100
AcDbPolyline
 90
3
 70
0
 10
191.789677
 20
21.700855
 30
0.0
 10
191.789677
 20
12.404935
 30
0.0
 10
191.789677
 20
12.404935
 30
0.0
  0
LWPOLYLINE
  5
11e
100
AcDbEntity
  8
0
 62
7
100
AcDbPolyline
 90
85
 70
0
 10
150.691695
 20
87.729956
 30
0.0
 10
156.771696
 20
87.729956
 30
0.0
 10
156.771696
 20
90.729956
 30
0.0
 10
162.861696
 20
90.729956
 30
0.0
 10
162.861696
 20
87.729956
 30
0.0
 10
168.896696
 20
87.729956
 30
0.0
 10
168.896696
 20
90.729956
 30
0.0
 10
174.986696
 20
90.729956
 30
0.0
 10
174.986696
 20
87.729956
 30
0.0
 10
181.021696
 20
87.729956
 30
0.0
 10
181.021696
 20
90.729956
 30
0.0
 10
187.111696
 20
90.729956
 30
0.0
 10
187.111696
 20
87.729956
 30
0.0
 10
193.146697
 20
87.729956
 30
0.0
 10
193.146697
 20
90.729956
 30
0.0
 10
199.236697
 20
90.729956
 30
0.0
 10
199.236697
 20
87.729956
 30
0.0
 10
205.271695
 20
87.729956
 30
0.0
 10
205.271695
 20
90.729956
 30
0.0
 10
211.361695
 20
90.729956
 30
0.0
 10
211.361695
 20
87.729956
 30
0.0
 10
217.396695
 20
87.729956
 30
0.0
 10
217.396695
 20
90.729956
 30
0.0
 10
223.486695
 20
90.729956
 30
0.0
 10
223.486695
 20
87.729956
 30
0.0
 10
229.521695
 20
87.729956
 30
0.0
 10
229.521695
 20
90.729956
 30
0.0
 10
235.611695
 20
90.729956
 30
0.0
 10
235.611695
 20
87.729956
 30
0.0
 10
241.691696
 20
87.729956
 30
0.0
 10
241.691696
 20
83.434957
 30
0.0
 10
238.691697
 20
83.434957
 30
0.0
 10
238.691697
 20
77.524956
 30
0.0
 10
241.691696
 20
77.524956
 30
0.0
 10
241.691696
 20
70.184957
 30
0.0
 10
238.691697
 20
70.184957
 30
0.0
 10
238.691697
 20
64.274955
 30
0.0
 10
241.691696
 20
64.274955
 30
0.0
 10
241.691696
 20
56.934956
 30
0.0
 10
238.691697
 20
56.934956
 30
0.0
 10
238.691697
 20
51.024955
 30
0.0
 10
241.691696
 20
51.024955
 30
0.0
 10
241.691696
 20
46.729956
 30
0.0
 10
235.611695
 20
46.729956
 30
0.0
 10
235.611695
 20
43.729956
 30
0.0
 10
229.521695
 20
43.729956
 30
0.0
 10
229.521695
 20
46.729956
 30
0.0
 10
223.486695
 20
46.729956
 30
0.0
 10
223.486695
 20
43.729956
 30
0.0
 10
217.396695
 20
43.729956
 30
0.0
 10
217.396695
 20
46.729956
 30
0.0
 10
211.361695
 20
46.729956
 30
0.0
 10
211.361695
 20
43.729956
 30
0.0
 10
205.271695
 20
43.729956
 30
0.0
 10
205.271695
 20
46.729956
 30
0.0
 10
199.236697
 20
46.729956
 30
0.0
 10
199.236697
 20
43.729956
 30
0.0
 10
193.146697
 20
43.729956
 30
0.0
 10
193.146697
 20
46.729956
 30
0.0
 10
187.111696
 20
46.729956
 30
0.0
 10
187.111696
 20
43.729956
 30
0.0
 10
181.021696
 20
43.729956
 30
0.0
 10
181.021696
 20
46.729956
 30
0.0
 10
174.986696
 20
46.729956
 30
0.0
 10
174.986696
 20
43.729956
 30
0.0
 10
168.896696
 20
43.729956
 30
0.0
 10
168.896696
 20
46.729956
 30
0.0
 10
162.861696
 20
46.729956
 30
0.0
 10
162.861696
 20
43.729956
 30
0.0
 10
156.771696
 20
43.729956
 30
0.0
 10
156.771696
 20
46.729956
 30
0.0
 10
150.691695
 20
46.729956
 30
0.0
 10
150.691695
 20
51.024955
 30
0.0
 10
153.691697
 20
51.024955
 30
0.0
 10
153.691697
 20
56.934956
 30
0.0
 10
150.691695
 20
56.934956
 30
0.0
 10
150.691695
 20
64.274955
 30
0.0
 10
153.691697
 20
64.274955
 30
0.0
 10
153.691697
 20
70.184957
 30
0.0
 10
150.691695
 20
70.184957
 30
0.0
 10
150.691695
 20
77.524956
 30
0.0
 10
153.691697
 20
77.524956
 30
0.0
 10
153.691697
 20
83.434957
 30
0.0
 10
150.691695
 20
83.434957
 30
0.0
 10
150.691695
 20
87.729956
 30
0.0
  0
LWPOLYLINE
  5
11f
100
AcDbEntity
  8
0
 62
7
100
AcDbPolyline
 90
69
 70
0
 10
101.691697
 20
158.729955
 30
0.0
 10
105.896695
 20
158.729955
 30
0.0
 10
105.896695
 20
161.729955
 30
0.0
 10
111.986695
 20
161.729955
 30
0.0
 10
111.986695
 20
158.729955
 30
0.0
 10
119.146695
 20
158.729955
 30
0.0
 10
119.146695
 20
161.729955
 30
0.0
 10
125.236695
 20
161.729955
 30
0.0
 10
125.236695
 20
158.729955
 30
0.0
 10
132.396696
 20
158.729955
 30
0.0
 10
132.396696
 20
161.729955
 30
0.0
 10
138.486696
 20
161.729955
 30
0.0
 10
138.486696
 20
158.729955
 30
0.0
 10
142.691697
 20
158.729955
 30
0.0
 10
142.691697
 20
155.774956
 30
0.0
 10
145.691696
 20
155.774956
 30
0.0
 10
145.691696
 20
149.684956
 30
0.0
 10
142.691697
 20
149.684956
 30
0.0
 10
142.691697
 20
143.774954
 30
0.0
 10
145.691696
 20
143.774954
 30
0.0
 10
145.691696
 20
137.684954
 30
0.0
 10
142.691697
 20
137.684954
 30
0.0
 10
142.691697
 20
131.774956
 30
0.0
 10
145.691696
 20
131.774956
 30
0.0
 10
145.691696
 20
125.684956
 30
0.0
 10
142.691697
 20
125.684956
 30
0.0
 10
142.691697
 20
119.774957
 30
0.0
 10
145.691696
 20
119.774957
 30
0.0
 10
145.691696
 20
113.684957
 30
0.0
 10
142.691697
 20
113.684957
 30
0.0
 10
142.691697
 20
107.774956
 30
0.0
 10
145.691696
 20
107.774956
 30
0.0
 10
145.691696
 20
101.684956
 30
0.0
 10
142.691697
 20
101.684956
 30
0.0
 10
142.691697
 20
98.729957
 30
0.0
 10
138.486696
 20
98.729957
 30
0.0
 10
138.486696
 20
95.729957
 30
0.0
 10
132.396696
 20
95.729957
 30
0.0
 10
132.396696
 20
98.729957
 30
0.0
 10
125.236695
 20
98.729957
 30
0.0
 10
125.236695
 20
95.729957
 30
0.0
 10
119.146695
 20
95.729957
 30
0.0
 10
119.146695
 20
98.729957
 30
0.0
 10
111.986695
 20
98.729957
 30
0.0
 10
111.986695
 20
95.729957
 30
0.0
 10
105.896695
 20
95.729957
 30
0.0
 10
105.896695
 20
98.729957
 30
0.0
 10
101.691697
 20
98.729957
 30
0.0
 10
101.691697
 20
101.684956
 30
0.0
 10
98.691697
 20
101.684956
 30
0.0
 10
98.691697
 20
107.774956
 30
0.0
 10
101.691697
 20
107.774956
 30
0.0
 10
101.691697
 20
113.684957
 30
0.0
 10
98.691697
 20
113.684957
 30
0.0
 10
98.691697
 20
119.774957
 30
0.0
 10
101.691697
 20
119.774957
 30
0.0
 10
101.691697
 20
125.684956
 30
0.0
 10
98.691697
 20
125.684956
 30
0.0
 10
98.691697
 20
131.774956
 30
0.0
 10
101.691697
 20
131.774956
 30
0.0
 10
101.691697
 20
137.684954
 30
0.0
 10
98.691697
 20
137.684954
 30
0.0
 10
98.691697
 20
143.774954
 30
0.0
 10
101.691697
 20
143.774954
 30
0.0
 10
101.691697
 20
149.684956
 30
0.0
 10
98.691697
 20
149.684956
 30
0.0
 10
98.691697
 20
155.774956
 30
0.0
 10
101.691697
 20
155.774956
 30
0.0
 10
101.691697
 20
158.729955
 30
0.0
  0
LWPOLYLINE
  5
120
100
AcDbEntity
  8
0
 62
7
100
AcDbPolyline
 90
101
 70
0
 10
150.691695
 20
161.729955
 30
0.0
 10
156.861696
 20
161.729955
 30
0.0
 10
156.861696
 20
158.729955
 30
0.0
 10
162.771695
 20
158.729955
 30
0.0
 10
162.771695
 20
161.729955
 30
0.0
 10
168.986697
 20
161.729955
 30
0.0
 10
168.986697
 20
158.729955
 30
0.0
 10
174.896695
 20
158.729955
 30
0.0
 10
174.896695
 20
161.729955
 30
0.0
 10
181.111697
 20
161.729955
 30
0.0
 10
181.111697
 20
158.729955
 30
0.0
 10
187.021696
 20
158.729955
 30
0.0
 10
187.021696
 20
161.729955
 30
0.0
 10
193.236695
 20
161.729955
 30
0.0
 10
193.236695
 20
158.729955
 30
0.0
 10
199.146696
 20
158.729955
 30
0.0
 10
199.146696
 20
161.729955
 30
0.0
 10
205.361695
 20
161.729955
 30
0.0
 10
205.361695
 20
158.729955
 30
0.0
 10
211.271697
 20
158.729955
 30
0.0
 10
211.271697
 20
161.729955
 30
0.0
 10
217.486696
 20
161.729955
 30
0.0
 10
217.486696
 20
158.729955
 30
0.0
 10
223.396697
 20
158.729955
 30
0.0
 10
223.396697
 20
161.729955
 30
0.0
 10
229.611696
 20
161.729955
 30
0.0
 10
229.611696
 20
158.729955
 30
0.0
 10
235.521695
 20
158.729955
 30
0.0
 10
235.521695
 20
161.729955
 30
0.0
 10
241.691696
 20
161.729955
 30
0.0
 10
241.691696
 20
155.684955
 30
0.0
 10
238.691697
 20
155.684955
 30
0.0
 10
238.691697
 20
149.774954
 30
0.0
 10
241.691696
 20
149.774954
 30
0.0
 10
241.691696
 20
143.684954
 30
0.0
 10
238.691697
 20
143.684954
 30
0.0
 10
238.691697
 20
137.774952
 30
0.0
 10
241.691696
 20
137.774952
 30
0.0
 10
241.691696
 20
131.684955
 30
0.0
 10
238.691697
 20
131.684955
 30
0.0
 10
238.691697
 20
125.774957
 30
0.0
 10
241.691696
 20
125.774957
 30
0.0
 10
241.691696
 20
119.684957
 30
0.0
 10
238.691697
 20
119.684957
 30
0.0
 10
238.691697
 20
113.774955
 30
0.0
 10
241.691696
 20
113.774955
 30
0.0
 10
241.691696
 20
107.684955
 30
0.0
 10
238.691697
 20
107.684955
 30
0.0
 10
238.691697
 20
101.774957
 30
0.0
 10
241.691696
 20
101.774957
 30
0.0
 10
241.691696
 20
95.729957
 30
0.0
 10
235.521695
 20
95.729957
 30
0.0
 10
235.521695
 20
98.729957
 30
0.0
 10
229.611696
 20
98.729957
 30
0.0
 10
229.611696
 20
95.729957
 30
0.0
 10
223.396697
 20
95.729957
 30
0.0
 10
223.396697
 20
98.729957
 30
0.0
 10
217.486696
 20
98.729957
 30
0.0
 10
217.486696
 20
95.729957
 30
0.0
 10
211.271697
 20
95.729957
 30
0.0
 10
211.271697
 20
98.729957
 30
0.0
 10
205.361695
 20
98.729957
 30
0.0
 10
205.361695
 20
95.729957
 30
0.0
 10
199.146696
 20
95.729957
 30
0.0
 10
199.146696
 20
98.729957
 30
0.0
 10
193.236695
 20
98.729957
 30
0.0
 10
193.236695
 20
95.729957
 30
0.0
 10
187.021696
 20
95.729957
 30
0.0
 10
187.021696
 20
98.729957
 30
0.0
 10
181.111697
 20
98.729957
 30
0.0
 10
181.111697
 20
95.729957
 30
0.0
 10
174.896695
 20
95.729957
 30
0.0
 10
174.896695
 20
98.729957
 30
0.0
 10
168.986697
 20
98.729957
 30
0.0
 10
168.986697
 20
95.729957
 30
0.0
 10
162.771695
 20
95.729957
 30
0.0
 10
162.771695
 20
98.729957
 30
0.0
 10
156.861696
 20
98.729957
 30
0.0
 10
156.861696
 20
95.729957
 30
0.0
 10
150.691695
 20
95.729957
 30
0.0
 10
150.691695
 20
101.774957
 30
0.0
 10
153.691697
 20
101.774957
 30
0.0
 10
153.691697
 20
107.684955
 30
0.0
 10
150.691695
 20
107.684955
 30
0.0
 10
150.691695
 20
113.774955
 30
0.0
 10
153.691697
 20
113.774955
 30
0.0
 10
153.691697
 20
119.684957
 30
0.0
 10
150.691695
 20
119.684957
 30
0.0
 10
150.691695
 20
125.774957
 30
0.0
 10
153.691697
 20
125.774957
 30
0.0
 10
153.691697
 20
131.684955
 30
0.0
 10
150.691695
 20
131.684955
 30
0.0
 10
150.691695
 20
137.774952
 30
0.0
 10
153.691697
 20
137.774952
 30
0.0
 10
153.691697
 20
143.684954
 30
0.0
 10
150.691695
 20
143.684954
 30
0.0
 10
150.691695
 20
149.774954
 30
0.0
 10
153.691697
 20
149.774954
 30
0.0
 10
153.691697
 20
155.684955
 30
0.0
 10
150.691695
 20
155.684955
 30
0.0
 10
150.691695
 20
161.729955
 30
0.0
  0
SPLINE
  5
121
100
AcDbEntity
  8
0
 62
7
100
AcDbSpline
 70
8
 71
3
 72
8
 73
4
 74
0
 40
0
 40
0
 40
0
 40
0
 40
1
 40
1
 40
1
 40
1
 10
105.411490
 20
79.042371
 30
0.0
 10
105.411490
 20
72.213231
 30
0.0
 10
110.943187
 20
66.675549
 30
0.0
 10
117.764949
 20
66.675549
 30
0.0
  0
SPLINE
  5
122
100
AcDbEntity
  8
0
 62
7
100
AcDbSpline
 70
8
 71
3
 72
8
 73
4
 74
0
 40
0
 40
0
 40
0
 40
0
 40
1
 40
1
 40
1
 40
1
 10
117.764949
 20
66.675549
 30
0.0
 10
124.586712
 20
66.675549
 30
0.0
 10
130.118409
 20
72.213231
 30
0.0
 10
130.118409
 20
79.042371
 30
0.0
  0
SPLINE
  5
123
100
AcDbEntity
  8
0
 62
7
100
AcDbSpline
 70
8
 71
3
 72
8
 73
4
 74
0
 40
0
 40
0
 40
0
 40
0
 40
1
 40
1
 40
1
 40
1
 10
130.118409
 20
79.042371
 30
0.0
 10
130.118409
 20
81.041134
 30
0.0
 10
129.644699
 20
82.924431
 30
0.0
 10
128.803507
 20
84.595274
 30
0.0
  0
LWPOLYLINE
  5
124
100
AcDbEntity
  8
0
 62
7
100
AcDbPolyline
 90
5
 70
0
 10
174.371457
 20
144.269219
 30
0.0
 10
221.125807
 20
144.269219
 30
0.0
 10
221.125807
 20
116.045557
 30
0.0
 10
174.371457
 20
116.045557
 30
0.0
 10
174.371457
 20
144.269219
 30
0.0
  0
SPLINE
  5
125
100
AcDbEntity
  8
0
 62
7
100
AcDbSpline
 70
8
 71
3
 72
8
 73
4
 74
0
 40
0
 40
0
 40
0
 40
0
 40
1
 40
1
 40
1
 40
1
 10
106.737455
 20
84.595274
 30
0.0
 10
105.895783
 20
82.924008
 30
0.0
 10
105.411490
 20
81.041775
 30
0.0
 10
105.411490
 20
79.042371
 30
0.0
  0
LWPOLYLINE
  5
126
100
AcDbEntity
  8
0
 62
7
100
AcDbPolyline
 90
2
 70
0
 10
128.803507
 20
84.595274
 30
0.0
 10
106.737455
 20
84.595274
 30
0.0
  0
SPLINE
  5
127
100
AcDbEntity
  8
0
 62
7
100
AcDbSpline
 70
8
 71
3
 72
8
 73
4
 74
0
 40
0
 40
0
 40
0
 40
0
 40
1
 40
1
 40
1
 40
1
 10
138.905630
 20
79.896444
 30
0.0
 10
139.959563
 20
79.896444
 30
0.0
 10
140.933438
 20
79.334177
 30
0.0
 10
141.460405
 20
78.421444
 30
0.0
  0
SPLINE
  5
128
100
AcDbEntity
  8
0
 62
7
100
AcDbSpline
 70
8
 71
3
 72
8
 73
4
 74
0
 40
0
 40
0
 40
0
 40
0
 40
1
 40
1
 40
1
 40
1
 10
141.460405
 20
78.421444
 30
0.0
 10
141.987372
 20
77.508710
 30
0.0
 10
141.987372
 20
76.384177
 30
0.0
 10
141.460405
 20
75.471444
 30
0.0
  0
SPLINE
  5
129
100
AcDbEntity
  8
0
 62
7
100
AcDbSpline
 70
8
 71
3
 72
8
 73
4
 74
0
 40
0
 40
0
 40
0
 40
0
 40
1
 40
1
 40
1
 40
1
 10
141.460405
 20
75.471444
 30
0.0
 10
140.933438
 20
74.558710
 30
0.0
 10
139.959563
 20
73.996443
 30
0.0
 10
138.905630
 20
73.996443
 30
0.0
  0
SPLINE
  5
12a
100
AcDbEntity
  8
0
 62
7
100
AcDbSpline
 70
8
 71
3
 72
8
 73
4
 74
0
 40
0
 40
0
 40
0
 40
0
 40
1
 40
1
 40
1
 40
1
 10
138.905630
 20
73.996443
 30
0.0
 10
137.851696
 20
73.996443
 30
0.0
 10
136.877822
 20
74.558710
 30
0.0
 10
136.350855
 20
75.471444
 30
0.0
  0
SPLINE
  5
12b
100
AcDbEntity
  8
0
 62
7
100
AcDbSpline
 70
8
 71
3
 72
8
 73
4
 74
0
 40
0
 40
0
 40
0
 40
0
 40
1
 40
1
 40
1
 40
1
 10
136.350855
 20
75.471444
 30
0.0
 10
135.823888
 20
76.384177
 30
0.0
 10
135.823888
 20
77.508710
 30
0.0
 10
136.350855
 20
78.421444
 30
0.0
  0
SPLINE
  5
12c
100
AcDbEntity
  8
0
 62
7
100
AcDbSpline
 70
8
 71
3
 72
8
 73
4
 74
0
 40
0
 40
0
 40
0
 40
0
 40
1
 40
1
 40
1
 40
1
 10
136.350855
 20
78.421444
 30
0.0
 10
136.877822
 20
79.334177
 30
0.0
 10
137.851696
 20
79.896444
 30
0.0
 10
138.905630
 20
79.896444
 30
0.0
  0
LWPOLYLINE
  5
12d
100
AcDbEntity
  8
0
 62
7
100
AcDbPolyline
 90
2
 70
0
 10
105.411490
 20
79.042371
 30
0.0
 10
105.411490
 20
79.042371
 30
0.0
  0
SPLINE
  5
12e
100
AcDbEntity
  8
0
 62
3
100
AcDbSpline
 70
8
 71
3
 72
8
 73
4
 74
0
 40
0
 40
0
 40
0
 40
0
 40
1
 40
1
 40
1
 40
1
 10
117.644779
 20
66.974168
 30
0.0
 10
109.857450
 20
66.695152
 30
0.0
 10
103.621778
 20
75.518782
 30
0.0
 10
106.232418
 20
82.769793
 30
0.0
  0
SPLINE
  5
12f
100
AcDbEntity
  8
0
 62
3
100
AcDbSpline
 70
8
 71
3
 72
8
 73
4
 74
0
 40
0
 40
0
 40
0
 40
0
 40
1
 40
1
 40
1
 40
1
 10
106.232418
 20
82.769793
 30
0.0
 10
106.591687
 20
85.054537
 30
0.0
 10
109.203259
 20
84.060943
 30
0.0
 10
110.774418
 20
84.260279
 30
0.0
  0
SPLINE
  5
130
100
AcDbEntity
  8
0
 62
3
100
AcDbSpline
 70
8
 71
3
 72
8
 73
4
 74
0
 40
0
 40
0
 40
0
 40
0
 40
1
 40
1
 40
1
 40
1
 10
110.774418
 20
84.260279
 30
0.0
 10
116.627594
 20
84.260279
 30
0.0
 10
122.480770
 20
84.260279
 30
0.0
 10
128.333946
 20
84.260279
 30
0.0
  0
SPLINE
  5
131
100
AcDbEntity
  8
0
 62
3
100
AcDbSpline
 70
8
 71
3
 72
8
 73
4
 74
0
 40
0
 40
0
 40
0
 40
0
 40
1
 40
1
 40
1
 40
1
 10
128.333946
 20
84.260279
 30
0.0
 10
130.425551
 20
81.833275
 30
0.0
 10
130.115163
 20
78.087515
 30
0.0
 10
129.180613
 20
75.185071
 30
0.0
  0
SPLINE
  5
132
100
AcDbEntity
  8
0
 62
3
100
AcDbSpline
 70
8
 71
3
 72
8
 73
4
 74
0
 40
0
 40
0
 40
0
 40
0
 40
1
 40
1
 40
1
 40
1
 10
129.180613
 20
75.185071
 30
0.0
 10
127.609369
 20
70.332728
 30
0.0
 10
122.811421
 20
66.719192
 30
0.0
 10
117.644779
 20
66.974168
 30
0.0
  0
LWPOLYLINE
  5
133
100
AcDbEntity
  8
0
 62
7
100
AcDbPolyline
 90
2
 70
0
 10
138.905630
 20
79.896444
 30
0.0
 10
138.905630
 20
79.896444
 30
0.0
  0
LWPOLYLINE
  5
134
100
AcDbEntity
  8
0
 62
3
100
AcDbPolyline
 90
2
 70
0
 10
117.644779
 20
66.974168
 30
0.0
 10
117.644779
 20
66.974168
 30
0.0
  0
SPLINE
  5
135
100
AcDbEntity
  8
0
 62
7
100
AcDbSpline
 70
8
 71
3
 72
8
 73
4
 74
0
 40
0
 40
0
 40
0
 40
0
 40
1
 40
1
 40
1
 40
1
 10
105.981664
 20
44.831873
 30
0.0
 10
105.981664
 20
38.002733
 30
0.0
 10
111.513360
 20
32.465051
 30
0.0
 10
118.335123
 20
32.465051
 30
0.0
  0
SPLINE
  5
136
100
AcDbEntity
  8
0
 62
7
100
AcDbSpline
 70
8
 71
3
 72
8
 73
4
 74
0
 40
0
 40
0
 40
0
 40
0
 40
1
 40
1
 40
1
 40
1
 10
118.335123
 20
32.465051
 30
0.0
 10
125.156886
 20
32.465051
 30
0.0
 10
130.688585
 20
38.002733
 30
0.0
 10
130.688585
 20
44.831873
 30
0.0
  0
SPLINE
  5
137
100
AcDbEntity
  8
0
 62
7
100
AcDbSpline
 70
8
 71
3
 72
8
 73
4
 74
0
 40
0
 40
0
 40
0
 40
0
 40
1
 40
1
 40
1
 40
1
 10
130.688585
 20
44.831873
 30
0.0
 10
130.688585
 20
46.830636
 30
0.0
 10
130.214875
 20
48.713933
 30
0.0
 10
129.373684
 20
50.384776
 30
0.0
  0
LWPOLYLINE
  5
138
100
AcDbEntity
  8
0
 62
7
100
AcDbPolyline
 90
5
 70
0
 10
100.248703
 20
90.530224
 30
0.0
 10
147.003053
 20
90.530224
 30
0.0
 10
147.003053
 20
62.306563
 30
0.0
 10
100.248703
 20
62.306563
 30
0.0
 10
100.248703
 20
90.530224
 30
0.0
  0
SPLINE
  5
139
100
AcDbEntity
  8
0
 62
7
100
AcDbSpline
 70
8
 71
3
 72
8
 73
4
 74
0
 40
0
 40
0
 40
0
 40
0
 40
1
 40
1
 40
1
 40
1
 10
107.307628
 20
50.384776
 30
0.0
 10
106.465957
 20
48.713510
 30
0.0
 10
105.981664
 20
46.831277
 30
0.0
 10
105.981664
 20
44.831873
 30
0.0
  0
LWPOLYLINE
  5
13a
100
AcDbEntity
  8
0
 62
7
100
AcDbPolyline
 90
2
 70
0
 10
129.373684
 20
50.384776
 30
0.0
 10
107.307628
 20
50.384776
 30
0.0
  0
SPLINE
  5
13b
100
AcDbEntity
  8
0
 62
7
100
AcDbSpline
 70
8
 71
3
 72
8
 73
4
 74
0
 40
0
 40
0
 40
0
 40
0
 40
1
 40
1
 40
1
 40
1
 10
139.475806
 20
45.685943
 30
0.0
 10
140.529740
 20
45.685943
 30
0.0
 10
141.503615
 20
45.123676
 30
0.0
 10
142.030581
 20
44.210943
 30
0.0
  0
SPLINE
  5
13c
100
AcDbEntity
  8
0
 62
7
100
AcDbSpline
 70
8
 71
3
 72
8
 73
4
 74
0
 40
0
 40
0
 40
0
 40
0
 40
1
 40
1
 40
1
 40
1
 10
142.030581
 20
44.210943
 30
0.0
 10
142.557548
 20
43.298210
 30
0.0
 10
142.557548
 20
42.173676
 30
0.0
 10
142.030581
 20
41.260943
 30
0.0
  0
SPLINE
  5
13d
100
AcDbEntity
  8
0
 62
7
100
AcDbSpline
 70
8
 71
3
 72
8
 73
4
 74
0
 40
0
 40
0
 40
0
 40
0
 40
1
 40
1
 40
1
 40
1
 10
142.030581
 20
41.260943
 30
0.0
 10
141.503615
 20
40.348210
 30
0.0
 10
140.529740
 20
39.785943
 30
0.0
 10
139.475806
 20
39.785943
 30
0.0
  0
SPLINE
  5
13e
100
AcDbEntity
  8
0
 62
7
100
AcDbSpline
 70
8
 71
3
 72
8
 73
4
 74
0
 40
0
 40
0
 40
0
 40
0
 40
1
 40
1
 40
1
 40
1
 10
139.475806
 20
39.785943
 30
0.0
 10
138.421873
 20
39.785943
 30
0.0
 10
137.447998
 20
40.348210
 30
0.0
 10
136.921031
 20
41.260943
 30
0.0
  0
SPLINE
  5
13f
100
AcDbEntity
  8
0
 62
7
100
AcDbSpline
 70
8
 71
3
 72
8
 73
4
 74
0
 40
0
 40
0
 40
0
 40
0
 40
1
 40
1
 40
1
 40
1
 10
136.921031
 20
41.260943
 30
0.0
 10
136.394065
 20
42.173676
 30
0.0
 10
136.394065
 20
43.298210
 30
0.0
 10
136.921031
 20
44.210943
 30
0.0
  0
SPLINE
  5
140
100
AcDbEntity
  8
0
 62
7
100
AcDbSpline
 70
8
 71
3
 72
8
 73
4
 74
0
 40
0
 40
0
 40
0
 40
0
 40
1
 40
1
 40
1
 40
1
 10
136.921031
 20
44.210943
 30
0.0
 10
137.447998
 20
45.123676
 30
0.0
 10
138.421873
 20
45.685943
 30
0.0
 10
139.475806
 20
45.685943
 30
0.0
  0
LWPOLYLINE
  5
141
100
AcDbEntity
  8
0
 62
7
100
AcDbPolyline
 90
2
 70
0
 10
105.981664
 20
44.831873
 30
0.0
 10
105.981664
 20
44.831873
 30
0.0
  0
LWPOLYLINE
  5
142
100
AcDbEntity
  8
0
 62
7
100
AcDbPolyline
 90
2
 70
0
 10
139.475806
 20
45.685943
 30
0.0
 10
139.475806
 20
45.685943
 30
0.0
  0
LWPOLYLINE
  5
143
100
AcDbEntity
  8
0
 62
7
100
AcDbPolyline
 90
5
 70
0
 10
100.818885
 20
56.319720
 30
0.0
 10
147.573235
 20
56.319720
 30
0.0
 10
147.573235
 20
28.096059
 30
0.0
 10
100.818885
 20
28.096059
 30
0.0
 10
100.818885
 20
56.319720
 30
0.0
  0
LWPOLYLINE
  5
144
100
AcDbEntity
  8
0
 62
7
100
AcDbPolyline
 90
85
 70
0
 10
102.358320
 20
4.835145
 30
0.0
 10
108.438321
 20
4.835145
 30
0.0
 10
108.438321
 20
7.835139
 30
0.0
 10
114.528321
 20
7.835139
 30
0.0
 10
114.528321
 20
4.835145
 30
0.0
 10
120.563321
 20
4.835145
 30
0.0
 10
120.563321
 20
7.835139
 30
0.0
 10
126.653321
 20
7.835139
 30
0.0
 10
126.653321
 20
4.835145
 30
0.0
 10
132.688322
 20
4.835145
 30
0.0
 10
132.688322
 20
7.835139
 30
0.0
 10
138.778321
 20
7.835139
 30
0.0
 10
138.778321
 20
4.835145
 30
0.0
 10
144.813322
 20
4.835145
 30
0.0
 10
144.813322
 20
7.835139
 30
0.0
 10
150.903322
 20
7.835139
 30
0.0
 10
150.903322
 20
4.835145
 30
0.0
 10
156.938320
 20
4.835145
 30
0.0
 10
156.938320
 20
7.835139
 30
0.0
 10
163.028320
 20
7.835139
 30
0.0
 10
163.028320
 20
4.835145
 30
0.0
 10
169.063320
 20
4.835145
 30
0.0
 10
169.063320
 20
7.835139
 30
0.0
 10
175.153320
 20
7.835139
 30
0.0
 10
175.153320
 20
4.835145
 30
0.0
 10
181.188320
 20
4.835145
 30
0.0
 10
181.188320
 20
7.835139
 30
0.0
 10
187.278320
 20
7.835139
 30
0.0
 10
187.278320
 20
4.835145
 30
0.0
 10
193.358321
 20
4.835145
 30
0.0
 10
193.358321
 20
0.540146
 30
0.0
 10
190.358322
 20
0.540146
 30
0.0
 10
190.358322
 20
-5.369869
 30
0.0
 10
193.358321
 20
-5.369869
 30
0.0
 10
193.358321
 20
-12.709876
 30
0.0
 10
190.358322
 20
-12.709876
 30
0.0
 10
190.358322
 20
-18.619864
 30
0.0
 10
193.358321
 20
-18.619864
 30
0.0
 10
193.358321
 20
-25.959871
 30
0.0
 10
190.358322
 20
-25.959871
 30
0.0
 10
190.358322
 20
-31.869858
 30
0.0
 10
193.358321
 20
-31.869858
 30
0.0
 10
193.358321
 20
-36.164857
 30
0.0
 10
187.278320
 20
-36.164857
 30
0.0
 10
187.278320
 20
-39.164851
 30
0.0
 10
181.188320
 20
-39.164851
 30
0.0
 10
181.188320
 20
-36.164857
 30
0.0
 10
175.153320
 20
-36.164857
 30
0.0
 10
175.153320
 20
-39.164851
 30
0.0
 10
169.063320
 20
-39.164851
 30
0.0
 10
169.063320
 20
-36.164857
 30
0.0
 10
163.028320
 20
-36.164857
 30
0.0
 10
163.028320
 20
-39.164851
 30
0.0
 10
156.938320
 20
-39.164851
 30
0.0
 10
156.938320
 20
-36.164857
 30
0.0
 10
150.903322
 20
-36.164857
 30
0.0
 10
150.903322
 20
-39.164851
 30
0.0
 10
144.813322
 20
-39.164851
 30
0.0
 10
144.813322
 20
-36.164857
 30
0.0
 10
138.778321
 20
-36.164857
 30
0.0
 10
138.778321
 20
-39.164851
 30
0.0
 10
132.688322
 20
-39.164851
 30
0.0
 10
132.688322
 20
-36.164857
 30
0.0
 10
126.653321
 20
-36.164857
 30
0.0
 10
126.653321
 20
-39.164851
 30
0.0
 10
120.563321
 20
-39.164851
 30
0.0
 10
120.563321
 20
-36.164857
 30
0.0
 10
114.528321
 20
-36.164857
 30
0.0
 10
114.528321
 20
-39.164851
 30
0.0
 10
108.438321
 20
-39.164851
 30
0.0
 10
108.438321
 20
-36.164857
 30
0.0
 10
102.358320
 20
-36.164857
 30
0.0
 10
102.358320
 20
-31.869858
 30
0.0
 10
105.358322
 20
-31.869858
 30
0.0
 10
105.358322
 20
-25.959871
 30
0.0
 10
102.358320
 20
-25.959871
 30
0.0
 10
102.358320
 20
-18.619864
 30
0.0
 10
105.358322
 20
-18.619864
 30
0.0
 10
105.358322
 20
-12.709876
 30
0.0
 10
102.358320
 20
-12.709876
 30
0.0
 10
102.358320
 20
-5.369869
 30
0.0
 10
105.358322
 20
-5.369869
 30
0.0
 10
105.358322
 20
0.540146
 30
0.0
 10
102.358320
 20
0.540146
 30
0.0
 10
102.358320
 20
4.835145
 30
0.0
  0
LWPOLYLINE
  5
145
100
AcDbEntity
  8
0
 62
7
100
AcDbPolyline
 90
69
 70
0
 10
199.200369
 20
34.291260
 30
0.0
 10
203.405367
 20
34.291260
 30
0.0
 10
203.405367
 20
37.291260
 30
0.0
 10
209.495367
 20
37.291260
 30
0.0
 10
209.495367
 20
34.291260
 30
0.0
 10
216.655368
 20
34.291260
 30
0.0
 10
216.655368
 20
37.291260
 30
0.0
 10
222.745368
 20
37.291260
 30
0.0
 10
222.745368
 20
34.291260
 30
0.0
 10
229.905368
 20
34.291260
 30
0.0
 10
229.905368
 20
37.291260
 30
0.0
 10
235.995368
 20
37.291260
 30
0.0
 10
235.995368
 20
34.291260
 30
0.0
 10
240.200369
 20
34.291260
 30
0.0
 10
240.200369
 20
31.336261
 30
0.0
 10
243.200369
 20
31.336261
 30
0.0
 10
243.200369
 20
25.246261
 30
0.0
 10
240.200369
 20
25.246261
 30
0.0
 10
240.200369
 20
19.336259
 30
0.0
 10
243.200369
 20
19.336259
 30
0.0
 10
243.200369
 20
13.246271
 30
0.0
 10
240.200369
 20
13.246271
 30
0.0
 10
240.200369
 20
7.336255
 30
0.0
 10
243.200369
 20
7.336255
 30
0.0
 10
243.200369
 20
1.246266
 30
0.0
 10
240.200369
 20
1.246266
 30
0.0
 10
240.200369
 20
-4.663749
 30
0.0
 10
243.200369
 20
-4.663749
 30
0.0
 10
243.200369
 20
-10.753738
 30
0.0
 10
240.200369
 20
-10.753738
 30
0.0
 10
240.200369
 20
-16.663753
 30
0.0
 10
243.200369
 20
-16.663753
 30
0.0
 10
243.200369
 20
-22.753742
 30
0.0
 10
240.200369
 20
-22.753742
 30
0.0
 10
240.200369
 20
-25.708750
 30
0.0
 10
235.995368
 20
-25.708750
 30
0.0
 10
235.995368
 20
-28.708744
 30
0.0
 10
229.905368
 20
-28.708744
 30
0.0
 10
229.905368
 20
-25.708750
 30
0.0
 10
222.745368
 20
-25.708750
 30
0.0
 10
222.745368
 20
-28.708744
 30
0.0
 10
216.655368
 20
-28.708744
 30
0.0
 10
216.655368
 20
-25.708750
 30
0.0
 10
209.495367
 20
-25.708750
 30
0.0
 10
209.495367
 20
-28.708744
 30
0.0
 10
203.405367
 20
-28.708744
 30
0.0
 10
203.405367
 20
-25.708750
 30
0.0
 10
199.200369
 20
-25.708750
 30
0.0
 10
199.200369
 20
-22.753742
 30
0.0
 10
196.200370
 20
-22.753742
 30
0.0
 10
196.200370
 20
-16.663753
 30
0.0
 10
199.200369
 20
-16.663753
 30
0.0
 10
199.200369
 20
-10.753738
 30
0.0
 10
196.200370
 20
-10.753738
 30
0.0
 10
196.200370
 20
-4.663749
 30
0.0
 10
199.200369
 20
-4.663749
 30
0.0
 10
199.200369
 20
1.246266
 30
0.0
 10
196.200370
 20
1.246266
 30
0.0
 10
196.200370
 20
7.336255
 30
0.0
 10
199.200369
 20
7.336255
 30
0.0
 10
199.200369
 20
13.246271
 30
0.0
 10
196.200370
 20
13.246271
 30
0.0
 10
196.200370
 20
19.336259
 30
0.0
 10
199.200369
 20
19.336259
 30
0.0
 10
199.200369
 20
25.246261
 30
0.0
 10
196.200370
 20
25.246261
 30
0.0
 10
196.200370
 20
31.336261
 30
0.0
 10
199.200369
 20
31.336261
 30
0.0
 10
199.200369
 20
34.291260
 30
0.0
  0
ENDSEC
  0
SECTION
  2
OBJECTS
  0
DICTIONARY
  5
C
330
0
100
AcDbDictionary
  3
ACAD_GROUP
350
D
  3
ACAD_MLINESTYLE
350
17
  0
DICTIONARY
  5
D
330
C
100
AcDbDictionary
  0
DICTIONARY
  5
1A
330
C
100
AcDbDictionary
  0
DICTIONARY
  5
17
330
C
100
AcDbDictionary
  3
STANDARD
350
18
  0
DICTIONARY
  5
19
330
C
100
AcDbDictionary
  0
ENDSEC
  0
EOF
