<?xml version="1.0" encoding="UTF-8" standalone="no"?>
<!-- Created with Inkscape (http://www.inkscape.org/) -->

<svg
   xmlns:dc="http://purl.org/dc/elements/1.1/"
   xmlns:cc="http://creativecommons.org/ns#"
   xmlns:rdf="http://www.w3.org/1999/02/22-rdf-syntax-ns#"
   xmlns:svg="http://www.w3.org/2000/svg"
   xmlns="http://www.w3.org/2000/svg"
   xmlns:sodipodi="http://sodipodi.sourceforge.net/DTD/sodipodi-0.dtd"
   xmlns:inkscape="http://www.inkscape.org/namespaces/inkscape"
   width="744.09448819"
   height="1052.3622047"
   id="svg7564"
   version="1.1"
   inkscape:version="0.48.4 r9939"
   sodipodi:docname="bot2_08.svg">
  <sodipodi:namedview
     id="base"
     pagecolor="#ffffff"
     bordercolor="#666666"
     borderopacity="1.0"
     inkscape:pageopacity="0.0"
     inkscape:pageshadow="2"
     inkscape:zoom="1.4"
     inkscape:cx="1841.6982"
     inkscape:cy="1244.6687"
     inkscape:document-units="mm"
     inkscape:current-layer="svg7564"
     showgrid="false"
     inkscape:window-width="1920"
     inkscape:window-height="1002"
     inkscape:window-x="0"
     inkscape:window-y="25"
     inkscape:window-maximized="1"
     inkscape:object-nodes="true"
     inkscape:snap-global="false" />
  <defs
     id="defs7566" />
  <metadata
     id="metadata7569">
    <rdf:RDF>
      <cc:Work
         rdf:about="">
        <dc:format>image/svg+xml</dc:format>
        <dc:type
           rdf:resource="http://purl.org/dc/dcmitype/StillImage" />
        <dc:title />
      </cc:Work>
    </rdf:RDF>
  </metadata>
  <path
     sodipodi:type="arc"
     style="fill:none;stroke:#000000;stroke-width:0.32121724;stroke-linecap:square;stroke-linejoin:round;stroke-miterlimit:4;stroke-opacity:1;stroke-dasharray:none"
     id="path5449-3-4-8-8"
     sodipodi:cx="1254.2858"
     sodipodi:cy="-300.49496"
     sodipodi:rx="27.142857"
     sodipodi:ry="27.142857"
     d="m 1281.4286,-300.49496 a 27.142857,27.142857 0 1 1 -54.2857,0 27.142857,27.142857 0 1 1 54.2857,0 z"
     transform="matrix(1.1030875,0,0,1.1030875,818.17968,64.919398)" />
  <path
     sodipodi:type="arc"
     style="fill:none;stroke:#000000;stroke-width:0.32121724;stroke-linecap:square;stroke-linejoin:round;stroke-miterlimit:4;stroke-opacity:1;stroke-dasharray:none"
     id="path5449-3-4-8"
     sodipodi:cx="1254.2858"
     sodipodi:cy="-300.49496"
     sodipodi:rx="27.142857"
     sodipodi:ry="27.142857"
     d="m 1281.4286,-300.49496 a 27.142857,27.142857 0 1 1 -54.2857,0 27.142857,27.142857 0 1 1 54.2857,0 z"
     transform="matrix(1.1030875,0,0,1.1030875,910.30566,64.919398)" />
  <g
     id="g5576"
     transform="translate(406.08132,365.67522)">
    <path
       style="fill:none;stroke:#000000"
       d="m 1559.0681,-79.010096 10.625,0 0,11.9375 29.4063,0 0,-0.0312 20.9375,0 0,0.0312 29.4062,0 0,-11.9375 10.625,0 0,-21.562504 -10.625,0 0,-22.375 10.625,0 0,-21.5625 -10.625,0 0,-22.375 10.625,0 0,-21.5625 -10.625,0 0,-22.375 10.625,0 0,-21.5625 -10.625,0 0,-11.84375 -79.75,0 0,11.84375 -10.625,0 0,21.5625 10.625,0 0,22.375 -10.625,0 0,21.5625 10.625,0 0,22.375 -10.625,0 0,21.5625 10.625,0 0,22.375 -10.625,0 0,21.562504 z"
       id="path3589"
       inkscape:connector-curvature="0" />
    <path
       transform="matrix(0,-0.11274735,0.11274735,0,1573.8305,-127.40046)"
       d="m -78.791908,316.97113 c 0,62.48388 -50.653192,113.13708 -113.137082,113.13708 -62.48388,0 -113.13707,-50.6532 -113.13707,-113.13708 0,-62.48388 50.65319,-113.13708 113.13707,-113.13708 62.48389,0 113.137082,50.6532 113.137082,113.13708 z"
       sodipodi:ry="113.13708"
       sodipodi:rx="113.13708"
       sodipodi:cy="316.97113"
       sodipodi:cx="-191.92899"
       id="path3004-0-8"
       style="fill:none;stroke:#000000;stroke-width:3.14269638;stroke-linecap:square;stroke-linejoin:round;stroke-miterlimit:4;stroke-opacity:1;stroke-dasharray:none"
       sodipodi:type="arc" />
    <path
       transform="matrix(0,-0.06263742,0.06263742,0,1589.7139,-158.28291)"
       d="m -78.791908,316.97113 c 0,62.48388 -50.653192,113.13708 -113.137082,113.13708 -62.48388,0 -113.13707,-50.6532 -113.13707,-113.13708 0,-62.48388 50.65319,-113.13708 113.13707,-113.13708 62.48389,0 113.137082,50.6532 113.137082,113.13708 z"
       sodipodi:ry="113.13708"
       sodipodi:rx="113.13708"
       sodipodi:cy="316.97113"
       sodipodi:cx="-191.92899"
       id="path3004-9-7-8"
       style="fill:none;stroke:#000000;stroke-width:5.65685415;stroke-linecap:square;stroke-linejoin:round;stroke-miterlimit:4;stroke-opacity:1;stroke-dasharray:none"
       sodipodi:type="arc" />
    <rect
       transform="matrix(0,-1,1,0,0,0)"
       y="1600.7622"
       x="212.69797"
       height="19.133858"
       width="8.8582678"
       id="rect3030-5-3"
       style="fill:none;stroke:#000000;stroke-width:0.35433072;stroke-linecap:square;stroke-linejoin:round;stroke-miterlimit:4;stroke-opacity:1;stroke-dasharray:none" />
    <path
       transform="matrix(0,-0.66315791,0.66315791,0,1390.4165,-335.48663)"
       d="m -231.42857,377.00504 c 0,3.74764 -3.03806,6.78571 -6.78571,6.78571 -3.74765,0 -6.78571,-3.03807 -6.78571,-6.78571 0,-3.74765 3.03806,-6.78572 6.78571,-6.78572 3.74765,0 6.78571,3.03807 6.78571,6.78572 z"
       sodipodi:ry="6.7857141"
       sodipodi:rx="6.7857141"
       sodipodi:cy="377.00504"
       sodipodi:cx="-238.21428"
       id="path3038-5-7-3"
       style="fill:none;stroke:#000000;stroke-width:0.5343082;stroke-linecap:square;stroke-linejoin:round;stroke-miterlimit:4;stroke-opacity:1;stroke-dasharray:none"
       sodipodi:type="arc" />
    <path
       transform="matrix(0,-0.66315791,0.66315791,0,1328.692,-335.48663)"
       d="m -231.42857,377.00504 c 0,3.74764 -3.03806,6.78571 -6.78571,6.78571 -3.74765,0 -6.78571,-3.03807 -6.78571,-6.78571 0,-3.74765 3.03806,-6.78572 6.78571,-6.78572 3.74765,0 6.78571,3.03807 6.78571,6.78572 z"
       sodipodi:ry="6.7857141"
       sodipodi:rx="6.7857141"
       sodipodi:cy="377.00504"
       sodipodi:cx="-238.21428"
       id="path3038-9-3-2-8"
       style="fill:none;stroke:#000000;stroke-width:0.5343082;stroke-linecap:square;stroke-linejoin:round;stroke-miterlimit:4;stroke-opacity:1;stroke-dasharray:none"
       sodipodi:type="arc" />
  </g>
  <path
     inkscape:connector-curvature="0"
     style="fill:none;stroke:#000000;stroke-width:0.35433072;stroke-miterlimit:4;stroke-dasharray:none"
     d="m 1704.2977,135.96378 0,10.625 -16.375,0 0,1.6875 0.1563,0 0,77.78125 -0.1563,0 0,0.0312 0.375,0 0,1.4375 5,0 0,10.28125 19.5938,0 0,-10.28125 5,0 0,-1.4375 0,-0.34375 0,-62.71875 10.0937,0 0,63.0625 0,1.3125 5,0 0,10.28125 14.6563,0 0,-10.28125 5,0 0,-1.09375 0.094,0 0,-79.71875 -26.875,0 0,-10.625 -21.5625,0 z"
     id="path7149" />
  <path
     style="fill:none;stroke:#000000"
     d="m 2103.1627,-193.79249 0,50.53125 -0.4375,0 0,12.25 10.6562,0 0,20.9375 -10.6562,0 0,22.999999 10.6562,0 0,20.9375 -10.6562,0 0,23 10.6562,0 0,20.9375 -10.6562,0 0,22.99999968 10.6562,0 0,20.93750032 -10.6562,0 0,22.84375 0,53.46875 304.0625,0 0,-53.46875 0,-22.84375 -10.625,0 0,-20.93750032 10.625,0 0,-22.99999968 -10.625,0 0,-20.9375 10.625,0 0,-23 -10.625,0 0,-20.9375 10.625,0 0,-22.999999 -10.625,0 0,-20.9375 10.625,0 0,-1.84375 0.3437,0 0,-60.9375 -34.2187,0 0,10.625 -33.125,0 0,-10.625 -34.375,0 0,10.625 -33.0937,0 0,-10.625 -34.375,0 0,10.625 -33.0938,0 0,-10.625 -34.375,0 0,10.625 -33.0938,0 0,-10.625 -34.2187,0 z m 26.9063,227.749999 20.9374,0 0,10.625 -20.9374,0 0,-10.625 z m 228.4374,0 20.9376,0 0,10.625 -20.9376,0 0,-10.625 z"
     id="path3776"
     inkscape:connector-curvature="0" />
  <path
     inkscape:connector-curvature="0"
     style="fill:none;stroke:#000000;stroke-width:0.35433072;stroke-miterlimit:4;stroke-dasharray:none"
     d="m 1818.3453,133.94353 0,10.625 16.375,0 0,1.6875 -0.1563,0 0,77.78125 0.1563,0 0,0.0312 -0.375,0 0,1.4375 -5,0 0,10.28126 -19.5938,0 0,-10.28126 -5,0 0,-1.4375 0,-0.34375 0,-62.71875 -10.0937,0 0,63.0625 0,1.3125 -5,0 0,10.28126 -14.6563,0 0,-10.28126 -5,0 0,-1.09375 -0.094,0 0,-79.71875 26.875,0 0,-10.625 21.5625,0 z"
     id="path7149-3-4" />
  <path
     inkscape:connector-curvature="0"
     id="path3589-4"
     d="m 1846.8681,286.18872 10.625,0 0,11.93746 29.4063,0 0,-0.031 20.9375,0 0,0.031 29.4062,0 0,-11.93746 10.625,0 0,-21.5625 -10.625,0 0,-22.375 10.625,0 0,-21.5625 -10.625,0 0,-22.375 10.625,0 0,-21.56247 -10.625,0 0,-22.375 10.625,0 0,-21.5625 -10.625,0 0,-11.84375 -79.75,0 0,11.84375 -10.625,0 0,21.5625 10.625,0 0,22.375 -10.625,0 0,21.56247 10.625,0 0,22.375 -10.625,0 0,21.5625 10.625,0 0,22.375 -10.625,0 0,21.5625 z"
     style="fill:none;stroke:#000000" />
  <path
     sodipodi:type="arc"
     style="fill:none;stroke:#000000;stroke-width:3.14269638;stroke-linecap:square;stroke-linejoin:round;stroke-miterlimit:4;stroke-opacity:1;stroke-dasharray:none"
     id="path3004-0-8-4"
     sodipodi:cx="-191.92899"
     sodipodi:cy="316.97113"
     sodipodi:rx="113.13708"
     sodipodi:ry="113.13708"
     d="m -78.791908,316.97113 a 113.13708,113.13708 0 1 1 -226.274152,0 113.13708,113.13708 0 1 1 226.274152,0 z"
     transform="matrix(0,-0.11274735,0.11274735,0,1861.6304,237.79842)" />
  <path
     sodipodi:type="arc"
     style="fill:none;stroke:#000000;stroke-width:5.65685415;stroke-linecap:square;stroke-linejoin:round;stroke-miterlimit:4;stroke-opacity:1;stroke-dasharray:none"
     id="path3004-9-7-8-5"
     sodipodi:cx="-191.92899"
     sodipodi:cy="316.97113"
     sodipodi:rx="113.13708"
     sodipodi:ry="113.13708"
     d="m -78.791908,316.97113 a 113.13708,113.13708 0 1 1 -226.274152,0 113.13708,113.13708 0 1 1 226.274152,0 z"
     transform="matrix(0,-0.06263742,0.06263742,0,1877.5138,206.91592)" />
  <rect
     style="fill:none;stroke:#000000;stroke-width:0.35433072;stroke-linecap:square;stroke-linejoin:round;stroke-miterlimit:4;stroke-opacity:1;stroke-dasharray:none"
     id="rect3030-5-3-7"
     width="8.8582678"
     height="19.133858"
     x="-152.50089"
     y="1888.5621"
     transform="matrix(0,-1,1,0,0,0)" />
  <path
     sodipodi:type="arc"
     style="fill:none;stroke:#000000;stroke-width:0.5343082;stroke-linecap:square;stroke-linejoin:round;stroke-miterlimit:4;stroke-opacity:1;stroke-dasharray:none"
     id="path3038-5-7-3-7"
     sodipodi:cx="-238.21428"
     sodipodi:cy="377.00504"
     sodipodi:rx="6.7857141"
     sodipodi:ry="6.7857141"
     d="m -231.42857,377.00504 a 6.7857141,6.7857141 0 1 1 -13.57142,0 6.7857141,6.7857141 0 1 1 13.57142,0 z"
     transform="matrix(0,-0.66315791,0.66315791,0,1678.2164,29.712223)" />
  <path
     sodipodi:type="arc"
     style="fill:none;stroke:#000000;stroke-width:0.5343082;stroke-linecap:square;stroke-linejoin:round;stroke-miterlimit:4;stroke-opacity:1;stroke-dasharray:none"
     id="path3038-9-3-2-8-5"
     sodipodi:cx="-238.21428"
     sodipodi:cy="377.00504"
     sodipodi:rx="6.7857141"
     sodipodi:ry="6.7857141"
     d="m -231.42857,377.00504 a 6.7857141,6.7857141 0 1 1 -13.57142,0 6.7857141,6.7857141 0 1 1 13.57142,0 z"
     transform="matrix(0,-0.66315791,0.66315791,0,1616.492,29.712223)" />
  <g
     inkscape:label="newlayer"
     inkscape:groupmode="layer"
     id="g3343" />
  <g
     id="g3444"
     inkscape:groupmode="layer"
     inkscape:label="newlayer" />
  <g
     inkscape:label="newlayer"
     inkscape:groupmode="layer"
     id="g3546" />
  <path
     sodipodi:nodetypes="ccccccccccccccccccccccccccccccccccccccccccccccccccccccccccccc"
     inkscape:connector-curvature="0"
     d="m 2672.6897,302.39605 10.6299,0 0,-35.11417 -10.6299,0 0,-54.64961 10.6299,0 0,-35.11417 -10.6299,0 0,-43.86024 37.0453,0 0,-10.62992 35.752,0 0,10.62992 36.8858,0 0,-10.62992 35.752,0 0,10.62992 36.8858,0 0,-10.62992 35.7519,0 0,10.62992 36.8859,0 0,-10.62992 35.7519,0 0,10.62992 36.8859,0 0,-10.62992 35.7519,0 0,10.62992 37.0453,0 0,43.86024 -10.6299,0 0,35.11417 10.6299,0 0,54.64961 -10.6299,0 0,35.11417 10.6299,0 0,43.86024 -37.0453,0 0,10.62992 -35.7519,0 0,-10.62992 -36.8859,0 0,10.62992 -35.7519,0 0,-10.62992 -36.8859,0 0,10.62992 -35.7519,0 0,-10.62992 -36.8858,0 0,10.62992 -35.752,0 0,-10.62992 -36.8858,0 0,10.62992 -35.752,0 0,-10.62992 -37.0453,0 z"
     style="fill:none;stroke:#000000"
     id="path3554" />
  <path
     inkscape:connector-curvature="0"
     id="path3562"
     d="m 2800.5425,-362.34073 0,10.625 -43.5313,0 0,32.90625 -10.625,0 0,35.75 10.625,0 0,43.40625 -10.625,0 0,35.75 10.625,0 0,43.375 -10.625,0 0,35.75001 10.625,0 0,43.374997 -10.625,0 0,35.75 10.625,0 0,43.3750005 -10.625,0 0,35.7499995 10.625,0 0,32.937496 43.5313,0 0,10.625 35.75,0 0,-10.625 54.0312,0 0,10.625 35.75,0 0,-10.625 43.5313,0 0,-32.937496 10.625,0 0,-35.7499995 0,-43.3750005 0,-35.75 0,-43.374997 0,-35.75001 0,-43.375 0,-35.75 0,-43.40625 0,-35.75 -10.625,0 0,-32.90625 -43.5313,0 0,-10.625 -35.75,0 0,10.625 -54.0312,0 0,-10.625 -35.75,0 z"
     style="fill:none;stroke:#000000" />
  <path
     style="fill:none;stroke:#000000"
     d="M 1680.7188 -328 L 1680.7188 -284.15625 L 1691.3438 -284.15625 L 1691.3438 -249.0625 L 1728.5938 -249.0625 L 1728.5938 -235.0625 L 1739.0938 -235.0625 L 1739.0938 -214.125 L 1728.5938 -214.125 L 1728.5938 -191.125 L 1739.0938 -191.125 L 1739.0938 -170.1875 L 1728.5938 -170.1875 L 1728.5938 -147.1875 L 1739.0938 -147.1875 L 1739.0938 -126.25 L 1728.5938 -126.25 L 1728.5938 -103.25 L 1739.0938 -103.25 L 1739.0938 -82.3125 L 1728.5938 -82.3125 L 1728.5938 33.0625 L 1691.3438 33.0625 L 1691.3438 67.5 L 1680.7188 67.5 L 1680.7188 111.375 L 1718.0938 111.375 L 1718.0938 100.75 L 1753.2188 100.75 L 1753.2188 111.375 L 1790.7188 111.375 L 1790.7188 100.75 L 1825.8438 100.75 L 1825.8438 111.375 L 1863.375 111.375 L 1863.375 100.75 L 1898.4688 100.75 L 1898.4688 111.375 L 1936 111.375 L 1936 100.75 L 1971.125 100.75 L 1971.125 111.375 L 2008.6562 111.375 L 2008.6562 100.75 L 2043.75 100.75 L 2043.75 111.375 L 2081.125 111.375 L 2081.125 67.5 L 2070.5 67.5 L 2070.5 32.71875 L 2033.5938 32.71875 L 2033.5938 -82.3125 L 2023.4688 -82.3125 L 2023.4688 -103.25 L 2033.5938 -103.25 L 2033.5938 -126.25 L 2023.4688 -126.25 L 2023.4688 -147.1875 L 2033.5938 -147.1875 L 2033.5938 -170.1875 L 2023.4688 -170.1875 L 2023.4688 -191.125 L 2033.5938 -191.125 L 2033.5938 -214.125 L 2023.4688 -214.125 L 2023.4688 -235.0625 L 2033.5938 -235.0625 L 2033.5938 -249.4375 L 2070.5 -249.4375 L 2070.5 -284.15625 L 2081.125 -284.15625 L 2081.125 -328 L 2043.75 -328 L 2043.75 -317.375 L 2008.6562 -317.375 L 2008.6562 -328 L 1971.125 -328 L 1971.125 -317.375 L 1936 -317.375 L 1936 -328 L 1898.4688 -328 L 1898.4688 -317.375 L 1863.375 -317.375 L 1863.375 -328 L 1825.8438 -328 L 1825.8438 -317.375 L 1790.7188 -317.375 L 1790.7188 -328 L 1753.2188 -328 L 1753.2188 -317.375 L 1718.0938 -317.375 L 1718.0938 -328 L 1680.7188 -328 z "
     id="path3570" />
  <path
     inkscape:connector-curvature="0"
     id="path3691"
     d="m 1744.1038,-69.909346 0,10.25 19.9688,0 0,-10.25 -19.9688,0 z"
     style="fill:none;stroke:#000000;stroke-width:0.35433066;stroke-linecap:square;stroke-linejoin:round;stroke-miterlimit:4;stroke-opacity:1;stroke-dasharray:none" />
  <path
     inkscape:connector-curvature="0"
     id="path3689"
     d="m 1784.1663,-70.096846 0,10.625 14.875,0 0,-10.625 -14.875,0 z"
     style="fill:none;stroke:#000000;stroke-width:0.35433066;stroke-linecap:square;stroke-linejoin:round;stroke-miterlimit:4;stroke-opacity:1;stroke-dasharray:none" />
  <path
     inkscape:connector-curvature="0"
     id="path3685"
     d="m 1962.8699,-70.096846 0,10.625 14.875,0 0,-10.625 -14.875,0 z"
     style="fill:none;stroke:#000000;stroke-width:0.35433072;stroke-linecap:square;stroke-linejoin:round;stroke-miterlimit:4;stroke-opacity:1;stroke-dasharray:none" />
  <path
     inkscape:connector-curvature="0"
     id="path3683"
     d="m 1997.8386,-70.815596 0,12.0625 19.5938,0 0,-12.0625 -19.5938,0 z"
     style="fill:none;stroke:#000000;stroke-width:0.35433072;stroke-linecap:square;stroke-linejoin:round;stroke-miterlimit:4;stroke-opacity:1;stroke-dasharray:none" />
  <g
     id="g3832"
     inkscape:groupmode="layer"
     inkscape:label="newlayer" />
  <path
     style="fill:none;stroke:#000000;stroke-width:0.99999994"
     d="m 2105.7358,-315.59664 0,61 0,37.6875 23.9375,0 0,10.625 33.7188,0 0,-10.625 33.8124,0 0,10.625 33.7188,0 0,-10.625 33.8125,0 0,10.625 33.75,0 0,-10.625 33.7813,0 0,10.625 33.75,0 0,-10.625 23.9062,0 0,-37.6875 0,-61 -284.1875,0 z"
     id="path3848"
     inkscape:connector-curvature="0" />
  <path
     id="path5502-1"
     style="fill:none;stroke:#000000;stroke-width:0.35433072;stroke-linecap:square;stroke-linejoin:round;stroke-miterlimit:4;stroke-opacity:1"
     d="m 2346.0445,53.53937 c 0,3.131059 -2.5382,5.669291 -5.6693,5.669291 -3.1311,0 -5.6693,-2.538232 -5.6693,-5.669291 0,-3.131067 2.5382,-5.669291 5.6693,-5.669291 3.1311,0 5.6693,2.538224 5.6693,5.669291 z m -170.8937,0 c 0,3.131059 -2.5382,5.669291 -5.6693,5.669291 -3.131,0 -5.6693,-2.538232 -5.6693,-5.669291 0,-3.131067 2.5383,-5.669291 5.6693,-5.669291 3.1311,0 5.6693,2.538224 5.6693,5.669291 z"
     inkscape:connector-curvature="0" />
  <g
     id="g5541" />
  <g
     id="g5608"
     transform="translate(-9.2831897e-8,-1.6422843)">
    <g
       id="g4281-9-7-5"
       transform="translate(950.40664,-883.77109)">
      <path
         sodipodi:type="arc"
         style="fill:none;stroke:#000000;stroke-width:1.32364821;stroke-linecap:square;stroke-linejoin:round;stroke-miterlimit:4;stroke-opacity:1;stroke-dasharray:none"
         id="path4259-9-9-1"
         sodipodi:cx="291.93408"
         sodipodi:cy="1259.4435"
         sodipodi:rx="19.192898"
         sodipodi:ry="19.192898"
         d="m 311.12698,1259.4435 c 0,10.5999 -8.59295,19.1929 -19.1929,19.1929 -10.59994,0 -19.1929,-8.593 -19.1929,-19.1929 0,-10.6 8.59296,-19.1929 19.1929,-19.1929 10.59995,0 19.1929,8.5929 19.1929,19.1929 z"
         transform="matrix(0.26769252,0,0,0.26769252,816.93362,321.38199)" />
      <path
         sodipodi:type="arc"
         style="fill:none;stroke:#000000;stroke-width:1.32364821;stroke-linecap:square;stroke-linejoin:round;stroke-miterlimit:4;stroke-opacity:1;stroke-dasharray:none"
         id="path4259-2-8-2-7"
         sodipodi:cx="291.93408"
         sodipodi:cy="1259.4435"
         sodipodi:rx="19.192898"
         sodipodi:ry="19.192898"
         d="m 311.12698,1259.4435 c 0,10.5999 -8.59295,19.1929 -19.1929,19.1929 -10.59994,0 -19.1929,-8.593 -19.1929,-19.1929 0,-10.6 8.59296,-19.1929 19.1929,-19.1929 10.59995,0 19.1929,8.5929 19.1929,19.1929 z"
         transform="matrix(0.26769252,0,0,0.26769252,887.79976,321.38199)" />
    </g>
    <g
       id="g4281-9-7-5-1"
       transform="translate(950.40664,-646.62052)">
      <path
         sodipodi:type="arc"
         style="fill:none;stroke:#000000;stroke-width:1.32364821;stroke-linecap:square;stroke-linejoin:round;stroke-miterlimit:4;stroke-opacity:1;stroke-dasharray:none"
         id="path4259-9-9-1-6"
         sodipodi:cx="291.93408"
         sodipodi:cy="1259.4435"
         sodipodi:rx="19.192898"
         sodipodi:ry="19.192898"
         d="m 311.12698,1259.4435 c 0,10.5999 -8.59295,19.1929 -19.1929,19.1929 -10.59994,0 -19.1929,-8.593 -19.1929,-19.1929 0,-10.6 8.59296,-19.1929 19.1929,-19.1929 10.59995,0 19.1929,8.5929 19.1929,19.1929 z"
         transform="matrix(0.26769252,0,0,0.26769252,816.93362,321.38199)" />
      <path
         sodipodi:type="arc"
         style="fill:none;stroke:#000000;stroke-width:1.32364821;stroke-linecap:square;stroke-linejoin:round;stroke-miterlimit:4;stroke-opacity:1;stroke-dasharray:none"
         id="path4259-2-8-2-7-4"
         sodipodi:cx="291.93408"
         sodipodi:cy="1259.4435"
         sodipodi:rx="19.192898"
         sodipodi:ry="19.192898"
         d="m 311.12698,1259.4435 c 0,10.5999 -8.59295,19.1929 -19.1929,19.1929 -10.59994,0 -19.1929,-8.593 -19.1929,-19.1929 0,-10.6 8.59296,-19.1929 19.1929,-19.1929 10.59995,0 19.1929,8.5929 19.1929,19.1929 z"
         transform="matrix(0.26769252,0,0,0.26769252,887.79976,321.38199)" />
    </g>
  </g>
</svg>
