  0
SECTION
  2
HEADER
  9
$ACADVER
  1
AC1014
  9
$HANDSEED
  5
FFFF
  9
$MEASUREMENT
 70
     1
  0
ENDSEC
  0
SECTION
  2
TABLES
  0
TABLE
  2
VPORT
  5
8
330
0
100
AcDbSymbolTable
 70
     4
  0
VPORT
  5
2E
330
8
100
AcDbSymbolTableRecord
100
AcDbViewportTableRecord
  2
*ACTIVE
 70
     0
 10
0.0
 20
0.0
 11
1.0
 21
1.0
 12
210.0
 22
148.5
 13
0.0
 23
0.0
 14
10.0
 24
10.0
 15
10.0
 25
10.0
 16
0.0
 26
0.0
 36
1.0
 17
0.0
 27
0.0
 37
0.0
 40
341.0
 41
1.24
 42
50.0
 43
0.0
 44
0.0
 50
0.0
 51
0.0
 71
     0
 72
   100
 73
     1
 74
     3
 75
     0
 76
     0
 77
     0
 78
     0
  0
ENDTAB
  0
TABLE
  2
LTYPE
  5
5
330
0
100
AcDbSymbolTable
 70
     1
  0
LTYPE
  5
14
330
5
100
AcDbSymbolTableRecord
100
AcDbLinetypeTableRecord
  2
BYBLOCK
 70
     0
  3

 72
    65
 73
     0
 40
0.0
  0
LTYPE
  5
15
330
5
100
AcDbSymbolTableRecord
100
AcDbLinetypeTableRecord
  2
BYLAYER
 70
     0
  3

 72
    65
 73
     0
 40
0.0
  0
LTYPE
  5
16
330
5
100
AcDbSymbolTableRecord
100
AcDbLinetypeTableRecord
  2
CONTINUOUS
 70
     0
  3
Solid line
 72
    65
 73
     0
 40
0.0
  0
ENDTAB
  0
TABLE
  2
LAYER
  5
2
100
AcDbSymbolTable
 70
1
  0
LAYER
  5
50
100
AcDbSymbolTableRecord
100
AcDbLayerTableRecord
  2
0
 70
0
  6
CONTINUOUS
  0
ENDTAB
  0
TABLE
  2
STYLE
  5
3
330
0
100
AcDbSymbolTable
 70
     1
  0
STYLE
  5
11
330
3
100
AcDbSymbolTableRecord
100
AcDbTextStyleTableRecord
  2
STANDARD
 70
     0
 40
0.0
 41
1.0
 50
0.0
 71
     0
 42
2.5
  3
txt
  4

  0
ENDTAB
  0
TABLE
  2
VIEW
  5
6
330
0
100
AcDbSymbolTable
 70
     0
  0
ENDTAB
  0
TABLE
  2
UCS
  5
7
330
0
100
AcDbSymbolTable
 70
     0
  0
ENDTAB
  0
TABLE
  2
APPID
  5
9
330
0
100
AcDbSymbolTable
 70
     2
  0
APPID
  5
12
330
9
100
AcDbSymbolTableRecord
100
AcDbRegAppTableRecord
  2
ACAD
 70
     0
  0
ENDTAB
  0
TABLE
  2
DIMSTYLE
  5
A
330
0
100
AcDbSymbolTable
 70
     1
  0
DIMSTYLE
105
27
330
A
100
AcDbSymbolTableRecord
100
AcDbDimStyleTableRecord
  2
ISO-25
 70
     0
  3

  4

  5

  6

  7

 40
1.0
 41
2.5
 42
0.625
 43
3.75
 44
1.25
 45
0.0
 46
0.0
 47
0.0
 48
0.0
140
2.5
141
2.5
142
0.0
143
0.03937007874016
144
1.0
145
0.0
146
1.0
147
0.625
 71
     0
 72
     0
 73
     0
 74
     0
 75
     0
 76
     0
 77
     1
 78
     8
170
     0
171
     3
172
     1
173
     0
174
     0
175
     0
176
     0
177
     0
178
     0
270
     2
271
     2
272
     2
273
     2
274
     3
340
11
275
     0
280
     0
281
     0
282
     0
283
     0
284
     8
285
     0
286
     0
287
     3
288
     0
  0
ENDTAB
  0
TABLE
  2
BLOCK_RECORD
  5
1
330
0
100
AcDbSymbolTable
 70
     1
  0
BLOCK_RECORD
  5
1F
330
1
100
AcDbSymbolTableRecord
100
AcDbBlockTableRecord
  2
*MODEL_SPACE
  0
BLOCK_RECORD
  5
1B
330
1
100
AcDbSymbolTableRecord
100
AcDbBlockTableRecord
  2
*PAPER_SPACE
  0
ENDTAB
  0
ENDSEC
  0
SECTION
  2
BLOCKS
  0
BLOCK
  5
20
330
1F
100
AcDbEntity
  8
0
100
AcDbBlockBegin
  2
*MODEL_SPACE
 70
     0
 10
0.0
 20
0.0
 30
0.0
  3
*MODEL_SPACE
  1

  0
ENDBLK
  5
21
330
1F
100
AcDbEntity
  8
0
100
AcDbBlockEnd
  0
BLOCK
  5
1C
330
1B
100
AcDbEntity
 67
     1
  8
0
100
AcDbBlockBegin
  2
*PAPER_SPACE
  1

  0
ENDBLK
  5
1D
330
1B
100
AcDbEntity
 67
     1
  8
0
100
AcDbBlockEnd
  0
ENDSEC
  0
SECTION
  2
ENTITIES
  0
SPLINE
  5
100
100
AcDbEntity
  8
0
 62
7
100
AcDbSpline
 70
0
 71
3
 72
16
 73
12
 74
10
 40
0.000000
 40
0.000000
 40
0.000000
 40
0.000000
 40
2.950094
 40
5.857931
 40
8.808024
 40
11.758118
 40
14.665955
 40
17.616048
 40
20.566142
 40
23.473979
 40
26.424072
 40
26.424072
 40
26.424072
 40
26.424072
 10
150.564636
 20
208.158210
 30
0.0
 10
150.464293
 20
207.169753
 30
0.0
 10
150.265044
 20
205.206998
 30
0.0
 10
148.710143
 20
202.612578
 30
0.0
 10
146.432461
 20
200.683534
 30
0.0
 10
143.610960
 20
199.660367
 30
0.0
 10
140.618315
 20
199.660367
 30
0.0
 10
137.796814
 20
200.683534
 30
0.0
 10
135.519132
 20
202.612578
 30
0.0
 10
133.964231
 20
205.206998
 30
0.0
 10
133.764982
 20
207.169753
 30
0.0
 10
133.664639
 20
208.158210
 30
0.0
 11
150.564636
 21
208.158210
 31
0.0
 11
150.051868
 21
205.253021
 31
0.0
 11
148.599156
 21
202.734064
 31
0.0
 11
146.341389
 21
200.835237
 31
0.0
 11
143.568556
 21
199.828040
 31
0.0
 11
140.660719
 21
199.828040
 31
0.0
 11
137.887886
 21
200.835237
 31
0.0
 11
135.630119
 21
202.734064
 31
0.0
 11
134.177407
 21
205.253021
 31
0.0
 11
133.664639
 21
208.158210
 31
0.0
  0
SPLINE
  5
101
100
AcDbEntity
  8
0
 62
7
100
AcDbSpline
 70
0
 71
3
 72
16
 73
12
 74
10
 40
0.000000
 40
0.000000
 40
0.000000
 40
0.000000
 40
2.950094
 40
5.857931
 40
8.808024
 40
11.758118
 40
14.665955
 40
17.616048
 40
20.566142
 40
23.473979
 40
26.424072
 40
26.424072
 40
26.424072
 40
26.424072
 10
133.664639
 20
208.158210
 30
0.0
 10
133.764982
 20
209.146666
 30
0.0
 10
133.964231
 20
211.109421
 30
0.0
 10
135.519132
 20
213.703841
 30
0.0
 10
137.796814
 20
215.632885
 30
0.0
 10
140.618315
 20
216.656052
 30
0.0
 10
143.610960
 20
216.656052
 30
0.0
 10
146.432461
 20
215.632885
 30
0.0
 10
148.710143
 20
213.703841
 30
0.0
 10
150.265044
 20
211.109421
 30
0.0
 10
150.464293
 20
209.146666
 30
0.0
 10
150.564636
 20
208.158210
 30
0.0
 11
133.664639
 21
208.158210
 31
0.0
 11
134.177407
 21
211.063398
 31
0.0
 11
135.630119
 21
213.582355
 31
0.0
 11
137.887886
 21
215.481182
 31
0.0
 11
140.660719
 21
216.488379
 31
0.0
 11
143.568556
 21
216.488379
 31
0.0
 11
146.341389
 21
215.481182
 31
0.0
 11
148.599156
 21
213.582355
 31
0.0
 11
150.051868
 21
211.063398
 31
0.0
 11
150.564636
 21
208.158210
 31
0.0
  0
SPLINE
  5
102
100
AcDbEntity
  8
0
 62
7
100
AcDbSpline
 70
0
 71
3
 72
16
 73
12
 74
10
 40
0.000000
 40
0.000000
 40
0.000000
 40
0.000000
 40
2.950094
 40
5.857931
 40
8.808024
 40
11.758118
 40
14.665955
 40
17.616048
 40
20.566142
 40
23.473979
 40
26.424072
 40
26.424072
 40
26.424072
 40
26.424072
 10
176.564635
 20
208.158210
 30
0.0
 10
176.464292
 20
207.169753
 30
0.0
 10
176.265043
 20
205.206998
 30
0.0
 10
174.710142
 20
202.612578
 30
0.0
 10
172.432460
 20
200.683534
 30
0.0
 10
169.610958
 20
199.660367
 30
0.0
 10
166.618314
 20
199.660367
 30
0.0
 10
163.796813
 20
200.683534
 30
0.0
 10
161.519131
 20
202.612578
 30
0.0
 10
159.964230
 20
205.206998
 30
0.0
 10
159.764981
 20
207.169753
 30
0.0
 10
159.664638
 20
208.158210
 30
0.0
 11
176.564635
 21
208.158210
 31
0.0
 11
176.051867
 21
205.253021
 31
0.0
 11
174.599155
 21
202.734064
 31
0.0
 11
172.341388
 21
200.835237
 31
0.0
 11
169.568555
 21
199.828040
 31
0.0
 11
166.660718
 21
199.828040
 31
0.0
 11
163.887884
 21
200.835237
 31
0.0
 11
161.630118
 21
202.734064
 31
0.0
 11
160.177405
 21
205.253021
 31
0.0
 11
159.664638
 21
208.158210
 31
0.0
  0
LWPOLYLINE
  5
103
100
AcDbEntity
  8
0
 62
7
100
AcDbPolyline
 90
2
 70
0
 10
150.564636
 20
208.158210
 30
0.0
 10
150.564636
 20
208.158210
 30
0.0
  0
LWPOLYLINE
  5
104
100
AcDbEntity
  8
0
 62
7
100
AcDbPolyline
 90
2
 70
0
 10
176.564635
 20
208.158210
 30
0.0
 10
176.564635
 20
208.158210
 30
0.0
  0
SPLINE
  5
105
100
AcDbEntity
  8
0
 62
7
100
AcDbSpline
 70
0
 71
3
 72
16
 73
12
 74
10
 40
0.000000
 40
0.000000
 40
0.000000
 40
0.000000
 40
2.950094
 40
5.857931
 40
8.808024
 40
11.758118
 40
14.665955
 40
17.616048
 40
20.566142
 40
23.473979
 40
26.424072
 40
26.424072
 40
26.424072
 40
26.424072
 10
159.664638
 20
208.158210
 30
0.0
 10
159.764981
 20
209.146666
 30
0.0
 10
159.964230
 20
211.109421
 30
0.0
 10
161.519131
 20
213.703841
 30
0.0
 10
163.796813
 20
215.632885
 30
0.0
 10
166.618314
 20
216.656052
 30
0.0
 10
169.610958
 20
216.656052
 30
0.0
 10
172.432460
 20
215.632885
 30
0.0
 10
174.710142
 20
213.703841
 30
0.0
 10
176.265043
 20
211.109421
 30
0.0
 10
176.464292
 20
209.146666
 30
0.0
 10
176.564635
 20
208.158210
 30
0.0
 11
159.664638
 21
208.158210
 31
0.0
 11
160.177405
 21
211.063398
 31
0.0
 11
161.630118
 21
213.582355
 31
0.0
 11
163.887884
 21
215.481182
 31
0.0
 11
166.660718
 21
216.488379
 31
0.0
 11
169.568555
 21
216.488379
 31
0.0
 11
172.341388
 21
215.481182
 31
0.0
 11
174.599155
 21
213.582355
 31
0.0
 11
176.051867
 21
211.063398
 31
0.0
 11
176.564635
 21
208.158210
 31
0.0
  0
LWPOLYLINE
  5
106
100
AcDbEntity
  8
0
 62
7
100
AcDbPolyline
 90
42
 70
0
 10
75.336005
 20
52.027808
 30
0.0
 10
78.334616
 20
52.027808
 30
0.0
 10
78.334616
 20
48.658780
 30
0.0
 10
86.633727
 20
48.658780
 30
0.0
 10
86.633727
 20
48.667586
 30
0.0
 10
92.542755
 20
48.667586
 30
0.0
 10
92.542755
 20
48.658780
 30
0.0
 10
100.841838
 20
48.658780
 30
0.0
 10
100.841838
 20
52.027808
 30
0.0
 10
103.840449
 20
52.027808
 30
0.0
 10
103.840449
 20
58.113226
 30
0.0
 10
100.841838
 20
58.113226
 30
0.0
 10
100.841838
 20
64.427948
 30
0.0
 10
103.840449
 20
64.427948
 30
0.0
 10
103.840449
 20
70.513365
 30
0.0
 10
100.841838
 20
70.513365
 30
0.0
 10
100.841838
 20
76.828087
 30
0.0
 10
103.840449
 20
76.828087
 30
0.0
 10
103.840449
 20
82.913504
 30
0.0
 10
100.841838
 20
82.913504
 30
0.0
 10
100.841838
 20
89.228226
 30
0.0
 10
103.840449
 20
89.228226
 30
0.0
 10
103.840449
 20
95.313642
 30
0.0
 10
100.841838
 20
95.313642
 30
0.0
 10
100.841838
 20
98.656212
 30
0.0
 10
78.334616
 20
98.656212
 30
0.0
 10
78.334616
 20
95.313642
 30
0.0
 10
75.336005
 20
95.313642
 30
0.0
 10
75.336005
 20
89.228226
 30
0.0
 10
78.334616
 20
89.228226
 30
0.0
 10
78.334616
 20
82.913504
 30
0.0
 10
75.336005
 20
82.913504
 30
0.0
 10
75.336005
 20
76.828087
 30
0.0
 10
78.334616
 20
76.828087
 30
0.0
 10
78.334616
 20
70.513365
 30
0.0
 10
75.336005
 20
70.513365
 30
0.0
 10
75.336005
 20
64.427948
 30
0.0
 10
78.334616
 20
64.427948
 30
0.0
 10
78.334616
 20
58.113226
 30
0.0
 10
75.336005
 20
58.113226
 30
0.0
 10
75.336005
 20
52.027808
 30
0.0
 10
75.336005
 20
52.027808
 30
0.0
  0
SPLINE
  5
107
100
AcDbEntity
  8
0
 62
7
100
AcDbSpline
 70
0
 71
3
 72
19
 73
15
 74
13
 40
0.000000
 40
0.000000
 40
0.000000
 40
0.000000
 40
1.882293
 40
3.708758
 40
5.591051
 40
7.473343
 40
9.299808
 40
11.182101
 40
13.064394
 40
14.890858
 40
16.773151
 40
18.655444
 40
20.481909
 40
22.364202
 40
22.364202
 40
22.364202
 40
22.364202
 10
89.588243
 20
63.177501
 30
0.0
 10
90.222863
 20
63.078555
 30
0.0
 10
91.473282
 20
62.883599
 30
0.0
 10
92.849891
 20
61.450379
 30
0.0
 10
93.359965
 20
59.580805
 30
0.0
 10
92.849891
 20
57.691602
 30
0.0
 10
91.473282
 20
56.316103
 30
0.0
 10
89.588243
 20
55.805651
 30
0.0
 10
87.703203
 20
56.316103
 30
0.0
 10
86.326595
 20
57.691602
 30
0.0
 10
85.816520
 20
59.580805
 30
0.0
 10
86.326595
 20
61.450379
 30
0.0
 10
87.703203
 20
62.883599
 30
0.0
 10
88.953622
 20
63.078555
 30
0.0
 10
89.588243
 20
63.177501
 30
0.0
 11
89.588243
 21
63.177501
 31
0.0
 11
91.405232
 21
62.685995
 31
0.0
 11
92.696737
 21
61.394490
 31
0.0
 11
93.188243
 21
59.577500
 31
0.0
 11
92.696737
 21
57.760512
 31
0.0
 11
91.405232
 21
56.469006
 31
0.0
 11
89.588243
 21
55.977501
 31
0.0
 11
87.771254
 21
56.469006
 31
0.0
 11
86.479748
 21
57.760512
 31
0.0
 11
85.988242
 21
59.577500
 31
0.0
 11
86.479748
 21
61.394490
 31
0.0
 11
87.771254
 21
62.685995
 31
0.0
 11
89.588243
 21
63.177501
 31
0.0
  0
LWPOLYLINE
  5
108
100
AcDbEntity
  8
0
 62
7
100
AcDbPolyline
 90
2
 70
0
 10
89.588243
 20
63.177501
 30
0.0
 10
89.588243
 20
63.177501
 30
0.0
  0
LWPOLYLINE
  5
109
100
AcDbEntity
  8
0
 62
7
100
AcDbPolyline
 90
2
 70
0
 10
89.588242
 20
73.007500
 30
0.0
 10
89.588242
 20
73.007500
 30
0.0
  0
SPLINE
  5
10a
100
AcDbEntity
  8
0
 62
7
100
AcDbSpline
 70
0
 71
3
 72
19
 73
15
 74
13
 40
0.000000
 40
0.000000
 40
0.000000
 40
0.000000
 40
1.045718
 40
2.060421
 40
3.106139
 40
4.151858
 40
5.166560
 40
6.212279
 40
7.257997
 40
8.272700
 40
9.318418
 40
10.364136
 40
11.378839
 40
12.424557
 40
12.424557
 40
12.424557
 40
12.424557
 10
89.588242
 20
73.007500
 30
0.0
 10
89.940809
 20
72.952531
 30
0.0
 10
90.635486
 20
72.844222
 30
0.0
 10
91.400269
 20
72.047988
 30
0.0
 10
91.683644
 20
71.009336
 30
0.0
 10
91.400269
 20
69.959779
 30
0.0
 10
90.635486
 20
69.195613
 30
0.0
 10
89.588242
 20
68.912028
 30
0.0
 10
88.540998
 20
69.195613
 30
0.0
 10
87.776216
 20
69.959779
 30
0.0
 10
87.492841
 20
71.009336
 30
0.0
 10
87.776216
 20
72.047988
 30
0.0
 10
88.540998
 20
72.844222
 30
0.0
 10
89.235675
 20
72.952531
 30
0.0
 10
89.588242
 20
73.007500
 30
0.0
 11
89.588242
 21
73.007500
 31
0.0
 11
90.597681
 21
72.734442
 31
0.0
 11
91.315184
 21
72.016938
 31
0.0
 11
91.588242
 21
71.007500
 31
0.0
 11
91.315184
 21
69.998062
 31
0.0
 11
90.597681
 21
69.280559
 31
0.0
 11
89.588242
 21
69.007500
 31
0.0
 11
88.578804
 21
69.280559
 31
0.0
 11
87.861301
 21
69.998062
 31
0.0
 11
87.588242
 21
71.007500
 31
0.0
 11
87.861301
 21
72.016938
 31
0.0
 11
88.578804
 21
72.734442
 31
0.0
 11
89.588242
 21
73.007500
 31
0.0
  0
LWPOLYLINE
  5
10b
100
AcDbEntity
  8
0
 62
7
100
AcDbPolyline
 90
5
 70
0
 10
87.103006
 20
89.757497
 30
0.0
 10
87.103006
 20
92.257497
 30
0.0
 10
92.503006
 20
92.257497
 30
0.0
 10
92.503006
 20
89.757497
 30
0.0
 10
87.103006
 20
89.757497
 30
0.0
  0
SPLINE
  5
10c
100
AcDbEntity
  8
0
 62
7
100
AcDbSpline
 70
0
 71
3
 72
19
 73
15
 74
13
 40
0.000000
 40
0.000000
 40
0.000000
 40
0.000000
 40
0.664030
 40
1.308366
 40
1.972397
 40
2.636428
 40
3.280764
 40
3.944794
 40
4.608826
 40
5.253162
 40
5.917193
 40
6.581224
 40
7.225561
 40
7.889592
 40
7.889592
 40
7.889592
 40
7.889592
 10
98.298247
 20
81.097500
 30
0.0
 10
98.522127
 20
81.062595
 30
0.0
 10
98.963246
 20
80.993819
 30
0.0
 10
99.448883
 20
80.488211
 30
0.0
 10
99.628826
 20
79.828667
 30
0.0
 10
99.448883
 20
79.162198
 30
0.0
 10
98.963246
 20
78.676953
 30
0.0
 10
98.298246
 20
78.496877
 30
0.0
 10
97.633247
 20
78.676953
 30
0.0
 10
97.147609
 20
79.162198
 30
0.0
 10
96.967666
 20
79.828667
 30
0.0
 10
97.147609
 20
80.488211
 30
0.0
 10
97.633247
 20
80.993819
 30
0.0
 10
98.074367
 20
81.062595
 30
0.0
 10
98.298247
 20
81.097500
 30
0.0
 11
98.298247
 21
81.097500
 31
0.0
 11
98.939239
 21
80.924109
 31
0.0
 11
99.394854
 21
80.468495
 31
0.0
 11
99.568246
 21
79.827501
 31
0.0
 11
99.394854
 21
79.186508
 31
0.0
 11
98.939239
 21
78.730894
 31
0.0
 11
98.298247
 21
78.557502
 31
0.0
 11
97.657253
 21
78.730894
 31
0.0
 11
97.201638
 21
79.186508
 31
0.0
 11
97.028246
 21
79.827501
 31
0.0
 11
97.201638
 21
80.468495
 31
0.0
 11
97.657253
 21
80.924109
 31
0.0
 11
98.298247
 21
81.097500
 31
0.0
  0
LWPOLYLINE
  5
10d
100
AcDbEntity
  8
0
 62
7
100
AcDbPolyline
 90
2
 70
0
 10
98.298247
 20
81.097500
 30
0.0
 10
98.298247
 20
81.097500
 30
0.0
  0
LWPOLYLINE
  5
10e
100
AcDbEntity
  8
0
 62
7
100
AcDbPolyline
 90
2
 70
0
 10
80.878221
 20
81.097500
 30
0.0
 10
80.878221
 20
81.097500
 30
0.0
  0
LWPOLYLINE
  5
10f
100
AcDbEntity
  8
0
 62
7
100
AcDbPolyline
 90
33
 70
0
 10
1.717854
 20
94.559076
 30
0.0
 10
1.717854
 20
91.560465
 30
0.0
 10
-2.903534
 20
91.560465
 30
0.0
 10
-2.903534
 20
91.084215
 30
0.0
 10
-2.859423
 20
91.084215
 30
0.0
 10
-2.859423
 20
69.132618
 30
0.0
 10
-2.903534
 20
69.132618
 30
0.0
 10
-2.903534
 20
69.123813
 30
0.0
 10
-2.797701
 20
69.123813
 30
0.0
 10
-2.797701
 20
68.718118
 30
0.0
 10
-1.386590
 20
68.718118
 30
0.0
 10
-1.386590
 20
65.816521
 30
0.0
 10
4.143216
 20
65.816521
 30
0.0
 10
4.143216
 20
68.718118
 30
0.0
 10
5.554327
 20
68.718118
 30
0.0
 10
5.554327
 20
69.123813
 30
0.0
 10
5.554327
 20
69.220826
 30
0.0
 10
5.554327
 20
86.921451
 30
0.0
 10
8.402993
 20
86.921451
 30
0.0
 10
8.402993
 20
69.123813
 30
0.0
 10
8.402993
 20
68.753396
 30
0.0
 10
9.814104
 20
68.753396
 30
0.0
 10
9.814104
 20
65.851799
 30
0.0
 10
13.950438
 20
65.851799
 30
0.0
 10
13.950438
 20
68.753396
 30
0.0
 10
15.361549
 20
68.753396
 30
0.0
 10
15.361549
 20
69.062076
 30
0.0
 10
15.388078
 20
69.062076
 30
0.0
 10
15.388078
 20
91.560479
 30
0.0
 10
7.803356
 20
91.560479
 30
0.0
 10
7.803356
 20
94.559090
 30
0.0
 10
1.717939
 20
94.559090
 30
0.0
 10
1.717854
 20
94.559076
 30
0.0
  0
LWPOLYLINE
  5
110
100
AcDbEntity
  8
0
 62
7
100
AcDbPolyline
 90
60
 70
0
 10
114.286422
 20
187.623623
 30
0.0
 10
114.286422
 20
173.362582
 30
0.0
 10
114.162950
 20
173.362582
 30
0.0
 10
114.162950
 20
169.905360
 30
0.0
 10
117.170367
 20
169.905360
 30
0.0
 10
117.170367
 20
163.996332
 30
0.0
 10
114.162950
 20
163.996332
 30
0.0
 10
114.162950
 20
157.505221
 30
0.0
 10
117.170367
 20
157.505221
 30
0.0
 10
117.170367
 20
151.596193
 30
0.0
 10
114.162950
 20
151.596193
 30
0.0
 10
114.162950
 20
145.105082
 30
0.0
 10
117.170367
 20
145.105082
 30
0.0
 10
117.170367
 20
139.196054
 30
0.0
 10
114.162950
 20
139.196054
 30
0.0
 10
114.162950
 20
132.704943
 30
0.0
 10
117.170367
 20
132.704943
 30
0.0
 10
117.170367
 20
126.795915
 30
0.0
 10
114.162950
 20
126.795915
 30
0.0
 10
114.162950
 20
120.348901
 30
0.0
 10
114.162950
 20
105.258832
 30
0.0
 10
199.976145
 20
105.258832
 30
0.0
 10
199.976145
 20
120.348901
 30
0.0
 10
199.976145
 20
126.795915
 30
0.0
 10
196.977533
 20
126.795915
 30
0.0
 10
196.977533
 20
132.704943
 30
0.0
 10
199.976145
 20
132.704943
 30
0.0
 10
199.976145
 20
139.196054
 30
0.0
 10
196.977533
 20
139.196054
 30
0.0
 10
196.977533
 20
145.105082
 30
0.0
 10
199.976145
 20
145.105082
 30
0.0
 10
199.976145
 20
151.596193
 30
0.0
 10
196.977533
 20
151.596193
 30
0.0
 10
196.977533
 20
157.505221
 30
0.0
 10
199.976145
 20
157.505221
 30
0.0
 10
199.976145
 20
163.996332
 30
0.0
 10
196.977533
 20
163.996332
 30
0.0
 10
196.977533
 20
169.905360
 30
0.0
 10
199.976145
 20
169.905360
 30
0.0
 10
199.976145
 20
170.425707
 30
0.0
 10
200.073144
 20
170.425707
 30
0.0
 10
200.073144
 20
187.623623
 30
0.0
 10
190.415867
 20
187.623623
 30
0.0
 10
190.415867
 20
184.625012
 30
0.0
 10
181.067256
 20
184.625012
 30
0.0
 10
181.067256
 20
187.623623
 30
0.0
 10
171.365867
 20
187.623623
 30
0.0
 10
171.365867
 20
184.625012
 30
0.0
 10
162.026089
 20
184.625012
 30
0.0
 10
162.026089
 20
187.623623
 30
0.0
 10
152.324700
 20
187.623623
 30
0.0
 10
152.324700
 20
184.625012
 30
0.0
 10
142.984895
 20
184.625012
 30
0.0
 10
142.984895
 20
187.623623
 30
0.0
 10
133.283506
 20
187.623623
 30
0.0
 10
133.283506
 20
184.625012
 30
0.0
 10
123.943700
 20
184.625012
 30
0.0
 10
123.943700
 20
187.623623
 30
0.0
 10
114.286422
 20
187.623623
 30
0.0
 10
114.286422
 20
187.623623
 30
0.0
  0
LWPOLYLINE
  5
111
100
AcDbEntity
  8
0
 62
7
100
AcDbPolyline
 90
6
 70
0
 10
121.879978
 20
123.347512
 30
0.0
 10
127.788978
 20
123.347512
 30
0.0
 10
127.788978
 20
120.348901
 30
0.0
 10
121.879978
 20
120.348901
 30
0.0
 10
121.879978
 20
123.347512
 30
0.0
 10
121.879978
 20
123.347512
 30
0.0
  0
LWPOLYLINE
  5
112
100
AcDbEntity
  8
0
 62
7
100
AcDbPolyline
 90
6
 70
0
 10
186.350089
 20
123.347512
 30
0.0
 10
192.259145
 20
123.347512
 30
0.0
 10
192.259145
 20
120.348901
 30
0.0
 10
186.350089
 20
120.348901
 30
0.0
 10
186.350089
 20
123.347512
 30
0.0
 10
186.350089
 20
123.347512
 30
0.0
  0
LWPOLYLINE
  5
113
100
AcDbEntity
  8
0
 62
7
100
AcDbPolyline
 90
33
 70
0
 10
33.904623
 20
95.129236
 30
0.0
 10
33.904623
 20
92.130625
 30
0.0
 10
38.526012
 20
92.130625
 30
0.0
 10
38.526012
 20
91.654375
 30
0.0
 10
38.481900
 20
91.654375
 30
0.0
 10
38.481900
 20
69.702777
 30
0.0
 10
38.526012
 20
69.702777
 30
0.0
 10
38.526012
 20
69.693972
 30
0.0
 10
38.420178
 20
69.693972
 30
0.0
 10
38.420178
 20
69.288278
 30
0.0
 10
37.009067
 20
69.288278
 30
0.0
 10
37.009067
 20
66.386677
 30
0.0
 10
31.479261
 20
66.386677
 30
0.0
 10
31.479261
 20
69.288278
 30
0.0
 10
30.068150
 20
69.288278
 30
0.0
 10
30.068150
 20
69.693972
 30
0.0
 10
30.068150
 20
69.790986
 30
0.0
 10
30.068150
 20
87.491611
 30
0.0
 10
27.219483
 20
87.491611
 30
0.0
 10
27.219483
 20
69.693972
 30
0.0
 10
27.219483
 20
69.323555
 30
0.0
 10
25.808372
 20
69.323555
 30
0.0
 10
25.808372
 20
66.421955
 30
0.0
 10
21.672038
 20
66.421955
 30
0.0
 10
21.672038
 20
69.323555
 30
0.0
 10
20.260927
 20
69.323555
 30
0.0
 10
20.260927
 20
69.632236
 30
0.0
 10
20.234398
 20
69.632236
 30
0.0
 10
20.234398
 20
92.130639
 30
0.0
 10
27.819120
 20
92.130639
 30
0.0
 10
27.819120
 20
95.129250
 30
0.0
 10
33.904538
 20
95.129250
 30
0.0
 10
33.904623
 20
95.129236
 30
0.0
  0
SPLINE
  5
114
100
AcDbEntity
  8
0
 62
7
100
AcDbSpline
 70
0
 71
3
 72
19
 73
15
 74
13
 40
0.000000
 40
0.000000
 40
0.000000
 40
0.000000
 40
0.664030
 40
1.308366
 40
1.972397
 40
2.636428
 40
3.280764
 40
3.944794
 40
4.608826
 40
5.253162
 40
5.917193
 40
6.581224
 40
7.225561
 40
7.889592
 40
7.889592
 40
7.889592
 40
7.889592
 10
80.878221
 20
81.097500
 30
0.0
 10
81.102101
 20
81.062595
 30
0.0
 10
81.543220
 20
80.993819
 30
0.0
 10
82.028857
 20
80.488211
 30
0.0
 10
82.208800
 20
79.828667
 30
0.0
 10
82.028857
 20
79.162198
 30
0.0
 10
81.543220
 20
78.676953
 30
0.0
 10
80.878221
 20
78.496877
 30
0.0
 10
80.213221
 20
78.676953
 30
0.0
 10
79.727583
 20
79.162198
 30
0.0
 10
79.547640
 20
79.828667
 30
0.0
 10
79.727583
 20
80.488211
 30
0.0
 10
80.213221
 20
80.993819
 30
0.0
 10
80.654341
 20
81.062595
 30
0.0
 10
80.878221
 20
81.097500
 30
0.0
 11
80.878221
 21
81.097500
 31
0.0
 11
81.519214
 21
80.924109
 31
0.0
 11
81.974828
 21
80.468495
 31
0.0
 11
82.148220
 21
79.827501
 31
0.0
 11
81.974828
 21
79.186508
 31
0.0
 11
81.519214
 21
78.730894
 31
0.0
 11
80.878221
 21
78.557502
 31
0.0
 11
80.237227
 21
78.730894
 31
0.0
 11
79.781612
 21
79.186508
 31
0.0
 11
79.608220
 21
79.827501
 31
0.0
 11
79.781612
 21
80.468495
 31
0.0
 11
80.237227
 21
80.924109
 31
0.0
 11
80.878221
 21
81.097500
 31
0.0
  0
LWPOLYLINE
  5
115
100
AcDbEntity
  8
0
 62
7
100
AcDbPolyline
 90
42
 70
0
 10
41.954391
 20
52.162260
 30
0.0
 10
44.953002
 20
52.162260
 30
0.0
 10
44.953002
 20
48.793243
 30
0.0
 10
53.252113
 20
48.793243
 30
0.0
 10
53.252113
 20
48.801992
 30
0.0
 10
59.161141
 20
48.801992
 30
0.0
 10
59.161141
 20
48.793243
 30
0.0
 10
67.460224
 20
48.793243
 30
0.0
 10
67.460224
 20
52.162260
 30
0.0
 10
70.458835
 20
52.162260
 30
0.0
 10
70.458835
 20
58.247676
 30
0.0
 10
67.460224
 20
58.247676
 30
0.0
 10
67.460224
 20
64.562399
 30
0.0
 10
70.458835
 20
64.562399
 30
0.0
 10
70.458835
 20
70.647815
 30
0.0
 10
67.460224
 20
70.647815
 30
0.0
 10
67.460224
 20
76.962538
 30
0.0
 10
70.458835
 20
76.962538
 30
0.0
 10
70.458835
 20
83.047946
 30
0.0
 10
67.460224
 20
83.047946
 30
0.0
 10
67.460224
 20
89.362668
 30
0.0
 10
70.458835
 20
89.362668
 30
0.0
 10
70.458835
 20
95.448085
 30
0.0
 10
67.460224
 20
95.448085
 30
0.0
 10
67.460224
 20
98.790654
 30
0.0
 10
44.953002
 20
98.790654
 30
0.0
 10
44.953002
 20
95.448085
 30
0.0
 10
41.954391
 20
95.448085
 30
0.0
 10
41.954391
 20
89.362668
 30
0.0
 10
44.953002
 20
89.362668
 30
0.0
 10
44.953002
 20
83.047946
 30
0.0
 10
41.954391
 20
83.047946
 30
0.0
 10
41.954391
 20
76.962538
 30
0.0
 10
44.953002
 20
76.962538
 30
0.0
 10
44.953002
 20
70.647815
 30
0.0
 10
41.954391
 20
70.647815
 30
0.0
 10
41.954391
 20
64.562399
 30
0.0
 10
44.953002
 20
64.562399
 30
0.0
 10
44.953002
 20
58.247676
 30
0.0
 10
41.954391
 20
58.247676
 30
0.0
 10
41.954391
 20
52.162260
 30
0.0
 10
41.954391
 20
52.162260
 30
0.0
  0
SPLINE
  5
116
100
AcDbEntity
  8
0
 62
7
100
AcDbSpline
 70
0
 71
3
 72
25
 73
21
 74
19
 40
0.000000
 40
0.000000
 40
0.000000
 40
0.000000
 40
1.256483
 40
2.494979
 40
3.751462
 40
5.007945
 40
6.246441
 40
7.502924
 40
8.759407
 40
9.997902
 40
11.254386
 40
12.510869
 40
13.749364
 40
15.005848
 40
16.262331
 40
17.500826
 40
18.757310
 40
20.013793
 40
21.252288
 40
22.508771
 40
22.508771
 40
22.508771
 40
22.508771
 10
56.206600
 20
63.311934
 30
0.0
 10
56.627576
 20
63.269019
 30
0.0
 10
57.463502
 20
63.183802
 30
0.0
 10
58.568286
 20
62.521238
 30
0.0
 10
59.389689
 20
61.550950
 30
0.0
 10
59.825345
 20
60.349334
 30
0.0
 10
59.825345
 20
59.074259
 30
0.0
 10
59.389689
 20
57.874322
 30
0.0
 10
58.568286
 20
56.897331
 30
0.0
 10
57.463502
 20
56.259674
 30
0.0
 10
56.206600
 20
56.037532
 30
0.0
 10
54.949699
 20
56.259674
 30
0.0
 10
53.844915
 20
56.897331
 30
0.0
 10
53.023511
 20
57.874322
 30
0.0
 10
52.587856
 20
59.074259
 30
0.0
 10
52.587856
 20
60.349334
 30
0.0
 10
53.023511
 20
61.550950
 30
0.0
 10
53.844915
 20
62.521238
 30
0.0
 10
54.949699
 20
63.183802
 30
0.0
 10
55.785624
 20
63.269019
 30
0.0
 10
56.206600
 20
63.311934
 30
0.0
 11
56.206600
 21
63.311934
 31
0.0
 11
57.443870
 21
63.093044
 31
0.0
 11
58.516548
 21
62.473986
 31
0.0
 11
59.325090
 21
61.512211
 31
0.0
 11
59.753950
 21
60.331182
 31
0.0
 11
59.753950
 21
59.092687
 31
0.0
 11
59.325090
 21
57.911658
 31
0.0
 11
58.516548
 21
56.949883
 31
0.0
 11
57.443870
 21
56.330825
 31
0.0
 11
56.206600
 21
56.111934
 31
0.0
 11
54.969330
 21
56.330825
 31
0.0
 11
53.896652
 21
56.949883
 31
0.0
 11
53.088111
 21
57.911658
 31
0.0
 11
52.659250
 21
59.092687
 31
0.0
 11
52.659250
 21
60.331182
 31
0.0
 11
53.088111
 21
61.512211
 31
0.0
 11
53.896652
 21
62.473986
 31
0.0
 11
54.969330
 21
63.093044
 31
0.0
 11
56.206600
 21
63.311934
 31
0.0
  0
LWPOLYLINE
  5
117
100
AcDbEntity
  8
0
 62
7
100
AcDbPolyline
 90
2
 70
0
 10
56.206600
 20
63.311934
 30
0.0
 10
56.206600
 20
63.311934
 30
0.0
  0
LWPOLYLINE
  5
118
100
AcDbEntity
  8
0
 62
7
100
AcDbPolyline
 90
2
 70
0
 10
56.206600
 20
73.141948
 30
0.0
 10
56.206600
 20
73.141948
 30
0.0
  0
SPLINE
  5
119
100
AcDbEntity
  8
0
 62
7
100
AcDbSpline
 70
0
 71
3
 72
25
 73
21
 74
19
 40
0.000000
 40
0.000000
 40
0.000000
 40
0.000000
 40
0.698046
 40
1.386099
 40
2.084146
 40
2.782192
 40
3.470245
 40
4.168291
 40
4.866338
 40
5.554391
 40
6.252437
 40
6.950483
 40
7.638536
 40
8.336582
 40
9.034629
 40
9.722682
 40
10.420728
 40
11.118774
 40
11.806827
 40
12.504874
 40
12.504874
 40
12.504874
 40
12.504874
 10
56.206600
 20
73.141948
 30
0.0
 10
56.440476
 20
73.118106
 30
0.0
 10
56.904878
 20
73.070763
 30
0.0
 10
57.518647
 20
72.702672
 30
0.0
 10
57.974983
 20
72.163624
 30
0.0
 10
58.217014
 20
71.496059
 30
0.0
 10
58.217014
 20
70.787684
 30
0.0
 10
57.974983
 20
70.121052
 30
0.0
 10
57.518647
 20
69.578279
 30
0.0
 10
56.904878
 20
69.224025
 30
0.0
 10
56.206600
 20
69.100613
 30
0.0
 10
55.508321
 20
69.224025
 30
0.0
 10
54.894552
 20
69.578279
 30
0.0
 10
54.438217
 20
70.121052
 30
0.0
 10
54.196186
 20
70.787684
 30
0.0
 10
54.196186
 20
71.496059
 30
0.0
 10
54.438217
 20
72.163624
 30
0.0
 10
54.894552
 20
72.702672
 30
0.0
 10
55.508321
 20
73.070763
 30
0.0
 10
55.972724
 20
73.118106
 30
0.0
 10
56.206600
 20
73.141948
 30
0.0
 11
56.206600
 21
73.141948
 31
0.0
 11
56.893972
 21
73.020342
 31
0.0
 11
57.489905
 21
72.676421
 31
0.0
 11
57.939094
 21
72.142102
 31
0.0
 11
58.177350
 21
71.485974
 31
0.0
 11
58.177350
 21
70.797921
 31
0.0
 11
57.939094
 21
70.141794
 31
0.0
 11
57.489905
 21
69.607475
 31
0.0
 11
56.893972
 21
69.263554
 31
0.0
 11
56.206600
 21
69.141948
 31
0.0
 11
55.519228
 21
69.263554
 31
0.0
 11
54.923295
 21
69.607475
 31
0.0
 11
54.474106
 21
70.141794
 31
0.0
 11
54.235850
 21
70.797921
 31
0.0
 11
54.235850
 21
71.485974
 31
0.0
 11
54.474106
 21
72.142102
 31
0.0
 11
54.923295
 21
72.676421
 31
0.0
 11
55.519228
 21
73.020342
 31
0.0
 11
56.206600
 21
73.141948
 31
0.0
  0
LWPOLYLINE
  5
11a
100
AcDbEntity
  8
0
 62
7
100
AcDbPolyline
 90
5
 70
0
 10
53.721373
 20
89.891936
 30
0.0
 10
53.721373
 20
92.391936
 30
0.0
 10
59.121372
 20
92.391936
 30
0.0
 10
59.121372
 20
89.891936
 30
0.0
 10
53.721373
 20
89.891936
 30
0.0
  0
SPLINE
  5
11b
100
AcDbEntity
  8
0
 62
7
100
AcDbSpline
 70
0
 71
3
 72
25
 73
21
 74
19
 40
0.000000
 40
0.000000
 40
0.000000
 40
0.000000
 40
0.443494
 40
0.880633
 40
1.324127
 40
1.767621
 40
2.204760
 40
2.648254
 40
3.091749
 40
3.528888
 40
3.972382
 40
4.415876
 40
4.853015
 40
5.296509
 40
5.740003
 40
6.177142
 40
6.620636
 40
7.064130
 40
7.501269
 40
7.944763
 40
7.944763
 40
7.944763
 40
7.944763
 10
64.916603
 20
81.231943
 30
0.0
 10
65.065206
 20
81.216910
 30
0.0
 10
65.360283
 20
81.187061
 30
0.0
 10
65.750371
 20
80.953408
 30
0.0
 10
66.040429
 20
80.611034
 30
0.0
 10
66.194281
 20
80.186926
 30
0.0
 10
66.194281
 20
79.736864
 30
0.0
 10
66.040429
 20
79.313344
 30
0.0
 10
65.750371
 20
78.968622
 30
0.0
 10
65.360283
 20
78.743693
 30
0.0
 10
64.916603
 20
78.665883
 30
0.0
 10
64.472924
 20
78.743693
 30
0.0
 10
64.082835
 20
78.968622
 30
0.0
 10
63.792778
 20
79.313344
 30
0.0
 10
63.638926
 20
79.736864
 30
0.0
 10
63.638926
 20
80.186926
 30
0.0
 10
63.792778
 20
80.611034
 30
0.0
 10
64.082835
 20
80.953408
 30
0.0
 10
64.472924
 20
81.187061
 30
0.0
 10
64.768000
 20
81.216910
 30
0.0
 10
64.916603
 20
81.231943
 30
0.0
 11
64.916603
 21
81.231943
 31
0.0
 11
65.353373
 21
81.155005
 31
0.0
 11
65.732106
 21
80.936713
 31
0.0
 11
66.017619
 21
80.597346
 31
0.0
 11
66.169068
 21
80.180513
 31
0.0
 11
66.169068
 21
79.743374
 31
0.0
 11
66.017619
 21
79.326540
 31
0.0
 11
65.732106
 21
78.987174
 31
0.0
 11
65.353373
 21
78.768882
 31
0.0
 11
64.916603
 21
78.691944
 31
0.0
 11
64.479834
 21
78.768882
 31
0.0
 11
64.101100
 21
78.987174
 31
0.0
 11
63.815588
 21
79.326540
 31
0.0
 11
63.664138
 21
79.743374
 31
0.0
 11
63.664138
 21
80.180513
 31
0.0
 11
63.815588
 21
80.597346
 31
0.0
 11
64.101100
 21
80.936713
 31
0.0
 11
64.479834
 21
81.155005
 31
0.0
 11
64.916603
 21
81.231943
 31
0.0
  0
LWPOLYLINE
  5
11c
100
AcDbEntity
  8
0
 62
7
100
AcDbPolyline
 90
2
 70
0
 10
64.916603
 20
81.231943
 30
0.0
 10
64.916603
 20
81.231943
 30
0.0
  0
LWPOLYLINE
  5
11d
100
AcDbEntity
  8
0
 62
7
100
AcDbPolyline
 90
2
 70
0
 10
47.496606
 20
81.231943
 30
0.0
 10
47.496606
 20
81.231943
 30
0.0
  0
LWPOLYLINE
  5
11e
100
AcDbEntity
  8
0
 62
7
100
AcDbPolyline
 90
94
 70
0
 10
-4.936635
 20
225.499965
 30
0.0
 10
-4.936635
 20
213.126285
 30
0.0
 10
-1.938024
 20
213.126285
 30
0.0
 10
-1.938024
 20
203.222049
 30
0.0
 10
8.574754
 20
203.222049
 30
0.0
 10
8.574754
 20
199.270937
 30
0.0
 10
11.538087
 20
199.270937
 30
0.0
 10
11.538087
 20
193.361910
 30
0.0
 10
8.574754
 20
193.361910
 30
0.0
 10
8.574754
 20
186.870799
 30
0.0
 10
11.538087
 20
186.870799
 30
0.0
 10
11.538087
 20
180.961771
 30
0.0
 10
8.574754
 20
180.961771
 30
0.0
 10
8.574754
 20
174.470660
 30
0.0
 10
11.538087
 20
174.470660
 30
0.0
 10
11.538087
 20
168.561632
 30
0.0
 10
8.574754
 20
168.561632
 30
0.0
 10
8.574754
 20
162.070521
 30
0.0
 10
11.538087
 20
162.070521
 30
0.0
 10
11.538087
 20
156.161493
 30
0.0
 10
8.574754
 20
156.161493
 30
0.0
 10
8.574754
 20
123.600104
 30
0.0
 10
-1.938024
 20
123.600104
 30
0.0
 10
-1.938024
 20
113.881076
 30
0.0
 10
-4.936635
 20
113.881076
 30
0.0
 10
-4.936635
 20
101.498576
 30
0.0
 10
5.611420
 20
101.498576
 30
0.0
 10
5.611420
 20
104.497187
 30
0.0
 10
15.524476
 20
104.497187
 30
0.0
 10
15.524476
 20
101.498576
 30
0.0
 10
26.107809
 20
101.498576
 30
0.0
 10
26.107809
 20
104.497187
 30
0.0
 10
36.020866
 20
104.497187
 30
0.0
 10
36.020866
 20
101.498576
 30
0.0
 10
46.613005
 20
101.498576
 30
0.0
 10
46.613005
 20
104.497187
 30
0.0
 10
56.517255
 20
104.497187
 30
0.0
 10
56.517255
 20
101.498576
 30
0.0
 10
67.109394
 20
101.498576
 30
0.0
 10
67.109394
 20
104.497187
 30
0.0
 10
77.022449
 20
104.497187
 30
0.0
 10
77.022449
 20
101.498576
 30
0.0
 10
87.614588
 20
101.498576
 30
0.0
 10
87.614588
 20
104.497187
 30
0.0
 10
97.518838
 20
104.497187
 30
0.0
 10
97.518838
 20
101.498576
 30
0.0
 10
108.066894
 20
101.498576
 30
0.0
 10
108.066894
 20
113.881076
 30
0.0
 10
105.068283
 20
113.881076
 30
0.0
 10
105.068283
 20
123.697118
 30
0.0
 10
94.652533
 20
123.697118
 30
0.0
 10
94.652533
 20
156.161493
 30
0.0
 10
91.795033
 20
156.161493
 30
0.0
 10
91.795033
 20
162.070521
 30
0.0
 10
94.652533
 20
162.070521
 30
0.0
 10
94.652533
 20
168.561632
 30
0.0
 10
91.795033
 20
168.561632
 30
0.0
 10
91.795033
 20
174.470660
 30
0.0
 10
94.652533
 20
174.470660
 30
0.0
 10
94.652533
 20
180.961771
 30
0.0
 10
91.795033
 20
180.961771
 30
0.0
 10
91.795033
 20
186.870799
 30
0.0
 10
94.652533
 20
186.870799
 30
0.0
 10
94.652533
 20
193.361910
 30
0.0
 10
91.795033
 20
193.361910
 30
0.0
 10
91.795033
 20
199.270937
 30
0.0
 10
94.652533
 20
199.270937
 30
0.0
 10
94.652533
 20
203.327882
 30
0.0
 10
105.068283
 20
203.327882
 30
0.0
 10
105.068283
 20
213.126285
 30
0.0
 10
108.066894
 20
213.126285
 30
0.0
 10
108.066894
 20
225.499965
 30
0.0
 10
97.518838
 20
225.499965
 30
0.0
 10
97.518838
 20
222.501354
 30
0.0
 10
87.614588
 20
222.501354
 30
0.0
 10
87.614588
 20
225.499965
 30
0.0
 10
77.022449
 20
225.499965
 30
0.0
 10
77.022449
 20
222.501354
 30
0.0
 10
67.109394
 20
222.501354
 30
0.0
 10
67.109394
 20
225.499965
 30
0.0
 10
56.517255
 20
225.499965
 30
0.0
 10
56.517255
 20
222.501354
 30
0.0
 10
46.613005
 20
222.501354
 30
0.0
 10
46.613005
 20
225.499965
 30
0.0
 10
36.020866
 20
225.499965
 30
0.0
 10
36.020866
 20
222.501354
 30
0.0
 10
26.107809
 20
222.501354
 30
0.0
 10
26.107809
 20
225.499965
 30
0.0
 10
15.524476
 20
225.499965
 30
0.0
 10
15.524476
 20
222.501354
 30
0.0
 10
5.611420
 20
222.501354
 30
0.0
 10
5.611420
 20
225.499965
 30
0.0
 10
-4.936635
 20
225.499965
 30
0.0
 10
-4.936635
 20
225.499965
 30
0.0
  0
LWPOLYLINE
  5
11f
100
AcDbEntity
  8
0
 62
7
100
AcDbPolyline
 90
6
 70
0
 10
12.952020
 20
152.661048
 30
0.0
 10
12.952020
 20
149.768271
 30
0.0
 10
18.587660
 20
149.768271
 30
0.0
 10
18.587660
 20
152.661048
 30
0.0
 10
12.952020
 20
152.661048
 30
0.0
 10
12.952020
 20
152.661048
 30
0.0
  0
LWPOLYLINE
  5
120
100
AcDbEntity
  8
0
 62
7
100
AcDbPolyline
 90
6
 70
0
 10
24.258548
 20
152.713965
 30
0.0
 10
24.258548
 20
149.715354
 30
0.0
 10
28.456605
 20
149.715354
 30
0.0
 10
28.456605
 20
152.713965
 30
0.0
 10
24.258548
 20
152.713965
 30
0.0
 10
24.258548
 20
152.713965
 30
0.0
  0
LWPOLYLINE
  5
121
100
AcDbEntity
  8
0
 62
7
100
AcDbPolyline
 90
6
 70
0
 10
74.692677
 20
152.713965
 30
0.0
 10
74.692677
 20
149.715354
 30
0.0
 10
78.890732
 20
149.715354
 30
0.0
 10
78.890732
 20
152.713965
 30
0.0
 10
74.692677
 20
152.713965
 30
0.0
 10
74.692677
 20
152.713965
 30
0.0
  0
LWPOLYLINE
  5
122
100
AcDbEntity
  8
0
 62
7
100
AcDbPolyline
 90
6
 70
0
 10
84.561621
 20
152.916812
 30
0.0
 10
84.561621
 20
149.512507
 30
0.0
 10
90.091427
 20
149.512507
 30
0.0
 10
90.091427
 20
152.916812
 30
0.0
 10
84.561621
 20
152.916812
 30
0.0
 10
84.561621
 20
152.916812
 30
0.0
  0
SPLINE
  5
123
100
AcDbEntity
  8
0
 62
7
100
AcDbSpline
 70
0
 71
3
 72
25
 73
21
 74
19
 40
0.000000
 40
0.000000
 40
0.000000
 40
0.000000
 40
0.443494
 40
0.880633
 40
1.324127
 40
1.767621
 40
2.204760
 40
2.648254
 40
3.091749
 40
3.528888
 40
3.972382
 40
4.415876
 40
4.853015
 40
5.296509
 40
5.740003
 40
6.177142
 40
6.620636
 40
7.064130
 40
7.501269
 40
7.944763
 40
7.944763
 40
7.944763
 40
7.944763
 10
47.496606
 20
81.231943
 30
0.0
 10
47.645209
 20
81.216910
 30
0.0
 10
47.940286
 20
81.187061
 30
0.0
 10
48.330374
 20
80.953408
 30
0.0
 10
48.620431
 20
80.611034
 30
0.0
 10
48.774283
 20
80.186926
 30
0.0
 10
48.774283
 20
79.736864
 30
0.0
 10
48.620431
 20
79.313344
 30
0.0
 10
48.330374
 20
78.968622
 30
0.0
 10
47.940286
 20
78.743693
 30
0.0
 10
47.496606
 20
78.665883
 30
0.0
 10
47.052926
 20
78.743693
 30
0.0
 10
46.662838
 20
78.968622
 30
0.0
 10
46.372780
 20
79.313344
 30
0.0
 10
46.218928
 20
79.736864
 30
0.0
 10
46.218928
 20
80.186926
 30
0.0
 10
46.372780
 20
80.611034
 30
0.0
 10
46.662838
 20
80.953408
 30
0.0
 10
47.052926
 20
81.187061
 30
0.0
 10
47.348003
 20
81.216910
 30
0.0
 10
47.496606
 20
81.231943
 30
0.0
 11
47.496606
 21
81.231943
 31
0.0
 11
47.933376
 21
81.155005
 31
0.0
 11
48.312109
 21
80.936713
 31
0.0
 11
48.597622
 21
80.597346
 31
0.0
 11
48.749071
 21
80.180513
 31
0.0
 11
48.749071
 21
79.743374
 31
0.0
 11
48.597622
 21
79.326540
 31
0.0
 11
48.312109
 21
78.987174
 31
0.0
 11
47.933376
 21
78.768882
 31
0.0
 11
47.496606
 21
78.691944
 31
0.0
 11
47.059836
 21
78.768882
 31
0.0
 11
46.681103
 21
78.987174
 31
0.0
 11
46.395590
 21
79.326540
 31
0.0
 11
46.244141
 21
79.743374
 31
0.0
 11
46.244141
 21
80.180513
 31
0.0
 11
46.395590
 21
80.597346
 31
0.0
 11
46.681103
 21
80.936713
 31
0.0
 11
47.059836
 21
81.155005
 31
0.0
 11
47.496606
 21
81.231943
 31
0.0
  0
LWPOLYLINE
  5
124
100
AcDbEntity
  8
0
 62
7
100
AcDbPolyline
 90
24
 70
0
 10
115.012608
 20
221.999461
 30
0.0
 10
115.012608
 20
204.783906
 30
0.0
 10
115.012608
 20
194.147656
 30
0.0
 10
121.768303
 20
194.147656
 30
0.0
 10
121.768303
 20
191.149045
 30
0.0
 10
131.284497
 20
191.149045
 30
0.0
 10
131.284497
 20
194.147656
 30
0.0
 10
140.827108
 20
194.147656
 30
0.0
 10
140.827108
 20
191.149045
 30
0.0
 10
150.343303
 20
191.149045
 30
0.0
 10
150.343303
 20
194.147656
 30
0.0
 10
159.885942
 20
194.147656
 30
0.0
 10
159.885942
 20
191.149045
 30
0.0
 10
169.410942
 20
191.149045
 30
0.0
 10
169.410942
 20
194.147656
 30
0.0
 10
178.944775
 20
194.147656
 30
0.0
 10
178.944775
 20
191.149045
 30
0.0
 10
188.469775
 20
191.149045
 30
0.0
 10
188.469775
 20
194.147656
 30
0.0
 10
195.216636
 20
194.147656
 30
0.0
 10
195.216636
 20
204.783906
 30
0.0
 10
195.216636
 20
221.999461
 30
0.0
 10
115.012608
 20
221.999461
 30
0.0
 10
115.012608
 20
221.999461
 30
0.0
  0
SPLINE
  5
125
100
AcDbEntity
  8
0
 62
7
100
AcDbSpline
 70
0
 71
3
 72
19
 73
15
 74
13
 40
0.000000
 40
0.000000
 40
0.000000
 40
0.000000
 40
0.836574
 40
1.648335
 40
2.484915
 40
3.321494
 40
4.133256
 40
4.969829
 40
5.806404
 40
6.618165
 40
7.454745
 40
8.291324
 40
9.103085
 40
9.939660
 40
9.939660
 40
9.939660
 40
9.939660
 10
182.833064
 20
117.821076
 30
0.0
 10
182.789089
 20
117.539023
 30
0.0
 10
182.702443
 20
116.983282
 30
0.0
 10
182.065455
 20
116.371454
 30
0.0
 10
181.234530
 20
116.144756
 30
0.0
 10
180.394880
 20
116.371454
 30
0.0
 10
179.783547
 20
116.983282
 30
0.0
 10
179.556682
 20
117.821077
 30
0.0
 10
179.783546
 20
118.658872
 30
0.0
 10
180.394880
 20
119.270700
 30
0.0
 10
181.234530
 20
119.497396
 30
0.0
 10
182.065455
 20
119.270700
 30
0.0
 10
182.702443
 20
118.658872
 30
0.0
 10
182.789089
 20
118.103130
 30
0.0
 10
182.833064
 20
117.821076
 30
0.0
 11
182.833064
 21
117.821076
 31
0.0
 11
182.614618
 21
117.013526
 31
0.0
 11
182.040617
 21
116.439524
 31
0.0
 11
181.233061
 21
116.221077
 31
0.0
 11
180.425505
 21
116.439524
 31
0.0
 11
179.851504
 21
117.013526
 31
0.0
 11
179.633059
 21
117.821076
 31
0.0
 11
179.851504
 21
118.628628
 31
0.0
 11
180.425505
 21
119.202630
 31
0.0
 11
181.233061
 21
119.421076
 31
0.0
 11
182.040617
 21
119.202630
 31
0.0
 11
182.614618
 21
118.628628
 31
0.0
 11
182.833064
 21
117.821076
 31
0.0
  0
LWPOLYLINE
  5
126
100
AcDbEntity
  8
0
 62
7
100
AcDbPolyline
 90
2
 70
0
 10
182.833064
 20
117.821076
 30
0.0
 10
182.833064
 20
117.821076
 30
0.0
  0
SPLINE
  5
127
100
AcDbEntity
  8
0
 62
7
100
AcDbSpline
 70
0
 71
3
 72
19
 73
15
 74
13
 40
0.000000
 40
0.000000
 40
0.000000
 40
0.000000
 40
0.836574
 40
1.648335
 40
2.484915
 40
3.321482
 40
4.133248
 40
4.969823
 40
5.806400
 40
6.618165
 40
7.454733
 40
8.291312
 40
9.103073
 40
9.939648
 40
9.939648
 40
9.939648
 40
9.939648
 10
134.603064
 20
117.821076
 30
0.0
 10
134.559089
 20
117.539023
 30
0.0
 10
134.472443
 20
116.983282
 30
0.0
 10
133.835456
 20
116.371454
 30
0.0
 10
133.004533
 20
116.144755
 30
0.0
 10
132.164889
 20
116.371459
 30
0.0
 10
131.553555
 20
116.983280
 30
0.0
 10
131.326679
 20
117.821077
 30
0.0
 10
131.553554
 20
118.658873
 30
0.0
 10
132.164889
 20
119.270695
 30
0.0
 10
133.004533
 20
119.497397
 30
0.0
 10
133.835455
 20
119.270699
 30
0.0
 10
134.472443
 20
118.658872
 30
0.0
 10
134.559089
 20
118.103130
 30
0.0
 10
134.603064
 20
117.821076
 30
0.0
 11
134.603064
 21
117.821076
 31
0.0
 11
134.384619
 21
117.013526
 31
0.0
 11
133.810617
 21
116.439524
 31
0.0
 11
133.003061
 21
116.221077
 31
0.0
 11
132.195518
 21
116.439524
 31
0.0
 11
131.621510
 21
117.013526
 31
0.0
 11
131.403059
 21
117.821076
 31
0.0
 11
131.621510
 21
118.628628
 31
0.0
 11
132.195518
 21
119.202630
 31
0.0
 11
133.003061
 21
119.421076
 31
0.0
 11
133.810617
 21
119.202630
 31
0.0
 11
134.384619
 21
118.628628
 31
0.0
 11
134.603064
 21
117.821076
 31
0.0
  0
LWPOLYLINE
  5
128
100
AcDbEntity
  8
0
 62
7
100
AcDbPolyline
 90
2
 70
0
 10
134.603064
 20
117.821076
 30
0.0
 10
134.603064
 20
117.821076
 30
0.0
  0
SPLINE
  5
129
100
AcDbEntity
  8
0
 62
7
100
AcDbSpline
 70
0
 71
3
 72
19
 73
15
 74
13
 40
0.000000
 40
0.000000
 40
0.000000
 40
0.000000
 40
0.758144
 40
1.493804
 40
2.251950
 40
3.010096
 40
3.745756
 40
4.503901
 40
5.262048
 40
5.997707
 40
6.755852
 40
7.513998
 40
8.249657
 40
9.007804
 40
9.007804
 40
9.007804
 40
9.007804
 10
43.015133
 20
196.963849
 30
0.0
 10
42.975280
 20
196.708238
 30
0.0
 10
42.896755
 20
196.204598
 30
0.0
 10
42.319487
 20
195.650130
 30
0.0
 10
41.566464
 20
195.444682
 30
0.0
 10
40.805535
 20
195.650130
 30
0.0
 10
40.251515
 20
196.204598
 30
0.0
 10
40.045915
 20
196.963849
 30
0.0
 10
40.251514
 20
197.723102
 30
0.0
 10
40.805535
 20
198.277569
 30
0.0
 10
41.566464
 20
198.483014
 30
0.0
 10
42.319486
 20
198.277569
 30
0.0
 10
42.896757
 20
197.723102
 30
0.0
 10
42.975280
 20
197.219460
 30
0.0
 10
43.015133
 20
196.963849
 30
0.0
 11
43.015133
 21
196.963849
 31
0.0
 11
42.817165
 21
196.232007
 31
0.0
 11
42.296976
 21
195.711817
 31
0.0
 11
41.565133
 21
195.513848
 31
0.0
 11
40.833290
 21
195.711817
 31
0.0
 11
40.313100
 21
196.232007
 31
0.0
 11
40.115133
 21
196.963849
 31
0.0
 11
40.313100
 21
197.695693
 31
0.0
 11
40.833290
 21
198.215882
 31
0.0
 11
41.565133
 21
198.413849
 31
0.0
 11
42.296976
 21
198.215882
 31
0.0
 11
42.817165
 21
197.695693
 31
0.0
 11
43.015133
 21
196.963849
 31
0.0
  0
LWPOLYLINE
  5
12a
100
AcDbEntity
  8
0
 62
7
100
AcDbPolyline
 90
2
 70
0
 10
43.015133
 20
196.963849
 30
0.0
 10
43.015133
 20
196.963849
 30
0.0
  0
SPLINE
  5
12b
100
AcDbEntity
  8
0
 62
7
100
AcDbSpline
 70
0
 71
3
 72
19
 73
15
 74
13
 40
0.000000
 40
0.000000
 40
0.000000
 40
0.000000
 40
0.758144
 40
1.493804
 40
2.251950
 40
3.010096
 40
3.745756
 40
4.503901
 40
5.262048
 40
5.997707
 40
6.755852
 40
7.513998
 40
8.249657
 40
9.007804
 40
9.007804
 40
9.007804
 40
9.007804
 10
63.015132
 20
196.963849
 30
0.0
 10
62.975279
 20
196.708238
 30
0.0
 10
62.896755
 20
196.204598
 30
0.0
 10
62.319486
 20
195.650130
 30
0.0
 10
61.566463
 20
195.444682
 30
0.0
 10
60.805534
 20
195.650130
 30
0.0
 10
60.251514
 20
196.204598
 30
0.0
 10
60.045915
 20
196.963849
 30
0.0
 10
60.251513
 20
197.723102
 30
0.0
 10
60.805535
 20
198.277569
 30
0.0
 10
61.566463
 20
198.483014
 30
0.0
 10
62.319486
 20
198.277569
 30
0.0
 10
62.896756
 20
197.723102
 30
0.0
 10
62.975280
 20
197.219460
 30
0.0
 10
63.015132
 20
196.963849
 30
0.0
 11
63.015132
 21
196.963849
 31
0.0
 11
62.817165
 21
196.232007
 31
0.0
 11
62.296975
 21
195.711817
 31
0.0
 11
61.565132
 21
195.513848
 31
0.0
 11
60.833290
 21
195.711817
 31
0.0
 11
60.313100
 21
196.232007
 31
0.0
 11
60.115132
 21
196.963849
 31
0.0
 11
60.313100
 21
197.695693
 31
0.0
 11
60.833290
 21
198.215882
 31
0.0
 11
61.565132
 21
198.413849
 31
0.0
 11
62.296975
 21
198.215882
 31
0.0
 11
62.817165
 21
197.695693
 31
0.0
 11
63.015132
 21
196.963849
 31
0.0
  0
LWPOLYLINE
  5
12c
100
AcDbEntity
  8
0
 62
7
100
AcDbPolyline
 90
2
 70
0
 10
63.015132
 20
196.963849
 30
0.0
 10
63.015132
 20
196.963849
 30
0.0
  0
SPLINE
  5
12d
100
AcDbEntity
  8
0
 62
7
100
AcDbSpline
 70
0
 71
3
 72
19
 73
15
 74
13
 40
0.000000
 40
0.000000
 40
0.000000
 40
0.000000
 40
0.758144
 40
1.493804
 40
2.251950
 40
3.010096
 40
3.745756
 40
4.503901
 40
5.262048
 40
5.997707
 40
6.755852
 40
7.513998
 40
8.249657
 40
9.007804
 40
9.007804
 40
9.007804
 40
9.007804
 10
43.015133
 20
130.034688
 30
0.0
 10
42.975280
 20
129.779077
 30
0.0
 10
42.896755
 20
129.275437
 30
0.0
 10
42.319487
 20
128.720969
 30
0.0
 10
41.566464
 20
128.515521
 30
0.0
 10
40.805535
 20
128.720969
 30
0.0
 10
40.251515
 20
129.275437
 30
0.0
 10
40.045915
 20
130.034689
 30
0.0
 10
40.251514
 20
130.793941
 30
0.0
 10
40.805535
 20
131.348408
 30
0.0
 10
41.566464
 20
131.553853
 30
0.0
 10
42.319486
 20
131.348408
 30
0.0
 10
42.896757
 20
130.793941
 30
0.0
 10
42.975280
 20
130.290299
 30
0.0
 10
43.015133
 20
130.034688
 30
0.0
 11
43.015133
 21
130.034688
 31
0.0
 11
42.817165
 21
129.302846
 31
0.0
 11
42.296976
 21
128.782656
 31
0.0
 11
41.565133
 21
128.584688
 31
0.0
 11
40.833290
 21
128.782656
 31
0.0
 11
40.313100
 21
129.302846
 31
0.0
 11
40.115133
 21
130.034688
 31
0.0
 11
40.313100
 21
130.766532
 31
0.0
 11
40.833290
 21
131.286721
 31
0.0
 11
41.565133
 21
131.484688
 31
0.0
 11
42.296976
 21
131.286721
 31
0.0
 11
42.817165
 21
130.766532
 31
0.0
 11
43.015133
 21
130.034688
 31
0.0
  0
LWPOLYLINE
  5
12e
100
AcDbEntity
  8
0
 62
7
100
AcDbPolyline
 90
2
 70
0
 10
43.015133
 20
130.034688
 30
0.0
 10
43.015133
 20
130.034688
 30
0.0
  0
SPLINE
  5
12f
100
AcDbEntity
  8
0
 62
7
100
AcDbSpline
 70
0
 71
3
 72
19
 73
15
 74
13
 40
0.000000
 40
0.000000
 40
0.000000
 40
0.000000
 40
0.758144
 40
1.493804
 40
2.251950
 40
3.010096
 40
3.745756
 40
4.503901
 40
5.262048
 40
5.997707
 40
6.755852
 40
7.513998
 40
8.249657
 40
9.007804
 40
9.007804
 40
9.007804
 40
9.007804
 10
63.015132
 20
130.034688
 30
0.0
 10
62.975279
 20
129.779077
 30
0.0
 10
62.896755
 20
129.275437
 30
0.0
 10
62.319486
 20
128.720969
 30
0.0
 10
61.566463
 20
128.515521
 30
0.0
 10
60.805534
 20
128.720969
 30
0.0
 10
60.251514
 20
129.275437
 30
0.0
 10
60.045915
 20
130.034689
 30
0.0
 10
60.251513
 20
130.793941
 30
0.0
 10
60.805535
 20
131.348408
 30
0.0
 10
61.566463
 20
131.553853
 30
0.0
 10
62.319486
 20
131.348408
 30
0.0
 10
62.896756
 20
130.793941
 30
0.0
 10
62.975280
 20
130.290299
 30
0.0
 10
63.015132
 20
130.034688
 30
0.0
 11
63.015132
 21
130.034688
 31
0.0
 11
62.817165
 21
129.302846
 31
0.0
 11
62.296975
 21
128.782656
 31
0.0
 11
61.565132
 21
128.584688
 31
0.0
 11
60.833290
 21
128.782656
 31
0.0
 11
60.313100
 21
129.302846
 31
0.0
 11
60.115132
 21
130.034688
 31
0.0
 11
60.313100
 21
130.766532
 31
0.0
 11
60.833290
 21
131.286721
 31
0.0
 11
61.565132
 21
131.484688
 31
0.0
 11
62.296975
 21
131.286721
 31
0.0
 11
62.817165
 21
130.766532
 31
0.0
 11
63.015132
 21
130.034688
 31
0.0
  0
LWPOLYLINE
  5
130
100
AcDbEntity
  8
0
 62
7
100
AcDbPolyline
 90
2
 70
0
 10
63.015132
 20
130.034688
 30
0.0
 10
63.015132
 20
130.034688
 30
0.0
  0
ENDSEC
  0
SECTION
  2
OBJECTS
  0
DICTIONARY
  5
C
330
0
100
AcDbDictionary
  3
ACAD_GROUP
350
D
  3
ACAD_MLINESTYLE
350
17
  0
DICTIONARY
  5
D
330
C
100
AcDbDictionary
  0
DICTIONARY
  5
1A
330
C
100
AcDbDictionary
  0
DICTIONARY
  5
17
330
C
100
AcDbDictionary
  3
STANDARD
350
18
  0
DICTIONARY
  5
19
330
C
100
AcDbDictionary
  0
ENDSEC
  0
EOF
