  0
SECTION
  2
HEADER
  9
$ACADVER
  1
AC1014
  9
$HANDSEED
  5
FFFF
  9
$MEASUREMENT
 70
     1
  0
ENDSEC
  0
SECTION
  2
TABLES
  0
TABLE
  2
VPORT
  5
8
330
0
100
AcDbSymbolTable
 70
     4
  0
VPORT
  5
2E
330
8
100
AcDbSymbolTableRecord
100
AcDbViewportTableRecord
  2
*ACTIVE
 70
     0
 10
0.0
 20
0.0
 11
1.0
 21
1.0
 12
210.0
 22
148.5
 13
0.0
 23
0.0
 14
10.0
 24
10.0
 15
10.0
 25
10.0
 16
0.0
 26
0.0
 36
1.0
 17
0.0
 27
0.0
 37
0.0
 40
341.0
 41
1.24
 42
50.0
 43
0.0
 44
0.0
 50
0.0
 51
0.0
 71
     0
 72
   100
 73
     1
 74
     3
 75
     0
 76
     0
 77
     0
 78
     0
  0
ENDTAB
  0
TABLE
  2
LTYPE
  5
5
330
0
100
AcDbSymbolTable
 70
     1
  0
LTYPE
  5
14
330
5
100
AcDbSymbolTableRecord
100
AcDbLinetypeTableRecord
  2
BYBLOCK
 70
     0
  3

 72
    65
 73
     0
 40
0.0
  0
LTYPE
  5
15
330
5
100
AcDbSymbolTableRecord
100
AcDbLinetypeTableRecord
  2
BYLAYER
 70
     0
  3

 72
    65
 73
     0
 40
0.0
  0
LTYPE
  5
16
330
5
100
AcDbSymbolTableRecord
100
AcDbLinetypeTableRecord
  2
CONTINUOUS
 70
     0
  3
Solid line
 72
    65
 73
     0
 40
0.0
  0
ENDTAB
  0
TABLE
  2
LAYER
  5
2
100
AcDbSymbolTable
 70
2
  0
LAYER
  5
50
100
AcDbSymbolTableRecord
100
AcDbLayerTableRecord
  2
0
 70
0
  6
CONTINUOUS
  0
LAYER
  5
51
100
AcDbSymbolTableRecord
100
AcDbLayerTableRecord
  2
newlayer
 70
0
  6
CONTINUOUS
  0
ENDTAB
  0
TABLE
  2
STYLE
  5
3
330
0
100
AcDbSymbolTable
 70
     1
  0
STYLE
  5
11
330
3
100
AcDbSymbolTableRecord
100
AcDbTextStyleTableRecord
  2
STANDARD
 70
     0
 40
0.0
 41
1.0
 50
0.0
 71
     0
 42
2.5
  3
txt
  4

  0
ENDTAB
  0
TABLE
  2
VIEW
  5
6
330
0
100
AcDbSymbolTable
 70
     0
  0
ENDTAB
  0
TABLE
  2
UCS
  5
7
330
0
100
AcDbSymbolTable
 70
     0
  0
ENDTAB
  0
TABLE
  2
APPID
  5
9
330
0
100
AcDbSymbolTable
 70
     2
  0
APPID
  5
12
330
9
100
AcDbSymbolTableRecord
100
AcDbRegAppTableRecord
  2
ACAD
 70
     0
  0
ENDTAB
  0
TABLE
  2
DIMSTYLE
  5
A
330
0
100
AcDbSymbolTable
 70
     1
  0
DIMSTYLE
105
27
330
A
100
AcDbSymbolTableRecord
100
AcDbDimStyleTableRecord
  2
ISO-25
 70
     0
  3

  4

  5

  6

  7

 40
1.0
 41
2.5
 42
0.625
 43
3.75
 44
1.25
 45
0.0
 46
0.0
 47
0.0
 48
0.0
140
2.5
141
2.5
142
0.0
143
0.03937007874016
144
1.0
145
0.0
146
1.0
147
0.625
 71
     0
 72
     0
 73
     0
 74
     0
 75
     0
 76
     0
 77
     1
 78
     8
170
     0
171
     3
172
     1
173
     0
174
     0
175
     0
176
     0
177
     0
178
     0
270
     2
271
     2
272
     2
273
     2
274
     3
340
11
275
     0
280
     0
281
     0
282
     0
283
     0
284
     8
285
     0
286
     0
287
     3
288
     0
  0
ENDTAB
  0
TABLE
  2
BLOCK_RECORD
  5
1
330
0
100
AcDbSymbolTable
 70
     1
  0
BLOCK_RECORD
  5
1F
330
1
100
AcDbSymbolTableRecord
100
AcDbBlockTableRecord
  2
*MODEL_SPACE
  0
BLOCK_RECORD
  5
1B
330
1
100
AcDbSymbolTableRecord
100
AcDbBlockTableRecord
  2
*PAPER_SPACE
  0
ENDTAB
  0
ENDSEC
  0
SECTION
  2
BLOCKS
  0
BLOCK
  5
20
330
1F
100
AcDbEntity
  8
0
100
AcDbBlockBegin
  2
*MODEL_SPACE
 70
     0
 10
0.0
 20
0.0
 30
0.0
  3
*MODEL_SPACE
  1

  0
ENDBLK
  5
21
330
1F
100
AcDbEntity
  8
0
100
AcDbBlockEnd
  0
BLOCK
  5
1C
330
1B
100
AcDbEntity
 67
     1
  8
0
100
AcDbBlockBegin
  2
*PAPER_SPACE
  1

  0
ENDBLK
  5
1D
330
1B
100
AcDbEntity
 67
     1
  8
0
100
AcDbBlockEnd
  0
ENDSEC
  0
SECTION
  2
ENTITIES
  0
SPLINE
  5
100
100
AcDbEntity
  8
0
 62
7
100
AcDbSpline
 70
0
 71
3
 72
16
 73
12
 74
10
 40
0.000000
 40
0.000000
 40
0.000000
 40
0.000000
 40
2.950094
 40
5.857931
 40
8.808024
 40
11.758118
 40
14.665955
 40
17.616048
 40
20.566142
 40
23.473979
 40
26.424072
 40
26.424072
 40
26.424072
 40
26.424072
 10
629.837464
 20
372.227134
 30
0.0
 10
629.737121
 20
371.238677
 30
0.0
 10
629.537873
 20
369.275922
 30
0.0
 10
627.982972
 20
366.681502
 30
0.0
 10
625.705289
 20
364.752458
 30
0.0
 10
622.883788
 20
363.729291
 30
0.0
 10
619.891144
 20
363.729291
 30
0.0
 10
617.069643
 20
364.752458
 30
0.0
 10
614.791960
 20
366.681502
 30
0.0
 10
613.237060
 20
369.275922
 30
0.0
 10
613.037811
 20
371.238677
 30
0.0
 10
612.937468
 20
372.227134
 30
0.0
 11
629.837464
 21
372.227134
 31
0.0
 11
629.324697
 21
369.321945
 31
0.0
 11
627.871984
 21
366.802989
 31
0.0
 11
625.614218
 21
364.904162
 31
0.0
 11
622.841385
 21
363.896964
 31
0.0
 11
619.933548
 21
363.896964
 31
0.0
 11
617.160714
 21
364.904162
 31
0.0
 11
614.902948
 21
366.802989
 31
0.0
 11
613.450235
 21
369.321945
 31
0.0
 11
612.937468
 21
372.227134
 31
0.0
  0
SPLINE
  5
101
100
AcDbEntity
  8
0
 62
7
100
AcDbSpline
 70
0
 71
3
 72
16
 73
12
 74
10
 40
0.000000
 40
0.000000
 40
0.000000
 40
0.000000
 40
2.950094
 40
5.857931
 40
8.808024
 40
11.758118
 40
14.665955
 40
17.616048
 40
20.566142
 40
23.473979
 40
26.424072
 40
26.424072
 40
26.424072
 40
26.424072
 10
612.937468
 20
372.227134
 30
0.0
 10
613.037811
 20
373.215591
 30
0.0
 10
613.237060
 20
375.178346
 30
0.0
 10
614.791960
 20
377.772765
 30
0.0
 10
617.069643
 20
379.701810
 30
0.0
 10
619.891144
 20
380.724976
 30
0.0
 10
622.883788
 20
380.724976
 30
0.0
 10
625.705289
 20
379.701810
 30
0.0
 10
627.982972
 20
377.772765
 30
0.0
 10
629.537873
 20
375.178346
 30
0.0
 10
629.737121
 20
373.215591
 30
0.0
 10
629.837464
 20
372.227134
 30
0.0
 11
612.937468
 21
372.227134
 31
0.0
 11
613.450235
 21
375.132323
 31
0.0
 11
614.902948
 21
377.651279
 31
0.0
 11
617.160714
 21
379.550106
 31
0.0
 11
619.933548
 21
380.557303
 31
0.0
 11
622.841385
 21
380.557303
 31
0.0
 11
625.614218
 21
379.550106
 31
0.0
 11
627.871984
 21
377.651279
 31
0.0
 11
629.324697
 21
375.132323
 31
0.0
 11
629.837464
 21
372.227134
 31
0.0
  0
SPLINE
  5
102
100
AcDbEntity
  8
0
 62
7
100
AcDbSpline
 70
0
 71
3
 72
16
 73
12
 74
10
 40
0.000000
 40
0.000000
 40
0.000000
 40
0.000000
 40
2.950094
 40
5.857931
 40
8.808024
 40
11.758118
 40
14.665955
 40
17.616048
 40
20.566142
 40
23.473979
 40
26.424072
 40
26.424072
 40
26.424072
 40
26.424072
 10
655.837463
 20
372.227134
 30
0.0
 10
655.737120
 20
371.238677
 30
0.0
 10
655.537871
 20
369.275922
 30
0.0
 10
653.982971
 20
366.681502
 30
0.0
 10
651.705288
 20
364.752458
 30
0.0
 10
648.883787
 20
363.729291
 30
0.0
 10
645.891143
 20
363.729291
 30
0.0
 10
643.069642
 20
364.752458
 30
0.0
 10
640.791959
 20
366.681502
 30
0.0
 10
639.237058
 20
369.275922
 30
0.0
 10
639.037810
 20
371.238677
 30
0.0
 10
638.937467
 20
372.227134
 30
0.0
 11
655.837463
 21
372.227134
 31
0.0
 11
655.324696
 21
369.321945
 31
0.0
 11
653.871983
 21
366.802989
 31
0.0
 11
651.614217
 21
364.904162
 31
0.0
 11
648.841383
 21
363.896964
 31
0.0
 11
645.933546
 21
363.896964
 31
0.0
 11
643.160713
 21
364.904162
 31
0.0
 11
640.902947
 21
366.802989
 31
0.0
 11
639.450234
 21
369.321945
 31
0.0
 11
638.937467
 21
372.227134
 31
0.0
  0
LWPOLYLINE
  5
103
100
AcDbEntity
  8
0
 62
7
100
AcDbPolyline
 90
2
 70
0
 10
629.837464
 20
372.227134
 30
0.0
 10
629.837464
 20
372.227134
 30
0.0
  0
LWPOLYLINE
  5
104
100
AcDbEntity
  8
0
 62
7
100
AcDbPolyline
 90
2
 70
0
 10
655.837463
 20
372.227134
 30
0.0
 10
655.837463
 20
372.227134
 30
0.0
  0
SPLINE
  5
105
100
AcDbEntity
  8
0
 62
7
100
AcDbSpline
 70
0
 71
3
 72
16
 73
12
 74
10
 40
0.000000
 40
0.000000
 40
0.000000
 40
0.000000
 40
2.950094
 40
5.857931
 40
8.808024
 40
11.758118
 40
14.665955
 40
17.616048
 40
20.566142
 40
23.473979
 40
26.424072
 40
26.424072
 40
26.424072
 40
26.424072
 10
638.937467
 20
372.227134
 30
0.0
 10
639.037810
 20
373.215591
 30
0.0
 10
639.237058
 20
375.178346
 30
0.0
 10
640.791959
 20
377.772765
 30
0.0
 10
643.069642
 20
379.701810
 30
0.0
 10
645.891143
 20
380.724976
 30
0.0
 10
648.883787
 20
380.724976
 30
0.0
 10
651.705288
 20
379.701810
 30
0.0
 10
653.982971
 20
377.772765
 30
0.0
 10
655.537871
 20
375.178346
 30
0.0
 10
655.737120
 20
373.215591
 30
0.0
 10
655.837463
 20
372.227134
 30
0.0
 11
638.937467
 21
372.227134
 31
0.0
 11
639.450234
 21
375.132323
 31
0.0
 11
640.902947
 21
377.651279
 31
0.0
 11
643.160713
 21
379.550106
 31
0.0
 11
645.933546
 21
380.557303
 31
0.0
 11
648.841383
 21
380.557303
 31
0.0
 11
651.614217
 21
379.550106
 31
0.0
 11
653.871983
 21
377.651279
 31
0.0
 11
655.324696
 21
375.132323
 31
0.0
 11
655.837463
 21
372.227134
 31
0.0
  0
LWPOLYLINE
  5
106
100
AcDbEntity
  8
0
 62
7
100
AcDbPolyline
 90
42
 70
0
 10
554.608836
 20
216.096732
 30
0.0
 10
557.607447
 20
216.096732
 30
0.0
 10
557.607447
 20
212.727704
 30
0.0
 10
565.906559
 20
212.727704
 30
0.0
 10
565.906559
 20
212.736509
 30
0.0
 10
571.815587
 20
212.736509
 30
0.0
 10
571.815587
 20
212.727704
 30
0.0
 10
580.114670
 20
212.727704
 30
0.0
 10
580.114670
 20
216.096732
 30
0.0
 10
583.113281
 20
216.096732
 30
0.0
 10
583.113281
 20
222.182149
 30
0.0
 10
580.114670
 20
222.182149
 30
0.0
 10
580.114670
 20
228.496872
 30
0.0
 10
583.113281
 20
228.496872
 30
0.0
 10
583.113281
 20
234.582288
 30
0.0
 10
580.114670
 20
234.582288
 30
0.0
 10
580.114670
 20
240.897011
 30
0.0
 10
583.113281
 20
240.897011
 30
0.0
 10
583.113281
 20
246.982427
 30
0.0
 10
580.114670
 20
246.982427
 30
0.0
 10
580.114670
 20
253.297149
 30
0.0
 10
583.113281
 20
253.297149
 30
0.0
 10
583.113281
 20
259.382566
 30
0.0
 10
580.114670
 20
259.382566
 30
0.0
 10
580.114670
 20
262.725136
 30
0.0
 10
557.607447
 20
262.725136
 30
0.0
 10
557.607447
 20
259.382566
 30
0.0
 10
554.608836
 20
259.382566
 30
0.0
 10
554.608836
 20
253.297149
 30
0.0
 10
557.607447
 20
253.297149
 30
0.0
 10
557.607447
 20
246.982427
 30
0.0
 10
554.608836
 20
246.982427
 30
0.0
 10
554.608836
 20
240.897011
 30
0.0
 10
557.607447
 20
240.897011
 30
0.0
 10
557.607447
 20
234.582288
 30
0.0
 10
554.608836
 20
234.582288
 30
0.0
 10
554.608836
 20
228.496872
 30
0.0
 10
557.607447
 20
228.496872
 30
0.0
 10
557.607447
 20
222.182149
 30
0.0
 10
554.608836
 20
222.182149
 30
0.0
 10
554.608836
 20
216.096732
 30
0.0
 10
554.608836
 20
216.096732
 30
0.0
  0
SPLINE
  5
107
100
AcDbEntity
  8
0
 62
7
100
AcDbSpline
 70
0
 71
3
 72
19
 73
15
 74
13
 40
0.000000
 40
0.000000
 40
0.000000
 40
0.000000
 40
1.882293
 40
3.708758
 40
5.591051
 40
7.473343
 40
9.299808
 40
11.182101
 40
13.064394
 40
14.890858
 40
16.773151
 40
18.655444
 40
20.481909
 40
22.364202
 40
22.364202
 40
22.364202
 40
22.364202
 10
568.861074
 20
227.246424
 30
0.0
 10
569.495695
 20
227.147479
 30
0.0
 10
570.746113
 20
226.952523
 30
0.0
 10
572.122722
 20
225.519302
 30
0.0
 10
572.632797
 20
223.649728
 30
0.0
 10
572.122722
 20
221.760526
 30
0.0
 10
570.746113
 20
220.385027
 30
0.0
 10
568.861074
 20
219.874575
 30
0.0
 10
566.976035
 20
220.385027
 30
0.0
 10
565.599426
 20
221.760526
 30
0.0
 10
565.089351
 20
223.649728
 30
0.0
 10
565.599426
 20
225.519302
 30
0.0
 10
566.976035
 20
226.952523
 30
0.0
 10
568.226453
 20
227.147479
 30
0.0
 10
568.861074
 20
227.246424
 30
0.0
 11
568.861074
 21
227.246424
 31
0.0
 11
570.678063
 21
226.754919
 31
0.0
 11
571.969569
 21
225.463413
 31
0.0
 11
572.461074
 21
223.646424
 31
0.0
 11
571.969569
 21
221.829435
 31
0.0
 11
570.678063
 21
220.537930
 31
0.0
 11
568.861074
 21
220.046424
 31
0.0
 11
567.044085
 21
220.537930
 31
0.0
 11
565.752579
 21
221.829435
 31
0.0
 11
565.261074
 21
223.646424
 31
0.0
 11
565.752579
 21
225.463413
 31
0.0
 11
567.044085
 21
226.754919
 31
0.0
 11
568.861074
 21
227.246424
 31
0.0
  0
LWPOLYLINE
  5
108
100
AcDbEntity
  8
0
 62
7
100
AcDbPolyline
 90
2
 70
0
 10
568.861074
 20
227.246424
 30
0.0
 10
568.861074
 20
227.246424
 30
0.0
  0
LWPOLYLINE
  5
109
100
AcDbEntity
  8
0
 62
7
100
AcDbPolyline
 90
2
 70
0
 10
568.861074
 20
237.076424
 30
0.0
 10
568.861074
 20
237.076424
 30
0.0
  0
SPLINE
  5
10a
100
AcDbEntity
  8
0
 62
7
100
AcDbSpline
 70
0
 71
3
 72
19
 73
15
 74
13
 40
0.000000
 40
0.000000
 40
0.000000
 40
0.000000
 40
1.045718
 40
2.060421
 40
3.106139
 40
4.151858
 40
5.166560
 40
6.212279
 40
7.257997
 40
8.272700
 40
9.318418
 40
10.364136
 40
11.378839
 40
12.424557
 40
12.424557
 40
12.424557
 40
12.424557
 10
568.861074
 20
237.076424
 30
0.0
 10
569.213641
 20
237.021454
 30
0.0
 10
569.908318
 20
236.913145
 30
0.0
 10
570.673100
 20
236.116912
 30
0.0
 10
570.956475
 20
235.078259
 30
0.0
 10
570.673100
 20
234.028702
 30
0.0
 10
569.908318
 20
233.264536
 30
0.0
 10
568.861074
 20
232.980952
 30
0.0
 10
567.813830
 20
233.264536
 30
0.0
 10
567.049047
 20
234.028702
 30
0.0
 10
566.765672
 20
235.078259
 30
0.0
 10
567.049047
 20
236.116912
 30
0.0
 10
567.813830
 20
236.913145
 30
0.0
 10
568.508507
 20
237.021454
 30
0.0
 10
568.861074
 20
237.076424
 30
0.0
 11
568.861074
 21
237.076424
 31
0.0
 11
569.870512
 21
236.803365
 31
0.0
 11
570.588015
 21
236.085862
 31
0.0
 11
570.861074
 21
235.076424
 31
0.0
 11
570.588015
 21
234.066985
 31
0.0
 11
569.870512
 21
233.349482
 31
0.0
 11
568.861074
 21
233.076424
 31
0.0
 11
567.851635
 21
233.349482
 31
0.0
 11
567.134132
 21
234.066985
 31
0.0
 11
566.861074
 21
235.076424
 31
0.0
 11
567.134132
 21
236.085862
 31
0.0
 11
567.851635
 21
236.803365
 31
0.0
 11
568.861074
 21
237.076424
 31
0.0
  0
LWPOLYLINE
  5
10b
100
AcDbEntity
  8
0
 62
7
100
AcDbPolyline
 90
5
 70
0
 10
566.375838
 20
253.826421
 30
0.0
 10
566.375838
 20
256.326421
 30
0.0
 10
571.775838
 20
256.326421
 30
0.0
 10
571.775838
 20
253.826421
 30
0.0
 10
566.375838
 20
253.826421
 30
0.0
  0
SPLINE
  5
10c
100
AcDbEntity
  8
0
 62
7
100
AcDbSpline
 70
0
 71
3
 72
19
 73
15
 74
13
 40
0.000000
 40
0.000000
 40
0.000000
 40
0.000000
 40
0.664030
 40
1.308366
 40
1.972397
 40
2.636428
 40
3.280764
 40
3.944794
 40
4.608826
 40
5.253162
 40
5.917193
 40
6.581224
 40
7.225561
 40
7.889592
 40
7.889592
 40
7.889592
 40
7.889592
 10
577.571078
 20
245.166424
 30
0.0
 10
577.794958
 20
245.131518
 30
0.0
 10
578.236077
 20
245.062742
 30
0.0
 10
578.721714
 20
244.557135
 30
0.0
 10
578.901657
 20
243.897590
 30
0.0
 10
578.721714
 20
243.231122
 30
0.0
 10
578.236077
 20
242.745877
 30
0.0
 10
577.571078
 20
242.565801
 30
0.0
 10
576.906078
 20
242.745877
 30
0.0
 10
576.420440
 20
243.231122
 30
0.0
 10
576.240497
 20
243.897590
 30
0.0
 10
576.420440
 20
244.557135
 30
0.0
 10
576.906078
 20
245.062743
 30
0.0
 10
577.347198
 20
245.131519
 30
0.0
 10
577.571078
 20
245.166424
 30
0.0
 11
577.571078
 21
245.166424
 31
0.0
 11
578.212071
 21
244.993032
 31
0.0
 11
578.667685
 21
244.537418
 31
0.0
 11
578.841077
 21
243.896425
 31
0.0
 11
578.667685
 21
243.255431
 31
0.0
 11
578.212071
 21
242.799818
 31
0.0
 11
577.571078
 21
242.626426
 31
0.0
 11
576.930084
 21
242.799818
 31
0.0
 11
576.474469
 21
243.255431
 31
0.0
 11
576.301077
 21
243.896425
 31
0.0
 11
576.474469
 21
244.537418
 31
0.0
 11
576.930084
 21
244.993032
 31
0.0
 11
577.571078
 21
245.166424
 31
0.0
  0
LWPOLYLINE
  5
10d
100
AcDbEntity
  8
0
 62
7
100
AcDbPolyline
 90
2
 70
0
 10
577.571078
 20
245.166424
 30
0.0
 10
577.571078
 20
245.166424
 30
0.0
  0
LWPOLYLINE
  5
10e
100
AcDbEntity
  8
0
 62
7
100
AcDbPolyline
 90
2
 70
0
 10
560.151053
 20
245.166424
 30
0.0
 10
560.151053
 20
245.166424
 30
0.0
  0
LWPOLYLINE
  5
10f
100
AcDbEntity
  8
0
 62
7
100
AcDbPolyline
 90
33
 70
0
 10
480.990684
 20
258.628000
 30
0.0
 10
480.990684
 20
255.629389
 30
0.0
 10
476.369295
 20
255.629389
 30
0.0
 10
476.369295
 20
255.153139
 30
0.0
 10
476.413407
 20
255.153139
 30
0.0
 10
476.413407
 20
233.201542
 30
0.0
 10
476.369295
 20
233.201542
 30
0.0
 10
476.369295
 20
233.192736
 30
0.0
 10
476.475129
 20
233.192736
 30
0.0
 10
476.475129
 20
232.787042
 30
0.0
 10
477.886240
 20
232.787042
 30
0.0
 10
477.886240
 20
229.885445
 30
0.0
 10
483.416046
 20
229.885445
 30
0.0
 10
483.416046
 20
232.787042
 30
0.0
 10
484.827157
 20
232.787042
 30
0.0
 10
484.827157
 20
233.192736
 30
0.0
 10
484.827157
 20
233.289750
 30
0.0
 10
484.827157
 20
250.990375
 30
0.0
 10
487.675823
 20
250.990375
 30
0.0
 10
487.675823
 20
233.192736
 30
0.0
 10
487.675823
 20
232.822320
 30
0.0
 10
489.086934
 20
232.822320
 30
0.0
 10
489.086934
 20
229.920722
 30
0.0
 10
493.223268
 20
229.920722
 30
0.0
 10
493.223268
 20
232.822320
 30
0.0
 10
494.634379
 20
232.822320
 30
0.0
 10
494.634379
 20
233.131000
 30
0.0
 10
494.660908
 20
233.131000
 30
0.0
 10
494.660908
 20
255.629403
 30
0.0
 10
487.076186
 20
255.629403
 30
0.0
 10
487.076186
 20
258.628014
 30
0.0
 10
480.990769
 20
258.628014
 30
0.0
 10
480.990684
 20
258.628000
 30
0.0
  0
LWPOLYLINE
  5
110
100
AcDbEntity
  8
0
 62
7
100
AcDbPolyline
 90
60
 70
0
 10
593.559251
 20
351.692547
 30
0.0
 10
593.559251
 20
337.431506
 30
0.0
 10
593.435779
 20
337.431506
 30
0.0
 10
593.435779
 20
333.974283
 30
0.0
 10
596.443195
 20
333.974283
 30
0.0
 10
596.443195
 20
328.065256
 30
0.0
 10
593.435779
 20
328.065256
 30
0.0
 10
593.435779
 20
321.574145
 30
0.0
 10
596.443195
 20
321.574145
 30
0.0
 10
596.443195
 20
315.665117
 30
0.0
 10
593.435779
 20
315.665117
 30
0.0
 10
593.435779
 20
309.174006
 30
0.0
 10
596.443195
 20
309.174006
 30
0.0
 10
596.443195
 20
303.264978
 30
0.0
 10
593.435779
 20
303.264978
 30
0.0
 10
593.435779
 20
296.773867
 30
0.0
 10
596.443195
 20
296.773867
 30
0.0
 10
596.443195
 20
290.864839
 30
0.0
 10
593.435779
 20
290.864839
 30
0.0
 10
593.435779
 20
284.417825
 30
0.0
 10
593.435779
 20
269.327756
 30
0.0
 10
679.248973
 20
269.327756
 30
0.0
 10
679.248973
 20
284.417825
 30
0.0
 10
679.248973
 20
290.864839
 30
0.0
 10
676.250362
 20
290.864839
 30
0.0
 10
676.250362
 20
296.773867
 30
0.0
 10
679.248973
 20
296.773867
 30
0.0
 10
679.248973
 20
303.264978
 30
0.0
 10
676.250362
 20
303.264978
 30
0.0
 10
676.250362
 20
309.174006
 30
0.0
 10
679.248973
 20
309.174006
 30
0.0
 10
679.248973
 20
315.665117
 30
0.0
 10
676.250362
 20
315.665117
 30
0.0
 10
676.250362
 20
321.574145
 30
0.0
 10
679.248973
 20
321.574145
 30
0.0
 10
679.248973
 20
328.065256
 30
0.0
 10
676.250362
 20
328.065256
 30
0.0
 10
676.250362
 20
333.974283
 30
0.0
 10
679.248973
 20
333.974283
 30
0.0
 10
679.248973
 20
334.494631
 30
0.0
 10
679.345973
 20
334.494631
 30
0.0
 10
679.345973
 20
351.692547
 30
0.0
 10
669.688695
 20
351.692547
 30
0.0
 10
669.688695
 20
348.693936
 30
0.0
 10
660.340084
 20
348.693936
 30
0.0
 10
660.340084
 20
351.692547
 30
0.0
 10
650.638695
 20
351.692547
 30
0.0
 10
650.638695
 20
348.693936
 30
0.0
 10
641.298918
 20
348.693936
 30
0.0
 10
641.298918
 20
351.692547
 30
0.0
 10
631.597529
 20
351.692547
 30
0.0
 10
631.597529
 20
348.693936
 30
0.0
 10
622.257723
 20
348.693936
 30
0.0
 10
622.257723
 20
351.692547
 30
0.0
 10
612.556334
 20
351.692547
 30
0.0
 10
612.556334
 20
348.693936
 30
0.0
 10
603.216528
 20
348.693936
 30
0.0
 10
603.216528
 20
351.692547
 30
0.0
 10
593.559251
 20
351.692547
 30
0.0
 10
593.559251
 20
351.692547
 30
0.0
  0
LWPOLYLINE
  5
111
100
AcDbEntity
  8
0
 62
7
100
AcDbPolyline
 90
6
 70
0
 10
601.152807
 20
287.416436
 30
0.0
 10
607.061806
 20
287.416436
 30
0.0
 10
607.061806
 20
284.417825
 30
0.0
 10
601.152807
 20
284.417825
 30
0.0
 10
601.152807
 20
287.416436
 30
0.0
 10
601.152807
 20
287.416436
 30
0.0
  0
LWPOLYLINE
  5
112
100
AcDbEntity
  8
0
 62
7
100
AcDbPolyline
 90
6
 70
0
 10
665.622917
 20
287.416436
 30
0.0
 10
671.531973
 20
287.416436
 30
0.0
 10
671.531973
 20
284.417825
 30
0.0
 10
665.622917
 20
284.417825
 30
0.0
 10
665.622917
 20
287.416436
 30
0.0
 10
665.622917
 20
287.416436
 30
0.0
  0
LWPOLYLINE
  5
113
100
AcDbEntity
  8
0
 62
7
100
AcDbPolyline
 90
33
 70
0
 10
513.177451
 20
259.198159
 30
0.0
 10
513.177451
 20
256.199548
 30
0.0
 10
517.798840
 20
256.199548
 30
0.0
 10
517.798840
 20
255.723298
 30
0.0
 10
517.754729
 20
255.723298
 30
0.0
 10
517.754729
 20
233.771701
 30
0.0
 10
517.798840
 20
233.771701
 30
0.0
 10
517.798840
 20
233.762896
 30
0.0
 10
517.693007
 20
233.762896
 30
0.0
 10
517.693007
 20
233.357201
 30
0.0
 10
516.281896
 20
233.357201
 30
0.0
 10
516.281896
 20
230.455601
 30
0.0
 10
510.752090
 20
230.455601
 30
0.0
 10
510.752090
 20
233.357201
 30
0.0
 10
509.340979
 20
233.357201
 30
0.0
 10
509.340979
 20
233.762896
 30
0.0
 10
509.340979
 20
233.859910
 30
0.0
 10
509.340979
 20
251.560535
 30
0.0
 10
506.492312
 20
251.560535
 30
0.0
 10
506.492312
 20
233.762896
 30
0.0
 10
506.492312
 20
233.392479
 30
0.0
 10
505.081201
 20
233.392479
 30
0.0
 10
505.081201
 20
230.490879
 30
0.0
 10
500.944868
 20
230.490879
 30
0.0
 10
500.944868
 20
233.392479
 30
0.0
 10
499.533757
 20
233.392479
 30
0.0
 10
499.533757
 20
233.701160
 30
0.0
 10
499.507228
 20
233.701160
 30
0.0
 10
499.507228
 20
256.199562
 30
0.0
 10
507.091950
 20
256.199562
 30
0.0
 10
507.091950
 20
259.198173
 30
0.0
 10
513.177367
 20
259.198173
 30
0.0
 10
513.177451
 20
259.198159
 30
0.0
  0
SPLINE
  5
114
100
AcDbEntity
  8
0
 62
7
100
AcDbSpline
 70
0
 71
3
 72
19
 73
15
 74
13
 40
0.000000
 40
0.000000
 40
0.000000
 40
0.000000
 40
0.664030
 40
1.308366
 40
1.972397
 40
2.636428
 40
3.280764
 40
3.944794
 40
4.608826
 40
5.253162
 40
5.917193
 40
6.581224
 40
7.225561
 40
7.889592
 40
7.889592
 40
7.889592
 40
7.889592
 10
560.151053
 20
245.166424
 30
0.0
 10
560.374932
 20
245.131518
 30
0.0
 10
560.816052
 20
245.062742
 30
0.0
 10
561.301689
 20
244.557135
 30
0.0
 10
561.481632
 20
243.897590
 30
0.0
 10
561.301689
 20
243.231122
 30
0.0
 10
560.816052
 20
242.745877
 30
0.0
 10
560.151052
 20
242.565801
 30
0.0
 10
559.486052
 20
242.745877
 30
0.0
 10
559.000415
 20
243.231122
 30
0.0
 10
558.820472
 20
243.897590
 30
0.0
 10
559.000415
 20
244.557135
 30
0.0
 10
559.486052
 20
245.062743
 30
0.0
 10
559.927172
 20
245.131519
 30
0.0
 10
560.151053
 20
245.166424
 30
0.0
 11
560.151053
 21
245.166424
 31
0.0
 11
560.792045
 21
244.993032
 31
0.0
 11
561.247660
 21
244.537418
 31
0.0
 11
561.421052
 21
243.896425
 31
0.0
 11
561.247660
 21
243.255431
 31
0.0
 11
560.792045
 21
242.799818
 31
0.0
 11
560.151053
 21
242.626426
 31
0.0
 11
559.510059
 21
242.799818
 31
0.0
 11
559.054444
 21
243.255431
 31
0.0
 11
558.881052
 21
243.896425
 31
0.0
 11
559.054444
 21
244.537418
 31
0.0
 11
559.510059
 21
244.993032
 31
0.0
 11
560.151053
 21
245.166424
 31
0.0
  0
LWPOLYLINE
  5
115
100
AcDbEntity
  8
0
 62
7
100
AcDbPolyline
 90
42
 70
0
 10
521.227219
 20
216.231183
 30
0.0
 10
524.225830
 20
216.231183
 30
0.0
 10
524.225830
 20
212.862167
 30
0.0
 10
532.524942
 20
212.862167
 30
0.0
 10
532.524942
 20
212.870916
 30
0.0
 10
538.433970
 20
212.870916
 30
0.0
 10
538.433970
 20
212.862167
 30
0.0
 10
546.733053
 20
212.862167
 30
0.0
 10
546.733053
 20
216.231183
 30
0.0
 10
549.731664
 20
216.231183
 30
0.0
 10
549.731664
 20
222.316600
 30
0.0
 10
546.733053
 20
222.316600
 30
0.0
 10
546.733053
 20
228.631322
 30
0.0
 10
549.731664
 20
228.631322
 30
0.0
 10
549.731664
 20
234.716739
 30
0.0
 10
546.733053
 20
234.716739
 30
0.0
 10
546.733053
 20
241.031461
 30
0.0
 10
549.731664
 20
241.031461
 30
0.0
 10
549.731664
 20
247.116869
 30
0.0
 10
546.733053
 20
247.116869
 30
0.0
 10
546.733053
 20
253.431592
 30
0.0
 10
549.731664
 20
253.431592
 30
0.0
 10
549.731664
 20
259.517008
 30
0.0
 10
546.733053
 20
259.517008
 30
0.0
 10
546.733053
 20
262.859578
 30
0.0
 10
524.225830
 20
262.859578
 30
0.0
 10
524.225830
 20
259.517008
 30
0.0
 10
521.227219
 20
259.517008
 30
0.0
 10
521.227219
 20
253.431592
 30
0.0
 10
524.225830
 20
253.431592
 30
0.0
 10
524.225830
 20
247.116869
 30
0.0
 10
521.227219
 20
247.116869
 30
0.0
 10
521.227219
 20
241.031461
 30
0.0
 10
524.225830
 20
241.031461
 30
0.0
 10
524.225830
 20
234.716739
 30
0.0
 10
521.227219
 20
234.716739
 30
0.0
 10
521.227219
 20
228.631322
 30
0.0
 10
524.225830
 20
228.631322
 30
0.0
 10
524.225830
 20
222.316600
 30
0.0
 10
521.227219
 20
222.316600
 30
0.0
 10
521.227219
 20
216.231183
 30
0.0
 10
521.227219
 20
216.231183
 30
0.0
  0
SPLINE
  5
116
100
AcDbEntity
  8
0
 62
7
100
AcDbSpline
 70
0
 71
3
 72
25
 73
21
 74
19
 40
0.000000
 40
0.000000
 40
0.000000
 40
0.000000
 40
1.256483
 40
2.494979
 40
3.751462
 40
5.007945
 40
6.246441
 40
7.502924
 40
8.759407
 40
9.997902
 40
11.254386
 40
12.510869
 40
13.749364
 40
15.005848
 40
16.262331
 40
17.500826
 40
18.757310
 40
20.013793
 40
21.252288
 40
22.508771
 40
22.508771
 40
22.508771
 40
22.508771
 10
535.479429
 20
227.380858
 30
0.0
 10
535.900405
 20
227.337943
 30
0.0
 10
536.736330
 20
227.252726
 30
0.0
 10
537.841114
 20
226.590162
 30
0.0
 10
538.662518
 20
225.619874
 30
0.0
 10
539.098173
 20
224.418258
 30
0.0
 10
539.098173
 20
223.143183
 30
0.0
 10
538.662518
 20
221.943246
 30
0.0
 10
537.841114
 20
220.966254
 30
0.0
 10
536.736330
 20
220.328598
 30
0.0
 10
535.479429
 20
220.106456
 30
0.0
 10
534.222527
 20
220.328598
 30
0.0
 10
533.117743
 20
220.966254
 30
0.0
 10
532.296340
 20
221.943246
 30
0.0
 10
531.860685
 20
223.143183
 30
0.0
 10
531.860685
 20
224.418258
 30
0.0
 10
532.296340
 20
225.619874
 30
0.0
 10
533.117743
 20
226.590162
 30
0.0
 10
534.222527
 20
227.252726
 30
0.0
 10
535.058453
 20
227.337943
 30
0.0
 10
535.479429
 20
227.380858
 30
0.0
 11
535.479429
 21
227.380858
 31
0.0
 11
536.716699
 21
227.161967
 31
0.0
 11
537.789377
 21
226.542910
 31
0.0
 11
538.597918
 21
225.581135
 31
0.0
 11
539.026779
 21
224.400106
 31
0.0
 11
539.026779
 21
223.161610
 31
0.0
 11
538.597918
 21
221.980582
 31
0.0
 11
537.789377
 21
221.018807
 31
0.0
 11
536.716699
 21
220.399749
 31
0.0
 11
535.479429
 21
220.180858
 31
0.0
 11
534.242159
 21
220.399749
 31
0.0
 11
533.169481
 21
221.018807
 31
0.0
 11
532.360940
 21
221.980582
 31
0.0
 11
531.932079
 21
223.161610
 31
0.0
 11
531.932079
 21
224.400106
 31
0.0
 11
532.360940
 21
225.581135
 31
0.0
 11
533.169481
 21
226.542910
 31
0.0
 11
534.242159
 21
227.161967
 31
0.0
 11
535.479429
 21
227.380858
 31
0.0
  0
LWPOLYLINE
  5
117
100
AcDbEntity
  8
0
 62
7
100
AcDbPolyline
 90
2
 70
0
 10
535.479429
 20
227.380858
 30
0.0
 10
535.479429
 20
227.380858
 30
0.0
  0
LWPOLYLINE
  5
118
100
AcDbEntity
  8
0
 62
7
100
AcDbPolyline
 90
2
 70
0
 10
535.479429
 20
237.210872
 30
0.0
 10
535.479429
 20
237.210872
 30
0.0
  0
SPLINE
  5
119
100
AcDbEntity
  8
0
 62
7
100
AcDbSpline
 70
0
 71
3
 72
25
 73
21
 74
19
 40
0.000000
 40
0.000000
 40
0.000000
 40
0.000000
 40
0.698046
 40
1.386099
 40
2.084146
 40
2.782192
 40
3.470245
 40
4.168291
 40
4.866338
 40
5.554391
 40
6.252437
 40
6.950483
 40
7.638536
 40
8.336582
 40
9.034629
 40
9.722682
 40
10.420728
 40
11.118774
 40
11.806827
 40
12.504874
 40
12.504874
 40
12.504874
 40
12.504874
 10
535.479429
 20
237.210872
 30
0.0
 10
535.713304
 20
237.187030
 30
0.0
 10
536.177707
 20
237.139687
 30
0.0
 10
536.791476
 20
236.771596
 30
0.0
 10
537.247811
 20
236.232547
 30
0.0
 10
537.489842
 20
235.564983
 30
0.0
 10
537.489842
 20
234.856608
 30
0.0
 10
537.247811
 20
234.189976
 30
0.0
 10
536.791476
 20
233.647203
 30
0.0
 10
536.177707
 20
233.292949
 30
0.0
 10
535.479429
 20
233.169537
 30
0.0
 10
534.781150
 20
233.292949
 30
0.0
 10
534.167381
 20
233.647203
 30
0.0
 10
533.711046
 20
234.189976
 30
0.0
 10
533.469015
 20
234.856608
 30
0.0
 10
533.469015
 20
235.564983
 30
0.0
 10
533.711046
 20
236.232547
 30
0.0
 10
534.167381
 20
236.771596
 30
0.0
 10
534.781150
 20
237.139687
 30
0.0
 10
535.245553
 20
237.187030
 30
0.0
 10
535.479429
 20
237.210872
 30
0.0
 11
535.479429
 21
237.210872
 31
0.0
 11
536.166801
 21
237.089266
 31
0.0
 11
536.762733
 21
236.745345
 31
0.0
 11
537.211923
 21
236.211025
 31
0.0
 11
537.450179
 21
235.554898
 31
0.0
 11
537.450179
 21
234.866845
 31
0.0
 11
537.211923
 21
234.210718
 31
0.0
 11
536.762733
 21
233.676398
 31
0.0
 11
536.166801
 21
233.332478
 31
0.0
 11
535.479429
 21
233.210872
 31
0.0
 11
534.792056
 21
233.332478
 31
0.0
 11
534.196124
 21
233.676398
 31
0.0
 11
533.746934
 21
234.210718
 31
0.0
 11
533.508678
 21
234.866845
 31
0.0
 11
533.508678
 21
235.554898
 31
0.0
 11
533.746934
 21
236.211025
 31
0.0
 11
534.196124
 21
236.745345
 31
0.0
 11
534.792056
 21
237.089266
 31
0.0
 11
535.479429
 21
237.210872
 31
0.0
  0
LWPOLYLINE
  5
11a
100
AcDbEntity
  8
0
 62
7
100
AcDbPolyline
 90
5
 70
0
 10
532.994193
 20
253.960860
 30
0.0
 10
532.994193
 20
256.460860
 30
0.0
 10
538.394193
 20
256.460860
 30
0.0
 10
538.394193
 20
253.960860
 30
0.0
 10
532.994193
 20
253.960860
 30
0.0
  0
SPLINE
  5
11b
100
AcDbEntity
  8
0
 62
7
100
AcDbSpline
 70
0
 71
3
 72
25
 73
21
 74
19
 40
0.000000
 40
0.000000
 40
0.000000
 40
0.000000
 40
0.443494
 40
0.880633
 40
1.324127
 40
1.767621
 40
2.204760
 40
2.648254
 40
3.091749
 40
3.528888
 40
3.972382
 40
4.415876
 40
4.853015
 40
5.296509
 40
5.740003
 40
6.177142
 40
6.620636
 40
7.064130
 40
7.501269
 40
7.944763
 40
7.944763
 40
7.944763
 40
7.944763
 10
544.189433
 20
245.300865
 30
0.0
 10
544.338036
 20
245.285833
 30
0.0
 10
544.633113
 20
245.255984
 30
0.0
 10
545.023201
 20
245.022331
 30
0.0
 10
545.313258
 20
244.679957
 30
0.0
 10
545.467110
 20
244.255849
 30
0.0
 10
545.467110
 20
243.805787
 30
0.0
 10
545.313258
 20
243.382267
 30
0.0
 10
545.023201
 20
243.037545
 30
0.0
 10
544.633113
 20
242.812616
 30
0.0
 10
544.189433
 20
242.734806
 30
0.0
 10
543.745753
 20
242.812616
 30
0.0
 10
543.355665
 20
243.037545
 30
0.0
 10
543.065608
 20
243.382267
 30
0.0
 10
542.911756
 20
243.805787
 30
0.0
 10
542.911756
 20
244.255849
 30
0.0
 10
543.065608
 20
244.679957
 30
0.0
 10
543.355665
 20
245.022331
 30
0.0
 10
543.745753
 20
245.255984
 30
0.0
 10
544.040830
 20
245.285833
 30
0.0
 10
544.189433
 20
245.300865
 30
0.0
 11
544.189433
 21
245.300865
 31
0.0
 11
544.626203
 21
245.223928
 31
0.0
 11
545.004936
 21
245.005636
 31
0.0
 11
545.290449
 21
244.666269
 31
0.0
 11
545.441898
 21
244.249436
 31
0.0
 11
545.441898
 21
243.812297
 31
0.0
 11
545.290449
 21
243.395463
 31
0.0
 11
545.004936
 21
243.056097
 31
0.0
 11
544.626203
 21
242.837805
 31
0.0
 11
544.189433
 21
242.760867
 31
0.0
 11
543.752663
 21
242.837805
 31
0.0
 11
543.373930
 21
243.056097
 31
0.0
 11
543.088417
 21
243.395463
 31
0.0
 11
542.936968
 21
243.812297
 31
0.0
 11
542.936968
 21
244.249436
 31
0.0
 11
543.088417
 21
244.666269
 31
0.0
 11
543.373930
 21
245.005636
 31
0.0
 11
543.752663
 21
245.223928
 31
0.0
 11
544.189433
 21
245.300865
 31
0.0
  0
LWPOLYLINE
  5
11c
100
AcDbEntity
  8
0
 62
7
100
AcDbPolyline
 90
2
 70
0
 10
544.189433
 20
245.300865
 30
0.0
 10
544.189433
 20
245.300865
 30
0.0
  0
LWPOLYLINE
  5
11d
100
AcDbEntity
  8
0
 62
7
100
AcDbPolyline
 90
2
 70
0
 10
526.769436
 20
245.300865
 30
0.0
 10
526.769436
 20
245.300865
 30
0.0
  0
LWPOLYLINE
  5
11e
100
AcDbEntity
  8
newlayer
 62
7
100
AcDbPolyline
 90
61
 70
0
 10
754.292426
 20
211.657115
 30
0.0
 10
757.292420
 20
211.657115
 30
0.0
 10
757.292420
 20
221.567114
 30
0.0
 10
754.292426
 20
221.567114
 30
0.0
 10
754.292426
 20
236.990448
 30
0.0
 10
757.292420
 20
236.990448
 30
0.0
 10
757.292420
 20
246.900447
 30
0.0
 10
754.292426
 20
246.900447
 30
0.0
 10
754.292426
 20
259.278782
 30
0.0
 10
764.747433
 20
259.278782
 30
0.0
 10
764.747433
 20
262.278781
 30
0.0
 10
774.837442
 20
262.278781
 30
0.0
 10
774.837442
 20
259.278782
 30
0.0
 10
785.247435
 20
259.278782
 30
0.0
 10
785.247435
 20
262.278781
 30
0.0
 10
795.337444
 20
262.278781
 30
0.0
 10
795.337444
 20
259.278782
 30
0.0
 10
805.747436
 20
259.278782
 30
0.0
 10
805.747436
 20
262.278781
 30
0.0
 10
815.837417
 20
262.278781
 30
0.0
 10
815.837417
 20
259.278782
 30
0.0
 10
826.247437
 20
259.278782
 30
0.0
 10
826.247437
 20
262.278781
 30
0.0
 10
836.337418
 20
262.278781
 30
0.0
 10
836.337418
 20
259.278782
 30
0.0
 10
846.747439
 20
259.278782
 30
0.0
 10
846.747439
 20
262.278781
 30
0.0
 10
856.837419
 20
262.278781
 30
0.0
 10
856.837419
 20
259.278782
 30
0.0
 10
867.292426
 20
259.278782
 30
0.0
 10
867.292426
 20
246.900447
 30
0.0
 10
864.292432
 20
246.900447
 30
0.0
 10
864.292432
 20
236.990448
 30
0.0
 10
867.292426
 20
236.990448
 30
0.0
 10
867.292426
 20
221.567114
 30
0.0
 10
864.292432
 20
221.567114
 30
0.0
 10
864.292432
 20
211.657115
 30
0.0
 10
867.292426
 20
211.657115
 30
0.0
 10
867.292426
 20
199.278780
 30
0.0
 10
856.837419
 20
199.278780
 30
0.0
 10
856.837419
 20
196.278781
 30
0.0
 10
846.747439
 20
196.278781
 30
0.0
 10
846.747439
 20
199.278780
 30
0.0
 10
836.337418
 20
199.278780
 30
0.0
 10
836.337418
 20
196.278781
 30
0.0
 10
826.247437
 20
196.278781
 30
0.0
 10
826.247437
 20
199.278780
 30
0.0
 10
815.837417
 20
199.278780
 30
0.0
 10
815.837417
 20
196.278781
 30
0.0
 10
805.747436
 20
196.278781
 30
0.0
 10
805.747436
 20
199.278780
 30
0.0
 10
795.337444
 20
199.278780
 30
0.0
 10
795.337444
 20
196.278781
 30
0.0
 10
785.247435
 20
196.278781
 30
0.0
 10
785.247435
 20
199.278780
 30
0.0
 10
774.837442
 20
199.278780
 30
0.0
 10
774.837442
 20
196.278781
 30
0.0
 10
764.747433
 20
196.278781
 30
0.0
 10
764.747433
 20
199.278780
 30
0.0
 10
754.292426
 20
199.278780
 30
0.0
 10
754.292426
 20
211.657115
 30
0.0
  0
LWPOLYLINE
  5
11f
100
AcDbEntity
  8
newlayer
 62
7
100
AcDbPolyline
 90
54
 70
0
 10
790.375328
 20
399.260606
 30
0.0
 10
790.375328
 20
396.261995
 30
0.0
 10
778.089828
 20
396.261995
 30
0.0
 10
778.089828
 20
386.975120
 30
0.0
 10
775.091216
 20
386.975120
 30
0.0
 10
775.091216
 20
376.885675
 30
0.0
 10
778.089828
 20
376.885675
 30
0.0
 10
778.089828
 20
364.635467
 30
0.0
 10
775.091216
 20
364.635467
 30
0.0
 10
775.091216
 20
354.546023
 30
0.0
 10
778.089828
 20
354.546023
 30
0.0
 10
778.089828
 20
342.304634
 30
0.0
 10
775.091216
 20
342.304634
 30
0.0
 10
775.091216
 20
332.215187
 30
0.0
 10
778.089828
 20
332.215187
 30
0.0
 10
778.089828
 20
319.973798
 30
0.0
 10
775.091216
 20
319.973798
 30
0.0
 10
775.091216
 20
309.884354
 30
0.0
 10
778.089828
 20
309.884354
 30
0.0
 10
778.089828
 20
297.642965
 30
0.0
 10
775.091216
 20
297.642965
 30
0.0
 10
775.091216
 20
287.553521
 30
0.0
 10
778.089828
 20
287.553521
 30
0.0
 10
778.089828
 20
278.257827
 30
0.0
 10
790.375328
 20
278.257827
 30
0.0
 10
790.375328
 20
275.259216
 30
0.0
 10
800.464772
 20
275.259216
 30
0.0
 10
800.464772
 20
278.257827
 30
0.0
 10
815.713578
 20
278.257827
 30
0.0
 10
815.713578
 20
275.259216
 30
0.0
 10
825.803022
 20
275.259216
 30
0.0
 10
825.803022
 20
278.257827
 30
0.0
 10
838.088522
 20
278.257827
 30
0.0
 10
838.088522
 20
287.553521
 30
0.0
 10
841.087133
 20
287.553521
 30
0.0
 10
841.087133
 20
297.642965
 30
0.0
 10
841.087133
 20
309.884354
 30
0.0
 10
841.087133
 20
319.973798
 30
0.0
 10
841.087133
 20
332.215187
 30
0.0
 10
841.087133
 20
342.304634
 30
0.0
 10
841.087133
 20
354.546023
 30
0.0
 10
841.087133
 20
364.635467
 30
0.0
 10
841.087133
 20
376.885675
 30
0.0
 10
841.087133
 20
386.975120
 30
0.0
 10
838.088522
 20
386.975120
 30
0.0
 10
838.088522
 20
396.261995
 30
0.0
 10
825.803022
 20
396.261995
 30
0.0
 10
825.803022
 20
399.260606
 30
0.0
 10
815.713578
 20
399.260606
 30
0.0
 10
815.713578
 20
396.261995
 30
0.0
 10
800.464772
 20
396.261995
 30
0.0
 10
800.464772
 20
399.260606
 30
0.0
 10
790.375328
 20
399.260606
 30
0.0
 10
790.375328
 20
399.260606
 30
0.0
  0
LWPOLYLINE
  5
120
100
AcDbEntity
  8
newlayer
 62
7
100
AcDbPolyline
 90
94
 70
0
 10
474.336195
 20
389.568889
 30
0.0
 10
474.336195
 20
377.195208
 30
0.0
 10
477.334806
 20
377.195208
 30
0.0
 10
477.334806
 20
367.290972
 30
0.0
 10
487.847584
 20
367.290972
 30
0.0
 10
487.847584
 20
363.339861
 30
0.0
 10
490.810917
 20
363.339861
 30
0.0
 10
490.810917
 20
357.430833
 30
0.0
 10
487.847584
 20
357.430833
 30
0.0
 10
487.847584
 20
350.939722
 30
0.0
 10
490.810917
 20
350.939722
 30
0.0
 10
490.810917
 20
345.030694
 30
0.0
 10
487.847584
 20
345.030694
 30
0.0
 10
487.847584
 20
338.539583
 30
0.0
 10
490.810917
 20
338.539583
 30
0.0
 10
490.810917
 20
332.630556
 30
0.0
 10
487.847584
 20
332.630556
 30
0.0
 10
487.847584
 20
326.139444
 30
0.0
 10
490.810917
 20
326.139444
 30
0.0
 10
490.810917
 20
320.230417
 30
0.0
 10
487.847584
 20
320.230417
 30
0.0
 10
487.847584
 20
287.669028
 30
0.0
 10
477.334806
 20
287.669028
 30
0.0
 10
477.334806
 20
277.950000
 30
0.0
 10
474.336195
 20
277.950000
 30
0.0
 10
474.336195
 20
265.567500
 30
0.0
 10
484.884250
 20
265.567500
 30
0.0
 10
484.884250
 20
268.566111
 30
0.0
 10
494.797306
 20
268.566111
 30
0.0
 10
494.797306
 20
265.567500
 30
0.0
 10
505.380639
 20
265.567500
 30
0.0
 10
505.380639
 20
268.566111
 30
0.0
 10
515.293695
 20
268.566111
 30
0.0
 10
515.293695
 20
265.567500
 30
0.0
 10
525.885833
 20
265.567500
 30
0.0
 10
525.885833
 20
268.566111
 30
0.0
 10
535.790084
 20
268.566111
 30
0.0
 10
535.790084
 20
265.567500
 30
0.0
 10
546.382222
 20
265.567500
 30
0.0
 10
546.382222
 20
268.566111
 30
0.0
 10
556.295278
 20
268.566111
 30
0.0
 10
556.295278
 20
265.567500
 30
0.0
 10
566.887416
 20
265.567500
 30
0.0
 10
566.887416
 20
268.566111
 30
0.0
 10
576.791667
 20
268.566111
 30
0.0
 10
576.791667
 20
265.567500
 30
0.0
 10
587.339722
 20
265.567500
 30
0.0
 10
587.339722
 20
277.950000
 30
0.0
 10
584.341111
 20
277.950000
 30
0.0
 10
584.341111
 20
287.766042
 30
0.0
 10
573.925361
 20
287.766042
 30
0.0
 10
573.925361
 20
320.230417
 30
0.0
 10
571.067861
 20
320.230417
 30
0.0
 10
571.067861
 20
326.139444
 30
0.0
 10
573.925361
 20
326.139444
 30
0.0
 10
573.925361
 20
332.630556
 30
0.0
 10
571.067861
 20
332.630556
 30
0.0
 10
571.067861
 20
338.539583
 30
0.0
 10
573.925361
 20
338.539583
 30
0.0
 10
573.925361
 20
345.030694
 30
0.0
 10
571.067861
 20
345.030694
 30
0.0
 10
571.067861
 20
350.939722
 30
0.0
 10
573.925361
 20
350.939722
 30
0.0
 10
573.925361
 20
357.430833
 30
0.0
 10
571.067861
 20
357.430833
 30
0.0
 10
571.067861
 20
363.339861
 30
0.0
 10
573.925361
 20
363.339861
 30
0.0
 10
573.925361
 20
367.396806
 30
0.0
 10
584.341111
 20
367.396806
 30
0.0
 10
584.341111
 20
377.195208
 30
0.0
 10
587.339722
 20
377.195208
 30
0.0
 10
587.339722
 20
389.568889
 30
0.0
 10
576.791667
 20
389.568889
 30
0.0
 10
576.791667
 20
386.570278
 30
0.0
 10
566.887416
 20
386.570278
 30
0.0
 10
566.887416
 20
389.568889
 30
0.0
 10
556.295278
 20
389.568889
 30
0.0
 10
556.295278
 20
386.570278
 30
0.0
 10
546.382222
 20
386.570278
 30
0.0
 10
546.382222
 20
389.568889
 30
0.0
 10
535.790084
 20
389.568889
 30
0.0
 10
535.790084
 20
386.570278
 30
0.0
 10
525.885833
 20
386.570278
 30
0.0
 10
525.885833
 20
389.568889
 30
0.0
 10
515.293695
 20
389.568889
 30
0.0
 10
515.293695
 20
386.570278
 30
0.0
 10
505.380639
 20
386.570278
 30
0.0
 10
505.380639
 20
389.568889
 30
0.0
 10
494.797306
 20
389.568889
 30
0.0
 10
494.797306
 20
386.570278
 30
0.0
 10
484.884250
 20
386.570278
 30
0.0
 10
484.884250
 20
389.568889
 30
0.0
 10
474.336195
 20
389.568889
 30
0.0
 10
474.336195
 20
389.568889
 30
0.0
  0
LWPOLYLINE
  5
121
100
AcDbEntity
  8
newlayer
 62
7
100
AcDbPolyline
 90
6
 70
0
 10
492.224850
 20
316.729971
 30
0.0
 10
492.224850
 20
313.837193
 30
0.0
 10
497.860489
 20
313.837193
 30
0.0
 10
497.860489
 20
316.729971
 30
0.0
 10
492.224850
 20
316.729971
 30
0.0
 10
492.224850
 20
316.729971
 30
0.0
  0
LWPOLYLINE
  5
122
100
AcDbEntity
  8
newlayer
 62
7
100
AcDbPolyline
 90
6
 70
0
 10
503.531378
 20
316.782888
 30
0.0
 10
503.531378
 20
313.784277
 30
0.0
 10
507.729434
 20
313.784277
 30
0.0
 10
507.729434
 20
316.782888
 30
0.0
 10
503.531378
 20
316.782888
 30
0.0
 10
503.531378
 20
316.782888
 30
0.0
  0
LWPOLYLINE
  5
123
100
AcDbEntity
  8
newlayer
 62
7
100
AcDbPolyline
 90
6
 70
0
 10
553.965505
 20
316.782888
 30
0.0
 10
553.965505
 20
313.784277
 30
0.0
 10
558.163561
 20
313.784277
 30
0.0
 10
558.163561
 20
316.782888
 30
0.0
 10
553.965505
 20
316.782888
 30
0.0
 10
553.965505
 20
316.782888
 30
0.0
  0
LWPOLYLINE
  5
124
100
AcDbEntity
  8
newlayer
 62
7
100
AcDbPolyline
 90
6
 70
0
 10
563.834449
 20
316.985735
 30
0.0
 10
563.834449
 20
313.581429
 30
0.0
 10
569.364255
 20
313.581429
 30
0.0
 10
569.364255
 20
316.985735
 30
0.0
 10
563.834449
 20
316.985735
 30
0.0
 10
563.834449
 20
316.985735
 30
0.0
  0
SPLINE
  5
125
100
AcDbEntity
  8
0
 62
7
100
AcDbSpline
 70
0
 71
3
 72
25
 73
21
 74
19
 40
0.000000
 40
0.000000
 40
0.000000
 40
0.000000
 40
0.443494
 40
0.880633
 40
1.324127
 40
1.767621
 40
2.204760
 40
2.648254
 40
3.091749
 40
3.528888
 40
3.972382
 40
4.415876
 40
4.853015
 40
5.296509
 40
5.740003
 40
6.177142
 40
6.620636
 40
7.064130
 40
7.501269
 40
7.944763
 40
7.944763
 40
7.944763
 40
7.944763
 10
526.769436
 20
245.300865
 30
0.0
 10
526.918039
 20
245.285833
 30
0.0
 10
527.213115
 20
245.255984
 30
0.0
 10
527.603204
 20
245.022331
 30
0.0
 10
527.893261
 20
244.679957
 30
0.0
 10
528.047113
 20
244.255849
 30
0.0
 10
528.047113
 20
243.805787
 30
0.0
 10
527.893261
 20
243.382267
 30
0.0
 10
527.603204
 20
243.037545
 30
0.0
 10
527.213115
 20
242.812616
 30
0.0
 10
526.769436
 20
242.734806
 30
0.0
 10
526.325756
 20
242.812616
 30
0.0
 10
525.935668
 20
243.037545
 30
0.0
 10
525.645610
 20
243.382267
 30
0.0
 10
525.491758
 20
243.805787
 30
0.0
 10
525.491758
 20
244.255849
 30
0.0
 10
525.645610
 20
244.679957
 30
0.0
 10
525.935668
 20
245.022331
 30
0.0
 10
526.325756
 20
245.255984
 30
0.0
 10
526.620833
 20
245.285833
 30
0.0
 10
526.769436
 20
245.300865
 30
0.0
 11
526.769436
 21
245.300865
 31
0.0
 11
527.206205
 21
245.223928
 31
0.0
 11
527.584939
 21
245.005636
 31
0.0
 11
527.870451
 21
244.666269
 31
0.0
 11
528.021901
 21
244.249436
 31
0.0
 11
528.021901
 21
243.812297
 31
0.0
 11
527.870451
 21
243.395463
 31
0.0
 11
527.584939
 21
243.056097
 31
0.0
 11
527.206205
 21
242.837805
 31
0.0
 11
526.769436
 21
242.760867
 31
0.0
 11
526.332666
 21
242.837805
 31
0.0
 11
525.953933
 21
243.056097
 31
0.0
 11
525.668420
 21
243.395463
 31
0.0
 11
525.516971
 21
243.812297
 31
0.0
 11
525.516971
 21
244.249436
 31
0.0
 11
525.668420
 21
244.666269
 31
0.0
 11
525.953933
 21
245.005636
 31
0.0
 11
526.332666
 21
245.223928
 31
0.0
 11
526.769436
 21
245.300865
 31
0.0
  0
LWPOLYLINE
  5
126
100
AcDbEntity
  8
newlayer
 62
7
100
AcDbPolyline
 90
24
 70
0
 10
594.285437
 20
386.068385
 30
0.0
 10
594.285437
 20
368.852830
 30
0.0
 10
594.285437
 20
358.216580
 30
0.0
 10
601.041131
 20
358.216580
 30
0.0
 10
601.041131
 20
355.217968
 30
0.0
 10
610.557326
 20
355.217968
 30
0.0
 10
610.557326
 20
358.216580
 30
0.0
 10
620.099937
 20
358.216580
 30
0.0
 10
620.099937
 20
355.217968
 30
0.0
 10
629.616131
 20
355.217968
 30
0.0
 10
629.616131
 20
358.216580
 30
0.0
 10
639.158770
 20
358.216580
 30
0.0
 10
639.158770
 20
355.217968
 30
0.0
 10
648.683770
 20
355.217968
 30
0.0
 10
648.683770
 20
358.216580
 30
0.0
 10
658.217604
 20
358.216580
 30
0.0
 10
658.217604
 20
355.217968
 30
0.0
 10
667.742604
 20
355.217968
 30
0.0
 10
667.742604
 20
358.216580
 30
0.0
 10
674.489465
 20
358.216580
 30
0.0
 10
674.489465
 20
368.852830
 30
0.0
 10
674.489465
 20
386.068385
 30
0.0
 10
594.285437
 20
386.068385
 30
0.0
 10
594.285437
 20
386.068385
 30
0.0
  0
SPLINE
  5
127
100
AcDbEntity
  8
newlayer
 62
7
100
AcDbSpline
 70
0
 71
3
 72
19
 73
15
 74
13
 40
0.000000
 40
0.000000
 40
0.000000
 40
0.000000
 40
0.836574
 40
1.648335
 40
2.484915
 40
3.321495
 40
4.133256
 40
4.969830
 40
5.806404
 40
6.618165
 40
7.454745
 40
8.291325
 40
9.103086
 40
9.939660
 40
9.939660
 40
9.939660
 40
9.939660
 10
662.105892
 20
281.890000
 30
0.0
 10
662.061917
 20
281.607947
 30
0.0
 10
661.975271
 20
281.052206
 30
0.0
 10
661.338284
 20
280.440377
 30
0.0
 10
660.507358
 20
280.213679
 30
0.0
 10
659.667709
 20
280.440377
 30
0.0
 10
659.056375
 20
281.052206
 30
0.0
 10
658.829511
 20
281.890000
 30
0.0
 10
659.056375
 20
282.727795
 30
0.0
 10
659.667709
 20
283.339623
 30
0.0
 10
660.507358
 20
283.566320
 30
0.0
 10
661.338284
 20
283.339623
 30
0.0
 10
661.975271
 20
282.727795
 30
0.0
 10
662.061917
 20
282.172054
 30
0.0
 10
662.105892
 20
281.890000
 30
0.0
 11
662.105892
 21
281.890000
 31
0.0
 11
661.887447
 21
281.082450
 31
0.0
 11
661.313446
 21
280.508447
 31
0.0
 11
660.505890
 21
280.290000
 31
0.0
 11
659.698334
 21
280.508447
 31
0.0
 11
659.124333
 21
281.082450
 31
0.0
 11
658.905887
 21
281.890000
 31
0.0
 11
659.124333
 21
282.697551
 31
0.0
 11
659.698334
 21
283.271553
 31
0.0
 11
660.505890
 21
283.490000
 31
0.0
 11
661.313446
 21
283.271553
 31
0.0
 11
661.887447
 21
282.697551
 31
0.0
 11
662.105892
 21
281.890000
 31
0.0
  0
LWPOLYLINE
  5
128
100
AcDbEntity
  8
newlayer
 62
7
100
AcDbPolyline
 90
2
 70
0
 10
662.105892
 20
281.890000
 30
0.0
 10
662.105892
 20
281.890000
 30
0.0
  0
SPLINE
  5
129
100
AcDbEntity
  8
newlayer
 62
7
100
AcDbSpline
 70
0
 71
3
 72
19
 73
15
 74
13
 40
0.000000
 40
0.000000
 40
0.000000
 40
0.000000
 40
0.836574
 40
1.648335
 40
2.484915
 40
3.321482
 40
4.133248
 40
4.969824
 40
5.806400
 40
6.618165
 40
7.454733
 40
8.291312
 40
9.103074
 40
9.939648
 40
9.939648
 40
9.939648
 40
9.939648
 10
613.875892
 20
281.890000
 30
0.0
 10
613.831917
 20
281.607947
 30
0.0
 10
613.745271
 20
281.052205
 30
0.0
 10
613.108284
 20
280.440378
 30
0.0
 10
612.277362
 20
280.213678
 30
0.0
 10
611.437718
 20
280.440382
 30
0.0
 10
610.826383
 20
281.052204
 30
0.0
 10
610.599507
 20
281.890000
 30
0.0
 10
610.826383
 20
282.727797
 30
0.0
 10
611.437718
 20
283.339618
 30
0.0
 10
612.277362
 20
283.566321
 30
0.0
 10
613.108284
 20
283.339623
 30
0.0
 10
613.745272
 20
282.727795
 30
0.0
 10
613.831917
 20
282.172054
 30
0.0
 10
613.875892
 20
281.890000
 30
0.0
 11
613.875892
 21
281.890000
 31
0.0
 11
613.657447
 21
281.082450
 31
0.0
 11
613.083446
 21
280.508447
 31
0.0
 11
612.275890
 21
280.290000
 31
0.0
 11
611.468347
 21
280.508447
 31
0.0
 11
610.894339
 21
281.082450
 31
0.0
 11
610.675888
 21
281.890000
 31
0.0
 11
610.894339
 21
282.697551
 31
0.0
 11
611.468347
 21
283.271553
 31
0.0
 11
612.275890
 21
283.490000
 31
0.0
 11
613.083446
 21
283.271553
 31
0.0
 11
613.657447
 21
282.697551
 31
0.0
 11
613.875892
 21
281.890000
 31
0.0
  0
LWPOLYLINE
  5
12a
100
AcDbEntity
  8
newlayer
 62
7
100
AcDbPolyline
 90
2
 70
0
 10
613.875892
 20
281.890000
 30
0.0
 10
613.875892
 20
281.890000
 30
0.0
  0
SPLINE
  5
12b
100
AcDbEntity
  8
newlayer
 62
7
100
AcDbSpline
 70
0
 71
3
 72
19
 73
15
 74
13
 40
0.000000
 40
0.000000
 40
0.000000
 40
0.000000
 40
0.758144
 40
1.493804
 40
2.251950
 40
3.010096
 40
3.745756
 40
4.503901
 40
5.262048
 40
5.997707
 40
6.755852
 40
7.513998
 40
8.249657
 40
9.007804
 40
9.007804
 40
9.007804
 40
9.007804
 10
522.287959
 20
361.032773
 30
0.0
 10
522.248106
 20
360.777163
 30
0.0
 10
522.169581
 20
360.273523
 30
0.0
 10
521.592313
 20
359.719055
 30
0.0
 10
520.839289
 20
359.513607
 30
0.0
 10
520.078360
 20
359.719055
 30
0.0
 10
519.524341
 20
360.273523
 30
0.0
 10
519.318741
 20
361.032774
 30
0.0
 10
519.524339
 20
361.792027
 30
0.0
 10
520.078361
 20
362.346494
 30
0.0
 10
520.839289
 20
362.551939
 30
0.0
 10
521.592312
 20
362.346494
 30
0.0
 10
522.169582
 20
361.792027
 30
0.0
 10
522.248106
 20
361.288385
 30
0.0
 10
522.287959
 20
361.032773
 30
0.0
 11
522.287959
 21
361.032773
 31
0.0
 11
522.089991
 21
360.300932
 31
0.0
 11
521.569802
 21
359.780742
 31
0.0
 11
520.837959
 21
359.582773
 31
0.0
 11
520.106116
 21
359.780742
 31
0.0
 11
519.585926
 21
360.300932
 31
0.0
 11
519.387958
 21
361.032773
 31
0.0
 11
519.585926
 21
361.764618
 31
0.0
 11
520.106116
 21
362.284807
 31
0.0
 11
520.837959
 21
362.482774
 31
0.0
 11
521.569802
 21
362.284807
 31
0.0
 11
522.089991
 21
361.764618
 31
0.0
 11
522.287959
 21
361.032773
 31
0.0
  0
LWPOLYLINE
  5
12c
100
AcDbEntity
  8
newlayer
 62
7
100
AcDbPolyline
 90
2
 70
0
 10
522.287959
 20
361.032773
 30
0.0
 10
522.287959
 20
361.032773
 30
0.0
  0
SPLINE
  5
12d
100
AcDbEntity
  8
newlayer
 62
7
100
AcDbSpline
 70
0
 71
3
 72
19
 73
15
 74
13
 40
0.000000
 40
0.000000
 40
0.000000
 40
0.000000
 40
0.758144
 40
1.493804
 40
2.251950
 40
3.010096
 40
3.745756
 40
4.503901
 40
5.262048
 40
5.997707
 40
6.755852
 40
7.513998
 40
8.249657
 40
9.007804
 40
9.007804
 40
9.007804
 40
9.007804
 10
542.287958
 20
361.032773
 30
0.0
 10
542.248105
 20
360.777163
 30
0.0
 10
542.169581
 20
360.273523
 30
0.0
 10
541.592312
 20
359.719055
 30
0.0
 10
540.839289
 20
359.513607
 30
0.0
 10
540.078360
 20
359.719055
 30
0.0
 10
539.524340
 20
360.273523
 30
0.0
 10
539.318741
 20
361.032774
 30
0.0
 10
539.524339
 20
361.792027
 30
0.0
 10
540.078360
 20
362.346494
 30
0.0
 10
540.839289
 20
362.551939
 30
0.0
 10
541.592312
 20
362.346494
 30
0.0
 10
542.169582
 20
361.792027
 30
0.0
 10
542.248105
 20
361.288385
 30
0.0
 10
542.287958
 20
361.032773
 30
0.0
 11
542.287958
 21
361.032773
 31
0.0
 11
542.089991
 21
360.300932
 31
0.0
 11
541.569801
 21
359.780742
 31
0.0
 11
540.837958
 21
359.582773
 31
0.0
 11
540.106115
 21
359.780742
 31
0.0
 11
539.585926
 21
360.300932
 31
0.0
 11
539.387958
 21
361.032773
 31
0.0
 11
539.585926
 21
361.764618
 31
0.0
 11
540.106115
 21
362.284807
 31
0.0
 11
540.837958
 21
362.482774
 31
0.0
 11
541.569801
 21
362.284807
 31
0.0
 11
542.089991
 21
361.764618
 31
0.0
 11
542.287958
 21
361.032773
 31
0.0
  0
LWPOLYLINE
  5
12e
100
AcDbEntity
  8
newlayer
 62
7
100
AcDbPolyline
 90
2
 70
0
 10
542.287958
 20
361.032773
 30
0.0
 10
542.287958
 20
361.032773
 30
0.0
  0
SPLINE
  5
12f
100
AcDbEntity
  8
newlayer
 62
7
100
AcDbSpline
 70
0
 71
3
 72
19
 73
15
 74
13
 40
0.000000
 40
0.000000
 40
0.000000
 40
0.000000
 40
0.758144
 40
1.493804
 40
2.251950
 40
3.010096
 40
3.745756
 40
4.503901
 40
5.262048
 40
5.997707
 40
6.755852
 40
7.513998
 40
8.249657
 40
9.007804
 40
9.007804
 40
9.007804
 40
9.007804
 10
522.287959
 20
294.103613
 30
0.0
 10
522.248106
 20
293.848002
 30
0.0
 10
522.169581
 20
293.344362
 30
0.0
 10
521.592313
 20
292.789894
 30
0.0
 10
520.839289
 20
292.584446
 30
0.0
 10
520.078360
 20
292.789894
 30
0.0
 10
519.524341
 20
293.344362
 30
0.0
 10
519.318741
 20
294.103614
 30
0.0
 10
519.524339
 20
294.862866
 30
0.0
 10
520.078361
 20
295.417333
 30
0.0
 10
520.839289
 20
295.622778
 30
0.0
 10
521.592312
 20
295.417333
 30
0.0
 10
522.169582
 20
294.862866
 30
0.0
 10
522.248106
 20
294.359224
 30
0.0
 10
522.287959
 20
294.103613
 30
0.0
 11
522.287959
 21
294.103613
 31
0.0
 11
522.089991
 21
293.371771
 31
0.0
 11
521.569802
 21
292.851581
 31
0.0
 11
520.837959
 21
292.653612
 31
0.0
 11
520.106116
 21
292.851581
 31
0.0
 11
519.585926
 21
293.371771
 31
0.0
 11
519.387958
 21
294.103613
 31
0.0
 11
519.585926
 21
294.835457
 31
0.0
 11
520.106116
 21
295.355646
 31
0.0
 11
520.837959
 21
295.553613
 31
0.0
 11
521.569802
 21
295.355646
 31
0.0
 11
522.089991
 21
294.835457
 31
0.0
 11
522.287959
 21
294.103613
 31
0.0
  0
LWPOLYLINE
  5
130
100
AcDbEntity
  8
newlayer
 62
7
100
AcDbPolyline
 90
2
 70
0
 10
522.287959
 20
294.103613
 30
0.0
 10
522.287959
 20
294.103613
 30
0.0
  0
SPLINE
  5
131
100
AcDbEntity
  8
newlayer
 62
7
100
AcDbSpline
 70
0
 71
3
 72
19
 73
15
 74
13
 40
0.000000
 40
0.000000
 40
0.000000
 40
0.000000
 40
0.758144
 40
1.493804
 40
2.251950
 40
3.010096
 40
3.745756
 40
4.503901
 40
5.262048
 40
5.997707
 40
6.755852
 40
7.513998
 40
8.249657
 40
9.007804
 40
9.007804
 40
9.007804
 40
9.007804
 10
542.287958
 20
294.103613
 30
0.0
 10
542.248105
 20
293.848002
 30
0.0
 10
542.169581
 20
293.344362
 30
0.0
 10
541.592312
 20
292.789894
 30
0.0
 10
540.839289
 20
292.584446
 30
0.0
 10
540.078360
 20
292.789894
 30
0.0
 10
539.524340
 20
293.344362
 30
0.0
 10
539.318741
 20
294.103614
 30
0.0
 10
539.524339
 20
294.862866
 30
0.0
 10
540.078360
 20
295.417333
 30
0.0
 10
540.839289
 20
295.622778
 30
0.0
 10
541.592312
 20
295.417333
 30
0.0
 10
542.169582
 20
294.862866
 30
0.0
 10
542.248105
 20
294.359224
 30
0.0
 10
542.287958
 20
294.103613
 30
0.0
 11
542.287958
 21
294.103613
 31
0.0
 11
542.089991
 21
293.371771
 31
0.0
 11
541.569801
 21
292.851581
 31
0.0
 11
540.837958
 21
292.653612
 31
0.0
 11
540.106115
 21
292.851581
 31
0.0
 11
539.585926
 21
293.371771
 31
0.0
 11
539.387958
 21
294.103613
 31
0.0
 11
539.585926
 21
294.835457
 31
0.0
 11
540.106115
 21
295.355646
 31
0.0
 11
540.837958
 21
295.553613
 31
0.0
 11
541.569801
 21
295.355646
 31
0.0
 11
542.089991
 21
294.835457
 31
0.0
 11
542.287958
 21
294.103613
 31
0.0
  0
LWPOLYLINE
  5
132
100
AcDbEntity
  8
newlayer
 62
7
100
AcDbPolyline
 90
2
 70
0
 10
542.287958
 20
294.103613
 30
0.0
 10
542.287958
 20
294.103613
 30
0.0
  0
ENDSEC
  0
SECTION
  2
OBJECTS
  0
DICTIONARY
  5
C
330
0
100
AcDbDictionary
  3
ACAD_GROUP
350
D
  3
ACAD_MLINESTYLE
350
17
  0
DICTIONARY
  5
D
330
C
100
AcDbDictionary
  0
DICTIONARY
  5
1A
330
C
100
AcDbDictionary
  0
DICTIONARY
  5
17
330
C
100
AcDbDictionary
  3
STANDARD
350
18
  0
DICTIONARY
  5
19
330
C
100
AcDbDictionary
  0
ENDSEC
  0
EOF
