  0
SECTION
  2
HEADER
  9
$ACADVER
  1
AC1014
  9
$HANDSEED
  5
FFFF
  9
$MEASUREMENT
 70
     1
  0
ENDSEC
  0
SECTION
  2
TABLES
  0
TABLE
  2
VPORT
  5
8
330
0
100
AcDbSymbolTable
 70
     4
  0
VPORT
  5
2E
330
8
100
AcDbSymbolTableRecord
100
AcDbViewportTableRecord
  2
*ACTIVE
 70
     0
 10
0.0
 20
0.0
 11
1.0
 21
1.0
 12
210.0
 22
148.5
 13
0.0
 23
0.0
 14
10.0
 24
10.0
 15
10.0
 25
10.0
 16
0.0
 26
0.0
 36
1.0
 17
0.0
 27
0.0
 37
0.0
 40
341.0
 41
1.24
 42
50.0
 43
0.0
 44
0.0
 50
0.0
 51
0.0
 71
     0
 72
   100
 73
     1
 74
     3
 75
     0
 76
     0
 77
     0
 78
     0
  0
ENDTAB
  0
TABLE
  2
LTYPE
  5
5
330
0
100
AcDbSymbolTable
 70
     1
  0
LTYPE
  5
14
330
5
100
AcDbSymbolTableRecord
100
AcDbLinetypeTableRecord
  2
BYBLOCK
 70
     0
  3

 72
    65
 73
     0
 40
0.0
  0
LTYPE
  5
15
330
5
100
AcDbSymbolTableRecord
100
AcDbLinetypeTableRecord
  2
BYLAYER
 70
     0
  3

 72
    65
 73
     0
 40
0.0
  0
LTYPE
  5
16
330
5
100
AcDbSymbolTableRecord
100
AcDbLinetypeTableRecord
  2
CONTINUOUS
 70
     0
  3
Solid line
 72
    65
 73
     0
 40
0.0
  0
ENDTAB
  0
TABLE
  2
LAYER
  5
2
100
AcDbSymbolTable
 70
1
  0
LAYER
  5
50
100
AcDbSymbolTableRecord
100
AcDbLayerTableRecord
  2
0
 70
0
  6
CONTINUOUS
  0
ENDTAB
  0
TABLE
  2
STYLE
  5
3
330
0
100
AcDbSymbolTable
 70
     1
  0
STYLE
  5
11
330
3
100
AcDbSymbolTableRecord
100
AcDbTextStyleTableRecord
  2
STANDARD
 70
     0
 40
0.0
 41
1.0
 50
0.0
 71
     0
 42
2.5
  3
txt
  4

  0
ENDTAB
  0
TABLE
  2
VIEW
  5
6
330
0
100
AcDbSymbolTable
 70
     0
  0
ENDTAB
  0
TABLE
  2
UCS
  5
7
330
0
100
AcDbSymbolTable
 70
     0
  0
ENDTAB
  0
TABLE
  2
APPID
  5
9
330
0
100
AcDbSymbolTable
 70
     2
  0
APPID
  5
12
330
9
100
AcDbSymbolTableRecord
100
AcDbRegAppTableRecord
  2
ACAD
 70
     0
  0
ENDTAB
  0
TABLE
  2
DIMSTYLE
  5
A
330
0
100
AcDbSymbolTable
 70
     1
  0
DIMSTYLE
105
27
330
A
100
AcDbSymbolTableRecord
100
AcDbDimStyleTableRecord
  2
ISO-25
 70
     0
  3

  4

  5

  6

  7

 40
1.0
 41
2.5
 42
0.625
 43
3.75
 44
1.25
 45
0.0
 46
0.0
 47
0.0
 48
0.0
140
2.5
141
2.5
142
0.0
143
0.03937007874016
144
1.0
145
0.0
146
1.0
147
0.625
 71
     0
 72
     0
 73
     0
 74
     0
 75
     0
 76
     0
 77
     1
 78
     8
170
     0
171
     3
172
     1
173
     0
174
     0
175
     0
176
     0
177
     0
178
     0
270
     2
271
     2
272
     2
273
     2
274
     3
340
11
275
     0
280
     0
281
     0
282
     0
283
     0
284
     8
285
     0
286
     0
287
     3
288
     0
  0
ENDTAB
  0
TABLE
  2
BLOCK_RECORD
  5
1
330
0
100
AcDbSymbolTable
 70
     1
  0
BLOCK_RECORD
  5
1F
330
1
100
AcDbSymbolTableRecord
100
AcDbBlockTableRecord
  2
*MODEL_SPACE
  0
BLOCK_RECORD
  5
1B
330
1
100
AcDbSymbolTableRecord
100
AcDbBlockTableRecord
  2
*PAPER_SPACE
  0
ENDTAB
  0
ENDSEC
  0
SECTION
  2
BLOCKS
  0
BLOCK
  5
20
330
1F
100
AcDbEntity
  8
0
100
AcDbBlockBegin
  2
*MODEL_SPACE
 70
     0
 10
0.0
 20
0.0
 30
0.0
  3
*MODEL_SPACE
  1

  0
ENDBLK
  5
21
330
1F
100
AcDbEntity
  8
0
100
AcDbBlockEnd
  0
BLOCK
  5
1C
330
1B
100
AcDbEntity
 67
     1
  8
0
100
AcDbBlockBegin
  2
*PAPER_SPACE
  1

  0
ENDBLK
  5
1D
330
1B
100
AcDbEntity
 67
     1
  8
0
100
AcDbBlockEnd
  0
ENDSEC
  0
SECTION
  2
ENTITIES
  0
LWPOLYLINE
  5
100
100
AcDbEntity
  8
0
 62
7
100
AcDbPolyline
 90
42
 70
0
 10
136.194899
 20
155.503190
 30
0.0
 10
136.194899
 20
152.504579
 30
0.0
 10
132.825871
 20
152.504579
 30
0.0
 10
132.825871
 20
144.205482
 30
0.0
 10
132.834676
 20
144.205482
 30
0.0
 10
132.834676
 20
138.296454
 30
0.0
 10
132.825871
 20
138.296454
 30
0.0
 10
132.825871
 20
129.997357
 30
0.0
 10
136.194899
 20
129.997357
 30
0.0
 10
136.194899
 20
126.998745
 30
0.0
 10
142.280315
 20
126.998745
 30
0.0
 10
142.280315
 20
129.997357
 30
0.0
 10
148.595038
 20
129.997357
 30
0.0
 10
148.595038
 20
126.998745
 30
0.0
 10
154.680454
 20
126.998745
 30
0.0
 10
154.680454
 20
129.997357
 30
0.0
 10
160.995177
 20
129.997357
 30
0.0
 10
160.995177
 20
126.998745
 30
0.0
 10
167.080593
 20
126.998745
 30
0.0
 10
167.080593
 20
129.997357
 30
0.0
 10
173.395315
 20
129.997357
 30
0.0
 10
173.395315
 20
126.998745
 30
0.0
 10
179.480732
 20
126.998745
 30
0.0
 10
179.480732
 20
129.997357
 30
0.0
 10
182.823302
 20
129.997357
 30
0.0
 10
182.823302
 20
152.504579
 30
0.0
 10
179.480732
 20
152.504579
 30
0.0
 10
179.480732
 20
155.503190
 30
0.0
 10
173.395315
 20
155.503190
 30
0.0
 10
173.395315
 20
152.504579
 30
0.0
 10
167.080593
 20
152.504579
 30
0.0
 10
167.080593
 20
155.503190
 30
0.0
 10
160.995177
 20
155.503190
 30
0.0
 10
160.995177
 20
152.504579
 30
0.0
 10
154.680454
 20
152.504579
 30
0.0
 10
154.680454
 20
155.503190
 30
0.0
 10
148.595038
 20
155.503190
 30
0.0
 10
148.595038
 20
152.504579
 30
0.0
 10
142.280315
 20
152.504579
 30
0.0
 10
142.280315
 20
155.503190
 30
0.0
 10
136.194899
 20
155.503190
 30
0.0
 10
136.194899
 20
155.503190
 30
0.0
  0
SPLINE
  5
101
100
AcDbEntity
  8
0
 62
7
100
AcDbSpline
 70
8
 71
3
 72
8
 73
4
 74
0
 40
0
 40
0
 40
0
 40
0
 40
1
 40
1
 40
1
 40
1
 10
147.344590
 20
141.250975
 30
0.0
 10
147.344932
 20
139.964591
 30
0.0
 10
146.658851
 20
138.775776
 30
0.0
 10
145.544867
 20
138.132485
 30
0.0
  0
SPLINE
  5
102
100
AcDbEntity
  8
0
 62
7
100
AcDbSpline
 70
8
 71
3
 72
8
 73
4
 74
0
 40
0
 40
0
 40
0
 40
0
 40
1
 40
1
 40
1
 40
1
 10
145.544867
 20
138.132485
 30
0.0
 10
144.430882
 20
137.489195
 30
0.0
 10
143.058298
 20
137.489195
 30
0.0
 10
141.944314
 20
138.132485
 30
0.0
  0
SPLINE
  5
103
100
AcDbEntity
  8
0
 62
7
100
AcDbSpline
 70
8
 71
3
 72
8
 73
4
 74
0
 40
0
 40
0
 40
0
 40
0
 40
1
 40
1
 40
1
 40
1
 10
141.944314
 20
138.132485
 30
0.0
 10
140.830330
 20
138.775776
 30
0.0
 10
140.144248
 20
139.964591
 30
0.0
 10
140.144590
 20
141.250975
 30
0.0
  0
SPLINE
  5
104
100
AcDbEntity
  8
0
 62
7
100
AcDbSpline
 70
8
 71
3
 72
8
 73
4
 74
0
 40
0
 40
0
 40
0
 40
0
 40
1
 40
1
 40
1
 40
1
 10
140.144590
 20
141.250975
 30
0.0
 10
140.144248
 20
142.537359
 30
0.0
 10
140.830330
 20
143.726173
 30
0.0
 10
141.944314
 20
144.369464
 30
0.0
  0
SPLINE
  5
105
100
AcDbEntity
  8
0
 62
7
100
AcDbSpline
 70
8
 71
3
 72
8
 73
4
 74
0
 40
0
 40
0
 40
0
 40
0
 40
1
 40
1
 40
1
 40
1
 10
141.944314
 20
144.369464
 30
0.0
 10
143.058298
 20
145.012755
 30
0.0
 10
144.430882
 20
145.012755
 30
0.0
 10
145.544867
 20
144.369464
 30
0.0
  0
SPLINE
  5
106
100
AcDbEntity
  8
0
 62
7
100
AcDbSpline
 70
8
 71
3
 72
8
 73
4
 74
0
 40
0
 40
0
 40
0
 40
0
 40
1
 40
1
 40
1
 40
1
 10
145.544867
 20
144.369464
 30
0.0
 10
146.658851
 20
143.726173
 30
0.0
 10
147.344932
 20
142.537359
 30
0.0
 10
147.344590
 20
141.250975
 30
0.0
  0
LWPOLYLINE
  5
107
100
AcDbEntity
  8
0
 62
7
100
AcDbPolyline
 90
62
 70
0
 10
132.825871
 20
240.319787
 30
0.0
 10
132.825871
 20
234.013884
 30
0.0
 10
132.834676
 20
234.013884
 30
0.0
 10
132.834676
 20
228.104857
 30
0.0
 10
132.825871
 20
228.104857
 30
0.0
 10
132.825871
 20
221.754857
 30
0.0
 10
132.834676
 20
221.754857
 30
0.0
 10
132.834676
 20
215.845829
 30
0.0
 10
132.825871
 20
215.845829
 30
0.0
 10
132.825871
 20
209.495829
 30
0.0
 10
132.834676
 20
209.495829
 30
0.0
 10
132.834676
 20
203.586801
 30
0.0
 10
132.825871
 20
203.586801
 30
0.0
 10
132.825871
 20
197.236801
 30
0.0
 10
132.834676
 20
197.236801
 30
0.0
 10
132.834676
 20
191.327773
 30
0.0
 10
132.825871
 20
191.327773
 30
0.0
 10
132.825871
 20
184.977773
 30
0.0
 10
132.834676
 20
184.977773
 30
0.0
 10
132.834676
 20
179.068745
 30
0.0
 10
132.825871
 20
179.068745
 30
0.0
 10
132.825871
 20
172.718745
 30
0.0
 10
132.834676
 20
172.718745
 30
0.0
 10
132.834676
 20
166.809718
 30
0.0
 10
132.825871
 20
166.809718
 30
0.0
 10
132.825871
 20
160.503815
 30
0.0
 10
136.283093
 20
160.503815
 30
0.0
 10
136.283093
 20
163.502426
 30
0.0
 10
142.192121
 20
163.502426
 30
0.0
 10
142.192121
 20
160.503815
 30
0.0
 10
148.683232
 20
160.503815
 30
0.0
 10
148.683232
 20
163.502426
 30
0.0
 10
154.592260
 20
163.502426
 30
0.0
 10
154.592260
 20
160.503815
 30
0.0
 10
161.083371
 20
160.503815
 30
0.0
 10
161.083371
 20
163.502426
 30
0.0
 10
166.992399
 20
163.502426
 30
0.0
 10
166.992399
 20
160.503815
 30
0.0
 10
173.483510
 20
160.503815
 30
0.0
 10
173.483510
 20
163.502426
 30
0.0
 10
179.392538
 20
163.502426
 30
0.0
 10
179.392538
 20
160.503815
 30
0.0
 10
182.823302
 20
160.503815
 30
0.0
 10
182.823302
 20
240.319787
 30
0.0
 10
179.392538
 20
240.319787
 30
0.0
 10
179.392538
 20
237.321176
 30
0.0
 10
173.483510
 20
237.321176
 30
0.0
 10
173.483510
 20
240.319787
 30
0.0
 10
166.992399
 20
240.319787
 30
0.0
 10
166.992399
 20
237.321176
 30
0.0
 10
161.083371
 20
237.321176
 30
0.0
 10
161.083371
 20
240.319787
 30
0.0
 10
154.592260
 20
240.319787
 30
0.0
 10
154.592260
 20
237.321176
 30
0.0
 10
148.683232
 20
237.321176
 30
0.0
 10
148.683232
 20
240.319787
 30
0.0
 10
142.192121
 20
240.319787
 30
0.0
 10
142.192121
 20
237.321176
 30
0.0
 10
136.283093
 20
237.321176
 30
0.0
 10
136.283093
 20
240.319787
 30
0.0
 10
132.825871
 20
240.319787
 30
0.0
 10
132.825871
 20
240.319787
 30
0.0
  0
SPLINE
  5
108
100
AcDbEntity
  8
0
 62
7
100
AcDbSpline
 70
8
 71
3
 72
8
 73
4
 74
0
 40
0
 40
0
 40
0
 40
0
 40
1
 40
1
 40
1
 40
1
 10
157.174590
 20
141.250975
 30
0.0
 10
157.174780
 20
140.536317
 30
0.0
 10
156.793624
 20
139.875865
 30
0.0
 10
156.174743
 20
139.518481
 30
0.0
  0
SPLINE
  5
109
100
AcDbEntity
  8
0
 62
7
100
AcDbSpline
 70
8
 71
3
 72
8
 73
4
 74
0
 40
0
 40
0
 40
0
 40
0
 40
1
 40
1
 40
1
 40
1
 10
156.174743
 20
139.518481
 30
0.0
 10
155.555863
 20
139.161097
 30
0.0
 10
154.793316
 20
139.161097
 30
0.0
 10
154.174436
 20
139.518481
 30
0.0
  0
SPLINE
  5
10a
100
AcDbEntity
  8
0
 62
7
100
AcDbSpline
 70
8
 71
3
 72
8
 73
4
 74
0
 40
0
 40
0
 40
0
 40
0
 40
1
 40
1
 40
1
 40
1
 10
154.174436
 20
139.518481
 30
0.0
 10
153.555556
 20
139.875865
 30
0.0
 10
153.174400
 20
140.536317
 30
0.0
 10
153.174590
 20
141.250975
 30
0.0
  0
SPLINE
  5
10b
100
AcDbEntity
  8
0
 62
7
100
AcDbSpline
 70
8
 71
3
 72
8
 73
4
 74
0
 40
0
 40
0
 40
0
 40
0
 40
1
 40
1
 40
1
 40
1
 10
153.174590
 20
141.250975
 30
0.0
 10
153.174400
 20
141.965633
 30
0.0
 10
153.555556
 20
142.626085
 30
0.0
 10
154.174436
 20
142.983469
 30
0.0
  0
SPLINE
  5
10c
100
AcDbEntity
  8
0
 62
7
100
AcDbSpline
 70
8
 71
3
 72
8
 73
4
 74
0
 40
0
 40
0
 40
0
 40
0
 40
1
 40
1
 40
1
 40
1
 10
154.174436
 20
142.983469
 30
0.0
 10
154.793316
 20
143.340853
 30
0.0
 10
155.555863
 20
143.340853
 30
0.0
 10
156.174743
 20
142.983469
 30
0.0
  0
SPLINE
  5
10d
100
AcDbEntity
  8
0
 62
7
100
AcDbSpline
 70
8
 71
3
 72
8
 73
4
 74
0
 40
0
 40
0
 40
0
 40
0
 40
1
 40
1
 40
1
 40
1
 10
156.174743
 20
142.983469
 30
0.0
 10
156.793624
 20
142.626085
 30
0.0
 10
157.174780
 20
141.965633
 30
0.0
 10
157.174590
 20
141.250975
 30
0.0
  0
LWPOLYLINE
  5
10e
100
AcDbEntity
  8
0
 62
7
100
AcDbPolyline
 90
2
 70
0
 10
147.344590
 20
141.250975
 30
0.0
 10
147.344590
 20
141.250975
 30
0.0
  0
LWPOLYLINE
  5
10f
100
AcDbEntity
  8
0
 62
7
100
AcDbPolyline
 90
2
 70
0
 10
157.174590
 20
141.250975
 30
0.0
 10
157.174590
 20
141.250975
 30
0.0
  0
SPLINE
  5
110
100
AcDbEntity
  8
0
 62
7
100
AcDbSpline
 70
8
 71
3
 72
8
 73
4
 74
0
 40
0
 40
0
 40
0
 40
0
 40
1
 40
1
 40
1
 40
1
 10
165.264590
 20
132.540971
 30
0.0
 10
165.265089
 20
132.086911
 30
0.0
 10
165.023138
 20
131.667129
 30
0.0
 10
164.629994
 20
131.439955
 30
0.0
  0
SPLINE
  5
111
100
AcDbEntity
  8
0
 62
7
100
AcDbSpline
 70
8
 71
3
 72
8
 73
4
 74
0
 40
0
 40
0
 40
0
 40
0
 40
1
 40
1
 40
1
 40
1
 10
164.629994
 20
131.439955
 30
0.0
 10
164.236850
 20
131.212781
 30
0.0
 10
163.752332
 20
131.212781
 30
0.0
 10
163.359188
 20
131.439955
 30
0.0
  0
SPLINE
  5
112
100
AcDbEntity
  8
0
 62
7
100
AcDbSpline
 70
8
 71
3
 72
8
 73
4
 74
0
 40
0
 40
0
 40
0
 40
0
 40
1
 40
1
 40
1
 40
1
 10
163.359188
 20
131.439955
 30
0.0
 10
162.966044
 20
131.667129
 30
0.0
 10
162.724092
 20
132.086911
 30
0.0
 10
162.724592
 20
132.540971
 30
0.0
  0
SPLINE
  5
113
100
AcDbEntity
  8
0
 62
7
100
AcDbSpline
 70
8
 71
3
 72
8
 73
4
 74
0
 40
0
 40
0
 40
0
 40
0
 40
1
 40
1
 40
1
 40
1
 10
162.724592
 20
132.540971
 30
0.0
 10
162.724092
 20
132.995030
 30
0.0
 10
162.966044
 20
133.414812
 30
0.0
 10
163.359188
 20
133.641986
 30
0.0
  0
SPLINE
  5
114
100
AcDbEntity
  8
0
 62
7
100
AcDbSpline
 70
8
 71
3
 72
8
 73
4
 74
0
 40
0
 40
0
 40
0
 40
0
 40
1
 40
1
 40
1
 40
1
 10
163.359188
 20
133.641986
 30
0.0
 10
163.752332
 20
133.869160
 30
0.0
 10
164.236850
 20
133.869160
 30
0.0
 10
164.629994
 20
133.641986
 30
0.0
  0
SPLINE
  5
115
100
AcDbEntity
  8
0
 62
7
100
AcDbSpline
 70
8
 71
3
 72
8
 73
4
 74
0
 40
0
 40
0
 40
0
 40
0
 40
1
 40
1
 40
1
 40
1
 10
164.629994
 20
133.641986
 30
0.0
 10
165.023138
 20
133.414812
 30
0.0
 10
165.265089
 20
132.995030
 30
0.0
 10
165.264590
 20
132.540971
 30
0.0
  0
LWPOLYLINE
  5
116
100
AcDbEntity
  8
0
 62
7
100
AcDbPolyline
 90
5
 70
0
 10
173.924595
 20
143.736177
 30
0.0
 10
176.424595
 20
143.736177
 30
0.0
 10
176.424595
 20
138.336177
 30
0.0
 10
173.924595
 20
138.336177
 30
0.0
 10
173.924595
 20
143.736177
 30
0.0
  0
SPLINE
  5
117
100
AcDbEntity
  8
0
 62
7
100
AcDbSpline
 70
8
 71
3
 72
8
 73
4
 74
0
 40
0
 40
0
 40
0
 40
0
 40
1
 40
1
 40
1
 40
1
 10
165.264590
 20
149.960971
 30
0.0
 10
165.265089
 20
149.506911
 30
0.0
 10
165.023138
 20
149.087129
 30
0.0
 10
164.629994
 20
148.859955
 30
0.0
  0
SPLINE
  5
118
100
AcDbEntity
  8
0
 62
7
100
AcDbSpline
 70
8
 71
3
 72
8
 73
4
 74
0
 40
0
 40
0
 40
0
 40
0
 40
1
 40
1
 40
1
 40
1
 10
164.629994
 20
148.859955
 30
0.0
 10
164.236850
 20
148.632781
 30
0.0
 10
163.752332
 20
148.632781
 30
0.0
 10
163.359188
 20
148.859955
 30
0.0
  0
SPLINE
  5
119
100
AcDbEntity
  8
0
 62
7
100
AcDbSpline
 70
8
 71
3
 72
8
 73
4
 74
0
 40
0
 40
0
 40
0
 40
0
 40
1
 40
1
 40
1
 40
1
 10
163.359188
 20
148.859955
 30
0.0
 10
162.966044
 20
149.087129
 30
0.0
 10
162.724092
 20
149.506911
 30
0.0
 10
162.724592
 20
149.960971
 30
0.0
  0
SPLINE
  5
11a
100
AcDbEntity
  8
0
 62
7
100
AcDbSpline
 70
8
 71
3
 72
8
 73
4
 74
0
 40
0
 40
0
 40
0
 40
0
 40
1
 40
1
 40
1
 40
1
 10
162.724592
 20
149.960971
 30
0.0
 10
162.724092
 20
150.415030
 30
0.0
 10
162.966044
 20
150.834812
 30
0.0
 10
163.359188
 20
151.061986
 30
0.0
  0
SPLINE
  5
11b
100
AcDbEntity
  8
0
 62
7
100
AcDbSpline
 70
8
 71
3
 72
8
 73
4
 74
0
 40
0
 40
0
 40
0
 40
0
 40
1
 40
1
 40
1
 40
1
 10
163.359188
 20
151.061986
 30
0.0
 10
163.752332
 20
151.289160
 30
0.0
 10
164.236850
 20
151.289160
 30
0.0
 10
164.629994
 20
151.061986
 30
0.0
  0
SPLINE
  5
11c
100
AcDbEntity
  8
0
 62
7
100
AcDbSpline
 70
8
 71
3
 72
8
 73
4
 74
0
 40
0
 40
0
 40
0
 40
0
 40
1
 40
1
 40
1
 40
1
 10
164.629994
 20
151.061986
 30
0.0
 10
165.023138
 20
150.834812
 30
0.0
 10
165.265089
 20
150.415030
 30
0.0
 10
165.264590
 20
149.960971
 30
0.0
  0
LWPOLYLINE
  5
11d
100
AcDbEntity
  8
0
 62
7
100
AcDbPolyline
 90
2
 70
0
 10
165.264590
 20
132.540971
 30
0.0
 10
165.264590
 20
132.540971
 30
0.0
  0
SPLINE
  5
11e
100
AcDbEntity
  8
0
 62
7
100
AcDbSpline
 70
8
 71
3
 72
8
 73
4
 74
0
 40
0
 40
0
 40
0
 40
0
 40
1
 40
1
 40
1
 40
1
 10
147.344593
 20
141.250969
 30
0.0
 10
147.344935
 20
139.964585
 30
0.0
 10
146.658854
 20
138.775771
 30
0.0
 10
145.544870
 20
138.132480
 30
0.0
  0
SPLINE
  5
11f
100
AcDbEntity
  8
0
 62
7
100
AcDbSpline
 70
8
 71
3
 72
8
 73
4
 74
0
 40
0
 40
0
 40
0
 40
0
 40
1
 40
1
 40
1
 40
1
 10
145.544870
 20
138.132480
 30
0.0
 10
144.430885
 20
137.489189
 30
0.0
 10
143.058301
 20
137.489189
 30
0.0
 10
141.944317
 20
138.132480
 30
0.0
  0
SPLINE
  5
120
100
AcDbEntity
  8
0
 62
7
100
AcDbSpline
 70
8
 71
3
 72
8
 73
4
 74
0
 40
0
 40
0
 40
0
 40
0
 40
1
 40
1
 40
1
 40
1
 10
141.944317
 20
138.132480
 30
0.0
 10
140.830332
 20
138.775771
 30
0.0
 10
140.144251
 20
139.964585
 30
0.0
 10
140.144593
 20
141.250969
 30
0.0
  0
SPLINE
  5
121
100
AcDbEntity
  8
0
 62
7
100
AcDbSpline
 70
8
 71
3
 72
8
 73
4
 74
0
 40
0
 40
0
 40
0
 40
0
 40
1
 40
1
 40
1
 40
1
 10
140.144593
 20
141.250969
 30
0.0
 10
140.144251
 20
142.537353
 30
0.0
 10
140.830332
 20
143.726168
 30
0.0
 10
141.944317
 20
144.369458
 30
0.0
  0
SPLINE
  5
122
100
AcDbEntity
  8
0
 62
7
100
AcDbSpline
 70
8
 71
3
 72
8
 73
4
 74
0
 40
0
 40
0
 40
0
 40
0
 40
1
 40
1
 40
1
 40
1
 10
141.944317
 20
144.369458
 30
0.0
 10
143.058301
 20
145.012749
 30
0.0
 10
144.430885
 20
145.012749
 30
0.0
 10
145.544870
 20
144.369458
 30
0.0
  0
SPLINE
  5
123
100
AcDbEntity
  8
0
 62
7
100
AcDbSpline
 70
8
 71
3
 72
8
 73
4
 74
0
 40
0
 40
0
 40
0
 40
0
 40
1
 40
1
 40
1
 40
1
 10
145.544870
 20
144.369458
 30
0.0
 10
146.658854
 20
143.726168
 30
0.0
 10
147.344935
 20
142.537353
 30
0.0
 10
147.344593
 20
141.250969
 30
0.0
  0
LWPOLYLINE
  5
124
100
AcDbEntity
  8
0
 62
7
100
AcDbPolyline
 90
2
 70
0
 10
165.264590
 20
149.960971
 30
0.0
 10
165.264590
 20
149.960971
 30
0.0
  0
SPLINE
  5
125
100
AcDbEntity
  8
0
 62
7
100
AcDbSpline
 70
8
 71
3
 72
8
 73
4
 74
0
 40
0
 40
0
 40
0
 40
0
 40
1
 40
1
 40
1
 40
1
 10
157.174593
 20
141.250969
 30
0.0
 10
157.174783
 20
140.536312
 30
0.0
 10
156.793626
 20
139.875859
 30
0.0
 10
156.174746
 20
139.518475
 30
0.0
  0
SPLINE
  5
126
100
AcDbEntity
  8
0
 62
7
100
AcDbSpline
 70
8
 71
3
 72
8
 73
4
 74
0
 40
0
 40
0
 40
0
 40
0
 40
1
 40
1
 40
1
 40
1
 10
156.174746
 20
139.518475
 30
0.0
 10
155.555866
 20
139.161091
 30
0.0
 10
154.793319
 20
139.161091
 30
0.0
 10
154.174439
 20
139.518475
 30
0.0
  0
SPLINE
  5
127
100
AcDbEntity
  8
0
 62
7
100
AcDbSpline
 70
8
 71
3
 72
8
 73
4
 74
0
 40
0
 40
0
 40
0
 40
0
 40
1
 40
1
 40
1
 40
1
 10
154.174439
 20
139.518475
 30
0.0
 10
153.555559
 20
139.875859
 30
0.0
 10
153.174402
 20
140.536312
 30
0.0
 10
153.174592
 20
141.250969
 30
0.0
  0
SPLINE
  5
128
100
AcDbEntity
  8
0
 62
7
100
AcDbSpline
 70
8
 71
3
 72
8
 73
4
 74
0
 40
0
 40
0
 40
0
 40
0
 40
1
 40
1
 40
1
 40
1
 10
153.174592
 20
141.250969
 30
0.0
 10
153.174402
 20
141.965627
 30
0.0
 10
153.555559
 20
142.626080
 30
0.0
 10
154.174439
 20
142.983464
 30
0.0
  0
SPLINE
  5
129
100
AcDbEntity
  8
0
 62
7
100
AcDbSpline
 70
8
 71
3
 72
8
 73
4
 74
0
 40
0
 40
0
 40
0
 40
0
 40
1
 40
1
 40
1
 40
1
 10
154.174439
 20
142.983464
 30
0.0
 10
154.793319
 20
143.340847
 30
0.0
 10
155.555866
 20
143.340847
 30
0.0
 10
156.174746
 20
142.983464
 30
0.0
  0
SPLINE
  5
12a
100
AcDbEntity
  8
0
 62
7
100
AcDbSpline
 70
8
 71
3
 72
8
 73
4
 74
0
 40
0
 40
0
 40
0
 40
0
 40
1
 40
1
 40
1
 40
1
 10
156.174746
 20
142.983464
 30
0.0
 10
156.793626
 20
142.626080
 30
0.0
 10
157.174783
 20
141.965627
 30
0.0
 10
157.174593
 20
141.250969
 30
0.0
  0
LWPOLYLINE
  5
12b
100
AcDbEntity
  8
0
 62
7
100
AcDbPolyline
 90
2
 70
0
 10
147.344593
 20
141.250969
 30
0.0
 10
147.344593
 20
141.250969
 30
0.0
  0
LWPOLYLINE
  5
12c
100
AcDbEntity
  8
0
 62
7
100
AcDbPolyline
 90
2
 70
0
 10
157.174593
 20
141.250969
 30
0.0
 10
157.174593
 20
141.250969
 30
0.0
  0
LWPOLYLINE
  5
12d
100
AcDbEntity
  8
0
 62
7
100
AcDbPolyline
 90
46
 70
0
 10
75.772885
 20
113.654926
 30
0.0
 10
75.772885
 20
110.638676
 30
0.0
 10
63.919552
 20
110.638676
 30
0.0
 10
63.919552
 20
36.855207
 30
0.0
 10
75.772885
 20
36.855207
 30
0.0
 10
75.772885
 20
33.838957
 30
0.0
 10
79.230107
 20
33.838957
 30
0.0
 10
79.230107
 20
36.837568
 30
0.0
 10
85.139135
 20
36.837568
 30
0.0
 10
85.139135
 20
33.838957
 30
0.0
 10
91.630246
 20
33.838957
 30
0.0
 10
91.630246
 20
36.837568
 30
0.0
 10
97.539274
 20
36.837568
 30
0.0
 10
97.539274
 20
33.838957
 30
0.0
 10
104.030385
 20
33.838957
 30
0.0
 10
104.030385
 20
36.837568
 30
0.0
 10
109.939413
 20
36.837568
 30
0.0
 10
109.939413
 20
33.838957
 30
0.0
 10
116.430524
 20
33.838957
 30
0.0
 10
116.430524
 20
36.837568
 30
0.0
 10
122.339552
 20
36.837568
 30
0.0
 10
122.339552
 20
33.838957
 30
0.0
 10
125.770315
 20
33.838957
 30
0.0
 10
125.770315
 20
36.855207
 30
0.0
 10
137.623649
 20
36.855207
 30
0.0
 10
137.623649
 20
110.638676
 30
0.0
 10
125.770315
 20
110.638676
 30
0.0
 10
125.770315
 20
113.654926
 30
0.0
 10
122.339552
 20
113.654926
 30
0.0
 10
122.339552
 20
110.656315
 30
0.0
 10
116.430524
 20
110.656315
 30
0.0
 10
116.430524
 20
113.654926
 30
0.0
 10
109.939413
 20
113.654926
 30
0.0
 10
109.939413
 20
110.656315
 30
0.0
 10
104.030385
 20
110.656315
 30
0.0
 10
104.030385
 20
113.654926
 30
0.0
 10
97.539274
 20
113.654926
 30
0.0
 10
97.539274
 20
110.656315
 30
0.0
 10
91.630246
 20
110.656315
 30
0.0
 10
91.630246
 20
113.654926
 30
0.0
 10
85.139135
 20
113.654926
 30
0.0
 10
85.139135
 20
110.656315
 30
0.0
 10
79.230107
 20
110.656315
 30
0.0
 10
79.230107
 20
113.654926
 30
0.0
 10
75.772885
 20
113.654926
 30
0.0
 10
75.772885
 20
113.654926
 30
0.0
  0
ENDSEC
  0
SECTION
  2
OBJECTS
  0
DICTIONARY
  5
C
330
0
100
AcDbDictionary
  3
ACAD_GROUP
350
D
  3
ACAD_MLINESTYLE
350
17
  0
DICTIONARY
  5
D
330
C
100
AcDbDictionary
  0
DICTIONARY
  5
1A
330
C
100
AcDbDictionary
  0
DICTIONARY
  5
17
330
C
100
AcDbDictionary
  3
STANDARD
350
18
  0
DICTIONARY
  5
19
330
C
100
AcDbDictionary
  0
ENDSEC
  0
EOF
