  0
SECTION
  2
HEADER
  9
$ACADVER
  1
AC1014
  9
$HANDSEED
  5
FFFF
  9
$MEASUREMENT
 70
     1
  0
ENDSEC
  0
SECTION
  2
TABLES
  0
TABLE
  2
VPORT
  5
8
330
0
100
AcDbSymbolTable
 70
     4
  0
VPORT
  5
2E
330
8
100
AcDbSymbolTableRecord
100
AcDbViewportTableRecord
  2
*ACTIVE
 70
     0
 10
0.0
 20
0.0
 11
1.0
 21
1.0
 12
210.0
 22
148.5
 13
0.0
 23
0.0
 14
10.0
 24
10.0
 15
10.0
 25
10.0
 16
0.0
 26
0.0
 36
1.0
 17
0.0
 27
0.0
 37
0.0
 40
341.0
 41
1.24
 42
50.0
 43
0.0
 44
0.0
 50
0.0
 51
0.0
 71
     0
 72
   100
 73
     1
 74
     3
 75
     0
 76
     0
 77
     0
 78
     0
  0
ENDTAB
  0
TABLE
  2
LTYPE
  5
5
330
0
100
AcDbSymbolTable
 70
     1
  0
LTYPE
  5
14
330
5
100
AcDbSymbolTableRecord
100
AcDbLinetypeTableRecord
  2
BYBLOCK
 70
     0
  3

 72
    65
 73
     0
 40
0.0
  0
LTYPE
  5
15
330
5
100
AcDbSymbolTableRecord
100
AcDbLinetypeTableRecord
  2
BYLAYER
 70
     0
  3

 72
    65
 73
     0
 40
0.0
  0
LTYPE
  5
16
330
5
100
AcDbSymbolTableRecord
100
AcDbLinetypeTableRecord
  2
CONTINUOUS
 70
     0
  3
Solid line
 72
    65
 73
     0
 40
0.0
  0
ENDTAB
  0
TABLE
  2
LAYER
  5
2
100
AcDbSymbolTable
 70
2
  0
LAYER
  5
50
100
AcDbSymbolTableRecord
100
AcDbLayerTableRecord
  2
0
 70
0
  6
CONTINUOUS
  0
LAYER
  5
51
100
AcDbSymbolTableRecord
100
AcDbLayerTableRecord
  2
newlayer
 70
0
  6
CONTINUOUS
  0
ENDTAB
  0
TABLE
  2
STYLE
  5
3
330
0
100
AcDbSymbolTable
 70
     1
  0
STYLE
  5
11
330
3
100
AcDbSymbolTableRecord
100
AcDbTextStyleTableRecord
  2
STANDARD
 70
     0
 40
0.0
 41
1.0
 50
0.0
 71
     0
 42
2.5
  3
txt
  4

  0
ENDTAB
  0
TABLE
  2
VIEW
  5
6
330
0
100
AcDbSymbolTable
 70
     0
  0
ENDTAB
  0
TABLE
  2
UCS
  5
7
330
0
100
AcDbSymbolTable
 70
     0
  0
ENDTAB
  0
TABLE
  2
APPID
  5
9
330
0
100
AcDbSymbolTable
 70
     2
  0
APPID
  5
12
330
9
100
AcDbSymbolTableRecord
100
AcDbRegAppTableRecord
  2
ACAD
 70
     0
  0
ENDTAB
  0
TABLE
  2
DIMSTYLE
  5
A
330
0
100
AcDbSymbolTable
 70
     1
  0
DIMSTYLE
105
27
330
A
100
AcDbSymbolTableRecord
100
AcDbDimStyleTableRecord
  2
ISO-25
 70
     0
  3

  4

  5

  6

  7

 40
1.0
 41
2.5
 42
0.625
 43
3.75
 44
1.25
 45
0.0
 46
0.0
 47
0.0
 48
0.0
140
2.5
141
2.5
142
0.0
143
0.03937007874016
144
1.0
145
0.0
146
1.0
147
0.625
 71
     0
 72
     0
 73
     0
 74
     0
 75
     0
 76
     0
 77
     1
 78
     8
170
     0
171
     3
172
     1
173
     0
174
     0
175
     0
176
     0
177
     0
178
     0
270
     2
271
     2
272
     2
273
     2
274
     3
340
11
275
     0
280
     0
281
     0
282
     0
283
     0
284
     8
285
     0
286
     0
287
     3
288
     0
  0
ENDTAB
  0
TABLE
  2
BLOCK_RECORD
  5
1
330
0
100
AcDbSymbolTable
 70
     1
  0
BLOCK_RECORD
  5
1F
330
1
100
AcDbSymbolTableRecord
100
AcDbBlockTableRecord
  2
*MODEL_SPACE
  0
BLOCK_RECORD
  5
1B
330
1
100
AcDbSymbolTableRecord
100
AcDbBlockTableRecord
  2
*PAPER_SPACE
  0
ENDTAB
  0
ENDSEC
  0
SECTION
  2
BLOCKS
  0
BLOCK
  5
20
330
1F
100
AcDbEntity
  8
0
100
AcDbBlockBegin
  2
*MODEL_SPACE
 70
     0
 10
0.0
 20
0.0
 30
0.0
  3
*MODEL_SPACE
  1

  0
ENDBLK
  5
21
330
1F
100
AcDbEntity
  8
0
100
AcDbBlockEnd
  0
BLOCK
  5
1C
330
1B
100
AcDbEntity
 67
     1
  8
0
100
AcDbBlockBegin
  2
*PAPER_SPACE
  1

  0
ENDBLK
  5
1D
330
1B
100
AcDbEntity
 67
     1
  8
0
100
AcDbBlockEnd
  0
ENDSEC
  0
SECTION
  2
ENTITIES
  0
SPLINE
  5
100
100
AcDbEntity
  8
0
 62
7
100
AcDbSpline
 70
8
 71
3
 72
8
 73
4
 74
0
 40
0
 40
0
 40
0
 40
0
 40
1
 40
1
 40
1
 40
1
 10
629.837464
 20
372.227134
 30
0.0
 10
629.839633
 20
369.206795
 30
0.0
 10
628.229547
 20
366.414958
 30
0.0
 10
625.614218
 20
364.904162
 30
0.0
  0
SPLINE
  5
101
100
AcDbEntity
  8
0
 62
7
100
AcDbSpline
 70
8
 71
3
 72
8
 73
4
 74
0
 40
0
 40
0
 40
0
 40
0
 40
1
 40
1
 40
1
 40
1
 10
625.614218
 20
364.904162
 30
0.0
 10
622.998889
 20
363.393366
 30
0.0
 10
619.776044
 20
363.393366
 30
0.0
 10
617.160714
 20
364.904162
 30
0.0
  0
SPLINE
  5
102
100
AcDbEntity
  8
0
 62
7
100
AcDbSpline
 70
8
 71
3
 72
8
 73
4
 74
0
 40
0
 40
0
 40
0
 40
0
 40
1
 40
1
 40
1
 40
1
 10
617.160714
 20
364.904162
 30
0.0
 10
614.545385
 20
366.414958
 30
0.0
 10
612.935299
 20
369.206795
 30
0.0
 10
612.937468
 20
372.227134
 30
0.0
  0
SPLINE
  5
103
100
AcDbEntity
  8
0
 62
7
100
AcDbSpline
 70
8
 71
3
 72
8
 73
4
 74
0
 40
0
 40
0
 40
0
 40
0
 40
1
 40
1
 40
1
 40
1
 10
612.937468
 20
372.227134
 30
0.0
 10
612.935299
 20
375.247473
 30
0.0
 10
614.545385
 20
378.039310
 30
0.0
 10
617.160714
 20
379.550106
 30
0.0
  0
SPLINE
  5
104
100
AcDbEntity
  8
0
 62
7
100
AcDbSpline
 70
8
 71
3
 72
8
 73
4
 74
0
 40
0
 40
0
 40
0
 40
0
 40
1
 40
1
 40
1
 40
1
 10
617.160714
 20
379.550106
 30
0.0
 10
619.776044
 20
381.060902
 30
0.0
 10
622.998889
 20
381.060902
 30
0.0
 10
625.614218
 20
379.550106
 30
0.0
  0
SPLINE
  5
105
100
AcDbEntity
  8
0
 62
7
100
AcDbSpline
 70
8
 71
3
 72
8
 73
4
 74
0
 40
0
 40
0
 40
0
 40
0
 40
1
 40
1
 40
1
 40
1
 10
625.614218
 20
379.550106
 30
0.0
 10
628.229547
 20
378.039310
 30
0.0
 10
629.839633
 20
375.247473
 30
0.0
 10
629.837464
 20
372.227134
 30
0.0
  0
SPLINE
  5
106
100
AcDbEntity
  8
0
 62
7
100
AcDbSpline
 70
8
 71
3
 72
8
 73
4
 74
0
 40
0
 40
0
 40
0
 40
0
 40
1
 40
1
 40
1
 40
1
 10
655.837463
 20
372.227134
 30
0.0
 10
655.839632
 20
369.206795
 30
0.0
 10
654.229546
 20
366.414958
 30
0.0
 10
651.614217
 20
364.904162
 30
0.0
  0
SPLINE
  5
107
100
AcDbEntity
  8
0
 62
7
100
AcDbSpline
 70
8
 71
3
 72
8
 73
4
 74
0
 40
0
 40
0
 40
0
 40
0
 40
1
 40
1
 40
1
 40
1
 10
651.614217
 20
364.904162
 30
0.0
 10
648.998887
 20
363.393366
 30
0.0
 10
645.776042
 20
363.393366
 30
0.0
 10
643.160713
 20
364.904162
 30
0.0
  0
SPLINE
  5
108
100
AcDbEntity
  8
0
 62
7
100
AcDbSpline
 70
8
 71
3
 72
8
 73
4
 74
0
 40
0
 40
0
 40
0
 40
0
 40
1
 40
1
 40
1
 40
1
 10
643.160713
 20
364.904162
 30
0.0
 10
640.545384
 20
366.414958
 30
0.0
 10
638.935298
 20
369.206795
 30
0.0
 10
638.937467
 20
372.227134
 30
0.0
  0
SPLINE
  5
109
100
AcDbEntity
  8
0
 62
7
100
AcDbSpline
 70
8
 71
3
 72
8
 73
4
 74
0
 40
0
 40
0
 40
0
 40
0
 40
1
 40
1
 40
1
 40
1
 10
638.937467
 20
372.227134
 30
0.0
 10
638.935298
 20
375.247473
 30
0.0
 10
640.545384
 20
378.039310
 30
0.0
 10
643.160713
 20
379.550106
 30
0.0
  0
SPLINE
  5
10a
100
AcDbEntity
  8
0
 62
7
100
AcDbSpline
 70
8
 71
3
 72
8
 73
4
 74
0
 40
0
 40
0
 40
0
 40
0
 40
1
 40
1
 40
1
 40
1
 10
643.160713
 20
379.550106
 30
0.0
 10
645.776042
 20
381.060902
 30
0.0
 10
648.998887
 20
381.060902
 30
0.0
 10
651.614217
 20
379.550106
 30
0.0
  0
SPLINE
  5
10b
100
AcDbEntity
  8
0
 62
7
100
AcDbSpline
 70
8
 71
3
 72
8
 73
4
 74
0
 40
0
 40
0
 40
0
 40
0
 40
1
 40
1
 40
1
 40
1
 10
651.614217
 20
379.550106
 30
0.0
 10
654.229546
 20
378.039310
 30
0.0
 10
655.839632
 20
375.247473
 30
0.0
 10
655.837463
 20
372.227134
 30
0.0
  0
LWPOLYLINE
  5
10c
100
AcDbEntity
  8
0
 62
7
100
AcDbPolyline
 90
2
 70
0
 10
629.837464
 20
372.227134
 30
0.0
 10
629.837464
 20
372.227134
 30
0.0
  0
LWPOLYLINE
  5
10d
100
AcDbEntity
  8
0
 62
7
100
AcDbPolyline
 90
2
 70
0
 10
655.837463
 20
372.227134
 30
0.0
 10
655.837463
 20
372.227134
 30
0.0
  0
SPLINE
  5
10e
100
AcDbEntity
  8
0
 62
7
100
AcDbSpline
 70
8
 71
3
 72
8
 73
4
 74
0
 40
0
 40
0
 40
0
 40
0
 40
1
 40
1
 40
1
 40
1
 10
568.861074
 20
227.246424
 30
0.0
 10
570.849299
 20
227.246424
 30
0.0
 10
572.461074
 20
225.634650
 30
0.0
 10
572.461074
 20
223.646424
 30
0.0
  0
SPLINE
  5
10f
100
AcDbEntity
  8
0
 62
7
100
AcDbSpline
 70
8
 71
3
 72
8
 73
4
 74
0
 40
0
 40
0
 40
0
 40
0
 40
1
 40
1
 40
1
 40
1
 10
572.461074
 20
223.646424
 30
0.0
 10
572.461074
 20
221.658199
 30
0.0
 10
570.849299
 20
220.046424
 30
0.0
 10
568.861074
 20
220.046424
 30
0.0
  0
SPLINE
  5
110
100
AcDbEntity
  8
0
 62
7
100
AcDbSpline
 70
8
 71
3
 72
8
 73
4
 74
0
 40
0
 40
0
 40
0
 40
0
 40
1
 40
1
 40
1
 40
1
 10
568.861074
 20
220.046424
 30
0.0
 10
566.872849
 20
220.046424
 30
0.0
 10
565.261074
 20
221.658199
 30
0.0
 10
565.261074
 20
223.646424
 30
0.0
  0
SPLINE
  5
111
100
AcDbEntity
  8
0
 62
7
100
AcDbSpline
 70
8
 71
3
 72
8
 73
4
 74
0
 40
0
 40
0
 40
0
 40
0
 40
1
 40
1
 40
1
 40
1
 10
565.261074
 20
223.646424
 30
0.0
 10
565.261074
 20
225.634650
 30
0.0
 10
566.872849
 20
227.246424
 30
0.0
 10
568.861074
 20
227.246424
 30
0.0
  0
LWPOLYLINE
  5
112
100
AcDbEntity
  8
0
 62
7
100
AcDbPolyline
 90
42
 70
0
 10
554.608836
 20
216.096732
 30
0.0
 10
557.607447
 20
216.096732
 30
0.0
 10
557.607447
 20
212.727704
 30
0.0
 10
565.906559
 20
212.727704
 30
0.0
 10
565.906559
 20
212.736509
 30
0.0
 10
571.815587
 20
212.736509
 30
0.0
 10
571.815587
 20
212.727704
 30
0.0
 10
580.114670
 20
212.727704
 30
0.0
 10
580.114670
 20
216.096732
 30
0.0
 10
583.113281
 20
216.096732
 30
0.0
 10
583.113281
 20
222.182149
 30
0.0
 10
580.114670
 20
222.182149
 30
0.0
 10
580.114670
 20
228.496872
 30
0.0
 10
583.113281
 20
228.496872
 30
0.0
 10
583.113281
 20
234.582288
 30
0.0
 10
580.114670
 20
234.582288
 30
0.0
 10
580.114670
 20
240.897011
 30
0.0
 10
583.113281
 20
240.897011
 30
0.0
 10
583.113281
 20
246.982427
 30
0.0
 10
580.114670
 20
246.982427
 30
0.0
 10
580.114670
 20
253.297149
 30
0.0
 10
583.113281
 20
253.297149
 30
0.0
 10
583.113281
 20
259.382566
 30
0.0
 10
580.114670
 20
259.382566
 30
0.0
 10
580.114670
 20
262.725136
 30
0.0
 10
557.607447
 20
262.725136
 30
0.0
 10
557.607447
 20
259.382566
 30
0.0
 10
554.608836
 20
259.382566
 30
0.0
 10
554.608836
 20
253.297149
 30
0.0
 10
557.607447
 20
253.297149
 30
0.0
 10
557.607447
 20
246.982427
 30
0.0
 10
554.608836
 20
246.982427
 30
0.0
 10
554.608836
 20
240.897011
 30
0.0
 10
557.607447
 20
240.897011
 30
0.0
 10
557.607447
 20
234.582288
 30
0.0
 10
554.608836
 20
234.582288
 30
0.0
 10
554.608836
 20
228.496872
 30
0.0
 10
557.607447
 20
228.496872
 30
0.0
 10
557.607447
 20
222.182149
 30
0.0
 10
554.608836
 20
222.182149
 30
0.0
 10
554.608836
 20
216.096732
 30
0.0
 10
554.608836
 20
216.096732
 30
0.0
  0
SPLINE
  5
113
100
AcDbEntity
  8
0
 62
7
100
AcDbSpline
 70
8
 71
3
 72
8
 73
4
 74
0
 40
0
 40
0
 40
0
 40
0
 40
1
 40
1
 40
1
 40
1
 10
568.861074
 20
237.076424
 30
0.0
 10
569.965643
 20
237.076424
 30
0.0
 10
570.861074
 20
236.180993
 30
0.0
 10
570.861074
 20
235.076424
 30
0.0
  0
SPLINE
  5
114
100
AcDbEntity
  8
0
 62
7
100
AcDbSpline
 70
8
 71
3
 72
8
 73
4
 74
0
 40
0
 40
0
 40
0
 40
0
 40
1
 40
1
 40
1
 40
1
 10
570.861074
 20
235.076424
 30
0.0
 10
570.861074
 20
233.971854
 30
0.0
 10
569.965643
 20
233.076424
 30
0.0
 10
568.861074
 20
233.076424
 30
0.0
  0
SPLINE
  5
115
100
AcDbEntity
  8
0
 62
7
100
AcDbSpline
 70
8
 71
3
 72
8
 73
4
 74
0
 40
0
 40
0
 40
0
 40
0
 40
1
 40
1
 40
1
 40
1
 10
568.861074
 20
233.076424
 30
0.0
 10
567.756504
 20
233.076424
 30
0.0
 10
566.861074
 20
233.971854
 30
0.0
 10
566.861074
 20
235.076424
 30
0.0
  0
SPLINE
  5
116
100
AcDbEntity
  8
0
 62
7
100
AcDbSpline
 70
8
 71
3
 72
8
 73
4
 74
0
 40
0
 40
0
 40
0
 40
0
 40
1
 40
1
 40
1
 40
1
 10
566.861074
 20
235.076424
 30
0.0
 10
566.861074
 20
236.180993
 30
0.0
 10
567.756504
 20
237.076424
 30
0.0
 10
568.861074
 20
237.076424
 30
0.0
  0
LWPOLYLINE
  5
117
100
AcDbEntity
  8
0
 62
7
100
AcDbPolyline
 90
2
 70
0
 10
568.861074
 20
227.246424
 30
0.0
 10
568.861074
 20
227.246424
 30
0.0
  0
LWPOLYLINE
  5
118
100
AcDbEntity
  8
0
 62
7
100
AcDbPolyline
 90
2
 70
0
 10
568.861074
 20
237.076424
 30
0.0
 10
568.861074
 20
237.076424
 30
0.0
  0
SPLINE
  5
119
100
AcDbEntity
  8
0
 62
7
100
AcDbSpline
 70
8
 71
3
 72
8
 73
4
 74
0
 40
0
 40
0
 40
0
 40
0
 40
1
 40
1
 40
1
 40
1
 10
577.571078
 20
245.166424
 30
0.0
 10
578.272479
 20
245.166424
 30
0.0
 10
578.841077
 20
244.597827
 30
0.0
 10
578.841077
 20
243.896425
 30
0.0
  0
SPLINE
  5
11a
100
AcDbEntity
  8
0
 62
7
100
AcDbSpline
 70
8
 71
3
 72
8
 73
4
 74
0
 40
0
 40
0
 40
0
 40
0
 40
1
 40
1
 40
1
 40
1
 10
578.841077
 20
243.896425
 30
0.0
 10
578.841077
 20
243.195023
 30
0.0
 10
578.272479
 20
242.626426
 30
0.0
 10
577.571078
 20
242.626426
 30
0.0
  0
SPLINE
  5
11b
100
AcDbEntity
  8
0
 62
7
100
AcDbSpline
 70
8
 71
3
 72
8
 73
4
 74
0
 40
0
 40
0
 40
0
 40
0
 40
1
 40
1
 40
1
 40
1
 10
577.571078
 20
242.626426
 30
0.0
 10
576.869676
 20
242.626426
 30
0.0
 10
576.301077
 20
243.195023
 30
0.0
 10
576.301077
 20
243.896425
 30
0.0
  0
SPLINE
  5
11c
100
AcDbEntity
  8
0
 62
7
100
AcDbSpline
 70
8
 71
3
 72
8
 73
4
 74
0
 40
0
 40
0
 40
0
 40
0
 40
1
 40
1
 40
1
 40
1
 10
576.301077
 20
243.896425
 30
0.0
 10
576.301077
 20
244.597827
 30
0.0
 10
576.869676
 20
245.166424
 30
0.0
 10
577.571078
 20
245.166424
 30
0.0
  0
LWPOLYLINE
  5
11d
100
AcDbEntity
  8
0
 62
7
100
AcDbPolyline
 90
5
 70
0
 10
566.375838
 20
253.826421
 30
0.0
 10
566.375838
 20
256.326421
 30
0.0
 10
571.775838
 20
256.326421
 30
0.0
 10
571.775838
 20
253.826421
 30
0.0
 10
566.375838
 20
253.826421
 30
0.0
  0
SPLINE
  5
11e
100
AcDbEntity
  8
0
 62
7
100
AcDbSpline
 70
8
 71
3
 72
8
 73
4
 74
0
 40
0
 40
0
 40
0
 40
0
 40
1
 40
1
 40
1
 40
1
 10
560.151053
 20
245.166424
 30
0.0
 10
560.852453
 20
245.166424
 30
0.0
 10
561.421052
 20
244.597827
 30
0.0
 10
561.421052
 20
243.896425
 30
0.0
  0
SPLINE
  5
11f
100
AcDbEntity
  8
0
 62
7
100
AcDbSpline
 70
8
 71
3
 72
8
 73
4
 74
0
 40
0
 40
0
 40
0
 40
0
 40
1
 40
1
 40
1
 40
1
 10
561.421052
 20
243.896425
 30
0.0
 10
561.421052
 20
243.195023
 30
0.0
 10
560.852453
 20
242.626426
 30
0.0
 10
560.151053
 20
242.626426
 30
0.0
  0
SPLINE
  5
120
100
AcDbEntity
  8
0
 62
7
100
AcDbSpline
 70
8
 71
3
 72
8
 73
4
 74
0
 40
0
 40
0
 40
0
 40
0
 40
1
 40
1
 40
1
 40
1
 10
560.151053
 20
242.626426
 30
0.0
 10
559.449650
 20
242.626426
 30
0.0
 10
558.881052
 20
243.195023
 30
0.0
 10
558.881052
 20
243.896425
 30
0.0
  0
SPLINE
  5
121
100
AcDbEntity
  8
0
 62
7
100
AcDbSpline
 70
8
 71
3
 72
8
 73
4
 74
0
 40
0
 40
0
 40
0
 40
0
 40
1
 40
1
 40
1
 40
1
 10
558.881052
 20
243.896425
 30
0.0
 10
558.881052
 20
244.597827
 30
0.0
 10
559.449650
 20
245.166424
 30
0.0
 10
560.151053
 20
245.166424
 30
0.0
  0
LWPOLYLINE
  5
122
100
AcDbEntity
  8
0
 62
7
100
AcDbPolyline
 90
2
 70
0
 10
577.571078
 20
245.166424
 30
0.0
 10
577.571078
 20
245.166424
 30
0.0
  0
LWPOLYLINE
  5
123
100
AcDbEntity
  8
0
 62
7
100
AcDbPolyline
 90
2
 70
0
 10
560.151053
 20
245.166424
 30
0.0
 10
560.151053
 20
245.166424
 30
0.0
  0
LWPOLYLINE
  5
124
100
AcDbEntity
  8
0
 62
7
100
AcDbPolyline
 90
33
 70
0
 10
480.990684
 20
258.628000
 30
0.0
 10
480.990684
 20
255.629389
 30
0.0
 10
476.369295
 20
255.629389
 30
0.0
 10
476.369295
 20
255.153139
 30
0.0
 10
476.413407
 20
255.153139
 30
0.0
 10
476.413407
 20
233.201542
 30
0.0
 10
476.369295
 20
233.201542
 30
0.0
 10
476.369295
 20
233.192736
 30
0.0
 10
476.475129
 20
233.192736
 30
0.0
 10
476.475129
 20
232.787042
 30
0.0
 10
477.886240
 20
232.787042
 30
0.0
 10
477.886240
 20
229.885445
 30
0.0
 10
483.416046
 20
229.885445
 30
0.0
 10
483.416046
 20
232.787042
 30
0.0
 10
484.827157
 20
232.787042
 30
0.0
 10
484.827157
 20
233.192736
 30
0.0
 10
484.827157
 20
233.289750
 30
0.0
 10
484.827157
 20
250.990375
 30
0.0
 10
487.675823
 20
250.990375
 30
0.0
 10
487.675823
 20
233.192736
 30
0.0
 10
487.675823
 20
232.822320
 30
0.0
 10
489.086934
 20
232.822320
 30
0.0
 10
489.086934
 20
229.920722
 30
0.0
 10
493.223268
 20
229.920722
 30
0.0
 10
493.223268
 20
232.822320
 30
0.0
 10
494.634379
 20
232.822320
 30
0.0
 10
494.634379
 20
233.131000
 30
0.0
 10
494.660908
 20
233.131000
 30
0.0
 10
494.660908
 20
255.629403
 30
0.0
 10
487.076186
 20
255.629403
 30
0.0
 10
487.076186
 20
258.628014
 30
0.0
 10
480.990769
 20
258.628014
 30
0.0
 10
480.990684
 20
258.628000
 30
0.0
  0
LWPOLYLINE
  5
125
100
AcDbEntity
  8
0
 62
7
100
AcDbPolyline
 90
60
 70
0
 10
593.559251
 20
351.692547
 30
0.0
 10
593.559251
 20
337.431506
 30
0.0
 10
593.435779
 20
337.431506
 30
0.0
 10
593.435779
 20
333.974283
 30
0.0
 10
596.443195
 20
333.974283
 30
0.0
 10
596.443195
 20
328.065256
 30
0.0
 10
593.435779
 20
328.065256
 30
0.0
 10
593.435779
 20
321.574145
 30
0.0
 10
596.443195
 20
321.574145
 30
0.0
 10
596.443195
 20
315.665117
 30
0.0
 10
593.435779
 20
315.665117
 30
0.0
 10
593.435779
 20
309.174006
 30
0.0
 10
596.443195
 20
309.174006
 30
0.0
 10
596.443195
 20
303.264978
 30
0.0
 10
593.435779
 20
303.264978
 30
0.0
 10
593.435779
 20
296.773867
 30
0.0
 10
596.443195
 20
296.773867
 30
0.0
 10
596.443195
 20
290.864839
 30
0.0
 10
593.435779
 20
290.864839
 30
0.0
 10
593.435779
 20
284.417825
 30
0.0
 10
593.435779
 20
269.327756
 30
0.0
 10
679.248973
 20
269.327756
 30
0.0
 10
679.248973
 20
284.417825
 30
0.0
 10
679.248973
 20
290.864839
 30
0.0
 10
676.250362
 20
290.864839
 30
0.0
 10
676.250362
 20
296.773867
 30
0.0
 10
679.248973
 20
296.773867
 30
0.0
 10
679.248973
 20
303.264978
 30
0.0
 10
676.250362
 20
303.264978
 30
0.0
 10
676.250362
 20
309.174006
 30
0.0
 10
679.248973
 20
309.174006
 30
0.0
 10
679.248973
 20
315.665117
 30
0.0
 10
676.250362
 20
315.665117
 30
0.0
 10
676.250362
 20
321.574145
 30
0.0
 10
679.248973
 20
321.574145
 30
0.0
 10
679.248973
 20
328.065256
 30
0.0
 10
676.250362
 20
328.065256
 30
0.0
 10
676.250362
 20
333.974283
 30
0.0
 10
679.248973
 20
333.974283
 30
0.0
 10
679.248973
 20
334.494631
 30
0.0
 10
679.345973
 20
334.494631
 30
0.0
 10
679.345973
 20
351.692547
 30
0.0
 10
669.688695
 20
351.692547
 30
0.0
 10
669.688695
 20
348.693936
 30
0.0
 10
660.340084
 20
348.693936
 30
0.0
 10
660.340084
 20
351.692547
 30
0.0
 10
650.638695
 20
351.692547
 30
0.0
 10
650.638695
 20
348.693936
 30
0.0
 10
641.298918
 20
348.693936
 30
0.0
 10
641.298918
 20
351.692547
 30
0.0
 10
631.597529
 20
351.692547
 30
0.0
 10
631.597529
 20
348.693936
 30
0.0
 10
622.257723
 20
348.693936
 30
0.0
 10
622.257723
 20
351.692547
 30
0.0
 10
612.556334
 20
351.692547
 30
0.0
 10
612.556334
 20
348.693936
 30
0.0
 10
603.216528
 20
348.693936
 30
0.0
 10
603.216528
 20
351.692547
 30
0.0
 10
593.559251
 20
351.692547
 30
0.0
 10
593.559251
 20
351.692547
 30
0.0
  0
LWPOLYLINE
  5
126
100
AcDbEntity
  8
0
 62
7
100
AcDbPolyline
 90
6
 70
0
 10
601.152807
 20
287.416436
 30
0.0
 10
607.061806
 20
287.416436
 30
0.0
 10
607.061806
 20
284.417825
 30
0.0
 10
601.152807
 20
284.417825
 30
0.0
 10
601.152807
 20
287.416436
 30
0.0
 10
601.152807
 20
287.416436
 30
0.0
  0
LWPOLYLINE
  5
127
100
AcDbEntity
  8
0
 62
7
100
AcDbPolyline
 90
6
 70
0
 10
665.622917
 20
287.416436
 30
0.0
 10
671.531973
 20
287.416436
 30
0.0
 10
671.531973
 20
284.417825
 30
0.0
 10
665.622917
 20
284.417825
 30
0.0
 10
665.622917
 20
287.416436
 30
0.0
 10
665.622917
 20
287.416436
 30
0.0
  0
LWPOLYLINE
  5
128
100
AcDbEntity
  8
0
 62
7
100
AcDbPolyline
 90
33
 70
0
 10
513.177451
 20
259.198159
 30
0.0
 10
513.177451
 20
256.199548
 30
0.0
 10
517.798840
 20
256.199548
 30
0.0
 10
517.798840
 20
255.723298
 30
0.0
 10
517.754729
 20
255.723298
 30
0.0
 10
517.754729
 20
233.771701
 30
0.0
 10
517.798840
 20
233.771701
 30
0.0
 10
517.798840
 20
233.762896
 30
0.0
 10
517.693007
 20
233.762896
 30
0.0
 10
517.693007
 20
233.357201
 30
0.0
 10
516.281896
 20
233.357201
 30
0.0
 10
516.281896
 20
230.455601
 30
0.0
 10
510.752090
 20
230.455601
 30
0.0
 10
510.752090
 20
233.357201
 30
0.0
 10
509.340979
 20
233.357201
 30
0.0
 10
509.340979
 20
233.762896
 30
0.0
 10
509.340979
 20
233.859910
 30
0.0
 10
509.340979
 20
251.560535
 30
0.0
 10
506.492312
 20
251.560535
 30
0.0
 10
506.492312
 20
233.762896
 30
0.0
 10
506.492312
 20
233.392479
 30
0.0
 10
505.081201
 20
233.392479
 30
0.0
 10
505.081201
 20
230.490879
 30
0.0
 10
500.944868
 20
230.490879
 30
0.0
 10
500.944868
 20
233.392479
 30
0.0
 10
499.533757
 20
233.392479
 30
0.0
 10
499.533757
 20
233.701160
 30
0.0
 10
499.507228
 20
233.701160
 30
0.0
 10
499.507228
 20
256.199562
 30
0.0
 10
507.091950
 20
256.199562
 30
0.0
 10
507.091950
 20
259.198173
 30
0.0
 10
513.177367
 20
259.198173
 30
0.0
 10
513.177451
 20
259.198159
 30
0.0
  0
SPLINE
  5
129
100
AcDbEntity
  8
0
 62
7
100
AcDbSpline
 70
8
 71
3
 72
8
 73
4
 74
0
 40
0
 40
0
 40
0
 40
0
 40
1
 40
1
 40
1
 40
1
 10
535.479429
 20
227.380858
 30
0.0
 10
536.765813
 20
227.381200
 30
0.0
 10
537.954627
 20
226.695119
 30
0.0
 10
538.597918
 20
225.581135
 30
0.0
  0
SPLINE
  5
12a
100
AcDbEntity
  8
0
 62
7
100
AcDbSpline
 70
8
 71
3
 72
8
 73
4
 74
0
 40
0
 40
0
 40
0
 40
0
 40
1
 40
1
 40
1
 40
1
 10
538.597918
 20
225.581135
 30
0.0
 10
539.241209
 20
224.467150
 30
0.0
 10
539.241209
 20
223.094566
 30
0.0
 10
538.597918
 20
221.980582
 30
0.0
  0
SPLINE
  5
12b
100
AcDbEntity
  8
0
 62
7
100
AcDbSpline
 70
8
 71
3
 72
8
 73
4
 74
0
 40
0
 40
0
 40
0
 40
0
 40
1
 40
1
 40
1
 40
1
 10
538.597918
 20
221.980582
 30
0.0
 10
537.954627
 20
220.866597
 30
0.0
 10
536.765813
 20
220.180516
 30
0.0
 10
535.479429
 20
220.180858
 30
0.0
  0
SPLINE
  5
12c
100
AcDbEntity
  8
0
 62
7
100
AcDbSpline
 70
8
 71
3
 72
8
 73
4
 74
0
 40
0
 40
0
 40
0
 40
0
 40
1
 40
1
 40
1
 40
1
 10
535.479429
 20
220.180858
 30
0.0
 10
534.193045
 20
220.180516
 30
0.0
 10
533.004230
 20
220.866597
 30
0.0
 10
532.360940
 20
221.980582
 30
0.0
  0
SPLINE
  5
12d
100
AcDbEntity
  8
0
 62
7
100
AcDbSpline
 70
8
 71
3
 72
8
 73
4
 74
0
 40
0
 40
0
 40
0
 40
0
 40
1
 40
1
 40
1
 40
1
 10
532.360940
 20
221.980582
 30
0.0
 10
531.717649
 20
223.094566
 30
0.0
 10
531.717649
 20
224.467150
 30
0.0
 10
532.360940
 20
225.581135
 30
0.0
  0
SPLINE
  5
12e
100
AcDbEntity
  8
0
 62
7
100
AcDbSpline
 70
8
 71
3
 72
8
 73
4
 74
0
 40
0
 40
0
 40
0
 40
0
 40
1
 40
1
 40
1
 40
1
 10
532.360940
 20
225.581135
 30
0.0
 10
533.004230
 20
226.695119
 30
0.0
 10
534.193045
 20
227.381200
 30
0.0
 10
535.479429
 20
227.380858
 30
0.0
  0
LWPOLYLINE
  5
12f
100
AcDbEntity
  8
0
 62
7
100
AcDbPolyline
 90
42
 70
0
 10
521.227219
 20
216.231183
 30
0.0
 10
524.225830
 20
216.231183
 30
0.0
 10
524.225830
 20
212.862167
 30
0.0
 10
532.524942
 20
212.862167
 30
0.0
 10
532.524942
 20
212.870916
 30
0.0
 10
538.433970
 20
212.870916
 30
0.0
 10
538.433970
 20
212.862167
 30
0.0
 10
546.733053
 20
212.862167
 30
0.0
 10
546.733053
 20
216.231183
 30
0.0
 10
549.731664
 20
216.231183
 30
0.0
 10
549.731664
 20
222.316600
 30
0.0
 10
546.733053
 20
222.316600
 30
0.0
 10
546.733053
 20
228.631322
 30
0.0
 10
549.731664
 20
228.631322
 30
0.0
 10
549.731664
 20
234.716739
 30
0.0
 10
546.733053
 20
234.716739
 30
0.0
 10
546.733053
 20
241.031461
 30
0.0
 10
549.731664
 20
241.031461
 30
0.0
 10
549.731664
 20
247.116869
 30
0.0
 10
546.733053
 20
247.116869
 30
0.0
 10
546.733053
 20
253.431592
 30
0.0
 10
549.731664
 20
253.431592
 30
0.0
 10
549.731664
 20
259.517008
 30
0.0
 10
546.733053
 20
259.517008
 30
0.0
 10
546.733053
 20
262.859578
 30
0.0
 10
524.225830
 20
262.859578
 30
0.0
 10
524.225830
 20
259.517008
 30
0.0
 10
521.227219
 20
259.517008
 30
0.0
 10
521.227219
 20
253.431592
 30
0.0
 10
524.225830
 20
253.431592
 30
0.0
 10
524.225830
 20
247.116869
 30
0.0
 10
521.227219
 20
247.116869
 30
0.0
 10
521.227219
 20
241.031461
 30
0.0
 10
524.225830
 20
241.031461
 30
0.0
 10
524.225830
 20
234.716739
 30
0.0
 10
521.227219
 20
234.716739
 30
0.0
 10
521.227219
 20
228.631322
 30
0.0
 10
524.225830
 20
228.631322
 30
0.0
 10
524.225830
 20
222.316600
 30
0.0
 10
521.227219
 20
222.316600
 30
0.0
 10
521.227219
 20
216.231183
 30
0.0
 10
521.227219
 20
216.231183
 30
0.0
  0
SPLINE
  5
130
100
AcDbEntity
  8
0
 62
7
100
AcDbSpline
 70
8
 71
3
 72
8
 73
4
 74
0
 40
0
 40
0
 40
0
 40
0
 40
1
 40
1
 40
1
 40
1
 10
535.479429
 20
237.210872
 30
0.0
 10
536.194086
 20
237.211062
 30
0.0
 10
536.854539
 20
236.829905
 30
0.0
 10
537.211923
 20
236.211025
 30
0.0
  0
SPLINE
  5
131
100
AcDbEntity
  8
0
 62
7
100
AcDbSpline
 70
8
 71
3
 72
8
 73
4
 74
0
 40
0
 40
0
 40
0
 40
0
 40
1
 40
1
 40
1
 40
1
 10
537.211923
 20
236.211025
 30
0.0
 10
537.569306
 20
235.592145
 30
0.0
 10
537.569306
 20
234.829598
 30
0.0
 10
537.211923
 20
234.210718
 30
0.0
  0
SPLINE
  5
132
100
AcDbEntity
  8
0
 62
7
100
AcDbSpline
 70
8
 71
3
 72
8
 73
4
 74
0
 40
0
 40
0
 40
0
 40
0
 40
1
 40
1
 40
1
 40
1
 10
537.211923
 20
234.210718
 30
0.0
 10
536.854539
 20
233.591838
 30
0.0
 10
536.194086
 20
233.210681
 30
0.0
 10
535.479429
 20
233.210872
 30
0.0
  0
SPLINE
  5
133
100
AcDbEntity
  8
0
 62
7
100
AcDbSpline
 70
8
 71
3
 72
8
 73
4
 74
0
 40
0
 40
0
 40
0
 40
0
 40
1
 40
1
 40
1
 40
1
 10
535.479429
 20
233.210872
 30
0.0
 10
534.764771
 20
233.210681
 30
0.0
 10
534.104318
 20
233.591838
 30
0.0
 10
533.746934
 20
234.210718
 30
0.0
  0
SPLINE
  5
134
100
AcDbEntity
  8
0
 62
7
100
AcDbSpline
 70
8
 71
3
 72
8
 73
4
 74
0
 40
0
 40
0
 40
0
 40
0
 40
1
 40
1
 40
1
 40
1
 10
533.746934
 20
234.210718
 30
0.0
 10
533.389551
 20
234.829598
 30
0.0
 10
533.389551
 20
235.592145
 30
0.0
 10
533.746934
 20
236.211025
 30
0.0
  0
SPLINE
  5
135
100
AcDbEntity
  8
0
 62
7
100
AcDbSpline
 70
8
 71
3
 72
8
 73
4
 74
0
 40
0
 40
0
 40
0
 40
0
 40
1
 40
1
 40
1
 40
1
 10
533.746934
 20
236.211025
 30
0.0
 10
534.104318
 20
236.829905
 30
0.0
 10
534.764771
 20
237.211062
 30
0.0
 10
535.479429
 20
237.210872
 30
0.0
  0
LWPOLYLINE
  5
136
100
AcDbEntity
  8
0
 62
7
100
AcDbPolyline
 90
2
 70
0
 10
535.479429
 20
227.380858
 30
0.0
 10
535.479429
 20
227.380858
 30
0.0
  0
LWPOLYLINE
  5
137
100
AcDbEntity
  8
0
 62
7
100
AcDbPolyline
 90
2
 70
0
 10
535.479429
 20
237.210872
 30
0.0
 10
535.479429
 20
237.210872
 30
0.0
  0
SPLINE
  5
138
100
AcDbEntity
  8
0
 62
7
100
AcDbSpline
 70
8
 71
3
 72
8
 73
4
 74
0
 40
0
 40
0
 40
0
 40
0
 40
1
 40
1
 40
1
 40
1
 10
544.189433
 20
245.300865
 30
0.0
 10
544.643493
 20
245.301365
 30
0.0
 10
545.063275
 20
245.059413
 30
0.0
 10
545.290449
 20
244.666269
 30
0.0
  0
SPLINE
  5
139
100
AcDbEntity
  8
0
 62
7
100
AcDbSpline
 70
8
 71
3
 72
8
 73
4
 74
0
 40
0
 40
0
 40
0
 40
0
 40
1
 40
1
 40
1
 40
1
 10
545.290449
 20
244.666269
 30
0.0
 10
545.517623
 20
244.273125
 30
0.0
 10
545.517623
 20
243.788607
 30
0.0
 10
545.290449
 20
243.395463
 30
0.0
  0
SPLINE
  5
13a
100
AcDbEntity
  8
0
 62
7
100
AcDbSpline
 70
8
 71
3
 72
8
 73
4
 74
0
 40
0
 40
0
 40
0
 40
0
 40
1
 40
1
 40
1
 40
1
 10
545.290449
 20
243.395463
 30
0.0
 10
545.063275
 20
243.002319
 30
0.0
 10
544.643493
 20
242.760368
 30
0.0
 10
544.189433
 20
242.760867
 30
0.0
  0
SPLINE
  5
13b
100
AcDbEntity
  8
0
 62
7
100
AcDbSpline
 70
8
 71
3
 72
8
 73
4
 74
0
 40
0
 40
0
 40
0
 40
0
 40
1
 40
1
 40
1
 40
1
 10
544.189433
 20
242.760867
 30
0.0
 10
543.735373
 20
242.760368
 30
0.0
 10
543.315591
 20
243.002319
 30
0.0
 10
543.088417
 20
243.395463
 30
0.0
  0
SPLINE
  5
13c
100
AcDbEntity
  8
0
 62
7
100
AcDbSpline
 70
8
 71
3
 72
8
 73
4
 74
0
 40
0
 40
0
 40
0
 40
0
 40
1
 40
1
 40
1
 40
1
 10
543.088417
 20
243.395463
 30
0.0
 10
542.861243
 20
243.788607
 30
0.0
 10
542.861243
 20
244.273125
 30
0.0
 10
543.088417
 20
244.666269
 30
0.0
  0
SPLINE
  5
13d
100
AcDbEntity
  8
0
 62
7
100
AcDbSpline
 70
8
 71
3
 72
8
 73
4
 74
0
 40
0
 40
0
 40
0
 40
0
 40
1
 40
1
 40
1
 40
1
 10
543.088417
 20
244.666269
 30
0.0
 10
543.315591
 20
245.059413
 30
0.0
 10
543.735373
 20
245.301365
 30
0.0
 10
544.189433
 20
245.300865
 30
0.0
  0
LWPOLYLINE
  5
13e
100
AcDbEntity
  8
0
 62
7
100
AcDbPolyline
 90
5
 70
0
 10
532.994193
 20
253.960860
 30
0.0
 10
532.994193
 20
256.460860
 30
0.0
 10
538.394193
 20
256.460860
 30
0.0
 10
538.394193
 20
253.960860
 30
0.0
 10
532.994193
 20
253.960860
 30
0.0
  0
SPLINE
  5
13f
100
AcDbEntity
  8
0
 62
7
100
AcDbSpline
 70
8
 71
3
 72
8
 73
4
 74
0
 40
0
 40
0
 40
0
 40
0
 40
1
 40
1
 40
1
 40
1
 10
526.769436
 20
245.300865
 30
0.0
 10
527.223495
 20
245.301365
 30
0.0
 10
527.643277
 20
245.059413
 30
0.0
 10
527.870451
 20
244.666269
 30
0.0
  0
SPLINE
  5
140
100
AcDbEntity
  8
0
 62
7
100
AcDbSpline
 70
8
 71
3
 72
8
 73
4
 74
0
 40
0
 40
0
 40
0
 40
0
 40
1
 40
1
 40
1
 40
1
 10
527.870451
 20
244.666269
 30
0.0
 10
528.097625
 20
244.273125
 30
0.0
 10
528.097625
 20
243.788607
 30
0.0
 10
527.870451
 20
243.395463
 30
0.0
  0
SPLINE
  5
141
100
AcDbEntity
  8
0
 62
7
100
AcDbSpline
 70
8
 71
3
 72
8
 73
4
 74
0
 40
0
 40
0
 40
0
 40
0
 40
1
 40
1
 40
1
 40
1
 10
527.870451
 20
243.395463
 30
0.0
 10
527.643277
 20
243.002319
 30
0.0
 10
527.223495
 20
242.760368
 30
0.0
 10
526.769436
 20
242.760867
 30
0.0
  0
SPLINE
  5
142
100
AcDbEntity
  8
0
 62
7
100
AcDbSpline
 70
8
 71
3
 72
8
 73
4
 74
0
 40
0
 40
0
 40
0
 40
0
 40
1
 40
1
 40
1
 40
1
 10
526.769436
 20
242.760867
 30
0.0
 10
526.315376
 20
242.760368
 30
0.0
 10
525.895594
 20
243.002319
 30
0.0
 10
525.668420
 20
243.395463
 30
0.0
  0
SPLINE
  5
143
100
AcDbEntity
  8
0
 62
7
100
AcDbSpline
 70
8
 71
3
 72
8
 73
4
 74
0
 40
0
 40
0
 40
0
 40
0
 40
1
 40
1
 40
1
 40
1
 10
525.668420
 20
243.395463
 30
0.0
 10
525.441246
 20
243.788607
 30
0.0
 10
525.441246
 20
244.273125
 30
0.0
 10
525.668420
 20
244.666269
 30
0.0
  0
SPLINE
  5
144
100
AcDbEntity
  8
0
 62
7
100
AcDbSpline
 70
8
 71
3
 72
8
 73
4
 74
0
 40
0
 40
0
 40
0
 40
0
 40
1
 40
1
 40
1
 40
1
 10
525.668420
 20
244.666269
 30
0.0
 10
525.895594
 20
245.059413
 30
0.0
 10
526.315376
 20
245.301365
 30
0.0
 10
526.769436
 20
245.300865
 30
0.0
  0
LWPOLYLINE
  5
145
100
AcDbEntity
  8
0
 62
7
100
AcDbPolyline
 90
2
 70
0
 10
544.189433
 20
245.300865
 30
0.0
 10
544.189433
 20
245.300865
 30
0.0
  0
LWPOLYLINE
  5
146
100
AcDbEntity
  8
0
 62
7
100
AcDbPolyline
 90
2
 70
0
 10
526.769436
 20
245.300865
 30
0.0
 10
526.769436
 20
245.300865
 30
0.0
  0
LWPOLYLINE
  5
147
100
AcDbEntity
  8
newlayer
 62
7
100
AcDbPolyline
 90
61
 70
0
 10
754.292426
 20
211.657115
 30
0.0
 10
757.292420
 20
211.657115
 30
0.0
 10
757.292420
 20
221.567114
 30
0.0
 10
754.292426
 20
221.567114
 30
0.0
 10
754.292426
 20
236.990448
 30
0.0
 10
757.292420
 20
236.990448
 30
0.0
 10
757.292420
 20
246.900447
 30
0.0
 10
754.292426
 20
246.900447
 30
0.0
 10
754.292426
 20
259.278782
 30
0.0
 10
764.747433
 20
259.278782
 30
0.0
 10
764.747433
 20
262.278781
 30
0.0
 10
774.837442
 20
262.278781
 30
0.0
 10
774.837442
 20
259.278782
 30
0.0
 10
785.247435
 20
259.278782
 30
0.0
 10
785.247435
 20
262.278781
 30
0.0
 10
795.337444
 20
262.278781
 30
0.0
 10
795.337444
 20
259.278782
 30
0.0
 10
805.747436
 20
259.278782
 30
0.0
 10
805.747436
 20
262.278781
 30
0.0
 10
815.837417
 20
262.278781
 30
0.0
 10
815.837417
 20
259.278782
 30
0.0
 10
826.247437
 20
259.278782
 30
0.0
 10
826.247437
 20
262.278781
 30
0.0
 10
836.337418
 20
262.278781
 30
0.0
 10
836.337418
 20
259.278782
 30
0.0
 10
846.747439
 20
259.278782
 30
0.0
 10
846.747439
 20
262.278781
 30
0.0
 10
856.837419
 20
262.278781
 30
0.0
 10
856.837419
 20
259.278782
 30
0.0
 10
867.292426
 20
259.278782
 30
0.0
 10
867.292426
 20
246.900447
 30
0.0
 10
864.292432
 20
246.900447
 30
0.0
 10
864.292432
 20
236.990448
 30
0.0
 10
867.292426
 20
236.990448
 30
0.0
 10
867.292426
 20
221.567114
 30
0.0
 10
864.292432
 20
221.567114
 30
0.0
 10
864.292432
 20
211.657115
 30
0.0
 10
867.292426
 20
211.657115
 30
0.0
 10
867.292426
 20
199.278780
 30
0.0
 10
856.837419
 20
199.278780
 30
0.0
 10
856.837419
 20
196.278781
 30
0.0
 10
846.747439
 20
196.278781
 30
0.0
 10
846.747439
 20
199.278780
 30
0.0
 10
836.337418
 20
199.278780
 30
0.0
 10
836.337418
 20
196.278781
 30
0.0
 10
826.247437
 20
196.278781
 30
0.0
 10
826.247437
 20
199.278780
 30
0.0
 10
815.837417
 20
199.278780
 30
0.0
 10
815.837417
 20
196.278781
 30
0.0
 10
805.747436
 20
196.278781
 30
0.0
 10
805.747436
 20
199.278780
 30
0.0
 10
795.337444
 20
199.278780
 30
0.0
 10
795.337444
 20
196.278781
 30
0.0
 10
785.247435
 20
196.278781
 30
0.0
 10
785.247435
 20
199.278780
 30
0.0
 10
774.837442
 20
199.278780
 30
0.0
 10
774.837442
 20
196.278781
 30
0.0
 10
764.747433
 20
196.278781
 30
0.0
 10
764.747433
 20
199.278780
 30
0.0
 10
754.292426
 20
199.278780
 30
0.0
 10
754.292426
 20
211.657115
 30
0.0
  0
LWPOLYLINE
  5
148
100
AcDbEntity
  8
newlayer
 62
7
100
AcDbPolyline
 90
54
 70
0
 10
790.375328
 20
399.260606
 30
0.0
 10
790.375328
 20
396.261995
 30
0.0
 10
778.089828
 20
396.261995
 30
0.0
 10
778.089828
 20
386.975120
 30
0.0
 10
775.091216
 20
386.975120
 30
0.0
 10
775.091216
 20
376.885675
 30
0.0
 10
778.089828
 20
376.885675
 30
0.0
 10
778.089828
 20
364.635467
 30
0.0
 10
775.091216
 20
364.635467
 30
0.0
 10
775.091216
 20
354.546023
 30
0.0
 10
778.089828
 20
354.546023
 30
0.0
 10
778.089828
 20
342.304634
 30
0.0
 10
775.091216
 20
342.304634
 30
0.0
 10
775.091216
 20
332.215187
 30
0.0
 10
778.089828
 20
332.215187
 30
0.0
 10
778.089828
 20
319.973798
 30
0.0
 10
775.091216
 20
319.973798
 30
0.0
 10
775.091216
 20
309.884354
 30
0.0
 10
778.089828
 20
309.884354
 30
0.0
 10
778.089828
 20
297.642965
 30
0.0
 10
775.091216
 20
297.642965
 30
0.0
 10
775.091216
 20
287.553521
 30
0.0
 10
778.089828
 20
287.553521
 30
0.0
 10
778.089828
 20
278.257827
 30
0.0
 10
790.375328
 20
278.257827
 30
0.0
 10
790.375328
 20
275.259216
 30
0.0
 10
800.464772
 20
275.259216
 30
0.0
 10
800.464772
 20
278.257827
 30
0.0
 10
815.713578
 20
278.257827
 30
0.0
 10
815.713578
 20
275.259216
 30
0.0
 10
825.803022
 20
275.259216
 30
0.0
 10
825.803022
 20
278.257827
 30
0.0
 10
838.088522
 20
278.257827
 30
0.0
 10
838.088522
 20
287.553521
 30
0.0
 10
841.087133
 20
287.553521
 30
0.0
 10
841.087133
 20
297.642965
 30
0.0
 10
841.087133
 20
309.884354
 30
0.0
 10
841.087133
 20
319.973798
 30
0.0
 10
841.087133
 20
332.215187
 30
0.0
 10
841.087133
 20
342.304634
 30
0.0
 10
841.087133
 20
354.546023
 30
0.0
 10
841.087133
 20
364.635467
 30
0.0
 10
841.087133
 20
376.885675
 30
0.0
 10
841.087133
 20
386.975120
 30
0.0
 10
838.088522
 20
386.975120
 30
0.0
 10
838.088522
 20
396.261995
 30
0.0
 10
825.803022
 20
396.261995
 30
0.0
 10
825.803022
 20
399.260606
 30
0.0
 10
815.713578
 20
399.260606
 30
0.0
 10
815.713578
 20
396.261995
 30
0.0
 10
800.464772
 20
396.261995
 30
0.0
 10
800.464772
 20
399.260606
 30
0.0
 10
790.375328
 20
399.260606
 30
0.0
 10
790.375328
 20
399.260606
 30
0.0
  0
LWPOLYLINE
  5
149
100
AcDbEntity
  8
newlayer
 62
7
100
AcDbPolyline
 90
94
 70
0
 10
474.336195
 20
389.568889
 30
0.0
 10
474.336195
 20
377.195208
 30
0.0
 10
477.334806
 20
377.195208
 30
0.0
 10
477.334806
 20
367.290972
 30
0.0
 10
487.847584
 20
367.290972
 30
0.0
 10
487.847584
 20
363.339861
 30
0.0
 10
490.810917
 20
363.339861
 30
0.0
 10
490.810917
 20
357.430833
 30
0.0
 10
487.847584
 20
357.430833
 30
0.0
 10
487.847584
 20
350.939722
 30
0.0
 10
490.810917
 20
350.939722
 30
0.0
 10
490.810917
 20
345.030694
 30
0.0
 10
487.847584
 20
345.030694
 30
0.0
 10
487.847584
 20
338.539583
 30
0.0
 10
490.810917
 20
338.539583
 30
0.0
 10
490.810917
 20
332.630556
 30
0.0
 10
487.847584
 20
332.630556
 30
0.0
 10
487.847584
 20
326.139444
 30
0.0
 10
490.810917
 20
326.139444
 30
0.0
 10
490.810917
 20
320.230417
 30
0.0
 10
487.847584
 20
320.230417
 30
0.0
 10
487.847584
 20
287.669028
 30
0.0
 10
477.334806
 20
287.669028
 30
0.0
 10
477.334806
 20
277.950000
 30
0.0
 10
474.336195
 20
277.950000
 30
0.0
 10
474.336195
 20
265.567500
 30
0.0
 10
484.884250
 20
265.567500
 30
0.0
 10
484.884250
 20
268.566111
 30
0.0
 10
494.797306
 20
268.566111
 30
0.0
 10
494.797306
 20
265.567500
 30
0.0
 10
505.380639
 20
265.567500
 30
0.0
 10
505.380639
 20
268.566111
 30
0.0
 10
515.293695
 20
268.566111
 30
0.0
 10
515.293695
 20
265.567500
 30
0.0
 10
525.885833
 20
265.567500
 30
0.0
 10
525.885833
 20
268.566111
 30
0.0
 10
535.790084
 20
268.566111
 30
0.0
 10
535.790084
 20
265.567500
 30
0.0
 10
546.382222
 20
265.567500
 30
0.0
 10
546.382222
 20
268.566111
 30
0.0
 10
556.295278
 20
268.566111
 30
0.0
 10
556.295278
 20
265.567500
 30
0.0
 10
566.887416
 20
265.567500
 30
0.0
 10
566.887416
 20
268.566111
 30
0.0
 10
576.791667
 20
268.566111
 30
0.0
 10
576.791667
 20
265.567500
 30
0.0
 10
587.339722
 20
265.567500
 30
0.0
 10
587.339722
 20
277.950000
 30
0.0
 10
584.341111
 20
277.950000
 30
0.0
 10
584.341111
 20
287.766042
 30
0.0
 10
573.925361
 20
287.766042
 30
0.0
 10
573.925361
 20
320.230417
 30
0.0
 10
571.067861
 20
320.230417
 30
0.0
 10
571.067861
 20
326.139444
 30
0.0
 10
573.925361
 20
326.139444
 30
0.0
 10
573.925361
 20
332.630556
 30
0.0
 10
571.067861
 20
332.630556
 30
0.0
 10
571.067861
 20
338.539583
 30
0.0
 10
573.925361
 20
338.539583
 30
0.0
 10
573.925361
 20
345.030694
 30
0.0
 10
571.067861
 20
345.030694
 30
0.0
 10
571.067861
 20
350.939722
 30
0.0
 10
573.925361
 20
350.939722
 30
0.0
 10
573.925361
 20
357.430833
 30
0.0
 10
571.067861
 20
357.430833
 30
0.0
 10
571.067861
 20
363.339861
 30
0.0
 10
573.925361
 20
363.339861
 30
0.0
 10
573.925361
 20
367.396806
 30
0.0
 10
584.341111
 20
367.396806
 30
0.0
 10
584.341111
 20
377.195208
 30
0.0
 10
587.339722
 20
377.195208
 30
0.0
 10
587.339722
 20
389.568889
 30
0.0
 10
576.791667
 20
389.568889
 30
0.0
 10
576.791667
 20
386.570278
 30
0.0
 10
566.887416
 20
386.570278
 30
0.0
 10
566.887416
 20
389.568889
 30
0.0
 10
556.295278
 20
389.568889
 30
0.0
 10
556.295278
 20
386.570278
 30
0.0
 10
546.382222
 20
386.570278
 30
0.0
 10
546.382222
 20
389.568889
 30
0.0
 10
535.790084
 20
389.568889
 30
0.0
 10
535.790084
 20
386.570278
 30
0.0
 10
525.885833
 20
386.570278
 30
0.0
 10
525.885833
 20
389.568889
 30
0.0
 10
515.293695
 20
389.568889
 30
0.0
 10
515.293695
 20
386.570278
 30
0.0
 10
505.380639
 20
386.570278
 30
0.0
 10
505.380639
 20
389.568889
 30
0.0
 10
494.797306
 20
389.568889
 30
0.0
 10
494.797306
 20
386.570278
 30
0.0
 10
484.884250
 20
386.570278
 30
0.0
 10
484.884250
 20
389.568889
 30
0.0
 10
474.336195
 20
389.568889
 30
0.0
 10
474.336195
 20
389.568889
 30
0.0
  0
LWPOLYLINE
  5
14a
100
AcDbEntity
  8
newlayer
 62
7
100
AcDbPolyline
 90
6
 70
0
 10
492.224850
 20
316.729971
 30
0.0
 10
492.224850
 20
313.837193
 30
0.0
 10
497.860489
 20
313.837193
 30
0.0
 10
497.860489
 20
316.729971
 30
0.0
 10
492.224850
 20
316.729971
 30
0.0
 10
492.224850
 20
316.729971
 30
0.0
  0
LWPOLYLINE
  5
14b
100
AcDbEntity
  8
newlayer
 62
7
100
AcDbPolyline
 90
6
 70
0
 10
503.531378
 20
316.782888
 30
0.0
 10
503.531378
 20
313.784277
 30
0.0
 10
507.729434
 20
313.784277
 30
0.0
 10
507.729434
 20
316.782888
 30
0.0
 10
503.531378
 20
316.782888
 30
0.0
 10
503.531378
 20
316.782888
 30
0.0
  0
LWPOLYLINE
  5
14c
100
AcDbEntity
  8
newlayer
 62
7
100
AcDbPolyline
 90
6
 70
0
 10
553.965505
 20
316.782888
 30
0.0
 10
553.965505
 20
313.784277
 30
0.0
 10
558.163561
 20
313.784277
 30
0.0
 10
558.163561
 20
316.782888
 30
0.0
 10
553.965505
 20
316.782888
 30
0.0
 10
553.965505
 20
316.782888
 30
0.0
  0
LWPOLYLINE
  5
14d
100
AcDbEntity
  8
newlayer
 62
7
100
AcDbPolyline
 90
6
 70
0
 10
563.834449
 20
316.985735
 30
0.0
 10
563.834449
 20
313.581429
 30
0.0
 10
569.364255
 20
313.581429
 30
0.0
 10
569.364255
 20
316.985735
 30
0.0
 10
563.834449
 20
316.985735
 30
0.0
 10
563.834449
 20
316.985735
 30
0.0
  0
SPLINE
  5
14e
100
AcDbEntity
  8
newlayer
 62
7
100
AcDbSpline
 70
8
 71
3
 72
8
 73
4
 74
0
 40
0
 40
0
 40
0
 40
0
 40
1
 40
1
 40
1
 40
1
 10
662.105892
 20
281.890000
 30
0.0
 10
662.105892
 20
281.006346
 30
0.0
 10
661.389556
 20
280.290000
 30
0.0
 10
660.505890
 20
280.290000
 30
0.0
  0
SPLINE
  5
14f
100
AcDbEntity
  8
newlayer
 62
7
100
AcDbSpline
 70
8
 71
3
 72
8
 73
4
 74
0
 40
0
 40
0
 40
0
 40
0
 40
1
 40
1
 40
1
 40
1
 10
660.505890
 20
280.290000
 30
0.0
 10
659.622224
 20
280.290000
 30
0.0
 10
658.905887
 20
281.006346
 30
0.0
 10
658.905887
 20
281.890000
 30
0.0
  0
SPLINE
  5
150
100
AcDbEntity
  8
newlayer
 62
7
100
AcDbSpline
 70
8
 71
3
 72
8
 73
4
 74
0
 40
0
 40
0
 40
0
 40
0
 40
1
 40
1
 40
1
 40
1
 10
658.905887
 20
281.890000
 30
0.0
 10
658.905887
 20
282.773657
 30
0.0
 10
659.622224
 20
283.490000
 30
0.0
 10
660.505890
 20
283.490000
 30
0.0
  0
SPLINE
  5
151
100
AcDbEntity
  8
newlayer
 62
7
100
AcDbSpline
 70
8
 71
3
 72
8
 73
4
 74
0
 40
0
 40
0
 40
0
 40
0
 40
1
 40
1
 40
1
 40
1
 10
660.505890
 20
283.490000
 30
0.0
 10
661.389556
 20
283.490000
 30
0.0
 10
662.105892
 20
282.773657
 30
0.0
 10
662.105892
 20
281.890000
 30
0.0
  0
LWPOLYLINE
  5
152
100
AcDbEntity
  8
newlayer
 62
7
100
AcDbPolyline
 90
24
 70
0
 10
594.285437
 20
386.068385
 30
0.0
 10
594.285437
 20
368.852830
 30
0.0
 10
594.285437
 20
358.216580
 30
0.0
 10
601.041131
 20
358.216580
 30
0.0
 10
601.041131
 20
355.217968
 30
0.0
 10
610.557326
 20
355.217968
 30
0.0
 10
610.557326
 20
358.216580
 30
0.0
 10
620.099937
 20
358.216580
 30
0.0
 10
620.099937
 20
355.217968
 30
0.0
 10
629.616131
 20
355.217968
 30
0.0
 10
629.616131
 20
358.216580
 30
0.0
 10
639.158770
 20
358.216580
 30
0.0
 10
639.158770
 20
355.217968
 30
0.0
 10
648.683770
 20
355.217968
 30
0.0
 10
648.683770
 20
358.216580
 30
0.0
 10
658.217604
 20
358.216580
 30
0.0
 10
658.217604
 20
355.217968
 30
0.0
 10
667.742604
 20
355.217968
 30
0.0
 10
667.742604
 20
358.216580
 30
0.0
 10
674.489465
 20
358.216580
 30
0.0
 10
674.489465
 20
368.852830
 30
0.0
 10
674.489465
 20
386.068385
 30
0.0
 10
594.285437
 20
386.068385
 30
0.0
 10
594.285437
 20
386.068385
 30
0.0
  0
SPLINE
  5
153
100
AcDbEntity
  8
newlayer
 62
7
100
AcDbSpline
 70
8
 71
3
 72
8
 73
4
 74
0
 40
0
 40
0
 40
0
 40
0
 40
1
 40
1
 40
1
 40
1
 10
613.875892
 20
281.890000
 30
0.0
 10
613.875892
 20
281.006346
 30
0.0
 10
613.159556
 20
280.290000
 30
0.0
 10
612.275890
 20
280.290000
 30
0.0
  0
SPLINE
  5
154
100
AcDbEntity
  8
newlayer
 62
7
100
AcDbSpline
 70
8
 71
3
 72
8
 73
4
 74
0
 40
0
 40
0
 40
0
 40
0
 40
1
 40
1
 40
1
 40
1
 10
612.275890
 20
280.290000
 30
0.0
 10
611.392252
 20
280.290000
 30
0.0
 10
610.675888
 20
281.006346
 30
0.0
 10
610.675888
 20
281.890000
 30
0.0
  0
SPLINE
  5
155
100
AcDbEntity
  8
newlayer
 62
7
100
AcDbSpline
 70
8
 71
3
 72
8
 73
4
 74
0
 40
0
 40
0
 40
0
 40
0
 40
1
 40
1
 40
1
 40
1
 10
610.675888
 20
281.890000
 30
0.0
 10
610.675888
 20
282.773657
 30
0.0
 10
611.392252
 20
283.490000
 30
0.0
 10
612.275890
 20
283.490000
 30
0.0
  0
SPLINE
  5
156
100
AcDbEntity
  8
newlayer
 62
7
100
AcDbSpline
 70
8
 71
3
 72
8
 73
4
 74
0
 40
0
 40
0
 40
0
 40
0
 40
1
 40
1
 40
1
 40
1
 10
612.275890
 20
283.490000
 30
0.0
 10
613.159556
 20
283.490000
 30
0.0
 10
613.875892
 20
282.773657
 30
0.0
 10
613.875892
 20
281.890000
 30
0.0
  0
LWPOLYLINE
  5
157
100
AcDbEntity
  8
newlayer
 62
7
100
AcDbPolyline
 90
2
 70
0
 10
662.105892
 20
281.890000
 30
0.0
 10
662.105892
 20
281.890000
 30
0.0
  0
SPLINE
  5
158
100
AcDbEntity
  8
newlayer
 62
7
100
AcDbSpline
 70
8
 71
3
 72
8
 73
4
 74
0
 40
0
 40
0
 40
0
 40
0
 40
1
 40
1
 40
1
 40
1
 10
522.287959
 20
361.032773
 30
0.0
 10
522.287959
 20
360.231964
 30
0.0
 10
521.638772
 20
359.582773
 30
0.0
 10
520.837959
 20
359.582773
 30
0.0
  0
SPLINE
  5
159
100
AcDbEntity
  8
newlayer
 62
7
100
AcDbSpline
 70
8
 71
3
 72
8
 73
4
 74
0
 40
0
 40
0
 40
0
 40
0
 40
1
 40
1
 40
1
 40
1
 10
520.837959
 20
359.582773
 30
0.0
 10
520.037146
 20
359.582773
 30
0.0
 10
519.387958
 20
360.231964
 30
0.0
 10
519.387958
 20
361.032773
 30
0.0
  0
SPLINE
  5
15a
100
AcDbEntity
  8
newlayer
 62
7
100
AcDbSpline
 70
8
 71
3
 72
8
 73
4
 74
0
 40
0
 40
0
 40
0
 40
0
 40
1
 40
1
 40
1
 40
1
 10
519.387958
 20
361.032773
 30
0.0
 10
519.387958
 20
361.833591
 30
0.0
 10
520.037146
 20
362.482774
 30
0.0
 10
520.837959
 20
362.482774
 30
0.0
  0
SPLINE
  5
15b
100
AcDbEntity
  8
newlayer
 62
7
100
AcDbSpline
 70
8
 71
3
 72
8
 73
4
 74
0
 40
0
 40
0
 40
0
 40
0
 40
1
 40
1
 40
1
 40
1
 10
520.837959
 20
362.482774
 30
0.0
 10
521.638772
 20
362.482774
 30
0.0
 10
522.287959
 20
361.833591
 30
0.0
 10
522.287959
 20
361.032773
 30
0.0
  0
LWPOLYLINE
  5
15c
100
AcDbEntity
  8
newlayer
 62
7
100
AcDbPolyline
 90
2
 70
0
 10
613.875892
 20
281.890000
 30
0.0
 10
613.875892
 20
281.890000
 30
0.0
  0
SPLINE
  5
15d
100
AcDbEntity
  8
newlayer
 62
7
100
AcDbSpline
 70
8
 71
3
 72
8
 73
4
 74
0
 40
0
 40
0
 40
0
 40
0
 40
1
 40
1
 40
1
 40
1
 10
542.287958
 20
361.032773
 30
0.0
 10
542.287958
 20
360.231964
 30
0.0
 10
541.638771
 20
359.582773
 30
0.0
 10
540.837958
 20
359.582773
 30
0.0
  0
SPLINE
  5
15e
100
AcDbEntity
  8
newlayer
 62
7
100
AcDbSpline
 70
8
 71
3
 72
8
 73
4
 74
0
 40
0
 40
0
 40
0
 40
0
 40
1
 40
1
 40
1
 40
1
 10
540.837958
 20
359.582773
 30
0.0
 10
540.037146
 20
359.582773
 30
0.0
 10
539.387958
 20
360.231964
 30
0.0
 10
539.387958
 20
361.032773
 30
0.0
  0
SPLINE
  5
15f
100
AcDbEntity
  8
newlayer
 62
7
100
AcDbSpline
 70
8
 71
3
 72
8
 73
4
 74
0
 40
0
 40
0
 40
0
 40
0
 40
1
 40
1
 40
1
 40
1
 10
539.387958
 20
361.032773
 30
0.0
 10
539.387958
 20
361.833591
 30
0.0
 10
540.037146
 20
362.482774
 30
0.0
 10
540.837958
 20
362.482774
 30
0.0
  0
SPLINE
  5
160
100
AcDbEntity
  8
newlayer
 62
7
100
AcDbSpline
 70
8
 71
3
 72
8
 73
4
 74
0
 40
0
 40
0
 40
0
 40
0
 40
1
 40
1
 40
1
 40
1
 10
540.837958
 20
362.482774
 30
0.0
 10
541.638771
 20
362.482774
 30
0.0
 10
542.287958
 20
361.833591
 30
0.0
 10
542.287958
 20
361.032773
 30
0.0
  0
LWPOLYLINE
  5
161
100
AcDbEntity
  8
newlayer
 62
7
100
AcDbPolyline
 90
2
 70
0
 10
522.287959
 20
361.032773
 30
0.0
 10
522.287959
 20
361.032773
 30
0.0
  0
SPLINE
  5
162
100
AcDbEntity
  8
newlayer
 62
7
100
AcDbSpline
 70
8
 71
3
 72
8
 73
4
 74
0
 40
0
 40
0
 40
0
 40
0
 40
1
 40
1
 40
1
 40
1
 10
522.287959
 20
294.103613
 30
0.0
 10
522.287959
 20
293.302803
 30
0.0
 10
521.638772
 20
292.653612
 30
0.0
 10
520.837959
 20
292.653612
 30
0.0
  0
SPLINE
  5
163
100
AcDbEntity
  8
newlayer
 62
7
100
AcDbSpline
 70
8
 71
3
 72
8
 73
4
 74
0
 40
0
 40
0
 40
0
 40
0
 40
1
 40
1
 40
1
 40
1
 10
520.837959
 20
292.653612
 30
0.0
 10
520.037146
 20
292.653612
 30
0.0
 10
519.387958
 20
293.302803
 30
0.0
 10
519.387958
 20
294.103613
 30
0.0
  0
SPLINE
  5
164
100
AcDbEntity
  8
newlayer
 62
7
100
AcDbSpline
 70
8
 71
3
 72
8
 73
4
 74
0
 40
0
 40
0
 40
0
 40
0
 40
1
 40
1
 40
1
 40
1
 10
519.387958
 20
294.103613
 30
0.0
 10
519.387958
 20
294.904430
 30
0.0
 10
520.037146
 20
295.553613
 30
0.0
 10
520.837959
 20
295.553613
 30
0.0
  0
SPLINE
  5
165
100
AcDbEntity
  8
newlayer
 62
7
100
AcDbSpline
 70
8
 71
3
 72
8
 73
4
 74
0
 40
0
 40
0
 40
0
 40
0
 40
1
 40
1
 40
1
 40
1
 10
520.837959
 20
295.553613
 30
0.0
 10
521.638772
 20
295.553613
 30
0.0
 10
522.287959
 20
294.904430
 30
0.0
 10
522.287959
 20
294.103613
 30
0.0
  0
LWPOLYLINE
  5
166
100
AcDbEntity
  8
newlayer
 62
7
100
AcDbPolyline
 90
2
 70
0
 10
542.287958
 20
361.032773
 30
0.0
 10
542.287958
 20
361.032773
 30
0.0
  0
SPLINE
  5
167
100
AcDbEntity
  8
newlayer
 62
7
100
AcDbSpline
 70
8
 71
3
 72
8
 73
4
 74
0
 40
0
 40
0
 40
0
 40
0
 40
1
 40
1
 40
1
 40
1
 10
542.287958
 20
294.103613
 30
0.0
 10
542.287958
 20
293.302803
 30
0.0
 10
541.638771
 20
292.653612
 30
0.0
 10
540.837958
 20
292.653612
 30
0.0
  0
SPLINE
  5
168
100
AcDbEntity
  8
newlayer
 62
7
100
AcDbSpline
 70
8
 71
3
 72
8
 73
4
 74
0
 40
0
 40
0
 40
0
 40
0
 40
1
 40
1
 40
1
 40
1
 10
540.837958
 20
292.653612
 30
0.0
 10
540.037146
 20
292.653612
 30
0.0
 10
539.387958
 20
293.302803
 30
0.0
 10
539.387958
 20
294.103613
 30
0.0
  0
SPLINE
  5
169
100
AcDbEntity
  8
newlayer
 62
7
100
AcDbSpline
 70
8
 71
3
 72
8
 73
4
 74
0
 40
0
 40
0
 40
0
 40
0
 40
1
 40
1
 40
1
 40
1
 10
539.387958
 20
294.103613
 30
0.0
 10
539.387958
 20
294.904430
 30
0.0
 10
540.037146
 20
295.553613
 30
0.0
 10
540.837958
 20
295.553613
 30
0.0
  0
SPLINE
  5
16a
100
AcDbEntity
  8
newlayer
 62
7
100
AcDbSpline
 70
8
 71
3
 72
8
 73
4
 74
0
 40
0
 40
0
 40
0
 40
0
 40
1
 40
1
 40
1
 40
1
 10
540.837958
 20
295.553613
 30
0.0
 10
541.638771
 20
295.553613
 30
0.0
 10
542.287958
 20
294.904430
 30
0.0
 10
542.287958
 20
294.103613
 30
0.0
  0
LWPOLYLINE
  5
16b
100
AcDbEntity
  8
newlayer
 62
7
100
AcDbPolyline
 90
2
 70
0
 10
522.287959
 20
294.103613
 30
0.0
 10
522.287959
 20
294.103613
 30
0.0
  0
LWPOLYLINE
  5
16c
100
AcDbEntity
  8
newlayer
 62
7
100
AcDbPolyline
 90
2
 70
0
 10
542.287958
 20
294.103613
 30
0.0
 10
542.287958
 20
294.103613
 30
0.0
  0
ENDSEC
  0
SECTION
  2
OBJECTS
  0
DICTIONARY
  5
C
330
0
100
AcDbDictionary
  3
ACAD_GROUP
350
D
  3
ACAD_MLINESTYLE
350
17
  0
DICTIONARY
  5
D
330
C
100
AcDbDictionary
  0
DICTIONARY
  5
1A
330
C
100
AcDbDictionary
  0
DICTIONARY
  5
17
330
C
100
AcDbDictionary
  3
STANDARD
350
18
  0
DICTIONARY
  5
19
330
C
100
AcDbDictionary
  0
ENDSEC
  0
EOF
