  0
SECTION
  2
HEADER
  9
$ACADVER
  1
AC1014
  9
$HANDSEED
  5
FFFF
  9
$MEASUREMENT
 70
     1
  0
ENDSEC
  0
SECTION
  2
TABLES
  0
TABLE
  2
VPORT
  5
8
330
0
100
AcDbSymbolTable
 70
     4
  0
VPORT
  5
2E
330
8
100
AcDbSymbolTableRecord
100
AcDbViewportTableRecord
  2
*ACTIVE
 70
     0
 10
0.0
 20
0.0
 11
1.0
 21
1.0
 12
210.0
 22
148.5
 13
0.0
 23
0.0
 14
10.0
 24
10.0
 15
10.0
 25
10.0
 16
0.0
 26
0.0
 36
1.0
 17
0.0
 27
0.0
 37
0.0
 40
341.0
 41
1.24
 42
50.0
 43
0.0
 44
0.0
 50
0.0
 51
0.0
 71
     0
 72
   100
 73
     1
 74
     3
 75
     0
 76
     0
 77
     0
 78
     0
  0
ENDTAB
  0
TABLE
  2
LTYPE
  5
5
330
0
100
AcDbSymbolTable
 70
     1
  0
LTYPE
  5
14
330
5
100
AcDbSymbolTableRecord
100
AcDbLinetypeTableRecord
  2
BYBLOCK
 70
     0
  3

 72
    65
 73
     0
 40
0.0
  0
LTYPE
  5
15
330
5
100
AcDbSymbolTableRecord
100
AcDbLinetypeTableRecord
  2
BYLAYER
 70
     0
  3

 72
    65
 73
     0
 40
0.0
  0
LTYPE
  5
16
330
5
100
AcDbSymbolTableRecord
100
AcDbLinetypeTableRecord
  2
CONTINUOUS
 70
     0
  3
Solid line
 72
    65
 73
     0
 40
0.0
  0
ENDTAB
  0
TABLE
  2
LAYER
  5
2
100
AcDbSymbolTable
 70
2
  0
LAYER
  5
50
100
AcDbSymbolTableRecord
100
AcDbLayerTableRecord
  2
0
 70
0
  6
CONTINUOUS
  0
LAYER
  5
51
100
AcDbSymbolTableRecord
100
AcDbLayerTableRecord
  2
newlayer
 70
0
  6
CONTINUOUS
  0
ENDTAB
  0
TABLE
  2
STYLE
  5
3
330
0
100
AcDbSymbolTable
 70
     1
  0
STYLE
  5
11
330
3
100
AcDbSymbolTableRecord
100
AcDbTextStyleTableRecord
  2
STANDARD
 70
     0
 40
0.0
 41
1.0
 50
0.0
 71
     0
 42
2.5
  3
txt
  4

  0
ENDTAB
  0
TABLE
  2
VIEW
  5
6
330
0
100
AcDbSymbolTable
 70
     0
  0
ENDTAB
  0
TABLE
  2
UCS
  5
7
330
0
100
AcDbSymbolTable
 70
     0
  0
ENDTAB
  0
TABLE
  2
APPID
  5
9
330
0
100
AcDbSymbolTable
 70
     2
  0
APPID
  5
12
330
9
100
AcDbSymbolTableRecord
100
AcDbRegAppTableRecord
  2
ACAD
 70
     0
  0
ENDTAB
  0
TABLE
  2
DIMSTYLE
  5
A
330
0
100
AcDbSymbolTable
 70
     1
  0
DIMSTYLE
105
27
330
A
100
AcDbSymbolTableRecord
100
AcDbDimStyleTableRecord
  2
ISO-25
 70
     0
  3

  4

  5

  6

  7

 40
1.0
 41
2.5
 42
0.625
 43
3.75
 44
1.25
 45
0.0
 46
0.0
 47
0.0
 48
0.0
140
2.5
141
2.5
142
0.0
143
0.03937007874016
144
1.0
145
0.0
146
1.0
147
0.625
 71
     0
 72
     0
 73
     0
 74
     0
 75
     0
 76
     0
 77
     1
 78
     8
170
     0
171
     3
172
     1
173
     0
174
     0
175
     0
176
     0
177
     0
178
     0
270
     2
271
     2
272
     2
273
     2
274
     3
340
11
275
     0
280
     0
281
     0
282
     0
283
     0
284
     8
285
     0
286
     0
287
     3
288
     0
  0
ENDTAB
  0
TABLE
  2
BLOCK_RECORD
  5
1
330
0
100
AcDbSymbolTable
 70
     1
  0
BLOCK_RECORD
  5
1F
330
1
100
AcDbSymbolTableRecord
100
AcDbBlockTableRecord
  2
*MODEL_SPACE
  0
BLOCK_RECORD
  5
1B
330
1
100
AcDbSymbolTableRecord
100
AcDbBlockTableRecord
  2
*PAPER_SPACE
  0
ENDTAB
  0
ENDSEC
  0
SECTION
  2
BLOCKS
  0
BLOCK
  5
20
330
1F
100
AcDbEntity
  8
0
100
AcDbBlockBegin
  2
*MODEL_SPACE
 70
     0
 10
0.0
 20
0.0
 30
0.0
  3
*MODEL_SPACE
  1

  0
ENDBLK
  5
21
330
1F
100
AcDbEntity
  8
0
100
AcDbBlockEnd
  0
BLOCK
  5
1C
330
1B
100
AcDbEntity
 67
     1
  8
0
100
AcDbBlockBegin
  2
*PAPER_SPACE
  1

  0
ENDBLK
  5
1D
330
1B
100
AcDbEntity
 67
     1
  8
0
100
AcDbBlockEnd
  0
ENDSEC
  0
SECTION
  2
ENTITIES
  0
SPLINE
  5
100
100
AcDbEntity
  8
newlayer
 62
7
100
AcDbSpline
 70
8
 71
3
 72
8
 73
4
 74
0
 40
0
 40
0
 40
0
 40
0
 40
1
 40
1
 40
1
 40
1
 10
44.821575
 20
82.384275
 30
0.0
 10
46.107959
 20
82.384617
 30
0.0
 10
47.296774
 20
81.698536
 30
0.0
 10
47.940064
 20
80.584552
 30
0.0
  0
SPLINE
  5
101
100
AcDbEntity
  8
newlayer
 62
7
100
AcDbSpline
 70
8
 71
3
 72
8
 73
4
 74
0
 40
0
 40
0
 40
0
 40
0
 40
1
 40
1
 40
1
 40
1
 10
47.940064
 20
80.584552
 30
0.0
 10
48.583355
 20
79.470567
 30
0.0
 10
48.583355
 20
78.097983
 30
0.0
 10
47.940064
 20
76.983999
 30
0.0
  0
SPLINE
  5
102
100
AcDbEntity
  8
newlayer
 62
7
100
AcDbSpline
 70
8
 71
3
 72
8
 73
4
 74
0
 40
0
 40
0
 40
0
 40
0
 40
1
 40
1
 40
1
 40
1
 10
47.940064
 20
76.983999
 30
0.0
 10
47.296774
 20
75.870014
 30
0.0
 10
46.107959
 20
75.183933
 30
0.0
 10
44.821575
 20
75.184275
 30
0.0
  0
SPLINE
  5
103
100
AcDbEntity
  8
newlayer
 62
7
100
AcDbSpline
 70
8
 71
3
 72
8
 73
4
 74
0
 40
0
 40
0
 40
0
 40
0
 40
1
 40
1
 40
1
 40
1
 10
44.821575
 20
75.184275
 30
0.0
 10
43.535191
 20
75.183933
 30
0.0
 10
42.346377
 20
75.870014
 30
0.0
 10
41.703086
 20
76.983999
 30
0.0
  0
SPLINE
  5
104
100
AcDbEntity
  8
newlayer
 62
7
100
AcDbSpline
 70
8
 71
3
 72
8
 73
4
 74
0
 40
0
 40
0
 40
0
 40
0
 40
1
 40
1
 40
1
 40
1
 10
41.703086
 20
76.983999
 30
0.0
 10
41.059795
 20
78.097983
 30
0.0
 10
41.059795
 20
79.470567
 30
0.0
 10
41.703086
 20
80.584552
 30
0.0
  0
SPLINE
  5
105
100
AcDbEntity
  8
newlayer
 62
7
100
AcDbSpline
 70
8
 71
3
 72
8
 73
4
 74
0
 40
0
 40
0
 40
0
 40
0
 40
1
 40
1
 40
1
 40
1
 10
41.703086
 20
80.584552
 30
0.0
 10
42.346377
 20
81.698536
 30
0.0
 10
43.535191
 20
82.384617
 30
0.0
 10
44.821575
 20
82.384275
 30
0.0
  0
LWPOLYLINE
  5
106
100
AcDbEntity
  8
newlayer
 62
7
100
AcDbPolyline
 90
42
 70
0
 10
30.569360
 20
71.234584
 30
0.0
 10
33.567971
 20
71.234584
 30
0.0
 10
33.567971
 20
67.865556
 30
0.0
 10
41.867068
 20
67.865556
 30
0.0
 10
41.867068
 20
67.874361
 30
0.0
 10
47.776096
 20
67.874361
 30
0.0
 10
47.776096
 20
67.865556
 30
0.0
 10
56.075193
 20
67.865556
 30
0.0
 10
56.075193
 20
71.234584
 30
0.0
 10
59.073804
 20
71.234584
 30
0.0
 10
59.073804
 20
77.320000
 30
0.0
 10
56.075193
 20
77.320000
 30
0.0
 10
56.075193
 20
83.634722
 30
0.0
 10
59.073804
 20
83.634722
 30
0.0
 10
59.073804
 20
89.720139
 30
0.0
 10
56.075193
 20
89.720139
 30
0.0
 10
56.075193
 20
96.034861
 30
0.0
 10
59.073804
 20
96.034861
 30
0.0
 10
59.073804
 20
102.120278
 30
0.0
 10
56.075193
 20
102.120278
 30
0.0
 10
56.075193
 20
108.435000
 30
0.0
 10
59.073804
 20
108.435000
 30
0.0
 10
59.073804
 20
114.520417
 30
0.0
 10
56.075193
 20
114.520417
 30
0.0
 10
56.075193
 20
117.862986
 30
0.0
 10
33.567971
 20
117.862986
 30
0.0
 10
33.567971
 20
114.520417
 30
0.0
 10
30.569360
 20
114.520417
 30
0.0
 10
30.569360
 20
108.435000
 30
0.0
 10
33.567971
 20
108.435000
 30
0.0
 10
33.567971
 20
102.120278
 30
0.0
 10
30.569360
 20
102.120278
 30
0.0
 10
30.569360
 20
96.034861
 30
0.0
 10
33.567971
 20
96.034861
 30
0.0
 10
33.567971
 20
89.720139
 30
0.0
 10
30.569360
 20
89.720139
 30
0.0
 10
30.569360
 20
83.634722
 30
0.0
 10
33.567971
 20
83.634722
 30
0.0
 10
33.567971
 20
77.320000
 30
0.0
 10
30.569360
 20
77.320000
 30
0.0
 10
30.569360
 20
71.234584
 30
0.0
 10
30.569360
 20
71.234584
 30
0.0
  0
SPLINE
  5
107
100
AcDbEntity
  8
newlayer
 62
7
100
AcDbSpline
 70
8
 71
3
 72
8
 73
4
 74
0
 40
0
 40
0
 40
0
 40
0
 40
1
 40
1
 40
1
 40
1
 10
44.821575
 20
92.214275
 30
0.0
 10
45.536233
 20
92.214465
 30
0.0
 10
46.196685
 20
91.833308
 30
0.0
 10
46.554069
 20
91.214428
 30
0.0
  0
SPLINE
  5
108
100
AcDbEntity
  8
newlayer
 62
7
100
AcDbSpline
 70
8
 71
3
 72
8
 73
4
 74
0
 40
0
 40
0
 40
0
 40
0
 40
1
 40
1
 40
1
 40
1
 10
46.554069
 20
91.214428
 30
0.0
 10
46.911453
 20
90.595548
 30
0.0
 10
46.911453
 20
89.833001
 30
0.0
 10
46.554069
 20
89.214121
 30
0.0
  0
SPLINE
  5
109
100
AcDbEntity
  8
newlayer
 62
7
100
AcDbSpline
 70
8
 71
3
 72
8
 73
4
 74
0
 40
0
 40
0
 40
0
 40
0
 40
1
 40
1
 40
1
 40
1
 10
46.554069
 20
89.214121
 30
0.0
 10
46.196685
 20
88.595241
 30
0.0
 10
45.536233
 20
88.214084
 30
0.0
 10
44.821575
 20
88.214274
 30
0.0
  0
SPLINE
  5
10a
100
AcDbEntity
  8
newlayer
 62
7
100
AcDbSpline
 70
8
 71
3
 72
8
 73
4
 74
0
 40
0
 40
0
 40
0
 40
0
 40
1
 40
1
 40
1
 40
1
 10
44.821575
 20
88.214274
 30
0.0
 10
44.106917
 20
88.214084
 30
0.0
 10
43.446465
 20
88.595241
 30
0.0
 10
43.089081
 20
89.214121
 30
0.0
  0
SPLINE
  5
10b
100
AcDbEntity
  8
newlayer
 62
7
100
AcDbSpline
 70
8
 71
3
 72
8
 73
4
 74
0
 40
0
 40
0
 40
0
 40
0
 40
1
 40
1
 40
1
 40
1
 10
43.089081
 20
89.214121
 30
0.0
 10
42.731697
 20
89.833001
 30
0.0
 10
42.731697
 20
90.595548
 30
0.0
 10
43.089081
 20
91.214428
 30
0.0
  0
SPLINE
  5
10c
100
AcDbEntity
  8
newlayer
 62
7
100
AcDbSpline
 70
8
 71
3
 72
8
 73
4
 74
0
 40
0
 40
0
 40
0
 40
0
 40
1
 40
1
 40
1
 40
1
 10
43.089081
 20
91.214428
 30
0.0
 10
43.446465
 20
91.833308
 30
0.0
 10
44.106917
 20
92.214465
 30
0.0
 10
44.821575
 20
92.214275
 30
0.0
  0
LWPOLYLINE
  5
10d
100
AcDbEntity
  8
newlayer
 62
7
100
AcDbPolyline
 90
2
 70
0
 10
44.821575
 20
82.384275
 30
0.0
 10
44.821575
 20
82.384275
 30
0.0
  0
LWPOLYLINE
  5
10e
100
AcDbEntity
  8
newlayer
 62
7
100
AcDbPolyline
 90
2
 70
0
 10
44.821575
 20
92.214275
 30
0.0
 10
44.821575
 20
92.214275
 30
0.0
  0
SPLINE
  5
10f
100
AcDbEntity
  8
newlayer
 62
7
100
AcDbSpline
 70
8
 71
3
 72
8
 73
4
 74
0
 40
0
 40
0
 40
0
 40
0
 40
1
 40
1
 40
1
 40
1
 10
53.531579
 20
100.304275
 30
0.0
 10
53.985639
 20
100.304774
 30
0.0
 10
54.405421
 20
100.062823
 30
0.0
 10
54.632595
 20
99.669679
 30
0.0
  0
SPLINE
  5
110
100
AcDbEntity
  8
newlayer
 62
7
100
AcDbSpline
 70
8
 71
3
 72
8
 73
4
 74
0
 40
0
 40
0
 40
0
 40
0
 40
1
 40
1
 40
1
 40
1
 10
54.632595
 20
99.669679
 30
0.0
 10
54.859769
 20
99.276534
 30
0.0
 10
54.859769
 20
98.792017
 30
0.0
 10
54.632595
 20
98.398873
 30
0.0
  0
SPLINE
  5
111
100
AcDbEntity
  8
newlayer
 62
7
100
AcDbSpline
 70
8
 71
3
 72
8
 73
4
 74
0
 40
0
 40
0
 40
0
 40
0
 40
1
 40
1
 40
1
 40
1
 10
54.632595
 20
98.398873
 30
0.0
 10
54.405421
 20
98.005729
 30
0.0
 10
53.985639
 20
97.763777
 30
0.0
 10
53.531579
 20
97.764276
 30
0.0
  0
SPLINE
  5
112
100
AcDbEntity
  8
newlayer
 62
7
100
AcDbSpline
 70
8
 71
3
 72
8
 73
4
 74
0
 40
0
 40
0
 40
0
 40
0
 40
1
 40
1
 40
1
 40
1
 10
53.531579
 20
97.764276
 30
0.0
 10
53.077520
 20
97.763777
 30
0.0
 10
52.657738
 20
98.005729
 30
0.0
 10
52.430564
 20
98.398873
 30
0.0
  0
SPLINE
  5
113
100
AcDbEntity
  8
newlayer
 62
7
100
AcDbSpline
 70
8
 71
3
 72
8
 73
4
 74
0
 40
0
 40
0
 40
0
 40
0
 40
1
 40
1
 40
1
 40
1
 10
52.430564
 20
98.398873
 30
0.0
 10
52.203390
 20
98.792017
 30
0.0
 10
52.203390
 20
99.276534
 30
0.0
 10
52.430564
 20
99.669679
 30
0.0
  0
SPLINE
  5
114
100
AcDbEntity
  8
newlayer
 62
7
100
AcDbSpline
 70
8
 71
3
 72
8
 73
4
 74
0
 40
0
 40
0
 40
0
 40
0
 40
1
 40
1
 40
1
 40
1
 10
52.430564
 20
99.669679
 30
0.0
 10
52.657738
 20
100.062823
 30
0.0
 10
53.077520
 20
100.304774
 30
0.0
 10
53.531579
 20
100.304275
 30
0.0
  0
LWPOLYLINE
  5
115
100
AcDbEntity
  8
newlayer
 62
7
100
AcDbPolyline
 90
5
 70
0
 10
42.336370
 20
108.964277
 30
0.0
 10
42.336370
 20
111.464277
 30
0.0
 10
47.736370
 20
111.464277
 30
0.0
 10
47.736370
 20
108.964277
 30
0.0
 10
42.336370
 20
108.964277
 30
0.0
  0
SPLINE
  5
116
100
AcDbEntity
  8
newlayer
 62
7
100
AcDbSpline
 70
8
 71
3
 72
8
 73
4
 74
0
 40
0
 40
0
 40
0
 40
0
 40
1
 40
1
 40
1
 40
1
 10
36.111579
 20
100.304275
 30
0.0
 10
36.565639
 20
100.304774
 30
0.0
 10
36.985421
 20
100.062823
 30
0.0
 10
37.212595
 20
99.669679
 30
0.0
  0
SPLINE
  5
117
100
AcDbEntity
  8
newlayer
 62
7
100
AcDbSpline
 70
8
 71
3
 72
8
 73
4
 74
0
 40
0
 40
0
 40
0
 40
0
 40
1
 40
1
 40
1
 40
1
 10
37.212595
 20
99.669679
 30
0.0
 10
37.439769
 20
99.276534
 30
0.0
 10
37.439769
 20
98.792017
 30
0.0
 10
37.212595
 20
98.398873
 30
0.0
  0
SPLINE
  5
118
100
AcDbEntity
  8
newlayer
 62
7
100
AcDbSpline
 70
8
 71
3
 72
8
 73
4
 74
0
 40
0
 40
0
 40
0
 40
0
 40
1
 40
1
 40
1
 40
1
 10
37.212595
 20
98.398873
 30
0.0
 10
36.985421
 20
98.005729
 30
0.0
 10
36.565639
 20
97.763777
 30
0.0
 10
36.111579
 20
97.764276
 30
0.0
  0
SPLINE
  5
119
100
AcDbEntity
  8
newlayer
 62
7
100
AcDbSpline
 70
8
 71
3
 72
8
 73
4
 74
0
 40
0
 40
0
 40
0
 40
0
 40
1
 40
1
 40
1
 40
1
 10
36.111579
 20
97.764276
 30
0.0
 10
35.657520
 20
97.763777
 30
0.0
 10
35.237738
 20
98.005729
 30
0.0
 10
35.010564
 20
98.398873
 30
0.0
  0
SPLINE
  5
11a
100
AcDbEntity
  8
newlayer
 62
7
100
AcDbSpline
 70
8
 71
3
 72
8
 73
4
 74
0
 40
0
 40
0
 40
0
 40
0
 40
1
 40
1
 40
1
 40
1
 10
35.010564
 20
98.398873
 30
0.0
 10
34.783390
 20
98.792017
 30
0.0
 10
34.783390
 20
99.276534
 30
0.0
 10
35.010564
 20
99.669679
 30
0.0
  0
SPLINE
  5
11b
100
AcDbEntity
  8
newlayer
 62
7
100
AcDbSpline
 70
8
 71
3
 72
8
 73
4
 74
0
 40
0
 40
0
 40
0
 40
0
 40
1
 40
1
 40
1
 40
1
 10
35.010564
 20
99.669679
 30
0.0
 10
35.237738
 20
100.062823
 30
0.0
 10
35.657520
 20
100.304774
 30
0.0
 10
36.111579
 20
100.304275
 30
0.0
  0
LWPOLYLINE
  5
11c
100
AcDbEntity
  8
newlayer
 62
7
100
AcDbPolyline
 90
2
 70
0
 10
53.531579
 20
100.304275
 30
0.0
 10
53.531579
 20
100.304275
 30
0.0
  0
LWPOLYLINE
  5
11d
100
AcDbEntity
  8
newlayer
 62
7
100
AcDbPolyline
 90
2
 70
0
 10
36.111579
 20
100.304275
 30
0.0
 10
36.111579
 20
100.304275
 30
0.0
  0
LWPOLYLINE
  5
11e
100
AcDbEntity
  8
newlayer
 62
7
100
AcDbPolyline
 90
58
 70
0
 10
68.297778
 20
62.632083
 30
0.0
 10
68.297778
 20
59.633472
 30
0.0
 10
63.676389
 20
59.633472
 30
0.0
 10
63.676389
 20
59.157222
 30
0.0
 10
63.720486
 20
59.157222
 30
0.0
 10
63.720486
 20
37.205625
 30
0.0
 10
63.676389
 20
37.205625
 30
0.0
 10
63.676389
 20
37.196806
 30
0.0
 10
72.134236
 20
37.196806
 30
0.0
 10
72.134236
 20
54.994444
 30
0.0
 10
74.982917
 20
54.994444
 30
0.0
 10
74.982917
 20
37.196806
 30
0.0
 10
76.200000
 20
37.196806
 30
0.0
 10
76.200000
 20
37.135069
 30
0.0
 10
81.967917
 20
37.135069
 30
0.0
 10
81.967917
 20
34.127639
 30
0.0
 10
88.053333
 20
34.127639
 30
0.0
 10
88.053333
 20
37.135069
 30
0.0
 10
95.629236
 20
37.135069
 30
0.0
 10
95.629236
 20
34.127639
 30
0.0
 10
101.723472
 20
34.127639
 30
0.0
 10
101.723472
 20
37.135069
 30
0.0
 10
109.299375
 20
37.135069
 30
0.0
 10
109.299375
 20
34.127639
 30
0.0
 10
115.384792
 20
34.127639
 30
0.0
 10
115.384792
 20
37.135069
 30
0.0
 10
122.396250
 20
37.135069
 30
0.0
 10
122.396250
 20
54.994444
 30
0.0
 10
125.244931
 20
54.994444
 30
0.0
 10
125.244931
 20
37.090972
 30
0.0
 10
129.054931
 20
37.090972
 30
0.0
 10
129.054931
 20
37.135069
 30
0.0
 10
133.676319
 20
37.135069
 30
0.0
 10
133.676319
 20
45.337153
 30
0.0
 10
133.702778
 20
45.337153
 30
0.0
 10
133.702778
 20
51.422569
 30
0.0
 10
133.676319
 20
51.422569
 30
0.0
 10
133.676319
 20
59.633472
 30
0.0
 10
129.054931
 20
59.633472
 30
0.0
 10
129.054931
 20
62.632083
 30
0.0
 10
122.960694
 20
62.632083
 30
0.0
 10
122.960694
 20
59.633472
 30
0.0
 10
115.384792
 20
59.633472
 30
0.0
 10
115.384792
 20
62.632083
 30
0.0
 10
109.299375
 20
62.632083
 30
0.0
 10
109.299375
 20
59.633472
 30
0.0
 10
101.723472
 20
59.633472
 30
0.0
 10
101.723472
 20
62.632083
 30
0.0
 10
95.629236
 20
62.632083
 30
0.0
 10
95.629236
 20
59.633472
 30
0.0
 10
88.053333
 20
59.633472
 30
0.0
 10
88.053333
 20
62.632083
 30
0.0
 10
81.967917
 20
62.632083
 30
0.0
 10
81.967917
 20
59.633472
 30
0.0
 10
74.383194
 20
59.633472
 30
0.0
 10
74.383194
 20
62.632083
 30
0.0
 10
68.297778
 20
62.632083
 30
0.0
 10
68.297778
 20
62.632083
 30
0.0
  0
SPLINE
  5
11f
100
AcDbEntity
  8
newlayer
 62
7
100
AcDbSpline
 70
8
 71
3
 72
8
 73
4
 74
0
 40
0
 40
0
 40
0
 40
0
 40
1
 40
1
 40
1
 40
1
 10
161.316458
 20
127.102222
 30
0.0
 10
158.339923
 20
127.102222
 30
0.0
 10
155.945417
 20
125.077715
 30
0.0
 10
155.945417
 20
122.560208
 30
0.0
  0
LWPOLYLINE
  5
120
100
AcDbEntity
  8
newlayer
 62
7
100
AcDbPolyline
 90
78
 70
0
 10
61.154028
 20
117.744792
 30
0.0
 10
61.154028
 20
114.287569
 30
0.0
 10
64.161458
 20
114.287569
 30
0.0
 10
64.161458
 20
108.378542
 30
0.0
 10
61.154028
 20
108.378542
 30
0.0
 10
61.154028
 20
101.887431
 30
0.0
 10
64.161458
 20
101.887431
 30
0.0
 10
64.161458
 20
95.978403
 30
0.0
 10
61.154028
 20
95.978403
 30
0.0
 10
61.154028
 20
89.487292
 30
0.0
 10
64.161458
 20
89.487292
 30
0.0
 10
64.161458
 20
83.578264
 30
0.0
 10
61.154028
 20
83.578264
 30
0.0
 10
61.154028
 20
77.087153
 30
0.0
 10
64.161458
 20
77.087153
 30
0.0
 10
64.161458
 20
71.178125
 30
0.0
 10
61.154028
 20
71.178125
 30
0.0
 10
61.154028
 20
64.731111
 30
0.0
 10
68.871042
 20
64.731111
 30
0.0
 10
68.871042
 20
67.729722
 30
0.0
 10
74.780069
 20
67.729722
 30
0.0
 10
74.780069
 20
64.731111
 30
0.0
 10
82.532361
 20
64.731111
 30
0.0
 10
82.532361
 20
67.729722
 30
0.0
 10
88.441389
 20
67.729722
 30
0.0
 10
88.441389
 20
64.731111
 30
0.0
 10
96.202500
 20
64.731111
 30
0.0
 10
96.202500
 20
67.729722
 30
0.0
 10
102.111528
 20
67.729722
 30
0.0
 10
102.111528
 20
64.731111
 30
0.0
 10
109.872639
 20
64.731111
 30
0.0
 10
109.872639
 20
67.729722
 30
0.0
 10
115.781667
 20
67.729722
 30
0.0
 10
115.781667
 20
64.731111
 30
0.0
 10
123.533958
 20
64.731111
 30
0.0
 10
123.533958
 20
67.729722
 30
0.0
 10
129.442986
 20
67.729722
 30
0.0
 10
129.442986
 20
64.731111
 30
0.0
 10
137.160000
 20
64.731111
 30
0.0
 10
137.160000
 20
71.178125
 30
0.0
 10
134.161389
 20
71.178125
 30
0.0
 10
134.161389
 20
77.087153
 30
0.0
 10
137.160000
 20
77.087153
 30
0.0
 10
137.160000
 20
83.578264
 30
0.0
 10
134.161389
 20
83.578264
 30
0.0
 10
134.161389
 20
89.487292
 30
0.0
 10
137.160000
 20
89.487292
 30
0.0
 10
137.160000
 20
95.978403
 30
0.0
 10
134.161389
 20
95.978403
 30
0.0
 10
134.161389
 20
101.887431
 30
0.0
 10
137.160000
 20
101.887431
 30
0.0
 10
137.160000
 20
108.378542
 30
0.0
 10
134.161389
 20
108.378542
 30
0.0
 10
134.161389
 20
114.287569
 30
0.0
 10
137.160000
 20
114.287569
 30
0.0
 10
137.160000
 20
117.744792
 30
0.0
 10
129.442986
 20
117.744792
 30
0.0
 10
129.442986
 20
117.727153
 30
0.0
 10
123.533958
 20
117.727153
 30
0.0
 10
123.533958
 20
117.744792
 30
0.0
 10
115.781667
 20
117.744792
 30
0.0
 10
115.781667
 20
117.727153
 30
0.0
 10
109.872639
 20
117.727153
 30
0.0
 10
109.872639
 20
117.744792
 30
0.0
 10
102.111528
 20
117.744792
 30
0.0
 10
102.111528
 20
117.727153
 30
0.0
 10
96.202500
 20
117.727153
 30
0.0
 10
96.202500
 20
117.744792
 30
0.0
 10
88.441389
 20
117.744792
 30
0.0
 10
88.441389
 20
117.727153
 30
0.0
 10
82.532361
 20
117.727153
 30
0.0
 10
82.532361
 20
117.744792
 30
0.0
 10
74.780069
 20
117.744792
 30
0.0
 10
74.780069
 20
117.727153
 30
0.0
 10
68.871042
 20
117.727153
 30
0.0
 10
68.871042
 20
117.744792
 30
0.0
 10
61.154028
 20
117.744792
 30
0.0
 10
61.154028
 20
117.744792
 30
0.0
  0
SPLINE
  5
121
100
AcDbEntity
  8
newlayer
 62
7
100
AcDbSpline
 70
8
 71
3
 72
8
 73
4
 74
0
 40
0
 40
0
 40
0
 40
0
 40
1
 40
1
 40
1
 40
1
 10
155.945417
 20
35.009583
 30
0.0
 10
155.945417
 20
32.492076
 30
0.0
 10
158.339923
 20
30.458750
 30
0.0
 10
161.316458
 20
30.458750
 30
0.0
  0
LWPOLYLINE
  5
122
100
AcDbEntity
  8
newlayer
 62
7
100
AcDbPolyline
 90
22
 70
0
 10
155.945417
 20
122.560208
 30
0.0
 10
155.945417
 20
117.744792
 30
0.0
 10
152.717500
 20
117.744792
 30
0.0
 10
152.717500
 20
114.287569
 30
0.0
 10
155.724931
 20
114.287569
 30
0.0
 10
155.724931
 20
108.378542
 30
0.0
 10
152.717500
 20
108.378542
 30
0.0
 10
152.717500
 20
101.887431
 30
0.0
 10
155.724931
 20
101.887431
 30
0.0
 10
155.724931
 20
95.978403
 30
0.0
 10
152.717500
 20
95.978403
 30
0.0
 10
152.717500
 20
89.487292
 30
0.0
 10
155.724931
 20
89.487292
 30
0.0
 10
155.724931
 20
83.578264
 30
0.0
 10
152.717500
 20
83.578264
 30
0.0
 10
152.717500
 20
77.087153
 30
0.0
 10
155.724931
 20
77.087153
 30
0.0
 10
155.724931
 20
71.178125
 30
0.0
 10
152.717500
 20
71.178125
 30
0.0
 10
152.717500
 20
64.731111
 30
0.0
 10
155.945417
 20
64.731111
 30
0.0
 10
155.945417
 20
35.009583
 30
0.0
  0
SPLINE
  5
123
100
AcDbEntity
  8
newlayer
 62
7
100
AcDbSpline
 70
8
 71
3
 72
8
 73
4
 74
0
 40
0
 40
0
 40
0
 40
0
 40
1
 40
1
 40
1
 40
1
 10
220.415556
 20
30.458750
 30
0.0
 10
223.392091
 20
30.458750
 30
0.0
 10
225.786597
 20
32.492076
 30
0.0
 10
225.786597
 20
35.009583
 30
0.0
  0
LWPOLYLINE
  5
124
100
AcDbEntity
  8
newlayer
 62
7
100
AcDbPolyline
 90
2
 70
0
 10
161.316458
 20
30.458750
 30
0.0
 10
220.415556
 20
30.458750
 30
0.0
  0
SPLINE
  5
125
100
AcDbEntity
  8
newlayer
 62
7
100
AcDbSpline
 70
8
 71
3
 72
8
 73
4
 74
0
 40
0
 40
0
 40
0
 40
0
 40
1
 40
1
 40
1
 40
1
 10
225.786597
 20
122.560208
 30
0.0
 10
225.786597
 20
125.077715
 30
0.0
 10
223.392091
 20
127.102222
 30
0.0
 10
220.415556
 20
127.102222
 30
0.0
  0
LWPOLYLINE
  5
126
100
AcDbEntity
  8
newlayer
 62
7
100
AcDbPolyline
 90
22
 70
0
 10
225.786597
 20
35.009583
 30
0.0
 10
225.786597
 20
64.731111
 30
0.0
 10
228.723472
 20
64.731111
 30
0.0
 10
228.723472
 20
71.178125
 30
0.0
 10
225.786597
 20
71.178125
 30
0.0
 10
225.786597
 20
77.087153
 30
0.0
 10
228.723472
 20
77.087153
 30
0.0
 10
228.723472
 20
83.578264
 30
0.0
 10
225.786597
 20
83.578264
 30
0.0
 10
225.786597
 20
89.487292
 30
0.0
 10
228.723472
 20
89.487292
 30
0.0
 10
228.723472
 20
95.978403
 30
0.0
 10
225.786597
 20
95.978403
 30
0.0
 10
225.786597
 20
101.887431
 30
0.0
 10
228.723472
 20
101.887431
 30
0.0
 10
228.723472
 20
108.378542
 30
0.0
 10
225.786597
 20
108.378542
 30
0.0
 10
225.786597
 20
114.287569
 30
0.0
 10
228.723472
 20
114.287569
 30
0.0
 10
228.723472
 20
117.744792
 30
0.0
 10
225.786597
 20
117.744792
 30
0.0
 10
225.786597
 20
122.560208
 30
0.0
  0
LWPOLYLINE
  5
127
100
AcDbEntity
  8
newlayer
 62
7
100
AcDbPolyline
 90
3
 70
0
 10
220.415556
 20
127.102222
 30
0.0
 10
161.316458
 20
127.102222
 30
0.0
 10
161.316458
 20
127.102222
 30
0.0
  0
LWPOLYLINE
  5
128
100
AcDbEntity
  8
newlayer
 62
7
100
AcDbPolyline
 90
5
 70
0
 10
187.769020
 20
67.729722
 30
0.0
 10
193.678048
 20
67.729722
 30
0.0
 10
193.678048
 20
64.731111
 30
0.0
 10
187.769020
 20
64.731111
 30
0.0
 10
187.769020
 20
67.729722
 30
0.0
  0
LWPOLYLINE
  5
129
100
AcDbEntity
  8
newlayer
 62
7
100
AcDbPolyline
 90
5
 70
0
 10
174.098881
 20
67.729722
 30
0.0
 10
180.007909
 20
67.729722
 30
0.0
 10
180.007909
 20
64.731111
 30
0.0
 10
174.098881
 20
64.731111
 30
0.0
 10
174.098881
 20
67.729722
 30
0.0
  0
SPLINE
  5
12a
100
AcDbEntity
  8
newlayer
 62
7
100
AcDbSpline
 70
8
 71
3
 72
8
 73
4
 74
0
 40
0
 40
0
 40
0
 40
0
 40
1
 40
1
 40
1
 40
1
 10
182.170486
 20
50.317637
 30
0.0
 10
182.170486
 20
49.516828
 30
0.0
 10
181.521299
 20
48.867637
 30
0.0
 10
180.720486
 20
48.867637
 30
0.0
  0
SPLINE
  5
12b
100
AcDbEntity
  8
newlayer
 62
7
100
AcDbSpline
 70
8
 71
3
 72
8
 73
4
 74
0
 40
0
 40
0
 40
0
 40
0
 40
1
 40
1
 40
1
 40
1
 10
180.720486
 20
48.867637
 30
0.0
 10
179.919674
 20
48.867637
 30
0.0
 10
179.270486
 20
49.516828
 30
0.0
 10
179.270486
 20
50.317637
 30
0.0
  0
SPLINE
  5
12c
100
AcDbEntity
  8
newlayer
 62
7
100
AcDbSpline
 70
8
 71
3
 72
8
 73
4
 74
0
 40
0
 40
0
 40
0
 40
0
 40
1
 40
1
 40
1
 40
1
 10
179.270486
 20
50.317637
 30
0.0
 10
179.270486
 20
51.118454
 30
0.0
 10
179.919674
 20
51.767637
 30
0.0
 10
180.720486
 20
51.767637
 30
0.0
  0
SPLINE
  5
12d
100
AcDbEntity
  8
newlayer
 62
7
100
AcDbSpline
 70
8
 71
3
 72
8
 73
4
 74
0
 40
0
 40
0
 40
0
 40
0
 40
1
 40
1
 40
1
 40
1
 10
180.720486
 20
51.767637
 30
0.0
 10
181.521299
 20
51.767637
 30
0.0
 10
182.170486
 20
51.118454
 30
0.0
 10
182.170486
 20
50.317637
 30
0.0
  0
LWPOLYLINE
  5
12e
100
AcDbEntity
  8
newlayer
 62
7
100
AcDbPolyline
 90
5
 70
0
 10
201.439159
 20
67.729722
 30
0.0
 10
207.348187
 20
67.729722
 30
0.0
 10
207.348187
 20
64.731111
 30
0.0
 10
201.439159
 20
64.731111
 30
0.0
 10
201.439159
 20
67.729722
 30
0.0
  0
SPLINE
  5
12f
100
AcDbEntity
  8
newlayer
 62
7
100
AcDbSpline
 70
8
 71
3
 72
8
 73
4
 74
0
 40
0
 40
0
 40
0
 40
0
 40
1
 40
1
 40
1
 40
1
 10
202.170486
 20
50.317637
 30
0.0
 10
202.170486
 20
49.516828
 30
0.0
 10
201.521299
 20
48.867637
 30
0.0
 10
200.720486
 20
48.867637
 30
0.0
  0
SPLINE
  5
130
100
AcDbEntity
  8
newlayer
 62
7
100
AcDbSpline
 70
8
 71
3
 72
8
 73
4
 74
0
 40
0
 40
0
 40
0
 40
0
 40
1
 40
1
 40
1
 40
1
 10
200.720486
 20
48.867637
 30
0.0
 10
199.919673
 20
48.867637
 30
0.0
 10
199.270486
 20
49.516828
 30
0.0
 10
199.270486
 20
50.317637
 30
0.0
  0
SPLINE
  5
131
100
AcDbEntity
  8
newlayer
 62
7
100
AcDbSpline
 70
8
 71
3
 72
8
 73
4
 74
0
 40
0
 40
0
 40
0
 40
0
 40
1
 40
1
 40
1
 40
1
 10
199.270486
 20
50.317637
 30
0.0
 10
199.270486
 20
51.118454
 30
0.0
 10
199.919673
 20
51.767637
 30
0.0
 10
200.720486
 20
51.767637
 30
0.0
  0
SPLINE
  5
132
100
AcDbEntity
  8
newlayer
 62
7
100
AcDbSpline
 70
8
 71
3
 72
8
 73
4
 74
0
 40
0
 40
0
 40
0
 40
0
 40
1
 40
1
 40
1
 40
1
 10
200.720486
 20
51.767637
 30
0.0
 10
201.521299
 20
51.767637
 30
0.0
 10
202.170486
 20
51.118454
 30
0.0
 10
202.170486
 20
50.317637
 30
0.0
  0
LWPOLYLINE
  5
133
100
AcDbEntity
  8
newlayer
 62
7
100
AcDbPolyline
 90
2
 70
0
 10
182.170486
 20
50.317637
 30
0.0
 10
182.170486
 20
50.317637
 30
0.0
  0
SPLINE
  5
134
100
AcDbEntity
  8
newlayer
 62
7
100
AcDbSpline
 70
8
 71
3
 72
8
 73
4
 74
0
 40
0
 40
0
 40
0
 40
0
 40
1
 40
1
 40
1
 40
1
 10
182.170486
 20
107.243333
 30
0.0
 10
182.170486
 20
106.442523
 30
0.0
 10
181.521299
 20
105.793333
 30
0.0
 10
180.720486
 20
105.793333
 30
0.0
  0
SPLINE
  5
135
100
AcDbEntity
  8
newlayer
 62
7
100
AcDbSpline
 70
8
 71
3
 72
8
 73
4
 74
0
 40
0
 40
0
 40
0
 40
0
 40
1
 40
1
 40
1
 40
1
 10
180.720486
 20
105.793333
 30
0.0
 10
179.919674
 20
105.793333
 30
0.0
 10
179.270486
 20
106.442523
 30
0.0
 10
179.270486
 20
107.243333
 30
0.0
  0
SPLINE
  5
136
100
AcDbEntity
  8
newlayer
 62
7
100
AcDbSpline
 70
8
 71
3
 72
8
 73
4
 74
0
 40
0
 40
0
 40
0
 40
0
 40
1
 40
1
 40
1
 40
1
 10
179.270486
 20
107.243333
 30
0.0
 10
179.270486
 20
108.044150
 30
0.0
 10
179.919674
 20
108.693333
 30
0.0
 10
180.720486
 20
108.693333
 30
0.0
  0
SPLINE
  5
137
100
AcDbEntity
  8
newlayer
 62
7
100
AcDbSpline
 70
8
 71
3
 72
8
 73
4
 74
0
 40
0
 40
0
 40
0
 40
0
 40
1
 40
1
 40
1
 40
1
 10
180.720486
 20
108.693333
 30
0.0
 10
181.521299
 20
108.693333
 30
0.0
 10
182.170486
 20
108.044150
 30
0.0
 10
182.170486
 20
107.243333
 30
0.0
  0
LWPOLYLINE
  5
138
100
AcDbEntity
  8
newlayer
 62
7
100
AcDbPolyline
 90
2
 70
0
 10
202.170486
 20
50.317637
 30
0.0
 10
202.170486
 20
50.317637
 30
0.0
  0
SPLINE
  5
139
100
AcDbEntity
  8
newlayer
 62
7
100
AcDbSpline
 70
8
 71
3
 72
8
 73
4
 74
0
 40
0
 40
0
 40
0
 40
0
 40
1
 40
1
 40
1
 40
1
 10
202.170486
 20
107.243333
 30
0.0
 10
202.170486
 20
106.442523
 30
0.0
 10
201.521299
 20
105.793333
 30
0.0
 10
200.720486
 20
105.793333
 30
0.0
  0
SPLINE
  5
13a
100
AcDbEntity
  8
newlayer
 62
7
100
AcDbSpline
 70
8
 71
3
 72
8
 73
4
 74
0
 40
0
 40
0
 40
0
 40
0
 40
1
 40
1
 40
1
 40
1
 10
200.720486
 20
105.793333
 30
0.0
 10
199.919673
 20
105.793333
 30
0.0
 10
199.270486
 20
106.442523
 30
0.0
 10
199.270486
 20
107.243333
 30
0.0
  0
SPLINE
  5
13b
100
AcDbEntity
  8
newlayer
 62
7
100
AcDbSpline
 70
8
 71
3
 72
8
 73
4
 74
0
 40
0
 40
0
 40
0
 40
0
 40
1
 40
1
 40
1
 40
1
 10
199.270486
 20
107.243333
 30
0.0
 10
199.270486
 20
108.044150
 30
0.0
 10
199.919673
 20
108.693333
 30
0.0
 10
200.720486
 20
108.693333
 30
0.0
  0
SPLINE
  5
13c
100
AcDbEntity
  8
newlayer
 62
7
100
AcDbSpline
 70
8
 71
3
 72
8
 73
4
 74
0
 40
0
 40
0
 40
0
 40
0
 40
1
 40
1
 40
1
 40
1
 10
200.720486
 20
108.693333
 30
0.0
 10
201.521299
 20
108.693333
 30
0.0
 10
202.170486
 20
108.044150
 30
0.0
 10
202.170486
 20
107.243333
 30
0.0
  0
LWPOLYLINE
  5
13d
100
AcDbEntity
  8
newlayer
 62
7
100
AcDbPolyline
 90
2
 70
0
 10
182.170486
 20
107.243333
 30
0.0
 10
182.170486
 20
107.243333
 30
0.0
  0
SPLINE
  5
13e
100
AcDbEntity
  8
newlayer
 62
7
100
AcDbSpline
 70
8
 71
3
 72
8
 73
4
 74
0
 40
0
 40
0
 40
0
 40
0
 40
1
 40
1
 40
1
 40
1
 10
113.724013
 20
72.508207
 30
0.0
 10
113.724013
 20
71.652166
 30
0.0
 10
113.030055
 20
70.958207
 30
0.0
 10
112.174014
 20
70.958207
 30
0.0
  0
SPLINE
  5
13f
100
AcDbEntity
  8
newlayer
 62
7
100
AcDbSpline
 70
8
 71
3
 72
8
 73
4
 74
0
 40
0
 40
0
 40
0
 40
0
 40
1
 40
1
 40
1
 40
1
 10
112.174014
 20
70.958207
 30
0.0
 10
111.317972
 20
70.958207
 30
0.0
 10
110.624014
 20
71.652166
 30
0.0
 10
110.624014
 20
72.508207
 30
0.0
  0
SPLINE
  5
140
100
AcDbEntity
  8
newlayer
 62
7
100
AcDbSpline
 70
8
 71
3
 72
8
 73
4
 74
0
 40
0
 40
0
 40
0
 40
0
 40
1
 40
1
 40
1
 40
1
 10
110.624014
 20
72.508207
 30
0.0
 10
110.624014
 20
73.364248
 30
0.0
 10
111.317972
 20
74.058207
 30
0.0
 10
112.174014
 20
74.058207
 30
0.0
  0
SPLINE
  5
141
100
AcDbEntity
  8
newlayer
 62
7
100
AcDbSpline
 70
8
 71
3
 72
8
 73
4
 74
0
 40
0
 40
0
 40
0
 40
0
 40
1
 40
1
 40
1
 40
1
 10
112.174014
 20
74.058207
 30
0.0
 10
113.030055
 20
74.058207
 30
0.0
 10
113.724013
 20
73.364248
 30
0.0
 10
113.724013
 20
72.508207
 30
0.0
  0
LWPOLYLINE
  5
142
100
AcDbEntity
  8
newlayer
 62
7
100
AcDbPolyline
 90
2
 70
0
 10
202.170486
 20
107.243333
 30
0.0
 10
202.170486
 20
107.243333
 30
0.0
  0
SPLINE
  5
143
100
AcDbEntity
  8
newlayer
 62
7
100
AcDbSpline
 70
8
 71
3
 72
8
 73
4
 74
0
 40
0
 40
0
 40
0
 40
0
 40
1
 40
1
 40
1
 40
1
 10
86.024012
 20
72.508207
 30
0.0
 10
86.024012
 20
71.652166
 30
0.0
 10
85.330054
 20
70.958207
 30
0.0
 10
84.474013
 20
70.958207
 30
0.0
  0
SPLINE
  5
144
100
AcDbEntity
  8
newlayer
 62
7
100
AcDbSpline
 70
8
 71
3
 72
8
 73
4
 74
0
 40
0
 40
0
 40
0
 40
0
 40
1
 40
1
 40
1
 40
1
 10
84.474013
 20
70.958207
 30
0.0
 10
83.617971
 20
70.958207
 30
0.0
 10
82.924013
 20
71.652166
 30
0.0
 10
82.924013
 20
72.508207
 30
0.0
  0
SPLINE
  5
145
100
AcDbEntity
  8
newlayer
 62
7
100
AcDbSpline
 70
8
 71
3
 72
8
 73
4
 74
0
 40
0
 40
0
 40
0
 40
0
 40
1
 40
1
 40
1
 40
1
 10
82.924013
 20
72.508207
 30
0.0
 10
82.924013
 20
73.364248
 30
0.0
 10
83.617971
 20
74.058207
 30
0.0
 10
84.474013
 20
74.058207
 30
0.0
  0
SPLINE
  5
146
100
AcDbEntity
  8
newlayer
 62
7
100
AcDbSpline
 70
8
 71
3
 72
8
 73
4
 74
0
 40
0
 40
0
 40
0
 40
0
 40
1
 40
1
 40
1
 40
1
 10
84.474013
 20
74.058207
 30
0.0
 10
85.330054
 20
74.058207
 30
0.0
 10
86.024012
 20
73.364248
 30
0.0
 10
86.024012
 20
72.508207
 30
0.0
  0
LWPOLYLINE
  5
147
100
AcDbEntity
  8
newlayer
 62
7
100
AcDbPolyline
 90
2
 70
0
 10
113.724013
 20
72.508207
 30
0.0
 10
113.724013
 20
72.508207
 30
0.0
  0
SPLINE
  5
148
100
AcDbEntity
  8
newlayer
 62
7
100
AcDbSpline
 70
8
 71
3
 72
8
 73
4
 74
0
 40
0
 40
0
 40
0
 40
0
 40
1
 40
1
 40
1
 40
1
 10
346.575215
 20
79.493835
 30
0.0
 10
346.577388
 20
67.184586
 30
0.0
 10
340.011731
 20
55.809442
 30
0.0
 10
329.351971
 20
49.654190
 30
0.0
  0
SPLINE
  5
149
100
AcDbEntity
  8
newlayer
 62
7
100
AcDbSpline
 70
8
 71
3
 72
8
 73
4
 74
0
 40
0
 40
0
 40
0
 40
0
 40
1
 40
1
 40
1
 40
1
 10
329.351971
 20
49.654190
 30
0.0
 10
318.692211
 20
43.498938
 30
0.0
 10
305.558218
 20
43.498938
 30
0.0
 10
294.898458
 20
49.654190
 30
0.0
  0
SPLINE
  5
14a
100
AcDbEntity
  8
newlayer
 62
7
100
AcDbSpline
 70
8
 71
3
 72
8
 73
4
 74
0
 40
0
 40
0
 40
0
 40
0
 40
1
 40
1
 40
1
 40
1
 10
294.898458
 20
49.654190
 30
0.0
 10
284.238698
 20
55.809442
 30
0.0
 10
277.673041
 20
67.184586
 30
0.0
 10
277.675214
 20
79.493835
 30
0.0
  0
SPLINE
  5
14b
100
AcDbEntity
  8
newlayer
 62
7
100
AcDbSpline
 70
8
 71
3
 72
8
 73
4
 74
0
 40
0
 40
0
 40
0
 40
0
 40
1
 40
1
 40
1
 40
1
 10
277.675214
 20
79.493835
 30
0.0
 10
277.673041
 20
91.803083
 30
0.0
 10
284.238698
 20
103.178228
 30
0.0
 10
294.898458
 20
109.333480
 30
0.0
  0
SPLINE
  5
14c
100
AcDbEntity
  8
newlayer
 62
7
100
AcDbSpline
 70
8
 71
3
 72
8
 73
4
 74
0
 40
0
 40
0
 40
0
 40
0
 40
1
 40
1
 40
1
 40
1
 10
294.898458
 20
109.333480
 30
0.0
 10
305.558218
 20
115.488731
 30
0.0
 10
318.692211
 20
115.488731
 30
0.0
 10
329.351971
 20
109.333480
 30
0.0
  0
SPLINE
  5
14d
100
AcDbEntity
  8
newlayer
 62
7
100
AcDbSpline
 70
8
 71
3
 72
8
 73
4
 74
0
 40
0
 40
0
 40
0
 40
0
 40
1
 40
1
 40
1
 40
1
 10
329.351971
 20
109.333480
 30
0.0
 10
340.011731
 20
103.178228
 30
0.0
 10
346.577388
 20
91.803083
 30
0.0
 10
346.575215
 20
79.493835
 30
0.0
  0
LWPOLYLINE
  5
14e
100
AcDbEntity
  8
newlayer
 62
7
100
AcDbPolyline
 90
2
 70
0
 10
86.024012
 20
72.508207
 30
0.0
 10
86.024012
 20
72.508207
 30
0.0
  0
SPLINE
  5
14f
100
AcDbEntity
  8
newlayer
 62
7
100
AcDbSpline
 70
8
 71
3
 72
8
 73
4
 74
0
 40
0
 40
0
 40
0
 40
0
 40
1
 40
1
 40
1
 40
1
 10
312.120788
 20
82.170537
 30
0.0
 10
311.418139
 20
82.170537
 30
0.0
 10
310.780712
 20
81.898613
 30
0.0
 10
310.304011
 20
81.456162
 30
0.0
  0
LWPOLYLINE
  5
150
100
AcDbEntity
  8
newlayer
 62
7
100
AcDbPolyline
 90
2
 70
0
 10
346.575215
 20
79.493835
 30
0.0
 10
346.575215
 20
79.493835
 30
0.0
  0
SPLINE
  5
151
100
AcDbEntity
  8
newlayer
 62
7
100
AcDbSpline
 70
8
 71
3
 72
8
 73
4
 74
0
 40
0
 40
0
 40
0
 40
0
 40
1
 40
1
 40
1
 40
1
 10
310.304011
 20
77.540328
 30
0.0
 10
310.780994
 20
77.094262
 30
0.0
 10
311.416785
 20
76.817134
 30
0.0
 10
312.120788
 20
76.817134
 30
0.0
  0
SPLINE
  5
152
100
AcDbEntity
  8
newlayer
 62
7
100
AcDbSpline
 70
8
 71
3
 72
8
 73
4
 74
0
 40
0
 40
0
 40
0
 40
0
 40
1
 40
1
 40
1
 40
1
 10
312.120788
 20
76.817134
 30
0.0
 10
312.825723
 20
76.817134
 30
0.0
 10
313.467129
 20
77.093260
 30
0.0
 10
313.946427
 20
77.540328
 30
0.0
  0
LWPOLYLINE
  5
153
100
AcDbEntity
  8
newlayer
 62
7
100
AcDbPolyline
 90
2
 70
0
 10
310.304011
 20
81.456162
 30
0.0
 10
310.304011
 20
77.540328
 30
0.0
  0
SPLINE
  5
154
100
AcDbEntity
  8
newlayer
 62
7
100
AcDbSpline
 70
8
 71
3
 72
8
 73
4
 74
0
 40
0
 40
0
 40
0
 40
0
 40
1
 40
1
 40
1
 40
1
 10
313.946427
 20
81.447342
 30
0.0
 10
313.466960
 20
81.893160
 30
0.0
 10
312.826485
 20
82.170537
 30
0.0
 10
312.120788
 20
82.170537
 30
0.0
  0
LWPOLYLINE
  5
155
100
AcDbEntity
  8
newlayer
 62
7
100
AcDbPolyline
 90
2
 70
0
 10
313.946427
 20
77.540328
 30
0.0
 10
313.946427
 20
81.447342
 30
0.0
  0
SPLINE
  5
156
100
AcDbEntity
  8
newlayer
 62
7
100
AcDbSpline
 70
8
 71
3
 72
8
 73
4
 74
0
 40
0
 40
0
 40
0
 40
0
 40
1
 40
1
 40
1
 40
1
 10
318.397146
 20
157.653391
 30
0.0
 10
318.399320
 20
145.344143
 30
0.0
 10
311.833662
 20
133.968998
 30
0.0
 10
301.173902
 20
127.813746
 30
0.0
  0
SPLINE
  5
157
100
AcDbEntity
  8
newlayer
 62
7
100
AcDbSpline
 70
8
 71
3
 72
8
 73
4
 74
0
 40
0
 40
0
 40
0
 40
0
 40
1
 40
1
 40
1
 40
1
 10
301.173902
 20
127.813746
 30
0.0
 10
290.514142
 20
121.658494
 30
0.0
 10
277.380149
 20
121.658494
 30
0.0
 10
266.720390
 20
127.813746
 30
0.0
  0
SPLINE
  5
158
100
AcDbEntity
  8
newlayer
 62
7
100
AcDbSpline
 70
8
 71
3
 72
8
 73
4
 74
0
 40
0
 40
0
 40
0
 40
0
 40
1
 40
1
 40
1
 40
1
 10
266.720390
 20
127.813746
 30
0.0
 10
256.060630
 20
133.968998
 30
0.0
 10
249.494972
 20
145.344143
 30
0.0
 10
249.497146
 20
157.653391
 30
0.0
  0
SPLINE
  5
159
100
AcDbEntity
  8
newlayer
 62
7
100
AcDbSpline
 70
8
 71
3
 72
8
 73
4
 74
0
 40
0
 40
0
 40
0
 40
0
 40
1
 40
1
 40
1
 40
1
 10
249.497146
 20
157.653391
 30
0.0
 10
249.494972
 20
169.962640
 30
0.0
 10
256.060630
 20
181.337784
 30
0.0
 10
266.720390
 20
187.493036
 30
0.0
  0
SPLINE
  5
15a
100
AcDbEntity
  8
newlayer
 62
7
100
AcDbSpline
 70
8
 71
3
 72
8
 73
4
 74
0
 40
0
 40
0
 40
0
 40
0
 40
1
 40
1
 40
1
 40
1
 10
266.720390
 20
187.493036
 30
0.0
 10
277.380149
 20
193.648288
 30
0.0
 10
290.514142
 20
193.648288
 30
0.0
 10
301.173902
 20
187.493036
 30
0.0
  0
SPLINE
  5
15b
100
AcDbEntity
  8
newlayer
 62
7
100
AcDbSpline
 70
8
 71
3
 72
8
 73
4
 74
0
 40
0
 40
0
 40
0
 40
0
 40
1
 40
1
 40
1
 40
1
 10
301.173902
 20
187.493036
 30
0.0
 10
311.833662
 20
181.337784
 30
0.0
 10
318.399320
 20
169.962640
 30
0.0
 10
318.397146
 20
157.653391
 30
0.0
  0
LWPOLYLINE
  5
15c
100
AcDbEntity
  8
newlayer
 62
7
100
AcDbPolyline
 90
2
 70
0
 10
312.120788
 20
82.170537
 30
0.0
 10
312.120788
 20
82.170537
 30
0.0
  0
SPLINE
  5
15d
100
AcDbEntity
  8
newlayer
 62
7
100
AcDbSpline
 70
8
 71
3
 72
8
 73
4
 74
0
 40
0
 40
0
 40
0
 40
0
 40
1
 40
1
 40
1
 40
1
 10
285.097146
 20
157.653392
 30
0.0
 10
285.097146
 20
157.242537
 30
0.0
 10
284.877957
 20
156.862891
 30
0.0
 10
284.522146
 20
156.657463
 30
0.0
  0
SPLINE
  5
15e
100
AcDbEntity
  8
newlayer
 62
7
100
AcDbSpline
 70
8
 71
3
 72
8
 73
4
 74
0
 40
0
 40
0
 40
0
 40
0
 40
1
 40
1
 40
1
 40
1
 10
284.522146
 20
156.657463
 30
0.0
 10
284.166335
 20
156.452036
 30
0.0
 10
283.727957
 20
156.452036
 30
0.0
 10
283.372146
 20
156.657463
 30
0.0
  0
SPLINE
  5
15f
100
AcDbEntity
  8
newlayer
 62
7
100
AcDbSpline
 70
8
 71
3
 72
8
 73
4
 74
0
 40
0
 40
0
 40
0
 40
0
 40
1
 40
1
 40
1
 40
1
 10
283.372146
 20
156.657463
 30
0.0
 10
283.016335
 20
156.862891
 30
0.0
 10
282.797146
 20
157.242537
 30
0.0
 10
282.797146
 20
157.653392
 30
0.0
  0
SPLINE
  5
160
100
AcDbEntity
  8
newlayer
 62
7
100
AcDbSpline
 70
8
 71
3
 72
8
 73
4
 74
0
 40
0
 40
0
 40
0
 40
0
 40
1
 40
1
 40
1
 40
1
 10
282.797146
 20
157.653392
 30
0.0
 10
282.797146
 20
158.064248
 30
0.0
 10
283.016335
 20
158.443894
 30
0.0
 10
283.372146
 20
158.649322
 30
0.0
  0
SPLINE
  5
161
100
AcDbEntity
  8
newlayer
 62
7
100
AcDbSpline
 70
8
 71
3
 72
8
 73
4
 74
0
 40
0
 40
0
 40
0
 40
0
 40
1
 40
1
 40
1
 40
1
 10
283.372146
 20
158.649322
 30
0.0
 10
283.727957
 20
158.854749
 30
0.0
 10
284.166335
 20
158.854749
 30
0.0
 10
284.522146
 20
158.649322
 30
0.0
  0
SPLINE
  5
162
100
AcDbEntity
  8
newlayer
 62
7
100
AcDbSpline
 70
8
 71
3
 72
8
 73
4
 74
0
 40
0
 40
0
 40
0
 40
0
 40
1
 40
1
 40
1
 40
1
 10
284.522146
 20
158.649322
 30
0.0
 10
284.877957
 20
158.443894
 30
0.0
 10
285.097146
 20
158.064248
 30
0.0
 10
285.097146
 20
157.653392
 30
0.0
  0
LWPOLYLINE
  5
163
100
AcDbEntity
  8
newlayer
 62
7
100
AcDbPolyline
 90
2
 70
0
 10
318.397146
 20
157.653391
 30
0.0
 10
318.397146
 20
157.653391
 30
0.0
  0
LWPOLYLINE
  5
164
100
AcDbEntity
  8
newlayer
 62
7
100
AcDbPolyline
 90
2
 70
0
 10
285.097146
 20
157.653392
 30
0.0
 10
285.097147
 20
157.653392
 30
0.0
  0
ENDSEC
  0
SECTION
  2
OBJECTS
  0
DICTIONARY
  5
C
330
0
100
AcDbDictionary
  3
ACAD_GROUP
350
D
  3
ACAD_MLINESTYLE
350
17
  0
DICTIONARY
  5
D
330
C
100
AcDbDictionary
  0
DICTIONARY
  5
1A
330
C
100
AcDbDictionary
  0
DICTIONARY
  5
17
330
C
100
AcDbDictionary
  3
STANDARD
350
18
  0
DICTIONARY
  5
19
330
C
100
AcDbDictionary
  0
ENDSEC
  0
EOF
