<?xml version="1.0" encoding="UTF-8" standalone="no"?>
<!-- Created with Inkscape (http://www.inkscape.org/) -->

<svg
   xmlns:dc="http://purl.org/dc/elements/1.1/"
   xmlns:cc="http://creativecommons.org/ns#"
   xmlns:rdf="http://www.w3.org/1999/02/22-rdf-syntax-ns#"
   xmlns:svg="http://www.w3.org/2000/svg"
   xmlns="http://www.w3.org/2000/svg"
   xmlns:sodipodi="http://sodipodi.sourceforge.net/DTD/sodipodi-0.dtd"
   xmlns:inkscape="http://www.inkscape.org/namespaces/inkscape"
   sodipodi:docname="bot2_01.svg"
   inkscape:version="0.48.4 r9939"
   version="1.1"
   id="svg3199"
   height="1052.3622047"
   width="744.09448819">
  <sodipodi:namedview
     id="base"
     pagecolor="#ffffff"
     bordercolor="#666666"
     borderopacity="1.0"
     inkscape:pageopacity="0.0"
     inkscape:pageshadow="2"
     inkscape:zoom="1.4"
     inkscape:cx="286.07143"
     inkscape:cy="531.83871"
     inkscape:document-units="mm"
     inkscape:current-layer="svg3199"
     showgrid="false"
     inkscape:window-width="1420"
     inkscape:window-height="966"
     inkscape:window-x="324"
     inkscape:window-y="85"
     inkscape:window-maximized="0" />
  <defs
     id="defs3201" />
  <metadata
     id="metadata3204">
    <rdf:RDF>
      <cc:Work
         rdf:about="">
        <dc:format>image/svg+xml</dc:format>
        <dc:type
           rdf:resource="http://purl.org/dc/dcmitype/StillImage" />
        <dc:title></dc:title>
      </cc:Work>
    </rdf:RDF>
  </metadata>
  <g
     id="g3581"
     inkscape:groupmode="layer"
     inkscape:label="newlayer" />
  <path
     style="fill:none;stroke:#000000"
     d="M 356.9375 445.53125 L 356.9375 456.15625 L 345 456.15625 L 345 485.5625 L 345.03125 485.5625 L 345.03125 506.5 L 345 506.5 L 345 535.90625 L 356.9375 535.90625 L 356.9375 546.53125 L 378.5 546.53125 L 378.5 535.90625 L 400.875 535.90625 L 400.875 546.53125 L 422.4375 546.53125 L 422.4375 535.90625 L 444.8125 535.90625 L 444.8125 546.53125 L 466.375 546.53125 L 466.375 535.90625 L 488.75 535.90625 L 488.75 546.53125 L 510.3125 546.53125 L 510.3125 535.90625 L 522.15625 535.90625 L 522.15625 456.15625 L 510.3125 456.15625 L 510.3125 445.53125 L 488.75 445.53125 L 488.75 456.15625 L 466.375 456.15625 L 466.375 445.53125 L 444.8125 445.53125 L 444.8125 456.15625 L 422.4375 456.15625 L 422.4375 445.53125 L 400.875 445.53125 L 400.875 456.15625 L 378.5 456.15625 L 378.5 445.53125 L 356.9375 445.53125 z "
     id="path3589" />
  <path
     style="fill:none;stroke:#000000"
     d="M 345 145 L 345 167.34375 L 345.03125 167.34375 L 345.03125 188.28125 L 345 188.28125 L 345 210.78125 L 345.03125 210.78125 L 345.03125 231.71875 L 345 231.71875 L 345 254.21875 L 345.03125 254.21875 L 345.03125 275.15625 L 345 275.15625 L 345 297.65625 L 345.03125 297.65625 L 345.03125 318.59375 L 345 318.59375 L 345 341.09375 L 345.03125 341.09375 L 345.03125 362.03125 L 345 362.03125 L 345 384.53125 L 345.03125 384.53125 L 345.03125 405.46875 L 345 405.46875 L 345 427.8125 L 357.25 427.8125 L 357.25 417.1875 L 378.1875 417.1875 L 378.1875 427.8125 L 401.1875 427.8125 L 401.1875 417.1875 L 422.125 417.1875 L 422.125 427.8125 L 445.125 427.8125 L 445.125 417.1875 L 466.0625 417.1875 L 466.0625 427.8125 L 489.0625 427.8125 L 489.0625 417.1875 L 510 417.1875 L 510 427.8125 L 522.15625 427.8125 L 522.15625 145 L 510 145 L 510 155.625 L 489.0625 155.625 L 489.0625 145 L 466.0625 145 L 466.0625 155.625 L 445.125 155.625 L 445.125 145 L 422.125 145 L 422.125 155.625 L 401.1875 155.625 L 401.1875 145 L 378.1875 145 L 378.1875 155.625 L 357.25 155.625 L 357.25 145 L 345 145 z "
     id="path3605" />
  <path
     transform="matrix(0.11274735,0,0,0.11274735,405.32786,460.29357)"
     d="m -78.791908,316.97113 a 113.13708,113.13708 0 1 1 -226.274152,0 113.13708,113.13708 0 1 1 226.274152,0 z"
     sodipodi:ry="113.13708"
     sodipodi:rx="113.13708"
     sodipodi:cy="316.97113"
     sodipodi:cx="-191.92899"
     id="path3004-0-8"
     style="fill:none;stroke:#000000;stroke-width:3.14269638;stroke-linecap:square;stroke-linejoin:round;stroke-miterlimit:4;stroke-opacity:1;stroke-dasharray:none"
     sodipodi:type="arc" />
  <path
     transform="matrix(0.06263742,0,0,0.06263742,436.21031,476.17697)"
     d="m -78.791908,316.97113 a 113.13708,113.13708 0 1 1 -226.274152,0 113.13708,113.13708 0 1 1 226.274152,0 z"
     sodipodi:ry="113.13708"
     sodipodi:rx="113.13708"
     sodipodi:cy="316.97113"
     sodipodi:cx="-191.92899"
     id="path3004-9-7-8"
     style="fill:none;stroke:#000000;stroke-width:5.65685415;stroke-linecap:square;stroke-linejoin:round;stroke-miterlimit:4;stroke-opacity:1;stroke-dasharray:none"
     sodipodi:type="arc" />
  <rect
     y="487.22537"
     x="490.6254"
     height="19.133858"
     width="8.8582678"
     id="rect3030-5-3"
     style="fill:none;stroke:#000000;stroke-width:0.35433072;stroke-linecap:square;stroke-linejoin:round;stroke-miterlimit:4;stroke-opacity:1;stroke-dasharray:none" />
  <path
     transform="matrix(0.66315791,0,0,0.66315791,613.41403,276.87957)"
     d="m -231.42857,377.00504 a 6.7857141,6.7857141 0 1 1 -13.57142,0 6.7857141,6.7857141 0 1 1 13.57142,0 z"
     sodipodi:ry="6.7857141"
     sodipodi:rx="6.7857141"
     sodipodi:cy="377.00504"
     sodipodi:cx="-238.21428"
     id="path3038-5-7-3"
     style="fill:none;stroke:#000000;stroke-width:0.5343082;stroke-linecap:square;stroke-linejoin:round;stroke-miterlimit:4;stroke-opacity:1;stroke-dasharray:none"
     sodipodi:type="arc" />
  <path
     transform="matrix(0.66315791,0,0,0.66315791,613.41403,215.15516)"
     d="m -231.42857,377.00504 a 6.7857141,6.7857141 0 1 1 -13.57142,0 6.7857141,6.7857141 0 1 1 13.57142,0 z"
     sodipodi:ry="6.7857141"
     sodipodi:rx="6.7857141"
     sodipodi:cy="377.00504"
     sodipodi:cx="-238.21428"
     id="path3038-9-3-2-8"
     style="fill:none;stroke:#000000;stroke-width:0.5343082;stroke-linecap:square;stroke-linejoin:round;stroke-miterlimit:4;stroke-opacity:1;stroke-dasharray:none"
     sodipodi:type="arc" />
  <path
     transform="matrix(0.11274735,0,0,0.11274735,405.32787,460.29359)"
     d="m -78.791908,316.97113 a 113.13708,113.13708 0 1 1 -226.274152,0 113.13708,113.13708 0 1 1 226.274152,0 z"
     sodipodi:ry="113.13708"
     sodipodi:rx="113.13708"
     sodipodi:cy="316.97113"
     sodipodi:cx="-191.92899"
     id="path3004-3-6-9-9"
     style="fill:none;stroke:#000000;stroke-width:3.14269638;stroke-linecap:square;stroke-linejoin:round;stroke-miterlimit:4;stroke-opacity:1;stroke-dasharray:none"
     sodipodi:type="arc" />
  <path
     transform="matrix(0.06263742,0,0,0.06263742,436.21032,476.17699)"
     d="m -78.791908,316.97113 a 113.13708,113.13708 0 1 1 -226.274152,0 113.13708,113.13708 0 1 1 226.274152,0 z"
     sodipodi:ry="113.13708"
     sodipodi:rx="113.13708"
     sodipodi:cy="316.97113"
     sodipodi:cx="-191.92899"
     id="path3004-9-5-4-9-9"
     style="fill:none;stroke:#000000;stroke-width:5.65685415;stroke-linecap:square;stroke-linejoin:round;stroke-miterlimit:4;stroke-opacity:1;stroke-dasharray:none"
     sodipodi:type="arc" />
  <path
     style="fill:none;stroke:#000000"
     d="M 142.84375 593.8125 L 142.84375 604.5 L 100.84375 604.5 L 100.84375 865.9375 L 142.84375 865.9375 L 142.84375 876.625 L 155.09375 876.625 L 155.09375 866 L 176.03125 866 L 176.03125 876.625 L 199.03125 876.625 L 199.03125 866 L 219.96875 866 L 219.96875 876.625 L 242.96875 876.625 L 242.96875 866 L 263.90625 866 L 263.90625 876.625 L 286.90625 876.625 L 286.90625 866 L 307.84375 866 L 307.84375 876.625 L 320 876.625 L 320 865.9375 L 362 865.9375 L 362 604.5 L 320 604.5 L 320 593.8125 L 307.84375 593.8125 L 307.84375 604.4375 L 286.90625 604.4375 L 286.90625 593.8125 L 263.90625 593.8125 L 263.90625 604.4375 L 242.96875 604.4375 L 242.96875 593.8125 L 219.96875 593.8125 L 219.96875 604.4375 L 199.03125 604.4375 L 199.03125 593.8125 L 176.03125 593.8125 L 176.03125 604.4375 L 155.09375 604.4375 L 155.09375 593.8125 L 142.84375 593.8125 z "
     id="path3605-1" />
</svg>
