  0
SECTION
  2
HEADER
  9
$ACADVER
  1
AC1014
  9
$HANDSEED
  5
FFFF
  9
$MEASUREMENT
 70
     1
  0
ENDSEC
  0
SECTION
  2
TABLES
  0
TABLE
  2
VPORT
  5
8
330
0
100
AcDbSymbolTable
 70
     4
  0
VPORT
  5
2E
330
8
100
AcDbSymbolTableRecord
100
AcDbViewportTableRecord
  2
*ACTIVE
 70
     0
 10
0.0
 20
0.0
 11
1.0
 21
1.0
 12
210.0
 22
148.5
 13
0.0
 23
0.0
 14
10.0
 24
10.0
 15
10.0
 25
10.0
 16
0.0
 26
0.0
 36
1.0
 17
0.0
 27
0.0
 37
0.0
 40
341.0
 41
1.24
 42
50.0
 43
0.0
 44
0.0
 50
0.0
 51
0.0
 71
     0
 72
   100
 73
     1
 74
     3
 75
     0
 76
     0
 77
     0
 78
     0
  0
ENDTAB
  0
TABLE
  2
LTYPE
  5
5
330
0
100
AcDbSymbolTable
 70
     1
  0
LTYPE
  5
14
330
5
100
AcDbSymbolTableRecord
100
AcDbLinetypeTableRecord
  2
BYBLOCK
 70
     0
  3

 72
    65
 73
     0
 40
0.0
  0
LTYPE
  5
15
330
5
100
AcDbSymbolTableRecord
100
AcDbLinetypeTableRecord
  2
BYLAYER
 70
     0
  3

 72
    65
 73
     0
 40
0.0
  0
LTYPE
  5
16
330
5
100
AcDbSymbolTableRecord
100
AcDbLinetypeTableRecord
  2
CONTINUOUS
 70
     0
  3
Solid line
 72
    65
 73
     0
 40
0.0
  0
ENDTAB
  0
TABLE
  2
LAYER
  5
2
100
AcDbSymbolTable
 70
1
  0
LAYER
  5
50
100
AcDbSymbolTableRecord
100
AcDbLayerTableRecord
  2
0
 70
0
  6
CONTINUOUS
  0
ENDTAB
  0
TABLE
  2
STYLE
  5
3
330
0
100
AcDbSymbolTable
 70
     1
  0
STYLE
  5
11
330
3
100
AcDbSymbolTableRecord
100
AcDbTextStyleTableRecord
  2
STANDARD
 70
     0
 40
0.0
 41
1.0
 50
0.0
 71
     0
 42
2.5
  3
txt
  4

  0
ENDTAB
  0
TABLE
  2
VIEW
  5
6
330
0
100
AcDbSymbolTable
 70
     0
  0
ENDTAB
  0
TABLE
  2
UCS
  5
7
330
0
100
AcDbSymbolTable
 70
     0
  0
ENDTAB
  0
TABLE
  2
APPID
  5
9
330
0
100
AcDbSymbolTable
 70
     2
  0
APPID
  5
12
330
9
100
AcDbSymbolTableRecord
100
AcDbRegAppTableRecord
  2
ACAD
 70
     0
  0
ENDTAB
  0
TABLE
  2
DIMSTYLE
  5
A
330
0
100
AcDbSymbolTable
 70
     1
  0
DIMSTYLE
105
27
330
A
100
AcDbSymbolTableRecord
100
AcDbDimStyleTableRecord
  2
ISO-25
 70
     0
  3

  4

  5

  6

  7

 40
1.0
 41
2.5
 42
0.625
 43
3.75
 44
1.25
 45
0.0
 46
0.0
 47
0.0
 48
0.0
140
2.5
141
2.5
142
0.0
143
0.03937007874016
144
1.0
145
0.0
146
1.0
147
0.625
 71
     0
 72
     0
 73
     0
 74
     0
 75
     0
 76
     0
 77
     1
 78
     8
170
     0
171
     3
172
     1
173
     0
174
     0
175
     0
176
     0
177
     0
178
     0
270
     2
271
     2
272
     2
273
     2
274
     3
340
11
275
     0
280
     0
281
     0
282
     0
283
     0
284
     8
285
     0
286
     0
287
     3
288
     0
  0
ENDTAB
  0
TABLE
  2
BLOCK_RECORD
  5
1
330
0
100
AcDbSymbolTable
 70
     1
  0
BLOCK_RECORD
  5
1F
330
1
100
AcDbSymbolTableRecord
100
AcDbBlockTableRecord
  2
*MODEL_SPACE
  0
BLOCK_RECORD
  5
1B
330
1
100
AcDbSymbolTableRecord
100
AcDbBlockTableRecord
  2
*PAPER_SPACE
  0
ENDTAB
  0
ENDSEC
  0
SECTION
  2
BLOCKS
  0
BLOCK
  5
20
330
1F
100
AcDbEntity
  8
0
100
AcDbBlockBegin
  2
*MODEL_SPACE
 70
     0
 10
0.0
 20
0.0
 30
0.0
  3
*MODEL_SPACE
  1

  0
ENDBLK
  5
21
330
1F
100
AcDbEntity
  8
0
100
AcDbBlockEnd
  0
BLOCK
  5
1C
330
1B
100
AcDbEntity
 67
     1
  8
0
100
AcDbBlockBegin
  2
*PAPER_SPACE
  1

  0
ENDBLK
  5
1D
330
1B
100
AcDbEntity
 67
     1
  8
0
100
AcDbBlockEnd
  0
ENDSEC
  0
SECTION
  2
ENTITIES
  0
SPLINE
  5
100
100
AcDbEntity
  8
0
 62
7
100
AcDbSpline
 70
8
 71
3
 72
8
 73
4
 74
0
 40
0
 40
0
 40
0
 40
0
 40
1
 40
1
 40
1
 40
1
 10
0.453095
 20
31.883092
 30
0.0
 10
2.441320
 20
31.883092
 30
0.0
 10
4.053095
 20
30.271317
 30
0.0
 10
4.053095
 20
28.283092
 30
0.0
  0
SPLINE
  5
101
100
AcDbEntity
  8
0
 62
7
100
AcDbSpline
 70
8
 71
3
 72
8
 73
4
 74
0
 40
0
 40
0
 40
0
 40
0
 40
1
 40
1
 40
1
 40
1
 10
4.053095
 20
28.283092
 30
0.0
 10
4.053095
 20
26.294867
 30
0.0
 10
2.441320
 20
24.683092
 30
0.0
 10
0.453095
 20
24.683092
 30
0.0
  0
SPLINE
  5
102
100
AcDbEntity
  8
0
 62
7
100
AcDbSpline
 70
8
 71
3
 72
8
 73
4
 74
0
 40
0
 40
0
 40
0
 40
0
 40
1
 40
1
 40
1
 40
1
 10
0.453095
 20
24.683092
 30
0.0
 10
-1.535130
 20
24.683092
 30
0.0
 10
-3.146905
 20
26.294867
 30
0.0
 10
-3.146905
 20
28.283092
 30
0.0
  0
SPLINE
  5
103
100
AcDbEntity
  8
0
 62
7
100
AcDbSpline
 70
8
 71
3
 72
8
 73
4
 74
0
 40
0
 40
0
 40
0
 40
0
 40
1
 40
1
 40
1
 40
1
 10
-3.146905
 20
28.283092
 30
0.0
 10
-3.146905
 20
30.271317
 30
0.0
 10
-1.535130
 20
31.883092
 30
0.0
 10
0.453095
 20
31.883092
 30
0.0
  0
LWPOLYLINE
  5
104
100
AcDbEntity
  8
0
 62
7
100
AcDbPolyline
 90
42
 70
0
 10
-13.799143
 20
20.733399
 30
0.0
 10
-10.800532
 20
20.733399
 30
0.0
 10
-10.800532
 20
17.364372
 30
0.0
 10
-2.501420
 20
17.364372
 30
0.0
 10
-2.501420
 20
17.373177
 30
0.0
 10
3.407608
 20
17.373177
 30
0.0
 10
3.407608
 20
17.364372
 30
0.0
 10
11.706691
 20
17.364372
 30
0.0
 10
11.706691
 20
20.733399
 30
0.0
 10
14.705302
 20
20.733399
 30
0.0
 10
14.705302
 20
26.818817
 30
0.0
 10
11.706691
 20
26.818817
 30
0.0
 10
11.706691
 20
33.133539
 30
0.0
 10
14.705302
 20
33.133539
 30
0.0
 10
14.705302
 20
39.218956
 30
0.0
 10
11.706691
 20
39.218956
 30
0.0
 10
11.706691
 20
45.533678
 30
0.0
 10
14.705302
 20
45.533678
 30
0.0
 10
14.705302
 20
51.619095
 30
0.0
 10
11.706691
 20
51.619095
 30
0.0
 10
11.706691
 20
57.933817
 30
0.0
 10
14.705302
 20
57.933817
 30
0.0
 10
14.705302
 20
64.019234
 30
0.0
 10
11.706691
 20
64.019234
 30
0.0
 10
11.706691
 20
67.361803
 30
0.0
 10
-10.800532
 20
67.361803
 30
0.0
 10
-10.800532
 20
64.019234
 30
0.0
 10
-13.799143
 20
64.019234
 30
0.0
 10
-13.799143
 20
57.933817
 30
0.0
 10
-10.800532
 20
57.933817
 30
0.0
 10
-10.800532
 20
51.619095
 30
0.0
 10
-13.799143
 20
51.619095
 30
0.0
 10
-13.799143
 20
45.533678
 30
0.0
 10
-10.800532
 20
45.533678
 30
0.0
 10
-10.800532
 20
39.218956
 30
0.0
 10
-13.799143
 20
39.218956
 30
0.0
 10
-13.799143
 20
33.133539
 30
0.0
 10
-10.800532
 20
33.133539
 30
0.0
 10
-10.800532
 20
26.818817
 30
0.0
 10
-13.799143
 20
26.818817
 30
0.0
 10
-13.799143
 20
20.733399
 30
0.0
 10
-13.799143
 20
20.733399
 30
0.0
  0
SPLINE
  5
105
100
AcDbEntity
  8
0
 62
7
100
AcDbSpline
 70
8
 71
3
 72
8
 73
4
 74
0
 40
0
 40
0
 40
0
 40
0
 40
1
 40
1
 40
1
 40
1
 10
0.453095
 20
41.713092
 30
0.0
 10
1.557664
 20
41.713092
 30
0.0
 10
2.453095
 20
40.817661
 30
0.0
 10
2.453095
 20
39.713091
 30
0.0
  0
SPLINE
  5
106
100
AcDbEntity
  8
0
 62
7
100
AcDbSpline
 70
8
 71
3
 72
8
 73
4
 74
0
 40
0
 40
0
 40
0
 40
0
 40
1
 40
1
 40
1
 40
1
 10
2.453095
 20
39.713091
 30
0.0
 10
2.453095
 20
38.608522
 30
0.0
 10
1.557664
 20
37.713091
 30
0.0
 10
0.453095
 20
37.713091
 30
0.0
  0
SPLINE
  5
107
100
AcDbEntity
  8
0
 62
7
100
AcDbSpline
 70
8
 71
3
 72
8
 73
4
 74
0
 40
0
 40
0
 40
0
 40
0
 40
1
 40
1
 40
1
 40
1
 10
0.453095
 20
37.713091
 30
0.0
 10
-0.651475
 20
37.713091
 30
0.0
 10
-1.546905
 20
38.608522
 30
0.0
 10
-1.546905
 20
39.713091
 30
0.0
  0
SPLINE
  5
108
100
AcDbEntity
  8
0
 62
7
100
AcDbSpline
 70
8
 71
3
 72
8
 73
4
 74
0
 40
0
 40
0
 40
0
 40
0
 40
1
 40
1
 40
1
 40
1
 10
-1.546905
 20
39.713091
 30
0.0
 10
-1.546905
 20
40.817661
 30
0.0
 10
-0.651475
 20
41.713092
 30
0.0
 10
0.453095
 20
41.713092
 30
0.0
  0
LWPOLYLINE
  5
109
100
AcDbEntity
  8
0
 62
7
100
AcDbPolyline
 90
2
 70
0
 10
0.453095
 20
31.883092
 30
0.0
 10
0.453095
 20
31.883092
 30
0.0
  0
LWPOLYLINE
  5
10a
100
AcDbEntity
  8
0
 62
7
100
AcDbPolyline
 90
2
 70
0
 10
0.453095
 20
41.713092
 30
0.0
 10
0.453095
 20
41.713092
 30
0.0
  0
SPLINE
  5
10b
100
AcDbEntity
  8
0
 62
7
100
AcDbSpline
 70
8
 71
3
 72
8
 73
4
 74
0
 40
0
 40
0
 40
0
 40
0
 40
1
 40
1
 40
1
 40
1
 10
9.163099
 20
49.803092
 30
0.0
 10
9.864500
 20
49.803092
 30
0.0
 10
10.433098
 20
49.234495
 30
0.0
 10
10.433098
 20
48.533093
 30
0.0
  0
SPLINE
  5
10c
100
AcDbEntity
  8
0
 62
7
100
AcDbSpline
 70
8
 71
3
 72
8
 73
4
 74
0
 40
0
 40
0
 40
0
 40
0
 40
1
 40
1
 40
1
 40
1
 10
10.433098
 20
48.533093
 30
0.0
 10
10.433098
 20
47.831690
 30
0.0
 10
9.864500
 20
47.263093
 30
0.0
 10
9.163099
 20
47.263093
 30
0.0
  0
SPLINE
  5
10d
100
AcDbEntity
  8
0
 62
7
100
AcDbSpline
 70
8
 71
3
 72
8
 73
4
 74
0
 40
0
 40
0
 40
0
 40
0
 40
1
 40
1
 40
1
 40
1
 10
9.163099
 20
47.263093
 30
0.0
 10
8.461697
 20
47.263093
 30
0.0
 10
7.893098
 20
47.831690
 30
0.0
 10
7.893098
 20
48.533093
 30
0.0
  0
SPLINE
  5
10e
100
AcDbEntity
  8
0
 62
7
100
AcDbSpline
 70
8
 71
3
 72
8
 73
4
 74
0
 40
0
 40
0
 40
0
 40
0
 40
1
 40
1
 40
1
 40
1
 10
7.893098
 20
48.533093
 30
0.0
 10
7.893098
 20
49.234495
 30
0.0
 10
8.461697
 20
49.803092
 30
0.0
 10
9.163099
 20
49.803092
 30
0.0
  0
LWPOLYLINE
  5
10f
100
AcDbEntity
  8
0
 62
7
100
AcDbPolyline
 90
5
 70
0
 10
-2.032141
 20
58.463088
 30
0.0
 10
-2.032141
 20
60.963088
 30
0.0
 10
3.367859
 20
60.963088
 30
0.0
 10
3.367859
 20
58.463088
 30
0.0
 10
-2.032141
 20
58.463088
 30
0.0
  0
SPLINE
  5
110
100
AcDbEntity
  8
0
 62
7
100
AcDbSpline
 70
8
 71
3
 72
8
 73
4
 74
0
 40
0
 40
0
 40
0
 40
0
 40
1
 40
1
 40
1
 40
1
 10
-8.256926
 20
49.803092
 30
0.0
 10
-7.555526
 20
49.803092
 30
0.0
 10
-6.986927
 20
49.234495
 30
0.0
 10
-6.986927
 20
48.533093
 30
0.0
  0
SPLINE
  5
111
100
AcDbEntity
  8
0
 62
7
100
AcDbSpline
 70
8
 71
3
 72
8
 73
4
 74
0
 40
0
 40
0
 40
0
 40
0
 40
1
 40
1
 40
1
 40
1
 10
-6.986927
 20
48.533093
 30
0.0
 10
-6.986927
 20
47.831690
 30
0.0
 10
-7.555526
 20
47.263093
 30
0.0
 10
-8.256926
 20
47.263093
 30
0.0
  0
SPLINE
  5
112
100
AcDbEntity
  8
0
 62
7
100
AcDbSpline
 70
8
 71
3
 72
8
 73
4
 74
0
 40
0
 40
0
 40
0
 40
0
 40
1
 40
1
 40
1
 40
1
 10
-8.256926
 20
47.263093
 30
0.0
 10
-8.958329
 20
47.263093
 30
0.0
 10
-9.526927
 20
47.831690
 30
0.0
 10
-9.526927
 20
48.533093
 30
0.0
  0
SPLINE
  5
113
100
AcDbEntity
  8
0
 62
7
100
AcDbSpline
 70
8
 71
3
 72
8
 73
4
 74
0
 40
0
 40
0
 40
0
 40
0
 40
1
 40
1
 40
1
 40
1
 10
-9.526927
 20
48.533093
 30
0.0
 10
-9.526927
 20
49.234495
 30
0.0
 10
-8.958329
 20
49.803092
 30
0.0
 10
-8.256926
 20
49.803092
 30
0.0
  0
LWPOLYLINE
  5
114
100
AcDbEntity
  8
0
 62
7
100
AcDbPolyline
 90
2
 70
0
 10
9.163099
 20
49.803092
 30
0.0
 10
9.163099
 20
49.803092
 30
0.0
  0
LWPOLYLINE
  5
115
100
AcDbEntity
  8
0
 62
7
100
AcDbPolyline
 90
2
 70
0
 10
-8.256926
 20
49.803092
 30
0.0
 10
-8.256926
 20
49.803092
 30
0.0
  0
LWPOLYLINE
  5
116
100
AcDbEntity
  8
0
 62
7
100
AcDbPolyline
 90
33
 70
0
 10
-87.417278
 20
63.264662
 30
0.0
 10
-87.417278
 20
60.266051
 30
0.0
 10
-92.038667
 20
60.266051
 30
0.0
 10
-92.038667
 20
59.789801
 30
0.0
 10
-91.994555
 20
59.789801
 30
0.0
 10
-91.994555
 20
37.838204
 30
0.0
 10
-92.038667
 20
37.838204
 30
0.0
 10
-92.038667
 20
37.829398
 30
0.0
 10
-91.932833
 20
37.829398
 30
0.0
 10
-91.932833
 20
37.423704
 30
0.0
 10
-90.521722
 20
37.423704
 30
0.0
 10
-90.521722
 20
34.522107
 30
0.0
 10
-84.991916
 20
34.522107
 30
0.0
 10
-84.991916
 20
37.423704
 30
0.0
 10
-83.580805
 20
37.423704
 30
0.0
 10
-83.580805
 20
37.829398
 30
0.0
 10
-83.580805
 20
37.926412
 30
0.0
 10
-83.580805
 20
55.627037
 30
0.0
 10
-80.732139
 20
55.627037
 30
0.0
 10
-80.732139
 20
37.829398
 30
0.0
 10
-80.732139
 20
37.458982
 30
0.0
 10
-79.321028
 20
37.458982
 30
0.0
 10
-79.321028
 20
34.557384
 30
0.0
 10
-75.184694
 20
34.557384
 30
0.0
 10
-75.184694
 20
37.458982
 30
0.0
 10
-73.773583
 20
37.458982
 30
0.0
 10
-73.773583
 20
37.767662
 30
0.0
 10
-73.747054
 20
37.767662
 30
0.0
 10
-73.747054
 20
60.266065
 30
0.0
 10
-81.331776
 20
60.266065
 30
0.0
 10
-81.331776
 20
63.264676
 30
0.0
 10
-87.417193
 20
63.264676
 30
0.0
 10
-87.417278
 20
63.264662
 30
0.0
  0
LWPOLYLINE
  5
117
100
AcDbEntity
  8
0
 62
7
100
AcDbPolyline
 90
60
 70
0
 10
25.151290
 20
156.329209
 30
0.0
 10
25.151290
 20
142.068168
 30
0.0
 10
25.027817
 20
142.068168
 30
0.0
 10
25.027817
 20
138.610945
 30
0.0
 10
28.035234
 20
138.610945
 30
0.0
 10
28.035234
 20
132.701918
 30
0.0
 10
25.027817
 20
132.701918
 30
0.0
 10
25.027817
 20
126.210806
 30
0.0
 10
28.035234
 20
126.210806
 30
0.0
 10
28.035234
 20
120.301779
 30
0.0
 10
25.027817
 20
120.301779
 30
0.0
 10
25.027817
 20
113.810668
 30
0.0
 10
28.035234
 20
113.810668
 30
0.0
 10
28.035234
 20
107.901640
 30
0.0
 10
25.027817
 20
107.901640
 30
0.0
 10
25.027817
 20
101.410529
 30
0.0
 10
28.035234
 20
101.410529
 30
0.0
 10
28.035234
 20
95.501501
 30
0.0
 10
25.027817
 20
95.501501
 30
0.0
 10
25.027817
 20
89.054487
 30
0.0
 10
25.027817
 20
73.964418
 30
0.0
 10
110.841011
 20
73.964418
 30
0.0
 10
110.841011
 20
89.054487
 30
0.0
 10
110.841011
 20
95.501501
 30
0.0
 10
107.842400
 20
95.501501
 30
0.0
 10
107.842400
 20
101.410529
 30
0.0
 10
110.841011
 20
101.410529
 30
0.0
 10
110.841011
 20
107.901640
 30
0.0
 10
107.842400
 20
107.901640
 30
0.0
 10
107.842400
 20
113.810668
 30
0.0
 10
110.841011
 20
113.810668
 30
0.0
 10
110.841011
 20
120.301779
 30
0.0
 10
107.842400
 20
120.301779
 30
0.0
 10
107.842400
 20
126.210806
 30
0.0
 10
110.841011
 20
126.210806
 30
0.0
 10
110.841011
 20
132.701918
 30
0.0
 10
107.842400
 20
132.701918
 30
0.0
 10
107.842400
 20
138.610945
 30
0.0
 10
110.841011
 20
138.610945
 30
0.0
 10
110.841011
 20
139.131293
 30
0.0
 10
110.938011
 20
139.131293
 30
0.0
 10
110.938011
 20
156.329209
 30
0.0
 10
101.280733
 20
156.329209
 30
0.0
 10
101.280733
 20
153.330598
 30
0.0
 10
91.932122
 20
153.330598
 30
0.0
 10
91.932122
 20
156.329209
 30
0.0
 10
82.230733
 20
156.329209
 30
0.0
 10
82.230733
 20
153.330598
 30
0.0
 10
72.890956
 20
153.330598
 30
0.0
 10
72.890956
 20
156.329209
 30
0.0
 10
63.189567
 20
156.329209
 30
0.0
 10
63.189567
 20
153.330598
 30
0.0
 10
53.849761
 20
153.330598
 30
0.0
 10
53.849761
 20
156.329209
 30
0.0
 10
44.148372
 20
156.329209
 30
0.0
 10
44.148372
 20
153.330598
 30
0.0
 10
34.808566
 20
153.330598
 30
0.0
 10
34.808566
 20
156.329209
 30
0.0
 10
25.151290
 20
156.329209
 30
0.0
 10
25.151290
 20
156.329209
 30
0.0
  0
LWPOLYLINE
  5
118
100
AcDbEntity
  8
0
 62
7
100
AcDbPolyline
 90
6
 70
0
 10
32.744845
 20
92.053098
 30
0.0
 10
38.653844
 20
92.053098
 30
0.0
 10
38.653844
 20
89.054487
 30
0.0
 10
32.744845
 20
89.054487
 30
0.0
 10
32.744845
 20
92.053098
 30
0.0
 10
32.744845
 20
92.053098
 30
0.0
  0
LWPOLYLINE
  5
119
100
AcDbEntity
  8
0
 62
7
100
AcDbPolyline
 90
6
 70
0
 10
97.214955
 20
92.053098
 30
0.0
 10
103.124011
 20
92.053098
 30
0.0
 10
103.124011
 20
89.054487
 30
0.0
 10
97.214955
 20
89.054487
 30
0.0
 10
97.214955
 20
92.053098
 30
0.0
 10
97.214955
 20
92.053098
 30
0.0
  0
LWPOLYLINE
  5
11a
100
AcDbEntity
  8
0
 62
7
100
AcDbPolyline
 90
33
 70
0
 10
-55.230511
 20
63.834821
 30
0.0
 10
-55.230511
 20
60.836210
 30
0.0
 10
-50.609122
 20
60.836210
 30
0.0
 10
-50.609122
 20
60.359960
 30
0.0
 10
-50.653233
 20
60.359960
 30
0.0
 10
-50.653233
 20
38.408363
 30
0.0
 10
-50.609122
 20
38.408363
 30
0.0
 10
-50.609122
 20
38.399558
 30
0.0
 10
-50.714955
 20
38.399558
 30
0.0
 10
-50.714955
 20
37.993863
 30
0.0
 10
-52.126066
 20
37.993863
 30
0.0
 10
-52.126066
 20
35.092263
 30
0.0
 10
-57.655872
 20
35.092263
 30
0.0
 10
-57.655872
 20
37.993863
 30
0.0
 10
-59.066983
 20
37.993863
 30
0.0
 10
-59.066983
 20
38.399558
 30
0.0
 10
-59.066983
 20
38.496572
 30
0.0
 10
-59.066983
 20
56.197197
 30
0.0
 10
-61.915650
 20
56.197197
 30
0.0
 10
-61.915650
 20
38.399558
 30
0.0
 10
-61.915650
 20
38.029141
 30
0.0
 10
-63.326761
 20
38.029141
 30
0.0
 10
-63.326761
 20
35.127541
 30
0.0
 10
-67.463094
 20
35.127541
 30
0.0
 10
-67.463094
 20
38.029141
 30
0.0
 10
-68.874205
 20
38.029141
 30
0.0
 10
-68.874205
 20
38.337822
 30
0.0
 10
-68.900734
 20
38.337822
 30
0.0
 10
-68.900734
 20
60.836224
 30
0.0
 10
-61.316012
 20
60.836224
 30
0.0
 10
-61.316012
 20
63.834835
 30
0.0
 10
-55.230595
 20
63.834835
 30
0.0
 10
-55.230511
 20
63.834821
 30
0.0
  0
SPLINE
  5
11b
100
AcDbEntity
  8
0
 62
7
100
AcDbSpline
 70
8
 71
3
 72
8
 73
4
 74
0
 40
0
 40
0
 40
0
 40
0
 40
1
 40
1
 40
1
 40
1
 10
-32.928533
 20
32.017520
 30
0.0
 10
-31.642149
 20
32.017862
 30
0.0
 10
-30.453335
 20
31.331781
 30
0.0
 10
-29.810044
 20
30.217797
 30
0.0
  0
SPLINE
  5
11c
100
AcDbEntity
  8
0
 62
7
100
AcDbSpline
 70
8
 71
3
 72
8
 73
4
 74
0
 40
0
 40
0
 40
0
 40
0
 40
1
 40
1
 40
1
 40
1
 10
-29.810044
 20
30.217797
 30
0.0
 10
-29.166753
 20
29.103812
 30
0.0
 10
-29.166753
 20
27.731228
 30
0.0
 10
-29.810044
 20
26.617244
 30
0.0
  0
SPLINE
  5
11d
100
AcDbEntity
  8
0
 62
7
100
AcDbSpline
 70
8
 71
3
 72
8
 73
4
 74
0
 40
0
 40
0
 40
0
 40
0
 40
1
 40
1
 40
1
 40
1
 10
-29.810044
 20
26.617244
 30
0.0
 10
-30.453335
 20
25.503259
 30
0.0
 10
-31.642149
 20
24.817178
 30
0.0
 10
-32.928533
 20
24.817520
 30
0.0
  0
SPLINE
  5
11e
100
AcDbEntity
  8
0
 62
7
100
AcDbSpline
 70
8
 71
3
 72
8
 73
4
 74
0
 40
0
 40
0
 40
0
 40
0
 40
1
 40
1
 40
1
 40
1
 10
-32.928533
 20
24.817520
 30
0.0
 10
-34.214917
 20
24.817178
 30
0.0
 10
-35.403732
 20
25.503259
 30
0.0
 10
-36.047023
 20
26.617244
 30
0.0
  0
SPLINE
  5
11f
100
AcDbEntity
  8
0
 62
7
100
AcDbSpline
 70
8
 71
3
 72
8
 73
4
 74
0
 40
0
 40
0
 40
0
 40
0
 40
1
 40
1
 40
1
 40
1
 10
-36.047023
 20
26.617244
 30
0.0
 10
-36.690313
 20
27.731228
 30
0.0
 10
-36.690313
 20
29.103812
 30
0.0
 10
-36.047023
 20
30.217797
 30
0.0
  0
SPLINE
  5
120
100
AcDbEntity
  8
0
 62
7
100
AcDbSpline
 70
8
 71
3
 72
8
 73
4
 74
0
 40
0
 40
0
 40
0
 40
0
 40
1
 40
1
 40
1
 40
1
 10
-36.047023
 20
30.217797
 30
0.0
 10
-35.403732
 20
31.331781
 30
0.0
 10
-34.214917
 20
32.017862
 30
0.0
 10
-32.928533
 20
32.017520
 30
0.0
  0
LWPOLYLINE
  5
121
100
AcDbEntity
  8
0
 62
7
100
AcDbPolyline
 90
42
 70
0
 10
-47.180743
 20
20.867845
 30
0.0
 10
-44.182132
 20
20.867845
 30
0.0
 10
-44.182132
 20
17.498829
 30
0.0
 10
-35.883020
 20
17.498829
 30
0.0
 10
-35.883020
 20
17.507578
 30
0.0
 10
-29.973992
 20
17.507578
 30
0.0
 10
-29.973992
 20
17.498829
 30
0.0
 10
-21.674909
 20
17.498829
 30
0.0
 10
-21.674909
 20
20.867845
 30
0.0
 10
-18.676297
 20
20.867845
 30
0.0
 10
-18.676297
 20
26.953262
 30
0.0
 10
-21.674909
 20
26.953262
 30
0.0
 10
-21.674909
 20
33.267984
 30
0.0
 10
-18.676297
 20
33.267984
 30
0.0
 10
-18.676297
 20
39.353401
 30
0.0
 10
-21.674909
 20
39.353401
 30
0.0
 10
-21.674909
 20
45.668123
 30
0.0
 10
-18.676297
 20
45.668123
 30
0.0
 10
-18.676297
 20
51.753531
 30
0.0
 10
-21.674909
 20
51.753531
 30
0.0
 10
-21.674909
 20
58.068254
 30
0.0
 10
-18.676297
 20
58.068254
 30
0.0
 10
-18.676297
 20
64.153670
 30
0.0
 10
-21.674909
 20
64.153670
 30
0.0
 10
-21.674909
 20
67.496240
 30
0.0
 10
-44.182132
 20
67.496240
 30
0.0
 10
-44.182132
 20
64.153670
 30
0.0
 10
-47.180743
 20
64.153670
 30
0.0
 10
-47.180743
 20
58.068254
 30
0.0
 10
-44.182132
 20
58.068254
 30
0.0
 10
-44.182132
 20
51.753531
 30
0.0
 10
-47.180743
 20
51.753531
 30
0.0
 10
-47.180743
 20
45.668123
 30
0.0
 10
-44.182132
 20
45.668123
 30
0.0
 10
-44.182132
 20
39.353401
 30
0.0
 10
-47.180743
 20
39.353401
 30
0.0
 10
-47.180743
 20
33.267984
 30
0.0
 10
-44.182132
 20
33.267984
 30
0.0
 10
-44.182132
 20
26.953262
 30
0.0
 10
-47.180743
 20
26.953262
 30
0.0
 10
-47.180743
 20
20.867845
 30
0.0
 10
-47.180743
 20
20.867845
 30
0.0
  0
SPLINE
  5
122
100
AcDbEntity
  8
0
 62
7
100
AcDbSpline
 70
8
 71
3
 72
8
 73
4
 74
0
 40
0
 40
0
 40
0
 40
0
 40
1
 40
1
 40
1
 40
1
 10
-32.928534
 20
41.847534
 30
0.0
 10
-32.213876
 20
41.847724
 30
0.0
 10
-31.553423
 20
41.466567
 30
0.0
 10
-31.196039
 20
40.847687
 30
0.0
  0
SPLINE
  5
123
100
AcDbEntity
  8
0
 62
7
100
AcDbSpline
 70
8
 71
3
 72
8
 73
4
 74
0
 40
0
 40
0
 40
0
 40
0
 40
1
 40
1
 40
1
 40
1
 10
-31.196039
 20
40.847687
 30
0.0
 10
-30.838656
 20
40.228807
 30
0.0
 10
-30.838656
 20
39.466260
 30
0.0
 10
-31.196039
 20
38.847380
 30
0.0
  0
SPLINE
  5
124
100
AcDbEntity
  8
0
 62
7
100
AcDbSpline
 70
8
 71
3
 72
8
 73
4
 74
0
 40
0
 40
0
 40
0
 40
0
 40
1
 40
1
 40
1
 40
1
 10
-31.196039
 20
38.847380
 30
0.0
 10
-31.553423
 20
38.228500
 30
0.0
 10
-32.213876
 20
37.847343
 30
0.0
 10
-32.928534
 20
37.847534
 30
0.0
  0
SPLINE
  5
125
100
AcDbEntity
  8
0
 62
7
100
AcDbSpline
 70
8
 71
3
 72
8
 73
4
 74
0
 40
0
 40
0
 40
0
 40
0
 40
1
 40
1
 40
1
 40
1
 10
-32.928534
 20
37.847534
 30
0.0
 10
-33.643191
 20
37.847343
 30
0.0
 10
-34.303644
 20
38.228500
 30
0.0
 10
-34.661028
 20
38.847380
 30
0.0
  0
SPLINE
  5
126
100
AcDbEntity
  8
0
 62
7
100
AcDbSpline
 70
8
 71
3
 72
8
 73
4
 74
0
 40
0
 40
0
 40
0
 40
0
 40
1
 40
1
 40
1
 40
1
 10
-34.661028
 20
38.847380
 30
0.0
 10
-35.018411
 20
39.466260
 30
0.0
 10
-35.018411
 20
40.228807
 30
0.0
 10
-34.661028
 20
40.847687
 30
0.0
  0
SPLINE
  5
127
100
AcDbEntity
  8
0
 62
7
100
AcDbSpline
 70
8
 71
3
 72
8
 73
4
 74
0
 40
0
 40
0
 40
0
 40
0
 40
1
 40
1
 40
1
 40
1
 10
-34.661028
 20
40.847687
 30
0.0
 10
-34.303644
 20
41.466567
 30
0.0
 10
-33.643191
 20
41.847724
 30
0.0
 10
-32.928534
 20
41.847534
 30
0.0
  0
LWPOLYLINE
  5
128
100
AcDbEntity
  8
0
 62
7
100
AcDbPolyline
 90
2
 70
0
 10
-32.928533
 20
32.017520
 30
0.0
 10
-32.928533
 20
32.017520
 30
0.0
  0
LWPOLYLINE
  5
129
100
AcDbEntity
  8
0
 62
7
100
AcDbPolyline
 90
2
 70
0
 10
-32.928534
 20
41.847534
 30
0.0
 10
-32.928534
 20
41.847534
 30
0.0
  0
SPLINE
  5
12a
100
AcDbEntity
  8
0
 62
7
100
AcDbSpline
 70
8
 71
3
 72
8
 73
4
 74
0
 40
0
 40
0
 40
0
 40
0
 40
1
 40
1
 40
1
 40
1
 10
-24.218529
 20
49.937528
 30
0.0
 10
-23.764469
 20
49.938027
 30
0.0
 10
-23.344687
 20
49.696076
 30
0.0
 10
-23.117513
 20
49.302932
 30
0.0
  0
SPLINE
  5
12b
100
AcDbEntity
  8
0
 62
7
100
AcDbSpline
 70
8
 71
3
 72
8
 73
4
 74
0
 40
0
 40
0
 40
0
 40
0
 40
1
 40
1
 40
1
 40
1
 10
-23.117513
 20
49.302932
 30
0.0
 10
-22.890339
 20
48.909788
 30
0.0
 10
-22.890339
 20
48.425270
 30
0.0
 10
-23.117513
 20
48.032126
 30
0.0
  0
SPLINE
  5
12c
100
AcDbEntity
  8
0
 62
7
100
AcDbSpline
 70
8
 71
3
 72
8
 73
4
 74
0
 40
0
 40
0
 40
0
 40
0
 40
1
 40
1
 40
1
 40
1
 10
-23.117513
 20
48.032126
 30
0.0
 10
-23.344687
 20
47.638982
 30
0.0
 10
-23.764469
 20
47.397031
 30
0.0
 10
-24.218529
 20
47.397530
 30
0.0
  0
SPLINE
  5
12d
100
AcDbEntity
  8
0
 62
7
100
AcDbSpline
 70
8
 71
3
 72
8
 73
4
 74
0
 40
0
 40
0
 40
0
 40
0
 40
1
 40
1
 40
1
 40
1
 10
-24.218529
 20
47.397530
 30
0.0
 10
-24.672589
 20
47.397031
 30
0.0
 10
-25.092371
 20
47.638982
 30
0.0
 10
-25.319545
 20
48.032126
 30
0.0
  0
SPLINE
  5
12e
100
AcDbEntity
  8
0
 62
7
100
AcDbSpline
 70
8
 71
3
 72
8
 73
4
 74
0
 40
0
 40
0
 40
0
 40
0
 40
1
 40
1
 40
1
 40
1
 10
-25.319545
 20
48.032126
 30
0.0
 10
-25.546719
 20
48.425270
 30
0.0
 10
-25.546719
 20
48.909788
 30
0.0
 10
-25.319545
 20
49.302932
 30
0.0
  0
SPLINE
  5
12f
100
AcDbEntity
  8
0
 62
7
100
AcDbSpline
 70
8
 71
3
 72
8
 73
4
 74
0
 40
0
 40
0
 40
0
 40
0
 40
1
 40
1
 40
1
 40
1
 10
-25.319545
 20
49.302932
 30
0.0
 10
-25.092371
 20
49.696076
 30
0.0
 10
-24.672589
 20
49.938027
 30
0.0
 10
-24.218529
 20
49.937528
 30
0.0
  0
LWPOLYLINE
  5
130
100
AcDbEntity
  8
0
 62
7
100
AcDbPolyline
 90
5
 70
0
 10
-35.413758
 20
58.597533
 30
0.0
 10
-35.413758
 20
61.097533
 30
0.0
 10
-30.013758
 20
61.097533
 30
0.0
 10
-30.013758
 20
58.597533
 30
0.0
 10
-35.413758
 20
58.597533
 30
0.0
  0
SPLINE
  5
131
100
AcDbEntity
  8
0
 62
7
100
AcDbSpline
 70
8
 71
3
 72
8
 73
4
 74
0
 40
0
 40
0
 40
0
 40
0
 40
1
 40
1
 40
1
 40
1
 10
-41.638526
 20
49.937528
 30
0.0
 10
-41.184467
 20
49.938027
 30
0.0
 10
-40.764685
 20
49.696076
 30
0.0
 10
-40.537511
 20
49.302932
 30
0.0
  0
SPLINE
  5
132
100
AcDbEntity
  8
0
 62
7
100
AcDbSpline
 70
8
 71
3
 72
8
 73
4
 74
0
 40
0
 40
0
 40
0
 40
0
 40
1
 40
1
 40
1
 40
1
 10
-40.537511
 20
49.302932
 30
0.0
 10
-40.310337
 20
48.909788
 30
0.0
 10
-40.310337
 20
48.425270
 30
0.0
 10
-40.537511
 20
48.032126
 30
0.0
  0
SPLINE
  5
133
100
AcDbEntity
  8
0
 62
7
100
AcDbSpline
 70
8
 71
3
 72
8
 73
4
 74
0
 40
0
 40
0
 40
0
 40
0
 40
1
 40
1
 40
1
 40
1
 10
-40.537511
 20
48.032126
 30
0.0
 10
-40.764685
 20
47.638982
 30
0.0
 10
-41.184467
 20
47.397031
 30
0.0
 10
-41.638526
 20
47.397530
 30
0.0
  0
SPLINE
  5
134
100
AcDbEntity
  8
0
 62
7
100
AcDbSpline
 70
8
 71
3
 72
8
 73
4
 74
0
 40
0
 40
0
 40
0
 40
0
 40
1
 40
1
 40
1
 40
1
 10
-41.638526
 20
47.397530
 30
0.0
 10
-42.092586
 20
47.397031
 30
0.0
 10
-42.512368
 20
47.638982
 30
0.0
 10
-42.739542
 20
48.032126
 30
0.0
  0
SPLINE
  5
135
100
AcDbEntity
  8
0
 62
7
100
AcDbSpline
 70
8
 71
3
 72
8
 73
4
 74
0
 40
0
 40
0
 40
0
 40
0
 40
1
 40
1
 40
1
 40
1
 10
-42.739542
 20
48.032126
 30
0.0
 10
-42.966716
 20
48.425270
 30
0.0
 10
-42.966716
 20
48.909788
 30
0.0
 10
-42.739542
 20
49.302932
 30
0.0
  0
SPLINE
  5
136
100
AcDbEntity
  8
0
 62
7
100
AcDbSpline
 70
8
 71
3
 72
8
 73
4
 74
0
 40
0
 40
0
 40
0
 40
0
 40
1
 40
1
 40
1
 40
1
 10
-42.739542
 20
49.302932
 30
0.0
 10
-42.512368
 20
49.696076
 30
0.0
 10
-42.092586
 20
49.938027
 30
0.0
 10
-41.638526
 20
49.937528
 30
0.0
  0
LWPOLYLINE
  5
137
100
AcDbEntity
  8
0
 62
7
100
AcDbPolyline
 90
2
 70
0
 10
-24.218529
 20
49.937528
 30
0.0
 10
-24.218529
 20
49.937528
 30
0.0
  0
LWPOLYLINE
  5
138
100
AcDbEntity
  8
0
 62
7
100
AcDbPolyline
 90
2
 70
0
 10
-41.638526
 20
49.937528
 30
0.0
 10
-41.638526
 20
49.937528
 30
0.0
  0
LWPOLYLINE
  5
139
100
AcDbEntity
  8
0
 62
7
100
AcDbPolyline
 90
61
 70
0
 10
185.884464
 20
16.293777
 30
0.0
 10
188.884458
 20
16.293777
 30
0.0
 10
188.884458
 20
26.203776
 30
0.0
 10
185.884464
 20
26.203776
 30
0.0
 10
185.884464
 20
41.627110
 30
0.0
 10
188.884458
 20
41.627110
 30
0.0
 10
188.884458
 20
51.537109
 30
0.0
 10
185.884464
 20
51.537109
 30
0.0
 10
185.884464
 20
63.915444
 30
0.0
 10
196.339471
 20
63.915444
 30
0.0
 10
196.339471
 20
66.915443
 30
0.0
 10
206.429480
 20
66.915443
 30
0.0
 10
206.429480
 20
63.915444
 30
0.0
 10
216.839473
 20
63.915444
 30
0.0
 10
216.839473
 20
66.915443
 30
0.0
 10
226.929482
 20
66.915443
 30
0.0
 10
226.929482
 20
63.915444
 30
0.0
 10
237.339474
 20
63.915444
 30
0.0
 10
237.339474
 20
66.915443
 30
0.0
 10
247.429455
 20
66.915443
 30
0.0
 10
247.429455
 20
63.915444
 30
0.0
 10
257.839475
 20
63.915444
 30
0.0
 10
257.839475
 20
66.915443
 30
0.0
 10
267.929456
 20
66.915443
 30
0.0
 10
267.929456
 20
63.915444
 30
0.0
 10
278.339477
 20
63.915444
 30
0.0
 10
278.339477
 20
66.915443
 30
0.0
 10
288.429446
 20
66.915443
 30
0.0
 10
288.429446
 20
63.915444
 30
0.0
 10
298.884453
 20
63.915444
 30
0.0
 10
298.884453
 20
51.537109
 30
0.0
 10
295.884459
 20
51.537109
 30
0.0
 10
295.884459
 20
41.627110
 30
0.0
 10
298.884453
 20
41.627110
 30
0.0
 10
298.884453
 20
26.203776
 30
0.0
 10
295.884459
 20
26.203776
 30
0.0
 10
295.884459
 20
16.293777
 30
0.0
 10
298.884453
 20
16.293777
 30
0.0
 10
298.884453
 20
3.915440
 30
0.0
 10
288.429446
 20
3.915440
 30
0.0
 10
288.429446
 20
0.915446
 30
0.0
 10
278.339477
 20
0.915446
 30
0.0
 10
278.339477
 20
3.915440
 30
0.0
 10
267.929456
 20
3.915440
 30
0.0
 10
267.929456
 20
0.915446
 30
0.0
 10
257.839475
 20
0.915446
 30
0.0
 10
257.839475
 20
3.915440
 30
0.0
 10
247.429455
 20
3.915440
 30
0.0
 10
247.429455
 20
0.915446
 30
0.0
 10
237.339474
 20
0.915446
 30
0.0
 10
237.339474
 20
3.915440
 30
0.0
 10
226.929482
 20
3.915440
 30
0.0
 10
226.929482
 20
0.915446
 30
0.0
 10
216.839473
 20
0.915446
 30
0.0
 10
216.839473
 20
3.915440
 30
0.0
 10
206.429480
 20
3.915440
 30
0.0
 10
206.429480
 20
0.915446
 30
0.0
 10
196.339471
 20
0.915446
 30
0.0
 10
196.339471
 20
3.915440
 30
0.0
 10
185.884464
 20
3.915440
 30
0.0
 10
185.884464
 20
16.293777
 30
0.0
  0
LWPOLYLINE
  5
13a
100
AcDbEntity
  8
0
 62
7
100
AcDbPolyline
 90
54
 70
0
 10
221.967366
 20
203.897268
 30
0.0
 10
221.967366
 20
200.898657
 30
0.0
 10
209.681866
 20
200.898657
 30
0.0
 10
209.681866
 20
191.611782
 30
0.0
 10
206.683254
 20
191.611782
 30
0.0
 10
206.683254
 20
181.522337
 30
0.0
 10
209.681866
 20
181.522337
 30
0.0
 10
209.681866
 20
169.272129
 30
0.0
 10
206.683254
 20
169.272129
 30
0.0
 10
206.683254
 20
159.182685
 30
0.0
 10
209.681866
 20
159.182685
 30
0.0
 10
209.681866
 20
146.941296
 30
0.0
 10
206.683254
 20
146.941296
 30
0.0
 10
206.683254
 20
136.851849
 30
0.0
 10
209.681866
 20
136.851849
 30
0.0
 10
209.681866
 20
124.610460
 30
0.0
 10
206.683254
 20
124.610460
 30
0.0
 10
206.683254
 20
114.521015
 30
0.0
 10
209.681866
 20
114.521015
 30
0.0
 10
209.681866
 20
102.279626
 30
0.0
 10
206.683254
 20
102.279626
 30
0.0
 10
206.683254
 20
92.190182
 30
0.0
 10
209.681866
 20
92.190182
 30
0.0
 10
209.681866
 20
82.894490
 30
0.0
 10
221.967366
 20
82.894490
 30
0.0
 10
221.967366
 20
79.895879
 30
0.0
 10
232.056810
 20
79.895879
 30
0.0
 10
232.056810
 20
82.894490
 30
0.0
 10
247.305616
 20
82.894490
 30
0.0
 10
247.305616
 20
79.895879
 30
0.0
 10
257.395060
 20
79.895879
 30
0.0
 10
257.395060
 20
82.894490
 30
0.0
 10
269.680560
 20
82.894490
 30
0.0
 10
269.680560
 20
92.190182
 30
0.0
 10
272.679171
 20
92.190182
 30
0.0
 10
272.679171
 20
102.279626
 30
0.0
 10
272.679171
 20
114.521015
 30
0.0
 10
272.679171
 20
124.610460
 30
0.0
 10
272.679171
 20
136.851849
 30
0.0
 10
272.679171
 20
146.941296
 30
0.0
 10
272.679171
 20
159.182685
 30
0.0
 10
272.679171
 20
169.272129
 30
0.0
 10
272.679171
 20
181.522337
 30
0.0
 10
272.679171
 20
191.611782
 30
0.0
 10
269.680560
 20
191.611782
 30
0.0
 10
269.680560
 20
200.898657
 30
0.0
 10
257.395060
 20
200.898657
 30
0.0
 10
257.395060
 20
203.897268
 30
0.0
 10
247.305616
 20
203.897268
 30
0.0
 10
247.305616
 20
200.898657
 30
0.0
 10
232.056810
 20
200.898657
 30
0.0
 10
232.056810
 20
203.897268
 30
0.0
 10
221.967366
 20
203.897268
 30
0.0
 10
221.967366
 20
203.897268
 30
0.0
  0
LWPOLYLINE
  5
13b
100
AcDbEntity
  8
0
 62
7
100
AcDbPolyline
 90
94
 70
0
 10
-94.071767
 20
194.205551
 30
0.0
 10
-94.071767
 20
181.831870
 30
0.0
 10
-91.073156
 20
181.831870
 30
0.0
 10
-91.073156
 20
171.927634
 30
0.0
 10
-80.560378
 20
171.927634
 30
0.0
 10
-80.560378
 20
167.976523
 30
0.0
 10
-77.597045
 20
167.976523
 30
0.0
 10
-77.597045
 20
162.067495
 30
0.0
 10
-80.560378
 20
162.067495
 30
0.0
 10
-80.560378
 20
155.576384
 30
0.0
 10
-77.597045
 20
155.576384
 30
0.0
 10
-77.597045
 20
149.667356
 30
0.0
 10
-80.560378
 20
149.667356
 30
0.0
 10
-80.560378
 20
143.176245
 30
0.0
 10
-77.597045
 20
143.176245
 30
0.0
 10
-77.597045
 20
137.267218
 30
0.0
 10
-80.560378
 20
137.267218
 30
0.0
 10
-80.560378
 20
130.776106
 30
0.0
 10
-77.597045
 20
130.776106
 30
0.0
 10
-77.597045
 20
124.867079
 30
0.0
 10
-80.560378
 20
124.867079
 30
0.0
 10
-80.560378
 20
92.305690
 30
0.0
 10
-91.073156
 20
92.305690
 30
0.0
 10
-91.073156
 20
82.586662
 30
0.0
 10
-94.071767
 20
82.586662
 30
0.0
 10
-94.071767
 20
70.204162
 30
0.0
 10
-83.523712
 20
70.204162
 30
0.0
 10
-83.523712
 20
73.202773
 30
0.0
 10
-73.610656
 20
73.202773
 30
0.0
 10
-73.610656
 20
70.204162
 30
0.0
 10
-63.027323
 20
70.204162
 30
0.0
 10
-63.027323
 20
73.202773
 30
0.0
 10
-53.114267
 20
73.202773
 30
0.0
 10
-53.114267
 20
70.204162
 30
0.0
 10
-42.522129
 20
70.204162
 30
0.0
 10
-42.522129
 20
73.202773
 30
0.0
 10
-32.617878
 20
73.202773
 30
0.0
 10
-32.617878
 20
70.204162
 30
0.0
 10
-22.025739
 20
70.204162
 30
0.0
 10
-22.025739
 20
73.202773
 30
0.0
 10
-12.112683
 20
73.202773
 30
0.0
 10
-12.112683
 20
70.204162
 30
0.0
 10
-1.520545
 20
70.204162
 30
0.0
 10
-1.520545
 20
73.202773
 30
0.0
 10
8.383705
 20
73.202773
 30
0.0
 10
8.383705
 20
70.204162
 30
0.0
 10
18.931761
 20
70.204162
 30
0.0
 10
18.931761
 20
82.586662
 30
0.0
 10
15.933150
 20
82.586662
 30
0.0
 10
15.933150
 20
92.402704
 30
0.0
 10
5.517400
 20
92.402704
 30
0.0
 10
5.517400
 20
124.867079
 30
0.0
 10
2.659900
 20
124.867079
 30
0.0
 10
2.659900
 20
130.776106
 30
0.0
 10
5.517400
 20
130.776106
 30
0.0
 10
5.517400
 20
137.267218
 30
0.0
 10
2.659900
 20
137.267218
 30
0.0
 10
2.659900
 20
143.176245
 30
0.0
 10
5.517400
 20
143.176245
 30
0.0
 10
5.517400
 20
149.667356
 30
0.0
 10
2.659900
 20
149.667356
 30
0.0
 10
2.659900
 20
155.576384
 30
0.0
 10
5.517400
 20
155.576384
 30
0.0
 10
5.517400
 20
162.067495
 30
0.0
 10
2.659900
 20
162.067495
 30
0.0
 10
2.659900
 20
167.976523
 30
0.0
 10
5.517400
 20
167.976523
 30
0.0
 10
5.517400
 20
172.033468
 30
0.0
 10
15.933150
 20
172.033468
 30
0.0
 10
15.933150
 20
181.831870
 30
0.0
 10
18.931761
 20
181.831870
 30
0.0
 10
18.931761
 20
194.205551
 30
0.0
 10
8.383705
 20
194.205551
 30
0.0
 10
8.383705
 20
191.206940
 30
0.0
 10
-1.520545
 20
191.206940
 30
0.0
 10
-1.520545
 20
194.205551
 30
0.0
 10
-12.112683
 20
194.205551
 30
0.0
 10
-12.112683
 20
191.206940
 30
0.0
 10
-22.025739
 20
191.206940
 30
0.0
 10
-22.025739
 20
194.205551
 30
0.0
 10
-32.617878
 20
194.205551
 30
0.0
 10
-32.617878
 20
191.206940
 30
0.0
 10
-42.522129
 20
191.206940
 30
0.0
 10
-42.522129
 20
194.205551
 30
0.0
 10
-53.114267
 20
194.205551
 30
0.0
 10
-53.114267
 20
191.206940
 30
0.0
 10
-63.027323
 20
191.206940
 30
0.0
 10
-63.027323
 20
194.205551
 30
0.0
 10
-73.610656
 20
194.205551
 30
0.0
 10
-73.610656
 20
191.206940
 30
0.0
 10
-83.523712
 20
191.206940
 30
0.0
 10
-83.523712
 20
194.205551
 30
0.0
 10
-94.071767
 20
194.205551
 30
0.0
 10
-94.071767
 20
194.205551
 30
0.0
  0
LWPOLYLINE
  5
13c
100
AcDbEntity
  8
0
 62
7
100
AcDbPolyline
 90
6
 70
0
 10
-76.183112
 20
121.366634
 30
0.0
 10
-76.183112
 20
118.473856
 30
0.0
 10
-70.547473
 20
118.473856
 30
0.0
 10
-70.547473
 20
121.366634
 30
0.0
 10
-76.183112
 20
121.366634
 30
0.0
 10
-76.183112
 20
121.366634
 30
0.0
  0
LWPOLYLINE
  5
13d
100
AcDbEntity
  8
0
 62
7
100
AcDbPolyline
 90
6
 70
0
 10
-64.876584
 20
121.419551
 30
0.0
 10
-64.876584
 20
118.420940
 30
0.0
 10
-60.678528
 20
118.420940
 30
0.0
 10
-60.678528
 20
121.419551
 30
0.0
 10
-64.876584
 20
121.419551
 30
0.0
 10
-64.876584
 20
121.419551
 30
0.0
  0
LWPOLYLINE
  5
13e
100
AcDbEntity
  8
0
 62
7
100
AcDbPolyline
 90
6
 70
0
 10
-14.442456
 20
121.419551
 30
0.0
 10
-14.442456
 20
118.420940
 30
0.0
 10
-10.244401
 20
118.420940
 30
0.0
 10
-10.244401
 20
121.419551
 30
0.0
 10
-14.442456
 20
121.419551
 30
0.0
 10
-14.442456
 20
121.419551
 30
0.0
  0
LWPOLYLINE
  5
13f
100
AcDbEntity
  8
0
 62
7
100
AcDbPolyline
 90
6
 70
0
 10
-4.573512
 20
121.622398
 30
0.0
 10
-4.573512
 20
118.218092
 30
0.0
 10
0.956294
 20
118.218092
 30
0.0
 10
0.956294
 20
121.622398
 30
0.0
 10
-4.573512
 20
121.622398
 30
0.0
 10
-4.573512
 20
121.622398
 30
0.0
  0
SPLINE
  5
140
100
AcDbEntity
  8
0
 62
7
100
AcDbSpline
 70
8
 71
3
 72
8
 73
4
 74
0
 40
0
 40
0
 40
0
 40
0
 40
1
 40
1
 40
1
 40
1
 10
60.829492
 20
176.863796
 30
0.0
 10
60.829492
 20
172.528362
 30
0.0
 10
57.314948
 20
169.013798
 30
0.0
 10
52.979509
 20
169.013798
 30
0.0
  0
SPLINE
  5
141
100
AcDbEntity
  8
0
 62
7
100
AcDbSpline
 70
8
 71
3
 72
8
 73
4
 74
0
 40
0
 40
0
 40
0
 40
0
 40
1
 40
1
 40
1
 40
1
 10
52.979509
 20
169.013798
 30
0.0
 10
48.644069
 20
169.013798
 30
0.0
 10
45.129496
 20
172.528362
 30
0.0
 10
45.129496
 20
176.863796
 30
0.0
  0
SPLINE
  5
142
100
AcDbEntity
  8
0
 62
7
100
AcDbSpline
 70
8
 71
3
 72
8
 73
4
 74
0
 40
0
 40
0
 40
0
 40
0
 40
1
 40
1
 40
1
 40
1
 10
45.129496
 20
176.863796
 30
0.0
 10
45.129496
 20
181.199232
 30
0.0
 10
48.644069
 20
184.713796
 30
0.0
 10
52.979509
 20
184.713796
 30
0.0
  0
SPLINE
  5
143
100
AcDbEntity
  8
0
 62
7
100
AcDbSpline
 70
8
 71
3
 72
8
 73
4
 74
0
 40
0
 40
0
 40
0
 40
0
 40
1
 40
1
 40
1
 40
1
 10
52.979509
 20
184.713796
 30
0.0
 10
57.314948
 20
184.713796
 30
0.0
 10
60.829492
 20
181.199232
 30
0.0
 10
60.829492
 20
176.863796
 30
0.0
  0
LWPOLYLINE
  5
144
100
AcDbEntity
  8
0
 62
7
100
AcDbPolyline
 90
24
 70
0
 10
25.877476
 20
190.705047
 30
0.0
 10
25.877476
 20
173.489492
 30
0.0
 10
25.877476
 20
162.853242
 30
0.0
 10
32.633169
 20
162.853242
 30
0.0
 10
32.633169
 20
159.854630
 30
0.0
 10
42.149364
 20
159.854630
 30
0.0
 10
42.149364
 20
162.853242
 30
0.0
 10
51.691975
 20
162.853242
 30
0.0
 10
51.691975
 20
159.854630
 30
0.0
 10
61.208169
 20
159.854630
 30
0.0
 10
61.208169
 20
162.853242
 30
0.0
 10
70.750808
 20
162.853242
 30
0.0
 10
70.750808
 20
159.854630
 30
0.0
 10
80.275808
 20
159.854630
 30
0.0
 10
80.275808
 20
162.853242
 30
0.0
 10
89.809642
 20
162.853242
 30
0.0
 10
89.809642
 20
159.854630
 30
0.0
 10
99.334642
 20
159.854630
 30
0.0
 10
99.334642
 20
162.853242
 30
0.0
 10
106.081503
 20
162.853242
 30
0.0
 10
106.081503
 20
173.489492
 30
0.0
 10
106.081503
 20
190.705047
 30
0.0
 10
25.877476
 20
190.705047
 30
0.0
 10
25.877476
 20
190.705047
 30
0.0
  0
SPLINE
  5
145
100
AcDbEntity
  8
0
 62
7
100
AcDbSpline
 70
8
 71
3
 72
8
 73
4
 74
0
 40
0
 40
0
 40
0
 40
0
 40
1
 40
1
 40
1
 40
1
 10
86.829494
 20
176.863796
 30
0.0
 10
86.829494
 20
172.528362
 30
0.0
 10
83.314950
 20
169.013798
 30
0.0
 10
78.979510
 20
169.013798
 30
0.0
  0
SPLINE
  5
146
100
AcDbEntity
  8
0
 62
7
100
AcDbSpline
 70
8
 71
3
 72
8
 73
4
 74
0
 40
0
 40
0
 40
0
 40
0
 40
1
 40
1
 40
1
 40
1
 10
78.979510
 20
169.013798
 30
0.0
 10
74.644071
 20
169.013798
 30
0.0
 10
71.129498
 20
172.528362
 30
0.0
 10
71.129498
 20
176.863796
 30
0.0
  0
SPLINE
  5
147
100
AcDbEntity
  8
0
 62
7
100
AcDbSpline
 70
8
 71
3
 72
8
 73
4
 74
0
 40
0
 40
0
 40
0
 40
0
 40
1
 40
1
 40
1
 40
1
 10
71.129498
 20
176.863796
 30
0.0
 10
71.129498
 20
181.199232
 30
0.0
 10
74.644071
 20
184.713796
 30
0.0
 10
78.979510
 20
184.713796
 30
0.0
  0
SPLINE
  5
148
100
AcDbEntity
  8
0
 62
7
100
AcDbSpline
 70
8
 71
3
 72
8
 73
4
 74
0
 40
0
 40
0
 40
0
 40
0
 40
1
 40
1
 40
1
 40
1
 10
78.979510
 20
184.713796
 30
0.0
 10
83.314950
 20
184.713796
 30
0.0
 10
86.829494
 20
181.199232
 30
0.0
 10
86.829494
 20
176.863796
 30
0.0
  0
LWPOLYLINE
  5
149
100
AcDbEntity
  8
0
 62
7
100
AcDbPolyline
 90
2
 70
0
 10
60.829492
 20
176.863796
 30
0.0
 10
60.829492
 20
176.863796
 30
0.0
  0
SPLINE
  5
14a
100
AcDbEntity
  8
0
 62
7
100
AcDbSpline
 70
8
 71
3
 72
8
 73
4
 74
0
 40
0
 40
0
 40
0
 40
0
 40
1
 40
1
 40
1
 40
1
 10
93.697930
 20
86.526662
 30
0.0
 10
93.697930
 20
85.643007
 30
0.0
 10
92.981594
 20
84.926662
 30
0.0
 10
92.097928
 20
84.926662
 30
0.0
  0
SPLINE
  5
14b
100
AcDbEntity
  8
0
 62
7
100
AcDbSpline
 70
8
 71
3
 72
8
 73
4
 74
0
 40
0
 40
0
 40
0
 40
0
 40
1
 40
1
 40
1
 40
1
 10
92.097928
 20
84.926662
 30
0.0
 10
91.214262
 20
84.926662
 30
0.0
 10
90.497925
 20
85.643007
 30
0.0
 10
90.497925
 20
86.526662
 30
0.0
  0
SPLINE
  5
14c
100
AcDbEntity
  8
0
 62
7
100
AcDbSpline
 70
8
 71
3
 72
8
 73
4
 74
0
 40
0
 40
0
 40
0
 40
0
 40
1
 40
1
 40
1
 40
1
 10
90.497925
 20
86.526662
 30
0.0
 10
90.497925
 20
87.410320
 30
0.0
 10
91.214262
 20
88.126662
 30
0.0
 10
92.097928
 20
88.126662
 30
0.0
  0
SPLINE
  5
14d
100
AcDbEntity
  8
0
 62
7
100
AcDbSpline
 70
8
 71
3
 72
8
 73
4
 74
0
 40
0
 40
0
 40
0
 40
0
 40
1
 40
1
 40
1
 40
1
 10
92.097928
 20
88.126662
 30
0.0
 10
92.981594
 20
88.126662
 30
0.0
 10
93.697930
 20
87.410320
 30
0.0
 10
93.697930
 20
86.526662
 30
0.0
  0
LWPOLYLINE
  5
14e
100
AcDbEntity
  8
0
 62
7
100
AcDbPolyline
 90
2
 70
0
 10
86.829494
 20
176.863796
 30
0.0
 10
86.829494
 20
176.863796
 30
0.0
  0
SPLINE
  5
14f
100
AcDbEntity
  8
0
 62
7
100
AcDbSpline
 70
8
 71
3
 72
8
 73
4
 74
0
 40
0
 40
0
 40
0
 40
0
 40
1
 40
1
 40
1
 40
1
 10
45.467930
 20
86.526662
 30
0.0
 10
45.467930
 20
85.643007
 30
0.0
 10
44.751594
 20
84.926662
 30
0.0
 10
43.867928
 20
84.926662
 30
0.0
  0
SPLINE
  5
150
100
AcDbEntity
  8
0
 62
7
100
AcDbSpline
 70
8
 71
3
 72
8
 73
4
 74
0
 40
0
 40
0
 40
0
 40
0
 40
1
 40
1
 40
1
 40
1
 10
43.867928
 20
84.926662
 30
0.0
 10
42.984290
 20
84.926662
 30
0.0
 10
42.267926
 20
85.643007
 30
0.0
 10
42.267926
 20
86.526662
 30
0.0
  0
SPLINE
  5
151
100
AcDbEntity
  8
0
 62
7
100
AcDbSpline
 70
8
 71
3
 72
8
 73
4
 74
0
 40
0
 40
0
 40
0
 40
0
 40
1
 40
1
 40
1
 40
1
 10
42.267926
 20
86.526662
 30
0.0
 10
42.267926
 20
87.410320
 30
0.0
 10
42.984290
 20
88.126662
 30
0.0
 10
43.867928
 20
88.126662
 30
0.0
  0
SPLINE
  5
152
100
AcDbEntity
  8
0
 62
7
100
AcDbSpline
 70
8
 71
3
 72
8
 73
4
 74
0
 40
0
 40
0
 40
0
 40
0
 40
1
 40
1
 40
1
 40
1
 10
43.867928
 20
88.126662
 30
0.0
 10
44.751594
 20
88.126662
 30
0.0
 10
45.467930
 20
87.410320
 30
0.0
 10
45.467930
 20
86.526662
 30
0.0
  0
LWPOLYLINE
  5
153
100
AcDbEntity
  8
0
 62
7
100
AcDbPolyline
 90
2
 70
0
 10
93.697930
 20
86.526662
 30
0.0
 10
93.697930
 20
86.526662
 30
0.0
  0
SPLINE
  5
154
100
AcDbEntity
  8
0
 62
7
100
AcDbSpline
 70
8
 71
3
 72
8
 73
4
 74
0
 40
0
 40
0
 40
0
 40
0
 40
1
 40
1
 40
1
 40
1
 10
-46.120015
 20
165.669434
 30
0.0
 10
-46.120015
 20
164.868625
 30
0.0
 10
-46.769202
 20
164.219434
 30
0.0
 10
-47.570015
 20
164.219434
 30
0.0
  0
SPLINE
  5
155
100
AcDbEntity
  8
0
 62
7
100
AcDbSpline
 70
8
 71
3
 72
8
 73
4
 74
0
 40
0
 40
0
 40
0
 40
0
 40
1
 40
1
 40
1
 40
1
 10
-47.570015
 20
164.219434
 30
0.0
 10
-48.370827
 20
164.219434
 30
0.0
 10
-49.020015
 20
164.868625
 30
0.0
 10
-49.020015
 20
165.669434
 30
0.0
  0
SPLINE
  5
156
100
AcDbEntity
  8
0
 62
7
100
AcDbSpline
 70
8
 71
3
 72
8
 73
4
 74
0
 40
0
 40
0
 40
0
 40
0
 40
1
 40
1
 40
1
 40
1
 10
-49.020015
 20
165.669434
 30
0.0
 10
-49.020015
 20
166.470251
 30
0.0
 10
-48.370827
 20
167.119434
 30
0.0
 10
-47.570015
 20
167.119434
 30
0.0
  0
SPLINE
  5
157
100
AcDbEntity
  8
0
 62
7
100
AcDbSpline
 70
8
 71
3
 72
8
 73
4
 74
0
 40
0
 40
0
 40
0
 40
0
 40
1
 40
1
 40
1
 40
1
 10
-47.570015
 20
167.119434
 30
0.0
 10
-46.769202
 20
167.119434
 30
0.0
 10
-46.120015
 20
166.470251
 30
0.0
 10
-46.120015
 20
165.669434
 30
0.0
  0
LWPOLYLINE
  5
158
100
AcDbEntity
  8
0
 62
7
100
AcDbPolyline
 90
2
 70
0
 10
45.467930
 20
86.526662
 30
0.0
 10
45.467930
 20
86.526662
 30
0.0
  0
SPLINE
  5
159
100
AcDbEntity
  8
0
 62
7
100
AcDbSpline
 70
8
 71
3
 72
8
 73
4
 74
0
 40
0
 40
0
 40
0
 40
0
 40
1
 40
1
 40
1
 40
1
 10
-26.120015
 20
165.669434
 30
0.0
 10
-26.120015
 20
164.868625
 30
0.0
 10
-26.769202
 20
164.219434
 30
0.0
 10
-27.570015
 20
164.219434
 30
0.0
  0
SPLINE
  5
15a
100
AcDbEntity
  8
0
 62
7
100
AcDbSpline
 70
8
 71
3
 72
8
 73
4
 74
0
 40
0
 40
0
 40
0
 40
0
 40
1
 40
1
 40
1
 40
1
 10
-27.570015
 20
164.219434
 30
0.0
 10
-28.370828
 20
164.219434
 30
0.0
 10
-29.020015
 20
164.868625
 30
0.0
 10
-29.020015
 20
165.669434
 30
0.0
  0
SPLINE
  5
15b
100
AcDbEntity
  8
0
 62
7
100
AcDbSpline
 70
8
 71
3
 72
8
 73
4
 74
0
 40
0
 40
0
 40
0
 40
0
 40
1
 40
1
 40
1
 40
1
 10
-29.020015
 20
165.669434
 30
0.0
 10
-29.020015
 20
166.470251
 30
0.0
 10
-28.370828
 20
167.119434
 30
0.0
 10
-27.570015
 20
167.119434
 30
0.0
  0
SPLINE
  5
15c
100
AcDbEntity
  8
0
 62
7
100
AcDbSpline
 70
8
 71
3
 72
8
 73
4
 74
0
 40
0
 40
0
 40
0
 40
0
 40
1
 40
1
 40
1
 40
1
 10
-27.570015
 20
167.119434
 30
0.0
 10
-26.769202
 20
167.119434
 30
0.0
 10
-26.120015
 20
166.470251
 30
0.0
 10
-26.120015
 20
165.669434
 30
0.0
  0
LWPOLYLINE
  5
15d
100
AcDbEntity
  8
0
 62
7
100
AcDbPolyline
 90
2
 70
0
 10
-46.120015
 20
165.669434
 30
0.0
 10
-46.120015
 20
165.669434
 30
0.0
  0
SPLINE
  5
15e
100
AcDbEntity
  8
0
 62
7
100
AcDbSpline
 70
8
 71
3
 72
8
 73
4
 74
0
 40
0
 40
0
 40
0
 40
0
 40
1
 40
1
 40
1
 40
1
 10
-46.120015
 20
98.740273
 30
0.0
 10
-46.120015
 20
97.939464
 30
0.0
 10
-46.769202
 20
97.290273
 30
0.0
 10
-47.570015
 20
97.290273
 30
0.0
  0
SPLINE
  5
15f
100
AcDbEntity
  8
0
 62
7
100
AcDbSpline
 70
8
 71
3
 72
8
 73
4
 74
0
 40
0
 40
0
 40
0
 40
0
 40
1
 40
1
 40
1
 40
1
 10
-47.570015
 20
97.290273
 30
0.0
 10
-48.370827
 20
97.290273
 30
0.0
 10
-49.020015
 20
97.939464
 30
0.0
 10
-49.020015
 20
98.740273
 30
0.0
  0
SPLINE
  5
160
100
AcDbEntity
  8
0
 62
7
100
AcDbSpline
 70
8
 71
3
 72
8
 73
4
 74
0
 40
0
 40
0
 40
0
 40
0
 40
1
 40
1
 40
1
 40
1
 10
-49.020015
 20
98.740273
 30
0.0
 10
-49.020015
 20
99.541090
 30
0.0
 10
-48.370827
 20
100.190274
 30
0.0
 10
-47.570015
 20
100.190274
 30
0.0
  0
SPLINE
  5
161
100
AcDbEntity
  8
0
 62
7
100
AcDbSpline
 70
8
 71
3
 72
8
 73
4
 74
0
 40
0
 40
0
 40
0
 40
0
 40
1
 40
1
 40
1
 40
1
 10
-47.570015
 20
100.190274
 30
0.0
 10
-46.769202
 20
100.190274
 30
0.0
 10
-46.120015
 20
99.541090
 30
0.0
 10
-46.120015
 20
98.740273
 30
0.0
  0
LWPOLYLINE
  5
162
100
AcDbEntity
  8
0
 62
7
100
AcDbPolyline
 90
2
 70
0
 10
-26.120015
 20
165.669434
 30
0.0
 10
-26.120015
 20
165.669434
 30
0.0
  0
SPLINE
  5
163
100
AcDbEntity
  8
0
 62
7
100
AcDbSpline
 70
8
 71
3
 72
8
 73
4
 74
0
 40
0
 40
0
 40
0
 40
0
 40
1
 40
1
 40
1
 40
1
 10
-26.120015
 20
98.740273
 30
0.0
 10
-26.120015
 20
97.939464
 30
0.0
 10
-26.769202
 20
97.290273
 30
0.0
 10
-27.570015
 20
97.290273
 30
0.0
  0
SPLINE
  5
164
100
AcDbEntity
  8
0
 62
7
100
AcDbSpline
 70
8
 71
3
 72
8
 73
4
 74
0
 40
0
 40
0
 40
0
 40
0
 40
1
 40
1
 40
1
 40
1
 10
-27.570015
 20
97.290273
 30
0.0
 10
-28.370828
 20
97.290273
 30
0.0
 10
-29.020015
 20
97.939464
 30
0.0
 10
-29.020015
 20
98.740273
 30
0.0
  0
SPLINE
  5
165
100
AcDbEntity
  8
0
 62
7
100
AcDbSpline
 70
8
 71
3
 72
8
 73
4
 74
0
 40
0
 40
0
 40
0
 40
0
 40
1
 40
1
 40
1
 40
1
 10
-29.020015
 20
98.740273
 30
0.0
 10
-29.020015
 20
99.541090
 30
0.0
 10
-28.370828
 20
100.190274
 30
0.0
 10
-27.570015
 20
100.190274
 30
0.0
  0
SPLINE
  5
166
100
AcDbEntity
  8
0
 62
7
100
AcDbSpline
 70
8
 71
3
 72
8
 73
4
 74
0
 40
0
 40
0
 40
0
 40
0
 40
1
 40
1
 40
1
 40
1
 10
-27.570015
 20
100.190274
 30
0.0
 10
-26.769202
 20
100.190274
 30
0.0
 10
-26.120015
 20
99.541090
 30
0.0
 10
-26.120015
 20
98.740273
 30
0.0
  0
LWPOLYLINE
  5
167
100
AcDbEntity
  8
0
 62
7
100
AcDbPolyline
 90
2
 70
0
 10
-46.120015
 20
98.740273
 30
0.0
 10
-46.120015
 20
98.740273
 30
0.0
  0
LWPOLYLINE
  5
168
100
AcDbEntity
  8
0
 62
7
100
AcDbPolyline
 90
2
 70
0
 10
-26.120015
 20
98.740273
 30
0.0
 10
-26.120015
 20
98.740273
 30
0.0
  0
ENDSEC
  0
SECTION
  2
OBJECTS
  0
DICTIONARY
  5
C
330
0
100
AcDbDictionary
  3
ACAD_GROUP
350
D
  3
ACAD_MLINESTYLE
350
17
  0
DICTIONARY
  5
D
330
C
100
AcDbDictionary
  0
DICTIONARY
  5
1A
330
C
100
AcDbDictionary
  0
DICTIONARY
  5
17
330
C
100
AcDbDictionary
  3
STANDARD
350
18
  0
DICTIONARY
  5
19
330
C
100
AcDbDictionary
  0
ENDSEC
  0
EOF
