  0
SECTION
  2
HEADER
  9
$ACADVER
  1
AC1014
  9
$HANDSEED
  5
FFFF
  9
$MEASUREMENT
 70
     1
  0
ENDSEC
  0
SECTION
  2
TABLES
  0
TABLE
  2
VPORT
  5
8
330
0
100
AcDbSymbolTable
 70
     4
  0
VPORT
  5
2E
330
8
100
AcDbSymbolTableRecord
100
AcDbViewportTableRecord
  2
*ACTIVE
 70
     0
 10
0.0
 20
0.0
 11
1.0
 21
1.0
 12
210.0
 22
148.5
 13
0.0
 23
0.0
 14
10.0
 24
10.0
 15
10.0
 25
10.0
 16
0.0
 26
0.0
 36
1.0
 17
0.0
 27
0.0
 37
0.0
 40
341.0
 41
1.24
 42
50.0
 43
0.0
 44
0.0
 50
0.0
 51
0.0
 71
     0
 72
   100
 73
     1
 74
     3
 75
     0
 76
     0
 77
     0
 78
     0
  0
ENDTAB
  0
TABLE
  2
LTYPE
  5
5
330
0
100
AcDbSymbolTable
 70
     1
  0
LTYPE
  5
14
330
5
100
AcDbSymbolTableRecord
100
AcDbLinetypeTableRecord
  2
BYBLOCK
 70
     0
  3

 72
    65
 73
     0
 40
0.0
  0
LTYPE
  5
15
330
5
100
AcDbSymbolTableRecord
100
AcDbLinetypeTableRecord
  2
BYLAYER
 70
     0
  3

 72
    65
 73
     0
 40
0.0
  0
LTYPE
  5
16
330
5
100
AcDbSymbolTableRecord
100
AcDbLinetypeTableRecord
  2
CONTINUOUS
 70
     0
  3
Solid line
 72
    65
 73
     0
 40
0.0
  0
ENDTAB
  0
TABLE
  2
LAYER
  5
2
100
AcDbSymbolTable
 70
2
  0
LAYER
  5
50
100
AcDbSymbolTableRecord
100
AcDbLayerTableRecord
  2
0
 70
0
  6
CONTINUOUS
  0
LAYER
  5
51
100
AcDbSymbolTableRecord
100
AcDbLayerTableRecord
  2
newlayer
 70
0
  6
CONTINUOUS
  0
ENDTAB
  0
TABLE
  2
STYLE
  5
3
330
0
100
AcDbSymbolTable
 70
     1
  0
STYLE
  5
11
330
3
100
AcDbSymbolTableRecord
100
AcDbTextStyleTableRecord
  2
STANDARD
 70
     0
 40
0.0
 41
1.0
 50
0.0
 71
     0
 42
2.5
  3
txt
  4

  0
ENDTAB
  0
TABLE
  2
VIEW
  5
6
330
0
100
AcDbSymbolTable
 70
     0
  0
ENDTAB
  0
TABLE
  2
UCS
  5
7
330
0
100
AcDbSymbolTable
 70
     0
  0
ENDTAB
  0
TABLE
  2
APPID
  5
9
330
0
100
AcDbSymbolTable
 70
     2
  0
APPID
  5
12
330
9
100
AcDbSymbolTableRecord
100
AcDbRegAppTableRecord
  2
ACAD
 70
     0
  0
ENDTAB
  0
TABLE
  2
DIMSTYLE
  5
A
330
0
100
AcDbSymbolTable
 70
     1
  0
DIMSTYLE
105
27
330
A
100
AcDbSymbolTableRecord
100
AcDbDimStyleTableRecord
  2
ISO-25
 70
     0
  3

  4

  5

  6

  7

 40
1.0
 41
2.5
 42
0.625
 43
3.75
 44
1.25
 45
0.0
 46
0.0
 47
0.0
 48
0.0
140
2.5
141
2.5
142
0.0
143
0.03937007874016
144
1.0
145
0.0
146
1.0
147
0.625
 71
     0
 72
     0
 73
     0
 74
     0
 75
     0
 76
     0
 77
     1
 78
     8
170
     0
171
     3
172
     1
173
     0
174
     0
175
     0
176
     0
177
     0
178
     0
270
     2
271
     2
272
     2
273
     2
274
     3
340
11
275
     0
280
     0
281
     0
282
     0
283
     0
284
     8
285
     0
286
     0
287
     3
288
     0
  0
ENDTAB
  0
TABLE
  2
BLOCK_RECORD
  5
1
330
0
100
AcDbSymbolTable
 70
     1
  0
BLOCK_RECORD
  5
1F
330
1
100
AcDbSymbolTableRecord
100
AcDbBlockTableRecord
  2
*MODEL_SPACE
  0
BLOCK_RECORD
  5
1B
330
1
100
AcDbSymbolTableRecord
100
AcDbBlockTableRecord
  2
*PAPER_SPACE
  0
ENDTAB
  0
ENDSEC
  0
SECTION
  2
BLOCKS
  0
BLOCK
  5
20
330
1F
100
AcDbEntity
  8
0
100
AcDbBlockBegin
  2
*MODEL_SPACE
 70
     0
 10
0.0
 20
0.0
 30
0.0
  3
*MODEL_SPACE
  1

  0
ENDBLK
  5
21
330
1F
100
AcDbEntity
  8
0
100
AcDbBlockEnd
  0
BLOCK
  5
1C
330
1B
100
AcDbEntity
 67
     1
  8
0
100
AcDbBlockBegin
  2
*PAPER_SPACE
  1

  0
ENDBLK
  5
1D
330
1B
100
AcDbEntity
 67
     1
  8
0
100
AcDbBlockEnd
  0
ENDSEC
  0
SECTION
  2
ENTITIES
  0
LWPOLYLINE
  5
100
100
AcDbEntity
  8
newlayer
 62
7
100
AcDbPolyline
 90
42
 70
0
 10
100.735694
 20
171.261181
 30
0.0
 10
100.735694
 20
168.262569
 30
0.0
 10
97.366667
 20
168.262569
 30
0.0
 10
97.366667
 20
159.963472
 30
0.0
 10
97.375486
 20
159.963472
 30
0.0
 10
97.375486
 20
154.054444
 30
0.0
 10
97.366667
 20
154.054444
 30
0.0
 10
97.366667
 20
145.755347
 30
0.0
 10
100.735694
 20
145.755347
 30
0.0
 10
100.735694
 20
142.756736
 30
0.0
 10
106.821111
 20
142.756736
 30
0.0
 10
106.821111
 20
145.755347
 30
0.0
 10
113.135833
 20
145.755347
 30
0.0
 10
113.135833
 20
142.756736
 30
0.0
 10
119.221250
 20
142.756736
 30
0.0
 10
119.221250
 20
145.755347
 30
0.0
 10
125.535972
 20
145.755347
 30
0.0
 10
125.535972
 20
142.756736
 30
0.0
 10
131.621389
 20
142.756736
 30
0.0
 10
131.621389
 20
145.755347
 30
0.0
 10
137.936111
 20
145.755347
 30
0.0
 10
137.936111
 20
142.756736
 30
0.0
 10
144.021528
 20
142.756736
 30
0.0
 10
144.021528
 20
145.755347
 30
0.0
 10
147.364097
 20
145.755347
 30
0.0
 10
147.364097
 20
168.262569
 30
0.0
 10
144.021528
 20
168.262569
 30
0.0
 10
144.021528
 20
171.261181
 30
0.0
 10
137.936111
 20
171.261181
 30
0.0
 10
137.936111
 20
168.262569
 30
0.0
 10
131.621389
 20
168.262569
 30
0.0
 10
131.621389
 20
171.261181
 30
0.0
 10
125.535972
 20
171.261181
 30
0.0
 10
125.535972
 20
168.262569
 30
0.0
 10
119.221250
 20
168.262569
 30
0.0
 10
119.221250
 20
171.261181
 30
0.0
 10
113.135833
 20
171.261181
 30
0.0
 10
113.135833
 20
168.262569
 30
0.0
 10
106.821111
 20
168.262569
 30
0.0
 10
106.821111
 20
171.261181
 30
0.0
 10
100.735694
 20
171.261181
 30
0.0
 10
100.735694
 20
171.261181
 30
0.0
  0
SPLINE
  5
101
100
AcDbEntity
  8
newlayer
 62
7
100
AcDbSpline
 70
8
 71
3
 72
8
 73
4
 74
0
 40
0
 40
0
 40
0
 40
0
 40
1
 40
1
 40
1
 40
1
 10
111.885386
 20
157.008965
 30
0.0
 10
111.885728
 20
155.722581
 30
0.0
 10
111.199647
 20
154.533767
 30
0.0
 10
110.085662
 20
153.890476
 30
0.0
  0
SPLINE
  5
102
100
AcDbEntity
  8
newlayer
 62
7
100
AcDbSpline
 70
8
 71
3
 72
8
 73
4
 74
0
 40
0
 40
0
 40
0
 40
0
 40
1
 40
1
 40
1
 40
1
 10
110.085662
 20
153.890476
 30
0.0
 10
108.971678
 20
153.247185
 30
0.0
 10
107.599094
 20
153.247185
 30
0.0
 10
106.485110
 20
153.890476
 30
0.0
  0
SPLINE
  5
103
100
AcDbEntity
  8
newlayer
 62
7
100
AcDbSpline
 70
8
 71
3
 72
8
 73
4
 74
0
 40
0
 40
0
 40
0
 40
0
 40
1
 40
1
 40
1
 40
1
 10
106.485110
 20
153.890476
 30
0.0
 10
105.371125
 20
154.533767
 30
0.0
 10
104.685044
 20
155.722581
 30
0.0
 10
104.685386
 20
157.008965
 30
0.0
  0
SPLINE
  5
104
100
AcDbEntity
  8
newlayer
 62
7
100
AcDbSpline
 70
8
 71
3
 72
8
 73
4
 74
0
 40
0
 40
0
 40
0
 40
0
 40
1
 40
1
 40
1
 40
1
 10
104.685386
 20
157.008965
 30
0.0
 10
104.685044
 20
158.295350
 30
0.0
 10
105.371125
 20
159.484164
 30
0.0
 10
106.485110
 20
160.127455
 30
0.0
  0
SPLINE
  5
105
100
AcDbEntity
  8
newlayer
 62
7
100
AcDbSpline
 70
8
 71
3
 72
8
 73
4
 74
0
 40
0
 40
0
 40
0
 40
0
 40
1
 40
1
 40
1
 40
1
 10
106.485110
 20
160.127455
 30
0.0
 10
107.599094
 20
160.770746
 30
0.0
 10
108.971678
 20
160.770746
 30
0.0
 10
110.085662
 20
160.127455
 30
0.0
  0
SPLINE
  5
106
100
AcDbEntity
  8
newlayer
 62
7
100
AcDbSpline
 70
8
 71
3
 72
8
 73
4
 74
0
 40
0
 40
0
 40
0
 40
0
 40
1
 40
1
 40
1
 40
1
 10
110.085662
 20
160.127455
 30
0.0
 10
111.199647
 20
159.484164
 30
0.0
 10
111.885728
 20
158.295350
 30
0.0
 10
111.885386
 20
157.008965
 30
0.0
  0
LWPOLYLINE
  5
107
100
AcDbEntity
  8
newlayer
 62
7
100
AcDbPolyline
 90
62
 70
0
 10
97.366667
 20
256.077778
 30
0.0
 10
97.366667
 20
249.771875
 30
0.0
 10
97.375486
 20
249.771875
 30
0.0
 10
97.375486
 20
243.862847
 30
0.0
 10
97.366667
 20
243.862847
 30
0.0
 10
97.366667
 20
237.512847
 30
0.0
 10
97.375486
 20
237.512847
 30
0.0
 10
97.375486
 20
231.603819
 30
0.0
 10
97.366667
 20
231.603819
 30
0.0
 10
97.366667
 20
225.253819
 30
0.0
 10
97.375486
 20
225.253819
 30
0.0
 10
97.375486
 20
219.344792
 30
0.0
 10
97.366667
 20
219.344792
 30
0.0
 10
97.366667
 20
212.994792
 30
0.0
 10
97.375486
 20
212.994792
 30
0.0
 10
97.375486
 20
207.085764
 30
0.0
 10
97.366667
 20
207.085764
 30
0.0
 10
97.366667
 20
200.735764
 30
0.0
 10
97.375486
 20
200.735764
 30
0.0
 10
97.375486
 20
194.826736
 30
0.0
 10
97.366667
 20
194.826736
 30
0.0
 10
97.366667
 20
188.476736
 30
0.0
 10
97.375486
 20
188.476736
 30
0.0
 10
97.375486
 20
182.567708
 30
0.0
 10
97.366667
 20
182.567708
 30
0.0
 10
97.366667
 20
176.261806
 30
0.0
 10
100.823889
 20
176.261806
 30
0.0
 10
100.823889
 20
179.260417
 30
0.0
 10
106.732917
 20
179.260417
 30
0.0
 10
106.732917
 20
176.261806
 30
0.0
 10
113.224028
 20
176.261806
 30
0.0
 10
113.224028
 20
179.260417
 30
0.0
 10
119.133056
 20
179.260417
 30
0.0
 10
119.133056
 20
176.261806
 30
0.0
 10
125.624167
 20
176.261806
 30
0.0
 10
125.624167
 20
179.260417
 30
0.0
 10
131.533194
 20
179.260417
 30
0.0
 10
131.533194
 20
176.261806
 30
0.0
 10
138.024306
 20
176.261806
 30
0.0
 10
138.024306
 20
179.260417
 30
0.0
 10
143.933333
 20
179.260417
 30
0.0
 10
143.933333
 20
176.261806
 30
0.0
 10
147.364097
 20
176.261806
 30
0.0
 10
147.364097
 20
256.077778
 30
0.0
 10
143.933333
 20
256.077778
 30
0.0
 10
143.933333
 20
253.079167
 30
0.0
 10
138.024306
 20
253.079167
 30
0.0
 10
138.024306
 20
256.077778
 30
0.0
 10
131.533194
 20
256.077778
 30
0.0
 10
131.533194
 20
253.079167
 30
0.0
 10
125.624167
 20
253.079167
 30
0.0
 10
125.624167
 20
256.077778
 30
0.0
 10
119.133056
 20
256.077778
 30
0.0
 10
119.133056
 20
253.079167
 30
0.0
 10
113.224028
 20
253.079167
 30
0.0
 10
113.224028
 20
256.077778
 30
0.0
 10
106.732917
 20
256.077778
 30
0.0
 10
106.732917
 20
253.079167
 30
0.0
 10
100.823889
 20
253.079167
 30
0.0
 10
100.823889
 20
256.077778
 30
0.0
 10
97.366667
 20
256.077778
 30
0.0
 10
97.366667
 20
256.077778
 30
0.0
  0
SPLINE
  5
108
100
AcDbEntity
  8
newlayer
 62
7
100
AcDbSpline
 70
8
 71
3
 72
8
 73
4
 74
0
 40
0
 40
0
 40
0
 40
0
 40
1
 40
1
 40
1
 40
1
 10
121.715386
 20
157.008966
 30
0.0
 10
121.715576
 20
156.294308
 30
0.0
 10
121.334419
 20
155.633855
 30
0.0
 10
120.715539
 20
155.276472
 30
0.0
  0
SPLINE
  5
109
100
AcDbEntity
  8
newlayer
 62
7
100
AcDbSpline
 70
8
 71
3
 72
8
 73
4
 74
0
 40
0
 40
0
 40
0
 40
0
 40
1
 40
1
 40
1
 40
1
 10
120.715539
 20
155.276472
 30
0.0
 10
120.096659
 20
154.919088
 30
0.0
 10
119.334112
 20
154.919088
 30
0.0
 10
118.715232
 20
155.276472
 30
0.0
  0
SPLINE
  5
10a
100
AcDbEntity
  8
newlayer
 62
7
100
AcDbSpline
 70
8
 71
3
 72
8
 73
4
 74
0
 40
0
 40
0
 40
0
 40
0
 40
1
 40
1
 40
1
 40
1
 10
118.715232
 20
155.276472
 30
0.0
 10
118.096352
 20
155.633855
 30
0.0
 10
117.715195
 20
156.294308
 30
0.0
 10
117.715385
 20
157.008966
 30
0.0
  0
SPLINE
  5
10b
100
AcDbEntity
  8
newlayer
 62
7
100
AcDbSpline
 70
8
 71
3
 72
8
 73
4
 74
0
 40
0
 40
0
 40
0
 40
0
 40
1
 40
1
 40
1
 40
1
 10
117.715385
 20
157.008966
 30
0.0
 10
117.715195
 20
157.723624
 30
0.0
 10
118.096352
 20
158.384076
 30
0.0
 10
118.715232
 20
158.741460
 30
0.0
  0
SPLINE
  5
10c
100
AcDbEntity
  8
newlayer
 62
7
100
AcDbSpline
 70
8
 71
3
 72
8
 73
4
 74
0
 40
0
 40
0
 40
0
 40
0
 40
1
 40
1
 40
1
 40
1
 10
118.715232
 20
158.741460
 30
0.0
 10
119.334112
 20
159.098844
 30
0.0
 10
120.096659
 20
159.098844
 30
0.0
 10
120.715539
 20
158.741460
 30
0.0
  0
SPLINE
  5
10d
100
AcDbEntity
  8
newlayer
 62
7
100
AcDbSpline
 70
8
 71
3
 72
8
 73
4
 74
0
 40
0
 40
0
 40
0
 40
0
 40
1
 40
1
 40
1
 40
1
 10
120.715539
 20
158.741460
 30
0.0
 10
121.334419
 20
158.384076
 30
0.0
 10
121.715576
 20
157.723624
 30
0.0
 10
121.715386
 20
157.008966
 30
0.0
  0
LWPOLYLINE
  5
10e
100
AcDbEntity
  8
newlayer
 62
7
100
AcDbPolyline
 90
2
 70
0
 10
111.885386
 20
157.008965
 30
0.0
 10
111.885386
 20
157.008965
 30
0.0
  0
LWPOLYLINE
  5
10f
100
AcDbEntity
  8
newlayer
 62
7
100
AcDbPolyline
 90
2
 70
0
 10
121.715386
 20
157.008966
 30
0.0
 10
121.715386
 20
157.008966
 30
0.0
  0
SPLINE
  5
110
100
AcDbEntity
  8
newlayer
 62
7
100
AcDbSpline
 70
8
 71
3
 72
8
 73
4
 74
0
 40
0
 40
0
 40
0
 40
0
 40
1
 40
1
 40
1
 40
1
 10
129.805386
 20
148.298961
 30
0.0
 10
129.805885
 20
147.844902
 30
0.0
 10
129.563934
 20
147.425120
 30
0.0
 10
129.170789
 20
147.197946
 30
0.0
  0
SPLINE
  5
111
100
AcDbEntity
  8
newlayer
 62
7
100
AcDbSpline
 70
8
 71
3
 72
8
 73
4
 74
0
 40
0
 40
0
 40
0
 40
0
 40
1
 40
1
 40
1
 40
1
 10
129.170789
 20
147.197946
 30
0.0
 10
128.777645
 20
146.970772
 30
0.0
 10
128.293128
 20
146.970772
 30
0.0
 10
127.899984
 20
147.197946
 30
0.0
  0
SPLINE
  5
112
100
AcDbEntity
  8
newlayer
 62
7
100
AcDbSpline
 70
8
 71
3
 72
8
 73
4
 74
0
 40
0
 40
0
 40
0
 40
0
 40
1
 40
1
 40
1
 40
1
 10
127.899984
 20
147.197946
 30
0.0
 10
127.506839
 20
147.425120
 30
0.0
 10
127.264888
 20
147.844902
 30
0.0
 10
127.265387
 20
148.298961
 30
0.0
  0
SPLINE
  5
113
100
AcDbEntity
  8
newlayer
 62
7
100
AcDbSpline
 70
8
 71
3
 72
8
 73
4
 74
0
 40
0
 40
0
 40
0
 40
0
 40
1
 40
1
 40
1
 40
1
 10
127.265387
 20
148.298961
 30
0.0
 10
127.264888
 20
148.753021
 30
0.0
 10
127.506839
 20
149.172803
 30
0.0
 10
127.899984
 20
149.399977
 30
0.0
  0
SPLINE
  5
114
100
AcDbEntity
  8
newlayer
 62
7
100
AcDbSpline
 70
8
 71
3
 72
8
 73
4
 74
0
 40
0
 40
0
 40
0
 40
0
 40
1
 40
1
 40
1
 40
1
 10
127.899984
 20
149.399977
 30
0.0
 10
128.293128
 20
149.627151
 30
0.0
 10
128.777645
 20
149.627151
 30
0.0
 10
129.170789
 20
149.399977
 30
0.0
  0
SPLINE
  5
115
100
AcDbEntity
  8
newlayer
 62
7
100
AcDbSpline
 70
8
 71
3
 72
8
 73
4
 74
0
 40
0
 40
0
 40
0
 40
0
 40
1
 40
1
 40
1
 40
1
 10
129.170789
 20
149.399977
 30
0.0
 10
129.563934
 20
149.172803
 30
0.0
 10
129.805885
 20
148.753021
 30
0.0
 10
129.805386
 20
148.298961
 30
0.0
  0
LWPOLYLINE
  5
116
100
AcDbEntity
  8
newlayer
 62
7
100
AcDbPolyline
 90
5
 70
0
 10
138.465391
 20
159.494173
 30
0.0
 10
140.965391
 20
159.494173
 30
0.0
 10
140.965391
 20
154.094173
 30
0.0
 10
138.465391
 20
154.094173
 30
0.0
 10
138.465391
 20
159.494173
 30
0.0
  0
SPLINE
  5
117
100
AcDbEntity
  8
newlayer
 62
7
100
AcDbSpline
 70
8
 71
3
 72
8
 73
4
 74
0
 40
0
 40
0
 40
0
 40
0
 40
1
 40
1
 40
1
 40
1
 10
129.805386
 20
165.718961
 30
0.0
 10
129.805885
 20
165.264902
 30
0.0
 10
129.563934
 20
164.845120
 30
0.0
 10
129.170789
 20
164.617946
 30
0.0
  0
SPLINE
  5
118
100
AcDbEntity
  8
newlayer
 62
7
100
AcDbSpline
 70
8
 71
3
 72
8
 73
4
 74
0
 40
0
 40
0
 40
0
 40
0
 40
1
 40
1
 40
1
 40
1
 10
129.170789
 20
164.617946
 30
0.0
 10
128.777645
 20
164.390772
 30
0.0
 10
128.293128
 20
164.390772
 30
0.0
 10
127.899984
 20
164.617946
 30
0.0
  0
SPLINE
  5
119
100
AcDbEntity
  8
newlayer
 62
7
100
AcDbSpline
 70
8
 71
3
 72
8
 73
4
 74
0
 40
0
 40
0
 40
0
 40
0
 40
1
 40
1
 40
1
 40
1
 10
127.899984
 20
164.617946
 30
0.0
 10
127.506839
 20
164.845120
 30
0.0
 10
127.264888
 20
165.264902
 30
0.0
 10
127.265387
 20
165.718961
 30
0.0
  0
SPLINE
  5
11a
100
AcDbEntity
  8
newlayer
 62
7
100
AcDbSpline
 70
8
 71
3
 72
8
 73
4
 74
0
 40
0
 40
0
 40
0
 40
0
 40
1
 40
1
 40
1
 40
1
 10
127.265387
 20
165.718961
 30
0.0
 10
127.264888
 20
166.173021
 30
0.0
 10
127.506839
 20
166.592803
 30
0.0
 10
127.899984
 20
166.819977
 30
0.0
  0
SPLINE
  5
11b
100
AcDbEntity
  8
newlayer
 62
7
100
AcDbSpline
 70
8
 71
3
 72
8
 73
4
 74
0
 40
0
 40
0
 40
0
 40
0
 40
1
 40
1
 40
1
 40
1
 10
127.899984
 20
166.819977
 30
0.0
 10
128.293128
 20
167.047151
 30
0.0
 10
128.777645
 20
167.047151
 30
0.0
 10
129.170789
 20
166.819977
 30
0.0
  0
SPLINE
  5
11c
100
AcDbEntity
  8
newlayer
 62
7
100
AcDbSpline
 70
8
 71
3
 72
8
 73
4
 74
0
 40
0
 40
0
 40
0
 40
0
 40
1
 40
1
 40
1
 40
1
 10
129.170789
 20
166.819977
 30
0.0
 10
129.563934
 20
166.592803
 30
0.0
 10
129.805885
 20
166.173021
 30
0.0
 10
129.805386
 20
165.718961
 30
0.0
  0
LWPOLYLINE
  5
11d
100
AcDbEntity
  8
newlayer
 62
7
100
AcDbPolyline
 90
2
 70
0
 10
129.805386
 20
148.298961
 30
0.0
 10
129.805386
 20
148.298961
 30
0.0
  0
SPLINE
  5
11e
100
AcDbEntity
  8
newlayer
 62
7
100
AcDbSpline
 70
8
 71
3
 72
8
 73
4
 74
0
 40
0
 40
0
 40
0
 40
0
 40
1
 40
1
 40
1
 40
1
 10
111.885389
 20
157.008960
 30
0.0
 10
111.885731
 20
155.722576
 30
0.0
 10
111.199650
 20
154.533761
 30
0.0
 10
110.085665
 20
153.890470
 30
0.0
  0
SPLINE
  5
11f
100
AcDbEntity
  8
newlayer
 62
7
100
AcDbSpline
 70
8
 71
3
 72
8
 73
4
 74
0
 40
0
 40
0
 40
0
 40
0
 40
1
 40
1
 40
1
 40
1
 10
110.085665
 20
153.890470
 30
0.0
 10
108.971681
 20
153.247180
 30
0.0
 10
107.599097
 20
153.247180
 30
0.0
 10
106.485112
 20
153.890470
 30
0.0
  0
SPLINE
  5
120
100
AcDbEntity
  8
newlayer
 62
7
100
AcDbSpline
 70
8
 71
3
 72
8
 73
4
 74
0
 40
0
 40
0
 40
0
 40
0
 40
1
 40
1
 40
1
 40
1
 10
106.485112
 20
153.890470
 30
0.0
 10
105.371128
 20
154.533761
 30
0.0
 10
104.685047
 20
155.722576
 30
0.0
 10
104.685389
 20
157.008960
 30
0.0
  0
SPLINE
  5
121
100
AcDbEntity
  8
newlayer
 62
7
100
AcDbSpline
 70
8
 71
3
 72
8
 73
4
 74
0
 40
0
 40
0
 40
0
 40
0
 40
1
 40
1
 40
1
 40
1
 10
104.685389
 20
157.008960
 30
0.0
 10
104.685047
 20
158.295344
 30
0.0
 10
105.371128
 20
159.484158
 30
0.0
 10
106.485112
 20
160.127449
 30
0.0
  0
SPLINE
  5
122
100
AcDbEntity
  8
newlayer
 62
7
100
AcDbSpline
 70
8
 71
3
 72
8
 73
4
 74
0
 40
0
 40
0
 40
0
 40
0
 40
1
 40
1
 40
1
 40
1
 10
106.485112
 20
160.127449
 30
0.0
 10
107.599097
 20
160.770740
 30
0.0
 10
108.971681
 20
160.770740
 30
0.0
 10
110.085665
 20
160.127449
 30
0.0
  0
SPLINE
  5
123
100
AcDbEntity
  8
newlayer
 62
7
100
AcDbSpline
 70
8
 71
3
 72
8
 73
4
 74
0
 40
0
 40
0
 40
0
 40
0
 40
1
 40
1
 40
1
 40
1
 10
110.085665
 20
160.127449
 30
0.0
 10
111.199650
 20
159.484158
 30
0.0
 10
111.885731
 20
158.295344
 30
0.0
 10
111.885389
 20
157.008960
 30
0.0
  0
LWPOLYLINE
  5
124
100
AcDbEntity
  8
newlayer
 62
7
100
AcDbPolyline
 90
2
 70
0
 10
129.805386
 20
165.718961
 30
0.0
 10
129.805386
 20
165.718961
 30
0.0
  0
SPLINE
  5
125
100
AcDbEntity
  8
newlayer
 62
7
100
AcDbSpline
 70
8
 71
3
 72
8
 73
4
 74
0
 40
0
 40
0
 40
0
 40
0
 40
1
 40
1
 40
1
 40
1
 10
121.715388
 20
157.008960
 30
0.0
 10
121.715578
 20
156.294302
 30
0.0
 10
121.334422
 20
155.633850
 30
0.0
 10
120.715542
 20
155.276466
 30
0.0
  0
SPLINE
  5
126
100
AcDbEntity
  8
newlayer
 62
7
100
AcDbSpline
 70
8
 71
3
 72
8
 73
4
 74
0
 40
0
 40
0
 40
0
 40
0
 40
1
 40
1
 40
1
 40
1
 10
120.715542
 20
155.276466
 30
0.0
 10
120.096662
 20
154.919082
 30
0.0
 10
119.334115
 20
154.919082
 30
0.0
 10
118.715235
 20
155.276466
 30
0.0
  0
SPLINE
  5
127
100
AcDbEntity
  8
newlayer
 62
7
100
AcDbSpline
 70
8
 71
3
 72
8
 73
4
 74
0
 40
0
 40
0
 40
0
 40
0
 40
1
 40
1
 40
1
 40
1
 10
118.715235
 20
155.276466
 30
0.0
 10
118.096354
 20
155.633850
 30
0.0
 10
117.715198
 20
156.294302
 30
0.0
 10
117.715388
 20
157.008960
 30
0.0
  0
SPLINE
  5
128
100
AcDbEntity
  8
newlayer
 62
7
100
AcDbSpline
 70
8
 71
3
 72
8
 73
4
 74
0
 40
0
 40
0
 40
0
 40
0
 40
1
 40
1
 40
1
 40
1
 10
117.715388
 20
157.008960
 30
0.0
 10
117.715198
 20
157.723618
 30
0.0
 10
118.096354
 20
158.384070
 30
0.0
 10
118.715235
 20
158.741454
 30
0.0
  0
SPLINE
  5
129
100
AcDbEntity
  8
newlayer
 62
7
100
AcDbSpline
 70
8
 71
3
 72
8
 73
4
 74
0
 40
0
 40
0
 40
0
 40
0
 40
1
 40
1
 40
1
 40
1
 10
118.715235
 20
158.741454
 30
0.0
 10
119.334115
 20
159.098838
 30
0.0
 10
120.096662
 20
159.098838
 30
0.0
 10
120.715542
 20
158.741454
 30
0.0
  0
SPLINE
  5
12a
100
AcDbEntity
  8
newlayer
 62
7
100
AcDbSpline
 70
8
 71
3
 72
8
 73
4
 74
0
 40
0
 40
0
 40
0
 40
0
 40
1
 40
1
 40
1
 40
1
 10
120.715542
 20
158.741454
 30
0.0
 10
121.334422
 20
158.384070
 30
0.0
 10
121.715578
 20
157.723618
 30
0.0
 10
121.715388
 20
157.008960
 30
0.0
  0
LWPOLYLINE
  5
12b
100
AcDbEntity
  8
newlayer
 62
7
100
AcDbPolyline
 90
2
 70
0
 10
111.885389
 20
157.008960
 30
0.0
 10
111.885389
 20
157.008960
 30
0.0
  0
LWPOLYLINE
  5
12c
100
AcDbEntity
  8
newlayer
 62
7
100
AcDbPolyline
 90
2
 70
0
 10
121.715388
 20
157.008960
 30
0.0
 10
121.715388
 20
157.008960
 30
0.0
  0
LWPOLYLINE
  5
12d
100
AcDbEntity
  8
newlayer
 62
7
100
AcDbPolyline
 90
46
 70
0
 10
40.313681
 20
129.412917
 30
0.0
 10
40.313681
 20
126.396667
 30
0.0
 10
28.460347
 20
126.396667
 30
0.0
 10
28.460347
 20
52.613194
 30
0.0
 10
40.313681
 20
52.613194
 30
0.0
 10
40.313681
 20
49.596944
 30
0.0
 10
43.770903
 20
49.596944
 30
0.0
 10
43.770903
 20
52.595556
 30
0.0
 10
49.679931
 20
52.595556
 30
0.0
 10
49.679931
 20
49.596944
 30
0.0
 10
56.171042
 20
49.596944
 30
0.0
 10
56.171042
 20
52.595556
 30
0.0
 10
62.080069
 20
52.595556
 30
0.0
 10
62.080069
 20
49.596944
 30
0.0
 10
68.571181
 20
49.596944
 30
0.0
 10
68.571181
 20
52.595556
 30
0.0
 10
74.480208
 20
52.595556
 30
0.0
 10
74.480208
 20
49.596944
 30
0.0
 10
80.971319
 20
49.596944
 30
0.0
 10
80.971319
 20
52.595556
 30
0.0
 10
86.880347
 20
52.595556
 30
0.0
 10
86.880347
 20
49.596944
 30
0.0
 10
90.311111
 20
49.596944
 30
0.0
 10
90.311111
 20
52.613194
 30
0.0
 10
102.164444
 20
52.613194
 30
0.0
 10
102.164444
 20
126.396667
 30
0.0
 10
90.311111
 20
126.396667
 30
0.0
 10
90.311111
 20
129.412917
 30
0.0
 10
86.880347
 20
129.412917
 30
0.0
 10
86.880347
 20
126.414306
 30
0.0
 10
80.971319
 20
126.414306
 30
0.0
 10
80.971319
 20
129.412917
 30
0.0
 10
74.480208
 20
129.412917
 30
0.0
 10
74.480208
 20
126.414306
 30
0.0
 10
68.571181
 20
126.414306
 30
0.0
 10
68.571181
 20
129.412917
 30
0.0
 10
62.080069
 20
129.412917
 30
0.0
 10
62.080069
 20
126.414306
 30
0.0
 10
56.171042
 20
126.414306
 30
0.0
 10
56.171042
 20
129.412917
 30
0.0
 10
49.679931
 20
129.412917
 30
0.0
 10
49.679931
 20
126.414306
 30
0.0
 10
43.770903
 20
126.414306
 30
0.0
 10
43.770903
 20
129.412917
 30
0.0
 10
40.313681
 20
129.412917
 30
0.0
 10
40.313681
 20
129.412917
 30
0.0
  0
ENDSEC
  0
SECTION
  2
OBJECTS
  0
DICTIONARY
  5
C
330
0
100
AcDbDictionary
  3
ACAD_GROUP
350
D
  3
ACAD_MLINESTYLE
350
17
  0
DICTIONARY
  5
D
330
C
100
AcDbDictionary
  0
DICTIONARY
  5
1A
330
C
100
AcDbDictionary
  0
DICTIONARY
  5
17
330
C
100
AcDbDictionary
  3
STANDARD
350
18
  0
DICTIONARY
  5
19
330
C
100
AcDbDictionary
  0
ENDSEC
  0
EOF
