  0
SECTION
  2
HEADER
  9
$ACADVER
  1
AC1014
  9
$HANDSEED
  5
FFFF
  9
$MEASUREMENT
 70
     1
  0
ENDSEC
  0
SECTION
  2
TABLES
  0
TABLE
  2
VPORT
  5
8
330
0
100
AcDbSymbolTable
 70
     4
  0
VPORT
  5
2E
330
8
100
AcDbSymbolTableRecord
100
AcDbViewportTableRecord
  2
*ACTIVE
 70
     0
 10
0.0
 20
0.0
 11
1.0
 21
1.0
 12
210.0
 22
148.5
 13
0.0
 23
0.0
 14
10.0
 24
10.0
 15
10.0
 25
10.0
 16
0.0
 26
0.0
 36
1.0
 17
0.0
 27
0.0
 37
0.0
 40
341.0
 41
1.24
 42
50.0
 43
0.0
 44
0.0
 50
0.0
 51
0.0
 71
     0
 72
   100
 73
     1
 74
     3
 75
     0
 76
     0
 77
     0
 78
     0
  0
ENDTAB
  0
TABLE
  2
LTYPE
  5
5
330
0
100
AcDbSymbolTable
 70
     1
  0
LTYPE
  5
14
330
5
100
AcDbSymbolTableRecord
100
AcDbLinetypeTableRecord
  2
BYBLOCK
 70
     0
  3

 72
    65
 73
     0
 40
0.0
  0
LTYPE
  5
15
330
5
100
AcDbSymbolTableRecord
100
AcDbLinetypeTableRecord
  2
BYLAYER
 70
     0
  3

 72
    65
 73
     0
 40
0.0
  0
LTYPE
  5
16
330
5
100
AcDbSymbolTableRecord
100
AcDbLinetypeTableRecord
  2
CONTINUOUS
 70
     0
  3
Solid line
 72
    65
 73
     0
 40
0.0
  0
ENDTAB
  0
TABLE
  2
LAYER
  5
2
100
AcDbSymbolTable
 70
1
  0
LAYER
  5
50
100
AcDbSymbolTableRecord
100
AcDbLayerTableRecord
  2
0
 70
0
  6
CONTINUOUS
  0
ENDTAB
  0
TABLE
  2
STYLE
  5
3
330
0
100
AcDbSymbolTable
 70
     1
  0
STYLE
  5
11
330
3
100
AcDbSymbolTableRecord
100
AcDbTextStyleTableRecord
  2
STANDARD
 70
     0
 40
0.0
 41
1.0
 50
0.0
 71
     0
 42
2.5
  3
txt
  4

  0
ENDTAB
  0
TABLE
  2
VIEW
  5
6
330
0
100
AcDbSymbolTable
 70
     0
  0
ENDTAB
  0
TABLE
  2
UCS
  5
7
330
0
100
AcDbSymbolTable
 70
     0
  0
ENDTAB
  0
TABLE
  2
APPID
  5
9
330
0
100
AcDbSymbolTable
 70
     2
  0
APPID
  5
12
330
9
100
AcDbSymbolTableRecord
100
AcDbRegAppTableRecord
  2
ACAD
 70
     0
  0
ENDTAB
  0
TABLE
  2
DIMSTYLE
  5
A
330
0
100
AcDbSymbolTable
 70
     1
  0
DIMSTYLE
105
27
330
A
100
AcDbSymbolTableRecord
100
AcDbDimStyleTableRecord
  2
ISO-25
 70
     0
  3

  4

  5

  6

  7

 40
1.0
 41
2.5
 42
0.625
 43
3.75
 44
1.25
 45
0.0
 46
0.0
 47
0.0
 48
0.0
140
2.5
141
2.5
142
0.0
143
0.03937007874016
144
1.0
145
0.0
146
1.0
147
0.625
 71
     0
 72
     0
 73
     0
 74
     0
 75
     0
 76
     0
 77
     1
 78
     8
170
     0
171
     3
172
     1
173
     0
174
     0
175
     0
176
     0
177
     0
178
     0
270
     2
271
     2
272
     2
273
     2
274
     3
340
11
275
     0
280
     0
281
     0
282
     0
283
     0
284
     8
285
     0
286
     0
287
     3
288
     0
  0
ENDTAB
  0
TABLE
  2
BLOCK_RECORD
  5
1
330
0
100
AcDbSymbolTable
 70
     1
  0
BLOCK_RECORD
  5
1F
330
1
100
AcDbSymbolTableRecord
100
AcDbBlockTableRecord
  2
*MODEL_SPACE
  0
BLOCK_RECORD
  5
1B
330
1
100
AcDbSymbolTableRecord
100
AcDbBlockTableRecord
  2
*PAPER_SPACE
  0
ENDTAB
  0
ENDSEC
  0
SECTION
  2
BLOCKS
  0
BLOCK
  5
20
330
1F
100
AcDbEntity
  8
0
100
AcDbBlockBegin
  2
*MODEL_SPACE
 70
     0
 10
0.0
 20
0.0
 30
0.0
  3
*MODEL_SPACE
  1

  0
ENDBLK
  5
21
330
1F
100
AcDbEntity
  8
0
100
AcDbBlockEnd
  0
BLOCK
  5
1C
330
1B
100
AcDbEntity
 67
     1
  8
0
100
AcDbBlockBegin
  2
*PAPER_SPACE
  1

  0
ENDBLK
  5
1D
330
1B
100
AcDbEntity
 67
     1
  8
0
100
AcDbBlockEnd
  0
ENDSEC
  0
SECTION
  2
ENTITIES
  0
SPLINE
  5
100
100
AcDbEntity
  8
0
 62
1
100
AcDbSpline
 70
8
 71
3
 72
8
 73
4
 74
0
 40
0
 40
0
 40
0
 40
0
 40
1
 40
1
 40
1
 40
1
 10
24.338280
 20
257.569067
 30
0.0
 10
31.167409
 20
257.569067
 30
0.0
 10
36.705088
 20
252.037370
 30
0.0
 10
36.705088
 20
245.215607
 30
0.0
  0
SPLINE
  5
101
100
AcDbEntity
  8
0
 62
1
100
AcDbSpline
 70
8
 71
3
 72
8
 73
4
 74
0
 40
0
 40
0
 40
0
 40
0
 40
1
 40
1
 40
1
 40
1
 10
36.705088
 20
245.215607
 30
0.0
 10
36.705088
 20
238.393845
 30
0.0
 10
31.167409
 20
232.862148
 30
0.0
 10
24.338280
 20
232.862148
 30
0.0
  0
SPLINE
  5
102
100
AcDbEntity
  8
0
 62
1
100
AcDbSpline
 70
8
 71
3
 72
8
 73
4
 74
0
 40
0
 40
0
 40
0
 40
0
 40
1
 40
1
 40
1
 40
1
 10
24.338280
 20
232.862148
 30
0.0
 10
22.339498
 20
232.862148
 30
0.0
 10
20.456200
 20
233.335858
 30
0.0
 10
18.785360
 20
234.177050
 30
0.0
  0
SPLINE
  5
103
100
AcDbEntity
  8
0
 62
1
100
AcDbSpline
 70
8
 71
3
 72
8
 73
4
 74
0
 40
0
 40
0
 40
0
 40
0
 40
1
 40
1
 40
1
 40
1
 10
18.785360
 20
256.243102
 30
0.0
 10
20.456624
 20
257.084773
 30
0.0
 10
22.338877
 20
257.569067
 30
0.0
 10
24.338280
 20
257.569067
 30
0.0
  0
LWPOLYLINE
  5
104
100
AcDbEntity
  8
0
 62
1
100
AcDbPolyline
 90
2
 70
0
 10
18.785360
 20
234.177050
 30
0.0
 10
18.785360
 20
256.243102
 30
0.0
  0
SPLINE
  5
105
100
AcDbEntity
  8
0
 62
7
100
AcDbSpline
 70
8
 71
3
 72
8
 73
4
 74
0
 40
0
 40
0
 40
0
 40
0
 40
1
 40
1
 40
1
 40
1
 10
24.276219
 20
260.887780
 30
0.0
 10
15.459033
 20
260.887780
 30
0.0
 10
8.319093
 20
253.747823
 30
0.0
 10
8.319093
 20
244.930605
 30
0.0
  0
SPLINE
  5
106
100
AcDbEntity
  8
0
 62
7
100
AcDbSpline
 70
8
 71
3
 72
8
 73
4
 74
0
 40
0
 40
0
 40
0
 40
0
 40
1
 40
1
 40
1
 40
1
 10
8.319093
 20
244.930605
 30
0.0
 10
8.319093
 20
236.113416
 30
0.0
 10
15.459033
 20
228.964462
 30
0.0
 10
24.276219
 20
228.964462
 30
0.0
  0
SPLINE
  5
107
100
AcDbEntity
  8
0
 62
7
100
AcDbSpline
 70
8
 71
3
 72
8
 73
4
 74
0
 40
0
 40
0
 40
0
 40
0
 40
1
 40
1
 40
1
 40
1
 10
24.276219
 20
228.964462
 30
0.0
 10
33.093434
 20
228.964462
 30
0.0
 10
40.242377
 20
236.113416
 30
0.0
 10
40.242377
 20
244.930605
 30
0.0
  0
SPLINE
  5
108
100
AcDbEntity
  8
0
 62
7
100
AcDbSpline
 70
8
 71
3
 72
8
 73
4
 74
0
 40
0
 40
0
 40
0
 40
0
 40
1
 40
1
 40
1
 40
1
 10
40.242377
 20
244.930605
 30
0.0
 10
40.242377
 20
253.747823
 30
0.0
 10
33.093434
 20
260.887780
 30
0.0
 10
24.276219
 20
260.887780
 30
0.0
  0
LWPOLYLINE
  5
109
100
AcDbEntity
  8
0
 62
1
100
AcDbPolyline
 90
2
 70
0
 10
24.338280
 20
257.569067
 30
0.0
 10
24.338280
 20
257.569067
 30
0.0
  0
LWPOLYLINE
  5
10a
100
AcDbEntity
  8
0
 62
7
100
AcDbPolyline
 90
2
 70
0
 10
24.276219
 20
260.887780
 30
0.0
 10
24.276219
 20
260.887780
 30
0.0
  0
SPLINE
  5
10b
100
AcDbEntity
  8
0
 62
7
100
AcDbSpline
 70
8
 71
3
 72
8
 73
4
 74
0
 40
0
 40
0
 40
0
 40
0
 40
1
 40
1
 40
1
 40
1
 10
79.882802
 20
243.328231
 30
0.0
 10
81.242352
 20
243.328231
 30
0.0
 10
82.339378
 20
242.370750
 30
0.0
 10
82.339378
 20
241.172259
 30
0.0
  0
LWPOLYLINE
  5
10c
100
AcDbEntity
  8
0
 62
7
100
AcDbPolyline
 90
3
 70
0
 10
78.378558
 20
261.863850
 30
0.0
 10
78.378558
 20
243.328231
 30
0.0
 10
79.882802
 20
243.328231
 30
0.0
  0
SPLINE
  5
10d
100
AcDbEntity
  8
0
 62
7
100
AcDbSpline
 70
8
 71
3
 72
8
 73
4
 74
0
 40
0
 40
0
 40
0
 40
0
 40
1
 40
1
 40
1
 40
1
 10
104.848660
 20
246.724363
 30
0.0
 10
104.848660
 20
255.113772
 30
0.0
 10
97.191350
 20
261.863850
 30
0.0
 10
87.674478
 20
261.863850
 30
0.0
  0
LWPOLYLINE
  5
10e
100
AcDbEntity
  8
0
 62
7
100
AcDbPolyline
 90
7
 70
0
 10
82.339378
 20
241.172259
 30
0.0
 10
82.339378
 20
235.047772
 30
0.0
 10
82.458362
 20
235.047772
 30
0.0
 10
93.572386
 20
227.988392
 30
0.0
 10
104.686298
 20
235.047772
 30
0.0
 10
104.848660
 20
235.047772
 30
0.0
 10
104.848660
 20
246.724363
 30
0.0
  0
SPLINE
  5
10f
100
AcDbEntity
  8
0
 62
1
100
AcDbSpline
 70
8
 71
3
 72
8
 73
4
 74
0
 40
0
 40
0
 40
0
 40
0
 40
1
 40
1
 40
1
 40
1
 10
89.961156
 20
259.469567
 30
0.0
 10
96.790284
 20
259.469567
 30
0.0
 10
102.327964
 20
253.937870
 30
0.0
 10
102.327964
 20
247.116107
 30
0.0
  0
SPLINE
  5
110
100
AcDbEntity
  8
0
 62
1
100
AcDbSpline
 70
8
 71
3
 72
8
 73
4
 74
0
 40
0
 40
0
 40
0
 40
0
 40
1
 40
1
 40
1
 40
1
 10
102.327964
 20
247.116107
 30
0.0
 10
102.327964
 20
240.294336
 30
0.0
 10
96.790312
 20
234.762665
 30
0.0
 10
89.961156
 20
234.762665
 30
0.0
  0
SPLINE
  5
111
100
AcDbEntity
  8
0
 62
1
100
AcDbSpline
 70
8
 71
3
 72
8
 73
4
 74
0
 40
0
 40
0
 40
0
 40
0
 40
1
 40
1
 40
1
 40
1
 10
89.961156
 20
234.762665
 30
0.0
 10
87.962373
 20
234.762665
 30
0.0
 10
86.079076
 20
235.236375
 30
0.0
 10
84.408236
 20
236.077569
 30
0.0
  0
LWPOLYLINE
  5
112
100
AcDbEntity
  8
0
 62
7
100
AcDbPolyline
 90
3
 70
0
 10
87.674478
 20
261.863850
 30
0.0
 10
78.378558
 20
261.863850
 30
0.0
 10
78.378558
 20
261.863850
 30
0.0
  0
SPLINE
  5
113
100
AcDbEntity
  8
0
 62
1
100
AcDbSpline
 70
8
 71
3
 72
8
 73
4
 74
0
 40
0
 40
0
 40
0
 40
0
 40
1
 40
1
 40
1
 40
1
 10
84.408236
 20
258.143602
 30
0.0
 10
86.079499
 20
258.985273
 30
0.0
 10
87.961752
 20
259.469567
 30
0.0
 10
89.961156
 20
259.469567
 30
0.0
  0
LWPOLYLINE
  5
114
100
AcDbEntity
  8
0
 62
1
100
AcDbPolyline
 90
2
 70
0
 10
84.408236
 20
236.077569
 30
0.0
 10
84.408236
 20
258.143602
 30
0.0
  0
SPLINE
  5
115
100
AcDbEntity
  8
0
 62
1
100
AcDbSpline
 70
8
 71
3
 72
8
 73
4
 74
0
 40
0
 40
0
 40
0
 40
0
 40
1
 40
1
 40
1
 40
1
 10
120.397863
 20
255.089577
 30
0.0
 10
127.226991
 20
255.089577
 30
0.0
 10
132.764671
 20
249.557880
 30
0.0
 10
132.764671
 20
242.736117
 30
0.0
  0
SPLINE
  5
116
100
AcDbEntity
  8
0
 62
1
100
AcDbSpline
 70
8
 71
3
 72
8
 73
4
 74
0
 40
0
 40
0
 40
0
 40
0
 40
1
 40
1
 40
1
 40
1
 10
132.764671
 20
242.736117
 30
0.0
 10
132.764671
 20
235.914346
 30
0.0
 10
127.227020
 20
230.382675
 30
0.0
 10
120.397863
 20
230.382675
 30
0.0
  0
SPLINE
  5
117
100
AcDbEntity
  8
0
 62
1
100
AcDbSpline
 70
8
 71
3
 72
8
 73
4
 74
0
 40
0
 40
0
 40
0
 40
0
 40
1
 40
1
 40
1
 40
1
 10
120.397863
 20
230.382675
 30
0.0
 10
118.399080
 20
230.382675
 30
0.0
 10
116.515783
 20
230.856385
 30
0.0
 10
114.844943
 20
231.697579
 30
0.0
  0
LWPOLYLINE
  5
118
100
AcDbEntity
  8
0
 62
1
100
AcDbPolyline
 90
2
 70
0
 10
89.961156
 20
259.469567
 30
0.0
 10
89.961156
 20
259.469567
 30
0.0
  0
SPLINE
  5
119
100
AcDbEntity
  8
0
 62
1
100
AcDbSpline
 70
8
 71
3
 72
8
 73
4
 74
0
 40
0
 40
0
 40
0
 40
0
 40
1
 40
1
 40
1
 40
1
 10
114.844943
 20
253.763612
 30
0.0
 10
116.516206
 20
254.605283
 30
0.0
 10
118.398459
 20
255.089577
 30
0.0
 10
120.397863
 20
255.089577
 30
0.0
  0
LWPOLYLINE
  5
11a
100
AcDbEntity
  8
0
 62
1
100
AcDbPolyline
 90
2
 70
0
 10
114.844943
 20
231.697579
 30
0.0
 10
114.844943
 20
253.763612
 30
0.0
  0
LWPOLYLINE
  5
11b
100
AcDbEntity
  8
0
 62
1
100
AcDbPolyline
 90
2
 70
0
 10
120.397863
 20
255.089577
 30
0.0
 10
120.397863
 20
255.089577
 30
0.0
  0
SPLINE
  5
11c
100
AcDbEntity
  8
0
 62
7
100
AcDbSpline
 70
8
 71
3
 72
8
 73
4
 74
0
 40
0
 40
0
 40
0
 40
0
 40
1
 40
1
 40
1
 40
1
 10
110.319510
 20
246.524011
 30
0.0
 10
111.679059
 20
246.524011
 30
0.0
 10
112.776085
 20
247.481492
 30
0.0
 10
112.776085
 20
248.679983
 30
0.0
  0
LWPOLYLINE
  5
11d
100
AcDbEntity
  8
0
 62
7
100
AcDbPolyline
 90
3
 70
0
 10
108.815265
 20
227.988392
 30
0.0
 10
108.815265
 20
246.524011
 30
0.0
 10
110.319510
 20
246.524011
 30
0.0
  0
SPLINE
  5
11e
100
AcDbEntity
  8
0
 62
7
100
AcDbSpline
 70
8
 71
3
 72
8
 73
4
 74
0
 40
0
 40
0
 40
0
 40
0
 40
1
 40
1
 40
1
 40
1
 10
135.285367
 20
243.127878
 30
0.0
 10
135.285367
 20
234.738470
 30
0.0
 10
127.628057
 20
227.988392
 30
0.0
 10
118.111185
 20
227.988392
 30
0.0
  0
LWPOLYLINE
  5
11f
100
AcDbEntity
  8
0
 62
7
100
AcDbPolyline
 90
7
 70
0
 10
112.776085
 20
248.679983
 30
0.0
 10
112.776085
 20
254.804470
 30
0.0
 10
112.895070
 20
254.804470
 30
0.0
 10
124.009094
 20
261.863850
 30
0.0
 10
135.123005
 20
254.804470
 30
0.0
 10
135.285367
 20
254.804470
 30
0.0
 10
135.285367
 20
243.127878
 30
0.0
  0
LWPOLYLINE
  5
120
100
AcDbEntity
  8
0
 62
7
100
AcDbPolyline
 90
3
 70
0
 10
118.111185
 20
227.988392
 30
0.0
 10
108.815265
 20
227.988392
 30
0.0
 10
108.815265
 20
227.988392
 30
0.0
  0
SPLINE
  5
121
100
AcDbEntity
  8
0
 62
1
100
AcDbSpline
 70
8
 71
3
 72
8
 73
4
 74
0
 40
0
 40
0
 40
0
 40
0
 40
1
 40
1
 40
1
 40
1
 10
52.838294
 20
257.279569
 30
0.0
 10
59.667422
 20
257.279569
 30
0.0
 10
65.205102
 20
251.747872
 30
0.0
 10
65.205102
 20
244.926110
 30
0.0
  0
SPLINE
  5
122
100
AcDbEntity
  8
0
 62
1
100
AcDbSpline
 70
8
 71
3
 72
8
 73
4
 74
0
 40
0
 40
0
 40
0
 40
0
 40
1
 40
1
 40
1
 40
1
 10
65.205102
 20
244.926110
 30
0.0
 10
65.205102
 20
238.104347
 30
0.0
 10
59.667450
 20
232.572678
 30
0.0
 10
52.838294
 20
232.572678
 30
0.0
  0
SPLINE
  5
123
100
AcDbEntity
  8
0
 62
1
100
AcDbSpline
 70
8
 71
3
 72
8
 73
4
 74
0
 40
0
 40
0
 40
0
 40
0
 40
1
 40
1
 40
1
 40
1
 10
52.838294
 20
232.572678
 30
0.0
 10
50.839511
 20
232.572678
 30
0.0
 10
48.956214
 20
233.046388
 30
0.0
 10
47.285374
 20
233.887580
 30
0.0
  0
LWPOLYLINE
  5
124
100
AcDbEntity
  8
0
 62
7
100
AcDbPolyline
 90
7
 70
0
 10
43.481893
 20
260.020539
 30
0.0
 10
43.481893
 20
229.831702
 30
0.0
 10
61.749263
 20
229.831702
 30
0.0
 10
75.404077
 20
244.921315
 30
0.0
 10
61.749263
 20
260.020539
 30
0.0
 10
43.481893
 20
260.020539
 30
0.0
 10
43.481893
 20
260.020539
 30
0.0
  0
SPLINE
  5
125
100
AcDbEntity
  8
0
 62
1
100
AcDbSpline
 70
8
 71
3
 72
8
 73
4
 74
0
 40
0
 40
0
 40
0
 40
0
 40
1
 40
1
 40
1
 40
1
 10
47.285374
 20
255.953604
 30
0.0
 10
48.956637
 20
256.795276
 30
0.0
 10
50.838890
 20
257.279569
 30
0.0
 10
52.838294
 20
257.279569
 30
0.0
  0
LWPOLYLINE
  5
126
100
AcDbEntity
  8
0
 62
1
100
AcDbPolyline
 90
2
 70
0
 10
47.285374
 20
233.887580
 30
0.0
 10
47.285374
 20
255.953604
 30
0.0
  0
SPLINE
  5
127
100
AcDbEntity
  8
0
 62
3
100
AcDbSpline
 70
8
 71
3
 72
8
 73
4
 74
0
 40
0
 40
0
 40
0
 40
0
 40
1
 40
1
 40
1
 40
1
 10
23.645429
 20
206.107226
 30
0.0
 10
15.858116
 20
205.828210
 30
0.0
 10
9.622439
 20
214.651840
 30
0.0
 10
12.233068
 20
221.902851
 30
0.0
  0
SPLINE
  5
128
100
AcDbEntity
  8
0
 62
3
100
AcDbSpline
 70
8
 71
3
 72
8
 73
4
 74
0
 40
0
 40
0
 40
0
 40
0
 40
1
 40
1
 40
1
 40
1
 10
12.233068
 20
221.902851
 30
0.0
 10
12.592359
 20
224.187595
 30
0.0
 10
15.203925
 20
223.194001
 30
0.0
 10
16.775082
 20
223.393337
 30
0.0
  0
SPLINE
  5
129
100
AcDbEntity
  8
0
 62
3
100
AcDbSpline
 70
8
 71
3
 72
8
 73
4
 74
0
 40
0
 40
0
 40
0
 40
0
 40
1
 40
1
 40
1
 40
1
 10
16.775082
 20
223.393337
 30
0.0
 10
22.628252
 20
223.393337
 30
0.0
 10
28.481426
 20
223.393337
 30
0.0
 10
34.334597
 20
223.393337
 30
0.0
  0
SPLINE
  5
12a
100
AcDbEntity
  8
0
 62
3
100
AcDbSpline
 70
8
 71
3
 72
8
 73
4
 74
0
 40
0
 40
0
 40
0
 40
0
 40
1
 40
1
 40
1
 40
1
 10
34.334597
 20
223.393337
 30
0.0
 10
36.426227
 20
220.966333
 30
0.0
 10
36.115839
 20
217.220573
 30
0.0
 10
35.181263
 20
214.318129
 30
0.0
  0
SPLINE
  5
12b
100
AcDbEntity
  8
0
 62
3
100
AcDbSpline
 70
8
 71
3
 72
8
 73
4
 74
0
 40
0
 40
0
 40
0
 40
0
 40
1
 40
1
 40
1
 40
1
 10
35.181263
 20
214.318129
 30
0.0
 10
33.610022
 20
209.465786
 30
0.0
 10
28.812089
 20
205.852250
 30
0.0
 10
23.645429
 20
206.107226
 30
0.0
  0
LWPOLYLINE
  5
12c
100
AcDbEntity
  8
0
 62
1
100
AcDbPolyline
 90
2
 70
0
 10
52.838294
 20
257.279569
 30
0.0
 10
52.838294
 20
257.279569
 30
0.0
  0
SPLINE
  5
12d
100
AcDbEntity
  8
0
 62
3
100
AcDbSpline
 70
8
 71
3
 72
8
 73
4
 74
0
 40
0
 40
0
 40
0
 40
0
 40
1
 40
1
 40
1
 40
1
 10
23.138074
 20
187.161496
 30
0.0
 10
15.350761
 20
186.882480
 30
0.0
 10
9.115084
 20
195.706110
 30
0.0
 10
11.725713
 20
202.957121
 30
0.0
  0
SPLINE
  5
12e
100
AcDbEntity
  8
0
 62
3
100
AcDbSpline
 70
8
 71
3
 72
8
 73
4
 74
0
 40
0
 40
0
 40
0
 40
0
 40
1
 40
1
 40
1
 40
1
 10
11.725713
 20
202.957121
 30
0.0
 10
12.085004
 20
205.241865
 30
0.0
 10
14.696570
 20
204.248271
 30
0.0
 10
16.267727
 20
204.447607
 30
0.0
  0
SPLINE
  5
12f
100
AcDbEntity
  8
0
 62
3
100
AcDbSpline
 70
8
 71
3
 72
8
 73
4
 74
0
 40
0
 40
0
 40
0
 40
0
 40
1
 40
1
 40
1
 40
1
 10
16.267727
 20
204.447607
 30
0.0
 10
22.120897
 20
204.447607
 30
0.0
 10
27.974070
 20
204.447607
 30
0.0
 10
33.827240
 20
204.447607
 30
0.0
  0
SPLINE
  5
130
100
AcDbEntity
  8
0
 62
3
100
AcDbSpline
 70
8
 71
3
 72
8
 73
4
 74
0
 40
0
 40
0
 40
0
 40
0
 40
1
 40
1
 40
1
 40
1
 10
33.827240
 20
204.447607
 30
0.0
 10
35.918871
 20
202.020603
 30
0.0
 10
35.608483
 20
198.274843
 30
0.0
 10
34.673907
 20
195.372399
 30
0.0
  0
SPLINE
  5
131
100
AcDbEntity
  8
0
 62
3
100
AcDbSpline
 70
8
 71
3
 72
8
 73
4
 74
0
 40
0
 40
0
 40
0
 40
0
 40
1
 40
1
 40
1
 40
1
 10
34.673907
 20
195.372399
 30
0.0
 10
33.102666
 20
190.520056
 30
0.0
 10
28.304733
 20
186.906519
 30
0.0
 10
23.138074
 20
187.161496
 30
0.0
  0
LWPOLYLINE
  5
132
100
AcDbEntity
  8
0
 62
3
100
AcDbPolyline
 90
2
 70
0
 10
23.645429
 20
206.107226
 30
0.0
 10
23.645429
 20
206.107226
 30
0.0
  0
SPLINE
  5
133
100
AcDbEntity
  8
0
 62
3
100
AcDbSpline
 70
8
 71
3
 72
8
 73
4
 74
0
 40
0
 40
0
 40
0
 40
0
 40
1
 40
1
 40
1
 40
1
 10
49.616199
 20
206.124010
 30
0.0
 10
41.828887
 20
205.844994
 30
0.0
 10
35.593209
 20
214.668623
 30
0.0
 10
38.203838
 20
221.919635
 30
0.0
  0
SPLINE
  5
134
100
AcDbEntity
  8
0
 62
3
100
AcDbSpline
 70
8
 71
3
 72
8
 73
4
 74
0
 40
0
 40
0
 40
0
 40
0
 40
1
 40
1
 40
1
 40
1
 10
38.203838
 20
221.919635
 30
0.0
 10
38.563129
 20
224.204379
 30
0.0
 10
41.174695
 20
223.210785
 30
0.0
 10
42.745852
 20
223.410121
 30
0.0
  0
SPLINE
  5
135
100
AcDbEntity
  8
0
 62
3
100
AcDbSpline
 70
8
 71
3
 72
8
 73
4
 74
0
 40
0
 40
0
 40
0
 40
0
 40
1
 40
1
 40
1
 40
1
 10
42.745852
 20
223.410121
 30
0.0
 10
48.599022
 20
223.410121
 30
0.0
 10
54.452195
 20
223.410121
 30
0.0
 10
60.305366
 20
223.410121
 30
0.0
  0
SPLINE
  5
136
100
AcDbEntity
  8
0
 62
3
100
AcDbSpline
 70
8
 71
3
 72
8
 73
4
 74
0
 40
0
 40
0
 40
0
 40
0
 40
1
 40
1
 40
1
 40
1
 10
60.305366
 20
223.410121
 30
0.0
 10
62.396997
 20
220.983117
 30
0.0
 10
62.086609
 20
217.237356
 30
0.0
 10
61.152032
 20
214.334913
 30
0.0
  0
SPLINE
  5
137
100
AcDbEntity
  8
0
 62
3
100
AcDbSpline
 70
8
 71
3
 72
8
 73
4
 74
0
 40
0
 40
0
 40
0
 40
0
 40
1
 40
1
 40
1
 40
1
 10
61.152032
 20
214.334913
 30
0.0
 10
59.580791
 20
209.482570
 30
0.0
 10
54.782858
 20
205.869033
 30
0.0
 10
49.616199
 20
206.124010
 30
0.0
  0
LWPOLYLINE
  5
138
100
AcDbEntity
  8
0
 62
3
100
AcDbPolyline
 90
2
 70
0
 10
23.138074
 20
187.161496
 30
0.0
 10
23.138074
 20
187.161496
 30
0.0
  0
SPLINE
  5
139
100
AcDbEntity
  8
0
 62
3
100
AcDbSpline
 70
8
 71
3
 72
8
 73
4
 74
0
 40
0
 40
0
 40
0
 40
0
 40
1
 40
1
 40
1
 40
1
 10
48.344701
 20
187.193872
 30
0.0
 10
40.557388
 20
186.914856
 30
0.0
 10
34.321710
 20
195.738486
 30
0.0
 10
36.932339
 20
202.989497
 30
0.0
  0
SPLINE
  5
13a
100
AcDbEntity
  8
0
 62
3
100
AcDbSpline
 70
8
 71
3
 72
8
 73
4
 74
0
 40
0
 40
0
 40
0
 40
0
 40
1
 40
1
 40
1
 40
1
 10
36.932339
 20
202.989497
 30
0.0
 10
37.291631
 20
205.274242
 30
0.0
 10
39.903197
 20
204.280647
 30
0.0
 10
41.474353
 20
204.479984
 30
0.0
  0
SPLINE
  5
13b
100
AcDbEntity
  8
0
 62
3
100
AcDbSpline
 70
8
 71
3
 72
8
 73
4
 74
0
 40
0
 40
0
 40
0
 40
0
 40
1
 40
1
 40
1
 40
1
 10
41.474353
 20
204.479984
 30
0.0
 10
47.327524
 20
204.479984
 30
0.0
 10
53.180697
 20
204.479984
 30
0.0
 10
59.033867
 20
204.479984
 30
0.0
  0
SPLINE
  5
13c
100
AcDbEntity
  8
0
 62
3
100
AcDbSpline
 70
8
 71
3
 72
8
 73
4
 74
0
 40
0
 40
0
 40
0
 40
0
 40
1
 40
1
 40
1
 40
1
 10
59.033867
 20
204.479984
 30
0.0
 10
61.125498
 20
202.052980
 30
0.0
 10
60.815110
 20
198.307219
 30
0.0
 10
59.880534
 20
195.404775
 30
0.0
  0
SPLINE
  5
13d
100
AcDbEntity
  8
0
 62
3
100
AcDbSpline
 70
8
 71
3
 72
8
 73
4
 74
0
 40
0
 40
0
 40
0
 40
0
 40
1
 40
1
 40
1
 40
1
 10
59.880534
 20
195.404775
 30
0.0
 10
58.309293
 20
190.552433
 30
0.0
 10
53.511360
 20
186.938896
 30
0.0
 10
48.344701
 20
187.193872
 30
0.0
  0
LWPOLYLINE
  5
13e
100
AcDbEntity
  8
0
 62
3
100
AcDbPolyline
 90
2
 70
0
 10
49.616199
 20
206.124010
 30
0.0
 10
49.616199
 20
206.124010
 30
0.0
  0
SPLINE
  5
13f
100
AcDbEntity
  8
0
 62
3
100
AcDbSpline
 70
8
 71
3
 72
8
 73
4
 74
0
 40
0
 40
0
 40
0
 40
0
 40
1
 40
1
 40
1
 40
1
 10
74.955070
 20
206.636407
 30
0.0
 10
67.167757
 20
206.357391
 30
0.0
 10
60.932080
 20
215.181020
 30
0.0
 10
63.542709
 20
222.432032
 30
0.0
  0
SPLINE
  5
140
100
AcDbEntity
  8
0
 62
3
100
AcDbSpline
 70
8
 71
3
 72
8
 73
4
 74
0
 40
0
 40
0
 40
0
 40
0
 40
1
 40
1
 40
1
 40
1
 10
63.542709
 20
222.432032
 30
0.0
 10
63.902000
 20
224.716776
 30
0.0
 10
66.513566
 20
223.723182
 30
0.0
 10
68.084723
 20
223.922518
 30
0.0
  0
SPLINE
  5
141
100
AcDbEntity
  8
0
 62
3
100
AcDbSpline
 70
8
 71
3
 72
8
 73
4
 74
0
 40
0
 40
0
 40
0
 40
0
 40
1
 40
1
 40
1
 40
1
 10
68.084723
 20
223.922518
 30
0.0
 10
73.937893
 20
223.922518
 30
0.0
 10
79.791069
 20
223.922518
 30
0.0
 10
85.644239
 20
223.922518
 30
0.0
  0
SPLINE
  5
142
100
AcDbEntity
  8
0
 62
3
100
AcDbSpline
 70
8
 71
3
 72
8
 73
4
 74
0
 40
0
 40
0
 40
0
 40
0
 40
1
 40
1
 40
1
 40
1
 10
85.644239
 20
223.922518
 30
0.0
 10
87.735870
 20
221.495514
 30
0.0
 10
87.425482
 20
217.749754
 30
0.0
 10
86.490906
 20
214.847310
 30
0.0
  0
SPLINE
  5
143
100
AcDbEntity
  8
0
 62
3
100
AcDbSpline
 70
8
 71
3
 72
8
 73
4
 74
0
 40
0
 40
0
 40
0
 40
0
 40
1
 40
1
 40
1
 40
1
 10
86.490906
 20
214.847310
 30
0.0
 10
84.919665
 20
209.994967
 30
0.0
 10
80.121732
 20
206.381430
 30
0.0
 10
74.955070
 20
206.636407
 30
0.0
  0
LWPOLYLINE
  5
144
100
AcDbEntity
  8
0
 62
3
100
AcDbPolyline
 90
2
 70
0
 10
48.344701
 20
187.193872
 30
0.0
 10
48.344701
 20
187.193872
 30
0.0
  0
SPLINE
  5
145
100
AcDbEntity
  8
0
 62
3
100
AcDbSpline
 70
8
 71
3
 72
8
 73
4
 74
0
 40
0
 40
0
 40
0
 40
0
 40
1
 40
1
 40
1
 40
1
 10
74.447716
 20
187.690677
 30
0.0
 10
66.660403
 20
187.411660
 30
0.0
 10
60.424726
 20
196.235290
 30
0.0
 10
63.035355
 20
203.486302
 30
0.0
  0
SPLINE
  5
146
100
AcDbEntity
  8
0
 62
3
100
AcDbSpline
 70
8
 71
3
 72
8
 73
4
 74
0
 40
0
 40
0
 40
0
 40
0
 40
1
 40
1
 40
1
 40
1
 10
63.035355
 20
203.486302
 30
0.0
 10
63.394646
 20
205.771046
 30
0.0
 10
66.006212
 20
204.777451
 30
0.0
 10
67.577369
 20
204.976788
 30
0.0
  0
SPLINE
  5
147
100
AcDbEntity
  8
0
 62
3
100
AcDbSpline
 70
8
 71
3
 72
8
 73
4
 74
0
 40
0
 40
0
 40
0
 40
0
 40
1
 40
1
 40
1
 40
1
 10
67.577369
 20
204.976788
 30
0.0
 10
73.430539
 20
204.976788
 30
0.0
 10
79.283712
 20
204.976788
 30
0.0
 10
85.136883
 20
204.976788
 30
0.0
  0
SPLINE
  5
148
100
AcDbEntity
  8
0
 62
3
100
AcDbSpline
 70
8
 71
3
 72
8
 73
4
 74
0
 40
0
 40
0
 40
0
 40
0
 40
1
 40
1
 40
1
 40
1
 10
85.136883
 20
204.976788
 30
0.0
 10
87.228513
 20
202.549784
 30
0.0
 10
86.918125
 20
198.804023
 30
0.0
 10
85.983549
 20
195.901579
 30
0.0
  0
SPLINE
  5
149
100
AcDbEntity
  8
0
 62
3
100
AcDbSpline
 70
8
 71
3
 72
8
 73
4
 74
0
 40
0
 40
0
 40
0
 40
0
 40
1
 40
1
 40
1
 40
1
 10
85.983549
 20
195.901579
 30
0.0
 10
84.412308
 20
191.049237
 30
0.0
 10
79.614375
 20
187.435700
 30
0.0
 10
74.447716
 20
187.690677
 30
0.0
  0
LWPOLYLINE
  5
14a
100
AcDbEntity
  8
0
 62
3
100
AcDbPolyline
 90
2
 70
0
 10
74.955070
 20
206.636407
 30
0.0
 10
74.955070
 20
206.636407
 30
0.0
  0
SPLINE
  5
14b
100
AcDbEntity
  8
0
 62
3
100
AcDbSpline
 70
8
 71
3
 72
8
 73
4
 74
0
 40
0
 40
0
 40
0
 40
0
 40
1
 40
1
 40
1
 40
1
 10
100.925842
 20
206.653191
 30
0.0
 10
93.138529
 20
206.374174
 30
0.0
 10
86.902852
 20
215.197804
 30
0.0
 10
89.513481
 20
222.448816
 30
0.0
  0
SPLINE
  5
14c
100
AcDbEntity
  8
0
 62
3
100
AcDbSpline
 70
8
 71
3
 72
8
 73
4
 74
0
 40
0
 40
0
 40
0
 40
0
 40
1
 40
1
 40
1
 40
1
 10
89.513481
 20
222.448816
 30
0.0
 10
89.872772
 20
224.733560
 30
0.0
 10
92.484338
 20
223.739965
 30
0.0
 10
94.055494
 20
223.939302
 30
0.0
  0
SPLINE
  5
14d
100
AcDbEntity
  8
0
 62
3
100
AcDbSpline
 70
8
 71
3
 72
8
 73
4
 74
0
 40
0
 40
0
 40
0
 40
0
 40
1
 40
1
 40
1
 40
1
 10
94.055494
 20
223.939302
 30
0.0
 10
99.908665
 20
223.939302
 30
0.0
 10
105.761838
 20
223.939302
 30
0.0
 10
111.615008
 20
223.939302
 30
0.0
  0
SPLINE
  5
14e
100
AcDbEntity
  8
0
 62
3
100
AcDbSpline
 70
8
 71
3
 72
8
 73
4
 74
0
 40
0
 40
0
 40
0
 40
0
 40
1
 40
1
 40
1
 40
1
 10
111.615008
 20
223.939302
 30
0.0
 10
113.706639
 20
221.512298
 30
0.0
 10
113.396251
 20
217.766537
 30
0.0
 10
112.461675
 20
214.864093
 30
0.0
  0
SPLINE
  5
14f
100
AcDbEntity
  8
0
 62
3
100
AcDbSpline
 70
8
 71
3
 72
8
 73
4
 74
0
 40
0
 40
0
 40
0
 40
0
 40
1
 40
1
 40
1
 40
1
 10
112.461675
 20
214.864093
 30
0.0
 10
110.890434
 20
210.011751
 30
0.0
 10
106.092501
 20
206.398214
 30
0.0
 10
100.925842
 20
206.653191
 30
0.0
  0
LWPOLYLINE
  5
150
100
AcDbEntity
  8
0
 62
3
100
AcDbPolyline
 90
2
 70
0
 10
74.447716
 20
187.690677
 30
0.0
 10
74.447716
 20
187.690677
 30
0.0
  0
SPLINE
  5
151
100
AcDbEntity
  8
0
 62
3
100
AcDbSpline
 70
8
 71
3
 72
8
 73
4
 74
0
 40
0
 40
0
 40
0
 40
0
 40
1
 40
1
 40
1
 40
1
 10
99.654343
 20
187.723053
 30
0.0
 10
91.867030
 20
187.444037
 30
0.0
 10
85.631353
 20
196.267667
 30
0.0
 10
88.241982
 20
203.518678
 30
0.0
  0
SPLINE
  5
152
100
AcDbEntity
  8
0
 62
3
100
AcDbSpline
 70
8
 71
3
 72
8
 73
4
 74
0
 40
0
 40
0
 40
0
 40
0
 40
1
 40
1
 40
1
 40
1
 10
88.241982
 20
203.518678
 30
0.0
 10
88.601273
 20
205.803422
 30
0.0
 10
91.212839
 20
204.809828
 30
0.0
 10
92.783996
 20
205.009164
 30
0.0
  0
SPLINE
  5
153
100
AcDbEntity
  8
0
 62
3
100
AcDbSpline
 70
8
 71
3
 72
8
 73
4
 74
0
 40
0
 40
0
 40
0
 40
0
 40
1
 40
1
 40
1
 40
1
 10
92.783996
 20
205.009164
 30
0.0
 10
98.637166
 20
205.009164
 30
0.0
 10
104.490339
 20
205.009164
 30
0.0
 10
110.343510
 20
205.009164
 30
0.0
  0
SPLINE
  5
154
100
AcDbEntity
  8
0
 62
3
100
AcDbSpline
 70
8
 71
3
 72
8
 73
4
 74
0
 40
0
 40
0
 40
0
 40
0
 40
1
 40
1
 40
1
 40
1
 10
110.343510
 20
205.009164
 30
0.0
 10
112.435140
 20
202.582160
 30
0.0
 10
112.124752
 20
198.836400
 30
0.0
 10
111.190176
 20
195.933956
 30
0.0
  0
SPLINE
  5
155
100
AcDbEntity
  8
0
 62
3
100
AcDbSpline
 70
8
 71
3
 72
8
 73
4
 74
0
 40
0
 40
0
 40
0
 40
0
 40
1
 40
1
 40
1
 40
1
 10
111.190176
 20
195.933956
 30
0.0
 10
109.618935
 20
191.081613
 30
0.0
 10
104.821002
 20
187.468077
 30
0.0
 10
99.654343
 20
187.723053
 30
0.0
  0
LWPOLYLINE
  5
156
100
AcDbEntity
  8
0
 62
3
100
AcDbPolyline
 90
2
 70
0
 10
100.925842
 20
206.653191
 30
0.0
 10
100.925842
 20
206.653191
 30
0.0
  0
LWPOLYLINE
  5
157
100
AcDbEntity
  8
0
 62
3
100
AcDbPolyline
 90
2
 70
0
 10
99.654343
 20
187.723053
 30
0.0
 10
99.654343
 20
187.723053
 30
0.0
  0
ENDSEC
  0
SECTION
  2
OBJECTS
  0
DICTIONARY
  5
C
330
0
100
AcDbDictionary
  3
ACAD_GROUP
350
D
  3
ACAD_MLINESTYLE
350
17
  0
DICTIONARY
  5
D
330
C
100
AcDbDictionary
  0
DICTIONARY
  5
1A
330
C
100
AcDbDictionary
  0
DICTIONARY
  5
17
330
C
100
AcDbDictionary
  3
STANDARD
350
18
  0
DICTIONARY
  5
19
330
C
100
AcDbDictionary
  0
ENDSEC
  0
EOF
