M48
METRIC,TZ
T1C0.700
T2C0.711
T3C0.762
T4C0.813
T5C1.001
T6C1.016
T7C3.200
%
G90
G05
T1
X68340Y-18917
X72186Y-18070
X83257Y-73553
X88036Y-73399
X94895Y-27226
X98820Y10045
X107143Y-38923
X107733Y-91538
X108257Y-5591
X108971Y-39068
X111212Y-39435
X111354Y11146
X112758Y9619
X113566Y-4004
X114930Y-43430
X116559Y-6685
X116860Y-8085
X120682Y923
X121459Y-46798
X123735Y-43526
X125731Y-74651
X126130Y-5591
X126995Y10182
X128236Y-136391
X133204Y-40316
X135189Y-34555
X136105Y-39858
X136219Y-139911
X137253Y-44265
X137591Y-120091
X139119Y-91872
X141775Y-35776
X142218Y-39806
X146113Y-29714
X148462Y-29640
X150395Y-15266
X155832Y-117228
X155929Y-58982
X156687Y2638
X159211Y-61190
X161778Y-23580
X170581Y-90732
X173666Y-94415
X175330Y-43864
X183027Y6683
X185045Y-60997
X185885Y-62138
X187554Y-15266
X193045Y-48103
X195815Y-46727
X197983Y-46439
X198429Y-73922
X198510Y5332
X206046Y-66038
X206582Y-39550
X206860Y-42222
X207268Y-63818
X207645Y-40922
X214417Y-64508
X215287Y-30647
X216546Y-74504
X216787Y-85752
T2
X171679Y38811
X173457Y38811
T3
X47701Y-22936
X47701Y-135052
X47803Y-79654
X47828Y33731
X50241Y-22936
X50241Y-135052
X50343Y-79654
X50368Y33731
X52781Y-22936
X52781Y-135052
X52883Y-79654
X52908Y33731
X55321Y-22936
X55321Y-135052
X55423Y-79654
X55448Y33731
X96977Y-138684
X97155Y-25756
X97206Y-82601
X97739Y30886
X99517Y-138684
X99695Y-25756
X99746Y-82601
X100279Y30886
X102057Y-138684
X102235Y-25756
X102286Y-82601
X102819Y30886
X104597Y-138684
X104775Y-25756
X104826Y-82601
X105359Y30886
X145136Y-22606
X145440Y34138
X145796Y-79375
X145847Y-135306
X147676Y-22606
X147980Y34138
X148336Y-79375
X148387Y-135306
X150216Y-22606
X150520Y34138
X150876Y-79375
X150927Y-135306
X152756Y-22606
X153060Y34138
X153416Y-79375
X153467Y-135306
X160401Y-64338
X162941Y-64364
X165735Y-64364
X175844Y-64338
X178384Y-64364
X181178Y-64364
X191490Y-64338
X194030Y-64364
X196824Y-64364
X202819Y-135128
X203200Y-22504
X203454Y33045
X203886Y-79299
X205359Y-135128
X205740Y-22504
X205994Y33045
X206426Y-79299
X207899Y-135128
X208280Y-22504
X208534Y33045
X208966Y-79299
X210439Y-135128
X210820Y-22504
X211074Y33045
X211506Y-79299
T4
X71323Y-135382
X71399Y-22987
X71399Y-79299
X71577Y33223
X73863Y-135382
X73939Y-22987
X73939Y-79299
X74117Y33223
X120091Y-80188
X120167Y32283
X120167Y-136373
X120269Y-24028
X122631Y-80188
X122707Y32283
X122707Y-136373
X122809Y-24028
X159614Y-26086
X159614Y-28626
X159614Y-31166
X162154Y-26086
X162154Y-28626
X162154Y-31166
X168808Y-135661
X168910Y-79502
X168935Y33249
X169164Y-23343
X171348Y-135661
X171450Y-79502
X171475Y33249
X171704Y-23343
X226898Y-79451
X226898Y-135763
X226949Y33325
X226949Y-23292
X229438Y-79451
X229438Y-135763
X229489Y33325
X229489Y-23292
T5
X43986Y-27737
X44138Y28905
X44341Y-139929
X44367Y-84277
X45872Y-146253
X46304Y-33426
X46685Y-89891
X46939Y22301
X56032Y-146253
X56464Y-33426
X56845Y-89891
X57099Y22301
X58986Y-27737
X59138Y28905
X59341Y-139929
X59367Y-84277
X67767Y28270
X68021Y-84379
X68148Y-28016
X68148Y-140716
X77927Y28270
X78181Y-84379
X78308Y-28016
X78308Y-140716
X92855Y-20904
X93135Y-77851
X93160Y-133858
X93236Y35687
X94996Y-14529
X95072Y-127254
X95377Y41732
X96901Y-70460
X105156Y-14529
X105232Y-127254
X105537Y41732
X107061Y-70460
X107855Y-20904
X108135Y-77851
X108160Y-133858
X108236Y35687
X116738Y27254
X117069Y-85268
X117246Y-141351
X119761Y-28829
X119761Y-38989
X126898Y27254
X127229Y-85268
X127406Y-141351
X127508Y38786
X131039Y10947
X131039Y787
X134391Y10922
X134391Y762
X137668Y38786
X137820Y10922
X137820Y762
X141173Y10998
X141173Y838
X141420Y-27229
X141598Y29439
X142131Y-140284
X142233Y-83947
X143662Y22530
X144094Y-146431
X144526Y10998
X144526Y838
X145034Y-90043
X147701Y-33934
X147701Y-44094
X147879Y10998
X147879Y838
X151232Y10998
X151232Y838
X153822Y22530
X154254Y-146431
X154584Y10998
X154584Y838
X155194Y-90043
X156420Y-27229
X156598Y29439
X157131Y-140284
X157233Y-83947
X157861Y10998
X157861Y838
X161163Y10998
X161163Y838
X164490Y10998
X164490Y838
X164846Y28270
X165735Y-84836
X165786Y-140818
X167767Y10998
X167767Y838
X169291Y-29108
X169291Y-39268
X171069Y10998
X171069Y838
X174346Y10998
X174346Y838
X175006Y28270
X175895Y-84836
X175946Y-140818
X177648Y10998
X177648Y838
X178537Y38964
X178537Y28804
X180950Y10998
X180950Y838
X182067Y39014
X182067Y28854
X199764Y-139827
X199967Y-83947
X199993Y-27305
X200170Y28245
X202311Y-146304
X202768Y-90043
X202870Y22657
X205740Y-34061
X205740Y-44221
X212471Y-146304
X212928Y-90043
X213030Y22657
X214764Y-139827
X214967Y-83947
X214993Y-27305
X215170Y28245
X226797Y-120269
X226797Y-130429
X226873Y-84988
X226873Y-95148
X226924Y27864
X226924Y17704
X226924Y-28600
X226924Y-38760
T6
X63652Y-43154
X63652Y-45694
X63652Y-48234
X63652Y-50774
X63652Y-53314
X63652Y-55854
X63652Y-58394
X63652Y-60934
X66192Y-43154
X66192Y-45694
X66192Y-48234
X66192Y-50774
X66192Y-53314
X66192Y-55854
X66192Y-58394
X66192Y-60934
X69444Y-43129
X69444Y-45669
X69444Y-48209
X69444Y-50749
X69444Y-53289
X69444Y-55829
X69444Y-58369
X69444Y-60909
X71984Y-43129
X71984Y-45669
X71984Y-48209
X71984Y-50749
X71984Y-53289
X71984Y-55829
X71984Y-58369
X71984Y-60909
X74981Y-43129
X74981Y-45669
X74981Y-48209
X74981Y-50749
X74981Y-53289
X74981Y-55829
X74981Y-58369
X74981Y-60909
X77521Y-43129
X77521Y-45669
X77521Y-48209
X77521Y-50749
X77521Y-53289
X77521Y-55829
X77521Y-58369
X77521Y-60909
X80518Y-43180
X80518Y-45720
X80518Y-48260
X80518Y-50800
X80518Y-53340
X80518Y-55880
X80518Y-58420
X80518Y-60960
X83058Y-43180
X83058Y-45720
X83058Y-48260
X83058Y-50800
X83058Y-53340
X83058Y-55880
X83058Y-58420
X83058Y-60960
X85979Y-43154
X85979Y-45694
X85979Y-48234
X85979Y-50774
X85979Y-53314
X85979Y-55854
X85979Y-58394
X85979Y-60934
X88519Y-43154
X88519Y-45694
X88519Y-48234
X88519Y-50774
X88519Y-53314
X88519Y-55854
X88519Y-58394
X88519Y-60934
X91618Y-43154
X91618Y-45694
X91618Y-48234
X91618Y-50774
X91618Y-53314
X91618Y-55854
X91618Y-58394
X91618Y-60934
X94158Y-43154
X94158Y-45694
X94158Y-48234
X94158Y-50774
X94158Y-53314
X94158Y-55854
X94158Y-58394
X94158Y-60934
X126340Y-8407
X126390Y-11151
X126390Y-13919
X128905Y-54458
X129134Y-8306
X129134Y-10846
X129134Y-13386
X129134Y-15926
X129134Y-18466
X129134Y-21006
X129134Y-23546
X129134Y-26086
X129134Y-28626
X129134Y-31166
X129134Y-33706
X129134Y-36246
X129134Y-38786
X129134Y-41326
X129134Y-43866
X129134Y-46406
X129134Y-48946
X129134Y-51486
X131191Y42088
X131674Y-8306
X131674Y-10846
X131674Y-13386
X131674Y-15926
X131674Y-18466
X131674Y-21006
X131674Y-23546
X131674Y-26086
X131674Y-28626
X131674Y-31166
X131674Y-33706
X131674Y-36246
X131674Y-38786
X131674Y-41326
X131674Y-43866
X131674Y-46406
X131674Y-48946
X131674Y-51486
X131674Y-54381
X133731Y42088
X134214Y-3226
X134366Y-10516
X134417Y-13259
X136754Y-3226
X139294Y-3226
X139294Y-51486
X141834Y-3226
X141834Y-51486
X144374Y-3226
X144374Y-51486
X146914Y-3226
X146914Y-51486
X149454Y-3226
X149454Y-51486
X149479Y-55016
X151994Y-3226
X151994Y-51486
X152222Y-55067
X154534Y-51486
X154991Y-55143
X157074Y-3226
X157074Y-51486
X157734Y-55169
X159614Y-3226
X162154Y-3226
X162154Y-51486
X164694Y-3226
X164694Y-51486
X165862Y42774
X165862Y39649
X167107Y-55016
X167234Y-3226
X167234Y-51486
X168402Y42774
X169774Y-3226
X169774Y-51486
X169824Y-55093
X170942Y42774
X172314Y-3226
X172314Y-51486
X172593Y-55143
X173482Y42774
X174854Y-3226
X174854Y-51486
X175336Y-55245
X176022Y42774
X177394Y-51486
X178130Y-55321
X178562Y42774
X179934Y-3226
X179934Y-51486
X181102Y42774
X182474Y-3226
X183998Y-51486
X185014Y-3226
X186538Y-51486
X187554Y-3226
X188595Y14605
X188849Y39268
X189078Y-51486
X190094Y-3226
X191363Y14656
X191389Y39268
X191618Y-51486
X192634Y-3226
X194081Y14681
X194158Y-51486
X195174Y-3226
X196647Y-55093
X196698Y-51486
X196850Y14681
X197714Y-3226
X199238Y-51486
X199415Y-55093
X199619Y14681
X201778Y-51486
X204318Y-51486
X206858Y-51486
T7
X79223Y-109423
X79248Y4978
X190779Y-109347
X190805Y4978
T0
M30
