  0
SECTION
  2
HEADER
  9
$ACADVER
  1
AC1014
  9
$HANDSEED
  5
FFFF
  9
$MEASUREMENT
 70
     1
  0
ENDSEC
  0
SECTION
  2
TABLES
  0
TABLE
  2
VPORT
  5
8
330
0
100
AcDbSymbolTable
 70
     4
  0
VPORT
  5
2E
330
8
100
AcDbSymbolTableRecord
100
AcDbViewportTableRecord
  2
*ACTIVE
 70
     0
 10
0.0
 20
0.0
 11
1.0
 21
1.0
 12
210.0
 22
148.5
 13
0.0
 23
0.0
 14
10.0
 24
10.0
 15
10.0
 25
10.0
 16
0.0
 26
0.0
 36
1.0
 17
0.0
 27
0.0
 37
0.0
 40
341.0
 41
1.24
 42
50.0
 43
0.0
 44
0.0
 50
0.0
 51
0.0
 71
     0
 72
   100
 73
     1
 74
     3
 75
     0
 76
     0
 77
     0
 78
     0
  0
ENDTAB
  0
TABLE
  2
LTYPE
  5
5
330
0
100
AcDbSymbolTable
 70
     1
  0
LTYPE
  5
14
330
5
100
AcDbSymbolTableRecord
100
AcDbLinetypeTableRecord
  2
BYBLOCK
 70
     0
  3

 72
    65
 73
     0
 40
0.0
  0
LTYPE
  5
15
330
5
100
AcDbSymbolTableRecord
100
AcDbLinetypeTableRecord
  2
BYLAYER
 70
     0
  3

 72
    65
 73
     0
 40
0.0
  0
LTYPE
  5
16
330
5
100
AcDbSymbolTableRecord
100
AcDbLinetypeTableRecord
  2
CONTINUOUS
 70
     0
  3
Solid line
 72
    65
 73
     0
 40
0.0
  0
ENDTAB
  0
TABLE
  2
LAYER
  5
2
100
AcDbSymbolTable
 70
1
  0
LAYER
  5
50
100
AcDbSymbolTableRecord
100
AcDbLayerTableRecord
  2
0
 70
0
  6
CONTINUOUS
  0
ENDTAB
  0
TABLE
  2
STYLE
  5
3
330
0
100
AcDbSymbolTable
 70
     1
  0
STYLE
  5
11
330
3
100
AcDbSymbolTableRecord
100
AcDbTextStyleTableRecord
  2
STANDARD
 70
     0
 40
0.0
 41
1.0
 50
0.0
 71
     0
 42
2.5
  3
txt
  4

  0
ENDTAB
  0
TABLE
  2
VIEW
  5
6
330
0
100
AcDbSymbolTable
 70
     0
  0
ENDTAB
  0
TABLE
  2
UCS
  5
7
330
0
100
AcDbSymbolTable
 70
     0
  0
ENDTAB
  0
TABLE
  2
APPID
  5
9
330
0
100
AcDbSymbolTable
 70
     2
  0
APPID
  5
12
330
9
100
AcDbSymbolTableRecord
100
AcDbRegAppTableRecord
  2
ACAD
 70
     0
  0
ENDTAB
  0
TABLE
  2
DIMSTYLE
  5
A
330
0
100
AcDbSymbolTable
 70
     1
  0
DIMSTYLE
105
27
330
A
100
AcDbSymbolTableRecord
100
AcDbDimStyleTableRecord
  2
ISO-25
 70
     0
  3

  4

  5

  6

  7

 40
1.0
 41
2.5
 42
0.625
 43
3.75
 44
1.25
 45
0.0
 46
0.0
 47
0.0
 48
0.0
140
2.5
141
2.5
142
0.0
143
0.03937007874016
144
1.0
145
0.0
146
1.0
147
0.625
 71
     0
 72
     0
 73
     0
 74
     0
 75
     0
 76
     0
 77
     1
 78
     8
170
     0
171
     3
172
     1
173
     0
174
     0
175
     0
176
     0
177
     0
178
     0
270
     2
271
     2
272
     2
273
     2
274
     3
340
11
275
     0
280
     0
281
     0
282
     0
283
     0
284
     8
285
     0
286
     0
287
     3
288
     0
  0
ENDTAB
  0
TABLE
  2
BLOCK_RECORD
  5
1
330
0
100
AcDbSymbolTable
 70
     1
  0
BLOCK_RECORD
  5
1F
330
1
100
AcDbSymbolTableRecord
100
AcDbBlockTableRecord
  2
*MODEL_SPACE
  0
BLOCK_RECORD
  5
1B
330
1
100
AcDbSymbolTableRecord
100
AcDbBlockTableRecord
  2
*PAPER_SPACE
  0
ENDTAB
  0
ENDSEC
  0
SECTION
  2
BLOCKS
  0
BLOCK
  5
20
330
1F
100
AcDbEntity
  8
0
100
AcDbBlockBegin
  2
*MODEL_SPACE
 70
     0
 10
0.0
 20
0.0
 30
0.0
  3
*MODEL_SPACE
  1

  0
ENDBLK
  5
21
330
1F
100
AcDbEntity
  8
0
100
AcDbBlockEnd
  0
BLOCK
  5
1C
330
1B
100
AcDbEntity
 67
     1
  8
0
100
AcDbBlockBegin
  2
*PAPER_SPACE
  1

  0
ENDBLK
  5
1D
330
1B
100
AcDbEntity
 67
     1
  8
0
100
AcDbBlockEnd
  0
ENDSEC
  0
SECTION
  2
ENTITIES
  0
LINE
  5
100
100
AcDbEntity
  8
0
 62
7
100
AcDbLine
 10
276.377948
 20
386.865024
 30
0.0
 11
276.377948
 21
366.280411
 31
0.0
  0
LINE
  5
101
100
AcDbEntity
  8
0
 62
7
100
AcDbLine
 10
276.377948
 20
366.280411
 30
0.0
 11
279.376559
 21
366.280411
 31
0.0
  0
LINE
  5
102
100
AcDbEntity
  8
0
 62
7
100
AcDbLine
 10
279.376559
 20
366.280411
 30
0.0
 11
279.376559
 21
345.836964
 31
0.0
  0
LINE
  5
103
100
AcDbEntity
  8
0
 62
7
100
AcDbLine
 10
279.376559
 20
345.836964
 30
0.0
 11
276.377948
 21
345.836964
 31
0.0
  0
LINE
  5
104
100
AcDbEntity
  8
0
 62
7
100
AcDbLine
 10
276.377948
 20
345.836964
 30
0.0
 11
276.377948
 21
325.217074
 31
0.0
  0
LINE
  5
105
100
AcDbEntity
  8
0
 62
7
100
AcDbLine
 10
276.377948
 20
325.217074
 30
0.0
 11
279.376559
 21
325.217074
 31
0.0
  0
LINE
  5
106
100
AcDbEntity
  8
0
 62
7
100
AcDbLine
 10
279.376559
 20
325.217074
 30
0.0
 11
279.376559
 21
304.773628
 31
0.0
  0
LINE
  5
107
100
AcDbEntity
  8
0
 62
7
100
AcDbLine
 10
279.376559
 20
304.773628
 30
0.0
 11
276.377948
 21
304.773628
 31
0.0
  0
LINE
  5
108
100
AcDbEntity
  8
0
 62
7
100
AcDbLine
 10
276.377948
 20
304.773628
 30
0.0
 11
276.377948
 21
284.153738
 31
0.0
  0
LINE
  5
109
100
AcDbEntity
  8
0
 62
7
100
AcDbLine
 10
276.377948
 20
284.153738
 30
0.0
 11
279.376559
 21
284.153738
 31
0.0
  0
LINE
  5
10a
100
AcDbEntity
  8
0
 62
7
100
AcDbLine
 10
279.376559
 20
284.153738
 30
0.0
 11
279.376559
 21
263.710294
 31
0.0
  0
LINE
  5
10b
100
AcDbEntity
  8
0
 62
7
100
AcDbLine
 10
279.376559
 20
263.710294
 30
0.0
 11
276.377948
 21
263.710294
 31
0.0
  0
LINE
  5
10c
100
AcDbEntity
  8
0
 62
7
100
AcDbLine
 10
276.377948
 20
263.710294
 30
0.0
 11
276.377948
 21
243.081597
 31
0.0
  0
LINE
  5
10d
100
AcDbEntity
  8
0
 62
7
100
AcDbLine
 10
276.377948
 20
243.081597
 30
0.0
 11
279.376559
 21
243.081597
 31
0.0
  0
LINE
  5
10e
100
AcDbEntity
  8
0
 62
7
100
AcDbLine
 10
279.376559
 20
243.081597
 30
0.0
 11
279.376559
 21
222.638125
 31
0.0
  0
LINE
  5
10f
100
AcDbEntity
  8
0
 62
7
100
AcDbLine
 10
279.376559
 20
222.638125
 30
0.0
 11
276.377948
 21
222.638125
 31
0.0
  0
LINE
  5
110
100
AcDbEntity
  8
0
 62
7
100
AcDbLine
 10
276.377948
 20
222.638125
 30
0.0
 11
276.377948
 21
202.018261
 31
0.0
  0
LINE
  5
111
100
AcDbEntity
  8
0
 62
7
100
AcDbLine
 10
276.377948
 20
202.018261
 30
0.0
 11
279.376559
 21
202.018261
 31
0.0
  0
LINE
  5
112
100
AcDbEntity
  8
0
 62
7
100
AcDbLine
 10
279.376559
 20
202.018261
 30
0.0
 11
279.376559
 21
181.574788
 31
0.0
  0
LINE
  5
113
100
AcDbEntity
  8
0
 62
7
100
AcDbLine
 10
279.376559
 20
181.574788
 30
0.0
 11
276.377948
 21
181.574788
 31
0.0
  0
LINE
  5
114
100
AcDbEntity
  8
0
 62
7
100
AcDbLine
 10
276.377948
 20
181.574788
 30
0.0
 11
276.377948
 21
160.946128
 31
0.0
  0
LINE
  5
115
100
AcDbEntity
  8
0
 62
7
100
AcDbLine
 10
276.377948
 20
160.946128
 30
0.0
 11
279.376559
 21
160.946128
 31
0.0
  0
LINE
  5
116
100
AcDbEntity
  8
0
 62
7
100
AcDbLine
 10
279.376559
 20
160.946128
 30
0.0
 11
279.376559
 21
140.502627
 31
0.0
  0
LINE
  5
117
100
AcDbEntity
  8
0
 62
7
100
AcDbLine
 10
279.376559
 20
140.502627
 30
0.0
 11
276.377948
 21
140.502627
 31
0.0
  0
LINE
  5
118
100
AcDbEntity
  8
0
 62
7
100
AcDbLine
 10
276.377948
 20
140.502627
 30
0.0
 11
276.377948
 21
119.882794
 31
0.0
  0
LINE
  5
119
100
AcDbEntity
  8
0
 62
7
100
AcDbLine
 10
276.377948
 20
119.882794
 30
0.0
 11
279.376559
 21
119.882794
 31
0.0
  0
LINE
  5
11a
100
AcDbEntity
  8
0
 62
7
100
AcDbLine
 10
279.376559
 20
119.882794
 30
0.0
 11
279.376559
 21
99.439288
 31
0.0
  0
LINE
  5
11b
100
AcDbEntity
  8
0
 62
7
100
AcDbLine
 10
279.376559
 20
99.439288
 30
0.0
 11
276.377948
 21
99.439288
 31
0.0
  0
LINE
  5
11c
100
AcDbEntity
  8
0
 62
7
100
AcDbLine
 10
276.377948
 20
99.439288
 30
0.0
 11
276.377948
 21
78.863538
 31
0.0
  0
LINE
  5
11d
100
AcDbEntity
  8
0
 62
7
100
AcDbLine
 10
276.377948
 20
78.863538
 30
0.0
 11
296.812575
 21
78.863538
 31
0.0
  0
LINE
  5
11e
100
AcDbEntity
  8
0
 62
7
100
AcDbLine
 10
296.812575
 20
78.863538
 30
0.0
 11
296.812575
 21
81.862150
 31
0.0
  0
LINE
  5
11f
100
AcDbEntity
  8
0
 62
7
100
AcDbLine
 10
296.812575
 20
81.862150
 30
0.0
 11
317.106131
 21
81.862150
 31
0.0
  0
LINE
  5
120
100
AcDbEntity
  8
0
 62
7
100
AcDbLine
 10
317.106131
 20
81.862150
 30
0.0
 11
317.106131
 21
78.863538
 31
0.0
  0
LINE
  5
121
100
AcDbEntity
  8
0
 62
7
100
AcDbLine
 10
317.106131
 20
78.863538
 30
0.0
 11
337.576075
 21
78.863538
 31
0.0
  0
LINE
  5
122
100
AcDbEntity
  8
0
 62
7
100
AcDbLine
 10
337.576075
 20
78.863538
 30
0.0
 11
337.576075
 21
81.862150
 31
0.0
  0
LINE
  5
123
100
AcDbEntity
  8
0
 62
7
100
AcDbLine
 10
337.576075
 20
81.862150
 30
0.0
 11
357.869603
 21
81.862150
 31
0.0
  0
LINE
  5
124
100
AcDbEntity
  8
0
 62
7
100
AcDbLine
 10
357.869603
 20
81.862150
 30
0.0
 11
357.869603
 21
78.863538
 31
0.0
  0
LINE
  5
125
100
AcDbEntity
  8
0
 62
7
100
AcDbLine
 10
357.869603
 20
78.863538
 30
0.0
 11
378.348381
 21
78.863538
 31
0.0
  0
LINE
  5
126
100
AcDbEntity
  8
0
 62
7
100
AcDbLine
 10
378.348381
 20
78.863538
 30
0.0
 11
378.348381
 21
81.862150
 31
0.0
  0
LINE
  5
127
100
AcDbEntity
  8
0
 62
7
100
AcDbLine
 10
378.348381
 20
81.862150
 30
0.0
 11
398.641937
 21
81.862150
 31
0.0
  0
LINE
  5
128
100
AcDbEntity
  8
0
 62
7
100
AcDbLine
 10
398.641937
 20
81.862150
 30
0.0
 11
398.641937
 21
78.863538
 31
0.0
  0
LINE
  5
129
100
AcDbEntity
  8
0
 62
7
100
AcDbLine
 10
398.641937
 20
78.863538
 30
0.0
 11
419.120659
 21
78.863538
 31
0.0
  0
LINE
  5
12a
100
AcDbEntity
  8
0
 62
7
100
AcDbLine
 10
419.120659
 20
78.863538
 30
0.0
 11
419.120659
 21
81.862150
 31
0.0
  0
LINE
  5
12b
100
AcDbEntity
  8
0
 62
7
100
AcDbLine
 10
419.120659
 20
81.862150
 30
0.0
 11
439.414214
 21
81.862150
 31
0.0
  0
LINE
  5
12c
100
AcDbEntity
  8
0
 62
7
100
AcDbLine
 10
439.414214
 20
81.862150
 30
0.0
 11
439.414214
 21
78.863538
 31
0.0
  0
LINE
  5
12d
100
AcDbEntity
  8
0
 62
7
100
AcDbLine
 10
439.414214
 20
78.863538
 30
0.0
 11
459.884159
 21
78.863538
 31
0.0
  0
LINE
  5
12e
100
AcDbEntity
  8
0
 62
7
100
AcDbLine
 10
459.884159
 20
78.863538
 30
0.0
 11
459.884159
 21
81.862150
 31
0.0
  0
LINE
  5
12f
100
AcDbEntity
  8
0
 62
7
100
AcDbLine
 10
459.884159
 20
81.862150
 30
0.0
 11
480.177687
 21
81.862150
 31
0.0
  0
LINE
  5
130
100
AcDbEntity
  8
0
 62
7
100
AcDbLine
 10
480.177687
 20
81.862150
 30
0.0
 11
480.177687
 21
78.863538
 31
0.0
  0
LINE
  5
131
100
AcDbEntity
  8
0
 62
7
100
AcDbLine
 10
480.177687
 20
78.863538
 30
0.0
 11
500.656437
 21
78.863538
 31
0.0
  0
LINE
  5
132
100
AcDbEntity
  8
0
 62
7
100
AcDbLine
 10
500.656437
 20
78.863538
 30
0.0
 11
500.656437
 21
81.862150
 31
0.0
  0
LINE
  5
133
100
AcDbEntity
  8
0
 62
7
100
AcDbLine
 10
500.656437
 20
81.862150
 30
0.0
 11
520.949992
 21
81.862150
 31
0.0
  0
LINE
  5
134
100
AcDbEntity
  8
0
 62
7
100
AcDbLine
 10
520.949992
 20
81.862150
 30
0.0
 11
520.949992
 21
78.863538
 31
0.0
  0
LINE
  5
135
100
AcDbEntity
  8
0
 62
7
100
AcDbLine
 10
520.949992
 20
78.863538
 30
0.0
 11
541.375826
 21
78.863538
 31
0.0
  0
LINE
  5
136
100
AcDbEntity
  8
0
 62
7
100
AcDbLine
 10
541.375826
 20
78.863538
 30
0.0
 11
541.375826
 21
99.439288
 31
0.0
  0
LINE
  5
137
100
AcDbEntity
  8
0
 62
7
100
AcDbLine
 10
541.375826
 20
99.439288
 30
0.0
 11
538.377215
 21
99.439288
 31
0.0
  0
LINE
  5
138
100
AcDbEntity
  8
0
 62
7
100
AcDbLine
 10
538.377215
 20
99.439288
 30
0.0
 11
538.377215
 21
119.882794
 31
0.0
  0
LINE
  5
139
100
AcDbEntity
  8
0
 62
7
100
AcDbLine
 10
538.377215
 20
119.882794
 30
0.0
 11
541.375826
 21
119.882794
 31
0.0
  0
LINE
  5
13a
100
AcDbEntity
  8
0
 62
7
100
AcDbLine
 10
541.375826
 20
119.882794
 30
0.0
 11
541.375826
 21
140.502627
 31
0.0
  0
LINE
  5
13b
100
AcDbEntity
  8
0
 62
7
100
AcDbLine
 10
541.375826
 20
140.502627
 30
0.0
 11
538.377215
 21
140.502627
 31
0.0
  0
LINE
  5
13c
100
AcDbEntity
  8
0
 62
7
100
AcDbLine
 10
538.377215
 20
140.502627
 30
0.0
 11
538.377215
 21
160.946128
 31
0.0
  0
LINE
  5
13d
100
AcDbEntity
  8
0
 62
7
100
AcDbLine
 10
538.377215
 20
160.946128
 30
0.0
 11
541.375826
 21
160.946128
 31
0.0
  0
LINE
  5
13e
100
AcDbEntity
  8
0
 62
7
100
AcDbLine
 10
541.375826
 20
160.946128
 30
0.0
 11
541.375826
 21
181.574788
 31
0.0
  0
LINE
  5
13f
100
AcDbEntity
  8
0
 62
7
100
AcDbLine
 10
541.375826
 20
181.574788
 30
0.0
 11
538.377215
 21
181.574788
 31
0.0
  0
LINE
  5
140
100
AcDbEntity
  8
0
 62
7
100
AcDbLine
 10
538.377215
 20
181.574788
 30
0.0
 11
538.377215
 21
202.018261
 31
0.0
  0
LINE
  5
141
100
AcDbEntity
  8
0
 62
7
100
AcDbLine
 10
538.377215
 20
202.018261
 30
0.0
 11
541.375826
 21
202.018261
 31
0.0
  0
LINE
  5
142
100
AcDbEntity
  8
0
 62
7
100
AcDbLine
 10
541.375826
 20
202.018261
 30
0.0
 11
541.375826
 21
222.638125
 31
0.0
  0
LINE
  5
143
100
AcDbEntity
  8
0
 62
7
100
AcDbLine
 10
541.375826
 20
222.638125
 30
0.0
 11
538.377215
 21
222.638125
 31
0.0
  0
LINE
  5
144
100
AcDbEntity
  8
0
 62
7
100
AcDbLine
 10
538.377215
 20
222.638125
 30
0.0
 11
538.377215
 21
243.081597
 31
0.0
  0
LINE
  5
145
100
AcDbEntity
  8
0
 62
7
100
AcDbLine
 10
538.377215
 20
243.081597
 30
0.0
 11
541.375826
 21
243.081597
 31
0.0
  0
LINE
  5
146
100
AcDbEntity
  8
0
 62
7
100
AcDbLine
 10
541.375826
 20
243.081597
 30
0.0
 11
541.375826
 21
263.710294
 31
0.0
  0
LINE
  5
147
100
AcDbEntity
  8
0
 62
7
100
AcDbLine
 10
541.375826
 20
263.710294
 30
0.0
 11
538.377215
 21
263.710294
 31
0.0
  0
LINE
  5
148
100
AcDbEntity
  8
0
 62
7
100
AcDbLine
 10
538.377215
 20
263.710294
 30
0.0
 11
538.377215
 21
284.153738
 31
0.0
  0
LINE
  5
149
100
AcDbEntity
  8
0
 62
7
100
AcDbLine
 10
538.377215
 20
284.153738
 30
0.0
 11
541.375826
 21
284.153738
 31
0.0
  0
LINE
  5
14a
100
AcDbEntity
  8
0
 62
7
100
AcDbLine
 10
541.375826
 20
284.153738
 30
0.0
 11
541.375826
 21
304.773628
 31
0.0
  0
LINE
  5
14b
100
AcDbEntity
  8
0
 62
7
100
AcDbLine
 10
541.375826
 20
304.773628
 30
0.0
 11
538.377215
 21
304.773628
 31
0.0
  0
LINE
  5
14c
100
AcDbEntity
  8
0
 62
7
100
AcDbLine
 10
538.377215
 20
304.773628
 30
0.0
 11
538.377215
 21
325.217074
 31
0.0
  0
LINE
  5
14d
100
AcDbEntity
  8
0
 62
7
100
AcDbLine
 10
538.377215
 20
325.217074
 30
0.0
 11
541.375826
 21
325.217074
 31
0.0
  0
LINE
  5
14e
100
AcDbEntity
  8
0
 62
7
100
AcDbLine
 10
541.375826
 20
325.217074
 30
0.0
 11
541.375826
 21
345.836964
 31
0.0
  0
LINE
  5
14f
100
AcDbEntity
  8
0
 62
7
100
AcDbLine
 10
541.375826
 20
345.836964
 30
0.0
 11
538.377215
 21
345.836964
 31
0.0
  0
LINE
  5
150
100
AcDbEntity
  8
0
 62
7
100
AcDbLine
 10
538.377215
 20
345.836964
 30
0.0
 11
538.377215
 21
366.280411
 31
0.0
  0
LINE
  5
151
100
AcDbEntity
  8
0
 62
7
100
AcDbLine
 10
538.377215
 20
366.280411
 30
0.0
 11
541.375826
 21
366.280411
 31
0.0
  0
LINE
  5
152
100
AcDbEntity
  8
0
 62
7
100
AcDbLine
 10
541.375826
 20
366.280411
 30
0.0
 11
541.375826
 21
386.865024
 31
0.0
  0
LINE
  5
153
100
AcDbEntity
  8
0
 62
7
100
AcDbLine
 10
541.375826
 20
386.865024
 30
0.0
 11
520.949992
 21
386.865024
 31
0.0
  0
LINE
  5
154
100
AcDbEntity
  8
0
 62
7
100
AcDbLine
 10
520.949992
 20
386.865024
 30
0.0
 11
520.949992
 21
383.857579
 31
0.0
  0
LINE
  5
155
100
AcDbEntity
  8
0
 62
7
100
AcDbLine
 10
520.949992
 20
383.857579
 30
0.0
 11
500.656437
 21
383.857579
 31
0.0
  0
LINE
  5
156
100
AcDbEntity
  8
0
 62
7
100
AcDbLine
 10
500.656437
 20
383.857579
 30
0.0
 11
500.656437
 21
386.865024
 31
0.0
  0
LINE
  5
157
100
AcDbEntity
  8
0
 62
7
100
AcDbLine
 10
500.656437
 20
386.865024
 30
0.0
 11
480.177687
 21
386.865024
 31
0.0
  0
LINE
  5
158
100
AcDbEntity
  8
0
 62
7
100
AcDbLine
 10
480.177687
 20
386.865024
 30
0.0
 11
480.177687
 21
383.857579
 31
0.0
  0
LINE
  5
159
100
AcDbEntity
  8
0
 62
7
100
AcDbLine
 10
480.177687
 20
383.857579
 30
0.0
 11
459.884159
 21
383.857579
 31
0.0
  0
LINE
  5
15a
100
AcDbEntity
  8
0
 62
7
100
AcDbLine
 10
459.884159
 20
383.857579
 30
0.0
 11
459.884159
 21
386.865024
 31
0.0
  0
LINE
  5
15b
100
AcDbEntity
  8
0
 62
7
100
AcDbLine
 10
459.884159
 20
386.865024
 30
0.0
 11
439.414214
 21
386.865024
 31
0.0
  0
LINE
  5
15c
100
AcDbEntity
  8
0
 62
7
100
AcDbLine
 10
439.414214
 20
386.865024
 30
0.0
 11
439.414214
 21
383.857579
 31
0.0
  0
LINE
  5
15d
100
AcDbEntity
  8
0
 62
7
100
AcDbLine
 10
439.414214
 20
383.857579
 30
0.0
 11
419.120659
 21
383.857579
 31
0.0
  0
LINE
  5
15e
100
AcDbEntity
  8
0
 62
7
100
AcDbLine
 10
419.120659
 20
383.857579
 30
0.0
 11
419.120659
 21
386.865024
 31
0.0
  0
LINE
  5
15f
100
AcDbEntity
  8
0
 62
7
100
AcDbLine
 10
419.120659
 20
386.865024
 30
0.0
 11
398.641937
 21
386.865024
 31
0.0
  0
LINE
  5
160
100
AcDbEntity
  8
0
 62
7
100
AcDbLine
 10
398.641937
 20
386.865024
 30
0.0
 11
398.641937
 21
383.857579
 31
0.0
  0
LINE
  5
161
100
AcDbEntity
  8
0
 62
7
100
AcDbLine
 10
398.641937
 20
383.857579
 30
0.0
 11
378.348381
 21
383.857579
 31
0.0
  0
LINE
  5
162
100
AcDbEntity
  8
0
 62
7
100
AcDbLine
 10
378.348381
 20
383.857579
 30
0.0
 11
378.348381
 21
386.865024
 31
0.0
  0
LINE
  5
163
100
AcDbEntity
  8
0
 62
7
100
AcDbLine
 10
378.348381
 20
386.865024
 30
0.0
 11
357.869603
 21
386.865024
 31
0.0
  0
LINE
  5
164
100
AcDbEntity
  8
0
 62
7
100
AcDbLine
 10
357.869603
 20
386.865024
 30
0.0
 11
357.869603
 21
383.857579
 31
0.0
  0
LINE
  5
165
100
AcDbEntity
  8
0
 62
7
100
AcDbLine
 10
357.869603
 20
383.857579
 30
0.0
 11
337.576075
 21
383.857579
 31
0.0
  0
LINE
  5
166
100
AcDbEntity
  8
0
 62
7
100
AcDbLine
 10
337.576075
 20
383.857579
 30
0.0
 11
337.576075
 21
386.865024
 31
0.0
  0
LINE
  5
167
100
AcDbEntity
  8
0
 62
7
100
AcDbLine
 10
337.576075
 20
386.865024
 30
0.0
 11
317.106131
 21
386.865024
 31
0.0
  0
LINE
  5
168
100
AcDbEntity
  8
0
 62
7
100
AcDbLine
 10
317.106131
 20
386.865024
 30
0.0
 11
317.106131
 21
383.857579
 31
0.0
  0
LINE
  5
169
100
AcDbEntity
  8
0
 62
7
100
AcDbLine
 10
317.106131
 20
383.857579
 30
0.0
 11
296.812575
 21
383.857579
 31
0.0
  0
LINE
  5
16a
100
AcDbEntity
  8
0
 62
7
100
AcDbLine
 10
296.812575
 20
383.857579
 30
0.0
 11
296.812575
 21
386.865024
 31
0.0
  0
LINE
  5
16b
100
AcDbEntity
  8
0
 62
7
100
AcDbLine
 10
296.812575
 20
386.865024
 30
0.0
 11
276.377948
 21
386.865024
 31
0.0
  0
LINE
  5
16c
100
AcDbEntity
  8
0
 62
7
100
AcDbLine
 10
276.377948
 20
386.865024
 30
0.0
 11
276.377948
 21
386.865024
 31
0.0
  0
LINE
  5
16d
100
AcDbEntity
  8
0
 62
7
100
AcDbLine
 10
320.951408
 20
353.615686
 30
0.0
 11
496.802325
 21
353.615686
 31
0.0
  0
LINE
  5
16e
100
AcDbEntity
  8
0
 62
7
100
AcDbLine
 10
517.536853
 20
333.780769
 30
0.0
 11
517.536853
 21
131.947794
 31
0.0
  0
SPLINE
  5
16f
100
AcDbEntity
  8
0
 62
7
100
AcDbSpline
 70
0
 71
3
 72
10
 73
6
 74
4
 40
0.000000
 40
0.000000
 40
0.000000
 40
0.000000
 40
10.822331
 40
21.105783
 40
31.521825
 40
31.521825
 40
31.521825
 40
31.521825
 10
496.802325
 20
353.615686
 30
0.0
 10
500.427146
 20
353.083995
 30
0.0
 10
507.496296
 20
352.047088
 30
0.0
 10
515.813392
 20
344.219050
 30
0.0
 10
516.959918
 20
337.275023
 30
0.0
 10
517.536853
 20
333.780769
 30
0.0
 11
496.802325
 21
353.615686
 31
0.0
 11
507.282303
 21
350.915143
 31
0.0
 11
514.713414
 21
343.806841
 31
0.0
 11
517.536853
 21
333.780769
 31
0.0
  0
LINE
  5
170
100
AcDbEntity
  8
0
 62
7
100
AcDbLine
 10
496.802325
 20
112.112844
 30
0.0
 11
320.951408
 21
112.112844
 31
0.0
  0
SPLINE
  5
171
100
AcDbEntity
  8
0
 62
7
100
AcDbSpline
 70
0
 71
3
 72
10
 73
6
 74
4
 40
0.000000
 40
0.000000
 40
0.000000
 40
0.000000
 40
10.416050
 40
20.699513
 40
31.521847
 40
31.521847
 40
31.521847
 40
31.521847
 10
517.536853
 20
131.947794
 30
0.0
 10
516.959918
 20
128.453538
 30
0.0
 10
515.813390
 20
121.509506
 30
0.0
 10
507.496301
 20
113.681450
 30
0.0
 10
500.427147
 20
112.644538
 30
0.0
 10
496.802325
 20
112.112844
 30
0.0
 11
517.536853
 21
131.947794
 31
0.0
 11
514.713414
 21
121.921714
 31
0.0
 11
507.282303
 21
114.813395
 31
0.0
 11
496.802325
 21
112.112844
 31
0.0
  0
LINE
  5
172
100
AcDbEntity
  8
0
 62
7
100
AcDbLine
 10
300.225714
 20
131.947794
 30
0.0
 11
300.225714
 21
333.780769
 31
0.0
  0
SPLINE
  5
173
100
AcDbEntity
  8
0
 62
7
100
AcDbSpline
 70
0
 71
3
 72
10
 73
6
 74
4
 40
0.000000
 40
0.000000
 40
0.000000
 40
0.000000
 40
10.820104
 40
21.100498
 40
31.515929
 40
31.515929
 40
31.515929
 40
31.515929
 10
320.951408
 20
112.112844
 30
0.0
 10
317.327184
 20
112.644404
 30
0.0
 10
310.259512
 20
113.681010
 30
0.0
 10
301.946815
 20
121.510813
 30
0.0
 10
300.801904
 20
128.453700
 30
0.0
 10
300.225714
 20
131.947794
 30
0.0
 11
320.951408
 21
112.112844
 31
0.0
 11
310.473734
 21
114.813395
 31
0.0
 11
303.046869
 21
121.921714
 31
0.0
 11
300.225714
 21
131.947794
 31
0.0
  0
LINE
  5
174
100
AcDbEntity
  8
0
 62
7
100
AcDbLine
 10
320.951408
 20
353.615686
 30
0.0
 11
320.951408
 21
353.615686
 31
0.0
  0
LINE
  5
175
100
AcDbEntity
  8
0
 62
7
100
AcDbLine
 10
582.236834
 20
56.783460
 30
0.0
 11
579.238223
 21
56.783460
 31
0.0
  0
LINE
  5
176
100
AcDbEntity
  8
0
 62
7
100
AcDbLine
 10
579.238223
 20
56.783460
 30
0.0
 11
579.238223
 21
73.734432
 31
0.0
  0
LINE
  5
177
100
AcDbEntity
  8
0
 62
7
100
AcDbLine
 10
579.238223
 20
73.734432
 30
0.0
 11
561.899195
 21
73.734432
 31
0.0
  0
LINE
  5
178
100
AcDbEntity
  8
0
 62
7
100
AcDbLine
 10
561.899195
 20
73.734432
 30
0.0
 11
561.899195
 21
76.741876
 31
0.0
  0
LINE
  5
179
100
AcDbEntity
  8
0
 62
7
100
AcDbLine
 10
561.899195
 20
76.741876
 30
0.0
 11
541.420445
 21
76.741876
 31
0.0
  0
LINE
  5
17a
100
AcDbEntity
  8
0
 62
7
100
AcDbLine
 10
541.420445
 20
76.741876
 30
0.0
 11
541.420445
 21
73.734432
 31
0.0
  0
LINE
  5
17b
100
AcDbEntity
  8
0
 62
7
100
AcDbLine
 10
541.420445
 20
73.734432
 30
0.0
 11
521.126918
 21
73.734432
 31
0.0
  0
LINE
  5
17c
100
AcDbEntity
  8
0
 62
7
100
AcDbLine
 10
521.126918
 20
73.734432
 30
0.0
 11
521.126918
 21
76.741876
 31
0.0
  0
LINE
  5
17d
100
AcDbEntity
  8
0
 62
7
100
AcDbLine
 10
521.126918
 20
76.741876
 30
0.0
 11
500.648168
 21
76.741876
 31
0.0
  0
LINE
  5
17e
100
AcDbEntity
  8
0
 62
7
100
AcDbLine
 10
500.648168
 20
76.741876
 30
0.0
 11
500.648168
 21
73.734432
 31
0.0
  0
LINE
  5
17f
100
AcDbEntity
  8
0
 62
7
100
AcDbLine
 10
500.648168
 20
73.734432
 30
0.0
 11
480.354612
 21
73.734432
 31
0.0
  0
LINE
  5
180
100
AcDbEntity
  8
0
 62
7
100
AcDbLine
 10
480.354612
 20
73.734432
 30
0.0
 11
480.354612
 21
76.741876
 31
0.0
  0
LINE
  5
181
100
AcDbEntity
  8
0
 62
7
100
AcDbLine
 10
480.354612
 20
76.741876
 30
0.0
 11
459.884695
 21
76.741876
 31
0.0
  0
LINE
  5
182
100
AcDbEntity
  8
0
 62
7
100
AcDbLine
 10
459.884695
 20
76.741876
 30
0.0
 11
459.884695
 21
73.734432
 31
0.0
  0
LINE
  5
183
100
AcDbEntity
  8
0
 62
7
100
AcDbLine
 10
459.884695
 20
73.734432
 30
0.0
 11
439.591140
 21
73.734432
 31
0.0
  0
LINE
  5
184
100
AcDbEntity
  8
0
 62
7
100
AcDbLine
 10
439.591140
 20
73.734432
 30
0.0
 11
439.591140
 21
76.741876
 31
0.0
  0
LINE
  5
185
100
AcDbEntity
  8
0
 62
7
100
AcDbLine
 10
439.591140
 20
76.741876
 30
0.0
 11
419.112390
 21
76.741876
 31
0.0
  0
LINE
  5
186
100
AcDbEntity
  8
0
 62
7
100
AcDbLine
 10
419.112390
 20
76.741876
 30
0.0
 11
419.112390
 21
73.734432
 31
0.0
  0
LINE
  5
187
100
AcDbEntity
  8
0
 62
7
100
AcDbLine
 10
419.112390
 20
73.734432
 30
0.0
 11
398.818862
 21
73.734432
 31
0.0
  0
LINE
  5
188
100
AcDbEntity
  8
0
 62
7
100
AcDbLine
 10
398.818862
 20
73.734432
 30
0.0
 11
398.818862
 21
76.741876
 31
0.0
  0
LINE
  5
189
100
AcDbEntity
  8
0
 62
7
100
AcDbLine
 10
398.818862
 20
76.741876
 30
0.0
 11
378.348917
 21
76.741876
 31
0.0
  0
LINE
  5
18a
100
AcDbEntity
  8
0
 62
7
100
AcDbLine
 10
378.348917
 20
76.741876
 30
0.0
 11
378.348917
 21
73.734432
 31
0.0
  0
LINE
  5
18b
100
AcDbEntity
  8
0
 62
7
100
AcDbLine
 10
378.348917
 20
73.734432
 30
0.0
 11
358.046528
 21
73.734432
 31
0.0
  0
LINE
  5
18c
100
AcDbEntity
  8
0
 62
7
100
AcDbLine
 10
358.046528
 20
73.734432
 30
0.0
 11
358.046528
 21
76.741876
 31
0.0
  0
LINE
  5
18d
100
AcDbEntity
  8
0
 62
7
100
AcDbLine
 10
358.046528
 20
76.741876
 30
0.0
 11
337.576612
 21
76.741876
 31
0.0
  0
LINE
  5
18e
100
AcDbEntity
  8
0
 62
7
100
AcDbLine
 10
337.576612
 20
76.741876
 30
0.0
 11
337.576612
 21
73.734432
 31
0.0
  0
LINE
  5
18f
100
AcDbEntity
  8
0
 62
7
100
AcDbLine
 10
337.576612
 20
73.734432
 30
0.0
 11
320.237556
 21
73.734432
 31
0.0
  0
LINE
  5
190
100
AcDbEntity
  8
0
 62
7
100
AcDbLine
 10
320.237556
 20
73.734432
 30
0.0
 11
320.237556
 21
56.783460
 31
0.0
  0
LINE
  5
191
100
AcDbEntity
  8
0
 62
7
100
AcDbLine
 10
320.237556
 20
56.783460
 30
0.0
 11
317.238944
 21
56.783460
 31
0.0
  0
LINE
  5
192
100
AcDbEntity
  8
0
 62
7
100
AcDbLine
 10
317.238944
 20
56.783460
 30
0.0
 11
317.238944
 21
46.791015
 31
0.0
  0
LINE
  5
193
100
AcDbEntity
  8
0
 62
7
100
AcDbLine
 10
317.238944
 20
46.791015
 30
0.0
 11
317.238944
 21
36.886765
 31
0.0
  0
LINE
  5
194
100
AcDbEntity
  8
0
 62
7
100
AcDbLine
 10
317.238944
 20
36.886765
 30
0.0
 11
317.238944
 21
26.894348
 31
0.0
  0
LINE
  5
195
100
AcDbEntity
  8
0
 62
7
100
AcDbLine
 10
317.238944
 20
26.894348
 30
0.0
 11
320.237556
 21
26.894348
 31
0.0
  0
LINE
  5
196
100
AcDbEntity
  8
0
 62
7
100
AcDbLine
 10
320.237556
 20
26.894348
 30
0.0
 11
320.237556
 21
9.943348
 31
0.0
  0
LINE
  5
197
100
AcDbEntity
  8
0
 62
7
100
AcDbLine
 10
320.237556
 20
9.943348
 30
0.0
 11
337.576612
 21
9.943348
 31
0.0
  0
LINE
  5
198
100
AcDbEntity
  8
0
 62
7
100
AcDbLine
 10
337.576612
 20
9.943348
 30
0.0
 11
337.576612
 21
6.935931
 31
0.0
  0
LINE
  5
199
100
AcDbEntity
  8
0
 62
7
100
AcDbLine
 10
337.576612
 20
6.935931
 30
0.0
 11
358.046528
 21
6.935931
 31
0.0
  0
LINE
  5
19a
100
AcDbEntity
  8
0
 62
7
100
AcDbLine
 10
358.046528
 20
6.935931
 30
0.0
 11
358.046528
 21
9.943348
 31
0.0
  0
LINE
  5
19b
100
AcDbEntity
  8
0
 62
7
100
AcDbLine
 10
358.046528
 20
9.943348
 30
0.0
 11
378.348917
 21
9.943348
 31
0.0
  0
LINE
  5
19c
100
AcDbEntity
  8
0
 62
7
100
AcDbLine
 10
378.348917
 20
9.943348
 30
0.0
 11
378.348917
 21
6.935931
 31
0.0
  0
LINE
  5
19d
100
AcDbEntity
  8
0
 62
7
100
AcDbLine
 10
378.348917
 20
6.935931
 30
0.0
 11
398.818862
 21
6.935931
 31
0.0
  0
LINE
  5
19e
100
AcDbEntity
  8
0
 62
7
100
AcDbLine
 10
398.818862
 20
6.935931
 30
0.0
 11
398.818862
 21
9.943348
 31
0.0
  0
LINE
  5
19f
100
AcDbEntity
  8
0
 62
7
100
AcDbLine
 10
398.818862
 20
9.943348
 30
0.0
 11
419.112390
 21
9.943348
 31
0.0
  0
LINE
  5
1a0
100
AcDbEntity
  8
0
 62
7
100
AcDbLine
 10
419.112390
 20
9.943348
 30
0.0
 11
419.112390
 21
6.935931
 31
0.0
  0
LINE
  5
1a1
100
AcDbEntity
  8
0
 62
7
100
AcDbLine
 10
419.112390
 20
6.935931
 30
0.0
 11
439.591140
 21
6.935931
 31
0.0
  0
LINE
  5
1a2
100
AcDbEntity
  8
0
 62
7
100
AcDbLine
 10
439.591140
 20
6.935931
 30
0.0
 11
439.591140
 21
9.943348
 31
0.0
  0
LINE
  5
1a3
100
AcDbEntity
  8
0
 62
7
100
AcDbLine
 10
439.591140
 20
9.943348
 30
0.0
 11
459.884695
 21
9.943348
 31
0.0
  0
LINE
  5
1a4
100
AcDbEntity
  8
0
 62
7
100
AcDbLine
 10
459.884695
 20
9.943348
 30
0.0
 11
459.884695
 21
6.935931
 31
0.0
  0
LINE
  5
1a5
100
AcDbEntity
  8
0
 62
7
100
AcDbLine
 10
459.884695
 20
6.935931
 30
0.0
 11
480.354612
 21
6.935931
 31
0.0
  0
LINE
  5
1a6
100
AcDbEntity
  8
0
 62
7
100
AcDbLine
 10
480.354612
 20
6.935931
 30
0.0
 11
480.354612
 21
9.943348
 31
0.0
  0
LINE
  5
1a7
100
AcDbEntity
  8
0
 62
7
100
AcDbLine
 10
480.354612
 20
9.943348
 30
0.0
 11
500.648168
 21
9.943348
 31
0.0
  0
LINE
  5
1a8
100
AcDbEntity
  8
0
 62
7
100
AcDbLine
 10
500.648168
 20
9.943348
 30
0.0
 11
500.648168
 21
6.935931
 31
0.0
  0
LINE
  5
1a9
100
AcDbEntity
  8
0
 62
7
100
AcDbLine
 10
500.648168
 20
6.935931
 30
0.0
 11
521.126918
 21
6.935931
 31
0.0
  0
LINE
  5
1aa
100
AcDbEntity
  8
0
 62
7
100
AcDbLine
 10
521.126918
 20
6.935931
 30
0.0
 11
521.126918
 21
9.943348
 31
0.0
  0
LINE
  5
1ab
100
AcDbEntity
  8
0
 62
7
100
AcDbLine
 10
521.126918
 20
9.943348
 30
0.0
 11
541.420445
 21
9.943348
 31
0.0
  0
LINE
  5
1ac
100
AcDbEntity
  8
0
 62
7
100
AcDbLine
 10
541.420445
 20
9.943348
 30
0.0
 11
541.420445
 21
6.935931
 31
0.0
  0
LINE
  5
1ad
100
AcDbEntity
  8
0
 62
7
100
AcDbLine
 10
541.420445
 20
6.935931
 30
0.0
 11
561.899195
 21
6.935931
 31
0.0
  0
LINE
  5
1ae
100
AcDbEntity
  8
0
 62
7
100
AcDbLine
 10
561.899195
 20
6.935931
 30
0.0
 11
561.899195
 21
9.943348
 31
0.0
  0
LINE
  5
1af
100
AcDbEntity
  8
0
 62
7
100
AcDbLine
 10
561.899195
 20
9.943348
 30
0.0
 11
579.238223
 21
9.943348
 31
0.0
  0
LINE
  5
1b0
100
AcDbEntity
  8
0
 62
7
100
AcDbLine
 10
579.238223
 20
9.943348
 30
0.0
 11
579.238223
 21
26.894348
 31
0.0
  0
LINE
  5
1b1
100
AcDbEntity
  8
0
 62
7
100
AcDbLine
 10
579.238223
 20
26.894348
 30
0.0
 11
582.236834
 21
26.894348
 31
0.0
  0
LINE
  5
1b2
100
AcDbEntity
  8
0
 62
7
100
AcDbLine
 10
582.236834
 20
26.894348
 30
0.0
 11
582.236834
 21
36.886765
 31
0.0
  0
LINE
  5
1b3
100
AcDbEntity
  8
0
 62
7
100
AcDbLine
 10
582.236834
 20
36.886765
 30
0.0
 11
582.236834
 21
46.791015
 31
0.0
  0
LINE
  5
1b4
100
AcDbEntity
  8
0
 62
7
100
AcDbLine
 10
582.236834
 20
46.791015
 30
0.0
 11
582.236834
 21
56.783460
 31
0.0
  0
LINE
  5
1b5
100
AcDbEntity
  8
0
 62
7
100
AcDbLine
 10
582.236834
 20
56.783460
 30
0.0
 11
582.236834
 21
56.783460
 31
0.0
  0
LINE
  5
1b6
100
AcDbEntity
  8
0
 62
7
100
AcDbLine
 10
412.598785
 20
307.096712
 30
0.0
 11
412.598785
 21
288.561090
 31
0.0
  0
LINE
  5
1b7
100
AcDbEntity
  8
0
 62
7
100
AcDbLine
 10
412.598785
 20
288.561090
 30
0.0
 11
414.103030
 21
288.561090
 31
0.0
  0
SPLINE
  5
1b8
100
AcDbEntity
  8
0
 62
7
100
AcDbSpline
 70
0
 71
3
 72
10
 73
6
 74
4
 40
0.000000
 40
0.000000
 40
0.000000
 40
0.000000
 40
10.415423
 40
20.695806
 40
31.515907
 40
31.515907
 40
31.515907
 40
31.515907
 10
300.225714
 20
333.780769
 30
0.0
 10
300.801904
 20
337.274861
 30
0.0
 10
301.946813
 20
344.217743
 30
0.0
 10
310.259518
 20
352.047528
 30
0.0
 10
317.327185
 20
353.084128
 30
0.0
 10
320.951408
 20
353.615686
 30
0.0
 11
300.225714
 21
333.780769
 31
0.0
 11
303.046869
 21
343.806841
 31
0.0
 11
310.473734
 21
350.915143
 31
0.0
 11
320.951408
 21
353.615686
 31
0.0
  0
LINE
  5
1b9
100
AcDbEntity
  8
0
 62
7
100
AcDbLine
 10
416.559605
 20
286.405110
 30
0.0
 11
416.559605
 21
280.280633
 31
0.0
  0
LINE
  5
1ba
100
AcDbEntity
  8
0
 62
7
100
AcDbLine
 10
416.559605
 20
280.280633
 30
0.0
 11
416.678590
 21
280.280633
 31
0.0
  0
LINE
  5
1bb
100
AcDbEntity
  8
0
 62
7
100
AcDbLine
 10
416.678590
 20
280.280633
 30
0.0
 11
427.792614
 21
273.221268
 31
0.0
  0
LINE
  5
1bc
100
AcDbEntity
  8
0
 62
7
100
AcDbLine
 10
427.792614
 20
273.221268
 30
0.0
 11
438.906525
 21
280.280633
 31
0.0
  0
LINE
  5
1bd
100
AcDbEntity
  8
0
 62
7
100
AcDbLine
 10
438.906525
 20
280.280633
 30
0.0
 11
439.068887
 21
280.280633
 31
0.0
  0
LINE
  5
1be
100
AcDbEntity
  8
0
 62
7
100
AcDbLine
 10
439.068887
 20
280.280633
 30
0.0
 11
439.068887
 21
291.957239
 31
0.0
  0
SPLINE
  5
1bf
100
AcDbEntity
  8
0
 62
7
100
AcDbSpline
 70
0
 71
3
 72
10
 73
6
 74
4
 40
0.000000
 40
0.000000
 40
0.000000
 40
0.000000
 40
1.275163
 40
2.446124
 40
3.587933
 40
3.587933
 40
3.587933
 40
3.587933
 10
414.103030
 20
288.561090
 30
0.0
 10
414.529130
 20
288.505345
 30
0.0
 10
415.346511
 20
288.398411
 30
0.0
 10
416.344825
 20
287.564787
 30
0.0
 10
416.488616
 20
286.788406
 30
0.0
 10
416.559605
 20
286.405110
 30
0.0
 11
414.103030
 21
288.561090
 31
0.0
 11
415.344164
 21
288.268468
 31
0.0
 11
416.224837
 21
287.496740
 31
0.0
 11
416.559605
 21
286.405110
 31
0.0
  0
LINE
  5
1c0
100
AcDbEntity
  8
0
 62
7
100
AcDbLine
 10
421.894706
 20
307.096712
 30
0.0
 11
412.598785
 21
307.096712
 31
0.0
  0
LINE
  5
1c1
100
AcDbEntity
  8
0
 62
7
100
AcDbLine
 10
412.598785
 20
307.096712
 30
0.0
 11
412.598785
 21
307.096712
 31
0.0
  0
SPLINE
  5
1c2
100
AcDbEntity
  8
0
 62
7
100
AcDbSpline
 70
0
 71
3
 72
10
 73
6
 74
4
 40
0.000000
 40
0.000000
 40
0.000000
 40
0.000000
 40
8.002718
 40
16.206705
 40
25.130199
 40
25.130199
 40
25.130199
 40
25.130199
 10
439.068887
 20
291.957239
 30
0.0
 10
438.573369
 20
294.643108
 30
0.0
 10
437.569869
 20
300.082395
 30
0.0
 10
430.601047
 20
305.947780
 30
0.0
 10
424.876973
 20
306.703157
 30
0.0
 10
421.894706
 20
307.096712
 30
0.0
 11
439.068887
 21
291.957239
 31
0.0
 11
436.731182
 21
299.610907
 31
0.0
 11
430.576992
 21
305.035973
 31
0.0
 11
421.894706
 21
307.096712
 31
0.0
  0
LINE
  5
1c3
100
AcDbEntity
  8
0
 62
1
100
AcDbLine
 10
418.628463
 20
281.310434
 30
0.0
 11
418.628463
 21
303.376458
 31
0.0
  0
SPLINE
  5
1c4
100
AcDbEntity
  8
0
 62
1
100
AcDbSpline
 70
0
 71
3
 72
16
 73
12
 74
10
 40
0.000000
 40
0.000000
 40
0.000000
 40
0.000000
 40
6.465299
 40
12.736503
 40
19.195778
 40
25.655044
 40
31.926234
 40
38.391543
 40
40.354287
 40
42.265259
 40
44.144558
 40
44.144558
 40
44.144558
 40
44.144558
 10
424.181383
 20
304.702423
 30
0.0
 10
426.361149
 20
304.362932
 30
0.0
 10
430.655241
 20
303.694142
 30
0.0
 10
435.384551
 20
298.777152
 30
0.0
 10
437.139137
 20
292.360215
 30
0.0
 10
435.382460
 20
285.876449
 30
0.0
 10
430.663461
 20
281.156126
 30
0.0
 10
425.676916
 20
279.819214
 30
0.0
 10
422.236042
 20
280.100109
 30
0.0
 10
420.355399
 20
280.534003
 30
0.0
 10
419.200893
 20
281.053069
 30
0.0
 10
418.628463
 20
281.310434
 30
0.0
 11
424.181383
 21
304.702423
 31
0.0
 11
430.422761
 21
303.015622
 31
0.0
 11
434.859566
 21
298.583607
 31
0.0
 11
436.548191
 21
292.348964
 31
0.0
 11
434.859572
 21
286.114328
 31
0.0
 11
430.422773
 21
281.682327
 31
0.0
 11
424.181383
 21
279.995533
 31
0.0
 11
422.224687
 21
280.149501
 31
0.0
 11
420.366531
 21
280.595671
 31
0.0
 11
418.628463
 21
281.310434
 31
0.0
  0
LINE
  5
1c5
100
AcDbEntity
  8
0
 62
1
100
AcDbLine
 10
424.181383
 20
304.702423
 30
0.0
 11
424.181383
 21
304.702423
 31
0.0
  0
SPLINE
  5
1c6
100
AcDbEntity
  8
0
 62
1
100
AcDbSpline
 70
0
 71
3
 72
10
 73
6
 74
4
 40
0.000000
 40
0.000000
 40
0.000000
 40
0.000000
 40
1.880520
 40
3.792491
 40
5.755635
 40
5.755635
 40
5.755635
 40
5.755635
 10
418.628463
 20
303.376458
 30
0.0
 10
419.200996
 20
303.633487
 30
0.0
 10
420.355639
 20
304.151844
 30
0.0
 10
422.234616
 20
304.609887
 30
0.0
 10
423.526773
 20
304.671307
 30
0.0
 10
424.181383
 20
304.702423
 30
0.0
 11
418.628463
 21
303.376458
 31
0.0
 11
420.366581
 21
304.094303
 31
0.0
 11
422.224505
 21
304.545692
 31
0.0
 11
424.181383
 21
304.702423
 31
0.0
  0
LINE
  5
1c7
100
AcDbEntity
  8
0
 62
1
100
AcDbLine
 10
449.065170
 20
276.930430
 30
0.0
 11
449.065170
 21
298.996482
 31
0.0
  0
SPLINE
  5
1c8
100
AcDbEntity
  8
0
 62
1
100
AcDbSpline
 70
0
 71
3
 72
16
 73
12
 74
10
 40
0.000000
 40
0.000000
 40
0.000000
 40
0.000000
 40
6.465299
 40
12.736503
 40
19.195778
 40
25.655063
 40
31.926258
 40
38.391568
 40
40.354312
 40
42.265283
 40
44.144583
 40
44.144583
 40
44.144583
 40
44.144583
 10
454.618090
 20
300.322447
 30
0.0
 10
456.797856
 20
299.982956
 30
0.0
 10
461.091948
 20
299.314166
 30
0.0
 10
465.821258
 20
294.397175
 30
0.0
 10
467.575844
 20
287.980233
 30
0.0
 10
465.819171
 20
281.496457
 30
0.0
 10
461.100171
 20
276.776123
 30
0.0
 10
456.113623
 20
275.439209
 30
0.0
 10
452.672749
 20
275.720105
 30
0.0
 10
450.792106
 20
276.153998
 30
0.0
 10
449.637600
 20
276.673065
 30
0.0
 10
449.065170
 20
276.930430
 30
0.0
 11
454.618090
 21
300.322447
 31
0.0
 11
460.859468
 21
298.635646
 31
0.0
 11
465.296273
 21
294.203631
 31
0.0
 11
466.984898
 21
287.968988
 31
0.0
 11
465.296279
 21
281.734332
 31
0.0
 11
460.859480
 21
277.302323
 31
0.0
 11
454.618090
 21
275.615528
 31
0.0
 11
452.661394
 21
275.769497
 31
0.0
 11
450.803238
 21
276.215667
 31
0.0
 11
449.065170
 21
276.930430
 31
0.0
  0
LINE
  5
1c9
100
AcDbEntity
  8
0
 62
1
100
AcDbLine
 10
454.618090
 20
300.322447
 30
0.0
 11
454.618090
 21
300.322447
 31
0.0
  0
LINE
  5
1ca
100
AcDbEntity
  8
0
 62
7
100
AcDbLine
 10
443.035492
 20
273.221268
 30
0.0
 11
443.035492
 21
291.756861
 31
0.0
  0
LINE
  5
1cb
100
AcDbEntity
  8
0
 62
7
100
AcDbLine
 10
443.035492
 20
291.756861
 30
0.0
 11
444.539737
 21
291.756861
 31
0.0
  0
SPLINE
  5
1cc
100
AcDbEntity
  8
0
 62
1
100
AcDbSpline
 70
0
 71
3
 72
10
 73
6
 74
4
 40
0.000000
 40
0.000000
 40
0.000000
 40
0.000000
 40
1.880520
 40
3.792491
 40
5.755635
 40
5.755635
 40
5.755635
 40
5.755635
 10
449.065170
 20
298.996482
 30
0.0
 10
449.637704
 20
299.253511
 30
0.0
 10
450.792346
 20
299.771868
 30
0.0
 10
452.671323
 20
300.229911
 30
0.0
 10
453.963480
 20
300.291331
 30
0.0
 10
454.618090
 20
300.322447
 30
0.0
 11
449.065170
 21
298.996482
 31
0.0
 11
450.803288
 21
299.714327
 31
0.0
 11
452.661212
 21
300.165716
 31
0.0
 11
454.618090
 21
300.322447
 31
0.0
  0
LINE
  5
1cd
100
AcDbEntity
  8
0
 62
7
100
AcDbLine
 10
446.996312
 20
293.912842
 30
0.0
 11
446.996312
 21
300.037346
 31
0.0
  0
LINE
  5
1ce
100
AcDbEntity
  8
0
 62
7
100
AcDbLine
 10
446.996312
 20
300.037346
 30
0.0
 11
447.115297
 21
300.037346
 31
0.0
  0
LINE
  5
1cf
100
AcDbEntity
  8
0
 62
7
100
AcDbLine
 10
447.115297
 20
300.037346
 30
0.0
 11
458.229321
 21
307.096712
 31
0.0
  0
LINE
  5
1d0
100
AcDbEntity
  8
0
 62
7
100
AcDbLine
 10
458.229321
 20
307.096712
 30
0.0
 11
469.343232
 21
300.037346
 31
0.0
  0
LINE
  5
1d1
100
AcDbEntity
  8
0
 62
7
100
AcDbLine
 10
469.343232
 20
300.037346
 30
0.0
 11
469.505594
 21
300.037346
 31
0.0
  0
LINE
  5
1d2
100
AcDbEntity
  8
0
 62
7
100
AcDbLine
 10
469.505594
 20
300.037346
 30
0.0
 11
469.505594
 21
288.360740
 31
0.0
  0
SPLINE
  5
1d3
100
AcDbEntity
  8
0
 62
7
100
AcDbSpline
 70
0
 71
3
 72
10
 73
6
 74
4
 40
0.000000
 40
0.000000
 40
0.000000
 40
0.000000
 40
1.275164
 40
2.446130
 40
3.587926
 40
3.587926
 40
3.587926
 40
3.587926
 10
444.539737
 20
291.756861
 30
0.0
 10
444.965837
 20
291.812608
 30
0.0
 10
445.783220
 20
291.919547
 30
0.0
 10
446.781527
 20
292.753174
 30
0.0
 10
446.925321
 20
293.529550
 30
0.0
 10
446.996312
 20
293.912842
 30
0.0
 11
444.539737
 21
291.756861
 31
0.0
 11
445.780871
 21
292.049489
 31
0.0
 11
446.661544
 21
292.821224
 31
0.0
 11
446.996312
 21
293.912842
 31
0.0
  0
LINE
  5
1d4
100
AcDbEntity
  8
0
 62
7
100
AcDbLine
 10
452.331413
 20
273.221268
 30
0.0
 11
443.035492
 21
273.221268
 31
0.0
  0
LINE
  5
1d5
100
AcDbEntity
  8
0
 62
7
100
AcDbLine
 10
443.035492
 20
273.221268
 30
0.0
 11
443.035492
 21
273.221268
 31
0.0
  0
LINE
  5
1d6
100
AcDbEntity
  8
0
 62
7
100
AcDbLine
 10
377.702120
 20
305.253405
 30
0.0
 11
377.702120
 21
275.064574
 31
0.0
  0
LINE
  5
1d7
100
AcDbEntity
  8
0
 62
7
100
AcDbLine
 10
377.702120
 20
275.064574
 30
0.0
 11
395.969490
 21
275.064574
 31
0.0
  0
LINE
  5
1d8
100
AcDbEntity
  8
0
 62
7
100
AcDbLine
 10
395.969490
 20
275.064574
 30
0.0
 11
409.624304
 21
290.154178
 31
0.0
  0
LINE
  5
1d9
100
AcDbEntity
  8
0
 62
7
100
AcDbLine
 10
409.624304
 20
290.154178
 30
0.0
 11
395.969490
 21
305.253405
 31
0.0
  0
LINE
  5
1da
100
AcDbEntity
  8
0
 62
7
100
AcDbLine
 10
395.969490
 20
305.253405
 30
0.0
 11
377.702120
 21
305.253405
 31
0.0
  0
LINE
  5
1db
100
AcDbEntity
  8
0
 62
7
100
AcDbLine
 10
377.702120
 20
305.253405
 30
0.0
 11
377.702120
 21
305.253405
 31
0.0
  0
SPLINE
  5
1dc
100
AcDbEntity
  8
0
 62
7
100
AcDbSpline
 70
0
 71
3
 72
10
 73
6
 74
4
 40
0.000000
 40
0.000000
 40
0.000000
 40
0.000000
 40
8.002718
 40
16.206705
 40
25.130199
 40
25.130199
 40
25.130199
 40
25.130199
 10
469.505594
 20
288.360740
 30
0.0
 10
469.010076
 20
285.674872
 30
0.0
 10
468.006576
 20
280.235585
 30
0.0
 10
461.037754
 20
274.370200
 30
0.0
 10
455.313680
 20
273.614823
 30
0.0
 10
452.331413
 20
273.221268
 30
0.0
 11
469.505594
 21
288.360740
 31
0.0
 11
467.167889
 21
280.707072
 31
0.0
 11
461.013699
 21
275.282006
 31
0.0
 11
452.331413
 21
273.221268
 31
0.0
  0
LINE
  5
1dd
100
AcDbEntity
  8
0
 62
1
100
AcDbLine
 10
381.505601
 20
279.120446
 30
0.0
 11
381.505601
 21
301.186470
 31
0.0
  0
SPLINE
  5
1de
100
AcDbEntity
  8
0
 62
1
100
AcDbSpline
 70
0
 71
3
 72
16
 73
12
 74
10
 40
0.000000
 40
0.000000
 40
0.000000
 40
0.000000
 40
6.465299
 40
12.736503
 40
19.195778
 40
25.655044
 40
31.926234
 40
38.391543
 40
40.354287
 40
42.265259
 40
44.144558
 40
44.144558
 40
44.144558
 40
44.144558
 10
387.058521
 20
302.512435
 30
0.0
 10
389.238287
 20
302.172944
 30
0.0
 10
393.532379
 20
301.504154
 30
0.0
 10
398.261689
 20
296.587164
 30
0.0
 10
400.016275
 20
290.170227
 30
0.0
 10
398.259598
 20
283.686461
 30
0.0
 10
393.540599
 20
278.966138
 30
0.0
 10
388.554054
 20
277.629226
 30
0.0
 10
385.113180
 20
277.910121
 30
0.0
 10
383.232537
 20
278.344015
 30
0.0
 10
382.078031
 20
278.863081
 30
0.0
 10
381.505601
 20
279.120446
 30
0.0
 11
387.058521
 21
302.512435
 31
0.0
 11
393.299899
 21
300.825634
 31
0.0
 11
397.736704
 21
296.393619
 31
0.0
 11
399.425329
 21
290.158976
 31
0.0
 11
397.736710
 21
283.924340
 31
0.0
 11
393.299911
 21
279.492339
 31
0.0
 11
387.058521
 21
277.805545
 31
0.0
 11
385.101825
 21
277.959513
 31
0.0
 11
383.243669
 21
278.405683
 31
0.0
 11
381.505601
 21
279.120446
 31
0.0
  0
LINE
  5
1df
100
AcDbEntity
  8
0
 62
1
100
AcDbLine
 10
387.058521
 20
302.512435
 30
0.0
 11
387.058521
 21
302.512435
 31
0.0
  0
SPLINE
  5
1e0
100
AcDbEntity
  8
0
 62
1
100
AcDbSpline
 70
0
 71
3
 72
10
 73
6
 74
4
 40
0.000000
 40
0.000000
 40
0.000000
 40
0.000000
 40
1.880520
 40
3.792491
 40
5.755635
 40
5.755635
 40
5.755635
 40
5.755635
 10
381.505601
 20
301.186470
 30
0.0
 10
382.078134
 20
301.443499
 30
0.0
 10
383.232777
 20
301.961856
 30
0.0
 10
385.111754
 20
302.419899
 30
0.0
 10
386.403911
 20
302.481319
 30
0.0
 10
387.058521
 20
302.512435
 30
0.0
 11
381.505601
 21
301.186470
 31
0.0
 11
383.243719
 21
301.904315
 31
0.0
 11
385.101643
 21
302.355704
 31
0.0
 11
387.058521
 21
302.512435
 31
0.0
  0
LINE
  5
1e1
100
AcDbEntity
  8
0
 62
1
100
AcDbLine
 10
352.940253
 20
280.085110
 30
0.0
 11
352.940253
 21
302.151162
 31
0.0
  0
SPLINE
  5
1e2
100
AcDbEntity
  8
0
 62
1
100
AcDbSpline
 70
0
 71
3
 72
16
 73
12
 74
10
 40
0.000000
 40
0.000000
 40
0.000000
 40
0.000000
 40
6.465338
 40
12.736552
 40
19.195827
 40
25.655103
 40
31.926316
 40
38.391654
 40
40.354398
 40
42.265370
 40
44.144669
 40
44.144669
 40
44.144669
 40
44.144669
 10
358.493173
 20
303.477127
 30
0.0
 10
360.672952
 20
303.137638
 30
0.0
 10
364.967062
 20
302.468852
 30
0.0
 10
369.696395
 20
297.551861
 30
0.0
 10
371.450986
 20
291.134915
 30
0.0
 10
369.694296
 20
284.651139
 30
0.0
 10
364.975278
 20
279.930808
 30
0.0
 10
359.988715
 20
278.593889
 30
0.0
 10
356.547832
 20
278.874785
 30
0.0
 10
354.667189
 20
279.308678
 30
0.0
 10
353.512683
 20
279.827745
 30
0.0
 10
352.940253
 20
280.085110
 30
0.0
 11
358.493173
 21
303.477127
 31
0.0
 11
364.734591
 21
301.790326
 31
0.0
 11
369.171410
 21
297.358311
 31
0.0
 11
370.860038
 21
291.123668
 31
0.0
 11
369.171410
 21
284.889024
 31
0.0
 11
364.734591
 21
280.457010
 31
0.0
 11
358.493173
 21
278.770208
 31
0.0
 11
356.536477
 21
278.924177
 31
0.0
 11
354.678321
 21
279.370347
 31
0.0
 11
352.940253
 21
280.085110
 31
0.0
  0
LINE
  5
1e3
100
AcDbEntity
  8
0
 62
1
100
AcDbLine
 10
358.493173
 20
303.477127
 30
0.0
 11
358.493173
 21
303.477127
 31
0.0
  0
SPLINE
  5
1e4
100
AcDbEntity
  8
0
 62
1
100
AcDbSpline
 70
0
 71
3
 72
10
 73
6
 74
4
 40
0.000000
 40
0.000000
 40
0.000000
 40
0.000000
 40
1.880520
 40
3.792491
 40
5.755635
 40
5.755635
 40
5.755635
 40
5.755635
 10
352.940253
 20
302.151162
 30
0.0
 10
353.512786
 20
302.408191
 30
0.0
 10
354.667429
 20
302.926548
 30
0.0
 10
356.546406
 20
303.384591
 30
0.0
 10
357.838563
 20
303.446011
 30
0.0
 10
358.493173
 20
303.477127
 30
0.0
 11
352.940253
 21
302.151162
 31
0.0
 11
354.678371
 21
302.869007
 31
0.0
 11
356.536295
 21
303.320396
 31
0.0
 11
358.493173
 21
303.477127
 31
0.0
  0
LINE
  5
1e5
100
AcDbEntity
  8
0
 62
7
100
AcDbLine
 10
346.825118
 20
301.789861
 30
0.0
 11
346.825118
 21
279.882361
 31
0.0
  0
SPLINE
  5
1e6
100
AcDbEntity
  8
0
 62
7
100
AcDbSpline
 70
0
 71
3
 72
13
 73
9
 74
7
 40
0.000000
 40
0.000000
 40
0.000000
 40
0.000000
 40
8.346866
 40
16.445505
 40
24.792404
 40
29.230839
 40
33.519450
 40
37.751599
 40
37.751599
 40
37.751599
 40
37.751599
 10
374.394730
 20
290.836111
 30
0.0
 10
373.955496
 20
293.650200
 30
0.0
 10
373.090090
 20
299.194689
 30
0.0
 10
366.743682
 20
305.300778
 30
0.0
 10
359.730872
 20
307.200005
 30
0.0
 10
354.038485
 20
306.383557
 30
0.0
 10
349.989102
 20
304.666028
 30
0.0
 10
347.875110
 20
302.744339
 30
0.0
 10
346.825118
 20
301.789861
 30
0.0
 11
374.394730
 21
290.836111
 31
0.0
 11
372.215510
 21
298.893480
 31
0.0
 11
366.488908
 21
304.620081
 31
0.0
 11
358.431507
 21
306.799306
 31
0.0
 11
354.035767
 21
306.185163
 31
0.0
 11
350.110409
 21
304.457811
 31
0.0
 11
346.825118
 21
301.789861
 31
0.0
  0
LINE
  5
1e7
100
AcDbEntity
  8
0
 62
7
100
AcDbLine
 10
374.394730
 20
290.836111
 30
0.0
 11
374.394730
 21
290.836111
 31
0.0
  0
LINE
  5
1e8
100
AcDbEntity
  8
0
 62
7
100
AcDbLine
 10
6.157771
 20
10.024261
 30
0.0
 11
26.645329
 21
10.024261
 31
0.0
  0
LINE
  5
1e9
100
AcDbEntity
  8
0
 62
7
100
AcDbLine
 10
26.645329
 20
10.024261
 30
0.0
 11
26.645329
 21
7.016844
 31
0.0
  0
LINE
  5
1ea
100
AcDbEntity
  8
0
 62
7
100
AcDbLine
 10
26.645329
 20
7.016844
 30
0.0
 11
47.274026
 21
7.016844
 31
0.0
  0
LINE
  5
1eb
100
AcDbEntity
  8
0
 62
7
100
AcDbLine
 10
47.274026
 20
7.016844
 30
0.0
 11
47.274026
 21
10.024261
 31
0.0
  0
LINE
  5
1ec
100
AcDbEntity
  8
0
 62
7
100
AcDbLine
 10
47.274026
 20
10.024261
 30
0.0
 11
67.717501
 21
10.024261
 31
0.0
  0
LINE
  5
1ed
100
AcDbEntity
  8
0
 62
7
100
AcDbLine
 10
67.717501
 20
10.024261
 30
0.0
 11
67.717501
 21
7.016844
 31
0.0
  0
LINE
  5
1ee
100
AcDbEntity
  8
0
 62
7
100
AcDbLine
 10
67.717501
 20
7.016844
 30
0.0
 11
88.337365
 21
7.016844
 31
0.0
  0
LINE
  5
1ef
100
AcDbEntity
  8
0
 62
7
100
AcDbLine
 10
88.337365
 20
7.016844
 30
0.0
 11
88.337365
 21
10.024261
 31
0.0
  0
LINE
  5
1f0
100
AcDbEntity
  8
0
 62
7
100
AcDbLine
 10
88.337365
 20
10.024261
 30
0.0
 11
108.780837
 21
10.024261
 31
0.0
  0
LINE
  5
1f1
100
AcDbEntity
  8
0
 62
7
100
AcDbLine
 10
108.780837
 20
10.024261
 30
0.0
 11
108.780837
 21
7.016844
 31
0.0
  0
LINE
  5
1f2
100
AcDbEntity
  8
0
 62
7
100
AcDbLine
 10
108.780837
 20
7.016844
 30
0.0
 11
129.409512
 21
7.016844
 31
0.0
  0
LINE
  5
1f3
100
AcDbEntity
  8
0
 62
7
100
AcDbLine
 10
129.409512
 20
7.016844
 30
0.0
 11
129.409512
 21
10.024261
 31
0.0
  0
LINE
  5
1f4
100
AcDbEntity
  8
0
 62
7
100
AcDbLine
 10
129.409512
 20
10.024261
 30
0.0
 11
149.852984
 21
10.024261
 31
0.0
  0
LINE
  5
1f5
100
AcDbEntity
  8
0
 62
7
100
AcDbLine
 10
149.852984
 20
10.024261
 30
0.0
 11
149.852984
 21
7.016844
 31
0.0
  0
LINE
  5
1f6
100
AcDbEntity
  8
0
 62
7
100
AcDbLine
 10
149.852984
 20
7.016844
 30
0.0
 11
170.472845
 21
7.016844
 31
0.0
  0
LINE
  5
1f7
100
AcDbEntity
  8
0
 62
7
100
AcDbLine
 10
170.472845
 20
7.016844
 30
0.0
 11
170.472845
 21
10.024261
 31
0.0
  0
LINE
  5
1f8
100
AcDbEntity
  8
0
 62
7
100
AcDbLine
 10
170.472845
 20
10.024261
 30
0.0
 11
190.916317
 21
10.024261
 31
0.0
  0
LINE
  5
1f9
100
AcDbEntity
  8
0
 62
7
100
AcDbLine
 10
190.916317
 20
10.024261
 30
0.0
 11
190.916317
 21
7.016844
 31
0.0
  0
LINE
  5
1fa
100
AcDbEntity
  8
0
 62
7
100
AcDbLine
 10
190.916317
 20
7.016844
 30
0.0
 11
211.536178
 21
7.016844
 31
0.0
  0
LINE
  5
1fb
100
AcDbEntity
  8
0
 62
7
100
AcDbLine
 10
211.536178
 20
7.016844
 30
0.0
 11
211.536178
 21
10.024261
 31
0.0
  0
LINE
  5
1fc
100
AcDbEntity
  8
0
 62
7
100
AcDbLine
 10
211.536178
 20
10.024261
 30
0.0
 11
231.979651
 21
10.024261
 31
0.0
  0
LINE
  5
1fd
100
AcDbEntity
  8
0
 62
7
100
AcDbLine
 10
231.979651
 20
10.024261
 30
0.0
 11
231.979651
 21
7.016844
 31
0.0
  0
LINE
  5
1fe
100
AcDbEntity
  8
0
 62
7
100
AcDbLine
 10
231.979651
 20
7.016844
 30
0.0
 11
252.608345
 21
7.016844
 31
0.0
  0
LINE
  5
1ff
100
AcDbEntity
  8
0
 62
7
100
AcDbLine
 10
252.608345
 20
7.016844
 30
0.0
 11
252.608345
 21
10.024261
 31
0.0
  0
LINE
  5
200
100
AcDbEntity
  8
0
 62
7
100
AcDbLine
 10
252.608345
 20
10.024261
 30
0.0
 11
273.051818
 21
10.024261
 31
0.0
  0
LINE
  5
201
100
AcDbEntity
  8
0
 62
7
100
AcDbLine
 10
273.051818
 20
10.024261
 30
0.0
 11
273.051818
 21
7.016844
 31
0.0
  0
LINE
  5
202
100
AcDbEntity
  8
0
 62
7
100
AcDbLine
 10
273.051818
 20
7.016844
 30
0.0
 11
293.671667
 21
7.016844
 31
0.0
  0
LINE
  5
203
100
AcDbEntity
  8
0
 62
7
100
AcDbLine
 10
293.671667
 20
7.016844
 30
0.0
 11
293.671667
 21
10.024261
 31
0.0
  0
LINE
  5
204
100
AcDbEntity
  8
0
 62
7
100
AcDbLine
 10
293.671667
 20
10.024261
 30
0.0
 11
314.159251
 21
10.024261
 31
0.0
  0
LINE
  5
205
100
AcDbEntity
  8
0
 62
7
100
AcDbLine
 10
314.159251
 20
10.024261
 30
0.0
 11
314.159251
 21
27.063428
 31
0.0
  0
LINE
  5
206
100
AcDbEntity
  8
0
 62
7
100
AcDbLine
 10
314.159251
 20
27.063428
 30
0.0
 11
311.160640
 21
27.063428
 31
0.0
  0
LINE
  5
207
100
AcDbEntity
  8
0
 62
7
100
AcDbLine
 10
311.160640
 20
27.063428
 30
0.0
 11
311.160640
 21
35.971066
 31
0.0
  0
LINE
  5
208
100
AcDbEntity
  8
0
 62
7
100
AcDbLine
 10
311.160640
 20
35.971066
 30
0.0
 11
311.160640
 21
36.967678
 31
0.0
  0
LINE
  5
209
100
AcDbEntity
  8
0
 62
7
100
AcDbLine
 10
311.160640
 20
36.967678
 30
0.0
 11
311.160640
 21
47.868511
 31
0.0
  0
LINE
  5
20a
100
AcDbEntity
  8
0
 62
7
100
AcDbLine
 10
311.160640
 20
47.868511
 30
0.0
 11
311.160640
 21
56.776150
 31
0.0
  0
LINE
  5
20b
100
AcDbEntity
  8
0
 62
7
100
AcDbLine
 10
311.160640
 20
56.776150
 30
0.0
 11
314.159251
 21
56.776150
 31
0.0
  0
LINE
  5
20c
100
AcDbEntity
  8
0
 62
7
100
AcDbLine
 10
314.159251
 20
56.776150
 30
0.0
 11
314.159251
 21
73.815317
 31
0.0
  0
LINE
  5
20d
100
AcDbEntity
  8
0
 62
7
100
AcDbLine
 10
314.159251
 20
73.815317
 30
0.0
 11
293.671667
 21
73.815317
 31
0.0
  0
LINE
  5
20e
100
AcDbEntity
  8
0
 62
7
100
AcDbLine
 10
293.671667
 20
73.815317
 30
0.0
 11
293.671667
 21
76.822761
 31
0.0
  0
LINE
  5
20f
100
AcDbEntity
  8
0
 62
7
100
AcDbLine
 10
293.671667
 20
76.822761
 30
0.0
 11
273.051818
 21
76.822761
 31
0.0
  0
LINE
  5
210
100
AcDbEntity
  8
0
 62
7
100
AcDbLine
 10
273.051818
 20
76.822761
 30
0.0
 11
273.051818
 21
73.815317
 31
0.0
  0
LINE
  5
211
100
AcDbEntity
  8
0
 62
7
100
AcDbLine
 10
273.051818
 20
73.815317
 30
0.0
 11
252.608345
 21
73.815317
 31
0.0
  0
LINE
  5
212
100
AcDbEntity
  8
0
 62
7
100
AcDbLine
 10
252.608345
 20
73.815317
 30
0.0
 11
252.608345
 21
76.822761
 31
0.0
  0
LINE
  5
213
100
AcDbEntity
  8
0
 62
7
100
AcDbLine
 10
252.608345
 20
76.822761
 30
0.0
 11
231.979651
 21
76.822761
 31
0.0
  0
LINE
  5
214
100
AcDbEntity
  8
0
 62
7
100
AcDbLine
 10
231.979651
 20
76.822761
 30
0.0
 11
231.979651
 21
73.815317
 31
0.0
  0
LINE
  5
215
100
AcDbEntity
  8
0
 62
7
100
AcDbLine
 10
231.979651
 20
73.815317
 30
0.0
 11
211.536178
 21
73.815317
 31
0.0
  0
LINE
  5
216
100
AcDbEntity
  8
0
 62
7
100
AcDbLine
 10
211.536178
 20
73.815317
 30
0.0
 11
211.536178
 21
76.822761
 31
0.0
  0
LINE
  5
217
100
AcDbEntity
  8
0
 62
7
100
AcDbLine
 10
211.536178
 20
76.822761
 30
0.0
 11
190.916317
 21
76.822761
 31
0.0
  0
LINE
  5
218
100
AcDbEntity
  8
0
 62
7
100
AcDbLine
 10
190.916317
 20
76.822761
 30
0.0
 11
190.916317
 21
73.815317
 31
0.0
  0
LINE
  5
219
100
AcDbEntity
  8
0
 62
7
100
AcDbLine
 10
190.916317
 20
73.815317
 30
0.0
 11
170.472845
 21
73.815317
 31
0.0
  0
LINE
  5
21a
100
AcDbEntity
  8
0
 62
7
100
AcDbLine
 10
170.472845
 20
73.815317
 30
0.0
 11
170.472845
 21
76.822761
 31
0.0
  0
LINE
  5
21b
100
AcDbEntity
  8
0
 62
7
100
AcDbLine
 10
170.472845
 20
76.822761
 30
0.0
 11
149.852984
 21
76.822761
 31
0.0
  0
LINE
  5
21c
100
AcDbEntity
  8
0
 62
7
100
AcDbLine
 10
149.852984
 20
76.822761
 30
0.0
 11
149.852984
 21
73.815317
 31
0.0
  0
LINE
  5
21d
100
AcDbEntity
  8
0
 62
7
100
AcDbLine
 10
149.852984
 20
73.815317
 30
0.0
 11
129.409512
 21
73.815317
 31
0.0
  0
LINE
  5
21e
100
AcDbEntity
  8
0
 62
7
100
AcDbLine
 10
129.409512
 20
73.815317
 30
0.0
 11
129.409512
 21
76.822761
 31
0.0
  0
LINE
  5
21f
100
AcDbEntity
  8
0
 62
7
100
AcDbLine
 10
129.409512
 20
76.822761
 30
0.0
 11
108.780837
 21
76.822761
 31
0.0
  0
LINE
  5
220
100
AcDbEntity
  8
0
 62
7
100
AcDbLine
 10
108.780837
 20
76.822761
 30
0.0
 11
108.780837
 21
73.815317
 31
0.0
  0
LINE
  5
221
100
AcDbEntity
  8
0
 62
7
100
AcDbLine
 10
108.780837
 20
73.815317
 30
0.0
 11
88.337365
 21
73.815317
 31
0.0
  0
LINE
  5
222
100
AcDbEntity
  8
0
 62
7
100
AcDbLine
 10
88.337365
 20
73.815317
 30
0.0
 11
88.337365
 21
76.822761
 31
0.0
  0
LINE
  5
223
100
AcDbEntity
  8
0
 62
7
100
AcDbLine
 10
88.337365
 20
76.822761
 30
0.0
 11
67.717501
 21
76.822761
 31
0.0
  0
LINE
  5
224
100
AcDbEntity
  8
0
 62
7
100
AcDbLine
 10
67.717501
 20
76.822761
 30
0.0
 11
67.717501
 21
73.815317
 31
0.0
  0
LINE
  5
225
100
AcDbEntity
  8
0
 62
7
100
AcDbLine
 10
67.717501
 20
73.815317
 30
0.0
 11
47.274026
 21
73.815317
 31
0.0
  0
LINE
  5
226
100
AcDbEntity
  8
0
 62
7
100
AcDbLine
 10
47.274026
 20
73.815317
 30
0.0
 11
47.274026
 21
76.822761
 31
0.0
  0
LINE
  5
227
100
AcDbEntity
  8
0
 62
7
100
AcDbLine
 10
47.274026
 20
76.822761
 30
0.0
 11
26.645329
 21
76.822761
 31
0.0
  0
LINE
  5
228
100
AcDbEntity
  8
0
 62
7
100
AcDbLine
 10
26.645329
 20
76.822761
 30
0.0
 11
26.645329
 21
73.815317
 31
0.0
  0
LINE
  5
229
100
AcDbEntity
  8
0
 62
7
100
AcDbLine
 10
26.645329
 20
73.815317
 30
0.0
 11
6.157771
 21
73.815317
 31
0.0
  0
LINE
  5
22a
100
AcDbEntity
  8
0
 62
7
100
AcDbLine
 10
6.157771
 20
73.815317
 30
0.0
 11
6.157771
 21
56.776150
 31
0.0
  0
LINE
  5
22b
100
AcDbEntity
  8
0
 62
7
100
AcDbLine
 10
6.157771
 20
56.776150
 30
0.0
 11
9.156382
 21
56.776150
 31
0.0
  0
LINE
  5
22c
100
AcDbEntity
  8
0
 62
7
100
AcDbLine
 10
9.156382
 20
56.776150
 30
0.0
 11
9.156382
 21
47.868511
 31
0.0
  0
LINE
  5
22d
100
AcDbEntity
  8
0
 62
7
100
AcDbLine
 10
9.156382
 20
47.868511
 30
0.0
 11
9.156382
 21
36.967678
 31
0.0
  0
LINE
  5
22e
100
AcDbEntity
  8
0
 62
7
100
AcDbLine
 10
9.156382
 20
36.967678
 30
0.0
 11
9.156382
 21
35.971066
 31
0.0
  0
LINE
  5
22f
100
AcDbEntity
  8
0
 62
7
100
AcDbLine
 10
9.156382
 20
35.971066
 30
0.0
 11
9.156382
 21
27.063428
 31
0.0
  0
LINE
  5
230
100
AcDbEntity
  8
0
 62
7
100
AcDbLine
 10
9.156382
 20
27.063428
 30
0.0
 11
6.157771
 21
27.063428
 31
0.0
  0
LINE
  5
231
100
AcDbEntity
  8
0
 62
7
100
AcDbLine
 10
6.157771
 20
27.063428
 30
0.0
 11
6.157771
 21
10.024261
 31
0.0
  0
LINE
  5
232
100
AcDbEntity
  8
0
 62
7
100
AcDbLine
 10
6.157771
 20
10.024261
 30
0.0
 11
6.157771
 21
10.024261
 31
0.0
  0
LINE
  5
233
100
AcDbEntity
  8
0
 62
7
100
AcDbLine
 10
307.135953
 20
362.899631
 30
0.0
 11
302.146998
 21
360.019251
 31
0.0
  0
LINE
  5
234
100
AcDbEntity
  8
0
 62
7
100
AcDbLine
 10
302.146998
 20
360.019251
 30
0.0
 11
297.158015
 21
362.899631
 31
0.0
  0
LINE
  5
235
100
AcDbEntity
  8
0
 62
7
100
AcDbLine
 10
297.158015
 20
362.899631
 30
0.0
 11
297.158015
 21
368.660393
 31
0.0
  0
LINE
  5
236
100
AcDbEntity
  8
0
 62
7
100
AcDbLine
 10
297.158015
 20
368.660393
 30
0.0
 11
302.146998
 21
371.540756
 31
0.0
  0
LINE
  5
237
100
AcDbEntity
  8
0
 62
7
100
AcDbLine
 10
302.146998
 20
371.540756
 30
0.0
 11
307.135953
 21
368.660393
 31
0.0
  0
LINE
  5
238
100
AcDbEntity
  8
0
 62
7
100
AcDbLine
 10
307.135953
 20
368.660393
 30
0.0
 11
307.135953
 21
362.899631
 31
0.0
  0
LINE
  5
239
100
AcDbEntity
  8
0
 62
7
100
AcDbLine
 10
520.598739
 20
362.901753
 30
0.0
 11
515.609784
 21
360.021374
 31
0.0
  0
LINE
  5
23a
100
AcDbEntity
  8
0
 62
7
100
AcDbLine
 10
515.609784
 20
360.021374
 30
0.0
 11
510.620828
 21
362.901753
 31
0.0
  0
LINE
  5
23b
100
AcDbEntity
  8
0
 62
7
100
AcDbLine
 10
510.620828
 20
362.901753
 30
0.0
 11
510.620828
 21
368.662516
 31
0.0
  0
LINE
  5
23c
100
AcDbEntity
  8
0
 62
7
100
AcDbLine
 10
510.620828
 20
368.662516
 30
0.0
 11
515.609784
 21
371.542879
 31
0.0
  0
LINE
  5
23d
100
AcDbEntity
  8
0
 62
7
100
AcDbLine
 10
515.609784
 20
371.542879
 30
0.0
 11
520.598739
 21
368.662516
 31
0.0
  0
LINE
  5
23e
100
AcDbEntity
  8
0
 62
7
100
AcDbLine
 10
520.598739
 20
368.662516
 30
0.0
 11
520.598739
 21
362.901753
 31
0.0
  0
LINE
  5
23f
100
AcDbEntity
  8
0
 62
7
100
AcDbLine
 10
307.132905
 20
97.066025
 30
0.0
 11
302.143950
 21
94.185665
 31
0.0
  0
LINE
  5
240
100
AcDbEntity
  8
0
 62
7
100
AcDbLine
 10
302.143950
 20
94.185665
 30
0.0
 11
297.154995
 21
97.066025
 31
0.0
  0
LINE
  5
241
100
AcDbEntity
  8
0
 62
7
100
AcDbLine
 10
297.154995
 20
97.066025
 30
0.0
 11
297.154995
 21
102.826802
 31
0.0
  0
LINE
  5
242
100
AcDbEntity
  8
0
 62
7
100
AcDbLine
 10
297.154995
 20
102.826802
 30
0.0
 11
302.143950
 21
105.707162
 31
0.0
  0
LINE
  5
243
100
AcDbEntity
  8
0
 62
7
100
AcDbLine
 10
302.143950
 20
105.707162
 30
0.0
 11
307.132905
 21
102.826802
 31
0.0
  0
LINE
  5
244
100
AcDbEntity
  8
0
 62
7
100
AcDbLine
 10
307.132905
 20
102.826802
 30
0.0
 11
307.132905
 21
97.066025
 31
0.0
  0
LINE
  5
245
100
AcDbEntity
  8
0
 62
7
100
AcDbLine
 10
520.598739
 20
97.066025
 30
0.0
 11
515.609784
 21
94.185665
 31
0.0
  0
LINE
  5
246
100
AcDbEntity
  8
0
 62
7
100
AcDbLine
 10
515.609784
 20
94.185665
 30
0.0
 11
510.620828
 21
97.066025
 31
0.0
  0
LINE
  5
247
100
AcDbEntity
  8
0
 62
7
100
AcDbLine
 10
510.620828
 20
97.066025
 30
0.0
 11
510.620828
 21
102.826802
 31
0.0
  0
LINE
  5
248
100
AcDbEntity
  8
0
 62
7
100
AcDbLine
 10
510.620828
 20
102.826802
 30
0.0
 11
515.609784
 21
105.707162
 31
0.0
  0
LINE
  5
249
100
AcDbEntity
  8
0
 62
7
100
AcDbLine
 10
515.609784
 20
105.707162
 30
0.0
 11
520.598739
 21
102.826802
 31
0.0
  0
LINE
  5
24a
100
AcDbEntity
  8
0
 62
7
100
AcDbLine
 10
520.598739
 20
102.826802
 30
0.0
 11
520.598739
 21
97.066025
 31
0.0
  0
LINE
  5
24b
100
AcDbEntity
  8
0
 62
7
100
AcDbLine
 10
4.785437
 20
389.787914
 30
0.0
 11
269.604022
 21
389.787914
 31
0.0
  0
LINE
  5
24c
100
AcDbEntity
  8
0
 62
7
100
AcDbLine
 10
269.604022
 20
389.787914
 30
0.0
 11
269.604022
 21
81.786458
 31
0.0
  0
LINE
  5
24d
100
AcDbEntity
  8
0
 62
7
100
AcDbLine
 10
269.604022
 20
81.786458
 30
0.0
 11
4.785437
 21
81.786458
 31
0.0
  0
LINE
  5
24e
100
AcDbEntity
  8
0
 62
7
100
AcDbLine
 10
4.785437
 20
81.786458
 30
0.0
 11
4.785437
 21
389.787914
 31
0.0
  0
SPLINE
  5
24f
100
AcDbEntity
  8
0
 62
7
100
AcDbSpline
 70
0
 71
3
 72
13
 73
9
 74
7
 40
0.000000
 40
0.000000
 40
0.000000
 40
0.000000
 40
4.232805
 40
8.521206
 40
12.959570
 40
21.306470
 40
29.405113
 40
37.751967
 40
37.751967
 40
37.751967
 40
37.751967
 10
346.825118
 20
279.882361
 30
0.0
 10
347.875034
 20
278.927430
 30
0.0
 10
349.988657
 20
277.005024
 30
0.0
 10
354.038611
 20
275.288174
 30
0.0
 10
359.730892
 20
274.472482
 30
0.0
 10
366.743685
 20
276.371370
 30
0.0
 10
373.090085
 20
282.477563
 30
0.0
 10
373.955494
 20
288.022034
 30
0.0
 10
374.394730
 20
290.836111
 30
0.0
 11
346.825118
 21
279.882361
 31
0.0
 11
350.110409
 21
277.213371
 31
0.0
 11
354.035767
 21
275.486539
 31
0.0
 11
358.431507
 21
274.872917
 31
0.0
 11
366.488908
 21
277.052148
 31
0.0
 11
372.215510
 21
282.778756
 31
0.0
 11
374.394730
 21
290.836111
 31
0.0
  0
LINE
  5
250
100
AcDbEntity
  8
0
 62
7
100
AcDbLine
 10
33.835165
 20
368.702922
 30
0.0
 11
33.835165
 21
368.702922
 31
0.0
  0
SPLINE
  5
251
100
AcDbEntity
  8
0
 62
7
100
AcDbSpline
 70
0
 71
3
 72
31
 73
27
 74
25
 40
0.000000
 40
0.000000
 40
0.000000
 40
0.000000
 40
0.858796
 40
1.710484
 40
2.569280
 40
3.428075
 40
4.279764
 40
5.138559
 40
5.997355
 40
6.849043
 40
7.707838
 40
8.566634
 40
9.418322
 40
10.277118
 40
11.135913
 40
11.987602
 40
12.846397
 40
13.705193
 40
14.556882
 40
15.415677
 40
16.274473
 40
17.126162
 40
17.984958
 40
18.843753
 40
19.695442
 40
20.554238
 40
20.554238
 40
20.554238
 40
20.554238
 10
33.835165
 20
368.702922
 30
0.0
 10
33.813295
 20
368.415836
 30
0.0
 10
33.769737
 20
367.844041
 30
0.0
 10
33.425513
 20
367.043839
 30
0.0
 10
32.901810
 20
366.356342
 30
0.0
 10
32.213390
 20
365.829199
 30
0.0
 10
31.413434
 20
365.497744
 30
0.0
 10
30.554487
 20
365.384357
 30
0.0
 10
29.695625
 20
365.497745
 30
0.0
 10
28.895418
 20
365.829199
 30
0.0
 10
28.207922
 20
366.356342
 30
0.0
 10
27.680779
 20
367.043839
 30
0.0
 10
27.349325
 20
367.844041
 30
0.0
 10
27.235938
 20
368.702922
 30
0.0
 10
27.349325
 20
369.561802
 30
0.0
 10
27.680779
 20
370.362004
 30
0.0
 10
28.207922
 20
371.049502
 30
0.0
 10
28.895418
 20
371.576645
 30
0.0
 10
29.695624
 20
371.908100
 30
0.0
 10
30.554487
 20
372.021487
 30
0.0
 10
31.413434
 20
371.908100
 30
0.0
 10
32.213390
 20
371.576645
 30
0.0
 10
32.901810
 20
371.049502
 30
0.0
 10
33.425513
 20
370.362004
 30
0.0
 10
33.769737
 20
369.561802
 30
0.0
 10
33.813296
 20
368.990007
 30
0.0
 10
33.835165
 20
368.702922
 30
0.0
 11
33.835165
 21
368.702922
 31
0.0
 11
33.722768
 21
367.851513
 31
0.0
 11
33.396841
 21
367.064655
 31
0.0
 11
32.874281
 21
366.383141
 31
0.0
 11
32.192767
 21
365.860582
 31
0.0
 11
31.405910
 21
365.534655
 31
0.0
 11
30.554501
 21
365.422258
 31
0.0
 11
29.703093
 21
365.534655
 31
0.0
 11
28.916235
 21
365.860582
 31
0.0
 11
28.234722
 21
366.383142
 31
0.0
 11
27.712162
 21
367.064655
 31
0.0
 11
27.386235
 21
367.851513
 31
0.0
 11
27.273838
 21
368.702922
 31
0.0
 11
27.386235
 21
369.554330
 31
0.0
 11
27.712162
 21
370.341188
 31
0.0
 11
28.234721
 21
371.022702
 31
0.0
 11
28.916235
 21
371.545262
 31
0.0
 11
29.703092
 21
371.871190
 31
0.0
 11
30.554501
 21
371.983587
 31
0.0
 11
31.405910
 21
371.871190
 31
0.0
 11
32.192768
 21
371.545263
 31
0.0
 11
32.874282
 21
371.022703
 31
0.0
 11
33.396841
 21
370.341188
 31
0.0
 11
33.722768
 21
369.554330
 31
0.0
 11
33.835165
 21
368.702922
 31
0.0
  0
LINE
  5
252
100
AcDbEntity
  8
0
 62
7
100
AcDbLine
 10
247.297939
 20
368.705066
 30
0.0
 11
247.297939
 21
368.705066
 31
0.0
  0
SPLINE
  5
253
100
AcDbEntity
  8
0
 62
7
100
AcDbSpline
 70
0
 71
3
 72
31
 73
27
 74
25
 40
0.000000
 40
0.000000
 40
0.000000
 40
0.000000
 40
0.858796
 40
1.710484
 40
2.569280
 40
3.428075
 40
4.279764
 40
5.138559
 40
5.997355
 40
6.849044
 40
7.707839
 40
8.566635
 40
9.418323
 40
10.277119
 40
11.135914
 40
11.987603
 40
12.846399
 40
13.705195
 40
14.556884
 40
15.415679
 40
16.274475
 40
17.126164
 40
17.984960
 40
18.843756
 40
19.695444
 40
20.554240
 40
20.554240
 40
20.554240
 40
20.554240
 10
247.297939
 20
368.705066
 30
0.0
 10
247.276069
 20
368.417981
 30
0.0
 10
247.232511
 20
367.846186
 30
0.0
 10
246.888287
 20
367.045984
 30
0.0
 10
246.364584
 20
366.358487
 30
0.0
 10
245.676164
 20
365.831344
 30
0.0
 10
244.876208
 20
365.499889
 30
0.0
 10
244.017261
 20
365.386502
 30
0.0
 10
243.158398
 20
365.499889
 30
0.0
 10
242.358192
 20
365.831344
 30
0.0
 10
241.670696
 20
366.358487
 30
0.0
 10
241.143552
 20
367.045984
 30
0.0
 10
240.812098
 20
367.846186
 30
0.0
 10
240.698711
 20
368.705066
 30
0.0
 10
240.812098
 20
369.563947
 30
0.0
 10
241.143552
 20
370.364149
 30
0.0
 10
241.670695
 20
371.051647
 30
0.0
 10
242.358191
 20
371.578790
 30
0.0
 10
243.158398
 20
371.910245
 30
0.0
 10
244.017261
 20
372.023632
 30
0.0
 10
244.876208
 20
371.910245
 30
0.0
 10
245.676164
 20
371.578790
 30
0.0
 10
246.364584
 20
371.051647
 30
0.0
 10
246.888287
 20
370.364149
 30
0.0
 10
247.232512
 20
369.563947
 30
0.0
 10
247.276070
 20
368.992152
 30
0.0
 10
247.297939
 20
368.705066
 30
0.0
 11
247.297939
 21
368.705066
 31
0.0
 11
247.185542
 21
367.853658
 31
0.0
 11
246.859615
 21
367.066800
 31
0.0
 11
246.337055
 21
366.385286
 31
0.0
 11
245.655541
 21
365.862726
 31
0.0
 11
244.868684
 21
365.536799
 31
0.0
 11
244.017275
 21
365.424402
 31
0.0
 11
243.165866
 21
365.536799
 31
0.0
 11
242.379009
 21
365.862726
 31
0.0
 11
241.697495
 21
366.385286
 31
0.0
 11
241.174935
 21
367.066800
 31
0.0
 11
240.849008
 21
367.853658
 31
0.0
 11
240.736611
 21
368.705066
 31
0.0
 11
240.849008
 21
369.556475
 31
0.0
 11
241.174935
 21
370.343333
 31
0.0
 11
241.697494
 21
371.024847
 31
0.0
 11
242.379008
 21
371.547408
 31
0.0
 11
243.165866
 21
371.873335
 31
0.0
 11
244.017275
 21
371.985732
 31
0.0
 11
244.868684
 21
371.873335
 31
0.0
 11
245.655542
 21
371.547408
 31
0.0
 11
246.337056
 21
371.024847
 31
0.0
 11
246.859615
 21
370.343333
 31
0.0
 11
247.185542
 21
369.556475
 31
0.0
 11
247.297939
 21
368.705066
 31
0.0
  0
LINE
  5
254
100
AcDbEntity
  8
0
 62
7
100
AcDbLine
 10
33.832117
 20
102.869332
 30
0.0
 11
33.832117
 21
102.869332
 31
0.0
  0
SPLINE
  5
255
100
AcDbEntity
  8
0
 62
7
100
AcDbSpline
 70
0
 71
3
 72
31
 73
27
 74
25
 40
0.000000
 40
0.000000
 40
0.000000
 40
0.000000
 40
0.858796
 40
1.710484
 40
2.569280
 40
3.428075
 40
4.279764
 40
5.138559
 40
5.997355
 40
6.849043
 40
7.707838
 40
8.566634
 40
9.418322
 40
10.277118
 40
11.135913
 40
11.987601
 40
12.846397
 40
13.705192
 40
14.556881
 40
15.415676
 40
16.274471
 40
17.126160
 40
17.984956
 40
18.843751
 40
19.695440
 40
20.554235
 40
20.554235
 40
20.554235
 40
20.554235
 10
33.832117
 20
102.869332
 30
0.0
 10
33.810247
 20
102.582247
 30
0.0
 10
33.766689
 20
102.010452
 30
0.0
 10
33.422465
 20
101.210250
 30
0.0
 10
32.898762
 20
100.522753
 30
0.0
 10
32.210342
 20
99.995610
 30
0.0
 10
31.410386
 20
99.664155
 30
0.0
 10
30.551439
 20
99.550768
 30
0.0
 10
29.692577
 20
99.664156
 30
0.0
 10
28.892370
 20
99.995610
 30
0.0
 10
28.204874
 20
100.522753
 30
0.0
 10
27.677731
 20
101.210250
 30
0.0
 10
27.346277
 20
102.010452
 30
0.0
 10
27.232890
 20
102.869332
 30
0.0
 10
27.346277
 20
103.728213
 30
0.0
 10
27.677731
 20
104.528414
 30
0.0
 10
28.204874
 20
105.215912
 30
0.0
 10
28.892370
 20
105.743055
 30
0.0
 10
29.692577
 20
106.074509
 30
0.0
 10
30.551439
 20
106.187897
 30
0.0
 10
31.410386
 20
106.074510
 30
0.0
 10
32.210342
 20
105.743055
 30
0.0
 10
32.898762
 20
105.215912
 30
0.0
 10
33.422465
 20
104.528415
 30
0.0
 10
33.766689
 20
103.728213
 30
0.0
 10
33.810247
 20
103.156418
 30
0.0
 10
33.832117
 20
102.869332
 30
0.0
 11
33.832117
 21
102.869332
 31
0.0
 11
33.719720
 21
102.017924
 31
0.0
 11
33.393793
 21
101.231066
 31
0.0
 11
32.871233
 21
100.549552
 31
0.0
 11
32.189719
 21
100.026992
 31
0.0
 11
31.402862
 21
99.701065
 31
0.0
 11
30.551453
 21
99.588668
 31
0.0
 11
29.700045
 21
99.701066
 31
0.0
 11
28.913187
 21
100.026993
 31
0.0
 11
28.231674
 21
100.549553
 31
0.0
 11
27.709114
 21
101.231066
 31
0.0
 11
27.383187
 21
102.017924
 31
0.0
 11
27.270790
 21
102.869332
 31
0.0
 11
27.383187
 21
103.720741
 31
0.0
 11
27.709114
 21
104.507599
 31
0.0
 11
28.231674
 21
105.189112
 31
0.0
 11
28.913187
 21
105.711672
 31
0.0
 11
29.700045
 21
106.037599
 31
0.0
 11
30.551453
 21
106.149996
 31
0.0
 11
31.402862
 21
106.037599
 31
0.0
 11
32.189719
 21
105.711672
 31
0.0
 11
32.871233
 21
105.189113
 31
0.0
 11
33.393793
 21
104.507599
 31
0.0
 11
33.719720
 21
103.720741
 31
0.0
 11
33.832117
 21
102.869332
 31
0.0
  0
LINE
  5
256
100
AcDbEntity
  8
0
 62
7
100
AcDbLine
 10
247.297939
 20
102.869332
 30
0.0
 11
247.297939
 21
102.869332
 31
0.0
  0
LINE
  5
257
100
AcDbEntity
  8
0
 62
7
100
AcDbLine
 10
411.684385
 20
270.658888
 30
0.0
 11
411.684385
 21
252.123263
 31
0.0
  0
LINE
  5
258
100
AcDbEntity
  8
0
 62
7
100
AcDbLine
 10
411.684385
 20
252.123263
 30
0.0
 11
413.188630
 21
252.123263
 31
0.0
  0
SPLINE
  5
259
100
AcDbEntity
  8
0
 62
7
100
AcDbSpline
 70
0
 71
3
 72
31
 73
27
 74
25
 40
0.000000
 40
0.000000
 40
0.000000
 40
0.000000
 40
0.858796
 40
1.710484
 40
2.569280
 40
3.428075
 40
4.279764
 40
5.138559
 40
5.997355
 40
6.849044
 40
7.707839
 40
8.566635
 40
9.418323
 40
10.277119
 40
11.135914
 40
11.987603
 40
12.846398
 40
13.705194
 40
14.556883
 40
15.415678
 40
16.274474
 40
17.126162
 40
17.984958
 40
18.843753
 40
19.695442
 40
20.554237
 40
20.554237
 40
20.554237
 40
20.554237
 10
247.297939
 20
102.869332
 30
0.0
 10
247.276069
 20
102.582247
 30
0.0
 10
247.232511
 20
102.010452
 30
0.0
 10
246.888287
 20
101.210250
 30
0.0
 10
246.364584
 20
100.522753
 30
0.0
 10
245.676164
 20
99.995610
 30
0.0
 10
244.876208
 20
99.664155
 30
0.0
 10
244.017261
 20
99.550768
 30
0.0
 10
243.158398
 20
99.664155
 30
0.0
 10
242.358192
 20
99.995610
 30
0.0
 10
241.670696
 20
100.522753
 30
0.0
 10
241.143552
 20
101.210250
 30
0.0
 10
240.812098
 20
102.010452
 30
0.0
 10
240.698711
 20
102.869332
 30
0.0
 10
240.812098
 20
103.728213
 30
0.0
 10
241.143552
 20
104.528415
 30
0.0
 10
241.670696
 20
105.215912
 30
0.0
 10
242.358192
 20
105.743055
 30
0.0
 10
243.158398
 20
106.074510
 30
0.0
 10
244.017261
 20
106.187897
 30
0.0
 10
244.876208
 20
106.074510
 30
0.0
 10
245.676164
 20
105.743055
 30
0.0
 10
246.364584
 20
105.215912
 30
0.0
 10
246.888287
 20
104.528415
 30
0.0
 10
247.232511
 20
103.728213
 30
0.0
 10
247.276069
 20
103.156418
 30
0.0
 10
247.297939
 20
102.869332
 30
0.0
 11
247.297939
 21
102.869332
 31
0.0
 11
247.185542
 21
102.017924
 31
0.0
 11
246.859615
 21
101.231066
 31
0.0
 11
246.337055
 21
100.549552
 31
0.0
 11
245.655541
 21
100.026992
 31
0.0
 11
244.868684
 21
99.701065
 31
0.0
 11
244.017275
 21
99.588668
 31
0.0
 11
243.165866
 21
99.701065
 31
0.0
 11
242.379009
 21
100.026992
 31
0.0
 11
241.697495
 21
100.549552
 31
0.0
 11
241.174935
 21
101.231066
 31
0.0
 11
240.849008
 21
102.017924
 31
0.0
 11
240.736611
 21
102.869332
 31
0.0
 11
240.849008
 21
103.720741
 31
0.0
 11
241.174935
 21
104.507599
 31
0.0
 11
241.697495
 21
105.189113
 31
0.0
 11
242.379009
 21
105.711672
 31
0.0
 11
243.165866
 21
106.037599
 31
0.0
 11
244.017275
 21
106.149996
 31
0.0
 11
244.868684
 21
106.037599
 31
0.0
 11
245.655541
 21
105.711672
 31
0.0
 11
246.337055
 21
105.189113
 31
0.0
 11
246.859615
 21
104.507599
 31
0.0
 11
247.185542
 21
103.720741
 31
0.0
 11
247.297939
 21
102.869332
 31
0.0
  0
LINE
  5
25a
100
AcDbEntity
  8
0
 62
7
100
AcDbLine
 10
415.645205
 20
249.967283
 30
0.0
 11
415.645205
 21
243.842807
 31
0.0
  0
LINE
  5
25b
100
AcDbEntity
  8
0
 62
7
100
AcDbLine
 10
415.645205
 20
243.842807
 30
0.0
 11
415.764190
 21
243.842807
 31
0.0
  0
LINE
  5
25c
100
AcDbEntity
  8
0
 62
7
100
AcDbLine
 10
415.764190
 20
243.842807
 30
0.0
 11
426.878214
 21
236.783441
 31
0.0
  0
LINE
  5
25d
100
AcDbEntity
  8
0
 62
7
100
AcDbLine
 10
426.878214
 20
236.783441
 30
0.0
 11
437.992125
 21
243.842807
 31
0.0
  0
LINE
  5
25e
100
AcDbEntity
  8
0
 62
7
100
AcDbLine
 10
437.992125
 20
243.842807
 30
0.0
 11
438.154487
 21
243.842807
 31
0.0
  0
LINE
  5
25f
100
AcDbEntity
  8
0
 62
7
100
AcDbLine
 10
438.154487
 20
243.842807
 30
0.0
 11
438.154487
 21
255.519412
 31
0.0
  0
SPLINE
  5
260
100
AcDbEntity
  8
0
 62
7
100
AcDbSpline
 70
0
 71
3
 72
10
 73
6
 74
4
 40
0.000000
 40
0.000000
 40
0.000000
 40
0.000000
 40
1.275163
 40
2.446124
 40
3.587933
 40
3.587933
 40
3.587933
 40
3.587933
 10
413.188630
 20
252.123263
 30
0.0
 10
413.614730
 20
252.067518
 30
0.0
 10
414.432111
 20
251.960584
 30
0.0
 10
415.430425
 20
251.126960
 30
0.0
 10
415.574216
 20
250.350580
 30
0.0
 10
415.645205
 20
249.967283
 30
0.0
 11
413.188630
 21
252.123263
 31
0.0
 11
414.429764
 21
251.830641
 31
0.0
 11
415.310437
 21
251.058913
 31
0.0
 11
415.645205
 21
249.967283
 31
0.0
  0
LINE
  5
261
100
AcDbEntity
  8
0
 62
7
100
AcDbLine
 10
420.980306
 20
270.658888
 30
0.0
 11
411.684385
 21
270.658888
 31
0.0
  0
LINE
  5
262
100
AcDbEntity
  8
0
 62
7
100
AcDbLine
 10
411.684385
 20
270.658888
 30
0.0
 11
411.684385
 21
270.658888
 31
0.0
  0
SPLINE
  5
263
100
AcDbEntity
  8
0
 62
7
100
AcDbSpline
 70
0
 71
3
 72
10
 73
6
 74
4
 40
0.000000
 40
0.000000
 40
0.000000
 40
0.000000
 40
8.002720
 40
16.206707
 40
25.130201
 40
25.130201
 40
25.130201
 40
25.130201
 10
438.154487
 20
255.519412
 30
0.0
 10
437.658969
 20
258.205282
 30
0.0
 10
436.655469
 20
263.644570
 30
0.0
 10
429.686647
 20
269.509956
 30
0.0
 10
423.962573
 20
270.265333
 30
0.0
 10
420.980306
 20
270.658888
 30
0.0
 11
438.154487
 21
255.519412
 31
0.0
 11
435.816782
 21
263.173082
 31
0.0
 11
429.662592
 21
268.598149
 31
0.0
 11
420.980306
 21
270.658888
 31
0.0
  0
LINE
  5
264
100
AcDbEntity
  8
0
 62
1
100
AcDbLine
 10
417.714063
 20
244.872607
 30
0.0
 11
417.714063
 21
266.938634
 31
0.0
  0
SPLINE
  5
265
100
AcDbEntity
  8
0
 62
1
100
AcDbSpline
 70
0
 71
3
 72
16
 73
12
 74
10
 40
0.000000
 40
0.000000
 40
0.000000
 40
0.000000
 40
6.465299
 40
12.736504
 40
19.195780
 40
25.655047
 40
31.926236
 40
38.391546
 40
40.354290
 40
42.265261
 40
44.144561
 40
44.144561
 40
44.144561
 40
44.144561
 10
423.266983
 20
268.264599
 30
0.0
 10
425.446749
 20
267.925108
 30
0.0
 10
429.740841
 20
267.256318
 30
0.0
 10
434.470151
 20
262.339326
 30
0.0
 10
436.224737
 20
255.922389
 30
0.0
 10
434.468060
 20
249.438622
 30
0.0
 10
429.749061
 20
244.718300
 30
0.0
 10
424.762516
 20
243.381387
 30
0.0
 10
421.321642
 20
243.662282
 30
0.0
 10
419.440999
 20
244.096176
 30
0.0
 10
418.286493
 20
244.615243
 30
0.0
 10
417.714063
 20
244.872607
 30
0.0
 11
423.266983
 21
268.264599
 31
0.0
 11
429.508361
 21
266.577797
 31
0.0
 11
433.945166
 21
262.145782
 31
0.0
 11
435.633791
 21
255.911137
 31
0.0
 11
433.945172
 21
249.676501
 31
0.0
 11
429.508373
 21
245.244500
 31
0.0
 11
423.266983
 21
243.557706
 31
0.0
 11
421.310287
 21
243.711675
 31
0.0
 11
419.452131
 21
244.157844
 31
0.0
 11
417.714063
 21
244.872607
 31
0.0
  0
LINE
  5
266
100
AcDbEntity
  8
0
 62
1
100
AcDbLine
 10
423.266983
 20
268.264599
 30
0.0
 11
423.266983
 21
268.264599
 31
0.0
  0
SPLINE
  5
267
100
AcDbEntity
  8
0
 62
1
100
AcDbSpline
 70
0
 71
3
 72
10
 73
6
 74
4
 40
0.000000
 40
0.000000
 40
0.000000
 40
0.000000
 40
1.880520
 40
3.792491
 40
5.755635
 40
5.755635
 40
5.755635
 40
5.755635
 10
417.714063
 20
266.938634
 30
0.0
 10
418.286596
 20
267.195663
 30
0.0
 10
419.441239
 20
267.714020
 30
0.0
 10
421.320216
 20
268.172063
 30
0.0
 10
422.612373
 20
268.233483
 30
0.0
 10
423.266983
 20
268.264599
 30
0.0
 11
417.714063
 21
266.938634
 31
0.0
 11
419.452181
 21
267.656479
 31
0.0
 11
421.310105
 21
268.107868
 31
0.0
 11
423.266983
 21
268.264599
 31
0.0
  0
LINE
  5
268
100
AcDbEntity
  8
0
 62
1
100
AcDbLine
 10
448.150770
 20
240.492603
 30
0.0
 11
448.150770
 21
262.558658
 31
0.0
  0
SPLINE
  5
269
100
AcDbEntity
  8
0
 62
1
100
AcDbSpline
 70
0
 71
3
 72
16
 73
12
 74
10
 40
0.000000
 40
0.000000
 40
0.000000
 40
0.000000
 40
6.465300
 40
12.736504
 40
19.195780
 40
25.655065
 40
31.926260
 40
38.391570
 40
40.354314
 40
42.265285
 40
44.144585
 40
44.144585
 40
44.144585
 40
44.144585
 10
453.703690
 20
263.884623
 30
0.0
 10
455.883456
 20
263.545132
 30
0.0
 10
460.177548
 20
262.876341
 30
0.0
 10
464.906858
 20
257.959349
 30
0.0
 10
466.661444
 20
251.542406
 30
0.0
 10
464.904771
 20
245.058630
 30
0.0
 10
460.185771
 20
240.338296
 30
0.0
 10
455.199223
 20
239.001383
 30
0.0
 10
451.758349
 20
239.282278
 30
0.0
 10
449.877706
 20
239.716172
 30
0.0
 10
448.723200
 20
240.235238
 30
0.0
 10
448.150770
 20
240.492603
 30
0.0
 11
453.703690
 21
263.884623
 31
0.0
 11
459.945068
 21
262.197821
 31
0.0
 11
464.381873
 21
257.765805
 31
0.0
 11
466.070498
 21
251.531161
 31
0.0
 11
464.381879
 21
245.296505
 31
0.0
 11
459.945080
 21
240.864497
 31
0.0
 11
453.703690
 21
239.177701
 31
0.0
 11
451.746994
 21
239.331670
 31
0.0
 11
449.888838
 21
239.777840
 31
0.0
 11
448.150770
 21
240.492603
 31
0.0
  0
LINE
  5
26a
100
AcDbEntity
  8
0
 62
1
100
AcDbLine
 10
453.703690
 20
263.884623
 30
0.0
 11
453.703690
 21
263.884623
 31
0.0
  0
LINE
  5
26b
100
AcDbEntity
  8
0
 62
7
100
AcDbLine
 10
442.121092
 20
236.783441
 30
0.0
 11
442.121092
 21
255.319035
 31
0.0
  0
LINE
  5
26c
100
AcDbEntity
  8
0
 62
7
100
AcDbLine
 10
442.121092
 20
255.319035
 30
0.0
 11
443.625337
 21
255.319035
 31
0.0
  0
SPLINE
  5
26d
100
AcDbEntity
  8
0
 62
1
100
AcDbSpline
 70
0
 71
3
 72
10
 73
6
 74
4
 40
0.000000
 40
0.000000
 40
0.000000
 40
0.000000
 40
1.880520
 40
3.792491
 40
5.755635
 40
5.755635
 40
5.755635
 40
5.755635
 10
448.150770
 20
262.558658
 30
0.0
 10
448.723304
 20
262.815687
 30
0.0
 10
449.877946
 20
263.334044
 30
0.0
 10
451.756923
 20
263.792087
 30
0.0
 10
453.049080
 20
263.853507
 30
0.0
 10
453.703690
 20
263.884623
 30
0.0
 11
448.150770
 21
262.558658
 31
0.0
 11
449.888888
 21
263.276503
 31
0.0
 11
451.746812
 21
263.727892
 31
0.0
 11
453.703690
 21
263.884623
 31
0.0
  0
LINE
  5
26e
100
AcDbEntity
  8
0
 62
7
100
AcDbLine
 10
446.081912
 20
257.475015
 30
0.0
 11
446.081912
 21
263.599522
 31
0.0
  0
LINE
  5
26f
100
AcDbEntity
  8
0
 62
7
100
AcDbLine
 10
446.081912
 20
263.599522
 30
0.0
 11
446.200897
 21
263.599522
 31
0.0
  0
LINE
  5
270
100
AcDbEntity
  8
0
 62
7
100
AcDbLine
 10
446.200897
 20
263.599522
 30
0.0
 11
457.314921
 21
270.658888
 31
0.0
  0
LINE
  5
271
100
AcDbEntity
  8
0
 62
7
100
AcDbLine
 10
457.314921
 20
270.658888
 30
0.0
 11
468.428832
 21
263.599522
 31
0.0
  0
LINE
  5
272
100
AcDbEntity
  8
0
 62
7
100
AcDbLine
 10
468.428832
 20
263.599522
 30
0.0
 11
468.591194
 21
263.599522
 31
0.0
  0
LINE
  5
273
100
AcDbEntity
  8
0
 62
7
100
AcDbLine
 10
468.591194
 20
263.599522
 30
0.0
 11
468.591194
 21
251.922913
 31
0.0
  0
SPLINE
  5
274
100
AcDbEntity
  8
0
 62
7
100
AcDbSpline
 70
0
 71
3
 72
10
 73
6
 74
4
 40
0.000000
 40
0.000000
 40
0.000000
 40
0.000000
 40
1.275164
 40
2.446130
 40
3.587926
 40
3.587926
 40
3.587926
 40
3.587926
 10
443.625337
 20
255.319035
 30
0.0
 10
444.051437
 20
255.374782
 30
0.0
 10
444.868820
 20
255.481720
 30
0.0
 10
445.867127
 20
256.315347
 30
0.0
 10
446.010921
 20
257.091723
 30
0.0
 10
446.081912
 20
257.475015
 30
0.0
 11
443.625337
 21
255.319035
 31
0.0
 11
444.866471
 21
255.611662
 31
0.0
 11
445.747144
 21
256.383397
 31
0.0
 11
446.081912
 21
257.475015
 31
0.0
  0
LINE
  5
275
100
AcDbEntity
  8
0
 62
7
100
AcDbLine
 10
451.417013
 20
236.783441
 30
0.0
 11
442.121092
 21
236.783441
 31
0.0
  0
LINE
  5
276
100
AcDbEntity
  8
0
 62
7
100
AcDbLine
 10
442.121092
 20
236.783441
 30
0.0
 11
442.121092
 21
236.783441
 31
0.0
  0
LINE
  5
277
100
AcDbEntity
  8
0
 62
7
100
AcDbLine
 10
376.787720
 20
268.815581
 30
0.0
 11
376.787720
 21
238.626747
 31
0.0
  0
LINE
  5
278
100
AcDbEntity
  8
0
 62
7
100
AcDbLine
 10
376.787720
 20
238.626747
 30
0.0
 11
395.055090
 21
238.626747
 31
0.0
  0
LINE
  5
279
100
AcDbEntity
  8
0
 62
7
100
AcDbLine
 10
395.055090
 20
238.626747
 30
0.0
 11
408.709904
 21
253.716351
 31
0.0
  0
LINE
  5
27a
100
AcDbEntity
  8
0
 62
7
100
AcDbLine
 10
408.709904
 20
253.716351
 30
0.0
 11
395.055090
 21
268.815581
 31
0.0
  0
LINE
  5
27b
100
AcDbEntity
  8
0
 62
7
100
AcDbLine
 10
395.055090
 20
268.815581
 30
0.0
 11
376.787720
 21
268.815581
 31
0.0
  0
LINE
  5
27c
100
AcDbEntity
  8
0
 62
7
100
AcDbLine
 10
376.787720
 20
268.815581
 30
0.0
 11
376.787720
 21
268.815581
 31
0.0
  0
SPLINE
  5
27d
100
AcDbEntity
  8
0
 62
7
100
AcDbSpline
 70
0
 71
3
 72
10
 73
6
 74
4
 40
0.000000
 40
0.000000
 40
0.000000
 40
0.000000
 40
8.002718
 40
16.206705
 40
25.130199
 40
25.130199
 40
25.130199
 40
25.130199
 10
468.591194
 20
251.922913
 30
0.0
 10
468.095676
 20
249.237045
 30
0.0
 10
467.092176
 20
243.797758
 30
0.0
 10
460.123354
 20
237.932373
 30
0.0
 10
454.399280
 20
237.176996
 30
0.0
 10
451.417013
 20
236.783441
 30
0.0
 11
468.591194
 21
251.922913
 31
0.0
 11
466.253489
 21
244.269245
 31
0.0
 11
460.099299
 21
238.844180
 31
0.0
 11
451.417013
 21
236.783441
 31
0.0
  0
LINE
  5
27e
100
AcDbEntity
  8
0
 62
1
100
AcDbLine
 10
380.591201
 20
242.682619
 30
0.0
 11
380.591201
 21
264.748646
 31
0.0
  0
SPLINE
  5
27f
100
AcDbEntity
  8
0
 62
1
100
AcDbSpline
 70
0
 71
3
 72
16
 73
12
 74
10
 40
0.000000
 40
0.000000
 40
0.000000
 40
0.000000
 40
6.465300
 40
12.736504
 40
19.195780
 40
25.655046
 40
31.926235
 40
38.391545
 40
40.354289
 40
42.265261
 40
44.144560
 40
44.144560
 40
44.144560
 40
44.144560
 10
386.144121
 20
266.074611
 30
0.0
 10
388.323887
 20
265.735120
 30
0.0
 10
392.617979
 20
265.066329
 30
0.0
 10
397.347289
 20
260.149337
 30
0.0
 10
399.101876
 20
253.732400
 30
0.0
 10
397.345198
 20
247.248634
 30
0.0
 10
392.626199
 20
242.528312
 30
0.0
 10
387.639654
 20
241.191399
 30
0.0
 10
384.198780
 20
241.472294
 30
0.0
 10
382.318137
 20
241.906188
 30
0.0
 10
381.163631
 20
242.425255
 30
0.0
 10
380.591201
 20
242.682619
 30
0.0
 11
386.144121
 21
266.074611
 31
0.0
 11
392.385499
 21
264.387809
 31
0.0
 11
396.822304
 21
259.955793
 31
0.0
 11
398.510929
 21
253.721149
 31
0.0
 11
396.822310
 21
247.486513
 31
0.0
 11
392.385511
 21
243.054512
 31
0.0
 11
386.144121
 21
241.367718
 31
0.0
 11
384.187425
 21
241.521687
 31
0.0
 11
382.329269
 21
241.967856
 31
0.0
 11
380.591201
 21
242.682619
 31
0.0
  0
LINE
  5
280
100
AcDbEntity
  8
0
 62
1
100
AcDbLine
 10
386.144121
 20
266.074611
 30
0.0
 11
386.144121
 21
266.074611
 31
0.0
  0
SPLINE
  5
281
100
AcDbEntity
  8
0
 62
1
100
AcDbSpline
 70
0
 71
3
 72
10
 73
6
 74
4
 40
0.000000
 40
0.000000
 40
0.000000
 40
0.000000
 40
1.880520
 40
3.792491
 40
5.755635
 40
5.755635
 40
5.755635
 40
5.755635
 10
380.591201
 20
264.748646
 30
0.0
 10
381.163734
 20
265.005675
 30
0.0
 10
382.318377
 20
265.524032
 30
0.0
 10
384.197354
 20
265.982075
 30
0.0
 10
385.489511
 20
266.043495
 30
0.0
 10
386.144121
 20
266.074611
 30
0.0
 11
380.591201
 21
264.748646
 31
0.0
 11
382.329319
 21
265.466491
 31
0.0
 11
384.187243
 21
265.917880
 31
0.0
 11
386.144121
 21
266.074611
 31
0.0
  0
LINE
  5
282
100
AcDbEntity
  8
0
 62
1
100
AcDbLine
 10
352.025825
 20
243.647283
 30
0.0
 11
352.025825
 21
265.713338
 31
0.0
  0
SPLINE
  5
283
100
AcDbEntity
  8
0
 62
1
100
AcDbSpline
 70
0
 71
3
 72
16
 73
12
 74
10
 40
0.000000
 40
0.000000
 40
0.000000
 40
0.000000
 40
6.465338
 40
12.736553
 40
19.195829
 40
25.655104
 40
31.926318
 40
38.391656
 40
40.354400
 40
42.265372
 40
44.144671
 40
44.144671
 40
44.144671
 40
44.144671
 10
357.578745
 20
267.039303
 30
0.0
 10
359.758524
 20
266.699813
 30
0.0
 10
364.052634
 20
266.031028
 30
0.0
 10
368.781967
 20
261.114035
 30
0.0
 10
370.536558
 20
254.697089
 30
0.0
 10
368.779868
 20
248.213313
 30
0.0
 10
364.060849
 20
243.492982
 30
0.0
 10
359.074287
 20
242.156062
 30
0.0
 10
355.633404
 20
242.436958
 30
0.0
 10
353.752761
 20
242.870852
 30
0.0
 10
352.598255
 20
243.389918
 30
0.0
 10
352.025825
 20
243.647283
 30
0.0
 11
357.578745
 21
267.039303
 31
0.0
 11
363.820162
 21
265.352501
 31
0.0
 11
368.256982
 21
260.920485
 31
0.0
 11
369.945610
 21
254.685841
 31
0.0
 11
368.256982
 21
248.451198
 31
0.0
 11
363.820162
 21
244.019183
 31
0.0
 11
357.578745
 21
242.332381
 31
0.0
 11
355.622049
 21
242.486350
 31
0.0
 11
353.763893
 21
242.932520
 31
0.0
 11
352.025825
 21
243.647283
 31
0.0
  0
LINE
  5
284
100
AcDbEntity
  8
0
 62
1
100
AcDbLine
 10
357.578745
 20
267.039303
 30
0.0
 11
357.578745
 21
267.039303
 31
0.0
  0
SPLINE
  5
285
100
AcDbEntity
  8
0
 62
1
100
AcDbSpline
 70
0
 71
3
 72
10
 73
6
 74
4
 40
0.000000
 40
0.000000
 40
0.000000
 40
0.000000
 40
1.880520
 40
3.792491
 40
5.755635
 40
5.755635
 40
5.755635
 40
5.755635
 10
352.025825
 20
265.713338
 30
0.0
 10
352.598358
 20
265.970367
 30
0.0
 10
353.753001
 20
266.488724
 30
0.0
 10
355.631977
 20
266.946767
 30
0.0
 10
356.924134
 20
267.008187
 30
0.0
 10
357.578745
 20
267.039303
 30
0.0
 11
352.025825
 21
265.713338
 31
0.0
 11
353.763943
 21
266.431183
 31
0.0
 11
355.621867
 21
266.882572
 31
0.0
 11
357.578745
 21
267.039303
 31
0.0
  0
LINE
  5
286
100
AcDbEntity
  8
0
 62
7
100
AcDbLine
 10
345.910690
 20
265.352037
 30
0.0
 11
345.910690
 21
243.444535
 31
0.0
  0
SPLINE
  5
287
100
AcDbEntity
  8
0
 62
7
100
AcDbSpline
 70
0
 71
3
 72
13
 73
9
 74
7
 40
0.000000
 40
0.000000
 40
0.000000
 40
0.000000
 40
8.346868
 40
16.445507
 40
24.792406
 40
29.230841
 40
33.519452
 40
37.751601
 40
37.751601
 40
37.751601
 40
37.751601
 10
373.480302
 20
254.398285
 30
0.0
 10
373.041068
 20
257.212374
 30
0.0
 10
372.175662
 20
262.756864
 30
0.0
 10
365.829254
 20
268.862954
 30
0.0
 10
358.816444
 20
270.762181
 30
0.0
 10
353.124056
 20
269.945733
 30
0.0
 10
349.074674
 20
268.228204
 30
0.0
 10
346.960682
 20
266.306515
 30
0.0
 10
345.910690
 20
265.352037
 30
0.0
 11
373.480302
 21
254.398285
 31
0.0
 11
371.301082
 21
262.455655
 31
0.0
 11
365.574480
 21
268.182257
 31
0.0
 11
357.517079
 21
270.361482
 31
0.0
 11
353.121338
 21
269.747339
 31
0.0
 11
349.195981
 21
268.019987
 31
0.0
 11
345.910690
 21
265.352037
 31
0.0
  0
LINE
  5
288
100
AcDbEntity
  8
0
 62
7
100
AcDbLine
 10
373.480302
 20
254.398285
 30
0.0
 11
373.480302
 21
254.398285
 31
0.0
  0
LINE
  5
289
100
AcDbEntity
  8
0
 62
7
100
AcDbLine
 10
410.544010
 20
235.308011
 30
0.0
 11
410.544010
 21
216.772390
 31
0.0
  0
LINE
  5
28a
100
AcDbEntity
  8
0
 62
7
100
AcDbLine
 10
410.544010
 20
216.772390
 30
0.0
 11
412.048254
 21
216.772390
 31
0.0
  0
SPLINE
  5
28b
100
AcDbEntity
  8
0
 62
7
100
AcDbSpline
 70
0
 71
3
 72
13
 73
9
 74
7
 40
0.000000
 40
0.000000
 40
0.000000
 40
0.000000
 40
4.232805
 40
8.521206
 40
12.959570
 40
21.306470
 40
29.405113
 40
37.751967
 40
37.751967
 40
37.751967
 40
37.751967
 10
345.910690
 20
243.444535
 30
0.0
 10
346.960606
 20
242.489603
 30
0.0
 10
349.074228
 20
240.567198
 30
0.0
 10
353.124183
 20
238.850348
 30
0.0
 10
358.816464
 20
238.034655
 30
0.0
 10
365.829256
 20
239.933543
 30
0.0
 10
372.175656
 20
246.039736
 30
0.0
 10
373.041066
 20
251.584208
 30
0.0
 10
373.480302
 20
254.398285
 30
0.0
 11
345.910690
 21
243.444535
 31
0.0
 11
349.195981
 21
240.775544
 31
0.0
 11
353.121338
 21
239.048712
 31
0.0
 11
357.517079
 21
238.435090
 31
0.0
 11
365.574480
 21
240.614321
 31
0.0
 11
371.301082
 21
246.340929
 31
0.0
 11
373.480302
 21
254.398285
 31
0.0
  0
LINE
  5
28c
100
AcDbEntity
  8
0
 62
7
100
AcDbLine
 10
414.504830
 20
214.616409
 30
0.0
 11
414.504830
 21
208.491930
 31
0.0
  0
LINE
  5
28d
100
AcDbEntity
  8
0
 62
7
100
AcDbLine
 10
414.504830
 20
208.491930
 30
0.0
 11
414.623814
 21
208.491930
 31
0.0
  0
LINE
  5
28e
100
AcDbEntity
  8
0
 62
7
100
AcDbLine
 10
414.623814
 20
208.491930
 30
0.0
 11
425.737838
 21
201.432565
 31
0.0
  0
LINE
  5
28f
100
AcDbEntity
  8
0
 62
7
100
AcDbLine
 10
425.737838
 20
201.432565
 30
0.0
 11
436.851750
 21
208.491930
 31
0.0
  0
LINE
  5
290
100
AcDbEntity
  8
0
 62
7
100
AcDbLine
 10
436.851750
 20
208.491930
 30
0.0
 11
437.014112
 21
208.491930
 31
0.0
  0
LINE
  5
291
100
AcDbEntity
  8
0
 62
7
100
AcDbLine
 10
437.014112
 20
208.491930
 30
0.0
 11
437.014112
 21
220.168539
 31
0.0
  0
SPLINE
  5
292
100
AcDbEntity
  8
0
 62
7
100
AcDbSpline
 70
0
 71
3
 72
10
 73
6
 74
4
 40
0.000000
 40
0.000000
 40
0.000000
 40
0.000000
 40
1.275163
 40
2.446124
 40
3.587933
 40
3.587933
 40
3.587933
 40
3.587933
 10
412.048254
 20
216.772390
 30
0.0
 10
412.474355
 20
216.716645
 30
0.0
 10
413.291736
 20
216.609710
 30
0.0
 10
414.290049
 20
215.776086
 30
0.0
 10
414.433840
 20
214.999706
 30
0.0
 10
414.504830
 20
214.616409
 30
0.0
 11
412.048254
 21
216.772390
 31
0.0
 11
413.289388
 21
216.479768
 31
0.0
 11
414.170062
 21
215.708040
 31
0.0
 11
414.504830
 21
214.616409
 31
0.0
  0
LINE
  5
293
100
AcDbEntity
  8
0
 62
7
100
AcDbLine
 10
419.839930
 20
235.308011
 30
0.0
 11
410.544010
 21
235.308011
 31
0.0
  0
LINE
  5
294
100
AcDbEntity
  8
0
 62
7
100
AcDbLine
 10
410.544010
 20
235.308011
 30
0.0
 11
410.544010
 21
235.308011
 31
0.0
  0
SPLINE
  5
295
100
AcDbEntity
  8
0
 62
7
100
AcDbSpline
 70
0
 71
3
 72
10
 73
6
 74
4
 40
0.000000
 40
0.000000
 40
0.000000
 40
0.000000
 40
8.002718
 40
16.206705
 40
25.130199
 40
25.130199
 40
25.130199
 40
25.130199
 10
437.014112
 20
220.168539
 30
0.0
 10
436.518593
 20
222.854408
 30
0.0
 10
435.515094
 20
228.293695
 30
0.0
 10
428.546271
 20
234.159080
 30
0.0
 10
422.822198
 20
234.914457
 30
0.0
 10
419.839930
 20
235.308011
 30
0.0
 11
437.014112
 21
220.168539
 31
0.0
 11
434.676407
 21
227.822207
 31
0.0
 11
428.522217
 21
233.247273
 31
0.0
 11
419.839930
 21
235.308011
 31
0.0
  0
LINE
  5
296
100
AcDbEntity
  8
0
 62
1
100
AcDbLine
 10
416.573688
 20
209.521731
 30
0.0
 11
416.573688
 21
231.587758
 31
0.0
  0
SPLINE
  5
297
100
AcDbEntity
  8
0
 62
1
100
AcDbSpline
 70
0
 71
3
 72
16
 73
12
 74
10
 40
0.000000
 40
0.000000
 40
0.000000
 40
0.000000
 40
6.465299
 40
12.736503
 40
19.195778
 40
25.655046
 40
31.926236
 40
38.391546
 40
40.354290
 40
42.265261
 40
44.144561
 40
44.144561
 40
44.144561
 40
44.144561
 10
422.126608
 20
232.913723
 30
0.0
 10
424.306373
 20
232.574232
 30
0.0
 10
428.600465
 20
231.905442
 30
0.0
 10
433.329775
 20
226.988451
 30
0.0
 10
435.084362
 20
220.571514
 30
0.0
 10
433.327685
 20
214.087747
 30
0.0
 10
428.608686
 20
209.367424
 30
0.0
 10
423.622140
 20
208.030511
 30
0.0
 10
420.181267
 20
208.311406
 30
0.0
 10
418.300624
 20
208.745300
 30
0.0
 10
417.146117
 20
209.264366
 30
0.0
 10
416.573688
 20
209.521731
 30
0.0
 11
422.126608
 21
232.913723
 31
0.0
 11
428.367985
 21
231.226921
 31
0.0
 11
432.804791
 21
226.794907
 31
0.0
 11
434.493416
 21
220.560263
 31
0.0
 11
432.804797
 21
214.325626
 31
0.0
 11
428.367998
 21
209.893624
 31
0.0
 11
422.126608
 21
208.206830
 31
0.0
 11
420.169912
 21
208.360799
 31
0.0
 11
418.311755
 21
208.806968
 31
0.0
 11
416.573688
 21
209.521731
 31
0.0
  0
LINE
  5
298
100
AcDbEntity
  8
0
 62
1
100
AcDbLine
 10
422.126608
 20
232.913723
 30
0.0
 11
422.126608
 21
232.913723
 31
0.0
  0
SPLINE
  5
299
100
AcDbEntity
  8
0
 62
1
100
AcDbSpline
 70
0
 71
3
 72
10
 73
6
 74
4
 40
0.000000
 40
0.000000
 40
0.000000
 40
0.000000
 40
1.880520
 40
3.792491
 40
5.755635
 40
5.755635
 40
5.755635
 40
5.755635
 10
416.573688
 20
231.587758
 30
0.0
 10
417.146221
 20
231.844787
 30
0.0
 10
418.300864
 20
232.363143
 30
0.0
 10
420.179840
 20
232.821187
 30
0.0
 10
421.471997
 20
232.882607
 30
0.0
 10
422.126608
 20
232.913723
 30
0.0
 11
416.573688
 21
231.587758
 31
0.0
 11
418.311806
 21
232.305603
 31
0.0
 11
420.169730
 21
232.756992
 31
0.0
 11
422.126608
 21
232.913723
 31
0.0
  0
LINE
  5
29a
100
AcDbEntity
  8
0
 62
1
100
AcDbLine
 10
447.010395
 20
205.141727
 30
0.0
 11
447.010395
 21
227.207782
 31
0.0
  0
SPLINE
  5
29b
100
AcDbEntity
  8
0
 62
1
100
AcDbSpline
 70
0
 71
3
 72
16
 73
12
 74
10
 40
0.000000
 40
0.000000
 40
0.000000
 40
0.000000
 40
6.465299
 40
12.736503
 40
19.195778
 40
25.655065
 40
31.926260
 40
38.391570
 40
40.354314
 40
42.265286
 40
44.144585
 40
44.144585
 40
44.144585
 40
44.144585
 10
452.563315
 20
228.533747
 30
0.0
 10
454.743080
 20
228.194256
 30
0.0
 10
459.037172
 20
227.525466
 30
0.0
 10
463.766483
 20
222.608475
 30
0.0
 10
465.521068
 20
216.191532
 30
0.0
 10
463.764396
 20
209.707755
 30
0.0
 10
459.045396
 20
204.987420
 30
0.0
 10
454.058848
 20
203.650506
 30
0.0
 10
450.617974
 20
203.931402
 30
0.0
 10
448.737331
 20
204.365295
 30
0.0
 10
447.582825
 20
204.884362
 30
0.0
 10
447.010395
 20
205.141727
 30
0.0
 11
452.563315
 21
228.533747
 31
0.0
 11
458.804693
 21
226.846945
 31
0.0
 11
463.241498
 21
222.414931
 31
0.0
 11
464.930123
 21
216.180287
 31
0.0
 11
463.241504
 21
209.945630
 31
0.0
 11
458.804705
 21
205.513621
 31
0.0
 11
452.563315
 21
203.826825
 31
0.0
 11
450.606619
 21
203.980794
 31
0.0
 11
448.748463
 21
204.426964
 31
0.0
 11
447.010395
 21
205.141727
 31
0.0
  0
LINE
  5
29c
100
AcDbEntity
  8
0
 62
1
100
AcDbLine
 10
452.563315
 20
228.533747
 30
0.0
 11
452.563315
 21
228.533747
 31
0.0
  0
LINE
  5
29d
100
AcDbEntity
  8
0
 62
7
100
AcDbLine
 10
440.980717
 20
201.432565
 30
0.0
 11
440.980717
 21
219.968161
 31
0.0
  0
LINE
  5
29e
100
AcDbEntity
  8
0
 62
7
100
AcDbLine
 10
440.980717
 20
219.968161
 30
0.0
 11
442.484962
 21
219.968161
 31
0.0
  0
SPLINE
  5
29f
100
AcDbEntity
  8
0
 62
1
100
AcDbSpline
 70
0
 71
3
 72
10
 73
6
 74
4
 40
0.000000
 40
0.000000
 40
0.000000
 40
0.000000
 40
1.880520
 40
3.792491
 40
5.755635
 40
5.755635
 40
5.755635
 40
5.755635
 10
447.010395
 20
227.207782
 30
0.0
 10
447.582928
 20
227.464811
 30
0.0
 10
448.737571
 20
227.983167
 30
0.0
 10
450.616547
 20
228.441211
 30
0.0
 10
451.908704
 20
228.502631
 30
0.0
 10
452.563315
 20
228.533747
 30
0.0
 11
447.010395
 21
227.207782
 31
0.0
 11
448.748513
 21
227.925627
 31
0.0
 11
450.606437
 21
228.377016
 31
0.0
 11
452.563315
 21
228.533747
 31
0.0
  0
LINE
  5
2a0
100
AcDbEntity
  8
0
 62
7
100
AcDbLine
 10
444.941537
 20
222.124141
 30
0.0
 11
444.941537
 21
228.248646
 31
0.0
  0
LINE
  5
2a1
100
AcDbEntity
  8
0
 62
7
100
AcDbLine
 10
444.941537
 20
228.248646
 30
0.0
 11
445.060522
 21
228.248646
 31
0.0
  0
LINE
  5
2a2
100
AcDbEntity
  8
0
 62
7
100
AcDbLine
 10
445.060522
 20
228.248646
 30
0.0
 11
456.174546
 21
235.308011
 31
0.0
  0
LINE
  5
2a3
100
AcDbEntity
  8
0
 62
7
100
AcDbLine
 10
456.174546
 20
235.308011
 30
0.0
 11
467.288457
 21
228.248646
 31
0.0
  0
LINE
  5
2a4
100
AcDbEntity
  8
0
 62
7
100
AcDbLine
 10
467.288457
 20
228.248646
 30
0.0
 11
467.450819
 21
228.248646
 31
0.0
  0
LINE
  5
2a5
100
AcDbEntity
  8
0
 62
7
100
AcDbLine
 10
467.450819
 20
228.248646
 30
0.0
 11
467.450819
 21
216.572040
 31
0.0
  0
SPLINE
  5
2a6
100
AcDbEntity
  8
0
 62
7
100
AcDbSpline
 70
0
 71
3
 72
10
 73
6
 74
4
 40
0.000000
 40
0.000000
 40
0.000000
 40
0.000000
 40
1.275164
 40
2.446130
 40
3.587926
 40
3.587926
 40
3.587926
 40
3.587926
 10
442.484962
 20
219.968161
 30
0.0
 10
442.911062
 20
220.023908
 30
0.0
 10
443.728444
 20
220.130847
 30
0.0
 10
444.726751
 20
220.964474
 30
0.0
 10
444.870546
 20
221.740850
 30
0.0
 10
444.941537
 20
222.124141
 30
0.0
 11
442.484962
 21
219.968161
 31
0.0
 11
443.726095
 21
220.260789
 31
0.0
 11
444.606769
 21
221.032524
 31
0.0
 11
444.941537
 21
222.124141
 31
0.0
  0
LINE
  5
2a7
100
AcDbEntity
  8
0
 62
7
100
AcDbLine
 10
450.276637
 20
201.432565
 30
0.0
 11
440.980717
 21
201.432565
 31
0.0
  0
LINE
  5
2a8
100
AcDbEntity
  8
0
 62
7
100
AcDbLine
 10
440.980717
 20
201.432565
 30
0.0
 11
440.980717
 21
201.432565
 31
0.0
  0
LINE
  5
2a9
100
AcDbEntity
  8
0
 62
7
100
AcDbLine
 10
375.647345
 20
233.464705
 30
0.0
 11
375.647345
 21
203.275871
 31
0.0
  0
LINE
  5
2aa
100
AcDbEntity
  8
0
 62
7
100
AcDbLine
 10
375.647345
 20
203.275871
 30
0.0
 11
393.914715
 21
203.275871
 31
0.0
  0
LINE
  5
2ab
100
AcDbEntity
  8
0
 62
7
100
AcDbLine
 10
393.914715
 20
203.275871
 30
0.0
 11
407.569529
 21
218.365478
 31
0.0
  0
LINE
  5
2ac
100
AcDbEntity
  8
0
 62
7
100
AcDbLine
 10
407.569529
 20
218.365478
 30
0.0
 11
393.914715
 21
233.464705
 31
0.0
  0
LINE
  5
2ad
100
AcDbEntity
  8
0
 62
7
100
AcDbLine
 10
393.914715
 20
233.464705
 30
0.0
 11
375.647345
 21
233.464705
 31
0.0
  0
LINE
  5
2ae
100
AcDbEntity
  8
0
 62
7
100
AcDbLine
 10
375.647345
 20
233.464705
 30
0.0
 11
375.647345
 21
233.464705
 31
0.0
  0
SPLINE
  5
2af
100
AcDbEntity
  8
0
 62
7
100
AcDbSpline
 70
0
 71
3
 72
10
 73
6
 74
4
 40
0.000000
 40
0.000000
 40
0.000000
 40
0.000000
 40
8.002720
 40
16.206707
 40
25.130201
 40
25.130201
 40
25.130201
 40
25.130201
 10
467.450819
 20
216.572040
 30
0.0
 10
466.955301
 20
213.886171
 30
0.0
 10
465.951801
 20
208.446883
 30
0.0
 10
458.982979
 20
202.581497
 30
0.0
 10
453.258905
 20
201.826120
 30
0.0
 10
450.276637
 20
201.432565
 30
0.0
 11
467.450819
 21
216.572040
 31
0.0
 11
465.113114
 21
208.918370
 31
0.0
 11
458.958924
 21
203.493304
 31
0.0
 11
450.276637
 21
201.432565
 31
0.0
  0
LINE
  5
2b0
100
AcDbEntity
  8
0
 62
1
100
AcDbLine
 10
379.450826
 20
207.331743
 30
0.0
 11
379.450826
 21
229.397770
 31
0.0
  0
SPLINE
  5
2b1
100
AcDbEntity
  8
0
 62
1
100
AcDbSpline
 70
0
 71
3
 72
16
 73
12
 74
10
 40
0.000000
 40
0.000000
 40
0.000000
 40
0.000000
 40
6.465299
 40
12.736503
 40
19.195778
 40
25.655046
 40
31.926236
 40
38.391546
 40
40.354290
 40
42.265261
 40
44.144561
 40
44.144561
 40
44.144561
 40
44.144561
 10
385.003746
 20
230.723735
 30
0.0
 10
387.183511
 20
230.384244
 30
0.0
 10
391.477603
 20
229.715454
 30
0.0
 10
396.206913
 20
224.798463
 30
0.0
 10
397.961500
 20
218.381526
 30
0.0
 10
396.204823
 20
211.897759
 30
0.0
 10
391.485824
 20
207.177436
 30
0.0
 10
386.499278
 20
205.840523
 30
0.0
 10
383.058405
 20
206.121418
 30
0.0
 10
381.177762
 20
206.555312
 30
0.0
 10
380.023255
 20
207.074378
 30
0.0
 10
379.450826
 20
207.331743
 30
0.0
 11
385.003746
 21
230.723735
 31
0.0
 11
391.245123
 21
229.036933
 31
0.0
 11
395.681929
 21
224.604919
 31
0.0
 11
397.370554
 21
218.370275
 31
0.0
 11
395.681935
 21
212.135638
 31
0.0
 11
391.245136
 21
207.703636
 31
0.0
 11
385.003746
 21
206.016842
 31
0.0
 11
383.047050
 21
206.170811
 31
0.0
 11
381.188893
 21
206.616980
 31
0.0
 11
379.450826
 21
207.331743
 31
0.0
  0
LINE
  5
2b2
100
AcDbEntity
  8
0
 62
1
100
AcDbLine
 10
385.003746
 20
230.723735
 30
0.0
 11
385.003746
 21
230.723735
 31
0.0
  0
SPLINE
  5
2b3
100
AcDbEntity
  8
0
 62
1
100
AcDbSpline
 70
0
 71
3
 72
10
 73
6
 74
4
 40
0.000000
 40
0.000000
 40
0.000000
 40
0.000000
 40
1.880520
 40
3.792491
 40
5.755635
 40
5.755635
 40
5.755635
 40
5.755635
 10
379.450826
 20
229.397770
 30
0.0
 10
380.023359
 20
229.654799
 30
0.0
 10
381.178002
 20
230.173155
 30
0.0
 10
383.056978
 20
230.631199
 30
0.0
 10
384.349135
 20
230.692619
 30
0.0
 10
385.003746
 20
230.723735
 30
0.0
 11
379.450826
 21
229.397770
 31
0.0
 11
381.188944
 21
230.115615
 31
0.0
 11
383.046868
 21
230.567004
 31
0.0
 11
385.003746
 21
230.723735
 31
0.0
  0
LINE
  5
2b4
100
AcDbEntity
  8
0
 62
1
100
AcDbLine
 10
350.885478
 20
208.296407
 30
0.0
 11
350.885478
 21
230.362462
 31
0.0
  0
SPLINE
  5
2b5
100
AcDbEntity
  8
0
 62
1
100
AcDbSpline
 70
0
 71
3
 72
16
 73
12
 74
10
 40
0.000000
 40
0.000000
 40
0.000000
 40
0.000000
 40
6.465338
 40
12.736552
 40
19.195827
 40
25.655104
 40
31.926319
 40
38.391657
 40
40.354401
 40
42.265372
 40
44.144672
 40
44.144672
 40
44.144672
 40
44.144672
 10
356.438398
 20
231.688427
 30
0.0
 10
358.618177
 20
231.348938
 30
0.0
 10
362.912286
 20
230.680152
 30
0.0
 10
367.641620
 20
225.763161
 30
0.0
 10
369.396211
 20
219.346214
 30
0.0
 10
367.639521
 20
212.862438
 30
0.0
 10
362.920503
 20
208.142105
 30
0.0
 10
357.933940
 20
206.805186
 30
0.0
 10
354.493057
 20
207.086082
 30
0.0
 10
352.612414
 20
207.519976
 30
0.0
 10
351.457907
 20
208.039042
 30
0.0
 10
350.885478
 20
208.296407
 30
0.0
 11
356.438398
 21
231.688427
 31
0.0
 11
362.679815
 21
230.001625
 31
0.0
 11
367.116635
 21
225.569611
 31
0.0
 11
368.805262
 21
219.334967
 31
0.0
 11
367.116635
 21
213.100322
 31
0.0
 11
362.679815
 21
208.668307
 31
0.0
 11
356.438398
 21
206.981505
 31
0.0
 11
354.481702
 21
207.135474
 31
0.0
 11
352.623545
 21
207.581644
 31
0.0
 11
350.885478
 21
208.296407
 31
0.0
  0
LINE
  5
2b6
100
AcDbEntity
  8
0
 62
1
100
AcDbLine
 10
356.438398
 20
231.688427
 30
0.0
 11
356.438398
 21
231.688427
 31
0.0
  0
SPLINE
  5
2b7
100
AcDbEntity
  8
0
 62
1
100
AcDbSpline
 70
0
 71
3
 72
10
 73
6
 74
4
 40
0.000000
 40
0.000000
 40
0.000000
 40
0.000000
 40
1.880520
 40
3.792491
 40
5.755635
 40
5.755635
 40
5.755635
 40
5.755635
 10
350.885478
 20
230.362462
 30
0.0
 10
351.458011
 20
230.619491
 30
0.0
 10
352.612654
 20
231.137847
 30
0.0
 10
354.491630
 20
231.595891
 30
0.0
 10
355.783787
 20
231.657311
 30
0.0
 10
356.438398
 20
231.688427
 30
0.0
 11
350.885478
 21
230.362462
 31
0.0
 11
352.623596
 21
231.080307
 31
0.0
 11
354.481520
 21
231.531696
 31
0.0
 11
356.438398
 21
231.688427
 31
0.0
  0
LINE
  5
2b8
100
AcDbEntity
  8
0
 62
7
100
AcDbLine
 10
344.770343
 20
230.001161
 30
0.0
 11
344.770343
 21
208.093658
 31
0.0
  0
SPLINE
  5
2b9
100
AcDbEntity
  8
0
 62
7
100
AcDbSpline
 70
0
 71
3
 72
13
 73
9
 74
7
 40
0.000000
 40
0.000000
 40
0.000000
 40
0.000000
 40
8.346866
 40
16.445505
 40
24.792404
 40
29.230839
 40
33.519450
 40
37.751599
 40
37.751599
 40
37.751599
 40
37.751599
 10
372.339955
 20
219.047411
 30
0.0
 10
371.900720
 20
221.861500
 30
0.0
 10
371.035314
 20
227.405989
 30
0.0
 10
364.688906
 20
233.512077
 30
0.0
 10
357.676097
 20
235.411304
 30
0.0
 10
351.983709
 20
234.594856
 30
0.0
 10
347.934326
 20
232.877328
 30
0.0
 10
345.820335
 20
230.955639
 30
0.0
 10
344.770343
 20
230.001161
 30
0.0
 11
372.339955
 21
219.047411
 31
0.0
 11
370.160735
 21
227.104779
 31
0.0
 11
364.434133
 21
232.831381
 31
0.0
 11
356.376732
 21
235.010606
 31
0.0
 11
351.980991
 21
234.396463
 31
0.0
 11
348.055633
 21
232.669110
 31
0.0
 11
344.770343
 21
230.001161
 31
0.0
  0
LINE
  5
2ba
100
AcDbEntity
  8
0
 62
7
100
AcDbLine
 10
372.339955
 20
219.047411
 30
0.0
 11
372.339955
 21
219.047411
 31
0.0
  0
LINE
  5
2bb
100
AcDbEntity
  8
0
 62
7
100
AcDbLine
 10
408.833489
 20
199.386990
 30
0.0
 11
408.833489
 21
180.851368
 31
0.0
  0
LINE
  5
2bc
100
AcDbEntity
  8
0
 62
7
100
AcDbLine
 10
408.833489
 20
180.851368
 30
0.0
 11
410.337734
 21
180.851368
 31
0.0
  0
SPLINE
  5
2bd
100
AcDbEntity
  8
0
 62
7
100
AcDbSpline
 70
0
 71
3
 72
13
 73
9
 74
7
 40
0.000000
 40
0.000000
 40
0.000000
 40
0.000000
 40
4.232805
 40
8.521206
 40
12.959570
 40
21.306470
 40
29.405113
 40
37.751970
 40
37.751970
 40
37.751970
 40
37.751970
 10
344.770343
 20
208.093658
 30
0.0
 10
345.820259
 20
207.138727
 30
0.0
 10
347.933881
 20
205.216321
 30
0.0
 10
351.983836
 20
203.499471
 30
0.0
 10
357.676117
 20
202.683779
 30
0.0
 10
364.688910
 20
204.582667
 30
0.0
 10
371.035310
 20
210.688862
 30
0.0
 10
371.900719
 20
216.233334
 30
0.0
 10
372.339955
 20
219.047411
 30
0.0
 11
344.770343
 21
208.093658
 31
0.0
 11
348.055633
 21
205.424668
 31
0.0
 11
351.980991
 21
203.697836
 31
0.0
 11
356.376732
 21
203.084214
 31
0.0
 11
364.434133
 21
205.263445
 31
0.0
 11
370.160735
 21
210.990054
 31
0.0
 11
372.339955
 21
219.047411
 31
0.0
  0
LINE
  5
2be
100
AcDbEntity
  8
0
 62
7
100
AcDbLine
 10
412.794309
 20
178.695388
 30
0.0
 11
412.794309
 21
172.570912
 31
0.0
  0
LINE
  5
2bf
100
AcDbEntity
  8
0
 62
7
100
AcDbLine
 10
412.794309
 20
172.570912
 30
0.0
 11
412.913294
 21
172.570912
 31
0.0
  0
LINE
  5
2c0
100
AcDbEntity
  8
0
 62
7
100
AcDbLine
 10
412.913294
 20
172.570912
 30
0.0
 11
424.027318
 21
165.511552
 31
0.0
  0
LINE
  5
2c1
100
AcDbEntity
  8
0
 62
7
100
AcDbLine
 10
424.027318
 20
165.511552
 30
0.0
 11
435.141229
 21
172.570912
 31
0.0
  0
LINE
  5
2c2
100
AcDbEntity
  8
0
 62
7
100
AcDbLine
 10
435.141229
 20
172.570912
 30
0.0
 11
435.303591
 21
172.570912
 31
0.0
  0
LINE
  5
2c3
100
AcDbEntity
  8
0
 62
7
100
AcDbLine
 10
435.303591
 20
172.570912
 30
0.0
 11
435.303591
 21
184.247518
 31
0.0
  0
SPLINE
  5
2c4
100
AcDbEntity
  8
0
 62
7
100
AcDbSpline
 70
0
 71
3
 72
10
 73
6
 74
4
 40
0.000000
 40
0.000000
 40
0.000000
 40
0.000000
 40
1.275163
 40
2.446124
 40
3.587933
 40
3.587933
 40
3.587933
 40
3.587933
 10
410.337734
 20
180.851368
 30
0.0
 10
410.763834
 20
180.795623
 30
0.0
 10
411.581215
 20
180.688689
 30
0.0
 10
412.579529
 20
179.855065
 30
0.0
 10
412.723320
 20
179.078685
 30
0.0
 10
412.794309
 20
178.695388
 30
0.0
 11
410.337734
 21
180.851368
 31
0.0
 11
411.578868
 21
180.558747
 31
0.0
 11
412.459541
 21
179.787018
 31
0.0
 11
412.794309
 21
178.695388
 31
0.0
  0
LINE
  5
2c5
100
AcDbEntity
  8
0
 62
7
100
AcDbLine
 10
418.129410
 20
199.386990
 30
0.0
 11
408.833489
 21
199.386990
 31
0.0
  0
LINE
  5
2c6
100
AcDbEntity
  8
0
 62
7
100
AcDbLine
 10
408.833489
 20
199.386990
 30
0.0
 11
408.833489
 21
199.386990
 31
0.0
  0
SPLINE
  5
2c7
100
AcDbEntity
  8
0
 62
7
100
AcDbSpline
 70
0
 71
3
 72
10
 73
6
 74
4
 40
0.000000
 40
0.000000
 40
0.000000
 40
0.000000
 40
8.002718
 40
16.206705
 40
25.130199
 40
25.130199
 40
25.130199
 40
25.130199
 10
435.303591
 20
184.247518
 30
0.0
 10
434.808073
 20
186.933386
 30
0.0
 10
433.804573
 20
192.372673
 30
0.0
 10
426.835751
 20
198.238058
 30
0.0
 10
421.111677
 20
198.993435
 30
0.0
 10
418.129410
 20
199.386990
 30
0.0
 11
435.303591
 21
184.247518
 31
0.0
 11
432.965886
 21
191.901186
 31
0.0
 11
426.811696
 21
197.326251
 31
0.0
 11
418.129410
 21
199.386990
 31
0.0
  0
LINE
  5
2c8
100
AcDbEntity
  8
0
 62
1
100
AcDbLine
 10
414.863167
 20
173.600712
 30
0.0
 11
414.863167
 21
195.666737
 31
0.0
  0
SPLINE
  5
2c9
100
AcDbEntity
  8
0
 62
1
100
AcDbSpline
 70
0
 71
3
 72
16
 73
12
 74
10
 40
0.000000
 40
0.000000
 40
0.000000
 40
0.000000
 40
6.465299
 40
12.736503
 40
19.195778
 40
25.655044
 40
31.926234
 40
38.391543
 40
40.354287
 40
42.265259
 40
44.144558
 40
44.144558
 40
44.144558
 40
44.144558
 10
420.416087
 20
196.992701
 30
0.0
 10
422.595853
 20
196.653210
 30
0.0
 10
426.889945
 20
195.984420
 30
0.0
 10
431.619255
 20
191.067430
 30
0.0
 10
433.373841
 20
184.650493
 30
0.0
 10
431.617164
 20
178.166727
 30
0.0
 10
426.898165
 20
173.446405
 30
0.0
 10
421.911620
 20
172.109492
 30
0.0
 10
418.470746
 20
172.390387
 30
0.0
 10
416.590103
 20
172.824281
 30
0.0
 10
415.435597
 20
173.343348
 30
0.0
 10
414.863167
 20
173.600712
 30
0.0
 11
420.416087
 21
196.992701
 31
0.0
 11
426.657465
 21
195.305900
 31
0.0
 11
431.094270
 21
190.873885
 31
0.0
 11
432.782895
 21
184.639242
 31
0.0
 11
431.094276
 21
178.404606
 31
0.0
 11
426.657477
 21
173.972605
 31
0.0
 11
420.416087
 21
172.285811
 31
0.0
 11
418.459391
 21
172.439780
 31
0.0
 11
416.601235
 21
172.885949
 31
0.0
 11
414.863167
 21
173.600712
 31
0.0
  0
LINE
  5
2ca
100
AcDbEntity
  8
0
 62
1
100
AcDbLine
 10
420.416087
 20
196.992701
 30
0.0
 11
420.416087
 21
196.992701
 31
0.0
  0
SPLINE
  5
2cb
100
AcDbEntity
  8
0
 62
1
100
AcDbSpline
 70
0
 71
3
 72
10
 73
6
 74
4
 40
0.000000
 40
0.000000
 40
0.000000
 40
0.000000
 40
1.880520
 40
3.792491
 40
5.755635
 40
5.755635
 40
5.755635
 40
5.755635
 10
414.863167
 20
195.666737
 30
0.0
 10
415.435700
 20
195.923765
 30
0.0
 10
416.590343
 20
196.442122
 30
0.0
 10
418.469320
 20
196.900165
 30
0.0
 10
419.761477
 20
196.961586
 30
0.0
 10
420.416087
 20
196.992701
 30
0.0
 11
414.863167
 21
195.666737
 31
0.0
 11
416.601285
 21
196.384581
 31
0.0
 11
418.459209
 21
196.835971
 31
0.0
 11
420.416087
 21
196.992701
 31
0.0
  0
LINE
  5
2cc
100
AcDbEntity
  8
0
 62
1
100
AcDbLine
 10
445.299874
 20
169.220708
 30
0.0
 11
445.299874
 21
191.286761
 31
0.0
  0
SPLINE
  5
2cd
100
AcDbEntity
  8
0
 62
1
100
AcDbSpline
 70
0
 71
3
 72
16
 73
12
 74
10
 40
0.000000
 40
0.000000
 40
0.000000
 40
0.000000
 40
6.465299
 40
12.736503
 40
19.195778
 40
25.655063
 40
31.926258
 40
38.391568
 40
40.354312
 40
42.265283
 40
44.144583
 40
44.144583
 40
44.144583
 40
44.144583
 10
450.852794
 20
192.612725
 30
0.0
 10
453.032560
 20
192.273234
 30
0.0
 10
457.326652
 20
191.604444
 30
0.0
 10
462.055962
 20
186.687454
 30
0.0
 10
463.810548
 20
180.270511
 30
0.0
 10
462.053875
 20
173.786736
 30
0.0
 10
457.334875
 20
169.066401
 30
0.0
 10
452.348327
 20
167.729488
 30
0.0
 10
448.907453
 20
168.010383
 30
0.0
 10
447.026810
 20
168.444277
 30
0.0
 10
445.872304
 20
168.963344
 30
0.0
 10
445.299874
 20
169.220708
 30
0.0
 11
450.852794
 21
192.612725
 31
0.0
 11
457.094172
 21
190.925924
 31
0.0
 11
461.530977
 21
186.493909
 31
0.0
 11
463.219602
 21
180.259266
 31
0.0
 11
461.530983
 21
174.024610
 31
0.0
 11
457.094184
 21
169.592602
 31
0.0
 11
450.852794
 21
167.905807
 31
0.0
 11
448.896098
 21
168.059776
 31
0.0
 11
447.037942
 21
168.505945
 31
0.0
 11
445.299874
 21
169.220708
 31
0.0
  0
LINE
  5
2ce
100
AcDbEntity
  8
0
 62
1
100
AcDbLine
 10
450.852794
 20
192.612725
 30
0.0
 11
450.852794
 21
192.612725
 31
0.0
  0
LINE
  5
2cf
100
AcDbEntity
  8
0
 62
7
100
AcDbLine
 10
439.270196
 20
165.511552
 30
0.0
 11
439.270196
 21
184.047140
 31
0.0
  0
LINE
  5
2d0
100
AcDbEntity
  8
0
 62
7
100
AcDbLine
 10
439.270196
 20
184.047140
 30
0.0
 11
440.774441
 21
184.047140
 31
0.0
  0
SPLINE
  5
2d1
100
AcDbEntity
  8
0
 62
1
100
AcDbSpline
 70
0
 71
3
 72
10
 73
6
 74
4
 40
0.000000
 40
0.000000
 40
0.000000
 40
0.000000
 40
1.880520
 40
3.792491
 40
5.755635
 40
5.755635
 40
5.755635
 40
5.755635
 10
445.299874
 20
191.286761
 30
0.0
 10
445.872408
 20
191.543789
 30
0.0
 10
447.027050
 20
192.062146
 30
0.0
 10
448.906027
 20
192.520189
 30
0.0
 10
450.198184
 20
192.581610
 30
0.0
 10
450.852794
 20
192.612725
 30
0.0
 11
445.299874
 21
191.286761
 31
0.0
 11
447.037992
 21
192.004605
 31
0.0
 11
448.895916
 21
192.455995
 31
0.0
 11
450.852794
 21
192.612725
 31
0.0
  0
LINE
  5
2d2
100
AcDbEntity
  8
0
 62
7
100
AcDbLine
 10
443.231016
 20
186.203120
 30
0.0
 11
443.231016
 21
192.327624
 31
0.0
  0
LINE
  5
2d3
100
AcDbEntity
  8
0
 62
7
100
AcDbLine
 10
443.231016
 20
192.327624
 30
0.0
 11
443.350001
 21
192.327624
 31
0.0
  0
LINE
  5
2d4
100
AcDbEntity
  8
0
 62
7
100
AcDbLine
 10
443.350001
 20
192.327624
 30
0.0
 11
454.464025
 21
199.386990
 31
0.0
  0
LINE
  5
2d5
100
AcDbEntity
  8
0
 62
7
100
AcDbLine
 10
454.464025
 20
199.386990
 30
0.0
 11
465.577936
 21
192.327624
 31
0.0
  0
LINE
  5
2d6
100
AcDbEntity
  8
0
 62
7
100
AcDbLine
 10
465.577936
 20
192.327624
 30
0.0
 11
465.740298
 21
192.327624
 31
0.0
  0
LINE
  5
2d7
100
AcDbEntity
  8
0
 62
7
100
AcDbLine
 10
465.740298
 20
192.327624
 30
0.0
 11
465.740298
 21
180.651019
 31
0.0
  0
SPLINE
  5
2d8
100
AcDbEntity
  8
0
 62
7
100
AcDbSpline
 70
0
 71
3
 72
10
 73
6
 74
4
 40
0.000000
 40
0.000000
 40
0.000000
 40
0.000000
 40
1.275164
 40
2.446130
 40
3.587926
 40
3.587926
 40
3.587926
 40
3.587926
 10
440.774441
 20
184.047140
 30
0.0
 10
441.200541
 20
184.102887
 30
0.0
 10
442.017924
 20
184.209826
 30
0.0
 10
443.016231
 20
185.043452
 30
0.0
 10
443.160025
 20
185.819828
 30
0.0
 10
443.231016
 20
186.203120
 30
0.0
 11
440.774441
 21
184.047140
 31
0.0
 11
442.015575
 21
184.339768
 31
0.0
 11
442.896248
 21
185.111502
 31
0.0
 11
443.231016
 21
186.203120
 31
0.0
  0
LINE
  5
2d9
100
AcDbEntity
  8
0
 62
7
100
AcDbLine
 10
448.566117
 20
165.511552
 30
0.0
 11
439.270196
 21
165.511552
 31
0.0
  0
LINE
  5
2da
100
AcDbEntity
  8
0
 62
7
100
AcDbLine
 10
439.270196
 20
165.511552
 30
0.0
 11
439.270196
 21
165.511552
 31
0.0
  0
LINE
  5
2db
100
AcDbEntity
  8
0
 62
7
100
AcDbLine
 10
373.936824
 20
197.543684
 30
0.0
 11
373.936824
 21
167.354852
 31
0.0
  0
LINE
  5
2dc
100
AcDbEntity
  8
0
 62
7
100
AcDbLine
 10
373.936824
 20
167.354852
 30
0.0
 11
392.204194
 21
167.354852
 31
0.0
  0
LINE
  5
2dd
100
AcDbEntity
  8
0
 62
7
100
AcDbLine
 10
392.204194
 20
167.354852
 30
0.0
 11
405.859008
 21
182.444456
 31
0.0
  0
LINE
  5
2de
100
AcDbEntity
  8
0
 62
7
100
AcDbLine
 10
405.859008
 20
182.444456
 30
0.0
 11
392.204194
 21
197.543684
 31
0.0
  0
LINE
  5
2df
100
AcDbEntity
  8
0
 62
7
100
AcDbLine
 10
392.204194
 20
197.543684
 30
0.0
 11
373.936824
 21
197.543684
 31
0.0
  0
LINE
  5
2e0
100
AcDbEntity
  8
0
 62
7
100
AcDbLine
 10
373.936824
 20
197.543684
 30
0.0
 11
373.936824
 21
197.543684
 31
0.0
  0
SPLINE
  5
2e1
100
AcDbEntity
  8
0
 62
7
100
AcDbSpline
 70
0
 71
3
 72
10
 73
6
 74
4
 40
0.000000
 40
0.000000
 40
0.000000
 40
0.000000
 40
8.002717
 40
16.206702
 40
25.130195
 40
25.130195
 40
25.130195
 40
25.130195
 10
465.740298
 20
180.651019
 30
0.0
 10
465.244780
 20
177.965150
 30
0.0
 10
464.241280
 20
172.525864
 30
0.0
 10
457.272457
 20
166.660482
 30
0.0
 10
451.548384
 20
165.905106
 30
0.0
 10
448.566117
 20
165.511552
 30
0.0
 11
465.740298
 21
180.651019
 31
0.0
 11
463.402593
 21
172.997352
 31
0.0
 11
457.248403
 21
167.572289
 31
0.0
 11
448.566117
 21
165.511552
 31
0.0
  0
LINE
  5
2e2
100
AcDbEntity
  8
0
 62
1
100
AcDbLine
 10
377.740305
 20
171.410724
 30
0.0
 11
377.740305
 21
193.476749
 31
0.0
  0
SPLINE
  5
2e3
100
AcDbEntity
  8
0
 62
1
100
AcDbSpline
 70
0
 71
3
 72
16
 73
12
 74
10
 40
0.000000
 40
0.000000
 40
0.000000
 40
0.000000
 40
6.465299
 40
12.736503
 40
19.195778
 40
25.655044
 40
31.926234
 40
38.391543
 40
40.354287
 40
42.265259
 40
44.144558
 40
44.144558
 40
44.144558
 40
44.144558
 10
383.293225
 20
194.802713
 30
0.0
 10
385.472991
 20
194.463222
 30
0.0
 10
389.767083
 20
193.794432
 30
0.0
 10
394.496393
 20
188.877442
 30
0.0
 10
396.250979
 20
182.460505
 30
0.0
 10
394.494302
 20
175.976739
 30
0.0
 10
389.775303
 20
171.256417
 30
0.0
 10
384.788758
 20
169.919504
 30
0.0
 10
381.347884
 20
170.200399
 30
0.0
 10
379.467241
 20
170.634293
 30
0.0
 10
378.312735
 20
171.153360
 30
0.0
 10
377.740305
 20
171.410724
 30
0.0
 11
383.293225
 21
194.802713
 31
0.0
 11
389.534603
 21
193.115912
 31
0.0
 11
393.971408
 21
188.683897
 31
0.0
 11
395.660033
 21
182.449254
 31
0.0
 11
393.971414
 21
176.214618
 31
0.0
 11
389.534615
 21
171.782617
 31
0.0
 11
383.293225
 21
170.095823
 31
0.0
 11
381.336529
 21
170.249792
 31
0.0
 11
379.478373
 21
170.695961
 31
0.0
 11
377.740305
 21
171.410724
 31
0.0
  0
LINE
  5
2e4
100
AcDbEntity
  8
0
 62
1
100
AcDbLine
 10
383.293225
 20
194.802713
 30
0.0
 11
383.293225
 21
194.802713
 31
0.0
  0
SPLINE
  5
2e5
100
AcDbEntity
  8
0
 62
1
100
AcDbSpline
 70
0
 71
3
 72
10
 73
6
 74
4
 40
0.000000
 40
0.000000
 40
0.000000
 40
0.000000
 40
1.880520
 40
3.792491
 40
5.755635
 40
5.755635
 40
5.755635
 40
5.755635
 10
377.740305
 20
193.476749
 30
0.0
 10
378.312838
 20
193.733777
 30
0.0
 10
379.467481
 20
194.252134
 30
0.0
 10
381.346458
 20
194.710177
 30
0.0
 10
382.638615
 20
194.771598
 30
0.0
 10
383.293225
 20
194.802713
 30
0.0
 11
377.740305
 21
193.476749
 31
0.0
 11
379.478423
 21
194.194593
 31
0.0
 11
381.336347
 21
194.645983
 31
0.0
 11
383.293225
 21
194.802713
 31
0.0
  0
LINE
  5
2e6
100
AcDbEntity
  8
0
 62
1
100
AcDbLine
 10
349.174957
 20
172.375388
 30
0.0
 11
349.174957
 21
194.441441
 31
0.0
  0
SPLINE
  5
2e7
100
AcDbEntity
  8
0
 62
1
100
AcDbSpline
 70
0
 71
3
 72
16
 73
12
 74
10
 40
0.000000
 40
0.000000
 40
0.000000
 40
0.000000
 40
6.465338
 40
12.736552
 40
19.195827
 40
25.655103
 40
31.926316
 40
38.391654
 40
40.354398
 40
42.265370
 40
44.144669
 40
44.144669
 40
44.144669
 40
44.144669
 10
354.727877
 20
195.767405
 30
0.0
 10
356.907656
 20
195.427916
 30
0.0
 10
361.201766
 20
194.759131
 30
0.0
 10
365.931099
 20
189.842139
 30
0.0
 10
367.685690
 20
183.425193
 30
0.0
 10
365.929000
 20
176.941418
 30
0.0
 10
361.209982
 20
172.221087
 30
0.0
 10
356.223419
 20
170.884167
 30
0.0
 10
352.782536
 20
171.165063
 30
0.0
 10
350.901893
 20
171.598957
 30
0.0
 10
349.747387
 20
172.118024
 30
0.0
 10
349.174957
 20
172.375388
 30
0.0
 11
354.727877
 21
195.767405
 31
0.0
 11
360.969295
 21
194.080604
 31
0.0
 11
365.406114
 21
189.648589
 31
0.0
 11
367.094742
 21
183.413946
 31
0.0
 11
365.406114
 21
177.179303
 31
0.0
 11
360.969295
 21
172.747288
 31
0.0
 11
354.727877
 21
171.060487
 31
0.0
 11
352.771181
 21
171.214456
 31
0.0
 11
350.913025
 21
171.660625
 31
0.0
 11
349.174957
 21
172.375388
 31
0.0
  0
LINE
  5
2e8
100
AcDbEntity
  8
0
 62
1
100
AcDbLine
 10
354.727877
 20
195.767405
 30
0.0
 11
354.727877
 21
195.767405
 31
0.0
  0
SPLINE
  5
2e9
100
AcDbEntity
  8
0
 62
1
100
AcDbSpline
 70
0
 71
3
 72
10
 73
6
 74
4
 40
0.000000
 40
0.000000
 40
0.000000
 40
0.000000
 40
1.880520
 40
3.792491
 40
5.755635
 40
5.755635
 40
5.755635
 40
5.755635
 10
349.174957
 20
194.441441
 30
0.0
 10
349.747490
 20
194.698469
 30
0.0
 10
350.902133
 20
195.216826
 30
0.0
 10
352.781110
 20
195.674869
 30
0.0
 10
354.073267
 20
195.736290
 30
0.0
 10
354.727877
 20
195.767405
 30
0.0
 11
349.174957
 21
194.441441
 31
0.0
 11
350.913075
 21
195.159285
 31
0.0
 11
352.770999
 21
195.610675
 31
0.0
 11
354.727877
 21
195.767405
 31
0.0
  0
LINE
  5
2ea
100
AcDbEntity
  8
0
 62
7
100
AcDbLine
 10
343.059822
 20
194.080140
 30
0.0
 11
343.059822
 21
172.172640
 31
0.0
  0
SPLINE
  5
2eb
100
AcDbEntity
  8
0
 62
7
100
AcDbSpline
 70
0
 71
3
 72
13
 73
9
 74
7
 40
0.000000
 40
0.000000
 40
0.000000
 40
0.000000
 40
8.346866
 40
16.445505
 40
24.792404
 40
29.230839
 40
33.519450
 40
37.751599
 40
37.751599
 40
37.751599
 40
37.751599
 10
370.629434
 20
183.126390
 30
0.0
 10
370.190200
 20
185.940479
 30
0.0
 10
369.324794
 20
191.484968
 30
0.0
 10
362.978386
 20
197.591056
 30
0.0
 10
355.965576
 20
199.490283
 30
0.0
 10
350.273189
 20
198.673835
 30
0.0
 10
346.223806
 20
196.956307
 30
0.0
 10
344.109814
 20
195.034617
 30
0.0
 10
343.059822
 20
194.080140
 30
0.0
 11
370.629434
 21
183.126390
 31
0.0
 11
368.450214
 21
191.183758
 31
0.0
 11
362.723612
 21
196.910359
 31
0.0
 11
354.666211
 21
199.089584
 31
0.0
 11
350.270471
 21
198.475441
 31
0.0
 11
346.345113
 21
196.748089
 31
0.0
 11
343.059822
 21
194.080140
 31
0.0
  0
LINE
  5
2ec
100
AcDbEntity
  8
0
 62
7
100
AcDbLine
 10
370.629434
 20
183.126390
 30
0.0
 11
370.629434
 21
183.126390
 31
0.0
  0
LINE
  5
2ed
100
AcDbEntity
  8
0
 62
7
100
AcDbLine
 10
311.381055
 20
306.748235
 30
0.0
 11
311.381055
 21
276.559404
 31
0.0
  0
LINE
  5
2ee
100
AcDbEntity
  8
0
 62
7
100
AcDbLine
 10
311.381055
 20
276.559404
 30
0.0
 11
329.648425
 21
276.559404
 31
0.0
  0
LINE
  5
2ef
100
AcDbEntity
  8
0
 62
7
100
AcDbLine
 10
329.648425
 20
276.559404
 30
0.0
 11
343.303239
 21
291.649007
 31
0.0
  0
LINE
  5
2f0
100
AcDbEntity
  8
0
 62
7
100
AcDbLine
 10
343.303239
 20
291.649007
 30
0.0
 11
329.648425
 21
306.748235
 31
0.0
  0
LINE
  5
2f1
100
AcDbEntity
  8
0
 62
7
100
AcDbLine
 10
329.648425
 20
306.748235
 30
0.0
 11
311.381055
 21
306.748235
 31
0.0
  0
LINE
  5
2f2
100
AcDbEntity
  8
0
 62
7
100
AcDbLine
 10
311.381055
 20
306.748235
 30
0.0
 11
311.381055
 21
306.748235
 31
0.0
  0
SPLINE
  5
2f3
100
AcDbEntity
  8
0
 62
7
100
AcDbSpline
 70
0
 71
3
 72
13
 73
9
 74
7
 40
0.000000
 40
0.000000
 40
0.000000
 40
0.000000
 40
4.232805
 40
8.521206
 40
12.959570
 40
21.306470
 40
29.405113
 40
37.751967
 40
37.751967
 40
37.751967
 40
37.751967
 10
343.059822
 20
172.172640
 30
0.0
 10
344.109738
 20
171.217708
 30
0.0
 10
346.223361
 20
169.295303
 30
0.0
 10
350.273315
 20
167.578453
 30
0.0
 10
355.965596
 20
166.762760
 30
0.0
 10
362.978389
 20
168.661648
 30
0.0
 10
369.324789
 20
174.767842
 30
0.0
 10
370.190198
 20
180.312313
 30
0.0
 10
370.629434
 20
183.126390
 30
0.0
 11
343.059822
 21
172.172640
 31
0.0
 11
346.345113
 21
169.503650
 31
0.0
 11
350.270471
 21
167.776818
 31
0.0
 11
354.666211
 21
167.163195
 31
0.0
 11
362.723612
 21
169.342426
 31
0.0
 11
368.450214
 21
175.069034
 31
0.0
 11
370.629434
 21
183.126390
 31
0.0
  0
LINE
  5
2f4
100
AcDbEntity
  8
0
 62
1
100
AcDbLine
 10
315.184536
 20
280.615276
 30
0.0
 11
315.184536
 21
302.681300
 31
0.0
  0
SPLINE
  5
2f5
100
AcDbEntity
  8
0
 62
1
100
AcDbSpline
 70
0
 71
3
 72
16
 73
12
 74
10
 40
0.000000
 40
0.000000
 40
0.000000
 40
0.000000
 40
6.465299
 40
12.736503
 40
19.195778
 40
25.655044
 40
31.926234
 40
38.391543
 40
40.354287
 40
42.265259
 40
44.144558
 40
44.144558
 40
44.144558
 40
44.144558
 10
320.737456
 20
304.007264
 30
0.0
 10
322.917221
 20
303.667773
 30
0.0
 10
327.211314
 20
302.998983
 30
0.0
 10
331.940624
 20
298.081993
 30
0.0
 10
333.695210
 20
291.665056
 30
0.0
 10
331.938533
 20
285.181290
 30
0.0
 10
327.219534
 20
280.460968
 30
0.0
 10
322.232989
 20
279.124055
 30
0.0
 10
318.792115
 20
279.404951
 30
0.0
 10
316.911472
 20
279.838844
 30
0.0
 10
315.756966
 20
280.357911
 30
0.0
 10
315.184536
 20
280.615276
 30
0.0
 11
320.737456
 21
304.007264
 31
0.0
 11
326.978834
 21
302.320463
 31
0.0
 11
331.415639
 21
297.888448
 31
0.0
 11
333.104264
 21
291.653805
 31
0.0
 11
331.415645
 21
285.419169
 31
0.0
 11
326.978846
 21
280.987168
 31
0.0
 11
320.737456
 21
279.300374
 31
0.0
 11
318.780760
 21
279.454343
 31
0.0
 11
316.922604
 21
279.900512
 31
0.0
 11
315.184536
 21
280.615276
 31
0.0
  0
LINE
  5
2f6
100
AcDbEntity
  8
0
 62
1
100
AcDbLine
 10
320.737456
 20
304.007264
 30
0.0
 11
320.737456
 21
304.007264
 31
0.0
  0
LINE
  5
2f7
100
AcDbEntity
  8
0
 62
7
100
AcDbLine
 10
310.466655
 20
270.310411
 30
0.0
 11
310.466655
 21
240.121571
 31
0.0
  0
LINE
  5
2f8
100
AcDbEntity
  8
0
 62
7
100
AcDbLine
 10
310.466655
 20
240.121571
 30
0.0
 11
328.734025
 21
240.121571
 31
0.0
  0
LINE
  5
2f9
100
AcDbEntity
  8
0
 62
7
100
AcDbLine
 10
328.734025
 20
240.121571
 30
0.0
 11
342.388839
 21
255.211181
 31
0.0
  0
LINE
  5
2fa
100
AcDbEntity
  8
0
 62
7
100
AcDbLine
 10
342.388839
 20
255.211181
 30
0.0
 11
328.734025
 21
270.310411
 31
0.0
  0
LINE
  5
2fb
100
AcDbEntity
  8
0
 62
7
100
AcDbLine
 10
328.734025
 20
270.310411
 30
0.0
 11
310.466655
 21
270.310411
 31
0.0
  0
LINE
  5
2fc
100
AcDbEntity
  8
0
 62
7
100
AcDbLine
 10
310.466655
 20
270.310411
 30
0.0
 11
310.466655
 21
270.310411
 31
0.0
  0
SPLINE
  5
2fd
100
AcDbEntity
  8
0
 62
1
100
AcDbSpline
 70
0
 71
3
 72
10
 73
6
 74
4
 40
0.000000
 40
0.000000
 40
0.000000
 40
0.000000
 40
1.880520
 40
3.792491
 40
5.755635
 40
5.755635
 40
5.755635
 40
5.755635
 10
315.184536
 20
302.681300
 30
0.0
 10
315.757069
 20
302.938329
 30
0.0
 10
316.911712
 20
303.456685
 30
0.0
 10
318.790688
 20
303.914728
 30
0.0
 10
320.082846
 20
303.976149
 30
0.0
 10
320.737456
 20
304.007264
 30
0.0
 11
315.184536
 21
302.681300
 31
0.0
 11
316.922654
 21
303.399145
 31
0.0
 11
318.780578
 21
303.850534
 31
0.0
 11
320.737456
 21
304.007264
 31
0.0
  0
LINE
  5
2fe
100
AcDbEntity
  8
0
 62
1
100
AcDbLine
 10
314.270136
 20
244.177443
 30
0.0
 11
314.270136
 21
266.243476
 31
0.0
  0
SPLINE
  5
2ff
100
AcDbEntity
  8
0
 62
1
100
AcDbSpline
 70
0
 71
3
 72
16
 73
12
 74
10
 40
0.000000
 40
0.000000
 40
0.000000
 40
0.000000
 40
6.465299
 40
12.736504
 40
19.195780
 40
25.655048
 40
31.926239
 40
38.391549
 40
40.354294
 40
42.265265
 40
44.144564
 40
44.144564
 40
44.144564
 40
44.144564
 10
319.823056
 20
267.569440
 30
0.0
 10
322.002821
 20
267.229949
 30
0.0
 10
326.296914
 20
266.561159
 30
0.0
 10
331.026224
 20
261.644168
 30
0.0
 10
332.780810
 20
255.227230
 30
0.0
 10
331.024133
 20
248.743462
 30
0.0
 10
326.305135
 20
244.023137
 30
0.0
 10
321.318589
 20
242.686223
 30
0.0
 10
317.877715
 20
242.967118
 30
0.0
 10
315.997072
 20
243.401012
 30
0.0
 10
314.842566
 20
243.920078
 30
0.0
 10
314.270136
 20
244.177443
 30
0.0
 11
319.823056
 21
267.569440
 31
0.0
 11
326.064434
 21
265.882639
 31
0.0
 11
330.501239
 21
261.450624
 31
0.0
 11
332.189864
 21
255.215978
 31
0.0
 11
330.501245
 21
248.981341
 31
0.0
 11
326.064446
 21
244.549337
 31
0.0
 11
319.823056
 21
242.862542
 31
0.0
 11
317.866360
 21
243.016511
 31
0.0
 11
316.008204
 21
243.462680
 31
0.0
 11
314.270136
 21
244.177443
 31
0.0
  0
LINE
  5
300
100
AcDbEntity
  8
0
 62
1
100
AcDbLine
 10
319.823056
 20
267.569440
 30
0.0
 11
319.823056
 21
267.569440
 31
0.0
  0
LINE
  5
301
100
AcDbEntity
  8
0
 62
7
100
AcDbLine
 10
309.326280
 20
234.959529
 30
0.0
 11
309.326280
 21
204.770695
 31
0.0
  0
LINE
  5
302
100
AcDbEntity
  8
0
 62
7
100
AcDbLine
 10
309.326280
 20
204.770695
 30
0.0
 11
327.593650
 21
204.770695
 31
0.0
  0
LINE
  5
303
100
AcDbEntity
  8
0
 62
7
100
AcDbLine
 10
327.593650
 20
204.770695
 30
0.0
 11
341.248464
 21
219.860302
 31
0.0
  0
LINE
  5
304
100
AcDbEntity
  8
0
 62
7
100
AcDbLine
 10
341.248464
 20
219.860302
 30
0.0
 11
327.593650
 21
234.959529
 31
0.0
  0
LINE
  5
305
100
AcDbEntity
  8
0
 62
7
100
AcDbLine
 10
327.593650
 20
234.959529
 30
0.0
 11
309.326280
 21
234.959529
 31
0.0
  0
LINE
  5
306
100
AcDbEntity
  8
0
 62
7
100
AcDbLine
 10
309.326280
 20
234.959529
 30
0.0
 11
309.326280
 21
234.959529
 31
0.0
  0
SPLINE
  5
307
100
AcDbEntity
  8
0
 62
1
100
AcDbSpline
 70
0
 71
3
 72
10
 73
6
 74
4
 40
0.000000
 40
0.000000
 40
0.000000
 40
0.000000
 40
1.880520
 40
3.792491
 40
5.755635
 40
5.755635
 40
5.755635
 40
5.755635
 10
314.270136
 20
266.243476
 30
0.0
 10
314.842669
 20
266.500505
 30
0.0
 10
315.997312
 20
267.018861
 30
0.0
 10
317.876288
 20
267.476904
 30
0.0
 10
319.168446
 20
267.538325
 30
0.0
 10
319.823056
 20
267.569440
 30
0.0
 11
314.270136
 21
266.243476
 31
0.0
 11
316.008254
 21
266.961321
 31
0.0
 11
317.866178
 21
267.412710
 31
0.0
 11
319.823056
 21
267.569440
 31
0.0
  0
LINE
  5
308
100
AcDbEntity
  8
0
 62
1
100
AcDbLine
 10
313.129761
 20
208.826567
 30
0.0
 11
313.129761
 21
230.892594
 31
0.0
  0
SPLINE
  5
309
100
AcDbEntity
  8
0
 62
1
100
AcDbSpline
 70
0
 71
3
 72
16
 73
12
 74
10
 40
0.000000
 40
0.000000
 40
0.000000
 40
0.000000
 40
6.465299
 40
12.736503
 40
19.195778
 40
25.655046
 40
31.926236
 40
38.391546
 40
40.354290
 40
42.265261
 40
44.144561
 40
44.144561
 40
44.144561
 40
44.144561
 10
318.682680
 20
232.218559
 30
0.0
 10
320.862446
 20
231.879068
 30
0.0
 10
325.156538
 20
231.210277
 30
0.0
 10
329.885848
 20
226.293287
 30
0.0
 10
331.640435
 20
219.876350
 30
0.0
 10
329.883758
 20
213.392583
 30
0.0
 10
325.164759
 20
208.672259
 30
0.0
 10
320.178213
 20
207.335347
 30
0.0
 10
316.737340
 20
207.616242
 30
0.0
 10
314.856697
 20
208.050136
 30
0.0
 10
313.702190
 20
208.569202
 30
0.0
 10
313.129761
 20
208.826567
 30
0.0
 11
318.682680
 21
232.218559
 31
0.0
 11
324.924058
 21
230.531757
 31
0.0
 11
329.360863
 21
226.099743
 31
0.0
 11
331.049489
 21
219.865099
 31
0.0
 11
329.360870
 21
213.630461
 31
0.0
 11
324.924071
 21
209.198460
 31
0.0
 11
318.682680
 21
207.511665
 31
0.0
 11
316.725985
 21
207.665634
 31
0.0
 11
314.867828
 21
208.111804
 31
0.0
 11
313.129761
 21
208.826567
 31
0.0
  0
LINE
  5
30a
100
AcDbEntity
  8
0
 62
1
100
AcDbLine
 10
318.682680
 20
232.218559
 30
0.0
 11
318.682680
 21
232.218559
 31
0.0
  0
SPLINE
  5
30b
100
AcDbEntity
  8
0
 62
1
100
AcDbSpline
 70
0
 71
3
 72
10
 73
6
 74
4
 40
0.000000
 40
0.000000
 40
0.000000
 40
0.000000
 40
1.880520
 40
3.792491
 40
5.755635
 40
5.755635
 40
5.755635
 40
5.755635
 10
313.129761
 20
230.892594
 30
0.0
 10
313.702294
 20
231.149623
 30
0.0
 10
314.856936
 20
231.667979
 30
0.0
 10
316.735913
 20
232.126023
 30
0.0
 10
318.028070
 20
232.187443
 30
0.0
 10
318.682680
 20
232.218559
 30
0.0
 11
313.129761
 21
230.892594
 31
0.0
 11
314.867878
 21
231.610439
 31
0.0
 11
316.725803
 21
232.061828
 31
0.0
 11
318.682680
 21
232.218559
 31
0.0
  0
LINE
  5
30c
100
AcDbEntity
  8
0
 62
1
100
AcDbLine
 10
335.466888
 20
145.239425
 30
0.0
 11
313.400835
 21
145.239425
 31
0.0
  0
SPLINE
  5
30d
100
AcDbEntity
  8
0
 62
1
100
AcDbSpline
 70
0
 71
3
 72
16
 73
12
 74
10
 40
0.000000
 40
0.000000
 40
0.000000
 40
0.000000
 40
6.465299
 40
12.736503
 40
19.195778
 40
25.655063
 40
31.926258
 40
38.391568
 40
40.354312
 40
42.265283
 40
44.144583
 40
44.144583
 40
44.144583
 40
44.144583
 10
312.074870
 20
150.792345
 30
0.0
 10
312.414361
 20
152.972111
 30
0.0
 10
313.083152
 20
157.266203
 30
0.0
 10
318.000142
 20
161.995513
 30
0.0
 10
324.417085
 20
163.750099
 30
0.0
 10
330.900860
 20
161.993426
 30
0.0
 10
335.621195
 20
157.274426
 30
0.0
 10
336.958108
 20
152.287878
 30
0.0
 10
336.677213
 20
148.847004
 30
0.0
 10
336.243319
 20
146.966361
 30
0.0
 10
335.724252
 20
145.811855
 30
0.0
 10
335.466888
 20
145.239425
 30
0.0
 11
312.074870
 21
150.792345
 31
0.0
 11
313.761672
 21
157.033723
 31
0.0
 11
318.193687
 21
161.470528
 31
0.0
 11
324.428330
 21
163.159153
 31
0.0
 11
330.662986
 21
161.470534
 31
0.0
 11
335.094994
 21
157.033735
 31
0.0
 11
336.781789
 21
150.792345
 31
0.0
 11
336.627820
 21
148.835649
 31
0.0
 11
336.181651
 21
146.977493
 31
0.0
 11
335.466888
 21
145.239425
 31
0.0
  0
LINE
  5
30e
100
AcDbEntity
  8
0
 62
1
100
AcDbLine
 10
312.074870
 20
150.792345
 30
0.0
 11
312.074870
 21
150.792345
 31
0.0
  0
LINE
  5
30f
100
AcDbEntity
  8
0
 62
7
100
AcDbLine
 10
339.176050
 20
139.209745
 30
0.0
 11
320.640456
 21
139.209745
 31
0.0
  0
LINE
  5
310
100
AcDbEntity
  8
0
 62
7
100
AcDbLine
 10
320.640456
 20
139.209745
 30
0.0
 11
320.640456
 21
140.713989
 31
0.0
  0
SPLINE
  5
311
100
AcDbEntity
  8
0
 62
1
100
AcDbSpline
 70
0
 71
3
 72
10
 73
6
 74
4
 40
0.000000
 40
0.000000
 40
0.000000
 40
0.000000
 40
1.880520
 40
3.792491
 40
5.755635
 40
5.755635
 40
5.755635
 40
5.755635
 10
313.400835
 20
145.239425
 30
0.0
 10
313.143806
 20
145.811959
 30
0.0
 10
312.625450
 20
146.966601
 30
0.0
 10
312.167406
 20
148.845578
 30
0.0
 10
312.105986
 20
150.137735
 30
0.0
 10
312.074870
 20
150.792345
 30
0.0
 11
313.400835
 21
145.239425
 31
0.0
 11
312.682990
 21
146.977543
 31
0.0
 11
312.231601
 21
148.835467
 31
0.0
 11
312.074870
 21
150.792345
 31
0.0
  0
LINE
  5
312
100
AcDbEntity
  8
0
 62
7
100
AcDbLine
 10
318.484476
 20
143.170564
 30
0.0
 11
312.359971
 21
143.170564
 31
0.0
  0
LINE
  5
313
100
AcDbEntity
  8
0
 62
7
100
AcDbLine
 10
312.359971
 20
143.170564
 30
0.0
 11
312.359971
 21
143.289549
 31
0.0
  0
LINE
  5
314
100
AcDbEntity
  8
0
 62
7
100
AcDbLine
 10
312.359971
 20
143.289549
 30
0.0
 11
305.300606
 21
154.403576
 31
0.0
  0
LINE
  5
315
100
AcDbEntity
  8
0
 62
7
100
AcDbLine
 10
305.300606
 20
154.403576
 30
0.0
 11
312.359971
 21
165.517487
 31
0.0
  0
LINE
  5
316
100
AcDbEntity
  8
0
 62
7
100
AcDbLine
 10
312.359971
 20
165.517487
 30
0.0
 11
312.359971
 21
165.679849
 31
0.0
  0
LINE
  5
317
100
AcDbEntity
  8
0
 62
7
100
AcDbLine
 10
312.359971
 20
165.679849
 30
0.0
 11
324.036577
 21
165.679849
 31
0.0
  0
SPLINE
  5
318
100
AcDbEntity
  8
0
 62
7
100
AcDbSpline
 70
0
 71
3
 72
10
 73
6
 74
4
 40
0.000000
 40
0.000000
 40
0.000000
 40
0.000000
 40
1.275164
 40
2.446130
 40
3.587926
 40
3.587926
 40
3.587926
 40
3.587926
 10
320.640456
 20
140.713989
 30
0.0
 10
320.584709
 20
141.140090
 30
0.0
 10
320.477770
 20
141.957472
 30
0.0
 10
319.644143
 20
142.955779
 30
0.0
 10
318.867768
 20
143.099574
 30
0.0
 10
318.484476
 20
143.170564
 30
0.0
 11
320.640456
 21
140.713989
 31
0.0
 11
320.347828
 21
141.955123
 31
0.0
 11
319.576094
 21
142.835796
 31
0.0
 11
318.484476
 21
143.170564
 31
0.0
  0
LINE
  5
319
100
AcDbEntity
  8
0
 62
7
100
AcDbLine
 10
339.176050
 20
148.505668
 30
0.0
 11
339.176050
 21
139.209745
 31
0.0
  0
LINE
  5
31a
100
AcDbEntity
  8
0
 62
7
100
AcDbLine
 10
339.176050
 20
139.209745
 30
0.0
 11
339.176050
 21
139.209745
 31
0.0
  0
SPLINE
  5
31b
100
AcDbEntity
  8
0
 62
7
100
AcDbSpline
 70
0
 71
3
 72
10
 73
6
 74
4
 40
0.000000
 40
0.000000
 40
0.000000
 40
0.000000
 40
8.002718
 40
16.206705
 40
25.130199
 40
25.130199
 40
25.130199
 40
25.130199
 10
324.036577
 20
165.679849
 30
0.0
 10
326.722446
 20
165.184331
 30
0.0
 10
332.161733
 20
164.180831
 30
0.0
 10
338.027118
 20
157.212009
 30
0.0
 10
338.782495
 20
151.487935
 30
0.0
 10
339.176050
 20
148.505668
 30
0.0
 11
324.036577
 21
165.679849
 31
0.0
 11
331.690245
 21
163.342144
 31
0.0
 11
337.115311
 21
157.187954
 31
0.0
 11
339.176050
 21
148.505668
 31
0.0
  0
LINE
  5
31c
100
AcDbEntity
  8
0
 62
1
100
AcDbLine
 10
371.904712
 20
144.325022
 30
0.0
 11
349.838659
 21
144.325022
 31
0.0
  0
SPLINE
  5
31d
100
AcDbEntity
  8
0
 62
1
100
AcDbSpline
 70
0
 71
3
 72
16
 73
12
 74
10
 40
0.000000
 40
0.000000
 40
0.000000
 40
0.000000
 40
6.465299
 40
12.736503
 40
19.195778
 40
25.655063
 40
31.926258
 40
38.391568
 40
40.354312
 40
42.265284
 40
44.144585
 40
44.144585
 40
44.144585
 40
44.144585
 10
348.512694
 20
149.877945
 30
0.0
 10
348.852185
 20
152.057711
 30
0.0
 10
349.520976
 20
156.351803
 30
0.0
 10
354.437966
 20
161.081113
 30
0.0
 10
360.854909
 20
162.835699
 30
0.0
 10
367.338684
 20
161.079026
 30
0.0
 10
372.059019
 20
156.360026
 30
0.0
 10
373.395932
 20
151.373478
 30
0.0
 10
373.115037
 20
147.932604
 30
0.0
 10
372.681143
 20
146.051960
 30
0.0
 10
372.162076
 20
144.897453
 30
0.0
 10
371.904712
 20
144.325022
 30
0.0
 11
348.512694
 21
149.877945
 31
0.0
 11
350.199496
 21
156.119323
 31
0.0
 11
354.631511
 21
160.556128
 31
0.0
 11
360.866154
 21
162.244753
 31
0.0
 11
367.100810
 21
160.556134
 31
0.0
 11
371.532818
 21
156.119335
 31
0.0
 11
373.219613
 21
149.877945
 31
0.0
 11
373.065644
 21
147.921249
 31
0.0
 11
372.619475
 21
146.063092
 31
0.0
 11
371.904712
 21
144.325022
 31
0.0
  0
LINE
  5
31e
100
AcDbEntity
  8
0
 62
1
100
AcDbLine
 10
348.512694
 20
149.877945
 30
0.0
 11
348.512694
 21
149.877945
 31
0.0
  0
LINE
  5
31f
100
AcDbEntity
  8
0
 62
7
100
AcDbLine
 10
375.613874
 20
138.295345
 30
0.0
 11
357.078280
 21
138.295345
 31
0.0
  0
LINE
  5
320
100
AcDbEntity
  8
0
 62
7
100
AcDbLine
 10
357.078280
 20
138.295345
 30
0.0
 11
357.078280
 21
139.799589
 31
0.0
  0
SPLINE
  5
321
100
AcDbEntity
  8
0
 62
1
100
AcDbSpline
 70
0
 71
3
 72
10
 73
6
 74
4
 40
0.000000
 40
0.000000
 40
0.000000
 40
0.000000
 40
1.880522
 40
3.792494
 40
5.755638
 40
5.755638
 40
5.755638
 40
5.755638
 10
349.838659
 20
144.325022
 30
0.0
 10
349.581630
 20
144.897556
 30
0.0
 10
349.063274
 20
146.052200
 30
0.0
 10
348.605230
 20
147.931177
 30
0.0
 10
348.543810
 20
149.223335
 30
0.0
 10
348.512694
 20
149.877945
 30
0.0
 11
349.838659
 21
144.325022
 31
0.0
 11
349.120814
 21
146.063142
 31
0.0
 11
348.669425
 21
147.921067
 31
0.0
 11
348.512694
 21
149.877945
 31
0.0
  0
LINE
  5
322
100
AcDbEntity
  8
0
 62
7
100
AcDbLine
 10
354.922300
 20
142.256164
 30
0.0
 11
348.797795
 21
142.256164
 31
0.0
  0
LINE
  5
323
100
AcDbEntity
  8
0
 62
7
100
AcDbLine
 10
348.797795
 20
142.256164
 30
0.0
 11
348.797795
 21
142.375149
 31
0.0
  0
LINE
  5
324
100
AcDbEntity
  8
0
 62
7
100
AcDbLine
 10
348.797795
 20
142.375149
 30
0.0
 11
341.738430
 21
153.489176
 31
0.0
  0
LINE
  5
325
100
AcDbEntity
  8
0
 62
7
100
AcDbLine
 10
341.738430
 20
153.489176
 30
0.0
 11
348.797795
 21
164.603087
 31
0.0
  0
LINE
  5
326
100
AcDbEntity
  8
0
 62
7
100
AcDbLine
 10
348.797795
 20
164.603087
 30
0.0
 11
348.797795
 21
164.765449
 31
0.0
  0
LINE
  5
327
100
AcDbEntity
  8
0
 62
7
100
AcDbLine
 10
348.797795
 20
164.765449
 30
0.0
 11
360.474401
 21
164.765449
 31
0.0
  0
SPLINE
  5
328
100
AcDbEntity
  8
0
 62
7
100
AcDbSpline
 70
0
 71
3
 72
10
 73
6
 74
4
 40
0.000000
 40
0.000000
 40
0.000000
 40
0.000000
 40
1.275164
 40
2.446130
 40
3.587926
 40
3.587926
 40
3.587926
 40
3.587926
 10
357.078280
 20
139.799589
 30
0.0
 10
357.022533
 20
140.225690
 30
0.0
 10
356.915594
 20
141.043072
 30
0.0
 10
356.081967
 20
142.041379
 30
0.0
 10
355.305592
 20
142.185174
 30
0.0
 10
354.922300
 20
142.256164
 30
0.0
 11
357.078280
 21
139.799589
 31
0.0
 11
356.785652
 21
141.040723
 31
0.0
 11
356.013918
 21
141.921396
 31
0.0
 11
354.922300
 21
142.256164
 31
0.0
  0
LINE
  5
329
100
AcDbEntity
  8
0
 62
7
100
AcDbLine
 10
375.613874
 20
147.591268
 30
0.0
 11
375.613874
 21
138.295345
 31
0.0
  0
LINE
  5
32a
100
AcDbEntity
  8
0
 62
7
100
AcDbLine
 10
375.613874
 20
138.295345
 30
0.0
 11
375.613874
 21
138.295345
 31
0.0
  0
SPLINE
  5
32b
100
AcDbEntity
  8
0
 62
7
100
AcDbSpline
 70
0
 71
3
 72
10
 73
6
 74
4
 40
0.000000
 40
0.000000
 40
0.000000
 40
0.000000
 40
8.002718
 40
16.206705
 40
25.130199
 40
25.130199
 40
25.130199
 40
25.130199
 10
360.474401
 20
164.765449
 30
0.0
 10
363.160270
 20
164.269931
 30
0.0
 10
368.599557
 20
163.266431
 30
0.0
 10
374.464942
 20
156.297609
 30
0.0
 10
375.220319
 20
150.573535
 30
0.0
 10
375.613874
 20
147.591268
 30
0.0
 11
360.474401
 21
164.765449
 31
0.0
 11
368.128069
 21
162.427744
 31
0.0
 11
373.553135
 21
156.273554
 31
0.0
 11
375.613874
 21
147.591268
 31
0.0
  0
LINE
  5
32c
100
AcDbEntity
  8
0
 62
1
100
AcDbLine
 10
407.255585
 20
143.184647
 30
0.0
 11
385.189532
 21
143.184647
 31
0.0
  0
SPLINE
  5
32d
100
AcDbEntity
  8
0
 62
1
100
AcDbSpline
 70
0
 71
3
 72
16
 73
12
 74
10
 40
0.000000
 40
0.000000
 40
0.000000
 40
0.000000
 40
6.465299
 40
12.736503
 40
19.195778
 40
25.655063
 40
31.926258
 40
38.391568
 40
40.354312
 40
42.265284
 40
44.144585
 40
44.144585
 40
44.144585
 40
44.144585
 10
383.863568
 20
148.737570
 30
0.0
 10
384.203059
 20
150.917335
 30
0.0
 10
384.871849
 20
155.211427
 30
0.0
 10
389.788839
 20
159.940738
 30
0.0
 10
396.205782
 20
161.695324
 30
0.0
 10
402.689558
 20
159.938651
 30
0.0
 10
407.409892
 20
155.219651
 30
0.0
 10
408.746805
 20
150.233103
 30
0.0
 10
408.465910
 20
146.792229
 30
0.0
 10
408.032016
 20
144.911585
 30
0.0
 10
407.512950
 20
143.757077
 30
0.0
 10
407.255585
 20
143.184647
 30
0.0
 11
383.863568
 21
148.737570
 31
0.0
 11
385.550369
 21
154.978948
 31
0.0
 11
389.982384
 21
159.415753
 31
0.0
 11
396.217027
 21
161.104378
 31
0.0
 11
402.451683
 21
159.415759
 31
0.0
 11
406.883691
 21
154.978960
 31
0.0
 11
408.570486
 21
148.737570
 31
0.0
 11
408.416517
 21
146.780874
 31
0.0
 11
407.970348
 21
144.922717
 31
0.0
 11
407.255585
 21
143.184647
 31
0.0
  0
LINE
  5
32e
100
AcDbEntity
  8
0
 62
1
100
AcDbLine
 10
383.863568
 20
148.737570
 30
0.0
 11
383.863568
 21
148.737570
 31
0.0
  0
LINE
  5
32f
100
AcDbEntity
  8
0
 62
7
100
AcDbLine
 10
410.964747
 20
137.154969
 30
0.0
 11
392.429153
 21
137.154969
 31
0.0
  0
LINE
  5
330
100
AcDbEntity
  8
0
 62
7
100
AcDbLine
 10
392.429153
 20
137.154969
 30
0.0
 11
392.429153
 21
138.659214
 31
0.0
  0
SPLINE
  5
331
100
AcDbEntity
  8
0
 62
1
100
AcDbSpline
 70
0
 71
3
 72
10
 73
6
 74
4
 40
0.000000
 40
0.000000
 40
0.000000
 40
0.000000
 40
1.880522
 40
3.792494
 40
5.755638
 40
5.755638
 40
5.755638
 40
5.755638
 10
385.189532
 20
143.184647
 30
0.0
 10
384.932504
 20
143.757181
 30
0.0
 10
384.414147
 20
144.911825
 30
0.0
 10
383.956104
 20
146.790802
 30
0.0
 10
383.894683
 20
148.082959
 30
0.0
 10
383.863568
 20
148.737570
 30
0.0
 11
385.189532
 21
143.184647
 31
0.0
 11
384.471688
 21
144.922767
 31
0.0
 11
384.020298
 21
146.780692
 31
0.0
 11
383.863568
 21
148.737570
 31
0.0
  0
LINE
  5
332
100
AcDbEntity
  8
0
 62
7
100
AcDbLine
 10
390.273173
 20
141.115789
 30
0.0
 11
384.148669
 21
141.115789
 31
0.0
  0
LINE
  5
333
100
AcDbEntity
  8
0
 62
7
100
AcDbLine
 10
384.148669
 20
141.115789
 30
0.0
 11
384.148669
 21
141.234774
 31
0.0
  0
LINE
  5
334
100
AcDbEntity
  8
0
 62
7
100
AcDbLine
 10
384.148669
 20
141.234774
 30
0.0
 11
377.089303
 21
152.348801
 31
0.0
  0
LINE
  5
335
100
AcDbEntity
  8
0
 62
7
100
AcDbLine
 10
377.089303
 20
152.348801
 30
0.0
 11
384.148669
 21
163.462712
 31
0.0
  0
LINE
  5
336
100
AcDbEntity
  8
0
 62
7
100
AcDbLine
 10
384.148669
 20
163.462712
 30
0.0
 11
384.148669
 21
163.625074
 31
0.0
  0
LINE
  5
337
100
AcDbEntity
  8
0
 62
7
100
AcDbLine
 10
384.148669
 20
163.625074
 30
0.0
 11
395.825274
 21
163.625074
 31
0.0
  0
SPLINE
  5
338
100
AcDbEntity
  8
0
 62
7
100
AcDbSpline
 70
0
 71
3
 72
10
 73
6
 74
4
 40
0.000000
 40
0.000000
 40
0.000000
 40
0.000000
 40
1.275164
 40
2.446130
 40
3.587926
 40
3.587926
 40
3.587926
 40
3.587926
 10
392.429153
 20
138.659214
 30
0.0
 10
392.373406
 20
139.085314
 30
0.0
 10
392.266467
 20
139.902697
 30
0.0
 10
391.432841
 20
140.901003
 30
0.0
 10
390.656465
 20
141.044798
 30
0.0
 10
390.273173
 20
141.115789
 30
0.0
 11
392.429153
 21
138.659214
 31
0.0
 11
392.136525
 21
139.900348
 31
0.0
 11
391.364791
 21
140.781021
 31
0.0
 11
390.273173
 21
141.115789
 31
0.0
  0
LINE
  5
339
100
AcDbEntity
  8
0
 62
7
100
AcDbLine
 10
410.964747
 20
146.450892
 30
0.0
 11
410.964747
 21
137.154969
 31
0.0
  0
LINE
  5
33a
100
AcDbEntity
  8
0
 62
7
100
AcDbLine
 10
410.964747
 20
137.154969
 30
0.0
 11
410.964747
 21
137.154969
 31
0.0
  0
SPLINE
  5
33b
100
AcDbEntity
  8
0
 62
7
100
AcDbSpline
 70
0
 71
3
 72
10
 73
6
 74
4
 40
0.000000
 40
0.000000
 40
0.000000
 40
0.000000
 40
8.002718
 40
16.206705
 40
25.130199
 40
25.130199
 40
25.130199
 40
25.130199
 10
395.825274
 20
163.625074
 30
0.0
 10
398.511143
 20
163.129555
 30
0.0
 10
403.950430
 20
162.126056
 30
0.0
 10
409.815815
 20
155.157233
 30
0.0
 10
410.571192
 20
149.433160
 30
0.0
 10
410.964747
 20
146.450892
 30
0.0
 11
395.825274
 21
163.625074
 31
0.0
 11
403.478943
 21
161.287369
 31
0.0
 11
408.904008
 21
155.133179
 31
0.0
 11
410.964747
 21
146.450892
 31
0.0
  0
LINE
  5
33c
100
AcDbEntity
  8
0
 62
1
100
AcDbLine
 10
443.176604
 20
141.474126
 30
0.0
 11
421.110551
 21
141.474126
 31
0.0
  0
SPLINE
  5
33d
100
AcDbEntity
  8
0
 62
1
100
AcDbSpline
 70
0
 71
3
 72
16
 73
12
 74
10
 40
0.000000
 40
0.000000
 40
0.000000
 40
0.000000
 40
6.465299
 40
12.736503
 40
19.195778
 40
25.655063
 40
31.926258
 40
38.391568
 40
40.354313
 40
42.265286
 40
44.144585
 40
44.144585
 40
44.144585
 40
44.144585
 10
419.784586
 20
147.027049
 30
0.0
 10
420.124077
 20
149.206815
 30
0.0
 10
420.792868
 20
153.500907
 30
0.0
 10
425.709858
 20
158.230217
 30
0.0
 10
432.126801
 20
159.984803
 30
0.0
 10
438.610576
 20
158.228130
 30
0.0
 10
443.330911
 20
153.509130
 30
0.0
 10
444.667824
 20
148.522582
 30
0.0
 10
444.386928
 20
145.081708
 30
0.0
 10
443.953035
 20
143.201064
 30
0.0
 10
443.433968
 20
142.046556
 30
0.0
 10
443.176604
 20
141.474126
 30
0.0
 11
419.784586
 21
147.027049
 31
0.0
 11
421.471388
 21
153.268427
 31
0.0
 11
425.903403
 21
157.705232
 31
0.0
 11
432.138046
 21
159.393857
 31
0.0
 11
438.372702
 21
157.705238
 31
0.0
 11
442.804710
 21
153.268439
 31
0.0
 11
444.491505
 21
147.027049
 31
0.0
 11
444.337536
 21
145.070352
 31
0.0
 11
443.891367
 21
143.212195
 31
0.0
 11
443.176604
 21
141.474126
 31
0.0
  0
LINE
  5
33e
100
AcDbEntity
  8
0
 62
1
100
AcDbLine
 10
419.784586
 20
147.027049
 30
0.0
 11
419.784586
 21
147.027049
 31
0.0
  0
LINE
  5
33f
100
AcDbEntity
  8
0
 62
7
100
AcDbLine
 10
446.885766
 20
135.444449
 30
0.0
 11
428.350172
 21
135.444449
 31
0.0
  0
LINE
  5
340
100
AcDbEntity
  8
0
 62
7
100
AcDbLine
 10
428.350172
 20
135.444449
 30
0.0
 11
428.350172
 21
136.948693
 31
0.0
  0
SPLINE
  5
341
100
AcDbEntity
  8
0
 62
1
100
AcDbSpline
 70
0
 71
3
 72
10
 73
6
 74
4
 40
0.000000
 40
0.000000
 40
0.000000
 40
0.000000
 40
1.880520
 40
3.792493
 40
5.755638
 40
5.755638
 40
5.755638
 40
5.755638
 10
421.110551
 20
141.474126
 30
0.0
 10
420.853522
 20
142.046660
 30
0.0
 10
420.335166
 20
143.201303
 30
0.0
 10
419.877123
 20
145.080281
 30
0.0
 10
419.815702
 20
146.372438
 30
0.0
 10
419.784586
 20
147.027049
 30
0.0
 11
421.110551
 21
141.474126
 31
0.0
 11
420.392706
 21
143.212245
 31
0.0
 11
419.941317
 21
145.070171
 31
0.0
 11
419.784586
 21
147.027049
 31
0.0
  0
LINE
  5
342
100
AcDbEntity
  8
0
 62
7
100
AcDbLine
 10
426.194192
 20
139.405268
 30
0.0
 11
420.069687
 21
139.405268
 31
0.0
  0
LINE
  5
343
100
AcDbEntity
  8
0
 62
7
100
AcDbLine
 10
420.069687
 20
139.405268
 30
0.0
 11
420.069687
 21
139.524253
 31
0.0
  0
LINE
  5
344
100
AcDbEntity
  8
0
 62
7
100
AcDbLine
 10
420.069687
 20
139.524253
 30
0.0
 11
413.010322
 21
150.638280
 31
0.0
  0
LINE
  5
345
100
AcDbEntity
  8
0
 62
7
100
AcDbLine
 10
413.010322
 20
150.638280
 30
0.0
 11
420.069687
 21
161.752191
 31
0.0
  0
LINE
  5
346
100
AcDbEntity
  8
0
 62
7
100
AcDbLine
 10
420.069687
 20
161.752191
 30
0.0
 11
420.069687
 21
161.914553
 31
0.0
  0
LINE
  5
347
100
AcDbEntity
  8
0
 62
7
100
AcDbLine
 10
420.069687
 20
161.914553
 30
0.0
 11
431.746293
 21
161.914553
 31
0.0
  0
SPLINE
  5
348
100
AcDbEntity
  8
0
 62
7
100
AcDbSpline
 70
0
 71
3
 72
10
 73
6
 74
4
 40
0.000000
 40
0.000000
 40
0.000000
 40
0.000000
 40
1.275164
 40
2.446130
 40
3.587926
 40
3.587926
 40
3.587926
 40
3.587926
 10
428.350172
 20
136.948693
 30
0.0
 10
428.294425
 20
137.374794
 30
0.0
 10
428.187486
 20
138.192176
 30
0.0
 10
427.353859
 20
139.190483
 30
0.0
 10
426.577484
 20
139.334278
 30
0.0
 10
426.194192
 20
139.405268
 30
0.0
 11
428.350172
 21
136.948693
 31
0.0
 11
428.057544
 21
138.189827
 31
0.0
 11
427.285810
 21
139.070500
 31
0.0
 11
426.194192
 21
139.405268
 31
0.0
  0
LINE
  5
349
100
AcDbEntity
  8
0
 62
7
100
AcDbLine
 10
446.885766
 20
144.740372
 30
0.0
 11
446.885766
 21
135.444449
 31
0.0
  0
LINE
  5
34a
100
AcDbEntity
  8
0
 62
7
100
AcDbLine
 10
446.885766
 20
135.444449
 30
0.0
 11
446.885766
 21
135.444449
 31
0.0
  0
LINE
  5
34b
100
AcDbEntity
  8
0
 62
7
100
AcDbLine
 10
307.615759
 20
199.038508
 30
0.0
 11
307.615759
 21
168.849676
 31
0.0
  0
LINE
  5
34c
100
AcDbEntity
  8
0
 62
7
100
AcDbLine
 10
307.615759
 20
168.849676
 30
0.0
 11
325.883129
 21
168.849676
 31
0.0
  0
LINE
  5
34d
100
AcDbEntity
  8
0
 62
7
100
AcDbLine
 10
325.883129
 20
168.849676
 30
0.0
 11
339.537943
 21
183.939280
 31
0.0
  0
LINE
  5
34e
100
AcDbEntity
  8
0
 62
7
100
AcDbLine
 10
339.537943
 20
183.939280
 30
0.0
 11
325.883129
 21
199.038508
 31
0.0
  0
LINE
  5
34f
100
AcDbEntity
  8
0
 62
7
100
AcDbLine
 10
325.883129
 20
199.038508
 30
0.0
 11
307.615759
 21
199.038508
 31
0.0
  0
LINE
  5
350
100
AcDbEntity
  8
0
 62
7
100
AcDbLine
 10
307.615759
 20
199.038508
 30
0.0
 11
307.615759
 21
199.038508
 31
0.0
  0
SPLINE
  5
351
100
AcDbEntity
  8
0
 62
7
100
AcDbSpline
 70
0
 71
3
 72
10
 73
6
 74
4
 40
0.000000
 40
0.000000
 40
0.000000
 40
0.000000
 40
8.002718
 40
16.206705
 40
25.130199
 40
25.130199
 40
25.130199
 40
25.130199
 10
431.746293
 20
161.914553
 30
0.0
 10
434.432162
 20
161.419035
 30
0.0
 10
439.871449
 20
160.415535
 30
0.0
 10
445.736834
 20
153.446713
 30
0.0
 10
446.492211
 20
147.722639
 30
0.0
 10
446.885766
 20
144.740372
 30
0.0
 11
431.746293
 21
161.914553
 31
0.0
 11
439.399961
 21
159.576848
 31
0.0
 11
444.825027
 21
153.422658
 31
0.0
 11
446.885766
 21
144.740372
 31
0.0
  0
LINE
  5
352
100
AcDbEntity
  8
0
 62
1
100
AcDbLine
 10
311.419240
 20
172.905548
 30
0.0
 11
311.419240
 21
194.971573
 31
0.0
  0
SPLINE
  5
353
100
AcDbEntity
  8
0
 62
1
100
AcDbSpline
 70
0
 71
3
 72
16
 73
12
 74
10
 40
0.000000
 40
0.000000
 40
0.000000
 40
0.000000
 40
6.465299
 40
12.736503
 40
19.195778
 40
25.655044
 40
31.926234
 40
38.391543
 40
40.354287
 40
42.265259
 40
44.144558
 40
44.144558
 40
44.144558
 40
44.144558
 10
316.972160
 20
196.297537
 30
0.0
 10
319.151925
 20
195.958046
 30
0.0
 10
323.446018
 20
195.289256
 30
0.0
 10
328.175328
 20
190.372266
 30
0.0
 10
329.929914
 20
183.955329
 30
0.0
 10
328.173237
 20
177.471563
 30
0.0
 10
323.454238
 20
172.751241
 30
0.0
 10
318.467693
 20
171.414328
 30
0.0
 10
315.026819
 20
171.695223
 30
0.0
 10
313.146176
 20
172.129117
 30
0.0
 10
311.991670
 20
172.648184
 30
0.0
 10
311.419240
 20
172.905548
 30
0.0
 11
316.972160
 21
196.297537
 31
0.0
 11
323.213538
 21
194.610736
 31
0.0
 11
327.650343
 21
190.178721
 31
0.0
 11
329.338968
 21
183.944078
 31
0.0
 11
327.650349
 21
177.709442
 31
0.0
 11
323.213550
 21
173.277441
 31
0.0
 11
316.972160
 21
171.590647
 31
0.0
 11
315.015464
 21
171.744616
 31
0.0
 11
313.157308
 21
172.190785
 31
0.0
 11
311.419240
 21
172.905548
 31
0.0
  0
LINE
  5
354
100
AcDbEntity
  8
0
 62
1
100
AcDbLine
 10
316.972160
 20
196.297537
 30
0.0
 11
316.972160
 21
196.297537
 31
0.0
  0
SPLINE
  5
355
100
AcDbEntity
  8
0
 62
1
100
AcDbSpline
 70
0
 71
3
 72
10
 73
6
 74
4
 40
0.000000
 40
0.000000
 40
0.000000
 40
0.000000
 40
1.880520
 40
3.792491
 40
5.755635
 40
5.755635
 40
5.755635
 40
5.755635
 10
311.419240
 20
194.971573
 30
0.0
 10
311.991773
 20
195.228601
 30
0.0
 10
313.146416
 20
195.746958
 30
0.0
 10
315.025392
 20
196.205001
 30
0.0
 10
316.317550
 20
196.266422
 30
0.0
 10
316.972160
 20
196.297537
 30
0.0
 11
311.419240
 21
194.971573
 31
0.0
 11
313.157358
 21
195.689417
 31
0.0
 11
315.015282
 21
196.140807
 31
0.0
 11
316.972160
 21
196.297537
 31
0.0
  0
LINE
  5
356
100
AcDbEntity
  8
0
 62
1
100
AcDbLine
 10
334.828614
 20
313.729992
 30
0.0
 11
312.762561
 21
313.729992
 31
0.0
  0
SPLINE
  5
357
100
AcDbEntity
  8
0
 62
1
100
AcDbSpline
 70
0
 71
3
 72
16
 73
12
 74
10
 40
0.000000
 40
0.000000
 40
0.000000
 40
0.000000
 40
6.465319
 40
12.736527
 40
19.195802
 40
25.655078
 40
31.926286
 40
38.391605
 40
40.354349
 40
42.265321
 40
44.144620
 40
44.144620
 40
44.144620
 40
44.144620
 10
311.436597
 20
319.282912
 30
0.0
 10
311.776087
 20
321.462684
 30
0.0
 10
312.444875
 20
325.756785
 30
0.0
 10
317.361865
 20
330.486107
 30
0.0
 10
323.778808
 20
332.240697
 30
0.0
 10
330.262582
 20
330.484008
 30
0.0
 10
334.982911
 20
325.765001
 30
0.0
 10
336.319835
 20
320.778448
 30
0.0
 10
336.038939
 20
317.337571
 30
0.0
 10
335.605045
 20
315.456928
 30
0.0
 10
335.085978
 20
314.302422
 30
0.0
 10
334.828614
 20
313.729992
 30
0.0
 11
311.436597
 21
319.282912
 31
0.0
 11
313.123398
 21
325.524310
 31
0.0
 11
317.555413
 21
329.961122
 31
0.0
 11
323.790056
 21
331.649749
 31
0.0
 11
330.024699
 21
329.961122
 31
0.0
 11
334.456714
 21
325.524310
 31
0.0
 11
336.143515
 21
319.282912
 31
0.0
 11
335.989546
 21
317.326216
 31
0.0
 11
335.543377
 21
315.468060
 31
0.0
 11
334.828614
 21
313.729992
 31
0.0
  0
LINE
  5
358
100
AcDbEntity
  8
0
 62
1
100
AcDbLine
 10
311.436597
 20
319.282912
 30
0.0
 11
311.436597
 21
319.282912
 31
0.0
  0
SPLINE
  5
359
100
AcDbEntity
  8
0
 62
1
100
AcDbSpline
 70
0
 71
3
 72
10
 73
6
 74
4
 40
0.000000
 40
0.000000
 40
0.000000
 40
0.000000
 40
1.880520
 40
3.792491
 40
5.755635
 40
5.755635
 40
5.755635
 40
5.755635
 10
312.762561
 20
313.729992
 30
0.0
 10
312.505533
 20
314.302526
 30
0.0
 10
311.987176
 20
315.457168
 30
0.0
 10
311.529133
 20
317.336145
 30
0.0
 10
311.467712
 20
318.628302
 30
0.0
 10
311.436597
 20
319.282912
 30
0.0
 11
312.762561
 21
313.729992
 31
0.0
 11
312.044717
 21
315.468110
 31
0.0
 11
311.593327
 21
317.326034
 31
0.0
 11
311.436597
 21
319.282912
 31
0.0
  0
LINE
  5
35a
100
AcDbEntity
  8
0
 62
7
100
AcDbLine
 10
313.123862
 20
308.905076
 30
0.0
 11
335.031362
 21
308.905076
 31
0.0
  0
SPLINE
  5
35b
100
AcDbEntity
  8
0
 62
7
100
AcDbSpline
 70
0
 71
3
 72
13
 73
9
 74
7
 40
0.000000
 40
0.000000
 40
0.000000
 40
0.000000
 40
8.346866
 40
16.445499
 40
24.792379
 40
29.230814
 40
33.519426
 40
37.751576
 40
37.751576
 40
37.751576
 40
37.751576
 10
324.077612
 20
336.474662
 30
0.0
 10
321.263524
 20
336.035428
 30
0.0
 10
315.719037
 20
335.170022
 30
0.0
 10
309.612950
 20
328.823627
 30
0.0
 10
307.713719
 20
321.810826
 30
0.0
 10
308.530167
 20
316.118445
 30
0.0
 10
310.247696
 20
312.069061
 30
0.0
 10
312.169385
 20
309.955068
 30
0.0
 10
313.123862
 20
308.905076
 30
0.0
 11
324.077612
 21
336.474662
 31
0.0
 11
316.020244
 21
334.295443
 31
0.0
 11
310.293643
 21
328.568848
 31
0.0
 11
308.114418
 21
320.511468
 31
0.0
 11
308.728561
 21
316.115727
 31
0.0
 11
310.455913
 21
312.190368
 31
0.0
 11
313.123862
 21
308.905076
 31
0.0
  0
LINE
  5
35c
100
AcDbEntity
  8
0
 62
7
100
AcDbLine
 10
324.077612
 20
336.474662
 30
0.0
 11
324.077612
 21
336.474662
 31
0.0
  0
SPLINE
  5
35d
100
AcDbEntity
  8
0
 62
7
100
AcDbSpline
 70
0
 71
3
 72
13
 73
9
 74
7
 40
0.000000
 40
0.000000
 40
0.000000
 40
0.000000
 40
4.232807
 40
8.521209
 40
12.959572
 40
21.306454
 40
29.405091
 40
37.751945
 40
37.751945
 40
37.751945
 40
37.751945
 10
335.031362
 20
308.905076
 30
0.0
 10
335.986294
 20
309.954993
 30
0.0
 10
337.908699
 20
312.068616
 30
0.0
 10
339.625549
 20
316.118571
 30
0.0
 10
340.441242
 20
321.810846
 30
0.0
 10
338.542350
 20
328.823630
 30
0.0
 10
332.436158
 20
335.170017
 30
0.0
 10
326.891689
 20
336.035426
 30
0.0
 10
324.077612
 20
336.474662
 30
0.0
 11
335.031362
 21
308.905076
 31
0.0
 11
337.700352
 21
312.190368
 31
0.0
 11
339.427184
 21
316.115727
 31
0.0
 11
340.040807
 21
320.511468
 31
0.0
 11
337.861576
 21
328.568848
 31
0.0
 11
332.134968
 21
334.295443
 31
0.0
 11
324.077612
 21
336.474662
 31
0.0
  0
LINE
  5
35e
100
AcDbEntity
  8
0
 62
1
100
AcDbLine
 10
371.266466
 20
313.729992
 30
0.0
 11
349.200385
 21
313.729992
 31
0.0
  0
SPLINE
  5
35f
100
AcDbEntity
  8
0
 62
1
100
AcDbSpline
 70
0
 71
3
 72
16
 73
12
 74
10
 40
0.000000
 40
0.000000
 40
0.000000
 40
0.000000
 40
6.465319
 40
12.736533
 40
19.195827
 40
25.655102
 40
31.926311
 40
38.391630
 40
40.354374
 40
42.265345
 40
44.144645
 40
44.144645
 40
44.144645
 40
44.144645
 10
347.874421
 20
319.282912
 30
0.0
 10
348.213911
 20
321.462685
 30
0.0
 10
348.882699
 20
325.756788
 30
0.0
 10
353.799702
 20
330.486110
 30
0.0
 10
360.216654
 20
332.240696
 30
0.0
 10
366.700434
 20
330.484009
 30
0.0
 10
371.420764
 20
325.765001
 30
0.0
 10
372.757687
 20
320.778448
 30
0.0
 10
372.476791
 20
317.337571
 30
0.0
 10
372.042897
 20
315.456928
 30
0.0
 10
371.523831
 20
314.302422
 30
0.0
 10
371.266466
 20
313.729992
 30
0.0
 11
347.874421
 21
319.282912
 31
0.0
 11
349.561223
 21
325.524310
 31
0.0
 11
353.993245
 21
329.961122
 31
0.0
 11
360.227908
 21
331.649749
 31
0.0
 11
366.462551
 21
329.961122
 31
0.0
 11
370.894566
 21
325.524310
 31
0.0
 11
372.581368
 21
319.282912
 31
0.0
 11
372.427399
 21
317.326216
 31
0.0
 11
371.981229
 21
315.468060
 31
0.0
 11
371.266466
 21
313.729992
 31
0.0
  0
LINE
  5
360
100
AcDbEntity
  8
0
 62
1
100
AcDbLine
 10
347.874421
 20
319.282912
 30
0.0
 11
347.874421
 21
319.282912
 31
0.0
  0
SPLINE
  5
361
100
AcDbEntity
  8
0
 62
1
100
AcDbSpline
 70
0
 71
3
 72
10
 73
6
 74
4
 40
0.000000
 40
0.000000
 40
0.000000
 40
0.000000
 40
1.880520
 40
3.792491
 40
5.755635
 40
5.755635
 40
5.755635
 40
5.755635
 10
349.200385
 20
313.729992
 30
0.0
 10
348.943357
 20
314.302526
 30
0.0
 10
348.425000
 20
315.457168
 30
0.0
 10
347.966957
 20
317.336145
 30
0.0
 10
347.905536
 20
318.628302
 30
0.0
 10
347.874421
 20
319.282912
 30
0.0
 11
349.200385
 21
313.729992
 31
0.0
 11
348.482541
 21
315.468110
 31
0.0
 11
348.031151
 21
317.326034
 31
0.0
 11
347.874421
 21
319.282912
 31
0.0
  0
LINE
  5
362
100
AcDbEntity
  8
0
 62
7
100
AcDbLine
 10
349.561686
 20
308.905076
 30
0.0
 11
371.469214
 21
308.905076
 31
0.0
  0
SPLINE
  5
363
100
AcDbEntity
  8
0
 62
7
100
AcDbSpline
 70
0
 71
3
 72
13
 73
9
 74
7
 40
0.000000
 40
0.000000
 40
0.000000
 40
0.000000
 40
8.346885
 40
16.445523
 40
24.792404
 40
29.230839
 40
33.519450
 40
37.751601
 40
37.751601
 40
37.751601
 40
37.751601
 10
360.515464
 20
336.474662
 30
0.0
 10
357.701369
 20
336.035429
 30
0.0
 10
352.156873
 20
335.170026
 30
0.0
 10
346.050774
 20
328.823629
 30
0.0
 10
344.151543
 20
321.810826
 30
0.0
 10
344.967991
 20
316.118445
 30
0.0
 10
346.685520
 20
312.069061
 30
0.0
 10
348.607209
 20
309.955068
 30
0.0
 10
349.561686
 20
308.905076
 30
0.0
 11
360.515464
 21
336.474662
 31
0.0
 11
352.458076
 21
334.295443
 31
0.0
 11
346.731468
 21
328.568848
 31
0.0
 11
344.552242
 21
320.511468
 31
0.0
 11
345.166385
 21
316.115727
 31
0.0
 11
346.893737
 21
312.190368
 31
0.0
 11
349.561686
 21
308.905076
 31
0.0
  0
LINE
  5
364
100
AcDbEntity
  8
0
 62
7
100
AcDbLine
 10
360.515464
 20
336.474662
 30
0.0
 11
360.515464
 21
336.474662
 31
0.0
  0
SPLINE
  5
365
100
AcDbEntity
  8
0
 62
7
100
AcDbSpline
 70
0
 71
3
 72
13
 73
9
 74
7
 40
0.000000
 40
0.000000
 40
0.000000
 40
0.000000
 40
4.232807
 40
8.521209
 40
12.959572
 40
21.306454
 40
29.405091
 40
37.751945
 40
37.751945
 40
37.751945
 40
37.751945
 10
371.469214
 20
308.905076
 30
0.0
 10
372.424146
 20
309.954993
 30
0.0
 10
374.346551
 20
312.068616
 30
0.0
 10
376.063401
 20
316.118571
 30
0.0
 10
376.879094
 20
321.810846
 30
0.0
 10
374.980202
 20
328.823630
 30
0.0
 10
368.874010
 20
335.170017
 30
0.0
 10
363.329541
 20
336.035426
 30
0.0
 10
360.515464
 20
336.474662
 30
0.0
 11
371.469214
 21
308.905076
 31
0.0
 11
374.138205
 21
312.190368
 31
0.0
 11
375.865037
 21
316.115727
 31
0.0
 11
376.478659
 21
320.511468
 31
0.0
 11
374.299428
 21
328.568848
 31
0.0
 11
368.572820
 21
334.295443
 31
0.0
 11
360.515464
 21
336.474662
 31
0.0
  0
LINE
  5
366
100
AcDbEntity
  8
0
 62
1
100
AcDbLine
 10
406.617339
 20
313.729992
 30
0.0
 11
384.551287
 21
313.729992
 31
0.0
  0
SPLINE
  5
367
100
AcDbEntity
  8
0
 62
1
100
AcDbSpline
 70
0
 71
3
 72
16
 73
12
 74
10
 40
0.000000
 40
0.000000
 40
0.000000
 40
0.000000
 40
6.465319
 40
12.736527
 40
19.195802
 40
25.655078
 40
31.926286
 40
38.391605
 40
40.354349
 40
42.265321
 40
44.144620
 40
44.144620
 40
44.144620
 40
44.144620
 10
383.225322
 20
319.282912
 30
0.0
 10
383.564812
 20
321.462684
 30
0.0
 10
384.233600
 20
325.756785
 30
0.0
 10
389.150591
 20
330.486107
 30
0.0
 10
395.567534
 20
332.240697
 30
0.0
 10
402.051307
 20
330.484008
 30
0.0
 10
406.771637
 20
325.765001
 30
0.0
 10
408.108560
 20
320.778448
 30
0.0
 10
407.827664
 20
317.337571
 30
0.0
 10
407.393771
 20
315.456928
 30
0.0
 10
406.874704
 20
314.302422
 30
0.0
 10
406.617339
 20
313.729992
 30
0.0
 11
383.225322
 21
319.282912
 31
0.0
 11
384.912124
 21
325.524310
 31
0.0
 11
389.344138
 21
329.961122
 31
0.0
 11
395.578782
 21
331.649749
 31
0.0
 11
401.813425
 21
329.961122
 31
0.0
 11
406.245439
 21
325.524310
 31
0.0
 11
407.932241
 21
319.282912
 31
0.0
 11
407.778272
 21
317.326216
 31
0.0
 11
407.332103
 21
315.468060
 31
0.0
 11
406.617339
 21
313.729992
 31
0.0
  0
LINE
  5
368
100
AcDbEntity
  8
0
 62
1
100
AcDbLine
 10
383.225322
 20
319.282912
 30
0.0
 11
383.225322
 21
319.282912
 31
0.0
  0
SPLINE
  5
369
100
AcDbEntity
  8
0
 62
1
100
AcDbSpline
 70
0
 71
3
 72
10
 73
6
 74
4
 40
0.000000
 40
0.000000
 40
0.000000
 40
0.000000
 40
1.880520
 40
3.792491
 40
5.755635
 40
5.755635
 40
5.755635
 40
5.755635
 10
384.551287
 20
313.729992
 30
0.0
 10
384.294258
 20
314.302526
 30
0.0
 10
383.775902
 20
315.457168
 30
0.0
 10
383.317858
 20
317.336145
 30
0.0
 10
383.256438
 20
318.628302
 30
0.0
 10
383.225322
 20
319.282912
 30
0.0
 11
384.551287
 21
313.729992
 31
0.0
 11
383.833442
 21
315.468110
 31
0.0
 11
383.382053
 21
317.326034
 31
0.0
 11
383.225322
 21
319.282912
 31
0.0
  0
LINE
  5
36a
100
AcDbEntity
  8
0
 62
7
100
AcDbLine
 10
384.912588
 20
308.905076
 30
0.0
 11
406.820088
 21
308.905076
 31
0.0
  0
SPLINE
  5
36b
100
AcDbEntity
  8
0
 62
7
100
AcDbSpline
 70
0
 71
3
 72
13
 73
9
 74
7
 40
0.000000
 40
0.000000
 40
0.000000
 40
0.000000
 40
8.346866
 40
16.445499
 40
24.792379
 40
29.230814
 40
33.519426
 40
37.751576
 40
37.751576
 40
37.751576
 40
37.751576
 10
395.866338
 20
336.474662
 30
0.0
 10
393.052249
 20
336.035428
 30
0.0
 10
387.507762
 20
335.170022
 30
0.0
 10
381.401675
 20
328.823627
 30
0.0
 10
379.502444
 20
321.810826
 30
0.0
 10
380.318893
 20
316.118445
 30
0.0
 10
382.036421
 20
312.069061
 30
0.0
 10
383.958110
 20
309.955068
 30
0.0
 10
384.912588
 20
308.905076
 30
0.0
 11
395.866338
 21
336.474662
 31
0.0
 11
387.808970
 21
334.295443
 31
0.0
 11
382.082368
 21
328.568848
 31
0.0
 11
379.903143
 21
320.511468
 31
0.0
 11
380.517286
 21
316.115727
 31
0.0
 11
382.244639
 21
312.190368
 31
0.0
 11
384.912588
 21
308.905076
 31
0.0
  0
LINE
  5
36c
100
AcDbEntity
  8
0
 62
7
100
AcDbLine
 10
395.866338
 20
336.474662
 30
0.0
 11
395.866338
 21
336.474662
 31
0.0
  0
SPLINE
  5
36d
100
AcDbEntity
  8
0
 62
7
100
AcDbSpline
 70
0
 71
3
 72
13
 73
9
 74
7
 40
0.000000
 40
0.000000
 40
0.000000
 40
0.000000
 40
4.232807
 40
8.521209
 40
12.959572
 40
21.306454
 40
29.405091
 40
37.751945
 40
37.751945
 40
37.751945
 40
37.751945
 10
406.820088
 20
308.905076
 30
0.0
 10
407.775019
 20
309.954993
 30
0.0
 10
409.697425
 20
312.068616
 30
0.0
 10
411.414275
 20
316.118571
 30
0.0
 10
412.229968
 20
321.810846
 30
0.0
 10
410.331076
 20
328.823630
 30
0.0
 10
404.224883
 20
335.170017
 30
0.0
 10
398.680414
 20
336.035426
 30
0.0
 10
395.866338
 20
336.474662
 30
0.0
 11
406.820088
 21
308.905076
 31
0.0
 11
409.489078
 21
312.190368
 31
0.0
 11
411.215910
 21
316.115727
 31
0.0
 11
411.829532
 21
320.511468
 31
0.0
 11
409.650301
 21
328.568848
 31
0.0
 11
403.923693
 21
334.295443
 31
0.0
 11
395.866338
 21
336.474662
 31
0.0
  0
LINE
  5
36e
100
AcDbEntity
  8
0
 62
1
100
AcDbLine
 10
442.538358
 20
313.729992
 30
0.0
 11
420.472306
 21
313.729992
 31
0.0
  0
SPLINE
  5
36f
100
AcDbEntity
  8
0
 62
1
100
AcDbSpline
 70
0
 71
3
 72
16
 73
12
 74
10
 40
0.000000
 40
0.000000
 40
0.000000
 40
0.000000
 40
6.465319
 40
12.736527
 40
19.195802
 40
25.655078
 40
31.926286
 40
38.391605
 40
40.354349
 40
42.265321
 40
44.144620
 40
44.144620
 40
44.144620
 40
44.144620
 10
419.146341
 20
319.282912
 30
0.0
 10
419.485831
 20
321.462684
 30
0.0
 10
420.154619
 20
325.756785
 30
0.0
 10
425.071610
 20
330.486107
 30
0.0
 10
431.488553
 20
332.240697
 30
0.0
 10
437.972326
 20
330.484008
 30
0.0
 10
442.692656
 20
325.765001
 30
0.0
 10
444.029579
 20
320.778448
 30
0.0
 10
443.748683
 20
317.337571
 30
0.0
 10
443.314789
 20
315.456928
 30
0.0
 10
442.795723
 20
314.302422
 30
0.0
 10
442.538358
 20
313.729992
 30
0.0
 11
419.146341
 21
319.282912
 31
0.0
 11
420.833142
 21
325.524310
 31
0.0
 11
425.265157
 21
329.961122
 31
0.0
 11
431.499800
 21
331.649749
 31
0.0
 11
437.734443
 21
329.961122
 31
0.0
 11
442.166458
 21
325.524310
 31
0.0
 11
443.853260
 21
319.282912
 31
0.0
 11
443.699291
 21
317.326216
 31
0.0
 11
443.253121
 21
315.468060
 31
0.0
 11
442.538358
 21
313.729992
 31
0.0
  0
LINE
  5
370
100
AcDbEntity
  8
0
 62
1
100
AcDbLine
 10
419.146341
 20
319.282912
 30
0.0
 11
419.146341
 21
319.282912
 31
0.0
  0
SPLINE
  5
371
100
AcDbEntity
  8
0
 62
1
100
AcDbSpline
 70
0
 71
3
 72
10
 73
6
 74
4
 40
0.000000
 40
0.000000
 40
0.000000
 40
0.000000
 40
1.880520
 40
3.792491
 40
5.755635
 40
5.755635
 40
5.755635
 40
5.755635
 10
420.472306
 20
313.729992
 30
0.0
 10
420.215277
 20
314.302526
 30
0.0
 10
419.696920
 20
315.457168
 30
0.0
 10
419.238877
 20
317.336145
 30
0.0
 10
419.177457
 20
318.628302
 30
0.0
 10
419.146341
 20
319.282912
 30
0.0
 11
420.472306
 21
313.729992
 31
0.0
 11
419.754461
 21
315.468110
 31
0.0
 11
419.303071
 21
317.326034
 31
0.0
 11
419.146341
 21
319.282912
 31
0.0
  0
LINE
  5
372
100
AcDbEntity
  8
0
 62
7
100
AcDbLine
 10
420.833606
 20
308.905076
 30
0.0
 11
442.741106
 21
308.905076
 31
0.0
  0
SPLINE
  5
373
100
AcDbEntity
  8
0
 62
7
100
AcDbSpline
 70
0
 71
3
 72
13
 73
9
 74
7
 40
0.000000
 40
0.000000
 40
0.000000
 40
0.000000
 40
8.346866
 40
16.445499
 40
24.792379
 40
29.230814
 40
33.519426
 40
37.751576
 40
37.751576
 40
37.751576
 40
37.751576
 10
431.787356
 20
336.474662
 30
0.0
 10
428.973268
 20
336.035428
 30
0.0
 10
423.428781
 20
335.170022
 30
0.0
 10
417.322694
 20
328.823627
 30
0.0
 10
415.423463
 20
321.810826
 30
0.0
 10
416.239912
 20
316.118445
 30
0.0
 10
417.957440
 20
312.069061
 30
0.0
 10
419.879129
 20
309.955068
 30
0.0
 10
420.833606
 20
308.905076
 30
0.0
 11
431.787356
 21
336.474662
 31
0.0
 11
423.729988
 21
334.295443
 31
0.0
 11
418.003387
 21
328.568848
 31
0.0
 11
415.824162
 21
320.511468
 31
0.0
 11
416.438305
 21
316.115727
 31
0.0
 11
418.165657
 21
312.190368
 31
0.0
 11
420.833606
 21
308.905076
 31
0.0
  0
LINE
  5
374
100
AcDbEntity
  8
0
 62
7
100
AcDbLine
 10
431.787356
 20
336.474662
 30
0.0
 11
431.787356
 21
336.474662
 31
0.0
  0
SPLINE
  5
375
100
AcDbEntity
  8
0
 62
7
100
AcDbSpline
 70
0
 71
3
 72
13
 73
9
 74
7
 40
0.000000
 40
0.000000
 40
0.000000
 40
0.000000
 40
4.232807
 40
8.521209
 40
12.959572
 40
21.306454
 40
29.405091
 40
37.751945
 40
37.751945
 40
37.751945
 40
37.751945
 10
442.741106
 20
308.905076
 30
0.0
 10
443.696038
 20
309.954993
 30
0.0
 10
445.618443
 20
312.068616
 30
0.0
 10
447.335293
 20
316.118571
 30
0.0
 10
448.150986
 20
321.810846
 30
0.0
 10
446.252094
 20
328.823630
 30
0.0
 10
440.145902
 20
335.170017
 30
0.0
 10
434.601433
 20
336.035426
 30
0.0
 10
431.787356
 20
336.474662
 30
0.0
 11
442.741106
 21
308.905076
 31
0.0
 11
445.410097
 21
312.190368
 31
0.0
 11
447.136929
 21
316.115727
 31
0.0
 11
447.750551
 21
320.511468
 31
0.0
 11
445.571320
 21
328.568848
 31
0.0
 11
439.844712
 21
334.295443
 31
0.0
 11
431.787356
 21
336.474662
 31
0.0
  0
ENDSEC
  0
SECTION
  2
OBJECTS
  0
DICTIONARY
  5
C
330
0
100
AcDbDictionary
  3
ACAD_GROUP
350
D
  3
ACAD_MLINESTYLE
350
17
  0
DICTIONARY
  5
D
330
C
100
AcDbDictionary
  0
DICTIONARY
  5
1A
330
C
100
AcDbDictionary
  0
DICTIONARY
  5
17
330
C
100
AcDbDictionary
  3
STANDARD
350
18
  0
DICTIONARY
  5
19
330
C
100
AcDbDictionary
  0
ENDSEC
  0
EOF
