<?xml version="1.0" encoding="UTF-8" standalone="no"?>
<!-- Created with Inkscape (http://www.inkscape.org/) -->

<svg
   xmlns:dc="http://purl.org/dc/elements/1.1/"
   xmlns:cc="http://creativecommons.org/ns#"
   xmlns:rdf="http://www.w3.org/1999/02/22-rdf-syntax-ns#"
   xmlns:svg="http://www.w3.org/2000/svg"
   xmlns="http://www.w3.org/2000/svg"
   xmlns:sodipodi="http://sodipodi.sourceforge.net/DTD/sodipodi-0.dtd"
   xmlns:inkscape="http://www.inkscape.org/namespaces/inkscape"
   width="744.09448819"
   height="1052.3622047"
   id="svg2"
   version="1.1"
   inkscape:version="0.48.4 r9939"
   sodipodi:docname="freya_name_stocking.svg">
  <defs
     id="defs4" />
  <sodipodi:namedview
     id="base"
     pagecolor="#ffffff"
     bordercolor="#666666"
     borderopacity="1.0"
     inkscape:pageopacity="0.0"
     inkscape:pageshadow="2"
     inkscape:zoom="0.24748737"
     inkscape:cx="935.19283"
     inkscape:cy="136.90984"
     inkscape:document-units="px"
     inkscape:current-layer="layer1"
     showgrid="false"
     inkscape:window-width="1855"
     inkscape:window-height="1056"
     inkscape:window-x="65"
     inkscape:window-y="24"
     inkscape:window-maximized="1" />
  <metadata
     id="metadata7">
    <rdf:RDF>
      <cc:Work
         rdf:about="">
        <dc:format>image/svg+xml</dc:format>
        <dc:type
           rdf:resource="http://purl.org/dc/dcmitype/StillImage" />
        <dc:title></dc:title>
      </cc:Work>
    </rdf:RDF>
  </metadata>
  <g
     inkscape:label="Layer 1"
     inkscape:groupmode="layer"
     id="layer1">
    <flowRoot
       xml:space="preserve"
       id="flowRoot2985"
       style="fill:black;stroke:none;stroke-opacity:1;stroke-width:1px;stroke-linejoin:miter;stroke-linecap:butt;fill-opacity:1;font-family:Sans;font-style:normal;font-weight:normal;font-size:40px;line-height:125%;letter-spacing:0px;word-spacing:0px"><flowRegion
         id="flowRegion2987"><rect
           id="rect2989"
           width="22.857143"
           height="51.42857"
           x="2831.4285"
           y="12.362183" /></flowRegion><flowPara
         id="flowPara2991"></flowPara></flowRoot>    <path
       style="font-size:144px;font-style:normal;font-variant:normal;font-weight:normal;font-stretch:normal;line-height:125%;letter-spacing:0px;word-spacing:0px;fill:#000000;fill-opacity:1;stroke:#000000;stroke-width:2.39969993;stroke-opacity:1;font-family:Gentium;-inkscape-font-specification:Gentium"
       d="m 176.8998,129.1875 c 45.2177,0.58547 90.55062,0.0818 135.8125,0.25 -0.16598,5.24522 2.26945,14.13235 -4.8125,15.9375 -6.82472,0.76039 -14.08146,2.56214 -19.65625,6.78125 0.0616,58.51034 -0.16999,117.02123 0.125,175.53125 7.18169,5.05394 16.0006,5.61472 24.25,7.875 0.17405,4.94385 2.02674,13.74543 -4.8125,14.96875 -27.92514,-1.14746 -56.16952,-0.18113 -84.21875,-0.5 0.77924,-5.18044 -2.41637,-14.30029 4.84375,-15.96875 8.40325,-1.11451 17.43397,-2.40248 24.8125,-6.875 0,-29.19792 0,-58.39583 0,-87.59375 -14.54719,0.77001 -31.6178,-3.06288 -43.78125,6.84375 -3.00597,4.52615 -8.60021,1.31442 -10.9375,-2.21875 -5.45946,-5.32697 -10.30398,-11.34581 -14.3125,-17.84375 3.89219,-6.56296 11.6596,-10.14129 19.15625,-8.375 16.625,0 33.25,0 49.875,0 0,-21.78125 0,-43.5625 0,-65.34375 -20.72702,0.35751 -41.70345,-0.88299 -62.28125,0.625 -6.4333,4.08423 -5.82155,13.33466 -6.15625,19.875 1.15777,5.94184 -6.33063,7.90444 -10.84375,6.5 -4.90888,0.0719 -6.30684,-4.1062 -6.85884,-8.37853 -2.59901,-11.70093 -5.65887,-24.06608 -4.92241,-35.84022 3.62282,-4.26962 9.0922,-6.72953 14.71875,-6.25 z"
       id="path3002"
       inkscape:connector-curvature="0" />
    <flowRoot
       xml:space="preserve"
       id="flowRoot3785"
       style="font-size:144px;font-style:normal;font-weight:bold;line-height:125%;letter-spacing:0px;word-spacing:0px;fill:#000000;fill-opacity:1;stroke:none;font-family:Sans;-inkscape-font-specification:Sans Bold"
       transform="matrix(-1.3021628,0,0,1.3021628,1185.1317,312.97475)"><flowRegion
         id="flowRegion3787"><rect
           id="rect3789"
           width="495.47986"
           height="192.43407"
           x="397.49503"
           y="96.757874"
           style="font-size:144px;font-weight:bold;-inkscape-font-specification:Sans Bold" /></flowRegion><flowPara
         id="flowPara3791">Freya</flowPara></flowRoot>  </g>
</svg>
