  0
SECTION
  2
HEADER
  9
$ACADVER
  1
AC1014
  9
$HANDSEED
  5
FFFF
  9
$MEASUREMENT
 70
     1
  0
ENDSEC
  0
SECTION
  2
TABLES
  0
TABLE
  2
VPORT
  5
8
330
0
100
AcDbSymbolTable
 70
     4
  0
VPORT
  5
2E
330
8
100
AcDbSymbolTableRecord
100
AcDbViewportTableRecord
  2
*ACTIVE
 70
     0
 10
0.0
 20
0.0
 11
1.0
 21
1.0
 12
210.0
 22
148.5
 13
0.0
 23
0.0
 14
10.0
 24
10.0
 15
10.0
 25
10.0
 16
0.0
 26
0.0
 36
1.0
 17
0.0
 27
0.0
 37
0.0
 40
341.0
 41
1.24
 42
50.0
 43
0.0
 44
0.0
 50
0.0
 51
0.0
 71
     0
 72
   100
 73
     1
 74
     3
 75
     0
 76
     0
 77
     0
 78
     0
  0
ENDTAB
  0
TABLE
  2
LTYPE
  5
5
330
0
100
AcDbSymbolTable
 70
     1
  0
LTYPE
  5
14
330
5
100
AcDbSymbolTableRecord
100
AcDbLinetypeTableRecord
  2
BYBLOCK
 70
     0
  3

 72
    65
 73
     0
 40
0.0
  0
LTYPE
  5
15
330
5
100
AcDbSymbolTableRecord
100
AcDbLinetypeTableRecord
  2
BYLAYER
 70
     0
  3

 72
    65
 73
     0
 40
0.0
  0
LTYPE
  5
16
330
5
100
AcDbSymbolTableRecord
100
AcDbLinetypeTableRecord
  2
CONTINUOUS
 70
     0
  3
Solid line
 72
    65
 73
     0
 40
0.0
  0
ENDTAB
  0
TABLE
  2
LAYER
  5
2
100
AcDbSymbolTable
 70
1
  0
LAYER
  5
50
100
AcDbSymbolTableRecord
100
AcDbLayerTableRecord
  2
0
 70
0
  6
CONTINUOUS
  0
ENDTAB
  0
TABLE
  2
STYLE
  5
3
330
0
100
AcDbSymbolTable
 70
     1
  0
STYLE
  5
11
330
3
100
AcDbSymbolTableRecord
100
AcDbTextStyleTableRecord
  2
STANDARD
 70
     0
 40
0.0
 41
1.0
 50
0.0
 71
     0
 42
2.5
  3
txt
  4

  0
ENDTAB
  0
TABLE
  2
VIEW
  5
6
330
0
100
AcDbSymbolTable
 70
     0
  0
ENDTAB
  0
TABLE
  2
UCS
  5
7
330
0
100
AcDbSymbolTable
 70
     0
  0
ENDTAB
  0
TABLE
  2
APPID
  5
9
330
0
100
AcDbSymbolTable
 70
     2
  0
APPID
  5
12
330
9
100
AcDbSymbolTableRecord
100
AcDbRegAppTableRecord
  2
ACAD
 70
     0
  0
ENDTAB
  0
TABLE
  2
DIMSTYLE
  5
A
330
0
100
AcDbSymbolTable
 70
     1
  0
DIMSTYLE
105
27
330
A
100
AcDbSymbolTableRecord
100
AcDbDimStyleTableRecord
  2
ISO-25
 70
     0
  3

  4

  5

  6

  7

 40
1.0
 41
2.5
 42
0.625
 43
3.75
 44
1.25
 45
0.0
 46
0.0
 47
0.0
 48
0.0
140
2.5
141
2.5
142
0.0
143
0.03937007874016
144
1.0
145
0.0
146
1.0
147
0.625
 71
     0
 72
     0
 73
     0
 74
     0
 75
     0
 76
     0
 77
     1
 78
     8
170
     0
171
     3
172
     1
173
     0
174
     0
175
     0
176
     0
177
     0
178
     0
270
     2
271
     2
272
     2
273
     2
274
     3
340
11
275
     0
280
     0
281
     0
282
     0
283
     0
284
     8
285
     0
286
     0
287
     3
288
     0
  0
ENDTAB
  0
TABLE
  2
BLOCK_RECORD
  5
1
330
0
100
AcDbSymbolTable
 70
     1
  0
BLOCK_RECORD
  5
1F
330
1
100
AcDbSymbolTableRecord
100
AcDbBlockTableRecord
  2
*MODEL_SPACE
  0
BLOCK_RECORD
  5
1B
330
1
100
AcDbSymbolTableRecord
100
AcDbBlockTableRecord
  2
*PAPER_SPACE
  0
ENDTAB
  0
ENDSEC
  0
SECTION
  2
BLOCKS
  0
BLOCK
  5
20
330
1F
100
AcDbEntity
  8
0
100
AcDbBlockBegin
  2
*MODEL_SPACE
 70
     0
 10
0.0
 20
0.0
 30
0.0
  3
*MODEL_SPACE
  1

  0
ENDBLK
  5
21
330
1F
100
AcDbEntity
  8
0
100
AcDbBlockEnd
  0
BLOCK
  5
1C
330
1B
100
AcDbEntity
 67
     1
  8
0
100
AcDbBlockBegin
  2
*PAPER_SPACE
  1

  0
ENDBLK
  5
1D
330
1B
100
AcDbEntity
 67
     1
  8
0
100
AcDbBlockEnd
  0
ENDSEC
  0
SECTION
  2
ENTITIES
  0
SPLINE
  5
100
100
AcDbEntity
  8
0
 62
1
100
AcDbSpline
 70
0
 71
3
 72
16
 73
12
 74
10
 40
0.000000
 40
0.000000
 40
0.000000
 40
0.000000
 40
6.465307
 40
12.736513
 40
19.195788
 40
25.655063
 40
31.926268
 40
38.391575
 40
40.354320
 40
42.265291
 40
44.144590
 40
44.144590
 40
44.144590
 40
44.144590
 10
35.032439
 20
168.732148
 30
0.0
 10
35.371930
 20
170.911916
 30
0.0
 10
36.040719
 20
175.206012
 30
0.0
 10
40.957709
 20
179.935326
 30
0.0
 10
47.374651
 20
181.689916
 30
0.0
 10
53.858423
 20
179.933227
 30
0.0
 10
58.578752
 20
175.214228
 30
0.0
 10
59.915677
 20
170.227680
 30
0.0
 10
59.634781
 20
166.786807
 30
0.0
 10
59.200888
 20
164.906164
 30
0.0
 10
58.681821
 20
163.751658
 30
0.0
 10
58.424456
 20
163.179228
 30
0.0
 11
35.032439
 21
168.732148
 31
0.0
 11
36.719241
 21
174.973534
 31
0.0
 11
41.151255
 21
179.410342
 31
0.0
 11
47.385899
 21
181.098967
 31
0.0
 11
53.620542
 21
179.410342
 31
0.0
 11
58.052556
 21
174.973534
 31
0.0
 11
59.739358
 21
168.732148
 31
0.0
 11
59.585389
 21
166.775452
 31
0.0
 11
59.139220
 21
164.917296
 31
0.0
 11
58.424456
 21
163.179228
 31
0.0
  0
LWPOLYLINE
  5
101
100
AcDbEntity
  8
0
 62
1
100
AcDbPolyline
 90
2
 70
0
 10
58.424456
 20
163.179228
 30
0.0
 10
36.358404
 20
163.179228
 30
0.0
  0
SPLINE
  5
102
100
AcDbEntity
  8
0
 62
1
100
AcDbSpline
 70
0
 71
3
 72
10
 73
6
 74
4
 40
0.000000
 40
0.000000
 40
0.000000
 40
0.000000
 40
1.880520
 40
3.792491
 40
5.755635
 40
5.755635
 40
5.755635
 40
5.755635
 10
36.358404
 20
163.179228
 30
0.0
 10
36.101375
 20
163.751761
 30
0.0
 10
35.583019
 20
164.906404
 30
0.0
 10
35.124975
 20
166.785380
 30
0.0
 10
35.063555
 20
168.077537
 30
0.0
 10
35.032439
 20
168.732148
 30
0.0
 11
36.358404
 21
163.179228
 31
0.0
 11
35.640559
 21
164.917346
 31
0.0
 11
35.189170
 21
166.775270
 31
0.0
 11
35.032439
 21
168.732148
 31
0.0
  0
LWPOLYLINE
  5
103
100
AcDbEntity
  8
0
 62
1
100
AcDbPolyline
 90
2
 70
0
 10
35.032439
 20
168.732148
 30
0.0
 10
35.032439
 20
168.732148
 30
0.0
  0
SPLINE
  5
104
100
AcDbEntity
  8
0
 62
7
100
AcDbSpline
 70
0
 71
3
 72
13
 73
9
 74
7
 40
0.000000
 40
0.000000
 40
0.000000
 40
0.000000
 40
8.346868
 40
16.445504
 40
24.792376
 40
29.230811
 40
33.519421
 40
37.751572
 40
37.751572
 40
37.751572
 40
37.751572
 10
47.673463
 20
184.633677
 30
0.0
 10
44.859374
 20
184.194441
 30
0.0
 10
39.314886
 20
183.329033
 30
0.0
 10
33.208803
 20
176.982636
 30
0.0
 10
31.309570
 20
169.969839
 30
0.0
 10
32.126017
 20
164.277460
 30
0.0
 10
33.843543
 20
160.228076
 30
0.0
 10
35.765234
 20
158.114085
 30
0.0
 10
36.719713
 20
157.064093
 30
0.0
 11
47.673463
 21
184.633677
 31
0.0
 11
39.616094
 21
182.454454
 31
0.0
 11
33.889493
 21
176.727855
 31
0.0
 11
31.710269
 21
168.670482
 31
0.0
 11
32.324410
 21
164.274741
 31
0.0
 11
34.051762
 21
160.349384
 31
0.0
 11
36.719713
 21
157.064093
 31
0.0
  0
LWPOLYLINE
  5
105
100
AcDbEntity
  8
0
 62
7
100
AcDbPolyline
 90
2
 70
0
 10
36.719713
 20
157.064093
 30
0.0
 10
58.627213
 20
157.064093
 30
0.0
  0
SPLINE
  5
106
100
AcDbEntity
  8
0
 62
7
100
AcDbSpline
 70
0
 71
3
 72
13
 73
9
 74
7
 40
0.000000
 40
0.000000
 40
0.000000
 40
0.000000
 40
4.232803
 40
8.521205
 40
12.959568
 40
21.306442
 40
29.405082
 40
37.751938
 40
37.751938
 40
37.751938
 40
37.751938
 10
58.627213
 20
157.064093
 30
0.0
 10
59.582143
 20
158.114010
 30
0.0
 10
61.504546
 20
160.227633
 30
0.0
 10
63.221398
 20
164.277586
 30
0.0
 10
64.037094
 20
169.969859
 30
0.0
 10
62.138198
 20
176.982639
 30
0.0
 10
56.032011
 20
183.329028
 30
0.0
 10
50.487541
 20
184.194440
 30
0.0
 10
47.673463
 20
184.633677
 30
0.0
 11
58.627213
 21
157.064093
 31
0.0
 11
61.296200
 21
160.349384
 31
0.0
 11
63.023034
 21
164.274741
 31
0.0
 11
63.636658
 21
168.670482
 31
0.0
 11
61.457427
 21
176.727855
 31
0.0
 11
55.730820
 21
182.454454
 31
0.0
 11
47.673463
 21
184.633677
 31
0.0
  0
LWPOLYLINE
  5
107
100
AcDbEntity
  8
0
 62
7
100
AcDbPolyline
 90
2
 70
0
 10
47.673463
 20
184.633677
 30
0.0
 10
47.673463
 20
184.633677
 30
0.0
  0
SPLINE
  5
108
100
AcDbEntity
  8
0
 62
1
100
AcDbSpline
 70
0
 71
3
 72
16
 73
12
 74
10
 40
0.000000
 40
0.000000
 40
0.000000
 40
0.000000
 40
6.465299
 40
12.736503
 40
19.195778
 40
25.655044
 40
31.926234
 40
38.391543
 40
40.354287
 40
42.265259
 40
44.144558
 40
44.144558
 40
44.144558
 40
44.144558
 10
0.189447
 20
163.217746
 30
0.0
 10
0.528938
 20
165.397511
 30
0.0
 10
1.197728
 20
169.691603
 30
0.0
 10
6.114718
 20
174.420913
 30
0.0
 10
12.531655
 20
176.175500
 30
0.0
 10
19.015421
 20
174.418823
 30
0.0
 10
23.735744
 20
169.699824
 30
0.0
 10
25.072656
 20
164.713279
 30
0.0
 10
24.791761
 20
161.272405
 30
0.0
 10
24.357867
 20
159.391762
 30
0.0
 10
23.838801
 20
158.237255
 30
0.0
 10
23.581436
 20
157.664826
 30
0.0
 11
0.189447
 21
163.217746
 31
0.0
 11
1.876248
 21
169.459124
 31
0.0
 11
6.308263
 21
173.895929
 31
0.0
 11
12.542906
 21
175.584554
 31
0.0
 11
18.777542
 21
173.895935
 31
0.0
 11
23.209543
 21
169.459136
 31
0.0
 11
24.896337
 21
163.217746
 31
0.0
 11
24.742369
 21
161.261050
 31
0.0
 11
24.296199
 21
159.402893
 31
0.0
 11
23.581436
 21
157.664826
 31
0.0
  0
LWPOLYLINE
  5
109
100
AcDbEntity
  8
0
 62
1
100
AcDbPolyline
 90
2
 70
0
 10
23.581436
 20
157.664826
 30
0.0
 10
1.515412
 20
157.664826
 30
0.0
  0
SPLINE
  5
10a
100
AcDbEntity
  8
0
 62
1
100
AcDbSpline
 70
0
 71
3
 72
10
 73
6
 74
4
 40
0.000000
 40
0.000000
 40
0.000000
 40
0.000000
 40
1.880520
 40
3.792491
 40
5.755635
 40
5.755635
 40
5.755635
 40
5.755635
 10
1.515412
 20
157.664826
 30
0.0
 10
1.258383
 20
158.237359
 30
0.0
 10
0.740026
 20
159.392002
 30
0.0
 10
0.281983
 20
161.270978
 30
0.0
 10
0.220563
 20
162.563135
 30
0.0
 10
0.189447
 20
163.217746
 30
0.0
 11
1.515412
 21
157.664826
 31
0.0
 11
0.797567
 21
159.402944
 31
0.0
 11
0.346177
 21
161.260868
 31
0.0
 11
0.189447
 21
163.217746
 31
0.0
  0
SPLINE
  5
10b
100
AcDbEntity
  8
0
 62
7
100
AcDbSpline
 70
0
 71
3
 72
10
 73
6
 74
4
 40
0.000000
 40
0.000000
 40
0.000000
 40
0.000000
 40
7.386989
 40
14.840119
 40
22.220270
 40
22.220270
 40
22.220270
 40
22.220270
 10
147.512899
 20
253.179497
 30
0.0
 10
145.035319
 20
252.684621
 30
0.0
 10
140.057974
 20
251.690439
 30
0.0
 10
135.220882
 20
244.913069
 30
0.0
 10
135.808282
 20
239.885359
 30
0.0
 10
136.100538
 20
237.383872
 30
0.0
 11
147.512899
 21
253.179497
 31
0.0
 11
140.512980
 21
250.819679
 31
0.0
 11
136.168515
 21
244.763710
 31
0.0
 11
136.100538
 21
237.383872
 31
0.0
  0
SPLINE
  5
10c
100
AcDbEntity
  8
0
 62
7
100
AcDbSpline
 70
0
 71
3
 72
10
 73
6
 74
4
 40
0.000000
 40
0.000000
 40
0.000000
 40
0.000000
 40
1.679088
 40
3.444785
 40
5.241095
 40
5.241095
 40
5.241095
 40
5.241095
 10
136.100538
 20
237.383872
 30
0.0
 10
136.370759
 20
236.831289
 30
0.0
 10
136.925140
 20
235.697621
 30
0.0
 10
138.904893
 20
235.895090
 30
0.0
 10
140.060032
 20
235.893957
 30
0.0
 10
140.642566
 20
235.893386
 30
0.0
 11
136.100538
 21
237.383872
 31
0.0
 11
137.088642
 21
236.026304
 31
0.0
 11
138.846554
 21
235.860681
 31
0.0
 11
140.642566
 21
235.893386
 31
0.0
  0
SPLINE
  5
10d
100
AcDbEntity
  8
0
 62
7
100
AcDbSpline
 70
0
 71
3
 72
10
 73
6
 74
4
 40
0.000000
 40
0.000000
 40
0.000000
 40
0.000000
 40
5.853175
 40
11.706344
 40
17.559500
 40
17.559500
 40
17.559500
 40
17.559500
 10
140.642566
 20
235.893386
 30
0.0
 10
142.593624
 20
235.893386
 30
0.0
 10
146.495739
 20
235.893386
 30
0.0
 10
152.348905
 20
235.893386
 30
0.0
 10
156.251014
 20
235.893386
 30
0.0
 10
158.202066
 20
235.893386
 30
0.0
 11
140.642566
 21
235.893386
 31
0.0
 11
146.495741
 21
235.893386
 31
0.0
 11
152.348909
 21
235.893386
 31
0.0
 11
158.202066
 21
235.893386
 31
0.0
  0
SPLINE
  5
10e
100
AcDbEntity
  8
0
 62
7
100
AcDbSpline
 70
0
 71
3
 72
10
 73
6
 74
4
 40
0.000000
 40
0.000000
 40
0.000000
 40
0.000000
 40
3.099286
 40
6.288064
 40
9.461079
 40
9.461079
 40
9.461079
 40
9.461079
 10
158.202066
 20
235.893386
 30
0.0
 10
158.743117
 20
236.793672
 30
0.0
 10
159.840844
 20
238.620240
 30
0.0
 10
159.842861
 20
241.899007
 30
0.0
 10
159.313004
 20
243.947090
 30
0.0
 10
159.048732
 20
244.968594
 30
0.0
 11
158.202066
 21
235.893386
 31
0.0
 11
159.558871
 21
238.679898
 31
0.0
 11
159.709402
 21
241.865121
 31
0.0
 11
159.048732
 21
244.968594
 31
0.0
  0
LWPOLYLINE
  5
10f
100
AcDbEntity
  8
0
 62
1
100
AcDbPolyline
 90
2
 70
0
 10
0.189447
 20
163.217746
 30
0.0
 10
0.189447
 20
163.217746
 30
0.0
  0
SPLINE
  5
110
100
AcDbEntity
  8
0
 62
7
100
AcDbSpline
 70
0
 71
3
 72
10
 73
6
 74
4
 40
0.000000
 40
0.000000
 40
0.000000
 40
0.000000
 40
5.030849
 40
10.036279
 40
15.062328
 40
15.062328
 40
15.062328
 40
15.062328
 10
159.048732
 20
244.968594
 30
0.0
 10
158.319420
 20
246.495596
 30
0.0
 10
156.864482
 20
249.541884
 30
0.0
 10
152.572477
 20
252.686238
 30
0.0
 10
149.201734
 20
253.014852
 30
0.0
 10
147.512899
 20
253.179497
 30
0.0
 11
159.048732
 21
244.968594
 31
0.0
 11
156.507791
 21
249.310605
 31
0.0
 11
152.450809
 21
252.242367
 31
0.0
 11
147.512899
 21
253.179497
 31
0.0
  0
SPLINE
  5
111
100
AcDbEntity
  8
0
 62
7
100
AcDbSpline
 70
0
 71
3
 72
10
 73
6
 74
4
 40
0.000000
 40
0.000000
 40
0.000000
 40
0.000000
 40
7.386989
 40
14.840119
 40
22.220270
 40
22.220270
 40
22.220270
 40
22.220270
 10
148.083084
 20
234.259497
 30
0.0
 10
145.605503
 20
233.764621
 30
0.0
 10
140.628159
 20
232.770439
 30
0.0
 10
135.791067
 20
225.993069
 30
0.0
 10
136.378467
 20
220.965359
 30
0.0
 10
136.670723
 20
218.463872
 30
0.0
 11
148.083084
 21
234.259497
 31
0.0
 11
141.083165
 21
231.899679
 31
0.0
 11
136.738700
 21
225.843710
 31
0.0
 11
136.670723
 21
218.463872
 31
0.0
  0
SPLINE
  5
112
100
AcDbEntity
  8
0
 62
7
100
AcDbSpline
 70
0
 71
3
 72
10
 73
6
 74
4
 40
0.000000
 40
0.000000
 40
0.000000
 40
0.000000
 40
1.679088
 40
3.444785
 40
5.241095
 40
5.241095
 40
5.241095
 40
5.241095
 10
136.670723
 20
218.463872
 30
0.0
 10
136.940944
 20
217.911289
 30
0.0
 10
137.495325
 20
216.777621
 30
0.0
 10
139.475078
 20
216.975090
 30
0.0
 10
140.630217
 20
216.973957
 30
0.0
 10
141.212751
 20
216.973386
 30
0.0
 11
136.670723
 21
218.463872
 31
0.0
 11
137.658827
 21
217.106305
 31
0.0
 11
139.416739
 21
216.940681
 31
0.0
 11
141.212751
 21
216.973386
 31
0.0
  0
SPLINE
  5
113
100
AcDbEntity
  8
0
 62
7
100
AcDbSpline
 70
0
 71
3
 72
10
 73
6
 74
4
 40
0.000000
 40
0.000000
 40
0.000000
 40
0.000000
 40
5.853175
 40
11.706344
 40
17.559500
 40
17.559500
 40
17.559500
 40
17.559500
 10
141.212751
 20
216.973386
 30
0.0
 10
143.163809
 20
216.973386
 30
0.0
 10
147.065923
 20
216.973386
 30
0.0
 10
152.919090
 20
216.973386
 30
0.0
 10
156.821198
 20
216.973386
 30
0.0
 10
158.772250
 20
216.973386
 30
0.0
 11
141.212751
 21
216.973386
 31
0.0
 11
147.065926
 21
216.973386
 31
0.0
 11
152.919094
 21
216.973386
 31
0.0
 11
158.772250
 21
216.973386
 31
0.0
  0
SPLINE
  5
114
100
AcDbEntity
  8
0
 62
7
100
AcDbSpline
 70
0
 71
3
 72
10
 73
6
 74
4
 40
0.000000
 40
0.000000
 40
0.000000
 40
0.000000
 40
3.099286
 40
6.288064
 40
9.461079
 40
9.461079
 40
9.461079
 40
9.461079
 10
158.772250
 20
216.973386
 30
0.0
 10
159.313302
 20
217.873672
 30
0.0
 10
160.411029
 20
219.700240
 30
0.0
 10
160.413045
 20
222.979007
 30
0.0
 10
159.883189
 20
225.027090
 30
0.0
 10
159.618917
 20
226.048594
 30
0.0
 11
158.772250
 21
216.973386
 31
0.0
 11
160.129056
 21
219.759898
 31
0.0
 11
160.279587
 21
222.945121
 31
0.0
 11
159.618917
 21
226.048594
 31
0.0
  0
LWPOLYLINE
  5
115
100
AcDbEntity
  8
0
 62
7
100
AcDbPolyline
 90
2
 70
0
 10
147.512899
 20
253.179497
 30
0.0
 10
147.512899
 20
253.179497
 30
0.0
  0
SPLINE
  5
116
100
AcDbEntity
  8
0
 62
7
100
AcDbSpline
 70
0
 71
3
 72
10
 73
6
 74
4
 40
0.000000
 40
0.000000
 40
0.000000
 40
0.000000
 40
5.030849
 40
10.036279
 40
15.062328
 40
15.062328
 40
15.062328
 40
15.062328
 10
159.618917
 20
226.048594
 30
0.0
 10
158.889605
 20
227.575596
 30
0.0
 10
157.434666
 20
230.621884
 30
0.0
 10
153.142662
 20
233.766238
 30
0.0
 10
149.771919
 20
234.094852
 30
0.0
 10
148.083084
 20
234.259497
 30
0.0
 11
159.618917
 21
226.048594
 31
0.0
 11
157.077976
 21
230.390605
 31
0.0
 11
153.020994
 21
233.322367
 31
0.0
 11
148.083084
 21
234.259497
 31
0.0
  0
SPLINE
  5
117
100
AcDbEntity
  8
0
 62
7
100
AcDbSpline
 70
0
 71
3
 72
10
 73
6
 74
4
 40
0.000000
 40
0.000000
 40
0.000000
 40
0.000000
 40
7.386989
 40
14.840119
 40
22.220270
 40
22.220270
 40
22.220270
 40
22.220270
 10
148.083084
 20
215.443724
 30
0.0
 10
145.605503
 20
214.948849
 30
0.0
 10
140.628159
 20
213.954667
 30
0.0
 10
135.791067
 20
207.177296
 30
0.0
 10
136.378467
 20
202.149586
 30
0.0
 10
136.670723
 20
199.648099
 30
0.0
 11
148.083084
 21
215.443724
 31
0.0
 11
141.083165
 21
213.083906
 31
0.0
 11
136.738700
 21
207.027937
 31
0.0
 11
136.670723
 21
199.648099
 31
0.0
  0
SPLINE
  5
118
100
AcDbEntity
  8
0
 62
7
100
AcDbSpline
 70
0
 71
3
 72
10
 73
6
 74
4
 40
0.000000
 40
0.000000
 40
0.000000
 40
0.000000
 40
1.679088
 40
3.444785
 40
5.241095
 40
5.241095
 40
5.241095
 40
5.241095
 10
136.670723
 20
199.648099
 30
0.0
 10
136.940944
 20
199.095516
 30
0.0
 10
137.495325
 20
197.961848
 30
0.0
 10
139.475078
 20
198.159318
 30
0.0
 10
140.630217
 20
198.158184
 30
0.0
 10
141.212751
 20
198.157613
 30
0.0
 11
136.670723
 21
199.648099
 31
0.0
 11
137.658827
 21
198.290532
 31
0.0
 11
139.416739
 21
198.124908
 31
0.0
 11
141.212751
 21
198.157613
 31
0.0
  0
SPLINE
  5
119
100
AcDbEntity
  8
0
 62
7
100
AcDbSpline
 70
0
 71
3
 72
10
 73
6
 74
4
 40
0.000000
 40
0.000000
 40
0.000000
 40
0.000000
 40
5.853175
 40
11.706344
 40
17.559500
 40
17.559500
 40
17.559500
 40
17.559500
 10
141.212751
 20
198.157613
 30
0.0
 10
143.163809
 20
198.157613
 30
0.0
 10
147.065923
 20
198.157613
 30
0.0
 10
152.919090
 20
198.157613
 30
0.0
 10
156.821198
 20
198.157613
 30
0.0
 10
158.772250
 20
198.157613
 30
0.0
 11
141.212751
 21
198.157613
 31
0.0
 11
147.065926
 21
198.157613
 31
0.0
 11
152.919094
 21
198.157613
 31
0.0
 11
158.772250
 21
198.157613
 31
0.0
  0
SPLINE
  5
11a
100
AcDbEntity
  8
0
 62
7
100
AcDbSpline
 70
0
 71
3
 72
10
 73
6
 74
4
 40
0.000000
 40
0.000000
 40
0.000000
 40
0.000000
 40
3.099286
 40
6.288064
 40
9.461079
 40
9.461079
 40
9.461079
 40
9.461079
 10
158.772250
 20
198.157613
 30
0.0
 10
159.313302
 20
199.057899
 30
0.0
 10
160.411029
 20
200.884468
 30
0.0
 10
160.413045
 20
204.163235
 30
0.0
 10
159.883189
 20
206.211317
 30
0.0
 10
159.618917
 20
207.232821
 30
0.0
 11
158.772250
 21
198.157613
 31
0.0
 11
160.129056
 21
200.944126
 31
0.0
 11
160.279587
 21
204.129349
 31
0.0
 11
159.618917
 21
207.232821
 31
0.0
  0
LWPOLYLINE
  5
11b
100
AcDbEntity
  8
0
 62
7
100
AcDbPolyline
 90
2
 70
0
 10
148.083084
 20
234.259497
 30
0.0
 10
148.083084
 20
234.259497
 30
0.0
  0
SPLINE
  5
11c
100
AcDbEntity
  8
0
 62
7
100
AcDbSpline
 70
0
 71
3
 72
10
 73
6
 74
4
 40
0.000000
 40
0.000000
 40
0.000000
 40
0.000000
 40
5.030849
 40
10.036279
 40
15.062328
 40
15.062328
 40
15.062328
 40
15.062328
 10
159.618917
 20
207.232821
 30
0.0
 10
158.889605
 20
208.759823
 30
0.0
 10
157.434666
 20
211.806112
 30
0.0
 10
153.142662
 20
214.950466
 30
0.0
 10
149.771919
 20
215.279080
 30
0.0
 10
148.083084
 20
215.443724
 30
0.0
 11
159.618917
 21
207.232821
 31
0.0
 11
157.077976
 21
211.574833
 31
0.0
 11
153.020994
 21
214.506594
 31
0.0
 11
148.083084
 21
215.443724
 31
0.0
  0
SPLINE
  5
11d
100
AcDbEntity
  8
0
 62
7
100
AcDbSpline
 70
0
 71
3
 72
10
 73
6
 74
4
 40
0.000000
 40
0.000000
 40
0.000000
 40
0.000000
 40
7.386990
 40
14.840120
 40
22.220271
 40
22.220271
 40
22.220271
 40
22.220271
 10
147.227821
 20
271.320870
 30
0.0
 10
144.750240
 20
270.825995
 30
0.0
 10
139.772896
 20
269.831813
 30
0.0
 10
134.935801
 20
263.054443
 30
0.0
 10
135.523202
 20
258.026733
 30
0.0
 10
135.815457
 20
255.525246
 30
0.0
 11
147.227821
 21
271.320870
 31
0.0
 11
140.227901
 21
268.961053
 31
0.0
 11
135.883434
 21
262.905084
 31
0.0
 11
135.815457
 21
255.525246
 31
0.0
  0
SPLINE
  5
11e
100
AcDbEntity
  8
0
 62
7
100
AcDbSpline
 70
0
 71
3
 72
10
 73
6
 74
4
 40
0.000000
 40
0.000000
 40
0.000000
 40
0.000000
 40
1.679089
 40
3.444787
 40
5.241098
 40
5.241098
 40
5.241098
 40
5.241098
 10
135.815457
 20
255.525246
 30
0.0
 10
136.085678
 20
254.972663
 30
0.0
 10
136.640060
 20
253.838995
 30
0.0
 10
138.619814
 20
254.036464
 30
0.0
 10
139.774954
 20
254.035331
 30
0.0
 10
140.357487
 20
254.034760
 30
0.0
 11
135.815457
 21
255.525246
 31
0.0
 11
136.803561
 21
254.167679
 31
0.0
 11
138.561475
 21
254.002055
 31
0.0
 11
140.357487
 21
254.034760
 31
0.0
  0
SPLINE
  5
11f
100
AcDbEntity
  8
0
 62
7
100
AcDbSpline
 70
0
 71
3
 72
10
 73
6
 74
4
 40
0.000000
 40
0.000000
 40
0.000000
 40
0.000000
 40
5.853175
 40
11.706344
 40
17.559500
 40
17.559500
 40
17.559500
 40
17.559500
 10
140.357487
 20
254.034760
 30
0.0
 10
142.308546
 20
254.034760
 30
0.0
 10
146.210660
 20
254.034760
 30
0.0
 10
152.063827
 20
254.034760
 30
0.0
 10
155.965935
 20
254.034760
 30
0.0
 10
157.916987
 20
254.034760
 30
0.0
 11
140.357487
 21
254.034760
 31
0.0
 11
146.210662
 21
254.034760
 31
0.0
 11
152.063831
 21
254.034760
 31
0.0
 11
157.916987
 21
254.034760
 31
0.0
  0
SPLINE
  5
120
100
AcDbEntity
  8
0
 62
7
100
AcDbSpline
 70
0
 71
3
 72
10
 73
6
 74
4
 40
0.000000
 40
0.000000
 40
0.000000
 40
0.000000
 40
3.099286
 40
6.288064
 40
9.461079
 40
9.461079
 40
9.461079
 40
9.461079
 10
157.916987
 20
254.034760
 30
0.0
 10
158.458039
 20
254.935046
 30
0.0
 10
159.555766
 20
256.761614
 30
0.0
 10
159.557782
 20
260.040381
 30
0.0
 10
159.027926
 20
262.088464
 30
0.0
 10
158.763654
 20
263.109968
 30
0.0
 11
157.916987
 21
254.034760
 31
0.0
 11
159.273793
 21
256.821272
 31
0.0
 11
159.424324
 21
260.006495
 31
0.0
 11
158.763654
 21
263.109968
 31
0.0
  0
LWPOLYLINE
  5
121
100
AcDbEntity
  8
0
 62
7
100
AcDbPolyline
 90
2
 70
0
 10
148.083084
 20
215.443724
 30
0.0
 10
148.083084
 20
215.443724
 30
0.0
  0
SPLINE
  5
122
100
AcDbEntity
  8
0
 62
7
100
AcDbSpline
 70
0
 71
3
 72
10
 73
6
 74
4
 40
0.000000
 40
0.000000
 40
0.000000
 40
0.000000
 40
5.030849
 40
10.036279
 40
15.062328
 40
15.062328
 40
15.062328
 40
15.062328
 10
158.763654
 20
263.109968
 30
0.0
 10
158.034342
 20
264.636970
 30
0.0
 10
156.579403
 20
267.683258
 30
0.0
 10
152.287399
 20
270.827612
 30
0.0
 10
148.916656
 20
271.156226
 30
0.0
 10
147.227821
 20
271.320870
 30
0.0
 11
158.763654
 21
263.109968
 31
0.0
 11
156.222713
 21
267.451979
 31
0.0
 11
152.165731
 21
270.383740
 31
0.0
 11
147.227821
 21
271.320870
 31
0.0
  0
SPLINE
  5
123
100
AcDbEntity
  8
0
 62
7
100
AcDbSpline
 70
0
 71
3
 72
10
 73
6
 74
4
 40
0.000000
 40
0.000000
 40
0.000000
 40
0.000000
 40
7.386989
 40
14.840119
 40
22.220270
 40
22.220270
 40
22.220270
 40
22.220270
 10
148.795791
 20
177.916395
 30
0.0
 10
146.318210
 20
177.421520
 30
0.0
 10
141.340866
 20
176.427338
 30
0.0
 10
136.503774
 20
169.649967
 30
0.0
 10
137.091174
 20
164.622257
 30
0.0
 10
137.383430
 20
162.120770
 30
0.0
 11
148.795791
 21
177.916395
 31
0.0
 11
141.795872
 21
175.556578
 31
0.0
 11
137.451407
 21
169.500608
 31
0.0
 11
137.383430
 21
162.120770
 31
0.0
  0
SPLINE
  5
124
100
AcDbEntity
  8
0
 62
7
100
AcDbSpline
 70
0
 71
3
 72
10
 73
6
 74
4
 40
0.000000
 40
0.000000
 40
0.000000
 40
0.000000
 40
1.679088
 40
3.444785
 40
5.241095
 40
5.241095
 40
5.241095
 40
5.241095
 10
137.383430
 20
162.120770
 30
0.0
 10
137.653651
 20
161.568188
 30
0.0
 10
138.208032
 20
160.434519
 30
0.0
 10
140.187785
 20
160.631989
 30
0.0
 10
141.342924
 20
160.630856
 30
0.0
 10
141.925458
 20
160.630284
 30
0.0
 11
137.383430
 21
162.120770
 31
0.0
 11
138.371534
 21
160.763203
 31
0.0
 11
140.129446
 21
160.597580
 31
0.0
 11
141.925458
 21
160.630284
 31
0.0
  0
SPLINE
  5
125
100
AcDbEntity
  8
0
 62
7
100
AcDbSpline
 70
0
 71
3
 72
10
 73
6
 74
4
 40
0.000000
 40
0.000000
 40
0.000000
 40
0.000000
 40
5.853175
 40
11.706344
 40
17.559500
 40
17.559500
 40
17.559500
 40
17.559500
 10
141.925458
 20
160.630284
 30
0.0
 10
143.876516
 20
160.630284
 30
0.0
 10
147.778631
 20
160.630284
 30
0.0
 10
153.631797
 20
160.630284
 30
0.0
 10
157.533905
 20
160.630284
 30
0.0
 10
159.484957
 20
160.630284
 30
0.0
 11
141.925458
 21
160.630284
 31
0.0
 11
147.778633
 21
160.630284
 31
0.0
 11
153.631801
 21
160.630284
 31
0.0
 11
159.484957
 21
160.630284
 31
0.0
  0
SPLINE
  5
126
100
AcDbEntity
  8
0
 62
7
100
AcDbSpline
 70
0
 71
3
 72
10
 73
6
 74
4
 40
0.000000
 40
0.000000
 40
0.000000
 40
0.000000
 40
3.099286
 40
6.288064
 40
9.461079
 40
9.461079
 40
9.461079
 40
9.461079
 10
159.484957
 20
160.630284
 30
0.0
 10
160.026009
 20
161.530571
 30
0.0
 10
161.123736
 20
163.357139
 30
0.0
 10
161.125753
 20
166.635906
 30
0.0
 10
160.595896
 20
168.683989
 30
0.0
 10
160.331624
 20
169.705493
 30
0.0
 11
159.484957
 21
160.630284
 31
0.0
 11
160.841763
 21
163.416797
 31
0.0
 11
160.992294
 21
166.602020
 31
0.0
 11
160.331624
 21
169.705493
 31
0.0
  0
LWPOLYLINE
  5
127
100
AcDbEntity
  8
0
 62
7
100
AcDbPolyline
 90
2
 70
0
 10
147.227821
 20
271.320870
 30
0.0
 10
147.227821
 20
271.320870
 30
0.0
  0
SPLINE
  5
128
100
AcDbEntity
  8
0
 62
7
100
AcDbSpline
 70
0
 71
3
 72
10
 73
6
 74
4
 40
0.000000
 40
0.000000
 40
0.000000
 40
0.000000
 40
5.030849
 40
10.036279
 40
15.062328
 40
15.062328
 40
15.062328
 40
15.062328
 10
160.331624
 20
169.705493
 30
0.0
 10
159.602312
 20
171.232495
 30
0.0
 10
158.147373
 20
174.278783
 30
0.0
 10
153.855369
 20
177.423137
 30
0.0
 10
150.484626
 20
177.751751
 30
0.0
 10
148.795791
 20
177.916395
 30
0.0
 11
160.331624
 21
169.705493
 31
0.0
 11
157.790683
 21
174.047504
 31
0.0
 11
153.733701
 21
176.979265
 31
0.0
 11
148.795791
 21
177.916395
 31
0.0
  0
SPLINE
  5
129
100
AcDbEntity
  8
0
 62
7
100
AcDbSpline
 70
0
 71
3
 72
10
 73
6
 74
4
 40
0.000000
 40
0.000000
 40
0.000000
 40
0.000000
 40
7.386989
 40
14.840121
 40
22.220280
 40
22.220280
 40
22.220280
 40
22.220280
 10
149.365976
 20
158.996395
 30
0.0
 10
146.888395
 20
158.501520
 30
0.0
 10
141.911050
 20
157.507338
 30
0.0
 10
137.073958
 20
150.729962
 30
0.0
 10
137.661359
 20
145.702249
 30
0.0
 10
137.953615
 20
143.200759
 30
0.0
 11
149.365976
 21
158.996395
 31
0.0
 11
142.366057
 21
156.636577
 31
0.0
 11
138.021591
 21
150.580605
 31
0.0
 11
137.953615
 21
143.200759
 31
0.0
  0
SPLINE
  5
12a
100
AcDbEntity
  8
0
 62
7
100
AcDbSpline
 70
0
 71
3
 72
10
 73
6
 74
4
 40
0.000000
 40
0.000000
 40
0.000000
 40
0.000000
 40
1.679081
 40
3.444778
 40
5.241087
 40
5.241087
 40
5.241087
 40
5.241087
 10
137.953615
 20
143.200759
 30
0.0
 10
138.223837
 20
142.648180
 30
0.0
 10
138.778221
 20
141.514517
 30
0.0
 10
140.757970
 20
141.711990
 30
0.0
 10
141.913109
 20
141.710858
 30
0.0
 10
142.495643
 20
141.710287
 30
0.0
 11
137.953615
 21
143.200759
 31
0.0
 11
138.941718
 21
141.843201
 31
0.0
 11
140.699630
 21
141.677581
 31
0.0
 11
142.495643
 21
141.710287
 31
0.0
  0
SPLINE
  5
12b
100
AcDbEntity
  8
0
 62
7
100
AcDbSpline
 70
0
 71
3
 72
10
 73
6
 74
4
 40
0.000000
 40
0.000000
 40
0.000000
 40
0.000000
 40
5.853175
 40
11.706344
 40
17.559500
 40
17.559500
 40
17.559500
 40
17.559500
 10
142.495643
 20
141.710287
 30
0.0
 10
144.446701
 20
141.710287
 30
0.0
 10
148.348815
 20
141.710287
 30
0.0
 10
154.201982
 20
141.710287
 30
0.0
 10
158.104090
 20
141.710287
 30
0.0
 10
160.055142
 20
141.710287
 30
0.0
 11
142.495643
 21
141.710287
 31
0.0
 11
148.348817
 21
141.710287
 31
0.0
 11
154.201986
 21
141.710287
 31
0.0
 11
160.055142
 21
141.710287
 31
0.0
  0
SPLINE
  5
12c
100
AcDbEntity
  8
0
 62
7
100
AcDbSpline
 70
0
 71
3
 72
10
 73
6
 74
4
 40
0.000000
 40
0.000000
 40
0.000000
 40
0.000000
 40
3.099284
 40
6.288062
 40
9.461077
 40
9.461077
 40
9.461077
 40
9.461077
 10
160.055142
 20
141.710287
 30
0.0
 10
160.596194
 20
142.610573
 30
0.0
 10
161.693921
 20
144.437140
 30
0.0
 10
161.695937
 20
147.715906
 30
0.0
 10
161.166081
 20
149.763989
 30
0.0
 10
160.901809
 20
150.785493
 30
0.0
 11
160.055142
 21
141.710287
 31
0.0
 11
161.411948
 21
144.496797
 31
0.0
 11
161.562479
 21
147.682021
 31
0.0
 11
160.901809
 21
150.785493
 31
0.0
  0
LWPOLYLINE
  5
12d
100
AcDbEntity
  8
0
 62
7
100
AcDbPolyline
 90
2
 70
0
 10
148.795791
 20
177.916395
 30
0.0
 10
148.795791
 20
177.916395
 30
0.0
  0
SPLINE
  5
12e
100
AcDbEntity
  8
0
 62
7
100
AcDbSpline
 70
0
 71
3
 72
10
 73
6
 74
4
 40
0.000000
 40
0.000000
 40
0.000000
 40
0.000000
 40
5.030849
 40
10.036279
 40
15.062328
 40
15.062328
 40
15.062328
 40
15.062328
 10
160.901809
 20
150.785493
 30
0.0
 10
160.172497
 20
152.312495
 30
0.0
 10
158.717558
 20
155.358783
 30
0.0
 10
154.425554
 20
158.503137
 30
0.0
 10
151.054811
 20
158.831751
 30
0.0
 10
149.365976
 20
158.996395
 30
0.0
 11
160.901809
 21
150.785493
 31
0.0
 11
158.360868
 21
155.127504
 31
0.0
 11
154.303886
 21
158.059265
 31
0.0
 11
149.365976
 21
158.996395
 31
0.0
  0
SPLINE
  5
12f
100
AcDbEntity
  8
0
 62
7
100
AcDbSpline
 70
0
 71
3
 72
10
 73
6
 74
4
 40
0.000000
 40
0.000000
 40
0.000000
 40
0.000000
 40
7.386987
 40
14.840117
 40
22.220260
 40
22.220260
 40
22.220260
 40
22.220260
 10
149.365976
 20
140.180614
 30
0.0
 10
146.888395
 20
139.685741
 30
0.0
 10
141.911050
 20
138.691564
 30
0.0
 10
137.073960
 20
131.914195
 30
0.0
 10
137.661360
 20
126.886488
 30
0.0
 10
137.953615
 20
124.385004
 30
0.0
 11
149.365976
 21
140.180614
 31
0.0
 11
142.366057
 21
137.820803
 31
0.0
 11
138.021591
 21
131.764834
 31
0.0
 11
137.953615
 21
124.385004
 31
0.0
  0
SPLINE
  5
130
100
AcDbEntity
  8
0
 62
7
100
AcDbSpline
 70
0
 71
3
 72
10
 73
6
 74
4
 40
0.000000
 40
0.000000
 40
0.000000
 40
0.000000
 40
1.679092
 40
3.444789
 40
5.241098
 40
5.241098
 40
5.241098
 40
5.241098
 10
137.953615
 20
124.385004
 30
0.0
 10
138.223836
 20
123.832418
 30
0.0
 10
138.778215
 20
122.698747
 30
0.0
 10
140.757970
 20
122.896223
 30
0.0
 10
141.913109
 20
122.895080
 30
0.0
 10
142.495643
 20
122.894503
 30
0.0
 11
137.953615
 21
124.385004
 31
0.0
 11
138.941718
 21
123.027432
 31
0.0
 11
140.699630
 21
122.861811
 31
0.0
 11
142.495643
 21
122.894503
 31
0.0
  0
SPLINE
  5
131
100
AcDbEntity
  8
0
 62
7
100
AcDbSpline
 70
0
 71
3
 72
10
 73
6
 74
4
 40
0.000000
 40
0.000000
 40
0.000000
 40
0.000000
 40
5.853175
 40
11.706344
 40
17.559500
 40
17.559500
 40
17.559500
 40
17.559500
 10
142.495643
 20
122.894503
 30
0.0
 10
144.446701
 20
122.894503
 30
0.0
 10
148.348815
 20
122.894503
 30
0.0
 10
154.201982
 20
122.894503
 30
0.0
 10
158.104090
 20
122.894503
 30
0.0
 10
160.055142
 20
122.894503
 30
0.0
 11
142.495643
 21
122.894503
 31
0.0
 11
148.348817
 21
122.894503
 31
0.0
 11
154.201986
 21
122.894503
 31
0.0
 11
160.055142
 21
122.894503
 31
0.0
  0
SPLINE
  5
132
100
AcDbEntity
  8
0
 62
7
100
AcDbSpline
 70
0
 71
3
 72
10
 73
6
 74
4
 40
0.000000
 40
0.000000
 40
0.000000
 40
0.000000
 40
3.099295
 40
6.288072
 40
9.461092
 40
9.461092
 40
9.461092
 40
9.461092
 10
160.055142
 20
122.894503
 30
0.0
 10
160.596194
 20
123.794793
 30
0.0
 10
161.693919
 20
125.621365
 30
0.0
 10
161.695937
 20
128.900136
 30
0.0
 10
161.166081
 20
130.948220
 30
0.0
 10
160.901809
 20
131.969726
 30
0.0
 11
160.055142
 21
122.894503
 31
0.0
 11
161.411948
 21
125.681027
 31
0.0
 11
161.562479
 21
128.866248
 31
0.0
 11
160.901809
 21
131.969726
 31
0.0
  0
LWPOLYLINE
  5
133
100
AcDbEntity
  8
0
 62
7
100
AcDbPolyline
 90
2
 70
0
 10
149.365976
 20
158.996395
 30
0.0
 10
149.365976
 20
158.996395
 30
0.0
  0
SPLINE
  5
134
100
AcDbEntity
  8
0
 62
7
100
AcDbSpline
 70
0
 71
3
 72
10
 73
6
 74
4
 40
0.000000
 40
0.000000
 40
0.000000
 40
0.000000
 40
5.030843
 40
10.036272
 40
15.062320
 40
15.062320
 40
15.062320
 40
15.062320
 10
160.901809
 20
131.969726
 30
0.0
 10
160.172497
 20
133.496725
 30
0.0
 10
158.717557
 20
136.543010
 30
0.0
 10
154.425554
 20
139.687362
 30
0.0
 10
151.054811
 20
140.015972
 30
0.0
 10
149.365976
 20
140.180614
 30
0.0
 11
160.901809
 21
131.969726
 31
0.0
 11
158.360868
 21
136.311730
 31
0.0
 11
154.303886
 21
139.243489
 31
0.0
 11
149.365976
 21
140.180614
 31
0.0
  0
SPLINE
  5
135
100
AcDbEntity
  8
0
 62
7
100
AcDbSpline
 70
0
 71
3
 72
10
 73
6
 74
4
 40
0.000000
 40
0.000000
 40
0.000000
 40
0.000000
 40
7.386990
 40
14.840120
 40
22.220271
 40
22.220271
 40
22.220271
 40
22.220271
 10
148.510712
 20
196.057770
 30
0.0
 10
146.033132
 20
195.562894
 30
0.0
 10
141.055787
 20
194.568712
 30
0.0
 10
136.218693
 20
187.791342
 30
0.0
 10
136.806093
 20
182.763632
 30
0.0
 10
137.098349
 20
180.262145
 30
0.0
 11
148.510712
 21
196.057770
 31
0.0
 11
141.510793
 21
193.697952
 31
0.0
 11
137.166326
 21
187.641983
 31
0.0
 11
137.098349
 21
180.262145
 31
0.0
  0
SPLINE
  5
136
100
AcDbEntity
  8
0
 62
7
100
AcDbSpline
 70
0
 71
3
 72
10
 73
6
 74
4
 40
0.000000
 40
0.000000
 40
0.000000
 40
0.000000
 40
1.679089
 40
3.444787
 40
5.241098
 40
5.241098
 40
5.241098
 40
5.241098
 10
137.098349
 20
180.262145
 30
0.0
 10
137.368570
 20
179.709562
 30
0.0
 10
137.922952
 20
178.575893
 30
0.0
 10
139.902705
 20
178.773363
 30
0.0
 10
141.057846
 20
178.772230
 30
0.0
 10
141.640379
 20
178.771659
 30
0.0
 11
137.098349
 21
180.262145
 31
0.0
 11
138.086453
 21
178.904578
 31
0.0
 11
139.844367
 21
178.738954
 31
0.0
 11
141.640379
 21
178.771659
 31
0.0
  0
SPLINE
  5
137
100
AcDbEntity
  8
0
 62
7
100
AcDbSpline
 70
0
 71
3
 72
10
 73
6
 74
4
 40
0.000000
 40
0.000000
 40
0.000000
 40
0.000000
 40
5.853175
 40
11.706344
 40
17.559500
 40
17.559500
 40
17.559500
 40
17.559500
 10
141.640379
 20
178.771659
 30
0.0
 10
143.591438
 20
178.771659
 30
0.0
 10
147.493552
 20
178.771659
 30
0.0
 10
153.346719
 20
178.771659
 30
0.0
 10
157.248827
 20
178.771659
 30
0.0
 10
159.199879
 20
178.771659
 30
0.0
 11
141.640379
 21
178.771659
 31
0.0
 11
147.493554
 21
178.771659
 31
0.0
 11
153.346723
 21
178.771659
 31
0.0
 11
159.199879
 21
178.771659
 31
0.0
  0
SPLINE
  5
138
100
AcDbEntity
  8
0
 62
7
100
AcDbSpline
 70
0
 71
3
 72
10
 73
6
 74
4
 40
0.000000
 40
0.000000
 40
0.000000
 40
0.000000
 40
3.099286
 40
6.288064
 40
9.461079
 40
9.461079
 40
9.461079
 40
9.461079
 10
159.199879
 20
178.771659
 30
0.0
 10
159.740931
 20
179.671945
 30
0.0
 10
160.838657
 20
181.498513
 30
0.0
 10
160.840674
 20
184.777280
 30
0.0
 10
160.310818
 20
186.825363
 30
0.0
 10
160.046546
 20
187.846867
 30
0.0
 11
159.199879
 21
178.771659
 31
0.0
 11
160.556684
 21
181.558171
 31
0.0
 11
160.707216
 21
184.743394
 31
0.0
 11
160.046546
 21
187.846867
 31
0.0
  0
LWPOLYLINE
  5
139
100
AcDbEntity
  8
0
 62
7
100
AcDbPolyline
 90
2
 70
0
 10
149.365976
 20
140.180614
 30
0.0
 10
149.365976
 20
140.180614
 30
0.0
  0
SPLINE
  5
13a
100
AcDbEntity
  8
0
 62
7
100
AcDbSpline
 70
0
 71
3
 72
10
 73
6
 74
4
 40
0.000000
 40
0.000000
 40
0.000000
 40
0.000000
 40
5.030849
 40
10.036279
 40
15.062328
 40
15.062328
 40
15.062328
 40
15.062328
 10
160.046546
 20
187.846867
 30
0.0
 10
159.317234
 20
189.373869
 30
0.0
 10
157.862295
 20
192.420157
 30
0.0
 10
153.570291
 20
195.564511
 30
0.0
 10
150.199548
 20
195.893125
 30
0.0
 10
148.510712
 20
196.057770
 30
0.0
 11
160.046546
 21
187.846867
 31
0.0
 11
157.505605
 21
192.188878
 31
0.0
 11
153.448623
 21
195.120640
 31
0.0
 11
148.510712
 21
196.057770
 31
0.0
  0
SPLINE
  5
13b
100
AcDbEntity
  8
0
 62
7
100
AcDbSpline
 70
0
 71
3
 72
10
 73
6
 74
4
 40
0.000000
 40
0.000000
 40
0.000000
 40
0.000000
 40
7.386989
 40
14.840119
 40
22.220270
 40
22.220270
 40
22.220270
 40
22.220270
 10
119.645597
 20
252.894410
 30
0.0
 10
117.168016
 20
252.399534
 30
0.0
 10
112.190672
 20
251.405353
 30
0.0
 10
107.353579
 20
244.627982
 30
0.0
 10
107.940980
 20
239.600272
 30
0.0
 10
108.233235
 20
237.098785
 30
0.0
 11
119.645597
 21
252.894410
 31
0.0
 11
112.645677
 21
250.534592
 31
0.0
 11
108.301212
 21
244.478623
 31
0.0
 11
108.233235
 21
237.098785
 31
0.0
  0
SPLINE
  5
13c
100
AcDbEntity
  8
0
 62
7
100
AcDbSpline
 70
0
 71
3
 72
10
 73
6
 74
4
 40
0.000000
 40
0.000000
 40
0.000000
 40
0.000000
 40
1.679088
 40
3.444785
 40
5.241095
 40
5.241095
 40
5.241095
 40
5.241095
 10
108.233235
 20
237.098785
 30
0.0
 10
108.503457
 20
236.546202
 30
0.0
 10
109.057838
 20
235.412534
 30
0.0
 10
111.037590
 20
235.610003
 30
0.0
 10
112.192730
 20
235.608870
 30
0.0
 10
112.775263
 20
235.608299
 30
0.0
 11
108.233235
 21
237.098785
 31
0.0
 11
109.221339
 21
235.741218
 31
0.0
 11
110.979251
 21
235.575594
 31
0.0
 11
112.775263
 21
235.608299
 31
0.0
  0
SPLINE
  5
13d
100
AcDbEntity
  8
0
 62
7
100
AcDbSpline
 70
0
 71
3
 72
10
 73
6
 74
4
 40
0.000000
 40
0.000000
 40
0.000000
 40
0.000000
 40
5.853175
 40
11.706344
 40
17.559500
 40
17.559500
 40
17.559500
 40
17.559500
 10
112.775263
 20
235.608299
 30
0.0
 10
114.726322
 20
235.608299
 30
0.0
 10
118.628436
 20
235.608299
 30
0.0
 10
124.481603
 20
235.608299
 30
0.0
 10
128.383711
 20
235.608299
 30
0.0
 10
130.334763
 20
235.608299
 30
0.0
 11
112.775263
 21
235.608299
 31
0.0
 11
118.628438
 21
235.608299
 31
0.0
 11
124.481607
 21
235.608299
 31
0.0
 11
130.334763
 21
235.608299
 31
0.0
  0
SPLINE
  5
13e
100
AcDbEntity
  8
0
 62
7
100
AcDbSpline
 70
0
 71
3
 72
10
 73
6
 74
4
 40
0.000000
 40
0.000000
 40
0.000000
 40
0.000000
 40
3.099286
 40
6.288064
 40
9.461079
 40
9.461079
 40
9.461079
 40
9.461079
 10
130.334763
 20
235.608299
 30
0.0
 10
130.875815
 20
236.508585
 30
0.0
 10
131.973542
 20
238.335153
 30
0.0
 10
131.975558
 20
241.613920
 30
0.0
 10
131.445702
 20
243.662003
 30
0.0
 10
131.181430
 20
244.683507
 30
0.0
 11
130.334763
 21
235.608299
 31
0.0
 11
131.691568
 21
238.394811
 31
0.0
 11
131.842100
 21
241.580034
 31
0.0
 11
131.181430
 21
244.683507
 31
0.0
  0
LWPOLYLINE
  5
13f
100
AcDbEntity
  8
0
 62
7
100
AcDbPolyline
 90
2
 70
0
 10
148.510712
 20
196.057770
 30
0.0
 10
148.510712
 20
196.057770
 30
0.0
  0
SPLINE
  5
140
100
AcDbEntity
  8
0
 62
7
100
AcDbSpline
 70
0
 71
3
 72
10
 73
6
 74
4
 40
0.000000
 40
0.000000
 40
0.000000
 40
0.000000
 40
5.030849
 40
10.036279
 40
15.062328
 40
15.062328
 40
15.062328
 40
15.062328
 10
131.181430
 20
244.683507
 30
0.0
 10
130.452118
 20
246.210509
 30
0.0
 10
128.997179
 20
249.256797
 30
0.0
 10
124.705175
 20
252.401152
 30
0.0
 10
121.334432
 20
252.729765
 30
0.0
 10
119.645597
 20
252.894410
 30
0.0
 11
131.181430
 21
244.683507
 31
0.0
 11
128.640489
 21
249.025518
 31
0.0
 11
124.583507
 21
251.957280
 31
0.0
 11
119.645597
 21
252.894410
 31
0.0
  0
SPLINE
  5
141
100
AcDbEntity
  8
0
 62
7
100
AcDbSpline
 70
0
 71
3
 72
10
 73
6
 74
4
 40
0.000000
 40
0.000000
 40
0.000000
 40
0.000000
 40
7.386989
 40
14.840119
 40
22.220270
 40
22.220270
 40
22.220270
 40
22.220270
 10
120.215781
 20
233.974410
 30
0.0
 10
117.738201
 20
233.479534
 30
0.0
 10
112.760857
 20
232.485353
 30
0.0
 10
107.923764
 20
225.707982
 30
0.0
 10
108.511165
 20
220.680272
 30
0.0
 10
108.803420
 20
218.178785
 30
0.0
 11
120.215781
 21
233.974410
 31
0.0
 11
113.215862
 21
231.614592
 31
0.0
 11
108.871397
 21
225.558623
 31
0.0
 11
108.803420
 21
218.178785
 31
0.0
  0
SPLINE
  5
142
100
AcDbEntity
  8
0
 62
7
100
AcDbSpline
 70
0
 71
3
 72
10
 73
6
 74
4
 40
0.000000
 40
0.000000
 40
0.000000
 40
0.000000
 40
1.679088
 40
3.444785
 40
5.241095
 40
5.241095
 40
5.241095
 40
5.241095
 10
108.803420
 20
218.178785
 30
0.0
 10
109.073642
 20
217.626202
 30
0.0
 10
109.628023
 20
216.492534
 30
0.0
 10
111.607775
 20
216.690003
 30
0.0
 10
112.762915
 20
216.688870
 30
0.0
 10
113.345448
 20
216.688299
 30
0.0
 11
108.803420
 21
218.178785
 31
0.0
 11
109.791524
 21
216.821218
 31
0.0
 11
111.549436
 21
216.655594
 31
0.0
 11
113.345448
 21
216.688299
 31
0.0
  0
SPLINE
  5
143
100
AcDbEntity
  8
0
 62
7
100
AcDbSpline
 70
0
 71
3
 72
10
 73
6
 74
4
 40
0.000000
 40
0.000000
 40
0.000000
 40
0.000000
 40
5.853175
 40
11.706344
 40
17.559500
 40
17.559500
 40
17.559500
 40
17.559500
 10
113.345448
 20
216.688299
 30
0.0
 10
115.296507
 20
216.688299
 30
0.0
 10
119.198621
 20
216.688299
 30
0.0
 10
125.051788
 20
216.688299
 30
0.0
 10
128.953896
 20
216.688299
 30
0.0
 10
130.904948
 20
216.688299
 30
0.0
 11
113.345448
 21
216.688299
 31
0.0
 11
119.198623
 21
216.688299
 31
0.0
 11
125.051792
 21
216.688299
 31
0.0
 11
130.904948
 21
216.688299
 31
0.0
  0
SPLINE
  5
144
100
AcDbEntity
  8
0
 62
7
100
AcDbSpline
 70
0
 71
3
 72
10
 73
6
 74
4
 40
0.000000
 40
0.000000
 40
0.000000
 40
0.000000
 40
3.099286
 40
6.288064
 40
9.461079
 40
9.461079
 40
9.461079
 40
9.461079
 10
130.904948
 20
216.688299
 30
0.0
 10
131.446000
 20
217.588585
 30
0.0
 10
132.543726
 20
219.415153
 30
0.0
 10
132.545743
 20
222.693920
 30
0.0
 10
132.015887
 20
224.742003
 30
0.0
 10
131.751615
 20
225.763507
 30
0.0
 11
130.904948
 21
216.688299
 31
0.0
 11
132.261753
 21
219.474811
 31
0.0
 11
132.412284
 21
222.660034
 31
0.0
 11
131.751615
 21
225.763507
 31
0.0
  0
LWPOLYLINE
  5
145
100
AcDbEntity
  8
0
 62
7
100
AcDbPolyline
 90
2
 70
0
 10
119.645597
 20
252.894410
 30
0.0
 10
119.645597
 20
252.894410
 30
0.0
  0
SPLINE
  5
146
100
AcDbEntity
  8
0
 62
7
100
AcDbSpline
 70
0
 71
3
 72
10
 73
6
 74
4
 40
0.000000
 40
0.000000
 40
0.000000
 40
0.000000
 40
5.030849
 40
10.036279
 40
15.062328
 40
15.062328
 40
15.062328
 40
15.062328
 10
131.751615
 20
225.763507
 30
0.0
 10
131.022303
 20
227.290509
 30
0.0
 10
129.567364
 20
230.336797
 30
0.0
 10
125.275360
 20
233.481152
 30
0.0
 10
121.904617
 20
233.809765
 30
0.0
 10
120.215781
 20
233.974410
 30
0.0
 11
131.751615
 21
225.763507
 31
0.0
 11
129.210674
 21
230.105518
 31
0.0
 11
125.153692
 21
233.037280
 31
0.0
 11
120.215781
 21
233.974410
 31
0.0
  0
SPLINE
  5
147
100
AcDbEntity
  8
0
 62
7
100
AcDbSpline
 70
0
 71
3
 72
10
 73
6
 74
4
 40
0.000000
 40
0.000000
 40
0.000000
 40
0.000000
 40
7.386989
 40
14.840119
 40
22.220270
 40
22.220270
 40
22.220270
 40
22.220270
 10
120.215781
 20
215.158637
 30
0.0
 10
117.738201
 20
214.663762
 30
0.0
 10
112.760857
 20
213.669580
 30
0.0
 10
107.923764
 20
206.892209
 30
0.0
 10
108.511165
 20
201.864499
 30
0.0
 10
108.803420
 20
199.363012
 30
0.0
 11
120.215781
 21
215.158637
 31
0.0
 11
113.215862
 21
212.798820
 31
0.0
 11
108.871397
 21
206.742850
 31
0.0
 11
108.803420
 21
199.363012
 31
0.0
  0
SPLINE
  5
148
100
AcDbEntity
  8
0
 62
7
100
AcDbSpline
 70
0
 71
3
 72
10
 73
6
 74
4
 40
0.000000
 40
0.000000
 40
0.000000
 40
0.000000
 40
1.679088
 40
3.444785
 40
5.241095
 40
5.241095
 40
5.241095
 40
5.241095
 10
108.803420
 20
199.363012
 30
0.0
 10
109.073642
 20
198.810430
 30
0.0
 10
109.628023
 20
197.676761
 30
0.0
 10
111.607775
 20
197.874231
 30
0.0
 10
112.762915
 20
197.873098
 30
0.0
 10
113.345448
 20
197.872526
 30
0.0
 11
108.803420
 21
199.363012
 31
0.0
 11
109.791524
 21
198.005445
 31
0.0
 11
111.549436
 21
197.839822
 31
0.0
 11
113.345448
 21
197.872526
 31
0.0
  0
SPLINE
  5
149
100
AcDbEntity
  8
0
 62
7
100
AcDbSpline
 70
0
 71
3
 72
10
 73
6
 74
4
 40
0.000000
 40
0.000000
 40
0.000000
 40
0.000000
 40
5.853175
 40
11.706344
 40
17.559500
 40
17.559500
 40
17.559500
 40
17.559500
 10
113.345448
 20
197.872526
 30
0.0
 10
115.296507
 20
197.872526
 30
0.0
 10
119.198621
 20
197.872526
 30
0.0
 10
125.051788
 20
197.872526
 30
0.0
 10
128.953896
 20
197.872526
 30
0.0
 10
130.904948
 20
197.872526
 30
0.0
 11
113.345448
 21
197.872526
 31
0.0
 11
119.198623
 21
197.872526
 31
0.0
 11
125.051792
 21
197.872526
 31
0.0
 11
130.904948
 21
197.872526
 31
0.0
  0
SPLINE
  5
14a
100
AcDbEntity
  8
0
 62
7
100
AcDbSpline
 70
0
 71
3
 72
10
 73
6
 74
4
 40
0.000000
 40
0.000000
 40
0.000000
 40
0.000000
 40
3.099286
 40
6.288064
 40
9.461079
 40
9.461079
 40
9.461079
 40
9.461079
 10
130.904948
 20
197.872526
 30
0.0
 10
131.446000
 20
198.772813
 30
0.0
 10
132.543726
 20
200.599381
 30
0.0
 10
132.545743
 20
203.878148
 30
0.0
 10
132.015887
 20
205.926231
 30
0.0
 10
131.751615
 20
206.947735
 30
0.0
 11
130.904948
 21
197.872526
 31
0.0
 11
132.261753
 21
200.659039
 31
0.0
 11
132.412284
 21
203.844262
 31
0.0
 11
131.751615
 21
206.947735
 31
0.0
  0
LWPOLYLINE
  5
14b
100
AcDbEntity
  8
0
 62
7
100
AcDbPolyline
 90
2
 70
0
 10
120.215781
 20
233.974410
 30
0.0
 10
120.215781
 20
233.974410
 30
0.0
  0
SPLINE
  5
14c
100
AcDbEntity
  8
0
 62
7
100
AcDbSpline
 70
0
 71
3
 72
10
 73
6
 74
4
 40
0.000000
 40
0.000000
 40
0.000000
 40
0.000000
 40
5.030849
 40
10.036279
 40
15.062328
 40
15.062328
 40
15.062328
 40
15.062328
 10
131.751615
 20
206.947735
 30
0.0
 10
131.022303
 20
208.474737
 30
0.0
 10
129.567364
 20
211.521025
 30
0.0
 10
125.275360
 20
214.665379
 30
0.0
 10
121.904617
 20
214.993993
 30
0.0
 10
120.215781
 20
215.158637
 30
0.0
 11
131.751615
 21
206.947735
 31
0.0
 11
129.210674
 21
211.289746
 31
0.0
 11
125.153692
 21
214.221507
 31
0.0
 11
120.215781
 21
215.158637
 31
0.0
  0
SPLINE
  5
14d
100
AcDbEntity
  8
0
 62
7
100
AcDbSpline
 70
0
 71
3
 72
10
 73
6
 74
4
 40
0.000000
 40
0.000000
 40
0.000000
 40
0.000000
 40
7.386990
 40
14.840120
 40
22.220271
 40
22.220271
 40
22.220271
 40
22.220271
 10
119.360518
 20
271.035783
 30
0.0
 10
116.882938
 20
270.540908
 30
0.0
 10
111.905593
 20
269.546726
 30
0.0
 10
107.068499
 20
262.769356
 30
0.0
 10
107.655899
 20
257.741646
 30
0.0
 10
107.948154
 20
255.240159
 30
0.0
 11
119.360518
 21
271.035783
 31
0.0
 11
112.360598
 21
268.675966
 31
0.0
 11
108.016132
 21
262.619997
 31
0.0
 11
107.948154
 21
255.240159
 31
0.0
  0
SPLINE
  5
14e
100
AcDbEntity
  8
0
 62
7
100
AcDbSpline
 70
0
 71
3
 72
10
 73
6
 74
4
 40
0.000000
 40
0.000000
 40
0.000000
 40
0.000000
 40
1.679089
 40
3.444787
 40
5.241098
 40
5.241098
 40
5.241098
 40
5.241098
 10
107.948154
 20
255.240159
 30
0.0
 10
108.218376
 20
254.687576
 30
0.0
 10
108.772758
 20
253.553908
 30
0.0
 10
110.752511
 20
253.751378
 30
0.0
 10
111.907651
 20
253.750244
 30
0.0
 10
112.490185
 20
253.749673
 30
0.0
 11
107.948154
 21
255.240159
 31
0.0
 11
108.936259
 21
253.882592
 31
0.0
 11
110.694172
 21
253.716968
 31
0.0
 11
112.490185
 21
253.749673
 31
0.0
  0
SPLINE
  5
14f
100
AcDbEntity
  8
0
 62
7
100
AcDbSpline
 70
0
 71
3
 72
10
 73
6
 74
4
 40
0.000000
 40
0.000000
 40
0.000000
 40
0.000000
 40
5.853175
 40
11.706344
 40
17.559500
 40
17.559500
 40
17.559500
 40
17.559500
 10
112.490185
 20
253.749673
 30
0.0
 10
114.441243
 20
253.749673
 30
0.0
 10
118.343358
 20
253.749673
 30
0.0
 10
124.196525
 20
253.749673
 30
0.0
 10
128.098633
 20
253.749673
 30
0.0
 10
130.049685
 20
253.749673
 30
0.0
 11
112.490185
 21
253.749673
 31
0.0
 11
118.343360
 21
253.749673
 31
0.0
 11
124.196529
 21
253.749673
 31
0.0
 11
130.049685
 21
253.749673
 31
0.0
  0
SPLINE
  5
150
100
AcDbEntity
  8
0
 62
7
100
AcDbSpline
 70
0
 71
3
 72
10
 73
6
 74
4
 40
0.000000
 40
0.000000
 40
0.000000
 40
0.000000
 40
3.099286
 40
6.288064
 40
9.461079
 40
9.461079
 40
9.461079
 40
9.461079
 10
130.049685
 20
253.749673
 30
0.0
 10
130.590737
 20
254.649959
 30
0.0
 10
131.688463
 20
256.476528
 30
0.0
 10
131.690480
 20
259.755295
 30
0.0
 10
131.160623
 20
261.803377
 30
0.0
 10
130.896352
 20
262.824881
 30
0.0
 11
130.049685
 21
253.749673
 31
0.0
 11
131.406490
 21
256.536186
 31
0.0
 11
131.557021
 21
259.721409
 31
0.0
 11
130.896352
 21
262.824881
 31
0.0
  0
LWPOLYLINE
  5
151
100
AcDbEntity
  8
0
 62
7
100
AcDbPolyline
 90
2
 70
0
 10
120.215781
 20
215.158637
 30
0.0
 10
120.215781
 20
215.158637
 30
0.0
  0
SPLINE
  5
152
100
AcDbEntity
  8
0
 62
7
100
AcDbSpline
 70
0
 71
3
 72
10
 73
6
 74
4
 40
0.000000
 40
0.000000
 40
0.000000
 40
0.000000
 40
5.030849
 40
10.036279
 40
15.062328
 40
15.062328
 40
15.062328
 40
15.062328
 10
130.896352
 20
262.824881
 30
0.0
 10
130.167040
 20
264.351883
 30
0.0
 10
128.712101
 20
267.398171
 30
0.0
 10
124.420096
 20
270.542525
 30
0.0
 10
121.049354
 20
270.871139
 30
0.0
 10
119.360518
 20
271.035783
 30
0.0
 11
130.896352
 21
262.824881
 31
0.0
 11
128.355411
 21
267.166893
 31
0.0
 11
124.298429
 21
270.098653
 31
0.0
 11
119.360518
 21
271.035783
 31
0.0
  0
SPLINE
  5
153
100
AcDbEntity
  8
0
 62
7
100
AcDbSpline
 70
0
 71
3
 72
10
 73
6
 74
4
 40
0.000000
 40
0.000000
 40
0.000000
 40
0.000000
 40
7.386989
 40
14.840119
 40
22.220270
 40
22.220270
 40
22.220270
 40
22.220270
 10
120.928488
 20
177.631309
 30
0.0
 10
118.450908
 20
177.136433
 30
0.0
 10
113.473564
 20
176.142251
 30
0.0
 10
108.636471
 20
169.364881
 30
0.0
 10
109.223872
 20
164.337171
 30
0.0
 10
109.516127
 20
161.835684
 30
0.0
 11
120.928488
 21
177.631309
 31
0.0
 11
113.928569
 21
175.271491
 31
0.0
 11
109.584104
 21
169.215522
 31
0.0
 11
109.516127
 21
161.835684
 31
0.0
  0
SPLINE
  5
154
100
AcDbEntity
  8
0
 62
7
100
AcDbSpline
 70
0
 71
3
 72
10
 73
6
 74
4
 40
0.000000
 40
0.000000
 40
0.000000
 40
0.000000
 40
1.679088
 40
3.444785
 40
5.241095
 40
5.241095
 40
5.241095
 40
5.241095
 10
109.516127
 20
161.835684
 30
0.0
 10
109.786349
 20
161.283101
 30
0.0
 10
110.340730
 20
160.149433
 30
0.0
 10
112.320482
 20
160.346902
 30
0.0
 10
113.475622
 20
160.345769
 30
0.0
 10
114.058155
 20
160.345198
 30
0.0
 11
109.516127
 21
161.835684
 31
0.0
 11
110.504231
 21
160.478116
 31
0.0
 11
112.262143
 21
160.312493
 31
0.0
 11
114.058155
 21
160.345198
 31
0.0
  0
SPLINE
  5
155
100
AcDbEntity
  8
0
 62
7
100
AcDbSpline
 70
0
 71
3
 72
10
 73
6
 74
4
 40
0.000000
 40
0.000000
 40
0.000000
 40
0.000000
 40
5.853175
 40
11.706344
 40
17.559500
 40
17.559500
 40
17.559500
 40
17.559500
 10
114.058155
 20
160.345198
 30
0.0
 10
116.009214
 20
160.345198
 30
0.0
 10
119.911328
 20
160.345198
 30
0.0
 10
125.764495
 20
160.345198
 30
0.0
 10
129.666603
 20
160.345198
 30
0.0
 10
131.617655
 20
160.345198
 30
0.0
 11
114.058155
 21
160.345198
 31
0.0
 11
119.911330
 21
160.345198
 31
0.0
 11
125.764499
 21
160.345198
 31
0.0
 11
131.617655
 21
160.345198
 31
0.0
  0
SPLINE
  5
156
100
AcDbEntity
  8
0
 62
7
100
AcDbSpline
 70
0
 71
3
 72
10
 73
6
 74
4
 40
0.000000
 40
0.000000
 40
0.000000
 40
0.000000
 40
3.099286
 40
6.288064
 40
9.461079
 40
9.461079
 40
9.461079
 40
9.461079
 10
131.617655
 20
160.345198
 30
0.0
 10
132.158707
 20
161.245484
 30
0.0
 10
133.256433
 20
163.072052
 30
0.0
 10
133.258450
 20
166.350819
 30
0.0
 10
132.728594
 20
168.398902
 30
0.0
 10
132.464322
 20
169.420406
 30
0.0
 11
131.617655
 21
160.345198
 31
0.0
 11
132.974460
 21
163.131710
 31
0.0
 11
133.124991
 21
166.316933
 31
0.0
 11
132.464322
 21
169.420406
 31
0.0
  0
LWPOLYLINE
  5
157
100
AcDbEntity
  8
0
 62
7
100
AcDbPolyline
 90
2
 70
0
 10
119.360518
 20
271.035783
 30
0.0
 10
119.360518
 20
271.035783
 30
0.0
  0
SPLINE
  5
158
100
AcDbEntity
  8
0
 62
7
100
AcDbSpline
 70
0
 71
3
 72
10
 73
6
 74
4
 40
0.000000
 40
0.000000
 40
0.000000
 40
0.000000
 40
5.030849
 40
10.036279
 40
15.062328
 40
15.062328
 40
15.062328
 40
15.062328
 10
132.464322
 20
169.420406
 30
0.0
 10
131.735010
 20
170.947408
 30
0.0
 10
130.280071
 20
173.993696
 30
0.0
 10
125.988067
 20
177.138050
 30
0.0
 10
122.617324
 20
177.466664
 30
0.0
 10
120.928488
 20
177.631309
 30
0.0
 11
132.464322
 21
169.420406
 31
0.0
 11
129.923381
 21
173.762417
 31
0.0
 11
125.866399
 21
176.694179
 31
0.0
 11
120.928488
 21
177.631309
 31
0.0
  0
SPLINE
  5
159
100
AcDbEntity
  8
0
 62
7
100
AcDbSpline
 70
0
 71
3
 72
10
 73
6
 74
4
 40
0.000000
 40
0.000000
 40
0.000000
 40
0.000000
 40
7.386989
 40
14.840118
 40
22.220267
 40
22.220267
 40
22.220267
 40
22.220267
 10
121.498673
 20
158.711309
 30
0.0
 10
119.021093
 20
158.216433
 30
0.0
 10
114.043749
 20
157.222251
 30
0.0
 10
109.206656
 20
150.444882
 30
0.0
 10
109.794057
 20
145.417173
 30
0.0
 10
110.086312
 20
142.915686
 30
0.0
 11
121.498673
 21
158.711309
 31
0.0
 11
114.498754
 21
156.351491
 31
0.0
 11
110.154289
 21
150.295522
 31
0.0
 11
110.086312
 21
142.915686
 31
0.0
  0
SPLINE
  5
15a
100
AcDbEntity
  8
0
 62
7
100
AcDbSpline
 70
0
 71
3
 72
10
 73
6
 74
4
 40
0.000000
 40
0.000000
 40
0.000000
 40
0.000000
 40
1.679092
 40
3.444789
 40
5.241098
 40
5.241098
 40
5.241098
 40
5.241098
 10
110.086312
 20
142.915686
 30
0.0
 10
110.356533
 20
142.363101
 30
0.0
 10
110.910913
 20
141.229430
 30
0.0
 10
112.890667
 20
141.426906
 30
0.0
 10
114.045807
 20
141.425763
 30
0.0
 10
114.628340
 20
141.425186
 30
0.0
 11
110.086312
 21
142.915686
 31
0.0
 11
111.074416
 21
141.558115
 31
0.0
 11
112.832328
 21
141.392493
 31
0.0
 11
114.628340
 21
141.425186
 31
0.0
  0
SPLINE
  5
15b
100
AcDbEntity
  8
0
 62
7
100
AcDbSpline
 70
0
 71
3
 72
10
 73
6
 74
4
 40
0.000000
 40
0.000000
 40
0.000000
 40
0.000000
 40
5.853175
 40
11.706344
 40
17.559500
 40
17.559500
 40
17.559500
 40
17.559500
 10
114.628340
 20
141.425186
 30
0.0
 10
116.579398
 20
141.425186
 30
0.0
 10
120.481513
 20
141.425186
 30
0.0
 10
126.334680
 20
141.425186
 30
0.0
 10
130.236788
 20
141.425186
 30
0.0
 10
132.187840
 20
141.425186
 30
0.0
 11
114.628340
 21
141.425186
 31
0.0
 11
120.481515
 21
141.425186
 31
0.0
 11
126.334684
 21
141.425186
 31
0.0
 11
132.187840
 21
141.425186
 31
0.0
  0
SPLINE
  5
15c
100
AcDbEntity
  8
0
 62
7
100
AcDbSpline
 70
0
 71
3
 72
10
 73
6
 74
4
 40
0.000000
 40
0.000000
 40
0.000000
 40
0.000000
 40
3.099295
 40
6.288071
 40
9.461090
 40
9.461090
 40
9.461090
 40
9.461090
 10
132.187840
 20
141.425186
 30
0.0
 10
132.728892
 20
142.325476
 30
0.0
 10
133.826616
 20
144.152048
 30
0.0
 10
133.828635
 20
147.430818
 30
0.0
 10
133.298779
 20
149.478901
 30
0.0
 10
133.034507
 20
150.500406
 30
0.0
 11
132.187840
 21
141.425186
 31
0.0
 11
133.544645
 21
144.211709
 31
0.0
 11
133.695176
 21
147.396930
 31
0.0
 11
133.034507
 21
150.500406
 31
0.0
  0
LWPOLYLINE
  5
15d
100
AcDbEntity
  8
0
 62
7
100
AcDbPolyline
 90
2
 70
0
 10
120.928488
 20
177.631309
 30
0.0
 10
120.928488
 20
177.631309
 30
0.0
  0
SPLINE
  5
15e
100
AcDbEntity
  8
0
 62
7
100
AcDbSpline
 70
0
 71
3
 72
10
 73
6
 74
4
 40
0.000000
 40
0.000000
 40
0.000000
 40
0.000000
 40
5.030849
 40
10.036279
 40
15.062328
 40
15.062328
 40
15.062328
 40
15.062328
 10
133.034507
 20
150.500406
 30
0.0
 10
132.305195
 20
152.027408
 30
0.0
 10
130.850256
 20
155.073696
 30
0.0
 10
126.558251
 20
158.218050
 30
0.0
 10
123.187509
 20
158.546664
 30
0.0
 10
121.498673
 20
158.711309
 30
0.0
 11
133.034507
 21
150.500406
 31
0.0
 11
130.493566
 21
154.842417
 31
0.0
 11
126.436584
 21
157.774179
 31
0.0
 11
121.498673
 21
158.711309
 31
0.0
  0
SPLINE
  5
15f
100
AcDbEntity
  8
0
 62
7
100
AcDbSpline
 70
0
 71
3
 72
10
 73
6
 74
4
 40
0.000000
 40
0.000000
 40
0.000000
 40
0.000000
 40
7.386991
 40
14.840122
 40
22.220279
 40
22.220279
 40
22.220279
 40
22.220279
 10
121.498673
 20
139.895542
 30
0.0
 10
119.021093
 20
139.400663
 30
0.0
 10
114.043749
 20
138.406476
 30
0.0
 10
109.206655
 20
131.629104
 30
0.0
 10
109.794057
 20
126.601392
 30
0.0
 10
110.086312
 20
124.099903
 30
0.0
 11
121.498673
 21
139.895542
 31
0.0
 11
114.498754
 21
137.535717
 31
0.0
 11
110.154289
 21
131.479746
 31
0.0
 11
110.086312
 21
124.099903
 31
0.0
  0
SPLINE
  5
160
100
AcDbEntity
  8
0
 62
7
100
AcDbSpline
 70
0
 71
3
 72
10
 73
6
 74
4
 40
0.000000
 40
0.000000
 40
0.000000
 40
0.000000
 40
1.679081
 40
3.444778
 40
5.241087
 40
5.241087
 40
5.241087
 40
5.241087
 10
110.086312
 20
124.099903
 30
0.0
 10
110.356534
 20
123.547324
 30
0.0
 10
110.910918
 20
122.413661
 30
0.0
 10
112.890667
 20
122.611134
 30
0.0
 10
114.045807
 20
122.610002
 30
0.0
 10
114.628340
 20
122.609431
 30
0.0
 11
110.086312
 21
124.099903
 31
0.0
 11
111.074416
 21
122.742345
 31
0.0
 11
112.832328
 21
122.576724
 31
0.0
 11
114.628340
 21
122.609431
 31
0.0
  0
SPLINE
  5
161
100
AcDbEntity
  8
0
 62
7
100
AcDbSpline
 70
0
 71
3
 72
10
 73
6
 74
4
 40
0.000000
 40
0.000000
 40
0.000000
 40
0.000000
 40
5.853175
 40
11.706344
 40
17.559500
 40
17.559500
 40
17.559500
 40
17.559500
 10
114.628340
 20
122.609431
 30
0.0
 10
116.579398
 20
122.609431
 30
0.0
 10
120.481513
 20
122.609431
 30
0.0
 10
126.334680
 20
122.609431
 30
0.0
 10
130.236788
 20
122.609431
 30
0.0
 10
132.187840
 20
122.609431
 30
0.0
 11
114.628340
 21
122.609431
 31
0.0
 11
120.481515
 21
122.609431
 31
0.0
 11
126.334684
 21
122.609431
 31
0.0
 11
132.187840
 21
122.609431
 31
0.0
  0
SPLINE
  5
162
100
AcDbEntity
  8
0
 62
7
100
AcDbSpline
 70
0
 71
3
 72
10
 73
6
 74
4
 40
0.000000
 40
0.000000
 40
0.000000
 40
0.000000
 40
3.099283
 40
6.288059
 40
9.461066
 40
9.461066
 40
9.461066
 40
9.461066
 10
132.187840
 20
122.609431
 30
0.0
 10
132.728892
 20
123.509716
 30
0.0
 10
133.826618
 20
125.336282
 30
0.0
 10
133.828635
 20
128.615045
 30
0.0
 10
133.298778
 20
130.663124
 30
0.0
 10
133.034507
 20
131.684625
 30
0.0
 11
132.187840
 21
122.609431
 31
0.0
 11
133.544645
 21
125.395940
 31
0.0
 11
133.695176
 21
128.581161
 31
0.0
 11
133.034507
 21
131.684625
 31
0.0
  0
LWPOLYLINE
  5
163
100
AcDbEntity
  8
0
 62
7
100
AcDbPolyline
 90
2
 70
0
 10
121.498673
 20
158.711309
 30
0.0
 10
121.498673
 20
158.711309
 30
0.0
  0
SPLINE
  5
164
100
AcDbEntity
  8
0
 62
7
100
AcDbSpline
 70
0
 71
3
 72
10
 73
6
 74
4
 40
0.000000
 40
0.000000
 40
0.000000
 40
0.000000
 40
5.030860
 40
10.036293
 40
15.062342
 40
15.062342
 40
15.062342
 40
15.062342
 10
133.034507
 20
131.684625
 30
0.0
 10
132.305195
 20
133.211631
 30
0.0
 10
130.850259
 20
136.257926
 30
0.0
 10
126.558253
 20
139.402289
 30
0.0
 10
123.187509
 20
139.730899
 30
0.0
 10
121.498673
 20
139.895542
 30
0.0
 11
133.034507
 21
131.684625
 31
0.0
 11
130.493566
 21
136.026649
 31
0.0
 11
126.436584
 21
138.958416
 31
0.0
 11
121.498673
 21
139.895542
 31
0.0
  0
SPLINE
  5
165
100
AcDbEntity
  8
0
 62
7
100
AcDbSpline
 70
0
 71
3
 72
10
 73
6
 74
4
 40
0.000000
 40
0.000000
 40
0.000000
 40
0.000000
 40
7.386990
 40
14.840120
 40
22.220271
 40
22.220271
 40
22.220271
 40
22.220271
 10
120.643410
 20
195.772683
 30
0.0
 10
118.165830
 20
195.277807
 30
0.0
 10
113.188485
 20
194.283625
 30
0.0
 10
108.351391
 20
187.506255
 30
0.0
 10
108.938791
 20
182.478545
 30
0.0
 10
109.231046
 20
179.977058
 30
0.0
 11
120.643410
 21
195.772683
 31
0.0
 11
113.643490
 21
193.412865
 31
0.0
 11
109.299024
 21
187.356896
 31
0.0
 11
109.231046
 21
179.977058
 31
0.0
  0
SPLINE
  5
166
100
AcDbEntity
  8
0
 62
7
100
AcDbSpline
 70
0
 71
3
 72
10
 73
6
 74
4
 40
0.000000
 40
0.000000
 40
0.000000
 40
0.000000
 40
1.679089
 40
3.444787
 40
5.241098
 40
5.241098
 40
5.241098
 40
5.241098
 10
109.231046
 20
179.977058
 30
0.0
 10
109.501268
 20
179.424475
 30
0.0
 10
110.055650
 20
178.290807
 30
0.0
 10
112.035403
 20
178.488276
 30
0.0
 10
113.190543
 20
178.487143
 30
0.0
 10
113.773077
 20
178.486572
 30
0.0
 11
109.231046
 21
179.977058
 31
0.0
 11
110.219151
 21
178.619491
 31
0.0
 11
111.977064
 21
178.453867
 31
0.0
 11
113.773077
 21
178.486572
 31
0.0
  0
SPLINE
  5
167
100
AcDbEntity
  8
0
 62
7
100
AcDbSpline
 70
0
 71
3
 72
10
 73
6
 74
4
 40
0.000000
 40
0.000000
 40
0.000000
 40
0.000000
 40
5.853175
 40
11.706344
 40
17.559500
 40
17.559500
 40
17.559500
 40
17.559500
 10
113.773077
 20
178.486572
 30
0.0
 10
115.724135
 20
178.486572
 30
0.0
 10
119.626250
 20
178.486572
 30
0.0
 10
125.479416
 20
178.486572
 30
0.0
 10
129.381525
 20
178.486572
 30
0.0
 10
131.332577
 20
178.486572
 30
0.0
 11
113.773077
 21
178.486572
 31
0.0
 11
119.626252
 21
178.486572
 31
0.0
 11
125.479421
 21
178.486572
 31
0.0
 11
131.332577
 21
178.486572
 31
0.0
  0
SPLINE
  5
168
100
AcDbEntity
  8
0
 62
7
100
AcDbSpline
 70
0
 71
3
 72
10
 73
6
 74
4
 40
0.000000
 40
0.000000
 40
0.000000
 40
0.000000
 40
3.099286
 40
6.288064
 40
9.461079
 40
9.461079
 40
9.461079
 40
9.461079
 10
131.332577
 20
178.486572
 30
0.0
 10
131.873629
 20
179.386858
 30
0.0
 10
132.971355
 20
181.213426
 30
0.0
 10
132.973372
 20
184.492193
 30
0.0
 10
132.443515
 20
186.540276
 30
0.0
 10
132.179243
 20
187.561780
 30
0.0
 11
131.332577
 21
178.486572
 31
0.0
 11
132.689382
 21
181.273084
 31
0.0
 11
132.839913
 21
184.458307
 31
0.0
 11
132.179243
 21
187.561780
 31
0.0
  0
LWPOLYLINE
  5
169
100
AcDbEntity
  8
0
 62
7
100
AcDbPolyline
 90
2
 70
0
 10
121.498673
 20
139.895542
 30
0.0
 10
121.498673
 20
139.895542
 30
0.0
  0
SPLINE
  5
16a
100
AcDbEntity
  8
0
 62
7
100
AcDbSpline
 70
0
 71
3
 72
10
 73
6
 74
4
 40
0.000000
 40
0.000000
 40
0.000000
 40
0.000000
 40
5.030849
 40
10.036279
 40
15.062328
 40
15.062328
 40
15.062328
 40
15.062328
 10
132.179243
 20
187.561780
 30
0.0
 10
131.449932
 20
189.088782
 30
0.0
 10
129.994993
 20
192.135070
 30
0.0
 10
125.702988
 20
195.279425
 30
0.0
 10
122.332246
 20
195.608038
 30
0.0
 10
120.643410
 20
195.772683
 30
0.0
 11
132.179243
 21
187.561780
 31
0.0
 11
129.638303
 21
191.903791
 31
0.0
 11
125.581321
 21
194.835553
 31
0.0
 11
120.643410
 21
195.772683
 31
0.0
  0
SPLINE
  5
16b
100
AcDbEntity
  8
0
 62
7
100
AcDbSpline
 70
0
 71
3
 72
40
 73
36
 74
34
 40
0.000000
 40
0.000000
 40
0.000000
 40
0.000000
 40
1.331566
 40
3.560608
 40
4.939311
 40
6.318975
 40
8.549426
 40
9.882002
 40
11.214617
 40
13.444813
 40
14.824474
 40
16.204973
 40
18.436740
 40
19.770191
 40
21.101668
 40
23.330714
 40
24.709374
 40
26.090940
 40
28.325040
 40
29.659492
 40
30.993418
 40
33.226169
 40
34.607136
 40
35.985462
 40
38.213339
 40
39.544594
 40
40.877143
 40
43.107752
 40
44.487407
 40
45.868493
 40
48.101846
 40
49.435792
 40
50.581080
 40
52.595113
 40
54.174571
 40
54.174571
 40
54.174571
 40
54.174571
 10
85.428246
 20
215.198075
 30
0.0
 10
85.088085
 20
214.902081
 30
0.0
 10
84.178496
 20
214.110594
 30
0.0
 10
83.248891
 20
212.954714
 30
0.0
 10
82.092233
 20
211.151082
 30
0.0
 10
80.566930
 20
212.720393
 30
0.0
 10
79.514748
 20
213.364440
 30
0.0
 10
77.814706
 20
214.947608
 30
0.0
 10
77.363186
 20
212.668688
 30
0.0
 10
76.882549
 20
211.534365
 30
0.0
 10
76.574135
 20
209.358979
 30
0.0
 10
74.537121
 20
210.185404
 30
0.0
 10
73.314674
 20
210.338926
 30
0.0
 10
71.115066
 20
211.093805
 30
0.0
 10
71.634440
 20
208.829301
 30
0.0
 10
71.661220
 20
207.599657
 30
0.0
 10
72.269271
 20
205.487024
 30
0.0
 10
70.068646
 20
205.416449
 30
0.0
 10
68.888641
 20
205.060758
 30
0.0
 10
66.569704
 20
204.858529
 30
0.0
 10
67.964036
 20
202.995868
 30
0.0
 10
68.485665
 20
201.879098
 30
0.0
 10
69.898333
 20
200.193786
 30
0.0
 10
67.923192
 20
199.234211
 30
0.0
 10
66.991204
 20
198.431049
 30
0.0
 10
64.961338
 20
197.303517
 30
0.0
 10
66.991694
 20
196.172567
 30
0.0
 10
67.922292
 20
195.367303
 30
0.0
 10
69.900039
 20
194.403664
 30
0.0
 10
68.476672
 20
192.721567
 30
0.0
 10
67.966331
 20
191.610114
 30
0.0
 10
66.579000
 20
189.817495
 30
0.0
 10
68.598557
 20
189.540264
 30
0.0
 10
69.947982
 20
189.318711
 30
0.0
 10
71.144155
 20
189.051323
 30
0.0
 10
71.669913
 20
188.933798
 30
0.0
 11
85.428246
 21
215.198075
 31
0.0
 11
84.441254
 21
214.304254
 31
0.0
 11
83.028654
 21
212.579960
 31
0.0
 11
82.041579
 21
211.617409
 31
0.0
 11
80.876019
 21
212.355610
 31
0.0
 11
79.135983
 21
213.751026
 31
0.0
 11
77.984635
 21
214.421964
 31
0.0
 11
77.443475
 21
213.204176
 31
0.0
 11
76.848674
 21
211.054760
 31
0.0
 11
76.335399
 21
209.774131
 31
0.0
 11
74.969374
 21
209.973508
 31
0.0
 11
72.810389
 21
210.538815
 31
0.0
 11
71.484704
 21
210.682520
 31
0.0
 11
71.489043
 21
209.351050
 31
0.0
 11
71.826209
 21
207.147651
 31
0.0
 11
71.881579
 21
205.770103
 31
0.0
 11
70.551060
 21
205.398023
 31
0.0
 11
68.346010
 21
205.038920
 31
0.0
 11
67.074982
 21
204.632409
 31
0.0
 11
67.618996
 21
203.414457
 31
0.0
 11
68.820407
 21
201.532493
 31
0.0
 11
69.429774
 21
200.293242
 31
0.0
 11
68.368852
 21
199.413340
 31
0.0
 11
66.506502
 21
198.190601
 31
0.0
 11
65.513941
 21
197.303436
 31
0.0
 11
66.506246
 21
196.414046
 31
0.0
 11
68.369114
 21
195.187123
 31
0.0
 11
69.429774
 21
194.304825
 31
0.0
 11
68.815556
 21
193.067839
 31
0.0
 11
67.606155
 21
191.190284
 31
0.0
 11
67.057343
 21
189.974464
 31
0.0
 11
68.139709
 21
189.600070
 31
0.0
 11
70.126039
 21
189.267175
 31
0.0
 11
71.669913
 21
188.933798
 31
0.0
  0
SPLINE
  5
16c
100
AcDbEntity
  8
0
 62
7
100
AcDbSpline
 70
0
 71
3
 72
19
 73
15
 74
13
 40
0.000000
 40
0.000000
 40
0.000000
 40
0.000000
 40
2.384835
 40
5.897301
 40
8.104331
 40
9.903418
 40
12.629676
 40
14.404163
 40
16.341782
 40
19.341998
 40
21.311362
 40
23.283140
 40
26.441720
 40
28.822945
 40
28.822945
 40
28.822945
 40
28.822945
 10
71.669913
 20
188.933798
 30
0.0
 10
72.453071
 20
188.762667
 30
0.0
 10
74.389691
 20
188.339489
 30
0.0
 10
76.861257
 20
187.681125
 30
0.0
 10
79.492733
 20
186.413625
 30
0.0
 10
81.156288
 20
188.381850
 30
0.0
 10
82.488140
 20
189.652566
 30
0.0
 10
84.201863
 20
191.643445
 30
0.0
 10
86.266119
 20
189.774721
 30
0.0
 10
87.993289
 20
188.743408
 30
0.0
 10
89.973904
 20
186.959352
 30
0.0
 10
92.296524
 20
188.303338
 30
0.0
 10
94.506060
 20
189.220402
 30
0.0
 10
96.255989
 20
189.852646
 30
0.0
 10
97.008177
 20
190.124409
 30
0.0
 11
71.669913
 21
188.933798
 31
0.0
 11
73.996799
 21
188.411264
 31
0.0
 11
77.356502
 21
187.386664
 31
0.0
 11
79.510399
 21
186.905297
 31
0.0
 11
80.901661
 21
188.045956
 31
0.0
 11
82.779789
 21
190.022093
 31
0.0
 11
84.193524
 21
191.094548
 31
0.0
 11
85.895634
 21
190.168702
 31
0.0
 11
88.314962
 21
188.394402
 31
0.0
 11
90.014357
 21
187.399186
 31
0.0
 11
91.883268
 21
188.027738
 31
0.0
 11
94.773857
 21
189.300973
 31
0.0
 11
97.008177
 21
190.124409
 31
0.0
  0
LWPOLYLINE
  5
16d
100
AcDbEntity
  8
0
 62
7
100
AcDbPolyline
 90
2
 70
0
 10
120.643410
 20
195.772683
 30
0.0
 10
120.643410
 20
195.772683
 30
0.0
  0
SPLINE
  5
16e
100
AcDbEntity
  8
0
 62
7
100
AcDbSpline
 70
0
 71
3
 72
37
 73
33
 74
31
 40
0.000000
 40
0.000000
 40
0.000000
 40
0.000000
 40
0.609973
 40
1.071244
 40
1.328631
 40
2.709123
 40
4.941395
 40
6.274757
 40
7.609893
 40
9.845056
 40
11.227272
 40
12.607433
 40
14.839139
 40
16.172180
 40
17.504455
 40
19.734720
 40
21.114129
 40
22.494181
 40
24.725180
 40
26.058177
 40
27.390818
 40
29.621045
 40
31.000726
 40
32.378785
 40
34.606447
 40
35.937379
 40
37.270750
 40
39.502475
 40
40.882905
 40
42.263452
 40
44.495609
 40
45.829060
 40
45.829060
 40
45.829060
 40
45.829060
 10
97.008177
 20
190.124409
 30
0.0
 10
96.941002
 20
190.316937
 30
0.0
 10
96.823029
 20
190.655059
 30
0.0
 10
96.684852
 20
191.070121
 30
0.0
 10
96.635798
 20
191.811709
 30
0.0
 10
98.441211
 20
192.059859
 30
0.0
 10
99.449621
 20
192.728032
 30
0.0
 10
101.688396
 20
193.393002
 30
0.0
 10
99.931231
 20
194.929181
 30
0.0
 10
99.189778
 20
195.912026
 30
0.0
 10
97.454030
 20
197.268461
 30
0.0
 10
99.191994
 20
198.617748
 30
0.0
 10
99.938248
 20
199.596868
 30
0.0
 10
101.694809
 20
201.121798
 30
0.0
 10
99.472720
 20
201.806012
 30
0.0
 10
98.394566
 20
202.399117
 30
0.0
 10
96.261368
 20
202.929661
 30
0.0
 10
97.296749
 20
204.869231
 30
0.0
 10
97.577609
 20
206.068608
 30
0.0
 10
98.558132
 20
208.175594
 30
0.0
 10
96.251053
 20
207.900700
 30
0.0
 10
95.024069
 20
208.007523
 30
0.0
 10
92.859775
 20
207.628253
 30
0.0
 10
93.018430
 20
209.818045
 30
0.0
 10
92.790542
 20
211.026850
 30
0.0
 10
92.830984
 20
213.347988
 30
0.0
 10
90.834522
 20
212.157754
 30
0.0
 10
89.669424
 20
211.750141
 30
0.0
 10
87.846928
 20
210.537197
 30
0.0
 10
87.093046
 20
212.544816
 30
0.0
 10
86.423966
 20
213.871209
 30
0.0
 10
85.699266
 20
214.836922
 30
0.0
 10
85.428246
 20
215.198075
 30
0.0
 11
97.008177
 21
190.124409
 31
0.0
 11
96.808781
 21
190.700871
 31
0.0
 11
96.687520
 21
191.145917
 31
0.0
 11
96.681857
 21
191.403242
 31
0.0
 11
97.905326
 21
192.042682
 31
0.0
 11
99.986381
 21
192.850300
 31
0.0
 11
101.144496
 21
193.511075
 31
0.0
 11
100.357907
 21
194.589901
 31
0.0
 11
98.789166
 21
196.182070
 31
0.0
 11
97.934218
 21
197.268159
 31
0.0
 11
98.791709
 21
198.349618
 31
0.0
 11
100.364179
 21
199.933238
 31
0.0
 11
101.153316
 21
201.007603
 31
0.0
 11
99.997764
 21
201.670669
 31
0.0
 11
97.920452
 21
202.482371
 31
0.0
 11
96.699496
 21
203.124270
 31
0.0
 11
97.040738
 21
204.461468
 31
0.0
 11
97.828941
 21
206.548593
 31
0.0
 11
98.110607
 21
207.851492
 31
0.0
 11
96.785170
 21
207.989858
 31
0.0
 11
94.557118
 21
207.891359
 31
0.0
 11
93.180538
 21
207.983798
 31
0.0
 11
92.950319
 21
209.342491
 31
0.0
 11
92.825049
 21
211.566628
 31
0.0
 11
92.554357
 21
212.869742
 31
0.0
 11
91.286712
 21
212.456276
 31
0.0
 11
89.290385
 21
211.458641
 31
0.0
 11
87.994704
 21
210.982409
 31
0.0
 11
87.229914
 21
212.131760
 31
0.0
 11
86.207409
 21
214.115949
 31
0.0
 11
85.428246
 21
215.198075
 31
0.0
  0
LWPOLYLINE
  5
16f
100
AcDbEntity
  8
0
 62
7
100
AcDbPolyline
 90
2
 70
0
 10
85.428246
 20
215.198075
 30
0.0
 10
85.428246
 20
215.198075
 30
0.0
  0
SPLINE
  5
170
100
AcDbEntity
  8
0
 62
1
100
AcDbSpline
 70
0
 71
3
 72
16
 73
12
 74
10
 40
0.000000
 40
0.000000
 40
0.000000
 40
0.000000
 40
6.465300
 40
12.736504
 40
19.195780
 40
25.655055
 40
31.926258
 40
38.391558
 40
40.354302
 40
42.265273
 40
44.144573
 40
44.144573
 40
44.144573
 40
44.144573
 10
71.016498
 20
197.011901
 30
0.0
 10
71.355989
 20
199.191667
 30
0.0
 10
72.024780
 20
203.485759
 30
0.0
 10
76.941771
 20
208.215068
 30
0.0
 10
83.358712
 20
209.969658
 30
0.0
 10
89.842483
 20
208.212969
 30
0.0
 10
94.562812
 20
203.493975
 30
0.0
 10
95.899739
 20
198.507431
 30
0.0
 10
95.618843
 20
195.066560
 30
0.0
 10
95.184949
 20
193.185917
 30
0.0
 10
94.665882
 20
192.031411
 30
0.0
 10
94.408518
 20
191.458981
 30
0.0
 11
71.016498
 21
197.011901
 31
0.0
 11
72.703300
 21
203.253279
 31
0.0
 11
77.135316
 21
207.690084
 31
0.0
 11
83.369960
 21
209.378709
 31
0.0
 11
89.604603
 21
207.690084
 31
0.0
 11
94.036618
 21
203.253279
 31
0.0
 11
95.723419
 21
197.011901
 31
0.0
 11
95.569450
 21
195.055205
 31
0.0
 11
95.123281
 21
193.197049
 31
0.0
 11
94.408518
 21
191.458981
 31
0.0
  0
LWPOLYLINE
  5
171
100
AcDbEntity
  8
0
 62
1
100
AcDbPolyline
 90
2
 70
0
 10
94.408518
 20
191.458981
 30
0.0
 10
72.342462
 20
191.458981
 30
0.0
  0
SPLINE
  5
172
100
AcDbEntity
  8
0
 62
1
100
AcDbSpline
 70
0
 71
3
 72
10
 73
6
 74
4
 40
0.000000
 40
0.000000
 40
0.000000
 40
0.000000
 40
1.880520
 40
3.792491
 40
5.755635
 40
5.755635
 40
5.755635
 40
5.755635
 10
72.342462
 20
191.458981
 30
0.0
 10
72.085434
 20
192.031515
 30
0.0
 10
71.567077
 20
193.186157
 30
0.0
 10
71.109034
 20
195.065134
 30
0.0
 10
71.047614
 20
196.357291
 30
0.0
 10
71.016498
 20
197.011901
 30
0.0
 11
72.342462
 21
191.458981
 31
0.0
 11
71.624618
 21
193.197099
 31
0.0
 11
71.173228
 21
195.055023
 31
0.0
 11
71.016498
 21
197.011901
 31
0.0
  0
SPLINE
  5
173
100
AcDbEntity
  8
0
 62
7
100
AcDbSpline
 70
0
 71
3
 72
10
 73
6
 74
4
 40
0.000000
 40
0.000000
 40
0.000000
 40
0.000000
 40
3.123180
 40
6.151942
 40
9.255206
 40
9.255206
 40
9.255206
 40
9.255206
 10
13.104845
 20
180.734297
 30
0.0
 10
12.058606
 20
180.575284
 30
0.0
 10
9.997757
 20
180.262065
 30
0.0
 10
7.580554
 20
177.965324
 30
0.0
 10
7.153548
 20
175.933144
 30
0.0
 10
6.937451
 20
174.904709
 30
0.0
 11
13.104845
 21
180.734297
 31
0.0
 11
10.083172
 21
179.944518
 31
0.0
 11
7.886547
 21
177.859275
 31
0.0
 11
6.937451
 21
174.904709
 31
0.0
  0
SPLINE
  5
174
100
AcDbEntity
  8
0
 62
7
100
AcDbSpline
 70
0
 71
3
 72
16
 73
12
 74
10
 40
0.000000
 40
0.000000
 40
0.000000
 40
0.000000
 40
1.143050
 40
2.305718
 40
3.502275
 40
6.732526
 40
9.866012
 40
13.096263
 40
14.511972
 40
15.884152
 40
17.234195
 40
17.234195
 40
17.234195
 40
17.234195
 10
6.937451
 20
174.904709
 30
0.0
 10
6.605107
 20
175.093167
 30
0.0
 10
5.934716
 20
175.473318
 30
0.0
 10
4.802668
 20
175.800197
 30
0.0
 10
2.942539
 20
175.988391
 30
0.0
 10
0.378744
 20
175.298721
 30
0.0
 10
-1.979151
 20
172.940842
 30
0.0
 10
-2.687827
 20
170.303663
 30
0.0
 10
-2.449954
 20
168.300888
 30
0.0
 10
-1.997055
 20
166.979329
 30
0.0
 10
-1.476393
 20
166.231836
 30
0.0
 10
-1.218179
 20
165.861129
 30
0.0
 11
6.937451
 21
174.904709
 31
0.0
 11
5.922014
 21
175.429545
 31
0.0
 11
4.808144
 21
175.762847
 31
0.0
 11
3.617290
 21
175.879524
 31
0.0
 11
0.498987
 21
175.036491
 31
0.0
 11
-1.716723
 21
172.820781
 31
0.0
 11
-2.559756
 21
169.702479
 31
0.0
 11
-2.397964
 21
168.296045
 31
0.0
 11
-1.938044
 21
167.003237
 31
0.0
 11
-1.218179
 21
165.861129
 31
0.0
  0
SPLINE
  5
175
100
AcDbEntity
  8
0
 62
7
100
AcDbSpline
 70
0
 71
3
 72
16
 73
12
 74
10
 40
0.000000
 40
0.000000
 40
0.000000
 40
0.000000
 40
1.664677
 40
3.349917
 40
5.094646
 40
8.324897
 40
11.458384
 40
14.688634
 40
16.274222
 40
17.807166
 40
19.318269
 40
19.318269
 40
19.318269
 40
19.318269
 10
-1.218179
 20
165.861129
 30
0.0
 10
-1.598576
 20
165.452591
 30
0.0
 10
-2.364069
 20
164.630468
 30
0.0
 10
-3.050230
 20
163.041466
 30
0.0
 10
-3.373565
 20
160.824259
 30
0.0
 10
-2.635760
 20
158.077427
 30
0.0
 10
-0.277058
 20
155.718244
 30
0.0
 10
2.416755
 20
154.995663
 30
0.0
 10
4.529780
 20
155.274167
 30
0.0
 10
5.992881
 20
155.837854
 30
0.0
 10
6.785351
 20
156.479650
 30
0.0
 10
7.178742
 20
156.798246
 30
0.0
 11
-1.218179
 21
165.861129
 31
0.0
 11
-2.281753
 21
164.580520
 31
0.0
 11
-2.970897
 21
163.042628
 31
0.0
 11
-3.216066
 21
161.315209
 31
0.0
 11
-2.373033
 21
158.196907
 31
0.0
 11
-0.157324
 21
155.981197
 31
0.0
 11
2.960979
 21
155.138164
 31
0.0
 11
4.533762
 21
155.339269
 31
0.0
 11
5.956788
 21
155.909280
 31
0.0
 11
7.178742
 21
156.798246
 31
0.0
  0
SPLINE
  5
176
100
AcDbEntity
  8
0
 62
7
100
AcDbSpline
 70
0
 71
3
 72
13
 73
9
 74
7
 40
0.000000
 40
0.000000
 40
0.000000
 40
0.000000
 40
1.912931
 40
3.916029
 40
6.009768
 40
7.931262
 40
9.774391
 40
11.543917
 40
11.543917
 40
11.543917
 40
11.543917
 10
7.178742
 20
156.798246
 30
0.0
 10
7.765036
 20
156.544318
 30
0.0
 10
8.965260
 20
156.024495
 30
0.0
 10
10.934837
 20
155.599218
 30
0.0
 10
12.941243
 20
155.446302
 30
0.0
 10
14.894381
 20
155.583727
 30
0.0
 10
16.712023
 20
155.947464
 30
0.0
 10
17.834491
 20
156.388960
 30
0.0
 10
18.384291
 20
156.605211
 30
0.0
 11
7.178742
 21
156.798246
 31
0.0
 11
8.957471
 21
156.094379
 31
0.0
 11
10.910668
 21
155.650053
 31
0.0
 11
12.998678
 21
155.495276
 31
0.0
 11
14.915650
 21
155.627019
 31
0.0
 11
16.719519
 21
156.005414
 31
0.0
 11
18.384291
 21
156.605211
 31
0.0
  0
SPLINE
  5
177
100
AcDbEntity
  8
0
 62
7
100
AcDbSpline
 70
0
 71
3
 72
16
 73
12
 74
10
 40
0.000000
 40
0.000000
 40
0.000000
 40
0.000000
 40
1.412770
 40
2.845581
 40
4.327129
 40
7.559796
 40
10.696572
 40
13.927477
 40
15.391277
 40
16.808840
 40
18.205359
 40
18.205359
 40
18.205359
 40
18.205359
 10
18.384291
 20
156.605211
 30
0.0
 10
18.764083
 20
156.323376
 30
0.0
 10
19.529053
 20
155.755708
 30
0.0
 10
20.904455
 20
155.258003
 30
0.0
 10
22.950454
 20
155.004263
 30
0.0
 10
25.610936
 20
155.719154
 30
0.0
 10
27.973556
 20
158.075583
 30
0.0
 10
28.690491
 20
160.729837
 30
0.0
 10
28.438700
 20
162.764204
 30
0.0
 10
27.950058
 20
164.124536
 30
0.0
 10
27.394647
 20
164.885227
 30
0.0
 10
27.119018
 20
165.262728
 30
0.0
 11
18.384291
 21
156.605211
 31
0.0
 11
19.558054
 21
155.818955
 31
0.0
 11
20.899521
 21
155.315554
 31
0.0
 11
22.370412
 21
155.138164
 31
0.0
 11
25.491218
 21
155.981197
 31
0.0
 11
27.711577
 21
158.196907
 31
0.0
 11
28.557113
 21
161.315209
 31
0.0
 11
28.382486
 21
162.768557
 31
0.0
 11
27.888283
 21
164.097183
 31
0.0
 11
27.119018
 21
165.262728
 31
0.0
  0
SPLINE
  5
178
100
AcDbEntity
  8
0
 62
7
100
AcDbSpline
 70
0
 71
3
 72
16
 73
12
 74
10
 40
0.000000
 40
0.000000
 40
0.000000
 40
0.000000
 40
1.611290
 40
3.245034
 40
4.935447
 40
8.165698
 40
11.299185
 40
14.529435
 40
15.814135
 40
17.060597
 40
18.287052
 40
18.287052
 40
18.287052
 40
18.287052
 10
27.119018
 20
165.262728
 30
0.0
 10
27.477083
 20
165.667160
 30
0.0
 10
28.198203
 20
166.481660
 30
0.0
 10
28.836973
 20
168.029955
 30
0.0
 10
29.143339
 20
170.211515
 30
0.0
 10
28.411250
 20
172.940525
 30
0.0
 10
26.052709
 20
175.298809
 30
0.0
 10
23.459600
 20
175.996427
 30
0.0
 10
21.542175
 20
175.788117
 30
0.0
 10
20.333809
 20
175.410822
 30
0.0
 10
19.630636
 20
174.975724
 30
0.0
 10
19.281893
 20
174.759935
 30
0.0
 11
27.119018
 21
165.262728
 31
0.0
 11
28.118969
 21
166.526197
 31
0.0
 11
28.763249
 21
168.027537
 31
0.0
 11
28.991436
 21
169.702479
 31
0.0
 11
28.148403
 21
172.820781
 31
0.0
 11
25.932693
 21
175.036491
 31
0.0
 11
22.814390
 21
175.879524
 31
0.0
 11
21.536770
 21
175.744839
 31
0.0
 11
20.350765
 21
175.361355
 31
0.0
 11
19.281893
 21
174.759935
 31
0.0
  0
LWPOLYLINE
  5
179
100
AcDbEntity
  8
0
 62
1
100
AcDbPolyline
 90
2
 70
0
 10
71.016498
 20
197.011901
 30
0.0
 10
71.016498
 20
197.011901
 30
0.0
  0
SPLINE
  5
17a
100
AcDbEntity
  8
0
 62
7
100
AcDbSpline
 70
0
 71
3
 72
10
 73
6
 74
4
 40
0.000000
 40
0.000000
 40
0.000000
 40
0.000000
 40
3.155660
 40
6.229542
 40
9.397270
 40
9.397270
 40
9.397270
 40
9.397270
 10
19.281893
 20
174.759935
 30
0.0
 10
19.083596
 20
175.810724
 30
0.0
 10
18.692141
 20
177.885073
 30
0.0
 10
16.257261
 20
180.247927
 30
0.0
 10
14.166130
 20
180.570556
 30
0.0
 10
13.104845
 20
180.734297
 30
0.0
 11
19.281893
 21
174.759935
 31
0.0
 11
18.373262
 21
177.781950
 31
0.0
 11
16.166638
 21
179.921942
 31
0.0
 11
13.104845
 21
180.734297
 31
0.0
  0
LWPOLYLINE
  5
17b
100
AcDbEntity
  8
0
 62
7
100
AcDbPolyline
 90
2
 70
0
 10
13.104845
 20
180.734297
 30
0.0
 10
13.104845
 20
180.734297
 30
0.0
  0
SPLINE
  5
17c
100
AcDbEntity
  8
0
 62
1
100
AcDbSpline
 70
0
 71
3
 72
16
 73
12
 74
10
 40
0.000000
 40
0.000000
 40
0.000000
 40
0.000000
 40
6.465299
 40
12.736503
 40
19.195778
 40
25.655043
 40
31.926233
 40
38.391543
 40
40.354287
 40
42.265259
 40
44.144558
 40
44.144558
 40
44.144558
 40
44.144558
 10
0.995166
 20
189.942737
 30
0.0
 10
1.334657
 20
192.122502
 30
0.0
 10
2.003447
 20
196.416594
 30
0.0
 10
6.920437
 20
201.145904
 30
0.0
 10
13.337374
 20
202.900491
 30
0.0
 10
19.821140
 20
201.143814
 30
0.0
 10
24.541462
 20
196.424815
 30
0.0
 10
25.878376
 20
191.438270
 30
0.0
 10
25.597479
 20
187.997396
 30
0.0
 10
25.163584
 20
186.116753
 30
0.0
 10
24.644517
 20
184.962247
 30
0.0
 10
24.387152
 20
184.389817
 30
0.0
 11
0.995166
 21
189.942737
 31
0.0
 11
2.681967
 21
196.184115
 31
0.0
 11
7.113982
 21
200.620920
 31
0.0
 11
13.348625
 21
202.309545
 31
0.0
 11
19.583260
 21
200.620926
 31
0.0
 11
24.015262
 21
196.184127
 31
0.0
 11
25.702057
 21
189.942737
 31
0.0
 11
25.548087
 21
187.986041
 31
0.0
 11
25.101916
 21
186.127884
 31
0.0
 11
24.387152
 21
184.389817
 31
0.0
  0
LWPOLYLINE
  5
17d
100
AcDbEntity
  8
0
 62
1
100
AcDbPolyline
 90
2
 70
0
 10
24.387152
 20
184.389817
 30
0.0
 10
2.321131
 20
184.389817
 30
0.0
  0
SPLINE
  5
17e
100
AcDbEntity
  8
0
 62
1
100
AcDbSpline
 70
0
 71
3
 72
10
 73
6
 74
4
 40
0.000000
 40
0.000000
 40
0.000000
 40
0.000000
 40
1.880520
 40
3.792491
 40
5.755635
 40
5.755635
 40
5.755635
 40
5.755635
 10
2.321131
 20
184.389817
 30
0.0
 10
2.064102
 20
184.962350
 30
0.0
 10
1.545745
 20
186.116993
 30
0.0
 10
1.087702
 20
187.995969
 30
0.0
 10
1.026282
 20
189.288126
 30
0.0
 10
0.995166
 20
189.942737
 30
0.0
 11
2.321131
 21
184.389817
 31
0.0
 11
1.603286
 21
186.127935
 31
0.0
 11
1.151897
 21
187.985859
 31
0.0
 11
0.995166
 21
189.942737
 31
0.0
  0
SPLINE
  5
17f
100
AcDbEntity
  8
0
 62
7
100
AcDbSpline
 70
0
 71
3
 72
10
 73
6
 74
4
 40
0.000000
 40
0.000000
 40
0.000000
 40
0.000000
 40
3.123182
 40
6.151944
 40
9.255207
 40
9.255207
 40
9.255207
 40
9.255207
 10
13.910564
 20
207.459288
 30
0.0
 10
12.864324
 20
207.300275
 30
0.0
 10
10.803475
 20
206.987056
 30
0.0
 10
8.386271
 20
204.690315
 30
0.0
 10
7.959266
 20
202.658135
 30
0.0
 10
7.743170
 20
201.629700
 30
0.0
 11
13.910564
 21
207.459288
 31
0.0
 11
10.888889
 21
206.669509
 31
0.0
 11
8.692265
 21
204.584266
 31
0.0
 11
7.743170
 21
201.629700
 31
0.0
  0
SPLINE
  5
180
100
AcDbEntity
  8
0
 62
7
100
AcDbSpline
 70
0
 71
3
 72
16
 73
12
 74
10
 40
0.000000
 40
0.000000
 40
0.000000
 40
0.000000
 40
1.143051
 40
2.305719
 40
3.502275
 40
6.732525
 40
9.866012
 40
13.096263
 40
14.511971
 40
15.884152
 40
17.234196
 40
17.234196
 40
17.234196
 40
17.234196
 10
7.743170
 20
201.629700
 30
0.0
 10
7.410826
 20
201.818158
 30
0.0
 10
6.740435
 20
202.198309
 30
0.0
 10
5.608386
 20
202.525188
 30
0.0
 10
3.748258
 20
202.713382
 30
0.0
 10
1.184463
 20
202.023712
 30
0.0
 10
-1.173432
 20
199.665833
 30
0.0
 10
-1.882107
 20
197.028654
 30
0.0
 10
-1.644236
 20
195.025879
 30
0.0
 10
-1.191337
 20
193.704319
 30
0.0
 10
-0.670674
 20
192.956827
 30
0.0
 10
-0.412460
 20
192.586120
 30
0.0
 11
7.743170
 21
201.629700
 31
0.0
 11
6.727733
 21
202.154536
 31
0.0
 11
5.613862
 21
202.487838
 31
0.0
 11
4.423009
 21
202.604515
 31
0.0
 11
1.304706
 21
201.761482
 31
0.0
 11
-0.911004
 21
199.545772
 31
0.0
 11
-1.754037
 21
196.427470
 31
0.0
 11
-1.592246
 21
195.021036
 31
0.0
 11
-1.132326
 21
193.728228
 31
0.0
 11
-0.412460
 21
192.586120
 31
0.0
  0
SPLINE
  5
181
100
AcDbEntity
  8
0
 62
7
100
AcDbSpline
 70
0
 71
3
 72
16
 73
12
 74
10
 40
0.000000
 40
0.000000
 40
0.000000
 40
0.000000
 40
1.664678
 40
3.349917
 40
5.094647
 40
8.324897
 40
11.458384
 40
14.688635
 40
16.274223
 40
17.807167
 40
19.318269
 40
19.318269
 40
19.318269
 40
19.318269
 10
-0.412460
 20
192.586120
 30
0.0
 10
-0.792858
 20
192.177582
 30
0.0
 10
-1.558352
 20
191.355460
 30
0.0
 10
-2.244512
 20
189.766457
 30
0.0
 10
-2.567846
 20
187.549250
 30
0.0
 10
-1.830041
 20
184.802418
 30
0.0
 10
0.528661
 20
182.443235
 30
0.0
 10
3.222474
 20
181.720654
 30
0.0
 10
5.335499
 20
181.999158
 30
0.0
 10
6.798600
 20
182.562845
 30
0.0
 10
7.591070
 20
183.204641
 30
0.0
 10
7.984461
 20
183.523237
 30
0.0
 11
-0.412460
 21
192.586120
 31
0.0
 11
-1.476035
 21
191.305511
 31
0.0
 11
-2.165179
 21
189.767619
 31
0.0
 11
-2.410348
 21
188.040200
 31
0.0
 11
-1.567314
 21
184.921898
 31
0.0
 11
0.648395
 21
182.706188
 31
0.0
 11
3.766698
 21
181.863155
 31
0.0
 11
5.339481
 21
182.064260
 31
0.0
 11
6.762507
 21
182.634271
 31
0.0
 11
7.984461
 21
183.523237
 31
0.0
  0
SPLINE
  5
182
100
AcDbEntity
  8
0
 62
7
100
AcDbSpline
 70
0
 71
3
 72
13
 73
9
 74
7
 40
0.000000
 40
0.000000
 40
0.000000
 40
0.000000
 40
1.912931
 40
3.916028
 40
6.009765
 40
7.931259
 40
9.774388
 40
11.543914
 40
11.543914
 40
11.543914
 40
11.543914
 10
7.984461
 20
183.523237
 30
0.0
 10
8.570755
 20
183.269309
 30
0.0
 10
9.770978
 20
182.749486
 30
0.0
 10
11.740555
 20
182.324209
 30
0.0
 10
13.746960
 20
182.171293
 30
0.0
 10
15.700097
 20
182.308718
 30
0.0
 10
17.517739
 20
182.672455
 30
0.0
 10
18.640208
 20
183.113951
 30
0.0
 10
19.190007
 20
183.330202
 30
0.0
 11
7.984461
 21
183.523237
 31
0.0
 11
9.763190
 21
182.819370
 31
0.0
 11
11.716386
 21
182.375044
 31
0.0
 11
13.804395
 21
182.220267
 31
0.0
 11
15.721366
 21
182.352010
 31
0.0
 11
17.525235
 21
182.730405
 31
0.0
 11
19.190007
 21
183.330202
 31
0.0
  0
SPLINE
  5
183
100
AcDbEntity
  8
0
 62
7
100
AcDbSpline
 70
0
 71
3
 72
16
 73
12
 74
10
 40
0.000000
 40
0.000000
 40
0.000000
 40
0.000000
 40
1.412770
 40
2.845581
 40
4.327129
 40
7.559798
 40
10.696574
 40
13.927479
 40
15.391280
 40
16.808843
 40
18.205361
 40
18.205361
 40
18.205361
 40
18.205361
 10
19.190007
 20
183.330202
 30
0.0
 10
19.569799
 20
183.048367
 30
0.0
 10
20.334769
 20
182.480699
 30
0.0
 10
21.710171
 20
181.982994
 30
0.0
 10
23.756170
 20
181.729254
 30
0.0
 10
26.416653
 20
182.444145
 30
0.0
 10
28.779275
 20
184.800573
 30
0.0
 10
29.496211
 20
187.454828
 30
0.0
 10
29.244419
 20
189.489195
 30
0.0
 10
28.755777
 20
190.849527
 30
0.0
 10
28.200366
 20
191.610218
 30
0.0
 10
27.924737
 20
191.987719
 30
0.0
 11
19.190007
 21
183.330202
 31
0.0
 11
20.363771
 21
182.543946
 31
0.0
 11
21.705237
 21
182.040545
 31
0.0
 11
23.176128
 21
181.863155
 31
0.0
 11
26.296936
 21
182.706188
 31
0.0
 11
28.517296
 21
184.921898
 31
0.0
 11
29.362832
 21
188.040200
 31
0.0
 11
29.188205
 21
189.493548
 31
0.0
 11
28.694002
 21
190.822174
 31
0.0
 11
27.924737
 21
191.987719
 31
0.0
  0
SPLINE
  5
184
100
AcDbEntity
  8
0
 62
7
100
AcDbSpline
 70
0
 71
3
 72
16
 73
12
 74
10
 40
0.000000
 40
0.000000
 40
0.000000
 40
0.000000
 40
1.611290
 40
3.245034
 40
4.935447
 40
8.165698
 40
11.299185
 40
14.529438
 40
15.814137
 40
17.060599
 40
18.287055
 40
18.287055
 40
18.287055
 40
18.287055
 10
27.924737
 20
191.987719
 30
0.0
 10
28.282802
 20
192.392151
 30
0.0
 10
29.003922
 20
193.206651
 30
0.0
 10
29.642692
 20
194.754946
 30
0.0
 10
29.949058
 20
196.936506
 30
0.0
 10
29.216969
 20
199.665517
 30
0.0
 10
26.858427
 20
202.023800
 30
0.0
 10
24.265316
 20
202.721418
 30
0.0
 10
22.347891
 20
202.513108
 30
0.0
 10
21.139525
 20
202.135813
 30
0.0
 10
20.436352
 20
201.700715
 30
0.0
 10
20.087609
 20
201.484926
 30
0.0
 11
27.924737
 21
191.987719
 31
0.0
 11
28.924688
 21
193.251188
 31
0.0
 11
29.568968
 21
194.752528
 31
0.0
 11
29.797155
 21
196.427470
 31
0.0
 11
28.954122
 21
199.545772
 31
0.0
 11
26.738411
 21
201.761482
 31
0.0
 11
23.620106
 21
202.604515
 31
0.0
 11
22.342486
 21
202.469830
 31
0.0
 11
21.156481
 21
202.086346
 31
0.0
 11
20.087609
 21
201.484926
 31
0.0
  0
LWPOLYLINE
  5
185
100
AcDbEntity
  8
0
 62
1
100
AcDbPolyline
 90
2
 70
0
 10
0.995166
 20
189.942737
 30
0.0
 10
0.995166
 20
189.942737
 30
0.0
  0
SPLINE
  5
186
100
AcDbEntity
  8
0
 62
7
100
AcDbSpline
 70
0
 71
3
 72
10
 73
6
 74
4
 40
0.000000
 40
0.000000
 40
0.000000
 40
0.000000
 40
3.155660
 40
6.229542
 40
9.397267
 40
9.397267
 40
9.397267
 40
9.397267
 10
20.087609
 20
201.484926
 30
0.0
 10
19.889312
 20
202.535715
 30
0.0
 10
19.497857
 20
204.610064
 30
0.0
 10
17.062978
 20
206.972917
 30
0.0
 10
14.971849
 20
207.295547
 30
0.0
 10
13.910564
 20
207.459288
 30
0.0
 11
20.087609
 21
201.484926
 31
0.0
 11
19.178978
 21
204.506941
 31
0.0
 11
16.972355
 21
206.646933
 31
0.0
 11
13.910564
 21
207.459288
 31
0.0
  0
LWPOLYLINE
  5
187
100
AcDbEntity
  8
0
 62
7
100
AcDbPolyline
 90
2
 70
0
 10
13.910564
 20
207.459288
 30
0.0
 10
13.910564
 20
207.459288
 30
0.0
  0
SPLINE
  5
188
100
AcDbEntity
  8
0
 62
1
100
AcDbSpline
 70
0
 71
3
 72
16
 73
12
 74
10
 40
0.000000
 40
0.000000
 40
0.000000
 40
0.000000
 40
6.465299
 40
12.736503
 40
19.195778
 40
25.655044
 40
31.926234
 40
38.391543
 40
40.354287
 40
42.265259
 40
44.144558
 40
44.144558
 40
44.144558
 40
44.144558
 10
1.398340
 20
217.358610
 30
0.0
 10
1.737831
 20
219.538376
 30
0.0
 10
2.406621
 20
223.832468
 30
0.0
 10
7.323612
 20
228.561778
 30
0.0
 10
13.740548
 20
230.316365
 30
0.0
 10
20.224315
 20
228.559688
 30
0.0
 10
24.944637
 20
223.840689
 30
0.0
 10
26.281550
 20
218.854143
 30
0.0
 10
26.000654
 20
215.413270
 30
0.0
 10
25.566761
 20
213.532627
 30
0.0
 10
25.047694
 20
212.378120
 30
0.0
 10
24.790329
 20
211.805691
 30
0.0
 11
1.398340
 21
217.358610
 31
0.0
 11
3.085142
 21
223.599988
 31
0.0
 11
7.517156
 21
228.036793
 31
0.0
 11
13.751800
 21
229.725419
 31
0.0
 11
19.986436
 21
228.036800
 31
0.0
 11
24.418437
 21
223.600001
 31
0.0
 11
26.105231
 21
217.358610
 31
0.0
 11
25.951262
 21
215.401915
 31
0.0
 11
25.505092
 21
213.543758
 31
0.0
 11
24.790329
 21
211.805691
 31
0.0
  0
LWPOLYLINE
  5
189
100
AcDbEntity
  8
0
 62
1
100
AcDbPolyline
 90
2
 70
0
 10
24.790329
 20
211.805691
 30
0.0
 10
2.724305
 20
211.805691
 30
0.0
  0
SPLINE
  5
18a
100
AcDbEntity
  8
0
 62
1
100
AcDbSpline
 70
0
 71
3
 72
10
 73
6
 74
4
 40
0.000000
 40
0.000000
 40
0.000000
 40
0.000000
 40
1.880520
 40
3.792491
 40
5.755635
 40
5.755635
 40
5.755635
 40
5.755635
 10
2.724305
 20
211.805691
 30
0.0
 10
2.467276
 20
212.378224
 30
0.0
 10
1.948920
 20
213.532866
 30
0.0
 10
1.490876
 20
215.411843
 30
0.0
 10
1.429456
 20
216.704000
 30
0.0
 10
1.398340
 20
217.358610
 30
0.0
 11
2.724305
 21
211.805691
 31
0.0
 11
2.006460
 21
213.543808
 31
0.0
 11
1.555071
 21
215.401733
 31
0.0
 11
1.398340
 21
217.358610
 31
0.0
  0
SPLINE
  5
18b
100
AcDbEntity
  8
0
 62
7
100
AcDbSpline
 70
0
 71
3
 72
10
 73
6
 74
4
 40
0.000000
 40
0.000000
 40
0.000000
 40
0.000000
 40
3.123182
 40
6.151943
 40
9.255206
 40
9.255206
 40
9.255206
 40
9.255206
 10
14.313738
 20
234.875162
 30
0.0
 10
13.267498
 20
234.716149
 30
0.0
 10
11.206649
 20
234.402930
 30
0.0
 10
8.789447
 20
232.106189
 30
0.0
 10
8.362441
 20
230.074009
 30
0.0
 10
8.146344
 20
229.045574
 30
0.0
 11
14.313738
 21
234.875162
 31
0.0
 11
11.292064
 21
234.085383
 31
0.0
 11
9.095440
 21
232.000140
 31
0.0
 11
8.146344
 21
229.045574
 31
0.0
  0
SPLINE
  5
18c
100
AcDbEntity
  8
0
 62
7
100
AcDbSpline
 70
0
 71
3
 72
16
 73
12
 74
10
 40
0.000000
 40
0.000000
 40
0.000000
 40
0.000000
 40
1.143051
 40
2.305719
 40
3.502275
 40
6.732525
 40
9.866012
 40
13.096263
 40
14.511971
 40
15.884152
 40
17.234196
 40
17.234196
 40
17.234196
 40
17.234196
 10
8.146344
 20
229.045574
 30
0.0
 10
7.814000
 20
229.234032
 30
0.0
 10
7.143609
 20
229.614183
 30
0.0
 10
6.011560
 20
229.941061
 30
0.0
 10
4.151432
 20
230.129256
 30
0.0
 10
1.587638
 20
229.439586
 30
0.0
 10
-0.770258
 20
227.081706
 30
0.0
 10
-1.478933
 20
224.444528
 30
0.0
 10
-1.241061
 20
222.441753
 30
0.0
 10
-0.788163
 20
221.120193
 30
0.0
 10
-0.267500
 20
220.372701
 30
0.0
 10
-0.009286
 20
220.001994
 30
0.0
 11
8.146344
 21
229.045574
 31
0.0
 11
7.130907
 21
229.570410
 31
0.0
 11
6.017036
 21
229.903712
 31
0.0
 11
4.826183
 21
230.020389
 31
0.0
 11
1.707880
 21
229.177356
 31
0.0
 11
-0.507830
 21
226.961646
 31
0.0
 11
-1.350863
 21
223.843343
 31
0.0
 11
-1.189072
 21
222.436910
 31
0.0
 11
-0.729152
 21
221.144102
 31
0.0
 11
-0.009286
 21
220.001994
 31
0.0
  0
SPLINE
  5
18d
100
AcDbEntity
  8
0
 62
7
100
AcDbSpline
 70
0
 71
3
 72
16
 73
12
 74
10
 40
0.000000
 40
0.000000
 40
0.000000
 40
0.000000
 40
1.664678
 40
3.349917
 40
5.094647
 40
8.324897
 40
11.458384
 40
14.688635
 40
16.274223
 40
17.807167
 40
19.318269
 40
19.318269
 40
19.318269
 40
19.318269
 10
-0.009286
 20
220.001994
 30
0.0
 10
-0.389683
 20
219.593456
 30
0.0
 10
-1.155177
 20
218.771333
 30
0.0
 10
-1.841338
 20
217.182331
 30
0.0
 10
-2.164672
 20
214.965124
 30
0.0
 10
-1.426867
 20
212.218292
 30
0.0
 10
0.931835
 20
209.859108
 30
0.0
 10
3.625648
 20
209.136528
 30
0.0
 10
5.738673
 20
209.415032
 30
0.0
 10
7.201774
 20
209.978718
 30
0.0
 10
7.994244
 20
210.620515
 30
0.0
 10
8.387636
 20
210.939110
 30
0.0
 11
-0.009286
 21
220.001994
 31
0.0
 11
-1.072861
 21
218.721385
 31
0.0
 11
-1.762005
 21
217.183492
 31
0.0
 11
-2.007173
 21
215.456074
 31
0.0
 11
-1.164140
 21
212.337771
 31
0.0
 11
1.051570
 21
210.122061
 31
0.0
 11
4.169873
 21
209.279028
 31
0.0
 11
5.742655
 21
209.480133
 31
0.0
 11
7.165682
 21
210.050145
 31
0.0
 11
8.387636
 21
210.939110
 31
0.0
  0
SPLINE
  5
18e
100
AcDbEntity
  8
0
 62
7
100
AcDbSpline
 70
0
 71
3
 72
13
 73
9
 74
7
 40
0.000000
 40
0.000000
 40
0.000000
 40
0.000000
 40
1.912931
 40
3.916028
 40
6.009765
 40
7.931261
 40
9.774390
 40
11.543917
 40
11.543917
 40
11.543917
 40
11.543917
 10
8.387636
 20
210.939110
 30
0.0
 10
8.973930
 20
210.685183
 30
0.0
 10
10.174152
 20
210.165360
 30
0.0
 10
12.143729
 20
209.740083
 30
0.0
 10
14.150135
 20
209.587166
 30
0.0
 10
16.103273
 20
209.724592
 30
0.0
 10
17.920916
 20
210.088329
 30
0.0
 10
19.043385
 20
210.529825
 30
0.0
 10
19.593184
 20
210.746076
 30
0.0
 11
8.387636
 21
210.939110
 31
0.0
 11
10.166364
 21
210.235244
 31
0.0
 11
12.119560
 21
209.790918
 31
0.0
 11
14.207569
 21
209.636141
 31
0.0
 11
16.124543
 21
209.767884
 31
0.0
 11
17.928412
 21
210.146279
 31
0.0
 11
19.593184
 21
210.746076
 31
0.0
  0
SPLINE
  5
18f
100
AcDbEntity
  8
0
 62
7
100
AcDbSpline
 70
0
 71
3
 72
16
 73
12
 74
10
 40
0.000000
 40
0.000000
 40
0.000000
 40
0.000000
 40
1.412770
 40
2.845581
 40
4.327129
 40
7.559796
 40
10.696572
 40
13.927477
 40
15.391277
 40
16.808840
 40
18.205358
 40
18.205358
 40
18.205358
 40
18.205358
 10
19.593184
 20
210.746076
 30
0.0
 10
19.972976
 20
210.464241
 30
0.0
 10
20.737946
 20
209.896572
 30
0.0
 10
22.113348
 20
209.398868
 30
0.0
 10
24.159347
 20
209.145128
 30
0.0
 10
26.819829
 20
209.860019
 30
0.0
 10
29.182449
 20
212.216447
 30
0.0
 10
29.899385
 20
214.870701
 30
0.0
 10
29.647593
 20
216.905069
 30
0.0
 10
29.158952
 20
218.265400
 30
0.0
 10
28.603540
 20
219.026091
 30
0.0
 10
28.327912
 20
219.403593
 30
0.0
 11
19.593184
 21
210.746076
 31
0.0
 11
20.766948
 21
209.959820
 31
0.0
 11
22.108414
 21
209.456419
 31
0.0
 11
23.579305
 21
209.279028
 31
0.0
 11
26.700111
 21
210.122061
 31
0.0
 11
28.920470
 21
212.337771
 31
0.0
 11
29.766006
 21
215.456074
 31
0.0
 11
29.591380
 21
216.909422
 31
0.0
 11
29.097177
 21
218.238048
 31
0.0
 11
28.327912
 21
219.403593
 31
0.0
  0
SPLINE
  5
190
100
AcDbEntity
  8
0
 62
7
100
AcDbSpline
 70
0
 71
3
 72
16
 73
12
 74
10
 40
0.000000
 40
0.000000
 40
0.000000
 40
0.000000
 40
1.611289
 40
3.245034
 40
4.935447
 40
8.165698
 40
11.299185
 40
14.529435
 40
15.814135
 40
17.060597
 40
18.287052
 40
18.287052
 40
18.287052
 40
18.287052
 10
28.327912
 20
219.403593
 30
0.0
 10
28.685977
 20
219.808025
 30
0.0
 10
29.407097
 20
220.622525
 30
0.0
 10
30.045866
 20
222.170820
 30
0.0
 10
30.352232
 20
224.352379
 30
0.0
 10
29.620143
 20
227.081390
 30
0.0
 10
27.261602
 20
229.439674
 30
0.0
 10
24.668493
 20
230.137292
 30
0.0
 10
22.751068
 20
229.928982
 30
0.0
 10
21.542702
 20
229.551687
 30
0.0
 10
20.839529
 20
229.116589
 30
0.0
 10
20.490786
 20
228.900799
 30
0.0
 11
28.327912
 21
219.403593
 31
0.0
 11
29.327862
 21
220.667061
 31
0.0
 11
29.972142
 21
222.168402
 31
0.0
 11
30.200329
 21
223.843343
 31
0.0
 11
29.357296
 21
226.961646
 31
0.0
 11
27.141586
 21
229.177356
 31
0.0
 11
24.023283
 21
230.020389
 31
0.0
 11
22.745663
 21
229.885704
 31
0.0
 11
21.559658
 21
229.502220
 31
0.0
 11
20.490786
 21
228.900799
 31
0.0
  0
LWPOLYLINE
  5
191
100
AcDbEntity
  8
0
 62
1
100
AcDbPolyline
 90
2
 70
0
 10
1.398340
 20
217.358610
 30
0.0
 10
1.398340
 20
217.358610
 30
0.0
  0
SPLINE
  5
192
100
AcDbEntity
  8
0
 62
7
100
AcDbSpline
 70
0
 71
3
 72
10
 73
6
 74
4
 40
0.000000
 40
0.000000
 40
0.000000
 40
0.000000
 40
3.155660
 40
6.229542
 40
9.397270
 40
9.397270
 40
9.397270
 40
9.397270
 10
20.490786
 20
228.900799
 30
0.0
 10
20.292489
 20
229.951589
 30
0.0
 10
19.901034
 20
232.025938
 30
0.0
 10
17.466154
 20
234.388792
 30
0.0
 10
15.375024
 20
234.711421
 30
0.0
 10
14.313738
 20
234.875162
 30
0.0
 11
20.490786
 21
228.900799
 31
0.0
 11
19.582155
 21
231.922815
 31
0.0
 11
17.375531
 21
234.062807
 31
0.0
 11
14.313738
 21
234.875162
 31
0.0
  0
LWPOLYLINE
  5
193
100
AcDbEntity
  8
0
 62
7
100
AcDbPolyline
 90
2
 70
0
 10
14.313738
 20
234.875162
 30
0.0
 10
14.313738
 20
234.875162
 30
0.0
  0
SPLINE
  5
194
100
AcDbEntity
  8
0
 62
1
100
AcDbSpline
 70
0
 71
3
 72
16
 73
12
 74
10
 40
0.000000
 40
0.000000
 40
0.000000
 40
0.000000
 40
6.465299
 40
12.736503
 40
19.195778
 40
25.655042
 40
31.926231
 40
38.391541
 40
40.354285
 40
42.265256
 40
44.144556
 40
44.144556
 40
44.144556
 40
44.144556
 10
2.607866
 20
243.968133
 30
0.0
 10
2.947357
 20
246.147899
 30
0.0
 10
3.616147
 20
250.441991
 30
0.0
 10
8.533137
 20
255.171301
 30
0.0
 10
14.950073
 20
256.925888
 30
0.0
 10
21.433838
 20
255.169210
 30
0.0
 10
26.154159
 20
250.450211
 30
0.0
 10
27.491072
 20
245.463666
 30
0.0
 10
27.210177
 20
242.022793
 30
0.0
 10
26.776283
 20
240.142150
 30
0.0
 10
26.257216
 20
238.987643
 30
0.0
 10
25.999852
 20
238.415213
 30
0.0
 11
2.607866
 21
243.968133
 31
0.0
 11
4.294667
 21
250.209511
 31
0.0
 11
8.726682
 21
254.646316
 31
0.0
 11
14.961325
 21
256.334941
 31
0.0
 11
21.195959
 21
254.646322
 31
0.0
 11
25.627959
 21
250.209523
 31
0.0
 11
27.314753
 21
243.968133
 31
0.0
 11
27.160784
 21
242.011437
 31
0.0
 11
26.714615
 21
240.153281
 31
0.0
 11
25.999852
 21
238.415213
 31
0.0
  0
LWPOLYLINE
  5
195
100
AcDbEntity
  8
0
 62
1
100
AcDbPolyline
 90
2
 70
0
 10
25.999852
 20
238.415213
 30
0.0
 10
3.933830
 20
238.415213
 30
0.0
  0
SPLINE
  5
196
100
AcDbEntity
  8
0
 62
1
100
AcDbSpline
 70
0
 71
3
 72
10
 73
6
 74
4
 40
0.000000
 40
0.000000
 40
0.000000
 40
0.000000
 40
1.880520
 40
3.792491
 40
5.755635
 40
5.755635
 40
5.755635
 40
5.755635
 10
3.933830
 20
238.415213
 30
0.0
 10
3.676802
 20
238.987747
 30
0.0
 10
3.158445
 20
240.142389
 30
0.0
 10
2.700402
 20
242.021366
 30
0.0
 10
2.638981
 20
243.313523
 30
0.0
 10
2.607866
 20
243.968133
 30
0.0
 11
3.933830
 21
238.415213
 31
0.0
 11
3.215986
 21
240.153331
 31
0.0
 11
2.764596
 21
242.011255
 31
0.0
 11
2.607866
 21
243.968133
 31
0.0
  0
SPLINE
  5
197
100
AcDbEntity
  8
0
 62
7
100
AcDbSpline
 70
0
 71
3
 72
10
 73
6
 74
4
 40
0.000000
 40
0.000000
 40
0.000000
 40
0.000000
 40
3.123182
 40
6.151944
 40
9.255207
 40
9.255207
 40
9.255207
 40
9.255207
 10
15.523263
 20
261.484684
 30
0.0
 10
14.477024
 20
261.325671
 30
0.0
 10
12.416174
 20
261.012453
 30
0.0
 10
9.998970
 20
258.715712
 30
0.0
 10
9.571966
 20
256.683532
 30
0.0
 10
9.355870
 20
255.655096
 30
0.0
 11
15.523263
 21
261.484684
 31
0.0
 11
12.501589
 21
260.694905
 31
0.0
 11
10.304964
 21
258.609663
 31
0.0
 11
9.355870
 21
255.655096
 31
0.0
  0
SPLINE
  5
198
100
AcDbEntity
  8
0
 62
7
100
AcDbSpline
 70
0
 71
3
 72
16
 73
12
 74
10
 40
0.000000
 40
0.000000
 40
0.000000
 40
0.000000
 40
1.143051
 40
2.305719
 40
3.502275
 40
6.732525
 40
9.866012
 40
13.096263
 40
14.511971
 40
15.884152
 40
17.234196
 40
17.234196
 40
17.234196
 40
17.234196
 10
9.355870
 20
255.655096
 30
0.0
 10
9.023526
 20
255.843555
 30
0.0
 10
8.353134
 20
256.223706
 30
0.0
 10
7.221086
 20
256.550584
 30
0.0
 10
5.360957
 20
256.738778
 30
0.0
 10
2.797163
 20
256.049109
 30
0.0
 10
0.439267
 20
253.691229
 30
0.0
 10
-0.269408
 20
251.054051
 30
0.0
 10
-0.031536
 20
249.051276
 30
0.0
 10
0.421363
 20
247.729716
 30
0.0
 10
0.942025
 20
246.982224
 30
0.0
 10
1.200240
 20
246.611517
 30
0.0
 11
9.355870
 21
255.655096
 31
0.0
 11
8.340432
 21
256.179932
 31
0.0
 11
7.226562
 21
256.513235
 31
0.0
 11
6.035709
 21
256.629912
 31
0.0
 11
2.917406
 21
255.786879
 31
0.0
 11
0.701696
 21
253.571169
 31
0.0
 11
-0.141337
 21
250.452866
 31
0.0
 11
0.020454
 21
249.046433
 31
0.0
 11
0.480373
 21
247.753624
 31
0.0
 11
1.200240
 21
246.611517
 31
0.0
  0
SPLINE
  5
199
100
AcDbEntity
  8
0
 62
7
100
AcDbSpline
 70
0
 71
3
 72
16
 73
12
 74
10
 40
0.000000
 40
0.000000
 40
0.000000
 40
0.000000
 40
1.664678
 40
3.349917
 40
5.094647
 40
8.324897
 40
11.458383
 40
14.688633
 40
16.274221
 40
17.807167
 40
19.318270
 40
19.318270
 40
19.318270
 40
19.318270
 10
1.200240
 20
246.611517
 30
0.0
 10
0.819842
 20
246.202978
 30
0.0
 10
0.054348
 20
245.380856
 30
0.0
 10
-0.631812
 20
243.791854
 30
0.0
 10
-0.955146
 20
241.574647
 30
0.0
 10
-0.217342
 20
238.827815
 30
0.0
 10
2.141358
 20
236.468631
 30
0.0
 10
4.835171
 20
235.746050
 30
0.0
 10
6.948197
 20
236.024555
 30
0.0
 10
8.411299
 20
236.588241
 30
0.0
 10
9.203769
 20
237.230037
 30
0.0
 10
9.597161
 20
237.548633
 30
0.0
 11
1.200240
 21
246.611517
 31
0.0
 11
0.136664
 21
245.330907
 31
0.0
 11
-0.552479
 21
243.793015
 31
0.0
 11
-0.797648
 21
242.065597
 31
0.0
 11
0.045384
 21
238.947294
 31
0.0
 11
2.261093
 21
236.731584
 31
0.0
 11
5.379395
 21
235.888551
 31
0.0
 11
6.952179
 21
236.089656
 31
0.0
 11
8.375206
 21
236.659668
 31
0.0
 11
9.597161
 21
237.548633
 31
0.0
  0
SPLINE
  5
19a
100
AcDbEntity
  8
0
 62
7
100
AcDbSpline
 70
0
 71
3
 72
13
 73
9
 74
7
 40
0.000000
 40
0.000000
 40
0.000000
 40
0.000000
 40
1.912930
 40
3.916028
 40
6.009765
 40
7.931259
 40
9.774388
 40
11.543914
 40
11.543914
 40
11.543914
 40
11.543914
 10
9.597161
 20
237.548633
 30
0.0
 10
10.183455
 20
237.294706
 30
0.0
 10
11.383677
 20
236.774882
 30
0.0
 10
13.353254
 20
236.349606
 30
0.0
 10
15.359659
 20
236.196689
 30
0.0
 10
17.312796
 20
236.334114
 30
0.0
 10
19.130439
 20
236.697851
 30
0.0
 10
20.252907
 20
237.139348
 30
0.0
 10
20.802707
 20
237.355599
 30
0.0
 11
9.597161
 21
237.548633
 31
0.0
 11
11.375889
 21
236.844766
 31
0.0
 11
13.329085
 21
236.400441
 31
0.0
 11
15.417094
 21
236.245664
 31
0.0
 11
17.334066
 21
236.377407
 31
0.0
 11
19.137935
 21
236.755802
 31
0.0
 11
20.802707
 21
237.355599
 31
0.0
  0
SPLINE
  5
19b
100
AcDbEntity
  8
0
 62
7
100
AcDbSpline
 70
0
 71
3
 72
16
 73
12
 74
10
 40
0.000000
 40
0.000000
 40
0.000000
 40
0.000000
 40
1.412770
 40
2.845581
 40
4.327129
 40
7.559796
 40
10.696572
 40
13.927477
 40
15.391277
 40
16.808840
 40
18.205358
 40
18.205358
 40
18.205358
 40
18.205358
 10
20.802707
 20
237.355599
 30
0.0
 10
21.182499
 20
237.073763
 30
0.0
 10
21.947469
 20
236.506095
 30
0.0
 10
23.322871
 20
236.008390
 30
0.0
 10
25.368869
 20
235.754651
 30
0.0
 10
28.029352
 20
236.469542
 30
0.0
 10
30.391972
 20
238.825970
 30
0.0
 10
31.108907
 20
241.480224
 30
0.0
 10
30.857116
 20
243.514592
 30
0.0
 10
30.368474
 20
244.874923
 30
0.0
 10
29.813063
 20
245.635614
 30
0.0
 10
29.537434
 20
246.013115
 30
0.0
 11
20.802707
 21
237.355599
 31
0.0
 11
21.976470
 21
236.569342
 31
0.0
 11
23.317937
 21
236.065941
 31
0.0
 11
24.788828
 21
235.888551
 31
0.0
 11
27.909634
 21
236.731584
 31
0.0
 11
30.129992
 21
238.947294
 31
0.0
 11
30.975529
 21
242.065597
 31
0.0
 11
30.800902
 21
243.518944
 31
0.0
 11
30.306699
 21
244.847571
 31
0.0
 11
29.537434
 21
246.013115
 31
0.0
  0
SPLINE
  5
19c
100
AcDbEntity
  8
0
 62
7
100
AcDbSpline
 70
0
 71
3
 72
16
 73
12
 74
10
 40
0.000000
 40
0.000000
 40
0.000000
 40
0.000000
 40
1.611289
 40
3.245034
 40
4.935447
 40
8.165698
 40
11.299185
 40
14.529435
 40
15.814135
 40
17.060597
 40
18.287052
 40
18.287052
 40
18.287052
 40
18.287052
 10
29.537434
 20
246.013115
 30
0.0
 10
29.895499
 20
246.417547
 30
0.0
 10
30.616619
 20
247.232048
 30
0.0
 10
31.255389
 20
248.780342
 30
0.0
 10
31.561755
 20
250.961902
 30
0.0
 10
30.829666
 20
253.690913
 30
0.0
 10
28.471125
 20
256.049196
 30
0.0
 10
25.878016
 20
256.746814
 30
0.0
 10
23.960591
 20
256.538504
 30
0.0
 10
22.752225
 20
256.161210
 30
0.0
 10
22.049051
 20
255.726111
 30
0.0
 10
21.700309
 20
255.510322
 30
0.0
 11
29.537434
 21
246.013115
 31
0.0
 11
30.537384
 21
247.276584
 31
0.0
 11
31.181664
 21
248.777925
 31
0.0
 11
31.409852
 21
250.452866
 31
0.0
 11
30.566819
 21
253.571169
 31
0.0
 11
28.351109
 21
255.786879
 31
0.0
 11
25.232806
 21
256.629912
 31
0.0
 11
23.955186
 21
256.495226
 31
0.0
 11
22.769181
 21
256.111743
 31
0.0
 11
21.700309
 21
255.510322
 31
0.0
  0
LWPOLYLINE
  5
19d
100
AcDbEntity
  8
0
 62
1
100
AcDbPolyline
 90
2
 70
0
 10
2.607866
 20
243.968133
 30
0.0
 10
2.607866
 20
243.968133
 30
0.0
  0
SPLINE
  5
19e
100
AcDbEntity
  8
0
 62
7
100
AcDbSpline
 70
0
 71
3
 72
10
 73
6
 74
4
 40
0.000000
 40
0.000000
 40
0.000000
 40
0.000000
 40
3.155660
 40
6.229542
 40
9.397267
 40
9.397267
 40
9.397267
 40
9.397267
 10
21.700309
 20
255.510322
 30
0.0
 10
21.502012
 20
256.561112
 30
0.0
 10
21.110557
 20
258.635460
 30
0.0
 10
18.675678
 20
260.998314
 30
0.0
 10
16.584548
 20
261.320944
 30
0.0
 10
15.523263
 20
261.484684
 30
0.0
 11
21.700309
 21
255.510322
 31
0.0
 11
20.791678
 21
258.532338
 31
0.0
 11
18.585055
 21
260.672329
 31
0.0
 11
15.523263
 21
261.484684
 31
0.0
  0
LWPOLYLINE
  5
19f
100
AcDbEntity
  8
0
 62
7
100
AcDbPolyline
 90
2
 70
0
 10
15.523263
 20
261.484684
 30
0.0
 10
15.523263
 20
261.484684
 30
0.0
  0
SPLINE
  5
1a0
100
AcDbEntity
  8
0
 62
1
100
AcDbSpline
 70
0
 71
3
 72
16
 73
12
 74
10
 40
0.000000
 40
0.000000
 40
0.000000
 40
0.000000
 40
6.465307
 40
12.736513
 40
19.195788
 40
25.655063
 40
31.926268
 40
38.391575
 40
40.354320
 40
42.265291
 40
44.144590
 40
44.144590
 40
44.144590
 40
44.144590
 10
35.725396
 20
197.785754
 30
0.0
 10
36.064887
 20
199.965523
 30
0.0
 10
36.733676
 20
204.259618
 30
0.0
 10
41.650667
 20
208.988933
 30
0.0
 10
48.067608
 20
210.743522
 30
0.0
 10
54.551380
 20
208.986834
 30
0.0
 10
59.271709
 20
204.267834
 30
0.0
 10
60.608635
 20
199.281286
 30
0.0
 10
60.327738
 20
195.840414
 30
0.0
 10
59.893845
 20
193.959771
 30
0.0
 10
59.374778
 20
192.805264
 30
0.0
 10
59.117413
 20
192.232834
 30
0.0
 11
35.725396
 21
197.785754
 31
0.0
 11
37.412198
 21
204.027140
 31
0.0
 11
41.844212
 21
208.463948
 31
0.0
 11
48.078856
 21
210.152574
 31
0.0
 11
54.313499
 21
208.463948
 31
0.0
 11
58.745514
 21
204.027140
 31
0.0
 11
60.432315
 21
197.785754
 31
0.0
 11
60.278346
 21
195.829058
 31
0.0
 11
59.832177
 21
193.970902
 31
0.0
 11
59.117413
 21
192.232834
 31
0.0
  0
LWPOLYLINE
  5
1a1
100
AcDbEntity
  8
0
 62
1
100
AcDbPolyline
 90
2
 70
0
 10
59.117413
 20
192.232834
 30
0.0
 10
37.051361
 20
192.232834
 30
0.0
  0
SPLINE
  5
1a2
100
AcDbEntity
  8
0
 62
1
100
AcDbSpline
 70
0
 71
3
 72
10
 73
6
 74
4
 40
0.000000
 40
0.000000
 40
0.000000
 40
0.000000
 40
1.880520
 40
3.792491
 40
5.755635
 40
5.755635
 40
5.755635
 40
5.755635
 10
37.051361
 20
192.232834
 30
0.0
 10
36.794332
 20
192.805368
 30
0.0
 10
36.275976
 20
193.960010
 30
0.0
 10
35.817932
 20
195.838987
 30
0.0
 10
35.756512
 20
197.131144
 30
0.0
 10
35.725396
 20
197.785754
 30
0.0
 11
37.051361
 21
192.232834
 31
0.0
 11
36.333516
 21
193.970952
 31
0.0
 11
35.882127
 21
195.828877
 31
0.0
 11
35.725396
 21
197.785754
 31
0.0
  0
LWPOLYLINE
  5
1a3
100
AcDbEntity
  8
0
 62
1
100
AcDbPolyline
 90
2
 70
0
 10
35.725396
 20
197.785754
 30
0.0
 10
35.725396
 20
197.785754
 30
0.0
  0
SPLINE
  5
1a4
100
AcDbEntity
  8
0
 62
7
100
AcDbSpline
 70
0
 71
3
 72
13
 73
9
 74
7
 40
0.000000
 40
0.000000
 40
0.000000
 40
0.000000
 40
8.346868
 40
16.445504
 40
24.792376
 40
29.230811
 40
33.519421
 40
37.751572
 40
37.751572
 40
37.751572
 40
37.751572
 10
48.366420
 20
213.687283
 30
0.0
 10
45.552331
 20
213.248048
 30
0.0
 10
40.007843
 20
212.382640
 30
0.0
 10
33.901760
 20
206.036242
 30
0.0
 10
32.002527
 20
199.023445
 30
0.0
 10
32.818974
 20
193.331066
 30
0.0
 10
34.536501
 20
189.281682
 30
0.0
 10
36.458192
 20
187.167691
 30
0.0
 10
37.412670
 20
186.117700
 30
0.0
 11
48.366420
 21
213.687283
 31
0.0
 11
40.309051
 21
211.508061
 31
0.0
 11
34.582450
 21
205.781462
 31
0.0
 11
32.403226
 21
197.724089
 31
0.0
 11
33.017367
 21
193.328348
 31
0.0
 11
34.744719
 21
189.402990
 31
0.0
 11
37.412670
 21
186.117700
 31
0.0
  0
LWPOLYLINE
  5
1a5
100
AcDbEntity
  8
0
 62
7
100
AcDbPolyline
 90
2
 70
0
 10
37.412670
 20
186.117700
 30
0.0
 10
59.320170
 20
186.117700
 30
0.0
  0
SPLINE
  5
1a6
100
AcDbEntity
  8
0
 62
7
100
AcDbSpline
 70
0
 71
3
 72
13
 73
9
 74
7
 40
0.000000
 40
0.000000
 40
0.000000
 40
0.000000
 40
4.232803
 40
8.521205
 40
12.959568
 40
21.306442
 40
29.405082
 40
37.751938
 40
37.751938
 40
37.751938
 40
37.751938
 10
59.320170
 20
186.117700
 30
0.0
 10
60.275100
 20
187.167616
 30
0.0
 10
62.197503
 20
189.281240
 30
0.0
 10
63.914355
 20
193.331192
 30
0.0
 10
64.730051
 20
199.023465
 30
0.0
 10
62.831155
 20
206.036245
 30
0.0
 10
56.724968
 20
212.382635
 30
0.0
 10
51.180498
 20
213.248046
 30
0.0
 10
48.366420
 20
213.687283
 30
0.0
 11
59.320170
 21
186.117700
 31
0.0
 11
61.989157
 21
189.402990
 31
0.0
 11
63.715991
 21
193.328348
 31
0.0
 11
64.329615
 21
197.724089
 31
0.0
 11
62.150384
 21
205.781462
 31
0.0
 11
56.423777
 21
211.508061
 31
0.0
 11
48.366420
 21
213.687283
 31
0.0
  0
LWPOLYLINE
  5
1a7
100
AcDbEntity
  8
0
 62
7
100
AcDbPolyline
 90
2
 70
0
 10
48.366420
 20
213.687283
 30
0.0
 10
48.366420
 20
213.687283
 30
0.0
  0
SPLINE
  5
1a8
100
AcDbEntity
  8
0
 62
1
100
AcDbSpline
 70
0
 71
3
 72
16
 73
12
 74
10
 40
0.000000
 40
0.000000
 40
0.000000
 40
0.000000
 40
6.465307
 40
12.736513
 40
19.195788
 40
25.655063
 40
31.926268
 40
38.391575
 40
40.354320
 40
42.265291
 40
44.144590
 40
44.144590
 40
44.144590
 40
44.144590
 10
35.725396
 20
227.217499
 30
0.0
 10
36.064887
 20
229.397267
 30
0.0
 10
36.733676
 20
233.691363
 30
0.0
 10
41.650667
 20
238.420678
 30
0.0
 10
48.067608
 20
240.175267
 30
0.0
 10
54.551380
 20
238.418579
 30
0.0
 10
59.271709
 20
233.699579
 30
0.0
 10
60.608635
 20
228.713031
 30
0.0
 10
60.327738
 20
225.272159
 30
0.0
 10
59.893845
 20
223.391516
 30
0.0
 10
59.374778
 20
222.237009
 30
0.0
 10
59.117413
 20
221.664579
 30
0.0
 11
35.725396
 21
227.217499
 31
0.0
 11
37.412198
 21
233.458885
 31
0.0
 11
41.844212
 21
237.895693
 31
0.0
 11
48.078856
 21
239.584319
 31
0.0
 11
54.313499
 21
237.895693
 31
0.0
 11
58.745514
 21
233.458885
 31
0.0
 11
60.432315
 21
227.217499
 31
0.0
 11
60.278346
 21
225.260803
 31
0.0
 11
59.832177
 21
223.402647
 31
0.0
 11
59.117413
 21
221.664579
 31
0.0
  0
LWPOLYLINE
  5
1a9
100
AcDbEntity
  8
0
 62
1
100
AcDbPolyline
 90
2
 70
0
 10
59.117413
 20
221.664579
 30
0.0
 10
37.051361
 20
221.664579
 30
0.0
  0
SPLINE
  5
1aa
100
AcDbEntity
  8
0
 62
1
100
AcDbSpline
 70
0
 71
3
 72
10
 73
6
 74
4
 40
0.000000
 40
0.000000
 40
0.000000
 40
0.000000
 40
1.880520
 40
3.792491
 40
5.755635
 40
5.755635
 40
5.755635
 40
5.755635
 10
37.051361
 20
221.664579
 30
0.0
 10
36.794332
 20
222.237113
 30
0.0
 10
36.275976
 20
223.391755
 30
0.0
 10
35.817932
 20
225.270732
 30
0.0
 10
35.756512
 20
226.562889
 30
0.0
 10
35.725396
 20
227.217499
 30
0.0
 11
37.051361
 21
221.664579
 31
0.0
 11
36.333516
 21
223.402697
 31
0.0
 11
35.882127
 21
225.260621
 31
0.0
 11
35.725396
 21
227.217499
 31
0.0
  0
LWPOLYLINE
  5
1ab
100
AcDbEntity
  8
0
 62
1
100
AcDbPolyline
 90
2
 70
0
 10
35.725396
 20
227.217499
 30
0.0
 10
35.725396
 20
227.217499
 30
0.0
  0
SPLINE
  5
1ac
100
AcDbEntity
  8
0
 62
7
100
AcDbSpline
 70
0
 71
3
 72
13
 73
9
 74
7
 40
0.000000
 40
0.000000
 40
0.000000
 40
0.000000
 40
8.346868
 40
16.445504
 40
24.792376
 40
29.230811
 40
33.519421
 40
37.751572
 40
37.751572
 40
37.751572
 40
37.751572
 10
48.366420
 20
243.119028
 30
0.0
 10
45.552331
 20
242.679793
 30
0.0
 10
40.007843
 20
241.814385
 30
0.0
 10
33.901760
 20
235.467987
 30
0.0
 10
32.002527
 20
228.455190
 30
0.0
 10
32.818974
 20
222.762811
 30
0.0
 10
34.536501
 20
218.713427
 30
0.0
 10
36.458192
 20
216.599436
 30
0.0
 10
37.412670
 20
215.549445
 30
0.0
 11
48.366420
 21
243.119028
 31
0.0
 11
40.309051
 21
240.939806
 31
0.0
 11
34.582450
 21
235.213207
 31
0.0
 11
32.403226
 21
227.155834
 31
0.0
 11
33.017367
 21
222.760093
 31
0.0
 11
34.744719
 21
218.834735
 31
0.0
 11
37.412670
 21
215.549445
 31
0.0
  0
LWPOLYLINE
  5
1ad
100
AcDbEntity
  8
0
 62
7
100
AcDbPolyline
 90
2
 70
0
 10
37.412670
 20
215.549445
 30
0.0
 10
59.320170
 20
215.549445
 30
0.0
  0
SPLINE
  5
1ae
100
AcDbEntity
  8
0
 62
7
100
AcDbSpline
 70
0
 71
3
 72
13
 73
9
 74
7
 40
0.000000
 40
0.000000
 40
0.000000
 40
0.000000
 40
4.232803
 40
8.521205
 40
12.959568
 40
21.306442
 40
29.405082
 40
37.751938
 40
37.751938
 40
37.751938
 40
37.751938
 10
59.320170
 20
215.549445
 30
0.0
 10
60.275100
 20
216.599361
 30
0.0
 10
62.197503
 20
218.712984
 30
0.0
 10
63.914355
 20
222.762937
 30
0.0
 10
64.730051
 20
228.455210
 30
0.0
 10
62.831155
 20
235.467990
 30
0.0
 10
56.724968
 20
241.814379
 30
0.0
 10
51.180498
 20
242.679791
 30
0.0
 10
48.366420
 20
243.119028
 30
0.0
 11
59.320170
 21
215.549445
 31
0.0
 11
61.989157
 21
218.834735
 31
0.0
 11
63.715991
 21
222.760093
 31
0.0
 11
64.329615
 21
227.155834
 31
0.0
 11
62.150384
 21
235.213207
 31
0.0
 11
56.423777
 21
240.939806
 31
0.0
 11
48.366420
 21
243.119028
 31
0.0
  0
LWPOLYLINE
  5
1af
100
AcDbEntity
  8
0
 62
7
100
AcDbPolyline
 90
2
 70
0
 10
48.366420
 20
243.119028
 30
0.0
 10
48.366420
 20
243.119028
 30
0.0
  0
SPLINE
  5
1b0
100
AcDbEntity
  8
0
 62
1
100
AcDbSpline
 70
0
 71
3
 72
16
 73
12
 74
10
 40
0.000000
 40
0.000000
 40
0.000000
 40
0.000000
 40
6.465307
 40
12.736512
 40
19.195787
 40
25.655062
 40
31.926267
 40
38.391574
 40
40.354319
 40
42.265290
 40
44.144589
 40
44.144589
 40
44.144589
 40
44.144589
 10
35.725396
 20
256.649247
 30
0.0
 10
36.064887
 20
258.829015
 30
0.0
 10
36.733676
 20
263.123111
 30
0.0
 10
41.650667
 20
267.852425
 30
0.0
 10
48.067608
 20
269.607014
 30
0.0
 10
54.551380
 20
267.850326
 30
0.0
 10
59.271709
 20
263.131327
 30
0.0
 10
60.608635
 20
258.144779
 30
0.0
 10
60.327738
 20
254.703906
 30
0.0
 10
59.893845
 20
252.823263
 30
0.0
 10
59.374778
 20
251.668757
 30
0.0
 10
59.117413
 20
251.096327
 30
0.0
 11
35.725396
 21
256.649247
 31
0.0
 11
37.412198
 21
262.890632
 31
0.0
 11
41.844212
 21
267.327440
 31
0.0
 11
48.078856
 21
269.016066
 31
0.0
 11
54.313499
 21
267.327440
 31
0.0
 11
58.745514
 21
262.890632
 31
0.0
 11
60.432315
 21
256.649247
 31
0.0
 11
60.278346
 21
254.692551
 31
0.0
 11
59.832177
 21
252.834395
 31
0.0
 11
59.117413
 21
251.096327
 31
0.0
  0
LWPOLYLINE
  5
1b1
100
AcDbEntity
  8
0
 62
1
100
AcDbPolyline
 90
2
 70
0
 10
59.117413
 20
251.096327
 30
0.0
 10
37.051361
 20
251.096327
 30
0.0
  0
SPLINE
  5
1b2
100
AcDbEntity
  8
0
 62
1
100
AcDbSpline
 70
0
 71
3
 72
10
 73
6
 74
4
 40
0.000000
 40
0.000000
 40
0.000000
 40
0.000000
 40
1.880520
 40
3.792491
 40
5.755635
 40
5.755635
 40
5.755635
 40
5.755635
 10
37.051361
 20
251.096327
 30
0.0
 10
36.794332
 20
251.668860
 30
0.0
 10
36.275976
 20
252.823503
 30
0.0
 10
35.817932
 20
254.702479
 30
0.0
 10
35.756512
 20
255.994636
 30
0.0
 10
35.725396
 20
256.649247
 30
0.0
 11
37.051361
 21
251.096327
 31
0.0
 11
36.333516
 21
252.834445
 31
0.0
 11
35.882127
 21
254.692369
 31
0.0
 11
35.725396
 21
256.649247
 31
0.0
  0
LWPOLYLINE
  5
1b3
100
AcDbEntity
  8
0
 62
1
100
AcDbPolyline
 90
2
 70
0
 10
35.725396
 20
256.649247
 30
0.0
 10
35.725396
 20
256.649247
 30
0.0
  0
SPLINE
  5
1b4
100
AcDbEntity
  8
0
 62
7
100
AcDbSpline
 70
0
 71
3
 72
13
 73
9
 74
7
 40
0.000000
 40
0.000000
 40
0.000000
 40
0.000000
 40
8.346868
 40
16.445503
 40
24.792376
 40
29.230811
 40
33.519421
 40
37.751571
 40
37.751571
 40
37.751571
 40
37.751571
 10
48.366420
 20
272.550775
 30
0.0
 10
45.552331
 20
272.111539
 30
0.0
 10
40.007843
 20
271.246132
 30
0.0
 10
33.901760
 20
264.899734
 30
0.0
 10
32.002527
 20
257.886938
 30
0.0
 10
32.818974
 20
252.194559
 30
0.0
 10
34.536501
 20
248.145175
 30
0.0
 10
36.458192
 20
246.031184
 30
0.0
 10
37.412670
 20
244.981192
 30
0.0
 11
48.366420
 21
272.550775
 31
0.0
 11
40.309051
 21
270.371553
 31
0.0
 11
34.582450
 21
264.644954
 31
0.0
 11
32.403226
 21
256.587581
 31
0.0
 11
33.017367
 21
252.191840
 31
0.0
 11
34.744719
 21
248.266483
 31
0.0
 11
37.412670
 21
244.981192
 31
0.0
  0
LWPOLYLINE
  5
1b5
100
AcDbEntity
  8
0
 62
7
100
AcDbPolyline
 90
2
 70
0
 10
37.412670
 20
244.981192
 30
0.0
 10
59.320170
 20
244.981192
 30
0.0
  0
SPLINE
  5
1b6
100
AcDbEntity
  8
0
 62
7
100
AcDbSpline
 70
0
 71
3
 72
13
 73
9
 74
7
 40
0.000000
 40
0.000000
 40
0.000000
 40
0.000000
 40
4.232803
 40
8.521205
 40
12.959568
 40
21.306442
 40
29.405082
 40
37.751938
 40
37.751938
 40
37.751938
 40
37.751938
 10
59.320170
 20
244.981192
 30
0.0
 10
60.275100
 20
246.031109
 30
0.0
 10
62.197503
 20
248.144732
 30
0.0
 10
63.914355
 20
252.194685
 30
0.0
 10
64.730051
 20
257.886958
 30
0.0
 10
62.831156
 20
264.899737
 30
0.0
 10
56.724968
 20
271.246126
 30
0.0
 10
51.180498
 20
272.111538
 30
0.0
 10
48.366420
 20
272.550775
 30
0.0
 11
59.320170
 21
244.981192
 31
0.0
 11
61.989157
 21
248.266483
 31
0.0
 11
63.715991
 21
252.191840
 31
0.0
 11
64.329615
 21
256.587581
 31
0.0
 11
62.150384
 21
264.644954
 31
0.0
 11
56.423777
 21
270.371553
 31
0.0
 11
48.366420
 21
272.550775
 31
0.0
  0
SPLINE
  5
1b7
100
AcDbEntity
  8
0
 62
7
100
AcDbSpline
 70
0
 71
3
 72
40
 73
36
 74
34
 40
0.000000
 40
0.000000
 40
0.000000
 40
0.000000
 40
1.331565
 40
3.560608
 40
4.939311
 40
6.318973
 40
8.549424
 40
9.882002
 40
11.214616
 40
13.444813
 40
14.824474
 40
16.204971
 40
18.436738
 40
19.770190
 40
21.101668
 40
23.330714
 40
24.709374
 40
26.090939
 40
28.325039
 40
29.659489
 40
30.993415
 40
33.226165
 40
34.607132
 40
35.985456
 40
38.213333
 40
39.544588
 40
40.877137
 40
43.107745
 40
44.487399
 40
45.868484
 40
48.101836
 40
49.435782
 40
50.581070
 40
52.595101
 40
54.174558
 40
54.174558
 40
54.174558
 40
54.174558
 10
86.342426
 20
186.232646
 30
0.0
 10
86.002266
 20
185.936652
 30
0.0
 10
85.092677
 20
185.145164
 30
0.0
 10
84.163072
 20
183.989285
 30
0.0
 10
83.006413
 20
182.185654
 30
0.0
 10
81.481112
 20
183.754965
 30
0.0
 10
80.428930
 20
184.399011
 30
0.0
 10
78.728885
 20
185.982180
 30
0.0
 10
78.277368
 20
183.703259
 30
0.0
 10
77.796732
 20
182.568935
 30
0.0
 10
77.488315
 20
180.393551
 30
0.0
 10
75.451302
 20
181.219975
 30
0.0
 10
74.228856
 20
181.373497
 30
0.0
 10
72.029245
 20
182.128377
 30
0.0
 10
72.548620
 20
179.863872
 30
0.0
 10
72.575402
 20
178.634228
 30
0.0
 10
73.183451
 20
176.521595
 30
0.0
 10
70.982827
 20
176.451020
 30
0.0
 10
69.802822
 20
176.095330
 30
0.0
 10
67.483888
 20
175.893100
 30
0.0
 10
68.878217
 20
174.030439
 30
0.0
 10
69.399846
 20
172.913669
 30
0.0
 10
70.812512
 20
171.228358
 30
0.0
 10
68.837374
 20
170.268781
 30
0.0
 10
67.905386
 20
169.465620
 30
0.0
 10
65.875521
 20
168.338088
 30
0.0
 10
67.905877
 20
167.207138
 30
0.0
 10
68.836475
 20
166.401875
 30
0.0
 10
70.814217
 20
165.438235
 30
0.0
 10
69.390855
 20
163.756137
 30
0.0
 10
68.880513
 20
162.644684
 30
0.0
 10
67.493183
 20
160.852066
 30
0.0
 10
69.512739
 20
160.574835
 30
0.0
 10
70.862163
 20
160.353282
 30
0.0
 10
72.058335
 20
160.085894
 30
0.0
 10
72.584093
 20
159.968369
 30
0.0
 11
86.342426
 21
186.232646
 31
0.0
 11
85.355435
 21
185.338825
 31
0.0
 11
83.942835
 21
183.614531
 31
0.0
 11
82.955759
 21
182.651980
 31
0.0
 11
81.790201
 21
183.390181
 31
0.0
 11
80.050165
 21
184.785597
 31
0.0
 11
78.898815
 21
185.456535
 31
0.0
 11
78.357656
 21
184.238747
 31
0.0
 11
77.762856
 21
182.089331
 31
0.0
 11
77.249579
 21
180.808702
 31
0.0
 11
75.883555
 21
181.008079
 31
0.0
 11
73.724571
 21
181.573386
 31
0.0
 11
72.398884
 21
181.717091
 31
0.0
 11
72.403224
 21
180.385620
 31
0.0
 11
72.740390
 21
178.182222
 31
0.0
 11
72.795759
 21
176.804674
 31
0.0
 11
71.465241
 21
176.432594
 31
0.0
 11
69.260191
 21
176.073491
 31
0.0
 11
67.989165
 21
175.666980
 31
0.0
 11
68.533178
 21
174.449028
 31
0.0
 11
69.734588
 21
172.567064
 31
0.0
 11
70.343954
 21
171.327813
 31
0.0
 11
69.283034
 21
170.447911
 31
0.0
 11
67.420685
 21
169.225172
 31
0.0
 11
66.428123
 21
168.338007
 31
0.0
 11
67.420429
 21
167.448617
 31
0.0
 11
69.283296
 21
166.221694
 31
0.0
 11
70.343954
 21
165.339396
 31
0.0
 11
69.729738
 21
164.102410
 31
0.0
 11
68.520338
 21
162.224855
 31
0.0
 11
67.971526
 21
161.009035
 31
0.0
 11
69.053891
 21
160.634641
 31
0.0
 11
71.040219
 21
160.301746
 31
0.0
 11
72.584093
 21
159.968369
 31
0.0
  0
SPLINE
  5
1b8
100
AcDbEntity
  8
0
 62
7
100
AcDbSpline
 70
0
 71
3
 72
19
 73
15
 74
13
 40
0.000000
 40
0.000000
 40
0.000000
 40
0.000000
 40
2.384837
 40
5.897303
 40
8.104331
 40
9.903420
 40
12.629677
 40
14.404163
 40
16.341783
 40
19.341998
 40
21.311362
 40
23.283142
 40
26.441722
 40
28.822945
 40
28.822945
 40
28.822945
 40
28.822945
 10
72.584093
 20
159.968369
 30
0.0
 10
73.367252
 20
159.797238
 30
0.0
 10
75.303872
 20
159.374060
 30
0.0
 10
77.775439
 20
158.715696
 30
0.0
 10
80.406913
 20
157.448197
 30
0.0
 10
82.070470
 20
159.416420
 30
0.0
 10
83.402322
 20
160.687136
 30
0.0
 10
85.116043
 20
162.678016
 30
0.0
 10
87.180300
 20
160.809292
 30
0.0
 10
88.907470
 20
159.777979
 30
0.0
 10
90.888085
 20
157.993923
 30
0.0
 10
93.210705
 20
159.337908
 30
0.0
 10
95.420241
 20
160.254973
 30
0.0
 10
97.170169
 20
160.887217
 30
0.0
 10
97.922357
 20
161.158980
 30
0.0
 11
72.584093
 21
159.968369
 31
0.0
 11
74.910980
 21
159.445835
 31
0.0
 11
78.270684
 21
158.421235
 31
0.0
 11
80.424579
 21
157.939868
 31
0.0
 11
81.815843
 21
159.080527
 31
0.0
 11
83.693971
 21
161.056664
 31
0.0
 11
85.107704
 21
162.129119
 31
0.0
 11
86.809815
 21
161.203273
 31
0.0
 11
89.229143
 21
159.428973
 31
0.0
 11
90.928537
 21
158.433757
 31
0.0
 11
92.797450
 21
159.062309
 31
0.0
 11
95.688039
 21
160.335544
 31
0.0
 11
97.922357
 21
161.158980
 31
0.0
  0
LWPOLYLINE
  5
1b9
100
AcDbEntity
  8
0
 62
7
100
AcDbPolyline
 90
2
 70
0
 10
48.366420
 20
272.550775
 30
0.0
 10
48.366420
 20
272.550775
 30
0.0
  0
SPLINE
  5
1ba
100
AcDbEntity
  8
0
 62
7
100
AcDbSpline
 70
0
 71
3
 72
37
 73
33
 74
31
 40
0.000000
 40
0.000000
 40
0.000000
 40
0.000000
 40
0.609973
 40
1.071244
 40
1.328631
 40
2.709123
 40
4.941395
 40
6.274757
 40
7.609893
 40
9.845055
 40
11.227272
 40
12.607433
 40
14.839139
 40
16.172180
 40
17.504455
 40
19.734720
 40
21.114129
 40
22.494181
 40
24.725180
 40
26.058177
 40
27.390818
 40
29.621045
 40
31.000726
 40
32.378785
 40
34.606447
 40
35.937379
 40
37.270749
 40
39.502474
 40
40.882905
 40
42.263451
 40
44.495608
 40
45.829060
 40
45.829060
 40
45.829060
 40
45.829060
 10
97.922357
 20
161.158980
 30
0.0
 10
97.855182
 20
161.351508
 30
0.0
 10
97.737209
 20
161.689630
 30
0.0
 10
97.599032
 20
162.104692
 30
0.0
 10
97.549978
 20
162.846280
 30
0.0
 10
99.355391
 20
163.094430
 30
0.0
 10
100.363801
 20
163.762603
 30
0.0
 10
102.602576
 20
164.427573
 30
0.0
 10
100.845411
 20
165.963752
 30
0.0
 10
100.103960
 20
166.946598
 30
0.0
 10
98.368209
 20
168.303031
 30
0.0
 10
100.106174
 20
169.652319
 30
0.0
 10
100.852428
 20
170.631439
 30
0.0
 10
102.608989
 20
172.156368
 30
0.0
 10
100.386900
 20
172.840583
 30
0.0
 10
99.308746
 20
173.433688
 30
0.0
 10
97.175548
 20
173.964232
 30
0.0
 10
98.210929
 20
175.903802
 30
0.0
 10
98.491789
 20
177.103179
 30
0.0
 10
99.472312
 20
179.210165
 30
0.0
 10
97.165233
 20
178.935271
 30
0.0
 10
95.938249
 20
179.042094
 30
0.0
 10
93.773955
 20
178.662824
 30
0.0
 10
93.932613
 20
180.852616
 30
0.0
 10
93.704724
 20
182.061421
 30
0.0
 10
93.745163
 20
184.382559
 30
0.0
 10
91.748703
 20
183.192324
 30
0.0
 10
90.583605
 20
182.784712
 30
0.0
 10
88.761108
 20
181.571768
 30
0.0
 10
88.007229
 20
183.579388
 30
0.0
 10
87.338148
 20
184.905781
 30
0.0
 10
86.613447
 20
185.871493
 30
0.0
 10
86.342426
 20
186.232646
 30
0.0
 11
97.922357
 21
161.158980
 31
0.0
 11
97.722961
 21
161.735442
 31
0.0
 11
97.601700
 21
162.180488
 31
0.0
 11
97.596037
 21
162.437813
 31
0.0
 11
98.819505
 21
163.077252
 31
0.0
 11
100.900561
 21
163.884871
 31
0.0
 11
102.058676
 21
164.545646
 31
0.0
 11
101.272087
 21
165.624472
 31
0.0
 11
99.703347
 21
167.216641
 31
0.0
 11
98.848398
 21
168.302730
 31
0.0
 11
99.705889
 21
169.384188
 31
0.0
 11
101.278359
 21
170.967808
 31
0.0
 11
102.067495
 21
172.042174
 31
0.0
 11
100.911944
 21
172.705240
 31
0.0
 11
98.834632
 21
173.516942
 31
0.0
 11
97.613676
 21
174.158841
 31
0.0
 11
97.954917
 21
175.496039
 31
0.0
 11
98.743121
 21
177.583164
 31
0.0
 11
99.024787
 21
178.886063
 31
0.0
 11
97.699349
 21
179.024429
 31
0.0
 11
95.471298
 21
178.925929
 31
0.0
 11
94.094718
 21
179.018369
 31
0.0
 11
93.864501
 21
180.377062
 31
0.0
 11
93.739230
 21
182.601199
 31
0.0
 11
93.468537
 21
183.904313
 31
0.0
 11
92.200893
 21
183.490847
 31
0.0
 11
90.204566
 21
182.493212
 31
0.0
 11
88.908884
 21
182.016980
 31
0.0
 11
88.144096
 21
183.166331
 31
0.0
 11
87.121591
 21
185.150520
 31
0.0
 11
86.342426
 21
186.232646
 31
0.0
  0
LWPOLYLINE
  5
1bb
100
AcDbEntity
  8
0
 62
7
100
AcDbPolyline
 90
2
 70
0
 10
86.342426
 20
186.232646
 30
0.0
 10
86.342426
 20
186.232646
 30
0.0
  0
SPLINE
  5
1bc
100
AcDbEntity
  8
0
 62
1
100
AcDbSpline
 70
0
 71
3
 72
16
 73
12
 74
10
 40
0.000000
 40
0.000000
 40
0.000000
 40
0.000000
 40
6.465299
 40
12.736503
 40
19.195778
 40
25.655055
 40
31.926259
 40
38.391558
 40
40.354302
 40
42.265274
 40
44.144573
 40
44.144573
 40
44.144573
 40
44.144573
 10
71.930681
 20
168.046472
 30
0.0
 10
72.270172
 20
170.226238
 30
0.0
 10
72.938962
 20
174.520330
 30
0.0
 10
77.855952
 20
179.249639
 30
0.0
 10
84.272893
 20
181.004229
 30
0.0
 10
90.756665
 20
179.247541
 30
0.0
 10
95.476994
 20
174.528546
 30
0.0
 10
96.813922
 20
169.542002
 30
0.0
 10
96.533025
 20
166.101131
 30
0.0
 10
96.099132
 20
164.220488
 30
0.0
 10
95.580065
 20
163.065982
 30
0.0
 10
95.322700
 20
162.493552
 30
0.0
 11
71.930681
 21
168.046472
 31
0.0
 11
73.617482
 21
174.287850
 31
0.0
 11
78.049497
 21
178.724655
 31
0.0
 11
84.284140
 21
180.413280
 31
0.0
 11
90.518785
 21
178.724655
 31
0.0
 11
94.950800
 21
174.287850
 31
0.0
 11
96.637602
 21
168.046472
 31
0.0
 11
96.483633
 21
166.089776
 31
0.0
 11
96.037464
 21
164.231620
 31
0.0
 11
95.322700
 21
162.493552
 31
0.0
  0
LWPOLYLINE
  5
1bd
100
AcDbEntity
  8
0
 62
1
100
AcDbPolyline
 90
2
 70
0
 10
95.322700
 20
162.493552
 30
0.0
 10
73.256645
 20
162.493552
 30
0.0
  0
SPLINE
  5
1be
100
AcDbEntity
  8
0
 62
1
100
AcDbSpline
 70
0
 71
3
 72
10
 73
6
 74
4
 40
0.000000
 40
0.000000
 40
0.000000
 40
0.000000
 40
1.880520
 40
3.792491
 40
5.755635
 40
5.755635
 40
5.755635
 40
5.755635
 10
73.256645
 20
162.493552
 30
0.0
 10
72.999616
 20
163.066085
 30
0.0
 10
72.481260
 20
164.220728
 30
0.0
 10
72.023217
 20
166.099705
 30
0.0
 10
71.961796
 20
167.391862
 30
0.0
 10
71.930681
 20
168.046472
 30
0.0
 11
73.256645
 21
162.493552
 31
0.0
 11
72.538800
 21
164.231670
 31
0.0
 11
72.087411
 21
166.089594
 31
0.0
 11
71.930681
 21
168.046472
 31
0.0
  0
SPLINE
  5
1bf
100
AcDbEntity
  8
0
 62
7
100
AcDbSpline
 70
0
 71
3
 72
40
 73
36
 74
34
 40
0.000000
 40
0.000000
 40
0.000000
 40
0.000000
 40
1.331567
 40
3.560609
 40
4.939311
 40
6.318975
 40
8.549426
 40
9.882002
 40
11.214617
 40
13.444813
 40
14.824474
 40
16.204973
 40
18.436740
 40
19.770191
 40
21.101668
 40
23.330714
 40
24.709374
 40
26.090941
 40
28.325042
 40
29.659495
 40
30.993421
 40
33.226172
 40
34.607140
 40
35.985466
 40
38.213344
 40
39.544600
 40
40.877150
 40
43.107759
 40
44.487416
 40
45.868502
 40
48.101855
 40
49.435802
 40
50.581090
 40
52.595123
 40
54.174583
 40
54.174583
 40
54.174583
 40
54.174583
 10
85.536080
 20
243.483433
 30
0.0
 10
85.195920
 20
243.187439
 30
0.0
 10
84.286329
 20
242.395952
 30
0.0
 10
83.356724
 20
241.240073
 30
0.0
 10
82.200067
 20
239.436441
 30
0.0
 10
80.674764
 20
241.005752
 30
0.0
 10
79.622583
 20
241.649798
 30
0.0
 10
77.922540
 20
243.232967
 30
0.0
 10
77.471020
 20
240.954046
 30
0.0
 10
76.990384
 20
239.819723
 30
0.0
 10
76.681969
 20
237.644337
 30
0.0
 10
74.644955
 20
238.470762
 30
0.0
 10
73.422508
 20
238.624284
 30
0.0
 10
71.222900
 20
239.379163
 30
0.0
 10
71.742272
 20
237.114659
 30
0.0
 10
71.769054
 20
235.885015
 30
0.0
 10
72.377106
 20
233.772382
 30
0.0
 10
70.176479
 20
233.701807
 30
0.0
 10
68.996474
 20
233.346116
 30
0.0
 10
66.677535
 20
233.143888
 30
0.0
 10
68.071869
 20
231.281226
 30
0.0
 10
68.593497
 20
230.164456
 30
0.0
 10
70.006168
 20
228.479144
 30
0.0
 10
68.031026
 20
227.519569
 30
0.0
 10
67.099038
 20
226.716407
 30
0.0
 10
65.069169
 20
225.588876
 30
0.0
 10
67.099527
 20
224.457925
 30
0.0
 10
68.030126
 20
223.652662
 30
0.0
 10
70.007873
 20
222.689023
 30
0.0
 10
68.584505
 20
221.006925
 30
0.0
 10
68.074163
 20
219.895472
 30
0.0
 10
66.686832
 20
218.102853
 30
0.0
 10
68.706389
 20
217.825622
 30
0.0
 10
70.055814
 20
217.604069
 30
0.0
 10
71.251989
 20
217.336682
 30
0.0
 10
71.777747
 20
217.219156
 30
0.0
 11
85.536080
 21
243.483433
 31
0.0
 11
84.549088
 21
242.589613
 31
0.0
 11
83.136487
 21
240.865318
 31
0.0
 11
82.149414
 21
239.902767
 31
0.0
 11
80.983853
 21
240.640968
 31
0.0
 11
79.243817
 21
242.036384
 31
0.0
 11
78.092469
 21
242.707322
 31
0.0
 11
77.551309
 21
241.489534
 31
0.0
 11
76.956508
 21
239.340118
 31
0.0
 11
76.443233
 21
238.059489
 31
0.0
 11
75.077208
 21
238.258867
 31
0.0
 11
72.918223
 21
238.824173
 31
0.0
 11
71.592539
 21
238.967878
 31
0.0
 11
71.596877
 21
237.636408
 31
0.0
 11
71.934043
 21
235.433009
 31
0.0
 11
71.989414
 21
234.055461
 31
0.0
 11
70.658893
 21
233.683382
 31
0.0
 11
68.453842
 21
233.324278
 31
0.0
 11
67.182814
 21
232.917767
 31
0.0
 11
67.726829
 21
231.699815
 31
0.0
 11
68.928240
 21
229.817851
 31
0.0
 11
69.537608
 21
228.578600
 31
0.0
 11
68.476686
 21
227.698698
 31
0.0
 11
66.614336
 21
226.475959
 31
0.0
 11
65.621772
 21
225.588795
 31
0.0
 11
66.614079
 21
224.699404
 31
0.0
 11
68.476947
 21
223.472481
 31
0.0
 11
69.537608
 21
222.590184
 31
0.0
 11
68.923390
 21
221.353197
 31
0.0
 11
67.713988
 21
219.475642
 31
0.0
 11
67.165175
 21
218.259822
 31
0.0
 11
68.247540
 21
217.885428
 31
0.0
 11
70.233871
 21
217.552534
 31
0.0
 11
71.777747
 21
217.219156
 31
0.0
  0
SPLINE
  5
1c0
100
AcDbEntity
  8
0
 62
7
100
AcDbSpline
 70
0
 71
3
 72
19
 73
15
 74
13
 40
0.000000
 40
0.000000
 40
0.000000
 40
0.000000
 40
2.384835
 40
5.897301
 40
8.104331
 40
9.903418
 40
12.629676
 40
14.404163
 40
16.341782
 40
19.341996
 40
21.311362
 40
23.283140
 40
26.441720
 40
28.822942
 40
28.822942
 40
28.822942
 40
28.822942
 10
71.777747
 20
217.219156
 30
0.0
 10
72.560905
 20
217.048025
 30
0.0
 10
74.497525
 20
216.624847
 30
0.0
 10
76.969092
 20
215.966483
 30
0.0
 10
79.600567
 20
214.698984
 30
0.0
 10
81.264123
 20
216.667208
 30
0.0
 10
82.595974
 20
217.937924
 30
0.0
 10
84.309697
 20
219.928803
 30
0.0
 10
86.373953
 20
218.060079
 30
0.0
 10
88.101123
 20
217.028766
 30
0.0
 10
90.081738
 20
215.244711
 30
0.0
 10
92.404358
 20
216.588696
 30
0.0
 10
94.613893
 20
217.505760
 30
0.0
 10
96.363821
 20
218.138004
 30
0.0
 10
97.116008
 20
218.409767
 30
0.0
 11
71.777747
 21
217.219156
 31
0.0
 11
74.104633
 21
216.696623
 31
0.0
 11
77.464337
 21
215.672022
 31
0.0
 11
79.618233
 21
215.190656
 31
0.0
 11
81.009496
 21
216.331314
 31
0.0
 11
82.887623
 21
218.307451
 31
0.0
 11
84.301358
 21
219.379906
 31
0.0
 11
86.003467
 21
218.454060
 31
0.0
 11
88.422795
 21
216.679760
 31
0.0
 11
90.122192
 21
215.684544
 31
0.0
 11
91.991103
 21
216.313096
 31
0.0
 11
94.881691
 21
217.586331
 31
0.0
 11
97.116008
 21
218.409767
 31
0.0
  0
LWPOLYLINE
  5
1c1
100
AcDbEntity
  8
0
 62
1
100
AcDbPolyline
 90
2
 70
0
 10
71.930681
 20
168.046472
 30
0.0
 10
71.930681
 20
168.046472
 30
0.0
  0
SPLINE
  5
1c2
100
AcDbEntity
  8
0
 62
7
100
AcDbSpline
 70
0
 71
3
 72
37
 73
33
 74
31
 40
0.000000
 40
0.000000
 40
0.000000
 40
0.000000
 40
0.609973
 40
1.071244
 40
1.328631
 40
2.709123
 40
4.941395
 40
6.274757
 40
7.609893
 40
9.845055
 40
11.227272
 40
12.607433
 40
14.839139
 40
16.172180
 40
17.504455
 40
19.734720
 40
21.114129
 40
22.494181
 40
24.725180
 40
26.058177
 40
27.390818
 40
29.621045
 40
31.000723
 40
32.378782
 40
34.606444
 40
35.937376
 40
37.270748
 40
39.502473
 40
40.882902
 40
42.263450
 40
44.495606
 40
45.829057
 40
45.829057
 40
45.829057
 40
45.829057
 10
97.116008
 20
218.409767
 30
0.0
 10
97.048834
 20
218.602296
 30
0.0
 10
96.930861
 20
218.940418
 30
0.0
 10
96.792683
 20
219.355479
 30
0.0
 10
96.743630
 20
220.097067
 30
0.0
 10
98.549043
 20
220.345217
 30
0.0
 10
99.557452
 20
221.013391
 30
0.0
 10
101.796227
 20
221.678360
 30
0.0
 10
100.039063
 20
223.214539
 30
0.0
 10
99.297611
 20
224.197385
 30
0.0
 10
97.561861
 20
225.553818
 30
0.0
 10
99.299825
 20
226.903106
 30
0.0
 10
100.046080
 20
227.882226
 30
0.0
 10
101.802640
 20
229.407156
 30
0.0
 10
99.580551
 20
230.091370
 30
0.0
 10
98.502397
 20
230.684475
 30
0.0
 10
96.369199
 20
231.215019
 30
0.0
 10
97.404580
 20
233.154590
 30
0.0
 10
97.685441
 20
234.353966
 30
0.0
 10
98.665964
 20
236.460952
 30
0.0
 10
96.358885
 20
236.186058
 30
0.0
 10
95.131901
 20
236.292881
 30
0.0
 10
92.967609
 20
235.913612
 30
0.0
 10
93.126265
 20
238.103403
 30
0.0
 10
92.898376
 20
239.312209
 30
0.0
 10
92.938818
 20
241.633346
 30
0.0
 10
90.942355
 20
240.443112
 30
0.0
 10
89.777258
 20
240.035500
 30
0.0
 10
87.954763
 20
238.822556
 30
0.0
 10
87.200881
 20
240.830175
 30
0.0
 10
86.531800
 20
242.156567
 30
0.0
 10
85.807101
 20
243.122280
 30
0.0
 10
85.536080
 20
243.483433
 30
0.0
 11
97.116008
 21
218.409767
 31
0.0
 11
96.916613
 21
218.986229
 31
0.0
 11
96.795352
 21
219.431275
 31
0.0
 11
96.789689
 21
219.688600
 31
0.0
 11
98.013157
 21
220.328040
 31
0.0
 11
100.094213
 21
221.135658
 31
0.0
 11
101.252328
 21
221.796434
 31
0.0
 11
100.465739
 21
222.875259
 31
0.0
 11
98.896998
 21
224.467429
 31
0.0
 11
98.042050
 21
225.553517
 31
0.0
 11
98.899541
 21
226.634976
 31
0.0
 11
100.472010
 21
228.218596
 31
0.0
 11
101.261147
 21
229.292961
 31
0.0
 11
100.105595
 21
229.956027
 31
0.0
 11
98.028284
 21
230.767729
 31
0.0
 11
96.807328
 21
231.409628
 31
0.0
 11
97.148569
 21
232.746826
 31
0.0
 11
97.936773
 21
234.833951
 31
0.0
 11
98.218439
 21
236.136850
 31
0.0
 11
96.893001
 21
236.275216
 31
0.0
 11
94.664950
 21
236.176717
 31
0.0
 11
93.288372
 21
236.269156
 31
0.0
 11
93.058153
 21
237.627849
 31
0.0
 11
92.932883
 21
239.851986
 31
0.0
 11
92.662192
 21
241.155100
 31
0.0
 11
91.394546
 21
240.741634
 31
0.0
 11
89.398218
 21
239.743999
 31
0.0
 11
88.102539
 21
239.267767
 31
0.0
 11
87.337748
 21
240.417118
 31
0.0
 11
86.315244
 21
242.401308
 31
0.0
 11
85.536080
 21
243.483433
 31
0.0
  0
LWPOLYLINE
  5
1c3
100
AcDbEntity
  8
0
 62
7
100
AcDbPolyline
 90
2
 70
0
 10
85.536080
 20
243.483433
 30
0.0
 10
85.536080
 20
243.483433
 30
0.0
  0
SPLINE
  5
1c4
100
AcDbEntity
  8
0
 62
1
100
AcDbSpline
 70
0
 71
3
 72
16
 73
12
 74
10
 40
0.000000
 40
0.000000
 40
0.000000
 40
0.000000
 40
6.465299
 40
12.736503
 40
19.195778
 40
25.655055
 40
31.926259
 40
38.391558
 40
40.354302
 40
42.265274
 40
44.144573
 40
44.144573
 40
44.144573
 40
44.144573
 10
71.124332
 20
225.297259
 30
0.0
 10
71.463823
 20
227.477025
 30
0.0
 10
72.132613
 20
231.771117
 30
0.0
 10
77.049603
 20
236.500427
 30
0.0
 10
83.466544
 20
238.255016
 30
0.0
 10
89.950316
 20
236.498328
 30
0.0
 10
94.670646
 20
231.779333
 30
0.0
 10
96.007573
 20
226.792789
 30
0.0
 10
95.726677
 20
223.351919
 30
0.0
 10
95.292783
 20
221.471276
 30
0.0
 10
94.773717
 20
220.316769
 30
0.0
 10
94.516352
 20
219.744339
 30
0.0
 11
71.124332
 21
225.297259
 31
0.0
 11
72.811134
 21
231.538637
 31
0.0
 11
77.243148
 21
235.975442
 31
0.0
 11
83.477791
 21
237.664068
 31
0.0
 11
89.712437
 21
235.975442
 31
0.0
 11
94.144452
 21
231.538637
 31
0.0
 11
95.831254
 21
225.297259
 31
0.0
 11
95.677285
 21
223.340563
 31
0.0
 11
95.231115
 21
221.482407
 31
0.0
 11
94.516352
 21
219.744339
 31
0.0
  0
LWPOLYLINE
  5
1c5
100
AcDbEntity
  8
0
 62
1
100
AcDbPolyline
 90
2
 70
0
 10
94.516352
 20
219.744339
 30
0.0
 10
72.450297
 20
219.744339
 30
0.0
  0
SPLINE
  5
1c6
100
AcDbEntity
  8
0
 62
1
100
AcDbSpline
 70
0
 71
3
 72
10
 73
6
 74
4
 40
0.000000
 40
0.000000
 40
0.000000
 40
0.000000
 40
1.880520
 40
3.792491
 40
5.755635
 40
5.755635
 40
5.755635
 40
5.755635
 10
72.450297
 20
219.744339
 30
0.0
 10
72.193268
 20
220.316873
 30
0.0
 10
71.674912
 20
221.471515
 30
0.0
 10
71.216868
 20
223.350492
 30
0.0
 10
71.155448
 20
224.642649
 30
0.0
 10
71.124332
 20
225.297259
 30
0.0
 11
72.450297
 21
219.744339
 31
0.0
 11
71.732452
 21
221.482457
 31
0.0
 11
71.281063
 21
223.340381
 31
0.0
 11
71.124332
 21
225.297259
 31
0.0
  0
SPLINE
  5
1c7
100
AcDbEntity
  8
0
 62
7
100
AcDbSpline
 70
0
 71
3
 72
40
 73
36
 74
34
 40
0.000000
 40
0.000000
 40
0.000000
 40
0.000000
 40
1.331565
 40
3.560607
 40
4.939311
 40
6.318974
 40
8.549424
 40
9.882001
 40
11.214615
 40
13.444811
 40
14.824472
 40
16.204969
 40
18.436737
 40
19.770189
 40
21.101666
 40
23.330712
 40
24.709372
 40
26.090937
 40
28.325038
 40
29.659490
 40
30.993416
 40
33.226167
 40
34.607134
 40
35.985459
 40
38.213336
 40
39.544592
 40
40.877142
 40
43.107751
 40
44.487405
 40
45.868491
 40
48.101844
 40
49.435790
 40
50.581078
 40
52.595111
 40
54.174569
 40
54.174569
 40
54.174569
 40
54.174569
 10
84.729729
 20
272.108826
 30
0.0
 10
84.389569
 20
271.812832
 30
0.0
 10
83.479980
 20
271.021344
 30
0.0
 10
82.550375
 20
269.865466
 30
0.0
 10
81.393716
 20
268.061834
 30
0.0
 10
79.868414
 20
269.631145
 30
0.0
 10
78.816233
 20
270.275191
 30
0.0
 10
77.116189
 20
271.858360
 30
0.0
 10
76.664671
 20
269.579439
 30
0.0
 10
76.184035
 20
268.445116
 30
0.0
 10
75.875618
 20
266.269732
 30
0.0
 10
73.838605
 20
267.096155
 30
0.0
 10
72.616158
 20
267.249678
 30
0.0
 10
70.416549
 20
268.004557
 30
0.0
 10
70.935923
 20
265.740053
 30
0.0
 10
70.962705
 20
264.510409
 30
0.0
 10
71.570754
 20
262.397776
 30
0.0
 10
69.370130
 20
262.327201
 30
0.0
 10
68.190125
 20
261.971510
 30
0.0
 10
65.871187
 20
261.769281
 30
0.0
 10
67.265519
 20
259.906620
 30
0.0
 10
67.787148
 20
258.789850
 30
0.0
 10
69.199816
 20
257.104538
 30
0.0
 10
67.224676
 20
256.144963
 30
0.0
 10
66.292688
 20
255.341800
 30
0.0
 10
64.262821
 20
254.214269
 30
0.0
 10
66.293178
 20
253.083319
 30
0.0
 10
67.223777
 20
252.278056
 30
0.0
 10
69.201521
 20
251.314416
 30
0.0
 10
67.778157
 20
249.632318
 30
0.0
 10
67.267814
 20
248.520865
 30
0.0
 10
65.880483
 20
246.728247
 30
0.0
 10
67.900041
 20
246.451016
 30
0.0
 10
69.249465
 20
246.229462
 30
0.0
 10
70.445638
 20
245.962075
 30
0.0
 10
70.971396
 20
245.844550
 30
0.0
 11
84.729729
 21
272.108826
 31
0.0
 11
83.742739
 21
271.215006
 31
0.0
 11
82.330138
 21
269.490712
 31
0.0
 11
81.343063
 21
268.528161
 31
0.0
 11
80.177503
 21
269.266362
 31
0.0
 11
78.437467
 21
270.661777
 31
0.0
 11
77.286118
 21
271.332715
 31
0.0
 11
76.744960
 21
270.114927
 31
0.0
 11
76.150159
 21
267.965512
 31
0.0
 11
75.636882
 21
266.684883
 31
0.0
 11
74.270858
 21
266.884260
 31
0.0
 11
72.111873
 21
267.449567
 31
0.0
 11
70.786188
 21
267.593271
 31
0.0
 11
70.790527
 21
266.261801
 31
0.0
 11
71.127693
 21
264.058402
 31
0.0
 11
71.183063
 21
262.680855
 31
0.0
 11
69.852544
 21
262.308775
 31
0.0
 11
67.647493
 21
261.949671
 31
0.0
 11
66.376465
 21
261.543161
 31
0.0
 11
66.920479
 21
260.325209
 31
0.0
 11
68.121890
 21
258.443244
 31
0.0
 11
68.731257
 21
257.203994
 31
0.0
 11
67.670336
 21
256.324092
 31
0.0
 11
65.807987
 21
255.101353
 31
0.0
 11
64.815424
 21
254.214188
 31
0.0
 11
65.807730
 21
253.324797
 31
0.0
 11
67.670598
 21
252.097875
 31
0.0
 11
68.731257
 21
251.215577
 31
0.0
 11
68.117040
 21
249.978591
 31
0.0
 11
66.907639
 21
248.101035
 31
0.0
 11
66.358826
 21
246.885216
 31
0.0
 11
67.441192
 21
246.510822
 31
0.0
 11
69.427522
 21
246.177927
 31
0.0
 11
70.971396
 21
245.844550
 31
0.0
  0
SPLINE
  5
1c8
100
AcDbEntity
  8
0
 62
7
100
AcDbSpline
 70
0
 71
3
 72
19
 73
15
 74
13
 40
0.000000
 40
0.000000
 40
0.000000
 40
0.000000
 40
2.384837
 40
5.897302
 40
8.104331
 40
9.903418
 40
12.629675
 40
14.404161
 40
16.341781
 40
19.341995
 40
21.311360
 40
23.283139
 40
26.441720
 40
28.822942
 40
28.822942
 40
28.822942
 40
28.822942
 10
70.971396
 20
245.844550
 30
0.0
 10
71.754555
 20
245.673419
 30
0.0
 10
73.691175
 20
245.250242
 30
0.0
 10
76.162742
 20
244.591879
 30
0.0
 10
78.794216
 20
243.324381
 30
0.0
 10
80.457772
 20
245.292604
 30
0.0
 10
81.789624
 20
246.563318
 30
0.0
 10
83.503346
 20
248.554196
 30
0.0
 10
85.567603
 20
246.685473
 30
0.0
 10
87.294773
 20
245.654160
 30
0.0
 10
89.275388
 20
243.870104
 30
0.0
 10
91.598008
 20
245.214089
 30
0.0
 10
93.807544
 20
246.131153
 30
0.0
 10
95.557473
 20
246.763397
 30
0.0
 10
96.309660
 20
247.035160
 30
0.0
 11
70.971396
 21
245.844550
 31
0.0
 11
73.298284
 21
245.322017
 31
0.0
 11
76.657987
 21
244.297418
 31
0.0
 11
78.811882
 21
243.816052
 31
0.0
 11
80.203145
 21
244.956710
 31
0.0
 11
82.081273
 21
246.932845
 31
0.0
 11
83.495007
 21
248.005299
 31
0.0
 11
85.197118
 21
247.079454
 31
0.0
 11
87.616446
 21
245.305154
 31
0.0
 11
89.315840
 21
244.309938
 31
0.0
 11
91.184753
 21
244.938490
 31
0.0
 11
94.075342
 21
246.211725
 31
0.0
 11
96.309660
 21
247.035160
 31
0.0
  0
LWPOLYLINE
  5
1c9
100
AcDbEntity
  8
0
 62
1
100
AcDbPolyline
 90
2
 70
0
 10
71.124332
 20
225.297259
 30
0.0
 10
71.124332
 20
225.297259
 30
0.0
  0
SPLINE
  5
1ca
100
AcDbEntity
  8
0
 62
7
100
AcDbSpline
 70
0
 71
3
 72
37
 73
33
 74
31
 40
0.000000
 40
0.000000
 40
0.000000
 40
0.000000
 40
0.609973
 40
1.071244
 40
1.328631
 40
2.709123
 40
4.941395
 40
6.274757
 40
7.609893
 40
9.845055
 40
11.227272
 40
12.607433
 40
14.839139
 40
16.172180
 40
17.504455
 40
19.734720
 40
21.114129
 40
22.494181
 40
24.725180
 40
26.058177
 40
27.390818
 40
29.621045
 40
31.000726
 40
32.378785
 40
34.606446
 40
35.937378
 40
37.270748
 40
39.502473
 40
40.882903
 40
42.263451
 40
44.495607
 40
45.829058
 40
45.829058
 40
45.829058
 40
45.829058
 10
96.309660
 20
247.035160
 30
0.0
 10
96.242485
 20
247.227689
 30
0.0
 10
96.124512
 20
247.565811
 30
0.0
 10
95.986335
 20
247.980872
 30
0.0
 10
95.937281
 20
248.722460
 30
0.0
 10
97.742694
 20
248.970611
 30
0.0
 10
98.751104
 20
249.638784
 30
0.0
 10
100.989879
 20
250.303754
 30
0.0
 10
99.232715
 20
251.839933
 30
0.0
 10
98.491263
 20
252.822778
 30
0.0
 10
96.755512
 20
254.179212
 30
0.0
 10
98.493477
 20
255.528500
 30
0.0
 10
99.239731
 20
256.507620
 30
0.0
 10
100.996292
 20
258.032549
 30
0.0
 10
98.774203
 20
258.716764
 30
0.0
 10
97.696049
 20
259.309868
 30
0.0
 10
95.562851
 20
259.840412
 30
0.0
 10
96.598232
 20
261.779983
 30
0.0
 10
96.879092
 20
262.979360
 30
0.0
 10
97.859615
 20
265.086346
 30
0.0
 10
95.552537
 20
264.811452
 30
0.0
 10
94.325552
 20
264.918275
 30
0.0
 10
92.161258
 20
264.539004
 30
0.0
 10
92.319914
 20
266.728797
 30
0.0
 10
92.092027
 20
267.937602
 30
0.0
 10
92.132466
 20
270.258739
 30
0.0
 10
90.136006
 20
269.068505
 30
0.0
 10
88.970908
 20
268.660893
 30
0.0
 10
87.148412
 20
267.447949
 30
0.0
 10
86.394530
 20
269.455568
 30
0.0
 10
85.725451
 20
270.781961
 30
0.0
 10
85.000750
 20
271.747673
 30
0.0
 10
84.729729
 20
272.108826
 30
0.0
 11
96.309660
 21
247.035160
 31
0.0
 11
96.110264
 21
247.611622
 31
0.0
 11
95.989003
 21
248.056669
 31
0.0
 11
95.983340
 21
248.313994
 31
0.0
 11
97.206809
 21
248.953433
 31
0.0
 11
99.287864
 21
249.761052
 31
0.0
 11
100.445979
 21
250.421827
 31
0.0
 11
99.659391
 21
251.500653
 31
0.0
 11
98.090650
 21
253.092822
 31
0.0
 11
97.235701
 21
254.178910
 31
0.0
 11
98.093192
 21
255.260369
 31
0.0
 11
99.665662
 21
256.843989
 31
0.0
 11
100.454799
 21
257.918355
 31
0.0
 11
99.299247
 21
258.581420
 31
0.0
 11
97.221935
 21
259.393123
 31
0.0
 11
96.000979
 21
260.035022
 31
0.0
 11
96.342221
 21
261.372220
 31
0.0
 11
97.130424
 21
263.459345
 31
0.0
 11
97.412090
 21
264.762244
 31
0.0
 11
96.086653
 21
264.900610
 31
0.0
 11
93.858601
 21
264.802110
 31
0.0
 11
92.482021
 21
264.894550
 31
0.0
 11
92.251803
 21
266.253242
 31
0.0
 11
92.126533
 21
268.477379
 31
0.0
 11
91.855840
 21
269.780493
 31
0.0
 11
90.588197
 21
269.367027
 31
0.0
 11
88.591869
 21
268.369393
 31
0.0
 11
87.296188
 21
267.893161
 31
0.0
 11
86.531398
 21
269.042512
 31
0.0
 11
85.508894
 21
271.026701
 31
0.0
 11
84.729729
 21
272.108826
 31
0.0
  0
LWPOLYLINE
  5
1cb
100
AcDbEntity
  8
0
 62
7
100
AcDbPolyline
 90
2
 70
0
 10
84.729729
 20
272.108826
 30
0.0
 10
84.729729
 20
272.108826
 30
0.0
  0
SPLINE
  5
1cc
100
AcDbEntity
  8
0
 62
1
100
AcDbSpline
 70
0
 71
3
 72
16
 73
12
 74
10
 40
0.000000
 40
0.000000
 40
0.000000
 40
0.000000
 40
6.465299
 40
12.736503
 40
19.195778
 40
25.655055
 40
31.926259
 40
38.391558
 40
40.354302
 40
42.265274
 40
44.144573
 40
44.144573
 40
44.144573
 40
44.144573
 10
70.317984
 20
253.922653
 30
0.0
 10
70.657475
 20
256.102418
 30
0.0
 10
71.326265
 20
260.396511
 30
0.0
 10
76.243255
 20
265.125820
 30
0.0
 10
82.660196
 20
266.880409
 30
0.0
 10
89.143968
 20
265.123721
 30
0.0
 10
93.864297
 20
260.404727
 30
0.0
 10
95.201225
 20
255.418182
 30
0.0
 10
94.920328
 20
251.977312
 30
0.0
 10
94.486435
 20
250.096669
 30
0.0
 10
93.967368
 20
248.942163
 30
0.0
 10
93.710004
 20
248.369733
 30
0.0
 11
70.317984
 21
253.922653
 31
0.0
 11
72.004785
 21
260.164031
 31
0.0
 11
76.436800
 21
264.600836
 31
0.0
 11
82.671443
 21
266.289461
 31
0.0
 11
88.906088
 21
264.600836
 31
0.0
 11
93.338104
 21
260.164031
 31
0.0
 11
95.024905
 21
253.922653
 31
0.0
 11
94.870936
 21
251.965957
 31
0.0
 11
94.424767
 21
250.107801
 31
0.0
 11
93.710004
 21
248.369733
 31
0.0
  0
LWPOLYLINE
  5
1cd
100
AcDbEntity
  8
0
 62
1
100
AcDbPolyline
 90
2
 70
0
 10
93.710004
 20
248.369733
 30
0.0
 10
71.643948
 20
248.369733
 30
0.0
  0
SPLINE
  5
1ce
100
AcDbEntity
  8
0
 62
1
100
AcDbSpline
 70
0
 71
3
 72
10
 73
6
 74
4
 40
0.000000
 40
0.000000
 40
0.000000
 40
0.000000
 40
1.880520
 40
3.792491
 40
5.755635
 40
5.755635
 40
5.755635
 40
5.755635
 10
71.643948
 20
248.369733
 30
0.0
 10
71.386920
 20
248.942266
 30
0.0
 10
70.868563
 20
250.096909
 30
0.0
 10
70.410520
 20
251.975885
 30
0.0
 10
70.349099
 20
253.268042
 30
0.0
 10
70.317984
 20
253.922653
 30
0.0
 11
71.643948
 21
248.369733
 31
0.0
 11
70.926104
 21
250.107851
 31
0.0
 11
70.474714
 21
251.965775
 31
0.0
 11
70.317984
 21
253.922653
 31
0.0
  0
SPLINE
  5
1cf
100
AcDbEntity
  8
0
 62
7
100
AcDbSpline
 70
0
 71
3
 72
10
 73
6
 74
4
 40
0.000000
 40
0.000000
 40
0.000000
 40
0.000000
 40
7.386989
 40
14.840119
 40
22.220270
 40
22.220270
 40
22.220270
 40
22.220270
 10
202.103829
 20
253.715981
 30
0.0
 10
199.626249
 20
253.221106
 30
0.0
 10
194.648905
 20
252.226924
 30
0.0
 10
189.811812
 20
245.449553
 30
0.0
 10
190.399213
 20
240.421843
 30
0.0
 10
190.691468
 20
237.920356
 30
0.0
 11
202.103829
 21
253.715981
 31
0.0
 11
195.103910
 21
251.356164
 31
0.0
 11
190.759445
 21
245.300194
 31
0.0
 11
190.691468
 21
237.920356
 31
0.0
  0
SPLINE
  5
1d0
100
AcDbEntity
  8
0
 62
7
100
AcDbSpline
 70
0
 71
3
 72
10
 73
6
 74
4
 40
0.000000
 40
0.000000
 40
0.000000
 40
0.000000
 40
1.679088
 40
3.444785
 40
5.241095
 40
5.241095
 40
5.241095
 40
5.241095
 10
190.691468
 20
237.920356
 30
0.0
 10
190.961690
 20
237.367774
 30
0.0
 10
191.516071
 20
236.234105
 30
0.0
 10
193.495823
 20
236.431575
 30
0.0
 10
194.650963
 20
236.430442
 30
0.0
 10
195.233496
 20
236.429870
 30
0.0
 11
190.691468
 21
237.920356
 31
0.0
 11
191.679572
 21
236.562789
 31
0.0
 11
193.437484
 21
236.397166
 31
0.0
 11
195.233496
 21
236.429870
 31
0.0
  0
SPLINE
  5
1d1
100
AcDbEntity
  8
0
 62
7
100
AcDbSpline
 70
0
 71
3
 72
10
 73
6
 74
4
 40
0.000000
 40
0.000000
 40
0.000000
 40
0.000000
 40
5.853175
 40
11.706344
 40
17.559500
 40
17.559500
 40
17.559500
 40
17.559500
 10
195.233496
 20
236.429870
 30
0.0
 10
197.184554
 20
236.429870
 30
0.0
 10
201.086669
 20
236.429870
 30
0.0
 10
206.939835
 20
236.429870
 30
0.0
 10
210.841944
 20
236.429870
 30
0.0
 10
212.792996
 20
236.429870
 30
0.0
 11
195.233496
 21
236.429870
 31
0.0
 11
201.086671
 21
236.429870
 31
0.0
 11
206.939840
 21
236.429870
 31
0.0
 11
212.792996
 21
236.429870
 31
0.0
  0
SPLINE
  5
1d2
100
AcDbEntity
  8
0
 62
7
100
AcDbSpline
 70
0
 71
3
 72
10
 73
6
 74
4
 40
0.000000
 40
0.000000
 40
0.000000
 40
0.000000
 40
3.099286
 40
6.288064
 40
9.461079
 40
9.461079
 40
9.461079
 40
9.461079
 10
212.792996
 20
236.429870
 30
0.0
 10
213.334048
 20
237.330156
 30
0.0
 10
214.431774
 20
239.156725
 30
0.0
 10
214.433791
 20
242.435492
 30
0.0
 10
213.903934
 20
244.483575
 30
0.0
 10
213.639662
 20
245.505079
 30
0.0
 11
212.792996
 21
236.429870
 31
0.0
 11
214.149801
 21
239.216383
 31
0.0
 11
214.300332
 21
242.401606
 31
0.0
 11
213.639662
 21
245.505079
 31
0.0
  0
LWPOLYLINE
  5
1d3
100
AcDbEntity
  8
0
 62
1
100
AcDbPolyline
 90
2
 70
0
 10
70.317984
 20
253.922653
 30
0.0
 10
70.317984
 20
253.922653
 30
0.0
  0
SPLINE
  5
1d4
100
AcDbEntity
  8
0
 62
7
100
AcDbSpline
 70
0
 71
3
 72
10
 73
6
 74
4
 40
0.000000
 40
0.000000
 40
0.000000
 40
0.000000
 40
5.030849
 40
10.036279
 40
15.062328
 40
15.062328
 40
15.062328
 40
15.062328
 10
213.639662
 20
245.505079
 30
0.0
 10
212.910351
 20
247.032080
 30
0.0
 10
211.455412
 20
250.078369
 30
0.0
 10
207.163407
 20
253.222723
 30
0.0
 10
203.792665
 20
253.551337
 30
0.0
 10
202.103829
 20
253.715981
 30
0.0
 11
213.639662
 21
245.505079
 31
0.0
 11
211.098722
 21
249.847090
 31
0.0
 11
207.041740
 21
252.778851
 31
0.0
 11
202.103829
 21
253.715981
 31
0.0
  0
SPLINE
  5
1d5
100
AcDbEntity
  8
0
 62
7
100
AcDbSpline
 70
0
 71
3
 72
10
 73
6
 74
4
 40
0.000000
 40
0.000000
 40
0.000000
 40
0.000000
 40
7.386989
 40
14.840119
 40
22.220270
 40
22.220270
 40
22.220270
 40
22.220270
 10
202.674031
 20
234.795981
 30
0.0
 10
200.196451
 20
234.301106
 30
0.0
 10
195.219106
 20
233.306924
 30
0.0
 10
190.382014
 20
226.529553
 30
0.0
 10
190.969414
 20
221.501843
 30
0.0
 10
191.261670
 20
219.000356
 30
0.0
 11
202.674031
 21
234.795981
 31
0.0
 11
195.674112
 21
232.436164
 31
0.0
 11
191.329647
 21
226.380194
 31
0.0
 11
191.261670
 21
219.000356
 31
0.0
  0
SPLINE
  5
1d6
100
AcDbEntity
  8
0
 62
7
100
AcDbSpline
 70
0
 71
3
 72
10
 73
6
 74
4
 40
0.000000
 40
0.000000
 40
0.000000
 40
0.000000
 40
1.679088
 40
3.444785
 40
5.241095
 40
5.241095
 40
5.241095
 40
5.241095
 10
191.261670
 20
219.000356
 30
0.0
 10
191.531891
 20
218.447774
 30
0.0
 10
192.086272
 20
217.314105
 30
0.0
 10
194.066025
 20
217.511575
 30
0.0
 10
195.221164
 20
217.510442
 30
0.0
 10
195.803698
 20
217.509870
 30
0.0
 11
191.261670
 21
219.000356
 31
0.0
 11
192.249774
 21
217.642789
 31
0.0
 11
194.007686
 21
217.477166
 31
0.0
 11
195.803698
 21
217.509870
 31
0.0
  0
SPLINE
  5
1d7
100
AcDbEntity
  8
0
 62
7
100
AcDbSpline
 70
0
 71
3
 72
10
 73
6
 74
4
 40
0.000000
 40
0.000000
 40
0.000000
 40
0.000000
 40
5.853175
 40
11.706344
 40
17.559500
 40
17.559500
 40
17.559500
 40
17.559500
 10
195.803698
 20
217.509870
 30
0.0
 10
197.754756
 20
217.509870
 30
0.0
 10
201.656871
 20
217.509870
 30
0.0
 10
207.510037
 20
217.509870
 30
0.0
 10
211.412146
 20
217.509870
 30
0.0
 10
213.363198
 20
217.509870
 30
0.0
 11
195.803698
 21
217.509870
 31
0.0
 11
201.656873
 21
217.509870
 31
0.0
 11
207.510041
 21
217.509870
 31
0.0
 11
213.363198
 21
217.509870
 31
0.0
  0
SPLINE
  5
1d8
100
AcDbEntity
  8
0
 62
7
100
AcDbSpline
 70
0
 71
3
 72
10
 73
6
 74
4
 40
0.000000
 40
0.000000
 40
0.000000
 40
0.000000
 40
3.099286
 40
6.288064
 40
9.461079
 40
9.461079
 40
9.461079
 40
9.461079
 10
213.363198
 20
217.509870
 30
0.0
 10
213.904249
 20
218.410156
 30
0.0
 10
215.001976
 20
220.236725
 30
0.0
 10
215.003993
 20
223.515492
 30
0.0
 10
214.474136
 20
225.563575
 30
0.0
 10
214.209864
 20
226.585079
 30
0.0
 11
213.363198
 21
217.509870
 31
0.0
 11
214.720003
 21
220.296383
 31
0.0
 11
214.870534
 21
223.481606
 31
0.0
 11
214.209864
 21
226.585079
 31
0.0
  0
LWPOLYLINE
  5
1d9
100
AcDbEntity
  8
0
 62
7
100
AcDbPolyline
 90
2
 70
0
 10
202.103829
 20
253.715981
 30
0.0
 10
202.103829
 20
253.715981
 30
0.0
  0
SPLINE
  5
1da
100
AcDbEntity
  8
0
 62
7
100
AcDbSpline
 70
0
 71
3
 72
10
 73
6
 74
4
 40
0.000000
 40
0.000000
 40
0.000000
 40
0.000000
 40
5.030849
 40
10.036279
 40
15.062328
 40
15.062328
 40
15.062328
 40
15.062328
 10
214.209864
 20
226.585079
 30
0.0
 10
213.480552
 20
228.112080
 30
0.0
 10
212.025614
 20
231.158369
 30
0.0
 10
207.733609
 20
234.302723
 30
0.0
 10
204.362866
 20
234.631337
 30
0.0
 10
202.674031
 20
234.795981
 30
0.0
 11
214.209864
 21
226.585079
 31
0.0
 11
211.668924
 21
230.927090
 31
0.0
 11
207.611941
 21
233.858851
 31
0.0
 11
202.674031
 21
234.795981
 31
0.0
  0
SPLINE
  5
1db
100
AcDbEntity
  8
0
 62
7
100
AcDbSpline
 70
0
 71
3
 72
10
 73
6
 74
4
 40
0.000000
 40
0.000000
 40
0.000000
 40
0.000000
 40
7.386989
 40
14.840119
 40
22.220270
 40
22.220270
 40
22.220270
 40
22.220270
 10
202.674031
 20
215.980209
 30
0.0
 10
200.196451
 20
215.485333
 30
0.0
 10
195.219106
 20
214.491152
 30
0.0
 10
190.382014
 20
207.713781
 30
0.0
 10
190.969414
 20
202.686071
 30
0.0
 10
191.261670
 20
200.184584
 30
0.0
 11
202.674031
 21
215.980209
 31
0.0
 11
195.674112
 21
213.620391
 31
0.0
 11
191.329647
 21
207.564422
 31
0.0
 11
191.261670
 21
200.184584
 31
0.0
  0
SPLINE
  5
1dc
100
AcDbEntity
  8
0
 62
7
100
AcDbSpline
 70
0
 71
3
 72
10
 73
6
 74
4
 40
0.000000
 40
0.000000
 40
0.000000
 40
0.000000
 40
1.679088
 40
3.444785
 40
5.241095
 40
5.241095
 40
5.241095
 40
5.241095
 10
191.261670
 20
200.184584
 30
0.0
 10
191.531891
 20
199.632001
 30
0.0
 10
192.086272
 20
198.498333
 30
0.0
 10
194.066025
 20
198.695802
 30
0.0
 10
195.221164
 20
198.694669
 30
0.0
 10
195.803698
 20
198.694098
 30
0.0
 11
191.261670
 21
200.184584
 31
0.0
 11
192.249774
 21
198.827017
 31
0.0
 11
194.007686
 21
198.661393
 31
0.0
 11
195.803698
 21
198.694098
 31
0.0
  0
SPLINE
  5
1dd
100
AcDbEntity
  8
0
 62
7
100
AcDbSpline
 70
0
 71
3
 72
10
 73
6
 74
4
 40
0.000000
 40
0.000000
 40
0.000000
 40
0.000000
 40
5.853175
 40
11.706344
 40
17.559500
 40
17.559500
 40
17.559500
 40
17.559500
 10
195.803698
 20
198.694098
 30
0.0
 10
197.754756
 20
198.694098
 30
0.0
 10
201.656871
 20
198.694098
 30
0.0
 10
207.510037
 20
198.694098
 30
0.0
 10
211.412146
 20
198.694098
 30
0.0
 10
213.363198
 20
198.694098
 30
0.0
 11
195.803698
 21
198.694098
 31
0.0
 11
201.656873
 21
198.694098
 31
0.0
 11
207.510041
 21
198.694098
 31
0.0
 11
213.363198
 21
198.694098
 31
0.0
  0
SPLINE
  5
1de
100
AcDbEntity
  8
0
 62
7
100
AcDbSpline
 70
0
 71
3
 72
10
 73
6
 74
4
 40
0.000000
 40
0.000000
 40
0.000000
 40
0.000000
 40
3.099286
 40
6.288064
 40
9.461079
 40
9.461079
 40
9.461079
 40
9.461079
 10
213.363198
 20
198.694098
 30
0.0
 10
213.904249
 20
199.594384
 30
0.0
 10
215.001976
 20
201.420952
 30
0.0
 10
215.003993
 20
204.699719
 30
0.0
 10
214.474136
 20
206.747802
 30
0.0
 10
214.209864
 20
207.769306
 30
0.0
 11
213.363198
 21
198.694098
 31
0.0
 11
214.720003
 21
201.480610
 31
0.0
 11
214.870534
 21
204.665833
 31
0.0
 11
214.209864
 21
207.769306
 31
0.0
  0
LWPOLYLINE
  5
1df
100
AcDbEntity
  8
0
 62
7
100
AcDbPolyline
 90
2
 70
0
 10
202.674031
 20
234.795981
 30
0.0
 10
202.674031
 20
234.795981
 30
0.0
  0
SPLINE
  5
1e0
100
AcDbEntity
  8
0
 62
7
100
AcDbSpline
 70
0
 71
3
 72
10
 73
6
 74
4
 40
0.000000
 40
0.000000
 40
0.000000
 40
0.000000
 40
5.030849
 40
10.036279
 40
15.062328
 40
15.062328
 40
15.062328
 40
15.062328
 10
214.209864
 20
207.769306
 30
0.0
 10
213.480552
 20
209.296308
 30
0.0
 10
212.025614
 20
212.342596
 30
0.0
 10
207.733609
 20
215.486951
 30
0.0
 10
204.362866
 20
215.815564
 30
0.0
 10
202.674031
 20
215.980209
 30
0.0
 11
214.209864
 21
207.769306
 31
0.0
 11
211.668924
 21
212.111317
 31
0.0
 11
207.611941
 21
215.043079
 31
0.0
 11
202.674031
 21
215.980209
 31
0.0
  0
SPLINE
  5
1e1
100
AcDbEntity
  8
0
 62
7
100
AcDbSpline
 70
0
 71
3
 72
10
 73
6
 74
4
 40
0.000000
 40
0.000000
 40
0.000000
 40
0.000000
 40
7.386989
 40
14.840118
 40
22.220269
 40
22.220269
 40
22.220269
 40
22.220269
 10
201.818756
 20
271.857355
 30
0.0
 10
199.341176
 20
271.362479
 30
0.0
 10
194.363832
 20
270.368298
 30
0.0
 10
189.526739
 20
263.590927
 30
0.0
 10
190.114140
 20
258.563218
 30
0.0
 10
190.406395
 20
256.061731
 30
0.0
 11
201.818756
 21
271.857355
 31
0.0
 11
194.818837
 21
269.497537
 31
0.0
 11
190.474372
 21
263.441568
 31
0.0
 11
190.406395
 21
256.061731
 31
0.0
  0
SPLINE
  5
1e2
100
AcDbEntity
  8
0
 62
7
100
AcDbSpline
 70
0
 71
3
 72
10
 73
6
 74
4
 40
0.000000
 40
0.000000
 40
0.000000
 40
0.000000
 40
1.679088
 40
3.444785
 40
5.241095
 40
5.241095
 40
5.241095
 40
5.241095
 10
190.406395
 20
256.061731
 30
0.0
 10
190.676617
 20
255.509148
 30
0.0
 10
191.230998
 20
254.375480
 30
0.0
 10
193.210750
 20
254.572949
 30
0.0
 10
194.365890
 20
254.571816
 30
0.0
 10
194.948423
 20
254.571245
 30
0.0
 11
190.406395
 21
256.061731
 31
0.0
 11
191.394499
 21
254.704163
 31
0.0
 11
193.152411
 21
254.538540
 31
0.0
 11
194.948423
 21
254.571245
 31
0.0
  0
SPLINE
  5
1e3
100
AcDbEntity
  8
0
 62
7
100
AcDbSpline
 70
0
 71
3
 72
10
 73
6
 74
4
 40
0.000000
 40
0.000000
 40
0.000000
 40
0.000000
 40
5.853175
 40
11.706344
 40
17.559500
 40
17.559500
 40
17.559500
 40
17.559500
 10
194.948423
 20
254.571245
 30
0.0
 10
196.899482
 20
254.571245
 30
0.0
 10
200.801596
 20
254.571245
 30
0.0
 10
206.654763
 20
254.571245
 30
0.0
 10
210.556871
 20
254.571245
 30
0.0
 10
212.507923
 20
254.571245
 30
0.0
 11
194.948423
 21
254.571245
 31
0.0
 11
200.801598
 21
254.571245
 31
0.0
 11
206.654767
 21
254.571245
 31
0.0
 11
212.507923
 21
254.571245
 31
0.0
  0
SPLINE
  5
1e4
100
AcDbEntity
  8
0
 62
7
100
AcDbSpline
 70
0
 71
3
 72
10
 73
6
 74
4
 40
0.000000
 40
0.000000
 40
0.000000
 40
0.000000
 40
3.099286
 40
6.288064
 40
9.461079
 40
9.461079
 40
9.461079
 40
9.461079
 10
212.507923
 20
254.571245
 30
0.0
 10
213.048975
 20
255.471531
 30
0.0
 10
214.146701
 20
257.298099
 30
0.0
 10
214.148718
 20
260.576866
 30
0.0
 10
213.618862
 20
262.624949
 30
0.0
 10
213.354590
 20
263.646453
 30
0.0
 11
212.507923
 21
254.571245
 31
0.0
 11
213.864728
 21
257.357757
 31
0.0
 11
214.015259
 21
260.542980
 31
0.0
 11
213.354590
 21
263.646453
 31
0.0
  0
LWPOLYLINE
  5
1e5
100
AcDbEntity
  8
0
 62
7
100
AcDbPolyline
 90
2
 70
0
 10
202.674031
 20
215.980209
 30
0.0
 10
202.674031
 20
215.980209
 30
0.0
  0
SPLINE
  5
1e6
100
AcDbEntity
  8
0
 62
7
100
AcDbSpline
 70
0
 71
3
 72
10
 73
6
 74
4
 40
0.000000
 40
0.000000
 40
0.000000
 40
0.000000
 40
5.030849
 40
10.036279
 40
15.062328
 40
15.062328
 40
15.062328
 40
15.062328
 10
213.354590
 20
263.646453
 30
0.0
 10
212.625278
 20
265.173455
 30
0.0
 10
211.170339
 20
268.219743
 30
0.0
 10
206.878335
 20
271.364097
 30
0.0
 10
203.507592
 20
271.692710
 30
0.0
 10
201.818756
 20
271.857355
 30
0.0
 11
213.354590
 21
263.646453
 31
0.0
 11
210.813649
 21
267.988464
 31
0.0
 11
206.756667
 21
270.920225
 31
0.0
 11
201.818756
 21
271.857355
 31
0.0
  0
SPLINE
  5
1e7
100
AcDbEntity
  8
0
 62
7
100
AcDbSpline
 70
0
 71
3
 72
10
 73
6
 74
4
 40
0.000000
 40
0.000000
 40
0.000000
 40
0.000000
 40
7.386989
 40
14.840118
 40
22.220258
 40
22.220258
 40
22.220258
 40
22.220258
 10
203.386727
 20
178.452880
 30
0.0
 10
200.909146
 20
177.958004
 30
0.0
 10
195.931803
 20
176.963822
 30
0.0
 10
191.094711
 20
170.186456
 30
0.0
 10
191.682111
 20
165.158750
 30
0.0
 10
191.974366
 20
162.657266
 30
0.0
 11
203.386727
 21
178.452880
 31
0.0
 11
196.386808
 21
176.093062
 31
0.0
 11
192.042342
 21
170.037094
 31
0.0
 11
191.974366
 21
162.657266
 31
0.0
  0
SPLINE
  5
1e8
100
AcDbEntity
  8
0
 62
7
100
AcDbSpline
 70
0
 71
3
 72
10
 73
6
 74
4
 40
0.000000
 40
0.000000
 40
0.000000
 40
0.000000
 40
1.679097
 40
3.444794
 40
5.241104
 40
5.241104
 40
5.241104
 40
5.241104
 10
191.974366
 20
162.657266
 30
0.0
 10
192.244586
 20
162.104679
 30
0.0
 10
192.798964
 20
160.971006
 30
0.0
 10
194.778721
 20
161.168468
 30
0.0
 10
195.933860
 20
161.167337
 30
0.0
 10
196.516394
 20
161.166766
 30
0.0
 11
191.974366
 21
162.657266
 31
0.0
 11
192.962469
 21
161.299689
 31
0.0
 11
194.720382
 21
161.134061
 31
0.0
 11
196.516394
 21
161.166766
 31
0.0
  0
SPLINE
  5
1e9
100
AcDbEntity
  8
0
 62
7
100
AcDbSpline
 70
0
 71
3
 72
10
 73
6
 74
4
 40
0.000000
 40
0.000000
 40
0.000000
 40
0.000000
 40
5.853175
 40
11.706344
 40
17.559500
 40
17.559500
 40
17.559500
 40
17.559500
 10
196.516394
 20
161.166766
 30
0.0
 10
198.467452
 20
161.166766
 30
0.0
 10
202.369566
 20
161.166766
 30
0.0
 10
208.222733
 20
161.166766
 30
0.0
 10
212.124841
 20
161.166766
 30
0.0
 10
214.075893
 20
161.166766
 30
0.0
 11
196.516394
 21
161.166766
 31
0.0
 11
202.369569
 21
161.166766
 31
0.0
 11
208.222737
 21
161.166766
 31
0.0
 11
214.075893
 21
161.166766
 31
0.0
  0
SPLINE
  5
1ea
100
AcDbEntity
  8
0
 62
7
100
AcDbSpline
 70
0
 71
3
 72
10
 73
6
 74
4
 40
0.000000
 40
0.000000
 40
0.000000
 40
0.000000
 40
3.099284
 40
6.288067
 40
9.461093
 40
9.461093
 40
9.461093
 40
9.461093
 10
214.075893
 20
161.166766
 30
0.0
 10
214.616945
 20
162.067052
 30
0.0
 10
215.714673
 20
163.893621
 30
0.0
 10
215.716688
 20
167.172393
 30
0.0
 10
215.186832
 20
169.220481
 30
0.0
 10
214.922560
 20
170.241989
 30
0.0
 11
214.075893
 21
161.166766
 31
0.0
 11
215.432699
 21
163.953277
 31
0.0
 11
215.583230
 21
167.138505
 31
0.0
 11
214.922560
 21
170.241989
 31
0.0
  0
LWPOLYLINE
  5
1eb
100
AcDbEntity
  8
0
 62
7
100
AcDbPolyline
 90
2
 70
0
 10
201.818756
 20
271.857355
 30
0.0
 10
201.818756
 20
271.857355
 30
0.0
  0
SPLINE
  5
1ec
100
AcDbEntity
  8
0
 62
7
100
AcDbSpline
 70
0
 71
3
 72
10
 73
6
 74
4
 40
0.000000
 40
0.000000
 40
0.000000
 40
0.000000
 40
5.030842
 40
10.036270
 40
15.062320
 40
15.062320
 40
15.062320
 40
15.062320
 10
214.922560
 20
170.241989
 30
0.0
 10
214.193248
 20
171.768988
 30
0.0
 10
212.738307
 20
174.815272
 30
0.0
 10
208.446304
 20
177.959622
 30
0.0
 10
205.075562
 20
178.288236
 30
0.0
 10
203.386727
 20
178.452880
 30
0.0
 11
214.922560
 21
170.241989
 31
0.0
 11
212.381619
 21
174.583992
 31
0.0
 11
208.324637
 21
177.515750
 31
0.0
 11
203.386727
 21
178.452880
 31
0.0
  0
SPLINE
  5
1ed
100
AcDbEntity
  8
0
 62
7
100
AcDbSpline
 70
0
 71
3
 72
10
 73
6
 74
4
 40
0.000000
 40
0.000000
 40
0.000000
 40
0.000000
 40
7.386985
 40
14.840108
 40
22.220260
 40
22.220260
 40
22.220260
 40
22.220260
 10
203.956900
 20
159.532869
 30
0.0
 10
201.479320
 20
159.037998
 30
0.0
 10
196.501977
 20
158.043826
 30
0.0
 10
191.664882
 20
151.266459
 30
0.0
 10
192.252283
 20
146.238751
 30
0.0
 10
192.544539
 20
143.737264
 30
0.0
 11
203.956900
 21
159.532869
 31
0.0
 11
196.956981
 21
157.173064
 31
0.0
 11
192.612516
 21
151.117102
 31
0.0
 11
192.544539
 21
143.737264
 31
0.0
  0
SPLINE
  5
1ee
100
AcDbEntity
  8
0
 62
7
100
AcDbSpline
 70
0
 71
3
 72
10
 73
6
 74
4
 40
0.000000
 40
0.000000
 40
0.000000
 40
0.000000
 40
1.679092
 40
3.444789
 40
5.241098
 40
5.241098
 40
5.241098
 40
5.241098
 10
192.544539
 20
143.737264
 30
0.0
 10
192.814760
 20
143.184678
 30
0.0
 10
193.369140
 20
142.051007
 30
0.0
 10
195.348894
 20
142.248483
 30
0.0
 10
196.504034
 20
142.247340
 30
0.0
 10
197.086567
 20
142.246763
 30
0.0
 11
192.544539
 21
143.737264
 31
0.0
 11
193.532643
 21
142.379692
 31
0.0
 11
195.290555
 21
142.214071
 31
0.0
 11
197.086567
 21
142.246763
 31
0.0
  0
SPLINE
  5
1ef
100
AcDbEntity
  8
0
 62
7
100
AcDbSpline
 70
0
 71
3
 72
10
 73
6
 74
4
 40
0.000000
 40
0.000000
 40
0.000000
 40
0.000000
 40
5.853175
 40
11.706344
 40
17.559500
 40
17.559500
 40
17.559500
 40
17.559500
 10
197.086567
 20
142.246763
 30
0.0
 10
199.037625
 20
142.246763
 30
0.0
 10
202.939740
 20
142.246763
 30
0.0
 10
208.792907
 20
142.246763
 30
0.0
 10
212.695015
 20
142.246763
 30
0.0
 10
214.646067
 20
142.246763
 30
0.0
 11
197.086567
 21
142.246763
 31
0.0
 11
202.939742
 21
142.246763
 31
0.0
 11
208.792911
 21
142.246763
 31
0.0
 11
214.646067
 21
142.246763
 31
0.0
  0
SPLINE
  5
1f0
100
AcDbEntity
  8
0
 62
7
100
AcDbSpline
 70
0
 71
3
 72
10
 73
6
 74
4
 40
0.000000
 40
0.000000
 40
0.000000
 40
0.000000
 40
3.099295
 40
6.288070
 40
9.461087
 40
9.461087
 40
9.461087
 40
9.461087
 10
214.646067
 20
142.246763
 30
0.0
 10
215.187119
 20
143.147053
 30
0.0
 10
216.284843
 20
144.973625
 30
0.0
 10
216.286862
 20
148.252394
 30
0.0
 10
215.757006
 20
150.300476
 30
0.0
 10
215.492734
 20
151.321980
 30
0.0
 11
214.646067
 21
142.246763
 31
0.0
 11
216.002872
 21
145.033286
 31
0.0
 11
216.153403
 21
148.218507
 31
0.0
 11
215.492734
 21
151.321980
 31
0.0
  0
LWPOLYLINE
  5
1f1
100
AcDbEntity
  8
0
 62
7
100
AcDbPolyline
 90
2
 70
0
 10
203.386727
 20
178.452880
 30
0.0
 10
203.386727
 20
178.452880
 30
0.0
  0
SPLINE
  5
1f2
100
AcDbEntity
  8
0
 62
7
100
AcDbSpline
 70
0
 71
3
 72
10
 73
6
 74
4
 40
0.000000
 40
0.000000
 40
0.000000
 40
0.000000
 40
5.030843
 40
10.036272
 40
15.062320
 40
15.062320
 40
15.062320
 40
15.062320
 10
215.492734
 20
151.321980
 30
0.0
 10
214.763421
 20
152.848980
 30
0.0
 10
213.308481
 20
155.895264
 30
0.0
 10
209.016478
 20
159.039616
 30
0.0
 10
205.645736
 20
159.368226
 30
0.0
 10
203.956900
 20
159.532869
 30
0.0
 11
215.492734
 21
151.321980
 31
0.0
 11
212.951793
 21
155.663985
 31
0.0
 11
208.894811
 21
158.595744
 31
0.0
 11
203.956900
 21
159.532869
 31
0.0
  0
SPLINE
  5
1f3
100
AcDbEntity
  8
0
 62
7
100
AcDbSpline
 70
0
 71
3
 72
10
 73
6
 74
4
 40
0.000000
 40
0.000000
 40
0.000000
 40
0.000000
 40
7.386991
 40
14.840122
 40
22.220279
 40
22.220279
 40
22.220279
 40
22.220279
 10
203.956900
 20
140.717119
 30
0.0
 10
201.479320
 20
140.222241
 30
0.0
 10
196.501976
 20
139.228053
 30
0.0
 10
191.664882
 20
132.450681
 30
0.0
 10
192.252283
 20
127.422969
 30
0.0
 10
192.544539
 20
124.921480
 30
0.0
 11
203.956900
 21
140.717119
 31
0.0
 11
196.956981
 21
138.357294
 31
0.0
 11
192.612516
 21
132.301323
 31
0.0
 11
192.544539
 21
124.921480
 31
0.0
  0
SPLINE
  5
1f4
100
AcDbEntity
  8
0
 62
7
100
AcDbSpline
 70
0
 71
3
 72
10
 73
6
 74
4
 40
0.000000
 40
0.000000
 40
0.000000
 40
0.000000
 40
1.679092
 40
3.444789
 40
5.241098
 40
5.241098
 40
5.241098
 40
5.241098
 10
192.544539
 20
124.921480
 30
0.0
 10
192.814760
 20
124.368895
 30
0.0
 10
193.369140
 20
123.235223
 30
0.0
 10
195.348894
 20
123.432700
 30
0.0
 10
196.504034
 20
123.431556
 30
0.0
 10
197.086567
 20
123.430980
 30
0.0
 11
192.544539
 21
124.921480
 31
0.0
 11
193.532643
 21
123.563908
 31
0.0
 11
195.290555
 21
123.398287
 31
0.0
 11
197.086567
 21
123.430980
 31
0.0
  0
SPLINE
  5
1f5
100
AcDbEntity
  8
0
 62
7
100
AcDbSpline
 70
0
 71
3
 72
10
 73
6
 74
4
 40
0.000000
 40
0.000000
 40
0.000000
 40
0.000000
 40
5.853175
 40
11.706344
 40
17.559500
 40
17.559500
 40
17.559500
 40
17.559500
 10
197.086567
 20
123.430980
 30
0.0
 10
199.037625
 20
123.430980
 30
0.0
 10
202.939740
 20
123.430980
 30
0.0
 10
208.792907
 20
123.430980
 30
0.0
 10
212.695015
 20
123.430980
 30
0.0
 10
214.646067
 20
123.430980
 30
0.0
 11
197.086567
 21
123.430980
 31
0.0
 11
202.939742
 21
123.430980
 31
0.0
 11
208.792911
 21
123.430980
 31
0.0
 11
214.646067
 21
123.430980
 31
0.0
  0
SPLINE
  5
1f6
100
AcDbEntity
  8
0
 62
7
100
AcDbSpline
 70
0
 71
3
 72
10
 73
6
 74
4
 40
0.000000
 40
0.000000
 40
0.000000
 40
0.000000
 40
3.099301
 40
6.288084
 40
9.461092
 40
9.461092
 40
9.461092
 40
9.461092
 10
214.646067
 20
123.430980
 30
0.0
 10
215.187119
 20
124.331272
 30
0.0
 10
216.284843
 20
126.157848
 30
0.0
 10
216.286863
 20
129.436619
 30
0.0
 10
215.757006
 20
131.484700
 30
0.0
 10
215.492734
 20
132.506202
 30
0.0
 11
214.646067
 21
123.430980
 31
0.0
 11
216.002872
 21
126.217509
 31
0.0
 11
216.153403
 21
129.402737
 31
0.0
 11
215.492734
 21
132.506202
 31
0.0
  0
LWPOLYLINE
  5
1f7
100
AcDbEntity
  8
0
 62
7
100
AcDbPolyline
 90
2
 70
0
 10
203.956900
 20
159.532869
 30
0.0
 10
203.956900
 20
159.532869
 30
0.0
  0
SPLINE
  5
1f8
100
AcDbEntity
  8
0
 62
7
100
AcDbSpline
 70
0
 71
3
 72
10
 73
6
 74
4
 40
0.000000
 40
0.000000
 40
0.000000
 40
0.000000
 40
5.030860
 40
10.036293
 40
15.062342
 40
15.062342
 40
15.062342
 40
15.062342
 10
215.492734
 20
132.506202
 30
0.0
 10
214.763422
 20
134.033208
 30
0.0
 10
213.308486
 20
137.079503
 30
0.0
 10
209.016480
 20
140.223866
 30
0.0
 10
205.645736
 20
140.552476
 30
0.0
 10
203.956900
 20
140.717119
 30
0.0
 11
215.492734
 21
132.506202
 31
0.0
 11
212.951793
 21
136.848226
 31
0.0
 11
208.894811
 21
139.779993
 31
0.0
 11
203.956900
 21
140.717119
 31
0.0
  0
SPLINE
  5
1f9
100
AcDbEntity
  8
0
 62
7
100
AcDbSpline
 70
0
 71
3
 72
10
 73
6
 74
4
 40
0.000000
 40
0.000000
 40
0.000000
 40
0.000000
 40
7.386989
 40
14.840119
 40
22.220270
 40
22.220270
 40
22.220270
 40
22.220270
 10
203.101654
 20
196.594254
 30
0.0
 10
200.624074
 20
196.099379
 30
0.0
 10
195.646730
 20
195.105197
 30
0.0
 10
190.809637
 20
188.327826
 30
0.0
 10
191.397038
 20
183.300116
 30
0.0
 10
191.689293
 20
180.798629
 30
0.0
 11
203.101654
 21
196.594254
 31
0.0
 11
196.101735
 21
194.234437
 31
0.0
 11
191.757270
 21
188.178467
 31
0.0
 11
191.689293
 21
180.798629
 31
0.0
  0
SPLINE
  5
1fa
100
AcDbEntity
  8
0
 62
7
100
AcDbSpline
 70
0
 71
3
 72
10
 73
6
 74
4
 40
0.000000
 40
0.000000
 40
0.000000
 40
0.000000
 40
1.679088
 40
3.444785
 40
5.241095
 40
5.241095
 40
5.241095
 40
5.241095
 10
191.689293
 20
180.798629
 30
0.0
 10
191.959514
 20
180.246047
 30
0.0
 10
192.513896
 20
179.112378
 30
0.0
 10
194.493648
 20
179.309848
 30
0.0
 10
195.648787
 20
179.308715
 30
0.0
 10
196.231321
 20
179.308143
 30
0.0
 11
191.689293
 21
180.798629
 31
0.0
 11
192.677397
 21
179.441062
 31
0.0
 11
194.435309
 21
179.275439
 31
0.0
 11
196.231321
 21
179.308143
 31
0.0
  0
SPLINE
  5
1fb
100
AcDbEntity
  8
0
 62
7
100
AcDbSpline
 70
0
 71
3
 72
10
 73
6
 74
4
 40
0.000000
 40
0.000000
 40
0.000000
 40
0.000000
 40
5.853175
 40
11.706344
 40
17.559500
 40
17.559500
 40
17.559500
 40
17.559500
 10
196.231321
 20
179.308143
 30
0.0
 10
198.182379
 20
179.308143
 30
0.0
 10
202.084494
 20
179.308143
 30
0.0
 10
207.937660
 20
179.308143
 30
0.0
 10
211.839769
 20
179.308143
 30
0.0
 10
213.790821
 20
179.308143
 30
0.0
 11
196.231321
 21
179.308143
 31
0.0
 11
202.084496
 21
179.308143
 31
0.0
 11
207.937665
 21
179.308143
 31
0.0
 11
213.790821
 21
179.308143
 31
0.0
  0
SPLINE
  5
1fc
100
AcDbEntity
  8
0
 62
7
100
AcDbSpline
 70
0
 71
3
 72
10
 73
6
 74
4
 40
0.000000
 40
0.000000
 40
0.000000
 40
0.000000
 40
3.099286
 40
6.288064
 40
9.461079
 40
9.461079
 40
9.461079
 40
9.461079
 10
213.790821
 20
179.308143
 30
0.0
 10
214.331872
 20
180.208429
 30
0.0
 10
215.429599
 20
182.034998
 30
0.0
 10
215.431616
 20
185.313765
 30
0.0
 10
214.901759
 20
187.361848
 30
0.0
 10
214.637487
 20
188.383352
 30
0.0
 11
213.790821
 21
179.308143
 31
0.0
 11
215.147626
 21
182.094656
 31
0.0
 11
215.298157
 21
185.279879
 31
0.0
 11
214.637487
 21
188.383352
 31
0.0
  0
LWPOLYLINE
  5
1fd
100
AcDbEntity
  8
0
 62
7
100
AcDbPolyline
 90
2
 70
0
 10
203.956900
 20
140.717119
 30
0.0
 10
203.956900
 20
140.717119
 30
0.0
  0
SPLINE
  5
1fe
100
AcDbEntity
  8
0
 62
7
100
AcDbSpline
 70
0
 71
3
 72
10
 73
6
 74
4
 40
0.000000
 40
0.000000
 40
0.000000
 40
0.000000
 40
5.030849
 40
10.036279
 40
15.062328
 40
15.062328
 40
15.062328
 40
15.062328
 10
214.637487
 20
188.383352
 30
0.0
 10
213.908175
 20
189.910353
 30
0.0
 10
212.453237
 20
192.956642
 30
0.0
 10
208.161232
 20
196.100996
 30
0.0
 10
204.790490
 20
196.429610
 30
0.0
 10
203.101654
 20
196.594254
 30
0.0
 11
214.637487
 21
188.383352
 31
0.0
 11
212.096547
 21
192.725363
 31
0.0
 11
208.039565
 21
195.657124
 31
0.0
 11
203.101654
 21
196.594254
 31
0.0
  0
SPLINE
  5
1ff
100
AcDbEntity
  8
0
 62
7
100
AcDbSpline
 70
0
 71
3
 72
10
 73
6
 74
4
 40
0.000000
 40
0.000000
 40
0.000000
 40
0.000000
 40
7.386988
 40
14.840117
 40
22.220268
 40
22.220268
 40
22.220268
 40
22.220268
 10
174.236530
 20
253.430895
 30
0.0
 10
171.758949
 20
252.936019
 30
0.0
 10
166.781606
 20
251.941837
 30
0.0
 10
161.944515
 20
245.164466
 30
0.0
 10
162.531916
 20
240.136756
 30
0.0
 10
162.824171
 20
237.635270
 30
0.0
 11
174.236530
 21
253.430895
 31
0.0
 11
167.236611
 21
251.071077
 31
0.0
 11
162.892147
 21
245.015108
 31
0.0
 11
162.824171
 21
237.635270
 31
0.0
  0
SPLINE
  5
200
100
AcDbEntity
  8
0
 62
7
100
AcDbSpline
 70
0
 71
3
 72
10
 73
6
 74
4
 40
0.000000
 40
0.000000
 40
0.000000
 40
0.000000
 40
1.679088
 40
3.444785
 40
5.241092
 40
5.241092
 40
5.241092
 40
5.241092
 10
162.824171
 20
237.635270
 30
0.0
 10
163.094393
 20
237.082687
 30
0.0
 10
163.648774
 20
235.949019
 30
0.0
 10
165.628525
 20
236.146488
 30
0.0
 10
166.783664
 20
236.145355
 30
0.0
 10
167.366196
 20
236.144783
 30
0.0
 11
162.824171
 21
237.635270
 31
0.0
 11
163.812275
 21
236.277702
 31
0.0
 11
165.570186
 21
236.112079
 31
0.0
 11
167.366196
 21
236.144783
 31
0.0
  0
SPLINE
  5
201
100
AcDbEntity
  8
0
 62
7
100
AcDbSpline
 70
0
 71
3
 72
10
 73
6
 74
4
 40
0.000000
 40
0.000000
 40
0.000000
 40
0.000000
 40
5.853175
 40
11.706344
 40
17.559500
 40
17.559500
 40
17.559500
 40
17.559500
 10
167.366196
 20
236.144783
 30
0.0
 10
169.317255
 20
236.144783
 30
0.0
 10
173.219369
 20
236.144783
 30
0.0
 10
179.072536
 20
236.144783
 30
0.0
 10
182.974644
 20
236.144783
 30
0.0
 10
184.925696
 20
236.144783
 30
0.0
 11
167.366196
 21
236.144783
 31
0.0
 11
173.219371
 21
236.144783
 31
0.0
 11
179.072540
 21
236.144783
 31
0.0
 11
184.925696
 21
236.144783
 31
0.0
  0
SPLINE
  5
202
100
AcDbEntity
  8
0
 62
7
100
AcDbSpline
 70
0
 71
3
 72
10
 73
6
 74
4
 40
0.000000
 40
0.000000
 40
0.000000
 40
0.000000
 40
3.099286
 40
6.288064
 40
9.461079
 40
9.461079
 40
9.461079
 40
9.461079
 10
184.925696
 20
236.144783
 30
0.0
 10
185.466748
 20
237.045070
 30
0.0
 10
186.564475
 20
238.871638
 30
0.0
 10
186.566491
 20
242.150405
 30
0.0
 10
186.036635
 20
244.198488
 30
0.0
 10
185.772363
 20
245.219992
 30
0.0
 11
184.925696
 21
236.144783
 31
0.0
 11
186.282502
 21
238.931296
 31
0.0
 11
186.433033
 21
242.116519
 31
0.0
 11
185.772363
 21
245.219992
 31
0.0
  0
LWPOLYLINE
  5
203
100
AcDbEntity
  8
0
 62
7
100
AcDbPolyline
 90
2
 70
0
 10
203.101654
 20
196.594254
 30
0.0
 10
203.101654
 20
196.594254
 30
0.0
  0
SPLINE
  5
204
100
AcDbEntity
  8
0
 62
7
100
AcDbSpline
 70
0
 71
3
 72
10
 73
6
 74
4
 40
0.000000
 40
0.000000
 40
0.000000
 40
0.000000
 40
5.030849
 40
10.036279
 40
15.062328
 40
15.062328
 40
15.062328
 40
15.062328
 10
185.772363
 20
245.219992
 30
0.0
 10
185.043051
 20
246.746994
 30
0.0
 10
183.588112
 20
249.793282
 30
0.0
 10
179.296108
 20
252.937636
 30
0.0
 10
175.925365
 20
253.266250
 30
0.0
 10
174.236530
 20
253.430895
 30
0.0
 11
185.772363
 21
245.219992
 31
0.0
 11
183.231422
 21
249.562003
 31
0.0
 11
179.174440
 21
252.493764
 31
0.0
 11
174.236530
 21
253.430895
 31
0.0
  0
SPLINE
  5
205
100
AcDbEntity
  8
0
 62
7
100
AcDbSpline
 70
0
 71
3
 72
10
 73
6
 74
4
 40
0.000000
 40
0.000000
 40
0.000000
 40
0.000000
 40
7.386986
 40
14.840111
 40
22.220262
 40
22.220262
 40
22.220262
 40
22.220262
 10
174.806703
 20
234.510895
 30
0.0
 10
172.329124
 20
234.016019
 30
0.0
 10
167.351781
 20
233.021838
 30
0.0
 10
162.514697
 20
226.244464
 30
0.0
 10
163.102100
 20
221.216756
 30
0.0
 10
163.394356
 20
218.715270
 30
0.0
 11
174.806703
 21
234.510895
 31
0.0
 11
167.806788
 21
232.151077
 31
0.0
 11
163.462329
 21
226.095108
 31
0.0
 11
163.394356
 21
218.715270
 31
0.0
  0
SPLINE
  5
206
100
AcDbEntity
  8
0
 62
7
100
AcDbSpline
 70
0
 71
3
 72
10
 73
6
 74
4
 40
0.000000
 40
0.000000
 40
0.000000
 40
0.000000
 40
1.679086
 40
3.444777
 40
5.241083
 40
5.241083
 40
5.241083
 40
5.241083
 10
163.394356
 20
218.715270
 30
0.0
 10
163.664576
 20
218.162687
 30
0.0
 10
164.218954
 20
217.029020
 30
0.0
 10
166.198702
 20
217.226488
 30
0.0
 10
167.353838
 20
217.225355
 30
0.0
 10
167.936370
 20
217.224783
 30
0.0
 11
163.394356
 21
218.715270
 31
0.0
 11
164.382456
 21
217.357702
 31
0.0
 11
166.140362
 21
217.192079
 31
0.0
 11
167.936370
 21
217.224783
 31
0.0
  0
SPLINE
  5
207
100
AcDbEntity
  8
0
 62
7
100
AcDbSpline
 70
0
 71
3
 72
10
 73
6
 74
4
 40
0.000000
 40
0.000000
 40
0.000000
 40
0.000000
 40
5.853175
 40
11.706344
 40
17.559500
 40
17.559500
 40
17.559500
 40
17.559500
 10
167.936370
 20
217.224783
 30
0.0
 10
169.887428
 20
217.224783
 30
0.0
 10
173.789543
 20
217.224783
 30
0.0
 10
179.642709
 20
217.224783
 30
0.0
 10
183.544818
 20
217.224783
 30
0.0
 10
185.495870
 20
217.224783
 30
0.0
 11
167.936370
 21
217.224783
 31
0.0
 11
173.789545
 21
217.224783
 31
0.0
 11
179.642714
 21
217.224783
 31
0.0
 11
185.495870
 21
217.224783
 31
0.0
  0
SPLINE
  5
208
100
AcDbEntity
  8
0
 62
7
100
AcDbSpline
 70
0
 71
3
 72
10
 73
6
 74
4
 40
0.000000
 40
0.000000
 40
0.000000
 40
0.000000
 40
3.099286
 40
6.288064
 40
9.461079
 40
9.461079
 40
9.461079
 40
9.461079
 10
185.495870
 20
217.224783
 30
0.0
 10
186.036922
 20
218.125070
 30
0.0
 10
187.134648
 20
219.951638
 30
0.0
 10
187.136665
 20
223.230405
 30
0.0
 10
186.606808
 20
225.278488
 30
0.0
 10
186.342536
 20
226.299992
 30
0.0
 11
185.495870
 21
217.224783
 31
0.0
 11
186.852675
 21
220.011296
 31
0.0
 11
187.003206
 21
223.196519
 31
0.0
 11
186.342536
 21
226.299992
 31
0.0
  0
LWPOLYLINE
  5
209
100
AcDbEntity
  8
0
 62
7
100
AcDbPolyline
 90
2
 70
0
 10
174.236530
 20
253.430895
 30
0.0
 10
174.236530
 20
253.430895
 30
0.0
  0
SPLINE
  5
20a
100
AcDbEntity
  8
0
 62
7
100
AcDbSpline
 70
0
 71
3
 72
10
 73
6
 74
4
 40
0.000000
 40
0.000000
 40
0.000000
 40
0.000000
 40
5.030849
 40
10.036279
 40
15.062328
 40
15.062328
 40
15.062328
 40
15.062328
 10
186.342536
 20
226.299992
 30
0.0
 10
185.613225
 20
227.826994
 30
0.0
 10
184.158286
 20
230.873282
 30
0.0
 10
179.866281
 20
234.017636
 30
0.0
 10
176.495539
 20
234.346250
 30
0.0
 10
174.806703
 20
234.510895
 30
0.0
 11
186.342536
 21
226.299992
 31
0.0
 11
183.801596
 21
230.642003
 31
0.0
 11
179.744614
 21
233.573765
 31
0.0
 11
174.806703
 21
234.510895
 31
0.0
  0
SPLINE
  5
20b
100
AcDbEntity
  8
0
 62
7
100
AcDbSpline
 70
0
 71
3
 72
10
 73
6
 74
4
 40
0.000000
 40
0.000000
 40
0.000000
 40
0.000000
 40
7.386986
 40
14.840111
 40
22.220262
 40
22.220262
 40
22.220262
 40
22.220262
 10
174.806703
 20
215.695122
 30
0.0
 10
172.329124
 20
215.200247
 30
0.0
 10
167.351781
 20
214.206065
 30
0.0
 10
162.514697
 20
207.428692
 30
0.0
 10
163.102100
 20
202.400984
 30
0.0
 10
163.394356
 20
199.899497
 30
0.0
 11
174.806703
 21
215.695122
 31
0.0
 11
167.806788
 21
213.335304
 31
0.0
 11
163.462329
 21
207.279335
 31
0.0
 11
163.394356
 21
199.899497
 31
0.0
  0
SPLINE
  5
20c
100
AcDbEntity
  8
0
 62
7
100
AcDbSpline
 70
0
 71
3
 72
10
 73
6
 74
4
 40
0.000000
 40
0.000000
 40
0.000000
 40
0.000000
 40
1.679086
 40
3.444777
 40
5.241083
 40
5.241083
 40
5.241083
 40
5.241083
 10
163.394356
 20
199.899497
 30
0.0
 10
163.664576
 20
199.346914
 30
0.0
 10
164.218954
 20
198.213247
 30
0.0
 10
166.198702
 20
198.410715
 30
0.0
 10
167.353838
 20
198.409582
 30
0.0
 10
167.936370
 20
198.409011
 30
0.0
 11
163.394356
 21
199.899497
 31
0.0
 11
164.382456
 21
198.541930
 31
0.0
 11
166.140362
 21
198.376306
 31
0.0
 11
167.936370
 21
198.409011
 31
0.0
  0
SPLINE
  5
20d
100
AcDbEntity
  8
0
 62
7
100
AcDbSpline
 70
0
 71
3
 72
10
 73
6
 74
4
 40
0.000000
 40
0.000000
 40
0.000000
 40
0.000000
 40
5.853175
 40
11.706344
 40
17.559500
 40
17.559500
 40
17.559500
 40
17.559500
 10
167.936370
 20
198.409011
 30
0.0
 10
169.887428
 20
198.409011
 30
0.0
 10
173.789543
 20
198.409011
 30
0.0
 10
179.642709
 20
198.409011
 30
0.0
 10
183.544818
 20
198.409011
 30
0.0
 10
185.495870
 20
198.409011
 30
0.0
 11
167.936370
 21
198.409011
 31
0.0
 11
173.789545
 21
198.409011
 31
0.0
 11
179.642714
 21
198.409011
 31
0.0
 11
185.495870
 21
198.409011
 31
0.0
  0
SPLINE
  5
20e
100
AcDbEntity
  8
0
 62
7
100
AcDbSpline
 70
0
 71
3
 72
10
 73
6
 74
4
 40
0.000000
 40
0.000000
 40
0.000000
 40
0.000000
 40
3.099286
 40
6.288064
 40
9.461079
 40
9.461079
 40
9.461079
 40
9.461079
 10
185.495870
 20
198.409011
 30
0.0
 10
186.036922
 20
199.309297
 30
0.0
 10
187.134648
 20
201.135866
 30
0.0
 10
187.136665
 20
204.414633
 30
0.0
 10
186.606808
 20
206.462715
 30
0.0
 10
186.342536
 20
207.484219
 30
0.0
 11
185.495870
 21
198.409011
 31
0.0
 11
186.852675
 21
201.195524
 31
0.0
 11
187.003206
 21
204.380747
 31
0.0
 11
186.342536
 21
207.484219
 31
0.0
  0
LWPOLYLINE
  5
20f
100
AcDbEntity
  8
0
 62
7
100
AcDbPolyline
 90
2
 70
0
 10
174.806703
 20
234.510895
 30
0.0
 10
174.806703
 20
234.510895
 30
0.0
  0
SPLINE
  5
210
100
AcDbEntity
  8
0
 62
7
100
AcDbSpline
 70
0
 71
3
 72
10
 73
6
 74
4
 40
0.000000
 40
0.000000
 40
0.000000
 40
0.000000
 40
5.030849
 40
10.036279
 40
15.062328
 40
15.062328
 40
15.062328
 40
15.062328
 10
186.342536
 20
207.484219
 30
0.0
 10
185.613225
 20
209.011221
 30
0.0
 10
184.158286
 20
212.057510
 30
0.0
 10
179.866281
 20
215.201864
 30
0.0
 10
176.495539
 20
215.530478
 30
0.0
 10
174.806703
 20
215.695122
 30
0.0
 11
186.342536
 21
207.484219
 31
0.0
 11
183.801596
 21
211.826231
 31
0.0
 11
179.744614
 21
214.757992
 31
0.0
 11
174.806703
 21
215.695122
 31
0.0
  0
SPLINE
  5
211
100
AcDbEntity
  8
0
 62
7
100
AcDbSpline
 70
0
 71
3
 72
10
 73
6
 74
4
 40
0.000000
 40
0.000000
 40
0.000000
 40
0.000000
 40
7.386990
 40
14.840121
 40
22.220272
 40
22.220272
 40
22.220272
 40
22.220272
 10
173.951457
 20
271.572268
 30
0.0
 10
171.473876
 20
271.077393
 30
0.0
 10
166.496531
 20
270.083211
 30
0.0
 10
161.659435
 20
263.305841
 30
0.0
 10
162.246835
 20
258.278131
 30
0.0
 10
162.539090
 20
255.776644
 30
0.0
 11
173.951457
 21
271.572268
 31
0.0
 11
166.951536
 21
269.212450
 31
0.0
 11
162.607068
 21
263.156482
 31
0.0
 11
162.539090
 21
255.776644
 31
0.0
  0
SPLINE
  5
212
100
AcDbEntity
  8
0
 62
7
100
AcDbSpline
 70
0
 71
3
 72
10
 73
6
 74
4
 40
0.000000
 40
0.000000
 40
0.000000
 40
0.000000
 40
1.679089
 40
3.444788
 40
5.241101
 40
5.241101
 40
5.241101
 40
5.241101
 10
162.539090
 20
255.776644
 30
0.0
 10
162.809312
 20
255.224061
 30
0.0
 10
163.363694
 20
254.090392
 30
0.0
 10
165.343448
 20
254.287862
 30
0.0
 10
166.498589
 20
254.286729
 30
0.0
 10
167.081124
 20
254.286158
 30
0.0
 11
162.539090
 21
255.776644
 31
0.0
 11
163.527195
 21
254.419077
 31
0.0
 11
165.285109
 21
254.253453
 31
0.0
 11
167.081124
 21
254.286158
 31
0.0
  0
SPLINE
  5
213
100
AcDbEntity
  8
0
 62
7
100
AcDbSpline
 70
0
 71
3
 72
10
 73
6
 74
4
 40
0.000000
 40
0.000000
 40
0.000000
 40
0.000000
 40
5.853175
 40
11.706344
 40
17.559500
 40
17.559500
 40
17.559500
 40
17.559500
 10
167.081124
 20
254.286158
 30
0.0
 10
169.032182
 20
254.286158
 30
0.0
 10
172.934297
 20
254.286158
 30
0.0
 10
178.787463
 20
254.286158
 30
0.0
 10
182.689572
 20
254.286158
 30
0.0
 10
184.640624
 20
254.286158
 30
0.0
 11
167.081124
 21
254.286158
 31
0.0
 11
172.934299
 21
254.286158
 31
0.0
 11
178.787467
 21
254.286158
 31
0.0
 11
184.640624
 21
254.286158
 31
0.0
  0
SPLINE
  5
214
100
AcDbEntity
  8
0
 62
7
100
AcDbSpline
 70
0
 71
3
 72
10
 73
6
 74
4
 40
0.000000
 40
0.000000
 40
0.000000
 40
0.000000
 40
3.099286
 40
6.288064
 40
9.461079
 40
9.461079
 40
9.461079
 40
9.461079
 10
184.640624
 20
254.286158
 30
0.0
 10
185.181675
 20
255.186444
 30
0.0
 10
186.279402
 20
257.013012
 30
0.0
 10
186.281419
 20
260.291779
 30
0.0
 10
185.751562
 20
262.339862
 30
0.0
 10
185.487290
 20
263.361366
 30
0.0
 11
184.640624
 21
254.286158
 31
0.0
 11
185.997429
 21
257.072670
 31
0.0
 11
186.147960
 21
260.257893
 31
0.0
 11
185.487290
 21
263.361366
 31
0.0
  0
LWPOLYLINE
  5
215
100
AcDbEntity
  8
0
 62
7
100
AcDbPolyline
 90
2
 70
0
 10
174.806703
 20
215.695122
 30
0.0
 10
174.806703
 20
215.695122
 30
0.0
  0
SPLINE
  5
216
100
AcDbEntity
  8
0
 62
7
100
AcDbSpline
 70
0
 71
3
 72
10
 73
6
 74
4
 40
0.000000
 40
0.000000
 40
0.000000
 40
0.000000
 40
5.030849
 40
10.036279
 40
15.062328
 40
15.062328
 40
15.062328
 40
15.062328
 10
185.487290
 20
263.361366
 30
0.0
 10
184.757978
 20
264.888368
 30
0.0
 10
183.303040
 20
267.934656
 30
0.0
 10
179.011035
 20
271.079010
 30
0.0
 10
175.640292
 20
271.407623
 30
0.0
 10
173.951457
 20
271.572268
 30
0.0
 11
185.487290
 21
263.361366
 31
0.0
 11
182.946350
 21
267.703377
 31
0.0
 11
178.889367
 21
270.635138
 31
0.0
 11
173.951457
 21
271.572268
 31
0.0
  0
SPLINE
  5
217
100
AcDbEntity
  8
0
 62
7
100
AcDbSpline
 70
0
 71
3
 72
10
 73
6
 74
4
 40
0.000000
 40
0.000000
 40
0.000000
 40
0.000000
 40
7.386989
 40
14.840119
 40
22.220275
 40
22.220275
 40
22.220275
 40
22.220275
 10
175.519427
 20
178.167793
 30
0.0
 10
173.041847
 20
177.672919
 30
0.0
 10
168.064502
 20
176.678738
 30
0.0
 10
163.227407
 20
169.901367
 30
0.0
 10
163.814808
 20
164.873655
 30
0.0
 10
164.107063
 20
162.372166
 30
0.0
 11
175.519427
 21
178.167793
 31
0.0
 11
168.519507
 21
175.807977
 31
0.0
 11
164.175041
 21
169.752009
 31
0.0
 11
164.107063
 21
162.372166
 31
0.0
  0
SPLINE
  5
218
100
AcDbEntity
  8
0
 62
7
100
AcDbSpline
 70
0
 71
3
 72
10
 73
6
 74
4
 40
0.000000
 40
0.000000
 40
0.000000
 40
0.000000
 40
1.679081
 40
3.444779
 40
5.241090
 40
5.241090
 40
5.241090
 40
5.241090
 10
164.107063
 20
162.372166
 30
0.0
 10
164.377286
 20
161.819586
 30
0.0
 10
164.931670
 20
160.685923
 30
0.0
 10
166.911420
 20
160.883397
 30
0.0
 10
168.066560
 20
160.882265
 30
0.0
 10
168.649094
 20
160.881694
 30
0.0
 11
164.107063
 21
162.372166
 31
0.0
 11
165.095168
 21
161.014608
 31
0.0
 11
166.853081
 21
160.848987
 31
0.0
 11
168.649094
 21
160.881694
 31
0.0
  0
SPLINE
  5
219
100
AcDbEntity
  8
0
 62
7
100
AcDbSpline
 70
0
 71
3
 72
10
 73
6
 74
4
 40
0.000000
 40
0.000000
 40
0.000000
 40
0.000000
 40
5.853175
 40
11.706344
 40
17.559500
 40
17.559500
 40
17.559500
 40
17.559500
 10
168.649094
 20
160.881694
 30
0.0
 10
170.600152
 20
160.881694
 30
0.0
 10
174.502267
 20
160.881694
 30
0.0
 10
180.355433
 20
160.881694
 30
0.0
 10
184.257542
 20
160.881694
 30
0.0
 10
186.208594
 20
160.881694
 30
0.0
 11
168.649094
 21
160.881694
 31
0.0
 11
174.502269
 21
160.881694
 31
0.0
 11
180.355438
 21
160.881694
 31
0.0
 11
186.208594
 21
160.881694
 31
0.0
  0
SPLINE
  5
21a
100
AcDbEntity
  8
0
 62
7
100
AcDbSpline
 70
0
 71
3
 72
10
 73
6
 74
4
 40
0.000000
 40
0.000000
 40
0.000000
 40
0.000000
 40
3.099283
 40
6.288059
 40
9.461066
 40
9.461066
 40
9.461066
 40
9.461066
 10
186.208594
 20
160.881694
 30
0.0
 10
186.749646
 20
161.781979
 30
0.0
 10
187.847372
 20
163.608545
 30
0.0
 10
187.849389
 20
166.887308
 30
0.0
 10
187.319532
 20
168.935387
 30
0.0
 10
187.055260
 20
169.956888
 30
0.0
 11
186.208594
 21
160.881694
 31
0.0
 11
187.565399
 21
163.668203
 31
0.0
 11
187.715930
 21
166.853424
 31
0.0
 11
187.055260
 21
169.956888
 31
0.0
  0
LWPOLYLINE
  5
21b
100
AcDbEntity
  8
0
 62
7
100
AcDbPolyline
 90
2
 70
0
 10
173.951457
 20
271.572268
 30
0.0
 10
173.951457
 20
271.572268
 30
0.0
  0
SPLINE
  5
21c
100
AcDbEntity
  8
0
 62
7
100
AcDbSpline
 70
0
 71
3
 72
10
 73
6
 74
4
 40
0.000000
 40
0.000000
 40
0.000000
 40
0.000000
 40
5.030851
 40
10.036281
 40
15.062331
 40
15.062331
 40
15.062331
 40
15.062331
 10
187.055260
 20
169.956888
 30
0.0
 10
186.325949
 20
171.483890
 30
0.0
 10
184.871010
 20
174.530180
 30
0.0
 10
180.579006
 20
177.674535
 30
0.0
 10
177.208263
 20
178.003149
 30
0.0
 10
175.519427
 20
178.167793
 30
0.0
 11
187.055260
 21
169.956888
 31
0.0
 11
184.514320
 21
174.298901
 31
0.0
 11
180.457338
 21
177.230663
 31
0.0
 11
175.519427
 21
178.167793
 31
0.0
  0
SPLINE
  5
21d
100
AcDbEntity
  8
0
 62
7
100
AcDbSpline
 70
0
 71
3
 72
10
 73
6
 74
4
 40
0.000000
 40
0.000000
 40
0.000000
 40
0.000000
 40
7.386989
 40
14.840116
 40
22.220269
 40
22.220269
 40
22.220269
 40
22.220269
 10
176.089601
 20
159.247796
 30
0.0
 10
173.612021
 20
158.752918
 30
0.0
 10
168.634679
 20
157.758731
 30
0.0
 10
163.797590
 20
150.981360
 30
0.0
 10
164.384992
 20
145.953650
 30
0.0
 10
164.677248
 20
143.452163
 30
0.0
 11
176.089601
 21
159.247796
 31
0.0
 11
169.089684
 21
156.887971
 31
0.0
 11
164.745223
 21
150.832002
 31
0.0
 11
164.677248
 21
143.452163
 31
0.0
  0
SPLINE
  5
21e
100
AcDbEntity
  8
0
 62
7
100
AcDbSpline
 70
0
 71
3
 72
10
 73
6
 74
4
 40
0.000000
 40
0.000000
 40
0.000000
 40
0.000000
 40
1.679080
 40
3.444772
 40
5.241080
 40
5.241080
 40
5.241080
 40
5.241080
 10
164.677248
 20
143.452163
 30
0.0
 10
164.947469
 20
142.899584
 30
0.0
 10
165.501851
 20
141.765921
 30
0.0
 10
167.481597
 20
141.963394
 30
0.0
 10
168.636735
 20
141.962262
 30
0.0
 10
169.219268
 20
141.961691
 30
0.0
 11
164.677248
 21
143.452163
 31
0.0
 11
165.665350
 21
142.094605
 31
0.0
 11
167.423258
 21
141.928984
 31
0.0
 11
169.219268
 21
141.961691
 31
0.0
  0
SPLINE
  5
21f
100
AcDbEntity
  8
0
 62
7
100
AcDbSpline
 70
0
 71
3
 72
10
 73
6
 74
4
 40
0.000000
 40
0.000000
 40
0.000000
 40
0.000000
 40
5.853175
 40
11.706344
 40
17.559500
 40
17.559500
 40
17.559500
 40
17.559500
 10
169.219268
 20
141.961691
 30
0.0
 10
171.170326
 20
141.961691
 30
0.0
 10
175.072440
 20
141.961691
 30
0.0
 10
180.925607
 20
141.961691
 30
0.0
 10
184.827715
 20
141.961691
 30
0.0
 10
186.778767
 20
141.961691
 30
0.0
 11
169.219268
 21
141.961691
 31
0.0
 11
175.072443
 21
141.961691
 31
0.0
 11
180.925611
 21
141.961691
 31
0.0
 11
186.778767
 21
141.961691
 31
0.0
  0
SPLINE
  5
220
100
AcDbEntity
  8
0
 62
7
100
AcDbSpline
 70
0
 71
3
 72
10
 73
6
 74
4
 40
0.000000
 40
0.000000
 40
0.000000
 40
0.000000
 40
3.099283
 40
6.288057
 40
9.461060
 40
9.461060
 40
9.461060
 40
9.461060
 10
186.778767
 20
141.961691
 30
0.0
 10
187.319819
 20
142.861976
 30
0.0
 10
188.417545
 20
144.688542
 30
0.0
 10
188.419563
 20
147.967302
 30
0.0
 10
187.889706
 20
150.015379
 30
0.0
 10
187.625434
 20
151.036879
 30
0.0
 11
186.778767
 21
141.961691
 31
0.0
 11
188.135573
 21
144.748200
 31
0.0
 11
188.286104
 21
147.933419
 31
0.0
 11
187.625434
 21
151.036879
 31
0.0
  0
LWPOLYLINE
  5
221
100
AcDbEntity
  8
0
 62
7
100
AcDbPolyline
 90
2
 70
0
 10
175.519427
 20
178.167793
 30
0.0
 10
175.519427
 20
178.167793
 30
0.0
  0
SPLINE
  5
222
100
AcDbEntity
  8
0
 62
7
100
AcDbSpline
 70
0
 71
3
 72
10
 73
6
 74
4
 40
0.000000
 40
0.000000
 40
0.000000
 40
0.000000
 40
5.030860
 40
10.036293
 40
15.062342
 40
15.062342
 40
15.062342
 40
15.062342
 10
187.625434
 20
151.036879
 30
0.0
 10
186.896123
 20
152.563886
 30
0.0
 10
185.441186
 20
155.610180
 30
0.0
 10
181.149181
 20
158.754543
 30
0.0
 10
177.778436
 20
159.083153
 30
0.0
 10
176.089601
 20
159.247796
 30
0.0
 11
187.625434
 21
151.036879
 31
0.0
 11
185.084493
 21
155.378904
 31
0.0
 11
181.027511
 21
158.310670
 31
0.0
 11
176.089601
 21
159.247796
 31
0.0
  0
SPLINE
  5
223
100
AcDbEntity
  8
0
 62
7
100
AcDbSpline
 70
0
 71
3
 72
10
 73
6
 74
4
 40
0.000000
 40
0.000000
 40
0.000000
 40
0.000000
 40
7.386985
 40
14.840119
 40
22.220281
 40
22.220281
 40
22.220281
 40
22.220281
 10
176.089601
 20
140.432018
 30
0.0
 10
173.612020
 20
139.937145
 30
0.0
 10
168.634674
 20
138.942967
 30
0.0
 10
163.797590
 20
132.165583
 30
0.0
 10
164.384992
 20
127.137869
 30
0.0
 10
164.677248
 20
124.636379
 30
0.0
 11
176.089601
 21
140.432018
 31
0.0
 11
169.089684
 21
138.072205
 31
0.0
 11
164.745223
 21
132.016229
 31
0.0
 11
164.677248
 21
124.636379
 31
0.0
  0
SPLINE
  5
224
100
AcDbEntity
  8
0
 62
7
100
AcDbSpline
 70
0
 71
3
 72
10
 73
6
 74
4
 40
0.000000
 40
0.000000
 40
0.000000
 40
0.000000
 40
1.679080
 40
3.444772
 40
5.241080
 40
5.241080
 40
5.241080
 40
5.241080
 10
164.677248
 20
124.636379
 30
0.0
 10
164.947469
 20
124.083800
 30
0.0
 10
165.501851
 20
122.950138
 30
0.0
 10
167.481597
 20
123.147610
 30
0.0
 10
168.636735
 20
123.146478
 30
0.0
 10
169.219268
 20
123.145907
 30
0.0
 11
164.677248
 21
124.636379
 31
0.0
 11
165.665350
 21
123.278821
 31
0.0
 11
167.423258
 21
123.113201
 31
0.0
 11
169.219268
 21
123.145907
 31
0.0
  0
SPLINE
  5
225
100
AcDbEntity
  8
0
 62
7
100
AcDbSpline
 70
0
 71
3
 72
10
 73
6
 74
4
 40
0.000000
 40
0.000000
 40
0.000000
 40
0.000000
 40
5.853175
 40
11.706344
 40
17.559500
 40
17.559500
 40
17.559500
 40
17.559500
 10
169.219268
 20
123.145907
 30
0.0
 10
171.170326
 20
123.145907
 30
0.0
 10
175.072440
 20
123.145907
 30
0.0
 10
180.925607
 20
123.145907
 30
0.0
 10
184.827715
 20
123.145907
 30
0.0
 10
186.778767
 20
123.145907
 30
0.0
 11
169.219268
 21
123.145907
 31
0.0
 11
175.072443
 21
123.145907
 31
0.0
 11
180.925611
 21
123.145907
 31
0.0
 11
186.778767
 21
123.145907
 31
0.0
  0
SPLINE
  5
226
100
AcDbEntity
  8
0
 62
7
100
AcDbSpline
 70
0
 71
3
 72
10
 73
6
 74
4
 40
0.000000
 40
0.000000
 40
0.000000
 40
0.000000
 40
3.099284
 40
6.288067
 40
9.461093
 40
9.461093
 40
9.461093
 40
9.461093
 10
186.778767
 20
123.145907
 30
0.0
 10
187.319819
 20
124.046193
 30
0.0
 10
188.417547
 20
125.872761
 30
0.0
 10
188.419562
 20
129.151534
 30
0.0
 10
187.889706
 20
131.199622
 30
0.0
 10
187.625434
 20
132.221129
 30
0.0
 11
186.778767
 21
123.145907
 31
0.0
 11
188.135573
 21
125.932418
 31
0.0
 11
188.286104
 21
129.117646
 31
0.0
 11
187.625434
 21
132.221129
 31
0.0
  0
LWPOLYLINE
  5
227
100
AcDbEntity
  8
0
 62
7
100
AcDbPolyline
 90
2
 70
0
 10
176.089601
 20
159.247796
 30
0.0
 10
176.089601
 20
159.247796
 30
0.0
  0
SPLINE
  5
228
100
AcDbEntity
  8
0
 62
7
100
AcDbSpline
 70
0
 71
3
 72
10
 73
6
 74
4
 40
0.000000
 40
0.000000
 40
0.000000
 40
0.000000
 40
5.030843
 40
10.036272
 40
15.062320
 40
15.062320
 40
15.062320
 40
15.062320
 10
187.625434
 20
132.221129
 30
0.0
 10
186.896122
 20
133.748129
 30
0.0
 10
185.441182
 20
136.794414
 30
0.0
 10
181.149179
 20
139.938765
 30
0.0
 10
177.778436
 20
140.267375
 30
0.0
 10
176.089601
 20
140.432018
 30
0.0
 11
187.625434
 21
132.221129
 31
0.0
 11
185.084493
 21
136.563134
 31
0.0
 11
181.027511
 21
139.494893
 31
0.0
 11
176.089601
 21
140.432018
 31
0.0
  0
SPLINE
  5
229
100
AcDbEntity
  8
0
 62
7
100
AcDbSpline
 70
0
 71
3
 72
10
 73
6
 74
4
 40
0.000000
 40
0.000000
 40
0.000000
 40
0.000000
 40
7.386992
 40
14.840125
 40
22.220276
 40
22.220276
 40
22.220276
 40
22.220276
 10
175.234354
 20
196.309168
 30
0.0
 10
172.756773
 20
195.814292
 30
0.0
 10
167.779428
 20
194.820110
 30
0.0
 10
162.942329
 20
188.042741
 30
0.0
 10
163.529728
 20
183.015030
 30
0.0
 10
163.821982
 20
180.513543
 30
0.0
 11
175.234354
 21
196.309168
 31
0.0
 11
168.234432
 21
193.949350
 31
0.0
 11
163.889962
 21
187.893381
 31
0.0
 11
163.821982
 21
180.513543
 31
0.0
  0
SPLINE
  5
22a
100
AcDbEntity
  8
0
 62
7
100
AcDbSpline
 70
0
 71
3
 72
10
 73
6
 74
4
 40
0.000000
 40
0.000000
 40
0.000000
 40
0.000000
 40
1.679090
 40
3.444793
 40
5.241105
 40
5.241105
 40
5.241105
 40
5.241105
 10
163.821982
 20
180.513543
 30
0.0
 10
164.092205
 20
179.960960
 30
0.0
 10
164.646589
 20
178.827291
 30
0.0
 10
166.626345
 20
179.024761
 30
0.0
 10
167.781487
 20
179.023628
 30
0.0
 10
168.364021
 20
179.023056
 30
0.0
 11
163.821982
 21
180.513543
 31
0.0
 11
164.810089
 21
179.155975
 31
0.0
 11
166.568006
 21
178.990352
 31
0.0
 11
168.364021
 21
179.023056
 31
0.0
  0
SPLINE
  5
22b
100
AcDbEntity
  8
0
 62
7
100
AcDbSpline
 70
0
 71
3
 72
10
 73
6
 74
4
 40
0.000000
 40
0.000000
 40
0.000000
 40
0.000000
 40
5.853175
 40
11.706344
 40
17.559500
 40
17.559500
 40
17.559500
 40
17.559500
 10
168.364021
 20
179.023056
 30
0.0
 10
170.315080
 20
179.023056
 30
0.0
 10
174.217194
 20
179.023056
 30
0.0
 10
180.070361
 20
179.023056
 30
0.0
 10
183.972469
 20
179.023056
 30
0.0
 10
185.923521
 20
179.023056
 30
0.0
 11
168.364021
 21
179.023056
 31
0.0
 11
174.217196
 21
179.023056
 31
0.0
 11
180.070365
 21
179.023056
 31
0.0
 11
185.923521
 21
179.023056
 31
0.0
  0
SPLINE
  5
22c
100
AcDbEntity
  8
0
 62
7
100
AcDbSpline
 70
0
 71
3
 72
10
 73
6
 74
4
 40
0.000000
 40
0.000000
 40
0.000000
 40
0.000000
 40
3.099286
 40
6.288064
 40
9.461079
 40
9.461079
 40
9.461079
 40
9.461079
 10
185.923521
 20
179.023056
 30
0.0
 10
186.464573
 20
179.923343
 30
0.0
 10
187.562299
 20
181.749911
 30
0.0
 10
187.564316
 20
185.028678
 30
0.0
 10
187.034460
 20
187.076761
 30
0.0
 10
186.770188
 20
188.098265
 30
0.0
 11
185.923521
 21
179.023056
 31
0.0
 11
187.280326
 21
181.809569
 31
0.0
 11
187.430857
 21
184.994792
 31
0.0
 11
186.770188
 21
188.098265
 31
0.0
  0
LWPOLYLINE
  5
22d
100
AcDbEntity
  8
0
 62
7
100
AcDbPolyline
 90
2
 70
0
 10
176.089601
 20
140.432018
 30
0.0
 10
176.089601
 20
140.432018
 30
0.0
  0
SPLINE
  5
22e
100
AcDbEntity
  8
0
 62
7
100
AcDbSpline
 70
0
 71
3
 72
10
 73
6
 74
4
 40
0.000000
 40
0.000000
 40
0.000000
 40
0.000000
 40
5.030849
 40
10.036279
 40
15.062328
 40
15.062328
 40
15.062328
 40
15.062328
 10
186.770188
 20
188.098265
 30
0.0
 10
186.040876
 20
189.625267
 30
0.0
 10
184.585937
 20
192.671555
 30
0.0
 10
180.293933
 20
195.815909
 30
0.0
 10
176.923190
 20
196.144523
 30
0.0
 10
175.234354
 20
196.309168
 30
0.0
 11
186.770188
 21
188.098265
 31
0.0
 11
184.229247
 21
192.440276
 31
0.0
 11
180.172265
 21
195.372038
 31
0.0
 11
175.234354
 21
196.309168
 31
0.0
  0
LWPOLYLINE
  5
22f
100
AcDbEntity
  8
0
 62
7
100
AcDbPolyline
 90
2
 70
0
 10
175.234354
 20
196.309168
 30
0.0
 10
175.234354
 20
196.309168
 30
0.0
  0
ENDSEC
  0
SECTION
  2
OBJECTS
  0
DICTIONARY
  5
C
330
0
100
AcDbDictionary
  3
ACAD_GROUP
350
D
  3
ACAD_MLINESTYLE
350
17
  0
DICTIONARY
  5
D
330
C
100
AcDbDictionary
  0
DICTIONARY
  5
1A
330
C
100
AcDbDictionary
  0
DICTIONARY
  5
17
330
C
100
AcDbDictionary
  3
STANDARD
350
18
  0
DICTIONARY
  5
19
330
C
100
AcDbDictionary
  0
ENDSEC
  0
EOF
