  0
SECTION
  2
HEADER
  9
$ACADVER
  1
AC1014
  9
$HANDSEED
  5
FFFF
  9
$MEASUREMENT
 70
     1
  0
ENDSEC
  0
SECTION
  2
TABLES
  0
TABLE
  2
VPORT
  5
8
330
0
100
AcDbSymbolTable
 70
     4
  0
VPORT
  5
2E
330
8
100
AcDbSymbolTableRecord
100
AcDbViewportTableRecord
  2
*ACTIVE
 70
     0
 10
0.0
 20
0.0
 11
1.0
 21
1.0
 12
210.0
 22
148.5
 13
0.0
 23
0.0
 14
10.0
 24
10.0
 15
10.0
 25
10.0
 16
0.0
 26
0.0
 36
1.0
 17
0.0
 27
0.0
 37
0.0
 40
341.0
 41
1.24
 42
50.0
 43
0.0
 44
0.0
 50
0.0
 51
0.0
 71
     0
 72
   100
 73
     1
 74
     3
 75
     0
 76
     0
 77
     0
 78
     0
  0
ENDTAB
  0
TABLE
  2
LTYPE
  5
5
330
0
100
AcDbSymbolTable
 70
     1
  0
LTYPE
  5
14
330
5
100
AcDbSymbolTableRecord
100
AcDbLinetypeTableRecord
  2
BYBLOCK
 70
     0
  3

 72
    65
 73
     0
 40
0.0
  0
LTYPE
  5
15
330
5
100
AcDbSymbolTableRecord
100
AcDbLinetypeTableRecord
  2
BYLAYER
 70
     0
  3

 72
    65
 73
     0
 40
0.0
  0
LTYPE
  5
16
330
5
100
AcDbSymbolTableRecord
100
AcDbLinetypeTableRecord
  2
CONTINUOUS
 70
     0
  3
Solid line
 72
    65
 73
     0
 40
0.0
  0
ENDTAB
  0
TABLE
  2
LAYER
  5
2
100
AcDbSymbolTable
 70
1
  0
LAYER
  5
50
100
AcDbSymbolTableRecord
100
AcDbLayerTableRecord
  2
0
 70
0
  6
CONTINUOUS
  0
ENDTAB
  0
TABLE
  2
STYLE
  5
3
330
0
100
AcDbSymbolTable
 70
     1
  0
STYLE
  5
11
330
3
100
AcDbSymbolTableRecord
100
AcDbTextStyleTableRecord
  2
STANDARD
 70
     0
 40
0.0
 41
1.0
 50
0.0
 71
     0
 42
2.5
  3
txt
  4

  0
ENDTAB
  0
TABLE
  2
VIEW
  5
6
330
0
100
AcDbSymbolTable
 70
     0
  0
ENDTAB
  0
TABLE
  2
UCS
  5
7
330
0
100
AcDbSymbolTable
 70
     0
  0
ENDTAB
  0
TABLE
  2
APPID
  5
9
330
0
100
AcDbSymbolTable
 70
     2
  0
APPID
  5
12
330
9
100
AcDbSymbolTableRecord
100
AcDbRegAppTableRecord
  2
ACAD
 70
     0
  0
ENDTAB
  0
TABLE
  2
DIMSTYLE
  5
A
330
0
100
AcDbSymbolTable
 70
     1
  0
DIMSTYLE
105
27
330
A
100
AcDbSymbolTableRecord
100
AcDbDimStyleTableRecord
  2
ISO-25
 70
     0
  3

  4

  5

  6

  7

 40
1.0
 41
2.5
 42
0.625
 43
3.75
 44
1.25
 45
0.0
 46
0.0
 47
0.0
 48
0.0
140
2.5
141
2.5
142
0.0
143
0.03937007874016
144
1.0
145
0.0
146
1.0
147
0.625
 71
     0
 72
     0
 73
     0
 74
     0
 75
     0
 76
     0
 77
     1
 78
     8
170
     0
171
     3
172
     1
173
     0
174
     0
175
     0
176
     0
177
     0
178
     0
270
     2
271
     2
272
     2
273
     2
274
     3
340
11
275
     0
280
     0
281
     0
282
     0
283
     0
284
     8
285
     0
286
     0
287
     3
288
     0
  0
ENDTAB
  0
TABLE
  2
BLOCK_RECORD
  5
1
330
0
100
AcDbSymbolTable
 70
     1
  0
BLOCK_RECORD
  5
1F
330
1
100
AcDbSymbolTableRecord
100
AcDbBlockTableRecord
  2
*MODEL_SPACE
  0
BLOCK_RECORD
  5
1B
330
1
100
AcDbSymbolTableRecord
100
AcDbBlockTableRecord
  2
*PAPER_SPACE
  0
ENDTAB
  0
ENDSEC
  0
SECTION
  2
BLOCKS
  0
BLOCK
  5
20
330
1F
100
AcDbEntity
  8
0
100
AcDbBlockBegin
  2
*MODEL_SPACE
 70
     0
 10
0.0
 20
0.0
 30
0.0
  3
*MODEL_SPACE
  1

  0
ENDBLK
  5
21
330
1F
100
AcDbEntity
  8
0
100
AcDbBlockEnd
  0
BLOCK
  5
1C
330
1B
100
AcDbEntity
 67
     1
  8
0
100
AcDbBlockBegin
  2
*PAPER_SPACE
  1

  0
ENDBLK
  5
1D
330
1B
100
AcDbEntity
 67
     1
  8
0
100
AcDbBlockEnd
  0
ENDSEC
  0
SECTION
  2
ENTITIES
  0
SPLINE
  5
100
100
AcDbEntity
  8
0
 62
7
100
AcDbSpline
 70
8
 71
3
 72
8
 73
4
 74
0
 40
0
 40
0
 40
0
 40
0
 40
1
 40
1
 40
1
 40
1
 10
169.450705
 20
145.189528
 30
0.0
 10
171.079950
 20
145.189528
 30
0.0
 10
172.400701
 20
143.868768
 30
0.0
 10
172.400701
 20
142.239529
 30
0.0
  0
SPLINE
  5
101
100
AcDbEntity
  8
0
 62
7
100
AcDbSpline
 70
8
 71
3
 72
8
 73
4
 74
0
 40
0
 40
0
 40
0
 40
0
 40
1
 40
1
 40
1
 40
1
 10
172.400701
 20
142.239529
 30
0.0
 10
172.400701
 20
140.610289
 30
0.0
 10
171.079950
 20
139.289528
 30
0.0
 10
169.450705
 20
139.289528
 30
0.0
  0
SPLINE
  5
102
100
AcDbEntity
  8
0
 62
7
100
AcDbSpline
 70
8
 71
3
 72
8
 73
4
 74
0
 40
0
 40
0
 40
0
 40
0
 40
1
 40
1
 40
1
 40
1
 10
169.450705
 20
139.289528
 30
0.0
 10
167.821459
 20
139.289528
 30
0.0
 10
166.500709
 20
140.610289
 30
0.0
 10
166.500709
 20
142.239529
 30
0.0
  0
SPLINE
  5
103
100
AcDbEntity
  8
0
 62
7
100
AcDbSpline
 70
8
 71
3
 72
8
 73
4
 74
0
 40
0
 40
0
 40
0
 40
0
 40
1
 40
1
 40
1
 40
1
 10
166.500709
 20
142.239529
 30
0.0
 10
166.500709
 20
143.868768
 30
0.0
 10
167.821459
 20
145.189528
 30
0.0
 10
169.450705
 20
145.189528
 30
0.0
  0
SPLINE
  5
104
100
AcDbEntity
  8
0
 62
7
100
AcDbSpline
 70
8
 71
3
 72
8
 73
4
 74
0
 40
0
 40
0
 40
0
 40
0
 40
1
 40
1
 40
1
 40
1
 10
169.450705
 20
206.316886
 30
0.0
 10
171.079950
 20
206.316886
 30
0.0
 10
172.400701
 20
204.996126
 30
0.0
 10
172.400701
 20
203.366887
 30
0.0
  0
SPLINE
  5
105
100
AcDbEntity
  8
0
 62
7
100
AcDbSpline
 70
8
 71
3
 72
8
 73
4
 74
0
 40
0
 40
0
 40
0
 40
0
 40
1
 40
1
 40
1
 40
1
 10
172.400701
 20
203.366887
 30
0.0
 10
172.400701
 20
201.737647
 30
0.0
 10
171.079950
 20
200.416886
 30
0.0
 10
169.450705
 20
200.416886
 30
0.0
  0
SPLINE
  5
106
100
AcDbEntity
  8
0
 62
7
100
AcDbSpline
 70
8
 71
3
 72
8
 73
4
 74
0
 40
0
 40
0
 40
0
 40
0
 40
1
 40
1
 40
1
 40
1
 10
169.450705
 20
200.416886
 30
0.0
 10
167.821459
 20
200.416886
 30
0.0
 10
166.500709
 20
201.737647
 30
0.0
 10
166.500709
 20
203.366887
 30
0.0
  0
SPLINE
  5
107
100
AcDbEntity
  8
0
 62
7
100
AcDbSpline
 70
8
 71
3
 72
8
 73
4
 74
0
 40
0
 40
0
 40
0
 40
0
 40
1
 40
1
 40
1
 40
1
 10
166.500709
 20
203.366887
 30
0.0
 10
166.500709
 20
204.996126
 30
0.0
 10
167.821459
 20
206.316886
 30
0.0
 10
169.450705
 20
206.316886
 30
0.0
  0
LWPOLYLINE
  5
108
100
AcDbEntity
  8
0
 62
7
100
AcDbPolyline
 90
2
 70
0
 10
169.450705
 20
145.189528
 30
0.0
 10
169.450705
 20
145.189528
 30
0.0
  0
SPLINE
  5
109
100
AcDbEntity
  8
0
 62
7
100
AcDbSpline
 70
8
 71
3
 72
8
 73
4
 74
0
 40
0
 40
0
 40
0
 40
0
 40
1
 40
1
 40
1
 40
1
 10
169.450705
 20
267.444273
 30
0.0
 10
171.079950
 20
267.444273
 30
0.0
 10
172.400701
 20
266.123513
 30
0.0
 10
172.400701
 20
264.494274
 30
0.0
  0
SPLINE
  5
10a
100
AcDbEntity
  8
0
 62
7
100
AcDbSpline
 70
8
 71
3
 72
8
 73
4
 74
0
 40
0
 40
0
 40
0
 40
0
 40
1
 40
1
 40
1
 40
1
 10
172.400701
 20
264.494274
 30
0.0
 10
172.400701
 20
262.865033
 30
0.0
 10
171.079950
 20
261.544273
 30
0.0
 10
169.450705
 20
261.544273
 30
0.0
  0
SPLINE
  5
10b
100
AcDbEntity
  8
0
 62
7
100
AcDbSpline
 70
8
 71
3
 72
8
 73
4
 74
0
 40
0
 40
0
 40
0
 40
0
 40
1
 40
1
 40
1
 40
1
 10
169.450705
 20
261.544273
 30
0.0
 10
167.821459
 20
261.544273
 30
0.0
 10
166.500709
 20
262.865033
 30
0.0
 10
166.500709
 20
264.494274
 30
0.0
  0
SPLINE
  5
10c
100
AcDbEntity
  8
0
 62
7
100
AcDbSpline
 70
8
 71
3
 72
8
 73
4
 74
0
 40
0
 40
0
 40
0
 40
0
 40
1
 40
1
 40
1
 40
1
 10
166.500709
 20
264.494274
 30
0.0
 10
166.500709
 20
266.123513
 30
0.0
 10
167.821459
 20
267.444273
 30
0.0
 10
169.450705
 20
267.444273
 30
0.0
  0
LWPOLYLINE
  5
10d
100
AcDbEntity
  8
0
 62
7
100
AcDbPolyline
 90
2
 70
0
 10
169.450705
 20
206.316886
 30
0.0
 10
169.450705
 20
206.316886
 30
0.0
  0
SPLINE
  5
10e
100
AcDbEntity
  8
0
 62
7
100
AcDbSpline
 70
8
 71
3
 72
8
 73
4
 74
0
 40
0
 40
0
 40
0
 40
0
 40
1
 40
1
 40
1
 40
1
 10
102.359822
 20
267.914963
 30
0.0
 10
103.989067
 20
267.914963
 30
0.0
 10
105.309818
 20
266.594203
 30
0.0
 10
105.309818
 20
264.964964
 30
0.0
  0
SPLINE
  5
10f
100
AcDbEntity
  8
0
 62
7
100
AcDbSpline
 70
8
 71
3
 72
8
 73
4
 74
0
 40
0
 40
0
 40
0
 40
0
 40
1
 40
1
 40
1
 40
1
 10
105.309818
 20
264.964964
 30
0.0
 10
105.309818
 20
263.335724
 30
0.0
 10
103.989067
 20
262.014963
 30
0.0
 10
102.359822
 20
262.014963
 30
0.0
  0
SPLINE
  5
110
100
AcDbEntity
  8
0
 62
7
100
AcDbSpline
 70
8
 71
3
 72
8
 73
4
 74
0
 40
0
 40
0
 40
0
 40
0
 40
1
 40
1
 40
1
 40
1
 10
102.359822
 20
262.014963
 30
0.0
 10
100.730577
 20
262.014963
 30
0.0
 10
99.409826
 20
263.335724
 30
0.0
 10
99.409826
 20
264.964964
 30
0.0
  0
SPLINE
  5
111
100
AcDbEntity
  8
0
 62
7
100
AcDbSpline
 70
8
 71
3
 72
8
 73
4
 74
0
 40
0
 40
0
 40
0
 40
0
 40
1
 40
1
 40
1
 40
1
 10
99.409826
 20
264.964964
 30
0.0
 10
99.409826
 20
266.594203
 30
0.0
 10
100.730577
 20
267.914963
 30
0.0
 10
102.359822
 20
267.914963
 30
0.0
  0
LWPOLYLINE
  5
112
100
AcDbEntity
  8
0
 62
7
100
AcDbPolyline
 90
2
 70
0
 10
169.450705
 20
267.444273
 30
0.0
 10
169.450705
 20
267.444273
 30
0.0
  0
SPLINE
  5
113
100
AcDbEntity
  8
0
 62
7
100
AcDbSpline
 70
8
 71
3
 72
8
 73
4
 74
0
 40
0
 40
0
 40
0
 40
0
 40
1
 40
1
 40
1
 40
1
 10
102.359822
 20
206.787576
 30
0.0
 10
103.989067
 20
206.787576
 30
0.0
 10
105.309818
 20
205.466816
 30
0.0
 10
105.309818
 20
203.837577
 30
0.0
  0
SPLINE
  5
114
100
AcDbEntity
  8
0
 62
7
100
AcDbSpline
 70
8
 71
3
 72
8
 73
4
 74
0
 40
0
 40
0
 40
0
 40
0
 40
1
 40
1
 40
1
 40
1
 10
105.309818
 20
203.837577
 30
0.0
 10
105.309818
 20
202.208337
 30
0.0
 10
103.989067
 20
200.887576
 30
0.0
 10
102.359822
 20
200.887576
 30
0.0
  0
SPLINE
  5
115
100
AcDbEntity
  8
0
 62
7
100
AcDbSpline
 70
8
 71
3
 72
8
 73
4
 74
0
 40
0
 40
0
 40
0
 40
0
 40
1
 40
1
 40
1
 40
1
 10
102.359822
 20
200.887576
 30
0.0
 10
100.730577
 20
200.887576
 30
0.0
 10
99.409826
 20
202.208337
 30
0.0
 10
99.409826
 20
203.837577
 30
0.0
  0
SPLINE
  5
116
100
AcDbEntity
  8
0
 62
7
100
AcDbSpline
 70
8
 71
3
 72
8
 73
4
 74
0
 40
0
 40
0
 40
0
 40
0
 40
1
 40
1
 40
1
 40
1
 10
99.409826
 20
203.837577
 30
0.0
 10
99.409826
 20
205.466816
 30
0.0
 10
100.730577
 20
206.787576
 30
0.0
 10
102.359822
 20
206.787576
 30
0.0
  0
LWPOLYLINE
  5
117
100
AcDbEntity
  8
0
 62
7
100
AcDbPolyline
 90
2
 70
0
 10
102.359822
 20
267.914963
 30
0.0
 10
102.359822
 20
267.914963
 30
0.0
  0
SPLINE
  5
118
100
AcDbEntity
  8
0
 62
7
100
AcDbSpline
 70
8
 71
3
 72
8
 73
4
 74
0
 40
0
 40
0
 40
0
 40
0
 40
1
 40
1
 40
1
 40
1
 10
102.359822
 20
145.660219
 30
0.0
 10
103.989067
 20
145.660219
 30
0.0
 10
105.309818
 20
144.339458
 30
0.0
 10
105.309818
 20
142.710219
 30
0.0
  0
SPLINE
  5
119
100
AcDbEntity
  8
0
 62
7
100
AcDbSpline
 70
8
 71
3
 72
8
 73
4
 74
0
 40
0
 40
0
 40
0
 40
0
 40
1
 40
1
 40
1
 40
1
 10
105.309818
 20
142.710219
 30
0.0
 10
105.309818
 20
141.080979
 30
0.0
 10
103.989067
 20
139.760218
 30
0.0
 10
102.359822
 20
139.760218
 30
0.0
  0
SPLINE
  5
11a
100
AcDbEntity
  8
0
 62
7
100
AcDbSpline
 70
8
 71
3
 72
8
 73
4
 74
0
 40
0
 40
0
 40
0
 40
0
 40
1
 40
1
 40
1
 40
1
 10
102.359822
 20
139.760218
 30
0.0
 10
100.730577
 20
139.760218
 30
0.0
 10
99.409826
 20
141.080979
 30
0.0
 10
99.409826
 20
142.710219
 30
0.0
  0
SPLINE
  5
11b
100
AcDbEntity
  8
0
 62
7
100
AcDbSpline
 70
8
 71
3
 72
8
 73
4
 74
0
 40
0
 40
0
 40
0
 40
0
 40
1
 40
1
 40
1
 40
1
 10
99.409826
 20
142.710219
 30
0.0
 10
99.409826
 20
144.339458
 30
0.0
 10
100.730577
 20
145.660219
 30
0.0
 10
102.359822
 20
145.660219
 30
0.0
  0
LWPOLYLINE
  5
11c
100
AcDbEntity
  8
0
 62
7
100
AcDbPolyline
 90
2
 70
0
 10
102.359822
 20
206.787576
 30
0.0
 10
102.359822
 20
206.787576
 30
0.0
  0
SPLINE
  5
11d
100
AcDbEntity
  8
0
 62
7
100
AcDbSpline
 70
8
 71
3
 72
8
 73
4
 74
0
 40
0
 40
0
 40
0
 40
0
 40
1
 40
1
 40
1
 40
1
 10
102.359822
 20
84.532827
 30
0.0
 10
103.989067
 20
84.532827
 30
0.0
 10
105.309818
 20
83.212067
 30
0.0
 10
105.309818
 20
81.582828
 30
0.0
  0
SPLINE
  5
11e
100
AcDbEntity
  8
0
 62
7
100
AcDbSpline
 70
8
 71
3
 72
8
 73
4
 74
0
 40
0
 40
0
 40
0
 40
0
 40
1
 40
1
 40
1
 40
1
 10
105.309818
 20
81.582828
 30
0.0
 10
105.309818
 20
79.953587
 30
0.0
 10
103.989067
 20
78.632827
 30
0.0
 10
102.359822
 20
78.632827
 30
0.0
  0
SPLINE
  5
11f
100
AcDbEntity
  8
0
 62
7
100
AcDbSpline
 70
8
 71
3
 72
8
 73
4
 74
0
 40
0
 40
0
 40
0
 40
0
 40
1
 40
1
 40
1
 40
1
 10
102.359822
 20
78.632827
 30
0.0
 10
100.730577
 20
78.632827
 30
0.0
 10
99.409826
 20
79.953587
 30
0.0
 10
99.409826
 20
81.582828
 30
0.0
  0
SPLINE
  5
120
100
AcDbEntity
  8
0
 62
7
100
AcDbSpline
 70
8
 71
3
 72
8
 73
4
 74
0
 40
0
 40
0
 40
0
 40
0
 40
1
 40
1
 40
1
 40
1
 10
99.409826
 20
81.582828
 30
0.0
 10
99.409826
 20
83.212067
 30
0.0
 10
100.730577
 20
84.532827
 30
0.0
 10
102.359822
 20
84.532827
 30
0.0
  0
LWPOLYLINE
  5
121
100
AcDbEntity
  8
0
 62
7
100
AcDbPolyline
 90
2
 70
0
 10
102.359822
 20
145.660219
 30
0.0
 10
102.359822
 20
145.660219
 30
0.0
  0
SPLINE
  5
122
100
AcDbEntity
  8
0
 62
7
100
AcDbSpline
 70
8
 71
3
 72
8
 73
4
 74
0
 40
0
 40
0
 40
0
 40
0
 40
1
 40
1
 40
1
 40
1
 10
49.122099
 20
83.706847
 30
0.0
 10
50.751345
 20
83.706847
 30
0.0
 10
52.072095
 20
82.386087
 30
0.0
 10
52.072095
 20
80.756848
 30
0.0
  0
SPLINE
  5
123
100
AcDbEntity
  8
0
 62
7
100
AcDbSpline
 70
8
 71
3
 72
8
 73
4
 74
0
 40
0
 40
0
 40
0
 40
0
 40
1
 40
1
 40
1
 40
1
 10
52.072095
 20
80.756848
 30
0.0
 10
52.072095
 20
79.127608
 30
0.0
 10
50.751345
 20
77.806847
 30
0.0
 10
49.122099
 20
77.806847
 30
0.0
  0
SPLINE
  5
124
100
AcDbEntity
  8
0
 62
7
100
AcDbSpline
 70
8
 71
3
 72
8
 73
4
 74
0
 40
0
 40
0
 40
0
 40
0
 40
1
 40
1
 40
1
 40
1
 10
49.122099
 20
77.806847
 30
0.0
 10
47.492854
 20
77.806847
 30
0.0
 10
46.172103
 20
79.127608
 30
0.0
 10
46.172103
 20
80.756848
 30
0.0
  0
SPLINE
  5
125
100
AcDbEntity
  8
0
 62
7
100
AcDbSpline
 70
8
 71
3
 72
8
 73
4
 74
0
 40
0
 40
0
 40
0
 40
0
 40
1
 40
1
 40
1
 40
1
 10
46.172103
 20
80.756848
 30
0.0
 10
46.172103
 20
82.386087
 30
0.0
 10
47.492854
 20
83.706847
 30
0.0
 10
49.122099
 20
83.706847
 30
0.0
  0
LWPOLYLINE
  5
126
100
AcDbEntity
  8
0
 62
7
100
AcDbPolyline
 90
2
 70
0
 10
102.359822
 20
84.532827
 30
0.0
 10
102.359822
 20
84.532827
 30
0.0
  0
SPLINE
  5
127
100
AcDbEntity
  8
0
 62
7
100
AcDbSpline
 70
8
 71
3
 72
8
 73
4
 74
0
 40
0
 40
0
 40
0
 40
0
 40
1
 40
1
 40
1
 40
1
 10
49.122099
 20
144.834211
 30
0.0
 10
50.751345
 20
144.834211
 30
0.0
 10
52.072095
 20
143.513450
 30
0.0
 10
52.072095
 20
141.884211
 30
0.0
  0
SPLINE
  5
128
100
AcDbEntity
  8
0
 62
7
100
AcDbSpline
 70
8
 71
3
 72
8
 73
4
 74
0
 40
0
 40
0
 40
0
 40
0
 40
1
 40
1
 40
1
 40
1
 10
52.072095
 20
141.884211
 30
0.0
 10
52.072095
 20
140.254971
 30
0.0
 10
50.751345
 20
138.934210
 30
0.0
 10
49.122099
 20
138.934210
 30
0.0
  0
SPLINE
  5
129
100
AcDbEntity
  8
0
 62
7
100
AcDbSpline
 70
8
 71
3
 72
8
 73
4
 74
0
 40
0
 40
0
 40
0
 40
0
 40
1
 40
1
 40
1
 40
1
 10
49.122099
 20
138.934210
 30
0.0
 10
47.492854
 20
138.934210
 30
0.0
 10
46.172103
 20
140.254971
 30
0.0
 10
46.172103
 20
141.884211
 30
0.0
  0
SPLINE
  5
12a
100
AcDbEntity
  8
0
 62
7
100
AcDbSpline
 70
8
 71
3
 72
8
 73
4
 74
0
 40
0
 40
0
 40
0
 40
0
 40
1
 40
1
 40
1
 40
1
 10
46.172103
 20
141.884211
 30
0.0
 10
46.172103
 20
143.513450
 30
0.0
 10
47.492854
 20
144.834211
 30
0.0
 10
49.122099
 20
144.834211
 30
0.0
  0
LWPOLYLINE
  5
12b
100
AcDbEntity
  8
0
 62
7
100
AcDbPolyline
 90
2
 70
0
 10
49.122099
 20
83.706847
 30
0.0
 10
49.122099
 20
83.706847
 30
0.0
  0
SPLINE
  5
12c
100
AcDbEntity
  8
0
 62
7
100
AcDbSpline
 70
8
 71
3
 72
8
 73
4
 74
0
 40
0
 40
0
 40
0
 40
0
 40
1
 40
1
 40
1
 40
1
 10
49.122099
 20
205.961597
 30
0.0
 10
50.751345
 20
205.961597
 30
0.0
 10
52.072095
 20
204.640836
 30
0.0
 10
52.072095
 20
203.011597
 30
0.0
  0
SPLINE
  5
12d
100
AcDbEntity
  8
0
 62
7
100
AcDbSpline
 70
8
 71
3
 72
8
 73
4
 74
0
 40
0
 40
0
 40
0
 40
0
 40
1
 40
1
 40
1
 40
1
 10
52.072095
 20
203.011597
 30
0.0
 10
52.072095
 20
201.382357
 30
0.0
 10
50.751345
 20
200.061596
 30
0.0
 10
49.122099
 20
200.061596
 30
0.0
  0
SPLINE
  5
12e
100
AcDbEntity
  8
0
 62
7
100
AcDbSpline
 70
8
 71
3
 72
8
 73
4
 74
0
 40
0
 40
0
 40
0
 40
0
 40
1
 40
1
 40
1
 40
1
 10
49.122099
 20
200.061596
 30
0.0
 10
47.492854
 20
200.061596
 30
0.0
 10
46.172103
 20
201.382357
 30
0.0
 10
46.172103
 20
203.011597
 30
0.0
  0
SPLINE
  5
12f
100
AcDbEntity
  8
0
 62
7
100
AcDbSpline
 70
8
 71
3
 72
8
 73
4
 74
0
 40
0
 40
0
 40
0
 40
0
 40
1
 40
1
 40
1
 40
1
 10
46.172103
 20
203.011597
 30
0.0
 10
46.172103
 20
204.640836
 30
0.0
 10
47.492854
 20
205.961597
 30
0.0
 10
49.122099
 20
205.961597
 30
0.0
  0
LWPOLYLINE
  5
130
100
AcDbEntity
  8
0
 62
7
100
AcDbPolyline
 90
2
 70
0
 10
49.122099
 20
144.834211
 30
0.0
 10
49.122099
 20
144.834211
 30
0.0
  0
SPLINE
  5
131
100
AcDbEntity
  8
0
 62
7
100
AcDbSpline
 70
8
 71
3
 72
8
 73
4
 74
0
 40
0
 40
0
 40
0
 40
0
 40
1
 40
1
 40
1
 40
1
 10
49.122099
 20
267.088983
 30
0.0
 10
50.751345
 20
267.088983
 30
0.0
 10
52.072095
 20
265.768223
 30
0.0
 10
52.072095
 20
264.138984
 30
0.0
  0
SPLINE
  5
132
100
AcDbEntity
  8
0
 62
7
100
AcDbSpline
 70
8
 71
3
 72
8
 73
4
 74
0
 40
0
 40
0
 40
0
 40
0
 40
1
 40
1
 40
1
 40
1
 10
52.072095
 20
264.138984
 30
0.0
 10
52.072095
 20
262.509744
 30
0.0
 10
50.751345
 20
261.188983
 30
0.0
 10
49.122099
 20
261.188983
 30
0.0
  0
SPLINE
  5
133
100
AcDbEntity
  8
0
 62
7
100
AcDbSpline
 70
8
 71
3
 72
8
 73
4
 74
0
 40
0
 40
0
 40
0
 40
0
 40
1
 40
1
 40
1
 40
1
 10
49.122099
 20
261.188983
 30
0.0
 10
47.492854
 20
261.188983
 30
0.0
 10
46.172103
 20
262.509744
 30
0.0
 10
46.172103
 20
264.138984
 30
0.0
  0
SPLINE
  5
134
100
AcDbEntity
  8
0
 62
7
100
AcDbSpline
 70
8
 71
3
 72
8
 73
4
 74
0
 40
0
 40
0
 40
0
 40
0
 40
1
 40
1
 40
1
 40
1
 10
46.172103
 20
264.138984
 30
0.0
 10
46.172103
 20
265.768223
 30
0.0
 10
47.492854
 20
267.088983
 30
0.0
 10
49.122099
 20
267.088983
 30
0.0
  0
LWPOLYLINE
  5
135
100
AcDbEntity
  8
0
 62
7
100
AcDbPolyline
 90
2
 70
0
 10
49.122099
 20
205.961597
 30
0.0
 10
49.122099
 20
205.961597
 30
0.0
  0
SPLINE
  5
136
100
AcDbEntity
  8
0
 62
7
100
AcDbSpline
 70
8
 71
3
 72
8
 73
4
 74
0
 40
0
 40
0
 40
0
 40
0
 40
1
 40
1
 40
1
 40
1
 10
-4.294609
 20
84.739470
 30
0.0
 10
-2.665363
 20
84.739470
 30
0.0
 10
-1.344613
 20
83.418710
 30
0.0
 10
-1.344613
 20
81.789471
 30
0.0
  0
SPLINE
  5
137
100
AcDbEntity
  8
0
 62
7
100
AcDbSpline
 70
8
 71
3
 72
8
 73
4
 74
0
 40
0
 40
0
 40
0
 40
0
 40
1
 40
1
 40
1
 40
1
 10
-1.344613
 20
81.789471
 30
0.0
 10
-1.344613
 20
80.160230
 30
0.0
 10
-2.665363
 20
78.839470
 30
0.0
 10
-4.294609
 20
78.839470
 30
0.0
  0
SPLINE
  5
138
100
AcDbEntity
  8
0
 62
7
100
AcDbSpline
 70
8
 71
3
 72
8
 73
4
 74
0
 40
0
 40
0
 40
0
 40
0
 40
1
 40
1
 40
1
 40
1
 10
-4.294609
 20
78.839470
 30
0.0
 10
-5.923854
 20
78.839470
 30
0.0
 10
-7.244605
 20
80.160230
 30
0.0
 10
-7.244605
 20
81.789471
 30
0.0
  0
SPLINE
  5
139
100
AcDbEntity
  8
0
 62
7
100
AcDbSpline
 70
8
 71
3
 72
8
 73
4
 74
0
 40
0
 40
0
 40
0
 40
0
 40
1
 40
1
 40
1
 40
1
 10
-7.244605
 20
81.789471
 30
0.0
 10
-7.244605
 20
83.418710
 30
0.0
 10
-5.923854
 20
84.739470
 30
0.0
 10
-4.294609
 20
84.739470
 30
0.0
  0
LWPOLYLINE
  5
13a
100
AcDbEntity
  8
0
 62
7
100
AcDbPolyline
 90
2
 70
0
 10
49.122099
 20
267.088983
 30
0.0
 10
49.122099
 20
267.088983
 30
0.0
  0
SPLINE
  5
13b
100
AcDbEntity
  8
0
 62
7
100
AcDbSpline
 70
8
 71
3
 72
8
 73
4
 74
0
 40
0
 40
0
 40
0
 40
0
 40
1
 40
1
 40
1
 40
1
 10
-4.294609
 20
145.866834
 30
0.0
 10
-2.665363
 20
145.866834
 30
0.0
 10
-1.344613
 20
144.546073
 30
0.0
 10
-1.344613
 20
142.916834
 30
0.0
  0
SPLINE
  5
13c
100
AcDbEntity
  8
0
 62
7
100
AcDbSpline
 70
8
 71
3
 72
8
 73
4
 74
0
 40
0
 40
0
 40
0
 40
0
 40
1
 40
1
 40
1
 40
1
 10
-1.344613
 20
142.916834
 30
0.0
 10
-1.344613
 20
141.287594
 30
0.0
 10
-2.665363
 20
139.966833
 30
0.0
 10
-4.294609
 20
139.966833
 30
0.0
  0
SPLINE
  5
13d
100
AcDbEntity
  8
0
 62
7
100
AcDbSpline
 70
8
 71
3
 72
8
 73
4
 74
0
 40
0
 40
0
 40
0
 40
0
 40
1
 40
1
 40
1
 40
1
 10
-4.294609
 20
139.966833
 30
0.0
 10
-5.923854
 20
139.966833
 30
0.0
 10
-7.244605
 20
141.287594
 30
0.0
 10
-7.244605
 20
142.916834
 30
0.0
  0
SPLINE
  5
13e
100
AcDbEntity
  8
0
 62
7
100
AcDbSpline
 70
8
 71
3
 72
8
 73
4
 74
0
 40
0
 40
0
 40
0
 40
0
 40
1
 40
1
 40
1
 40
1
 10
-7.244605
 20
142.916834
 30
0.0
 10
-7.244605
 20
144.546073
 30
0.0
 10
-5.923854
 20
145.866834
 30
0.0
 10
-4.294609
 20
145.866834
 30
0.0
  0
LWPOLYLINE
  5
13f
100
AcDbEntity
  8
0
 62
7
100
AcDbPolyline
 90
2
 70
0
 10
-4.294609
 20
84.739470
 30
0.0
 10
-4.294609
 20
84.739470
 30
0.0
  0
SPLINE
  5
140
100
AcDbEntity
  8
0
 62
7
100
AcDbSpline
 70
8
 71
3
 72
8
 73
4
 74
0
 40
0
 40
0
 40
0
 40
0
 40
1
 40
1
 40
1
 40
1
 10
-4.294609
 20
206.994220
 30
0.0
 10
-2.665363
 20
206.994220
 30
0.0
 10
-1.344613
 20
205.673459
 30
0.0
 10
-1.344613
 20
204.044220
 30
0.0
  0
SPLINE
  5
141
100
AcDbEntity
  8
0
 62
7
100
AcDbSpline
 70
8
 71
3
 72
8
 73
4
 74
0
 40
0
 40
0
 40
0
 40
0
 40
1
 40
1
 40
1
 40
1
 10
-1.344613
 20
204.044220
 30
0.0
 10
-1.344613
 20
202.414980
 30
0.0
 10
-2.665363
 20
201.094219
 30
0.0
 10
-4.294609
 20
201.094219
 30
0.0
  0
SPLINE
  5
142
100
AcDbEntity
  8
0
 62
7
100
AcDbSpline
 70
8
 71
3
 72
8
 73
4
 74
0
 40
0
 40
0
 40
0
 40
0
 40
1
 40
1
 40
1
 40
1
 10
-4.294609
 20
201.094219
 30
0.0
 10
-5.923854
 20
201.094219
 30
0.0
 10
-7.244605
 20
202.414980
 30
0.0
 10
-7.244605
 20
204.044220
 30
0.0
  0
SPLINE
  5
143
100
AcDbEntity
  8
0
 62
7
100
AcDbSpline
 70
8
 71
3
 72
8
 73
4
 74
0
 40
0
 40
0
 40
0
 40
0
 40
1
 40
1
 40
1
 40
1
 10
-7.244605
 20
204.044220
 30
0.0
 10
-7.244605
 20
205.673459
 30
0.0
 10
-5.923854
 20
206.994220
 30
0.0
 10
-4.294609
 20
206.994220
 30
0.0
  0
LWPOLYLINE
  5
144
100
AcDbEntity
  8
0
 62
7
100
AcDbPolyline
 90
2
 70
0
 10
-4.294609
 20
145.866834
 30
0.0
 10
-4.294609
 20
145.866834
 30
0.0
  0
SPLINE
  5
145
100
AcDbEntity
  8
0
 62
7
100
AcDbSpline
 70
8
 71
3
 72
8
 73
4
 74
0
 40
0
 40
0
 40
0
 40
0
 40
1
 40
1
 40
1
 40
1
 10
-4.294609
 20
268.121606
 30
0.0
 10
-2.665363
 20
268.121606
 30
0.0
 10
-1.344613
 20
266.800846
 30
0.0
 10
-1.344613
 20
265.171607
 30
0.0
  0
SPLINE
  5
146
100
AcDbEntity
  8
0
 62
7
100
AcDbSpline
 70
8
 71
3
 72
8
 73
4
 74
0
 40
0
 40
0
 40
0
 40
0
 40
1
 40
1
 40
1
 40
1
 10
-1.344613
 20
265.171607
 30
0.0
 10
-1.344613
 20
263.542367
 30
0.0
 10
-2.665363
 20
262.221606
 30
0.0
 10
-4.294609
 20
262.221606
 30
0.0
  0
SPLINE
  5
147
100
AcDbEntity
  8
0
 62
7
100
AcDbSpline
 70
8
 71
3
 72
8
 73
4
 74
0
 40
0
 40
0
 40
0
 40
0
 40
1
 40
1
 40
1
 40
1
 10
-4.294609
 20
262.221606
 30
0.0
 10
-5.923854
 20
262.221606
 30
0.0
 10
-7.244605
 20
263.542367
 30
0.0
 10
-7.244605
 20
265.171607
 30
0.0
  0
SPLINE
  5
148
100
AcDbEntity
  8
0
 62
7
100
AcDbSpline
 70
8
 71
3
 72
8
 73
4
 74
0
 40
0
 40
0
 40
0
 40
0
 40
1
 40
1
 40
1
 40
1
 10
-7.244605
 20
265.171607
 30
0.0
 10
-7.244605
 20
266.800846
 30
0.0
 10
-5.923854
 20
268.121606
 30
0.0
 10
-4.294609
 20
268.121606
 30
0.0
  0
LWPOLYLINE
  5
149
100
AcDbEntity
  8
0
 62
7
100
AcDbPolyline
 90
2
 70
0
 10
-4.294609
 20
206.994220
 30
0.0
 10
-4.294609
 20
206.994220
 30
0.0
  0
SPLINE
  5
14a
100
AcDbEntity
  8
0
 62
7
100
AcDbSpline
 70
8
 71
3
 72
8
 73
4
 74
0
 40
0
 40
0
 40
0
 40
0
 40
1
 40
1
 40
1
 40
1
 10
-56.745779
 20
33.559870
 30
0.0
 10
-55.944967
 20
33.559870
 30
0.0
 10
-55.295780
 20
32.910682
 30
0.0
 10
-55.295780
 20
32.109869
 30
0.0
  0
SPLINE
  5
14b
100
AcDbEntity
  8
0
 62
7
100
AcDbSpline
 70
8
 71
3
 72
8
 73
4
 74
0
 40
0
 40
0
 40
0
 40
0
 40
1
 40
1
 40
1
 40
1
 10
-55.295780
 20
32.109869
 30
0.0
 10
-55.295780
 20
31.309057
 30
0.0
 10
-55.944967
 20
30.659869
 30
0.0
 10
-56.745779
 20
30.659869
 30
0.0
  0
SPLINE
  5
14c
100
AcDbEntity
  8
0
 62
7
100
AcDbSpline
 70
8
 71
3
 72
8
 73
4
 74
0
 40
0
 40
0
 40
0
 40
0
 40
1
 40
1
 40
1
 40
1
 10
-56.745779
 20
30.659869
 30
0.0
 10
-57.546592
 20
30.659869
 30
0.0
 10
-58.195779
 20
31.309057
 30
0.0
 10
-58.195779
 20
32.109869
 30
0.0
  0
SPLINE
  5
14d
100
AcDbEntity
  8
0
 62
7
100
AcDbSpline
 70
8
 71
3
 72
8
 73
4
 74
0
 40
0
 40
0
 40
0
 40
0
 40
1
 40
1
 40
1
 40
1
 10
-58.195779
 20
32.109869
 30
0.0
 10
-58.195779
 20
32.910682
 30
0.0
 10
-57.546592
 20
33.559870
 30
0.0
 10
-56.745779
 20
33.559870
 30
0.0
  0
LWPOLYLINE
  5
14e
100
AcDbEntity
  8
0
 62
7
100
AcDbPolyline
 90
2
 70
0
 10
-4.294609
 20
268.121606
 30
0.0
 10
-4.294609
 20
268.121606
 30
0.0
  0
SPLINE
  5
14f
100
AcDbEntity
  8
0
 62
7
100
AcDbSpline
 70
8
 71
3
 72
8
 73
4
 74
0
 40
0
 40
0
 40
0
 40
0
 40
1
 40
1
 40
1
 40
1
 10
-56.382757
 20
339.637044
 30
0.0
 10
-55.581944
 20
339.637044
 30
0.0
 10
-54.932757
 20
338.987856
 30
0.0
 10
-54.932757
 20
338.187044
 30
0.0
  0
SPLINE
  5
150
100
AcDbEntity
  8
0
 62
7
100
AcDbSpline
 70
8
 71
3
 72
8
 73
4
 74
0
 40
0
 40
0
 40
0
 40
0
 40
1
 40
1
 40
1
 40
1
 10
-54.932757
 20
338.187044
 30
0.0
 10
-54.932757
 20
337.386231
 30
0.0
 10
-55.581944
 20
336.737043
 30
0.0
 10
-56.382757
 20
336.737043
 30
0.0
  0
SPLINE
  5
151
100
AcDbEntity
  8
0
 62
7
100
AcDbSpline
 70
8
 71
3
 72
8
 73
4
 74
0
 40
0
 40
0
 40
0
 40
0
 40
1
 40
1
 40
1
 40
1
 10
-56.382757
 20
336.737043
 30
0.0
 10
-57.183570
 20
336.737043
 30
0.0
 10
-57.832757
 20
337.386231
 30
0.0
 10
-57.832757
 20
338.187044
 30
0.0
  0
SPLINE
  5
152
100
AcDbEntity
  8
0
 62
7
100
AcDbSpline
 70
8
 71
3
 72
8
 73
4
 74
0
 40
0
 40
0
 40
0
 40
0
 40
1
 40
1
 40
1
 40
1
 10
-57.832757
 20
338.187044
 30
0.0
 10
-57.832757
 20
338.987856
 30
0.0
 10
-57.183570
 20
339.637044
 30
0.0
 10
-56.382757
 20
339.637044
 30
0.0
  0
LWPOLYLINE
  5
153
100
AcDbEntity
  8
0
 62
7
100
AcDbPolyline
 90
2
 70
0
 10
-56.745779
 20
33.559870
 30
0.0
 10
-56.745779
 20
33.559870
 30
0.0
  0
SPLINE
  5
154
100
AcDbEntity
  8
0
 62
7
100
AcDbSpline
 70
8
 71
3
 72
8
 73
4
 74
0
 40
0
 40
0
 40
0
 40
0
 40
1
 40
1
 40
1
 40
1
 10
193.493214
 20
31.730928
 30
0.0
 10
194.294027
 20
31.730928
 30
0.0
 10
194.943214
 20
31.081741
 30
0.0
 10
194.943214
 20
30.280928
 30
0.0
  0
SPLINE
  5
155
100
AcDbEntity
  8
0
 62
7
100
AcDbSpline
 70
8
 71
3
 72
8
 73
4
 74
0
 40
0
 40
0
 40
0
 40
0
 40
1
 40
1
 40
1
 40
1
 10
194.943214
 20
30.280928
 30
0.0
 10
194.943214
 20
29.480116
 30
0.0
 10
194.294027
 20
28.830928
 30
0.0
 10
193.493214
 20
28.830928
 30
0.0
  0
SPLINE
  5
156
100
AcDbEntity
  8
0
 62
7
100
AcDbSpline
 70
8
 71
3
 72
8
 73
4
 74
0
 40
0
 40
0
 40
0
 40
0
 40
1
 40
1
 40
1
 40
1
 10
193.493214
 20
28.830928
 30
0.0
 10
192.692401
 20
28.830928
 30
0.0
 10
192.043214
 20
29.480116
 30
0.0
 10
192.043214
 20
30.280928
 30
0.0
  0
SPLINE
  5
157
100
AcDbEntity
  8
0
 62
7
100
AcDbSpline
 70
8
 71
3
 72
8
 73
4
 74
0
 40
0
 40
0
 40
0
 40
0
 40
1
 40
1
 40
1
 40
1
 10
192.043214
 20
30.280928
 30
0.0
 10
192.043214
 20
31.081741
 30
0.0
 10
192.692401
 20
31.730928
 30
0.0
 10
193.493214
 20
31.730928
 30
0.0
  0
LWPOLYLINE
  5
158
100
AcDbEntity
  8
0
 62
7
100
AcDbPolyline
 90
2
 70
0
 10
-56.382757
 20
339.637044
 30
0.0
 10
-56.382757
 20
339.637044
 30
0.0
  0
SPLINE
  5
159
100
AcDbEntity
  8
0
 62
7
100
AcDbSpline
 70
8
 71
3
 72
8
 73
4
 74
0
 40
0
 40
0
 40
0
 40
0
 40
1
 40
1
 40
1
 40
1
 10
-56.745779
 20
33.559870
 30
0.0
 10
-55.944967
 20
33.559870
 30
0.0
 10
-55.295780
 20
32.910682
 30
0.0
 10
-55.295780
 20
32.109869
 30
0.0
  0
SPLINE
  5
15a
100
AcDbEntity
  8
0
 62
7
100
AcDbSpline
 70
8
 71
3
 72
8
 73
4
 74
0
 40
0
 40
0
 40
0
 40
0
 40
1
 40
1
 40
1
 40
1
 10
-55.295780
 20
32.109869
 30
0.0
 10
-55.295780
 20
31.309057
 30
0.0
 10
-55.944967
 20
30.659869
 30
0.0
 10
-56.745779
 20
30.659869
 30
0.0
  0
SPLINE
  5
15b
100
AcDbEntity
  8
0
 62
7
100
AcDbSpline
 70
8
 71
3
 72
8
 73
4
 74
0
 40
0
 40
0
 40
0
 40
0
 40
1
 40
1
 40
1
 40
1
 10
-56.745779
 20
30.659869
 30
0.0
 10
-57.546592
 20
30.659869
 30
0.0
 10
-58.195779
 20
31.309057
 30
0.0
 10
-58.195779
 20
32.109869
 30
0.0
  0
SPLINE
  5
15c
100
AcDbEntity
  8
0
 62
7
100
AcDbSpline
 70
8
 71
3
 72
8
 73
4
 74
0
 40
0
 40
0
 40
0
 40
0
 40
1
 40
1
 40
1
 40
1
 10
-58.195779
 20
32.109869
 30
0.0
 10
-58.195779
 20
32.910682
 30
0.0
 10
-57.546592
 20
33.559870
 30
0.0
 10
-56.745779
 20
33.559870
 30
0.0
  0
LWPOLYLINE
  5
15d
100
AcDbEntity
  8
0
 62
7
100
AcDbPolyline
 90
2
 70
0
 10
193.493214
 20
31.730928
 30
0.0
 10
193.493214
 20
31.730928
 30
0.0
  0
SPLINE
  5
15e
100
AcDbEntity
  8
0
 62
7
100
AcDbSpline
 70
8
 71
3
 72
8
 73
4
 74
0
 40
0
 40
0
 40
0
 40
0
 40
1
 40
1
 40
1
 40
1
 10
-56.382757
 20
339.637044
 30
0.0
 10
-55.581944
 20
339.637044
 30
0.0
 10
-54.932757
 20
338.987856
 30
0.0
 10
-54.932757
 20
338.187044
 30
0.0
  0
SPLINE
  5
15f
100
AcDbEntity
  8
0
 62
7
100
AcDbSpline
 70
8
 71
3
 72
8
 73
4
 74
0
 40
0
 40
0
 40
0
 40
0
 40
1
 40
1
 40
1
 40
1
 10
-54.932757
 20
338.187044
 30
0.0
 10
-54.932757
 20
337.386231
 30
0.0
 10
-55.581944
 20
336.737043
 30
0.0
 10
-56.382757
 20
336.737043
 30
0.0
  0
SPLINE
  5
160
100
AcDbEntity
  8
0
 62
7
100
AcDbSpline
 70
8
 71
3
 72
8
 73
4
 74
0
 40
0
 40
0
 40
0
 40
0
 40
1
 40
1
 40
1
 40
1
 10
-56.382757
 20
336.737043
 30
0.0
 10
-57.183570
 20
336.737043
 30
0.0
 10
-57.832757
 20
337.386231
 30
0.0
 10
-57.832757
 20
338.187044
 30
0.0
  0
SPLINE
  5
161
100
AcDbEntity
  8
0
 62
7
100
AcDbSpline
 70
8
 71
3
 72
8
 73
4
 74
0
 40
0
 40
0
 40
0
 40
0
 40
1
 40
1
 40
1
 40
1
 10
-57.832757
 20
338.187044
 30
0.0
 10
-57.832757
 20
338.987856
 30
0.0
 10
-57.183570
 20
339.637044
 30
0.0
 10
-56.382757
 20
339.637044
 30
0.0
  0
LWPOLYLINE
  5
162
100
AcDbEntity
  8
0
 62
7
100
AcDbPolyline
 90
2
 70
0
 10
-56.745779
 20
33.559870
 30
0.0
 10
-56.745779
 20
33.559870
 30
0.0
  0
SPLINE
  5
163
100
AcDbEntity
  8
0
 62
7
100
AcDbSpline
 70
8
 71
3
 72
8
 73
4
 74
0
 40
0
 40
0
 40
0
 40
0
 40
1
 40
1
 40
1
 40
1
 10
193.493243
 20
31.730928
 30
0.0
 10
194.294055
 20
31.730928
 30
0.0
 10
194.943242
 20
31.081741
 30
0.0
 10
194.943242
 20
30.280928
 30
0.0
  0
SPLINE
  5
164
100
AcDbEntity
  8
0
 62
7
100
AcDbSpline
 70
8
 71
3
 72
8
 73
4
 74
0
 40
0
 40
0
 40
0
 40
0
 40
1
 40
1
 40
1
 40
1
 10
194.943242
 20
30.280928
 30
0.0
 10
194.943242
 20
29.480116
 30
0.0
 10
194.294055
 20
28.830928
 30
0.0
 10
193.493243
 20
28.830928
 30
0.0
  0
SPLINE
  5
165
100
AcDbEntity
  8
0
 62
7
100
AcDbSpline
 70
8
 71
3
 72
8
 73
4
 74
0
 40
0
 40
0
 40
0
 40
0
 40
1
 40
1
 40
1
 40
1
 10
193.493243
 20
28.830928
 30
0.0
 10
192.692430
 20
28.830928
 30
0.0
 10
192.043243
 20
29.480116
 30
0.0
 10
192.043243
 20
30.280928
 30
0.0
  0
SPLINE
  5
166
100
AcDbEntity
  8
0
 62
7
100
AcDbSpline
 70
8
 71
3
 72
8
 73
4
 74
0
 40
0
 40
0
 40
0
 40
0
 40
1
 40
1
 40
1
 40
1
 10
192.043243
 20
30.280928
 30
0.0
 10
192.043243
 20
31.081741
 30
0.0
 10
192.692430
 20
31.730928
 30
0.0
 10
193.493243
 20
31.730928
 30
0.0
  0
LWPOLYLINE
  5
167
100
AcDbEntity
  8
0
 62
7
100
AcDbPolyline
 90
2
 70
0
 10
-56.382757
 20
339.637044
 30
0.0
 10
-56.382757
 20
339.637044
 30
0.0
  0
SPLINE
  5
168
100
AcDbEntity
  8
0
 62
7
100
AcDbSpline
 70
8
 71
3
 72
8
 73
4
 74
0
 40
0
 40
0
 40
0
 40
0
 40
1
 40
1
 40
1
 40
1
 10
169.450705
 20
84.062137
 30
0.0
 10
171.079950
 20
84.062137
 30
0.0
 10
172.400701
 20
82.741376
 30
0.0
 10
172.400701
 20
81.112138
 30
0.0
  0
SPLINE
  5
169
100
AcDbEntity
  8
0
 62
7
100
AcDbSpline
 70
8
 71
3
 72
8
 73
4
 74
0
 40
0
 40
0
 40
0
 40
0
 40
1
 40
1
 40
1
 40
1
 10
172.400701
 20
81.112138
 30
0.0
 10
172.400701
 20
79.482897
 30
0.0
 10
171.079950
 20
78.162137
 30
0.0
 10
169.450705
 20
78.162137
 30
0.0
  0
SPLINE
  5
16a
100
AcDbEntity
  8
0
 62
7
100
AcDbSpline
 70
8
 71
3
 72
8
 73
4
 74
0
 40
0
 40
0
 40
0
 40
0
 40
1
 40
1
 40
1
 40
1
 10
169.450705
 20
78.162137
 30
0.0
 10
167.821459
 20
78.162137
 30
0.0
 10
166.500709
 20
79.482897
 30
0.0
 10
166.500709
 20
81.112138
 30
0.0
  0
SPLINE
  5
16b
100
AcDbEntity
  8
0
 62
7
100
AcDbSpline
 70
8
 71
3
 72
8
 73
4
 74
0
 40
0
 40
0
 40
0
 40
0
 40
1
 40
1
 40
1
 40
1
 10
166.500709
 20
81.112138
 30
0.0
 10
166.500709
 20
82.741376
 30
0.0
 10
167.821459
 20
84.062137
 30
0.0
 10
169.450705
 20
84.062137
 30
0.0
  0
LWPOLYLINE
  5
16c
100
AcDbEntity
  8
0
 62
7
100
AcDbPolyline
 90
2
 70
0
 10
193.493243
 20
31.730928
 30
0.0
 10
193.493243
 20
31.730928
 30
0.0
  0
LWPOLYLINE
  5
16d
100
AcDbEntity
  8
0
 62
7
100
AcDbPolyline
 90
2
 70
0
 10
169.450705
 20
84.062137
 30
0.0
 10
169.450705
 20
84.062137
 30
0.0
  0
SPLINE
  5
16e
100
AcDbEntity
  8
0
 62
7
100
AcDbSpline
 70
8
 71
3
 72
8
 73
4
 74
0
 40
0
 40
0
 40
0
 40
0
 40
1
 40
1
 40
1
 40
1
 10
-56.745808
 20
33.559841
 30
0.0
 10
-55.944995
 20
33.559841
 30
0.0
 10
-55.295808
 20
32.910654
 30
0.0
 10
-55.295808
 20
32.109841
 30
0.0
  0
SPLINE
  5
16f
100
AcDbEntity
  8
0
 62
7
100
AcDbSpline
 70
8
 71
3
 72
8
 73
4
 74
0
 40
0
 40
0
 40
0
 40
0
 40
1
 40
1
 40
1
 40
1
 10
-55.295808
 20
32.109841
 30
0.0
 10
-55.295808
 20
31.309029
 30
0.0
 10
-55.944995
 20
30.659841
 30
0.0
 10
-56.745808
 20
30.659841
 30
0.0
  0
SPLINE
  5
170
100
AcDbEntity
  8
0
 62
7
100
AcDbSpline
 70
8
 71
3
 72
8
 73
4
 74
0
 40
0
 40
0
 40
0
 40
0
 40
1
 40
1
 40
1
 40
1
 10
-56.745808
 20
30.659841
 30
0.0
 10
-57.546621
 20
30.659841
 30
0.0
 10
-58.195808
 20
31.309029
 30
0.0
 10
-58.195808
 20
32.109841
 30
0.0
  0
SPLINE
  5
171
100
AcDbEntity
  8
0
 62
7
100
AcDbSpline
 70
8
 71
3
 72
8
 73
4
 74
0
 40
0
 40
0
 40
0
 40
0
 40
1
 40
1
 40
1
 40
1
 10
-58.195808
 20
32.109841
 30
0.0
 10
-58.195808
 20
32.910654
 30
0.0
 10
-57.546621
 20
33.559841
 30
0.0
 10
-56.745808
 20
33.559841
 30
0.0
  0
LWPOLYLINE
  5
172
100
AcDbEntity
  8
0
 62
7
100
AcDbPolyline
 90
5
 70
0
 10
-62.769044
 20
24.503503
 30
0.0
 10
-62.769044
 20
344.959950
 30
0.0
 10
199.848397
 20
344.959950
 30
0.0
 10
199.848397
 20
24.503503
 30
0.0
 10
-62.769044
 20
24.503503
 30
0.0
  0
SPLINE
  5
173
100
AcDbEntity
  8
0
 62
7
100
AcDbSpline
 70
8
 71
3
 72
8
 73
4
 74
0
 40
0
 40
0
 40
0
 40
0
 40
1
 40
1
 40
1
 40
1
 10
-56.382785
 20
339.637015
 30
0.0
 10
-55.581973
 20
339.637015
 30
0.0
 10
-54.932786
 20
338.987828
 30
0.0
 10
-54.932786
 20
338.187015
 30
0.0
  0
SPLINE
  5
174
100
AcDbEntity
  8
0
 62
7
100
AcDbSpline
 70
8
 71
3
 72
8
 73
4
 74
0
 40
0
 40
0
 40
0
 40
0
 40
1
 40
1
 40
1
 40
1
 10
-54.932786
 20
338.187015
 30
0.0
 10
-54.932786
 20
337.386203
 30
0.0
 10
-55.581973
 20
336.737015
 30
0.0
 10
-56.382785
 20
336.737015
 30
0.0
  0
SPLINE
  5
175
100
AcDbEntity
  8
0
 62
7
100
AcDbSpline
 70
8
 71
3
 72
8
 73
4
 74
0
 40
0
 40
0
 40
0
 40
0
 40
1
 40
1
 40
1
 40
1
 10
-56.382785
 20
336.737015
 30
0.0
 10
-57.183598
 20
336.737015
 30
0.0
 10
-57.832785
 20
337.386203
 30
0.0
 10
-57.832785
 20
338.187015
 30
0.0
  0
SPLINE
  5
176
100
AcDbEntity
  8
0
 62
7
100
AcDbSpline
 70
8
 71
3
 72
8
 73
4
 74
0
 40
0
 40
0
 40
0
 40
0
 40
1
 40
1
 40
1
 40
1
 10
-57.832785
 20
338.187015
 30
0.0
 10
-57.832785
 20
338.987828
 30
0.0
 10
-57.183598
 20
339.637015
 30
0.0
 10
-56.382785
 20
339.637015
 30
0.0
  0
LWPOLYLINE
  5
177
100
AcDbEntity
  8
0
 62
7
100
AcDbPolyline
 90
2
 70
0
 10
-56.745808
 20
33.559841
 30
0.0
 10
-56.745808
 20
33.559841
 30
0.0
  0
SPLINE
  5
178
100
AcDbEntity
  8
0
 62
7
100
AcDbSpline
 70
8
 71
3
 72
8
 73
4
 74
0
 40
0
 40
0
 40
0
 40
0
 40
1
 40
1
 40
1
 40
1
 10
193.493186
 20
31.730928
 30
0.0
 10
194.293999
 20
31.730928
 30
0.0
 10
194.943186
 20
31.081741
 30
0.0
 10
194.943186
 20
30.280928
 30
0.0
  0
SPLINE
  5
179
100
AcDbEntity
  8
0
 62
7
100
AcDbSpline
 70
8
 71
3
 72
8
 73
4
 74
0
 40
0
 40
0
 40
0
 40
0
 40
1
 40
1
 40
1
 40
1
 10
194.943186
 20
30.280928
 30
0.0
 10
194.943186
 20
29.480116
 30
0.0
 10
194.293999
 20
28.830928
 30
0.0
 10
193.493186
 20
28.830928
 30
0.0
  0
SPLINE
  5
17a
100
AcDbEntity
  8
0
 62
7
100
AcDbSpline
 70
8
 71
3
 72
8
 73
4
 74
0
 40
0
 40
0
 40
0
 40
0
 40
1
 40
1
 40
1
 40
1
 10
193.493186
 20
28.830928
 30
0.0
 10
192.692373
 20
28.830928
 30
0.0
 10
192.043186
 20
29.480116
 30
0.0
 10
192.043186
 20
30.280928
 30
0.0
  0
SPLINE
  5
17b
100
AcDbEntity
  8
0
 62
7
100
AcDbSpline
 70
8
 71
3
 72
8
 73
4
 74
0
 40
0
 40
0
 40
0
 40
0
 40
1
 40
1
 40
1
 40
1
 10
192.043186
 20
30.280928
 30
0.0
 10
192.043186
 20
31.081741
 30
0.0
 10
192.692373
 20
31.730928
 30
0.0
 10
193.493186
 20
31.730928
 30
0.0
  0
LWPOLYLINE
  5
17c
100
AcDbEntity
  8
0
 62
7
100
AcDbPolyline
 90
2
 70
0
 10
-56.382785
 20
339.637015
 30
0.0
 10
-56.382785
 20
339.637015
 30
0.0
  0
LWPOLYLINE
  5
17d
100
AcDbEntity
  8
0
 62
7
100
AcDbPolyline
 90
2
 70
0
 10
193.493186
 20
31.730928
 30
0.0
 10
193.493186
 20
31.730928
 30
0.0
  0
LWPOLYLINE
  5
17e
100
AcDbEntity
  8
0
 62
7
100
AcDbPolyline
 90
5
 70
0
 10
65.539620
 20
309.728685
 30
0.0
 10
65.539620
 20
315.728685
 30
0.0
 10
71.539620
 20
315.728685
 30
0.0
 10
71.539620
 20
309.728685
 30
0.0
 10
65.539620
 20
309.728685
 30
0.0
  0
LWPOLYLINE
  5
17f
100
AcDbEntity
  8
0
 62
7
100
AcDbPolyline
 90
5
 70
0
 10
-32.315968
 20
75.789487
 30
0.0
 10
-32.315968
 20
76.689487
 30
0.0
 10
-27.392340
 20
76.689487
 30
0.0
 10
-27.392340
 20
75.789487
 30
0.0
 10
-32.315968
 20
75.789487
 30
0.0
  0
LWPOLYLINE
  5
180
100
AcDbEntity
  8
0
 62
7
100
AcDbPolyline
 90
5
 70
0
 10
-23.129409
 20
75.789487
 30
0.0
 10
-23.129409
 20
76.689487
 30
0.0
 10
-18.205781
 20
76.689487
 30
0.0
 10
-18.205781
 20
75.789487
 30
0.0
 10
-23.129409
 20
75.789487
 30
0.0
  0
LWPOLYLINE
  5
181
100
AcDbEntity
  8
0
 62
7
100
AcDbPolyline
 90
5
 70
0
 10
-32.315968
 20
136.916875
 30
0.0
 10
-32.315968
 20
137.816875
 30
0.0
 10
-27.392340
 20
137.816875
 30
0.0
 10
-27.392340
 20
136.916875
 30
0.0
 10
-32.315968
 20
136.916875
 30
0.0
  0
LWPOLYLINE
  5
182
100
AcDbEntity
  8
0
 62
7
100
AcDbPolyline
 90
5
 70
0
 10
-23.129409
 20
136.916875
 30
0.0
 10
-23.129409
 20
137.816875
 30
0.0
 10
-18.205781
 20
137.816875
 30
0.0
 10
-18.205781
 20
136.916875
 30
0.0
 10
-23.129409
 20
136.916875
 30
0.0
  0
LWPOLYLINE
  5
183
100
AcDbEntity
  8
0
 62
7
100
AcDbPolyline
 90
5
 70
0
 10
-32.315968
 20
198.044261
 30
0.0
 10
-32.315968
 20
198.944261
 30
0.0
 10
-27.392340
 20
198.944261
 30
0.0
 10
-27.392340
 20
198.044261
 30
0.0
 10
-32.315968
 20
198.044261
 30
0.0
  0
LWPOLYLINE
  5
184
100
AcDbEntity
  8
0
 62
7
100
AcDbPolyline
 90
5
 70
0
 10
-23.129409
 20
198.044261
 30
0.0
 10
-23.129409
 20
198.944261
 30
0.0
 10
-18.205781
 20
198.944261
 30
0.0
 10
-18.205781
 20
198.044261
 30
0.0
 10
-23.129409
 20
198.044261
 30
0.0
  0
LWPOLYLINE
  5
185
100
AcDbEntity
  8
0
 62
7
100
AcDbPolyline
 90
5
 70
0
 10
-32.315968
 20
259.171664
 30
0.0
 10
-32.315968
 20
260.071664
 30
0.0
 10
-27.392340
 20
260.071664
 30
0.0
 10
-27.392340
 20
259.171664
 30
0.0
 10
-32.315968
 20
259.171664
 30
0.0
  0
LWPOLYLINE
  5
186
100
AcDbEntity
  8
0
 62
7
100
AcDbPolyline
 90
5
 70
0
 10
-23.129409
 20
259.171664
 30
0.0
 10
-23.129409
 20
260.071664
 30
0.0
 10
-18.205781
 20
260.071664
 30
0.0
 10
-18.205781
 20
259.171664
 30
0.0
 10
-23.129409
 20
259.171664
 30
0.0
  0
LWPOLYLINE
  5
187
100
AcDbEntity
  8
0
 62
7
100
AcDbPolyline
 90
5
 70
0
 10
21.258022
 20
269.148632
 30
0.0
 10
21.258022
 20
268.248632
 30
0.0
 10
26.181650
 20
268.248632
 30
0.0
 10
26.181650
 20
269.148632
 30
0.0
 10
21.258022
 20
269.148632
 30
0.0
  0
LWPOLYLINE
  5
188
100
AcDbEntity
  8
0
 62
7
100
AcDbPolyline
 90
5
 70
0
 10
30.444581
 20
269.148632
 30
0.0
 10
30.444581
 20
268.248632
 30
0.0
 10
35.368209
 20
268.248632
 30
0.0
 10
35.368209
 20
269.148632
 30
0.0
 10
30.444581
 20
269.148632
 30
0.0
  0
LWPOLYLINE
  5
189
100
AcDbEntity
  8
0
 62
7
100
AcDbPolyline
 90
5
 70
0
 10
21.006788
 20
208.104812
 30
0.0
 10
21.006788
 20
207.204812
 30
0.0
 10
25.930416
 20
207.204812
 30
0.0
 10
25.930416
 20
208.104812
 30
0.0
 10
21.006788
 20
208.104812
 30
0.0
  0
LWPOLYLINE
  5
18a
100
AcDbEntity
  8
0
 62
7
100
AcDbPolyline
 90
5
 70
0
 10
30.193488
 20
208.104812
 30
0.0
 10
30.193488
 20
207.204812
 30
0.0
 10
35.117116
 20
207.204812
 30
0.0
 10
35.117116
 20
208.104812
 30
0.0
 10
30.193488
 20
208.104812
 30
0.0
  0
LWPOLYLINE
  5
18b
100
AcDbEntity
  8
0
 62
7
100
AcDbPolyline
 90
5
 70
0
 10
21.132348
 20
146.809811
 30
0.0
 10
21.132348
 20
145.909811
 30
0.0
 10
26.055977
 20
145.909811
 30
0.0
 10
26.055977
 20
146.809811
 30
0.0
 10
21.132348
 20
146.809811
 30
0.0
  0
LWPOLYLINE
  5
18c
100
AcDbEntity
  8
0
 62
7
100
AcDbPolyline
 90
5
 70
0
 10
30.319020
 20
146.809811
 30
0.0
 10
30.319020
 20
145.909811
 30
0.0
 10
35.242649
 20
145.909811
 30
0.0
 10
35.242649
 20
146.809811
 30
0.0
 10
30.319020
 20
146.809811
 30
0.0
  0
LWPOLYLINE
  5
18d
100
AcDbEntity
  8
0
 62
7
100
AcDbPolyline
 90
5
 70
0
 10
20.921641
 20
85.479533
 30
0.0
 10
20.921641
 20
84.579533
 30
0.0
 10
25.845270
 20
84.579533
 30
0.0
 10
25.845270
 20
85.479533
 30
0.0
 10
20.921641
 20
85.479533
 30
0.0
  0
LWPOLYLINE
  5
18e
100
AcDbEntity
  8
0
 62
7
100
AcDbPolyline
 90
5
 70
0
 10
30.108313
 20
85.479533
 30
0.0
 10
30.108313
 20
84.579533
 30
0.0
 10
35.031942
 20
84.579533
 30
0.0
 10
35.031942
 20
85.479533
 30
0.0
 10
30.108313
 20
85.479533
 30
0.0
  0
LWPOLYLINE
  5
18f
100
AcDbEntity
  8
0
 62
7
100
AcDbPolyline
 90
5
 70
0
 10
74.338406
 20
75.582883
 30
0.0
 10
74.338406
 20
76.482883
 30
0.0
 10
79.262034
 20
76.482883
 30
0.0
 10
79.262034
 20
75.582883
 30
0.0
 10
74.338406
 20
75.582883
 30
0.0
  0
LWPOLYLINE
  5
190
100
AcDbEntity
  8
0
 62
7
100
AcDbPolyline
 90
5
 70
0
 10
83.525078
 20
75.582883
 30
0.0
 10
83.525078
 20
76.482883
 30
0.0
 10
88.448706
 20
76.482883
 30
0.0
 10
88.448706
 20
75.582883
 30
0.0
 10
83.525078
 20
75.582883
 30
0.0
  0
LWPOLYLINE
  5
191
100
AcDbEntity
  8
0
 62
7
100
AcDbPolyline
 90
5
 70
0
 10
74.338406
 20
136.710272
 30
0.0
 10
74.338406
 20
137.610272
 30
0.0
 10
79.262034
 20
137.610272
 30
0.0
 10
79.262034
 20
136.710272
 30
0.0
 10
74.338406
 20
136.710272
 30
0.0
  0
LWPOLYLINE
  5
192
100
AcDbEntity
  8
0
 62
7
100
AcDbPolyline
 90
5
 70
0
 10
83.525078
 20
136.710272
 30
0.0
 10
83.525078
 20
137.610272
 30
0.0
 10
88.448706
 20
137.610272
 30
0.0
 10
88.448706
 20
136.710272
 30
0.0
 10
83.525078
 20
136.710272
 30
0.0
  0
LWPOLYLINE
  5
193
100
AcDbEntity
  8
0
 62
7
100
AcDbPolyline
 90
5
 70
0
 10
74.338406
 20
197.837658
 30
0.0
 10
74.338406
 20
198.737658
 30
0.0
 10
79.262034
 20
198.737658
 30
0.0
 10
79.262034
 20
197.837658
 30
0.0
 10
74.338406
 20
197.837658
 30
0.0
  0
LWPOLYLINE
  5
194
100
AcDbEntity
  8
0
 62
7
100
AcDbPolyline
 90
5
 70
0
 10
83.525078
 20
197.837658
 30
0.0
 10
83.525078
 20
198.737658
 30
0.0
 10
88.448706
 20
198.737658
 30
0.0
 10
88.448706
 20
197.837658
 30
0.0
 10
83.525078
 20
197.837658
 30
0.0
  0
LWPOLYLINE
  5
195
100
AcDbEntity
  8
0
 62
7
100
AcDbPolyline
 90
5
 70
0
 10
74.338406
 20
258.965032
 30
0.0
 10
74.338406
 20
259.865032
 30
0.0
 10
79.262034
 20
259.865032
 30
0.0
 10
79.262034
 20
258.965032
 30
0.0
 10
74.338406
 20
258.965032
 30
0.0
  0
LWPOLYLINE
  5
196
100
AcDbEntity
  8
0
 62
7
100
AcDbPolyline
 90
5
 70
0
 10
83.525078
 20
258.965032
 30
0.0
 10
83.525078
 20
259.865032
 30
0.0
 10
88.448706
 20
259.865032
 30
0.0
 10
88.448706
 20
258.965032
 30
0.0
 10
83.525078
 20
258.965032
 30
0.0
  0
LWPOLYLINE
  5
197
100
AcDbEntity
  8
0
 62
7
100
AcDbPolyline
 90
5
 70
0
 10
141.429288
 20
258.494289
 30
0.0
 10
141.429288
 20
259.394289
 30
0.0
 10
146.352917
 20
259.394289
 30
0.0
 10
146.352917
 20
258.494289
 30
0.0
 10
141.429288
 20
258.494289
 30
0.0
  0
LWPOLYLINE
  5
198
100
AcDbEntity
  8
0
 62
7
100
AcDbPolyline
 90
5
 70
0
 10
150.615904
 20
258.494289
 30
0.0
 10
150.615904
 20
259.394289
 30
0.0
 10
155.539532
 20
259.394289
 30
0.0
 10
155.539532
 20
258.494289
 30
0.0
 10
150.615904
 20
258.494289
 30
0.0
  0
LWPOLYLINE
  5
199
100
AcDbEntity
  8
0
 62
7
100
AcDbPolyline
 90
5
 70
0
 10
141.429288
 20
197.366920
 30
0.0
 10
141.429288
 20
198.266920
 30
0.0
 10
146.352917
 20
198.266920
 30
0.0
 10
146.352917
 20
197.366920
 30
0.0
 10
141.429288
 20
197.366920
 30
0.0
  0
LWPOLYLINE
  5
19a
100
AcDbEntity
  8
0
 62
7
100
AcDbPolyline
 90
5
 70
0
 10
150.615904
 20
197.366920
 30
0.0
 10
150.615904
 20
198.266920
 30
0.0
 10
155.539532
 20
198.266920
 30
0.0
 10
155.539532
 20
197.366920
 30
0.0
 10
150.615904
 20
197.366920
 30
0.0
  0
LWPOLYLINE
  5
19b
100
AcDbEntity
  8
0
 62
7
100
AcDbPolyline
 90
5
 70
0
 10
141.429288
 20
136.239534
 30
0.0
 10
141.429288
 20
137.139534
 30
0.0
 10
146.352917
 20
137.139534
 30
0.0
 10
146.352917
 20
136.239534
 30
0.0
 10
141.429288
 20
136.239534
 30
0.0
  0
LWPOLYLINE
  5
19c
100
AcDbEntity
  8
0
 62
7
100
AcDbPolyline
 90
5
 70
0
 10
150.615904
 20
136.239534
 30
0.0
 10
150.615904
 20
137.139534
 30
0.0
 10
155.539532
 20
137.139534
 30
0.0
 10
155.539532
 20
136.239534
 30
0.0
 10
150.615904
 20
136.239534
 30
0.0
  0
LWPOLYLINE
  5
19d
100
AcDbEntity
  8
0
 62
7
100
AcDbPolyline
 90
5
 70
0
 10
141.429288
 20
75.112145
 30
0.0
 10
141.429288
 20
76.012145
 30
0.0
 10
146.352917
 20
76.012145
 30
0.0
 10
146.352917
 20
75.112145
 30
0.0
 10
141.429288
 20
75.112145
 30
0.0
  0
SPLINE
  5
19e
100
AcDbEntity
  8
0
 62
3
100
AcDbSpline
 70
8
 71
3
 72
8
 73
4
 74
0
 40
0
 40
0
 40
0
 40
0
 40
1
 40
1
 40
1
 40
1
 10
94.733364
 20
2.929637
 30
0.0
 10
95.012369
 20
10.716939
 30
0.0
 10
86.188748
 20
16.952582
 30
0.0
 10
78.937753
 20
14.341998
 30
0.0
  0
SPLINE
  5
19f
100
AcDbEntity
  8
0
 62
3
100
AcDbSpline
 70
8
 71
3
 72
8
 73
4
 74
0
 40
0
 40
0
 40
0
 40
0
 40
1
 40
1
 40
1
 40
1
 10
78.937753
 20
14.341998
 30
0.0
 10
76.652995
 20
13.982701
 30
0.0
 10
77.646586
 20
11.371130
 30
0.0
 10
77.447253
 20
9.799970
 30
0.0
  0
SPLINE
  5
1a0
100
AcDbEntity
  8
0
 62
3
100
AcDbSpline
 70
8
 71
3
 72
8
 73
4
 74
0
 40
0
 40
0
 40
0
 40
0
 40
1
 40
1
 40
1
 40
1
 10
77.447253
 20
9.799970
 30
0.0
 10
77.447253
 20
3.946794
 30
0.0
 10
77.447253
 20
-1.906382
 30
0.0
 10
77.447253
 20
-7.759529
 30
0.0
  0
SPLINE
  5
1a1
100
AcDbEntity
  8
0
 62
3
100
AcDbSpline
 70
8
 71
3
 72
8
 73
4
 74
0
 40
0
 40
0
 40
0
 40
0
 40
1
 40
1
 40
1
 40
1
 10
77.447253
 20
-7.759529
 30
0.0
 10
79.874279
 20
-9.851163
 30
0.0
 10
83.620017
 20
-9.540775
 30
0.0
 10
86.522475
 20
-8.606196
 30
0.0
  0
SPLINE
  5
1a2
100
AcDbEntity
  8
0
 62
3
100
AcDbSpline
 70
8
 71
3
 72
8
 73
4
 74
0
 40
0
 40
0
 40
0
 40
0
 40
1
 40
1
 40
1
 40
1
 10
86.522475
 20
-8.606196
 30
0.0
 10
91.374807
 20
-7.034952
 30
0.0
 10
94.988352
 20
-2.237033
 30
0.0
 10
94.733364
 20
2.929637
 30
0.0
  0
LWPOLYLINE
  5
1a3
100
AcDbEntity
  8
0
 62
7
100
AcDbPolyline
 90
5
 70
0
 10
150.615904
 20
75.112145
 30
0.0
 10
150.615904
 20
76.012145
 30
0.0
 10
155.539532
 20
76.012145
 30
0.0
 10
155.539532
 20
75.112145
 30
0.0
 10
150.615904
 20
75.112145
 30
0.0
  0
LWPOLYLINE
  5
1a4
100
AcDbEntity
  8
0
 62
3
100
AcDbPolyline
 90
2
 70
0
 10
94.733364
 20
2.929637
 30
0.0
 10
94.733364
 20
2.929637
 30
0.0
  0
LWPOLYLINE
  5
1a5
100
AcDbEntity
  8
0
 62
7
100
AcDbPolyline
 90
5
 70
0
 10
80.038420
 20
9.869087
 30
0.0
 10
80.938420
 20
9.869087
 30
0.0
 10
80.938420
 20
4.945458
 30
0.0
 10
80.038420
 20
4.945458
 30
0.0
 10
80.038420
 20
9.869087
 30
0.0
  0
LWPOLYLINE
  5
1a6
100
AcDbEntity
  8
0
 62
7
100
AcDbPolyline
 90
5
 70
0
 10
80.038420
 20
0.682386
 30
0.0
 10
80.938420
 20
0.682386
 30
0.0
 10
80.938420
 20
-4.241242
 30
0.0
 10
80.038420
 20
-4.241242
 30
0.0
 10
80.038420
 20
0.682386
 30
0.0
  0
LWPOLYLINE
  5
1a7
100
AcDbEntity
  8
0
 62
7
100
AcDbPolyline
 90
5
 70
0
 10
88.595567
 20
0.654757
 30
0.0
 10
89.495567
 20
0.654757
 30
0.0
 10
89.495567
 20
-4.268871
 30
0.0
 10
88.595567
 20
-4.268871
 30
0.0
 10
88.595567
 20
0.654757
 30
0.0
  0
SPLINE
  5
1a8
100
AcDbEntity
  8
0
 62
3
100
AcDbSpline
 70
8
 71
3
 72
8
 73
4
 74
0
 40
0
 40
0
 40
0
 40
0
 40
1
 40
1
 40
1
 40
1
 10
75.784174
 20
2.929637
 30
0.0
 10
76.063179
 20
10.716939
 30
0.0
 10
67.239557
 20
16.952582
 30
0.0
 10
59.988563
 20
14.341998
 30
0.0
  0
SPLINE
  5
1a9
100
AcDbEntity
  8
0
 62
3
100
AcDbSpline
 70
8
 71
3
 72
8
 73
4
 74
0
 40
0
 40
0
 40
0
 40
0
 40
1
 40
1
 40
1
 40
1
 10
59.988563
 20
14.341998
 30
0.0
 10
57.703805
 20
13.982701
 30
0.0
 10
58.697396
 20
11.371130
 30
0.0
 10
58.498063
 20
9.799970
 30
0.0
  0
SPLINE
  5
1aa
100
AcDbEntity
  8
0
 62
3
100
AcDbSpline
 70
8
 71
3
 72
8
 73
4
 74
0
 40
0
 40
0
 40
0
 40
0
 40
1
 40
1
 40
1
 40
1
 10
58.498063
 20
9.799970
 30
0.0
 10
58.498063
 20
3.946794
 30
0.0
 10
58.498063
 20
-1.906382
 30
0.0
 10
58.498063
 20
-7.759529
 30
0.0
  0
SPLINE
  5
1ab
100
AcDbEntity
  8
0
 62
3
100
AcDbSpline
 70
8
 71
3
 72
8
 73
4
 74
0
 40
0
 40
0
 40
0
 40
0
 40
1
 40
1
 40
1
 40
1
 10
58.498063
 20
-7.759529
 30
0.0
 10
60.925089
 20
-9.851163
 30
0.0
 10
64.670827
 20
-9.540775
 30
0.0
 10
67.573285
 20
-8.606196
 30
0.0
  0
SPLINE
  5
1ac
100
AcDbEntity
  8
0
 62
3
100
AcDbSpline
 70
8
 71
3
 72
8
 73
4
 74
0
 40
0
 40
0
 40
0
 40
0
 40
1
 40
1
 40
1
 40
1
 10
67.573285
 20
-8.606196
 30
0.0
 10
72.425616
 20
-7.034952
 30
0.0
 10
76.039162
 20
-2.237033
 30
0.0
 10
75.784174
 20
2.929637
 30
0.0
  0
LWPOLYLINE
  5
1ad
100
AcDbEntity
  8
0
 62
7
100
AcDbPolyline
 90
5
 70
0
 10
88.646000
 20
9.877356
 30
0.0
 10
89.546000
 20
9.877356
 30
0.0
 10
89.546000
 20
4.953727
 30
0.0
 10
88.646000
 20
4.953727
 30
0.0
 10
88.646000
 20
9.877356
 30
0.0
  0
LWPOLYLINE
  5
1ae
100
AcDbEntity
  8
0
 62
3
100
AcDbPolyline
 90
2
 70
0
 10
75.784174
 20
2.929637
 30
0.0
 10
75.784174
 20
2.929637
 30
0.0
  0
LWPOLYLINE
  5
1af
100
AcDbEntity
  8
0
 62
7
100
AcDbPolyline
 90
5
 70
0
 10
61.089230
 20
9.869087
 30
0.0
 10
61.989230
 20
9.869087
 30
0.0
 10
61.989230
 20
4.945458
 30
0.0
 10
61.089230
 20
4.945458
 30
0.0
 10
61.089230
 20
9.869087
 30
0.0
  0
LWPOLYLINE
  5
1b0
100
AcDbEntity
  8
0
 62
7
100
AcDbPolyline
 90
5
 70
0
 10
61.089230
 20
0.682386
 30
0.0
 10
61.989230
 20
0.682386
 30
0.0
 10
61.989230
 20
-4.241242
 30
0.0
 10
61.089230
 20
-4.241242
 30
0.0
 10
61.089230
 20
0.682386
 30
0.0
  0
LWPOLYLINE
  5
1b1
100
AcDbEntity
  8
0
 62
7
100
AcDbPolyline
 90
5
 70
0
 10
69.646377
 20
0.654757
 30
0.0
 10
70.546377
 20
0.654757
 30
0.0
 10
70.546377
 20
-4.268871
 30
0.0
 10
69.646377
 20
-4.268871
 30
0.0
 10
69.646377
 20
0.654757
 30
0.0
  0
SPLINE
  5
1b2
100
AcDbEntity
  8
0
 62
3
100
AcDbSpline
 70
8
 71
3
 72
8
 73
4
 74
0
 40
0
 40
0
 40
0
 40
0
 40
1
 40
1
 40
1
 40
1
 10
57.439729
 20
2.929649
 30
0.0
 10
57.718734
 20
10.716950
 30
0.0
 10
48.895113
 20
16.952594
 30
0.0
 10
41.644118
 20
14.342010
 30
0.0
  0
SPLINE
  5
1b3
100
AcDbEntity
  8
0
 62
3
100
AcDbSpline
 70
8
 71
3
 72
8
 73
4
 74
0
 40
0
 40
0
 40
0
 40
0
 40
1
 40
1
 40
1
 40
1
 10
41.644118
 20
14.342010
 30
0.0
 10
39.359360
 20
13.982713
 30
0.0
 10
40.352952
 20
11.371141
 30
0.0
 10
40.153618
 20
9.799982
 30
0.0
  0
SPLINE
  5
1b4
100
AcDbEntity
  8
0
 62
3
100
AcDbSpline
 70
8
 71
3
 72
8
 73
4
 74
0
 40
0
 40
0
 40
0
 40
0
 40
1
 40
1
 40
1
 40
1
 10
40.153618
 20
9.799982
 30
0.0
 10
40.153618
 20
3.946806
 30
0.0
 10
40.153618
 20
-1.906370
 30
0.0
 10
40.153618
 20
-7.759518
 30
0.0
  0
SPLINE
  5
1b5
100
AcDbEntity
  8
0
 62
3
100
AcDbSpline
 70
8
 71
3
 72
8
 73
4
 74
0
 40
0
 40
0
 40
0
 40
0
 40
1
 40
1
 40
1
 40
1
 10
40.153618
 20
-7.759518
 30
0.0
 10
42.580645
 20
-9.851152
 30
0.0
 10
46.326383
 20
-9.540764
 30
0.0
 10
49.228841
 20
-8.606185
 30
0.0
  0
SPLINE
  5
1b6
100
AcDbEntity
  8
0
 62
3
100
AcDbSpline
 70
8
 71
3
 72
8
 73
4
 74
0
 40
0
 40
0
 40
0
 40
0
 40
1
 40
1
 40
1
 40
1
 10
49.228841
 20
-8.606185
 30
0.0
 10
54.081172
 20
-7.034941
 30
0.0
 10
57.694717
 20
-2.237022
 30
0.0
 10
57.439729
 20
2.929649
 30
0.0
  0
LWPOLYLINE
  5
1b7
100
AcDbEntity
  8
0
 62
7
100
AcDbPolyline
 90
5
 70
0
 10
69.696810
 20
9.877356
 30
0.0
 10
70.596810
 20
9.877356
 30
0.0
 10
70.596810
 20
4.953727
 30
0.0
 10
69.696810
 20
4.953727
 30
0.0
 10
69.696810
 20
9.877356
 30
0.0
  0
LWPOLYLINE
  5
1b8
100
AcDbEntity
  8
0
 62
3
100
AcDbPolyline
 90
2
 70
0
 10
57.439729
 20
2.929649
 30
0.0
 10
57.439729
 20
2.929649
 30
0.0
  0
LWPOLYLINE
  5
1b9
100
AcDbEntity
  8
0
 62
7
100
AcDbPolyline
 90
5
 70
0
 10
42.744785
 20
9.869098
 30
0.0
 10
43.644785
 20
9.869098
 30
0.0
 10
43.644785
 20
4.945470
 30
0.0
 10
42.744785
 20
4.945470
 30
0.0
 10
42.744785
 20
9.869098
 30
0.0
  0
LWPOLYLINE
  5
1ba
100
AcDbEntity
  8
0
 62
7
100
AcDbPolyline
 90
5
 70
0
 10
42.744785
 20
0.682398
 30
0.0
 10
43.644785
 20
0.682398
 30
0.0
 10
43.644785
 20
-4.241231
 30
0.0
 10
42.744785
 20
-4.241231
 30
0.0
 10
42.744785
 20
0.682398
 30
0.0
  0
LWPOLYLINE
  5
1bb
100
AcDbEntity
  8
0
 62
7
100
AcDbPolyline
 90
5
 70
0
 10
51.301932
 20
0.654768
 30
0.0
 10
52.201932
 20
0.654768
 30
0.0
 10
52.201932
 20
-4.268860
 30
0.0
 10
51.301932
 20
-4.268860
 30
0.0
 10
51.301932
 20
0.654768
 30
0.0
  0
SPLINE
  5
1bc
100
AcDbEntity
  8
0
 62
3
100
AcDbSpline
 70
8
 71
3
 72
8
 73
4
 74
0
 40
0
 40
0
 40
0
 40
0
 40
1
 40
1
 40
1
 40
1
 10
38.490539
 20
2.929649
 30
0.0
 10
38.769544
 20
10.716950
 30
0.0
 10
29.945923
 20
16.952594
 30
0.0
 10
22.694928
 20
14.342010
 30
0.0
  0
SPLINE
  5
1bd
100
AcDbEntity
  8
0
 62
3
100
AcDbSpline
 70
8
 71
3
 72
8
 73
4
 74
0
 40
0
 40
0
 40
0
 40
0
 40
1
 40
1
 40
1
 40
1
 10
22.694928
 20
14.342010
 30
0.0
 10
20.410170
 20
13.982713
 30
0.0
 10
21.403762
 20
11.371141
 30
0.0
 10
21.204428
 20
9.799982
 30
0.0
  0
SPLINE
  5
1be
100
AcDbEntity
  8
0
 62
3
100
AcDbSpline
 70
8
 71
3
 72
8
 73
4
 74
0
 40
0
 40
0
 40
0
 40
0
 40
1
 40
1
 40
1
 40
1
 10
21.204428
 20
9.799982
 30
0.0
 10
21.204428
 20
3.946806
 30
0.0
 10
21.204428
 20
-1.906370
 30
0.0
 10
21.204428
 20
-7.759518
 30
0.0
  0
SPLINE
  5
1bf
100
AcDbEntity
  8
0
 62
3
100
AcDbSpline
 70
8
 71
3
 72
8
 73
4
 74
0
 40
0
 40
0
 40
0
 40
0
 40
1
 40
1
 40
1
 40
1
 10
21.204428
 20
-7.759518
 30
0.0
 10
23.631454
 20
-9.851152
 30
0.0
 10
27.377192
 20
-9.540764
 30
0.0
 10
30.279650
 20
-8.606185
 30
0.0
  0
SPLINE
  5
1c0
100
AcDbEntity
  8
0
 62
3
100
AcDbSpline
 70
8
 71
3
 72
8
 73
4
 74
0
 40
0
 40
0
 40
0
 40
0
 40
1
 40
1
 40
1
 40
1
 10
30.279650
 20
-8.606185
 30
0.0
 10
35.131982
 20
-7.034941
 30
0.0
 10
38.745527
 20
-2.237022
 30
0.0
 10
38.490539
 20
2.929649
 30
0.0
  0
LWPOLYLINE
  5
1c1
100
AcDbEntity
  8
0
 62
7
100
AcDbPolyline
 90
5
 70
0
 10
51.352365
 20
9.877367
 30
0.0
 10
52.252365
 20
9.877367
 30
0.0
 10
52.252365
 20
4.953739
 30
0.0
 10
51.352365
 20
4.953739
 30
0.0
 10
51.352365
 20
9.877367
 30
0.0
  0
LWPOLYLINE
  5
1c2
100
AcDbEntity
  8
0
 62
3
100
AcDbPolyline
 90
2
 70
0
 10
38.490539
 20
2.929649
 30
0.0
 10
38.490539
 20
2.929649
 30
0.0
  0
LWPOLYLINE
  5
1c3
100
AcDbEntity
  8
0
 62
7
100
AcDbPolyline
 90
5
 70
0
 10
23.795595
 20
9.869098
 30
0.0
 10
24.695595
 20
9.869098
 30
0.0
 10
24.695595
 20
4.945470
 30
0.0
 10
23.795595
 20
4.945470
 30
0.0
 10
23.795595
 20
9.869098
 30
0.0
  0
LWPOLYLINE
  5
1c4
100
AcDbEntity
  8
0
 62
7
100
AcDbPolyline
 90
5
 70
0
 10
23.795595
 20
0.682398
 30
0.0
 10
24.695595
 20
0.682398
 30
0.0
 10
24.695595
 20
-4.241231
 30
0.0
 10
23.795595
 20
-4.241231
 30
0.0
 10
23.795595
 20
0.682398
 30
0.0
  0
LWPOLYLINE
  5
1c5
100
AcDbEntity
  8
0
 62
7
100
AcDbPolyline
 90
5
 70
0
 10
32.352742
 20
0.654768
 30
0.0
 10
33.252742
 20
0.654768
 30
0.0
 10
33.252742
 20
-4.268860
 30
0.0
 10
32.352742
 20
-4.268860
 30
0.0
 10
32.352742
 20
0.654768
 30
0.0
  0
SPLINE
  5
1c6
100
AcDbEntity
  8
0
 62
3
100
AcDbSpline
 70
8
 71
3
 72
8
 73
4
 74
0
 40
0
 40
0
 40
0
 40
0
 40
1
 40
1
 40
1
 40
1
 10
169.018289
 20
2.324872
 30
0.0
 10
169.297294
 20
10.112173
 30
0.0
 10
160.473672
 20
16.347817
 30
0.0
 10
153.222678
 20
13.737233
 30
0.0
  0
SPLINE
  5
1c7
100
AcDbEntity
  8
0
 62
3
100
AcDbSpline
 70
8
 71
3
 72
8
 73
4
 74
0
 40
0
 40
0
 40
0
 40
0
 40
1
 40
1
 40
1
 40
1
 10
153.222678
 20
13.737233
 30
0.0
 10
150.937920
 20
13.377936
 30
0.0
 10
151.931511
 20
10.766364
 30
0.0
 10
151.732178
 20
9.195205
 30
0.0
  0
SPLINE
  5
1c8
100
AcDbEntity
  8
0
 62
3
100
AcDbSpline
 70
8
 71
3
 72
8
 73
4
 74
0
 40
0
 40
0
 40
0
 40
0
 40
1
 40
1
 40
1
 40
1
 10
151.732178
 20
9.195205
 30
0.0
 10
151.732178
 20
3.342029
 30
0.0
 10
151.732178
 20
-2.511147
 30
0.0
 10
151.732178
 20
-8.364295
 30
0.0
  0
SPLINE
  5
1c9
100
AcDbEntity
  8
0
 62
3
100
AcDbSpline
 70
8
 71
3
 72
8
 73
4
 74
0
 40
0
 40
0
 40
0
 40
0
 40
1
 40
1
 40
1
 40
1
 10
151.732178
 20
-8.364295
 30
0.0
 10
154.159204
 20
-10.455928
 30
0.0
 10
157.904942
 20
-10.145540
 30
0.0
 10
160.807400
 20
-9.210962
 30
0.0
  0
SPLINE
  5
1ca
100
AcDbEntity
  8
0
 62
3
100
AcDbSpline
 70
8
 71
3
 72
8
 73
4
 74
0
 40
0
 40
0
 40
0
 40
0
 40
1
 40
1
 40
1
 40
1
 10
160.807400
 20
-9.210962
 30
0.0
 10
165.659731
 20
-7.639718
 30
0.0
 10
169.273276
 20
-2.841799
 30
0.0
 10
169.018289
 20
2.324872
 30
0.0
  0
LWPOLYLINE
  5
1cb
100
AcDbEntity
  8
0
 62
7
100
AcDbPolyline
 90
5
 70
0
 10
32.403175
 20
9.877367
 30
0.0
 10
33.303175
 20
9.877367
 30
0.0
 10
33.303175
 20
4.953739
 30
0.0
 10
32.403175
 20
4.953739
 30
0.0
 10
32.403175
 20
9.877367
 30
0.0
  0
LWPOLYLINE
  5
1cc
100
AcDbEntity
  8
0
 62
3
100
AcDbPolyline
 90
2
 70
0
 10
169.018289
 20
2.324872
 30
0.0
 10
169.018289
 20
2.324872
 30
0.0
  0
LWPOLYLINE
  5
1cd
100
AcDbEntity
  8
0
 62
7
100
AcDbPolyline
 90
5
 70
0
 10
154.323344
 20
9.264321
 30
0.0
 10
155.223344
 20
9.264321
 30
0.0
 10
155.223344
 20
4.340693
 30
0.0
 10
154.323344
 20
4.340693
 30
0.0
 10
154.323344
 20
9.264321
 30
0.0
  0
LWPOLYLINE
  5
1ce
100
AcDbEntity
  8
0
 62
7
100
AcDbPolyline
 90
5
 70
0
 10
154.323344
 20
0.077621
 30
0.0
 10
155.223344
 20
0.077621
 30
0.0
 10
155.223344
 20
-4.846007
 30
0.0
 10
154.323344
 20
-4.846007
 30
0.0
 10
154.323344
 20
0.077621
 30
0.0
  0
LWPOLYLINE
  5
1cf
100
AcDbEntity
  8
0
 62
7
100
AcDbPolyline
 90
5
 70
0
 10
162.880492
 20
0.049991
 30
0.0
 10
163.780492
 20
0.049991
 30
0.0
 10
163.780492
 20
-4.873637
 30
0.0
 10
162.880492
 20
-4.873637
 30
0.0
 10
162.880492
 20
0.049991
 30
0.0
  0
SPLINE
  5
1d0
100
AcDbEntity
  8
0
 62
3
100
AcDbSpline
 70
8
 71
3
 72
8
 73
4
 74
0
 40
0
 40
0
 40
0
 40
0
 40
1
 40
1
 40
1
 40
1
 10
150.069098
 20
2.324872
 30
0.0
 10
150.348103
 20
10.112173
 30
0.0
 10
141.524482
 20
16.347817
 30
0.0
 10
134.273488
 20
13.737233
 30
0.0
  0
SPLINE
  5
1d1
100
AcDbEntity
  8
0
 62
3
100
AcDbSpline
 70
8
 71
3
 72
8
 73
4
 74
0
 40
0
 40
0
 40
0
 40
0
 40
1
 40
1
 40
1
 40
1
 10
134.273488
 20
13.737233
 30
0.0
 10
131.988729
 20
13.377936
 30
0.0
 10
132.982321
 20
10.766364
 30
0.0
 10
132.782987
 20
9.195205
 30
0.0
  0
SPLINE
  5
1d2
100
AcDbEntity
  8
0
 62
3
100
AcDbSpline
 70
8
 71
3
 72
8
 73
4
 74
0
 40
0
 40
0
 40
0
 40
0
 40
1
 40
1
 40
1
 40
1
 10
132.782987
 20
9.195205
 30
0.0
 10
132.782987
 20
3.342029
 30
0.0
 10
132.782987
 20
-2.511147
 30
0.0
 10
132.782987
 20
-8.364295
 30
0.0
  0
SPLINE
  5
1d3
100
AcDbEntity
  8
0
 62
3
100
AcDbSpline
 70
8
 71
3
 72
8
 73
4
 74
0
 40
0
 40
0
 40
0
 40
0
 40
1
 40
1
 40
1
 40
1
 10
132.782987
 20
-8.364295
 30
0.0
 10
135.210014
 20
-10.455928
 30
0.0
 10
138.955752
 20
-10.145540
 30
0.0
 10
141.858210
 20
-9.210962
 30
0.0
  0
SPLINE
  5
1d4
100
AcDbEntity
  8
0
 62
3
100
AcDbSpline
 70
8
 71
3
 72
8
 73
4
 74
0
 40
0
 40
0
 40
0
 40
0
 40
1
 40
1
 40
1
 40
1
 10
141.858210
 20
-9.210962
 30
0.0
 10
146.710541
 20
-7.639718
 30
0.0
 10
150.324086
 20
-2.841799
 30
0.0
 10
150.069098
 20
2.324872
 30
0.0
  0
LWPOLYLINE
  5
1d5
100
AcDbEntity
  8
0
 62
7
100
AcDbPolyline
 90
5
 70
0
 10
162.930925
 20
9.272590
 30
0.0
 10
163.830925
 20
9.272590
 30
0.0
 10
163.830925
 20
4.348962
 30
0.0
 10
162.930925
 20
4.348962
 30
0.0
 10
162.930925
 20
9.272590
 30
0.0
  0
LWPOLYLINE
  5
1d6
100
AcDbEntity
  8
0
 62
3
100
AcDbPolyline
 90
2
 70
0
 10
150.069098
 20
2.324872
 30
0.0
 10
150.069098
 20
2.324872
 30
0.0
  0
LWPOLYLINE
  5
1d7
100
AcDbEntity
  8
0
 62
7
100
AcDbPolyline
 90
5
 70
0
 10
135.374154
 20
9.264321
 30
0.0
 10
136.274154
 20
9.264321
 30
0.0
 10
136.274154
 20
4.340693
 30
0.0
 10
135.374154
 20
4.340693
 30
0.0
 10
135.374154
 20
9.264321
 30
0.0
  0
LWPOLYLINE
  5
1d8
100
AcDbEntity
  8
0
 62
7
100
AcDbPolyline
 90
5
 70
0
 10
135.374154
 20
0.077621
 30
0.0
 10
136.274154
 20
0.077621
 30
0.0
 10
136.274154
 20
-4.846007
 30
0.0
 10
135.374154
 20
-4.846007
 30
0.0
 10
135.374154
 20
0.077621
 30
0.0
  0
LWPOLYLINE
  5
1d9
100
AcDbEntity
  8
0
 62
7
100
AcDbPolyline
 90
5
 70
0
 10
143.931301
 20
0.049991
 30
0.0
 10
144.831301
 20
0.049991
 30
0.0
 10
144.831301
 20
-4.873637
 30
0.0
 10
143.931301
 20
-4.873637
 30
0.0
 10
143.931301
 20
0.049991
 30
0.0
  0
SPLINE
  5
1da
100
AcDbEntity
  8
0
 62
3
100
AcDbSpline
 70
8
 71
3
 72
8
 73
4
 74
0
 40
0
 40
0
 40
0
 40
0
 40
1
 40
1
 40
1
 40
1
 10
131.724654
 20
2.324900
 30
0.0
 10
132.003659
 20
10.112201
 30
0.0
 10
123.180038
 20
16.347845
 30
0.0
 10
115.929043
 20
13.737261
 30
0.0
  0
SPLINE
  5
1db
100
AcDbEntity
  8
0
 62
3
100
AcDbSpline
 70
8
 71
3
 72
8
 73
4
 74
0
 40
0
 40
0
 40
0
 40
0
 40
1
 40
1
 40
1
 40
1
 10
115.929043
 20
13.737261
 30
0.0
 10
113.644285
 20
13.377964
 30
0.0
 10
114.637876
 20
10.766392
 30
0.0
 10
114.438543
 20
9.195233
 30
0.0
  0
SPLINE
  5
1dc
100
AcDbEntity
  8
0
 62
3
100
AcDbSpline
 70
8
 71
3
 72
8
 73
4
 74
0
 40
0
 40
0
 40
0
 40
0
 40
1
 40
1
 40
1
 40
1
 10
114.438543
 20
9.195233
 30
0.0
 10
114.438543
 20
3.342057
 30
0.0
 10
114.438543
 20
-2.511119
 30
0.0
 10
114.438543
 20
-8.364267
 30
0.0
  0
SPLINE
  5
1dd
100
AcDbEntity
  8
0
 62
3
100
AcDbSpline
 70
8
 71
3
 72
8
 73
4
 74
0
 40
0
 40
0
 40
0
 40
0
 40
1
 40
1
 40
1
 40
1
 10
114.438543
 20
-8.364267
 30
0.0
 10
116.865569
 20
-10.455900
 30
0.0
 10
120.611307
 20
-10.145512
 30
0.0
 10
123.513765
 20
-9.210933
 30
0.0
  0
SPLINE
  5
1de
100
AcDbEntity
  8
0
 62
3
100
AcDbSpline
 70
8
 71
3
 72
8
 73
4
 74
0
 40
0
 40
0
 40
0
 40
0
 40
1
 40
1
 40
1
 40
1
 10
123.513765
 20
-9.210933
 30
0.0
 10
128.366097
 20
-7.639689
 30
0.0
 10
131.979642
 20
-2.841770
 30
0.0
 10
131.724654
 20
2.324900
 30
0.0
  0
LWPOLYLINE
  5
1df
100
AcDbEntity
  8
0
 62
7
100
AcDbPolyline
 90
5
 70
0
 10
143.981734
 20
9.272590
 30
0.0
 10
144.881734
 20
9.272590
 30
0.0
 10
144.881734
 20
4.348962
 30
0.0
 10
143.981734
 20
4.348962
 30
0.0
 10
143.981734
 20
9.272590
 30
0.0
  0
LWPOLYLINE
  5
1e0
100
AcDbEntity
  8
0
 62
3
100
AcDbPolyline
 90
2
 70
0
 10
131.724654
 20
2.324900
 30
0.0
 10
131.724654
 20
2.324900
 30
0.0
  0
LWPOLYLINE
  5
1e1
100
AcDbEntity
  8
0
 62
7
100
AcDbPolyline
 90
5
 70
0
 10
117.029710
 20
9.264349
 30
0.0
 10
117.929710
 20
9.264349
 30
0.0
 10
117.929710
 20
4.340721
 30
0.0
 10
117.029710
 20
4.340721
 30
0.0
 10
117.029710
 20
9.264349
 30
0.0
  0
LWPOLYLINE
  5
1e2
100
AcDbEntity
  8
0
 62
7
100
AcDbPolyline
 90
5
 70
0
 10
117.029710
 20
0.077649
 30
0.0
 10
117.929710
 20
0.077649
 30
0.0
 10
117.929710
 20
-4.845979
 30
0.0
 10
117.029710
 20
-4.845979
 30
0.0
 10
117.029710
 20
0.077649
 30
0.0
  0
LWPOLYLINE
  5
1e3
100
AcDbEntity
  8
0
 62
7
100
AcDbPolyline
 90
5
 70
0
 10
125.586857
 20
0.050020
 30
0.0
 10
126.486857
 20
0.050020
 30
0.0
 10
126.486857
 20
-4.873609
 30
0.0
 10
125.586857
 20
-4.873609
 30
0.0
 10
125.586857
 20
0.050020
 30
0.0
  0
SPLINE
  5
1e4
100
AcDbEntity
  8
0
 62
3
100
AcDbSpline
 70
8
 71
3
 72
8
 73
4
 74
0
 40
0
 40
0
 40
0
 40
0
 40
1
 40
1
 40
1
 40
1
 10
112.775464
 20
2.324900
 30
0.0
 10
113.054469
 20
10.112201
 30
0.0
 10
104.230847
 20
16.347845
 30
0.0
 10
96.979853
 20
13.737261
 30
0.0
  0
SPLINE
  5
1e5
100
AcDbEntity
  8
0
 62
3
100
AcDbSpline
 70
8
 71
3
 72
8
 73
4
 74
0
 40
0
 40
0
 40
0
 40
0
 40
1
 40
1
 40
1
 40
1
 10
96.979853
 20
13.737261
 30
0.0
 10
94.695095
 20
13.377964
 30
0.0
 10
95.688686
 20
10.766392
 30
0.0
 10
95.489353
 20
9.195233
 30
0.0
  0
SPLINE
  5
1e6
100
AcDbEntity
  8
0
 62
3
100
AcDbSpline
 70
8
 71
3
 72
8
 73
4
 74
0
 40
0
 40
0
 40
0
 40
0
 40
1
 40
1
 40
1
 40
1
 10
95.489353
 20
9.195233
 30
0.0
 10
95.489353
 20
3.342057
 30
0.0
 10
95.489353
 20
-2.511119
 30
0.0
 10
95.489353
 20
-8.364267
 30
0.0
  0
SPLINE
  5
1e7
100
AcDbEntity
  8
0
 62
3
100
AcDbSpline
 70
8
 71
3
 72
8
 73
4
 74
0
 40
0
 40
0
 40
0
 40
0
 40
1
 40
1
 40
1
 40
1
 10
95.489353
 20
-8.364267
 30
0.0
 10
97.916379
 20
-10.455900
 30
0.0
 10
101.662117
 20
-10.145512
 30
0.0
 10
104.564575
 20
-9.210933
 30
0.0
  0
SPLINE
  5
1e8
100
AcDbEntity
  8
0
 62
3
100
AcDbSpline
 70
8
 71
3
 72
8
 73
4
 74
0
 40
0
 40
0
 40
0
 40
0
 40
1
 40
1
 40
1
 40
1
 10
104.564575
 20
-9.210933
 30
0.0
 10
109.416906
 20
-7.639689
 30
0.0
 10
113.030452
 20
-2.841770
 30
0.0
 10
112.775464
 20
2.324900
 30
0.0
  0
LWPOLYLINE
  5
1e9
100
AcDbEntity
  8
0
 62
7
100
AcDbPolyline
 90
5
 70
0
 10
125.637290
 20
9.272618
 30
0.0
 10
126.537290
 20
9.272618
 30
0.0
 10
126.537290
 20
4.348990
 30
0.0
 10
125.637290
 20
4.348990
 30
0.0
 10
125.637290
 20
9.272618
 30
0.0
  0
LWPOLYLINE
  5
1ea
100
AcDbEntity
  8
0
 62
3
100
AcDbPolyline
 90
2
 70
0
 10
112.775464
 20
2.324900
 30
0.0
 10
112.775464
 20
2.324900
 30
0.0
  0
LWPOLYLINE
  5
1eb
100
AcDbEntity
  8
0
 62
7
100
AcDbPolyline
 90
5
 70
0
 10
98.080520
 20
9.264349
 30
0.0
 10
98.980520
 20
9.264349
 30
0.0
 10
98.980520
 20
4.340721
 30
0.0
 10
98.080520
 20
4.340721
 30
0.0
 10
98.080520
 20
9.264349
 30
0.0
  0
LWPOLYLINE
  5
1ec
100
AcDbEntity
  8
0
 62
7
100
AcDbPolyline
 90
5
 70
0
 10
98.080520
 20
0.077649
 30
0.0
 10
98.980520
 20
0.077649
 30
0.0
 10
98.980520
 20
-4.845979
 30
0.0
 10
98.080520
 20
-4.845979
 30
0.0
 10
98.080520
 20
0.077649
 30
0.0
  0
LWPOLYLINE
  5
1ed
100
AcDbEntity
  8
0
 62
7
100
AcDbPolyline
 90
5
 70
0
 10
106.637667
 20
0.050020
 30
0.0
 10
107.537667
 20
0.050020
 30
0.0
 10
107.537667
 20
-4.873609
 30
0.0
 10
106.637667
 20
-4.873609
 30
0.0
 10
106.637667
 20
0.050020
 30
0.0
  0
SPLINE
  5
1ee
100
AcDbEntity
  8
0
 62
3
100
AcDbSpline
 70
8
 71
3
 72
8
 73
4
 74
0
 40
0
 40
0
 40
0
 40
0
 40
1
 40
1
 40
1
 40
1
 10
95.186923
 20
-22.369581
 30
0.0
 10
95.465928
 20
-14.582280
 30
0.0
 10
86.642307
 20
-8.346637
 30
0.0
 10
79.391312
 20
-10.957220
 30
0.0
  0
SPLINE
  5
1ef
100
AcDbEntity
  8
0
 62
3
100
AcDbSpline
 70
8
 71
3
 72
8
 73
4
 74
0
 40
0
 40
0
 40
0
 40
0
 40
1
 40
1
 40
1
 40
1
 10
79.391312
 20
-10.957220
 30
0.0
 10
77.106554
 20
-11.316517
 30
0.0
 10
78.100146
 20
-13.928089
 30
0.0
 10
77.900812
 20
-15.499248
 30
0.0
  0
SPLINE
  5
1f0
100
AcDbEntity
  8
0
 62
3
100
AcDbSpline
 70
8
 71
3
 72
8
 73
4
 74
0
 40
0
 40
0
 40
0
 40
0
 40
1
 40
1
 40
1
 40
1
 10
77.900812
 20
-15.499248
 30
0.0
 10
77.900812
 20
-21.352424
 30
0.0
 10
77.900812
 20
-27.205600
 30
0.0
 10
77.900812
 20
-33.058748
 30
0.0
  0
SPLINE
  5
1f1
100
AcDbEntity
  8
0
 62
3
100
AcDbSpline
 70
8
 71
3
 72
8
 73
4
 74
0
 40
0
 40
0
 40
0
 40
0
 40
1
 40
1
 40
1
 40
1
 10
77.900812
 20
-33.058748
 30
0.0
 10
80.327839
 20
-35.150382
 30
0.0
 10
84.073577
 20
-34.839994
 30
0.0
 10
86.976035
 20
-33.905415
 30
0.0
  0
SPLINE
  5
1f2
100
AcDbEntity
  8
0
 62
3
100
AcDbSpline
 70
8
 71
3
 72
8
 73
4
 74
0
 40
0
 40
0
 40
0
 40
0
 40
1
 40
1
 40
1
 40
1
 10
86.976035
 20
-33.905415
 30
0.0
 10
91.828366
 20
-32.334171
 30
0.0
 10
95.441911
 20
-27.536252
 30
0.0
 10
95.186923
 20
-22.369581
 30
0.0
  0
LWPOLYLINE
  5
1f3
100
AcDbEntity
  8
0
 62
7
100
AcDbPolyline
 90
5
 70
0
 10
106.688100
 20
9.272618
 30
0.0
 10
107.588100
 20
9.272618
 30
0.0
 10
107.588100
 20
4.348990
 30
0.0
 10
106.688100
 20
4.348990
 30
0.0
 10
106.688100
 20
9.272618
 30
0.0
  0
LWPOLYLINE
  5
1f4
100
AcDbEntity
  8
0
 62
3
100
AcDbPolyline
 90
2
 70
0
 10
95.186923
 20
-22.369581
 30
0.0
 10
95.186923
 20
-22.369581
 30
0.0
  0
LWPOLYLINE
  5
1f5
100
AcDbEntity
  8
0
 62
7
100
AcDbPolyline
 90
5
 70
0
 10
80.491979
 20
-15.430132
 30
0.0
 10
81.391979
 20
-15.430132
 30
0.0
 10
81.391979
 20
-20.353760
 30
0.0
 10
80.491979
 20
-20.353760
 30
0.0
 10
80.491979
 20
-15.430132
 30
0.0
  0
LWPOLYLINE
  5
1f6
100
AcDbEntity
  8
0
 62
7
100
AcDbPolyline
 90
5
 70
0
 10
80.491979
 20
-24.616832
 30
0.0
 10
81.391979
 20
-24.616832
 30
0.0
 10
81.391979
 20
-29.540461
 30
0.0
 10
80.491979
 20
-29.540461
 30
0.0
 10
80.491979
 20
-24.616832
 30
0.0
  0
LWPOLYLINE
  5
1f7
100
AcDbEntity
  8
0
 62
7
100
AcDbPolyline
 90
5
 70
0
 10
89.049126
 20
-24.644462
 30
0.0
 10
89.949126
 20
-24.644462
 30
0.0
 10
89.949126
 20
-29.568090
 30
0.0
 10
89.049126
 20
-29.568090
 30
0.0
 10
89.049126
 20
-24.644462
 30
0.0
  0
SPLINE
  5
1f8
100
AcDbEntity
  8
0
 62
3
100
AcDbSpline
 70
8
 71
3
 72
8
 73
4
 74
0
 40
0
 40
0
 40
0
 40
0
 40
1
 40
1
 40
1
 40
1
 10
76.237733
 20
-22.369581
 30
0.0
 10
76.516738
 20
-14.582280
 30
0.0
 10
67.693117
 20
-8.346637
 30
0.0
 10
60.442122
 20
-10.957220
 30
0.0
  0
SPLINE
  5
1f9
100
AcDbEntity
  8
0
 62
3
100
AcDbSpline
 70
8
 71
3
 72
8
 73
4
 74
0
 40
0
 40
0
 40
0
 40
0
 40
1
 40
1
 40
1
 40
1
 10
60.442122
 20
-10.957220
 30
0.0
 10
58.157364
 20
-11.316517
 30
0.0
 10
59.150956
 20
-13.928089
 30
0.0
 10
58.951622
 20
-15.499248
 30
0.0
  0
SPLINE
  5
1fa
100
AcDbEntity
  8
0
 62
3
100
AcDbSpline
 70
8
 71
3
 72
8
 73
4
 74
0
 40
0
 40
0
 40
0
 40
0
 40
1
 40
1
 40
1
 40
1
 10
58.951622
 20
-15.499248
 30
0.0
 10
58.951622
 20
-21.352424
 30
0.0
 10
58.951622
 20
-27.205600
 30
0.0
 10
58.951622
 20
-33.058748
 30
0.0
  0
SPLINE
  5
1fb
100
AcDbEntity
  8
0
 62
3
100
AcDbSpline
 70
8
 71
3
 72
8
 73
4
 74
0
 40
0
 40
0
 40
0
 40
0
 40
1
 40
1
 40
1
 40
1
 10
58.951622
 20
-33.058748
 30
0.0
 10
61.378648
 20
-35.150382
 30
0.0
 10
65.124386
 20
-34.839994
 30
0.0
 10
68.026844
 20
-33.905415
 30
0.0
  0
SPLINE
  5
1fc
100
AcDbEntity
  8
0
 62
3
100
AcDbSpline
 70
8
 71
3
 72
8
 73
4
 74
0
 40
0
 40
0
 40
0
 40
0
 40
1
 40
1
 40
1
 40
1
 10
68.026844
 20
-33.905415
 30
0.0
 10
72.879176
 20
-32.334171
 30
0.0
 10
76.492721
 20
-27.536252
 30
0.0
 10
76.237733
 20
-22.369581
 30
0.0
  0
LWPOLYLINE
  5
1fd
100
AcDbEntity
  8
0
 62
7
100
AcDbPolyline
 90
5
 70
0
 10
89.099559
 20
-15.421863
 30
0.0
 10
89.999559
 20
-15.421863
 30
0.0
 10
89.999559
 20
-20.345491
 30
0.0
 10
89.099559
 20
-20.345491
 30
0.0
 10
89.099559
 20
-15.421863
 30
0.0
  0
LWPOLYLINE
  5
1fe
100
AcDbEntity
  8
0
 62
3
100
AcDbPolyline
 90
2
 70
0
 10
76.237733
 20
-22.369581
 30
0.0
 10
76.237733
 20
-22.369581
 30
0.0
  0
LWPOLYLINE
  5
1ff
100
AcDbEntity
  8
0
 62
7
100
AcDbPolyline
 90
5
 70
0
 10
61.542789
 20
-15.430132
 30
0.0
 10
62.442789
 20
-15.430132
 30
0.0
 10
62.442789
 20
-20.353760
 30
0.0
 10
61.542789
 20
-20.353760
 30
0.0
 10
61.542789
 20
-15.430132
 30
0.0
  0
LWPOLYLINE
  5
200
100
AcDbEntity
  8
0
 62
7
100
AcDbPolyline
 90
5
 70
0
 10
61.542789
 20
-24.616832
 30
0.0
 10
62.442789
 20
-24.616832
 30
0.0
 10
62.442789
 20
-29.540461
 30
0.0
 10
61.542789
 20
-29.540461
 30
0.0
 10
61.542789
 20
-24.616832
 30
0.0
  0
LWPOLYLINE
  5
201
100
AcDbEntity
  8
0
 62
7
100
AcDbPolyline
 90
5
 70
0
 10
70.099936
 20
-24.644462
 30
0.0
 10
70.999936
 20
-24.644462
 30
0.0
 10
70.999936
 20
-29.568090
 30
0.0
 10
70.099936
 20
-29.568090
 30
0.0
 10
70.099936
 20
-24.644462
 30
0.0
  0
SPLINE
  5
202
100
AcDbEntity
  8
0
 62
3
100
AcDbSpline
 70
8
 71
3
 72
8
 73
4
 74
0
 40
0
 40
0
 40
0
 40
0
 40
1
 40
1
 40
1
 40
1
 10
57.893289
 20
-22.369553
 30
0.0
 10
58.172294
 20
-14.582252
 30
0.0
 10
49.348672
 20
-8.346608
 30
0.0
 10
42.097678
 20
-10.957192
 30
0.0
  0
SPLINE
  5
203
100
AcDbEntity
  8
0
 62
3
100
AcDbSpline
 70
8
 71
3
 72
8
 73
4
 74
0
 40
0
 40
0
 40
0
 40
0
 40
1
 40
1
 40
1
 40
1
 10
42.097678
 20
-10.957192
 30
0.0
 10
39.812920
 20
-11.316489
 30
0.0
 10
40.806511
 20
-13.928061
 30
0.0
 10
40.607178
 20
-15.499220
 30
0.0
  0
SPLINE
  5
204
100
AcDbEntity
  8
0
 62
3
100
AcDbSpline
 70
8
 71
3
 72
8
 73
4
 74
0
 40
0
 40
0
 40
0
 40
0
 40
1
 40
1
 40
1
 40
1
 10
40.607178
 20
-15.499220
 30
0.0
 10
40.607178
 20
-21.352396
 30
0.0
 10
40.607178
 20
-27.205572
 30
0.0
 10
40.607178
 20
-33.058720
 30
0.0
  0
SPLINE
  5
205
100
AcDbEntity
  8
0
 62
3
100
AcDbSpline
 70
8
 71
3
 72
8
 73
4
 74
0
 40
0
 40
0
 40
0
 40
0
 40
1
 40
1
 40
1
 40
1
 10
40.607178
 20
-33.058720
 30
0.0
 10
43.034204
 20
-35.150353
 30
0.0
 10
46.779942
 20
-34.839965
 30
0.0
 10
49.682400
 20
-33.905387
 30
0.0
  0
SPLINE
  5
206
100
AcDbEntity
  8
0
 62
3
100
AcDbSpline
 70
8
 71
3
 72
8
 73
4
 74
0
 40
0
 40
0
 40
0
 40
0
 40
1
 40
1
 40
1
 40
1
 10
49.682400
 20
-33.905387
 30
0.0
 10
54.534731
 20
-32.334143
 30
0.0
 10
58.148276
 20
-27.536224
 30
0.0
 10
57.893289
 20
-22.369553
 30
0.0
  0
LWPOLYLINE
  5
207
100
AcDbEntity
  8
0
 62
7
100
AcDbPolyline
 90
5
 70
0
 10
70.150369
 20
-15.421863
 30
0.0
 10
71.050369
 20
-15.421863
 30
0.0
 10
71.050369
 20
-20.345491
 30
0.0
 10
70.150369
 20
-20.345491
 30
0.0
 10
70.150369
 20
-15.421863
 30
0.0
  0
LWPOLYLINE
  5
208
100
AcDbEntity
  8
0
 62
3
100
AcDbPolyline
 90
2
 70
0
 10
57.893289
 20
-22.369553
 30
0.0
 10
57.893289
 20
-22.369553
 30
0.0
  0
LWPOLYLINE
  5
209
100
AcDbEntity
  8
0
 62
7
100
AcDbPolyline
 90
5
 70
0
 10
43.198344
 20
-15.430104
 30
0.0
 10
44.098344
 20
-15.430104
 30
0.0
 10
44.098344
 20
-20.353732
 30
0.0
 10
43.198344
 20
-20.353732
 30
0.0
 10
43.198344
 20
-15.430104
 30
0.0
  0
LWPOLYLINE
  5
20a
100
AcDbEntity
  8
0
 62
7
100
AcDbPolyline
 90
5
 70
0
 10
43.198344
 20
-24.616804
 30
0.0
 10
44.098344
 20
-24.616804
 30
0.0
 10
44.098344
 20
-29.540432
 30
0.0
 10
43.198344
 20
-29.540432
 30
0.0
 10
43.198344
 20
-24.616804
 30
0.0
  0
LWPOLYLINE
  5
20b
100
AcDbEntity
  8
0
 62
7
100
AcDbPolyline
 90
5
 70
0
 10
51.755492
 20
-24.644434
 30
0.0
 10
52.655492
 20
-24.644434
 30
0.0
 10
52.655492
 20
-29.568062
 30
0.0
 10
51.755492
 20
-29.568062
 30
0.0
 10
51.755492
 20
-24.644434
 30
0.0
  0
SPLINE
  5
20c
100
AcDbEntity
  8
0
 62
3
100
AcDbSpline
 70
8
 71
3
 72
8
 73
4
 74
0
 40
0
 40
0
 40
0
 40
0
 40
1
 40
1
 40
1
 40
1
 10
38.944098
 20
-22.369553
 30
0.0
 10
39.223103
 20
-14.582252
 30
0.0
 10
30.399482
 20
-8.346608
 30
0.0
 10
23.148488
 20
-10.957192
 30
0.0
  0
SPLINE
  5
20d
100
AcDbEntity
  8
0
 62
3
100
AcDbSpline
 70
8
 71
3
 72
8
 73
4
 74
0
 40
0
 40
0
 40
0
 40
0
 40
1
 40
1
 40
1
 40
1
 10
23.148488
 20
-10.957192
 30
0.0
 10
20.863729
 20
-11.316489
 30
0.0
 10
21.857321
 20
-13.928061
 30
0.0
 10
21.657987
 20
-15.499220
 30
0.0
  0
SPLINE
  5
20e
100
AcDbEntity
  8
0
 62
3
100
AcDbSpline
 70
8
 71
3
 72
8
 73
4
 74
0
 40
0
 40
0
 40
0
 40
0
 40
1
 40
1
 40
1
 40
1
 10
21.657987
 20
-15.499220
 30
0.0
 10
21.657987
 20
-21.352396
 30
0.0
 10
21.657987
 20
-27.205572
 30
0.0
 10
21.657987
 20
-33.058720
 30
0.0
  0
SPLINE
  5
20f
100
AcDbEntity
  8
0
 62
3
100
AcDbSpline
 70
8
 71
3
 72
8
 73
4
 74
0
 40
0
 40
0
 40
0
 40
0
 40
1
 40
1
 40
1
 40
1
 10
21.657987
 20
-33.058720
 30
0.0
 10
24.085014
 20
-35.150353
 30
0.0
 10
27.830752
 20
-34.839965
 30
0.0
 10
30.733210
 20
-33.905387
 30
0.0
  0
SPLINE
  5
210
100
AcDbEntity
  8
0
 62
3
100
AcDbSpline
 70
8
 71
3
 72
8
 73
4
 74
0
 40
0
 40
0
 40
0
 40
0
 40
1
 40
1
 40
1
 40
1
 10
30.733210
 20
-33.905387
 30
0.0
 10
35.585541
 20
-32.334143
 30
0.0
 10
39.199086
 20
-27.536224
 30
0.0
 10
38.944098
 20
-22.369553
 30
0.0
  0
LWPOLYLINE
  5
211
100
AcDbEntity
  8
0
 62
7
100
AcDbPolyline
 90
5
 70
0
 10
51.805925
 20
-15.421835
 30
0.0
 10
52.705925
 20
-15.421835
 30
0.0
 10
52.705925
 20
-20.345463
 30
0.0
 10
51.805925
 20
-20.345463
 30
0.0
 10
51.805925
 20
-15.421835
 30
0.0
  0
LWPOLYLINE
  5
212
100
AcDbEntity
  8
0
 62
3
100
AcDbPolyline
 90
2
 70
0
 10
38.944098
 20
-22.369553
 30
0.0
 10
38.944098
 20
-22.369553
 30
0.0
  0
LWPOLYLINE
  5
213
100
AcDbEntity
  8
0
 62
7
100
AcDbPolyline
 90
5
 70
0
 10
24.249154
 20
-15.430104
 30
0.0
 10
25.149154
 20
-15.430104
 30
0.0
 10
25.149154
 20
-20.353732
 30
0.0
 10
24.249154
 20
-20.353732
 30
0.0
 10
24.249154
 20
-15.430104
 30
0.0
  0
LWPOLYLINE
  5
214
100
AcDbEntity
  8
0
 62
7
100
AcDbPolyline
 90
5
 70
0
 10
24.249154
 20
-24.616804
 30
0.0
 10
25.149154
 20
-24.616804
 30
0.0
 10
25.149154
 20
-29.540432
 30
0.0
 10
24.249154
 20
-29.540432
 30
0.0
 10
24.249154
 20
-24.616804
 30
0.0
  0
LWPOLYLINE
  5
215
100
AcDbEntity
  8
0
 62
7
100
AcDbPolyline
 90
5
 70
0
 10
32.806301
 20
-24.644434
 30
0.0
 10
33.706301
 20
-24.644434
 30
0.0
 10
33.706301
 20
-29.568062
 30
0.0
 10
32.806301
 20
-29.568062
 30
0.0
 10
32.806301
 20
-24.644434
 30
0.0
  0
SPLINE
  5
216
100
AcDbEntity
  8
0
 62
3
100
AcDbSpline
 70
8
 71
3
 72
8
 73
4
 74
0
 40
0
 40
0
 40
0
 40
0
 40
1
 40
1
 40
1
 40
1
 10
169.471848
 20
-22.974327
 30
0.0
 10
169.750853
 20
-15.187026
 30
0.0
 10
160.927232
 20
-8.951382
 30
0.0
 10
153.676237
 20
-11.561966
 30
0.0
  0
SPLINE
  5
217
100
AcDbEntity
  8
0
 62
3
100
AcDbSpline
 70
8
 71
3
 72
8
 73
4
 74
0
 40
0
 40
0
 40
0
 40
0
 40
1
 40
1
 40
1
 40
1
 10
153.676237
 20
-11.561966
 30
0.0
 10
151.391479
 20
-11.921263
 30
0.0
 10
152.385070
 20
-14.532835
 30
0.0
 10
152.185737
 20
-16.103994
 30
0.0
  0
SPLINE
  5
218
100
AcDbEntity
  8
0
 62
3
100
AcDbSpline
 70
8
 71
3
 72
8
 73
4
 74
0
 40
0
 40
0
 40
0
 40
0
 40
1
 40
1
 40
1
 40
1
 10
152.185737
 20
-16.103994
 30
0.0
 10
152.185737
 20
-21.957170
 30
0.0
 10
152.185737
 20
-27.810346
 30
0.0
 10
152.185737
 20
-33.663494
 30
0.0
  0
SPLINE
  5
219
100
AcDbEntity
  8
0
 62
3
100
AcDbSpline
 70
8
 71
3
 72
8
 73
4
 74
0
 40
0
 40
0
 40
0
 40
0
 40
1
 40
1
 40
1
 40
1
 10
152.185737
 20
-33.663494
 30
0.0
 10
154.612763
 20
-35.755127
 30
0.0
 10
158.358501
 20
-35.444739
 30
0.0
 10
161.260959
 20
-34.510161
 30
0.0
  0
SPLINE
  5
21a
100
AcDbEntity
  8
0
 62
3
100
AcDbSpline
 70
8
 71
3
 72
8
 73
4
 74
0
 40
0
 40
0
 40
0
 40
0
 40
1
 40
1
 40
1
 40
1
 10
161.260959
 20
-34.510161
 30
0.0
 10
166.113291
 20
-32.938917
 30
0.0
 10
169.726836
 20
-28.140998
 30
0.0
 10
169.471848
 20
-22.974327
 30
0.0
  0
LWPOLYLINE
  5
21b
100
AcDbEntity
  8
0
 62
7
100
AcDbPolyline
 90
5
 70
0
 10
32.856734
 20
-15.421835
 30
0.0
 10
33.756734
 20
-15.421835
 30
0.0
 10
33.756734
 20
-20.345463
 30
0.0
 10
32.856734
 20
-20.345463
 30
0.0
 10
32.856734
 20
-15.421835
 30
0.0
  0
LWPOLYLINE
  5
21c
100
AcDbEntity
  8
0
 62
3
100
AcDbPolyline
 90
2
 70
0
 10
169.471848
 20
-22.974327
 30
0.0
 10
169.471848
 20
-22.974327
 30
0.0
  0
LWPOLYLINE
  5
21d
100
AcDbEntity
  8
0
 62
7
100
AcDbPolyline
 90
5
 70
0
 10
154.776904
 20
-16.034878
 30
0.0
 10
155.676904
 20
-16.034878
 30
0.0
 10
155.676904
 20
-20.958506
 30
0.0
 10
154.776904
 20
-20.958506
 30
0.0
 10
154.776904
 20
-16.034878
 30
0.0
  0
LWPOLYLINE
  5
21e
100
AcDbEntity
  8
0
 62
7
100
AcDbPolyline
 90
5
 70
0
 10
154.776904
 20
-25.221578
 30
0.0
 10
155.676904
 20
-25.221578
 30
0.0
 10
155.676904
 20
-30.145206
 30
0.0
 10
154.776904
 20
-30.145206
 30
0.0
 10
154.776904
 20
-25.221578
 30
0.0
  0
LWPOLYLINE
  5
21f
100
AcDbEntity
  8
0
 62
7
100
AcDbPolyline
 90
5
 70
0
 10
163.334051
 20
-25.249208
 30
0.0
 10
164.234051
 20
-25.249208
 30
0.0
 10
164.234051
 20
-30.172836
 30
0.0
 10
163.334051
 20
-30.172836
 30
0.0
 10
163.334051
 20
-25.249208
 30
0.0
  0
SPLINE
  5
220
100
AcDbEntity
  8
0
 62
3
100
AcDbSpline
 70
8
 71
3
 72
8
 73
4
 74
0
 40
0
 40
0
 40
0
 40
0
 40
1
 40
1
 40
1
 40
1
 10
150.522658
 20
-22.974327
 30
0.0
 10
150.801663
 20
-15.187026
 30
0.0
 10
141.978041
 20
-8.951382
 30
0.0
 10
134.727047
 20
-11.561966
 30
0.0
  0
SPLINE
  5
221
100
AcDbEntity
  8
0
 62
3
100
AcDbSpline
 70
8
 71
3
 72
8
 73
4
 74
0
 40
0
 40
0
 40
0
 40
0
 40
1
 40
1
 40
1
 40
1
 10
134.727047
 20
-11.561966
 30
0.0
 10
132.442289
 20
-11.921263
 30
0.0
 10
133.435880
 20
-14.532835
 30
0.0
 10
133.236547
 20
-16.103994
 30
0.0
  0
SPLINE
  5
222
100
AcDbEntity
  8
0
 62
3
100
AcDbSpline
 70
8
 71
3
 72
8
 73
4
 74
0
 40
0
 40
0
 40
0
 40
0
 40
1
 40
1
 40
1
 40
1
 10
133.236547
 20
-16.103994
 30
0.0
 10
133.236547
 20
-21.957170
 30
0.0
 10
133.236547
 20
-27.810346
 30
0.0
 10
133.236547
 20
-33.663494
 30
0.0
  0
SPLINE
  5
223
100
AcDbEntity
  8
0
 62
3
100
AcDbSpline
 70
8
 71
3
 72
8
 73
4
 74
0
 40
0
 40
0
 40
0
 40
0
 40
1
 40
1
 40
1
 40
1
 10
133.236547
 20
-33.663494
 30
0.0
 10
135.663573
 20
-35.755127
 30
0.0
 10
139.409311
 20
-35.444739
 30
0.0
 10
142.311769
 20
-34.510161
 30
0.0
  0
SPLINE
  5
224
100
AcDbEntity
  8
0
 62
3
100
AcDbSpline
 70
8
 71
3
 72
8
 73
4
 74
0
 40
0
 40
0
 40
0
 40
0
 40
1
 40
1
 40
1
 40
1
 10
142.311769
 20
-34.510161
 30
0.0
 10
147.164100
 20
-32.938917
 30
0.0
 10
150.777646
 20
-28.140998
 30
0.0
 10
150.522658
 20
-22.974327
 30
0.0
  0
LWPOLYLINE
  5
225
100
AcDbEntity
  8
0
 62
7
100
AcDbPolyline
 90
5
 70
0
 10
163.384484
 20
-16.026609
 30
0.0
 10
164.284484
 20
-16.026609
 30
0.0
 10
164.284484
 20
-20.950237
 30
0.0
 10
163.384484
 20
-20.950237
 30
0.0
 10
163.384484
 20
-16.026609
 30
0.0
  0
LWPOLYLINE
  5
226
100
AcDbEntity
  8
0
 62
3
100
AcDbPolyline
 90
2
 70
0
 10
150.522658
 20
-22.974327
 30
0.0
 10
150.522658
 20
-22.974327
 30
0.0
  0
LWPOLYLINE
  5
227
100
AcDbEntity
  8
0
 62
7
100
AcDbPolyline
 90
5
 70
0
 10
135.827714
 20
-16.034878
 30
0.0
 10
136.727714
 20
-16.034878
 30
0.0
 10
136.727714
 20
-20.958506
 30
0.0
 10
135.827714
 20
-20.958506
 30
0.0
 10
135.827714
 20
-16.034878
 30
0.0
  0
LWPOLYLINE
  5
228
100
AcDbEntity
  8
0
 62
7
100
AcDbPolyline
 90
5
 70
0
 10
135.827714
 20
-25.221578
 30
0.0
 10
136.727714
 20
-25.221578
 30
0.0
 10
136.727714
 20
-30.145206
 30
0.0
 10
135.827714
 20
-30.145206
 30
0.0
 10
135.827714
 20
-25.221578
 30
0.0
  0
LWPOLYLINE
  5
229
100
AcDbEntity
  8
0
 62
7
100
AcDbPolyline
 90
5
 70
0
 10
144.384861
 20
-25.249208
 30
0.0
 10
145.284861
 20
-25.249208
 30
0.0
 10
145.284861
 20
-30.172836
 30
0.0
 10
144.384861
 20
-30.172836
 30
0.0
 10
144.384861
 20
-25.249208
 30
0.0
  0
SPLINE
  5
22a
100
AcDbEntity
  8
0
 62
3
100
AcDbSpline
 70
8
 71
3
 72
8
 73
4
 74
0
 40
0
 40
0
 40
0
 40
0
 40
1
 40
1
 40
1
 40
1
 10
132.178213
 20
-22.974299
 30
0.0
 10
132.457218
 20
-15.186998
 30
0.0
 10
123.633597
 20
-8.951354
 30
0.0
 10
116.382602
 20
-11.561938
 30
0.0
  0
SPLINE
  5
22b
100
AcDbEntity
  8
0
 62
3
100
AcDbSpline
 70
8
 71
3
 72
8
 73
4
 74
0
 40
0
 40
0
 40
0
 40
0
 40
1
 40
1
 40
1
 40
1
 10
116.382602
 20
-11.561938
 30
0.0
 10
114.097844
 20
-11.921235
 30
0.0
 10
115.091436
 20
-14.532807
 30
0.0
 10
114.892102
 20
-16.103966
 30
0.0
  0
SPLINE
  5
22c
100
AcDbEntity
  8
0
 62
3
100
AcDbSpline
 70
8
 71
3
 72
8
 73
4
 74
0
 40
0
 40
0
 40
0
 40
0
 40
1
 40
1
 40
1
 40
1
 10
114.892102
 20
-16.103966
 30
0.0
 10
114.892102
 20
-21.957142
 30
0.0
 10
114.892102
 20
-27.810318
 30
0.0
 10
114.892102
 20
-33.663466
 30
0.0
  0
SPLINE
  5
22d
100
AcDbEntity
  8
0
 62
3
100
AcDbSpline
 70
8
 71
3
 72
8
 73
4
 74
0
 40
0
 40
0
 40
0
 40
0
 40
1
 40
1
 40
1
 40
1
 10
114.892102
 20
-33.663466
 30
0.0
 10
117.319129
 20
-35.755099
 30
0.0
 10
121.064867
 20
-35.444711
 30
0.0
 10
123.967325
 20
-34.510132
 30
0.0
  0
SPLINE
  5
22e
100
AcDbEntity
  8
0
 62
3
100
AcDbSpline
 70
8
 71
3
 72
8
 73
4
 74
0
 40
0
 40
0
 40
0
 40
0
 40
1
 40
1
 40
1
 40
1
 10
123.967325
 20
-34.510132
 30
0.0
 10
128.819656
 20
-32.938888
 30
0.0
 10
132.433201
 20
-28.140969
 30
0.0
 10
132.178213
 20
-22.974299
 30
0.0
  0
LWPOLYLINE
  5
22f
100
AcDbEntity
  8
0
 62
7
100
AcDbPolyline
 90
5
 70
0
 10
144.435294
 20
-16.026609
 30
0.0
 10
145.335294
 20
-16.026609
 30
0.0
 10
145.335294
 20
-20.950237
 30
0.0
 10
144.435294
 20
-20.950237
 30
0.0
 10
144.435294
 20
-16.026609
 30
0.0
  0
LWPOLYLINE
  5
230
100
AcDbEntity
  8
0
 62
3
100
AcDbPolyline
 90
2
 70
0
 10
132.178213
 20
-22.974299
 30
0.0
 10
132.178213
 20
-22.974299
 30
0.0
  0
LWPOLYLINE
  5
231
100
AcDbEntity
  8
0
 62
7
100
AcDbPolyline
 90
5
 70
0
 10
117.483269
 20
-16.034850
 30
0.0
 10
118.383269
 20
-16.034850
 30
0.0
 10
118.383269
 20
-20.958478
 30
0.0
 10
117.483269
 20
-20.958478
 30
0.0
 10
117.483269
 20
-16.034850
 30
0.0
  0
LWPOLYLINE
  5
232
100
AcDbEntity
  8
0
 62
7
100
AcDbPolyline
 90
5
 70
0
 10
117.483269
 20
-25.221550
 30
0.0
 10
118.383269
 20
-25.221550
 30
0.0
 10
118.383269
 20
-30.145178
 30
0.0
 10
117.483269
 20
-30.145178
 30
0.0
 10
117.483269
 20
-25.221550
 30
0.0
  0
LWPOLYLINE
  5
233
100
AcDbEntity
  8
0
 62
7
100
AcDbPolyline
 90
5
 70
0
 10
126.040416
 20
-25.249179
 30
0.0
 10
126.940416
 20
-25.249179
 30
0.0
 10
126.940416
 20
-30.172808
 30
0.0
 10
126.040416
 20
-30.172808
 30
0.0
 10
126.040416
 20
-25.249179
 30
0.0
  0
SPLINE
  5
234
100
AcDbEntity
  8
0
 62
3
100
AcDbSpline
 70
8
 71
3
 72
8
 73
4
 74
0
 40
0
 40
0
 40
0
 40
0
 40
1
 40
1
 40
1
 40
1
 10
113.229023
 20
-22.974299
 30
0.0
 10
113.508028
 20
-15.186998
 30
0.0
 10
104.684407
 20
-8.951354
 30
0.0
 10
97.433412
 20
-11.561938
 30
0.0
  0
SPLINE
  5
235
100
AcDbEntity
  8
0
 62
3
100
AcDbSpline
 70
8
 71
3
 72
8
 73
4
 74
0
 40
0
 40
0
 40
0
 40
0
 40
1
 40
1
 40
1
 40
1
 10
97.433412
 20
-11.561938
 30
0.0
 10
95.148654
 20
-11.921235
 30
0.0
 10
96.142246
 20
-14.532807
 30
0.0
 10
95.942912
 20
-16.103966
 30
0.0
  0
SPLINE
  5
236
100
AcDbEntity
  8
0
 62
3
100
AcDbSpline
 70
8
 71
3
 72
8
 73
4
 74
0
 40
0
 40
0
 40
0
 40
0
 40
1
 40
1
 40
1
 40
1
 10
95.942912
 20
-16.103966
 30
0.0
 10
95.942912
 20
-21.957142
 30
0.0
 10
95.942912
 20
-27.810318
 30
0.0
 10
95.942912
 20
-33.663466
 30
0.0
  0
SPLINE
  5
237
100
AcDbEntity
  8
0
 62
3
100
AcDbSpline
 70
8
 71
3
 72
8
 73
4
 74
0
 40
0
 40
0
 40
0
 40
0
 40
1
 40
1
 40
1
 40
1
 10
95.942912
 20
-33.663466
 30
0.0
 10
98.369938
 20
-35.755099
 30
0.0
 10
102.115676
 20
-35.444711
 30
0.0
 10
105.018134
 20
-34.510132
 30
0.0
  0
SPLINE
  5
238
100
AcDbEntity
  8
0
 62
3
100
AcDbSpline
 70
8
 71
3
 72
8
 73
4
 74
0
 40
0
 40
0
 40
0
 40
0
 40
1
 40
1
 40
1
 40
1
 10
105.018134
 20
-34.510132
 30
0.0
 10
109.870466
 20
-32.938888
 30
0.0
 10
113.484011
 20
-28.140969
 30
0.0
 10
113.229023
 20
-22.974299
 30
0.0
  0
LWPOLYLINE
  5
239
100
AcDbEntity
  8
0
 62
7
100
AcDbPolyline
 90
5
 70
0
 10
126.090849
 20
-16.026581
 30
0.0
 10
126.990849
 20
-16.026581
 30
0.0
 10
126.990849
 20
-20.950209
 30
0.0
 10
126.090849
 20
-20.950209
 30
0.0
 10
126.090849
 20
-16.026581
 30
0.0
  0
LWPOLYLINE
  5
23a
100
AcDbEntity
  8
0
 62
3
100
AcDbPolyline
 90
2
 70
0
 10
113.229023
 20
-22.974299
 30
0.0
 10
113.229023
 20
-22.974299
 30
0.0
  0
LWPOLYLINE
  5
23b
100
AcDbEntity
  8
0
 62
7
100
AcDbPolyline
 90
5
 70
0
 10
98.534079
 20
-16.034850
 30
0.0
 10
99.434079
 20
-16.034850
 30
0.0
 10
99.434079
 20
-20.958478
 30
0.0
 10
98.534079
 20
-20.958478
 30
0.0
 10
98.534079
 20
-16.034850
 30
0.0
  0
LWPOLYLINE
  5
23c
100
AcDbEntity
  8
0
 62
7
100
AcDbPolyline
 90
5
 70
0
 10
98.534079
 20
-25.221550
 30
0.0
 10
99.434079
 20
-25.221550
 30
0.0
 10
99.434079
 20
-30.145178
 30
0.0
 10
98.534079
 20
-30.145178
 30
0.0
 10
98.534079
 20
-25.221550
 30
0.0
  0
LWPOLYLINE
  5
23d
100
AcDbEntity
  8
0
 62
7
100
AcDbPolyline
 90
5
 70
0
 10
107.091226
 20
-25.249179
 30
0.0
 10
107.991226
 20
-25.249179
 30
0.0
 10
107.991226
 20
-30.172808
 30
0.0
 10
107.091226
 20
-30.172808
 30
0.0
 10
107.091226
 20
-25.249179
 30
0.0
  0
LWPOLYLINE
  5
23e
100
AcDbEntity
  8
0
 62
7
100
AcDbPolyline
 90
5
 70
0
 10
107.141659
 20
-16.026581
 30
0.0
 10
108.041659
 20
-16.026581
 30
0.0
 10
108.041659
 20
-20.950209
 30
0.0
 10
107.141659
 20
-20.950209
 30
0.0
 10
107.141659
 20
-16.026581
 30
0.0
  0
ENDSEC
  0
SECTION
  2
OBJECTS
  0
DICTIONARY
  5
C
330
0
100
AcDbDictionary
  3
ACAD_GROUP
350
D
  3
ACAD_MLINESTYLE
350
17
  0
DICTIONARY
  5
D
330
C
100
AcDbDictionary
  0
DICTIONARY
  5
1A
330
C
100
AcDbDictionary
  0
DICTIONARY
  5
17
330
C
100
AcDbDictionary
  3
STANDARD
350
18
  0
DICTIONARY
  5
19
330
C
100
AcDbDictionary
  0
ENDSEC
  0
EOF
