  0
SECTION
  2
HEADER
  9
$ACADVER
  1
AC1014
  9
$HANDSEED
  5
FFFF
  9
$MEASUREMENT
 70
     1
  0
ENDSEC
  0
SECTION
  2
TABLES
  0
TABLE
  2
VPORT
  5
8
330
0
100
AcDbSymbolTable
 70
     4
  0
VPORT
  5
2E
330
8
100
AcDbSymbolTableRecord
100
AcDbViewportTableRecord
  2
*ACTIVE
 70
     0
 10
0.0
 20
0.0
 11
1.0
 21
1.0
 12
210.0
 22
148.5
 13
0.0
 23
0.0
 14
10.0
 24
10.0
 15
10.0
 25
10.0
 16
0.0
 26
0.0
 36
1.0
 17
0.0
 27
0.0
 37
0.0
 40
341.0
 41
1.24
 42
50.0
 43
0.0
 44
0.0
 50
0.0
 51
0.0
 71
     0
 72
   100
 73
     1
 74
     3
 75
     0
 76
     0
 77
     0
 78
     0
  0
ENDTAB
  0
TABLE
  2
LTYPE
  5
5
330
0
100
AcDbSymbolTable
 70
     1
  0
LTYPE
  5
14
330
5
100
AcDbSymbolTableRecord
100
AcDbLinetypeTableRecord
  2
BYBLOCK
 70
     0
  3

 72
    65
 73
     0
 40
0.0
  0
LTYPE
  5
15
330
5
100
AcDbSymbolTableRecord
100
AcDbLinetypeTableRecord
  2
BYLAYER
 70
     0
  3

 72
    65
 73
     0
 40
0.0
  0
LTYPE
  5
16
330
5
100
AcDbSymbolTableRecord
100
AcDbLinetypeTableRecord
  2
CONTINUOUS
 70
     0
  3
Solid line
 72
    65
 73
     0
 40
0.0
  0
ENDTAB
  0
TABLE
  2
LAYER
  5
2
100
AcDbSymbolTable
 70
1
  0
LAYER
  5
50
100
AcDbSymbolTableRecord
100
AcDbLayerTableRecord
  2
0
 70
0
  6
CONTINUOUS
  0
ENDTAB
  0
TABLE
  2
STYLE
  5
3
330
0
100
AcDbSymbolTable
 70
     1
  0
STYLE
  5
11
330
3
100
AcDbSymbolTableRecord
100
AcDbTextStyleTableRecord
  2
STANDARD
 70
     0
 40
0.0
 41
1.0
 50
0.0
 71
     0
 42
2.5
  3
txt
  4

  0
ENDTAB
  0
TABLE
  2
VIEW
  5
6
330
0
100
AcDbSymbolTable
 70
     0
  0
ENDTAB
  0
TABLE
  2
UCS
  5
7
330
0
100
AcDbSymbolTable
 70
     0
  0
ENDTAB
  0
TABLE
  2
APPID
  5
9
330
0
100
AcDbSymbolTable
 70
     2
  0
APPID
  5
12
330
9
100
AcDbSymbolTableRecord
100
AcDbRegAppTableRecord
  2
ACAD
 70
     0
  0
ENDTAB
  0
TABLE
  2
DIMSTYLE
  5
A
330
0
100
AcDbSymbolTable
 70
     1
  0
DIMSTYLE
105
27
330
A
100
AcDbSymbolTableRecord
100
AcDbDimStyleTableRecord
  2
ISO-25
 70
     0
  3

  4

  5

  6

  7

 40
1.0
 41
2.5
 42
0.625
 43
3.75
 44
1.25
 45
0.0
 46
0.0
 47
0.0
 48
0.0
140
2.5
141
2.5
142
0.0
143
0.03937007874016
144
1.0
145
0.0
146
1.0
147
0.625
 71
     0
 72
     0
 73
     0
 74
     0
 75
     0
 76
     0
 77
     1
 78
     8
170
     0
171
     3
172
     1
173
     0
174
     0
175
     0
176
     0
177
     0
178
     0
270
     2
271
     2
272
     2
273
     2
274
     3
340
11
275
     0
280
     0
281
     0
282
     0
283
     0
284
     8
285
     0
286
     0
287
     3
288
     0
  0
ENDTAB
  0
TABLE
  2
BLOCK_RECORD
  5
1
330
0
100
AcDbSymbolTable
 70
     1
  0
BLOCK_RECORD
  5
1F
330
1
100
AcDbSymbolTableRecord
100
AcDbBlockTableRecord
  2
*MODEL_SPACE
  0
BLOCK_RECORD
  5
1B
330
1
100
AcDbSymbolTableRecord
100
AcDbBlockTableRecord
  2
*PAPER_SPACE
  0
ENDTAB
  0
ENDSEC
  0
SECTION
  2
BLOCKS
  0
BLOCK
  5
20
330
1F
100
AcDbEntity
  8
0
100
AcDbBlockBegin
  2
*MODEL_SPACE
 70
     0
 10
0.0
 20
0.0
 30
0.0
  3
*MODEL_SPACE
  1

  0
ENDBLK
  5
21
330
1F
100
AcDbEntity
  8
0
100
AcDbBlockEnd
  0
BLOCK
  5
1C
330
1B
100
AcDbEntity
 67
     1
  8
0
100
AcDbBlockBegin
  2
*PAPER_SPACE
  1

  0
ENDBLK
  5
1D
330
1B
100
AcDbEntity
 67
     1
  8
0
100
AcDbBlockEnd
  0
ENDSEC
  0
SECTION
  2
ENTITIES
  0
SPLINE
  5
100
100
AcDbEntity
  8
0
 62
7
100
AcDbSpline
 70
8
 71
3
 72
8
 73
4
 74
0
 40
0
 40
0
 40
0
 40
0
 40
1
 40
1
 40
1
 40
1
 10
158.394762
 20
47.979679
 30
0.0
 10
160.024007
 20
47.979679
 30
0.0
 10
161.344758
 20
46.658918
 30
0.0
 10
161.344758
 20
45.029679
 30
0.0
  0
SPLINE
  5
101
100
AcDbEntity
  8
0
 62
7
100
AcDbSpline
 70
8
 71
3
 72
8
 73
4
 74
0
 40
0
 40
0
 40
0
 40
0
 40
1
 40
1
 40
1
 40
1
 10
161.344758
 20
45.029679
 30
0.0
 10
161.344758
 20
43.400439
 30
0.0
 10
160.024007
 20
42.079678
 30
0.0
 10
158.394762
 20
42.079678
 30
0.0
  0
SPLINE
  5
102
100
AcDbEntity
  8
0
 62
7
100
AcDbSpline
 70
8
 71
3
 72
8
 73
4
 74
0
 40
0
 40
0
 40
0
 40
0
 40
1
 40
1
 40
1
 40
1
 10
158.394762
 20
42.079678
 30
0.0
 10
156.765517
 20
42.079678
 30
0.0
 10
155.444766
 20
43.400439
 30
0.0
 10
155.444766
 20
45.029679
 30
0.0
  0
SPLINE
  5
103
100
AcDbEntity
  8
0
 62
7
100
AcDbSpline
 70
8
 71
3
 72
8
 73
4
 74
0
 40
0
 40
0
 40
0
 40
0
 40
1
 40
1
 40
1
 40
1
 10
155.444766
 20
45.029679
 30
0.0
 10
155.444766
 20
46.658918
 30
0.0
 10
156.765517
 20
47.979679
 30
0.0
 10
158.394762
 20
47.979679
 30
0.0
  0
SPLINE
  5
104
100
AcDbEntity
  8
0
 62
7
100
AcDbSpline
 70
8
 71
3
 72
8
 73
4
 74
0
 40
0
 40
0
 40
0
 40
0
 40
1
 40
1
 40
1
 40
1
 10
158.394762
 20
109.107036
 30
0.0
 10
160.024007
 20
109.107036
 30
0.0
 10
161.344758
 20
107.786276
 30
0.0
 10
161.344758
 20
106.157037
 30
0.0
  0
SPLINE
  5
105
100
AcDbEntity
  8
0
 62
7
100
AcDbSpline
 70
8
 71
3
 72
8
 73
4
 74
0
 40
0
 40
0
 40
0
 40
0
 40
1
 40
1
 40
1
 40
1
 10
161.344758
 20
106.157037
 30
0.0
 10
161.344758
 20
104.527797
 30
0.0
 10
160.024007
 20
103.207036
 30
0.0
 10
158.394762
 20
103.207036
 30
0.0
  0
SPLINE
  5
106
100
AcDbEntity
  8
0
 62
7
100
AcDbSpline
 70
8
 71
3
 72
8
 73
4
 74
0
 40
0
 40
0
 40
0
 40
0
 40
1
 40
1
 40
1
 40
1
 10
158.394762
 20
103.207036
 30
0.0
 10
156.765517
 20
103.207036
 30
0.0
 10
155.444766
 20
104.527797
 30
0.0
 10
155.444766
 20
106.157037
 30
0.0
  0
SPLINE
  5
107
100
AcDbEntity
  8
0
 62
7
100
AcDbSpline
 70
8
 71
3
 72
8
 73
4
 74
0
 40
0
 40
0
 40
0
 40
0
 40
1
 40
1
 40
1
 40
1
 10
155.444766
 20
106.157037
 30
0.0
 10
155.444766
 20
107.786276
 30
0.0
 10
156.765517
 20
109.107036
 30
0.0
 10
158.394762
 20
109.107036
 30
0.0
  0
LWPOLYLINE
  5
108
100
AcDbEntity
  8
0
 62
7
100
AcDbPolyline
 90
2
 70
0
 10
158.394762
 20
47.979679
 30
0.0
 10
158.394762
 20
47.979679
 30
0.0
  0
SPLINE
  5
109
100
AcDbEntity
  8
0
 62
7
100
AcDbSpline
 70
8
 71
3
 72
8
 73
4
 74
0
 40
0
 40
0
 40
0
 40
0
 40
1
 40
1
 40
1
 40
1
 10
158.394762
 20
170.234422
 30
0.0
 10
160.024007
 20
170.234422
 30
0.0
 10
161.344758
 20
168.913662
 30
0.0
 10
161.344758
 20
167.284423
 30
0.0
  0
SPLINE
  5
10a
100
AcDbEntity
  8
0
 62
7
100
AcDbSpline
 70
8
 71
3
 72
8
 73
4
 74
0
 40
0
 40
0
 40
0
 40
0
 40
1
 40
1
 40
1
 40
1
 10
161.344758
 20
167.284423
 30
0.0
 10
161.344758
 20
165.655183
 30
0.0
 10
160.024007
 20
164.334422
 30
0.0
 10
158.394762
 20
164.334422
 30
0.0
  0
SPLINE
  5
10b
100
AcDbEntity
  8
0
 62
7
100
AcDbSpline
 70
8
 71
3
 72
8
 73
4
 74
0
 40
0
 40
0
 40
0
 40
0
 40
1
 40
1
 40
1
 40
1
 10
158.394762
 20
164.334422
 30
0.0
 10
156.765517
 20
164.334422
 30
0.0
 10
155.444766
 20
165.655183
 30
0.0
 10
155.444766
 20
167.284423
 30
0.0
  0
SPLINE
  5
10c
100
AcDbEntity
  8
0
 62
7
100
AcDbSpline
 70
8
 71
3
 72
8
 73
4
 74
0
 40
0
 40
0
 40
0
 40
0
 40
1
 40
1
 40
1
 40
1
 10
155.444766
 20
167.284423
 30
0.0
 10
155.444766
 20
168.913662
 30
0.0
 10
156.765517
 20
170.234422
 30
0.0
 10
158.394762
 20
170.234422
 30
0.0
  0
LWPOLYLINE
  5
10d
100
AcDbEntity
  8
0
 62
7
100
AcDbPolyline
 90
2
 70
0
 10
158.394762
 20
109.107036
 30
0.0
 10
158.394762
 20
109.107036
 30
0.0
  0
SPLINE
  5
10e
100
AcDbEntity
  8
0
 62
7
100
AcDbSpline
 70
8
 71
3
 72
8
 73
4
 74
0
 40
0
 40
0
 40
0
 40
0
 40
1
 40
1
 40
1
 40
1
 10
91.303879
 20
170.705113
 30
0.0
 10
92.933125
 20
170.705113
 30
0.0
 10
94.253875
 20
169.384352
 30
0.0
 10
94.253875
 20
167.755113
 30
0.0
  0
SPLINE
  5
10f
100
AcDbEntity
  8
0
 62
7
100
AcDbSpline
 70
8
 71
3
 72
8
 73
4
 74
0
 40
0
 40
0
 40
0
 40
0
 40
1
 40
1
 40
1
 40
1
 10
94.253875
 20
167.755113
 30
0.0
 10
94.253875
 20
166.125873
 30
0.0
 10
92.933125
 20
164.805112
 30
0.0
 10
91.303879
 20
164.805112
 30
0.0
  0
SPLINE
  5
110
100
AcDbEntity
  8
0
 62
7
100
AcDbSpline
 70
8
 71
3
 72
8
 73
4
 74
0
 40
0
 40
0
 40
0
 40
0
 40
1
 40
1
 40
1
 40
1
 10
91.303879
 20
164.805112
 30
0.0
 10
89.674634
 20
164.805112
 30
0.0
 10
88.353883
 20
166.125873
 30
0.0
 10
88.353883
 20
167.755113
 30
0.0
  0
SPLINE
  5
111
100
AcDbEntity
  8
0
 62
7
100
AcDbSpline
 70
8
 71
3
 72
8
 73
4
 74
0
 40
0
 40
0
 40
0
 40
0
 40
1
 40
1
 40
1
 40
1
 10
88.353883
 20
167.755113
 30
0.0
 10
88.353883
 20
169.384352
 30
0.0
 10
89.674634
 20
170.705113
 30
0.0
 10
91.303879
 20
170.705113
 30
0.0
  0
LWPOLYLINE
  5
112
100
AcDbEntity
  8
0
 62
7
100
AcDbPolyline
 90
2
 70
0
 10
158.394762
 20
170.234422
 30
0.0
 10
158.394762
 20
170.234422
 30
0.0
  0
SPLINE
  5
113
100
AcDbEntity
  8
0
 62
7
100
AcDbSpline
 70
8
 71
3
 72
8
 73
4
 74
0
 40
0
 40
0
 40
0
 40
0
 40
1
 40
1
 40
1
 40
1
 10
91.303879
 20
109.577727
 30
0.0
 10
92.933125
 20
109.577727
 30
0.0
 10
94.253875
 20
108.256966
 30
0.0
 10
94.253875
 20
106.627727
 30
0.0
  0
SPLINE
  5
114
100
AcDbEntity
  8
0
 62
7
100
AcDbSpline
 70
8
 71
3
 72
8
 73
4
 74
0
 40
0
 40
0
 40
0
 40
0
 40
1
 40
1
 40
1
 40
1
 10
94.253875
 20
106.627727
 30
0.0
 10
94.253875
 20
104.998487
 30
0.0
 10
92.933125
 20
103.677726
 30
0.0
 10
91.303879
 20
103.677726
 30
0.0
  0
SPLINE
  5
115
100
AcDbEntity
  8
0
 62
7
100
AcDbSpline
 70
8
 71
3
 72
8
 73
4
 74
0
 40
0
 40
0
 40
0
 40
0
 40
1
 40
1
 40
1
 40
1
 10
91.303879
 20
103.677726
 30
0.0
 10
89.674634
 20
103.677726
 30
0.0
 10
88.353883
 20
104.998487
 30
0.0
 10
88.353883
 20
106.627727
 30
0.0
  0
SPLINE
  5
116
100
AcDbEntity
  8
0
 62
7
100
AcDbSpline
 70
8
 71
3
 72
8
 73
4
 74
0
 40
0
 40
0
 40
0
 40
0
 40
1
 40
1
 40
1
 40
1
 10
88.353883
 20
106.627727
 30
0.0
 10
88.353883
 20
108.256966
 30
0.0
 10
89.674634
 20
109.577727
 30
0.0
 10
91.303879
 20
109.577727
 30
0.0
  0
LWPOLYLINE
  5
117
100
AcDbEntity
  8
0
 62
7
100
AcDbPolyline
 90
2
 70
0
 10
91.303879
 20
170.705113
 30
0.0
 10
91.303879
 20
170.705113
 30
0.0
  0
SPLINE
  5
118
100
AcDbEntity
  8
0
 62
7
100
AcDbSpline
 70
8
 71
3
 72
8
 73
4
 74
0
 40
0
 40
0
 40
0
 40
0
 40
1
 40
1
 40
1
 40
1
 10
91.303879
 20
48.450369
 30
0.0
 10
92.933125
 20
48.450369
 30
0.0
 10
94.253875
 20
47.129608
 30
0.0
 10
94.253875
 20
45.500369
 30
0.0
  0
SPLINE
  5
119
100
AcDbEntity
  8
0
 62
7
100
AcDbSpline
 70
8
 71
3
 72
8
 73
4
 74
0
 40
0
 40
0
 40
0
 40
0
 40
1
 40
1
 40
1
 40
1
 10
94.253875
 20
45.500369
 30
0.0
 10
94.253875
 20
43.871129
 30
0.0
 10
92.933125
 20
42.550369
 30
0.0
 10
91.303879
 20
42.550369
 30
0.0
  0
SPLINE
  5
11a
100
AcDbEntity
  8
0
 62
7
100
AcDbSpline
 70
8
 71
3
 72
8
 73
4
 74
0
 40
0
 40
0
 40
0
 40
0
 40
1
 40
1
 40
1
 40
1
 10
91.303879
 20
42.550369
 30
0.0
 10
89.674634
 20
42.550369
 30
0.0
 10
88.353883
 20
43.871129
 30
0.0
 10
88.353883
 20
45.500369
 30
0.0
  0
SPLINE
  5
11b
100
AcDbEntity
  8
0
 62
7
100
AcDbSpline
 70
8
 71
3
 72
8
 73
4
 74
0
 40
0
 40
0
 40
0
 40
0
 40
1
 40
1
 40
1
 40
1
 10
88.353883
 20
45.500369
 30
0.0
 10
88.353883
 20
47.129608
 30
0.0
 10
89.674634
 20
48.450369
 30
0.0
 10
91.303879
 20
48.450369
 30
0.0
  0
LWPOLYLINE
  5
11c
100
AcDbEntity
  8
0
 62
7
100
AcDbPolyline
 90
2
 70
0
 10
91.303879
 20
109.577727
 30
0.0
 10
91.303879
 20
109.577727
 30
0.0
  0
SPLINE
  5
11d
100
AcDbEntity
  8
0
 62
7
100
AcDbSpline
 70
8
 71
3
 72
8
 73
4
 74
0
 40
0
 40
0
 40
0
 40
0
 40
1
 40
1
 40
1
 40
1
 10
91.303879
 20
-12.677017
 30
0.0
 10
92.933125
 20
-12.677017
 30
0.0
 10
94.253875
 20
-13.997778
 30
0.0
 10
94.253875
 20
-15.627017
 30
0.0
  0
SPLINE
  5
11e
100
AcDbEntity
  8
0
 62
7
100
AcDbSpline
 70
8
 71
3
 72
8
 73
4
 74
0
 40
0
 40
0
 40
0
 40
0
 40
1
 40
1
 40
1
 40
1
 10
94.253875
 20
-15.627017
 30
0.0
 10
94.253875
 20
-17.256257
 30
0.0
 10
92.933125
 20
-18.577017
 30
0.0
 10
91.303879
 20
-18.577017
 30
0.0
  0
SPLINE
  5
11f
100
AcDbEntity
  8
0
 62
7
100
AcDbSpline
 70
8
 71
3
 72
8
 73
4
 74
0
 40
0
 40
0
 40
0
 40
0
 40
1
 40
1
 40
1
 40
1
 10
91.303879
 20
-18.577017
 30
0.0
 10
89.674634
 20
-18.577017
 30
0.0
 10
88.353883
 20
-17.256257
 30
0.0
 10
88.353883
 20
-15.627017
 30
0.0
  0
SPLINE
  5
120
100
AcDbEntity
  8
0
 62
7
100
AcDbSpline
 70
8
 71
3
 72
8
 73
4
 74
0
 40
0
 40
0
 40
0
 40
0
 40
1
 40
1
 40
1
 40
1
 10
88.353883
 20
-15.627017
 30
0.0
 10
88.353883
 20
-13.997778
 30
0.0
 10
89.674634
 20
-12.677017
 30
0.0
 10
91.303879
 20
-12.677017
 30
0.0
  0
LWPOLYLINE
  5
121
100
AcDbEntity
  8
0
 62
7
100
AcDbPolyline
 90
2
 70
0
 10
91.303879
 20
48.450369
 30
0.0
 10
91.303879
 20
48.450369
 30
0.0
  0
SPLINE
  5
122
100
AcDbEntity
  8
0
 62
7
100
AcDbSpline
 70
8
 71
3
 72
8
 73
4
 74
0
 40
0
 40
0
 40
0
 40
0
 40
1
 40
1
 40
1
 40
1
 10
38.066157
 20
-13.502997
 30
0.0
 10
39.695402
 20
-13.502997
 30
0.0
 10
41.016153
 20
-14.823757
 30
0.0
 10
41.016153
 20
-16.452996
 30
0.0
  0
SPLINE
  5
123
100
AcDbEntity
  8
0
 62
7
100
AcDbSpline
 70
8
 71
3
 72
8
 73
4
 74
0
 40
0
 40
0
 40
0
 40
0
 40
1
 40
1
 40
1
 40
1
 10
41.016153
 20
-16.452996
 30
0.0
 10
41.016153
 20
-18.082237
 30
0.0
 10
39.695402
 20
-19.402997
 30
0.0
 10
38.066157
 20
-19.402997
 30
0.0
  0
SPLINE
  5
124
100
AcDbEntity
  8
0
 62
7
100
AcDbSpline
 70
8
 71
3
 72
8
 73
4
 74
0
 40
0
 40
0
 40
0
 40
0
 40
1
 40
1
 40
1
 40
1
 10
38.066157
 20
-19.402997
 30
0.0
 10
36.436911
 20
-19.402997
 30
0.0
 10
35.116161
 20
-18.082237
 30
0.0
 10
35.116161
 20
-16.452996
 30
0.0
  0
SPLINE
  5
125
100
AcDbEntity
  8
0
 62
7
100
AcDbSpline
 70
8
 71
3
 72
8
 73
4
 74
0
 40
0
 40
0
 40
0
 40
0
 40
1
 40
1
 40
1
 40
1
 10
35.116161
 20
-16.452996
 30
0.0
 10
35.116161
 20
-14.823757
 30
0.0
 10
36.436911
 20
-13.502997
 30
0.0
 10
38.066157
 20
-13.502997
 30
0.0
  0
LWPOLYLINE
  5
126
100
AcDbEntity
  8
0
 62
7
100
AcDbPolyline
 90
2
 70
0
 10
91.303879
 20
-12.677017
 30
0.0
 10
91.303879
 20
-12.677017
 30
0.0
  0
SPLINE
  5
127
100
AcDbEntity
  8
0
 62
7
100
AcDbSpline
 70
8
 71
3
 72
8
 73
4
 74
0
 40
0
 40
0
 40
0
 40
0
 40
1
 40
1
 40
1
 40
1
 10
38.066157
 20
47.624361
 30
0.0
 10
39.695402
 20
47.624361
 30
0.0
 10
41.016153
 20
46.303600
 30
0.0
 10
41.016153
 20
44.674361
 30
0.0
  0
SPLINE
  5
128
100
AcDbEntity
  8
0
 62
7
100
AcDbSpline
 70
8
 71
3
 72
8
 73
4
 74
0
 40
0
 40
0
 40
0
 40
0
 40
1
 40
1
 40
1
 40
1
 10
41.016153
 20
44.674361
 30
0.0
 10
41.016153
 20
43.045121
 30
0.0
 10
39.695402
 20
41.724361
 30
0.0
 10
38.066157
 20
41.724361
 30
0.0
  0
SPLINE
  5
129
100
AcDbEntity
  8
0
 62
7
100
AcDbSpline
 70
8
 71
3
 72
8
 73
4
 74
0
 40
0
 40
0
 40
0
 40
0
 40
1
 40
1
 40
1
 40
1
 10
38.066157
 20
41.724361
 30
0.0
 10
36.436911
 20
41.724361
 30
0.0
 10
35.116161
 20
43.045121
 30
0.0
 10
35.116161
 20
44.674361
 30
0.0
  0
SPLINE
  5
12a
100
AcDbEntity
  8
0
 62
7
100
AcDbSpline
 70
8
 71
3
 72
8
 73
4
 74
0
 40
0
 40
0
 40
0
 40
0
 40
1
 40
1
 40
1
 40
1
 10
35.116161
 20
44.674361
 30
0.0
 10
35.116161
 20
46.303600
 30
0.0
 10
36.436911
 20
47.624361
 30
0.0
 10
38.066157
 20
47.624361
 30
0.0
  0
LWPOLYLINE
  5
12b
100
AcDbEntity
  8
0
 62
7
100
AcDbPolyline
 90
2
 70
0
 10
38.066157
 20
-13.502997
 30
0.0
 10
38.066157
 20
-13.502997
 30
0.0
  0
SPLINE
  5
12c
100
AcDbEntity
  8
0
 62
7
100
AcDbSpline
 70
8
 71
3
 72
8
 73
4
 74
0
 40
0
 40
0
 40
0
 40
0
 40
1
 40
1
 40
1
 40
1
 10
38.066157
 20
108.751747
 30
0.0
 10
39.695402
 20
108.751747
 30
0.0
 10
41.016153
 20
107.430986
 30
0.0
 10
41.016153
 20
105.801747
 30
0.0
  0
SPLINE
  5
12d
100
AcDbEntity
  8
0
 62
7
100
AcDbSpline
 70
8
 71
3
 72
8
 73
4
 74
0
 40
0
 40
0
 40
0
 40
0
 40
1
 40
1
 40
1
 40
1
 10
41.016153
 20
105.801747
 30
0.0
 10
41.016153
 20
104.172507
 30
0.0
 10
39.695402
 20
102.851747
 30
0.0
 10
38.066157
 20
102.851747
 30
0.0
  0
SPLINE
  5
12e
100
AcDbEntity
  8
0
 62
7
100
AcDbSpline
 70
8
 71
3
 72
8
 73
4
 74
0
 40
0
 40
0
 40
0
 40
0
 40
1
 40
1
 40
1
 40
1
 10
38.066157
 20
102.851747
 30
0.0
 10
36.436911
 20
102.851747
 30
0.0
 10
35.116161
 20
104.172507
 30
0.0
 10
35.116161
 20
105.801747
 30
0.0
  0
SPLINE
  5
12f
100
AcDbEntity
  8
0
 62
7
100
AcDbSpline
 70
8
 71
3
 72
8
 73
4
 74
0
 40
0
 40
0
 40
0
 40
0
 40
1
 40
1
 40
1
 40
1
 10
35.116161
 20
105.801747
 30
0.0
 10
35.116161
 20
107.430986
 30
0.0
 10
36.436911
 20
108.751747
 30
0.0
 10
38.066157
 20
108.751747
 30
0.0
  0
LWPOLYLINE
  5
130
100
AcDbEntity
  8
0
 62
7
100
AcDbPolyline
 90
2
 70
0
 10
38.066157
 20
47.624361
 30
0.0
 10
38.066157
 20
47.624361
 30
0.0
  0
SPLINE
  5
131
100
AcDbEntity
  8
0
 62
7
100
AcDbSpline
 70
8
 71
3
 72
8
 73
4
 74
0
 40
0
 40
0
 40
0
 40
0
 40
1
 40
1
 40
1
 40
1
 10
38.066157
 20
169.879133
 30
0.0
 10
39.695402
 20
169.879133
 30
0.0
 10
41.016153
 20
168.558372
 30
0.0
 10
41.016153
 20
166.929133
 30
0.0
  0
SPLINE
  5
132
100
AcDbEntity
  8
0
 62
7
100
AcDbSpline
 70
8
 71
3
 72
8
 73
4
 74
0
 40
0
 40
0
 40
0
 40
0
 40
1
 40
1
 40
1
 40
1
 10
41.016153
 20
166.929133
 30
0.0
 10
41.016153
 20
165.299893
 30
0.0
 10
39.695402
 20
163.979133
 30
0.0
 10
38.066157
 20
163.979133
 30
0.0
  0
SPLINE
  5
133
100
AcDbEntity
  8
0
 62
7
100
AcDbSpline
 70
8
 71
3
 72
8
 73
4
 74
0
 40
0
 40
0
 40
0
 40
0
 40
1
 40
1
 40
1
 40
1
 10
38.066157
 20
163.979133
 30
0.0
 10
36.436911
 20
163.979133
 30
0.0
 10
35.116161
 20
165.299893
 30
0.0
 10
35.116161
 20
166.929133
 30
0.0
  0
SPLINE
  5
134
100
AcDbEntity
  8
0
 62
7
100
AcDbSpline
 70
8
 71
3
 72
8
 73
4
 74
0
 40
0
 40
0
 40
0
 40
0
 40
1
 40
1
 40
1
 40
1
 10
35.116161
 20
166.929133
 30
0.0
 10
35.116161
 20
168.558372
 30
0.0
 10
36.436911
 20
169.879133
 30
0.0
 10
38.066157
 20
169.879133
 30
0.0
  0
LWPOLYLINE
  5
135
100
AcDbEntity
  8
0
 62
7
100
AcDbPolyline
 90
2
 70
0
 10
38.066157
 20
108.751747
 30
0.0
 10
38.066157
 20
108.751747
 30
0.0
  0
SPLINE
  5
136
100
AcDbEntity
  8
0
 62
7
100
AcDbSpline
 70
8
 71
3
 72
8
 73
4
 74
0
 40
0
 40
0
 40
0
 40
0
 40
1
 40
1
 40
1
 40
1
 10
-15.350551
 20
-12.470374
 30
0.0
 10
-13.721306
 20
-12.470374
 30
0.0
 10
-12.400555
 20
-13.791135
 30
0.0
 10
-12.400555
 20
-15.420373
 30
0.0
  0
SPLINE
  5
137
100
AcDbEntity
  8
0
 62
7
100
AcDbSpline
 70
8
 71
3
 72
8
 73
4
 74
0
 40
0
 40
0
 40
0
 40
0
 40
1
 40
1
 40
1
 40
1
 10
-12.400555
 20
-15.420373
 30
0.0
 10
-12.400555
 20
-17.049614
 30
0.0
 10
-13.721306
 20
-18.370374
 30
0.0
 10
-15.350551
 20
-18.370374
 30
0.0
  0
SPLINE
  5
138
100
AcDbEntity
  8
0
 62
7
100
AcDbSpline
 70
8
 71
3
 72
8
 73
4
 74
0
 40
0
 40
0
 40
0
 40
0
 40
1
 40
1
 40
1
 40
1
 10
-15.350551
 20
-18.370374
 30
0.0
 10
-16.979797
 20
-18.370374
 30
0.0
 10
-18.300547
 20
-17.049614
 30
0.0
 10
-18.300547
 20
-15.420373
 30
0.0
  0
SPLINE
  5
139
100
AcDbEntity
  8
0
 62
7
100
AcDbSpline
 70
8
 71
3
 72
8
 73
4
 74
0
 40
0
 40
0
 40
0
 40
0
 40
1
 40
1
 40
1
 40
1
 10
-18.300547
 20
-15.420373
 30
0.0
 10
-18.300547
 20
-13.791135
 30
0.0
 10
-16.979797
 20
-12.470374
 30
0.0
 10
-15.350551
 20
-12.470374
 30
0.0
  0
LWPOLYLINE
  5
13a
100
AcDbEntity
  8
0
 62
7
100
AcDbPolyline
 90
2
 70
0
 10
38.066157
 20
169.879133
 30
0.0
 10
38.066157
 20
169.879133
 30
0.0
  0
SPLINE
  5
13b
100
AcDbEntity
  8
0
 62
7
100
AcDbSpline
 70
8
 71
3
 72
8
 73
4
 74
0
 40
0
 40
0
 40
0
 40
0
 40
1
 40
1
 40
1
 40
1
 10
-15.350551
 20
48.656984
 30
0.0
 10
-13.721306
 20
48.656984
 30
0.0
 10
-12.400555
 20
47.336223
 30
0.0
 10
-12.400555
 20
45.706984
 30
0.0
  0
SPLINE
  5
13c
100
AcDbEntity
  8
0
 62
7
100
AcDbSpline
 70
8
 71
3
 72
8
 73
4
 74
0
 40
0
 40
0
 40
0
 40
0
 40
1
 40
1
 40
1
 40
1
 10
-12.400555
 20
45.706984
 30
0.0
 10
-12.400555
 20
44.077744
 30
0.0
 10
-13.721306
 20
42.756983
 30
0.0
 10
-15.350551
 20
42.756983
 30
0.0
  0
SPLINE
  5
13d
100
AcDbEntity
  8
0
 62
7
100
AcDbSpline
 70
8
 71
3
 72
8
 73
4
 74
0
 40
0
 40
0
 40
0
 40
0
 40
1
 40
1
 40
1
 40
1
 10
-15.350551
 20
42.756983
 30
0.0
 10
-16.979797
 20
42.756983
 30
0.0
 10
-18.300547
 20
44.077744
 30
0.0
 10
-18.300547
 20
45.706984
 30
0.0
  0
SPLINE
  5
13e
100
AcDbEntity
  8
0
 62
7
100
AcDbSpline
 70
8
 71
3
 72
8
 73
4
 74
0
 40
0
 40
0
 40
0
 40
0
 40
1
 40
1
 40
1
 40
1
 10
-18.300547
 20
45.706984
 30
0.0
 10
-18.300547
 20
47.336223
 30
0.0
 10
-16.979797
 20
48.656984
 30
0.0
 10
-15.350551
 20
48.656984
 30
0.0
  0
LWPOLYLINE
  5
13f
100
AcDbEntity
  8
0
 62
7
100
AcDbPolyline
 90
2
 70
0
 10
-15.350551
 20
-12.470374
 30
0.0
 10
-15.350551
 20
-12.470374
 30
0.0
  0
SPLINE
  5
140
100
AcDbEntity
  8
0
 62
7
100
AcDbSpline
 70
8
 71
3
 72
8
 73
4
 74
0
 40
0
 40
0
 40
0
 40
0
 40
1
 40
1
 40
1
 40
1
 10
-15.350551
 20
109.784370
 30
0.0
 10
-13.721306
 20
109.784370
 30
0.0
 10
-12.400555
 20
108.463609
 30
0.0
 10
-12.400555
 20
106.834370
 30
0.0
  0
SPLINE
  5
141
100
AcDbEntity
  8
0
 62
7
100
AcDbSpline
 70
8
 71
3
 72
8
 73
4
 74
0
 40
0
 40
0
 40
0
 40
0
 40
1
 40
1
 40
1
 40
1
 10
-12.400555
 20
106.834370
 30
0.0
 10
-12.400555
 20
105.205130
 30
0.0
 10
-13.721306
 20
103.884369
 30
0.0
 10
-15.350551
 20
103.884369
 30
0.0
  0
SPLINE
  5
142
100
AcDbEntity
  8
0
 62
7
100
AcDbSpline
 70
8
 71
3
 72
8
 73
4
 74
0
 40
0
 40
0
 40
0
 40
0
 40
1
 40
1
 40
1
 40
1
 10
-15.350551
 20
103.884369
 30
0.0
 10
-16.979797
 20
103.884369
 30
0.0
 10
-18.300547
 20
105.205130
 30
0.0
 10
-18.300547
 20
106.834370
 30
0.0
  0
SPLINE
  5
143
100
AcDbEntity
  8
0
 62
7
100
AcDbSpline
 70
8
 71
3
 72
8
 73
4
 74
0
 40
0
 40
0
 40
0
 40
0
 40
1
 40
1
 40
1
 40
1
 10
-18.300547
 20
106.834370
 30
0.0
 10
-18.300547
 20
108.463609
 30
0.0
 10
-16.979797
 20
109.784370
 30
0.0
 10
-15.350551
 20
109.784370
 30
0.0
  0
LWPOLYLINE
  5
144
100
AcDbEntity
  8
0
 62
7
100
AcDbPolyline
 90
2
 70
0
 10
-15.350551
 20
48.656984
 30
0.0
 10
-15.350551
 20
48.656984
 30
0.0
  0
SPLINE
  5
145
100
AcDbEntity
  8
0
 62
7
100
AcDbSpline
 70
8
 71
3
 72
8
 73
4
 74
0
 40
0
 40
0
 40
0
 40
0
 40
1
 40
1
 40
1
 40
1
 10
-15.350551
 20
170.911756
 30
0.0
 10
-13.721306
 20
170.911756
 30
0.0
 10
-12.400555
 20
169.590995
 30
0.0
 10
-12.400555
 20
167.961756
 30
0.0
  0
SPLINE
  5
146
100
AcDbEntity
  8
0
 62
7
100
AcDbSpline
 70
8
 71
3
 72
8
 73
4
 74
0
 40
0
 40
0
 40
0
 40
0
 40
1
 40
1
 40
1
 40
1
 10
-12.400555
 20
167.961756
 30
0.0
 10
-12.400555
 20
166.332516
 30
0.0
 10
-13.721306
 20
165.011755
 30
0.0
 10
-15.350551
 20
165.011755
 30
0.0
  0
SPLINE
  5
147
100
AcDbEntity
  8
0
 62
7
100
AcDbSpline
 70
8
 71
3
 72
8
 73
4
 74
0
 40
0
 40
0
 40
0
 40
0
 40
1
 40
1
 40
1
 40
1
 10
-15.350551
 20
165.011755
 30
0.0
 10
-16.979797
 20
165.011755
 30
0.0
 10
-18.300547
 20
166.332516
 30
0.0
 10
-18.300547
 20
167.961756
 30
0.0
  0
SPLINE
  5
148
100
AcDbEntity
  8
0
 62
7
100
AcDbSpline
 70
8
 71
3
 72
8
 73
4
 74
0
 40
0
 40
0
 40
0
 40
0
 40
1
 40
1
 40
1
 40
1
 10
-18.300547
 20
167.961756
 30
0.0
 10
-18.300547
 20
169.590995
 30
0.0
 10
-16.979797
 20
170.911756
 30
0.0
 10
-15.350551
 20
170.911756
 30
0.0
  0
LWPOLYLINE
  5
149
100
AcDbEntity
  8
0
 62
7
100
AcDbPolyline
 90
2
 70
0
 10
-15.350551
 20
109.784370
 30
0.0
 10
-15.350551
 20
109.784370
 30
0.0
  0
SPLINE
  5
14a
100
AcDbEntity
  8
0
 62
7
100
AcDbSpline
 70
8
 71
3
 72
8
 73
4
 74
0
 40
0
 40
0
 40
0
 40
0
 40
1
 40
1
 40
1
 40
1
 10
-67.801722
 20
-63.649975
 30
0.0
 10
-67.000909
 20
-63.649975
 30
0.0
 10
-66.351722
 20
-64.299162
 30
0.0
 10
-66.351722
 20
-65.099975
 30
0.0
  0
SPLINE
  5
14b
100
AcDbEntity
  8
0
 62
7
100
AcDbSpline
 70
8
 71
3
 72
8
 73
4
 74
0
 40
0
 40
0
 40
0
 40
0
 40
1
 40
1
 40
1
 40
1
 10
-66.351722
 20
-65.099975
 30
0.0
 10
-66.351722
 20
-65.900788
 30
0.0
 10
-67.000909
 20
-66.549975
 30
0.0
 10
-67.801722
 20
-66.549975
 30
0.0
  0
SPLINE
  5
14c
100
AcDbEntity
  8
0
 62
7
100
AcDbSpline
 70
8
 71
3
 72
8
 73
4
 74
0
 40
0
 40
0
 40
0
 40
0
 40
1
 40
1
 40
1
 40
1
 10
-67.801722
 20
-66.549975
 30
0.0
 10
-68.602535
 20
-66.549975
 30
0.0
 10
-69.251722
 20
-65.900788
 30
0.0
 10
-69.251722
 20
-65.099975
 30
0.0
  0
SPLINE
  5
14d
100
AcDbEntity
  8
0
 62
7
100
AcDbSpline
 70
8
 71
3
 72
8
 73
4
 74
0
 40
0
 40
0
 40
0
 40
0
 40
1
 40
1
 40
1
 40
1
 10
-69.251722
 20
-65.099975
 30
0.0
 10
-69.251722
 20
-64.299162
 30
0.0
 10
-68.602535
 20
-63.649975
 30
0.0
 10
-67.801722
 20
-63.649975
 30
0.0
  0
LWPOLYLINE
  5
14e
100
AcDbEntity
  8
0
 62
7
100
AcDbPolyline
 90
2
 70
0
 10
-15.350551
 20
170.911756
 30
0.0
 10
-15.350551
 20
170.911756
 30
0.0
  0
SPLINE
  5
14f
100
AcDbEntity
  8
0
 62
7
100
AcDbSpline
 70
8
 71
3
 72
8
 73
4
 74
0
 40
0
 40
0
 40
0
 40
0
 40
1
 40
1
 40
1
 40
1
 10
-67.438700
 20
242.427194
 30
0.0
 10
-66.637887
 20
242.427194
 30
0.0
 10
-65.988700
 20
241.778006
 30
0.0
 10
-65.988700
 20
240.977194
 30
0.0
  0
SPLINE
  5
150
100
AcDbEntity
  8
0
 62
7
100
AcDbSpline
 70
8
 71
3
 72
8
 73
4
 74
0
 40
0
 40
0
 40
0
 40
0
 40
1
 40
1
 40
1
 40
1
 10
-65.988700
 20
240.977194
 30
0.0
 10
-65.988700
 20
240.176381
 30
0.0
 10
-66.637887
 20
239.527194
 30
0.0
 10
-67.438700
 20
239.527194
 30
0.0
  0
SPLINE
  5
151
100
AcDbEntity
  8
0
 62
7
100
AcDbSpline
 70
8
 71
3
 72
8
 73
4
 74
0
 40
0
 40
0
 40
0
 40
0
 40
1
 40
1
 40
1
 40
1
 10
-67.438700
 20
239.527194
 30
0.0
 10
-68.239513
 20
239.527194
 30
0.0
 10
-68.888700
 20
240.176381
 30
0.0
 10
-68.888700
 20
240.977194
 30
0.0
  0
SPLINE
  5
152
100
AcDbEntity
  8
0
 62
7
100
AcDbSpline
 70
8
 71
3
 72
8
 73
4
 74
0
 40
0
 40
0
 40
0
 40
0
 40
1
 40
1
 40
1
 40
1
 10
-68.888700
 20
240.977194
 30
0.0
 10
-68.888700
 20
241.778006
 30
0.0
 10
-68.239513
 20
242.427194
 30
0.0
 10
-67.438700
 20
242.427194
 30
0.0
  0
LWPOLYLINE
  5
153
100
AcDbEntity
  8
0
 62
7
100
AcDbPolyline
 90
2
 70
0
 10
-67.801722
 20
-63.649975
 30
0.0
 10
-67.801722
 20
-63.649975
 30
0.0
  0
SPLINE
  5
154
100
AcDbEntity
  8
0
 62
7
100
AcDbSpline
 70
8
 71
3
 72
8
 73
4
 74
0
 40
0
 40
0
 40
0
 40
0
 40
1
 40
1
 40
1
 40
1
 10
182.437272
 20
-65.478916
 30
0.0
 10
183.238084
 20
-65.478916
 30
0.0
 10
183.887271
 20
-66.128103
 30
0.0
 10
183.887271
 20
-66.928916
 30
0.0
  0
SPLINE
  5
155
100
AcDbEntity
  8
0
 62
7
100
AcDbSpline
 70
8
 71
3
 72
8
 73
4
 74
0
 40
0
 40
0
 40
0
 40
0
 40
1
 40
1
 40
1
 40
1
 10
183.887271
 20
-66.928916
 30
0.0
 10
183.887271
 20
-67.729729
 30
0.0
 10
183.238084
 20
-68.378916
 30
0.0
 10
182.437272
 20
-68.378916
 30
0.0
  0
SPLINE
  5
156
100
AcDbEntity
  8
0
 62
7
100
AcDbSpline
 70
8
 71
3
 72
8
 73
4
 74
0
 40
0
 40
0
 40
0
 40
0
 40
1
 40
1
 40
1
 40
1
 10
182.437272
 20
-68.378916
 30
0.0
 10
181.636459
 20
-68.378916
 30
0.0
 10
180.987272
 20
-67.729729
 30
0.0
 10
180.987272
 20
-66.928916
 30
0.0
  0
SPLINE
  5
157
100
AcDbEntity
  8
0
 62
7
100
AcDbSpline
 70
8
 71
3
 72
8
 73
4
 74
0
 40
0
 40
0
 40
0
 40
0
 40
1
 40
1
 40
1
 40
1
 10
180.987272
 20
-66.928916
 30
0.0
 10
180.987272
 20
-66.128103
 30
0.0
 10
181.636459
 20
-65.478916
 30
0.0
 10
182.437272
 20
-65.478916
 30
0.0
  0
LWPOLYLINE
  5
158
100
AcDbEntity
  8
0
 62
7
100
AcDbPolyline
 90
2
 70
0
 10
-67.438700
 20
242.427194
 30
0.0
 10
-67.438700
 20
242.427194
 30
0.0
  0
SPLINE
  5
159
100
AcDbEntity
  8
0
 62
7
100
AcDbSpline
 70
8
 71
3
 72
8
 73
4
 74
0
 40
0
 40
0
 40
0
 40
0
 40
1
 40
1
 40
1
 40
1
 10
-67.801722
 20
-63.649975
 30
0.0
 10
-67.000909
 20
-63.649975
 30
0.0
 10
-66.351722
 20
-64.299162
 30
0.0
 10
-66.351722
 20
-65.099975
 30
0.0
  0
SPLINE
  5
15a
100
AcDbEntity
  8
0
 62
7
100
AcDbSpline
 70
8
 71
3
 72
8
 73
4
 74
0
 40
0
 40
0
 40
0
 40
0
 40
1
 40
1
 40
1
 40
1
 10
-66.351722
 20
-65.099975
 30
0.0
 10
-66.351722
 20
-65.900788
 30
0.0
 10
-67.000909
 20
-66.549975
 30
0.0
 10
-67.801722
 20
-66.549975
 30
0.0
  0
SPLINE
  5
15b
100
AcDbEntity
  8
0
 62
7
100
AcDbSpline
 70
8
 71
3
 72
8
 73
4
 74
0
 40
0
 40
0
 40
0
 40
0
 40
1
 40
1
 40
1
 40
1
 10
-67.801722
 20
-66.549975
 30
0.0
 10
-68.602535
 20
-66.549975
 30
0.0
 10
-69.251722
 20
-65.900788
 30
0.0
 10
-69.251722
 20
-65.099975
 30
0.0
  0
SPLINE
  5
15c
100
AcDbEntity
  8
0
 62
7
100
AcDbSpline
 70
8
 71
3
 72
8
 73
4
 74
0
 40
0
 40
0
 40
0
 40
0
 40
1
 40
1
 40
1
 40
1
 10
-69.251722
 20
-65.099975
 30
0.0
 10
-69.251722
 20
-64.299162
 30
0.0
 10
-68.602535
 20
-63.649975
 30
0.0
 10
-67.801722
 20
-63.649975
 30
0.0
  0
LWPOLYLINE
  5
15d
100
AcDbEntity
  8
0
 62
7
100
AcDbPolyline
 90
2
 70
0
 10
182.437272
 20
-65.478916
 30
0.0
 10
182.437272
 20
-65.478916
 30
0.0
  0
SPLINE
  5
15e
100
AcDbEntity
  8
0
 62
7
100
AcDbSpline
 70
8
 71
3
 72
8
 73
4
 74
0
 40
0
 40
0
 40
0
 40
0
 40
1
 40
1
 40
1
 40
1
 10
-67.438700
 20
242.427194
 30
0.0
 10
-66.637887
 20
242.427194
 30
0.0
 10
-65.988700
 20
241.778006
 30
0.0
 10
-65.988700
 20
240.977194
 30
0.0
  0
SPLINE
  5
15f
100
AcDbEntity
  8
0
 62
7
100
AcDbSpline
 70
8
 71
3
 72
8
 73
4
 74
0
 40
0
 40
0
 40
0
 40
0
 40
1
 40
1
 40
1
 40
1
 10
-65.988700
 20
240.977194
 30
0.0
 10
-65.988700
 20
240.176381
 30
0.0
 10
-66.637887
 20
239.527194
 30
0.0
 10
-67.438700
 20
239.527194
 30
0.0
  0
SPLINE
  5
160
100
AcDbEntity
  8
0
 62
7
100
AcDbSpline
 70
8
 71
3
 72
8
 73
4
 74
0
 40
0
 40
0
 40
0
 40
0
 40
1
 40
1
 40
1
 40
1
 10
-67.438700
 20
239.527194
 30
0.0
 10
-68.239513
 20
239.527194
 30
0.0
 10
-68.888700
 20
240.176381
 30
0.0
 10
-68.888700
 20
240.977194
 30
0.0
  0
SPLINE
  5
161
100
AcDbEntity
  8
0
 62
7
100
AcDbSpline
 70
8
 71
3
 72
8
 73
4
 74
0
 40
0
 40
0
 40
0
 40
0
 40
1
 40
1
 40
1
 40
1
 10
-68.888700
 20
240.977194
 30
0.0
 10
-68.888700
 20
241.778006
 30
0.0
 10
-68.239513
 20
242.427194
 30
0.0
 10
-67.438700
 20
242.427194
 30
0.0
  0
LWPOLYLINE
  5
162
100
AcDbEntity
  8
0
 62
7
100
AcDbPolyline
 90
2
 70
0
 10
-67.801722
 20
-63.649975
 30
0.0
 10
-67.801722
 20
-63.649975
 30
0.0
  0
SPLINE
  5
163
100
AcDbEntity
  8
0
 62
7
100
AcDbSpline
 70
8
 71
3
 72
8
 73
4
 74
0
 40
0
 40
0
 40
0
 40
0
 40
1
 40
1
 40
1
 40
1
 10
182.437300
 20
-65.478916
 30
0.0
 10
183.238113
 20
-65.478916
 30
0.0
 10
183.887300
 20
-66.128103
 30
0.0
 10
183.887300
 20
-66.928916
 30
0.0
  0
SPLINE
  5
164
100
AcDbEntity
  8
0
 62
7
100
AcDbSpline
 70
8
 71
3
 72
8
 73
4
 74
0
 40
0
 40
0
 40
0
 40
0
 40
1
 40
1
 40
1
 40
1
 10
183.887300
 20
-66.928916
 30
0.0
 10
183.887300
 20
-67.729729
 30
0.0
 10
183.238113
 20
-68.378916
 30
0.0
 10
182.437300
 20
-68.378916
 30
0.0
  0
SPLINE
  5
165
100
AcDbEntity
  8
0
 62
7
100
AcDbSpline
 70
8
 71
3
 72
8
 73
4
 74
0
 40
0
 40
0
 40
0
 40
0
 40
1
 40
1
 40
1
 40
1
 10
182.437300
 20
-68.378916
 30
0.0
 10
181.636487
 20
-68.378916
 30
0.0
 10
180.987300
 20
-67.729729
 30
0.0
 10
180.987300
 20
-66.928916
 30
0.0
  0
SPLINE
  5
166
100
AcDbEntity
  8
0
 62
7
100
AcDbSpline
 70
8
 71
3
 72
8
 73
4
 74
0
 40
0
 40
0
 40
0
 40
0
 40
1
 40
1
 40
1
 40
1
 10
180.987300
 20
-66.928916
 30
0.0
 10
180.987300
 20
-66.128103
 30
0.0
 10
181.636487
 20
-65.478916
 30
0.0
 10
182.437300
 20
-65.478916
 30
0.0
  0
LWPOLYLINE
  5
167
100
AcDbEntity
  8
0
 62
7
100
AcDbPolyline
 90
2
 70
0
 10
-67.438700
 20
242.427194
 30
0.0
 10
-67.438700
 20
242.427194
 30
0.0
  0
SPLINE
  5
168
100
AcDbEntity
  8
0
 62
7
100
AcDbSpline
 70
8
 71
3
 72
8
 73
4
 74
0
 40
0
 40
0
 40
0
 40
0
 40
1
 40
1
 40
1
 40
1
 10
158.394762
 20
-13.147707
 30
0.0
 10
160.024007
 20
-13.147707
 30
0.0
 10
161.344758
 20
-14.468468
 30
0.0
 10
161.344758
 20
-16.097707
 30
0.0
  0
SPLINE
  5
169
100
AcDbEntity
  8
0
 62
7
100
AcDbSpline
 70
8
 71
3
 72
8
 73
4
 74
0
 40
0
 40
0
 40
0
 40
0
 40
1
 40
1
 40
1
 40
1
 10
161.344758
 20
-16.097707
 30
0.0
 10
161.344758
 20
-17.726947
 30
0.0
 10
160.024007
 20
-19.047708
 30
0.0
 10
158.394762
 20
-19.047708
 30
0.0
  0
SPLINE
  5
16a
100
AcDbEntity
  8
0
 62
7
100
AcDbSpline
 70
8
 71
3
 72
8
 73
4
 74
0
 40
0
 40
0
 40
0
 40
0
 40
1
 40
1
 40
1
 40
1
 10
158.394762
 20
-19.047708
 30
0.0
 10
156.765517
 20
-19.047708
 30
0.0
 10
155.444766
 20
-17.726947
 30
0.0
 10
155.444766
 20
-16.097707
 30
0.0
  0
SPLINE
  5
16b
100
AcDbEntity
  8
0
 62
7
100
AcDbSpline
 70
8
 71
3
 72
8
 73
4
 74
0
 40
0
 40
0
 40
0
 40
0
 40
1
 40
1
 40
1
 40
1
 10
155.444766
 20
-16.097707
 30
0.0
 10
155.444766
 20
-14.468468
 30
0.0
 10
156.765517
 20
-13.147707
 30
0.0
 10
158.394762
 20
-13.147707
 30
0.0
  0
LWPOLYLINE
  5
16c
100
AcDbEntity
  8
0
 62
7
100
AcDbPolyline
 90
2
 70
0
 10
182.437300
 20
-65.478916
 30
0.0
 10
182.437300
 20
-65.478916
 30
0.0
  0
LWPOLYLINE
  5
16d
100
AcDbEntity
  8
0
 62
7
100
AcDbPolyline
 90
2
 70
0
 10
158.394762
 20
-13.147707
 30
0.0
 10
158.394762
 20
-13.147707
 30
0.0
  0
SPLINE
  5
16e
100
AcDbEntity
  8
0
 62
7
100
AcDbSpline
 70
8
 71
3
 72
8
 73
4
 74
0
 40
0
 40
0
 40
0
 40
0
 40
1
 40
1
 40
1
 40
1
 10
-67.801750
 20
-63.650003
 30
0.0
 10
-67.000938
 20
-63.650003
 30
0.0
 10
-66.351751
 20
-64.299190
 30
0.0
 10
-66.351751
 20
-65.100003
 30
0.0
  0
SPLINE
  5
16f
100
AcDbEntity
  8
0
 62
7
100
AcDbSpline
 70
8
 71
3
 72
8
 73
4
 74
0
 40
0
 40
0
 40
0
 40
0
 40
1
 40
1
 40
1
 40
1
 10
-66.351751
 20
-65.100003
 30
0.0
 10
-66.351751
 20
-65.900816
 30
0.0
 10
-67.000938
 20
-66.550003
 30
0.0
 10
-67.801750
 20
-66.550003
 30
0.0
  0
SPLINE
  5
170
100
AcDbEntity
  8
0
 62
7
100
AcDbSpline
 70
8
 71
3
 72
8
 73
4
 74
0
 40
0
 40
0
 40
0
 40
0
 40
1
 40
1
 40
1
 40
1
 10
-67.801750
 20
-66.550003
 30
0.0
 10
-68.602563
 20
-66.550003
 30
0.0
 10
-69.251750
 20
-65.900816
 30
0.0
 10
-69.251750
 20
-65.100003
 30
0.0
  0
SPLINE
  5
171
100
AcDbEntity
  8
0
 62
7
100
AcDbSpline
 70
8
 71
3
 72
8
 73
4
 74
0
 40
0
 40
0
 40
0
 40
0
 40
1
 40
1
 40
1
 40
1
 10
-69.251750
 20
-65.100003
 30
0.0
 10
-69.251750
 20
-64.299190
 30
0.0
 10
-68.602563
 20
-63.650003
 30
0.0
 10
-67.801750
 20
-63.650003
 30
0.0
  0
LWPOLYLINE
  5
172
100
AcDbEntity
  8
0
 62
7
100
AcDbPolyline
 90
5
 70
0
 10
-73.824987
 20
-72.706350
 30
0.0
 10
-73.824987
 20
247.750097
 30
0.0
 10
188.792454
 20
247.750097
 30
0.0
 10
188.792454
 20
-72.706350
 30
0.0
 10
-73.824987
 20
-72.706350
 30
0.0
  0
SPLINE
  5
173
100
AcDbEntity
  8
0
 62
7
100
AcDbSpline
 70
8
 71
3
 72
8
 73
4
 74
0
 40
0
 40
0
 40
0
 40
0
 40
1
 40
1
 40
1
 40
1
 10
-67.438728
 20
242.427166
 30
0.0
 10
-66.637915
 20
242.427166
 30
0.0
 10
-65.988728
 20
241.777978
 30
0.0
 10
-65.988728
 20
240.977165
 30
0.0
  0
SPLINE
  5
174
100
AcDbEntity
  8
0
 62
7
100
AcDbSpline
 70
8
 71
3
 72
8
 73
4
 74
0
 40
0
 40
0
 40
0
 40
0
 40
1
 40
1
 40
1
 40
1
 10
-65.988728
 20
240.977165
 30
0.0
 10
-65.988728
 20
240.176353
 30
0.0
 10
-66.637915
 20
239.527165
 30
0.0
 10
-67.438728
 20
239.527165
 30
0.0
  0
SPLINE
  5
175
100
AcDbEntity
  8
0
 62
7
100
AcDbSpline
 70
8
 71
3
 72
8
 73
4
 74
0
 40
0
 40
0
 40
0
 40
0
 40
1
 40
1
 40
1
 40
1
 10
-67.438728
 20
239.527165
 30
0.0
 10
-68.239541
 20
239.527165
 30
0.0
 10
-68.888728
 20
240.176353
 30
0.0
 10
-68.888728
 20
240.977165
 30
0.0
  0
SPLINE
  5
176
100
AcDbEntity
  8
0
 62
7
100
AcDbSpline
 70
8
 71
3
 72
8
 73
4
 74
0
 40
0
 40
0
 40
0
 40
0
 40
1
 40
1
 40
1
 40
1
 10
-68.888728
 20
240.977165
 30
0.0
 10
-68.888728
 20
241.777978
 30
0.0
 10
-68.239541
 20
242.427166
 30
0.0
 10
-67.438728
 20
242.427166
 30
0.0
  0
LWPOLYLINE
  5
177
100
AcDbEntity
  8
0
 62
7
100
AcDbPolyline
 90
2
 70
0
 10
-67.801750
 20
-63.650003
 30
0.0
 10
-67.801750
 20
-63.650003
 30
0.0
  0
SPLINE
  5
178
100
AcDbEntity
  8
0
 62
7
100
AcDbSpline
 70
8
 71
3
 72
8
 73
4
 74
0
 40
0
 40
0
 40
0
 40
0
 40
1
 40
1
 40
1
 40
1
 10
182.437243
 20
-65.478916
 30
0.0
 10
183.238056
 20
-65.478916
 30
0.0
 10
183.887243
 20
-66.128103
 30
0.0
 10
183.887243
 20
-66.928916
 30
0.0
  0
SPLINE
  5
179
100
AcDbEntity
  8
0
 62
7
100
AcDbSpline
 70
8
 71
3
 72
8
 73
4
 74
0
 40
0
 40
0
 40
0
 40
0
 40
1
 40
1
 40
1
 40
1
 10
183.887243
 20
-66.928916
 30
0.0
 10
183.887243
 20
-67.729729
 30
0.0
 10
183.238056
 20
-68.378916
 30
0.0
 10
182.437243
 20
-68.378916
 30
0.0
  0
SPLINE
  5
17a
100
AcDbEntity
  8
0
 62
7
100
AcDbSpline
 70
8
 71
3
 72
8
 73
4
 74
0
 40
0
 40
0
 40
0
 40
0
 40
1
 40
1
 40
1
 40
1
 10
182.437243
 20
-68.378916
 30
0.0
 10
181.636431
 20
-68.378916
 30
0.0
 10
180.987243
 20
-67.729729
 30
0.0
 10
180.987243
 20
-66.928916
 30
0.0
  0
SPLINE
  5
17b
100
AcDbEntity
  8
0
 62
7
100
AcDbSpline
 70
8
 71
3
 72
8
 73
4
 74
0
 40
0
 40
0
 40
0
 40
0
 40
1
 40
1
 40
1
 40
1
 10
180.987243
 20
-66.928916
 30
0.0
 10
180.987243
 20
-66.128103
 30
0.0
 10
181.636431
 20
-65.478916
 30
0.0
 10
182.437243
 20
-65.478916
 30
0.0
  0
LWPOLYLINE
  5
17c
100
AcDbEntity
  8
0
 62
7
100
AcDbPolyline
 90
2
 70
0
 10
-67.438728
 20
242.427166
 30
0.0
 10
-67.438728
 20
242.427166
 30
0.0
  0
LWPOLYLINE
  5
17d
100
AcDbEntity
  8
0
 62
7
100
AcDbPolyline
 90
2
 70
0
 10
182.437243
 20
-65.478916
 30
0.0
 10
182.437243
 20
-65.478916
 30
0.0
  0
LWPOLYLINE
  5
17e
100
AcDbEntity
  8
0
 62
7
100
AcDbPolyline
 90
5
 70
0
 10
54.483677
 20
212.518832
 30
0.0
 10
54.483677
 20
218.518832
 30
0.0
 10
60.483677
 20
218.518832
 30
0.0
 10
60.483677
 20
212.518832
 30
0.0
 10
54.483677
 20
212.518832
 30
0.0
  0
LWPOLYLINE
  5
17f
100
AcDbEntity
  8
0
 62
7
100
AcDbPolyline
 90
5
 70
0
 10
-43.371911
 20
-21.420335
 30
0.0
 10
-43.371911
 20
-20.520335
 30
0.0
 10
-38.448283
 20
-20.520335
 30
0.0
 10
-38.448283
 20
-21.420335
 30
0.0
 10
-43.371911
 20
-21.420335
 30
0.0
  0
SPLINE
  5
180
100
AcDbEntity
  8
0
 62
7
100
AcDbSpline
 70
8
 71
3
 72
8
 73
4
 74
0
 40
0
 40
0
 40
0
 40
0
 40
1
 40
1
 40
1
 40
1
 10
-36.316791
 20
-14.741747
 30
0.0
 10
-35.239831
 20
-14.741747
 30
0.0
 10
-34.366791
 20
-15.614786
 30
0.0
 10
-34.366791
 20
-16.691747
 30
0.0
  0
SPLINE
  5
181
100
AcDbEntity
  8
0
 62
7
100
AcDbSpline
 70
8
 71
3
 72
8
 73
4
 74
0
 40
0
 40
0
 40
0
 40
0
 40
1
 40
1
 40
1
 40
1
 10
-34.366791
 20
-16.691747
 30
0.0
 10
-34.366791
 20
-17.768707
 30
0.0
 10
-35.239831
 20
-18.641747
 30
0.0
 10
-36.316791
 20
-18.641747
 30
0.0
  0
SPLINE
  5
182
100
AcDbEntity
  8
0
 62
7
100
AcDbSpline
 70
8
 71
3
 72
8
 73
4
 74
0
 40
0
 40
0
 40
0
 40
0
 40
1
 40
1
 40
1
 40
1
 10
-36.316791
 20
-18.641747
 30
0.0
 10
-37.393735
 20
-18.641747
 30
0.0
 10
-38.266791
 20
-17.768707
 30
0.0
 10
-38.266791
 20
-16.691747
 30
0.0
  0
SPLINE
  5
183
100
AcDbEntity
  8
0
 62
7
100
AcDbSpline
 70
8
 71
3
 72
8
 73
4
 74
0
 40
0
 40
0
 40
0
 40
0
 40
1
 40
1
 40
1
 40
1
 10
-38.266791
 20
-16.691747
 30
0.0
 10
-38.266791
 20
-15.614786
 30
0.0
 10
-37.393735
 20
-14.741747
 30
0.0
 10
-36.316791
 20
-14.741747
 30
0.0
  0
LWPOLYLINE
  5
184
100
AcDbEntity
  8
0
 62
7
100
AcDbPolyline
 90
5
 70
0
 10
-34.185296
 20
-21.420335
 30
0.0
 10
-34.185296
 20
-20.520335
 30
0.0
 10
-29.261667
 20
-20.520335
 30
0.0
 10
-29.261667
 20
-21.420335
 30
0.0
 10
-34.185296
 20
-21.420335
 30
0.0
  0
LWPOLYLINE
  5
185
100
AcDbEntity
  8
0
 62
7
100
AcDbPolyline
 90
2
 70
0
 10
-36.316791
 20
-14.741747
 30
0.0
 10
-36.316791
 20
-14.741747
 30
0.0
  0
LWPOLYLINE
  5
186
100
AcDbEntity
  8
0
 62
7
100
AcDbPolyline
 90
5
 70
0
 10
-43.371911
 20
39.707023
 30
0.0
 10
-43.371911
 20
40.607023
 30
0.0
 10
-38.448283
 20
40.607023
 30
0.0
 10
-38.448283
 20
39.707023
 30
0.0
 10
-43.371911
 20
39.707023
 30
0.0
  0
SPLINE
  5
187
100
AcDbEntity
  8
0
 62
7
100
AcDbSpline
 70
8
 71
3
 72
8
 73
4
 74
0
 40
0
 40
0
 40
0
 40
0
 40
1
 40
1
 40
1
 40
1
 10
-36.316791
 20
46.385583
 30
0.0
 10
-35.239831
 20
46.385583
 30
0.0
 10
-34.366791
 20
45.512543
 30
0.0
 10
-34.366791
 20
44.435583
 30
0.0
  0
SPLINE
  5
188
100
AcDbEntity
  8
0
 62
7
100
AcDbSpline
 70
8
 71
3
 72
8
 73
4
 74
0
 40
0
 40
0
 40
0
 40
0
 40
1
 40
1
 40
1
 40
1
 10
-34.366791
 20
44.435583
 30
0.0
 10
-34.366791
 20
43.358622
 30
0.0
 10
-35.239831
 20
42.485583
 30
0.0
 10
-36.316791
 20
42.485583
 30
0.0
  0
SPLINE
  5
189
100
AcDbEntity
  8
0
 62
7
100
AcDbSpline
 70
8
 71
3
 72
8
 73
4
 74
0
 40
0
 40
0
 40
0
 40
0
 40
1
 40
1
 40
1
 40
1
 10
-36.316791
 20
42.485583
 30
0.0
 10
-37.393735
 20
42.485583
 30
0.0
 10
-38.266791
 20
43.358622
 30
0.0
 10
-38.266791
 20
44.435583
 30
0.0
  0
SPLINE
  5
18a
100
AcDbEntity
  8
0
 62
7
100
AcDbSpline
 70
8
 71
3
 72
8
 73
4
 74
0
 40
0
 40
0
 40
0
 40
0
 40
1
 40
1
 40
1
 40
1
 10
-38.266791
 20
44.435583
 30
0.0
 10
-38.266791
 20
45.512543
 30
0.0
 10
-37.393735
 20
46.385583
 30
0.0
 10
-36.316791
 20
46.385583
 30
0.0
  0
LWPOLYLINE
  5
18b
100
AcDbEntity
  8
0
 62
7
100
AcDbPolyline
 90
5
 70
0
 10
-34.185296
 20
39.707023
 30
0.0
 10
-34.185296
 20
40.607023
 30
0.0
 10
-29.261667
 20
40.607023
 30
0.0
 10
-29.261667
 20
39.707023
 30
0.0
 10
-34.185296
 20
39.707023
 30
0.0
  0
LWPOLYLINE
  5
18c
100
AcDbEntity
  8
0
 62
7
100
AcDbPolyline
 90
2
 70
0
 10
-36.316791
 20
46.385583
 30
0.0
 10
-36.316791
 20
46.385583
 30
0.0
  0
LWPOLYLINE
  5
18d
100
AcDbEntity
  8
0
 62
7
100
AcDbPolyline
 90
5
 70
0
 10
-43.371911
 20
100.834409
 30
0.0
 10
-43.371911
 20
101.734409
 30
0.0
 10
-38.448283
 20
101.734409
 30
0.0
 10
-38.448283
 20
100.834409
 30
0.0
 10
-43.371911
 20
100.834409
 30
0.0
  0
SPLINE
  5
18e
100
AcDbEntity
  8
0
 62
7
100
AcDbSpline
 70
8
 71
3
 72
8
 73
4
 74
0
 40
0
 40
0
 40
0
 40
0
 40
1
 40
1
 40
1
 40
1
 10
-36.316791
 20
107.512997
 30
0.0
 10
-35.239831
 20
107.512997
 30
0.0
 10
-34.366791
 20
106.639958
 30
0.0
 10
-34.366791
 20
105.562997
 30
0.0
  0
SPLINE
  5
18f
100
AcDbEntity
  8
0
 62
7
100
AcDbSpline
 70
8
 71
3
 72
8
 73
4
 74
0
 40
0
 40
0
 40
0
 40
0
 40
1
 40
1
 40
1
 40
1
 10
-34.366791
 20
105.562997
 30
0.0
 10
-34.366791
 20
104.486037
 30
0.0
 10
-35.239831
 20
103.612997
 30
0.0
 10
-36.316791
 20
103.612997
 30
0.0
  0
SPLINE
  5
190
100
AcDbEntity
  8
0
 62
7
100
AcDbSpline
 70
8
 71
3
 72
8
 73
4
 74
0
 40
0
 40
0
 40
0
 40
0
 40
1
 40
1
 40
1
 40
1
 10
-36.316791
 20
103.612997
 30
0.0
 10
-37.393735
 20
103.612997
 30
0.0
 10
-38.266791
 20
104.486037
 30
0.0
 10
-38.266791
 20
105.562997
 30
0.0
  0
SPLINE
  5
191
100
AcDbEntity
  8
0
 62
7
100
AcDbSpline
 70
8
 71
3
 72
8
 73
4
 74
0
 40
0
 40
0
 40
0
 40
0
 40
1
 40
1
 40
1
 40
1
 10
-38.266791
 20
105.562997
 30
0.0
 10
-38.266791
 20
106.639958
 30
0.0
 10
-37.393735
 20
107.512997
 30
0.0
 10
-36.316791
 20
107.512997
 30
0.0
  0
LWPOLYLINE
  5
192
100
AcDbEntity
  8
0
 62
7
100
AcDbPolyline
 90
5
 70
0
 10
-34.185296
 20
100.834409
 30
0.0
 10
-34.185296
 20
101.734409
 30
0.0
 10
-29.261667
 20
101.734409
 30
0.0
 10
-29.261667
 20
100.834409
 30
0.0
 10
-34.185296
 20
100.834409
 30
0.0
  0
LWPOLYLINE
  5
193
100
AcDbEntity
  8
0
 62
7
100
AcDbPolyline
 90
2
 70
0
 10
-36.316791
 20
107.512997
 30
0.0
 10
-36.316791
 20
107.512997
 30
0.0
  0
LWPOLYLINE
  5
194
100
AcDbEntity
  8
0
 62
7
100
AcDbPolyline
 90
5
 70
0
 10
-43.371911
 20
161.961823
 30
0.0
 10
-43.371911
 20
162.861823
 30
0.0
 10
-38.448283
 20
162.861823
 30
0.0
 10
-38.448283
 20
161.961823
 30
0.0
 10
-43.371911
 20
161.961823
 30
0.0
  0
SPLINE
  5
195
100
AcDbEntity
  8
0
 62
7
100
AcDbSpline
 70
8
 71
3
 72
8
 73
4
 74
0
 40
0
 40
0
 40
0
 40
0
 40
1
 40
1
 40
1
 40
1
 10
-36.316791
 20
168.640383
 30
0.0
 10
-35.239831
 20
168.640383
 30
0.0
 10
-34.366791
 20
167.767344
 30
0.0
 10
-34.366791
 20
166.690383
 30
0.0
  0
SPLINE
  5
196
100
AcDbEntity
  8
0
 62
7
100
AcDbSpline
 70
8
 71
3
 72
8
 73
4
 74
0
 40
0
 40
0
 40
0
 40
0
 40
1
 40
1
 40
1
 40
1
 10
-34.366791
 20
166.690383
 30
0.0
 10
-34.366791
 20
165.613423
 30
0.0
 10
-35.239831
 20
164.740383
 30
0.0
 10
-36.316791
 20
164.740383
 30
0.0
  0
SPLINE
  5
197
100
AcDbEntity
  8
0
 62
7
100
AcDbSpline
 70
8
 71
3
 72
8
 73
4
 74
0
 40
0
 40
0
 40
0
 40
0
 40
1
 40
1
 40
1
 40
1
 10
-36.316791
 20
164.740383
 30
0.0
 10
-37.393735
 20
164.740383
 30
0.0
 10
-38.266791
 20
165.613423
 30
0.0
 10
-38.266791
 20
166.690383
 30
0.0
  0
SPLINE
  5
198
100
AcDbEntity
  8
0
 62
7
100
AcDbSpline
 70
8
 71
3
 72
8
 73
4
 74
0
 40
0
 40
0
 40
0
 40
0
 40
1
 40
1
 40
1
 40
1
 10
-38.266791
 20
166.690383
 30
0.0
 10
-38.266791
 20
167.767344
 30
0.0
 10
-37.393735
 20
168.640383
 30
0.0
 10
-36.316791
 20
168.640383
 30
0.0
  0
LWPOLYLINE
  5
199
100
AcDbEntity
  8
0
 62
7
100
AcDbPolyline
 90
5
 70
0
 10
-34.185296
 20
161.961823
 30
0.0
 10
-34.185296
 20
162.861823
 30
0.0
 10
-29.261667
 20
162.861823
 30
0.0
 10
-29.261667
 20
161.961823
 30
0.0
 10
-34.185296
 20
161.961823
 30
0.0
  0
LWPOLYLINE
  5
19a
100
AcDbEntity
  8
0
 62
7
100
AcDbPolyline
 90
2
 70
0
 10
-36.316791
 20
168.640383
 30
0.0
 10
-36.316791
 20
168.640383
 30
0.0
  0
LWPOLYLINE
  5
19b
100
AcDbEntity
  8
0
 62
7
100
AcDbPolyline
 90
5
 70
0
 10
10.202079
 20
171.938774
 30
0.0
 10
10.202079
 20
171.038774
 30
0.0
 10
15.125708
 20
171.038774
 30
0.0
 10
15.125708
 20
171.938774
 30
0.0
 10
10.202079
 20
171.938774
 30
0.0
  0
SPLINE
  5
19c
100
AcDbEntity
  8
0
 62
7
100
AcDbSpline
 70
8
 71
3
 72
8
 73
4
 74
0
 40
0
 40
0
 40
0
 40
0
 40
1
 40
1
 40
1
 40
1
 10
17.257199
 20
165.260185
 30
0.0
 10
18.334160
 20
165.260185
 30
0.0
 10
19.207199
 20
166.133225
 30
0.0
 10
19.207199
 20
167.210185
 30
0.0
  0
SPLINE
  5
19d
100
AcDbEntity
  8
0
 62
7
100
AcDbSpline
 70
8
 71
3
 72
8
 73
4
 74
0
 40
0
 40
0
 40
0
 40
0
 40
1
 40
1
 40
1
 40
1
 10
19.207199
 20
167.210185
 30
0.0
 10
19.207199
 20
168.287146
 30
0.0
 10
18.334160
 20
169.160185
 30
0.0
 10
17.257199
 20
169.160185
 30
0.0
  0
SPLINE
  5
19e
100
AcDbEntity
  8
0
 62
7
100
AcDbSpline
 70
8
 71
3
 72
8
 73
4
 74
0
 40
0
 40
0
 40
0
 40
0
 40
1
 40
1
 40
1
 40
1
 10
17.257199
 20
169.160185
 30
0.0
 10
16.180255
 20
169.160185
 30
0.0
 10
15.307199
 20
168.287146
 30
0.0
 10
15.307199
 20
167.210185
 30
0.0
  0
SPLINE
  5
19f
100
AcDbEntity
  8
0
 62
7
100
AcDbSpline
 70
8
 71
3
 72
8
 73
4
 74
0
 40
0
 40
0
 40
0
 40
0
 40
1
 40
1
 40
1
 40
1
 10
15.307199
 20
167.210185
 30
0.0
 10
15.307199
 20
166.133225
 30
0.0
 10
16.180255
 20
165.260185
 30
0.0
 10
17.257199
 20
165.260185
 30
0.0
  0
LWPOLYLINE
  5
1a0
100
AcDbEntity
  8
0
 62
7
100
AcDbPolyline
 90
5
 70
0
 10
19.388695
 20
171.938774
 30
0.0
 10
19.388695
 20
171.038774
 30
0.0
 10
24.312323
 20
171.038774
 30
0.0
 10
24.312323
 20
171.938774
 30
0.0
 10
19.388695
 20
171.938774
 30
0.0
  0
LWPOLYLINE
  5
1a1
100
AcDbEntity
  8
0
 62
7
100
AcDbPolyline
 90
2
 70
0
 10
17.257199
 20
165.260185
 30
0.0
 10
17.257199
 20
165.260185
 30
0.0
  0
LWPOLYLINE
  5
1a2
100
AcDbEntity
  8
0
 62
7
100
AcDbPolyline
 90
5
 70
0
 10
9.950845
 20
110.894954
 30
0.0
 10
9.950845
 20
109.994954
 30
0.0
 10
14.874473
 20
109.994954
 30
0.0
 10
14.874473
 20
110.894954
 30
0.0
 10
9.950845
 20
110.894954
 30
0.0
  0
SPLINE
  5
1a3
100
AcDbEntity
  8
0
 62
7
100
AcDbSpline
 70
8
 71
3
 72
8
 73
4
 74
0
 40
0
 40
0
 40
0
 40
0
 40
1
 40
1
 40
1
 40
1
 10
17.005993
 20
104.216365
 30
0.0
 10
18.082954
 20
104.216365
 30
0.0
 10
18.955993
 20
105.089405
 30
0.0
 10
18.955993
 20
106.166365
 30
0.0
  0
SPLINE
  5
1a4
100
AcDbEntity
  8
0
 62
7
100
AcDbSpline
 70
8
 71
3
 72
8
 73
4
 74
0
 40
0
 40
0
 40
0
 40
0
 40
1
 40
1
 40
1
 40
1
 10
18.955993
 20
106.166365
 30
0.0
 10
18.955993
 20
107.243326
 30
0.0
 10
18.082954
 20
108.116365
 30
0.0
 10
17.005993
 20
108.116365
 30
0.0
  0
SPLINE
  5
1a5
100
AcDbEntity
  8
0
 62
7
100
AcDbSpline
 70
8
 71
3
 72
8
 73
4
 74
0
 40
0
 40
0
 40
0
 40
0
 40
1
 40
1
 40
1
 40
1
 10
17.005993
 20
108.116365
 30
0.0
 10
15.929049
 20
108.116365
 30
0.0
 10
15.055993
 20
107.243326
 30
0.0
 10
15.055993
 20
106.166365
 30
0.0
  0
SPLINE
  5
1a6
100
AcDbEntity
  8
0
 62
7
100
AcDbSpline
 70
8
 71
3
 72
8
 73
4
 74
0
 40
0
 40
0
 40
0
 40
0
 40
1
 40
1
 40
1
 40
1
 10
15.055993
 20
106.166365
 30
0.0
 10
15.055993
 20
105.089405
 30
0.0
 10
15.929049
 20
104.216365
 30
0.0
 10
17.005993
 20
104.216365
 30
0.0
  0
LWPOLYLINE
  5
1a7
100
AcDbEntity
  8
0
 62
7
100
AcDbPolyline
 90
5
 70
0
 10
19.137545
 20
110.894954
 30
0.0
 10
19.137545
 20
109.994954
 30
0.0
 10
24.061174
 20
109.994954
 30
0.0
 10
24.061174
 20
110.894954
 30
0.0
 10
19.137545
 20
110.894954
 30
0.0
  0
LWPOLYLINE
  5
1a8
100
AcDbEntity
  8
0
 62
7
100
AcDbPolyline
 90
2
 70
0
 10
17.005993
 20
104.216365
 30
0.0
 10
17.005993
 20
104.216365
 30
0.0
  0
LWPOLYLINE
  5
1a9
100
AcDbEntity
  8
0
 62
7
100
AcDbPolyline
 90
5
 70
0
 10
10.076462
 20
49.599956
 30
0.0
 10
10.076462
 20
48.699956
 30
0.0
 10
15.000091
 20
48.699956
 30
0.0
 10
15.000091
 20
49.599956
 30
0.0
 10
10.076462
 20
49.599956
 30
0.0
  0
SPLINE
  5
1aa
100
AcDbEntity
  8
0
 62
7
100
AcDbSpline
 70
8
 71
3
 72
8
 73
4
 74
0
 40
0
 40
0
 40
0
 40
0
 40
1
 40
1
 40
1
 40
1
 10
17.131610
 20
42.921367
 30
0.0
 10
18.208571
 20
42.921367
 30
0.0
 10
19.081610
 20
43.794407
 30
0.0
 10
19.081610
 20
44.871367
 30
0.0
  0
SPLINE
  5
1ab
100
AcDbEntity
  8
0
 62
7
100
AcDbSpline
 70
8
 71
3
 72
8
 73
4
 74
0
 40
0
 40
0
 40
0
 40
0
 40
1
 40
1
 40
1
 40
1
 10
19.081610
 20
44.871367
 30
0.0
 10
19.081610
 20
45.948328
 30
0.0
 10
18.208571
 20
46.821367
 30
0.0
 10
17.131610
 20
46.821367
 30
0.0
  0
SPLINE
  5
1ac
100
AcDbEntity
  8
0
 62
7
100
AcDbSpline
 70
8
 71
3
 72
8
 73
4
 74
0
 40
0
 40
0
 40
0
 40
0
 40
1
 40
1
 40
1
 40
1
 10
17.131610
 20
46.821367
 30
0.0
 10
16.054667
 20
46.821367
 30
0.0
 10
15.181610
 20
45.948328
 30
0.0
 10
15.181610
 20
44.871367
 30
0.0
  0
SPLINE
  5
1ad
100
AcDbEntity
  8
0
 62
7
100
AcDbSpline
 70
8
 71
3
 72
8
 73
4
 74
0
 40
0
 40
0
 40
0
 40
0
 40
1
 40
1
 40
1
 40
1
 10
15.181610
 20
44.871367
 30
0.0
 10
15.181610
 20
43.794407
 30
0.0
 10
16.054667
 20
42.921367
 30
0.0
 10
17.131610
 20
42.921367
 30
0.0
  0
LWPOLYLINE
  5
1ae
100
AcDbEntity
  8
0
 62
7
100
AcDbPolyline
 90
5
 70
0
 10
19.263162
 20
49.599956
 30
0.0
 10
19.263162
 20
48.699956
 30
0.0
 10
24.186791
 20
48.699956
 30
0.0
 10
24.186791
 20
49.599956
 30
0.0
 10
19.263162
 20
49.599956
 30
0.0
  0
LWPOLYLINE
  5
1af
100
AcDbEntity
  8
0
 62
7
100
AcDbPolyline
 90
2
 70
0
 10
17.131610
 20
42.921367
 30
0.0
 10
17.131610
 20
42.921367
 30
0.0
  0
LWPOLYLINE
  5
1b0
100
AcDbEntity
  8
0
 62
7
100
AcDbPolyline
 90
5
 70
0
 10
9.865755
 20
-11.730320
 30
0.0
 10
9.865755
 20
-12.630320
 30
0.0
 10
14.789383
 20
-12.630320
 30
0.0
 10
14.789383
 20
-11.730320
 30
0.0
 10
9.865755
 20
-11.730320
 30
0.0
  0
SPLINE
  5
1b1
100
AcDbEntity
  8
0
 62
7
100
AcDbSpline
 70
8
 71
3
 72
8
 73
4
 74
0
 40
0
 40
0
 40
0
 40
0
 40
1
 40
1
 40
1
 40
1
 10
16.920931
 20
-18.408908
 30
0.0
 10
17.997892
 20
-18.408908
 30
0.0
 10
18.870931
 20
-17.535869
 30
0.0
 10
18.870931
 20
-16.458908
 30
0.0
  0
SPLINE
  5
1b2
100
AcDbEntity
  8
0
 62
7
100
AcDbSpline
 70
8
 71
3
 72
8
 73
4
 74
0
 40
0
 40
0
 40
0
 40
0
 40
1
 40
1
 40
1
 40
1
 10
18.870931
 20
-16.458908
 30
0.0
 10
18.870931
 20
-15.381948
 30
0.0
 10
17.997892
 20
-14.508908
 30
0.0
 10
16.920931
 20
-14.508908
 30
0.0
  0
SPLINE
  5
1b3
100
AcDbEntity
  8
0
 62
7
100
AcDbSpline
 70
8
 71
3
 72
8
 73
4
 74
0
 40
0
 40
0
 40
0
 40
0
 40
1
 40
1
 40
1
 40
1
 10
16.920931
 20
-14.508908
 30
0.0
 10
15.843988
 20
-14.508908
 30
0.0
 10
14.970931
 20
-15.381948
 30
0.0
 10
14.970931
 20
-16.458908
 30
0.0
  0
SPLINE
  5
1b4
100
AcDbEntity
  8
0
 62
7
100
AcDbSpline
 70
8
 71
3
 72
8
 73
4
 74
0
 40
0
 40
0
 40
0
 40
0
 40
1
 40
1
 40
1
 40
1
 10
14.970931
 20
-16.458908
 30
0.0
 10
14.970931
 20
-17.535869
 30
0.0
 10
15.843988
 20
-18.408908
 30
0.0
 10
16.920931
 20
-18.408908
 30
0.0
  0
LWPOLYLINE
  5
1b5
100
AcDbEntity
  8
0
 62
7
100
AcDbPolyline
 90
5
 70
0
 10
19.052455
 20
-11.730320
 30
0.0
 10
19.052455
 20
-12.630320
 30
0.0
 10
23.976084
 20
-12.630320
 30
0.0
 10
23.976084
 20
-11.730320
 30
0.0
 10
19.052455
 20
-11.730320
 30
0.0
  0
LWPOLYLINE
  5
1b6
100
AcDbEntity
  8
0
 62
7
100
AcDbPolyline
 90
2
 70
0
 10
16.920931
 20
-18.408908
 30
0.0
 10
16.920931
 20
-18.408908
 30
0.0
  0
LWPOLYLINE
  5
1b7
100
AcDbEntity
  8
0
 62
7
100
AcDbPolyline
 90
5
 70
0
 10
63.282520
 20
-21.626950
 30
0.0
 10
63.282520
 20
-20.726950
 30
0.0
 10
68.206148
 20
-20.726950
 30
0.0
 10
68.206148
 20
-21.626950
 30
0.0
 10
63.282520
 20
-21.626950
 30
0.0
  0
SPLINE
  5
1b8
100
AcDbEntity
  8
0
 62
7
100
AcDbSpline
 70
8
 71
3
 72
8
 73
4
 74
0
 40
0
 40
0
 40
0
 40
0
 40
1
 40
1
 40
1
 40
1
 10
70.337667
 20
-14.948362
 30
0.0
 10
71.414628
 20
-14.948362
 30
0.0
 10
72.287667
 20
-15.821401
 30
0.0
 10
72.287667
 20
-16.898362
 30
0.0
  0
SPLINE
  5
1b9
100
AcDbEntity
  8
0
 62
7
100
AcDbSpline
 70
8
 71
3
 72
8
 73
4
 74
0
 40
0
 40
0
 40
0
 40
0
 40
1
 40
1
 40
1
 40
1
 10
72.287667
 20
-16.898362
 30
0.0
 10
72.287667
 20
-17.975322
 30
0.0
 10
71.414628
 20
-18.848362
 30
0.0
 10
70.337667
 20
-18.848362
 30
0.0
  0
SPLINE
  5
1ba
100
AcDbEntity
  8
0
 62
7
100
AcDbSpline
 70
8
 71
3
 72
8
 73
4
 74
0
 40
0
 40
0
 40
0
 40
0
 40
1
 40
1
 40
1
 40
1
 10
70.337667
 20
-18.848362
 30
0.0
 10
69.260724
 20
-18.848362
 30
0.0
 10
68.387667
 20
-17.975322
 30
0.0
 10
68.387667
 20
-16.898362
 30
0.0
  0
SPLINE
  5
1bb
100
AcDbEntity
  8
0
 62
7
100
AcDbSpline
 70
8
 71
3
 72
8
 73
4
 74
0
 40
0
 40
0
 40
0
 40
0
 40
1
 40
1
 40
1
 40
1
 10
68.387667
 20
-16.898362
 30
0.0
 10
68.387667
 20
-15.821401
 30
0.0
 10
69.260724
 20
-14.948362
 30
0.0
 10
70.337667
 20
-14.948362
 30
0.0
  0
LWPOLYLINE
  5
1bc
100
AcDbEntity
  8
0
 62
7
100
AcDbPolyline
 90
5
 70
0
 10
72.469220
 20
-21.626950
 30
0.0
 10
72.469220
 20
-20.726950
 30
0.0
 10
77.392848
 20
-20.726950
 30
0.0
 10
77.392848
 20
-21.626950
 30
0.0
 10
72.469220
 20
-21.626950
 30
0.0
  0
LWPOLYLINE
  5
1bd
100
AcDbEntity
  8
0
 62
7
100
AcDbPolyline
 90
2
 70
0
 10
70.337667
 20
-14.948362
 30
0.0
 10
70.337667
 20
-14.948362
 30
0.0
  0
LWPOLYLINE
  5
1be
100
AcDbEntity
  8
0
 62
7
100
AcDbPolyline
 90
5
 70
0
 10
63.282520
 20
39.500408
 30
0.0
 10
63.282520
 20
40.400408
 30
0.0
 10
68.206148
 20
40.400408
 30
0.0
 10
68.206148
 20
39.500408
 30
0.0
 10
63.282520
 20
39.500408
 30
0.0
  0
SPLINE
  5
1bf
100
AcDbEntity
  8
0
 62
7
100
AcDbSpline
 70
8
 71
3
 72
8
 73
4
 74
0
 40
0
 40
0
 40
0
 40
0
 40
1
 40
1
 40
1
 40
1
 10
70.337667
 20
46.178996
 30
0.0
 10
71.414628
 20
46.178996
 30
0.0
 10
72.287667
 20
45.305957
 30
0.0
 10
72.287667
 20
44.228996
 30
0.0
  0
SPLINE
  5
1c0
100
AcDbEntity
  8
0
 62
7
100
AcDbSpline
 70
8
 71
3
 72
8
 73
4
 74
0
 40
0
 40
0
 40
0
 40
0
 40
1
 40
1
 40
1
 40
1
 10
72.287667
 20
44.228996
 30
0.0
 10
72.287667
 20
43.152036
 30
0.0
 10
71.414628
 20
42.278996
 30
0.0
 10
70.337667
 20
42.278996
 30
0.0
  0
SPLINE
  5
1c1
100
AcDbEntity
  8
0
 62
7
100
AcDbSpline
 70
8
 71
3
 72
8
 73
4
 74
0
 40
0
 40
0
 40
0
 40
0
 40
1
 40
1
 40
1
 40
1
 10
70.337667
 20
42.278996
 30
0.0
 10
69.260724
 20
42.278996
 30
0.0
 10
68.387667
 20
43.152036
 30
0.0
 10
68.387667
 20
44.228996
 30
0.0
  0
SPLINE
  5
1c2
100
AcDbEntity
  8
0
 62
7
100
AcDbSpline
 70
8
 71
3
 72
8
 73
4
 74
0
 40
0
 40
0
 40
0
 40
0
 40
1
 40
1
 40
1
 40
1
 10
68.387667
 20
44.228996
 30
0.0
 10
68.387667
 20
45.305957
 30
0.0
 10
69.260724
 20
46.178996
 30
0.0
 10
70.337667
 20
46.178996
 30
0.0
  0
LWPOLYLINE
  5
1c3
100
AcDbEntity
  8
0
 62
7
100
AcDbPolyline
 90
5
 70
0
 10
72.469220
 20
39.500408
 30
0.0
 10
72.469220
 20
40.400408
 30
0.0
 10
77.392848
 20
40.400408
 30
0.0
 10
77.392848
 20
39.500408
 30
0.0
 10
72.469220
 20
39.500408
 30
0.0
  0
LWPOLYLINE
  5
1c4
100
AcDbEntity
  8
0
 62
7
100
AcDbPolyline
 90
2
 70
0
 10
70.337667
 20
46.178996
 30
0.0
 10
70.337667
 20
46.178996
 30
0.0
  0
LWPOLYLINE
  5
1c5
100
AcDbEntity
  8
0
 62
7
100
AcDbPolyline
 90
5
 70
0
 10
63.282520
 20
100.627822
 30
0.0
 10
63.282520
 20
101.527822
 30
0.0
 10
68.206148
 20
101.527822
 30
0.0
 10
68.206148
 20
100.627822
 30
0.0
 10
63.282520
 20
100.627822
 30
0.0
  0
SPLINE
  5
1c6
100
AcDbEntity
  8
0
 62
7
100
AcDbSpline
 70
8
 71
3
 72
8
 73
4
 74
0
 40
0
 40
0
 40
0
 40
0
 40
1
 40
1
 40
1
 40
1
 10
70.337667
 20
107.306382
 30
0.0
 10
71.414628
 20
107.306382
 30
0.0
 10
72.287667
 20
106.433343
 30
0.0
 10
72.287667
 20
105.356382
 30
0.0
  0
SPLINE
  5
1c7
100
AcDbEntity
  8
0
 62
7
100
AcDbSpline
 70
8
 71
3
 72
8
 73
4
 74
0
 40
0
 40
0
 40
0
 40
0
 40
1
 40
1
 40
1
 40
1
 10
72.287667
 20
105.356382
 30
0.0
 10
72.287667
 20
104.279422
 30
0.0
 10
71.414628
 20
103.406382
 30
0.0
 10
70.337667
 20
103.406382
 30
0.0
  0
SPLINE
  5
1c8
100
AcDbEntity
  8
0
 62
7
100
AcDbSpline
 70
8
 71
3
 72
8
 73
4
 74
0
 40
0
 40
0
 40
0
 40
0
 40
1
 40
1
 40
1
 40
1
 10
70.337667
 20
103.406382
 30
0.0
 10
69.260724
 20
103.406382
 30
0.0
 10
68.387667
 20
104.279422
 30
0.0
 10
68.387667
 20
105.356382
 30
0.0
  0
SPLINE
  5
1c9
100
AcDbEntity
  8
0
 62
7
100
AcDbSpline
 70
8
 71
3
 72
8
 73
4
 74
0
 40
0
 40
0
 40
0
 40
0
 40
1
 40
1
 40
1
 40
1
 10
68.387667
 20
105.356382
 30
0.0
 10
68.387667
 20
106.433343
 30
0.0
 10
69.260724
 20
107.306382
 30
0.0
 10
70.337667
 20
107.306382
 30
0.0
  0
LWPOLYLINE
  5
1ca
100
AcDbEntity
  8
0
 62
7
100
AcDbPolyline
 90
5
 70
0
 10
72.469220
 20
100.627822
 30
0.0
 10
72.469220
 20
101.527822
 30
0.0
 10
77.392848
 20
101.527822
 30
0.0
 10
77.392848
 20
100.627822
 30
0.0
 10
72.469220
 20
100.627822
 30
0.0
  0
LWPOLYLINE
  5
1cb
100
AcDbEntity
  8
0
 62
7
100
AcDbPolyline
 90
2
 70
0
 10
70.337667
 20
107.306382
 30
0.0
 10
70.337667
 20
107.306382
 30
0.0
  0
LWPOLYLINE
  5
1cc
100
AcDbEntity
  8
0
 62
7
100
AcDbPolyline
 90
5
 70
0
 10
63.282520
 20
161.755180
 30
0.0
 10
63.282520
 20
162.655180
 30
0.0
 10
68.206148
 20
162.655180
 30
0.0
 10
68.206148
 20
161.755180
 30
0.0
 10
63.282520
 20
161.755180
 30
0.0
  0
SPLINE
  5
1cd
100
AcDbEntity
  8
0
 62
7
100
AcDbSpline
 70
8
 71
3
 72
8
 73
4
 74
0
 40
0
 40
0
 40
0
 40
0
 40
1
 40
1
 40
1
 40
1
 10
70.337667
 20
168.433768
 30
0.0
 10
71.414628
 20
168.433768
 30
0.0
 10
72.287667
 20
167.560729
 30
0.0
 10
72.287667
 20
166.483768
 30
0.0
  0
SPLINE
  5
1ce
100
AcDbEntity
  8
0
 62
7
100
AcDbSpline
 70
8
 71
3
 72
8
 73
4
 74
0
 40
0
 40
0
 40
0
 40
0
 40
1
 40
1
 40
1
 40
1
 10
72.287667
 20
166.483768
 30
0.0
 10
72.287667
 20
165.406808
 30
0.0
 10
71.414628
 20
164.533768
 30
0.0
 10
70.337667
 20
164.533768
 30
0.0
  0
SPLINE
  5
1cf
100
AcDbEntity
  8
0
 62
7
100
AcDbSpline
 70
8
 71
3
 72
8
 73
4
 74
0
 40
0
 40
0
 40
0
 40
0
 40
1
 40
1
 40
1
 40
1
 10
70.337667
 20
164.533768
 30
0.0
 10
69.260724
 20
164.533768
 30
0.0
 10
68.387667
 20
165.406808
 30
0.0
 10
68.387667
 20
166.483768
 30
0.0
  0
SPLINE
  5
1d0
100
AcDbEntity
  8
0
 62
7
100
AcDbSpline
 70
8
 71
3
 72
8
 73
4
 74
0
 40
0
 40
0
 40
0
 40
0
 40
1
 40
1
 40
1
 40
1
 10
68.387667
 20
166.483768
 30
0.0
 10
68.387667
 20
167.560729
 30
0.0
 10
69.260724
 20
168.433768
 30
0.0
 10
70.337667
 20
168.433768
 30
0.0
  0
LWPOLYLINE
  5
1d1
100
AcDbEntity
  8
0
 62
7
100
AcDbPolyline
 90
5
 70
0
 10
72.469220
 20
161.755180
 30
0.0
 10
72.469220
 20
162.655180
 30
0.0
 10
77.392848
 20
162.655180
 30
0.0
 10
77.392848
 20
161.755180
 30
0.0
 10
72.469220
 20
161.755180
 30
0.0
  0
LWPOLYLINE
  5
1d2
100
AcDbEntity
  8
0
 62
7
100
AcDbPolyline
 90
2
 70
0
 10
70.337667
 20
168.433768
 30
0.0
 10
70.337667
 20
168.433768
 30
0.0
  0
LWPOLYLINE
  5
1d3
100
AcDbEntity
  8
0
 62
7
100
AcDbPolyline
 90
5
 70
0
 10
130.373402
 20
161.284433
 30
0.0
 10
130.373402
 20
162.184433
 30
0.0
 10
135.297031
 20
162.184433
 30
0.0
 10
135.297031
 20
161.284433
 30
0.0
 10
130.373402
 20
161.284433
 30
0.0
  0
SPLINE
  5
1d4
100
AcDbEntity
  8
0
 62
7
100
AcDbSpline
 70
8
 71
3
 72
8
 73
4
 74
0
 40
0
 40
0
 40
0
 40
0
 40
1
 40
1
 40
1
 40
1
 10
137.428522
 20
167.963021
 30
0.0
 10
138.505482
 20
167.963021
 30
0.0
 10
139.378522
 20
167.089982
 30
0.0
 10
139.378522
 20
166.013022
 30
0.0
  0
SPLINE
  5
1d5
100
AcDbEntity
  8
0
 62
7
100
AcDbSpline
 70
8
 71
3
 72
8
 73
4
 74
0
 40
0
 40
0
 40
0
 40
0
 40
1
 40
1
 40
1
 40
1
 10
139.378522
 20
166.013022
 30
0.0
 10
139.378522
 20
164.936061
 30
0.0
 10
138.505482
 20
164.063022
 30
0.0
 10
137.428522
 20
164.063022
 30
0.0
  0
SPLINE
  5
1d6
100
AcDbEntity
  8
0
 62
7
100
AcDbSpline
 70
8
 71
3
 72
8
 73
4
 74
0
 40
0
 40
0
 40
0
 40
0
 40
1
 40
1
 40
1
 40
1
 10
137.428522
 20
164.063022
 30
0.0
 10
136.351578
 20
164.063022
 30
0.0
 10
135.478522
 20
164.936061
 30
0.0
 10
135.478522
 20
166.013022
 30
0.0
  0
SPLINE
  5
1d7
100
AcDbEntity
  8
0
 62
7
100
AcDbSpline
 70
8
 71
3
 72
8
 73
4
 74
0
 40
0
 40
0
 40
0
 40
0
 40
1
 40
1
 40
1
 40
1
 10
135.478522
 20
166.013022
 30
0.0
 10
135.478522
 20
167.089982
 30
0.0
 10
136.351578
 20
167.963021
 30
0.0
 10
137.428522
 20
167.963021
 30
0.0
  0
LWPOLYLINE
  5
1d8
100
AcDbEntity
  8
0
 62
7
100
AcDbPolyline
 90
5
 70
0
 10
139.560046
 20
161.284433
 30
0.0
 10
139.560046
 20
162.184433
 30
0.0
 10
144.483674
 20
162.184433
 30
0.0
 10
144.483674
 20
161.284433
 30
0.0
 10
139.560046
 20
161.284433
 30
0.0
  0
LWPOLYLINE
  5
1d9
100
AcDbEntity
  8
0
 62
7
100
AcDbPolyline
 90
2
 70
0
 10
137.428522
 20
167.963021
 30
0.0
 10
137.428522
 20
167.963021
 30
0.0
  0
LWPOLYLINE
  5
1da
100
AcDbEntity
  8
0
 62
7
100
AcDbPolyline
 90
5
 70
0
 10
130.373402
 20
100.157075
 30
0.0
 10
130.373402
 20
101.057075
 30
0.0
 10
135.297031
 20
101.057075
 30
0.0
 10
135.297031
 20
100.157075
 30
0.0
 10
130.373402
 20
100.157075
 30
0.0
  0
SPLINE
  5
1db
100
AcDbEntity
  8
0
 62
7
100
AcDbSpline
 70
8
 71
3
 72
8
 73
4
 74
0
 40
0
 40
0
 40
0
 40
0
 40
1
 40
1
 40
1
 40
1
 10
137.428522
 20
106.835635
 30
0.0
 10
138.505482
 20
106.835635
 30
0.0
 10
139.378522
 20
105.962596
 30
0.0
 10
139.378522
 20
104.885636
 30
0.0
  0
SPLINE
  5
1dc
100
AcDbEntity
  8
0
 62
7
100
AcDbSpline
 70
8
 71
3
 72
8
 73
4
 74
0
 40
0
 40
0
 40
0
 40
0
 40
1
 40
1
 40
1
 40
1
 10
139.378522
 20
104.885636
 30
0.0
 10
139.378522
 20
103.808675
 30
0.0
 10
138.505482
 20
102.935636
 30
0.0
 10
137.428522
 20
102.935636
 30
0.0
  0
SPLINE
  5
1dd
100
AcDbEntity
  8
0
 62
7
100
AcDbSpline
 70
8
 71
3
 72
8
 73
4
 74
0
 40
0
 40
0
 40
0
 40
0
 40
1
 40
1
 40
1
 40
1
 10
137.428522
 20
102.935636
 30
0.0
 10
136.351578
 20
102.935636
 30
0.0
 10
135.478522
 20
103.808675
 30
0.0
 10
135.478522
 20
104.885636
 30
0.0
  0
SPLINE
  5
1de
100
AcDbEntity
  8
0
 62
7
100
AcDbSpline
 70
8
 71
3
 72
8
 73
4
 74
0
 40
0
 40
0
 40
0
 40
0
 40
1
 40
1
 40
1
 40
1
 10
135.478522
 20
104.885636
 30
0.0
 10
135.478522
 20
105.962596
 30
0.0
 10
136.351578
 20
106.835635
 30
0.0
 10
137.428522
 20
106.835635
 30
0.0
  0
LWPOLYLINE
  5
1df
100
AcDbEntity
  8
0
 62
7
100
AcDbPolyline
 90
5
 70
0
 10
139.560046
 20
100.157075
 30
0.0
 10
139.560046
 20
101.057075
 30
0.0
 10
144.483674
 20
101.057075
 30
0.0
 10
144.483674
 20
100.157075
 30
0.0
 10
139.560046
 20
100.157075
 30
0.0
  0
LWPOLYLINE
  5
1e0
100
AcDbEntity
  8
0
 62
7
100
AcDbPolyline
 90
2
 70
0
 10
137.428522
 20
106.835635
 30
0.0
 10
137.428522
 20
106.835635
 30
0.0
  0
LWPOLYLINE
  5
1e1
100
AcDbEntity
  8
0
 62
7
100
AcDbPolyline
 90
5
 70
0
 10
130.373402
 20
39.029689
 30
0.0
 10
130.373402
 20
39.929689
 30
0.0
 10
135.297031
 20
39.929689
 30
0.0
 10
135.297031
 20
39.029689
 30
0.0
 10
130.373402
 20
39.029689
 30
0.0
  0
SPLINE
  5
1e2
100
AcDbEntity
  8
0
 62
7
100
AcDbSpline
 70
8
 71
3
 72
8
 73
4
 74
0
 40
0
 40
0
 40
0
 40
0
 40
1
 40
1
 40
1
 40
1
 10
137.428522
 20
45.708249
 30
0.0
 10
138.505482
 20
45.708249
 30
0.0
 10
139.378522
 20
44.835210
 30
0.0
 10
139.378522
 20
43.758250
 30
0.0
  0
SPLINE
  5
1e3
100
AcDbEntity
  8
0
 62
7
100
AcDbSpline
 70
8
 71
3
 72
8
 73
4
 74
0
 40
0
 40
0
 40
0
 40
0
 40
1
 40
1
 40
1
 40
1
 10
139.378522
 20
43.758250
 30
0.0
 10
139.378522
 20
42.681289
 30
0.0
 10
138.505482
 20
41.808250
 30
0.0
 10
137.428522
 20
41.808250
 30
0.0
  0
SPLINE
  5
1e4
100
AcDbEntity
  8
0
 62
7
100
AcDbSpline
 70
8
 71
3
 72
8
 73
4
 74
0
 40
0
 40
0
 40
0
 40
0
 40
1
 40
1
 40
1
 40
1
 10
137.428522
 20
41.808250
 30
0.0
 10
136.351578
 20
41.808250
 30
0.0
 10
135.478522
 20
42.681289
 30
0.0
 10
135.478522
 20
43.758250
 30
0.0
  0
SPLINE
  5
1e5
100
AcDbEntity
  8
0
 62
7
100
AcDbSpline
 70
8
 71
3
 72
8
 73
4
 74
0
 40
0
 40
0
 40
0
 40
0
 40
1
 40
1
 40
1
 40
1
 10
135.478522
 20
43.758250
 30
0.0
 10
135.478522
 20
44.835210
 30
0.0
 10
136.351578
 20
45.708249
 30
0.0
 10
137.428522
 20
45.708249
 30
0.0
  0
LWPOLYLINE
  5
1e6
100
AcDbEntity
  8
0
 62
7
100
AcDbPolyline
 90
5
 70
0
 10
139.560046
 20
39.029689
 30
0.0
 10
139.560046
 20
39.929689
 30
0.0
 10
144.483674
 20
39.929689
 30
0.0
 10
144.483674
 20
39.029689
 30
0.0
 10
139.560046
 20
39.029689
 30
0.0
  0
LWPOLYLINE
  5
1e7
100
AcDbEntity
  8
0
 62
7
100
AcDbPolyline
 90
2
 70
0
 10
137.428522
 20
45.708249
 30
0.0
 10
137.428522
 20
45.708249
 30
0.0
  0
LWPOLYLINE
  5
1e8
100
AcDbEntity
  8
0
 62
7
100
AcDbPolyline
 90
5
 70
0
 10
130.373402
 20
-22.097697
 30
0.0
 10
130.373402
 20
-21.197697
 30
0.0
 10
135.297031
 20
-21.197697
 30
0.0
 10
135.297031
 20
-22.097697
 30
0.0
 10
130.373402
 20
-22.097697
 30
0.0
  0
SPLINE
  5
1e9
100
AcDbEntity
  8
0
 62
7
100
AcDbSpline
 70
8
 71
3
 72
8
 73
4
 74
0
 40
0
 40
0
 40
0
 40
0
 40
1
 40
1
 40
1
 40
1
 10
137.428522
 20
-15.419108
 30
0.0
 10
138.505482
 20
-15.419108
 30
0.0
 10
139.378522
 20
-16.292148
 30
0.0
 10
139.378522
 20
-17.369108
 30
0.0
  0
SPLINE
  5
1ea
100
AcDbEntity
  8
0
 62
7
100
AcDbSpline
 70
8
 71
3
 72
8
 73
4
 74
0
 40
0
 40
0
 40
0
 40
0
 40
1
 40
1
 40
1
 40
1
 10
139.378522
 20
-17.369108
 30
0.0
 10
139.378522
 20
-18.446069
 30
0.0
 10
138.505482
 20
-19.319108
 30
0.0
 10
137.428522
 20
-19.319108
 30
0.0
  0
SPLINE
  5
1eb
100
AcDbEntity
  8
0
 62
7
100
AcDbSpline
 70
8
 71
3
 72
8
 73
4
 74
0
 40
0
 40
0
 40
0
 40
0
 40
1
 40
1
 40
1
 40
1
 10
137.428522
 20
-19.319108
 30
0.0
 10
136.351578
 20
-19.319108
 30
0.0
 10
135.478522
 20
-18.446069
 30
0.0
 10
135.478522
 20
-17.369108
 30
0.0
  0
SPLINE
  5
1ec
100
AcDbEntity
  8
0
 62
7
100
AcDbSpline
 70
8
 71
3
 72
8
 73
4
 74
0
 40
0
 40
0
 40
0
 40
0
 40
1
 40
1
 40
1
 40
1
 10
135.478522
 20
-17.369108
 30
0.0
 10
135.478522
 20
-16.292148
 30
0.0
 10
136.351578
 20
-15.419108
 30
0.0
 10
137.428522
 20
-15.419108
 30
0.0
  0
LWPOLYLINE
  5
1ed
100
AcDbEntity
  8
0
 62
7
100
AcDbPolyline
 90
5
 70
0
 10
139.560046
 20
-22.097697
 30
0.0
 10
139.560046
 20
-21.197697
 30
0.0
 10
144.483674
 20
-21.197697
 30
0.0
 10
144.483674
 20
-22.097697
 30
0.0
 10
139.560046
 20
-22.097697
 30
0.0
  0
SPLINE
  5
1ee
100
AcDbEntity
  8
0
 62
1
100
AcDbSpline
 70
8
 71
3
 72
8
 73
4
 74
0
 40
0
 40
0
 40
0
 40
0
 40
1
 40
1
 40
1
 40
1
 10
477.100614
 20
132.133511
 30
0.0
 10
477.100614
 20
138.962639
 30
0.0
 10
482.632310
 20
144.500319
 30
0.0
 10
489.454073
 20
144.500319
 30
0.0
  0
SPLINE
  5
1ef
100
AcDbEntity
  8
0
 62
1
100
AcDbSpline
 70
8
 71
3
 72
8
 73
4
 74
0
 40
0
 40
0
 40
0
 40
0
 40
1
 40
1
 40
1
 40
1
 10
489.454073
 20
144.500319
 30
0.0
 10
496.275836
 20
144.500319
 30
0.0
 10
501.807532
 20
138.962639
 30
0.0
 10
501.807532
 20
132.133511
 30
0.0
  0
SPLINE
  5
1f0
100
AcDbEntity
  8
0
 62
1
100
AcDbSpline
 70
8
 71
3
 72
8
 73
4
 74
0
 40
0
 40
0
 40
0
 40
0
 40
1
 40
1
 40
1
 40
1
 10
501.807532
 20
132.133511
 30
0.0
 10
501.807532
 20
130.134728
 30
0.0
 10
501.333822
 20
128.251431
 30
0.0
 10
500.492631
 20
126.580591
 30
0.0
  0
LWPOLYLINE
  5
1f1
100
AcDbEntity
  8
0
 62
7
100
AcDbPolyline
 90
2
 70
0
 10
137.428522
 20
-15.419108
 30
0.0
 10
137.428522
 20
-15.419108
 30
0.0
  0
SPLINE
  5
1f2
100
AcDbEntity
  8
0
 62
1
100
AcDbSpline
 70
8
 71
3
 72
8
 73
4
 74
0
 40
0
 40
0
 40
0
 40
0
 40
1
 40
1
 40
1
 40
1
 10
478.426578
 20
126.580591
 30
0.0
 10
477.584907
 20
128.251854
 30
0.0
 10
477.100614
 20
130.134107
 30
0.0
 10
477.100614
 20
132.133511
 30
0.0
  0
LWPOLYLINE
  5
1f3
100
AcDbEntity
  8
0
 62
1
100
AcDbPolyline
 90
2
 70
0
 10
500.492631
 20
126.580591
 30
0.0
 10
478.426578
 20
126.580591
 30
0.0
  0
SPLINE
  5
1f4
100
AcDbEntity
  8
0
 62
7
100
AcDbSpline
 70
8
 71
3
 72
8
 73
4
 74
0
 40
0
 40
0
 40
0
 40
0
 40
1
 40
1
 40
1
 40
1
 10
473.781900
 20
132.071450
 30
0.0
 10
473.781900
 20
123.254263
 30
0.0
 10
480.921857
 20
116.114323
 30
0.0
 10
489.739075
 20
116.114323
 30
0.0
  0
SPLINE
  5
1f5
100
AcDbEntity
  8
0
 62
7
100
AcDbSpline
 70
8
 71
3
 72
8
 73
4
 74
0
 40
0
 40
0
 40
0
 40
0
 40
1
 40
1
 40
1
 40
1
 10
489.739075
 20
116.114323
 30
0.0
 10
498.556264
 20
116.114323
 30
0.0
 10
505.705219
 20
123.254263
 30
0.0
 10
505.705219
 20
132.071450
 30
0.0
  0
SPLINE
  5
1f6
100
AcDbEntity
  8
0
 62
7
100
AcDbSpline
 70
8
 71
3
 72
8
 73
4
 74
0
 40
0
 40
0
 40
0
 40
0
 40
1
 40
1
 40
1
 40
1
 10
505.705219
 20
132.071450
 30
0.0
 10
505.705219
 20
140.888665
 30
0.0
 10
498.556264
 20
148.037608
 30
0.0
 10
489.739075
 20
148.037608
 30
0.0
  0
SPLINE
  5
1f7
100
AcDbEntity
  8
0
 62
7
100
AcDbSpline
 70
8
 71
3
 72
8
 73
4
 74
0
 40
0
 40
0
 40
0
 40
0
 40
1
 40
1
 40
1
 40
1
 10
489.739075
 20
148.037608
 30
0.0
 10
480.921857
 20
148.037608
 30
0.0
 10
473.781900
 20
140.888665
 30
0.0
 10
473.781900
 20
132.071450
 30
0.0
  0
LWPOLYLINE
  5
1f8
100
AcDbEntity
  8
0
 62
1
100
AcDbPolyline
 90
2
 70
0
 10
477.100614
 20
132.133511
 30
0.0
 10
477.100614
 20
132.133511
 30
0.0
  0
LWPOLYLINE
  5
1f9
100
AcDbEntity
  8
0
 62
7
100
AcDbPolyline
 90
2
 70
0
 10
473.781900
 20
132.071450
 30
0.0
 10
473.781900
 20
132.071450
 30
0.0
  0
SPLINE
  5
1fa
100
AcDbEntity
  8
0
 62
7
100
AcDbSpline
 70
8
 71
3
 72
8
 73
4
 74
0
 40
0
 40
0
 40
0
 40
0
 40
1
 40
1
 40
1
 40
1
 10
491.341450
 20
187.678033
 30
0.0
 10
491.341450
 20
189.037582
 30
0.0
 10
492.298931
 20
190.134608
 30
0.0
 10
493.497421
 20
190.134608
 30
0.0
  0
LWPOLYLINE
  5
1fb
100
AcDbEntity
  8
0
 62
7
100
AcDbPolyline
 90
3
 70
0
 10
472.805831
 20
186.173789
 30
0.0
 10
491.341450
 20
186.173789
 30
0.0
 10
491.341450
 20
187.678033
 30
0.0
  0
SPLINE
  5
1fc
100
AcDbEntity
  8
0
 62
7
100
AcDbSpline
 70
8
 71
3
 72
8
 73
4
 74
0
 40
0
 40
0
 40
0
 40
0
 40
1
 40
1
 40
1
 40
1
 10
487.945317
 20
212.643891
 30
0.0
 10
479.555909
 20
212.643891
 30
0.0
 10
472.805831
 20
204.986581
 30
0.0
 10
472.805831
 20
195.469709
 30
0.0
  0
LWPOLYLINE
  5
1fd
100
AcDbEntity
  8
0
 62
7
100
AcDbPolyline
 90
7
 70
0
 10
493.497421
 20
190.134608
 30
0.0
 10
499.621909
 20
190.134608
 30
0.0
 10
499.621909
 20
190.253593
 30
0.0
 10
506.681288
 20
201.367617
 30
0.0
 10
499.621909
 20
212.481528
 30
0.0
 10
499.621909
 20
212.643891
 30
0.0
 10
487.945317
 20
212.643891
 30
0.0
  0
SPLINE
  5
1fe
100
AcDbEntity
  8
0
 62
1
100
AcDbSpline
 70
8
 71
3
 72
8
 73
4
 74
0
 40
0
 40
0
 40
0
 40
0
 40
1
 40
1
 40
1
 40
1
 10
475.200114
 20
197.756386
 30
0.0
 10
475.200114
 20
204.585515
 30
0.0
 10
480.731810
 20
210.123195
 30
0.0
 10
487.553573
 20
210.123195
 30
0.0
  0
SPLINE
  5
1ff
100
AcDbEntity
  8
0
 62
1
100
AcDbSpline
 70
8
 71
3
 72
8
 73
4
 74
0
 40
0
 40
0
 40
0
 40
0
 40
1
 40
1
 40
1
 40
1
 10
487.553573
 20
210.123195
 30
0.0
 10
494.375344
 20
210.123195
 30
0.0
 10
499.907015
 20
204.585543
 30
0.0
 10
499.907015
 20
197.756386
 30
0.0
  0
SPLINE
  5
200
100
AcDbEntity
  8
0
 62
1
100
AcDbSpline
 70
8
 71
3
 72
8
 73
4
 74
0
 40
0
 40
0
 40
0
 40
0
 40
1
 40
1
 40
1
 40
1
 10
499.907015
 20
197.756386
 30
0.0
 10
499.907015
 20
195.757604
 30
0.0
 10
499.433305
 20
193.874307
 30
0.0
 10
498.592111
 20
192.203466
 30
0.0
  0
LWPOLYLINE
  5
201
100
AcDbEntity
  8
0
 62
7
100
AcDbPolyline
 90
3
 70
0
 10
472.805831
 20
195.469709
 30
0.0
 10
472.805831
 20
186.173789
 30
0.0
 10
472.805831
 20
186.173789
 30
0.0
  0
SPLINE
  5
202
100
AcDbEntity
  8
0
 62
1
100
AcDbSpline
 70
8
 71
3
 72
8
 73
4
 74
0
 40
0
 40
0
 40
0
 40
0
 40
1
 40
1
 40
1
 40
1
 10
476.526078
 20
192.203466
 30
0.0
 10
475.684407
 20
193.874730
 30
0.0
 10
475.200114
 20
195.756983
 30
0.0
 10
475.200114
 20
197.756386
 30
0.0
  0
LWPOLYLINE
  5
203
100
AcDbEntity
  8
0
 62
1
100
AcDbPolyline
 90
2
 70
0
 10
498.592111
 20
192.203466
 30
0.0
 10
476.526078
 20
192.203466
 30
0.0
  0
SPLINE
  5
204
100
AcDbEntity
  8
0
 62
1
100
AcDbSpline
 70
8
 71
3
 72
8
 73
4
 74
0
 40
0
 40
0
 40
0
 40
0
 40
1
 40
1
 40
1
 40
1
 10
479.580104
 20
228.193093
 30
0.0
 10
479.580104
 20
235.022222
 30
0.0
 10
485.111800
 20
240.559902
 30
0.0
 10
491.933563
 20
240.559902
 30
0.0
  0
SPLINE
  5
205
100
AcDbEntity
  8
0
 62
1
100
AcDbSpline
 70
8
 71
3
 72
8
 73
4
 74
0
 40
0
 40
0
 40
0
 40
0
 40
1
 40
1
 40
1
 40
1
 10
491.933563
 20
240.559902
 30
0.0
 10
498.755334
 20
240.559902
 30
0.0
 10
504.287005
 20
235.022250
 30
0.0
 10
504.287005
 20
228.193093
 30
0.0
  0
SPLINE
  5
206
100
AcDbEntity
  8
0
 62
1
100
AcDbSpline
 70
8
 71
3
 72
8
 73
4
 74
0
 40
0
 40
0
 40
0
 40
0
 40
1
 40
1
 40
1
 40
1
 10
504.287005
 20
228.193093
 30
0.0
 10
504.287005
 20
226.194311
 30
0.0
 10
503.813295
 20
224.311014
 30
0.0
 10
502.972101
 20
222.640174
 30
0.0
  0
LWPOLYLINE
  5
207
100
AcDbEntity
  8
0
 62
1
100
AcDbPolyline
 90
2
 70
0
 10
475.200114
 20
197.756386
 30
0.0
 10
475.200114
 20
197.756386
 30
0.0
  0
SPLINE
  5
208
100
AcDbEntity
  8
0
 62
1
100
AcDbSpline
 70
8
 71
3
 72
8
 73
4
 74
0
 40
0
 40
0
 40
0
 40
0
 40
1
 40
1
 40
1
 40
1
 10
480.906068
 20
222.640174
 30
0.0
 10
480.064397
 20
224.311437
 30
0.0
 10
479.580104
 20
226.193690
 30
0.0
 10
479.580104
 20
228.193093
 30
0.0
  0
LWPOLYLINE
  5
209
100
AcDbEntity
  8
0
 62
1
100
AcDbPolyline
 90
2
 70
0
 10
502.972101
 20
222.640174
 30
0.0
 10
480.906068
 20
222.640174
 30
0.0
  0
LWPOLYLINE
  5
20a
100
AcDbEntity
  8
0
 62
1
100
AcDbPolyline
 90
2
 70
0
 10
479.580104
 20
228.193093
 30
0.0
 10
479.580104
 20
228.193093
 30
0.0
  0
SPLINE
  5
20b
100
AcDbEntity
  8
0
 62
7
100
AcDbSpline
 70
8
 71
3
 72
8
 73
4
 74
0
 40
0
 40
0
 40
0
 40
0
 40
1
 40
1
 40
1
 40
1
 10
488.145669
 20
218.114740
 30
0.0
 10
488.145669
 20
219.474289
 30
0.0
 10
487.188188
 20
220.571315
 30
0.0
 10
485.989698
 20
220.571315
 30
0.0
  0
LWPOLYLINE
  5
20c
100
AcDbEntity
  8
0
 62
7
100
AcDbPolyline
 90
3
 70
0
 10
506.681288
 20
216.610496
 30
0.0
 10
488.145669
 20
216.610496
 30
0.0
 10
488.145669
 20
218.114740
 30
0.0
  0
SPLINE
  5
20d
100
AcDbEntity
  8
0
 62
7
100
AcDbSpline
 70
8
 71
3
 72
8
 73
4
 74
0
 40
0
 40
0
 40
0
 40
0
 40
1
 40
1
 40
1
 40
1
 10
491.541802
 20
243.080598
 30
0.0
 10
499.931210
 20
243.080598
 30
0.0
 10
506.681288
 20
235.423288
 30
0.0
 10
506.681288
 20
225.906416
 30
0.0
  0
LWPOLYLINE
  5
20e
100
AcDbEntity
  8
0
 62
7
100
AcDbPolyline
 90
7
 70
0
 10
485.989698
 20
220.571315
 30
0.0
 10
479.865210
 20
220.571315
 30
0.0
 10
479.865210
 20
220.690300
 30
0.0
 10
472.805831
 20
231.804324
 30
0.0
 10
479.865210
 20
242.918235
 30
0.0
 10
479.865210
 20
243.080598
 30
0.0
 10
491.541802
 20
243.080598
 30
0.0
  0
LWPOLYLINE
  5
20f
100
AcDbEntity
  8
0
 62
7
100
AcDbPolyline
 90
3
 70
0
 10
506.681288
 20
225.906416
 30
0.0
 10
506.681288
 20
216.610496
 30
0.0
 10
506.681288
 20
216.610496
 30
0.0
  0
SPLINE
  5
210
100
AcDbEntity
  8
0
 62
1
100
AcDbSpline
 70
8
 71
3
 72
8
 73
4
 74
0
 40
0
 40
0
 40
0
 40
0
 40
1
 40
1
 40
1
 40
1
 10
477.390111
 20
160.633524
 30
0.0
 10
477.390111
 20
167.462653
 30
0.0
 10
482.921808
 20
173.000333
 30
0.0
 10
489.743571
 20
173.000333
 30
0.0
  0
SPLINE
  5
211
100
AcDbEntity
  8
0
 62
1
100
AcDbSpline
 70
8
 71
3
 72
8
 73
4
 74
0
 40
0
 40
0
 40
0
 40
0
 40
1
 40
1
 40
1
 40
1
 10
489.743571
 20
173.000333
 30
0.0
 10
496.565333
 20
173.000333
 30
0.0
 10
502.097002
 20
167.462681
 30
0.0
 10
502.097002
 20
160.633524
 30
0.0
  0
SPLINE
  5
212
100
AcDbEntity
  8
0
 62
1
100
AcDbSpline
 70
8
 71
3
 72
8
 73
4
 74
0
 40
0
 40
0
 40
0
 40
0
 40
1
 40
1
 40
1
 40
1
 10
502.097002
 20
160.633524
 30
0.0
 10
502.097002
 20
158.634742
 30
0.0
 10
501.623292
 20
156.751445
 30
0.0
 10
500.782100
 20
155.080604
 30
0.0
  0
LWPOLYLINE
  5
213
100
AcDbEntity
  8
0
 62
7
100
AcDbPolyline
 90
7
 70
0
 10
474.649141
 20
151.277124
 30
0.0
 10
504.837978
 20
151.277124
 30
0.0
 10
504.837978
 20
169.544493
 30
0.0
 10
489.748366
 20
183.199308
 30
0.0
 10
474.649141
 20
169.544493
 30
0.0
 10
474.649141
 20
151.277124
 30
0.0
 10
474.649141
 20
151.277124
 30
0.0
  0
SPLINE
  5
214
100
AcDbEntity
  8
0
 62
1
100
AcDbSpline
 70
8
 71
3
 72
8
 73
4
 74
0
 40
0
 40
0
 40
0
 40
0
 40
1
 40
1
 40
1
 40
1
 10
478.716076
 20
155.080604
 30
0.0
 10
477.874405
 20
156.751868
 30
0.0
 10
477.390111
 20
158.634121
 30
0.0
 10
477.390111
 20
160.633524
 30
0.0
  0
LWPOLYLINE
  5
215
100
AcDbEntity
  8
0
 62
1
100
AcDbPolyline
 90
2
 70
0
 10
500.782100
 20
155.080604
 30
0.0
 10
478.716076
 20
155.080604
 30
0.0
  0
SPLINE
  5
216
100
AcDbEntity
  8
0
 62
1
100
AcDbSpline
 70
8
 71
3
 72
8
 73
4
 74
0
 40
0
 40
0
 40
0
 40
0
 40
1
 40
1
 40
1
 40
1
 10
478.240989
 20
0.949259
 30
0.0
 10
478.240989
 20
7.778387
 30
0.0
 10
483.772686
 20
13.316067
 30
0.0
 10
490.594448
 20
13.316067
 30
0.0
  0
SPLINE
  5
217
100
AcDbEntity
  8
0
 62
1
100
AcDbSpline
 70
8
 71
3
 72
8
 73
4
 74
0
 40
0
 40
0
 40
0
 40
0
 40
1
 40
1
 40
1
 40
1
 10
490.594448
 20
13.316067
 30
0.0
 10
497.416211
 20
13.316067
 30
0.0
 10
502.947908
 20
7.778387
 30
0.0
 10
502.947908
 20
0.949259
 30
0.0
  0
SPLINE
  5
218
100
AcDbEntity
  8
0
 62
1
100
AcDbSpline
 70
8
 71
3
 72
8
 73
4
 74
0
 40
0
 40
0
 40
0
 40
0
 40
1
 40
1
 40
1
 40
1
 10
502.947908
 20
0.949259
 30
0.0
 10
502.947908
 20
-1.049524
 30
0.0
 10
502.474198
 20
-2.932821
 30
0.0
 10
501.633006
 20
-4.603661
 30
0.0
  0
LWPOLYLINE
  5
219
100
AcDbEntity
  8
0
 62
1
100
AcDbPolyline
 90
2
 70
0
 10
477.390111
 20
160.633524
 30
0.0
 10
477.390111
 20
160.633524
 30
0.0
  0
SPLINE
  5
21a
100
AcDbEntity
  8
0
 62
1
100
AcDbSpline
 70
8
 71
3
 72
8
 73
4
 74
0
 40
0
 40
0
 40
0
 40
0
 40
1
 40
1
 40
1
 40
1
 10
479.566954
 20
-4.603661
 30
0.0
 10
478.725282
 20
-2.932398
 30
0.0
 10
478.240989
 20
-1.050145
 30
0.0
 10
478.240989
 20
0.949259
 30
0.0
  0
LWPOLYLINE
  5
21b
100
AcDbEntity
  8
0
 62
1
100
AcDbPolyline
 90
2
 70
0
 10
501.633006
 20
-4.603661
 30
0.0
 10
479.566954
 20
-4.603661
 30
0.0
  0
SPLINE
  5
21c
100
AcDbEntity
  8
0
 62
7
100
AcDbSpline
 70
8
 71
3
 72
8
 73
4
 74
0
 40
0
 40
0
 40
0
 40
0
 40
1
 40
1
 40
1
 40
1
 10
474.922276
 20
0.887198
 30
0.0
 10
474.922276
 20
-7.929989
 30
0.0
 10
482.062233
 20
-15.069929
 30
0.0
 10
490.879450
 20
-15.069929
 30
0.0
  0
SPLINE
  5
21d
100
AcDbEntity
  8
0
 62
7
100
AcDbSpline
 70
8
 71
3
 72
8
 73
4
 74
0
 40
0
 40
0
 40
0
 40
0
 40
1
 40
1
 40
1
 40
1
 10
490.879450
 20
-15.069929
 30
0.0
 10
499.696640
 20
-15.069929
 30
0.0
 10
506.845594
 20
-7.929989
 30
0.0
 10
506.845594
 20
0.887198
 30
0.0
  0
SPLINE
  5
21e
100
AcDbEntity
  8
0
 62
7
100
AcDbSpline
 70
8
 71
3
 72
8
 73
4
 74
0
 40
0
 40
0
 40
0
 40
0
 40
1
 40
1
 40
1
 40
1
 10
506.845594
 20
0.887198
 30
0.0
 10
506.845594
 20
9.704413
 30
0.0
 10
499.696640
 20
16.853356
 30
0.0
 10
490.879450
 20
16.853356
 30
0.0
  0
SPLINE
  5
21f
100
AcDbEntity
  8
0
 62
7
100
AcDbSpline
 70
8
 71
3
 72
8
 73
4
 74
0
 40
0
 40
0
 40
0
 40
0
 40
1
 40
1
 40
1
 40
1
 10
490.879450
 20
16.853356
 30
0.0
 10
482.062233
 20
16.853356
 30
0.0
 10
474.922276
 20
9.704413
 30
0.0
 10
474.922276
 20
0.887198
 30
0.0
  0
LWPOLYLINE
  5
220
100
AcDbEntity
  8
0
 62
1
100
AcDbPolyline
 90
2
 70
0
 10
478.240989
 20
0.949259
 30
0.0
 10
478.240989
 20
0.949259
 30
0.0
  0
LWPOLYLINE
  5
221
100
AcDbEntity
  8
0
 62
7
100
AcDbPolyline
 90
2
 70
0
 10
474.922276
 20
0.887198
 30
0.0
 10
474.922276
 20
0.887198
 30
0.0
  0
SPLINE
  5
222
100
AcDbEntity
  8
0
 62
7
100
AcDbSpline
 70
8
 71
3
 72
8
 73
4
 74
0
 40
0
 40
0
 40
0
 40
0
 40
1
 40
1
 40
1
 40
1
 10
492.481825
 20
56.493781
 30
0.0
 10
492.481825
 20
57.853330
 30
0.0
 10
493.439306
 20
58.950356
 30
0.0
 10
494.637797
 20
58.950356
 30
0.0
  0
LWPOLYLINE
  5
223
100
AcDbEntity
  8
0
 62
7
100
AcDbPolyline
 90
3
 70
0
 10
473.946206
 20
54.989537
 30
0.0
 10
492.481825
 20
54.989537
 30
0.0
 10
492.481825
 20
56.493781
 30
0.0
  0
SPLINE
  5
224
100
AcDbEntity
  8
0
 62
7
100
AcDbSpline
 70
8
 71
3
 72
8
 73
4
 74
0
 40
0
 40
0
 40
0
 40
0
 40
1
 40
1
 40
1
 40
1
 10
489.085692
 20
81.459639
 30
0.0
 10
480.696284
 20
81.459639
 30
0.0
 10
473.946206
 20
73.802329
 30
0.0
 10
473.946206
 20
64.285457
 30
0.0
  0
LWPOLYLINE
  5
225
100
AcDbEntity
  8
0
 62
7
100
AcDbPolyline
 90
7
 70
0
 10
494.637797
 20
58.950356
 30
0.0
 10
500.762284
 20
58.950356
 30
0.0
 10
500.762284
 20
59.069341
 30
0.0
 10
507.821664
 20
70.183365
 30
0.0
 10
500.762284
 20
81.297276
 30
0.0
 10
500.762284
 20
81.459639
 30
0.0
 10
489.085692
 20
81.459639
 30
0.0
  0
SPLINE
  5
226
100
AcDbEntity
  8
0
 62
1
100
AcDbSpline
 70
8
 71
3
 72
8
 73
4
 74
0
 40
0
 40
0
 40
0
 40
0
 40
1
 40
1
 40
1
 40
1
 10
476.340489
 20
66.572134
 30
0.0
 10
476.340489
 20
73.401263
 30
0.0
 10
481.872186
 20
78.938943
 30
0.0
 10
488.693948
 20
78.938943
 30
0.0
  0
SPLINE
  5
227
100
AcDbEntity
  8
0
 62
1
100
AcDbSpline
 70
8
 71
3
 72
8
 73
4
 74
0
 40
0
 40
0
 40
0
 40
0
 40
1
 40
1
 40
1
 40
1
 10
488.693948
 20
78.938943
 30
0.0
 10
495.515719
 20
78.938943
 30
0.0
 10
501.047391
 20
73.401291
 30
0.0
 10
501.047391
 20
66.572134
 30
0.0
  0
SPLINE
  5
228
100
AcDbEntity
  8
0
 62
1
100
AcDbSpline
 70
8
 71
3
 72
8
 73
4
 74
0
 40
0
 40
0
 40
0
 40
0
 40
1
 40
1
 40
1
 40
1
 10
501.047391
 20
66.572134
 30
0.0
 10
501.047391
 20
64.573352
 30
0.0
 10
500.573681
 20
62.690055
 30
0.0
 10
499.732486
 20
61.019214
 30
0.0
  0
LWPOLYLINE
  5
229
100
AcDbEntity
  8
0
 62
7
100
AcDbPolyline
 90
3
 70
0
 10
473.946206
 20
64.285457
 30
0.0
 10
473.946206
 20
54.989537
 30
0.0
 10
473.946206
 20
54.989537
 30
0.0
  0
SPLINE
  5
22a
100
AcDbEntity
  8
0
 62
1
100
AcDbSpline
 70
8
 71
3
 72
8
 73
4
 74
0
 40
0
 40
0
 40
0
 40
0
 40
1
 40
1
 40
1
 40
1
 10
477.666454
 20
61.019214
 30
0.0
 10
476.824782
 20
62.690478
 30
0.0
 10
476.340489
 20
64.572731
 30
0.0
 10
476.340489
 20
66.572134
 30
0.0
  0
LWPOLYLINE
  5
22b
100
AcDbEntity
  8
0
 62
1
100
AcDbPolyline
 90
2
 70
0
 10
499.732486
 20
61.019214
 30
0.0
 10
477.666454
 20
61.019214
 30
0.0
  0
SPLINE
  5
22c
100
AcDbEntity
  8
0
 62
1
100
AcDbSpline
 70
8
 71
3
 72
8
 73
4
 74
0
 40
0
 40
0
 40
0
 40
0
 40
1
 40
1
 40
1
 40
1
 10
480.720479
 20
97.008841
 30
0.0
 10
480.720479
 20
103.837970
 30
0.0
 10
486.252176
 20
109.375650
 30
0.0
 10
493.073938
 20
109.375650
 30
0.0
  0
SPLINE
  5
22d
100
AcDbEntity
  8
0
 62
1
100
AcDbSpline
 70
8
 71
3
 72
8
 73
4
 74
0
 40
0
 40
0
 40
0
 40
0
 40
1
 40
1
 40
1
 40
1
 10
493.073938
 20
109.375650
 30
0.0
 10
499.895709
 20
109.375650
 30
0.0
 10
505.427381
 20
103.837998
 30
0.0
 10
505.427381
 20
97.008841
 30
0.0
  0
SPLINE
  5
22e
100
AcDbEntity
  8
0
 62
1
100
AcDbSpline
 70
8
 71
3
 72
8
 73
4
 74
0
 40
0
 40
0
 40
0
 40
0
 40
1
 40
1
 40
1
 40
1
 10
505.427381
 20
97.008841
 30
0.0
 10
505.427381
 20
95.010059
 30
0.0
 10
504.953671
 20
93.126762
 30
0.0
 10
504.112476
 20
91.455921
 30
0.0
  0
LWPOLYLINE
  5
22f
100
AcDbEntity
  8
0
 62
1
100
AcDbPolyline
 90
2
 70
0
 10
476.340489
 20
66.572134
 30
0.0
 10
476.340489
 20
66.572134
 30
0.0
  0
SPLINE
  5
230
100
AcDbEntity
  8
0
 62
1
100
AcDbSpline
 70
8
 71
3
 72
8
 73
4
 74
0
 40
0
 40
0
 40
0
 40
0
 40
1
 40
1
 40
1
 40
1
 10
482.046444
 20
91.455921
 30
0.0
 10
481.204772
 20
93.127185
 30
0.0
 10
480.720479
 20
95.009438
 30
0.0
 10
480.720479
 20
97.008841
 30
0.0
  0
LWPOLYLINE
  5
231
100
AcDbEntity
  8
0
 62
1
100
AcDbPolyline
 90
2
 70
0
 10
504.112476
 20
91.455921
 30
0.0
 10
482.046444
 20
91.455921
 30
0.0
  0
LWPOLYLINE
  5
232
100
AcDbEntity
  8
0
 62
1
100
AcDbPolyline
 90
2
 70
0
 10
480.720479
 20
97.008841
 30
0.0
 10
480.720479
 20
97.008841
 30
0.0
  0
SPLINE
  5
233
100
AcDbEntity
  8
0
 62
7
100
AcDbSpline
 70
8
 71
3
 72
8
 73
4
 74
0
 40
0
 40
0
 40
0
 40
0
 40
1
 40
1
 40
1
 40
1
 10
489.286045
 20
86.930488
 30
0.0
 10
489.286045
 20
88.290037
 30
0.0
 10
488.328564
 20
89.387063
 30
0.0
 10
487.130073
 20
89.387063
 30
0.0
  0
LWPOLYLINE
  5
234
100
AcDbEntity
  8
0
 62
7
100
AcDbPolyline
 90
3
 70
0
 10
507.821664
 20
85.426244
 30
0.0
 10
489.286045
 20
85.426244
 30
0.0
 10
489.286045
 20
86.930488
 30
0.0
  0
SPLINE
  5
235
100
AcDbEntity
  8
0
 62
7
100
AcDbSpline
 70
8
 71
3
 72
8
 73
4
 74
0
 40
0
 40
0
 40
0
 40
0
 40
1
 40
1
 40
1
 40
1
 10
492.682177
 20
111.896346
 30
0.0
 10
501.071586
 20
111.896346
 30
0.0
 10
507.821664
 20
104.239036
 30
0.0
 10
507.821664
 20
94.722164
 30
0.0
  0
LWPOLYLINE
  5
236
100
AcDbEntity
  8
0
 62
7
100
AcDbPolyline
 90
7
 70
0
 10
487.130073
 20
89.387063
 30
0.0
 10
481.005586
 20
89.387063
 30
0.0
 10
481.005586
 20
89.506048
 30
0.0
 10
473.946206
 20
100.620072
 30
0.0
 10
481.005586
 20
111.733983
 30
0.0
 10
481.005586
 20
111.896346
 30
0.0
 10
492.682177
 20
111.896346
 30
0.0
  0
LWPOLYLINE
  5
237
100
AcDbEntity
  8
0
 62
7
100
AcDbPolyline
 90
3
 70
0
 10
507.821664
 20
94.722164
 30
0.0
 10
507.821664
 20
85.426244
 30
0.0
 10
507.821664
 20
85.426244
 30
0.0
  0
SPLINE
  5
238
100
AcDbEntity
  8
0
 62
1
100
AcDbSpline
 70
8
 71
3
 72
8
 73
4
 74
0
 40
0
 40
0
 40
0
 40
0
 40
1
 40
1
 40
1
 40
1
 10
478.530487
 20
29.449272
 30
0.0
 10
478.530487
 20
36.278401
 30
0.0
 10
484.062183
 20
41.816081
 30
0.0
 10
490.883946
 20
41.816081
 30
0.0
  0
SPLINE
  5
239
100
AcDbEntity
  8
0
 62
1
100
AcDbSpline
 70
8
 71
3
 72
8
 73
4
 74
0
 40
0
 40
0
 40
0
 40
0
 40
1
 40
1
 40
1
 40
1
 10
490.883946
 20
41.816081
 30
0.0
 10
497.705709
 20
41.816081
 30
0.0
 10
503.237377
 20
36.278429
 30
0.0
 10
503.237377
 20
29.449272
 30
0.0
  0
SPLINE
  5
23a
100
AcDbEntity
  8
0
 62
1
100
AcDbSpline
 70
8
 71
3
 72
8
 73
4
 74
0
 40
0
 40
0
 40
0
 40
0
 40
1
 40
1
 40
1
 40
1
 10
503.237377
 20
29.449272
 30
0.0
 10
503.237377
 20
27.450490
 30
0.0
 10
502.763667
 20
25.567193
 30
0.0
 10
501.922476
 20
23.896352
 30
0.0
  0
LWPOLYLINE
  5
23b
100
AcDbEntity
  8
0
 62
7
100
AcDbPolyline
 90
7
 70
0
 10
475.789516
 20
20.092872
 30
0.0
 10
505.978353
 20
20.092872
 30
0.0
 10
505.978353
 20
38.360241
 30
0.0
 10
490.888741
 20
52.015055
 30
0.0
 10
475.789516
 20
38.360241
 30
0.0
 10
475.789516
 20
20.092872
 30
0.0
 10
475.789516
 20
20.092872
 30
0.0
  0
SPLINE
  5
23c
100
AcDbEntity
  8
0
 62
1
100
AcDbSpline
 70
8
 71
3
 72
8
 73
4
 74
0
 40
0
 40
0
 40
0
 40
0
 40
1
 40
1
 40
1
 40
1
 10
479.856451
 20
23.896352
 30
0.0
 10
479.014780
 20
25.567616
 30
0.0
 10
478.530487
 20
27.449869
 30
0.0
 10
478.530487
 20
29.449272
 30
0.0
  0
LWPOLYLINE
  5
23d
100
AcDbEntity
  8
0
 62
1
100
AcDbPolyline
 90
2
 70
0
 10
501.922476
 20
23.896352
 30
0.0
 10
479.856451
 20
23.896352
 30
0.0
  0
SPLINE
  5
23e
100
AcDbEntity
  8
0
 62
1
100
AcDbSpline
 70
8
 71
3
 72
8
 73
4
 74
0
 40
0
 40
0
 40
0
 40
0
 40
1
 40
1
 40
1
 40
1
 10
480.521683
 20
-131.375329
 30
0.0
 10
480.521683
 20
-124.546201
 30
0.0
 10
486.053380
 20
-119.008521
 30
0.0
 10
492.875142
 20
-119.008521
 30
0.0
  0
SPLINE
  5
23f
100
AcDbEntity
  8
0
 62
1
100
AcDbSpline
 70
8
 71
3
 72
8
 73
4
 74
0
 40
0
 40
0
 40
0
 40
0
 40
1
 40
1
 40
1
 40
1
 10
492.875142
 20
-119.008521
 30
0.0
 10
499.696905
 20
-119.008521
 30
0.0
 10
505.228602
 20
-124.546201
 30
0.0
 10
505.228602
 20
-131.375329
 30
0.0
  0
SPLINE
  5
240
100
AcDbEntity
  8
0
 62
1
100
AcDbSpline
 70
8
 71
3
 72
8
 73
4
 74
0
 40
0
 40
0
 40
0
 40
0
 40
1
 40
1
 40
1
 40
1
 10
505.228602
 20
-131.375329
 30
0.0
 10
505.228602
 20
-133.374112
 30
0.0
 10
504.754892
 20
-135.257409
 30
0.0
 10
503.913700
 20
-136.928249
 30
0.0
  0
LWPOLYLINE
  5
241
100
AcDbEntity
  8
0
 62
1
100
AcDbPolyline
 90
2
 70
0
 10
478.530487
 20
29.449272
 30
0.0
 10
478.530487
 20
29.449272
 30
0.0
  0
SPLINE
  5
242
100
AcDbEntity
  8
0
 62
1
100
AcDbSpline
 70
8
 71
3
 72
8
 73
4
 74
0
 40
0
 40
0
 40
0
 40
0
 40
1
 40
1
 40
1
 40
1
 10
481.847648
 20
-136.928249
 30
0.0
 10
481.005976
 20
-135.256986
 30
0.0
 10
480.521683
 20
-133.374733
 30
0.0
 10
480.521683
 20
-131.375329
 30
0.0
  0
LWPOLYLINE
  5
243
100
AcDbEntity
  8
0
 62
1
100
AcDbPolyline
 90
2
 70
0
 10
503.913700
 20
-136.928249
 30
0.0
 10
481.847648
 20
-136.928249
 30
0.0
  0
SPLINE
  5
244
100
AcDbEntity
  8
0
 62
7
100
AcDbSpline
 70
8
 71
3
 72
8
 73
4
 74
0
 40
0
 40
0
 40
0
 40
0
 40
1
 40
1
 40
1
 40
1
 10
477.202970
 20
-131.437390
 30
0.0
 10
477.202970
 20
-140.254577
 30
0.0
 10
484.342927
 20
-147.394517
 30
0.0
 10
493.160145
 20
-147.394517
 30
0.0
  0
SPLINE
  5
245
100
AcDbEntity
  8
0
 62
7
100
AcDbSpline
 70
8
 71
3
 72
8
 73
4
 74
0
 40
0
 40
0
 40
0
 40
0
 40
1
 40
1
 40
1
 40
1
 10
493.160145
 20
-147.394517
 30
0.0
 10
501.977334
 20
-147.394517
 30
0.0
 10
509.126288
 20
-140.254577
 30
0.0
 10
509.126288
 20
-131.437390
 30
0.0
  0
SPLINE
  5
246
100
AcDbEntity
  8
0
 62
7
100
AcDbSpline
 70
8
 71
3
 72
8
 73
4
 74
0
 40
0
 40
0
 40
0
 40
0
 40
1
 40
1
 40
1
 40
1
 10
509.126288
 20
-131.437390
 30
0.0
 10
509.126288
 20
-122.620175
 30
0.0
 10
501.977334
 20
-115.471232
 30
0.0
 10
493.160145
 20
-115.471232
 30
0.0
  0
SPLINE
  5
247
100
AcDbEntity
  8
0
 62
7
100
AcDbSpline
 70
8
 71
3
 72
8
 73
4
 74
0
 40
0
 40
0
 40
0
 40
0
 40
1
 40
1
 40
1
 40
1
 10
493.160145
 20
-115.471232
 30
0.0
 10
484.342927
 20
-115.471232
 30
0.0
 10
477.202970
 20
-122.620175
 30
0.0
 10
477.202970
 20
-131.437390
 30
0.0
  0
LWPOLYLINE
  5
248
100
AcDbEntity
  8
0
 62
1
100
AcDbPolyline
 90
2
 70
0
 10
480.521683
 20
-131.375329
 30
0.0
 10
480.521683
 20
-131.375329
 30
0.0
  0
LWPOLYLINE
  5
249
100
AcDbEntity
  8
0
 62
7
100
AcDbPolyline
 90
2
 70
0
 10
477.202970
 20
-131.437390
 30
0.0
 10
477.202970
 20
-131.437390
 30
0.0
  0
SPLINE
  5
24a
100
AcDbEntity
  8
0
 62
7
100
AcDbSpline
 70
8
 71
3
 72
8
 73
4
 74
0
 40
0
 40
0
 40
0
 40
0
 40
1
 40
1
 40
1
 40
1
 10
494.762519
 20
-75.830807
 30
0.0
 10
494.762519
 20
-74.471258
 30
0.0
 10
495.720000
 20
-73.374232
 30
0.0
 10
496.918491
 20
-73.374232
 30
0.0
  0
LWPOLYLINE
  5
24b
100
AcDbEntity
  8
0
 62
7
100
AcDbPolyline
 90
3
 70
0
 10
476.226900
 20
-77.335051
 30
0.0
 10
494.762519
 20
-77.335051
 30
0.0
 10
494.762519
 20
-75.830807
 30
0.0
  0
SPLINE
  5
24c
100
AcDbEntity
  8
0
 62
7
100
AcDbSpline
 70
8
 71
3
 72
8
 73
4
 74
0
 40
0
 40
0
 40
0
 40
0
 40
1
 40
1
 40
1
 40
1
 10
491.366387
 20
-50.864949
 30
0.0
 10
482.976978
 20
-50.864949
 30
0.0
 10
476.226900
 20
-58.522259
 30
0.0
 10
476.226900
 20
-68.039131
 30
0.0
  0
LWPOLYLINE
  5
24d
100
AcDbEntity
  8
0
 62
7
100
AcDbPolyline
 90
7
 70
0
 10
496.918491
 20
-73.374232
 30
0.0
 10
503.042978
 20
-73.374232
 30
0.0
 10
503.042978
 20
-73.255247
 30
0.0
 10
510.102358
 20
-62.141223
 30
0.0
 10
503.042978
 20
-51.027312
 30
0.0
 10
503.042978
 20
-50.864949
 30
0.0
 10
491.366387
 20
-50.864949
 30
0.0
  0
SPLINE
  5
24e
100
AcDbEntity
  8
0
 62
1
100
AcDbSpline
 70
8
 71
3
 72
8
 73
4
 74
0
 40
0
 40
0
 40
0
 40
0
 40
1
 40
1
 40
1
 40
1
 10
478.621183
 20
-65.752454
 30
0.0
 10
478.621183
 20
-58.923325
 30
0.0
 10
484.152880
 20
-53.385645
 30
0.0
 10
490.974642
 20
-53.385645
 30
0.0
  0
SPLINE
  5
24f
100
AcDbEntity
  8
0
 62
1
100
AcDbSpline
 70
8
 71
3
 72
8
 73
4
 74
0
 40
0
 40
0
 40
0
 40
0
 40
1
 40
1
 40
1
 40
1
 10
490.974642
 20
-53.385645
 30
0.0
 10
497.796414
 20
-53.385645
 30
0.0
 10
503.328085
 20
-58.923297
 30
0.0
 10
503.328085
 20
-65.752454
 30
0.0
  0
SPLINE
  5
250
100
AcDbEntity
  8
0
 62
1
100
AcDbSpline
 70
8
 71
3
 72
8
 73
4
 74
0
 40
0
 40
0
 40
0
 40
0
 40
1
 40
1
 40
1
 40
1
 10
503.328085
 20
-65.752454
 30
0.0
 10
503.328085
 20
-67.751236
 30
0.0
 10
502.854375
 20
-69.634533
 30
0.0
 10
502.013180
 20
-71.305374
 30
0.0
  0
LWPOLYLINE
  5
251
100
AcDbEntity
  8
0
 62
7
100
AcDbPolyline
 90
3
 70
0
 10
476.226900
 20
-68.039131
 30
0.0
 10
476.226900
 20
-77.335051
 30
0.0
 10
476.226900
 20
-77.335051
 30
0.0
  0
SPLINE
  5
252
100
AcDbEntity
  8
0
 62
1
100
AcDbSpline
 70
8
 71
3
 72
8
 73
4
 74
0
 40
0
 40
0
 40
0
 40
0
 40
1
 40
1
 40
1
 40
1
 10
479.947148
 20
-71.305374
 30
0.0
 10
479.105476
 20
-69.634110
 30
0.0
 10
478.621183
 20
-67.751857
 30
0.0
 10
478.621183
 20
-65.752454
 30
0.0
  0
LWPOLYLINE
  5
253
100
AcDbEntity
  8
0
 62
1
100
AcDbPolyline
 90
2
 70
0
 10
502.013180
 20
-71.305374
 30
0.0
 10
479.947148
 20
-71.305374
 30
0.0
  0
SPLINE
  5
254
100
AcDbEntity
  8
0
 62
1
100
AcDbSpline
 70
8
 71
3
 72
8
 73
4
 74
0
 40
0
 40
0
 40
0
 40
0
 40
1
 40
1
 40
1
 40
1
 10
483.001173
 20
-35.315747
 30
0.0
 10
483.001173
 20
-28.486618
 30
0.0
 10
488.532870
 20
-22.948938
 30
0.0
 10
495.354633
 20
-22.948938
 30
0.0
  0
SPLINE
  5
255
100
AcDbEntity
  8
0
 62
1
100
AcDbSpline
 70
8
 71
3
 72
8
 73
4
 74
0
 40
0
 40
0
 40
0
 40
0
 40
1
 40
1
 40
1
 40
1
 10
495.354633
 20
-22.948938
 30
0.0
 10
502.176404
 20
-22.948938
 30
0.0
 10
507.708075
 20
-28.486590
 30
0.0
 10
507.708075
 20
-35.315747
 30
0.0
  0
SPLINE
  5
256
100
AcDbEntity
  8
0
 62
1
100
AcDbSpline
 70
8
 71
3
 72
8
 73
4
 74
0
 40
0
 40
0
 40
0
 40
0
 40
1
 40
1
 40
1
 40
1
 10
507.708075
 20
-35.315747
 30
0.0
 10
507.708075
 20
-37.314529
 30
0.0
 10
507.234365
 20
-39.197826
 30
0.0
 10
506.393171
 20
-40.868666
 30
0.0
  0
LWPOLYLINE
  5
257
100
AcDbEntity
  8
0
 62
1
100
AcDbPolyline
 90
2
 70
0
 10
478.621183
 20
-65.752454
 30
0.0
 10
478.621183
 20
-65.752454
 30
0.0
  0
SPLINE
  5
258
100
AcDbEntity
  8
0
 62
1
100
AcDbSpline
 70
8
 71
3
 72
8
 73
4
 74
0
 40
0
 40
0
 40
0
 40
0
 40
1
 40
1
 40
1
 40
1
 10
484.327138
 20
-40.868666
 30
0.0
 10
483.485467
 20
-39.197403
 30
0.0
 10
483.001173
 20
-37.315150
 30
0.0
 10
483.001173
 20
-35.315747
 30
0.0
  0
LWPOLYLINE
  5
259
100
AcDbEntity
  8
0
 62
1
100
AcDbPolyline
 90
2
 70
0
 10
506.393171
 20
-40.868666
 30
0.0
 10
484.327138
 20
-40.868666
 30
0.0
  0
LWPOLYLINE
  5
25a
100
AcDbEntity
  8
0
 62
1
100
AcDbPolyline
 90
2
 70
0
 10
483.001173
 20
-35.315747
 30
0.0
 10
483.001173
 20
-35.315747
 30
0.0
  0
SPLINE
  5
25b
100
AcDbEntity
  8
0
 62
7
100
AcDbSpline
 70
8
 71
3
 72
8
 73
4
 74
0
 40
0
 40
0
 40
0
 40
0
 40
1
 40
1
 40
1
 40
1
 10
491.566739
 20
-45.394100
 30
0.0
 10
491.566739
 20
-44.034551
 30
0.0
 10
490.609258
 20
-42.937525
 30
0.0
 10
489.410767
 20
-42.937525
 30
0.0
  0
LWPOLYLINE
  5
25c
100
AcDbEntity
  8
0
 62
7
100
AcDbPolyline
 90
3
 70
0
 10
510.102358
 20
-46.898344
 30
0.0
 10
491.566739
 20
-46.898344
 30
0.0
 10
491.566739
 20
-45.394100
 30
0.0
  0
SPLINE
  5
25d
100
AcDbEntity
  8
0
 62
7
100
AcDbSpline
 70
8
 71
3
 72
8
 73
4
 74
0
 40
0
 40
0
 40
0
 40
0
 40
1
 40
1
 40
1
 40
1
 10
494.962871
 20
-20.428242
 30
0.0
 10
503.352280
 20
-20.428242
 30
0.0
 10
510.102358
 20
-28.085552
 30
0.0
 10
510.102358
 20
-37.602424
 30
0.0
  0
LWPOLYLINE
  5
25e
100
AcDbEntity
  8
0
 62
7
100
AcDbPolyline
 90
7
 70
0
 10
489.410767
 20
-42.937525
 30
0.0
 10
483.286280
 20
-42.937525
 30
0.0
 10
483.286280
 20
-42.818540
 30
0.0
 10
476.226900
 20
-31.704516
 30
0.0
 10
483.286280
 20
-20.590605
 30
0.0
 10
483.286280
 20
-20.428242
 30
0.0
 10
494.962871
 20
-20.428242
 30
0.0
  0
LWPOLYLINE
  5
25f
100
AcDbEntity
  8
0
 62
7
100
AcDbPolyline
 90
3
 70
0
 10
510.102358
 20
-37.602424
 30
0.0
 10
510.102358
 20
-46.898344
 30
0.0
 10
510.102358
 20
-46.898344
 30
0.0
  0
SPLINE
  5
260
100
AcDbEntity
  8
0
 62
1
100
AcDbSpline
 70
8
 71
3
 72
8
 73
4
 74
0
 40
0
 40
0
 40
0
 40
0
 40
1
 40
1
 40
1
 40
1
 10
480.811181
 20
-102.875316
 30
0.0
 10
480.811181
 20
-96.046187
 30
0.0
 10
486.342878
 20
-90.508507
 30
0.0
 10
493.164640
 20
-90.508507
 30
0.0
  0
SPLINE
  5
261
100
AcDbEntity
  8
0
 62
1
100
AcDbSpline
 70
8
 71
3
 72
8
 73
4
 74
0
 40
0
 40
0
 40
0
 40
0
 40
1
 40
1
 40
1
 40
1
 10
493.164640
 20
-90.508507
 30
0.0
 10
499.986403
 20
-90.508507
 30
0.0
 10
505.518071
 20
-96.046159
 30
0.0
 10
505.518071
 20
-102.875316
 30
0.0
  0
SPLINE
  5
262
100
AcDbEntity
  8
0
 62
1
100
AcDbSpline
 70
8
 71
3
 72
8
 73
4
 74
0
 40
0
 40
0
 40
0
 40
0
 40
1
 40
1
 40
1
 40
1
 10
505.518071
 20
-102.875316
 30
0.0
 10
505.518071
 20
-104.874098
 30
0.0
 10
505.044361
 20
-106.757395
 30
0.0
 10
504.203170
 20
-108.428236
 30
0.0
  0
LWPOLYLINE
  5
263
100
AcDbEntity
  8
0
 62
7
100
AcDbPolyline
 90
7
 70
0
 10
478.070211
 20
-112.231716
 30
0.0
 10
508.259048
 20
-112.231716
 30
0.0
 10
508.259048
 20
-93.964347
 30
0.0
 10
493.169435
 20
-80.309532
 30
0.0
 10
478.070211
 20
-93.964347
 30
0.0
 10
478.070211
 20
-112.231716
 30
0.0
 10
478.070211
 20
-112.231716
 30
0.0
  0
SPLINE
  5
264
100
AcDbEntity
  8
0
 62
1
100
AcDbSpline
 70
8
 71
3
 72
8
 73
4
 74
0
 40
0
 40
0
 40
0
 40
0
 40
1
 40
1
 40
1
 40
1
 10
482.137146
 20
-108.428236
 30
0.0
 10
481.295474
 20
-106.756972
 30
0.0
 10
480.811181
 20
-104.874719
 30
0.0
 10
480.811181
 20
-102.875316
 30
0.0
  0
LWPOLYLINE
  5
265
100
AcDbEntity
  8
0
 62
1
100
AcDbPolyline
 90
2
 70
0
 10
504.203170
 20
-108.428236
 30
0.0
 10
482.137146
 20
-108.428236
 30
0.0
  0
SPLINE
  5
266
100
AcDbEntity
  8
0
 62
1
100
AcDbSpline
 70
8
 71
3
 72
8
 73
4
 74
0
 40
0
 40
0
 40
0
 40
0
 40
1
 40
1
 40
1
 40
1
 10
315.746328
 20
-105.568488
 30
0.0
 10
322.575456
 20
-105.568488
 30
0.0
 10
328.113136
 20
-111.100184
 30
0.0
 10
328.113136
 20
-117.921947
 30
0.0
  0
SPLINE
  5
267
100
AcDbEntity
  8
0
 62
1
100
AcDbSpline
 70
8
 71
3
 72
8
 73
4
 74
0
 40
0
 40
0
 40
0
 40
0
 40
1
 40
1
 40
1
 40
1
 10
328.113136
 20
-117.921947
 30
0.0
 10
328.113136
 20
-124.743710
 30
0.0
 10
322.575456
 20
-130.275406
 30
0.0
 10
315.746328
 20
-130.275406
 30
0.0
  0
SPLINE
  5
268
100
AcDbEntity
  8
0
 62
1
100
AcDbSpline
 70
8
 71
3
 72
8
 73
4
 74
0
 40
0
 40
0
 40
0
 40
0
 40
1
 40
1
 40
1
 40
1
 10
315.746328
 20
-130.275406
 30
0.0
 10
313.747545
 20
-130.275406
 30
0.0
 10
311.864248
 20
-129.801696
 30
0.0
 10
310.193408
 20
-128.960505
 30
0.0
  0
LWPOLYLINE
  5
269
100
AcDbEntity
  8
0
 62
1
100
AcDbPolyline
 90
2
 70
0
 10
480.811181
 20
-102.875316
 30
0.0
 10
480.811181
 20
-102.875316
 30
0.0
  0
SPLINE
  5
26a
100
AcDbEntity
  8
0
 62
1
100
AcDbSpline
 70
8
 71
3
 72
8
 73
4
 74
0
 40
0
 40
0
 40
0
 40
0
 40
1
 40
1
 40
1
 40
1
 10
310.193408
 20
-106.894452
 30
0.0
 10
311.864671
 20
-106.052781
 30
0.0
 10
313.746924
 20
-105.568488
 30
0.0
 10
315.746328
 20
-105.568488
 30
0.0
  0
LWPOLYLINE
  5
26b
100
AcDbEntity
  8
0
 62
1
100
AcDbPolyline
 90
2
 70
0
 10
310.193408
 20
-128.960505
 30
0.0
 10
310.193408
 20
-106.894452
 30
0.0
  0
SPLINE
  5
26c
100
AcDbEntity
  8
0
 62
7
100
AcDbSpline
 70
8
 71
3
 72
8
 73
4
 74
0
 40
0
 40
0
 40
0
 40
0
 40
1
 40
1
 40
1
 40
1
 10
315.684267
 20
-102.249774
 30
0.0
 10
306.867080
 20
-102.249774
 30
0.0
 10
299.727140
 20
-109.389731
 30
0.0
 10
299.727140
 20
-118.206949
 30
0.0
  0
SPLINE
  5
26d
100
AcDbEntity
  8
0
 62
7
100
AcDbSpline
 70
8
 71
3
 72
8
 73
4
 74
0
 40
0
 40
0
 40
0
 40
0
 40
1
 40
1
 40
1
 40
1
 10
299.727140
 20
-118.206949
 30
0.0
 10
299.727140
 20
-127.024139
 30
0.0
 10
306.867080
 20
-134.173093
 30
0.0
 10
315.684267
 20
-134.173093
 30
0.0
  0
SPLINE
  5
26e
100
AcDbEntity
  8
0
 62
7
100
AcDbSpline
 70
8
 71
3
 72
8
 73
4
 74
0
 40
0
 40
0
 40
0
 40
0
 40
1
 40
1
 40
1
 40
1
 10
315.684267
 20
-134.173093
 30
0.0
 10
324.501482
 20
-134.173093
 30
0.0
 10
331.650425
 20
-127.024139
 30
0.0
 10
331.650425
 20
-118.206949
 30
0.0
  0
SPLINE
  5
26f
100
AcDbEntity
  8
0
 62
7
100
AcDbSpline
 70
8
 71
3
 72
8
 73
4
 74
0
 40
0
 40
0
 40
0
 40
0
 40
1
 40
1
 40
1
 40
1
 10
331.650425
 20
-118.206949
 30
0.0
 10
331.650425
 20
-109.389731
 30
0.0
 10
324.501482
 20
-102.249774
 30
0.0
 10
315.684267
 20
-102.249774
 30
0.0
  0
LWPOLYLINE
  5
270
100
AcDbEntity
  8
0
 62
1
100
AcDbPolyline
 90
2
 70
0
 10
315.746328
 20
-105.568488
 30
0.0
 10
315.746328
 20
-105.568488
 30
0.0
  0
LWPOLYLINE
  5
271
100
AcDbEntity
  8
0
 62
7
100
AcDbPolyline
 90
2
 70
0
 10
315.684267
 20
-102.249774
 30
0.0
 10
315.684267
 20
-102.249774
 30
0.0
  0
SPLINE
  5
272
100
AcDbEntity
  8
0
 62
7
100
AcDbSpline
 70
8
 71
3
 72
8
 73
4
 74
0
 40
0
 40
0
 40
0
 40
0
 40
1
 40
1
 40
1
 40
1
 10
371.290850
 20
-119.809324
 30
0.0
 10
372.650399
 20
-119.809324
 30
0.0
 10
373.747425
 20
-120.766805
 30
0.0
 10
373.747425
 20
-121.965295
 30
0.0
  0
LWPOLYLINE
  5
273
100
AcDbEntity
  8
0
 62
7
100
AcDbPolyline
 90
3
 70
0
 10
369.786606
 20
-101.273705
 30
0.0
 10
369.786606
 20
-119.809324
 30
0.0
 10
371.290850
 20
-119.809324
 30
0.0
  0
SPLINE
  5
274
100
AcDbEntity
  8
0
 62
7
100
AcDbSpline
 70
8
 71
3
 72
8
 73
4
 74
0
 40
0
 40
0
 40
0
 40
0
 40
1
 40
1
 40
1
 40
1
 10
396.256708
 20
-116.413191
 30
0.0
 10
396.256708
 20
-108.023783
 30
0.0
 10
388.599398
 20
-101.273705
 30
0.0
 10
379.082526
 20
-101.273705
 30
0.0
  0
LWPOLYLINE
  5
275
100
AcDbEntity
  8
0
 62
7
100
AcDbPolyline
 90
7
 70
0
 10
373.747425
 20
-121.965295
 30
0.0
 10
373.747425
 20
-128.089783
 30
0.0
 10
373.866410
 20
-128.089783
 30
0.0
 10
384.980434
 20
-135.149163
 30
0.0
 10
396.094345
 20
-128.089783
 30
0.0
 10
396.256708
 20
-128.089783
 30
0.0
 10
396.256708
 20
-116.413191
 30
0.0
  0
SPLINE
  5
276
100
AcDbEntity
  8
0
 62
1
100
AcDbSpline
 70
8
 71
3
 72
8
 73
4
 74
0
 40
0
 40
0
 40
0
 40
0
 40
1
 40
1
 40
1
 40
1
 10
381.369203
 20
-103.667988
 30
0.0
 10
388.198332
 20
-103.667988
 30
0.0
 10
393.736012
 20
-109.199684
 30
0.0
 10
393.736012
 20
-116.021447
 30
0.0
  0
SPLINE
  5
277
100
AcDbEntity
  8
0
 62
1
100
AcDbSpline
 70
8
 71
3
 72
8
 73
4
 74
0
 40
0
 40
0
 40
0
 40
0
 40
1
 40
1
 40
1
 40
1
 10
393.736012
 20
-116.021447
 30
0.0
 10
393.736012
 20
-122.843218
 30
0.0
 10
388.198360
 20
-128.374889
 30
0.0
 10
381.369203
 20
-128.374889
 30
0.0
  0
SPLINE
  5
278
100
AcDbEntity
  8
0
 62
1
100
AcDbSpline
 70
8
 71
3
 72
8
 73
4
 74
0
 40
0
 40
0
 40
0
 40
0
 40
1
 40
1
 40
1
 40
1
 10
381.369203
 20
-128.374889
 30
0.0
 10
379.370421
 20
-128.374889
 30
0.0
 10
377.487124
 20
-127.901179
 30
0.0
 10
375.816283
 20
-127.059985
 30
0.0
  0
LWPOLYLINE
  5
279
100
AcDbEntity
  8
0
 62
7
100
AcDbPolyline
 90
3
 70
0
 10
379.082526
 20
-101.273705
 30
0.0
 10
369.786606
 20
-101.273705
 30
0.0
 10
369.786606
 20
-101.273705
 30
0.0
  0
SPLINE
  5
27a
100
AcDbEntity
  8
0
 62
1
100
AcDbSpline
 70
8
 71
3
 72
8
 73
4
 74
0
 40
0
 40
0
 40
0
 40
0
 40
1
 40
1
 40
1
 40
1
 10
375.816283
 20
-104.993952
 30
0.0
 10
377.487547
 20
-104.152281
 30
0.0
 10
379.369800
 20
-103.667988
 30
0.0
 10
381.369203
 20
-103.667988
 30
0.0
  0
LWPOLYLINE
  5
27b
100
AcDbEntity
  8
0
 62
1
100
AcDbPolyline
 90
2
 70
0
 10
375.816283
 20
-127.059985
 30
0.0
 10
375.816283
 20
-104.993952
 30
0.0
  0
SPLINE
  5
27c
100
AcDbEntity
  8
0
 62
1
100
AcDbSpline
 70
8
 71
3
 72
8
 73
4
 74
0
 40
0
 40
0
 40
0
 40
0
 40
1
 40
1
 40
1
 40
1
 10
411.805910
 20
-108.047978
 30
0.0
 10
418.635039
 20
-108.047978
 30
0.0
 10
424.172719
 20
-113.579674
 30
0.0
 10
424.172719
 20
-120.401437
 30
0.0
  0
SPLINE
  5
27d
100
AcDbEntity
  8
0
 62
1
100
AcDbSpline
 70
8
 71
3
 72
8
 73
4
 74
0
 40
0
 40
0
 40
0
 40
0
 40
1
 40
1
 40
1
 40
1
 10
424.172719
 20
-120.401437
 30
0.0
 10
424.172719
 20
-127.223208
 30
0.0
 10
418.635067
 20
-132.754879
 30
0.0
 10
411.805910
 20
-132.754879
 30
0.0
  0
SPLINE
  5
27e
100
AcDbEntity
  8
0
 62
1
100
AcDbSpline
 70
8
 71
3
 72
8
 73
4
 74
0
 40
0
 40
0
 40
0
 40
0
 40
1
 40
1
 40
1
 40
1
 10
411.805910
 20
-132.754879
 30
0.0
 10
409.807128
 20
-132.754879
 30
0.0
 10
407.923831
 20
-132.281169
 30
0.0
 10
406.252990
 20
-131.439975
 30
0.0
  0
LWPOLYLINE
  5
27f
100
AcDbEntity
  8
0
 62
1
100
AcDbPolyline
 90
2
 70
0
 10
381.369203
 20
-103.667988
 30
0.0
 10
381.369203
 20
-103.667988
 30
0.0
  0
SPLINE
  5
280
100
AcDbEntity
  8
0
 62
1
100
AcDbSpline
 70
8
 71
3
 72
8
 73
4
 74
0
 40
0
 40
0
 40
0
 40
0
 40
1
 40
1
 40
1
 40
1
 10
406.252990
 20
-109.373942
 30
0.0
 10
407.924254
 20
-108.532271
 30
0.0
 10
409.806507
 20
-108.047978
 30
0.0
 10
411.805910
 20
-108.047978
 30
0.0
  0
LWPOLYLINE
  5
281
100
AcDbEntity
  8
0
 62
1
100
AcDbPolyline
 90
2
 70
0
 10
406.252990
 20
-131.439975
 30
0.0
 10
406.252990
 20
-109.373942
 30
0.0
  0
LWPOLYLINE
  5
282
100
AcDbEntity
  8
0
 62
1
100
AcDbPolyline
 90
2
 70
0
 10
411.805910
 20
-108.047978
 30
0.0
 10
411.805910
 20
-108.047978
 30
0.0
  0
SPLINE
  5
283
100
AcDbEntity
  8
0
 62
7
100
AcDbSpline
 70
8
 71
3
 72
8
 73
4
 74
0
 40
0
 40
0
 40
0
 40
0
 40
1
 40
1
 40
1
 40
1
 10
401.727557
 20
-116.613544
 30
0.0
 10
403.087106
 20
-116.613544
 30
0.0
 10
404.184132
 20
-115.656062
 30
0.0
 10
404.184132
 20
-114.457572
 30
0.0
  0
LWPOLYLINE
  5
284
100
AcDbEntity
  8
0
 62
7
100
AcDbPolyline
 90
3
 70
0
 10
400.223313
 20
-135.149163
 30
0.0
 10
400.223313
 20
-116.613544
 30
0.0
 10
401.727557
 20
-116.613544
 30
0.0
  0
SPLINE
  5
285
100
AcDbEntity
  8
0
 62
7
100
AcDbSpline
 70
8
 71
3
 72
8
 73
4
 74
0
 40
0
 40
0
 40
0
 40
0
 40
1
 40
1
 40
1
 40
1
 10
426.693415
 20
-120.009676
 30
0.0
 10
426.693415
 20
-128.399084
 30
0.0
 10
419.036105
 20
-135.149163
 30
0.0
 10
409.519233
 20
-135.149163
 30
0.0
  0
LWPOLYLINE
  5
286
100
AcDbEntity
  8
0
 62
7
100
AcDbPolyline
 90
7
 70
0
 10
404.184132
 20
-114.457572
 30
0.0
 10
404.184132
 20
-108.333084
 30
0.0
 10
404.303117
 20
-108.333084
 30
0.0
 10
415.417141
 20
-101.273705
 30
0.0
 10
426.531052
 20
-108.333084
 30
0.0
 10
426.693415
 20
-108.333084
 30
0.0
 10
426.693415
 20
-120.009676
 30
0.0
  0
LWPOLYLINE
  5
287
100
AcDbEntity
  8
0
 62
7
100
AcDbPolyline
 90
3
 70
0
 10
409.519233
 20
-135.149163
 30
0.0
 10
400.223313
 20
-135.149163
 30
0.0
 10
400.223313
 20
-135.149163
 30
0.0
  0
SPLINE
  5
288
100
AcDbEntity
  8
0
 62
1
100
AcDbSpline
 70
8
 71
3
 72
8
 73
4
 74
0
 40
0
 40
0
 40
0
 40
0
 40
1
 40
1
 40
1
 40
1
 10
344.246341
 20
-105.857986
 30
0.0
 10
351.075470
 20
-105.857986
 30
0.0
 10
356.613150
 20
-111.389682
 30
0.0
 10
356.613150
 20
-118.211445
 30
0.0
  0
SPLINE
  5
289
100
AcDbEntity
  8
0
 62
1
100
AcDbSpline
 70
8
 71
3
 72
8
 73
4
 74
0
 40
0
 40
0
 40
0
 40
0
 40
1
 40
1
 40
1
 40
1
 10
356.613150
 20
-118.211445
 30
0.0
 10
356.613150
 20
-125.033208
 30
0.0
 10
351.075498
 20
-130.564876
 30
0.0
 10
344.246341
 20
-130.564876
 30
0.0
  0
SPLINE
  5
28a
100
AcDbEntity
  8
0
 62
1
100
AcDbSpline
 70
8
 71
3
 72
8
 73
4
 74
0
 40
0
 40
0
 40
0
 40
0
 40
1
 40
1
 40
1
 40
1
 10
344.246341
 20
-130.564876
 30
0.0
 10
342.247559
 20
-130.564876
 30
0.0
 10
340.364262
 20
-130.091166
 30
0.0
 10
338.693421
 20
-129.249974
 30
0.0
  0
LWPOLYLINE
  5
28b
100
AcDbEntity
  8
0
 62
7
100
AcDbPolyline
 90
7
 70
0
 10
334.889941
 20
-103.117015
 30
0.0
 10
334.889941
 20
-133.305852
 30
0.0
 10
353.157310
 20
-133.305852
 30
0.0
 10
366.812124
 20
-118.216240
 30
0.0
 10
353.157310
 20
-103.117015
 30
0.0
 10
334.889941
 20
-103.117015
 30
0.0
 10
334.889941
 20
-103.117015
 30
0.0
  0
SPLINE
  5
28c
100
AcDbEntity
  8
0
 62
1
100
AcDbSpline
 70
8
 71
3
 72
8
 73
4
 74
0
 40
0
 40
0
 40
0
 40
0
 40
1
 40
1
 40
1
 40
1
 10
338.693421
 20
-107.183950
 30
0.0
 10
340.364685
 20
-106.342279
 30
0.0
 10
342.246938
 20
-105.857986
 30
0.0
 10
344.246341
 20
-105.857986
 30
0.0
  0
LWPOLYLINE
  5
28d
100
AcDbEntity
  8
0
 62
1
100
AcDbPolyline
 90
2
 70
0
 10
338.693421
 20
-129.249974
 30
0.0
 10
338.693421
 20
-107.183950
 30
0.0
  0
LWPOLYLINE
  5
28e
100
AcDbEntity
  8
0
 62
1
100
AcDbPolyline
 90
2
 70
0
 10
344.246341
 20
-105.857986
 30
0.0
 10
344.246341
 20
-105.857986
 30
0.0
  0
LWPOLYLINE
  5
28f
100
AcDbEntity
  8
0
 62
7
100
AcDbPolyline
 90
109
 70
0
 10
217.553500
 20
247.100896
 30
0.0
 10
217.553500
 20
244.100873
 30
0.0
 10
237.463488
 20
244.100873
 30
0.0
 10
237.463488
 20
247.100896
 30
0.0
 10
258.982058
 20
247.100896
 30
0.0
 10
258.982058
 20
244.100873
 30
0.0
 10
278.892073
 20
244.100873
 30
0.0
 10
278.892073
 20
247.100896
 30
0.0
 10
300.410654
 20
247.100896
 30
0.0
 10
300.410654
 20
244.100873
 30
0.0
 10
320.320642
 20
244.100873
 30
0.0
 10
320.320642
 20
247.100896
 30
0.0
 10
341.839211
 20
247.100896
 30
0.0
 10
341.839211
 20
244.100873
 30
0.0
 10
361.749227
 20
244.100873
 30
0.0
 10
361.749227
 20
247.100896
 30
0.0
 10
383.267797
 20
247.100896
 30
0.0
 10
383.267797
 20
244.100873
 30
0.0
 10
403.177784
 20
244.100873
 30
0.0
 10
403.177784
 20
247.100896
 30
0.0
 10
424.696382
 20
247.100896
 30
0.0
 10
424.696382
 20
244.100873
 30
0.0
 10
444.606370
 20
244.100873
 30
0.0
 10
444.606370
 20
247.100896
 30
0.0
 10
466.079953
 20
247.100896
 30
0.0
 10
466.079953
 20
223.305893
 30
0.0
 10
463.079931
 20
223.305893
 30
0.0
 10
463.079931
 20
203.395878
 30
0.0
 10
466.079953
 20
203.395878
 30
0.0
 10
466.079953
 20
179.555889
 30
0.0
 10
463.079931
 20
179.555889
 30
0.0
 10
463.079931
 20
159.645873
 30
0.0
 10
466.079953
 20
159.645873
 30
0.0
 10
466.079953
 20
135.805885
 30
0.0
 10
463.079931
 20
135.805885
 30
0.0
 10
463.079931
 20
115.895897
 30
0.0
 10
466.079953
 20
115.895897
 30
0.0
 10
466.079953
 20
92.055881
 30
0.0
 10
463.079931
 20
92.055881
 30
0.0
 10
463.079931
 20
72.145893
 30
0.0
 10
466.079953
 20
72.145893
 30
0.0
 10
466.079953
 20
48.305877
 30
0.0
 10
463.079931
 20
48.305877
 30
0.0
 10
463.079931
 20
28.395889
 30
0.0
 10
466.079953
 20
28.395889
 30
0.0
 10
466.079953
 20
4.555886
 30
0.0
 10
463.079931
 20
4.555886
 30
0.0
 10
463.079931
 20
-15.354129
 30
0.0
 10
466.079953
 20
-15.354129
 30
0.0
 10
466.079953
 20
-39.194118
 30
0.0
 10
463.079931
 20
-39.194118
 30
0.0
 10
463.079931
 20
-59.104105
 30
0.0
 10
466.079953
 20
-59.104105
 30
0.0
 10
466.079953
 20
-82.899108
 30
0.0
 10
444.606370
 20
-82.899108
 30
0.0
 10
444.606370
 20
-79.899085
 30
0.0
 10
424.696382
 20
-79.899085
 30
0.0
 10
424.696382
 20
-82.899108
 30
0.0
 10
403.177784
 20
-82.899108
 30
0.0
 10
403.177784
 20
-79.899085
 30
0.0
 10
383.267797
 20
-79.899085
 30
0.0
 10
383.267797
 20
-82.899108
 30
0.0
 10
361.749227
 20
-82.899108
 30
0.0
 10
361.749227
 20
-79.899085
 30
0.0
 10
341.839211
 20
-79.899085
 30
0.0
 10
341.839211
 20
-82.899108
 30
0.0
 10
320.320642
 20
-82.899108
 30
0.0
 10
320.320642
 20
-79.899085
 30
0.0
 10
300.410654
 20
-79.899085
 30
0.0
 10
300.410654
 20
-82.899108
 30
0.0
 10
278.892073
 20
-82.899108
 30
0.0
 10
278.892073
 20
-79.899085
 30
0.0
 10
258.982058
 20
-79.899085
 30
0.0
 10
258.982058
 20
-82.899108
 30
0.0
 10
237.463488
 20
-82.899108
 30
0.0
 10
237.463488
 20
-79.899085
 30
0.0
 10
217.553500
 20
-79.899085
 30
0.0
 10
217.553500
 20
-82.899108
 30
0.0
 10
196.079917
 20
-82.899108
 30
0.0
 10
196.079917
 20
-59.104105
 30
0.0
 10
199.079939
 20
-59.104105
 30
0.0
 10
199.079939
 20
-39.194118
 30
0.0
 10
196.079917
 20
-39.194118
 30
0.0
 10
196.079917
 20
-15.354129
 30
0.0
 10
199.079939
 20
-15.354129
 30
0.0
 10
199.079939
 20
4.555886
 30
0.0
 10
196.079917
 20
4.555886
 30
0.0
 10
196.079917
 20
28.395889
 30
0.0
 10
199.079939
 20
28.395889
 30
0.0
 10
199.079939
 20
48.305877
 30
0.0
 10
196.079917
 20
48.305877
 30
0.0
 10
196.079917
 20
72.145893
 30
0.0
 10
199.079939
 20
72.145893
 30
0.0
 10
199.079939
 20
92.055881
 30
0.0
 10
196.079917
 20
92.055881
 30
0.0
 10
196.079917
 20
115.895897
 30
0.0
 10
199.079939
 20
115.895897
 30
0.0
 10
199.079939
 20
135.805885
 30
0.0
 10
196.079917
 20
135.805885
 30
0.0
 10
196.079917
 20
159.645873
 30
0.0
 10
199.079939
 20
159.645873
 30
0.0
 10
199.079939
 20
179.555889
 30
0.0
 10
196.079917
 20
179.555889
 30
0.0
 10
196.079917
 20
203.395878
 30
0.0
 10
199.079939
 20
203.395878
 30
0.0
 10
199.079939
 20
223.305893
 30
0.0
 10
196.079917
 20
223.305893
 30
0.0
 10
196.079917
 20
247.100896
 30
0.0
 10
217.553500
 20
247.100896
 30
0.0
  0
LWPOLYLINE
  5
290
100
AcDbEntity
  8
0
 62
7
100
AcDbPolyline
 90
69
 70
0
 10
-67.691830
 20
-88.179641
 30
0.0
 10
-43.986828
 20
-88.179641
 30
0.0
 10
-43.986828
 20
-85.179647
 30
0.0
 10
-23.896828
 20
-85.179647
 30
0.0
 10
-23.896828
 20
-88.179641
 30
0.0
 10
-0.236830
 20
-88.179641
 30
0.0
 10
-0.236830
 20
-85.179647
 30
0.0
 10
19.853171
 20
-85.179647
 30
0.0
 10
19.853171
 20
-88.179641
 30
0.0
 10
43.513172
 20
-88.179641
 30
0.0
 10
43.513172
 20
-85.179647
 30
0.0
 10
63.603164
 20
-85.179647
 30
0.0
 10
63.603164
 20
-88.179641
 30
0.0
 10
87.263179
 20
-88.179641
 30
0.0
 10
87.263179
 20
-85.179647
 30
0.0
 10
107.353168
 20
-85.179647
 30
0.0
 10
107.353168
 20
-88.179641
 30
0.0
 10
131.013183
 20
-88.179641
 30
0.0
 10
131.013183
 20
-85.179647
 30
0.0
 10
151.103172
 20
-85.179647
 30
0.0
 10
151.103172
 20
-88.179641
 30
0.0
 10
174.763159
 20
-88.179641
 30
0.0
 10
174.763159
 20
-85.179647
 30
0.0
 10
194.853173
 20
-85.179647
 30
0.0
 10
194.853173
 20
-88.179641
 30
0.0
 10
218.513160
 20
-88.179641
 30
0.0
 10
218.513160
 20
-85.179647
 30
0.0
 10
238.603178
 20
-85.179647
 30
0.0
 10
238.603178
 20
-88.179641
 30
0.0
 10
262.308179
 20
-88.179641
 30
0.0
 10
262.308179
 20
-105.224649
 30
0.0
 10
259.308157
 20
-105.224649
 30
0.0
 10
259.308157
 20
-125.134665
 30
0.0
 10
262.308179
 20
-125.134665
 30
0.0
 10
262.308179
 20
-142.179645
 30
0.0
 10
238.603178
 20
-142.179645
 30
0.0
 10
238.603178
 20
-145.179668
 30
0.0
 10
218.513160
 20
-145.179668
 30
0.0
 10
218.513160
 20
-142.179645
 30
0.0
 10
194.853173
 20
-142.179645
 30
0.0
 10
194.853173
 20
-145.179668
 30
0.0
 10
174.763159
 20
-145.179668
 30
0.0
 10
174.763159
 20
-142.179645
 30
0.0
 10
151.103172
 20
-142.179645
 30
0.0
 10
151.103172
 20
-145.179668
 30
0.0
 10
131.013183
 20
-145.179668
 30
0.0
 10
131.013183
 20
-142.179645
 30
0.0
 10
107.353168
 20
-142.179645
 30
0.0
 10
107.353168
 20
-145.179668
 30
0.0
 10
87.263179
 20
-145.179668
 30
0.0
 10
87.263179
 20
-142.179645
 30
0.0
 10
63.603164
 20
-142.179645
 30
0.0
 10
63.603164
 20
-145.179668
 30
0.0
 10
43.513172
 20
-145.179668
 30
0.0
 10
43.513172
 20
-142.179645
 30
0.0
 10
19.853171
 20
-142.179645
 30
0.0
 10
19.853171
 20
-145.179668
 30
0.0
 10
-0.236830
 20
-145.179668
 30
0.0
 10
-0.236830
 20
-142.179645
 30
0.0
 10
-23.896828
 20
-142.179645
 30
0.0
 10
-23.896828
 20
-145.179668
 30
0.0
 10
-43.986828
 20
-145.179668
 30
0.0
 10
-43.986828
 20
-142.179645
 30
0.0
 10
-67.691830
 20
-142.179645
 30
0.0
 10
-67.691830
 20
-125.134665
 30
0.0
 10
-64.691827
 20
-125.134665
 30
0.0
 10
-64.691827
 20
-105.224649
 30
0.0
 10
-67.691830
 20
-105.224649
 30
0.0
 10
-67.691830
 20
-88.179641
 30
0.0
  0
ENDSEC
  0
SECTION
  2
OBJECTS
  0
DICTIONARY
  5
C
330
0
100
AcDbDictionary
  3
ACAD_GROUP
350
D
  3
ACAD_MLINESTYLE
350
17
  0
DICTIONARY
  5
D
330
C
100
AcDbDictionary
  0
DICTIONARY
  5
1A
330
C
100
AcDbDictionary
  0
DICTIONARY
  5
17
330
C
100
AcDbDictionary
  3
STANDARD
350
18
  0
DICTIONARY
  5
19
330
C
100
AcDbDictionary
  0
ENDSEC
  0
EOF
