M48
;DRILL file {kicad 0.201502231246+5447~21~ubuntu14.04.1-product} date Tue 17 Mar 2015 20:29:59 AEDT
;FORMAT={-:-/ absolute / metric / decimal}
FMAT,2
METRIC,TZ
T1C0.700
T2C0.711
T3C0.762
T4C0.813
T5C1.001
T6C1.016
T7C3.200
%
G90
G05
M71
T1
X67.901Y-78.493
X83.21Y24.689
X92.109Y-81.367
X93.398Y-47.856
X100.505Y-17.391
X101.965Y-97.757
X110.511Y-78.856
X111.492Y-39.525
X112.292Y45.958
X114.165Y-37.526
X116.117Y-77.024
X116.545Y-7.319
X118.343Y-38.21
X119.74Y-5.893
X121.61Y-18.766
X122.254Y-89.164
X122.699Y-14.584
X122.802Y-5.292
X123.504Y-82.311
X124.154Y-41.066
X128.974Y-13.8
X129.189Y-34.108
X130.617Y-83.458
X131.152Y41.938
X135.553Y-88.305
X140.64Y-65.253
X141.886Y-47.821
X142.034Y-5.551
X147.057Y-45.977
X148.682Y-33.603
X151.75Y41.141
X153.327Y4.133
X154.203Y-2.041
X158.795Y-4.396
X159.276Y16.576
X160.012Y18.73
X160.04Y-13.644
X161.106Y0.625
X161.848Y5.332
X163.105Y17.302
X165.799Y20.031
X166.551Y-32.217
X167.07Y31.844
X168.016Y-63.698
X169.323Y-41.881
X169.789Y17.541
X178.773Y16.39
X180.905Y18.944
X181.547Y-73.765
X185.788Y-26.134
X187.337Y-131.582
X187.715Y-35.627
X190.577Y24.689
X192.363Y-42.782
X197.878Y2.503
X197.9Y0.881
X201.073Y-50.624
X202.497Y-55.15
X202.849Y-16.45
X202.971Y4.47
X207.239Y-14.975
X208.596Y-51.447
X210.456Y-78.975
X216.322Y-100.098
X216.61Y-16.219
X217.673Y-19.202
X220.904Y-79.926
X227.01Y-20.284
X227.069Y-147.977
X232.697Y-42.772
X235.859Y-25.518
T2
X188.188Y44.425
X189.966Y44.425
T3
X44.679Y38.151
X45.593Y-83.033
X45.745Y-143.739
X46.634Y-20.88
X47.219Y38.151
X48.133Y-83.033
X48.285Y-143.739
X49.174Y-20.88
X49.759Y38.151
X50.673Y-83.033
X50.825Y-143.739
X51.714Y-20.88
X52.299Y38.151
X53.213Y-83.033
X53.365Y-143.739
X54.254Y-20.88
X98.831Y-149.885
X98.908Y35.484
X99.238Y-25.73
X99.238Y-89.129
X101.371Y-149.885
X101.448Y35.484
X101.778Y-25.73
X101.778Y-89.129
X103.911Y-149.885
X103.988Y35.484
X104.318Y-25.73
X104.318Y-89.129
X106.451Y-149.885
X106.528Y35.484
X106.858Y-25.73
X106.858Y-89.129
X151.282Y-144.78
X151.663Y-83.033
X152.476Y-22.479
X152.831Y37.973
X153.822Y-144.78
X154.203Y-83.033
X155.016Y-22.479
X155.371Y37.973
X156.362Y-144.78
X156.743Y-83.033
X157.556Y-22.479
X157.911Y37.973
X158.902Y-144.78
X159.283Y-83.033
X160.096Y-22.479
X160.451Y37.973
X167.056Y-53.696
X169.596Y-53.721
X172.39Y-53.721
X181.153Y-53.569
X183.693Y-53.594
X186.487Y-53.594
X195.631Y-53.569
X198.171Y-53.594
X200.965Y-53.594
X218.541Y-84.455
X219.1Y38.354
X219.125Y-22.682
X219.303Y-145.288
X221.081Y-84.455
X221.64Y38.354
X221.665Y-22.682
X221.843Y-145.288
X223.621Y-84.455
X224.18Y38.354
X224.205Y-22.682
X224.383Y-145.288
X226.161Y-84.455
X226.72Y38.354
X226.745Y-22.682
X226.923Y-145.288
T4
X68.402Y-22.885
X68.402Y-84.049
X68.529Y-145.415
X68.707Y38.075
X70.942Y-22.885
X70.942Y-84.049
X71.069Y-145.415
X71.247Y38.075
X121.768Y37.008
X121.844Y-23.901
X121.844Y-146.279
X122.047Y-85.065
X124.308Y37.008
X124.384Y-23.901
X124.384Y-146.279
X124.587Y-85.065
X166.268Y-12.395
X166.268Y-14.935
X166.268Y-17.475
X168.808Y-12.395
X168.808Y-14.935
X168.808Y-17.475
X175.006Y38.227
X175.082Y-22.885
X175.107Y-145.161
X175.285Y-84.252
X177.546Y38.227
X177.622Y-22.885
X177.647Y-145.161
X177.825Y-84.252
X242.265Y37.617
X242.265Y-145.898
X242.341Y-23.495
X242.417Y-84.785
X244.805Y37.617
X244.805Y-145.898
X244.881Y-23.495
X244.957Y-84.785
T5
X41.217Y33.096
X41.624Y-149.047
X41.649Y-88.113
X41.674Y-25.88
X43.688Y-155.829
X43.79Y27.559
X43.967Y-33.35
X44.171Y-94.513
X53.848Y-155.829
X53.95Y27.559
X54.127Y-33.35
X54.331Y-94.513
X56.217Y33.096
X56.624Y-149.047
X56.649Y-88.113
X56.674Y-25.88
X64.795Y-89.535
X64.999Y-150.724
X65.202Y-27.762
X65.329Y32.741
X74.955Y-89.535
X75.159Y-150.724
X75.362Y-27.762
X75.489Y32.741
X94.075Y-143.84
X94.684Y-82.626
X95.091Y-20.853
X95.192Y39.929
X96.266Y-136.398
X97.13Y-75.819
X97.46Y46.355
X97.511Y-14.605
X106.426Y-136.398
X107.29Y-75.819
X107.62Y46.355
X107.671Y-14.605
X109.075Y-143.84
X109.684Y-82.626
X110.091Y-20.853
X110.192Y39.929
X117.831Y-151.359
X118.364Y31.725
X118.44Y-28.981
X118.643Y-90.145
X127.991Y-151.359
X128.524Y31.725
X128.6Y-28.981
X128.803Y-90.145
X135.153Y45.009
X135.153Y34.849
X138.785Y24.689
X138.785Y14.529
X141.681Y24.587
X141.681Y14.427
X144.576Y24.587
X144.576Y14.427
X147.497Y24.638
X147.497Y14.478
X147.922Y-88.113
X147.973Y-149.479
X148.125Y-26.949
X148.633Y33.274
X150.342Y24.587
X150.342Y14.427
X150.342Y-94.513
X150.368Y-155.651
X150.647Y-30.709
X151.155Y27.864
X153.187Y24.638
X153.187Y14.478
X156.032Y24.638
X156.032Y14.478
X159.004Y24.638
X159.004Y14.478
X160.502Y-94.513
X160.528Y-155.651
X160.807Y-30.709
X161.315Y27.864
X162.922Y-88.113
X162.973Y-149.479
X163.125Y-26.949
X163.633Y33.274
X165.252Y24.74
X165.252Y14.58
X168.173Y24.638
X168.173Y14.478
X171.069Y24.587
X171.069Y14.427
X171.602Y32.944
X171.678Y-89.535
X171.881Y-28.169
X172.237Y-150.927
X173.913Y24.587
X173.913Y14.427
X176.834Y24.689
X176.834Y14.529
X179.628Y24.689
X179.628Y14.529
X181.762Y32.944
X181.838Y-89.535
X182.041Y-28.169
X182.397Y-150.927
X182.422Y24.689
X182.422Y14.529
X185.242Y24.689
X185.242Y14.529
X195.376Y44.628
X195.376Y34.468
X198.856Y44.628
X198.856Y34.468
X214.953Y-88.976
X215.029Y33.655
X215.181Y-27.762
X215.359Y-150.089
X217.322Y-94.996
X217.576Y27.356
X217.83Y-31.217
X218.236Y-156.261
X227.482Y-94.996
X227.736Y27.356
X227.99Y-31.217
X228.396Y-156.261
X229.953Y-88.976
X230.029Y33.655
X230.181Y-27.762
X230.359Y-150.089
X243.027Y30.988
X243.027Y20.828
X243.408Y-90.602
X243.408Y-100.762
X243.535Y-129.642
X243.535Y-139.802
X243.814Y-29.185
X243.814Y-39.345
T6
X132.892Y2.743
X132.892Y0.
X132.918Y5.436
X135.153Y49.784
X135.788Y5.385
X135.788Y2.845
X135.788Y0.305
X135.788Y-2.235
X135.788Y-4.775
X135.788Y-7.315
X135.788Y-9.855
X135.788Y-12.395
X135.788Y-14.935
X135.788Y-17.475
X135.788Y-20.015
X135.788Y-22.555
X135.788Y-25.095
X135.788Y-27.635
X135.788Y-30.175
X135.788Y-32.715
X135.788Y-35.255
X135.788Y-37.795
X137.693Y49.784
X137.693Y-41.808
X138.328Y5.385
X138.328Y2.845
X138.328Y0.305
X138.328Y-2.235
X138.328Y-4.775
X138.328Y-7.315
X138.328Y-9.855
X138.328Y-12.395
X138.328Y-14.935
X138.328Y-17.475
X138.328Y-20.015
X138.328Y-22.555
X138.328Y-25.095
X138.328Y-27.635
X138.328Y-30.175
X138.328Y-32.715
X138.328Y-35.255
X138.328Y-37.795
X140.36Y-41.808
X140.868Y10.465
X142.798Y2.921
X142.824Y0.203
X143.408Y10.465
X145.948Y10.465
X145.948Y-37.795
X148.488Y10.465
X148.488Y-37.795
X151.028Y10.465
X151.028Y-37.795
X153.568Y10.465
X153.568Y-37.795
X156.108Y10.465
X156.108Y-37.795
X157.988Y-41.961
X158.648Y10.465
X158.648Y-37.795
X160.68Y-41.91
X161.188Y-37.795
X163.372Y-41.885
X163.728Y10.465
X163.728Y-37.795
X166.116Y-41.935
X166.268Y10.465
X168.808Y10.465
X168.808Y-37.795
X171.348Y10.465
X171.348Y-37.795
X173.888Y10.465
X173.888Y-37.795
X175.361Y-41.707
X176.428Y10.465
X176.428Y-37.795
X178.028Y-41.656
X178.968Y10.465
X178.968Y-37.795
X180.695Y-41.681
X181.508Y10.465
X181.508Y-37.795
X182.651Y48.463
X182.651Y45.771
X183.362Y-41.681
X184.048Y-37.795
X185.191Y48.463
X186.105Y-41.631
X186.588Y10.465
X186.588Y-37.795
X187.731Y48.463
X188.595Y14.58
X189.128Y10.465
X190.271Y48.463
X190.652Y-37.795
X191.363Y14.656
X191.668Y10.465
X192.811Y48.463
X193.192Y-37.795
X194.081Y14.681
X194.208Y10.465
X195.351Y48.463
X195.732Y-37.795
X196.748Y10.465
X197.891Y48.463
X198.272Y-37.795
X198.577Y14.453
X199.288Y10.465
X200.812Y-37.795
X201.295Y14.402
X201.828Y10.465
X203.352Y-37.795
X204.368Y10.465
X205.384Y-41.707
X205.892Y-37.795
X208.102Y-41.783
X208.432Y-37.795
X210.972Y-37.795
X213.512Y-37.795
T7
X69.672Y-127.229
X69.723Y17.805
X142.164Y-54.762
X214.706Y17.805
X214.706Y-127.229
T0
M30
