G04 #@! TF.FileFunction,Legend,Bot*
%FSLAX46Y46*%
G04 Gerber Fmt 4.6, Leading zero omitted, Abs format (unit mm)*
G04 Created by KiCad (PCBNEW 0.201502231246+5447~21~ubuntu14.04.1-product) date Thu 19 Mar 2015 19:56:55 AEDT*
%MOMM*%
G01*
G04 APERTURE LIST*
%ADD10C,0.100000*%
G04 APERTURE END LIST*
D10*
X219185890Y-156261000D02*
G75*
G03X219185890Y-156261000I-949490J0D01*
G01*
X229345890Y-156261000D02*
G75*
G03X229345890Y-156261000I-949490J0D01*
G01*
X54899090Y27559000D02*
G75*
G03X54899090Y27559000I-949490J0D01*
G01*
X44739090Y27559000D02*
G75*
G03X44739090Y27559000I-949490J0D01*
G01*
X108569290Y46355000D02*
G75*
G03X108569290Y46355000I-949490J0D01*
G01*
X98409290Y46355000D02*
G75*
G03X98409290Y46355000I-949490J0D01*
G01*
X152104890Y27863800D02*
G75*
G03X152104890Y27863800I-949490J0D01*
G01*
X162264890Y27863800D02*
G75*
G03X162264890Y27863800I-949490J0D01*
G01*
X218525890Y27355800D02*
G75*
G03X218525890Y27355800I-949490J0D01*
G01*
X228685890Y27355800D02*
G75*
G03X228685890Y27355800I-949490J0D01*
G01*
X55076890Y-33350200D02*
G75*
G03X55076890Y-33350200I-949490J0D01*
G01*
X44916890Y-33350200D02*
G75*
G03X44916890Y-33350200I-949490J0D01*
G01*
X108620090Y-14605000D02*
G75*
G03X108620090Y-14605000I-949490J0D01*
G01*
X98460090Y-14605000D02*
G75*
G03X98460090Y-14605000I-949490J0D01*
G01*
X151596890Y-30708600D02*
G75*
G03X151596890Y-30708600I-949490J0D01*
G01*
X161756890Y-30708600D02*
G75*
G03X161756890Y-30708600I-949490J0D01*
G01*
X218779890Y-31216600D02*
G75*
G03X218779890Y-31216600I-949490J0D01*
G01*
X228939890Y-31216600D02*
G75*
G03X228939890Y-31216600I-949490J0D01*
G01*
X55280090Y-94513400D02*
G75*
G03X55280090Y-94513400I-949490J0D01*
G01*
X45120090Y-94513400D02*
G75*
G03X45120090Y-94513400I-949490J0D01*
G01*
X108239090Y-75819000D02*
G75*
G03X108239090Y-75819000I-949490J0D01*
G01*
X98079090Y-75819000D02*
G75*
G03X98079090Y-75819000I-949490J0D01*
G01*
X151291890Y-94513400D02*
G75*
G03X151291890Y-94513400I-949490J0D01*
G01*
X161451890Y-94513400D02*
G75*
G03X161451890Y-94513400I-949490J0D01*
G01*
X218271890Y-94996000D02*
G75*
G03X218271890Y-94996000I-949490J0D01*
G01*
X228431890Y-94996000D02*
G75*
G03X228431890Y-94996000I-949490J0D01*
G01*
X97215490Y-136398000D02*
G75*
G03X97215490Y-136398000I-949490J0D01*
G01*
X107375490Y-136398000D02*
G75*
G03X107375490Y-136398000I-949490J0D01*
G01*
X44637490Y-155829000D02*
G75*
G03X44637490Y-155829000I-949490J0D01*
G01*
X54797490Y-155829000D02*
G75*
G03X54797490Y-155829000I-949490J0D01*
G01*
X161477890Y-155651000D02*
G75*
G03X161477890Y-155651000I-949490J0D01*
G01*
X151317890Y-155651000D02*
G75*
G03X151317890Y-155651000I-949490J0D01*
G01*
X136102890Y34848800D02*
G75*
G03X136102890Y34848800I-949490J0D01*
G01*
X136102890Y45008800D02*
G75*
G03X136102890Y45008800I-949490J0D01*
G01*
X76438290Y32740600D02*
G75*
G03X76438290Y32740600I-949490J0D01*
G01*
X66278290Y32740600D02*
G75*
G03X66278290Y32740600I-949490J0D01*
G01*
X129473490Y31724600D02*
G75*
G03X129473490Y31724600I-949490J0D01*
G01*
X119313490Y31724600D02*
G75*
G03X119313490Y31724600I-949490J0D01*
G01*
X172551890Y32943800D02*
G75*
G03X172551890Y32943800I-949490J0D01*
G01*
X182711890Y32943800D02*
G75*
G03X182711890Y32943800I-949490J0D01*
G01*
X243976890Y20828000D02*
G75*
G03X243976890Y20828000I-949490J0D01*
G01*
X243976890Y30988000D02*
G75*
G03X243976890Y30988000I-949490J0D01*
G01*
X76311290Y-27762200D02*
G75*
G03X76311290Y-27762200I-949490J0D01*
G01*
X66151290Y-27762200D02*
G75*
G03X66151290Y-27762200I-949490J0D01*
G01*
X129549690Y-28981400D02*
G75*
G03X129549690Y-28981400I-949490J0D01*
G01*
X119389690Y-28981400D02*
G75*
G03X119389690Y-28981400I-949490J0D01*
G01*
X172830890Y-28168600D02*
G75*
G03X172830890Y-28168600I-949490J0D01*
G01*
X182990890Y-28168600D02*
G75*
G03X182990890Y-28168600I-949490J0D01*
G01*
X244763890Y-39344600D02*
G75*
G03X244763890Y-39344600I-949490J0D01*
G01*
X244763890Y-29184600D02*
G75*
G03X244763890Y-29184600I-949490J0D01*
G01*
X75904890Y-89535000D02*
G75*
G03X75904890Y-89535000I-949490J0D01*
G01*
X65744890Y-89535000D02*
G75*
G03X65744890Y-89535000I-949490J0D01*
G01*
X129752890Y-90144600D02*
G75*
G03X129752890Y-90144600I-949490J0D01*
G01*
X119592890Y-90144600D02*
G75*
G03X119592890Y-90144600I-949490J0D01*
G01*
X172627890Y-89535000D02*
G75*
G03X172627890Y-89535000I-949490J0D01*
G01*
X182787890Y-89535000D02*
G75*
G03X182787890Y-89535000I-949490J0D01*
G01*
X244357890Y-100761800D02*
G75*
G03X244357890Y-100761800I-949490J0D01*
G01*
X244357890Y-90601800D02*
G75*
G03X244357890Y-90601800I-949490J0D01*
G01*
X76108090Y-150724000D02*
G75*
G03X76108090Y-150724000I-949490J0D01*
G01*
X65948090Y-150724000D02*
G75*
G03X65948090Y-150724000I-949490J0D01*
G01*
X128940090Y-151359000D02*
G75*
G03X128940090Y-151359000I-949490J0D01*
G01*
X118780090Y-151359000D02*
G75*
G03X118780090Y-151359000I-949490J0D01*
G01*
X173186890Y-150927000D02*
G75*
G03X173186890Y-150927000I-949490J0D01*
G01*
X183346890Y-150927000D02*
G75*
G03X183346890Y-150927000I-949490J0D01*
G01*
X244484890Y-129642000D02*
G75*
G03X244484890Y-129642000I-949490J0D01*
G01*
X244484890Y-139802000D02*
G75*
G03X244484890Y-139802000I-949490J0D01*
G01*
X183371890Y24688800D02*
G75*
G03X183371890Y24688800I-949490J0D01*
G01*
X183371890Y14528800D02*
G75*
G03X183371890Y14528800I-949490J0D01*
G01*
X177783890Y24688800D02*
G75*
G03X177783890Y24688800I-949490J0D01*
G01*
X177783890Y14528800D02*
G75*
G03X177783890Y14528800I-949490J0D01*
G01*
X172018890Y24587200D02*
G75*
G03X172018890Y24587200I-949490J0D01*
G01*
X172018890Y14427200D02*
G75*
G03X172018890Y14427200I-949490J0D01*
G01*
X166201890Y24739600D02*
G75*
G03X166201890Y24739600I-949490J0D01*
G01*
X166201890Y14579600D02*
G75*
G03X166201890Y14579600I-949490J0D01*
G01*
X156981890Y24638000D02*
G75*
G03X156981890Y24638000I-949490J0D01*
G01*
X156981890Y14478000D02*
G75*
G03X156981890Y14478000I-949490J0D01*
G01*
X151291890Y24587200D02*
G75*
G03X151291890Y24587200I-949490J0D01*
G01*
X151291890Y14427200D02*
G75*
G03X151291890Y14427200I-949490J0D01*
G01*
X145525890Y24587200D02*
G75*
G03X145525890Y24587200I-949490J0D01*
G01*
X145525890Y14427200D02*
G75*
G03X145525890Y14427200I-949490J0D01*
G01*
X139734890Y24688800D02*
G75*
G03X139734890Y24688800I-949490J0D01*
G01*
X139734890Y14528800D02*
G75*
G03X139734890Y14528800I-949490J0D01*
G01*
X180577890Y24688800D02*
G75*
G03X180577890Y24688800I-949490J0D01*
G01*
X180577890Y14528800D02*
G75*
G03X180577890Y14528800I-949490J0D01*
G01*
X186191890Y24688800D02*
G75*
G03X186191890Y24688800I-949490J0D01*
G01*
X186191890Y14528800D02*
G75*
G03X186191890Y14528800I-949490J0D01*
G01*
X174862890Y24587200D02*
G75*
G03X174862890Y24587200I-949490J0D01*
G01*
X174862890Y14427200D02*
G75*
G03X174862890Y14427200I-949490J0D01*
G01*
X169122890Y24638000D02*
G75*
G03X169122890Y24638000I-949490J0D01*
G01*
X169122890Y14478000D02*
G75*
G03X169122890Y14478000I-949490J0D01*
G01*
X159953890Y24638000D02*
G75*
G03X159953890Y24638000I-949490J0D01*
G01*
X159953890Y14478000D02*
G75*
G03X159953890Y14478000I-949490J0D01*
G01*
X154136890Y24638000D02*
G75*
G03X154136890Y24638000I-949490J0D01*
G01*
X154136890Y14478000D02*
G75*
G03X154136890Y14478000I-949490J0D01*
G01*
X148446890Y24638000D02*
G75*
G03X148446890Y24638000I-949490J0D01*
G01*
X148446890Y14478000D02*
G75*
G03X148446890Y14478000I-949490J0D01*
G01*
X142630890Y24587200D02*
G75*
G03X142630890Y24587200I-949490J0D01*
G01*
X142630890Y14427200D02*
G75*
G03X142630890Y14427200I-949490J0D01*
G01*
X196325890Y44627800D02*
G75*
G03X196325890Y44627800I-949490J0D01*
G01*
X196325890Y34467800D02*
G75*
G03X196325890Y34467800I-949490J0D01*
G01*
X42166690Y33096200D02*
G75*
G03X42166690Y33096200I-949490J0D01*
G01*
X57166690Y33096200D02*
G75*
G03X57166690Y33096200I-949490J0D01*
G01*
X96141690Y39928800D02*
G75*
G03X96141690Y39928800I-949490J0D01*
G01*
X111141690Y39928800D02*
G75*
G03X111141690Y39928800I-949490J0D01*
G01*
X149582890Y33274000D02*
G75*
G03X149582890Y33274000I-949490J0D01*
G01*
X164582890Y33274000D02*
G75*
G03X164582890Y33274000I-949490J0D01*
G01*
X215978890Y33655000D02*
G75*
G03X215978890Y33655000I-949490J0D01*
G01*
X230978890Y33655000D02*
G75*
G03X230978890Y33655000I-949490J0D01*
G01*
X42623890Y-25880000D02*
G75*
G03X42623890Y-25880000I-949490J0D01*
G01*
X57623890Y-25880000D02*
G75*
G03X57623890Y-25880000I-949490J0D01*
G01*
X96040090Y-20853400D02*
G75*
G03X96040090Y-20853400I-949490J0D01*
G01*
X111040090Y-20853400D02*
G75*
G03X111040090Y-20853400I-949490J0D01*
G01*
X149074890Y-26949400D02*
G75*
G03X149074890Y-26949400I-949490J0D01*
G01*
X164074890Y-26949400D02*
G75*
G03X164074890Y-26949400I-949490J0D01*
G01*
X216130890Y-27762200D02*
G75*
G03X216130890Y-27762200I-949490J0D01*
G01*
X231130890Y-27762200D02*
G75*
G03X231130890Y-27762200I-949490J0D01*
G01*
X42598490Y-88112600D02*
G75*
G03X42598490Y-88112600I-949490J0D01*
G01*
X57598490Y-88112600D02*
G75*
G03X57598490Y-88112600I-949490J0D01*
G01*
X95633690Y-82626200D02*
G75*
G03X95633690Y-82626200I-949490J0D01*
G01*
X110633690Y-82626200D02*
G75*
G03X110633690Y-82626200I-949490J0D01*
G01*
X148871890Y-88112600D02*
G75*
G03X148871890Y-88112600I-949490J0D01*
G01*
X163871890Y-88112600D02*
G75*
G03X163871890Y-88112600I-949490J0D01*
G01*
X215902890Y-88976200D02*
G75*
G03X215902890Y-88976200I-949490J0D01*
G01*
X230902890Y-88976200D02*
G75*
G03X230902890Y-88976200I-949490J0D01*
G01*
X42573090Y-149047000D02*
G75*
G03X42573090Y-149047000I-949490J0D01*
G01*
X57573090Y-149047000D02*
G75*
G03X57573090Y-149047000I-949490J0D01*
G01*
X95024090Y-143840000D02*
G75*
G03X95024090Y-143840000I-949490J0D01*
G01*
X110024090Y-143840000D02*
G75*
G03X110024090Y-143840000I-949490J0D01*
G01*
X148922890Y-149479000D02*
G75*
G03X148922890Y-149479000I-949490J0D01*
G01*
X163922890Y-149479000D02*
G75*
G03X163922890Y-149479000I-949490J0D01*
G01*
X216308890Y-150089000D02*
G75*
G03X216308890Y-150089000I-949490J0D01*
G01*
X231308890Y-150089000D02*
G75*
G03X231308890Y-150089000I-949490J0D01*
G01*
X199805890Y34467800D02*
G75*
G03X199805890Y34467800I-949490J0D01*
G01*
X199805890Y44627800D02*
G75*
G03X199805890Y44627800I-949490J0D01*
G01*
M02*
