G04 #@! TF.FileFunction,Legend,Bot*
%FSLAX46Y46*%
G04 Gerber Fmt 4.6, Leading zero omitted, Abs format (unit mm)*
G04 Created by KiCad (PCBNEW 0.201502231246+5447~21~ubuntu14.04.1-product) date Sat 28 Mar 2015 12:02:36 AEDT*
%MOMM*%
G01*
G04 APERTURE LIST*
%ADD10C,0.100000*%
%ADD11C,0.300000*%
%ADD12C,0.250000*%
%ADD13C,0.002540*%
%ADD14C,5.000000*%
%ADD15O,1.524000X1.524000*%
%ADD16C,1.524000*%
%ADD17C,1.520000*%
%ADD18C,1.998980*%
%ADD19O,1.524000X2.540000*%
%ADD20C,3.175000*%
%ADD21O,1.168400X1.168400*%
%ADD22O,1.879600X1.879600*%
%ADD23O,1.800000X1.800000*%
%ADD24C,1.000000*%
G04 APERTURE END LIST*
D10*
D11*
X180259048Y-101652686D02*
X180354286Y-101747924D01*
X180640001Y-101843162D01*
X180830477Y-101843162D01*
X181116191Y-101747924D01*
X181306667Y-101557448D01*
X181401906Y-101366971D01*
X181497144Y-100986019D01*
X181497144Y-100700305D01*
X181401906Y-100319352D01*
X181306667Y-100128876D01*
X181116191Y-99938400D01*
X180830477Y-99843162D01*
X180640001Y-99843162D01*
X180354286Y-99938400D01*
X180259048Y-100033638D01*
X179116191Y-101843162D02*
X179306667Y-101747924D01*
X179401906Y-101652686D01*
X179497144Y-101462210D01*
X179497144Y-100890781D01*
X179401906Y-100700305D01*
X179306667Y-100605067D01*
X179116191Y-100509829D01*
X178830477Y-100509829D01*
X178640001Y-100605067D01*
X178544763Y-100700305D01*
X178449525Y-100890781D01*
X178449525Y-101462210D01*
X178544763Y-101652686D01*
X178640001Y-101747924D01*
X178830477Y-101843162D01*
X179116191Y-101843162D01*
X177306667Y-101843162D02*
X177497143Y-101747924D01*
X177592382Y-101557448D01*
X177592382Y-99843162D01*
X176259048Y-101843162D02*
X176449524Y-101747924D01*
X176544763Y-101652686D01*
X176640001Y-101462210D01*
X176640001Y-100890781D01*
X176544763Y-100700305D01*
X176449524Y-100605067D01*
X176259048Y-100509829D01*
X175973334Y-100509829D01*
X175782858Y-100605067D01*
X175687620Y-100700305D01*
X175592382Y-100890781D01*
X175592382Y-101462210D01*
X175687620Y-101652686D01*
X175782858Y-101747924D01*
X175973334Y-101843162D01*
X176259048Y-101843162D01*
X174735239Y-101843162D02*
X174735239Y-100509829D01*
X174735239Y-100890781D02*
X174640000Y-100700305D01*
X174544762Y-100605067D01*
X174354286Y-100509829D01*
X174163810Y-100509829D01*
X173592382Y-101747924D02*
X173306667Y-101843162D01*
X172830477Y-101843162D01*
X172640001Y-101747924D01*
X172544763Y-101652686D01*
X172449524Y-101462210D01*
X172449524Y-101271733D01*
X172544763Y-101081257D01*
X172640001Y-100986019D01*
X172830477Y-100890781D01*
X173211429Y-100795543D01*
X173401905Y-100700305D01*
X173497144Y-100605067D01*
X173592382Y-100414590D01*
X173592382Y-100224114D01*
X173497144Y-100033638D01*
X173401905Y-99938400D01*
X173211429Y-99843162D01*
X172735239Y-99843162D01*
X172449524Y-99938400D01*
X170830477Y-101747924D02*
X171020953Y-101843162D01*
X171401905Y-101843162D01*
X171592382Y-101747924D01*
X171687620Y-101557448D01*
X171687620Y-100795543D01*
X171592382Y-100605067D01*
X171401905Y-100509829D01*
X171020953Y-100509829D01*
X170830477Y-100605067D01*
X170735239Y-100795543D01*
X170735239Y-100986019D01*
X171687620Y-101176495D01*
X169878096Y-100509829D02*
X169878096Y-101843162D01*
X169878096Y-100700305D02*
X169782857Y-100605067D01*
X169592381Y-100509829D01*
X169306667Y-100509829D01*
X169116191Y-100605067D01*
X169020953Y-100795543D01*
X169020953Y-101843162D01*
X168163810Y-101747924D02*
X167973333Y-101843162D01*
X167592381Y-101843162D01*
X167401905Y-101747924D01*
X167306667Y-101557448D01*
X167306667Y-101462210D01*
X167401905Y-101271733D01*
X167592381Y-101176495D01*
X167878095Y-101176495D01*
X168068572Y-101081257D01*
X168163810Y-100890781D01*
X168163810Y-100795543D01*
X168068572Y-100605067D01*
X167878095Y-100509829D01*
X167592381Y-100509829D01*
X167401905Y-100605067D01*
X165687619Y-101747924D02*
X165878095Y-101843162D01*
X166259047Y-101843162D01*
X166449524Y-101747924D01*
X166544762Y-101557448D01*
X166544762Y-100795543D01*
X166449524Y-100605067D01*
X166259047Y-100509829D01*
X165878095Y-100509829D01*
X165687619Y-100605067D01*
X165592381Y-100795543D01*
X165592381Y-100986019D01*
X166544762Y-101176495D01*
X164735238Y-101843162D02*
X164735238Y-99843162D01*
X163973333Y-99843162D01*
X163782857Y-99938400D01*
X163687618Y-100033638D01*
X163592380Y-100224114D01*
X163592380Y-100509829D01*
X163687618Y-100700305D01*
X163782857Y-100795543D01*
X163973333Y-100890781D01*
X164735238Y-100890781D01*
X162068571Y-100795543D02*
X161782857Y-100890781D01*
X161687618Y-100986019D01*
X161592380Y-101176495D01*
X161592380Y-101462210D01*
X161687618Y-101652686D01*
X161782857Y-101747924D01*
X161973333Y-101843162D01*
X162735238Y-101843162D01*
X162735238Y-99843162D01*
X162068571Y-99843162D01*
X161878095Y-99938400D01*
X161782857Y-100033638D01*
X161687618Y-100224114D01*
X161687618Y-100414590D01*
X161782857Y-100605067D01*
X161878095Y-100700305D01*
X162068571Y-100795543D01*
X162735238Y-100795543D01*
X159401904Y-100509829D02*
X158925713Y-101843162D01*
X158449523Y-100509829D01*
X157306665Y-99843162D02*
X157116189Y-99843162D01*
X156925713Y-99938400D01*
X156830475Y-100033638D01*
X156735237Y-100224114D01*
X156639998Y-100605067D01*
X156639998Y-101081257D01*
X156735237Y-101462210D01*
X156830475Y-101652686D01*
X156925713Y-101747924D01*
X157116189Y-101843162D01*
X157306665Y-101843162D01*
X157497141Y-101747924D01*
X157592379Y-101652686D01*
X157687618Y-101462210D01*
X157782856Y-101081257D01*
X157782856Y-100605067D01*
X157687618Y-100224114D01*
X157592379Y-100033638D01*
X157497141Y-99938400D01*
X157306665Y-99843162D01*
X155782856Y-101652686D02*
X155687617Y-101747924D01*
X155782856Y-101843162D01*
X155878094Y-101747924D01*
X155782856Y-101652686D01*
X155782856Y-101843162D01*
X153782855Y-101843162D02*
X154925713Y-101843162D01*
X154354284Y-101843162D02*
X154354284Y-99843162D01*
X154544760Y-100128876D01*
X154735236Y-100319352D01*
X154925713Y-100414590D01*
X177449525Y-103895543D02*
X178116192Y-103895543D01*
X178116192Y-104943162D02*
X178116192Y-102943162D01*
X177163811Y-102943162D01*
X176401906Y-104943162D02*
X176401906Y-103609829D01*
X176401906Y-102943162D02*
X176497144Y-103038400D01*
X176401906Y-103133638D01*
X176306667Y-103038400D01*
X176401906Y-102943162D01*
X176401906Y-103133638D01*
X175449525Y-103609829D02*
X175449525Y-104943162D01*
X175449525Y-103800305D02*
X175354286Y-103705067D01*
X175163810Y-103609829D01*
X174878096Y-103609829D01*
X174687620Y-103705067D01*
X174592382Y-103895543D01*
X174592382Y-104943162D01*
X173640001Y-103609829D02*
X173640001Y-104943162D01*
X173640001Y-103800305D02*
X173544762Y-103705067D01*
X173354286Y-103609829D01*
X173068572Y-103609829D01*
X172878096Y-103705067D01*
X172782858Y-103895543D01*
X172782858Y-104943162D01*
X169354286Y-104943162D02*
X170306667Y-104943162D01*
X170306667Y-102943162D01*
X167830476Y-104943162D02*
X167830476Y-103895543D01*
X167925714Y-103705067D01*
X168116190Y-103609829D01*
X168497142Y-103609829D01*
X168687619Y-103705067D01*
X167830476Y-104847924D02*
X168020952Y-104943162D01*
X168497142Y-104943162D01*
X168687619Y-104847924D01*
X168782857Y-104657448D01*
X168782857Y-104466971D01*
X168687619Y-104276495D01*
X168497142Y-104181257D01*
X168020952Y-104181257D01*
X167830476Y-104086019D01*
X167163809Y-103609829D02*
X166401904Y-103609829D01*
X166878095Y-102943162D02*
X166878095Y-104657448D01*
X166782856Y-104847924D01*
X166592380Y-104943162D01*
X166401904Y-104943162D01*
X166020952Y-103609829D02*
X165259047Y-103609829D01*
X165735238Y-102943162D02*
X165735238Y-104657448D01*
X165639999Y-104847924D01*
X165449523Y-104943162D01*
X165259047Y-104943162D01*
X164592381Y-104943162D02*
X164592381Y-103609829D01*
X164592381Y-102943162D02*
X164687619Y-103038400D01*
X164592381Y-103133638D01*
X164497142Y-103038400D01*
X164592381Y-102943162D01*
X164592381Y-103133638D01*
X163640000Y-104943162D02*
X163640000Y-103609829D01*
X163640000Y-103800305D02*
X163544761Y-103705067D01*
X163354285Y-103609829D01*
X163068571Y-103609829D01*
X162878095Y-103705067D01*
X162782857Y-103895543D01*
X162782857Y-104943162D01*
X162782857Y-103895543D02*
X162687619Y-103705067D01*
X162497142Y-103609829D01*
X162211428Y-103609829D01*
X162020952Y-103705067D01*
X161925714Y-103895543D01*
X161925714Y-104943162D01*
X160687618Y-104943162D02*
X160878094Y-104847924D01*
X160973333Y-104752686D01*
X161068571Y-104562210D01*
X161068571Y-103990781D01*
X160973333Y-103800305D01*
X160878094Y-103705067D01*
X160687618Y-103609829D01*
X160401904Y-103609829D01*
X160211428Y-103705067D01*
X160116190Y-103800305D01*
X160020952Y-103990781D01*
X160020952Y-104562210D01*
X160116190Y-104752686D01*
X160211428Y-104847924D01*
X160401904Y-104943162D01*
X160687618Y-104943162D01*
X159163809Y-104943162D02*
X159163809Y-103609829D01*
X159163809Y-103990781D02*
X159068570Y-103800305D01*
X158973332Y-103705067D01*
X158782856Y-103609829D01*
X158592380Y-103609829D01*
X157163809Y-104847924D02*
X157354285Y-104943162D01*
X157735237Y-104943162D01*
X157925714Y-104847924D01*
X158020952Y-104657448D01*
X158020952Y-103895543D01*
X157925714Y-103705067D01*
X157735237Y-103609829D01*
X157354285Y-103609829D01*
X157163809Y-103705067D01*
X157068571Y-103895543D01*
X157068571Y-104086019D01*
X158020952Y-104276495D01*
X174878096Y-106233638D02*
X174782858Y-106138400D01*
X174592381Y-106043162D01*
X174116191Y-106043162D01*
X173925715Y-106138400D01*
X173830477Y-106233638D01*
X173735238Y-106424114D01*
X173735238Y-106614590D01*
X173830477Y-106900305D01*
X174973334Y-108043162D01*
X173735238Y-108043162D01*
X172497143Y-106043162D02*
X172306667Y-106043162D01*
X172116191Y-106138400D01*
X172020953Y-106233638D01*
X171925715Y-106424114D01*
X171830476Y-106805067D01*
X171830476Y-107281257D01*
X171925715Y-107662210D01*
X172020953Y-107852686D01*
X172116191Y-107947924D01*
X172306667Y-108043162D01*
X172497143Y-108043162D01*
X172687619Y-107947924D01*
X172782857Y-107852686D01*
X172878096Y-107662210D01*
X172973334Y-107281257D01*
X172973334Y-106805067D01*
X172878096Y-106424114D01*
X172782857Y-106233638D01*
X172687619Y-106138400D01*
X172497143Y-106043162D01*
X169925714Y-108043162D02*
X171068572Y-108043162D01*
X170497143Y-108043162D02*
X170497143Y-106043162D01*
X170687619Y-106328876D01*
X170878095Y-106519352D01*
X171068572Y-106614590D01*
X168116191Y-106043162D02*
X169068572Y-106043162D01*
X169163810Y-106995543D01*
X169068572Y-106900305D01*
X168878095Y-106805067D01*
X168401905Y-106805067D01*
X168211429Y-106900305D01*
X168116191Y-106995543D01*
X168020952Y-107186019D01*
X168020952Y-107662210D01*
X168116191Y-107852686D01*
X168211429Y-107947924D01*
X168401905Y-108043162D01*
X168878095Y-108043162D01*
X169068572Y-107947924D01*
X169163810Y-107852686D01*
X166782857Y-106043162D02*
X166592381Y-106043162D01*
X166401905Y-106138400D01*
X166306667Y-106233638D01*
X166211429Y-106424114D01*
X166116190Y-106805067D01*
X166116190Y-107281257D01*
X166211429Y-107662210D01*
X166306667Y-107852686D01*
X166401905Y-107947924D01*
X166592381Y-108043162D01*
X166782857Y-108043162D01*
X166973333Y-107947924D01*
X167068571Y-107852686D01*
X167163810Y-107662210D01*
X167259048Y-107281257D01*
X167259048Y-106805067D01*
X167163810Y-106424114D01*
X167068571Y-106233638D01*
X166973333Y-106138400D01*
X166782857Y-106043162D01*
X165449524Y-106043162D02*
X164211428Y-106043162D01*
X164878095Y-106805067D01*
X164592381Y-106805067D01*
X164401905Y-106900305D01*
X164306667Y-106995543D01*
X164211428Y-107186019D01*
X164211428Y-107662210D01*
X164306667Y-107852686D01*
X164401905Y-107947924D01*
X164592381Y-108043162D01*
X165163809Y-108043162D01*
X165354286Y-107947924D01*
X165449524Y-107852686D01*
X163449524Y-106233638D02*
X163354286Y-106138400D01*
X163163809Y-106043162D01*
X162687619Y-106043162D01*
X162497143Y-106138400D01*
X162401905Y-106233638D01*
X162306666Y-106424114D01*
X162306666Y-106614590D01*
X162401905Y-106900305D01*
X163544762Y-108043162D01*
X162306666Y-108043162D01*
X161068571Y-106043162D02*
X160878095Y-106043162D01*
X160687619Y-106138400D01*
X160592381Y-106233638D01*
X160497143Y-106424114D01*
X160401904Y-106805067D01*
X160401904Y-107281257D01*
X160497143Y-107662210D01*
X160592381Y-107852686D01*
X160687619Y-107947924D01*
X160878095Y-108043162D01*
X161068571Y-108043162D01*
X161259047Y-107947924D01*
X161354285Y-107852686D01*
X161449524Y-107662210D01*
X161544762Y-107281257D01*
X161544762Y-106805067D01*
X161449524Y-106424114D01*
X161354285Y-106233638D01*
X161259047Y-106138400D01*
X161068571Y-106043162D01*
D12*
X123977304Y-8009000D02*
X124072542Y-7961381D01*
X124215399Y-7961381D01*
X124358257Y-8009000D01*
X124453495Y-8104238D01*
X124501114Y-8199476D01*
X124548733Y-8389952D01*
X124548733Y-8532810D01*
X124501114Y-8723286D01*
X124453495Y-8818524D01*
X124358257Y-8913762D01*
X124215399Y-8961381D01*
X124120161Y-8961381D01*
X123977304Y-8913762D01*
X123929685Y-8866143D01*
X123929685Y-8532810D01*
X124120161Y-8532810D01*
X123501114Y-8961381D02*
X123501114Y-7961381D01*
X122929685Y-8961381D01*
X122929685Y-7961381D01*
X122453495Y-8961381D02*
X122453495Y-7961381D01*
X122215400Y-7961381D01*
X122072542Y-8009000D01*
X121977304Y-8104238D01*
X121929685Y-8199476D01*
X121882066Y-8389952D01*
X121882066Y-8532810D01*
X121929685Y-8723286D01*
X121977304Y-8818524D01*
X122072542Y-8913762D01*
X122215400Y-8961381D01*
X122453495Y-8961381D01*
X123834495Y-10577581D02*
X124310686Y-10577581D01*
X124358305Y-11053771D01*
X124310686Y-11006152D01*
X124215448Y-10958533D01*
X123977352Y-10958533D01*
X123882114Y-11006152D01*
X123834495Y-11053771D01*
X123786876Y-11149010D01*
X123786876Y-11387105D01*
X123834495Y-11482343D01*
X123882114Y-11529962D01*
X123977352Y-11577581D01*
X124215448Y-11577581D01*
X124310686Y-11529962D01*
X124358305Y-11482343D01*
X123453543Y-10577581D02*
X122834495Y-10577581D01*
X123167829Y-10958533D01*
X123024971Y-10958533D01*
X122929733Y-11006152D01*
X122882114Y-11053771D01*
X122834495Y-11149010D01*
X122834495Y-11387105D01*
X122882114Y-11482343D01*
X122929733Y-11529962D01*
X123024971Y-11577581D01*
X123310686Y-11577581D01*
X123405924Y-11529962D01*
X123453543Y-11482343D01*
X123961495Y-13498581D02*
X124437686Y-13498581D01*
X124485305Y-13974771D01*
X124437686Y-13927152D01*
X124342448Y-13879533D01*
X124104352Y-13879533D01*
X124009114Y-13927152D01*
X123961495Y-13974771D01*
X123913876Y-14070010D01*
X123913876Y-14308105D01*
X123961495Y-14403343D01*
X124009114Y-14450962D01*
X124104352Y-14498581D01*
X124342448Y-14498581D01*
X124437686Y-14450962D01*
X124485305Y-14403343D01*
X122961495Y-14498581D02*
X123532924Y-14498581D01*
X123247210Y-14498581D02*
X123247210Y-13498581D01*
X123342448Y-13641438D01*
X123437686Y-13736676D01*
X123532924Y-13784295D01*
X136915495Y-9917181D02*
X137391686Y-9917181D01*
X137439305Y-10393371D01*
X137391686Y-10345752D01*
X137296448Y-10298133D01*
X137058352Y-10298133D01*
X136963114Y-10345752D01*
X136915495Y-10393371D01*
X136867876Y-10488610D01*
X136867876Y-10726705D01*
X136915495Y-10821943D01*
X136963114Y-10869562D01*
X137058352Y-10917181D01*
X137296448Y-10917181D01*
X137391686Y-10869562D01*
X137439305Y-10821943D01*
X136486924Y-10012419D02*
X136439305Y-9964800D01*
X136344067Y-9917181D01*
X136105971Y-9917181D01*
X136010733Y-9964800D01*
X135963114Y-10012419D01*
X135915495Y-10107657D01*
X135915495Y-10202895D01*
X135963114Y-10345752D01*
X136534543Y-10917181D01*
X135915495Y-10917181D01*
X137042495Y-12939781D02*
X137518686Y-12939781D01*
X137566305Y-13415971D01*
X137518686Y-13368352D01*
X137423448Y-13320733D01*
X137185352Y-13320733D01*
X137090114Y-13368352D01*
X137042495Y-13415971D01*
X136994876Y-13511210D01*
X136994876Y-13749305D01*
X137042495Y-13844543D01*
X137090114Y-13892162D01*
X137185352Y-13939781D01*
X137423448Y-13939781D01*
X137518686Y-13892162D01*
X137566305Y-13844543D01*
X136375829Y-12939781D02*
X136280590Y-12939781D01*
X136185352Y-12987400D01*
X136137733Y-13035019D01*
X136090114Y-13130257D01*
X136042495Y-13320733D01*
X136042495Y-13558829D01*
X136090114Y-13749305D01*
X136137733Y-13844543D01*
X136185352Y-13892162D01*
X136280590Y-13939781D01*
X136375829Y-13939781D01*
X136471067Y-13892162D01*
X136518686Y-13844543D01*
X136566305Y-13749305D01*
X136613924Y-13558829D01*
X136613924Y-13320733D01*
X136566305Y-13130257D01*
X136518686Y-13035019D01*
X136471067Y-12987400D01*
X136375829Y-12939781D01*
X200902819Y16032219D02*
X201236153Y16508410D01*
X201474248Y16032219D02*
X201474248Y17032219D01*
X201093295Y17032219D01*
X200998057Y16984600D01*
X200950438Y16936981D01*
X200902819Y16841743D01*
X200902819Y16698886D01*
X200950438Y16603648D01*
X200998057Y16556029D01*
X201093295Y16508410D01*
X201474248Y16508410D01*
X200521867Y16079838D02*
X200379010Y16032219D01*
X200140914Y16032219D01*
X200045676Y16079838D01*
X199998057Y16127457D01*
X199950438Y16222695D01*
X199950438Y16317933D01*
X199998057Y16413171D01*
X200045676Y16460790D01*
X200140914Y16508410D01*
X200331391Y16556029D01*
X200426629Y16603648D01*
X200474248Y16651267D01*
X200521867Y16746505D01*
X200521867Y16841743D01*
X200474248Y16936981D01*
X200426629Y16984600D01*
X200331391Y17032219D01*
X200093295Y17032219D01*
X199950438Y16984600D01*
X199664724Y17032219D02*
X199093295Y17032219D01*
X199379010Y16032219D02*
X199379010Y17032219D01*
X198427790Y17083019D02*
X197808742Y17083019D01*
X198142076Y16702067D01*
X197999218Y16702067D01*
X197903980Y16654448D01*
X197856361Y16606829D01*
X197808742Y16511590D01*
X197808742Y16273495D01*
X197856361Y16178257D01*
X197903980Y16130638D01*
X197999218Y16083019D01*
X198284933Y16083019D01*
X198380171Y16130638D01*
X198427790Y16178257D01*
X197380171Y16178257D02*
X197332552Y16130638D01*
X197380171Y16083019D01*
X197427790Y16130638D01*
X197380171Y16178257D01*
X197380171Y16083019D01*
X196999219Y17083019D02*
X196380171Y17083019D01*
X196713505Y16702067D01*
X196570647Y16702067D01*
X196475409Y16654448D01*
X196427790Y16606829D01*
X196380171Y16511590D01*
X196380171Y16273495D01*
X196427790Y16178257D01*
X196475409Y16130638D01*
X196570647Y16083019D01*
X196856362Y16083019D01*
X196951600Y16130638D01*
X196999219Y16178257D01*
X196094457Y17083019D02*
X195761124Y16083019D01*
X195427790Y17083019D01*
X193522504Y17162400D02*
X193617742Y17210019D01*
X193760599Y17210019D01*
X193903457Y17162400D01*
X193998695Y17067162D01*
X194046314Y16971924D01*
X194093933Y16781448D01*
X194093933Y16638590D01*
X194046314Y16448114D01*
X193998695Y16352876D01*
X193903457Y16257638D01*
X193760599Y16210019D01*
X193665361Y16210019D01*
X193522504Y16257638D01*
X193474885Y16305257D01*
X193474885Y16638590D01*
X193665361Y16638590D01*
X193046314Y16210019D02*
X193046314Y17210019D01*
X192474885Y16210019D01*
X192474885Y17210019D01*
X191998695Y16210019D02*
X191998695Y17210019D01*
X191760600Y17210019D01*
X191617742Y17162400D01*
X191522504Y17067162D01*
X191474885Y16971924D01*
X191427266Y16781448D01*
X191427266Y16638590D01*
X191474885Y16448114D01*
X191522504Y16352876D01*
X191617742Y16257638D01*
X191760600Y16210019D01*
X191998695Y16210019D01*
X189690238Y17133819D02*
X189356905Y16133819D01*
X189023571Y17133819D01*
X188690238Y16133819D02*
X188690238Y17133819D01*
X188214048Y16133819D02*
X188214048Y17133819D01*
X187642619Y16133819D01*
X187642619Y17133819D01*
X200380504Y-56777000D02*
X200475742Y-56729381D01*
X200618599Y-56729381D01*
X200761457Y-56777000D01*
X200856695Y-56872238D01*
X200904314Y-56967476D01*
X200951933Y-57157952D01*
X200951933Y-57300810D01*
X200904314Y-57491286D01*
X200856695Y-57586524D01*
X200761457Y-57681762D01*
X200618599Y-57729381D01*
X200523361Y-57729381D01*
X200380504Y-57681762D01*
X200332885Y-57634143D01*
X200332885Y-57300810D01*
X200523361Y-57300810D01*
X199904314Y-57729381D02*
X199904314Y-56729381D01*
X199332885Y-57729381D01*
X199332885Y-56729381D01*
X198856695Y-57729381D02*
X198856695Y-56729381D01*
X198618600Y-56729381D01*
X198475742Y-56777000D01*
X198380504Y-56872238D01*
X198332885Y-56967476D01*
X198285266Y-57157952D01*
X198285266Y-57300810D01*
X198332885Y-57491286D01*
X198380504Y-57586524D01*
X198475742Y-57681762D01*
X198618600Y-57729381D01*
X198856695Y-57729381D01*
X196684876Y-57729381D02*
X197256305Y-57729381D01*
X196970591Y-57729381D02*
X196970591Y-56729381D01*
X197065829Y-56872238D01*
X197161067Y-56967476D01*
X197256305Y-57015095D01*
X196351543Y-56729381D02*
X195732495Y-56729381D01*
X196065829Y-57110333D01*
X195922971Y-57110333D01*
X195827733Y-57157952D01*
X195780114Y-57205571D01*
X195732495Y-57300810D01*
X195732495Y-57538905D01*
X195780114Y-57634143D01*
X195827733Y-57681762D01*
X195922971Y-57729381D01*
X196208686Y-57729381D01*
X196303924Y-57681762D01*
X196351543Y-57634143D01*
X177939723Y-56653181D02*
X178130200Y-56653181D01*
X178225438Y-56700800D01*
X178273057Y-56748419D01*
X178368295Y-56891276D01*
X178415914Y-57081752D01*
X178415914Y-57462705D01*
X178368295Y-57557943D01*
X178320676Y-57605562D01*
X178225438Y-57653181D01*
X178034961Y-57653181D01*
X177939723Y-57605562D01*
X177892104Y-57557943D01*
X177844485Y-57462705D01*
X177844485Y-57224610D01*
X177892104Y-57129371D01*
X177939723Y-57081752D01*
X178034961Y-57034133D01*
X178225438Y-57034133D01*
X178320676Y-57081752D01*
X178368295Y-57129371D01*
X178415914Y-57224610D01*
X175199704Y-56602381D02*
X175675895Y-56602381D01*
X175723514Y-57078571D01*
X175675895Y-57030952D01*
X175580657Y-56983333D01*
X175342561Y-56983333D01*
X175247323Y-57030952D01*
X175199704Y-57078571D01*
X175152085Y-57173810D01*
X175152085Y-57411905D01*
X175199704Y-57507143D01*
X175247323Y-57554762D01*
X175342561Y-57602381D01*
X175580657Y-57602381D01*
X175675895Y-57554762D01*
X175723514Y-57507143D01*
X172427923Y-56681714D02*
X172427923Y-57348381D01*
X172666019Y-56300762D02*
X172904114Y-57015048D01*
X172285066Y-57015048D01*
X170259333Y-56399181D02*
X169640285Y-56399181D01*
X169973619Y-56780133D01*
X169830761Y-56780133D01*
X169735523Y-56827752D01*
X169687904Y-56875371D01*
X169640285Y-56970610D01*
X169640285Y-57208705D01*
X169687904Y-57303943D01*
X169735523Y-57351562D01*
X169830761Y-57399181D01*
X170116476Y-57399181D01*
X170211714Y-57351562D01*
X170259333Y-57303943D01*
X167265314Y-56443619D02*
X167217695Y-56396000D01*
X167122457Y-56348381D01*
X166884361Y-56348381D01*
X166789123Y-56396000D01*
X166741504Y-56443619D01*
X166693885Y-56538857D01*
X166693885Y-56634095D01*
X166741504Y-56776952D01*
X167312933Y-57348381D01*
X166693885Y-57348381D01*
X158026076Y-57576981D02*
X158597505Y-57576981D01*
X158311791Y-57576981D02*
X158311791Y-56576981D01*
X158407029Y-56719838D01*
X158502267Y-56815076D01*
X158597505Y-56862695D01*
X157168933Y-56910314D02*
X157168933Y-57576981D01*
X157407029Y-56529362D02*
X157645124Y-57243648D01*
X157026076Y-57243648D01*
X152565076Y-57424581D02*
X153136505Y-57424581D01*
X152850791Y-57424581D02*
X152850791Y-56424581D01*
X152946029Y-56567438D01*
X153041267Y-56662676D01*
X153136505Y-56710295D01*
X151707933Y-56424581D02*
X151898410Y-56424581D01*
X151993648Y-56472200D01*
X152041267Y-56519819D01*
X152136505Y-56662676D01*
X152184124Y-56853152D01*
X152184124Y-57234105D01*
X152136505Y-57329343D01*
X152088886Y-57376962D01*
X151993648Y-57424581D01*
X151803171Y-57424581D01*
X151707933Y-57376962D01*
X151660314Y-57329343D01*
X151612695Y-57234105D01*
X151612695Y-56996010D01*
X151660314Y-56900771D01*
X151707933Y-56853152D01*
X151803171Y-56805533D01*
X151993648Y-56805533D01*
X152088886Y-56853152D01*
X152136505Y-56900771D01*
X152184124Y-56996010D01*
X155282876Y-57475381D02*
X155854305Y-57475381D01*
X155568591Y-57475381D02*
X155568591Y-56475381D01*
X155663829Y-56618238D01*
X155759067Y-56713476D01*
X155854305Y-56761095D01*
X154378114Y-56475381D02*
X154854305Y-56475381D01*
X154901924Y-56951571D01*
X154854305Y-56903952D01*
X154759067Y-56856333D01*
X154520971Y-56856333D01*
X154425733Y-56903952D01*
X154378114Y-56951571D01*
X154330495Y-57046810D01*
X154330495Y-57284905D01*
X154378114Y-57380143D01*
X154425733Y-57427762D01*
X154520971Y-57475381D01*
X154759067Y-57475381D01*
X154854305Y-57427762D01*
X154901924Y-57380143D01*
X149720276Y-57399181D02*
X150291705Y-57399181D01*
X150005991Y-57399181D02*
X150005991Y-56399181D01*
X150101229Y-56542038D01*
X150196467Y-56637276D01*
X150291705Y-56684895D01*
X149386943Y-56399181D02*
X148720276Y-56399181D01*
X149148848Y-57399181D01*
D13*
G36*
X147477480Y-125730000D02*
X147302220Y-125638560D01*
X146911060Y-125392180D01*
X146354800Y-125028960D01*
X145696940Y-124587000D01*
X145036540Y-124139960D01*
X144492980Y-123776740D01*
X144111980Y-123532900D01*
X143954500Y-123444000D01*
X143868140Y-123474480D01*
X143553180Y-123626880D01*
X143098520Y-123863100D01*
X142834360Y-124000260D01*
X142415260Y-124180600D01*
X142209520Y-124218700D01*
X142173960Y-124160280D01*
X142021560Y-123840240D01*
X141780260Y-123294140D01*
X141465300Y-122570240D01*
X141104620Y-121724420D01*
X140718540Y-120810020D01*
X140329920Y-119880380D01*
X139961620Y-118991380D01*
X139636500Y-118193820D01*
X139374880Y-117543580D01*
X139202160Y-117094000D01*
X139138660Y-116898420D01*
X139158980Y-116857780D01*
X139367260Y-116654580D01*
X139733020Y-116380260D01*
X140520420Y-115740180D01*
X141300200Y-114767360D01*
X141775180Y-113662460D01*
X141932660Y-112435640D01*
X141798040Y-111297720D01*
X141351000Y-110195360D01*
X140589000Y-109212380D01*
X139664440Y-108480860D01*
X138582400Y-108018580D01*
X137368280Y-107868720D01*
X136197340Y-108000800D01*
X135079740Y-108440220D01*
X134096760Y-109189520D01*
X133682740Y-109669580D01*
X133108700Y-110665260D01*
X132783580Y-111739680D01*
X132748020Y-112014000D01*
X132796280Y-113182400D01*
X133141720Y-114305080D01*
X133761480Y-115310920D01*
X134620000Y-116133880D01*
X134726680Y-116210080D01*
X135125460Y-116507260D01*
X135392160Y-116713000D01*
X135600440Y-116883180D01*
X134109460Y-120474740D01*
X133870700Y-121046240D01*
X133461760Y-122026680D01*
X133101080Y-122872500D01*
X132814060Y-123545600D01*
X132615940Y-123995180D01*
X132527040Y-124175520D01*
X132516880Y-124185680D01*
X132387340Y-124208540D01*
X132110480Y-124109480D01*
X131612640Y-123865640D01*
X131279900Y-123695460D01*
X130898900Y-123512580D01*
X130726180Y-123444000D01*
X130583940Y-123522740D01*
X130215640Y-123761500D01*
X129682240Y-124117100D01*
X129039620Y-124553980D01*
X128430020Y-124968000D01*
X127866140Y-125341380D01*
X127454660Y-125603000D01*
X127259080Y-125709680D01*
X127226060Y-125709680D01*
X127048260Y-125610620D01*
X126728220Y-125341380D01*
X126238000Y-124879100D01*
X125544580Y-124195840D01*
X125440440Y-124091700D01*
X124871480Y-123512580D01*
X124409200Y-123027440D01*
X124099320Y-122682000D01*
X123987560Y-122524520D01*
X123987560Y-122521980D01*
X124089160Y-122328940D01*
X124348240Y-121920000D01*
X124721620Y-121351040D01*
X125176280Y-120683020D01*
X126365000Y-118955820D01*
X125712220Y-117325140D01*
X125511560Y-116827300D01*
X125257560Y-116220240D01*
X125067060Y-115788440D01*
X124970540Y-115600480D01*
X124792740Y-115536980D01*
X124345700Y-115430300D01*
X123700540Y-115295680D01*
X122928380Y-115150900D01*
X122194320Y-115016280D01*
X121528840Y-114891820D01*
X121048780Y-114797840D01*
X120832880Y-114754660D01*
X120782080Y-114724180D01*
X120738900Y-114620040D01*
X120710960Y-114393980D01*
X120693180Y-113990120D01*
X120685560Y-113355120D01*
X120685560Y-112435640D01*
X120685560Y-112336580D01*
X120693180Y-111457740D01*
X120708420Y-110759240D01*
X120733820Y-110294420D01*
X120764300Y-110114080D01*
X120766840Y-110111540D01*
X120972580Y-110060740D01*
X121442480Y-109961680D01*
X122105420Y-109832140D01*
X122897900Y-109682280D01*
X122946160Y-109672120D01*
X123736100Y-109519720D01*
X124396500Y-109382560D01*
X124858780Y-109275880D01*
X125054360Y-109214920D01*
X125095000Y-109159040D01*
X125255020Y-108851700D01*
X125481080Y-108361480D01*
X125742700Y-107764580D01*
X125999240Y-107144820D01*
X126222760Y-106588560D01*
X126372620Y-106172000D01*
X126418340Y-105984040D01*
X126415800Y-105978960D01*
X126296420Y-105788460D01*
X126024640Y-105382060D01*
X125641100Y-104813100D01*
X125181360Y-104142540D01*
X125145800Y-104091740D01*
X124693680Y-103423720D01*
X124325380Y-102862380D01*
X124079000Y-102458520D01*
X123987560Y-102278180D01*
X123990100Y-102265480D01*
X124139960Y-102067360D01*
X124480320Y-101688900D01*
X124965460Y-101180900D01*
X125549660Y-100591620D01*
X125735080Y-100408740D01*
X126382780Y-99776280D01*
X126834900Y-99362260D01*
X127114300Y-99141280D01*
X127248920Y-99093020D01*
X127254000Y-99095560D01*
X127454660Y-99217480D01*
X127873760Y-99491800D01*
X128447800Y-99877880D01*
X129123440Y-100337620D01*
X129171700Y-100370640D01*
X129837180Y-100822760D01*
X130393440Y-101198680D01*
X130787140Y-101460300D01*
X130959860Y-101564440D01*
X130990340Y-101564440D01*
X131262120Y-101485700D01*
X131734560Y-101318060D01*
X132318760Y-101092000D01*
X132935980Y-100845620D01*
X133494780Y-100609400D01*
X133916420Y-100416360D01*
X134114540Y-100304600D01*
X134119620Y-100294440D01*
X134190740Y-100055680D01*
X134305040Y-99557840D01*
X134447280Y-98869500D01*
X134602220Y-98054160D01*
X134627620Y-97922080D01*
X134777480Y-97127060D01*
X134904480Y-96471740D01*
X134998460Y-96017080D01*
X135044180Y-95831660D01*
X135155940Y-95803720D01*
X135547100Y-95775780D01*
X136138920Y-95760540D01*
X136855200Y-95752920D01*
X137619740Y-95758000D01*
X138356340Y-95773240D01*
X138986260Y-95796100D01*
X139435840Y-95826580D01*
X139623800Y-95864680D01*
X139631420Y-95874840D01*
X139700000Y-96121220D01*
X139809220Y-96621600D01*
X139951460Y-97312480D01*
X140106400Y-98130360D01*
X140134340Y-98275140D01*
X140284200Y-99067620D01*
X140416280Y-99717860D01*
X140512800Y-100164900D01*
X140563600Y-100340160D01*
X140634720Y-100378260D01*
X140962380Y-100520500D01*
X141493240Y-100741480D01*
X142151100Y-101008180D01*
X143680180Y-101625400D01*
X145549620Y-100342700D01*
X145722340Y-100225860D01*
X146395440Y-99768660D01*
X146949160Y-99400360D01*
X147335240Y-99151440D01*
X147492720Y-99060000D01*
X147505420Y-99067620D01*
X147693380Y-99230180D01*
X148064220Y-99578160D01*
X148569680Y-100070920D01*
X149161500Y-100657660D01*
X149595840Y-101094540D01*
X150111460Y-101620320D01*
X150439120Y-101973380D01*
X150616920Y-102199440D01*
X150680420Y-102336600D01*
X150665180Y-102428040D01*
X150543260Y-102618540D01*
X150268940Y-103030020D01*
X149882860Y-103598980D01*
X149428200Y-104261920D01*
X149054820Y-104813100D01*
X148645880Y-105443020D01*
X148381720Y-105892600D01*
X148290280Y-106111040D01*
X148313140Y-106202480D01*
X148442680Y-106568240D01*
X148666200Y-107121960D01*
X148948140Y-107782360D01*
X149598380Y-109263180D01*
X150571200Y-109451140D01*
X151157940Y-109562900D01*
X151980900Y-109720380D01*
X152770840Y-109872780D01*
X154000200Y-110111540D01*
X154043380Y-114640360D01*
X153852880Y-114721640D01*
X153672540Y-114769900D01*
X153215340Y-114871500D01*
X152565100Y-115001040D01*
X151798020Y-115145820D01*
X151142700Y-115267740D01*
X150484840Y-115392200D01*
X150012400Y-115483640D01*
X149801580Y-115529360D01*
X149748240Y-115600480D01*
X149583140Y-115920520D01*
X149352000Y-116425980D01*
X149087840Y-117035580D01*
X148823680Y-117670580D01*
X148592540Y-118252240D01*
X148429980Y-118696740D01*
X148369020Y-118927880D01*
X148460460Y-119100600D01*
X148706840Y-119489220D01*
X149072600Y-120040400D01*
X149519640Y-120695720D01*
X149966680Y-121351040D01*
X150345140Y-121909840D01*
X150609300Y-122313700D01*
X150718520Y-122496580D01*
X150665180Y-122621040D01*
X150401020Y-122938540D01*
X149908260Y-123451620D01*
X149174200Y-124178060D01*
X149054820Y-124294900D01*
X148468080Y-124856240D01*
X147975320Y-125310900D01*
X147629880Y-125618240D01*
X147477480Y-125730000D01*
X147477480Y-125730000D01*
G37*
X147477480Y-125730000D02*
X147302220Y-125638560D01*
X146911060Y-125392180D01*
X146354800Y-125028960D01*
X145696940Y-124587000D01*
X145036540Y-124139960D01*
X144492980Y-123776740D01*
X144111980Y-123532900D01*
X143954500Y-123444000D01*
X143868140Y-123474480D01*
X143553180Y-123626880D01*
X143098520Y-123863100D01*
X142834360Y-124000260D01*
X142415260Y-124180600D01*
X142209520Y-124218700D01*
X142173960Y-124160280D01*
X142021560Y-123840240D01*
X141780260Y-123294140D01*
X141465300Y-122570240D01*
X141104620Y-121724420D01*
X140718540Y-120810020D01*
X140329920Y-119880380D01*
X139961620Y-118991380D01*
X139636500Y-118193820D01*
X139374880Y-117543580D01*
X139202160Y-117094000D01*
X139138660Y-116898420D01*
X139158980Y-116857780D01*
X139367260Y-116654580D01*
X139733020Y-116380260D01*
X140520420Y-115740180D01*
X141300200Y-114767360D01*
X141775180Y-113662460D01*
X141932660Y-112435640D01*
X141798040Y-111297720D01*
X141351000Y-110195360D01*
X140589000Y-109212380D01*
X139664440Y-108480860D01*
X138582400Y-108018580D01*
X137368280Y-107868720D01*
X136197340Y-108000800D01*
X135079740Y-108440220D01*
X134096760Y-109189520D01*
X133682740Y-109669580D01*
X133108700Y-110665260D01*
X132783580Y-111739680D01*
X132748020Y-112014000D01*
X132796280Y-113182400D01*
X133141720Y-114305080D01*
X133761480Y-115310920D01*
X134620000Y-116133880D01*
X134726680Y-116210080D01*
X135125460Y-116507260D01*
X135392160Y-116713000D01*
X135600440Y-116883180D01*
X134109460Y-120474740D01*
X133870700Y-121046240D01*
X133461760Y-122026680D01*
X133101080Y-122872500D01*
X132814060Y-123545600D01*
X132615940Y-123995180D01*
X132527040Y-124175520D01*
X132516880Y-124185680D01*
X132387340Y-124208540D01*
X132110480Y-124109480D01*
X131612640Y-123865640D01*
X131279900Y-123695460D01*
X130898900Y-123512580D01*
X130726180Y-123444000D01*
X130583940Y-123522740D01*
X130215640Y-123761500D01*
X129682240Y-124117100D01*
X129039620Y-124553980D01*
X128430020Y-124968000D01*
X127866140Y-125341380D01*
X127454660Y-125603000D01*
X127259080Y-125709680D01*
X127226060Y-125709680D01*
X127048260Y-125610620D01*
X126728220Y-125341380D01*
X126238000Y-124879100D01*
X125544580Y-124195840D01*
X125440440Y-124091700D01*
X124871480Y-123512580D01*
X124409200Y-123027440D01*
X124099320Y-122682000D01*
X123987560Y-122524520D01*
X123987560Y-122521980D01*
X124089160Y-122328940D01*
X124348240Y-121920000D01*
X124721620Y-121351040D01*
X125176280Y-120683020D01*
X126365000Y-118955820D01*
X125712220Y-117325140D01*
X125511560Y-116827300D01*
X125257560Y-116220240D01*
X125067060Y-115788440D01*
X124970540Y-115600480D01*
X124792740Y-115536980D01*
X124345700Y-115430300D01*
X123700540Y-115295680D01*
X122928380Y-115150900D01*
X122194320Y-115016280D01*
X121528840Y-114891820D01*
X121048780Y-114797840D01*
X120832880Y-114754660D01*
X120782080Y-114724180D01*
X120738900Y-114620040D01*
X120710960Y-114393980D01*
X120693180Y-113990120D01*
X120685560Y-113355120D01*
X120685560Y-112435640D01*
X120685560Y-112336580D01*
X120693180Y-111457740D01*
X120708420Y-110759240D01*
X120733820Y-110294420D01*
X120764300Y-110114080D01*
X120766840Y-110111540D01*
X120972580Y-110060740D01*
X121442480Y-109961680D01*
X122105420Y-109832140D01*
X122897900Y-109682280D01*
X122946160Y-109672120D01*
X123736100Y-109519720D01*
X124396500Y-109382560D01*
X124858780Y-109275880D01*
X125054360Y-109214920D01*
X125095000Y-109159040D01*
X125255020Y-108851700D01*
X125481080Y-108361480D01*
X125742700Y-107764580D01*
X125999240Y-107144820D01*
X126222760Y-106588560D01*
X126372620Y-106172000D01*
X126418340Y-105984040D01*
X126415800Y-105978960D01*
X126296420Y-105788460D01*
X126024640Y-105382060D01*
X125641100Y-104813100D01*
X125181360Y-104142540D01*
X125145800Y-104091740D01*
X124693680Y-103423720D01*
X124325380Y-102862380D01*
X124079000Y-102458520D01*
X123987560Y-102278180D01*
X123990100Y-102265480D01*
X124139960Y-102067360D01*
X124480320Y-101688900D01*
X124965460Y-101180900D01*
X125549660Y-100591620D01*
X125735080Y-100408740D01*
X126382780Y-99776280D01*
X126834900Y-99362260D01*
X127114300Y-99141280D01*
X127248920Y-99093020D01*
X127254000Y-99095560D01*
X127454660Y-99217480D01*
X127873760Y-99491800D01*
X128447800Y-99877880D01*
X129123440Y-100337620D01*
X129171700Y-100370640D01*
X129837180Y-100822760D01*
X130393440Y-101198680D01*
X130787140Y-101460300D01*
X130959860Y-101564440D01*
X130990340Y-101564440D01*
X131262120Y-101485700D01*
X131734560Y-101318060D01*
X132318760Y-101092000D01*
X132935980Y-100845620D01*
X133494780Y-100609400D01*
X133916420Y-100416360D01*
X134114540Y-100304600D01*
X134119620Y-100294440D01*
X134190740Y-100055680D01*
X134305040Y-99557840D01*
X134447280Y-98869500D01*
X134602220Y-98054160D01*
X134627620Y-97922080D01*
X134777480Y-97127060D01*
X134904480Y-96471740D01*
X134998460Y-96017080D01*
X135044180Y-95831660D01*
X135155940Y-95803720D01*
X135547100Y-95775780D01*
X136138920Y-95760540D01*
X136855200Y-95752920D01*
X137619740Y-95758000D01*
X138356340Y-95773240D01*
X138986260Y-95796100D01*
X139435840Y-95826580D01*
X139623800Y-95864680D01*
X139631420Y-95874840D01*
X139700000Y-96121220D01*
X139809220Y-96621600D01*
X139951460Y-97312480D01*
X140106400Y-98130360D01*
X140134340Y-98275140D01*
X140284200Y-99067620D01*
X140416280Y-99717860D01*
X140512800Y-100164900D01*
X140563600Y-100340160D01*
X140634720Y-100378260D01*
X140962380Y-100520500D01*
X141493240Y-100741480D01*
X142151100Y-101008180D01*
X143680180Y-101625400D01*
X145549620Y-100342700D01*
X145722340Y-100225860D01*
X146395440Y-99768660D01*
X146949160Y-99400360D01*
X147335240Y-99151440D01*
X147492720Y-99060000D01*
X147505420Y-99067620D01*
X147693380Y-99230180D01*
X148064220Y-99578160D01*
X148569680Y-100070920D01*
X149161500Y-100657660D01*
X149595840Y-101094540D01*
X150111460Y-101620320D01*
X150439120Y-101973380D01*
X150616920Y-102199440D01*
X150680420Y-102336600D01*
X150665180Y-102428040D01*
X150543260Y-102618540D01*
X150268940Y-103030020D01*
X149882860Y-103598980D01*
X149428200Y-104261920D01*
X149054820Y-104813100D01*
X148645880Y-105443020D01*
X148381720Y-105892600D01*
X148290280Y-106111040D01*
X148313140Y-106202480D01*
X148442680Y-106568240D01*
X148666200Y-107121960D01*
X148948140Y-107782360D01*
X149598380Y-109263180D01*
X150571200Y-109451140D01*
X151157940Y-109562900D01*
X151980900Y-109720380D01*
X152770840Y-109872780D01*
X154000200Y-110111540D01*
X154043380Y-114640360D01*
X153852880Y-114721640D01*
X153672540Y-114769900D01*
X153215340Y-114871500D01*
X152565100Y-115001040D01*
X151798020Y-115145820D01*
X151142700Y-115267740D01*
X150484840Y-115392200D01*
X150012400Y-115483640D01*
X149801580Y-115529360D01*
X149748240Y-115600480D01*
X149583140Y-115920520D01*
X149352000Y-116425980D01*
X149087840Y-117035580D01*
X148823680Y-117670580D01*
X148592540Y-118252240D01*
X148429980Y-118696740D01*
X148369020Y-118927880D01*
X148460460Y-119100600D01*
X148706840Y-119489220D01*
X149072600Y-120040400D01*
X149519640Y-120695720D01*
X149966680Y-121351040D01*
X150345140Y-121909840D01*
X150609300Y-122313700D01*
X150718520Y-122496580D01*
X150665180Y-122621040D01*
X150401020Y-122938540D01*
X149908260Y-123451620D01*
X149174200Y-124178060D01*
X149054820Y-124294900D01*
X148468080Y-124856240D01*
X147975320Y-125310900D01*
X147629880Y-125618240D01*
X147477480Y-125730000D01*
%LPC*%
D14*
X190805000Y4978400D03*
D15*
X181102000Y42773600D03*
X178562000Y42773600D03*
X176022000Y42773600D03*
X173482000Y42773600D03*
X170942000Y42773600D03*
X168402000Y42773600D03*
X165862000Y42773600D03*
X199619000Y14681200D03*
X126390000Y-11150600D03*
X134366000Y-10515600D03*
X126390000Y-13919200D03*
X134417000Y-13258800D03*
X196647000Y-55092600D03*
X178130000Y-55321200D03*
X175336000Y-55245000D03*
X172593000Y-55143400D03*
X169824000Y-55092600D03*
X167107000Y-55016400D03*
X157734000Y-55168800D03*
X154991000Y-55143400D03*
X152222000Y-55067200D03*
X149479000Y-55016400D03*
X131674000Y-54381400D03*
X128905000Y-54457600D03*
X165862000Y39649400D03*
D16*
X47828200Y33731200D03*
D17*
X50368200Y33731200D03*
D16*
X52908200Y33731200D03*
X55448200Y33731200D03*
X97739000Y30886400D03*
D17*
X100279000Y30886400D03*
D16*
X102819000Y30886400D03*
X105359000Y30886400D03*
X145440000Y34137600D03*
D17*
X147980000Y34137600D03*
D16*
X150520000Y34137600D03*
X153060000Y34137600D03*
X203454000Y33045400D03*
D17*
X205994000Y33045400D03*
D16*
X208534000Y33045400D03*
X211074000Y33045400D03*
X47701200Y-22936200D03*
D17*
X50241200Y-22936200D03*
D16*
X52781200Y-22936200D03*
X55321200Y-22936200D03*
X97155000Y-25755600D03*
D17*
X99695000Y-25755600D03*
D16*
X102235000Y-25755600D03*
X104775000Y-25755600D03*
X145136000Y-22606000D03*
D17*
X147676000Y-22606000D03*
D16*
X150216000Y-22606000D03*
X152756000Y-22606000D03*
X203200000Y-22504400D03*
D17*
X205740000Y-22504400D03*
D16*
X208280000Y-22504400D03*
X210820000Y-22504400D03*
X47802800Y-79654400D03*
D17*
X50342800Y-79654400D03*
D16*
X52882800Y-79654400D03*
X55422800Y-79654400D03*
X97205800Y-82600800D03*
D17*
X99745800Y-82600800D03*
D16*
X102285800Y-82600800D03*
X104825800Y-82600800D03*
X145796000Y-79375000D03*
D17*
X148336000Y-79375000D03*
D16*
X150876000Y-79375000D03*
X153416000Y-79375000D03*
X203886000Y-79298800D03*
D17*
X206426000Y-79298800D03*
D16*
X208966000Y-79298800D03*
X211506000Y-79298800D03*
X47701200Y-135052000D03*
D17*
X50241200Y-135052000D03*
D16*
X52781200Y-135052000D03*
X55321200Y-135052000D03*
X96977200Y-138684000D03*
D17*
X99517200Y-138684000D03*
D16*
X102057200Y-138684000D03*
X104597200Y-138684000D03*
X145847000Y-135306000D03*
D17*
X148387000Y-135306000D03*
D16*
X150927000Y-135306000D03*
X153467000Y-135306000D03*
X202819000Y-135128000D03*
D17*
X205359000Y-135128000D03*
D16*
X207899000Y-135128000D03*
X210439000Y-135128000D03*
D17*
X191490400Y-64338200D03*
X194030400Y-64363600D03*
X196824400Y-64363600D03*
X175844400Y-64338200D03*
X178384400Y-64363600D03*
X181178400Y-64363600D03*
X160401400Y-64338200D03*
X162941400Y-64363600D03*
X165735400Y-64363600D03*
D18*
X202311000Y-146304000D03*
X212471000Y-146304000D03*
X57099200Y22301200D03*
X46939200Y22301200D03*
X105537000Y41732200D03*
X95377000Y41732200D03*
X143662000Y22529800D03*
X153822000Y22529800D03*
X202870000Y22656800D03*
X213030000Y22656800D03*
X56464200Y-33426400D03*
X46304200Y-33426400D03*
X105156000Y-14528800D03*
X94996000Y-14528800D03*
X147701000Y-44094400D03*
X147701000Y-33934400D03*
X205740000Y-44221400D03*
X205740000Y-34061400D03*
X56845200Y-89890600D03*
X46685200Y-89890600D03*
X107061000Y-70459600D03*
X96901000Y-70459600D03*
X145034000Y-90043000D03*
X155194000Y-90043000D03*
X202768000Y-90043000D03*
X212928000Y-90043000D03*
X95072000Y-127254000D03*
X105232000Y-127254000D03*
X45872400Y-146253000D03*
X56032400Y-146253000D03*
X154254000Y-146431000D03*
X144094000Y-146431000D03*
X137668000Y38785800D03*
X127508000Y38785800D03*
X77927200Y28270200D03*
X67767200Y28270200D03*
X126898000Y27254200D03*
X116738000Y27254200D03*
X164846000Y28270200D03*
X175006000Y28270200D03*
X226924000Y17703800D03*
X226924000Y27863800D03*
X78308200Y-28016200D03*
X68148200Y-28016200D03*
X119761000Y-38989000D03*
X119761000Y-28829000D03*
X169291000Y-39268400D03*
X169291000Y-29108400D03*
X226924000Y-38760400D03*
X226924000Y-28600400D03*
X78181200Y-84378800D03*
X68021200Y-84378800D03*
X127229000Y-85267800D03*
X117069000Y-85267800D03*
X165735000Y-84836000D03*
X175895000Y-84836000D03*
X226873000Y-95148400D03*
X226873000Y-84988400D03*
X78308200Y-140716000D03*
X68148200Y-140716000D03*
X127406000Y-141351000D03*
X117246000Y-141351000D03*
X165786000Y-140818000D03*
X175946000Y-140818000D03*
X226797000Y-120269000D03*
X226797000Y-130429000D03*
X177648000Y10998200D03*
X177648000Y838200D03*
X171069000Y10998200D03*
X171069000Y838200D03*
X164490000Y10998200D03*
X164490000Y838200D03*
X157861000Y10998200D03*
X157861000Y838200D03*
X151232000Y10998200D03*
X151232000Y838200D03*
X144526000Y10998200D03*
X144526000Y838200D03*
X137820000Y10922000D03*
X137820000Y762000D03*
X131039000Y10947400D03*
X131039000Y787400D03*
X174346000Y10998200D03*
X174346000Y838200D03*
X180950000Y10998200D03*
X180950000Y838200D03*
X167767000Y10998200D03*
X167767000Y838200D03*
X161163000Y10998200D03*
X161163000Y838200D03*
X154584000Y10998200D03*
X154584000Y838200D03*
X147879000Y10998200D03*
X147879000Y838200D03*
X141173000Y10998200D03*
X141173000Y838200D03*
X134391000Y10922000D03*
X134391000Y762000D03*
X178537000Y38963600D03*
X178537000Y28803600D03*
D19*
X157074000Y-51485800D03*
X154534000Y-51485800D03*
X151994000Y-51485800D03*
X149454000Y-51485800D03*
X146914000Y-51485800D03*
X144374000Y-51485800D03*
X141834000Y-51485800D03*
X139294000Y-51485800D03*
X134214000Y-3225800D03*
X136754000Y-3225800D03*
X139294000Y-3225800D03*
X141834000Y-3225800D03*
X151994000Y-3225800D03*
X157074000Y-3225800D03*
X159614000Y-3225800D03*
X149454000Y-3225800D03*
X146914000Y-3225800D03*
X144374000Y-3225800D03*
X162154000Y-3225800D03*
X164694000Y-3225800D03*
X167234000Y-3225800D03*
X174854000Y-3225800D03*
X172314000Y-3225800D03*
X169774000Y-3225800D03*
X179934000Y-3225800D03*
X182474000Y-3225800D03*
X185014000Y-3225800D03*
X190094000Y-3225800D03*
X192634000Y-3225800D03*
X162154000Y-51485800D03*
X164694000Y-51485800D03*
X167234000Y-51485800D03*
X169774000Y-51485800D03*
X172314000Y-51485800D03*
X174854000Y-51485800D03*
X177394000Y-51485800D03*
X179934000Y-51485800D03*
X183998000Y-51485800D03*
X186538000Y-51485800D03*
X189078000Y-51485800D03*
X191618000Y-51485800D03*
X194158000Y-51485800D03*
X196698000Y-51485800D03*
X199238000Y-51485800D03*
X201778000Y-51485800D03*
X187554000Y-3225800D03*
D20*
X129134000Y-3225800D03*
X135484000Y-51485800D03*
X210414000Y-51485800D03*
D16*
X131674000Y-48945800D03*
X129134000Y-48945800D03*
X131674000Y-46405800D03*
X129134000Y-46405800D03*
X131674000Y-43865800D03*
X129134000Y-43865800D03*
X131674000Y-41325800D03*
X129134000Y-41325800D03*
X131674000Y-51485800D03*
X129134000Y-51485800D03*
X129134000Y-38785800D03*
X131674000Y-38785800D03*
X131674000Y-36245800D03*
X129134000Y-36245800D03*
X131674000Y-33705800D03*
X129134000Y-33705800D03*
X131674000Y-31165800D03*
X129134000Y-31165800D03*
X131674000Y-28625800D03*
X129134000Y-28625800D03*
X131674000Y-26085800D03*
X129134000Y-26085800D03*
X131674000Y-23545800D03*
X129134000Y-23545800D03*
X131674000Y-21005800D03*
X129134000Y-21005800D03*
X131674000Y-18465800D03*
X129134000Y-18465800D03*
X131674000Y-15925800D03*
X129134000Y-15925800D03*
X131674000Y-13385800D03*
X129134000Y-13385800D03*
X131674000Y-10845800D03*
X129134000Y-10845800D03*
X131674000Y-8305800D03*
X129134000Y-8305800D03*
X162154000Y-31165800D03*
X159614000Y-31165800D03*
X162154000Y-28625800D03*
X159614000Y-28625800D03*
X162154000Y-26085800D03*
X159614000Y-26085800D03*
D20*
X159868000Y-36245800D03*
X159614000Y-8305800D03*
D19*
X195174000Y-3225800D03*
X197714000Y-3225800D03*
X204318000Y-51485800D03*
X206858000Y-51485800D03*
D15*
X131191000Y42087800D03*
X133731000Y42087800D03*
D18*
X44138200Y28905200D03*
X59138200Y28905200D03*
X93236000Y35687000D03*
X108236000Y35687000D03*
X141598000Y29438600D03*
X156598000Y29438600D03*
X200170000Y28244800D03*
X215170000Y28244800D03*
X43985800Y-27736800D03*
X58985800Y-27736800D03*
X92855000Y-20904200D03*
X107855000Y-20904200D03*
X141420000Y-27228800D03*
X156420000Y-27228800D03*
X199993000Y-27305000D03*
X214993000Y-27305000D03*
X44366800Y-84277200D03*
X59366800Y-84277200D03*
X93135000Y-77851000D03*
X108135000Y-77851000D03*
X142233000Y-83947000D03*
X157233000Y-83947000D03*
X199967000Y-83947000D03*
X214967000Y-83947000D03*
X44341400Y-139929000D03*
X59341400Y-139929000D03*
X93160000Y-133858000D03*
X108160000Y-133858000D03*
X142131000Y-140284000D03*
X157131000Y-140284000D03*
X199764000Y-139827000D03*
X214764000Y-139827000D03*
X182067000Y28854400D03*
X182067000Y39014400D03*
D15*
X196850000Y14681200D03*
X126340000Y-8407400D03*
X199415000Y-55092600D03*
X194081000Y14681200D03*
X191363000Y14655800D03*
X188595000Y14605000D03*
D21*
X173457000Y38811200D03*
X171679000Y38811200D03*
D14*
X79248000Y4978400D03*
X79222600Y-109423000D03*
X190779000Y-109347000D03*
D22*
X66192400Y-60934400D03*
X63652400Y-60934400D03*
X66192400Y-58394400D03*
X63652400Y-58394400D03*
X66192400Y-55854400D03*
X63652400Y-55854400D03*
X66192400Y-53314400D03*
X63652400Y-53314400D03*
X66192400Y-50774400D03*
X63652400Y-50774400D03*
X66192400Y-48234400D03*
X63652400Y-48234400D03*
X66192400Y-45694400D03*
X63652400Y-45694400D03*
X66192400Y-43154400D03*
X63652400Y-43154400D03*
X94157800Y-60934400D03*
X91617800Y-60934400D03*
X94157800Y-58394400D03*
X91617800Y-58394400D03*
X94157800Y-55854400D03*
X91617800Y-55854400D03*
X94157800Y-53314400D03*
X91617800Y-53314400D03*
X94157800Y-50774400D03*
X91617800Y-50774400D03*
X94157800Y-48234400D03*
X91617800Y-48234400D03*
X94157800Y-45694400D03*
X91617800Y-45694400D03*
X94157800Y-43154400D03*
X91617800Y-43154400D03*
X71983600Y-60909400D03*
X69443600Y-60909400D03*
X71983600Y-58369400D03*
X69443600Y-58369400D03*
X71983600Y-55829400D03*
X69443600Y-55829400D03*
X71983600Y-53289400D03*
X69443600Y-53289400D03*
X71983600Y-50749400D03*
X69443600Y-50749400D03*
X71983600Y-48209400D03*
X69443600Y-48209400D03*
X71983600Y-45669400D03*
X69443600Y-45669400D03*
X71983600Y-43129400D03*
X69443600Y-43129400D03*
X77520800Y-60909400D03*
X74980800Y-60909400D03*
X77520800Y-58369400D03*
X74980800Y-58369400D03*
X77520800Y-55829400D03*
X74980800Y-55829400D03*
X77520800Y-53289400D03*
X74980800Y-53289400D03*
X77520800Y-50749400D03*
X74980800Y-50749400D03*
X77520800Y-48209400D03*
X74980800Y-48209400D03*
X77520800Y-45669400D03*
X74980800Y-45669400D03*
X77520800Y-43129400D03*
X74980800Y-43129400D03*
X83058000Y-60960400D03*
X80518000Y-60960400D03*
X83058000Y-58420400D03*
X80518000Y-58420400D03*
X83058000Y-55880400D03*
X80518000Y-55880400D03*
X83058000Y-53340400D03*
X80518000Y-53340400D03*
X83058000Y-50800400D03*
X80518000Y-50800400D03*
X83058000Y-48260400D03*
X80518000Y-48260400D03*
X83058000Y-45720400D03*
X80518000Y-45720400D03*
X83058000Y-43180400D03*
X80518000Y-43180400D03*
X88519000Y-60934400D03*
X85979000Y-60934400D03*
X88519000Y-58394400D03*
X85979000Y-58394400D03*
X88519000Y-55854400D03*
X85979000Y-55854400D03*
X88519000Y-53314400D03*
X85979000Y-53314400D03*
X88519000Y-50774400D03*
X85979000Y-50774400D03*
X88519000Y-48234400D03*
X85979000Y-48234400D03*
X88519000Y-45694400D03*
X85979000Y-45694400D03*
X88519000Y-43154400D03*
X85979000Y-43154400D03*
D15*
X191389000Y39268400D03*
X188849000Y39268400D03*
D23*
X71577200Y33223200D03*
X74117200Y33223200D03*
X120167000Y32283400D03*
X122707000Y32283400D03*
X168935000Y33248600D03*
X171475000Y33248600D03*
X226949000Y33324800D03*
X229489000Y33324800D03*
X71399400Y-22987000D03*
X73939400Y-22987000D03*
X120269000Y-24028400D03*
X122809000Y-24028400D03*
X169164000Y-23342600D03*
X171704000Y-23342600D03*
X226949000Y-23291800D03*
X229489000Y-23291800D03*
X71399400Y-79298800D03*
X73939400Y-79298800D03*
X120091000Y-80187800D03*
X122631000Y-80187800D03*
X168910000Y-79502000D03*
X171450000Y-79502000D03*
X226898000Y-79451200D03*
X229438000Y-79451200D03*
X71323200Y-135382000D03*
X73863200Y-135382000D03*
X120167000Y-136373000D03*
X122707000Y-136373000D03*
X168808000Y-135661000D03*
X171348000Y-135661000D03*
X226898000Y-135763000D03*
X229438000Y-135763000D03*
D24*
X207267800Y-63818000D03*
X170580800Y-90731600D03*
X155832400Y-117227800D03*
X128235800Y-136390500D03*
X98820400Y10044700D03*
X108257000Y-5590700D03*
X126129700Y-5590700D03*
X116559400Y-6685000D03*
X126995200Y10182000D03*
X120681700Y922500D03*
X116860500Y-8085400D03*
X155928600Y-58981500D03*
X214416800Y-64508000D03*
X125731300Y-74650500D03*
X83256500Y-73553000D03*
X137252500Y-44265500D03*
X111212000Y-39435000D03*
X146112900Y-29713500D03*
X206581700Y-39550300D03*
X114930000Y-43430000D03*
X173665900Y-94414800D03*
X185044500Y-60997500D03*
X175329900Y-43863900D03*
X148461600Y-29639500D03*
X197983300Y-46438500D03*
X94895400Y-27225700D03*
X111353600Y11146400D03*
X107142900Y-38922900D03*
X112758300Y9618600D03*
X108971100Y-39068100D03*
X215287000Y-30647100D03*
X141774700Y-35776100D03*
X142217900Y-39805700D03*
X159211200Y-61190400D03*
X88036200Y-73399400D03*
X121459000Y-46798300D03*
X216545900Y-74504300D03*
X207645100Y-40921700D03*
X136104500Y-39857500D03*
X139119100Y-91871600D03*
X216787200Y-85752300D03*
X206859700Y-42222000D03*
X133204100Y-40315900D03*
X123735200Y-43526400D03*
X185885000Y-62137600D03*
X135189100Y-34554500D03*
X137590700Y-120090600D03*
X150394600Y-15265700D03*
X187554000Y-15265700D03*
X198509600Y5331500D03*
X193044900Y-48103400D03*
X156686700Y2638000D03*
X183026700Y6683000D03*
X68340000Y-18916500D03*
X161778400Y-23580000D03*
X72186200Y-18070000D03*
X113565900Y-4004300D03*
X206046400Y-66037800D03*
X198428800Y-73922100D03*
X107732700Y-91537700D03*
X136219100Y-139911000D03*
X195814900Y-46726500D03*
M02*
