M48
METRIC,TZ
T1C0.700
T2C0.711
T3C0.762
T4C0.813
T5C1.001
T6C1.016
T7C3.200
%
G90
G05
T1
X068340Y-018917
X072186Y-018070
X083257Y-073553
X088036Y-073399
X094895Y-027226
X098820Y010045
X107143Y-038923
X107733Y-091538
X108257Y-005591
X108971Y-039068
X111212Y-039435
X111354Y011146
X112758Y009619
X113566Y-004004
X114930Y-043430
X116559Y-006685
X116860Y-008085
X120682Y000923
X121459Y-046798
X123735Y-043526
X125731Y-074651
X126130Y-005591
X126995Y010182
X128236Y-136391
X133204Y-040316
X135189Y-034555
X136105Y-039858
X136219Y-139911
X137253Y-044265
X137591Y-120091
X139119Y-091872
X141775Y-035776
X142218Y-039806
X146113Y-029714
X148462Y-029640
X150395Y-015266
X155832Y-117228
X155929Y-058982
X156687Y002638
X159211Y-061190
X161778Y-023580
X170581Y-090732
X173666Y-094415
X175330Y-043864
X183027Y006683
X185045Y-060997
X185885Y-062138
X187554Y-015266
X193045Y-048103
X195815Y-046727
X197983Y-046439
X198429Y-073922
X198510Y005332
X206046Y-066038
X206582Y-039550
X206860Y-042222
X207268Y-063818
X207645Y-040922
X214417Y-064508
X215287Y-030647
X216546Y-074504
X216787Y-085752
T2
X171679Y038811
X173457Y038811
T3
X047701Y-022936
X047701Y-135052
X047803Y-079654
X047828Y033731
X050241Y-022936
X050241Y-135052
X050343Y-079654
X050368Y033731
X052781Y-022936
X052781Y-135052
X052883Y-079654
X052908Y033731
X055321Y-022936
X055321Y-135052
X055423Y-079654
X055448Y033731
X096977Y-138684
X097155Y-025756
X097206Y-082601
X097739Y030886
X099517Y-138684
X099695Y-025756
X099746Y-082601
X100279Y030886
X102057Y-138684
X102235Y-025756
X102286Y-082601
X102819Y030886
X104597Y-138684
X104775Y-025756
X104826Y-082601
X105359Y030886
X145136Y-022606
X145440Y034138
X145796Y-079375
X145847Y-135306
X147676Y-022606
X147980Y034138
X148336Y-079375
X148387Y-135306
X150216Y-022606
X150520Y034138
X150876Y-079375
X150927Y-135306
X152756Y-022606
X153060Y034138
X153416Y-079375
X153467Y-135306
X160401Y-064338
X162941Y-064364
X165735Y-064364
X175844Y-064338
X178384Y-064364
X181178Y-064364
X191490Y-064338
X194030Y-064364
X196824Y-064364
X202819Y-135128
X203200Y-022504
X203454Y033045
X203886Y-079299
X205359Y-135128
X205740Y-022504
X205994Y033045
X206426Y-079299
X207899Y-135128
X208280Y-022504
X208534Y033045
X208966Y-079299
X210439Y-135128
X210820Y-022504
X211074Y033045
X211506Y-079299
T4
X071323Y-135382
X071399Y-022987
X071399Y-079299
X071577Y033223
X073863Y-135382
X073939Y-022987
X073939Y-079299
X074117Y033223
X120091Y-080188
X120167Y032283
X120167Y-136373
X120269Y-024028
X122631Y-080188
X122707Y032283
X122707Y-136373
X122809Y-024028
X159614Y-026086
X159614Y-028626
X159614Y-031166
X162154Y-026086
X162154Y-028626
X162154Y-031166
X168808Y-135661
X168910Y-079502
X168935Y033249
X169164Y-023343
X171348Y-135661
X171450Y-079502
X171475Y033249
X171704Y-023343
X226898Y-079451
X226898Y-135763
X226949Y033325
X226949Y-023292
X229438Y-079451
X229438Y-135763
X229489Y033325
X229489Y-023292
T5
X043986Y-027737
X044138Y028905
X044341Y-139929
X044367Y-084277
X045872Y-146253
X046304Y-033426
X046685Y-089891
X046939Y022301
X056032Y-146253
X056464Y-033426
X056845Y-089891
X057099Y022301
X058986Y-027737
X059138Y028905
X059341Y-139929
X059367Y-084277
X067767Y028270
X068021Y-084379
X068148Y-028016
X068148Y-140716
X077927Y028270
X078181Y-084379
X078308Y-028016
X078308Y-140716
X092855Y-020904
X093135Y-077851
X093160Y-133858
X093236Y035687
X094996Y-014529
X095072Y-127254
X095377Y041732
X096901Y-070460
X105156Y-014529
X105232Y-127254
X105537Y041732
X107061Y-070460
X107855Y-020904
X108135Y-077851
X108160Y-133858
X108236Y035687
X116738Y027254
X117069Y-085268
X117246Y-141351
X119761Y-028829
X119761Y-038989
X126898Y027254
X127229Y-085268
X127406Y-141351
X127508Y038786
X131039Y010947
X131039Y000787
X134391Y010922
X134391Y000762
X137668Y038786
X137820Y010922
X137820Y000762
X141173Y010998
X141173Y000838
X141420Y-027229
X141598Y029439
X142131Y-140284
X142233Y-083947
X143662Y022530
X144094Y-146431
X144526Y010998
X144526Y000838
X145034Y-090043
X147701Y-033934
X147701Y-044094
X147879Y010998
X147879Y000838
X151232Y010998
X151232Y000838
X153822Y022530
X154254Y-146431
X154584Y010998
X154584Y000838
X155194Y-090043
X156420Y-027229
X156598Y029439
X157131Y-140284
X157233Y-083947
X157861Y010998
X157861Y000838
X161163Y010998
X161163Y000838
X164490Y010998
X164490Y000838
X164846Y028270
X165735Y-084836
X165786Y-140818
X167767Y010998
X167767Y000838
X169291Y-029108
X169291Y-039268
X171069Y010998
X171069Y000838
X174346Y010998
X174346Y000838
X175006Y028270
X175895Y-084836
X175946Y-140818
X177648Y010998
X177648Y000838
X178537Y038964
X178537Y028804
X180950Y010998
X180950Y000838
X182067Y039014
X182067Y028854
X199764Y-139827
X199967Y-083947
X199993Y-027305
X200170Y028245
X202311Y-146304
X202768Y-090043
X202870Y022657
X205740Y-034061
X205740Y-044221
X212471Y-146304
X212928Y-090043
X213030Y022657
X214764Y-139827
X214967Y-083947
X214993Y-027305
X215170Y028245
X226797Y-120269
X226797Y-130429
X226873Y-084988
X226873Y-095148
X226924Y027864
X226924Y017704
X226924Y-028600
X226924Y-038760
T6
X063652Y-043154
X063652Y-045694
X063652Y-048234
X063652Y-050774
X063652Y-053314
X063652Y-055854
X063652Y-058394
X063652Y-060934
X066192Y-043154
X066192Y-045694
X066192Y-048234
X066192Y-050774
X066192Y-053314
X066192Y-055854
X066192Y-058394
X066192Y-060934
X069444Y-043129
X069444Y-045669
X069444Y-048209
X069444Y-050749
X069444Y-053289
X069444Y-055829
X069444Y-058369
X069444Y-060909
X071984Y-043129
X071984Y-045669
X071984Y-048209
X071984Y-050749
X071984Y-053289
X071984Y-055829
X071984Y-058369
X071984Y-060909
X074981Y-043129
X074981Y-045669
X074981Y-048209
X074981Y-050749
X074981Y-053289
X074981Y-055829
X074981Y-058369
X074981Y-060909
X077521Y-043129
X077521Y-045669
X077521Y-048209
X077521Y-050749
X077521Y-053289
X077521Y-055829
X077521Y-058369
X077521Y-060909
X080518Y-043180
X080518Y-045720
X080518Y-048260
X080518Y-050800
X080518Y-053340
X080518Y-055880
X080518Y-058420
X080518Y-060960
X083058Y-043180
X083058Y-045720
X083058Y-048260
X083058Y-050800
X083058Y-053340
X083058Y-055880
X083058Y-058420
X083058Y-060960
X085979Y-043154
X085979Y-045694
X085979Y-048234
X085979Y-050774
X085979Y-053314
X085979Y-055854
X085979Y-058394
X085979Y-060934
X088519Y-043154
X088519Y-045694
X088519Y-048234
X088519Y-050774
X088519Y-053314
X088519Y-055854
X088519Y-058394
X088519Y-060934
X091618Y-043154
X091618Y-045694
X091618Y-048234
X091618Y-050774
X091618Y-053314
X091618Y-055854
X091618Y-058394
X091618Y-060934
X094158Y-043154
X094158Y-045694
X094158Y-048234
X094158Y-050774
X094158Y-053314
X094158Y-055854
X094158Y-058394
X094158Y-060934
X126340Y-008407
X126390Y-011151
X126390Y-013919
X128905Y-054458
X129134Y-008306
X129134Y-010846
X129134Y-013386
X129134Y-015926
X129134Y-018466
X129134Y-021006
X129134Y-023546
X129134Y-026086
X129134Y-028626
X129134Y-031166
X129134Y-033706
X129134Y-036246
X129134Y-038786
X129134Y-041326
X129134Y-043866
X129134Y-046406
X129134Y-048946
X129134Y-051486
X131191Y042088
X131674Y-008306
X131674Y-010846
X131674Y-013386
X131674Y-015926
X131674Y-018466
X131674Y-021006
X131674Y-023546
X131674Y-026086
X131674Y-028626
X131674Y-031166
X131674Y-033706
X131674Y-036246
X131674Y-038786
X131674Y-041326
X131674Y-043866
X131674Y-046406
X131674Y-048946
X131674Y-051486
X131674Y-054381
X133731Y042088
X134214Y-003226
X134366Y-010516
X134417Y-013259
X136754Y-003226
X139294Y-003226
X139294Y-051486
X141834Y-003226
X141834Y-051486
X144374Y-003226
X144374Y-051486
X146914Y-003226
X146914Y-051486
X149454Y-003226
X149454Y-051486
X149479Y-055016
X151994Y-003226
X151994Y-051486
X152222Y-055067
X154534Y-051486
X154991Y-055143
X157074Y-003226
X157074Y-051486
X157734Y-055169
X159614Y-003226
X162154Y-003226
X162154Y-051486
X164694Y-003226
X164694Y-051486
X165862Y042774
X165862Y039649
X167107Y-055016
X167234Y-003226
X167234Y-051486
X168402Y042774
X169774Y-003226
X169774Y-051486
X169824Y-055093
X170942Y042774
X172314Y-003226
X172314Y-051486
X172593Y-055143
X173482Y042774
X174854Y-003226
X174854Y-051486
X175336Y-055245
X176022Y042774
X177394Y-051486
X178130Y-055321
X178562Y042774
X179934Y-003226
X179934Y-051486
X181102Y042774
X182474Y-003226
X183998Y-051486
X185014Y-003226
X186538Y-051486
X187554Y-003226
X188595Y014605
X188849Y039268
X189078Y-051486
X190094Y-003226
X191363Y014656
X191389Y039268
X191618Y-051486
X192634Y-003226
X194081Y014681
X194158Y-051486
X195174Y-003226
X196647Y-055093
X196698Y-051486
X196850Y014681
X197714Y-003226
X199238Y-051486
X199415Y-055093
X199619Y014681
X201778Y-051486
X204318Y-051486
X206858Y-051486
T7
X079223Y-109423
X079248Y004978
X190779Y-109347
X190805Y004978
T0
M30
